G04 EAGLE Gerber RS-274X export*
G75*
%MOMM*%
%FSLAX34Y34*%
%LPD*%
%INSolder side*%
%IPPOS*%
%AMOC8*
5,1,8,0,0,1.08239X$1,22.5*%
G01*
%ADD10C,0.352400*%
%ADD11R,1.350000X1.350000*%
%ADD12C,1.350000*%
%ADD13R,3.170000X1.020000*%
%ADD14C,1.500000*%
%ADD15C,1.950000*%
%ADD16R,1.950000X1.950000*%
%ADD17C,0.812800*%
%ADD18C,0.152400*%
%ADD19C,0.127000*%
%ADD20C,0.454000*%
%ADD21C,0.635000*%

G36*
X380022Y-297495D02*
X380022Y-297495D01*
X380050Y-297497D01*
X383470Y-297228D01*
X383519Y-297215D01*
X383616Y-297199D01*
X390123Y-295085D01*
X390127Y-295082D01*
X390133Y-295082D01*
X390299Y-294995D01*
X395834Y-290974D01*
X395838Y-290970D01*
X395843Y-290967D01*
X395974Y-290834D01*
X399995Y-285299D01*
X399997Y-285294D01*
X400001Y-285290D01*
X400085Y-285123D01*
X402199Y-278616D01*
X402206Y-278568D01*
X402206Y-278565D01*
X402206Y-278564D01*
X402228Y-278470D01*
X402497Y-275050D01*
X402495Y-275028D01*
X402499Y-275000D01*
X402499Y260000D01*
X402495Y260022D01*
X402497Y260050D01*
X402228Y263470D01*
X402215Y263519D01*
X402199Y263616D01*
X400085Y270123D01*
X400082Y270127D01*
X400082Y270133D01*
X399995Y270299D01*
X395974Y275834D01*
X395970Y275838D01*
X395967Y275843D01*
X395834Y275974D01*
X390299Y279995D01*
X390294Y279997D01*
X390290Y280001D01*
X390123Y280085D01*
X383616Y282199D01*
X383566Y282206D01*
X383470Y282228D01*
X380050Y282497D01*
X380028Y282495D01*
X380000Y282499D01*
X335949Y282499D01*
X335859Y282483D01*
X335767Y282473D01*
X335746Y282463D01*
X335728Y282460D01*
X335685Y282434D01*
X335597Y282393D01*
X321645Y273091D01*
X321611Y273058D01*
X321549Y273012D01*
X321036Y272499D01*
X320949Y272499D01*
X320858Y272483D01*
X320767Y272473D01*
X320746Y272463D01*
X320728Y272460D01*
X320685Y272434D01*
X320597Y272393D01*
X320525Y272345D01*
X319814Y272487D01*
X319766Y272488D01*
X319690Y272499D01*
X240310Y272499D01*
X240263Y272491D01*
X240186Y272487D01*
X239475Y272345D01*
X239403Y272393D01*
X239318Y272429D01*
X239236Y272472D01*
X239214Y272475D01*
X239197Y272482D01*
X239147Y272485D01*
X239051Y272499D01*
X238964Y272499D01*
X238451Y273012D01*
X238412Y273040D01*
X238355Y273091D01*
X224403Y282393D01*
X224318Y282429D01*
X224236Y282472D01*
X224213Y282475D01*
X224197Y282482D01*
X224147Y282485D01*
X224051Y282499D01*
X206135Y282499D01*
X206070Y282488D01*
X206004Y282486D01*
X205961Y282468D01*
X205914Y282460D01*
X205857Y282426D01*
X205797Y282401D01*
X205762Y282370D01*
X205721Y282345D01*
X205679Y282294D01*
X205631Y282250D01*
X205609Y282208D01*
X205580Y282171D01*
X205559Y282109D01*
X205528Y282050D01*
X205520Y281996D01*
X205508Y281959D01*
X205509Y281919D01*
X205501Y281865D01*
X205501Y275969D01*
X205512Y275904D01*
X205514Y275838D01*
X205532Y275795D01*
X205540Y275748D01*
X205574Y275691D01*
X205599Y275631D01*
X205630Y275596D01*
X205655Y275555D01*
X205706Y275513D01*
X205750Y275465D01*
X205792Y275443D01*
X205829Y275414D01*
X205891Y275393D01*
X205950Y275362D01*
X206004Y275354D01*
X206041Y275342D01*
X206081Y275343D01*
X206135Y275335D01*
X207210Y275335D01*
X210335Y272210D01*
X210335Y267790D01*
X207210Y264665D01*
X206135Y264665D01*
X206070Y264654D01*
X206004Y264652D01*
X205961Y264634D01*
X205914Y264626D01*
X205857Y264592D01*
X205797Y264567D01*
X205762Y264536D01*
X205721Y264511D01*
X205679Y264460D01*
X205631Y264416D01*
X205609Y264374D01*
X205580Y264337D01*
X205559Y264275D01*
X205528Y264216D01*
X205520Y264162D01*
X205508Y264125D01*
X205509Y264085D01*
X205501Y264031D01*
X205501Y159793D01*
X160207Y114499D01*
X34793Y114499D01*
X34499Y114793D01*
X34499Y135207D01*
X34793Y135501D01*
X93865Y135501D01*
X93930Y135512D01*
X93996Y135514D01*
X94039Y135532D01*
X94086Y135540D01*
X94143Y135574D01*
X94203Y135599D01*
X94238Y135630D01*
X94279Y135655D01*
X94321Y135706D01*
X94369Y135750D01*
X94391Y135792D01*
X94420Y135829D01*
X94441Y135891D01*
X94472Y135950D01*
X94480Y136004D01*
X94492Y136041D01*
X94491Y136081D01*
X94499Y136135D01*
X94499Y281865D01*
X94488Y281930D01*
X94486Y281996D01*
X94468Y282039D01*
X94460Y282086D01*
X94426Y282143D01*
X94401Y282203D01*
X94370Y282238D01*
X94345Y282279D01*
X94294Y282321D01*
X94250Y282369D01*
X94208Y282391D01*
X94171Y282420D01*
X94109Y282441D01*
X94050Y282472D01*
X93996Y282480D01*
X93959Y282492D01*
X93919Y282491D01*
X93865Y282499D01*
X-380000Y282499D01*
X-380022Y282495D01*
X-380050Y282497D01*
X-383470Y282228D01*
X-383519Y282215D01*
X-383616Y282199D01*
X-390123Y280085D01*
X-390127Y280082D01*
X-390133Y280082D01*
X-390299Y279995D01*
X-395834Y275974D01*
X-395838Y275970D01*
X-395843Y275967D01*
X-395974Y275834D01*
X-399995Y270299D01*
X-399997Y270294D01*
X-400001Y270290D01*
X-400085Y270123D01*
X-402199Y263616D01*
X-402206Y263566D01*
X-402228Y263470D01*
X-402497Y260050D01*
X-402495Y260028D01*
X-402499Y260000D01*
X-402499Y-275000D01*
X-402495Y-275022D01*
X-402497Y-275050D01*
X-402228Y-278470D01*
X-402215Y-278519D01*
X-402199Y-278616D01*
X-400085Y-285123D01*
X-400082Y-285127D01*
X-400082Y-285133D01*
X-399995Y-285299D01*
X-395974Y-290834D01*
X-395970Y-290838D01*
X-395967Y-290843D01*
X-395834Y-290974D01*
X-390299Y-294995D01*
X-390294Y-294997D01*
X-390290Y-295001D01*
X-390123Y-295085D01*
X-383616Y-297199D01*
X-383566Y-297206D01*
X-383470Y-297228D01*
X-380050Y-297497D01*
X-380028Y-297495D01*
X-380000Y-297499D01*
X380000Y-297499D01*
X380022Y-297495D01*
G37*
%LPC*%
G36*
X-27192Y-276021D02*
X-27192Y-276021D01*
X-31243Y-274343D01*
X-34343Y-271243D01*
X-36021Y-267192D01*
X-36021Y-262808D01*
X-34386Y-258862D01*
X-34375Y-258810D01*
X-34354Y-258760D01*
X-34351Y-258701D01*
X-34339Y-258643D01*
X-34346Y-258590D01*
X-34344Y-258535D01*
X-34362Y-258479D01*
X-34370Y-258421D01*
X-34396Y-258373D01*
X-34412Y-258322D01*
X-34455Y-258265D01*
X-34477Y-258224D01*
X-34500Y-258204D01*
X-34524Y-258171D01*
X-36906Y-255789D01*
X-36906Y-153552D01*
X-36913Y-153510D01*
X-36911Y-153468D01*
X-36933Y-153401D01*
X-36945Y-153331D01*
X-36967Y-153295D01*
X-36980Y-153254D01*
X-37034Y-153182D01*
X-37060Y-153138D01*
X-37076Y-153125D01*
X-37092Y-153104D01*
X-144406Y-45789D01*
X-144406Y48289D01*
X-66227Y126469D01*
X-66202Y126503D01*
X-66171Y126532D01*
X-66139Y126595D01*
X-66098Y126653D01*
X-66088Y126694D01*
X-66068Y126732D01*
X-66055Y126821D01*
X-66042Y126870D01*
X-66045Y126891D01*
X-66041Y126917D01*
X-66041Y128967D01*
X-63967Y131041D01*
X-61033Y131041D01*
X-58959Y128967D01*
X-58959Y127767D01*
X-58943Y127679D01*
X-58934Y127591D01*
X-58924Y127570D01*
X-58920Y127546D01*
X-58874Y127470D01*
X-58835Y127390D01*
X-58818Y127373D01*
X-58805Y127353D01*
X-58736Y127297D01*
X-58672Y127236D01*
X-58650Y127227D01*
X-58631Y127212D01*
X-58547Y127183D01*
X-58465Y127148D01*
X-58441Y127147D01*
X-58419Y127140D01*
X-58330Y127142D01*
X-58241Y127138D01*
X-58218Y127146D01*
X-58194Y127146D01*
X-58112Y127180D01*
X-58027Y127207D01*
X-58006Y127223D01*
X-57987Y127231D01*
X-57949Y127265D01*
X-57877Y127319D01*
X-28727Y156469D01*
X-28702Y156503D01*
X-28671Y156532D01*
X-28639Y156595D01*
X-28598Y156653D01*
X-28588Y156694D01*
X-28568Y156732D01*
X-28555Y156821D01*
X-28542Y156870D01*
X-28545Y156891D01*
X-28541Y156917D01*
X-28541Y158967D01*
X-26467Y161041D01*
X-25267Y161041D01*
X-25179Y161057D01*
X-25091Y161066D01*
X-25070Y161076D01*
X-25046Y161080D01*
X-24970Y161126D01*
X-24890Y161165D01*
X-24873Y161182D01*
X-24853Y161195D01*
X-24797Y161264D01*
X-24736Y161328D01*
X-24727Y161350D01*
X-24712Y161369D01*
X-24683Y161453D01*
X-24648Y161535D01*
X-24647Y161559D01*
X-24640Y161581D01*
X-24642Y161670D01*
X-24638Y161759D01*
X-24646Y161782D01*
X-24646Y161806D01*
X-24680Y161888D01*
X-24707Y161973D01*
X-24723Y161994D01*
X-24731Y162013D01*
X-24765Y162051D01*
X-24819Y162123D01*
X-43104Y180408D01*
X-43138Y180433D01*
X-43167Y180464D01*
X-43230Y180496D01*
X-43288Y180537D01*
X-43329Y180547D01*
X-43367Y180567D01*
X-43456Y180580D01*
X-43505Y180593D01*
X-43526Y180590D01*
X-43552Y180594D01*
X-51368Y180594D01*
X-51456Y180579D01*
X-51544Y180569D01*
X-51565Y180559D01*
X-51589Y180555D01*
X-51666Y180509D01*
X-51745Y180470D01*
X-51761Y180453D01*
X-51782Y180440D01*
X-51838Y180371D01*
X-51899Y180307D01*
X-51908Y180285D01*
X-51923Y180266D01*
X-51952Y180182D01*
X-51987Y180100D01*
X-51988Y180076D01*
X-51995Y180054D01*
X-51993Y179965D01*
X-51997Y179876D01*
X-51989Y179853D01*
X-51989Y179829D01*
X-51955Y179747D01*
X-51928Y179662D01*
X-51912Y179641D01*
X-51904Y179622D01*
X-51870Y179584D01*
X-51816Y179512D01*
X-50408Y178104D01*
X-36031Y163727D01*
X-35997Y163702D01*
X-35968Y163671D01*
X-35905Y163639D01*
X-35847Y163598D01*
X-35806Y163588D01*
X-35768Y163568D01*
X-35679Y163555D01*
X-35630Y163542D01*
X-35609Y163545D01*
X-35583Y163541D01*
X-33533Y163541D01*
X-31459Y161467D01*
X-31459Y158533D01*
X-33533Y156459D01*
X-36467Y156459D01*
X-38541Y158533D01*
X-38541Y160583D01*
X-38548Y160625D01*
X-38546Y160667D01*
X-38568Y160734D01*
X-38580Y160804D01*
X-38602Y160840D01*
X-38615Y160881D01*
X-38669Y160953D01*
X-38695Y160997D01*
X-38711Y161010D01*
X-38727Y161031D01*
X-53104Y175408D01*
X-53138Y175433D01*
X-53167Y175464D01*
X-53230Y175496D01*
X-53288Y175537D01*
X-53329Y175547D01*
X-53367Y175567D01*
X-53456Y175580D01*
X-53505Y175593D01*
X-53526Y175590D01*
X-53552Y175594D01*
X-61636Y175594D01*
X-61677Y175587D01*
X-61720Y175589D01*
X-61787Y175567D01*
X-61857Y175555D01*
X-61893Y175533D01*
X-61933Y175520D01*
X-62006Y175466D01*
X-62050Y175440D01*
X-62063Y175424D01*
X-62084Y175408D01*
X-63533Y173959D01*
X-65583Y173959D01*
X-65625Y173952D01*
X-65667Y173954D01*
X-65734Y173932D01*
X-65804Y173920D01*
X-65840Y173898D01*
X-65881Y173885D01*
X-65953Y173831D01*
X-65997Y173805D01*
X-66010Y173789D01*
X-66031Y173773D01*
X-138773Y101031D01*
X-138798Y100997D01*
X-138829Y100968D01*
X-138861Y100905D01*
X-138902Y100847D01*
X-138912Y100806D01*
X-138932Y100768D01*
X-138945Y100679D01*
X-138958Y100630D01*
X-138955Y100609D01*
X-138959Y100583D01*
X-138959Y98533D01*
X-141033Y96459D01*
X-143083Y96459D01*
X-143125Y96452D01*
X-143167Y96454D01*
X-143234Y96432D01*
X-143304Y96420D01*
X-143340Y96398D01*
X-143381Y96385D01*
X-143453Y96331D01*
X-143497Y96305D01*
X-143510Y96289D01*
X-143531Y96273D01*
X-182908Y56896D01*
X-182933Y56862D01*
X-182964Y56833D01*
X-182996Y56770D01*
X-183037Y56712D01*
X-183047Y56671D01*
X-183067Y56633D01*
X-183080Y56544D01*
X-183093Y56495D01*
X-183090Y56474D01*
X-183094Y56448D01*
X-183094Y-34136D01*
X-183087Y-34177D01*
X-183089Y-34220D01*
X-183067Y-34287D01*
X-183055Y-34356D01*
X-183033Y-34393D01*
X-183020Y-34433D01*
X-182966Y-34506D01*
X-182940Y-34550D01*
X-182924Y-34563D01*
X-182908Y-34584D01*
X-181459Y-36033D01*
X-181459Y-38967D01*
X-183533Y-41041D01*
X-186467Y-41041D01*
X-188541Y-38967D01*
X-188541Y-36033D01*
X-187092Y-34584D01*
X-187067Y-34549D01*
X-187036Y-34521D01*
X-187004Y-34458D01*
X-186963Y-34400D01*
X-186953Y-34359D01*
X-186933Y-34321D01*
X-186920Y-34231D01*
X-186907Y-34183D01*
X-186910Y-34162D01*
X-186906Y-34136D01*
X-186906Y28868D01*
X-186921Y28956D01*
X-186931Y29044D01*
X-186941Y29065D01*
X-186945Y29089D01*
X-186991Y29166D01*
X-187030Y29245D01*
X-187047Y29261D01*
X-187060Y29282D01*
X-187129Y29338D01*
X-187193Y29399D01*
X-187215Y29408D01*
X-187234Y29423D01*
X-187318Y29452D01*
X-187400Y29487D01*
X-187424Y29488D01*
X-187446Y29495D01*
X-187535Y29493D01*
X-187624Y29497D01*
X-187647Y29489D01*
X-187671Y29489D01*
X-187753Y29455D01*
X-187838Y29428D01*
X-187859Y29412D01*
X-187878Y29404D01*
X-187916Y29370D01*
X-187988Y29316D01*
X-189396Y27908D01*
X-300408Y-83104D01*
X-300433Y-83138D01*
X-300464Y-83167D01*
X-300496Y-83230D01*
X-300537Y-83288D01*
X-300547Y-83329D01*
X-300567Y-83367D01*
X-300580Y-83456D01*
X-300593Y-83505D01*
X-300590Y-83526D01*
X-300594Y-83552D01*
X-300594Y-134136D01*
X-300587Y-134177D01*
X-300589Y-134220D01*
X-300567Y-134287D01*
X-300555Y-134357D01*
X-300533Y-134393D01*
X-300520Y-134433D01*
X-300466Y-134506D01*
X-300440Y-134550D01*
X-300424Y-134563D01*
X-300408Y-134584D01*
X-298959Y-136033D01*
X-298959Y-138967D01*
X-301033Y-141041D01*
X-303967Y-141041D01*
X-306041Y-138967D01*
X-306041Y-136033D01*
X-304592Y-134584D01*
X-304567Y-134549D01*
X-304536Y-134521D01*
X-304504Y-134458D01*
X-304463Y-134400D01*
X-304453Y-134359D01*
X-304433Y-134321D01*
X-304420Y-134231D01*
X-304407Y-134183D01*
X-304410Y-134162D01*
X-304406Y-134136D01*
X-304406Y-81711D01*
X-303104Y-80409D01*
X-303104Y-80408D01*
X-289819Y-67123D01*
X-289768Y-67050D01*
X-289712Y-66981D01*
X-289704Y-66959D01*
X-289690Y-66939D01*
X-289668Y-66853D01*
X-289640Y-66769D01*
X-289640Y-66745D01*
X-289635Y-66722D01*
X-289644Y-66633D01*
X-289646Y-66544D01*
X-289655Y-66522D01*
X-289658Y-66499D01*
X-289697Y-66419D01*
X-289731Y-66337D01*
X-289747Y-66319D01*
X-289757Y-66298D01*
X-289822Y-66237D01*
X-289882Y-66171D01*
X-289903Y-66160D01*
X-289920Y-66144D01*
X-290002Y-66109D01*
X-290082Y-66068D01*
X-290108Y-66065D01*
X-290127Y-66056D01*
X-290177Y-66054D01*
X-290267Y-66041D01*
X-291467Y-66041D01*
X-293541Y-63967D01*
X-293541Y-61033D01*
X-291467Y-58959D01*
X-289417Y-58959D01*
X-289375Y-58952D01*
X-289333Y-58954D01*
X-289266Y-58932D01*
X-289196Y-58920D01*
X-289160Y-58898D01*
X-289119Y-58885D01*
X-289047Y-58831D01*
X-289003Y-58805D01*
X-288990Y-58789D01*
X-288969Y-58773D01*
X-281227Y-51031D01*
X-281202Y-50997D01*
X-281171Y-50968D01*
X-281139Y-50905D01*
X-281098Y-50847D01*
X-281088Y-50806D01*
X-281068Y-50768D01*
X-281055Y-50679D01*
X-281042Y-50630D01*
X-281045Y-50609D01*
X-281041Y-50583D01*
X-281041Y-48533D01*
X-278967Y-46459D01*
X-276033Y-46459D01*
X-273959Y-48533D01*
X-273959Y-49733D01*
X-273943Y-49821D01*
X-273934Y-49909D01*
X-273924Y-49930D01*
X-273920Y-49954D01*
X-273874Y-50030D01*
X-273835Y-50110D01*
X-273818Y-50127D01*
X-273805Y-50147D01*
X-273736Y-50203D01*
X-273672Y-50264D01*
X-273650Y-50273D01*
X-273631Y-50288D01*
X-273547Y-50317D01*
X-273465Y-50352D01*
X-273441Y-50353D01*
X-273419Y-50360D01*
X-273330Y-50358D01*
X-273241Y-50362D01*
X-273218Y-50354D01*
X-273194Y-50354D01*
X-273112Y-50320D01*
X-273027Y-50293D01*
X-273006Y-50277D01*
X-272987Y-50269D01*
X-272949Y-50235D01*
X-272877Y-50181D01*
X-192092Y30604D01*
X-192067Y30638D01*
X-192036Y30667D01*
X-192011Y30715D01*
X-191994Y30736D01*
X-191990Y30750D01*
X-191963Y30788D01*
X-191953Y30829D01*
X-191933Y30867D01*
X-191920Y30956D01*
X-191907Y31005D01*
X-191910Y31026D01*
X-191906Y31052D01*
X-191906Y60789D01*
X-69592Y183104D01*
X-68184Y184512D01*
X-68133Y184585D01*
X-68077Y184654D01*
X-68069Y184676D01*
X-68055Y184696D01*
X-68033Y184782D01*
X-68005Y184866D01*
X-68005Y184890D01*
X-68000Y184913D01*
X-68009Y185002D01*
X-68011Y185091D01*
X-68020Y185113D01*
X-68023Y185136D01*
X-68062Y185216D01*
X-68096Y185298D01*
X-68112Y185316D01*
X-68122Y185337D01*
X-68187Y185398D01*
X-68247Y185464D01*
X-68268Y185475D01*
X-68285Y185491D01*
X-68367Y185526D01*
X-68447Y185567D01*
X-68473Y185570D01*
X-68492Y185579D01*
X-68542Y185581D01*
X-68632Y185594D01*
X-73948Y185594D01*
X-73990Y185587D01*
X-74032Y185589D01*
X-74099Y185567D01*
X-74169Y185555D01*
X-74205Y185533D01*
X-74246Y185520D01*
X-74318Y185466D01*
X-74362Y185440D01*
X-74375Y185424D01*
X-74396Y185408D01*
X-75408Y184396D01*
X-75409Y184396D01*
X-76711Y183094D01*
X-169136Y183094D01*
X-169177Y183087D01*
X-169220Y183089D01*
X-169287Y183067D01*
X-169356Y183055D01*
X-169393Y183033D01*
X-169433Y183020D01*
X-169506Y182966D01*
X-169550Y182940D01*
X-169563Y182924D01*
X-169584Y182908D01*
X-171033Y181459D01*
X-173967Y181459D01*
X-176041Y183533D01*
X-176041Y186467D01*
X-174206Y188301D01*
X-174168Y188356D01*
X-174123Y188403D01*
X-174105Y188447D01*
X-174078Y188486D01*
X-174061Y188549D01*
X-174036Y188610D01*
X-174034Y188657D01*
X-174022Y188703D01*
X-174029Y188768D01*
X-174026Y188834D01*
X-174040Y188879D01*
X-174045Y188926D01*
X-174074Y188985D01*
X-174094Y189048D01*
X-174127Y189092D01*
X-174144Y189127D01*
X-174173Y189154D01*
X-174206Y189198D01*
X-176041Y191033D01*
X-176041Y193967D01*
X-173967Y196041D01*
X-171033Y196041D01*
X-168959Y193967D01*
X-168959Y191033D01*
X-170794Y189198D01*
X-170832Y189144D01*
X-170877Y189097D01*
X-170895Y189053D01*
X-170922Y189014D01*
X-170939Y188951D01*
X-170964Y188890D01*
X-170966Y188843D01*
X-170978Y188797D01*
X-170971Y188732D01*
X-170974Y188666D01*
X-170960Y188621D01*
X-170955Y188574D01*
X-170926Y188515D01*
X-170906Y188452D01*
X-170873Y188408D01*
X-170856Y188373D01*
X-170827Y188346D01*
X-170794Y188301D01*
X-169584Y187091D01*
X-169549Y187067D01*
X-169521Y187036D01*
X-169458Y187004D01*
X-169400Y186963D01*
X-169359Y186953D01*
X-169321Y186933D01*
X-169231Y186920D01*
X-169183Y186907D01*
X-169162Y186910D01*
X-169136Y186906D01*
X-78552Y186906D01*
X-78510Y186913D01*
X-78468Y186911D01*
X-78401Y186933D01*
X-78331Y186945D01*
X-78295Y186967D01*
X-78254Y186980D01*
X-78182Y187034D01*
X-78138Y187060D01*
X-78125Y187076D01*
X-78104Y187092D01*
X-77092Y188104D01*
X-77091Y188104D01*
X-75789Y189406D01*
X-41711Y189406D01*
X-11896Y159592D01*
X-11862Y159567D01*
X-11833Y159536D01*
X-11770Y159504D01*
X-11712Y159463D01*
X-11671Y159453D01*
X-11633Y159433D01*
X-11544Y159420D01*
X-11495Y159407D01*
X-11474Y159410D01*
X-11448Y159406D01*
X5789Y159406D01*
X9406Y155789D01*
X9406Y136052D01*
X9413Y136010D01*
X9411Y135968D01*
X9433Y135901D01*
X9445Y135831D01*
X9467Y135795D01*
X9480Y135754D01*
X9534Y135682D01*
X9560Y135638D01*
X9576Y135625D01*
X9592Y135604D01*
X33104Y112092D01*
X33138Y112067D01*
X33167Y112036D01*
X33230Y112004D01*
X33288Y111963D01*
X33329Y111953D01*
X33367Y111933D01*
X33456Y111920D01*
X33505Y111907D01*
X33526Y111910D01*
X33552Y111906D01*
X130789Y111906D01*
X231469Y11227D01*
X231503Y11202D01*
X231532Y11171D01*
X231595Y11139D01*
X231653Y11098D01*
X231694Y11088D01*
X231732Y11068D01*
X231821Y11055D01*
X231870Y11042D01*
X231891Y11045D01*
X231917Y11041D01*
X233967Y11041D01*
X234512Y10496D01*
X234585Y10445D01*
X234654Y10389D01*
X234676Y10381D01*
X234696Y10368D01*
X234782Y10346D01*
X234866Y10317D01*
X234890Y10318D01*
X234913Y10312D01*
X235002Y10321D01*
X235091Y10324D01*
X235113Y10333D01*
X235136Y10335D01*
X235216Y10375D01*
X235298Y10408D01*
X235316Y10424D01*
X235337Y10434D01*
X235398Y10499D01*
X235464Y10559D01*
X235475Y10580D01*
X235491Y10598D01*
X235526Y10680D01*
X235567Y10759D01*
X235570Y10785D01*
X235579Y10804D01*
X235581Y10855D01*
X235594Y10944D01*
X235594Y26448D01*
X235587Y26490D01*
X235589Y26532D01*
X235567Y26599D01*
X235555Y26669D01*
X235533Y26705D01*
X235520Y26746D01*
X235466Y26818D01*
X235440Y26862D01*
X235424Y26875D01*
X235408Y26896D01*
X190594Y71711D01*
X190594Y78289D01*
X208773Y96469D01*
X208798Y96503D01*
X208829Y96532D01*
X208861Y96595D01*
X208902Y96653D01*
X208912Y96694D01*
X208932Y96732D01*
X208945Y96821D01*
X208958Y96870D01*
X208955Y96891D01*
X208959Y96917D01*
X208959Y98967D01*
X211033Y101041D01*
X213967Y101041D01*
X216041Y98967D01*
X216041Y96033D01*
X213967Y93959D01*
X211917Y93959D01*
X211875Y93952D01*
X211833Y93954D01*
X211766Y93932D01*
X211696Y93920D01*
X211660Y93898D01*
X211619Y93885D01*
X211547Y93831D01*
X211503Y93805D01*
X211490Y93789D01*
X211469Y93773D01*
X197319Y79623D01*
X197268Y79550D01*
X197212Y79481D01*
X197204Y79459D01*
X197190Y79439D01*
X197168Y79353D01*
X197140Y79269D01*
X197140Y79245D01*
X197135Y79222D01*
X197144Y79133D01*
X197146Y79044D01*
X197155Y79022D01*
X197158Y78999D01*
X197197Y78919D01*
X197231Y78837D01*
X197247Y78819D01*
X197257Y78798D01*
X197322Y78737D01*
X197382Y78671D01*
X197403Y78660D01*
X197420Y78644D01*
X197502Y78609D01*
X197582Y78568D01*
X197608Y78565D01*
X197627Y78556D01*
X197677Y78554D01*
X197767Y78541D01*
X198967Y78541D01*
X200416Y77092D01*
X200451Y77067D01*
X200479Y77036D01*
X200542Y77004D01*
X200600Y76963D01*
X200641Y76953D01*
X200679Y76933D01*
X200769Y76920D01*
X200817Y76907D01*
X200838Y76910D01*
X200864Y76906D01*
X370789Y76906D01*
X372728Y74968D01*
X372757Y74947D01*
X372767Y74936D01*
X372785Y74926D01*
X372829Y74885D01*
X372873Y74866D01*
X372912Y74839D01*
X372975Y74823D01*
X373036Y74797D01*
X373083Y74795D01*
X373129Y74784D01*
X373194Y74790D01*
X373260Y74787D01*
X373305Y74802D01*
X373352Y74807D01*
X373411Y74836D01*
X373474Y74856D01*
X373518Y74889D01*
X373553Y74906D01*
X373580Y74935D01*
X373612Y74958D01*
X373614Y74959D01*
X373614Y74960D01*
X373625Y74968D01*
X375457Y76800D01*
X378405Y78021D01*
X381595Y78021D01*
X384543Y76800D01*
X386800Y74543D01*
X388021Y71595D01*
X388021Y68405D01*
X386800Y65457D01*
X384543Y63200D01*
X381595Y61979D01*
X378405Y61979D01*
X375457Y63200D01*
X373200Y65457D01*
X371979Y68405D01*
X371979Y70063D01*
X371972Y70105D01*
X371974Y70147D01*
X371952Y70214D01*
X371940Y70284D01*
X371918Y70320D01*
X371905Y70361D01*
X371851Y70433D01*
X371825Y70477D01*
X371809Y70490D01*
X371793Y70511D01*
X369396Y72908D01*
X369362Y72933D01*
X369333Y72964D01*
X369270Y72996D01*
X369212Y73037D01*
X369171Y73047D01*
X369133Y73067D01*
X369044Y73080D01*
X368995Y73093D01*
X368974Y73090D01*
X368948Y73094D01*
X200864Y73094D01*
X200823Y73087D01*
X200780Y73089D01*
X200713Y73067D01*
X200643Y73055D01*
X200607Y73033D01*
X200567Y73020D01*
X200494Y72966D01*
X200450Y72940D01*
X200437Y72924D01*
X200416Y72908D01*
X198967Y71459D01*
X197767Y71459D01*
X197679Y71443D01*
X197591Y71434D01*
X197570Y71424D01*
X197546Y71420D01*
X197470Y71374D01*
X197390Y71335D01*
X197373Y71318D01*
X197353Y71305D01*
X197297Y71236D01*
X197236Y71172D01*
X197227Y71150D01*
X197212Y71131D01*
X197183Y71047D01*
X197148Y70965D01*
X197147Y70941D01*
X197140Y70919D01*
X197142Y70830D01*
X197138Y70741D01*
X197146Y70718D01*
X197146Y70694D01*
X197180Y70612D01*
X197207Y70527D01*
X197223Y70506D01*
X197231Y70487D01*
X197265Y70449D01*
X197319Y70377D01*
X239406Y28289D01*
X239406Y1052D01*
X239413Y1010D01*
X239411Y968D01*
X239433Y901D01*
X239445Y831D01*
X239467Y795D01*
X239480Y754D01*
X239534Y682D01*
X239560Y638D01*
X239576Y625D01*
X239592Y604D01*
X267877Y-27681D01*
X267950Y-27732D01*
X268019Y-27788D01*
X268041Y-27796D01*
X268061Y-27810D01*
X268147Y-27832D01*
X268231Y-27860D01*
X268255Y-27860D01*
X268278Y-27865D01*
X268367Y-27856D01*
X268456Y-27854D01*
X268478Y-27845D01*
X268501Y-27842D01*
X268581Y-27803D01*
X268663Y-27769D01*
X268681Y-27753D01*
X268702Y-27743D01*
X268763Y-27678D01*
X268829Y-27618D01*
X268840Y-27597D01*
X268856Y-27580D01*
X268891Y-27498D01*
X268932Y-27418D01*
X268935Y-27392D01*
X268944Y-27373D01*
X268946Y-27323D01*
X268959Y-27233D01*
X268959Y-26033D01*
X271033Y-23959D01*
X272460Y-23959D01*
X272525Y-23948D01*
X272591Y-23946D01*
X272634Y-23928D01*
X272681Y-23920D01*
X272738Y-23886D01*
X272798Y-23861D01*
X272833Y-23830D01*
X272874Y-23805D01*
X272916Y-23754D01*
X272964Y-23710D01*
X272986Y-23668D01*
X273015Y-23631D01*
X273036Y-23569D01*
X273067Y-23510D01*
X273075Y-23456D01*
X273087Y-23419D01*
X273086Y-23379D01*
X273094Y-23325D01*
X273094Y-15864D01*
X273087Y-15823D01*
X273089Y-15780D01*
X273067Y-15713D01*
X273055Y-15644D01*
X273033Y-15607D01*
X273020Y-15567D01*
X272966Y-15494D01*
X272940Y-15450D01*
X272924Y-15437D01*
X272908Y-15416D01*
X271459Y-13967D01*
X271459Y-11033D01*
X273533Y-8959D01*
X276467Y-8959D01*
X278541Y-11033D01*
X278541Y-13967D01*
X277092Y-15416D01*
X277067Y-15451D01*
X277036Y-15479D01*
X277004Y-15542D01*
X276963Y-15600D01*
X276953Y-15641D01*
X276933Y-15679D01*
X276920Y-15769D01*
X276907Y-15817D01*
X276910Y-15838D01*
X276906Y-15864D01*
X276906Y-25789D01*
X276227Y-26469D01*
X276202Y-26503D01*
X276171Y-26532D01*
X276139Y-26595D01*
X276098Y-26653D01*
X276088Y-26694D01*
X276068Y-26732D01*
X276055Y-26821D01*
X276042Y-26870D01*
X276045Y-26891D01*
X276041Y-26917D01*
X276041Y-28967D01*
X273967Y-31041D01*
X272767Y-31041D01*
X272679Y-31057D01*
X272591Y-31066D01*
X272570Y-31076D01*
X272546Y-31080D01*
X272470Y-31126D01*
X272390Y-31165D01*
X272373Y-31182D01*
X272353Y-31195D01*
X272297Y-31264D01*
X272236Y-31328D01*
X272227Y-31350D01*
X272212Y-31369D01*
X272183Y-31453D01*
X272148Y-31535D01*
X272147Y-31559D01*
X272140Y-31581D01*
X272142Y-31670D01*
X272138Y-31759D01*
X272146Y-31782D01*
X272146Y-31806D01*
X272180Y-31888D01*
X272207Y-31973D01*
X272223Y-31994D01*
X272231Y-32013D01*
X272265Y-32051D01*
X272319Y-32123D01*
X306906Y-66711D01*
X306906Y-115789D01*
X289592Y-133104D01*
X289567Y-133138D01*
X289536Y-133167D01*
X289504Y-133230D01*
X289463Y-133288D01*
X289453Y-133329D01*
X289433Y-133367D01*
X289420Y-133456D01*
X289407Y-133505D01*
X289410Y-133526D01*
X289406Y-133552D01*
X289406Y-219136D01*
X289413Y-219177D01*
X289411Y-219220D01*
X289433Y-219287D01*
X289445Y-219356D01*
X289467Y-219393D01*
X289480Y-219433D01*
X289534Y-219506D01*
X289560Y-219550D01*
X289576Y-219563D01*
X289592Y-219584D01*
X291041Y-221033D01*
X291041Y-223967D01*
X288967Y-226041D01*
X286033Y-226041D01*
X283959Y-223967D01*
X283959Y-221033D01*
X285408Y-219584D01*
X285433Y-219549D01*
X285464Y-219521D01*
X285496Y-219458D01*
X285537Y-219400D01*
X285547Y-219359D01*
X285567Y-219321D01*
X285580Y-219231D01*
X285593Y-219183D01*
X285590Y-219162D01*
X285594Y-219136D01*
X285594Y-131711D01*
X300181Y-117123D01*
X300232Y-117050D01*
X300288Y-116981D01*
X300296Y-116959D01*
X300310Y-116939D01*
X300332Y-116853D01*
X300360Y-116769D01*
X300360Y-116745D01*
X300365Y-116722D01*
X300356Y-116633D01*
X300354Y-116544D01*
X300345Y-116522D01*
X300342Y-116499D01*
X300303Y-116419D01*
X300269Y-116337D01*
X300253Y-116319D01*
X300243Y-116298D01*
X300178Y-116237D01*
X300118Y-116171D01*
X300097Y-116160D01*
X300080Y-116144D01*
X299998Y-116109D01*
X299918Y-116068D01*
X299892Y-116065D01*
X299873Y-116056D01*
X299823Y-116054D01*
X299733Y-116041D01*
X298533Y-116041D01*
X296459Y-113967D01*
X296459Y-111917D01*
X296452Y-111875D01*
X296454Y-111833D01*
X296432Y-111766D01*
X296420Y-111696D01*
X296398Y-111660D01*
X296385Y-111619D01*
X296331Y-111547D01*
X296305Y-111503D01*
X296289Y-111490D01*
X296273Y-111469D01*
X177123Y7681D01*
X177050Y7732D01*
X176981Y7788D01*
X176959Y7796D01*
X176939Y7810D01*
X176853Y7832D01*
X176769Y7860D01*
X176745Y7860D01*
X176722Y7865D01*
X176633Y7856D01*
X176544Y7854D01*
X176522Y7845D01*
X176499Y7842D01*
X176419Y7803D01*
X176337Y7769D01*
X176319Y7753D01*
X176298Y7743D01*
X176237Y7678D01*
X176171Y7618D01*
X176160Y7597D01*
X176144Y7580D01*
X176109Y7498D01*
X176068Y7418D01*
X176065Y7392D01*
X176056Y7373D01*
X176054Y7323D01*
X176041Y7233D01*
X176041Y6033D01*
X173967Y3959D01*
X171033Y3959D01*
X168959Y6033D01*
X168959Y8083D01*
X168952Y8125D01*
X168954Y8167D01*
X168932Y8234D01*
X168920Y8304D01*
X168898Y8340D01*
X168885Y8381D01*
X168831Y8453D01*
X168805Y8497D01*
X168789Y8510D01*
X168773Y8531D01*
X160488Y16816D01*
X160415Y16867D01*
X160346Y16923D01*
X160324Y16931D01*
X160304Y16945D01*
X160218Y16967D01*
X160134Y16995D01*
X160110Y16995D01*
X160087Y17000D01*
X159998Y16991D01*
X159909Y16989D01*
X159887Y16980D01*
X159864Y16977D01*
X159784Y16938D01*
X159702Y16904D01*
X159684Y16888D01*
X159663Y16878D01*
X159602Y16813D01*
X159536Y16753D01*
X159525Y16732D01*
X159509Y16715D01*
X159474Y16633D01*
X159433Y16553D01*
X159430Y16527D01*
X159421Y16508D01*
X159419Y16458D01*
X159406Y16368D01*
X159406Y-125789D01*
X37092Y-248104D01*
X37067Y-248138D01*
X37036Y-248167D01*
X37004Y-248230D01*
X36963Y-248288D01*
X36953Y-248329D01*
X36933Y-248367D01*
X36920Y-248456D01*
X36907Y-248505D01*
X36910Y-248526D01*
X36906Y-248552D01*
X36906Y-255789D01*
X34524Y-258171D01*
X34493Y-258216D01*
X34454Y-258254D01*
X34429Y-258307D01*
X34396Y-258355D01*
X34382Y-258408D01*
X34359Y-258457D01*
X34355Y-258516D01*
X34340Y-258573D01*
X34346Y-258627D01*
X34341Y-258681D01*
X34358Y-258750D01*
X34363Y-258796D01*
X34377Y-258823D01*
X34386Y-258862D01*
X36021Y-262808D01*
X36021Y-267192D01*
X34343Y-271243D01*
X31243Y-274343D01*
X27192Y-276021D01*
X22808Y-276021D01*
X18757Y-274343D01*
X15657Y-271243D01*
X13979Y-267192D01*
X13979Y-262808D01*
X15657Y-258757D01*
X18757Y-255657D01*
X22808Y-253979D01*
X27192Y-253979D01*
X31138Y-255614D01*
X31190Y-255625D01*
X31240Y-255646D01*
X31299Y-255649D01*
X31357Y-255661D01*
X31410Y-255654D01*
X31465Y-255656D01*
X31521Y-255638D01*
X31579Y-255630D01*
X31627Y-255604D01*
X31678Y-255588D01*
X31735Y-255545D01*
X31776Y-255523D01*
X31796Y-255500D01*
X31814Y-255487D01*
X31817Y-255485D01*
X31818Y-255484D01*
X31829Y-255476D01*
X32908Y-254396D01*
X32933Y-254362D01*
X32964Y-254333D01*
X32996Y-254270D01*
X33037Y-254212D01*
X33047Y-254171D01*
X33067Y-254133D01*
X33080Y-254044D01*
X33093Y-253995D01*
X33090Y-253974D01*
X33094Y-253948D01*
X33094Y-246711D01*
X155408Y-124396D01*
X155433Y-124362D01*
X155464Y-124333D01*
X155496Y-124270D01*
X155537Y-124212D01*
X155547Y-124171D01*
X155567Y-124133D01*
X155580Y-124044D01*
X155593Y-123995D01*
X155590Y-123974D01*
X155594Y-123948D01*
X155594Y-23632D01*
X155578Y-23544D01*
X155569Y-23456D01*
X155559Y-23435D01*
X155555Y-23411D01*
X155509Y-23335D01*
X155470Y-23255D01*
X155453Y-23238D01*
X155440Y-23218D01*
X155371Y-23162D01*
X155307Y-23101D01*
X155285Y-23092D01*
X155266Y-23077D01*
X155182Y-23048D01*
X155100Y-23013D01*
X155076Y-23012D01*
X155054Y-23005D01*
X154965Y-23007D01*
X154876Y-23003D01*
X154853Y-23011D01*
X154829Y-23011D01*
X154747Y-23045D01*
X154662Y-23072D01*
X154641Y-23088D01*
X154622Y-23096D01*
X154584Y-23130D01*
X154512Y-23184D01*
X93727Y-83969D01*
X93702Y-84003D01*
X93671Y-84032D01*
X93639Y-84095D01*
X93598Y-84153D01*
X93588Y-84194D01*
X93568Y-84232D01*
X93555Y-84321D01*
X93542Y-84370D01*
X93545Y-84391D01*
X93541Y-84417D01*
X93541Y-86467D01*
X91467Y-88541D01*
X89175Y-88541D01*
X89110Y-88552D01*
X89044Y-88554D01*
X89001Y-88572D01*
X88954Y-88580D01*
X88897Y-88614D01*
X88837Y-88639D01*
X88802Y-88670D01*
X88761Y-88695D01*
X88719Y-88746D01*
X88671Y-88790D01*
X88649Y-88832D01*
X88620Y-88869D01*
X88599Y-88931D01*
X88568Y-88990D01*
X88560Y-89044D01*
X88548Y-89081D01*
X88549Y-89121D01*
X88541Y-89175D01*
X88541Y-91467D01*
X86467Y-93541D01*
X83533Y-93541D01*
X81459Y-91467D01*
X81459Y-88533D01*
X82908Y-87084D01*
X82933Y-87049D01*
X82964Y-87021D01*
X82996Y-86958D01*
X83037Y-86900D01*
X83047Y-86859D01*
X83067Y-86821D01*
X83080Y-86731D01*
X83093Y-86683D01*
X83090Y-86662D01*
X83094Y-86636D01*
X83094Y-81711D01*
X97908Y-66896D01*
X97933Y-66862D01*
X97964Y-66833D01*
X97996Y-66770D01*
X98037Y-66712D01*
X98047Y-66671D01*
X98067Y-66633D01*
X98080Y-66544D01*
X98093Y-66495D01*
X98090Y-66474D01*
X98094Y-66448D01*
X98094Y-40944D01*
X98079Y-40857D01*
X98069Y-40768D01*
X98059Y-40747D01*
X98055Y-40723D01*
X98009Y-40647D01*
X97970Y-40567D01*
X97953Y-40551D01*
X97940Y-40530D01*
X97871Y-40474D01*
X97807Y-40413D01*
X97785Y-40404D01*
X97766Y-40389D01*
X97682Y-40360D01*
X97600Y-40326D01*
X97576Y-40325D01*
X97554Y-40317D01*
X97465Y-40320D01*
X97376Y-40316D01*
X97353Y-40323D01*
X97329Y-40324D01*
X97247Y-40357D01*
X97162Y-40384D01*
X97141Y-40400D01*
X97122Y-40408D01*
X97084Y-40442D01*
X97012Y-40496D01*
X96467Y-41041D01*
X94417Y-41041D01*
X94375Y-41048D01*
X94333Y-41046D01*
X94266Y-41068D01*
X94196Y-41080D01*
X94160Y-41102D01*
X94119Y-41115D01*
X94047Y-41169D01*
X94003Y-41195D01*
X93990Y-41211D01*
X93969Y-41227D01*
X89149Y-46047D01*
X89098Y-46120D01*
X89042Y-46189D01*
X89034Y-46211D01*
X89020Y-46231D01*
X88998Y-46317D01*
X88970Y-46401D01*
X88970Y-46425D01*
X88965Y-46448D01*
X88974Y-46537D01*
X88976Y-46626D01*
X88985Y-46648D01*
X88988Y-46671D01*
X89027Y-46751D01*
X89061Y-46833D01*
X89077Y-46851D01*
X89087Y-46872D01*
X89152Y-46933D01*
X89212Y-46999D01*
X89233Y-47010D01*
X89250Y-47026D01*
X89332Y-47061D01*
X89412Y-47102D01*
X89438Y-47105D01*
X89457Y-47114D01*
X89507Y-47116D01*
X89597Y-47129D01*
X92726Y-47129D01*
X93471Y-47874D01*
X93471Y-59126D01*
X92726Y-59871D01*
X59974Y-59871D01*
X59229Y-59126D01*
X59229Y-47874D01*
X59974Y-47129D01*
X65403Y-47129D01*
X65491Y-47114D01*
X65579Y-47104D01*
X65600Y-47094D01*
X65624Y-47090D01*
X65701Y-47044D01*
X65780Y-47005D01*
X65796Y-46988D01*
X65817Y-46975D01*
X65873Y-46906D01*
X65934Y-46842D01*
X65943Y-46820D01*
X65958Y-46801D01*
X65987Y-46717D01*
X66022Y-46635D01*
X66023Y-46611D01*
X66030Y-46589D01*
X66028Y-46500D01*
X66032Y-46411D01*
X66024Y-46388D01*
X66024Y-46364D01*
X65990Y-46282D01*
X65963Y-46197D01*
X65947Y-46176D01*
X65939Y-46157D01*
X65905Y-46119D01*
X65851Y-46047D01*
X64396Y-44591D01*
X64368Y-44572D01*
X64361Y-44564D01*
X64356Y-44561D01*
X64333Y-44536D01*
X64270Y-44504D01*
X64212Y-44463D01*
X64171Y-44453D01*
X64133Y-44433D01*
X64044Y-44420D01*
X63995Y-44407D01*
X63974Y-44410D01*
X63948Y-44406D01*
X59211Y-44406D01*
X54623Y-39819D01*
X54550Y-39768D01*
X54481Y-39712D01*
X54459Y-39704D01*
X54439Y-39690D01*
X54353Y-39668D01*
X54269Y-39640D01*
X54245Y-39640D01*
X54222Y-39635D01*
X54133Y-39644D01*
X54044Y-39646D01*
X54022Y-39655D01*
X53999Y-39658D01*
X53919Y-39697D01*
X53837Y-39731D01*
X53819Y-39747D01*
X53798Y-39757D01*
X53737Y-39822D01*
X53671Y-39882D01*
X53660Y-39903D01*
X53644Y-39920D01*
X53609Y-40002D01*
X53568Y-40082D01*
X53565Y-40108D01*
X53556Y-40127D01*
X53554Y-40177D01*
X53541Y-40267D01*
X53541Y-41467D01*
X51467Y-43541D01*
X48533Y-43541D01*
X46459Y-41467D01*
X46459Y-38533D01*
X48533Y-36459D01*
X49960Y-36459D01*
X50025Y-36448D01*
X50091Y-36446D01*
X50134Y-36428D01*
X50181Y-36420D01*
X50238Y-36386D01*
X50298Y-36361D01*
X50333Y-36330D01*
X50374Y-36305D01*
X50416Y-36254D01*
X50464Y-36210D01*
X50486Y-36168D01*
X50515Y-36131D01*
X50536Y-36069D01*
X50567Y-36010D01*
X50575Y-35956D01*
X50587Y-35919D01*
X50586Y-35879D01*
X50594Y-35825D01*
X50594Y-5040D01*
X50583Y-4975D01*
X50581Y-4909D01*
X50563Y-4866D01*
X50555Y-4819D01*
X50521Y-4762D01*
X50496Y-4702D01*
X50465Y-4667D01*
X50440Y-4626D01*
X50389Y-4584D01*
X50345Y-4536D01*
X50303Y-4514D01*
X50266Y-4485D01*
X50204Y-4464D01*
X50145Y-4433D01*
X50091Y-4425D01*
X50054Y-4413D01*
X50014Y-4414D01*
X49960Y-4406D01*
X-58595Y-4406D01*
X-58660Y-4417D01*
X-58726Y-4419D01*
X-58769Y-4437D01*
X-58816Y-4445D01*
X-58873Y-4479D01*
X-58933Y-4504D01*
X-58968Y-4535D01*
X-59009Y-4560D01*
X-59051Y-4611D01*
X-59099Y-4655D01*
X-59121Y-4697D01*
X-59150Y-4734D01*
X-59171Y-4796D01*
X-59202Y-4855D01*
X-59210Y-4909D01*
X-59222Y-4946D01*
X-59221Y-4986D01*
X-59229Y-5040D01*
X-59229Y-8326D01*
X-59974Y-9071D01*
X-92726Y-9071D01*
X-93471Y-8326D01*
X-93471Y2926D01*
X-92726Y3671D01*
X-87897Y3671D01*
X-87809Y3687D01*
X-87721Y3696D01*
X-87700Y3706D01*
X-87676Y3710D01*
X-87600Y3756D01*
X-87520Y3795D01*
X-87503Y3812D01*
X-87483Y3825D01*
X-87427Y3894D01*
X-87366Y3958D01*
X-87357Y3980D01*
X-87342Y3999D01*
X-87313Y4083D01*
X-87278Y4165D01*
X-87277Y4189D01*
X-87270Y4211D01*
X-87272Y4300D01*
X-87268Y4389D01*
X-87276Y4412D01*
X-87276Y4436D01*
X-87310Y4518D01*
X-87337Y4603D01*
X-87353Y4624D01*
X-87361Y4643D01*
X-87395Y4681D01*
X-87449Y4753D01*
X-90604Y7909D01*
X-90638Y7933D01*
X-90667Y7964D01*
X-90730Y7996D01*
X-90788Y8037D01*
X-90829Y8047D01*
X-90867Y8067D01*
X-90956Y8080D01*
X-91005Y8093D01*
X-91026Y8090D01*
X-91052Y8094D01*
X-95789Y8094D01*
X-101906Y14211D01*
X-101906Y55789D01*
X-91649Y66047D01*
X-91598Y66120D01*
X-91542Y66189D01*
X-91534Y66211D01*
X-91520Y66231D01*
X-91498Y66317D01*
X-91470Y66401D01*
X-91470Y66425D01*
X-91465Y66448D01*
X-91474Y66537D01*
X-91476Y66626D01*
X-91485Y66648D01*
X-91488Y66671D01*
X-91527Y66751D01*
X-91561Y66833D01*
X-91577Y66851D01*
X-91587Y66872D01*
X-91652Y66933D01*
X-91712Y66999D01*
X-91733Y67010D01*
X-91750Y67026D01*
X-91832Y67061D01*
X-91912Y67102D01*
X-91938Y67105D01*
X-91957Y67114D01*
X-92007Y67116D01*
X-92097Y67129D01*
X-92726Y67129D01*
X-93471Y67874D01*
X-93471Y79126D01*
X-92726Y79871D01*
X-83909Y79871D01*
X-83822Y79886D01*
X-83733Y79896D01*
X-83712Y79906D01*
X-83688Y79910D01*
X-83612Y79956D01*
X-83532Y79995D01*
X-83516Y80012D01*
X-83495Y80025D01*
X-83439Y80094D01*
X-83378Y80158D01*
X-83369Y80180D01*
X-83354Y80199D01*
X-83325Y80283D01*
X-83291Y80365D01*
X-83290Y80389D01*
X-83282Y80411D01*
X-83285Y80500D01*
X-83281Y80589D01*
X-83288Y80612D01*
X-83289Y80636D01*
X-83322Y80718D01*
X-83349Y80803D01*
X-83365Y80824D01*
X-83373Y80843D01*
X-83407Y80881D01*
X-83461Y80953D01*
X-83541Y81033D01*
X-83541Y83967D01*
X-81467Y86041D01*
X-78533Y86041D01*
X-76459Y83967D01*
X-76459Y81033D01*
X-76539Y80953D01*
X-76590Y80880D01*
X-76646Y80811D01*
X-76654Y80789D01*
X-76667Y80769D01*
X-76690Y80683D01*
X-76718Y80599D01*
X-76717Y80575D01*
X-76723Y80552D01*
X-76714Y80463D01*
X-76711Y80374D01*
X-76702Y80353D01*
X-76700Y80329D01*
X-76660Y80249D01*
X-76627Y80167D01*
X-76611Y80149D01*
X-76601Y80128D01*
X-76536Y80067D01*
X-76476Y80001D01*
X-76455Y79990D01*
X-76437Y79974D01*
X-76355Y79939D01*
X-76276Y79898D01*
X-76250Y79895D01*
X-76231Y79886D01*
X-76180Y79884D01*
X-76091Y79871D01*
X-59974Y79871D01*
X-59229Y79126D01*
X-59229Y67874D01*
X-59974Y67129D01*
X-84913Y67129D01*
X-84955Y67122D01*
X-84997Y67124D01*
X-85064Y67102D01*
X-85134Y67090D01*
X-85170Y67068D01*
X-85211Y67055D01*
X-85283Y67001D01*
X-85327Y66975D01*
X-85340Y66959D01*
X-85361Y66943D01*
X-97908Y54396D01*
X-97933Y54362D01*
X-97964Y54333D01*
X-97996Y54270D01*
X-98037Y54212D01*
X-98047Y54171D01*
X-98067Y54133D01*
X-98080Y54044D01*
X-98093Y53995D01*
X-98090Y53974D01*
X-98094Y53948D01*
X-98094Y16052D01*
X-98087Y16010D01*
X-98089Y15968D01*
X-98067Y15901D01*
X-98055Y15831D01*
X-98033Y15795D01*
X-98020Y15754D01*
X-97966Y15682D01*
X-97940Y15638D01*
X-97924Y15625D01*
X-97908Y15604D01*
X-94396Y12092D01*
X-94362Y12067D01*
X-94333Y12036D01*
X-94270Y12004D01*
X-94212Y11963D01*
X-94171Y11953D01*
X-94133Y11933D01*
X-94044Y11920D01*
X-93995Y11907D01*
X-93974Y11910D01*
X-93948Y11906D01*
X-89211Y11906D01*
X-81161Y3857D01*
X-81127Y3832D01*
X-81098Y3801D01*
X-81035Y3769D01*
X-80977Y3728D01*
X-80936Y3718D01*
X-80898Y3698D01*
X-80809Y3685D01*
X-80760Y3672D01*
X-80739Y3675D01*
X-80713Y3671D01*
X-70209Y3671D01*
X-70122Y3686D01*
X-70033Y3696D01*
X-70012Y3706D01*
X-69988Y3710D01*
X-69912Y3756D01*
X-69832Y3795D01*
X-69816Y3812D01*
X-69795Y3825D01*
X-69739Y3894D01*
X-69678Y3958D01*
X-69669Y3980D01*
X-69654Y3999D01*
X-69625Y4083D01*
X-69591Y4165D01*
X-69590Y4189D01*
X-69582Y4211D01*
X-69585Y4300D01*
X-69581Y4389D01*
X-69588Y4412D01*
X-69589Y4436D01*
X-69622Y4518D01*
X-69649Y4603D01*
X-69665Y4624D01*
X-69673Y4643D01*
X-69707Y4681D01*
X-69761Y4753D01*
X-71041Y6033D01*
X-71041Y8967D01*
X-68967Y11041D01*
X-66033Y11041D01*
X-64584Y9592D01*
X-64549Y9567D01*
X-64521Y9536D01*
X-64458Y9504D01*
X-64400Y9463D01*
X-64359Y9453D01*
X-64321Y9433D01*
X-64231Y9420D01*
X-64183Y9407D01*
X-64162Y9410D01*
X-64136Y9406D01*
X-63552Y9406D01*
X-63510Y9413D01*
X-63468Y9411D01*
X-63401Y9433D01*
X-63331Y9445D01*
X-63295Y9467D01*
X-63254Y9480D01*
X-63182Y9534D01*
X-63138Y9560D01*
X-63125Y9576D01*
X-63104Y9592D01*
X-58727Y13969D01*
X-58702Y14003D01*
X-58671Y14032D01*
X-58639Y14095D01*
X-58598Y14153D01*
X-58588Y14194D01*
X-58568Y14232D01*
X-58555Y14321D01*
X-58542Y14370D01*
X-58545Y14391D01*
X-58541Y14417D01*
X-58541Y14699D01*
X-58542Y14705D01*
X-58541Y14711D01*
X-58562Y14815D01*
X-58580Y14920D01*
X-58584Y14925D01*
X-58585Y14931D01*
X-58641Y15022D01*
X-58695Y15113D01*
X-58699Y15117D01*
X-58703Y15122D01*
X-58787Y15188D01*
X-58869Y15254D01*
X-58875Y15256D01*
X-58880Y15260D01*
X-58981Y15292D01*
X-59081Y15326D01*
X-59088Y15326D01*
X-59094Y15328D01*
X-59201Y15323D01*
X-59306Y15320D01*
X-59311Y15317D01*
X-59318Y15317D01*
X-59492Y15248D01*
X-59519Y15232D01*
X-60165Y15059D01*
X-75081Y15059D01*
X-75081Y21431D01*
X-57959Y21431D01*
X-57959Y18579D01*
X-57944Y18492D01*
X-57934Y18403D01*
X-57924Y18382D01*
X-57920Y18358D01*
X-57874Y18282D01*
X-57835Y18202D01*
X-57818Y18186D01*
X-57805Y18165D01*
X-57736Y18109D01*
X-57672Y18048D01*
X-57650Y18039D01*
X-57631Y18024D01*
X-57547Y17995D01*
X-57465Y17961D01*
X-57441Y17960D01*
X-57419Y17952D01*
X-57330Y17955D01*
X-57241Y17951D01*
X-57218Y17958D01*
X-57194Y17959D01*
X-57112Y17992D01*
X-57027Y18019D01*
X-57006Y18035D01*
X-56987Y18043D01*
X-56949Y18077D01*
X-56877Y18131D01*
X-56467Y18541D01*
X-53533Y18541D01*
X-51459Y16467D01*
X-51459Y13533D01*
X-53533Y11459D01*
X-55583Y11459D01*
X-55625Y11452D01*
X-55667Y11454D01*
X-55734Y11432D01*
X-55804Y11420D01*
X-55840Y11398D01*
X-55881Y11385D01*
X-55953Y11331D01*
X-55997Y11305D01*
X-56010Y11289D01*
X-56031Y11273D01*
X-61711Y5594D01*
X-64136Y5594D01*
X-64177Y5587D01*
X-64220Y5589D01*
X-64287Y5567D01*
X-64356Y5555D01*
X-64393Y5533D01*
X-64433Y5520D01*
X-64506Y5466D01*
X-64550Y5440D01*
X-64563Y5424D01*
X-64584Y5409D01*
X-65239Y4753D01*
X-65290Y4680D01*
X-65346Y4611D01*
X-65354Y4589D01*
X-65367Y4569D01*
X-65389Y4483D01*
X-65418Y4399D01*
X-65417Y4375D01*
X-65423Y4352D01*
X-65414Y4263D01*
X-65411Y4174D01*
X-65402Y4152D01*
X-65400Y4129D01*
X-65360Y4049D01*
X-65327Y3967D01*
X-65311Y3949D01*
X-65301Y3928D01*
X-65236Y3867D01*
X-65176Y3801D01*
X-65155Y3790D01*
X-65137Y3774D01*
X-65055Y3739D01*
X-64976Y3698D01*
X-64950Y3695D01*
X-64931Y3686D01*
X-64880Y3684D01*
X-64791Y3671D01*
X-59974Y3671D01*
X-59229Y2926D01*
X-59229Y40D01*
X-59218Y-25D01*
X-59216Y-91D01*
X-59198Y-134D01*
X-59190Y-181D01*
X-59156Y-238D01*
X-59131Y-299D01*
X-59100Y-333D01*
X-59075Y-374D01*
X-59024Y-416D01*
X-58980Y-464D01*
X-58938Y-486D01*
X-58901Y-515D01*
X-58839Y-537D01*
X-58780Y-567D01*
X-58726Y-575D01*
X-58689Y-587D01*
X-58649Y-586D01*
X-58595Y-594D01*
X49960Y-594D01*
X50025Y-583D01*
X50091Y-581D01*
X50134Y-563D01*
X50181Y-555D01*
X50238Y-521D01*
X50298Y-496D01*
X50333Y-465D01*
X50374Y-441D01*
X50416Y-389D01*
X50464Y-345D01*
X50486Y-303D01*
X50515Y-266D01*
X50536Y-204D01*
X50567Y-145D01*
X50575Y-91D01*
X50587Y-54D01*
X50586Y-14D01*
X50594Y40D01*
X50594Y5789D01*
X60105Y15301D01*
X60143Y15355D01*
X60188Y15402D01*
X60207Y15446D01*
X60234Y15485D01*
X60250Y15548D01*
X60276Y15609D01*
X60278Y15656D01*
X60289Y15702D01*
X60283Y15767D01*
X60286Y15833D01*
X60271Y15878D01*
X60266Y15925D01*
X60237Y15984D01*
X60217Y16047D01*
X60184Y16091D01*
X60167Y16126D01*
X60138Y16153D01*
X60105Y16198D01*
X59229Y17074D01*
X59229Y28326D01*
X59974Y29071D01*
X91703Y29071D01*
X91791Y29086D01*
X91879Y29096D01*
X91900Y29106D01*
X91924Y29110D01*
X92000Y29156D01*
X92080Y29195D01*
X92097Y29212D01*
X92117Y29225D01*
X92173Y29294D01*
X92234Y29358D01*
X92243Y29380D01*
X92258Y29399D01*
X92287Y29483D01*
X92322Y29565D01*
X92323Y29589D01*
X92330Y29611D01*
X92328Y29700D01*
X92332Y29789D01*
X92324Y29812D01*
X92324Y29836D01*
X92290Y29918D01*
X92263Y30003D01*
X92247Y30024D01*
X92239Y30043D01*
X92205Y30081D01*
X92151Y30153D01*
X91896Y30409D01*
X91861Y30433D01*
X91833Y30464D01*
X91770Y30496D01*
X91712Y30537D01*
X91671Y30547D01*
X91633Y30567D01*
X91544Y30580D01*
X91495Y30593D01*
X91474Y30590D01*
X91448Y30594D01*
X61711Y30594D01*
X53094Y39211D01*
X53094Y46448D01*
X53087Y46490D01*
X53089Y46532D01*
X53067Y46599D01*
X53055Y46669D01*
X53033Y46705D01*
X53020Y46746D01*
X52966Y46818D01*
X52940Y46862D01*
X52924Y46875D01*
X52908Y46896D01*
X-11906Y111711D01*
X-11906Y144136D01*
X-11913Y144177D01*
X-11911Y144220D01*
X-11933Y144287D01*
X-11945Y144356D01*
X-11967Y144393D01*
X-11980Y144433D01*
X-12034Y144506D01*
X-12060Y144550D01*
X-12076Y144563D01*
X-12092Y144584D01*
X-13541Y146033D01*
X-13541Y148967D01*
X-12996Y149512D01*
X-12945Y149585D01*
X-12889Y149654D01*
X-12881Y149676D01*
X-12868Y149696D01*
X-12846Y149782D01*
X-12817Y149866D01*
X-12818Y149890D01*
X-12812Y149913D01*
X-12821Y150002D01*
X-12824Y150091D01*
X-12833Y150113D01*
X-12835Y150136D01*
X-12875Y150216D01*
X-12908Y150298D01*
X-12924Y150316D01*
X-12934Y150337D01*
X-12999Y150398D01*
X-13059Y150464D01*
X-13080Y150475D01*
X-13098Y150491D01*
X-13180Y150526D01*
X-13259Y150567D01*
X-13262Y150567D01*
X-14592Y151896D01*
X-20377Y157681D01*
X-20450Y157732D01*
X-20519Y157788D01*
X-20541Y157796D01*
X-20561Y157810D01*
X-20647Y157832D01*
X-20731Y157860D01*
X-20755Y157860D01*
X-20778Y157865D01*
X-20867Y157856D01*
X-20956Y157854D01*
X-20978Y157845D01*
X-21001Y157842D01*
X-21081Y157803D01*
X-21163Y157769D01*
X-21181Y157753D01*
X-21202Y157743D01*
X-21263Y157678D01*
X-21329Y157618D01*
X-21340Y157597D01*
X-21356Y157580D01*
X-21391Y157498D01*
X-21432Y157418D01*
X-21435Y157392D01*
X-21444Y157373D01*
X-21446Y157323D01*
X-21459Y157233D01*
X-21459Y156033D01*
X-23533Y153959D01*
X-25583Y153959D01*
X-25625Y153952D01*
X-25667Y153954D01*
X-25734Y153932D01*
X-25804Y153920D01*
X-25840Y153898D01*
X-25881Y153885D01*
X-25953Y153831D01*
X-25997Y153805D01*
X-26010Y153789D01*
X-26031Y153773D01*
X-61816Y117988D01*
X-61867Y117915D01*
X-61923Y117846D01*
X-61931Y117824D01*
X-61945Y117804D01*
X-61967Y117718D01*
X-61995Y117634D01*
X-61995Y117610D01*
X-62000Y117587D01*
X-61991Y117498D01*
X-61989Y117409D01*
X-61980Y117387D01*
X-61977Y117364D01*
X-61938Y117284D01*
X-61904Y117202D01*
X-61888Y117184D01*
X-61878Y117163D01*
X-61813Y117102D01*
X-61753Y117036D01*
X-61732Y117025D01*
X-61715Y117009D01*
X-61633Y116974D01*
X-61553Y116933D01*
X-61527Y116930D01*
X-61508Y116921D01*
X-61458Y116919D01*
X-61368Y116906D01*
X-58552Y116906D01*
X-58510Y116913D01*
X-58468Y116911D01*
X-58401Y116933D01*
X-58331Y116945D01*
X-58295Y116967D01*
X-58254Y116980D01*
X-58182Y117034D01*
X-58138Y117060D01*
X-58125Y117076D01*
X-58104Y117092D01*
X-38727Y136469D01*
X-38702Y136503D01*
X-38671Y136532D01*
X-38639Y136595D01*
X-38598Y136653D01*
X-38588Y136694D01*
X-38568Y136732D01*
X-38555Y136821D01*
X-38542Y136870D01*
X-38545Y136891D01*
X-38541Y136917D01*
X-38541Y138967D01*
X-36467Y141041D01*
X-33533Y141041D01*
X-31459Y138967D01*
X-31459Y136033D01*
X-33533Y133959D01*
X-35583Y133959D01*
X-35625Y133952D01*
X-35667Y133954D01*
X-35734Y133932D01*
X-35804Y133920D01*
X-35840Y133898D01*
X-35881Y133885D01*
X-35953Y133831D01*
X-35997Y133805D01*
X-36010Y133789D01*
X-36031Y133773D01*
X-56711Y113094D01*
X-61448Y113094D01*
X-61490Y113087D01*
X-61532Y113089D01*
X-61599Y113067D01*
X-61669Y113055D01*
X-61705Y113033D01*
X-61746Y113020D01*
X-61818Y112966D01*
X-61862Y112940D01*
X-61875Y112924D01*
X-61896Y112908D01*
X-130408Y44396D01*
X-130433Y44362D01*
X-130464Y44333D01*
X-130496Y44270D01*
X-130537Y44212D01*
X-130547Y44171D01*
X-130567Y44133D01*
X-130580Y44044D01*
X-130593Y43995D01*
X-130590Y43974D01*
X-130594Y43948D01*
X-130594Y-34136D01*
X-130587Y-34177D01*
X-130589Y-34220D01*
X-130567Y-34287D01*
X-130555Y-34356D01*
X-130533Y-34393D01*
X-130520Y-34433D01*
X-130466Y-34506D01*
X-130440Y-34550D01*
X-130424Y-34563D01*
X-130408Y-34584D01*
X-128959Y-36033D01*
X-128959Y-38967D01*
X-131033Y-41041D01*
X-132233Y-41041D01*
X-132321Y-41057D01*
X-132409Y-41066D01*
X-132430Y-41076D01*
X-132454Y-41080D01*
X-132530Y-41126D01*
X-132610Y-41165D01*
X-132627Y-41182D01*
X-132647Y-41195D01*
X-132703Y-41264D01*
X-132764Y-41328D01*
X-132773Y-41350D01*
X-132788Y-41369D01*
X-132817Y-41453D01*
X-132852Y-41535D01*
X-132853Y-41559D01*
X-132860Y-41581D01*
X-132858Y-41670D01*
X-132862Y-41759D01*
X-132854Y-41782D01*
X-132854Y-41806D01*
X-132820Y-41888D01*
X-132793Y-41973D01*
X-132777Y-41994D01*
X-132769Y-42013D01*
X-132735Y-42051D01*
X-132681Y-42123D01*
X-64396Y-110408D01*
X-64362Y-110433D01*
X-64333Y-110464D01*
X-64270Y-110496D01*
X-64212Y-110537D01*
X-64171Y-110547D01*
X-64133Y-110567D01*
X-64044Y-110580D01*
X-63995Y-110593D01*
X-63974Y-110590D01*
X-63948Y-110594D01*
X-36655Y-110594D01*
X-36590Y-110583D01*
X-36524Y-110581D01*
X-36481Y-110563D01*
X-36434Y-110555D01*
X-36377Y-110521D01*
X-36317Y-110496D01*
X-36282Y-110465D01*
X-36241Y-110440D01*
X-36199Y-110389D01*
X-36151Y-110345D01*
X-36129Y-110303D01*
X-36100Y-110266D01*
X-36079Y-110204D01*
X-36048Y-110145D01*
X-36040Y-110091D01*
X-36028Y-110054D01*
X-36029Y-110014D01*
X-36021Y-109960D01*
X-36021Y-109724D01*
X-35276Y-108979D01*
X-14724Y-108979D01*
X-13979Y-109724D01*
X-13979Y-130276D01*
X-14724Y-131021D01*
X-35276Y-131021D01*
X-36021Y-130276D01*
X-36021Y-115040D01*
X-36032Y-114975D01*
X-36034Y-114909D01*
X-36052Y-114866D01*
X-36060Y-114819D01*
X-36094Y-114762D01*
X-36119Y-114702D01*
X-36150Y-114667D01*
X-36175Y-114626D01*
X-36226Y-114584D01*
X-36270Y-114536D01*
X-36312Y-114514D01*
X-36349Y-114485D01*
X-36411Y-114464D01*
X-36470Y-114433D01*
X-36524Y-114425D01*
X-36561Y-114413D01*
X-36601Y-114414D01*
X-36655Y-114406D01*
X-65789Y-114406D01*
X-67091Y-113104D01*
X-67092Y-113104D01*
X-138104Y-42092D01*
X-139512Y-40684D01*
X-139585Y-40633D01*
X-139654Y-40577D01*
X-139676Y-40569D01*
X-139696Y-40555D01*
X-139782Y-40533D01*
X-139866Y-40505D01*
X-139890Y-40505D01*
X-139913Y-40500D01*
X-140002Y-40509D01*
X-140091Y-40511D01*
X-140113Y-40520D01*
X-140136Y-40523D01*
X-140216Y-40562D01*
X-140298Y-40596D01*
X-140316Y-40612D01*
X-140337Y-40622D01*
X-140398Y-40687D01*
X-140464Y-40747D01*
X-140475Y-40768D01*
X-140491Y-40785D01*
X-140526Y-40867D01*
X-140567Y-40947D01*
X-140570Y-40973D01*
X-140579Y-40992D01*
X-140581Y-41042D01*
X-140594Y-41132D01*
X-140594Y-43948D01*
X-140587Y-43990D01*
X-140589Y-44032D01*
X-140567Y-44099D01*
X-140555Y-44169D01*
X-140533Y-44205D01*
X-140520Y-44246D01*
X-140466Y-44318D01*
X-140440Y-44362D01*
X-140424Y-44375D01*
X-140408Y-44396D01*
X-33094Y-151711D01*
X-33094Y-253948D01*
X-33087Y-253990D01*
X-33089Y-254032D01*
X-33067Y-254099D01*
X-33055Y-254169D01*
X-33033Y-254205D01*
X-33020Y-254246D01*
X-32966Y-254318D01*
X-32940Y-254362D01*
X-32924Y-254375D01*
X-32908Y-254396D01*
X-31829Y-255476D01*
X-31799Y-255496D01*
X-31788Y-255509D01*
X-31777Y-255514D01*
X-31746Y-255546D01*
X-31693Y-255571D01*
X-31645Y-255604D01*
X-31592Y-255618D01*
X-31543Y-255641D01*
X-31484Y-255645D01*
X-31427Y-255660D01*
X-31373Y-255654D01*
X-31319Y-255659D01*
X-31250Y-255642D01*
X-31204Y-255637D01*
X-31177Y-255623D01*
X-31138Y-255614D01*
X-27192Y-253979D01*
X-22808Y-253979D01*
X-18757Y-255657D01*
X-15657Y-258757D01*
X-13979Y-262808D01*
X-13979Y-267192D01*
X-15657Y-271243D01*
X-18757Y-274343D01*
X-22808Y-276021D01*
X-27192Y-276021D01*
G37*
%LPD*%
G36*
X302502Y-109679D02*
X302502Y-109679D01*
X302591Y-109676D01*
X302613Y-109667D01*
X302636Y-109665D01*
X302716Y-109625D01*
X302798Y-109592D01*
X302816Y-109576D01*
X302837Y-109566D01*
X302898Y-109501D01*
X302964Y-109441D01*
X302975Y-109420D01*
X302991Y-109402D01*
X303026Y-109320D01*
X303067Y-109241D01*
X303070Y-109215D01*
X303079Y-109196D01*
X303081Y-109145D01*
X303094Y-109056D01*
X303094Y-68552D01*
X303087Y-68510D01*
X303089Y-68468D01*
X303067Y-68401D01*
X303055Y-68331D01*
X303033Y-68295D01*
X303020Y-68254D01*
X302982Y-68203D01*
X302979Y-68197D01*
X302969Y-68185D01*
X302966Y-68182D01*
X302940Y-68138D01*
X302924Y-68125D01*
X302908Y-68104D01*
X235594Y-789D01*
X235594Y4056D01*
X235579Y4143D01*
X235569Y4232D01*
X235559Y4253D01*
X235555Y4277D01*
X235509Y4353D01*
X235470Y4433D01*
X235453Y4449D01*
X235440Y4470D01*
X235371Y4526D01*
X235307Y4587D01*
X235285Y4596D01*
X235266Y4611D01*
X235182Y4640D01*
X235100Y4674D01*
X235076Y4675D01*
X235054Y4683D01*
X234965Y4680D01*
X234876Y4684D01*
X234853Y4677D01*
X234829Y4676D01*
X234747Y4643D01*
X234662Y4616D01*
X234641Y4600D01*
X234622Y4592D01*
X234584Y4558D01*
X234512Y4504D01*
X233967Y3959D01*
X231033Y3959D01*
X228959Y6033D01*
X228959Y8083D01*
X228952Y8125D01*
X228954Y8167D01*
X228932Y8234D01*
X228920Y8304D01*
X228898Y8340D01*
X228885Y8381D01*
X228831Y8453D01*
X228805Y8497D01*
X228789Y8510D01*
X228773Y8531D01*
X129396Y107908D01*
X129362Y107933D01*
X129333Y107964D01*
X129270Y107996D01*
X129212Y108037D01*
X129171Y108047D01*
X129133Y108067D01*
X129044Y108080D01*
X128995Y108093D01*
X128974Y108090D01*
X128948Y108094D01*
X83632Y108094D01*
X83544Y108079D01*
X83456Y108069D01*
X83435Y108059D01*
X83411Y108055D01*
X83334Y108009D01*
X83255Y107970D01*
X83239Y107953D01*
X83218Y107940D01*
X83162Y107871D01*
X83101Y107807D01*
X83092Y107785D01*
X83077Y107766D01*
X83048Y107682D01*
X83013Y107600D01*
X83012Y107576D01*
X83005Y107554D01*
X83007Y107465D01*
X83003Y107376D01*
X83011Y107353D01*
X83011Y107329D01*
X83045Y107247D01*
X83072Y107162D01*
X83088Y107141D01*
X83096Y107122D01*
X83130Y107084D01*
X83184Y107012D01*
X84592Y105604D01*
X298969Y-108773D01*
X299003Y-108798D01*
X299032Y-108829D01*
X299095Y-108861D01*
X299153Y-108902D01*
X299194Y-108912D01*
X299232Y-108932D01*
X299321Y-108945D01*
X299370Y-108958D01*
X299391Y-108955D01*
X299417Y-108959D01*
X301467Y-108959D01*
X302012Y-109504D01*
X302085Y-109555D01*
X302154Y-109611D01*
X302176Y-109619D01*
X302196Y-109632D01*
X302282Y-109654D01*
X302366Y-109683D01*
X302390Y-109682D01*
X302413Y-109688D01*
X302502Y-109679D01*
G37*
%LPC*%
G36*
X-320789Y68094D02*
X-320789Y68094D01*
X-321906Y69211D01*
X-321906Y120789D01*
X-320789Y121906D01*
X-269211Y121906D01*
X-267949Y120644D01*
X-267917Y120622D01*
X-267899Y120602D01*
X-267879Y120592D01*
X-267847Y120561D01*
X-267803Y120542D01*
X-267764Y120516D01*
X-267701Y120499D01*
X-267640Y120473D01*
X-267593Y120471D01*
X-267547Y120460D01*
X-267482Y120466D01*
X-267416Y120463D01*
X-267371Y120478D01*
X-267324Y120483D01*
X-267267Y120511D01*
X-267265Y120511D01*
X-267263Y120512D01*
X-267202Y120532D01*
X-267158Y120565D01*
X-267123Y120582D01*
X-267096Y120611D01*
X-267092Y120614D01*
X-267072Y120625D01*
X-267066Y120633D01*
X-267052Y120644D01*
X-265789Y121906D01*
X-204211Y121906D01*
X-203094Y120789D01*
X-203094Y109485D01*
X-203087Y109443D01*
X-203089Y109401D01*
X-203067Y109333D01*
X-203055Y109264D01*
X-203033Y109227D01*
X-203020Y109187D01*
X-202966Y109114D01*
X-202940Y109071D01*
X-202924Y109057D01*
X-202908Y109036D01*
X-200714Y106842D01*
X-200714Y103158D01*
X-202908Y100964D01*
X-202933Y100929D01*
X-202964Y100900D01*
X-202996Y100837D01*
X-203037Y100780D01*
X-203047Y100738D01*
X-203067Y100701D01*
X-203080Y100611D01*
X-203093Y100562D01*
X-203090Y100542D01*
X-203094Y100515D01*
X-203094Y69211D01*
X-204211Y68094D01*
X-265789Y68094D01*
X-267052Y69356D01*
X-267106Y69394D01*
X-267153Y69439D01*
X-267197Y69458D01*
X-267236Y69484D01*
X-267299Y69501D01*
X-267360Y69527D01*
X-267407Y69529D01*
X-267453Y69540D01*
X-267518Y69534D01*
X-267584Y69537D01*
X-267629Y69522D01*
X-267676Y69517D01*
X-267735Y69488D01*
X-267798Y69468D01*
X-267842Y69435D01*
X-267877Y69418D01*
X-267904Y69389D01*
X-267949Y69356D01*
X-269211Y68094D01*
X-320789Y68094D01*
G37*
%LPD*%
G36*
X-260649Y69377D02*
X-260649Y69377D01*
X-260583Y69379D01*
X-260540Y69397D01*
X-260493Y69405D01*
X-260436Y69439D01*
X-260376Y69464D01*
X-260341Y69495D01*
X-260300Y69520D01*
X-260258Y69571D01*
X-260210Y69615D01*
X-260188Y69657D01*
X-260159Y69694D01*
X-260138Y69756D01*
X-260107Y69815D01*
X-260099Y69869D01*
X-260087Y69906D01*
X-260088Y69946D01*
X-260080Y70000D01*
X-260080Y71467D01*
X-258006Y73541D01*
X-255072Y73541D01*
X-252998Y71467D01*
X-252998Y70000D01*
X-252987Y69935D01*
X-252985Y69869D01*
X-252967Y69826D01*
X-252959Y69779D01*
X-252925Y69722D01*
X-252900Y69662D01*
X-252869Y69627D01*
X-252844Y69586D01*
X-252793Y69545D01*
X-252749Y69496D01*
X-252707Y69474D01*
X-252670Y69445D01*
X-252608Y69424D01*
X-252549Y69393D01*
X-252495Y69385D01*
X-252458Y69373D01*
X-252418Y69374D01*
X-252364Y69366D01*
X-205000Y69366D01*
X-204935Y69377D01*
X-204869Y69379D01*
X-204826Y69397D01*
X-204779Y69405D01*
X-204722Y69439D01*
X-204662Y69464D01*
X-204627Y69495D01*
X-204586Y69520D01*
X-204545Y69571D01*
X-204496Y69615D01*
X-204474Y69657D01*
X-204445Y69694D01*
X-204424Y69756D01*
X-204393Y69815D01*
X-204385Y69869D01*
X-204373Y69906D01*
X-204374Y69946D01*
X-204366Y70000D01*
X-204366Y120000D01*
X-204377Y120065D01*
X-204379Y120131D01*
X-204397Y120174D01*
X-204405Y120221D01*
X-204439Y120278D01*
X-204464Y120338D01*
X-204495Y120373D01*
X-204520Y120414D01*
X-204571Y120456D01*
X-204615Y120504D01*
X-204657Y120526D01*
X-204694Y120555D01*
X-204756Y120576D01*
X-204815Y120607D01*
X-204869Y120615D01*
X-204906Y120627D01*
X-204946Y120626D01*
X-205000Y120634D01*
X-265000Y120634D01*
X-265065Y120623D01*
X-265131Y120621D01*
X-265174Y120603D01*
X-265221Y120595D01*
X-265278Y120561D01*
X-265338Y120536D01*
X-265373Y120505D01*
X-265414Y120480D01*
X-265456Y120429D01*
X-265504Y120385D01*
X-265526Y120343D01*
X-265555Y120306D01*
X-265576Y120244D01*
X-265607Y120185D01*
X-265615Y120131D01*
X-265627Y120094D01*
X-265626Y120054D01*
X-265634Y120000D01*
X-265634Y110080D01*
X-265623Y110015D01*
X-265621Y109949D01*
X-265603Y109906D01*
X-265595Y109859D01*
X-265561Y109802D01*
X-265536Y109742D01*
X-265505Y109707D01*
X-265480Y109666D01*
X-265429Y109624D01*
X-265385Y109576D01*
X-265343Y109554D01*
X-265306Y109525D01*
X-265244Y109504D01*
X-265185Y109473D01*
X-265131Y109465D01*
X-265094Y109453D01*
X-265054Y109454D01*
X-265000Y109446D01*
X-263318Y109446D01*
X-260714Y106842D01*
X-260714Y103158D01*
X-263318Y100554D01*
X-265000Y100554D01*
X-265065Y100543D01*
X-265131Y100541D01*
X-265174Y100523D01*
X-265221Y100515D01*
X-265278Y100481D01*
X-265338Y100456D01*
X-265373Y100425D01*
X-265414Y100400D01*
X-265456Y100349D01*
X-265504Y100305D01*
X-265526Y100263D01*
X-265555Y100226D01*
X-265576Y100164D01*
X-265607Y100105D01*
X-265615Y100051D01*
X-265627Y100014D01*
X-265626Y99974D01*
X-265634Y99920D01*
X-265634Y70000D01*
X-265623Y69935D01*
X-265621Y69869D01*
X-265603Y69826D01*
X-265595Y69779D01*
X-265561Y69722D01*
X-265536Y69662D01*
X-265505Y69627D01*
X-265480Y69586D01*
X-265429Y69545D01*
X-265385Y69496D01*
X-265343Y69474D01*
X-265306Y69445D01*
X-265244Y69424D01*
X-265185Y69393D01*
X-265131Y69385D01*
X-265094Y69373D01*
X-265054Y69374D01*
X-265000Y69366D01*
X-260714Y69366D01*
X-260649Y69377D01*
G37*
G36*
X-269935Y69377D02*
X-269935Y69377D01*
X-269869Y69379D01*
X-269826Y69397D01*
X-269779Y69405D01*
X-269722Y69439D01*
X-269662Y69464D01*
X-269627Y69495D01*
X-269586Y69520D01*
X-269545Y69571D01*
X-269496Y69615D01*
X-269474Y69657D01*
X-269445Y69694D01*
X-269424Y69756D01*
X-269393Y69815D01*
X-269385Y69869D01*
X-269373Y69906D01*
X-269374Y69946D01*
X-269366Y70000D01*
X-269366Y102656D01*
X-269373Y102698D01*
X-269371Y102741D01*
X-269393Y102808D01*
X-269405Y102877D01*
X-269427Y102914D01*
X-269440Y102954D01*
X-269494Y103027D01*
X-269520Y103070D01*
X-269536Y103084D01*
X-269552Y103105D01*
X-269605Y103158D01*
X-269605Y106842D01*
X-269552Y106895D01*
X-269527Y106930D01*
X-269496Y106959D01*
X-269464Y107022D01*
X-269423Y107079D01*
X-269413Y107120D01*
X-269393Y107158D01*
X-269380Y107248D01*
X-269368Y107297D01*
X-269370Y107317D01*
X-269366Y107344D01*
X-269366Y120000D01*
X-269377Y120065D01*
X-269379Y120131D01*
X-269397Y120174D01*
X-269405Y120221D01*
X-269439Y120278D01*
X-269464Y120338D01*
X-269495Y120373D01*
X-269520Y120414D01*
X-269571Y120456D01*
X-269615Y120504D01*
X-269657Y120526D01*
X-269694Y120555D01*
X-269756Y120576D01*
X-269815Y120607D01*
X-269869Y120615D01*
X-269906Y120627D01*
X-269946Y120626D01*
X-270000Y120634D01*
X-320000Y120634D01*
X-320065Y120623D01*
X-320131Y120621D01*
X-320174Y120603D01*
X-320221Y120595D01*
X-320278Y120561D01*
X-320338Y120536D01*
X-320373Y120505D01*
X-320414Y120480D01*
X-320456Y120429D01*
X-320504Y120385D01*
X-320526Y120343D01*
X-320555Y120306D01*
X-320576Y120244D01*
X-320607Y120185D01*
X-320615Y120131D01*
X-320627Y120094D01*
X-320626Y120054D01*
X-320634Y120000D01*
X-320634Y70000D01*
X-320623Y69935D01*
X-320621Y69869D01*
X-320603Y69826D01*
X-320595Y69779D01*
X-320561Y69722D01*
X-320536Y69662D01*
X-320505Y69627D01*
X-320480Y69586D01*
X-320429Y69545D01*
X-320385Y69496D01*
X-320343Y69474D01*
X-320306Y69445D01*
X-320244Y69424D01*
X-320185Y69393D01*
X-320131Y69385D01*
X-320094Y69373D01*
X-320054Y69374D01*
X-320000Y69366D01*
X-270000Y69366D01*
X-269935Y69377D01*
G37*
G36*
X155002Y509D02*
X155002Y509D01*
X155091Y511D01*
X155113Y520D01*
X155136Y523D01*
X155216Y562D01*
X155298Y596D01*
X155316Y612D01*
X155337Y622D01*
X155398Y687D01*
X155464Y747D01*
X155475Y768D01*
X155491Y785D01*
X155526Y867D01*
X155567Y947D01*
X155570Y973D01*
X155579Y992D01*
X155581Y1042D01*
X155594Y1132D01*
X155594Y16448D01*
X155587Y16490D01*
X155589Y16532D01*
X155574Y16577D01*
X155574Y16585D01*
X155566Y16605D01*
X155555Y16669D01*
X155533Y16705D01*
X155520Y16746D01*
X155496Y16779D01*
X155490Y16793D01*
X155466Y16819D01*
X155440Y16862D01*
X155424Y16875D01*
X155408Y16896D01*
X95823Y76481D01*
X95750Y76532D01*
X95681Y76588D01*
X95659Y76596D01*
X95639Y76610D01*
X95553Y76632D01*
X95469Y76660D01*
X95445Y76660D01*
X95422Y76665D01*
X95333Y76656D01*
X95244Y76654D01*
X95222Y76645D01*
X95199Y76642D01*
X95119Y76603D01*
X95037Y76569D01*
X95019Y76553D01*
X94998Y76543D01*
X94937Y76478D01*
X94871Y76418D01*
X94860Y76397D01*
X94844Y76380D01*
X94809Y76298D01*
X94768Y76218D01*
X94765Y76192D01*
X94756Y76173D01*
X94754Y76123D01*
X94741Y76033D01*
X94741Y74769D01*
X77619Y74769D01*
X77619Y81141D01*
X89633Y81141D01*
X89721Y81156D01*
X89809Y81166D01*
X89830Y81176D01*
X89854Y81180D01*
X89931Y81226D01*
X90010Y81265D01*
X90027Y81282D01*
X90047Y81295D01*
X90103Y81364D01*
X90164Y81428D01*
X90173Y81450D01*
X90188Y81469D01*
X90217Y81553D01*
X90252Y81635D01*
X90253Y81659D01*
X90260Y81681D01*
X90258Y81770D01*
X90262Y81859D01*
X90254Y81882D01*
X90254Y81906D01*
X90220Y81988D01*
X90193Y82073D01*
X90177Y82094D01*
X90169Y82113D01*
X90135Y82151D01*
X90081Y82223D01*
X89396Y82909D01*
X89362Y82933D01*
X89333Y82964D01*
X89270Y82996D01*
X89212Y83037D01*
X89171Y83047D01*
X89133Y83067D01*
X89044Y83080D01*
X88995Y83093D01*
X88974Y83090D01*
X88948Y83094D01*
X41132Y83094D01*
X41044Y83078D01*
X40956Y83069D01*
X40935Y83059D01*
X40911Y83055D01*
X40835Y83009D01*
X40755Y82970D01*
X40738Y82953D01*
X40718Y82940D01*
X40662Y82871D01*
X40601Y82807D01*
X40592Y82785D01*
X40577Y82766D01*
X40548Y82682D01*
X40513Y82600D01*
X40512Y82576D01*
X40505Y82554D01*
X40507Y82465D01*
X40503Y82376D01*
X40511Y82353D01*
X40511Y82329D01*
X40545Y82247D01*
X40572Y82162D01*
X40588Y82141D01*
X40596Y82122D01*
X40630Y82084D01*
X40684Y82012D01*
X58104Y64592D01*
X58138Y64567D01*
X58167Y64536D01*
X58230Y64504D01*
X58288Y64463D01*
X58329Y64453D01*
X58367Y64433D01*
X58456Y64420D01*
X58505Y64407D01*
X58526Y64410D01*
X58552Y64406D01*
X90789Y64406D01*
X153104Y2092D01*
X154512Y684D01*
X154585Y633D01*
X154654Y577D01*
X154676Y569D01*
X154696Y555D01*
X154782Y533D01*
X154866Y505D01*
X154890Y505D01*
X154913Y500D01*
X155002Y509D01*
G37*
G36*
X58367Y-37856D02*
X58367Y-37856D01*
X58456Y-37854D01*
X58478Y-37845D01*
X58501Y-37842D01*
X58581Y-37803D01*
X58663Y-37769D01*
X58681Y-37753D01*
X58702Y-37743D01*
X58763Y-37678D01*
X58829Y-37618D01*
X58840Y-37597D01*
X58856Y-37580D01*
X58891Y-37498D01*
X58932Y-37418D01*
X58935Y-37392D01*
X58944Y-37373D01*
X58946Y-37323D01*
X58959Y-37233D01*
X58959Y-36033D01*
X59799Y-35193D01*
X59837Y-35139D01*
X59882Y-35091D01*
X59900Y-35048D01*
X59927Y-35009D01*
X59944Y-34945D01*
X59969Y-34885D01*
X59972Y-34838D01*
X59983Y-34792D01*
X59977Y-34726D01*
X59979Y-34661D01*
X59965Y-34616D01*
X59960Y-34569D01*
X59931Y-34510D01*
X59911Y-34447D01*
X59878Y-34403D01*
X59861Y-34368D01*
X59832Y-34341D01*
X59799Y-34296D01*
X59229Y-33726D01*
X59229Y-22474D01*
X59974Y-21729D01*
X64960Y-21729D01*
X65025Y-21718D01*
X65091Y-21716D01*
X65134Y-21698D01*
X65181Y-21690D01*
X65238Y-21656D01*
X65298Y-21631D01*
X65333Y-21600D01*
X65374Y-21575D01*
X65416Y-21524D01*
X65464Y-21480D01*
X65486Y-21438D01*
X65515Y-21401D01*
X65536Y-21339D01*
X65567Y-21280D01*
X65575Y-21226D01*
X65587Y-21189D01*
X65586Y-21149D01*
X65594Y-21095D01*
X65594Y-18364D01*
X65587Y-18323D01*
X65589Y-18280D01*
X65567Y-18213D01*
X65555Y-18144D01*
X65533Y-18107D01*
X65520Y-18067D01*
X65466Y-17994D01*
X65440Y-17950D01*
X65424Y-17937D01*
X65408Y-17916D01*
X63959Y-16467D01*
X63959Y-13533D01*
X66069Y-11423D01*
X66120Y-11350D01*
X66176Y-11281D01*
X66184Y-11259D01*
X66197Y-11239D01*
X66219Y-11153D01*
X66248Y-11069D01*
X66247Y-11045D01*
X66253Y-11022D01*
X66244Y-10933D01*
X66241Y-10844D01*
X66232Y-10822D01*
X66230Y-10799D01*
X66191Y-10719D01*
X66157Y-10636D01*
X66141Y-10619D01*
X66131Y-10598D01*
X66066Y-10537D01*
X66006Y-10471D01*
X65985Y-10460D01*
X65967Y-10444D01*
X65885Y-10409D01*
X65806Y-10368D01*
X65780Y-10364D01*
X65761Y-10356D01*
X65710Y-10354D01*
X65621Y-10341D01*
X60165Y-10341D01*
X59519Y-10168D01*
X58940Y-9833D01*
X58467Y-9360D01*
X58132Y-8781D01*
X57959Y-8135D01*
X57959Y-3969D01*
X75081Y-3969D01*
X75081Y-10341D01*
X69379Y-10341D01*
X69292Y-10356D01*
X69203Y-10366D01*
X69182Y-10376D01*
X69158Y-10380D01*
X69082Y-10426D01*
X69002Y-10465D01*
X68986Y-10482D01*
X68965Y-10494D01*
X68909Y-10564D01*
X68848Y-10628D01*
X68839Y-10650D01*
X68824Y-10669D01*
X68795Y-10753D01*
X68761Y-10835D01*
X68760Y-10859D01*
X68752Y-10881D01*
X68755Y-10970D01*
X68751Y-11059D01*
X68758Y-11082D01*
X68759Y-11105D01*
X68792Y-11188D01*
X68819Y-11273D01*
X68835Y-11294D01*
X68843Y-11313D01*
X68877Y-11351D01*
X68931Y-11423D01*
X71041Y-13533D01*
X71041Y-16467D01*
X69592Y-17916D01*
X69567Y-17951D01*
X69536Y-17979D01*
X69504Y-18042D01*
X69463Y-18100D01*
X69453Y-18141D01*
X69433Y-18179D01*
X69420Y-18269D01*
X69407Y-18317D01*
X69410Y-18338D01*
X69406Y-18364D01*
X69406Y-21095D01*
X69417Y-21160D01*
X69419Y-21226D01*
X69437Y-21269D01*
X69445Y-21316D01*
X69479Y-21373D01*
X69504Y-21433D01*
X69535Y-21468D01*
X69560Y-21509D01*
X69611Y-21551D01*
X69655Y-21599D01*
X69697Y-21621D01*
X69734Y-21650D01*
X69796Y-21671D01*
X69855Y-21702D01*
X69909Y-21710D01*
X69946Y-21722D01*
X69986Y-21721D01*
X70040Y-21729D01*
X92726Y-21729D01*
X93471Y-22474D01*
X93471Y-33325D01*
X93482Y-33390D01*
X93484Y-33456D01*
X93502Y-33499D01*
X93510Y-33546D01*
X93544Y-33603D01*
X93569Y-33663D01*
X93600Y-33698D01*
X93625Y-33739D01*
X93676Y-33781D01*
X93720Y-33829D01*
X93762Y-33851D01*
X93799Y-33880D01*
X93861Y-33901D01*
X93920Y-33932D01*
X93974Y-33940D01*
X94011Y-33952D01*
X94051Y-33951D01*
X94105Y-33959D01*
X96467Y-33959D01*
X97012Y-34504D01*
X97085Y-34555D01*
X97154Y-34611D01*
X97176Y-34619D01*
X97196Y-34632D01*
X97282Y-34654D01*
X97366Y-34683D01*
X97390Y-34682D01*
X97413Y-34688D01*
X97502Y-34679D01*
X97591Y-34676D01*
X97613Y-34667D01*
X97636Y-34665D01*
X97716Y-34625D01*
X97798Y-34592D01*
X97816Y-34576D01*
X97837Y-34566D01*
X97898Y-34501D01*
X97964Y-34441D01*
X97975Y-34420D01*
X97991Y-34402D01*
X98026Y-34320D01*
X98067Y-34241D01*
X98070Y-34215D01*
X98079Y-34196D01*
X98081Y-34145D01*
X98094Y-34056D01*
X98094Y23948D01*
X98087Y23990D01*
X98089Y24032D01*
X98067Y24099D01*
X98055Y24169D01*
X98033Y24205D01*
X98020Y24246D01*
X97966Y24319D01*
X97940Y24362D01*
X97924Y24375D01*
X97909Y24396D01*
X94553Y27751D01*
X94480Y27802D01*
X94411Y27858D01*
X94389Y27866D01*
X94369Y27880D01*
X94283Y27902D01*
X94199Y27930D01*
X94175Y27930D01*
X94152Y27935D01*
X94063Y27926D01*
X93974Y27924D01*
X93952Y27915D01*
X93929Y27912D01*
X93849Y27873D01*
X93767Y27839D01*
X93749Y27823D01*
X93728Y27813D01*
X93667Y27748D01*
X93601Y27688D01*
X93590Y27667D01*
X93574Y27650D01*
X93539Y27568D01*
X93498Y27488D01*
X93495Y27462D01*
X93486Y27443D01*
X93484Y27393D01*
X93471Y27303D01*
X93471Y17074D01*
X92726Y16329D01*
X66787Y16329D01*
X66745Y16322D01*
X66703Y16324D01*
X66636Y16302D01*
X66566Y16290D01*
X66530Y16268D01*
X66489Y16255D01*
X66417Y16201D01*
X66373Y16175D01*
X66360Y16159D01*
X66339Y16143D01*
X54592Y4396D01*
X54567Y4362D01*
X54536Y4333D01*
X54504Y4270D01*
X54463Y4212D01*
X54453Y4171D01*
X54433Y4133D01*
X54420Y4044D01*
X54407Y3995D01*
X54410Y3974D01*
X54406Y3948D01*
X54406Y-33948D01*
X54413Y-33990D01*
X54411Y-34032D01*
X54433Y-34099D01*
X54445Y-34169D01*
X54467Y-34205D01*
X54480Y-34246D01*
X54534Y-34319D01*
X54560Y-34362D01*
X54576Y-34375D01*
X54591Y-34396D01*
X57877Y-37681D01*
X57950Y-37732D01*
X58019Y-37788D01*
X58041Y-37796D01*
X58061Y-37810D01*
X58147Y-37832D01*
X58231Y-37860D01*
X58255Y-37860D01*
X58278Y-37865D01*
X58367Y-37856D01*
G37*
%LPC*%
G36*
X-92726Y41729D02*
X-92726Y41729D01*
X-93471Y42474D01*
X-93471Y53726D01*
X-92726Y54471D01*
X-86009Y54471D01*
X-85922Y54486D01*
X-85833Y54496D01*
X-85812Y54506D01*
X-85788Y54510D01*
X-85712Y54556D01*
X-85632Y54595D01*
X-85616Y54612D01*
X-85595Y54625D01*
X-85539Y54694D01*
X-85478Y54758D01*
X-85469Y54780D01*
X-85454Y54799D01*
X-85425Y54883D01*
X-85391Y54965D01*
X-85390Y54989D01*
X-85382Y55011D01*
X-85385Y55100D01*
X-85381Y55189D01*
X-85388Y55212D01*
X-85389Y55236D01*
X-85422Y55318D01*
X-85449Y55403D01*
X-85465Y55424D01*
X-85473Y55443D01*
X-85507Y55481D01*
X-85561Y55553D01*
X-86041Y56033D01*
X-86041Y58967D01*
X-83967Y61041D01*
X-81033Y61041D01*
X-78959Y58967D01*
X-78959Y56033D01*
X-79439Y55553D01*
X-79490Y55480D01*
X-79546Y55411D01*
X-79554Y55389D01*
X-79567Y55369D01*
X-79589Y55283D01*
X-79618Y55199D01*
X-79617Y55175D01*
X-79623Y55152D01*
X-79614Y55063D01*
X-79611Y54974D01*
X-79602Y54952D01*
X-79600Y54929D01*
X-79560Y54849D01*
X-79527Y54767D01*
X-79511Y54749D01*
X-79501Y54728D01*
X-79436Y54667D01*
X-79376Y54601D01*
X-79355Y54590D01*
X-79337Y54574D01*
X-79255Y54539D01*
X-79176Y54498D01*
X-79150Y54495D01*
X-79131Y54486D01*
X-79080Y54484D01*
X-78991Y54471D01*
X-59974Y54471D01*
X-59623Y54121D01*
X-59550Y54070D01*
X-59481Y54014D01*
X-59459Y54006D01*
X-59439Y53992D01*
X-59353Y53970D01*
X-59269Y53942D01*
X-59245Y53942D01*
X-59222Y53937D01*
X-59216Y53937D01*
X-59216Y53930D01*
X-59229Y53840D01*
X-59229Y50040D01*
X-59218Y49975D01*
X-59216Y49909D01*
X-59198Y49866D01*
X-59190Y49819D01*
X-59156Y49762D01*
X-59131Y49702D01*
X-59100Y49667D01*
X-59075Y49626D01*
X-59024Y49584D01*
X-58980Y49536D01*
X-58938Y49514D01*
X-58901Y49485D01*
X-58839Y49464D01*
X-58780Y49433D01*
X-58726Y49425D01*
X-58689Y49413D01*
X-58649Y49414D01*
X-58595Y49406D01*
X-53552Y49406D01*
X-53510Y49413D01*
X-53468Y49411D01*
X-53401Y49433D01*
X-53331Y49445D01*
X-53295Y49467D01*
X-53254Y49480D01*
X-53182Y49534D01*
X-53138Y49560D01*
X-53125Y49576D01*
X-53104Y49592D01*
X-14592Y88104D01*
X-14567Y88138D01*
X-14536Y88167D01*
X-14504Y88230D01*
X-14463Y88288D01*
X-14453Y88329D01*
X-14433Y88367D01*
X-14420Y88456D01*
X-14407Y88505D01*
X-14410Y88526D01*
X-14406Y88552D01*
X-14406Y89136D01*
X-14413Y89177D01*
X-14411Y89220D01*
X-14433Y89287D01*
X-14445Y89356D01*
X-14467Y89393D01*
X-14480Y89433D01*
X-14534Y89506D01*
X-14560Y89550D01*
X-14576Y89563D01*
X-14591Y89584D01*
X-15801Y90794D01*
X-15856Y90832D01*
X-15903Y90877D01*
X-15947Y90895D01*
X-15986Y90922D01*
X-16049Y90939D01*
X-16110Y90964D01*
X-16157Y90966D01*
X-16203Y90978D01*
X-16268Y90971D01*
X-16334Y90974D01*
X-16379Y90960D01*
X-16426Y90955D01*
X-16485Y90926D01*
X-16548Y90906D01*
X-16592Y90873D01*
X-16627Y90856D01*
X-16654Y90827D01*
X-16698Y90794D01*
X-18533Y88959D01*
X-21467Y88959D01*
X-23541Y91033D01*
X-23541Y93967D01*
X-21467Y96041D01*
X-18533Y96041D01*
X-16698Y94206D01*
X-16644Y94168D01*
X-16597Y94123D01*
X-16553Y94105D01*
X-16514Y94078D01*
X-16451Y94061D01*
X-16390Y94036D01*
X-16343Y94034D01*
X-16297Y94022D01*
X-16232Y94029D01*
X-16166Y94026D01*
X-16121Y94040D01*
X-16074Y94045D01*
X-16015Y94074D01*
X-15952Y94094D01*
X-15908Y94127D01*
X-15873Y94144D01*
X-15846Y94173D01*
X-15801Y94206D01*
X-13967Y96041D01*
X-11033Y96041D01*
X-8959Y93967D01*
X-8959Y91033D01*
X-10408Y89584D01*
X-10433Y89549D01*
X-10464Y89521D01*
X-10496Y89458D01*
X-10537Y89400D01*
X-10547Y89359D01*
X-10567Y89321D01*
X-10580Y89231D01*
X-10593Y89183D01*
X-10590Y89162D01*
X-10594Y89136D01*
X-10594Y86711D01*
X-51711Y45594D01*
X-58595Y45594D01*
X-58660Y45583D01*
X-58726Y45581D01*
X-58769Y45563D01*
X-58816Y45555D01*
X-58873Y45521D01*
X-58933Y45496D01*
X-58968Y45465D01*
X-59009Y45440D01*
X-59051Y45389D01*
X-59099Y45345D01*
X-59121Y45303D01*
X-59150Y45266D01*
X-59171Y45204D01*
X-59202Y45145D01*
X-59210Y45091D01*
X-59222Y45054D01*
X-59221Y45014D01*
X-59229Y44960D01*
X-59229Y42474D01*
X-59974Y41729D01*
X-92726Y41729D01*
G37*
%LPD*%
G36*
X39962Y65549D02*
X39962Y65549D01*
X40051Y65551D01*
X40073Y65560D01*
X40096Y65563D01*
X40176Y65602D01*
X40258Y65636D01*
X40276Y65652D01*
X40297Y65662D01*
X40358Y65727D01*
X40424Y65787D01*
X40435Y65808D01*
X40451Y65825D01*
X40486Y65907D01*
X40527Y65987D01*
X40530Y66013D01*
X40539Y66032D01*
X40541Y66082D01*
X40554Y66172D01*
X40554Y66762D01*
X43158Y69366D01*
X46408Y69366D01*
X46496Y69382D01*
X46584Y69391D01*
X46605Y69401D01*
X46629Y69405D01*
X46705Y69451D01*
X46785Y69490D01*
X46802Y69507D01*
X46822Y69520D01*
X46878Y69589D01*
X46939Y69653D01*
X46948Y69675D01*
X46963Y69694D01*
X46992Y69778D01*
X47027Y69860D01*
X47028Y69884D01*
X47035Y69906D01*
X47033Y69995D01*
X47037Y70084D01*
X47029Y70107D01*
X47029Y70131D01*
X46995Y70213D01*
X46968Y70298D01*
X46952Y70319D01*
X46944Y70338D01*
X46910Y70376D01*
X46856Y70448D01*
X-4406Y121711D01*
X-4406Y144136D01*
X-4413Y144177D01*
X-4411Y144220D01*
X-4433Y144287D01*
X-4445Y144356D01*
X-4467Y144393D01*
X-4480Y144433D01*
X-4534Y144506D01*
X-4560Y144550D01*
X-4576Y144563D01*
X-4591Y144584D01*
X-5801Y145794D01*
X-5856Y145832D01*
X-5903Y145877D01*
X-5947Y145895D01*
X-5986Y145922D01*
X-6049Y145939D01*
X-6110Y145964D01*
X-6157Y145966D01*
X-6203Y145978D01*
X-6268Y145971D01*
X-6334Y145974D01*
X-6379Y145960D01*
X-6426Y145955D01*
X-6485Y145926D01*
X-6548Y145906D01*
X-6592Y145873D01*
X-6627Y145856D01*
X-6654Y145827D01*
X-6698Y145794D01*
X-7908Y144584D01*
X-7933Y144549D01*
X-7964Y144521D01*
X-7996Y144458D01*
X-8037Y144400D01*
X-8047Y144359D01*
X-8067Y144321D01*
X-8080Y144231D01*
X-8093Y144183D01*
X-8090Y144162D01*
X-8094Y144136D01*
X-8094Y113552D01*
X-8087Y113510D01*
X-8089Y113468D01*
X-8067Y113401D01*
X-8055Y113331D01*
X-8033Y113295D01*
X-8020Y113254D01*
X-7966Y113182D01*
X-7940Y113138D01*
X-7924Y113125D01*
X-7908Y113104D01*
X39472Y65724D01*
X39545Y65673D01*
X39614Y65617D01*
X39636Y65609D01*
X39656Y65595D01*
X39742Y65573D01*
X39826Y65545D01*
X39850Y65545D01*
X39873Y65540D01*
X39962Y65549D01*
G37*
%LPC*%
G36*
X281033Y-31041D02*
X281033Y-31041D01*
X278959Y-28967D01*
X278959Y-26033D01*
X280408Y-24584D01*
X280433Y-24549D01*
X280464Y-24521D01*
X280486Y-24477D01*
X280514Y-24444D01*
X280521Y-24423D01*
X280537Y-24400D01*
X280547Y-24359D01*
X280567Y-24321D01*
X280576Y-24260D01*
X280585Y-24231D01*
X280585Y-24212D01*
X280593Y-24183D01*
X280590Y-24162D01*
X280594Y-24136D01*
X280594Y-8552D01*
X280587Y-8510D01*
X280589Y-8468D01*
X280567Y-8401D01*
X280555Y-8331D01*
X280533Y-8295D01*
X280520Y-8254D01*
X280466Y-8182D01*
X280440Y-8138D01*
X280424Y-8125D01*
X280408Y-8104D01*
X211031Y61273D01*
X210997Y61298D01*
X210968Y61329D01*
X210905Y61361D01*
X210847Y61402D01*
X210806Y61412D01*
X210768Y61432D01*
X210679Y61445D01*
X210630Y61458D01*
X210609Y61455D01*
X210583Y61459D01*
X208533Y61459D01*
X206459Y63533D01*
X206459Y66467D01*
X208533Y68541D01*
X211467Y68541D01*
X213541Y66467D01*
X213541Y64417D01*
X213548Y64375D01*
X213546Y64333D01*
X213568Y64266D01*
X213580Y64196D01*
X213602Y64160D01*
X213615Y64119D01*
X213669Y64047D01*
X213695Y64003D01*
X213711Y63990D01*
X213727Y63969D01*
X237877Y39819D01*
X237950Y39768D01*
X238019Y39712D01*
X238041Y39704D01*
X238061Y39690D01*
X238147Y39668D01*
X238231Y39640D01*
X238255Y39640D01*
X238278Y39635D01*
X238367Y39644D01*
X238456Y39646D01*
X238478Y39655D01*
X238501Y39658D01*
X238581Y39697D01*
X238663Y39731D01*
X238681Y39747D01*
X238702Y39757D01*
X238763Y39822D01*
X238829Y39882D01*
X238840Y39903D01*
X238856Y39920D01*
X238891Y40002D01*
X238932Y40082D01*
X238935Y40108D01*
X238944Y40127D01*
X238946Y40177D01*
X238959Y40267D01*
X238959Y41467D01*
X241033Y43541D01*
X243967Y43541D01*
X246041Y41467D01*
X246041Y38533D01*
X243967Y36459D01*
X242767Y36459D01*
X242679Y36443D01*
X242591Y36434D01*
X242570Y36424D01*
X242546Y36420D01*
X242470Y36374D01*
X242390Y36335D01*
X242373Y36318D01*
X242353Y36305D01*
X242297Y36236D01*
X242236Y36172D01*
X242227Y36150D01*
X242212Y36131D01*
X242183Y36047D01*
X242148Y35965D01*
X242147Y35941D01*
X242140Y35919D01*
X242142Y35830D01*
X242138Y35741D01*
X242146Y35718D01*
X242146Y35694D01*
X242180Y35612D01*
X242207Y35527D01*
X242223Y35506D01*
X242231Y35487D01*
X242265Y35449D01*
X242319Y35377D01*
X284406Y-6711D01*
X284406Y-24136D01*
X284413Y-24177D01*
X284411Y-24220D01*
X284421Y-24249D01*
X284421Y-24268D01*
X284436Y-24305D01*
X284445Y-24356D01*
X284467Y-24393D01*
X284480Y-24433D01*
X284498Y-24458D01*
X284505Y-24476D01*
X284535Y-24508D01*
X284560Y-24550D01*
X284576Y-24563D01*
X284592Y-24584D01*
X286041Y-26033D01*
X286041Y-28967D01*
X283967Y-31041D01*
X281033Y-31041D01*
G37*
%LPD*%
%LPC*%
G36*
X-92726Y-34471D02*
X-92726Y-34471D01*
X-93471Y-33726D01*
X-93471Y-22540D01*
X-93482Y-22475D01*
X-93484Y-22409D01*
X-93502Y-22366D01*
X-93510Y-22319D01*
X-93544Y-22262D01*
X-93569Y-22202D01*
X-93600Y-22167D01*
X-93625Y-22126D01*
X-93676Y-22084D01*
X-93720Y-22036D01*
X-93762Y-22014D01*
X-93799Y-21985D01*
X-93861Y-21964D01*
X-93920Y-21933D01*
X-93974Y-21925D01*
X-94011Y-21913D01*
X-94051Y-21914D01*
X-94105Y-21906D01*
X-95356Y-21906D01*
X-95398Y-21913D01*
X-95440Y-21911D01*
X-95507Y-21933D01*
X-95577Y-21945D01*
X-95613Y-21967D01*
X-95654Y-21980D01*
X-95726Y-22034D01*
X-95770Y-22060D01*
X-95783Y-22076D01*
X-95804Y-22092D01*
X-98159Y-24446D01*
X-101842Y-24446D01*
X-104446Y-21842D01*
X-104446Y-18158D01*
X-101842Y-15554D01*
X-98159Y-15554D01*
X-95804Y-17908D01*
X-95769Y-17933D01*
X-95741Y-17964D01*
X-95678Y-17996D01*
X-95620Y-18037D01*
X-95579Y-18047D01*
X-95541Y-18067D01*
X-95452Y-18080D01*
X-95403Y-18093D01*
X-95382Y-18090D01*
X-95356Y-18094D01*
X-83661Y-18094D01*
X-80211Y-21543D01*
X-80177Y-21568D01*
X-80148Y-21599D01*
X-80085Y-21631D01*
X-80027Y-21672D01*
X-79986Y-21682D01*
X-79948Y-21702D01*
X-79859Y-21715D01*
X-79810Y-21728D01*
X-79789Y-21725D01*
X-79763Y-21729D01*
X-59974Y-21729D01*
X-59229Y-22474D01*
X-59229Y-33726D01*
X-59974Y-34471D01*
X-92726Y-34471D01*
G37*
%LPD*%
%LPC*%
G36*
X-377586Y241999D02*
X-377586Y241999D01*
X-382364Y243979D01*
X-386021Y247636D01*
X-388001Y252414D01*
X-388001Y257586D01*
X-386021Y262364D01*
X-382364Y266021D01*
X-377586Y268001D01*
X-372414Y268001D01*
X-367636Y266021D01*
X-363979Y262364D01*
X-361999Y257586D01*
X-361999Y252414D01*
X-363979Y247636D01*
X-367636Y243979D01*
X-372414Y241999D01*
X-377586Y241999D01*
G37*
%LPD*%
%LPC*%
G36*
X54414Y-203001D02*
X54414Y-203001D01*
X49636Y-201021D01*
X45979Y-197364D01*
X43999Y-192586D01*
X43999Y-187414D01*
X45979Y-182636D01*
X49636Y-178979D01*
X54414Y-176999D01*
X59586Y-176999D01*
X64364Y-178979D01*
X68021Y-182636D01*
X70001Y-187414D01*
X70001Y-192586D01*
X68021Y-197364D01*
X64364Y-201021D01*
X59586Y-203001D01*
X54414Y-203001D01*
G37*
%LPD*%
%LPC*%
G36*
X372414Y-68001D02*
X372414Y-68001D01*
X367636Y-66021D01*
X363979Y-62364D01*
X361999Y-57586D01*
X361999Y-52414D01*
X363979Y-47636D01*
X367636Y-43979D01*
X372414Y-41999D01*
X377586Y-41999D01*
X382364Y-43979D01*
X386021Y-47636D01*
X388001Y-52414D01*
X388001Y-57586D01*
X386021Y-62364D01*
X382364Y-66021D01*
X377586Y-68001D01*
X372414Y-68001D01*
G37*
%LPD*%
%LPC*%
G36*
X-377586Y-68001D02*
X-377586Y-68001D01*
X-382364Y-66021D01*
X-386021Y-62364D01*
X-388001Y-57586D01*
X-388001Y-52414D01*
X-386021Y-47636D01*
X-382364Y-43979D01*
X-377586Y-41999D01*
X-372414Y-41999D01*
X-367636Y-43979D01*
X-363979Y-47636D01*
X-361999Y-52414D01*
X-361999Y-57586D01*
X-363979Y-62364D01*
X-367636Y-66021D01*
X-372414Y-68001D01*
X-377586Y-68001D01*
G37*
%LPD*%
%LPC*%
G36*
X372414Y241999D02*
X372414Y241999D01*
X367636Y243979D01*
X363979Y247636D01*
X361999Y252414D01*
X361999Y257586D01*
X363979Y262364D01*
X367636Y266021D01*
X372414Y268001D01*
X377586Y268001D01*
X382364Y266021D01*
X386021Y262364D01*
X388001Y257586D01*
X388001Y252414D01*
X386021Y247636D01*
X382364Y243979D01*
X377586Y241999D01*
X372414Y241999D01*
G37*
%LPD*%
%LPC*%
G36*
X-59586Y-203001D02*
X-59586Y-203001D01*
X-64364Y-201021D01*
X-68021Y-197364D01*
X-70001Y-192586D01*
X-70001Y-187414D01*
X-68021Y-182636D01*
X-64364Y-178979D01*
X-59586Y-176999D01*
X-54414Y-176999D01*
X-49636Y-178979D01*
X-45979Y-182636D01*
X-43999Y-187414D01*
X-43999Y-192586D01*
X-45979Y-197364D01*
X-49636Y-201021D01*
X-54414Y-203001D01*
X-59586Y-203001D01*
G37*
%LPD*%
%LPC*%
G36*
X-123967Y76459D02*
X-123967Y76459D01*
X-126041Y78533D01*
X-126041Y81467D01*
X-123967Y83541D01*
X-121917Y83541D01*
X-121875Y83548D01*
X-121833Y83546D01*
X-121766Y83568D01*
X-121696Y83580D01*
X-121660Y83602D01*
X-121619Y83615D01*
X-121547Y83669D01*
X-121503Y83695D01*
X-121490Y83711D01*
X-121469Y83727D01*
X-68727Y136469D01*
X-68702Y136503D01*
X-68671Y136532D01*
X-68639Y136595D01*
X-68598Y136653D01*
X-68588Y136694D01*
X-68568Y136732D01*
X-68555Y136821D01*
X-68542Y136870D01*
X-68545Y136891D01*
X-68541Y136917D01*
X-68541Y138967D01*
X-66467Y141041D01*
X-63533Y141041D01*
X-61459Y138967D01*
X-61459Y136033D01*
X-63533Y133959D01*
X-65583Y133959D01*
X-65625Y133952D01*
X-65667Y133954D01*
X-65734Y133932D01*
X-65804Y133920D01*
X-65840Y133898D01*
X-65881Y133885D01*
X-65953Y133831D01*
X-65997Y133805D01*
X-66010Y133789D01*
X-66031Y133773D01*
X-118773Y81031D01*
X-118798Y80997D01*
X-118829Y80968D01*
X-118861Y80905D01*
X-118902Y80847D01*
X-118912Y80806D01*
X-118932Y80768D01*
X-118945Y80679D01*
X-118958Y80630D01*
X-118955Y80609D01*
X-118959Y80583D01*
X-118959Y78533D01*
X-121033Y76459D01*
X-123967Y76459D01*
G37*
%LPD*%
%LPC*%
G36*
X-387276Y201979D02*
X-387276Y201979D01*
X-388021Y202724D01*
X-388021Y217276D01*
X-387276Y218021D01*
X-372724Y218021D01*
X-371979Y217276D01*
X-371979Y202724D01*
X-372724Y201979D01*
X-387276Y201979D01*
G37*
%LPD*%
%LPC*%
G36*
X372724Y-18021D02*
X372724Y-18021D01*
X371979Y-17276D01*
X371979Y-2724D01*
X372724Y-1979D01*
X387276Y-1979D01*
X388021Y-2724D01*
X388021Y-17276D01*
X387276Y-18021D01*
X372724Y-18021D01*
G37*
%LPD*%
%LPC*%
G36*
X-156745Y-103771D02*
X-156745Y-103771D01*
X-159968Y-102435D01*
X-162435Y-99968D01*
X-163771Y-96745D01*
X-163771Y-93255D01*
X-162435Y-90032D01*
X-159968Y-87565D01*
X-156745Y-86229D01*
X-153255Y-86229D01*
X-150032Y-87565D01*
X-147565Y-90032D01*
X-146229Y-93255D01*
X-146229Y-96745D01*
X-147565Y-99968D01*
X-150032Y-102435D01*
X-153255Y-103771D01*
X-156745Y-103771D01*
G37*
%LPD*%
%LPC*%
G36*
X-111745Y-103771D02*
X-111745Y-103771D01*
X-114968Y-102435D01*
X-117435Y-99968D01*
X-118771Y-96745D01*
X-118771Y-93255D01*
X-117435Y-90032D01*
X-114968Y-87565D01*
X-111745Y-86229D01*
X-108255Y-86229D01*
X-105032Y-87565D01*
X-102565Y-90032D01*
X-101229Y-93255D01*
X-101229Y-96745D01*
X-102565Y-99968D01*
X-105032Y-102435D01*
X-108255Y-103771D01*
X-111745Y-103771D01*
G37*
%LPD*%
%LPC*%
G36*
X-246745Y-103771D02*
X-246745Y-103771D01*
X-249968Y-102435D01*
X-252435Y-99968D01*
X-253771Y-96745D01*
X-253771Y-93255D01*
X-252435Y-90032D01*
X-249968Y-87565D01*
X-246745Y-86229D01*
X-243255Y-86229D01*
X-240032Y-87565D01*
X-237565Y-90032D01*
X-236229Y-93255D01*
X-236229Y-96745D01*
X-237565Y-99968D01*
X-240032Y-102435D01*
X-243255Y-103771D01*
X-246745Y-103771D01*
G37*
%LPD*%
%LPC*%
G36*
X378405Y41979D02*
X378405Y41979D01*
X375457Y43200D01*
X373200Y45457D01*
X371979Y48405D01*
X371979Y51595D01*
X373200Y54543D01*
X375457Y56800D01*
X378405Y58021D01*
X381595Y58021D01*
X384543Y56800D01*
X386800Y54543D01*
X388021Y51595D01*
X388021Y48405D01*
X386800Y45457D01*
X384543Y43200D01*
X381595Y41979D01*
X378405Y41979D01*
G37*
%LPD*%
%LPC*%
G36*
X-381595Y81979D02*
X-381595Y81979D01*
X-384543Y83200D01*
X-386800Y85457D01*
X-388021Y88405D01*
X-388021Y91595D01*
X-386800Y94543D01*
X-384543Y96800D01*
X-381595Y98021D01*
X-378405Y98021D01*
X-375457Y96800D01*
X-373200Y94543D01*
X-371979Y91595D01*
X-371979Y88405D01*
X-373200Y85457D01*
X-375457Y83200D01*
X-378405Y81979D01*
X-381595Y81979D01*
G37*
%LPD*%
%LPC*%
G36*
X378405Y141979D02*
X378405Y141979D01*
X375457Y143200D01*
X373200Y145457D01*
X371979Y148405D01*
X371979Y151595D01*
X373200Y154543D01*
X375457Y156800D01*
X378405Y158021D01*
X381595Y158021D01*
X384543Y156800D01*
X386800Y154543D01*
X388021Y151595D01*
X388021Y148405D01*
X386800Y145457D01*
X384543Y143200D01*
X381595Y141979D01*
X378405Y141979D01*
G37*
%LPD*%
%LPC*%
G36*
X-381595Y141979D02*
X-381595Y141979D01*
X-384543Y143200D01*
X-386800Y145457D01*
X-388021Y148405D01*
X-388021Y151595D01*
X-386800Y154543D01*
X-384543Y156800D01*
X-381595Y158021D01*
X-378405Y158021D01*
X-375457Y156800D01*
X-373200Y154543D01*
X-371979Y151595D01*
X-371979Y148405D01*
X-373200Y145457D01*
X-375457Y143200D01*
X-378405Y141979D01*
X-381595Y141979D01*
G37*
%LPD*%
%LPC*%
G36*
X-381595Y-18021D02*
X-381595Y-18021D01*
X-384543Y-16800D01*
X-386800Y-14543D01*
X-388021Y-11595D01*
X-388021Y-8405D01*
X-386800Y-5457D01*
X-384543Y-3200D01*
X-381595Y-1979D01*
X-378405Y-1979D01*
X-375457Y-3200D01*
X-373200Y-5457D01*
X-371979Y-8405D01*
X-371979Y-11595D01*
X-373200Y-14543D01*
X-375457Y-16800D01*
X-378405Y-18021D01*
X-381595Y-18021D01*
G37*
%LPD*%
%LPC*%
G36*
X378405Y161979D02*
X378405Y161979D01*
X375457Y163200D01*
X373200Y165457D01*
X371979Y168405D01*
X371979Y171595D01*
X373200Y174543D01*
X375457Y176800D01*
X378405Y178021D01*
X381595Y178021D01*
X384543Y176800D01*
X386800Y174543D01*
X388021Y171595D01*
X388021Y168405D01*
X386800Y165457D01*
X384543Y163200D01*
X381595Y161979D01*
X378405Y161979D01*
G37*
%LPD*%
%LPC*%
G36*
X378405Y201979D02*
X378405Y201979D01*
X375457Y203200D01*
X373200Y205457D01*
X371979Y208405D01*
X371979Y211595D01*
X373200Y214543D01*
X375457Y216800D01*
X378405Y218021D01*
X381595Y218021D01*
X384543Y216800D01*
X386800Y214543D01*
X388021Y211595D01*
X388021Y208405D01*
X386800Y205457D01*
X384543Y203200D01*
X381595Y201979D01*
X378405Y201979D01*
G37*
%LPD*%
%LPC*%
G36*
X-381595Y1979D02*
X-381595Y1979D01*
X-384543Y3200D01*
X-386800Y5457D01*
X-388021Y8405D01*
X-388021Y11595D01*
X-386800Y14543D01*
X-384543Y16800D01*
X-381595Y18021D01*
X-378405Y18021D01*
X-375457Y16800D01*
X-373200Y14543D01*
X-371979Y11595D01*
X-371979Y8405D01*
X-373200Y5457D01*
X-375457Y3200D01*
X-378405Y1979D01*
X-381595Y1979D01*
G37*
%LPD*%
%LPC*%
G36*
X-381595Y41979D02*
X-381595Y41979D01*
X-384543Y43200D01*
X-386800Y45457D01*
X-388021Y48405D01*
X-388021Y51595D01*
X-386800Y54543D01*
X-384543Y56800D01*
X-381595Y58021D01*
X-378405Y58021D01*
X-375457Y56800D01*
X-373200Y54543D01*
X-371979Y51595D01*
X-371979Y48405D01*
X-373200Y45457D01*
X-375457Y43200D01*
X-378405Y41979D01*
X-381595Y41979D01*
G37*
%LPD*%
%LPC*%
G36*
X-381595Y21979D02*
X-381595Y21979D01*
X-384543Y23200D01*
X-386800Y25457D01*
X-388021Y28405D01*
X-388021Y31595D01*
X-386800Y34543D01*
X-384543Y36800D01*
X-381595Y38021D01*
X-378405Y38021D01*
X-375457Y36800D01*
X-373200Y34543D01*
X-371979Y31595D01*
X-371979Y28405D01*
X-373200Y25457D01*
X-375457Y23200D01*
X-378405Y21979D01*
X-381595Y21979D01*
G37*
%LPD*%
%LPC*%
G36*
X378405Y101979D02*
X378405Y101979D01*
X375457Y103200D01*
X373200Y105457D01*
X371979Y108405D01*
X371979Y111595D01*
X373200Y114543D01*
X375457Y116800D01*
X378405Y118021D01*
X381595Y118021D01*
X384543Y116800D01*
X386800Y114543D01*
X388021Y111595D01*
X388021Y108405D01*
X386800Y105457D01*
X384543Y103200D01*
X381595Y101979D01*
X378405Y101979D01*
G37*
%LPD*%
%LPC*%
G36*
X-381595Y121979D02*
X-381595Y121979D01*
X-384543Y123200D01*
X-386800Y125457D01*
X-388021Y128405D01*
X-388021Y131595D01*
X-386800Y134543D01*
X-384543Y136800D01*
X-381595Y138021D01*
X-378405Y138021D01*
X-375457Y136800D01*
X-373200Y134543D01*
X-371979Y131595D01*
X-371979Y128405D01*
X-373200Y125457D01*
X-375457Y123200D01*
X-378405Y121979D01*
X-381595Y121979D01*
G37*
%LPD*%
%LPC*%
G36*
X378405Y121979D02*
X378405Y121979D01*
X375457Y123200D01*
X373200Y125457D01*
X371979Y128405D01*
X371979Y131595D01*
X373200Y134543D01*
X375457Y136800D01*
X378405Y138021D01*
X381595Y138021D01*
X384543Y136800D01*
X386800Y134543D01*
X388021Y131595D01*
X388021Y128405D01*
X386800Y125457D01*
X384543Y123200D01*
X381595Y121979D01*
X378405Y121979D01*
G37*
%LPD*%
%LPC*%
G36*
X378405Y1979D02*
X378405Y1979D01*
X375457Y3200D01*
X373200Y5457D01*
X371979Y8405D01*
X371979Y11595D01*
X373200Y14543D01*
X375457Y16800D01*
X378405Y18021D01*
X381595Y18021D01*
X384543Y16800D01*
X386800Y14543D01*
X388021Y11595D01*
X388021Y8405D01*
X386800Y5457D01*
X384543Y3200D01*
X381595Y1979D01*
X378405Y1979D01*
G37*
%LPD*%
%LPC*%
G36*
X-381595Y61979D02*
X-381595Y61979D01*
X-384543Y63200D01*
X-386800Y65457D01*
X-388021Y68405D01*
X-388021Y71595D01*
X-386800Y74543D01*
X-384543Y76800D01*
X-381595Y78021D01*
X-378405Y78021D01*
X-375457Y76800D01*
X-373200Y74543D01*
X-371979Y71595D01*
X-371979Y68405D01*
X-373200Y65457D01*
X-375457Y63200D01*
X-378405Y61979D01*
X-381595Y61979D01*
G37*
%LPD*%
%LPC*%
G36*
X378405Y181979D02*
X378405Y181979D01*
X375457Y183200D01*
X373200Y185457D01*
X371979Y188405D01*
X371979Y191595D01*
X373200Y194543D01*
X375457Y196800D01*
X378405Y198021D01*
X381595Y198021D01*
X384543Y196800D01*
X386800Y194543D01*
X388021Y191595D01*
X388021Y188405D01*
X386800Y185457D01*
X384543Y183200D01*
X381595Y181979D01*
X378405Y181979D01*
G37*
%LPD*%
%LPC*%
G36*
X-381595Y181979D02*
X-381595Y181979D01*
X-384543Y183200D01*
X-386800Y185457D01*
X-388021Y188405D01*
X-388021Y191595D01*
X-386800Y194543D01*
X-384543Y196800D01*
X-381595Y198021D01*
X-378405Y198021D01*
X-375457Y196800D01*
X-373200Y194543D01*
X-371979Y191595D01*
X-371979Y188405D01*
X-373200Y185457D01*
X-375457Y183200D01*
X-378405Y181979D01*
X-381595Y181979D01*
G37*
%LPD*%
%LPC*%
G36*
X6033Y-41041D02*
X6033Y-41041D01*
X3959Y-38967D01*
X3959Y-36917D01*
X3952Y-36875D01*
X3954Y-36833D01*
X3932Y-36766D01*
X3920Y-36696D01*
X3898Y-36660D01*
X3885Y-36619D01*
X3831Y-36547D01*
X3805Y-36503D01*
X3789Y-36490D01*
X3773Y-36469D01*
X-16469Y-16227D01*
X-16503Y-16202D01*
X-16532Y-16171D01*
X-16595Y-16139D01*
X-16653Y-16098D01*
X-16694Y-16088D01*
X-16732Y-16068D01*
X-16821Y-16055D01*
X-16870Y-16042D01*
X-16891Y-16045D01*
X-16917Y-16041D01*
X-18967Y-16041D01*
X-21041Y-13967D01*
X-21041Y-11033D01*
X-18967Y-8959D01*
X-16033Y-8959D01*
X-13959Y-11033D01*
X-13959Y-13083D01*
X-13952Y-13125D01*
X-13954Y-13167D01*
X-13932Y-13234D01*
X-13920Y-13304D01*
X-13898Y-13340D01*
X-13885Y-13381D01*
X-13831Y-13453D01*
X-13805Y-13497D01*
X-13789Y-13510D01*
X-13773Y-13531D01*
X6469Y-33773D01*
X6503Y-33798D01*
X6532Y-33829D01*
X6595Y-33861D01*
X6653Y-33902D01*
X6694Y-33912D01*
X6732Y-33932D01*
X6821Y-33945D01*
X6870Y-33958D01*
X6891Y-33955D01*
X6917Y-33959D01*
X8967Y-33959D01*
X11041Y-36033D01*
X11041Y-38967D01*
X8967Y-41041D01*
X6033Y-41041D01*
G37*
%LPD*%
%LPC*%
G36*
X-94741Y23969D02*
X-94741Y23969D01*
X-94741Y28135D01*
X-94568Y28781D01*
X-94233Y29360D01*
X-93760Y29833D01*
X-93181Y30168D01*
X-92535Y30341D01*
X-81879Y30341D01*
X-81792Y30357D01*
X-81703Y30366D01*
X-81682Y30376D01*
X-81658Y30380D01*
X-81582Y30426D01*
X-81502Y30465D01*
X-81486Y30482D01*
X-81465Y30495D01*
X-81409Y30564D01*
X-81348Y30628D01*
X-81339Y30650D01*
X-81324Y30669D01*
X-81295Y30753D01*
X-81261Y30835D01*
X-81260Y30859D01*
X-81252Y30881D01*
X-81255Y30970D01*
X-81251Y31059D01*
X-81258Y31082D01*
X-81259Y31106D01*
X-81292Y31188D01*
X-81319Y31273D01*
X-81335Y31294D01*
X-81343Y31313D01*
X-81377Y31351D01*
X-81431Y31423D01*
X-83541Y33533D01*
X-83541Y36467D01*
X-81467Y38541D01*
X-78533Y38541D01*
X-76459Y36467D01*
X-76459Y33533D01*
X-78569Y31423D01*
X-78620Y31350D01*
X-78676Y31281D01*
X-78684Y31259D01*
X-78697Y31239D01*
X-78719Y31153D01*
X-78748Y31069D01*
X-78747Y31045D01*
X-78753Y31022D01*
X-78744Y30933D01*
X-78741Y30844D01*
X-78732Y30822D01*
X-78730Y30799D01*
X-78690Y30719D01*
X-78657Y30637D01*
X-78641Y30619D01*
X-78631Y30598D01*
X-78566Y30537D01*
X-78506Y30471D01*
X-78485Y30460D01*
X-78467Y30444D01*
X-78385Y30409D01*
X-78306Y30368D01*
X-78280Y30365D01*
X-78261Y30356D01*
X-78210Y30354D01*
X-78121Y30341D01*
X-77619Y30341D01*
X-77619Y23969D01*
X-94741Y23969D01*
G37*
%LPD*%
%LPC*%
G36*
X341033Y-18541D02*
X341033Y-18541D01*
X338959Y-16467D01*
X338959Y-14417D01*
X338952Y-14375D01*
X338954Y-14333D01*
X338932Y-14266D01*
X338920Y-14196D01*
X338898Y-14160D01*
X338885Y-14119D01*
X338831Y-14047D01*
X338805Y-14003D01*
X338789Y-13990D01*
X338773Y-13969D01*
X328531Y-3727D01*
X328497Y-3702D01*
X328468Y-3671D01*
X328405Y-3639D01*
X328347Y-3598D01*
X328306Y-3588D01*
X328268Y-3568D01*
X328179Y-3555D01*
X328130Y-3542D01*
X328109Y-3545D01*
X328083Y-3541D01*
X326033Y-3541D01*
X323959Y-1467D01*
X323959Y1467D01*
X326033Y3541D01*
X328967Y3541D01*
X331041Y1467D01*
X331041Y-583D01*
X331048Y-625D01*
X331046Y-667D01*
X331068Y-734D01*
X331080Y-804D01*
X331102Y-840D01*
X331115Y-881D01*
X331169Y-953D01*
X331195Y-997D01*
X331211Y-1010D01*
X331227Y-1031D01*
X341469Y-11273D01*
X341502Y-11297D01*
X341525Y-11322D01*
X341526Y-11323D01*
X341532Y-11329D01*
X341595Y-11361D01*
X341653Y-11402D01*
X341694Y-11412D01*
X341732Y-11432D01*
X341821Y-11445D01*
X341870Y-11458D01*
X341891Y-11455D01*
X341917Y-11459D01*
X343967Y-11459D01*
X346041Y-13533D01*
X346041Y-16467D01*
X343967Y-18541D01*
X341033Y-18541D01*
G37*
%LPD*%
%LPC*%
G36*
X-268967Y-176041D02*
X-268967Y-176041D01*
X-271041Y-173967D01*
X-271041Y-171917D01*
X-271048Y-171875D01*
X-271046Y-171833D01*
X-271054Y-171810D01*
X-271054Y-171787D01*
X-271072Y-171744D01*
X-271080Y-171696D01*
X-271102Y-171660D01*
X-271115Y-171619D01*
X-271131Y-171597D01*
X-271139Y-171579D01*
X-271169Y-171546D01*
X-271195Y-171503D01*
X-271211Y-171490D01*
X-271227Y-171469D01*
X-278969Y-163727D01*
X-279003Y-163702D01*
X-279032Y-163671D01*
X-279095Y-163639D01*
X-279153Y-163598D01*
X-279194Y-163588D01*
X-279232Y-163568D01*
X-279321Y-163555D01*
X-279370Y-163542D01*
X-279391Y-163545D01*
X-279417Y-163541D01*
X-281467Y-163541D01*
X-283541Y-161467D01*
X-283541Y-158533D01*
X-281467Y-156459D01*
X-278533Y-156459D01*
X-276459Y-158533D01*
X-276459Y-160583D01*
X-276452Y-160625D01*
X-276454Y-160667D01*
X-276432Y-160734D01*
X-276420Y-160804D01*
X-276398Y-160840D01*
X-276385Y-160881D01*
X-276331Y-160953D01*
X-276305Y-160997D01*
X-276289Y-161010D01*
X-276273Y-161031D01*
X-268531Y-168773D01*
X-268497Y-168798D01*
X-268468Y-168829D01*
X-268405Y-168861D01*
X-268347Y-168902D01*
X-268306Y-168912D01*
X-268268Y-168932D01*
X-268179Y-168945D01*
X-268130Y-168958D01*
X-268109Y-168955D01*
X-268083Y-168959D01*
X-266033Y-168959D01*
X-263959Y-171033D01*
X-263959Y-173967D01*
X-266033Y-176041D01*
X-268967Y-176041D01*
G37*
%LPD*%
%LPC*%
G36*
X271033Y98959D02*
X271033Y98959D01*
X268959Y101033D01*
X268959Y103967D01*
X271033Y106041D01*
X273083Y106041D01*
X273125Y106048D01*
X273167Y106046D01*
X273234Y106068D01*
X273304Y106080D01*
X273340Y106102D01*
X273381Y106115D01*
X273453Y106169D01*
X273497Y106195D01*
X273510Y106211D01*
X273531Y106227D01*
X278773Y111469D01*
X278798Y111503D01*
X278829Y111532D01*
X278861Y111595D01*
X278902Y111653D01*
X278912Y111694D01*
X278932Y111732D01*
X278945Y111821D01*
X278958Y111870D01*
X278955Y111891D01*
X278959Y111917D01*
X278959Y113967D01*
X281033Y116041D01*
X283967Y116041D01*
X286041Y113967D01*
X286041Y111033D01*
X283967Y108959D01*
X281917Y108959D01*
X281875Y108952D01*
X281833Y108954D01*
X281766Y108932D01*
X281696Y108920D01*
X281660Y108898D01*
X281619Y108885D01*
X281547Y108831D01*
X281503Y108805D01*
X281490Y108789D01*
X281469Y108773D01*
X276227Y103531D01*
X276202Y103497D01*
X276171Y103468D01*
X276139Y103405D01*
X276098Y103347D01*
X276088Y103306D01*
X276068Y103268D01*
X276055Y103179D01*
X276042Y103130D01*
X276045Y103109D01*
X276041Y103083D01*
X276041Y101033D01*
X273967Y98959D01*
X271033Y98959D01*
G37*
%LPD*%
%LPC*%
G36*
X-346467Y-98541D02*
X-346467Y-98541D01*
X-348541Y-96467D01*
X-348541Y-93533D01*
X-346467Y-91459D01*
X-344417Y-91459D01*
X-344375Y-91452D01*
X-344333Y-91454D01*
X-344266Y-91432D01*
X-344196Y-91420D01*
X-344160Y-91398D01*
X-344119Y-91385D01*
X-344047Y-91331D01*
X-344003Y-91305D01*
X-343990Y-91289D01*
X-343969Y-91273D01*
X-338727Y-86031D01*
X-338702Y-85997D01*
X-338671Y-85968D01*
X-338639Y-85905D01*
X-338598Y-85847D01*
X-338588Y-85806D01*
X-338568Y-85768D01*
X-338555Y-85679D01*
X-338542Y-85630D01*
X-338545Y-85609D01*
X-338541Y-85583D01*
X-338541Y-83533D01*
X-336467Y-81459D01*
X-333533Y-81459D01*
X-331459Y-83533D01*
X-331459Y-86467D01*
X-333533Y-88541D01*
X-335583Y-88541D01*
X-335625Y-88548D01*
X-335667Y-88546D01*
X-335734Y-88568D01*
X-335804Y-88580D01*
X-335840Y-88602D01*
X-335881Y-88615D01*
X-335953Y-88669D01*
X-335997Y-88695D01*
X-336010Y-88711D01*
X-336031Y-88727D01*
X-341273Y-93969D01*
X-341298Y-94003D01*
X-341329Y-94032D01*
X-341361Y-94095D01*
X-341402Y-94153D01*
X-341412Y-94194D01*
X-341432Y-94232D01*
X-341445Y-94321D01*
X-341458Y-94370D01*
X-341455Y-94391D01*
X-341459Y-94417D01*
X-341459Y-96467D01*
X-343533Y-98541D01*
X-346467Y-98541D01*
G37*
%LPD*%
%LPC*%
G36*
X-31467Y238959D02*
X-31467Y238959D01*
X-33541Y241033D01*
X-33541Y243083D01*
X-33548Y243125D01*
X-33546Y243167D01*
X-33568Y243234D01*
X-33580Y243304D01*
X-33602Y243340D01*
X-33615Y243381D01*
X-33669Y243453D01*
X-33695Y243497D01*
X-33711Y243510D01*
X-33727Y243531D01*
X-38969Y248773D01*
X-39003Y248798D01*
X-39032Y248829D01*
X-39095Y248861D01*
X-39153Y248902D01*
X-39194Y248912D01*
X-39232Y248932D01*
X-39321Y248945D01*
X-39370Y248958D01*
X-39391Y248955D01*
X-39417Y248959D01*
X-41467Y248959D01*
X-43541Y251033D01*
X-43541Y253967D01*
X-41467Y256041D01*
X-38533Y256041D01*
X-36459Y253967D01*
X-36459Y251917D01*
X-36452Y251875D01*
X-36454Y251833D01*
X-36432Y251766D01*
X-36420Y251696D01*
X-36398Y251660D01*
X-36385Y251619D01*
X-36331Y251547D01*
X-36305Y251503D01*
X-36289Y251490D01*
X-36273Y251469D01*
X-31031Y246227D01*
X-30999Y246204D01*
X-30980Y246183D01*
X-30978Y246182D01*
X-30968Y246171D01*
X-30905Y246139D01*
X-30847Y246098D01*
X-30806Y246088D01*
X-30768Y246068D01*
X-30679Y246055D01*
X-30630Y246042D01*
X-30609Y246045D01*
X-30583Y246041D01*
X-28533Y246041D01*
X-26459Y243967D01*
X-26459Y241033D01*
X-28533Y238959D01*
X-31467Y238959D01*
G37*
%LPD*%
%LPC*%
G36*
X77619Y-10341D02*
X77619Y-10341D01*
X77619Y-3969D01*
X94741Y-3969D01*
X94741Y-8135D01*
X94568Y-8781D01*
X94233Y-9360D01*
X93760Y-9833D01*
X93181Y-10168D01*
X92535Y-10341D01*
X77619Y-10341D01*
G37*
%LPD*%
%LPC*%
G36*
X57959Y74769D02*
X57959Y74769D01*
X57959Y78935D01*
X58132Y79581D01*
X58467Y80160D01*
X58940Y80633D01*
X59519Y80968D01*
X60165Y81141D01*
X75081Y81141D01*
X75081Y74769D01*
X57959Y74769D01*
G37*
%LPD*%
%LPC*%
G36*
X-75081Y-61141D02*
X-75081Y-61141D01*
X-75081Y-54769D01*
X-57959Y-54769D01*
X-57959Y-58935D01*
X-58132Y-59581D01*
X-58467Y-60160D01*
X-58940Y-60633D01*
X-59519Y-60968D01*
X-60165Y-61141D01*
X-75081Y-61141D01*
G37*
%LPD*%
%LPC*%
G36*
X-93181Y-60968D02*
X-93181Y-60968D01*
X-93760Y-60633D01*
X-94233Y-60160D01*
X-94568Y-59581D01*
X-94741Y-58935D01*
X-94741Y-54769D01*
X-77619Y-54769D01*
X-77619Y-61141D01*
X-92535Y-61141D01*
X-93181Y-60968D01*
G37*
%LPD*%
%LPC*%
G36*
X-75081Y23969D02*
X-75081Y23969D01*
X-75081Y30341D01*
X-60165Y30341D01*
X-59519Y30168D01*
X-58940Y29833D01*
X-58467Y29360D01*
X-58132Y28781D01*
X-57959Y28135D01*
X-57959Y23969D01*
X-75081Y23969D01*
G37*
%LPD*%
%LPC*%
G36*
X-94741Y-52231D02*
X-94741Y-52231D01*
X-94741Y-48065D01*
X-94568Y-47419D01*
X-94233Y-46840D01*
X-93760Y-46367D01*
X-93181Y-46032D01*
X-92535Y-45859D01*
X-77619Y-45859D01*
X-77619Y-52231D01*
X-94741Y-52231D01*
G37*
%LPD*%
%LPC*%
G36*
X-92535Y15059D02*
X-92535Y15059D01*
X-93181Y15232D01*
X-93760Y15567D01*
X-94233Y16040D01*
X-94568Y16619D01*
X-94741Y17265D01*
X-94741Y21431D01*
X-77619Y21431D01*
X-77619Y15059D01*
X-92535Y15059D01*
G37*
%LPD*%
%LPC*%
G36*
X77619Y65859D02*
X77619Y65859D01*
X77619Y72231D01*
X94741Y72231D01*
X94741Y68065D01*
X94568Y67419D01*
X94233Y66840D01*
X93760Y66367D01*
X93181Y66032D01*
X92535Y65859D01*
X77619Y65859D01*
G37*
%LPD*%
%LPC*%
G36*
X60165Y65859D02*
X60165Y65859D01*
X59519Y66032D01*
X58940Y66367D01*
X58467Y66840D01*
X58132Y67419D01*
X57959Y68065D01*
X57959Y72231D01*
X75081Y72231D01*
X75081Y65859D01*
X60165Y65859D01*
G37*
%LPD*%
%LPC*%
G36*
X-75081Y-52231D02*
X-75081Y-52231D01*
X-75081Y-45859D01*
X-60165Y-45859D01*
X-59519Y-46032D01*
X-58940Y-46367D01*
X-58467Y-46840D01*
X-58132Y-47419D01*
X-57959Y-48065D01*
X-57959Y-52231D01*
X-75081Y-52231D01*
G37*
%LPD*%
%LPC*%
G36*
X57959Y-1431D02*
X57959Y-1431D01*
X57959Y2735D01*
X58132Y3381D01*
X58467Y3960D01*
X58940Y4433D01*
X59519Y4768D01*
X60165Y4941D01*
X75081Y4941D01*
X75081Y-1431D01*
X57959Y-1431D01*
G37*
%LPD*%
%LPC*%
G36*
X77619Y-1431D02*
X77619Y-1431D01*
X77619Y4941D01*
X92535Y4941D01*
X93181Y4768D01*
X93760Y4433D01*
X94233Y3960D01*
X94568Y3381D01*
X94741Y2735D01*
X94741Y-1431D01*
X77619Y-1431D01*
G37*
%LPD*%
%LPC*%
G36*
X-2878Y-276988D02*
X-2878Y-276988D01*
X-4718Y-276390D01*
X-6442Y-275512D01*
X-8007Y-274375D01*
X-9375Y-273007D01*
X-10512Y-271442D01*
X-11390Y-269718D01*
X-11988Y-267878D01*
X-12243Y-266269D01*
X-1269Y-266269D01*
X-1269Y-277243D01*
X-2878Y-276988D01*
G37*
%LPD*%
%LPC*%
G36*
X1269Y-266269D02*
X1269Y-266269D01*
X12243Y-266269D01*
X11988Y-267878D01*
X11390Y-269718D01*
X10512Y-271442D01*
X9375Y-273007D01*
X8007Y-274375D01*
X6442Y-275512D01*
X4718Y-276390D01*
X2878Y-276988D01*
X1269Y-277243D01*
X1269Y-266269D01*
G37*
%LPD*%
%LPC*%
G36*
X26269Y-121269D02*
X26269Y-121269D01*
X37243Y-121269D01*
X36988Y-122878D01*
X36390Y-124718D01*
X35512Y-126442D01*
X34375Y-128007D01*
X33007Y-129375D01*
X31442Y-130512D01*
X29718Y-131390D01*
X27878Y-131988D01*
X26269Y-132243D01*
X26269Y-121269D01*
G37*
%LPD*%
%LPC*%
G36*
X1269Y-263731D02*
X1269Y-263731D01*
X1269Y-252757D01*
X2878Y-253012D01*
X4718Y-253610D01*
X6442Y-254488D01*
X8007Y-255625D01*
X9375Y-256993D01*
X10512Y-258558D01*
X11390Y-260282D01*
X11988Y-262122D01*
X12243Y-263731D01*
X1269Y-263731D01*
G37*
%LPD*%
%LPC*%
G36*
X22122Y-131988D02*
X22122Y-131988D01*
X20282Y-131390D01*
X18558Y-130512D01*
X16993Y-129375D01*
X15625Y-128007D01*
X14488Y-126442D01*
X13610Y-124718D01*
X13012Y-122878D01*
X12757Y-121269D01*
X23731Y-121269D01*
X23731Y-132243D01*
X22122Y-131988D01*
G37*
%LPD*%
%LPC*%
G36*
X26269Y-118731D02*
X26269Y-118731D01*
X26269Y-107757D01*
X27878Y-108012D01*
X29718Y-108610D01*
X31442Y-109488D01*
X33007Y-110625D01*
X34375Y-111993D01*
X35512Y-113558D01*
X36390Y-115282D01*
X36988Y-117122D01*
X37243Y-118731D01*
X26269Y-118731D01*
G37*
%LPD*%
%LPC*%
G36*
X-12243Y-263731D02*
X-12243Y-263731D01*
X-11988Y-262122D01*
X-11390Y-260282D01*
X-10512Y-258558D01*
X-9375Y-256993D01*
X-8007Y-255625D01*
X-6442Y-254488D01*
X-4718Y-253610D01*
X-2878Y-253012D01*
X-1269Y-252757D01*
X-1269Y-263731D01*
X-12243Y-263731D01*
G37*
%LPD*%
%LPC*%
G36*
X12757Y-118731D02*
X12757Y-118731D01*
X13012Y-117122D01*
X13610Y-115282D01*
X14488Y-113558D01*
X15625Y-111993D01*
X16993Y-110625D01*
X18558Y-109488D01*
X20282Y-108610D01*
X22122Y-108012D01*
X23731Y-107757D01*
X23731Y-118731D01*
X12757Y-118731D01*
G37*
%LPD*%
%LPC*%
G36*
X236033Y46459D02*
X236033Y46459D01*
X233959Y48533D01*
X233959Y51467D01*
X236033Y53541D01*
X238967Y53541D01*
X240802Y51706D01*
X240856Y51668D01*
X240903Y51623D01*
X240947Y51605D01*
X240986Y51578D01*
X241049Y51561D01*
X241110Y51536D01*
X241157Y51534D01*
X241203Y51522D01*
X241268Y51529D01*
X241334Y51526D01*
X241379Y51540D01*
X241426Y51545D01*
X241485Y51574D01*
X241548Y51594D01*
X241592Y51627D01*
X241627Y51644D01*
X241654Y51673D01*
X241699Y51706D01*
X243533Y53541D01*
X246467Y53541D01*
X248541Y51467D01*
X248541Y48533D01*
X246467Y46459D01*
X243533Y46459D01*
X241699Y48294D01*
X241644Y48332D01*
X241597Y48377D01*
X241553Y48395D01*
X241514Y48422D01*
X241451Y48439D01*
X241390Y48464D01*
X241343Y48466D01*
X241297Y48478D01*
X241232Y48471D01*
X241166Y48474D01*
X241121Y48460D01*
X241074Y48455D01*
X241015Y48426D01*
X240952Y48406D01*
X240908Y48373D01*
X240873Y48356D01*
X240846Y48327D01*
X240802Y48294D01*
X238967Y46459D01*
X236033Y46459D01*
G37*
%LPD*%
%LPC*%
G36*
X-8967Y56459D02*
X-8967Y56459D01*
X-11041Y58533D01*
X-11041Y60665D01*
X-11052Y60730D01*
X-11054Y60796D01*
X-11072Y60839D01*
X-11080Y60886D01*
X-11114Y60943D01*
X-11139Y61003D01*
X-11170Y61038D01*
X-11195Y61079D01*
X-11246Y61121D01*
X-11290Y61169D01*
X-11332Y61191D01*
X-11369Y61220D01*
X-11431Y61241D01*
X-11490Y61272D01*
X-11544Y61280D01*
X-11581Y61292D01*
X-11621Y61291D01*
X-11675Y61299D01*
X-13967Y61299D01*
X-16041Y63373D01*
X-16041Y66307D01*
X-13967Y68381D01*
X-11033Y68381D01*
X-8959Y66307D01*
X-8959Y64175D01*
X-8948Y64110D01*
X-8946Y64044D01*
X-8928Y64001D01*
X-8920Y63954D01*
X-8886Y63897D01*
X-8861Y63837D01*
X-8830Y63802D01*
X-8805Y63761D01*
X-8754Y63719D01*
X-8710Y63671D01*
X-8668Y63649D01*
X-8631Y63620D01*
X-8569Y63599D01*
X-8510Y63568D01*
X-8456Y63560D01*
X-8419Y63548D01*
X-8379Y63549D01*
X-8325Y63541D01*
X-6033Y63541D01*
X-3959Y61467D01*
X-3959Y58533D01*
X-6033Y56459D01*
X-8967Y56459D01*
G37*
%LPD*%
%LPC*%
G36*
X-386287Y-169446D02*
X-386287Y-169446D01*
X-388891Y-166842D01*
X-388891Y-163158D01*
X-386287Y-160554D01*
X-382603Y-160554D01*
X-379999Y-163158D01*
X-379999Y-166842D01*
X-382603Y-169446D01*
X-386287Y-169446D01*
G37*
%LPD*%
%LPC*%
G36*
X218158Y138500D02*
X218158Y138500D01*
X215554Y141104D01*
X215554Y144787D01*
X218158Y147391D01*
X221842Y147391D01*
X224446Y144787D01*
X224446Y141104D01*
X221842Y138500D01*
X218158Y138500D01*
G37*
%LPD*%
%LPC*%
G36*
X-349842Y-182001D02*
X-349842Y-182001D01*
X-352446Y-179397D01*
X-352446Y-175713D01*
X-349842Y-173109D01*
X-346158Y-173109D01*
X-343554Y-175713D01*
X-343554Y-179397D01*
X-346158Y-182001D01*
X-349842Y-182001D01*
G37*
%LPD*%
%LPC*%
G36*
X291158Y219359D02*
X291158Y219359D01*
X288554Y221963D01*
X288554Y225647D01*
X291158Y228251D01*
X294842Y228251D01*
X297446Y225647D01*
X297446Y221963D01*
X294842Y219359D01*
X291158Y219359D01*
G37*
%LPD*%
%LPC*%
G36*
X-226842Y48500D02*
X-226842Y48500D01*
X-229446Y51104D01*
X-229446Y54787D01*
X-226842Y57391D01*
X-223158Y57391D01*
X-220554Y54787D01*
X-220554Y51104D01*
X-223158Y48500D01*
X-226842Y48500D01*
G37*
%LPD*%
%LPC*%
G36*
X-314787Y-227196D02*
X-314787Y-227196D01*
X-317391Y-224592D01*
X-317391Y-220908D01*
X-314787Y-218304D01*
X-311103Y-218304D01*
X-308499Y-220908D01*
X-308499Y-224592D01*
X-311103Y-227196D01*
X-314787Y-227196D01*
G37*
%LPD*%
%LPC*%
G36*
X-256682Y100554D02*
X-256682Y100554D01*
X-259286Y103158D01*
X-259286Y106842D01*
X-256682Y109446D01*
X-252999Y109446D01*
X-250395Y106842D01*
X-250395Y103158D01*
X-252999Y100554D01*
X-256682Y100554D01*
G37*
%LPD*%
%LPC*%
G36*
X230168Y155304D02*
X230168Y155304D01*
X227564Y157908D01*
X227564Y161592D01*
X230168Y164196D01*
X233852Y164196D01*
X236456Y161592D01*
X236456Y157908D01*
X233852Y155304D01*
X230168Y155304D01*
G37*
%LPD*%
%LPC*%
G36*
X-221842Y139109D02*
X-221842Y139109D01*
X-224446Y141713D01*
X-224446Y145397D01*
X-221842Y148001D01*
X-218158Y148001D01*
X-215554Y145397D01*
X-215554Y141713D01*
X-218158Y139109D01*
X-221842Y139109D01*
G37*
%LPD*%
%LPC*%
G36*
X-202351Y-104794D02*
X-202351Y-104794D01*
X-203854Y-104305D01*
X-205262Y-103588D01*
X-206541Y-102659D01*
X-207659Y-101541D01*
X-208588Y-100262D01*
X-209305Y-98854D01*
X-209794Y-97351D01*
X-209965Y-96269D01*
X-201269Y-96269D01*
X-201269Y-104965D01*
X-202351Y-104794D01*
G37*
%LPD*%
%LPC*%
G36*
X-198731Y-96269D02*
X-198731Y-96269D01*
X-190035Y-96269D01*
X-190206Y-97351D01*
X-190695Y-98854D01*
X-191412Y-100262D01*
X-192341Y-101541D01*
X-193459Y-102659D01*
X-194738Y-103588D01*
X-196146Y-104305D01*
X-197649Y-104794D01*
X-198731Y-104965D01*
X-198731Y-96269D01*
G37*
%LPD*%
%LPC*%
G36*
X-209965Y-93731D02*
X-209965Y-93731D01*
X-209794Y-92649D01*
X-209305Y-91146D01*
X-208588Y-89738D01*
X-207659Y-88459D01*
X-206541Y-87341D01*
X-205262Y-86412D01*
X-203854Y-85695D01*
X-202351Y-85206D01*
X-201269Y-85035D01*
X-201269Y-93731D01*
X-209965Y-93731D01*
G37*
%LPD*%
%LPC*%
G36*
X-198731Y-93731D02*
X-198731Y-93731D01*
X-198731Y-85035D01*
X-197649Y-85206D01*
X-196146Y-85695D01*
X-194738Y-86412D01*
X-193459Y-87341D01*
X-192341Y-88459D01*
X-191412Y-89738D01*
X-190695Y-91146D01*
X-190206Y-92649D01*
X-190035Y-93731D01*
X-198731Y-93731D01*
G37*
%LPD*%
%LPC*%
G36*
X-389220Y171269D02*
X-389220Y171269D01*
X-388934Y172710D01*
X-388233Y174401D01*
X-387217Y175923D01*
X-385923Y177217D01*
X-384401Y178233D01*
X-382710Y178934D01*
X-381269Y179220D01*
X-381269Y171269D01*
X-389220Y171269D01*
G37*
%LPD*%
%LPC*%
G36*
X381269Y91269D02*
X381269Y91269D01*
X381269Y99220D01*
X382710Y98934D01*
X384401Y98233D01*
X385923Y97217D01*
X387217Y95923D01*
X388233Y94401D01*
X388934Y92710D01*
X389220Y91269D01*
X381269Y91269D01*
G37*
%LPD*%
%LPC*%
G36*
X381269Y31269D02*
X381269Y31269D01*
X381269Y39220D01*
X382710Y38934D01*
X384401Y38233D01*
X385923Y37217D01*
X387217Y35923D01*
X388233Y34401D01*
X388934Y32710D01*
X389220Y31269D01*
X381269Y31269D01*
G37*
%LPD*%
%LPC*%
G36*
X-389220Y111269D02*
X-389220Y111269D01*
X-388934Y112710D01*
X-388233Y114401D01*
X-387217Y115923D01*
X-385923Y117217D01*
X-384401Y118233D01*
X-382710Y118934D01*
X-381269Y119220D01*
X-381269Y111269D01*
X-389220Y111269D01*
G37*
%LPD*%
%LPC*%
G36*
X-382710Y161066D02*
X-382710Y161066D01*
X-384401Y161767D01*
X-385923Y162783D01*
X-387217Y164077D01*
X-388233Y165599D01*
X-388934Y167290D01*
X-389220Y168731D01*
X-381269Y168731D01*
X-381269Y160780D01*
X-382710Y161066D01*
G37*
%LPD*%
%LPC*%
G36*
X-378731Y111269D02*
X-378731Y111269D01*
X-378731Y119220D01*
X-377290Y118934D01*
X-375599Y118233D01*
X-374077Y117217D01*
X-372783Y115923D01*
X-371767Y114401D01*
X-371066Y112710D01*
X-370780Y111269D01*
X-378731Y111269D01*
G37*
%LPD*%
%LPC*%
G36*
X381269Y88731D02*
X381269Y88731D01*
X389220Y88731D01*
X388934Y87290D01*
X388233Y85599D01*
X387217Y84077D01*
X385923Y82783D01*
X384401Y81767D01*
X382710Y81066D01*
X381269Y80780D01*
X381269Y88731D01*
G37*
%LPD*%
%LPC*%
G36*
X370780Y91269D02*
X370780Y91269D01*
X371066Y92710D01*
X371767Y94401D01*
X372783Y95923D01*
X374077Y97217D01*
X375599Y98233D01*
X377290Y98934D01*
X378731Y99220D01*
X378731Y91269D01*
X370780Y91269D01*
G37*
%LPD*%
%LPC*%
G36*
X-378731Y171269D02*
X-378731Y171269D01*
X-378731Y179220D01*
X-377290Y178934D01*
X-375599Y178233D01*
X-374077Y177217D01*
X-372783Y175923D01*
X-371767Y174401D01*
X-371066Y172710D01*
X-370780Y171269D01*
X-378731Y171269D01*
G37*
%LPD*%
%LPC*%
G36*
X381269Y28731D02*
X381269Y28731D01*
X389220Y28731D01*
X388934Y27290D01*
X388233Y25599D01*
X387217Y24077D01*
X385923Y22783D01*
X384401Y21767D01*
X382710Y21066D01*
X381269Y20780D01*
X381269Y28731D01*
G37*
%LPD*%
%LPC*%
G36*
X-382710Y101066D02*
X-382710Y101066D01*
X-384401Y101767D01*
X-385923Y102783D01*
X-387217Y104077D01*
X-388233Y105599D01*
X-388934Y107290D01*
X-389220Y108731D01*
X-381269Y108731D01*
X-381269Y100780D01*
X-382710Y101066D01*
G37*
%LPD*%
%LPC*%
G36*
X370780Y31269D02*
X370780Y31269D01*
X371066Y32710D01*
X371767Y34401D01*
X372783Y35923D01*
X374077Y37217D01*
X375599Y38233D01*
X377290Y38934D01*
X378731Y39220D01*
X378731Y31269D01*
X370780Y31269D01*
G37*
%LPD*%
%LPC*%
G36*
X-378731Y108731D02*
X-378731Y108731D01*
X-370780Y108731D01*
X-371066Y107290D01*
X-371767Y105599D01*
X-372783Y104077D01*
X-374077Y102783D01*
X-375599Y101767D01*
X-377290Y101066D01*
X-378731Y100780D01*
X-378731Y108731D01*
G37*
%LPD*%
%LPC*%
G36*
X377290Y21066D02*
X377290Y21066D01*
X375599Y21767D01*
X374077Y22783D01*
X372783Y24077D01*
X371767Y25599D01*
X371066Y27290D01*
X370780Y28731D01*
X378731Y28731D01*
X378731Y20780D01*
X377290Y21066D01*
G37*
%LPD*%
%LPC*%
G36*
X377290Y81066D02*
X377290Y81066D01*
X375599Y81767D01*
X374077Y82783D01*
X372783Y84077D01*
X371767Y85599D01*
X371066Y87290D01*
X370780Y88731D01*
X378731Y88731D01*
X378731Y80780D01*
X377290Y81066D01*
G37*
%LPD*%
%LPC*%
G36*
X-378731Y168731D02*
X-378731Y168731D01*
X-370780Y168731D01*
X-371066Y167290D01*
X-371767Y165599D01*
X-372783Y164077D01*
X-374077Y162783D01*
X-375599Y161767D01*
X-377290Y161066D01*
X-378731Y160780D01*
X-378731Y168731D01*
G37*
%LPD*%
%LPC*%
G36*
X-56467Y52609D02*
X-56467Y52609D01*
X-58147Y54289D01*
X-58220Y54340D01*
X-58289Y54396D01*
X-58311Y54403D01*
X-58331Y54417D01*
X-58417Y54439D01*
X-58501Y54467D01*
X-58525Y54467D01*
X-58548Y54473D01*
X-58554Y54472D01*
X-58554Y54479D01*
X-58541Y54569D01*
X-58541Y57616D01*
X-56467Y59690D01*
X-53533Y59690D01*
X-51459Y57616D01*
X-51459Y54683D01*
X-53533Y52609D01*
X-56467Y52609D01*
G37*
%LPD*%
%LPC*%
G36*
X13533Y143959D02*
X13533Y143959D01*
X11459Y146033D01*
X11459Y148967D01*
X13533Y151041D01*
X16467Y151041D01*
X18541Y148967D01*
X18541Y146033D01*
X16467Y143959D01*
X13533Y143959D01*
G37*
%LPD*%
%LPC*%
G36*
X296033Y-31041D02*
X296033Y-31041D01*
X293959Y-28967D01*
X293959Y-26033D01*
X296033Y-23959D01*
X298967Y-23959D01*
X301041Y-26033D01*
X301041Y-28967D01*
X298967Y-31041D01*
X296033Y-31041D01*
G37*
%LPD*%
%LPC*%
G36*
X-61627Y153959D02*
X-61627Y153959D01*
X-63701Y156033D01*
X-63701Y158967D01*
X-61627Y161041D01*
X-58693Y161041D01*
X-56619Y158967D01*
X-56619Y156033D01*
X-58693Y153959D01*
X-61627Y153959D01*
G37*
%LPD*%
%LPC*%
G36*
X-61627Y103959D02*
X-61627Y103959D01*
X-63701Y106033D01*
X-63701Y108967D01*
X-61627Y111041D01*
X-58693Y111041D01*
X-56619Y108967D01*
X-56619Y106033D01*
X-58693Y103959D01*
X-61627Y103959D01*
G37*
%LPD*%
%LPC*%
G36*
X-226467Y82609D02*
X-226467Y82609D01*
X-228541Y84683D01*
X-228541Y87616D01*
X-226467Y89690D01*
X-223533Y89690D01*
X-221459Y87616D01*
X-221459Y84683D01*
X-223533Y82609D01*
X-226467Y82609D01*
G37*
%LPD*%
%LPC*%
G36*
X-296467Y82609D02*
X-296467Y82609D01*
X-298541Y84683D01*
X-298541Y87616D01*
X-296467Y89690D01*
X-293533Y89690D01*
X-291459Y87616D01*
X-291459Y84683D01*
X-293533Y82609D01*
X-296467Y82609D01*
G37*
%LPD*%
%LPC*%
G36*
X-271067Y220939D02*
X-271067Y220939D01*
X-273141Y223013D01*
X-273141Y225947D01*
X-271067Y228021D01*
X-268133Y228021D01*
X-266059Y225947D01*
X-266059Y223013D01*
X-268133Y220939D01*
X-271067Y220939D01*
G37*
%LPD*%
%LPC*%
G36*
X231448Y175709D02*
X231448Y175709D01*
X229374Y177783D01*
X229374Y180717D01*
X231448Y182791D01*
X234382Y182791D01*
X236456Y180717D01*
X236456Y177783D01*
X234382Y175709D01*
X231448Y175709D01*
G37*
%LPD*%
%LPC*%
G36*
X218533Y180310D02*
X218533Y180310D01*
X216459Y182384D01*
X216459Y185317D01*
X218533Y187391D01*
X221467Y187391D01*
X223541Y185317D01*
X223541Y182384D01*
X221467Y180310D01*
X218533Y180310D01*
G37*
%LPD*%
%LPC*%
G36*
X322219Y-66041D02*
X322219Y-66041D01*
X320145Y-63967D01*
X320145Y-61033D01*
X322219Y-58959D01*
X325153Y-58959D01*
X327227Y-61033D01*
X327227Y-63967D01*
X325153Y-66041D01*
X322219Y-66041D01*
G37*
%LPD*%
%LPC*%
G36*
X329678Y-71041D02*
X329678Y-71041D01*
X327603Y-68967D01*
X327603Y-66033D01*
X329678Y-63959D01*
X332611Y-63959D01*
X334685Y-66033D01*
X334685Y-68967D01*
X332611Y-71041D01*
X329678Y-71041D01*
G37*
%LPD*%
%LPC*%
G36*
X-146067Y-78231D02*
X-146067Y-78231D01*
X-148141Y-76157D01*
X-148141Y-73223D01*
X-146067Y-71149D01*
X-143133Y-71149D01*
X-141059Y-73223D01*
X-141059Y-76157D01*
X-143133Y-78231D01*
X-146067Y-78231D01*
G37*
%LPD*%
%LPC*%
G36*
X6033Y181619D02*
X6033Y181619D01*
X3959Y183693D01*
X3959Y186627D01*
X6033Y188701D01*
X8967Y188701D01*
X11041Y186627D01*
X11041Y183693D01*
X8967Y181619D01*
X6033Y181619D01*
G37*
%LPD*%
%LPC*%
G36*
X325618Y123709D02*
X325618Y123709D01*
X323544Y125783D01*
X323544Y128717D01*
X325618Y130791D01*
X328552Y130791D01*
X330626Y128717D01*
X330626Y125783D01*
X328552Y123709D01*
X325618Y123709D01*
G37*
%LPD*%
%LPC*%
G36*
X33533Y143959D02*
X33533Y143959D01*
X31459Y146033D01*
X31459Y148967D01*
X33533Y151041D01*
X36467Y151041D01*
X38541Y148967D01*
X38541Y146033D01*
X36467Y143959D01*
X33533Y143959D01*
G37*
%LPD*%
%LPC*%
G36*
X-18967Y183959D02*
X-18967Y183959D01*
X-21041Y186033D01*
X-21041Y188967D01*
X-18967Y191041D01*
X-16033Y191041D01*
X-13959Y188967D01*
X-13959Y186033D01*
X-16033Y183959D01*
X-18967Y183959D01*
G37*
%LPD*%
%LPC*%
G36*
X-141467Y190070D02*
X-141467Y190070D01*
X-143541Y192144D01*
X-143541Y195077D01*
X-141467Y197151D01*
X-138533Y197151D01*
X-136459Y195077D01*
X-136459Y192144D01*
X-138533Y190070D01*
X-141467Y190070D01*
G37*
%LPD*%
%LPC*%
G36*
X-81467Y190070D02*
X-81467Y190070D01*
X-83541Y192144D01*
X-83541Y195077D01*
X-81467Y197151D01*
X-78533Y197151D01*
X-76459Y195077D01*
X-76459Y192144D01*
X-78533Y190070D01*
X-81467Y190070D01*
G37*
%LPD*%
%LPC*%
G36*
X339993Y-168541D02*
X339993Y-168541D01*
X337919Y-166467D01*
X337919Y-163533D01*
X339993Y-161459D01*
X342927Y-161459D01*
X345001Y-163533D01*
X345001Y-166467D01*
X342927Y-168541D01*
X339993Y-168541D01*
G37*
%LPD*%
%LPC*%
G36*
X318650Y29209D02*
X318650Y29209D01*
X316576Y31283D01*
X316576Y34217D01*
X318650Y36291D01*
X321583Y36291D01*
X323657Y34217D01*
X323657Y31283D01*
X321583Y29209D01*
X318650Y29209D01*
G37*
%LPD*%
%LPC*%
G36*
X-23967Y36459D02*
X-23967Y36459D01*
X-26041Y38533D01*
X-26041Y41467D01*
X-23967Y43541D01*
X-21033Y43541D01*
X-18959Y41467D01*
X-18959Y38533D01*
X-21033Y36459D01*
X-23967Y36459D01*
G37*
%LPD*%
%LPC*%
G36*
X288533Y50310D02*
X288533Y50310D01*
X286459Y52384D01*
X286459Y55317D01*
X288533Y57391D01*
X291467Y57391D01*
X293541Y55317D01*
X293541Y52384D01*
X291467Y50310D01*
X288533Y50310D01*
G37*
%LPD*%
%LPC*%
G36*
X11033Y61299D02*
X11033Y61299D01*
X8959Y63373D01*
X8959Y66307D01*
X11033Y68381D01*
X13967Y68381D01*
X16041Y66307D01*
X16041Y63373D01*
X13967Y61299D01*
X11033Y61299D01*
G37*
%LPD*%
%LPC*%
G36*
X-313507Y-166291D02*
X-313507Y-166291D01*
X-315581Y-164217D01*
X-315581Y-161283D01*
X-313507Y-159209D01*
X-310573Y-159209D01*
X-308499Y-161283D01*
X-308499Y-164217D01*
X-310573Y-166291D01*
X-313507Y-166291D01*
G37*
%LPD*%
%LPC*%
G36*
X-23967Y51459D02*
X-23967Y51459D01*
X-26041Y53533D01*
X-26041Y56467D01*
X-23967Y58541D01*
X-21033Y58541D01*
X-18959Y56467D01*
X-18959Y53533D01*
X-21033Y51459D01*
X-23967Y51459D01*
G37*
%LPD*%
%LPC*%
G36*
X-83967Y133959D02*
X-83967Y133959D01*
X-86041Y136033D01*
X-86041Y138967D01*
X-83967Y141041D01*
X-81033Y141041D01*
X-78959Y138967D01*
X-78959Y136033D01*
X-81033Y133959D01*
X-83967Y133959D01*
G37*
%LPD*%
%LPC*%
G36*
X-31467Y190310D02*
X-31467Y190310D01*
X-33541Y192384D01*
X-33541Y195317D01*
X-31467Y197391D01*
X-28533Y197391D01*
X-26459Y195317D01*
X-26459Y192384D01*
X-28533Y190310D01*
X-31467Y190310D01*
G37*
%LPD*%
%LPC*%
G36*
X263533Y-6041D02*
X263533Y-6041D01*
X261459Y-3967D01*
X261459Y-1033D01*
X263533Y1041D01*
X266467Y1041D01*
X268541Y-1033D01*
X268541Y-3967D01*
X266467Y-6041D01*
X263533Y-6041D01*
G37*
%LPD*%
%LPC*%
G36*
X24999Y-120001D02*
X24999Y-120001D01*
X24999Y-119999D01*
X25001Y-119999D01*
X25001Y-120001D01*
X24999Y-120001D01*
G37*
%LPD*%
%LPC*%
G36*
X-200001Y-95001D02*
X-200001Y-95001D01*
X-200001Y-94999D01*
X-199999Y-94999D01*
X-199999Y-95001D01*
X-200001Y-95001D01*
G37*
%LPD*%
%LPC*%
G36*
X379999Y29999D02*
X379999Y29999D01*
X379999Y30001D01*
X380001Y30001D01*
X380001Y29999D01*
X379999Y29999D01*
G37*
%LPD*%
%LPC*%
G36*
X-380001Y169999D02*
X-380001Y169999D01*
X-380001Y170001D01*
X-379999Y170001D01*
X-379999Y169999D01*
X-380001Y169999D01*
G37*
%LPD*%
%LPC*%
G36*
X379999Y89999D02*
X379999Y89999D01*
X379999Y90001D01*
X380001Y90001D01*
X380001Y89999D01*
X379999Y89999D01*
G37*
%LPD*%
%LPC*%
G36*
X-380001Y109999D02*
X-380001Y109999D01*
X-380001Y110001D01*
X-379999Y110001D01*
X-379999Y109999D01*
X-380001Y109999D01*
G37*
%LPD*%
%LPC*%
G36*
X-1Y-265001D02*
X-1Y-265001D01*
X-1Y-264999D01*
X1Y-264999D01*
X1Y-265001D01*
X-1Y-265001D01*
G37*
%LPD*%
%LPC*%
G36*
X76349Y-2701D02*
X76349Y-2701D01*
X76349Y-2699D01*
X76351Y-2699D01*
X76351Y-2701D01*
X76349Y-2701D01*
G37*
%LPD*%
%LPC*%
G36*
X76349Y73499D02*
X76349Y73499D01*
X76349Y73501D01*
X76351Y73501D01*
X76351Y73499D01*
X76349Y73499D01*
G37*
%LPD*%
%LPC*%
G36*
X-76351Y-53501D02*
X-76351Y-53501D01*
X-76351Y-53499D01*
X-76349Y-53499D01*
X-76349Y-53501D01*
X-76351Y-53501D01*
G37*
%LPD*%
%LPC*%
G36*
X-76351Y22699D02*
X-76351Y22699D01*
X-76351Y22701D01*
X-76349Y22701D01*
X-76349Y22699D01*
X-76351Y22699D01*
G37*
%LPD*%
D10*
X-290000Y90000D03*
X-290000Y100000D03*
X-230000Y90000D03*
X-240000Y50000D03*
X-250000Y40000D03*
X-260000Y50000D03*
X-270000Y90000D03*
X-310000Y90000D03*
X-280000Y90000D03*
X-290000Y110000D03*
X-300000Y90000D03*
X-230000Y100000D03*
X-220000Y90000D03*
X-210000Y90000D03*
X-250000Y90000D03*
X-230000Y110000D03*
X-240000Y90000D03*
X-290000Y50000D03*
X-245000Y50000D03*
X-290000Y40000D03*
X-260000Y40000D03*
X-240000Y40000D03*
D11*
X-380000Y210000D03*
D12*
X-380000Y30000D03*
X-380000Y10000D03*
X-380000Y-10000D03*
X-380000Y170000D03*
X-380000Y150000D03*
X-380000Y110000D03*
X-380000Y90000D03*
X-380000Y70000D03*
X-380000Y50000D03*
X-380000Y130000D03*
X-380000Y190000D03*
D11*
X380000Y-10000D03*
D12*
X380000Y170000D03*
X380000Y190000D03*
X380000Y210000D03*
X380000Y30000D03*
X380000Y50000D03*
X380000Y90000D03*
X380000Y110000D03*
X380000Y130000D03*
X380000Y150000D03*
X380000Y70000D03*
X380000Y10000D03*
D13*
X-76350Y73500D03*
X-76350Y48100D03*
X-76350Y22700D03*
X-76350Y-2700D03*
X-76350Y-28100D03*
X-76350Y-53500D03*
X76350Y-53500D03*
X76350Y-28100D03*
X76350Y-2700D03*
X76350Y22700D03*
X76350Y48100D03*
X76350Y73500D03*
D14*
X-155000Y-95000D03*
X-245000Y-95000D03*
X-110000Y-95000D03*
X-200000Y-95000D03*
D15*
X-25000Y-265000D03*
X25000Y-265000D03*
D16*
X-25000Y-120000D03*
D15*
X25000Y-120000D03*
X0Y-265000D03*
D10*
X120000Y190000D03*
D17*
X215000Y270000D03*
X205000Y270000D03*
D18*
X-79468Y-588007D02*
X-83983Y-588007D01*
X-79468Y-588006D02*
X-79335Y-588008D01*
X-79203Y-588014D01*
X-79071Y-588024D01*
X-78939Y-588037D01*
X-78807Y-588055D01*
X-78677Y-588076D01*
X-78546Y-588101D01*
X-78417Y-588130D01*
X-78289Y-588163D01*
X-78161Y-588199D01*
X-78035Y-588239D01*
X-77910Y-588283D01*
X-77786Y-588331D01*
X-77664Y-588382D01*
X-77543Y-588437D01*
X-77424Y-588495D01*
X-77306Y-588557D01*
X-77191Y-588622D01*
X-77077Y-588691D01*
X-76966Y-588762D01*
X-76857Y-588838D01*
X-76750Y-588916D01*
X-76645Y-588997D01*
X-76543Y-589082D01*
X-76443Y-589169D01*
X-76346Y-589259D01*
X-76251Y-589352D01*
X-76160Y-589448D01*
X-76071Y-589546D01*
X-75985Y-589647D01*
X-75902Y-589751D01*
X-75822Y-589857D01*
X-75746Y-589965D01*
X-75672Y-590075D01*
X-75602Y-590188D01*
X-75535Y-590302D01*
X-75472Y-590419D01*
X-75412Y-590537D01*
X-75355Y-590657D01*
X-75302Y-590779D01*
X-75253Y-590902D01*
X-75207Y-591026D01*
X-75165Y-591152D01*
X-75127Y-591279D01*
X-75092Y-591407D01*
X-75061Y-591536D01*
X-75034Y-591665D01*
X-75011Y-591796D01*
X-74991Y-591927D01*
X-74976Y-592059D01*
X-74964Y-592191D01*
X-74956Y-592323D01*
X-74952Y-592456D01*
X-74952Y-592588D01*
X-74956Y-592721D01*
X-74964Y-592853D01*
X-74976Y-592985D01*
X-74991Y-593117D01*
X-75011Y-593248D01*
X-75034Y-593379D01*
X-75061Y-593508D01*
X-75092Y-593637D01*
X-75127Y-593765D01*
X-75165Y-593892D01*
X-75207Y-594018D01*
X-75253Y-594142D01*
X-75302Y-594265D01*
X-75355Y-594387D01*
X-75412Y-594507D01*
X-75472Y-594625D01*
X-75535Y-594742D01*
X-75602Y-594856D01*
X-75672Y-594969D01*
X-75746Y-595079D01*
X-75822Y-595187D01*
X-75902Y-595293D01*
X-75985Y-595397D01*
X-76071Y-595498D01*
X-76160Y-595596D01*
X-76251Y-595692D01*
X-76346Y-595785D01*
X-76443Y-595875D01*
X-76543Y-595962D01*
X-76645Y-596047D01*
X-76750Y-596128D01*
X-76857Y-596206D01*
X-76966Y-596282D01*
X-77077Y-596353D01*
X-77191Y-596422D01*
X-77306Y-596487D01*
X-77424Y-596549D01*
X-77543Y-596607D01*
X-77664Y-596662D01*
X-77786Y-596713D01*
X-77910Y-596761D01*
X-78035Y-596805D01*
X-78161Y-596845D01*
X-78289Y-596881D01*
X-78417Y-596914D01*
X-78546Y-596943D01*
X-78677Y-596968D01*
X-78807Y-596989D01*
X-78939Y-597007D01*
X-79071Y-597020D01*
X-79203Y-597030D01*
X-79335Y-597036D01*
X-79468Y-597038D01*
X-83983Y-597038D01*
X-83983Y-580782D01*
X-79468Y-580782D01*
X-79349Y-580784D01*
X-79229Y-580790D01*
X-79110Y-580800D01*
X-78992Y-580814D01*
X-78873Y-580831D01*
X-78756Y-580853D01*
X-78639Y-580878D01*
X-78524Y-580908D01*
X-78409Y-580941D01*
X-78295Y-580978D01*
X-78183Y-581018D01*
X-78072Y-581063D01*
X-77963Y-581111D01*
X-77855Y-581162D01*
X-77749Y-581217D01*
X-77645Y-581276D01*
X-77543Y-581338D01*
X-77443Y-581403D01*
X-77345Y-581472D01*
X-77249Y-581544D01*
X-77156Y-581619D01*
X-77066Y-581696D01*
X-76978Y-581777D01*
X-76893Y-581861D01*
X-76811Y-581948D01*
X-76731Y-582037D01*
X-76655Y-582129D01*
X-76581Y-582223D01*
X-76511Y-582320D01*
X-76444Y-582418D01*
X-76380Y-582519D01*
X-76320Y-582623D01*
X-76263Y-582728D01*
X-76210Y-582835D01*
X-76160Y-582943D01*
X-76114Y-583053D01*
X-76072Y-583165D01*
X-76033Y-583278D01*
X-75998Y-583392D01*
X-75967Y-583507D01*
X-75939Y-583624D01*
X-75916Y-583741D01*
X-75896Y-583858D01*
X-75880Y-583977D01*
X-75868Y-584096D01*
X-75860Y-584215D01*
X-75856Y-584334D01*
X-75856Y-584454D01*
X-75860Y-584573D01*
X-75868Y-584692D01*
X-75880Y-584811D01*
X-75896Y-584930D01*
X-75916Y-585047D01*
X-75939Y-585164D01*
X-75967Y-585281D01*
X-75998Y-585396D01*
X-76033Y-585510D01*
X-76072Y-585623D01*
X-76114Y-585735D01*
X-76160Y-585845D01*
X-76210Y-585953D01*
X-76263Y-586060D01*
X-76320Y-586165D01*
X-76380Y-586269D01*
X-76444Y-586370D01*
X-76511Y-586468D01*
X-76581Y-586565D01*
X-76655Y-586659D01*
X-76731Y-586751D01*
X-76811Y-586840D01*
X-76893Y-586927D01*
X-76978Y-587011D01*
X-77066Y-587092D01*
X-77156Y-587169D01*
X-77249Y-587244D01*
X-77345Y-587316D01*
X-77443Y-587385D01*
X-77543Y-587450D01*
X-77645Y-587512D01*
X-77749Y-587571D01*
X-77855Y-587626D01*
X-77963Y-587677D01*
X-78072Y-587725D01*
X-78183Y-587770D01*
X-78295Y-587810D01*
X-78409Y-587847D01*
X-78524Y-587880D01*
X-78639Y-587910D01*
X-78756Y-587935D01*
X-78873Y-587957D01*
X-78992Y-587974D01*
X-79110Y-587988D01*
X-79229Y-587998D01*
X-79349Y-588004D01*
X-79468Y-588006D01*
X-69223Y-589813D02*
X-69223Y-593426D01*
X-69223Y-589813D02*
X-69221Y-589694D01*
X-69215Y-589574D01*
X-69205Y-589455D01*
X-69191Y-589337D01*
X-69174Y-589218D01*
X-69152Y-589101D01*
X-69127Y-588984D01*
X-69097Y-588869D01*
X-69064Y-588754D01*
X-69027Y-588640D01*
X-68987Y-588528D01*
X-68942Y-588417D01*
X-68894Y-588308D01*
X-68843Y-588200D01*
X-68788Y-588094D01*
X-68729Y-587990D01*
X-68667Y-587888D01*
X-68602Y-587788D01*
X-68533Y-587690D01*
X-68461Y-587594D01*
X-68386Y-587501D01*
X-68309Y-587411D01*
X-68228Y-587323D01*
X-68144Y-587238D01*
X-68057Y-587156D01*
X-67968Y-587076D01*
X-67876Y-587000D01*
X-67782Y-586926D01*
X-67685Y-586856D01*
X-67587Y-586789D01*
X-67486Y-586725D01*
X-67382Y-586665D01*
X-67277Y-586608D01*
X-67170Y-586555D01*
X-67062Y-586505D01*
X-66952Y-586459D01*
X-66840Y-586417D01*
X-66727Y-586378D01*
X-66613Y-586343D01*
X-66498Y-586312D01*
X-66381Y-586284D01*
X-66264Y-586261D01*
X-66147Y-586241D01*
X-66028Y-586225D01*
X-65909Y-586213D01*
X-65790Y-586205D01*
X-65671Y-586201D01*
X-65551Y-586201D01*
X-65432Y-586205D01*
X-65313Y-586213D01*
X-65194Y-586225D01*
X-65075Y-586241D01*
X-64958Y-586261D01*
X-64841Y-586284D01*
X-64724Y-586312D01*
X-64609Y-586343D01*
X-64495Y-586378D01*
X-64382Y-586417D01*
X-64270Y-586459D01*
X-64160Y-586505D01*
X-64052Y-586555D01*
X-63945Y-586608D01*
X-63840Y-586665D01*
X-63736Y-586725D01*
X-63635Y-586789D01*
X-63537Y-586856D01*
X-63440Y-586926D01*
X-63346Y-587000D01*
X-63254Y-587076D01*
X-63165Y-587156D01*
X-63078Y-587238D01*
X-62994Y-587323D01*
X-62913Y-587411D01*
X-62836Y-587501D01*
X-62761Y-587594D01*
X-62689Y-587690D01*
X-62620Y-587788D01*
X-62555Y-587888D01*
X-62493Y-587990D01*
X-62434Y-588094D01*
X-62379Y-588200D01*
X-62328Y-588308D01*
X-62280Y-588417D01*
X-62235Y-588528D01*
X-62195Y-588640D01*
X-62158Y-588754D01*
X-62125Y-588869D01*
X-62095Y-588984D01*
X-62070Y-589101D01*
X-62048Y-589218D01*
X-62031Y-589337D01*
X-62017Y-589455D01*
X-62007Y-589574D01*
X-62001Y-589694D01*
X-61999Y-589813D01*
X-61998Y-589813D02*
X-61998Y-593426D01*
X-61999Y-593426D02*
X-62001Y-593545D01*
X-62007Y-593665D01*
X-62017Y-593784D01*
X-62031Y-593902D01*
X-62048Y-594021D01*
X-62070Y-594138D01*
X-62095Y-594255D01*
X-62125Y-594370D01*
X-62158Y-594485D01*
X-62195Y-594599D01*
X-62235Y-594711D01*
X-62280Y-594822D01*
X-62328Y-594931D01*
X-62379Y-595039D01*
X-62434Y-595145D01*
X-62493Y-595249D01*
X-62555Y-595351D01*
X-62620Y-595451D01*
X-62689Y-595549D01*
X-62761Y-595645D01*
X-62836Y-595738D01*
X-62913Y-595828D01*
X-62994Y-595916D01*
X-63078Y-596001D01*
X-63165Y-596083D01*
X-63254Y-596163D01*
X-63346Y-596239D01*
X-63440Y-596313D01*
X-63537Y-596383D01*
X-63635Y-596450D01*
X-63736Y-596514D01*
X-63840Y-596574D01*
X-63945Y-596631D01*
X-64052Y-596684D01*
X-64160Y-596734D01*
X-64270Y-596780D01*
X-64382Y-596822D01*
X-64495Y-596861D01*
X-64609Y-596896D01*
X-64724Y-596927D01*
X-64841Y-596955D01*
X-64958Y-596978D01*
X-65075Y-596998D01*
X-65194Y-597014D01*
X-65313Y-597026D01*
X-65432Y-597034D01*
X-65551Y-597038D01*
X-65671Y-597038D01*
X-65790Y-597034D01*
X-65909Y-597026D01*
X-66028Y-597014D01*
X-66147Y-596998D01*
X-66264Y-596978D01*
X-66381Y-596955D01*
X-66498Y-596927D01*
X-66613Y-596896D01*
X-66727Y-596861D01*
X-66840Y-596822D01*
X-66952Y-596780D01*
X-67062Y-596734D01*
X-67170Y-596684D01*
X-67277Y-596631D01*
X-67382Y-596574D01*
X-67486Y-596514D01*
X-67587Y-596450D01*
X-67685Y-596383D01*
X-67782Y-596313D01*
X-67876Y-596239D01*
X-67968Y-596163D01*
X-68057Y-596083D01*
X-68144Y-596001D01*
X-68228Y-595916D01*
X-68309Y-595828D01*
X-68386Y-595738D01*
X-68461Y-595645D01*
X-68533Y-595549D01*
X-68602Y-595451D01*
X-68667Y-595351D01*
X-68729Y-595249D01*
X-68788Y-595145D01*
X-68843Y-595039D01*
X-68894Y-594931D01*
X-68942Y-594822D01*
X-68987Y-594711D01*
X-69027Y-594599D01*
X-69064Y-594485D01*
X-69097Y-594370D01*
X-69127Y-594255D01*
X-69152Y-594138D01*
X-69174Y-594021D01*
X-69191Y-593902D01*
X-69205Y-593784D01*
X-69215Y-593665D01*
X-69221Y-593545D01*
X-69223Y-593426D01*
X-56973Y-586201D02*
X-51555Y-586201D01*
X-55167Y-580782D02*
X-55167Y-594329D01*
X-55165Y-594430D01*
X-55159Y-594531D01*
X-55150Y-594632D01*
X-55137Y-594733D01*
X-55120Y-594833D01*
X-55099Y-594932D01*
X-55075Y-595030D01*
X-55047Y-595127D01*
X-55015Y-595224D01*
X-54980Y-595319D01*
X-54941Y-595412D01*
X-54899Y-595504D01*
X-54853Y-595595D01*
X-54804Y-595684D01*
X-54752Y-595770D01*
X-54696Y-595855D01*
X-54638Y-595938D01*
X-54576Y-596018D01*
X-54511Y-596096D01*
X-54444Y-596172D01*
X-54374Y-596245D01*
X-54301Y-596315D01*
X-54225Y-596382D01*
X-54147Y-596447D01*
X-54067Y-596509D01*
X-53984Y-596567D01*
X-53899Y-596623D01*
X-53813Y-596675D01*
X-53724Y-596724D01*
X-53633Y-596770D01*
X-53541Y-596812D01*
X-53448Y-596851D01*
X-53353Y-596886D01*
X-53256Y-596918D01*
X-53159Y-596946D01*
X-53061Y-596970D01*
X-52962Y-596991D01*
X-52862Y-597008D01*
X-52761Y-597021D01*
X-52660Y-597030D01*
X-52559Y-597036D01*
X-52458Y-597038D01*
X-51555Y-597038D01*
X-47074Y-586201D02*
X-41655Y-586201D01*
X-45267Y-580782D02*
X-45267Y-594329D01*
X-45265Y-594430D01*
X-45259Y-594531D01*
X-45250Y-594632D01*
X-45237Y-594733D01*
X-45220Y-594833D01*
X-45199Y-594932D01*
X-45175Y-595030D01*
X-45147Y-595127D01*
X-45115Y-595224D01*
X-45080Y-595319D01*
X-45041Y-595412D01*
X-44999Y-595504D01*
X-44953Y-595595D01*
X-44904Y-595684D01*
X-44852Y-595770D01*
X-44796Y-595855D01*
X-44738Y-595938D01*
X-44676Y-596018D01*
X-44611Y-596096D01*
X-44544Y-596172D01*
X-44474Y-596245D01*
X-44401Y-596315D01*
X-44325Y-596382D01*
X-44247Y-596447D01*
X-44167Y-596509D01*
X-44084Y-596567D01*
X-43999Y-596623D01*
X-43913Y-596675D01*
X-43824Y-596724D01*
X-43733Y-596770D01*
X-43641Y-596812D01*
X-43548Y-596851D01*
X-43453Y-596886D01*
X-43356Y-596918D01*
X-43259Y-596946D01*
X-43161Y-596970D01*
X-43062Y-596991D01*
X-42962Y-597008D01*
X-42861Y-597021D01*
X-42760Y-597030D01*
X-42659Y-597036D01*
X-42558Y-597038D01*
X-41655Y-597038D01*
X-35877Y-593426D02*
X-35877Y-589813D01*
X-35876Y-589813D02*
X-35874Y-589694D01*
X-35868Y-589574D01*
X-35858Y-589455D01*
X-35844Y-589337D01*
X-35827Y-589218D01*
X-35805Y-589101D01*
X-35780Y-588984D01*
X-35750Y-588869D01*
X-35717Y-588754D01*
X-35680Y-588640D01*
X-35640Y-588528D01*
X-35595Y-588417D01*
X-35547Y-588308D01*
X-35496Y-588200D01*
X-35441Y-588094D01*
X-35382Y-587990D01*
X-35320Y-587888D01*
X-35255Y-587788D01*
X-35186Y-587690D01*
X-35114Y-587594D01*
X-35039Y-587501D01*
X-34962Y-587411D01*
X-34881Y-587323D01*
X-34797Y-587238D01*
X-34710Y-587156D01*
X-34621Y-587076D01*
X-34529Y-587000D01*
X-34435Y-586926D01*
X-34338Y-586856D01*
X-34240Y-586789D01*
X-34139Y-586725D01*
X-34035Y-586665D01*
X-33930Y-586608D01*
X-33823Y-586555D01*
X-33715Y-586505D01*
X-33605Y-586459D01*
X-33493Y-586417D01*
X-33380Y-586378D01*
X-33266Y-586343D01*
X-33151Y-586312D01*
X-33034Y-586284D01*
X-32917Y-586261D01*
X-32800Y-586241D01*
X-32681Y-586225D01*
X-32562Y-586213D01*
X-32443Y-586205D01*
X-32324Y-586201D01*
X-32204Y-586201D01*
X-32085Y-586205D01*
X-31966Y-586213D01*
X-31847Y-586225D01*
X-31728Y-586241D01*
X-31611Y-586261D01*
X-31494Y-586284D01*
X-31377Y-586312D01*
X-31262Y-586343D01*
X-31148Y-586378D01*
X-31035Y-586417D01*
X-30923Y-586459D01*
X-30813Y-586505D01*
X-30705Y-586555D01*
X-30598Y-586608D01*
X-30493Y-586665D01*
X-30389Y-586725D01*
X-30288Y-586789D01*
X-30190Y-586856D01*
X-30093Y-586926D01*
X-29999Y-587000D01*
X-29907Y-587076D01*
X-29818Y-587156D01*
X-29731Y-587238D01*
X-29647Y-587323D01*
X-29566Y-587411D01*
X-29489Y-587501D01*
X-29414Y-587594D01*
X-29342Y-587690D01*
X-29273Y-587788D01*
X-29208Y-587888D01*
X-29146Y-587990D01*
X-29087Y-588094D01*
X-29032Y-588200D01*
X-28981Y-588308D01*
X-28933Y-588417D01*
X-28888Y-588528D01*
X-28848Y-588640D01*
X-28811Y-588754D01*
X-28778Y-588869D01*
X-28748Y-588984D01*
X-28723Y-589101D01*
X-28701Y-589218D01*
X-28684Y-589337D01*
X-28670Y-589455D01*
X-28660Y-589574D01*
X-28654Y-589694D01*
X-28652Y-589813D01*
X-28652Y-593426D01*
X-28654Y-593545D01*
X-28660Y-593665D01*
X-28670Y-593784D01*
X-28684Y-593902D01*
X-28701Y-594021D01*
X-28723Y-594138D01*
X-28748Y-594255D01*
X-28778Y-594370D01*
X-28811Y-594485D01*
X-28848Y-594599D01*
X-28888Y-594711D01*
X-28933Y-594822D01*
X-28981Y-594931D01*
X-29032Y-595039D01*
X-29087Y-595145D01*
X-29146Y-595249D01*
X-29208Y-595351D01*
X-29273Y-595451D01*
X-29342Y-595549D01*
X-29414Y-595645D01*
X-29489Y-595738D01*
X-29566Y-595828D01*
X-29647Y-595916D01*
X-29731Y-596001D01*
X-29818Y-596083D01*
X-29907Y-596163D01*
X-29999Y-596239D01*
X-30093Y-596313D01*
X-30190Y-596383D01*
X-30288Y-596450D01*
X-30389Y-596514D01*
X-30493Y-596574D01*
X-30598Y-596631D01*
X-30705Y-596684D01*
X-30813Y-596734D01*
X-30923Y-596780D01*
X-31035Y-596822D01*
X-31148Y-596861D01*
X-31262Y-596896D01*
X-31377Y-596927D01*
X-31494Y-596955D01*
X-31611Y-596978D01*
X-31728Y-596998D01*
X-31847Y-597014D01*
X-31966Y-597026D01*
X-32085Y-597034D01*
X-32204Y-597038D01*
X-32324Y-597038D01*
X-32443Y-597034D01*
X-32562Y-597026D01*
X-32681Y-597014D01*
X-32800Y-596998D01*
X-32917Y-596978D01*
X-33034Y-596955D01*
X-33151Y-596927D01*
X-33266Y-596896D01*
X-33380Y-596861D01*
X-33493Y-596822D01*
X-33605Y-596780D01*
X-33715Y-596734D01*
X-33823Y-596684D01*
X-33930Y-596631D01*
X-34035Y-596574D01*
X-34139Y-596514D01*
X-34240Y-596450D01*
X-34338Y-596383D01*
X-34435Y-596313D01*
X-34529Y-596239D01*
X-34621Y-596163D01*
X-34710Y-596083D01*
X-34797Y-596001D01*
X-34881Y-595916D01*
X-34962Y-595828D01*
X-35039Y-595738D01*
X-35114Y-595645D01*
X-35186Y-595549D01*
X-35255Y-595451D01*
X-35320Y-595351D01*
X-35382Y-595249D01*
X-35441Y-595145D01*
X-35496Y-595039D01*
X-35547Y-594931D01*
X-35595Y-594822D01*
X-35640Y-594711D01*
X-35680Y-594599D01*
X-35717Y-594485D01*
X-35750Y-594370D01*
X-35780Y-594255D01*
X-35805Y-594138D01*
X-35827Y-594021D01*
X-35844Y-593902D01*
X-35858Y-593784D01*
X-35868Y-593665D01*
X-35874Y-593545D01*
X-35876Y-593426D01*
X-21530Y-597038D02*
X-21530Y-586201D01*
X-13402Y-586201D01*
X-13301Y-586203D01*
X-13200Y-586209D01*
X-13099Y-586218D01*
X-12998Y-586231D01*
X-12898Y-586248D01*
X-12799Y-586269D01*
X-12701Y-586293D01*
X-12604Y-586321D01*
X-12507Y-586353D01*
X-12412Y-586388D01*
X-12319Y-586427D01*
X-12227Y-586469D01*
X-12136Y-586515D01*
X-12048Y-586564D01*
X-11961Y-586616D01*
X-11876Y-586672D01*
X-11793Y-586730D01*
X-11713Y-586792D01*
X-11635Y-586857D01*
X-11559Y-586924D01*
X-11486Y-586994D01*
X-11416Y-587067D01*
X-11349Y-587143D01*
X-11284Y-587221D01*
X-11222Y-587301D01*
X-11164Y-587384D01*
X-11108Y-587469D01*
X-11056Y-587556D01*
X-11007Y-587644D01*
X-10961Y-587735D01*
X-10919Y-587827D01*
X-10880Y-587920D01*
X-10845Y-588015D01*
X-10813Y-588112D01*
X-10785Y-588209D01*
X-10761Y-588307D01*
X-10740Y-588406D01*
X-10723Y-588506D01*
X-10710Y-588607D01*
X-10701Y-588708D01*
X-10695Y-588809D01*
X-10693Y-588910D01*
X-10693Y-597038D01*
X-16112Y-597038D02*
X-16112Y-586201D01*
X5564Y-580782D02*
X5564Y-597038D01*
X10982Y-589813D02*
X5564Y-580782D01*
X10982Y-589813D02*
X16401Y-580782D01*
X16401Y-597038D01*
X26232Y-597038D02*
X30747Y-597038D01*
X26232Y-597038D02*
X26131Y-597036D01*
X26030Y-597030D01*
X25929Y-597021D01*
X25828Y-597008D01*
X25728Y-596991D01*
X25629Y-596970D01*
X25531Y-596946D01*
X25434Y-596918D01*
X25337Y-596886D01*
X25242Y-596851D01*
X25149Y-596812D01*
X25057Y-596770D01*
X24966Y-596724D01*
X24878Y-596675D01*
X24791Y-596623D01*
X24706Y-596567D01*
X24623Y-596509D01*
X24543Y-596447D01*
X24465Y-596382D01*
X24389Y-596315D01*
X24316Y-596245D01*
X24246Y-596172D01*
X24179Y-596096D01*
X24114Y-596018D01*
X24052Y-595938D01*
X23994Y-595855D01*
X23938Y-595770D01*
X23886Y-595684D01*
X23837Y-595595D01*
X23791Y-595504D01*
X23749Y-595412D01*
X23710Y-595319D01*
X23675Y-595224D01*
X23643Y-595127D01*
X23615Y-595030D01*
X23591Y-594932D01*
X23570Y-594833D01*
X23553Y-594733D01*
X23540Y-594632D01*
X23531Y-594531D01*
X23525Y-594430D01*
X23523Y-594329D01*
X23522Y-594329D02*
X23522Y-589813D01*
X23523Y-589813D02*
X23525Y-589694D01*
X23531Y-589574D01*
X23541Y-589455D01*
X23555Y-589337D01*
X23572Y-589218D01*
X23594Y-589101D01*
X23619Y-588984D01*
X23649Y-588869D01*
X23682Y-588754D01*
X23719Y-588640D01*
X23759Y-588528D01*
X23804Y-588417D01*
X23852Y-588308D01*
X23903Y-588200D01*
X23958Y-588094D01*
X24017Y-587990D01*
X24079Y-587888D01*
X24144Y-587788D01*
X24213Y-587690D01*
X24285Y-587594D01*
X24360Y-587501D01*
X24437Y-587411D01*
X24518Y-587323D01*
X24602Y-587238D01*
X24689Y-587156D01*
X24778Y-587076D01*
X24870Y-587000D01*
X24964Y-586926D01*
X25061Y-586856D01*
X25159Y-586789D01*
X25260Y-586725D01*
X25364Y-586665D01*
X25469Y-586608D01*
X25576Y-586555D01*
X25684Y-586505D01*
X25794Y-586459D01*
X25906Y-586417D01*
X26019Y-586378D01*
X26133Y-586343D01*
X26248Y-586312D01*
X26365Y-586284D01*
X26482Y-586261D01*
X26599Y-586241D01*
X26718Y-586225D01*
X26837Y-586213D01*
X26956Y-586205D01*
X27075Y-586201D01*
X27195Y-586201D01*
X27314Y-586205D01*
X27433Y-586213D01*
X27552Y-586225D01*
X27671Y-586241D01*
X27788Y-586261D01*
X27905Y-586284D01*
X28022Y-586312D01*
X28137Y-586343D01*
X28251Y-586378D01*
X28364Y-586417D01*
X28476Y-586459D01*
X28586Y-586505D01*
X28694Y-586555D01*
X28801Y-586608D01*
X28906Y-586665D01*
X29010Y-586725D01*
X29111Y-586789D01*
X29209Y-586856D01*
X29306Y-586926D01*
X29400Y-587000D01*
X29492Y-587076D01*
X29581Y-587156D01*
X29668Y-587238D01*
X29752Y-587323D01*
X29833Y-587411D01*
X29910Y-587501D01*
X29985Y-587594D01*
X30057Y-587690D01*
X30126Y-587788D01*
X30191Y-587888D01*
X30253Y-587990D01*
X30312Y-588094D01*
X30367Y-588200D01*
X30418Y-588308D01*
X30466Y-588417D01*
X30511Y-588528D01*
X30551Y-588640D01*
X30588Y-588754D01*
X30621Y-588869D01*
X30651Y-588984D01*
X30676Y-589101D01*
X30698Y-589218D01*
X30715Y-589337D01*
X30729Y-589455D01*
X30739Y-589574D01*
X30745Y-589694D01*
X30747Y-589813D01*
X30747Y-591619D01*
X23522Y-591619D01*
X35772Y-586201D02*
X41191Y-586201D01*
X37578Y-580782D02*
X37578Y-594329D01*
X37579Y-594329D02*
X37581Y-594430D01*
X37587Y-594531D01*
X37596Y-594632D01*
X37609Y-594733D01*
X37626Y-594833D01*
X37647Y-594932D01*
X37671Y-595030D01*
X37699Y-595127D01*
X37731Y-595224D01*
X37766Y-595319D01*
X37805Y-595412D01*
X37847Y-595504D01*
X37893Y-595595D01*
X37942Y-595684D01*
X37994Y-595770D01*
X38050Y-595855D01*
X38108Y-595938D01*
X38170Y-596018D01*
X38235Y-596096D01*
X38302Y-596172D01*
X38372Y-596245D01*
X38445Y-596315D01*
X38521Y-596382D01*
X38599Y-596447D01*
X38679Y-596509D01*
X38762Y-596567D01*
X38847Y-596623D01*
X38934Y-596675D01*
X39022Y-596724D01*
X39113Y-596770D01*
X39205Y-596812D01*
X39298Y-596851D01*
X39393Y-596886D01*
X39490Y-596918D01*
X39587Y-596946D01*
X39685Y-596970D01*
X39784Y-596991D01*
X39884Y-597008D01*
X39985Y-597021D01*
X40086Y-597030D01*
X40187Y-597036D01*
X40288Y-597038D01*
X41191Y-597038D01*
X50057Y-590716D02*
X54121Y-590716D01*
X50057Y-590716D02*
X49945Y-590718D01*
X49834Y-590724D01*
X49723Y-590734D01*
X49612Y-590747D01*
X49502Y-590765D01*
X49393Y-590787D01*
X49284Y-590812D01*
X49176Y-590841D01*
X49070Y-590874D01*
X48964Y-590911D01*
X48860Y-590951D01*
X48758Y-590995D01*
X48657Y-591043D01*
X48558Y-591094D01*
X48460Y-591149D01*
X48365Y-591207D01*
X48272Y-591268D01*
X48181Y-591333D01*
X48092Y-591401D01*
X48006Y-591472D01*
X47923Y-591545D01*
X47842Y-591622D01*
X47763Y-591702D01*
X47688Y-591784D01*
X47616Y-591869D01*
X47546Y-591956D01*
X47480Y-592046D01*
X47417Y-592138D01*
X47357Y-592233D01*
X47301Y-592329D01*
X47248Y-592427D01*
X47199Y-592527D01*
X47153Y-592629D01*
X47111Y-592732D01*
X47072Y-592837D01*
X47037Y-592943D01*
X47006Y-593050D01*
X46979Y-593158D01*
X46955Y-593267D01*
X46936Y-593377D01*
X46920Y-593487D01*
X46908Y-593598D01*
X46900Y-593710D01*
X46896Y-593821D01*
X46896Y-593933D01*
X46900Y-594044D01*
X46908Y-594156D01*
X46920Y-594267D01*
X46936Y-594377D01*
X46955Y-594487D01*
X46979Y-594596D01*
X47006Y-594704D01*
X47037Y-594811D01*
X47072Y-594917D01*
X47111Y-595022D01*
X47153Y-595125D01*
X47199Y-595227D01*
X47248Y-595327D01*
X47301Y-595425D01*
X47357Y-595521D01*
X47417Y-595616D01*
X47480Y-595708D01*
X47546Y-595798D01*
X47616Y-595885D01*
X47688Y-595970D01*
X47763Y-596052D01*
X47842Y-596132D01*
X47923Y-596209D01*
X48006Y-596282D01*
X48092Y-596353D01*
X48181Y-596421D01*
X48272Y-596486D01*
X48365Y-596547D01*
X48460Y-596605D01*
X48558Y-596660D01*
X48657Y-596711D01*
X48758Y-596759D01*
X48860Y-596803D01*
X48964Y-596843D01*
X49070Y-596880D01*
X49176Y-596913D01*
X49284Y-596942D01*
X49393Y-596967D01*
X49502Y-596989D01*
X49612Y-597007D01*
X49723Y-597020D01*
X49834Y-597030D01*
X49945Y-597036D01*
X50057Y-597038D01*
X54121Y-597038D01*
X54121Y-588910D01*
X54120Y-588910D02*
X54118Y-588809D01*
X54112Y-588708D01*
X54103Y-588607D01*
X54090Y-588506D01*
X54073Y-588406D01*
X54052Y-588307D01*
X54028Y-588209D01*
X54000Y-588112D01*
X53968Y-588015D01*
X53933Y-587920D01*
X53894Y-587827D01*
X53852Y-587735D01*
X53806Y-587644D01*
X53757Y-587556D01*
X53705Y-587469D01*
X53649Y-587384D01*
X53591Y-587301D01*
X53529Y-587221D01*
X53464Y-587143D01*
X53397Y-587067D01*
X53327Y-586994D01*
X53254Y-586924D01*
X53178Y-586857D01*
X53100Y-586792D01*
X53020Y-586730D01*
X52937Y-586672D01*
X52852Y-586616D01*
X52766Y-586564D01*
X52677Y-586515D01*
X52586Y-586469D01*
X52494Y-586427D01*
X52401Y-586388D01*
X52306Y-586353D01*
X52209Y-586321D01*
X52112Y-586293D01*
X52014Y-586269D01*
X51915Y-586248D01*
X51815Y-586231D01*
X51714Y-586218D01*
X51613Y-586209D01*
X51512Y-586203D01*
X51411Y-586201D01*
X47799Y-586201D01*
X61274Y-580782D02*
X61274Y-594329D01*
X61276Y-594430D01*
X61282Y-594531D01*
X61291Y-594632D01*
X61304Y-594733D01*
X61321Y-594833D01*
X61342Y-594932D01*
X61366Y-595030D01*
X61394Y-595127D01*
X61426Y-595224D01*
X61461Y-595319D01*
X61500Y-595412D01*
X61542Y-595504D01*
X61588Y-595595D01*
X61637Y-595684D01*
X61689Y-595770D01*
X61745Y-595855D01*
X61803Y-595938D01*
X61865Y-596018D01*
X61930Y-596096D01*
X61997Y-596172D01*
X62067Y-596245D01*
X62140Y-596315D01*
X62216Y-596382D01*
X62294Y-596447D01*
X62374Y-596509D01*
X62457Y-596567D01*
X62542Y-596623D01*
X62629Y-596675D01*
X62717Y-596724D01*
X62808Y-596770D01*
X62900Y-596812D01*
X62993Y-596851D01*
X63088Y-596886D01*
X63185Y-596918D01*
X63282Y-596946D01*
X63380Y-596970D01*
X63479Y-596991D01*
X63579Y-597008D01*
X63680Y-597021D01*
X63781Y-597030D01*
X63882Y-597036D01*
X63983Y-597038D01*
D19*
X-56960Y22700D02*
X-76350Y22700D01*
X-76350Y-53500D02*
X-56960Y-53500D01*
X56960Y-2700D02*
X76350Y-2700D01*
X76350Y73500D02*
X56960Y73500D01*
D20*
X253965Y120750D03*
X260160Y127250D03*
X253965Y153250D03*
X253965Y172750D03*
X306035Y146750D03*
X-195400Y-36110D03*
X364540Y-215000D03*
X-256539Y70000D03*
X-200000Y181540D03*
X-178000Y198460D03*
X-242000Y198460D03*
X-154460Y-125000D03*
X-105540Y-125000D03*
X262683Y-12750D03*
X-226540Y-154000D03*
X-226540Y-226000D03*
X155540Y-275000D03*
X204460Y-275000D03*
X155540Y-205000D03*
X204460Y-205000D03*
X-56960Y-53500D03*
X253460Y-154000D03*
X253460Y-226000D03*
X113460Y-154000D03*
X113460Y-226000D03*
X-275000Y30019D03*
X-154460Y-225000D03*
X-105540Y-225000D03*
X80000Y253253D03*
X56960Y-2700D03*
X56960Y73500D03*
X-37460Y102500D03*
X-37460Y152500D03*
X22500Y87540D03*
X7500Y87540D03*
X-7500Y87540D03*
X22500Y162460D03*
X2500Y162460D03*
X155540Y-135000D03*
X204460Y-135000D03*
X290000Y86150D03*
X296314Y-52500D03*
X288856Y-57500D03*
X-320400Y224480D03*
X220000Y103851D03*
X-287960Y-237250D03*
X30000Y226150D03*
X-30000Y226150D03*
X55000Y23851D03*
X-35000Y56150D03*
X35000Y56150D03*
X-225000Y86150D03*
X-323686Y-52500D03*
X-331144Y-57500D03*
X-295000Y86150D03*
X220000Y216150D03*
X-45000Y195000D03*
D19*
X-17500Y-12500D02*
X7500Y-37500D01*
D20*
X-17500Y-12500D03*
X7500Y-37500D03*
D19*
X72500Y52500D02*
X72500Y57500D01*
X72500Y52500D02*
X75000Y50000D01*
X76350Y48100D01*
X82500Y47500D02*
X147500Y-17500D01*
X82500Y47500D02*
X77500Y47500D01*
X76350Y48100D01*
D20*
X72500Y57500D03*
X147500Y-17500D03*
D19*
X67500Y-15000D02*
X67500Y-22500D01*
X75000Y-30000D01*
X76350Y-28100D01*
X375000Y70000D02*
X380000Y70000D01*
X375000Y70000D02*
X370000Y75000D01*
X197500Y75000D01*
D20*
X67500Y-15000D03*
X197500Y75000D03*
D21*
X-100000Y-20000D03*
D19*
X-84450Y-20000D01*
X-76350Y-28100D01*
D21*
X45000Y64920D03*
D19*
X-12500Y87500D02*
X-12500Y92500D01*
X-12500Y87500D02*
X-52500Y47500D01*
X-75000Y47500D01*
X-76350Y48100D01*
X-82500Y55000D02*
X-82500Y57500D01*
X-82500Y55000D02*
X-77500Y50000D01*
X-76350Y48100D01*
D20*
X-12500Y92500D03*
X-82500Y57500D03*
X220000Y183851D03*
X320117Y32750D03*
X-269600Y224480D03*
X341460Y-165000D03*
X-30000Y193851D03*
X-144600Y-74690D03*
X-55000Y56150D03*
X232915Y179250D03*
X327085Y127250D03*
X323686Y-62500D03*
X331144Y-67500D03*
X-312040Y-162750D03*
X-140000Y193611D03*
X-80000Y193611D03*
X290000Y53851D03*
X-60160Y107500D03*
X-60160Y157500D03*
X12500Y64840D03*
X-12500Y64840D03*
X7500Y185160D03*
D19*
X-35000Y160000D02*
X-52500Y177500D01*
X-65000Y177500D01*
X-142500Y100000D01*
X-185000Y57500D02*
X-185000Y-37500D01*
X-185000Y57500D02*
X-142500Y100000D01*
D20*
X-35000Y160000D03*
X-65000Y177500D03*
X-142500Y100000D03*
X-185000Y-37500D03*
X-17500Y187500D03*
X62500Y-37500D03*
X297500Y-27500D03*
X35000Y147500D03*
D19*
X-55000Y15000D02*
X-62500Y7500D01*
X-67500Y7500D01*
D20*
X-55000Y15000D03*
X-67500Y7500D03*
D19*
X-57500Y115000D02*
X-35000Y137500D01*
X-57500Y115000D02*
X-62500Y115000D01*
X-132500Y45000D01*
X-132500Y-37500D01*
D20*
X-35000Y137500D03*
X-132500Y-37500D03*
D19*
X-122500Y80000D02*
X-65000Y137500D01*
D20*
X-65000Y137500D03*
X-122500Y80000D03*
D21*
X-254841Y105000D03*
X-348000Y-177555D03*
X-265160Y105000D03*
X-205160Y105000D03*
X-225000Y52946D03*
X-220000Y143555D03*
X-236554Y79500D03*
D19*
X272500Y102500D02*
X282500Y112500D01*
D20*
X282500Y112500D03*
X272500Y102500D03*
D19*
X287500Y-132500D02*
X287500Y-222500D01*
X287500Y-132500D02*
X305000Y-115000D01*
X305000Y-67500D01*
X237500Y0D01*
X237500Y27500D01*
X192500Y72500D01*
X192500Y77500D01*
X212500Y97500D01*
D20*
X287500Y-222500D03*
X212500Y97500D03*
D19*
X-277500Y-50000D02*
X-290000Y-62500D01*
D20*
X-290000Y-62500D03*
X-277500Y-50000D03*
D19*
X327500Y0D02*
X342500Y-15000D01*
D20*
X342500Y-15000D03*
X327500Y0D03*
X-20000Y92500D03*
X265000Y-2500D03*
X-82500Y137500D03*
X245000Y50000D03*
X237500Y50000D03*
X-172500Y192500D03*
D19*
X275000Y-12500D02*
X275000Y-25000D01*
X272500Y-27500D01*
D20*
X275000Y-12500D03*
X272500Y-27500D03*
D19*
X232500Y7500D02*
X130000Y110000D01*
X32500Y110000D01*
X7500Y135000D01*
X7500Y155000D01*
X5000Y157500D01*
X-12500Y157500D01*
X-42500Y187500D01*
X-75000Y187500D01*
X-77500Y185000D01*
X-172500Y185000D01*
D20*
X232500Y7500D03*
X-172500Y185000D03*
X242500Y40000D03*
X-80000Y35000D03*
D19*
X35000Y97500D02*
X82500Y97500D01*
X172500Y7500D01*
D20*
X35000Y97500D03*
X172500Y7500D03*
D21*
X-314841Y105000D03*
X293000Y223805D03*
X-283446Y79500D03*
X-312945Y-222750D03*
D19*
X-142500Y47500D02*
X-62500Y127500D01*
X-142500Y47500D02*
X-142500Y-45000D01*
X-35000Y-152500D01*
X-35000Y-255000D01*
X-25000Y-265000D01*
D20*
X-62500Y127500D03*
D19*
X25000Y102500D02*
X30000Y97500D01*
X30000Y95000D01*
X40000Y85000D01*
X90000Y85000D01*
X157500Y17500D01*
X157500Y-125000D01*
X35000Y-247500D01*
X35000Y-255000D01*
X25000Y-265000D01*
D20*
X25000Y102500D03*
D19*
X-25000Y157500D02*
X-137500Y45000D01*
X-137500Y-40000D01*
X-65000Y-112500D01*
X-32500Y-112500D01*
X-25000Y-120000D01*
D20*
X-25000Y157500D03*
D19*
X-2500Y147500D02*
X-2500Y122500D01*
X57500Y62500D01*
X90000Y62500D01*
X152500Y0D01*
X152500Y-22500D01*
X90000Y-85000D01*
D20*
X-2500Y147500D03*
X90000Y-85000D03*
D19*
X-10000Y112500D02*
X-10000Y147500D01*
X-10000Y112500D02*
X55000Y47500D01*
X55000Y40000D01*
X62500Y32500D01*
X92500Y32500D01*
X100000Y25000D01*
X100000Y-67500D01*
X85000Y-82500D01*
X85000Y-90000D01*
D20*
X-10000Y147500D03*
X85000Y-90000D03*
X-22500Y40000D03*
X50000Y-40000D03*
X-22500Y55000D03*
X82500Y-37500D03*
X-7500Y60000D03*
X112500Y-40000D03*
D19*
X-77500Y-2500D02*
X-90000Y10000D01*
X-95000Y10000D01*
X-100000Y15000D01*
X-100000Y55000D01*
X-82500Y72500D01*
X-80000Y72500D02*
X-77500Y72500D01*
X-80000Y72500D02*
X-82500Y72500D01*
X-77500Y-2500D02*
X-76350Y-2700D01*
X-77500Y72500D02*
X-76350Y73500D01*
X65000Y-42500D02*
X75000Y-52500D01*
X65000Y-42500D02*
X60000Y-42500D01*
X52500Y-35000D01*
X52500Y-2500D02*
X52500Y5000D01*
X52500Y-2500D02*
X52500Y-35000D01*
X52500Y5000D02*
X70000Y22500D01*
X75000Y22500D01*
X75000Y-52500D02*
X76350Y-53500D01*
X75000Y22500D02*
X76350Y22700D01*
X95000Y-37500D02*
X77500Y-55000D01*
X76350Y-53500D01*
X52500Y-2500D02*
X-75000Y-2500D01*
X-76350Y-2700D01*
X-80000Y72500D02*
X-80000Y82500D01*
X-76350Y73500D02*
X-80000Y72500D01*
D20*
X95000Y-37500D03*
X-80000Y82500D03*
D19*
X82500Y105000D02*
X300000Y-112500D01*
X82500Y105000D02*
X32500Y105000D01*
X2500Y135000D01*
D20*
X300000Y-112500D03*
X2500Y135000D03*
X15000Y147500D03*
D19*
X-335000Y-85000D02*
X-345000Y-95000D01*
D20*
X-335000Y-85000D03*
X-345000Y-95000D03*
D19*
X-280000Y-160000D02*
X-267500Y-172500D01*
D20*
X-280000Y-160000D03*
X-267500Y-172500D03*
D19*
X282500Y-27500D02*
X282500Y-7500D01*
X210000Y65000D01*
D20*
X282500Y-27500D03*
X210000Y65000D03*
D19*
X-302500Y-82500D02*
X-302500Y-137500D01*
X-302500Y-82500D02*
X-190000Y30000D01*
X-190000Y60000D01*
X-67500Y182500D01*
X-42500Y182500D01*
X-12500Y152500D01*
X2500Y152500D01*
D20*
X-302500Y-137500D03*
X2500Y152500D03*
D19*
X-30000Y242500D02*
X-40000Y252500D01*
D20*
X-40000Y252500D03*
X-30000Y242500D03*
D21*
X220000Y142946D03*
X-384445Y-165000D03*
X232010Y159750D03*
M02*
