G04 EAGLE Gerber RS-274X export*
G75*
%MOMM*%
%FSLAX34Y34*%
%LPD*%
%INTop Inner Metal*%
%IPPOS*%
%AMOC8*
5,1,8,0,0,1.08239X$1,22.5*%
G01*
%ADD10C,0.352400*%
%ADD11C,1.350000*%
%ADD12C,1.500000*%
%ADD13C,1.950000*%
%ADD14C,0.152400*%
%ADD15C,0.454000*%
%ADD16C,0.127000*%
%ADD17C,0.635000*%

G36*
X380022Y-297495D02*
X380022Y-297495D01*
X380050Y-297497D01*
X383470Y-297228D01*
X383519Y-297215D01*
X383616Y-297199D01*
X390123Y-295085D01*
X390127Y-295082D01*
X390133Y-295082D01*
X390299Y-294995D01*
X395834Y-290974D01*
X395838Y-290970D01*
X395843Y-290967D01*
X395974Y-290834D01*
X399995Y-285299D01*
X399997Y-285294D01*
X400001Y-285290D01*
X400085Y-285123D01*
X402199Y-278616D01*
X402206Y-278568D01*
X402206Y-278565D01*
X402206Y-278564D01*
X402228Y-278470D01*
X402497Y-275050D01*
X402495Y-275028D01*
X402499Y-275000D01*
X402499Y260000D01*
X402495Y260022D01*
X402497Y260050D01*
X402228Y263470D01*
X402215Y263519D01*
X402199Y263616D01*
X400085Y270123D01*
X400082Y270127D01*
X400082Y270133D01*
X399995Y270299D01*
X395974Y275834D01*
X395970Y275838D01*
X395967Y275843D01*
X395834Y275974D01*
X390299Y279995D01*
X390294Y279997D01*
X390290Y280001D01*
X390123Y280085D01*
X383616Y282199D01*
X383567Y282206D01*
X383562Y282207D01*
X383514Y282223D01*
X383494Y282223D01*
X383470Y282228D01*
X380050Y282497D01*
X380028Y282495D01*
X380000Y282499D01*
X335949Y282499D01*
X335859Y282483D01*
X335767Y282473D01*
X335746Y282463D01*
X335728Y282460D01*
X335685Y282434D01*
X335597Y282393D01*
X321645Y273091D01*
X321611Y273058D01*
X321549Y273012D01*
X321036Y272499D01*
X320949Y272499D01*
X320858Y272483D01*
X320767Y272473D01*
X320746Y272463D01*
X320728Y272460D01*
X320685Y272434D01*
X320597Y272393D01*
X320525Y272345D01*
X319814Y272487D01*
X319766Y272488D01*
X319690Y272499D01*
X240310Y272499D01*
X240263Y272491D01*
X240186Y272487D01*
X239475Y272345D01*
X239403Y272393D01*
X239318Y272429D01*
X239236Y272472D01*
X239214Y272475D01*
X239197Y272482D01*
X239147Y272485D01*
X239051Y272499D01*
X238964Y272499D01*
X238451Y273012D01*
X238412Y273040D01*
X238355Y273091D01*
X224403Y282393D01*
X224318Y282429D01*
X224236Y282472D01*
X224214Y282475D01*
X224197Y282482D01*
X224147Y282485D01*
X224051Y282499D01*
X205000Y282499D01*
X204935Y282488D01*
X204869Y282486D01*
X204826Y282468D01*
X204779Y282460D01*
X204722Y282426D01*
X204662Y282401D01*
X204627Y282370D01*
X204586Y282345D01*
X204545Y282294D01*
X204496Y282250D01*
X204474Y282208D01*
X204445Y282171D01*
X204424Y282109D01*
X204393Y282050D01*
X204385Y281996D01*
X204373Y281959D01*
X204374Y281919D01*
X204366Y281865D01*
X204366Y273667D01*
X204377Y273602D01*
X204379Y273536D01*
X204397Y273493D01*
X204405Y273446D01*
X204439Y273389D01*
X204464Y273329D01*
X204495Y273294D01*
X204520Y273253D01*
X204571Y273211D01*
X204615Y273163D01*
X204657Y273141D01*
X204694Y273112D01*
X204756Y273091D01*
X204815Y273060D01*
X204869Y273052D01*
X204906Y273040D01*
X204946Y273041D01*
X205000Y273033D01*
X206256Y273033D01*
X208033Y271256D01*
X208033Y268744D01*
X207219Y267930D01*
X207194Y267895D01*
X207163Y267866D01*
X207131Y267803D01*
X207090Y267745D01*
X207080Y267704D01*
X207060Y267666D01*
X207047Y267577D01*
X207034Y267528D01*
X207037Y267507D01*
X207033Y267481D01*
X207033Y159158D01*
X205842Y157967D01*
X204158Y157967D01*
X202967Y159158D01*
X202967Y210000D01*
X202956Y210065D01*
X202954Y210131D01*
X202936Y210174D01*
X202928Y210221D01*
X202894Y210278D01*
X202869Y210338D01*
X202838Y210373D01*
X202813Y210414D01*
X202762Y210456D01*
X202718Y210504D01*
X202676Y210526D01*
X202639Y210555D01*
X202577Y210576D01*
X202518Y210607D01*
X202464Y210615D01*
X202427Y210627D01*
X202387Y210626D01*
X202333Y210634D01*
X97667Y210634D01*
X97602Y210623D01*
X97536Y210621D01*
X97493Y210603D01*
X97446Y210595D01*
X97389Y210561D01*
X97329Y210536D01*
X97294Y210505D01*
X97253Y210480D01*
X97211Y210429D01*
X97163Y210385D01*
X97141Y210343D01*
X97112Y210306D01*
X97091Y210244D01*
X97060Y210185D01*
X97052Y210131D01*
X97040Y210094D01*
X97041Y210054D01*
X97033Y210000D01*
X97033Y134158D01*
X95842Y132967D01*
X37667Y132967D01*
X37602Y132956D01*
X37536Y132954D01*
X37493Y132936D01*
X37446Y132928D01*
X37389Y132894D01*
X37329Y132869D01*
X37294Y132838D01*
X37253Y132813D01*
X37211Y132762D01*
X37163Y132718D01*
X37141Y132676D01*
X37112Y132639D01*
X37091Y132577D01*
X37060Y132518D01*
X37052Y132464D01*
X37040Y132427D01*
X37041Y132387D01*
X37033Y132333D01*
X37033Y117667D01*
X37044Y117602D01*
X37046Y117536D01*
X37064Y117493D01*
X37072Y117446D01*
X37106Y117389D01*
X37131Y117329D01*
X37163Y117294D01*
X37187Y117253D01*
X37238Y117211D01*
X37282Y117163D01*
X37324Y117141D01*
X37361Y117112D01*
X37423Y117091D01*
X37482Y117060D01*
X37536Y117052D01*
X37573Y117040D01*
X37613Y117041D01*
X37667Y117033D01*
X160842Y117033D01*
X162033Y115842D01*
X162033Y114158D01*
X160842Y112967D01*
X34158Y112967D01*
X32967Y114158D01*
X32967Y135842D01*
X34158Y137033D01*
X92333Y137033D01*
X92398Y137044D01*
X92464Y137046D01*
X92507Y137064D01*
X92554Y137072D01*
X92611Y137106D01*
X92671Y137131D01*
X92706Y137162D01*
X92747Y137187D01*
X92789Y137238D01*
X92837Y137282D01*
X92859Y137324D01*
X92888Y137361D01*
X92909Y137423D01*
X92940Y137482D01*
X92948Y137536D01*
X92960Y137573D01*
X92959Y137613D01*
X92967Y137667D01*
X92967Y280842D01*
X93542Y281417D01*
X93593Y281490D01*
X93649Y281559D01*
X93656Y281581D01*
X93670Y281601D01*
X93692Y281687D01*
X93721Y281771D01*
X93720Y281795D01*
X93726Y281818D01*
X93717Y281907D01*
X93714Y281996D01*
X93705Y282018D01*
X93703Y282041D01*
X93663Y282121D01*
X93630Y282203D01*
X93614Y282221D01*
X93603Y282242D01*
X93538Y282303D01*
X93478Y282369D01*
X93457Y282380D01*
X93440Y282396D01*
X93358Y282431D01*
X93279Y282472D01*
X93253Y282475D01*
X93233Y282484D01*
X93183Y282486D01*
X93093Y282499D01*
X-380000Y282499D01*
X-380022Y282495D01*
X-380050Y282497D01*
X-383470Y282228D01*
X-383519Y282215D01*
X-383616Y282199D01*
X-390123Y280085D01*
X-390127Y280082D01*
X-390133Y280082D01*
X-390299Y279995D01*
X-395834Y275974D01*
X-395838Y275970D01*
X-395843Y275967D01*
X-395974Y275834D01*
X-399995Y270299D01*
X-399997Y270294D01*
X-400001Y270290D01*
X-400085Y270123D01*
X-402199Y263616D01*
X-402206Y263566D01*
X-402228Y263470D01*
X-402497Y260050D01*
X-402495Y260028D01*
X-402499Y260000D01*
X-402499Y-275000D01*
X-402495Y-275022D01*
X-402497Y-275050D01*
X-402228Y-278470D01*
X-402215Y-278519D01*
X-402199Y-278616D01*
X-400085Y-285123D01*
X-400082Y-285127D01*
X-400082Y-285133D01*
X-399995Y-285299D01*
X-395974Y-290834D01*
X-395970Y-290838D01*
X-395967Y-290843D01*
X-395834Y-290974D01*
X-390299Y-294995D01*
X-390294Y-294997D01*
X-390290Y-295001D01*
X-390123Y-295085D01*
X-383616Y-297199D01*
X-383566Y-297206D01*
X-383470Y-297228D01*
X-380050Y-297497D01*
X-380028Y-297495D01*
X-380000Y-297499D01*
X380000Y-297499D01*
X380022Y-297495D01*
G37*
%LPC*%
G36*
X48533Y-43541D02*
X48533Y-43541D01*
X46459Y-41467D01*
X46459Y-38533D01*
X47908Y-37084D01*
X47933Y-37049D01*
X47964Y-37021D01*
X47996Y-36958D01*
X48037Y-36900D01*
X48047Y-36859D01*
X48067Y-36821D01*
X48080Y-36731D01*
X48093Y-36683D01*
X48090Y-36662D01*
X48094Y-36636D01*
X48094Y-31052D01*
X48087Y-31010D01*
X48089Y-30968D01*
X48067Y-30901D01*
X48055Y-30831D01*
X48033Y-30795D01*
X48020Y-30754D01*
X47966Y-30682D01*
X47940Y-30638D01*
X47924Y-30625D01*
X47908Y-30604D01*
X-3104Y20408D01*
X-3138Y20433D01*
X-3167Y20464D01*
X-3230Y20496D01*
X-3288Y20537D01*
X-3329Y20547D01*
X-3367Y20567D01*
X-3456Y20580D01*
X-3505Y20593D01*
X-3526Y20590D01*
X-3552Y20594D01*
X-5789Y20594D01*
X-21469Y36273D01*
X-21503Y36298D01*
X-21532Y36329D01*
X-21595Y36361D01*
X-21653Y36402D01*
X-21694Y36412D01*
X-21732Y36432D01*
X-21821Y36445D01*
X-21870Y36458D01*
X-21891Y36455D01*
X-21917Y36459D01*
X-23967Y36459D01*
X-26041Y38533D01*
X-26041Y41467D01*
X-23967Y43541D01*
X-22767Y43541D01*
X-22679Y43557D01*
X-22591Y43566D01*
X-22570Y43576D01*
X-22546Y43580D01*
X-22470Y43626D01*
X-22390Y43665D01*
X-22373Y43682D01*
X-22353Y43695D01*
X-22297Y43764D01*
X-22236Y43828D01*
X-22227Y43850D01*
X-22212Y43869D01*
X-22183Y43953D01*
X-22148Y44035D01*
X-22147Y44059D01*
X-22140Y44081D01*
X-22142Y44170D01*
X-22138Y44259D01*
X-22146Y44282D01*
X-22146Y44306D01*
X-22180Y44388D01*
X-22207Y44473D01*
X-22223Y44494D01*
X-22231Y44513D01*
X-22265Y44551D01*
X-22319Y44623D01*
X-29406Y51711D01*
X-29406Y93289D01*
X-19592Y103104D01*
X-19567Y103138D01*
X-19536Y103167D01*
X-19504Y103230D01*
X-19463Y103288D01*
X-19453Y103329D01*
X-19433Y103367D01*
X-19420Y103456D01*
X-19407Y103505D01*
X-19410Y103526D01*
X-19406Y103552D01*
X-19406Y184136D01*
X-19413Y184177D01*
X-19411Y184220D01*
X-19433Y184287D01*
X-19445Y184356D01*
X-19467Y184393D01*
X-19480Y184433D01*
X-19534Y184506D01*
X-19560Y184550D01*
X-19576Y184563D01*
X-19592Y184584D01*
X-21041Y186033D01*
X-21041Y188967D01*
X-18967Y191041D01*
X-16033Y191041D01*
X-13959Y188967D01*
X-13959Y186033D01*
X-15408Y184584D01*
X-15433Y184549D01*
X-15464Y184521D01*
X-15496Y184458D01*
X-15537Y184400D01*
X-15547Y184359D01*
X-15567Y184321D01*
X-15580Y184231D01*
X-15593Y184183D01*
X-15590Y184162D01*
X-15594Y184136D01*
X-15594Y101711D01*
X-20181Y97123D01*
X-20232Y97050D01*
X-20288Y96981D01*
X-20296Y96959D01*
X-20310Y96939D01*
X-20332Y96853D01*
X-20360Y96769D01*
X-20360Y96745D01*
X-20365Y96722D01*
X-20356Y96633D01*
X-20354Y96544D01*
X-20345Y96522D01*
X-20342Y96499D01*
X-20303Y96419D01*
X-20269Y96337D01*
X-20253Y96319D01*
X-20243Y96298D01*
X-20178Y96237D01*
X-20118Y96171D01*
X-20097Y96160D01*
X-20080Y96144D01*
X-19998Y96109D01*
X-19918Y96068D01*
X-19892Y96065D01*
X-19873Y96056D01*
X-19823Y96054D01*
X-19733Y96041D01*
X-18533Y96041D01*
X-16699Y94206D01*
X-16644Y94168D01*
X-16597Y94123D01*
X-16553Y94105D01*
X-16514Y94078D01*
X-16451Y94061D01*
X-16390Y94036D01*
X-16343Y94034D01*
X-16297Y94022D01*
X-16232Y94029D01*
X-16166Y94026D01*
X-16121Y94040D01*
X-16074Y94045D01*
X-16015Y94074D01*
X-15952Y94094D01*
X-15908Y94127D01*
X-15873Y94144D01*
X-15846Y94173D01*
X-15802Y94206D01*
X-13967Y96041D01*
X-11033Y96041D01*
X-8959Y93967D01*
X-8959Y91033D01*
X-11033Y88959D01*
X-12233Y88959D01*
X-12321Y88943D01*
X-12409Y88934D01*
X-12430Y88924D01*
X-12454Y88920D01*
X-12530Y88874D01*
X-12610Y88835D01*
X-12627Y88818D01*
X-12647Y88805D01*
X-12703Y88736D01*
X-12764Y88672D01*
X-12773Y88650D01*
X-12788Y88631D01*
X-12817Y88547D01*
X-12852Y88465D01*
X-12853Y88441D01*
X-12860Y88419D01*
X-12858Y88330D01*
X-12862Y88241D01*
X-12854Y88218D01*
X-12854Y88194D01*
X-12820Y88112D01*
X-12793Y88027D01*
X-12777Y88006D01*
X-12769Y87987D01*
X-12735Y87949D01*
X-12681Y87877D01*
X-6896Y82092D01*
X-6862Y82067D01*
X-6833Y82036D01*
X-6770Y82004D01*
X-6712Y81963D01*
X-6671Y81953D01*
X-6633Y81933D01*
X-6544Y81920D01*
X-6495Y81907D01*
X-6474Y81910D01*
X-6448Y81906D01*
X91368Y81906D01*
X91456Y81922D01*
X91544Y81931D01*
X91565Y81941D01*
X91589Y81945D01*
X91665Y81991D01*
X91745Y82030D01*
X91762Y82047D01*
X91782Y82060D01*
X91838Y82129D01*
X91899Y82193D01*
X91908Y82215D01*
X91923Y82234D01*
X91952Y82318D01*
X91987Y82400D01*
X91988Y82424D01*
X91995Y82446D01*
X91993Y82535D01*
X91997Y82624D01*
X91989Y82647D01*
X91989Y82671D01*
X91955Y82753D01*
X91928Y82838D01*
X91912Y82859D01*
X91904Y82878D01*
X91870Y82916D01*
X91816Y82988D01*
X69396Y105408D01*
X69362Y105433D01*
X69333Y105464D01*
X69270Y105496D01*
X69212Y105537D01*
X69171Y105547D01*
X69133Y105567D01*
X69044Y105580D01*
X68995Y105593D01*
X68974Y105590D01*
X68948Y105594D01*
X34211Y105594D01*
X25594Y114211D01*
X25594Y140789D01*
X31273Y146469D01*
X31298Y146503D01*
X31329Y146532D01*
X31361Y146595D01*
X31402Y146653D01*
X31412Y146694D01*
X31432Y146732D01*
X31445Y146821D01*
X31458Y146870D01*
X31455Y146891D01*
X31459Y146917D01*
X31459Y148967D01*
X33533Y151041D01*
X36467Y151041D01*
X38541Y148967D01*
X38541Y146033D01*
X36467Y143959D01*
X34417Y143959D01*
X34375Y143952D01*
X34333Y143954D01*
X34266Y143932D01*
X34196Y143920D01*
X34160Y143898D01*
X34119Y143885D01*
X34047Y143831D01*
X34003Y143805D01*
X33990Y143789D01*
X33983Y143785D01*
X33980Y143782D01*
X33969Y143773D01*
X29592Y139396D01*
X29567Y139362D01*
X29536Y139333D01*
X29504Y139270D01*
X29463Y139212D01*
X29453Y139171D01*
X29433Y139133D01*
X29420Y139044D01*
X29407Y138995D01*
X29410Y138974D01*
X29406Y138948D01*
X29406Y116052D01*
X29413Y116010D01*
X29411Y115968D01*
X29433Y115901D01*
X29445Y115831D01*
X29467Y115795D01*
X29480Y115754D01*
X29523Y115697D01*
X29524Y115693D01*
X29530Y115686D01*
X29534Y115682D01*
X29560Y115638D01*
X29576Y115625D01*
X29592Y115604D01*
X35604Y109592D01*
X35638Y109567D01*
X35667Y109536D01*
X35730Y109504D01*
X35788Y109463D01*
X35829Y109453D01*
X35867Y109433D01*
X35956Y109420D01*
X36005Y109407D01*
X36026Y109410D01*
X36052Y109406D01*
X70789Y109406D01*
X118104Y62092D01*
X118138Y62067D01*
X118167Y62036D01*
X118230Y62004D01*
X118288Y61963D01*
X118329Y61953D01*
X118367Y61933D01*
X118456Y61920D01*
X118505Y61907D01*
X118526Y61910D01*
X118552Y61906D01*
X206556Y61906D01*
X206643Y61921D01*
X206732Y61931D01*
X206753Y61941D01*
X206777Y61945D01*
X206853Y61991D01*
X206933Y62030D01*
X206949Y62047D01*
X206970Y62060D01*
X207026Y62129D01*
X207087Y62193D01*
X207096Y62215D01*
X207111Y62234D01*
X207140Y62318D01*
X207174Y62400D01*
X207175Y62424D01*
X207183Y62446D01*
X207180Y62535D01*
X207184Y62624D01*
X207177Y62647D01*
X207176Y62671D01*
X207143Y62753D01*
X207116Y62838D01*
X207100Y62859D01*
X207092Y62878D01*
X207058Y62916D01*
X207004Y62988D01*
X206459Y63533D01*
X206459Y66467D01*
X208533Y68541D01*
X211467Y68541D01*
X213541Y66467D01*
X213541Y63533D01*
X211800Y61792D01*
X211762Y61738D01*
X211717Y61690D01*
X211699Y61647D01*
X211672Y61608D01*
X211655Y61544D01*
X211630Y61484D01*
X211627Y61437D01*
X211616Y61391D01*
X211623Y61325D01*
X211620Y61260D01*
X211634Y61215D01*
X211639Y61168D01*
X211668Y61109D01*
X211688Y61046D01*
X211721Y61002D01*
X211738Y60967D01*
X211767Y60940D01*
X211800Y60895D01*
X212092Y60604D01*
X296469Y-23773D01*
X296503Y-23798D01*
X296532Y-23829D01*
X296595Y-23861D01*
X296653Y-23902D01*
X296694Y-23912D01*
X296732Y-23932D01*
X296821Y-23945D01*
X296870Y-23958D01*
X296891Y-23955D01*
X296917Y-23959D01*
X298967Y-23959D01*
X301041Y-26033D01*
X301041Y-28967D01*
X298967Y-31041D01*
X296033Y-31041D01*
X293959Y-28967D01*
X293959Y-26917D01*
X293952Y-26875D01*
X293954Y-26833D01*
X293932Y-26766D01*
X293920Y-26696D01*
X293898Y-26660D01*
X293885Y-26619D01*
X293831Y-26547D01*
X293805Y-26503D01*
X293789Y-26490D01*
X293773Y-26469D01*
X279623Y-12319D01*
X279550Y-12268D01*
X279481Y-12212D01*
X279459Y-12204D01*
X279439Y-12190D01*
X279353Y-12168D01*
X279269Y-12140D01*
X279245Y-12140D01*
X279222Y-12135D01*
X279133Y-12144D01*
X279044Y-12146D01*
X279022Y-12155D01*
X278999Y-12158D01*
X278919Y-12197D01*
X278837Y-12231D01*
X278819Y-12247D01*
X278798Y-12257D01*
X278737Y-12322D01*
X278671Y-12382D01*
X278660Y-12403D01*
X278644Y-12420D01*
X278609Y-12502D01*
X278568Y-12582D01*
X278565Y-12608D01*
X278556Y-12627D01*
X278554Y-12677D01*
X278541Y-12767D01*
X278541Y-13967D01*
X276467Y-16041D01*
X273533Y-16041D01*
X271459Y-13967D01*
X271459Y-11033D01*
X273533Y-8959D01*
X274733Y-8959D01*
X274821Y-8943D01*
X274909Y-8934D01*
X274930Y-8924D01*
X274954Y-8920D01*
X275030Y-8874D01*
X275110Y-8835D01*
X275127Y-8818D01*
X275147Y-8805D01*
X275203Y-8736D01*
X275264Y-8672D01*
X275273Y-8650D01*
X275288Y-8631D01*
X275317Y-8547D01*
X275352Y-8465D01*
X275353Y-8441D01*
X275360Y-8419D01*
X275358Y-8330D01*
X275362Y-8241D01*
X275354Y-8218D01*
X275354Y-8194D01*
X275320Y-8112D01*
X275293Y-8027D01*
X275277Y-8006D01*
X275269Y-7987D01*
X275235Y-7949D01*
X275181Y-7877D01*
X269623Y-2319D01*
X269550Y-2268D01*
X269481Y-2212D01*
X269459Y-2204D01*
X269439Y-2190D01*
X269353Y-2168D01*
X269269Y-2140D01*
X269245Y-2140D01*
X269222Y-2135D01*
X269133Y-2144D01*
X269044Y-2146D01*
X269022Y-2155D01*
X268999Y-2158D01*
X268919Y-2197D01*
X268837Y-2231D01*
X268819Y-2247D01*
X268798Y-2257D01*
X268737Y-2322D01*
X268671Y-2382D01*
X268660Y-2403D01*
X268644Y-2420D01*
X268609Y-2502D01*
X268568Y-2582D01*
X268565Y-2608D01*
X268556Y-2627D01*
X268554Y-2677D01*
X268541Y-2767D01*
X268541Y-3967D01*
X266467Y-6041D01*
X263533Y-6041D01*
X262084Y-4592D01*
X262049Y-4567D01*
X262021Y-4536D01*
X261958Y-4504D01*
X261900Y-4463D01*
X261859Y-4453D01*
X261821Y-4433D01*
X261731Y-4420D01*
X261683Y-4407D01*
X261662Y-4410D01*
X261636Y-4406D01*
X174211Y-4406D01*
X172908Y-3104D01*
X91896Y77908D01*
X91862Y77933D01*
X91833Y77964D01*
X91770Y77996D01*
X91712Y78037D01*
X91671Y78047D01*
X91633Y78067D01*
X91544Y78080D01*
X91495Y78093D01*
X91474Y78090D01*
X91448Y78094D01*
X-8289Y78094D01*
X-9592Y79396D01*
X-18969Y88773D01*
X-19003Y88798D01*
X-19032Y88829D01*
X-19095Y88861D01*
X-19153Y88902D01*
X-19194Y88912D01*
X-19232Y88932D01*
X-19321Y88945D01*
X-19370Y88958D01*
X-19391Y88955D01*
X-19417Y88959D01*
X-21467Y88959D01*
X-23541Y91033D01*
X-23541Y92233D01*
X-23556Y92321D01*
X-23566Y92409D01*
X-23576Y92430D01*
X-23580Y92454D01*
X-23626Y92531D01*
X-23665Y92610D01*
X-23682Y92626D01*
X-23695Y92647D01*
X-23764Y92703D01*
X-23828Y92764D01*
X-23850Y92773D01*
X-23869Y92788D01*
X-23953Y92817D01*
X-24035Y92852D01*
X-24059Y92853D01*
X-24081Y92860D01*
X-24170Y92858D01*
X-24259Y92862D01*
X-24282Y92854D01*
X-24306Y92854D01*
X-24388Y92820D01*
X-24473Y92793D01*
X-24494Y92777D01*
X-24513Y92769D01*
X-24551Y92735D01*
X-24623Y92681D01*
X-25409Y91896D01*
X-25433Y91862D01*
X-25464Y91833D01*
X-25496Y91770D01*
X-25537Y91712D01*
X-25547Y91671D01*
X-25567Y91633D01*
X-25580Y91544D01*
X-25593Y91495D01*
X-25590Y91474D01*
X-25594Y91448D01*
X-25594Y58444D01*
X-25579Y58357D01*
X-25569Y58268D01*
X-25559Y58247D01*
X-25555Y58223D01*
X-25509Y58147D01*
X-25470Y58067D01*
X-25453Y58051D01*
X-25440Y58030D01*
X-25371Y57974D01*
X-25307Y57913D01*
X-25285Y57904D01*
X-25266Y57889D01*
X-25182Y57860D01*
X-25100Y57826D01*
X-25076Y57825D01*
X-25054Y57817D01*
X-24965Y57820D01*
X-24876Y57816D01*
X-24853Y57823D01*
X-24829Y57824D01*
X-24747Y57857D01*
X-24662Y57884D01*
X-24641Y57900D01*
X-24622Y57908D01*
X-24584Y57942D01*
X-24512Y57996D01*
X-23967Y58541D01*
X-21033Y58541D01*
X-18959Y56467D01*
X-18959Y54417D01*
X-18952Y54375D01*
X-18954Y54333D01*
X-18932Y54266D01*
X-18920Y54196D01*
X-18898Y54160D01*
X-18885Y54119D01*
X-18831Y54047D01*
X-18805Y54003D01*
X-18789Y53990D01*
X-18773Y53969D01*
X11906Y23289D01*
X11906Y21052D01*
X11913Y21010D01*
X11911Y20968D01*
X11933Y20901D01*
X11945Y20831D01*
X11967Y20795D01*
X11980Y20754D01*
X12034Y20682D01*
X12060Y20638D01*
X12076Y20625D01*
X12092Y20604D01*
X63104Y-30408D01*
X63138Y-30433D01*
X63167Y-30464D01*
X63230Y-30496D01*
X63288Y-30537D01*
X63329Y-30547D01*
X63367Y-30567D01*
X63456Y-30580D01*
X63505Y-30593D01*
X63526Y-30590D01*
X63552Y-30594D01*
X78289Y-30594D01*
X81469Y-33773D01*
X81503Y-33798D01*
X81532Y-33829D01*
X81595Y-33861D01*
X81653Y-33902D01*
X81694Y-33912D01*
X81732Y-33932D01*
X81821Y-33945D01*
X81870Y-33958D01*
X81891Y-33955D01*
X81917Y-33959D01*
X83967Y-33959D01*
X86041Y-36033D01*
X86041Y-38967D01*
X83967Y-41041D01*
X81033Y-41041D01*
X78959Y-38967D01*
X78959Y-36917D01*
X78952Y-36875D01*
X78954Y-36833D01*
X78932Y-36766D01*
X78920Y-36696D01*
X78898Y-36660D01*
X78885Y-36619D01*
X78831Y-36547D01*
X78805Y-36503D01*
X78789Y-36490D01*
X78773Y-36469D01*
X76896Y-34592D01*
X76862Y-34567D01*
X76833Y-34536D01*
X76770Y-34504D01*
X76712Y-34463D01*
X76671Y-34453D01*
X76633Y-34433D01*
X76544Y-34420D01*
X76495Y-34407D01*
X76474Y-34410D01*
X76448Y-34406D01*
X65944Y-34406D01*
X65857Y-34421D01*
X65768Y-34431D01*
X65747Y-34441D01*
X65723Y-34445D01*
X65647Y-34491D01*
X65567Y-34530D01*
X65551Y-34547D01*
X65530Y-34560D01*
X65474Y-34629D01*
X65413Y-34693D01*
X65404Y-34715D01*
X65389Y-34734D01*
X65360Y-34818D01*
X65326Y-34900D01*
X65325Y-34924D01*
X65317Y-34946D01*
X65320Y-35035D01*
X65316Y-35124D01*
X65323Y-35147D01*
X65324Y-35171D01*
X65357Y-35253D01*
X65384Y-35338D01*
X65400Y-35359D01*
X65408Y-35378D01*
X65442Y-35416D01*
X65496Y-35488D01*
X66041Y-36033D01*
X66041Y-38967D01*
X63967Y-41041D01*
X61033Y-41041D01*
X58959Y-38967D01*
X58959Y-36917D01*
X58952Y-36875D01*
X58954Y-36833D01*
X58932Y-36766D01*
X58920Y-36696D01*
X58898Y-36660D01*
X58885Y-36619D01*
X58831Y-36547D01*
X58805Y-36503D01*
X58789Y-36490D01*
X58773Y-36469D01*
X52988Y-30684D01*
X52915Y-30633D01*
X52846Y-30577D01*
X52824Y-30569D01*
X52804Y-30555D01*
X52718Y-30533D01*
X52634Y-30505D01*
X52610Y-30505D01*
X52587Y-30500D01*
X52498Y-30509D01*
X52409Y-30511D01*
X52387Y-30520D01*
X52364Y-30523D01*
X52284Y-30562D01*
X52202Y-30596D01*
X52184Y-30612D01*
X52163Y-30622D01*
X52102Y-30687D01*
X52036Y-30747D01*
X52025Y-30768D01*
X52009Y-30785D01*
X51974Y-30867D01*
X51933Y-30947D01*
X51930Y-30973D01*
X51921Y-30992D01*
X51919Y-31042D01*
X51906Y-31132D01*
X51906Y-36636D01*
X51913Y-36677D01*
X51911Y-36720D01*
X51933Y-36787D01*
X51945Y-36857D01*
X51967Y-36893D01*
X51980Y-36933D01*
X52034Y-37006D01*
X52060Y-37050D01*
X52076Y-37063D01*
X52092Y-37084D01*
X53541Y-38533D01*
X53541Y-41467D01*
X51467Y-43541D01*
X48533Y-43541D01*
G37*
%LPD*%
%LPC*%
G36*
X-101842Y-24446D02*
X-101842Y-24446D01*
X-104446Y-21842D01*
X-104446Y-18158D01*
X-102092Y-15804D01*
X-102067Y-15769D01*
X-102036Y-15741D01*
X-102004Y-15678D01*
X-101963Y-15620D01*
X-101953Y-15579D01*
X-101933Y-15541D01*
X-101920Y-15452D01*
X-101907Y-15403D01*
X-101910Y-15382D01*
X-101906Y-15356D01*
X-101906Y33948D01*
X-101913Y33990D01*
X-101911Y34032D01*
X-101933Y34099D01*
X-101945Y34169D01*
X-101967Y34205D01*
X-101980Y34246D01*
X-102034Y34318D01*
X-102060Y34362D01*
X-102076Y34375D01*
X-102092Y34396D01*
X-195604Y127908D01*
X-195636Y127931D01*
X-195655Y127952D01*
X-195657Y127953D01*
X-195667Y127964D01*
X-195730Y127996D01*
X-195788Y128037D01*
X-195829Y128047D01*
X-195867Y128067D01*
X-195956Y128080D01*
X-196005Y128093D01*
X-196026Y128090D01*
X-196052Y128094D01*
X-305789Y128094D01*
X-365604Y187908D01*
X-365638Y187933D01*
X-365667Y187964D01*
X-365730Y187996D01*
X-365788Y188037D01*
X-365829Y188047D01*
X-365867Y188067D01*
X-365956Y188080D01*
X-366005Y188093D01*
X-366026Y188090D01*
X-366052Y188094D01*
X-371684Y188094D01*
X-371737Y188085D01*
X-371791Y188085D01*
X-371847Y188065D01*
X-371905Y188055D01*
X-371951Y188027D01*
X-372002Y188009D01*
X-372047Y187970D01*
X-372098Y187940D01*
X-372132Y187898D01*
X-372173Y187863D01*
X-372210Y187802D01*
X-372239Y187766D01*
X-372249Y187737D01*
X-372270Y187703D01*
X-373200Y185457D01*
X-375457Y183200D01*
X-378405Y181979D01*
X-381595Y181979D01*
X-384543Y183200D01*
X-386800Y185457D01*
X-388021Y188405D01*
X-388021Y191595D01*
X-386800Y194543D01*
X-384543Y196800D01*
X-381595Y198021D01*
X-378405Y198021D01*
X-375457Y196800D01*
X-373200Y194543D01*
X-372270Y192297D01*
X-372241Y192252D01*
X-372220Y192202D01*
X-372181Y192158D01*
X-372149Y192108D01*
X-372106Y192076D01*
X-372069Y192036D01*
X-372017Y192009D01*
X-371969Y191974D01*
X-371918Y191958D01*
X-371869Y191933D01*
X-371799Y191923D01*
X-371754Y191910D01*
X-371724Y191912D01*
X-371684Y191906D01*
X-364211Y191906D01*
X-304396Y132092D01*
X-304362Y132067D01*
X-304333Y132036D01*
X-304270Y132004D01*
X-304212Y131963D01*
X-304171Y131953D01*
X-304133Y131933D01*
X-304044Y131920D01*
X-303995Y131907D01*
X-303974Y131910D01*
X-303948Y131906D01*
X-194211Y131906D01*
X-98094Y35789D01*
X-98094Y-15356D01*
X-98087Y-15398D01*
X-98089Y-15440D01*
X-98067Y-15507D01*
X-98055Y-15577D01*
X-98033Y-15613D01*
X-98020Y-15654D01*
X-97966Y-15726D01*
X-97940Y-15770D01*
X-97924Y-15783D01*
X-97908Y-15804D01*
X-95554Y-18158D01*
X-95554Y-21842D01*
X-98158Y-24446D01*
X-101842Y-24446D01*
G37*
%LPD*%
%LPC*%
G36*
X111033Y-43541D02*
X111033Y-43541D01*
X108959Y-41467D01*
X108959Y-39417D01*
X108952Y-39375D01*
X108954Y-39333D01*
X108932Y-39266D01*
X108920Y-39196D01*
X108898Y-39160D01*
X108885Y-39119D01*
X108831Y-39047D01*
X108805Y-39003D01*
X108789Y-38990D01*
X108773Y-38969D01*
X48094Y21711D01*
X48094Y26448D01*
X48087Y26490D01*
X48089Y26532D01*
X48067Y26599D01*
X48055Y26669D01*
X48033Y26705D01*
X48020Y26746D01*
X47966Y26818D01*
X47940Y26862D01*
X47924Y26875D01*
X47908Y26896D01*
X44396Y30408D01*
X44362Y30433D01*
X44333Y30464D01*
X44270Y30496D01*
X44212Y30537D01*
X44171Y30547D01*
X44133Y30567D01*
X44044Y30580D01*
X43995Y30593D01*
X43974Y30590D01*
X43948Y30594D01*
X31711Y30594D01*
X4396Y57908D01*
X4362Y57933D01*
X4333Y57964D01*
X4270Y57996D01*
X4212Y58037D01*
X4171Y58047D01*
X4133Y58067D01*
X4044Y58080D01*
X3995Y58093D01*
X3974Y58090D01*
X3948Y58094D01*
X-4136Y58094D01*
X-4177Y58087D01*
X-4220Y58089D01*
X-4287Y58067D01*
X-4356Y58055D01*
X-4393Y58033D01*
X-4433Y58020D01*
X-4506Y57966D01*
X-4550Y57940D01*
X-4563Y57924D01*
X-4584Y57908D01*
X-6033Y56459D01*
X-8967Y56459D01*
X-11041Y58533D01*
X-11041Y60665D01*
X-11052Y60730D01*
X-11054Y60796D01*
X-11072Y60839D01*
X-11080Y60886D01*
X-11114Y60943D01*
X-11139Y61003D01*
X-11170Y61038D01*
X-11195Y61079D01*
X-11246Y61121D01*
X-11290Y61169D01*
X-11332Y61191D01*
X-11369Y61220D01*
X-11431Y61241D01*
X-11490Y61272D01*
X-11544Y61280D01*
X-11581Y61292D01*
X-11621Y61291D01*
X-11675Y61299D01*
X-13967Y61299D01*
X-16041Y63373D01*
X-16041Y66307D01*
X-13967Y68381D01*
X-11033Y68381D01*
X-8959Y66307D01*
X-8959Y64175D01*
X-8948Y64110D01*
X-8946Y64044D01*
X-8928Y64001D01*
X-8920Y63954D01*
X-8886Y63897D01*
X-8861Y63837D01*
X-8830Y63802D01*
X-8805Y63761D01*
X-8754Y63719D01*
X-8710Y63671D01*
X-8668Y63649D01*
X-8631Y63620D01*
X-8569Y63599D01*
X-8510Y63568D01*
X-8456Y63560D01*
X-8419Y63548D01*
X-8379Y63549D01*
X-8325Y63541D01*
X-6033Y63541D01*
X-4584Y62092D01*
X-4549Y62067D01*
X-4521Y62036D01*
X-4458Y62004D01*
X-4400Y61963D01*
X-4359Y61953D01*
X-4321Y61933D01*
X-4231Y61920D01*
X-4183Y61907D01*
X-4162Y61910D01*
X-4136Y61906D01*
X5789Y61906D01*
X33104Y34592D01*
X33138Y34567D01*
X33167Y34536D01*
X33230Y34504D01*
X33288Y34463D01*
X33329Y34453D01*
X33367Y34433D01*
X33456Y34420D01*
X33505Y34407D01*
X33526Y34410D01*
X33552Y34406D01*
X45789Y34406D01*
X51906Y28289D01*
X51906Y23552D01*
X51913Y23510D01*
X51911Y23468D01*
X51933Y23401D01*
X51945Y23331D01*
X51967Y23295D01*
X51980Y23254D01*
X52034Y23182D01*
X52060Y23138D01*
X52076Y23125D01*
X52092Y23104D01*
X111469Y-36273D01*
X111503Y-36298D01*
X111532Y-36329D01*
X111595Y-36361D01*
X111653Y-36402D01*
X111694Y-36412D01*
X111732Y-36432D01*
X111821Y-36445D01*
X111870Y-36458D01*
X111891Y-36455D01*
X111917Y-36459D01*
X113967Y-36459D01*
X116041Y-38533D01*
X116041Y-41467D01*
X113967Y-43541D01*
X111033Y-43541D01*
G37*
%LPD*%
%LPC*%
G36*
X-377586Y241999D02*
X-377586Y241999D01*
X-382364Y243979D01*
X-386021Y247636D01*
X-388001Y252414D01*
X-388001Y257586D01*
X-386021Y262364D01*
X-382364Y266021D01*
X-377586Y268001D01*
X-372414Y268001D01*
X-367636Y266021D01*
X-363979Y262364D01*
X-361999Y257586D01*
X-361999Y252414D01*
X-363979Y247636D01*
X-367636Y243979D01*
X-372414Y241999D01*
X-377586Y241999D01*
G37*
%LPD*%
%LPC*%
G36*
X-59586Y-203001D02*
X-59586Y-203001D01*
X-64364Y-201021D01*
X-68021Y-197364D01*
X-70001Y-192586D01*
X-70001Y-187414D01*
X-68021Y-182636D01*
X-64364Y-178979D01*
X-59586Y-176999D01*
X-54414Y-176999D01*
X-49636Y-178979D01*
X-45979Y-182636D01*
X-43999Y-187414D01*
X-43999Y-192586D01*
X-45979Y-197364D01*
X-49636Y-201021D01*
X-54414Y-203001D01*
X-59586Y-203001D01*
G37*
%LPD*%
%LPC*%
G36*
X54414Y-203001D02*
X54414Y-203001D01*
X49636Y-201021D01*
X45979Y-197364D01*
X43999Y-192586D01*
X43999Y-187414D01*
X45979Y-182636D01*
X49636Y-178979D01*
X54414Y-176999D01*
X59586Y-176999D01*
X64364Y-178979D01*
X68021Y-182636D01*
X70001Y-187414D01*
X70001Y-192586D01*
X68021Y-197364D01*
X64364Y-201021D01*
X59586Y-203001D01*
X54414Y-203001D01*
G37*
%LPD*%
%LPC*%
G36*
X372414Y-68001D02*
X372414Y-68001D01*
X367636Y-66021D01*
X363979Y-62364D01*
X361999Y-57586D01*
X361999Y-52414D01*
X363979Y-47636D01*
X367636Y-43979D01*
X372414Y-41999D01*
X377586Y-41999D01*
X382364Y-43979D01*
X386021Y-47636D01*
X388001Y-52414D01*
X388001Y-57586D01*
X386021Y-62364D01*
X382364Y-66021D01*
X377586Y-68001D01*
X372414Y-68001D01*
G37*
%LPD*%
%LPC*%
G36*
X372414Y241999D02*
X372414Y241999D01*
X367636Y243979D01*
X363979Y247636D01*
X361999Y252414D01*
X361999Y257586D01*
X363979Y262364D01*
X367636Y266021D01*
X372414Y268001D01*
X377586Y268001D01*
X382364Y266021D01*
X386021Y262364D01*
X388001Y257586D01*
X388001Y252414D01*
X386021Y247636D01*
X382364Y243979D01*
X377586Y241999D01*
X372414Y241999D01*
G37*
%LPD*%
%LPC*%
G36*
X-377586Y-68001D02*
X-377586Y-68001D01*
X-382364Y-66021D01*
X-386021Y-62364D01*
X-388001Y-57586D01*
X-388001Y-52414D01*
X-386021Y-47636D01*
X-382364Y-43979D01*
X-377586Y-41999D01*
X-372414Y-41999D01*
X-367636Y-43979D01*
X-363979Y-47636D01*
X-361999Y-52414D01*
X-361999Y-57586D01*
X-363979Y-62364D01*
X-367636Y-66021D01*
X-372414Y-68001D01*
X-377586Y-68001D01*
G37*
%LPD*%
%LPC*%
G36*
X-27192Y-276021D02*
X-27192Y-276021D01*
X-31243Y-274343D01*
X-34343Y-271243D01*
X-36021Y-267192D01*
X-36021Y-262808D01*
X-34343Y-258757D01*
X-31243Y-255657D01*
X-27192Y-253979D01*
X-22808Y-253979D01*
X-18757Y-255657D01*
X-15657Y-258757D01*
X-13979Y-262808D01*
X-13979Y-267192D01*
X-15657Y-271243D01*
X-18757Y-274343D01*
X-22808Y-276021D01*
X-27192Y-276021D01*
G37*
%LPD*%
%LPC*%
G36*
X-27192Y-131021D02*
X-27192Y-131021D01*
X-31243Y-129343D01*
X-34343Y-126243D01*
X-36021Y-122192D01*
X-36021Y-117808D01*
X-34343Y-113757D01*
X-31243Y-110657D01*
X-27192Y-108979D01*
X-22808Y-108979D01*
X-18757Y-110657D01*
X-15657Y-113757D01*
X-13979Y-117808D01*
X-13979Y-122192D01*
X-15657Y-126243D01*
X-18757Y-129343D01*
X-22808Y-131021D01*
X-27192Y-131021D01*
G37*
%LPD*%
%LPC*%
G36*
X22808Y-276021D02*
X22808Y-276021D01*
X18757Y-274343D01*
X15657Y-271243D01*
X13979Y-267192D01*
X13979Y-262808D01*
X15657Y-258757D01*
X18757Y-255657D01*
X22808Y-253979D01*
X27192Y-253979D01*
X31243Y-255657D01*
X34343Y-258757D01*
X36021Y-262808D01*
X36021Y-267192D01*
X34343Y-271243D01*
X31243Y-274343D01*
X27192Y-276021D01*
X22808Y-276021D01*
G37*
%LPD*%
%LPC*%
G36*
X-246745Y-103771D02*
X-246745Y-103771D01*
X-249968Y-102435D01*
X-252435Y-99968D01*
X-253771Y-96745D01*
X-253771Y-93255D01*
X-252435Y-90032D01*
X-249968Y-87565D01*
X-246745Y-86229D01*
X-243255Y-86229D01*
X-240032Y-87565D01*
X-237565Y-90032D01*
X-236229Y-93255D01*
X-236229Y-96745D01*
X-237565Y-99968D01*
X-240032Y-102435D01*
X-243255Y-103771D01*
X-246745Y-103771D01*
G37*
%LPD*%
%LPC*%
G36*
X-111745Y-103771D02*
X-111745Y-103771D01*
X-114968Y-102435D01*
X-117435Y-99968D01*
X-118771Y-96745D01*
X-118771Y-93255D01*
X-117435Y-90032D01*
X-114968Y-87565D01*
X-111745Y-86229D01*
X-108255Y-86229D01*
X-105032Y-87565D01*
X-102565Y-90032D01*
X-101229Y-93255D01*
X-101229Y-96745D01*
X-102565Y-99968D01*
X-105032Y-102435D01*
X-108255Y-103771D01*
X-111745Y-103771D01*
G37*
%LPD*%
%LPC*%
G36*
X-156745Y-103771D02*
X-156745Y-103771D01*
X-159968Y-102435D01*
X-162435Y-99968D01*
X-163771Y-96745D01*
X-163771Y-93255D01*
X-162435Y-90032D01*
X-159968Y-87565D01*
X-156745Y-86229D01*
X-153255Y-86229D01*
X-150032Y-87565D01*
X-147565Y-90032D01*
X-146229Y-93255D01*
X-146229Y-96745D01*
X-147565Y-99968D01*
X-150032Y-102435D01*
X-153255Y-103771D01*
X-156745Y-103771D01*
G37*
%LPD*%
%LPC*%
G36*
X378405Y181979D02*
X378405Y181979D01*
X375457Y183200D01*
X373200Y185457D01*
X371979Y188405D01*
X371979Y191595D01*
X373200Y194543D01*
X375457Y196800D01*
X378405Y198021D01*
X381595Y198021D01*
X384543Y196800D01*
X386800Y194543D01*
X388021Y191595D01*
X388021Y188405D01*
X386800Y185457D01*
X384543Y183200D01*
X381595Y181979D01*
X378405Y181979D01*
G37*
%LPD*%
%LPC*%
G36*
X378405Y201979D02*
X378405Y201979D01*
X375457Y203200D01*
X373200Y205457D01*
X371979Y208405D01*
X371979Y211595D01*
X373200Y214543D01*
X375457Y216800D01*
X378405Y218021D01*
X381595Y218021D01*
X384543Y216800D01*
X386800Y214543D01*
X388021Y211595D01*
X388021Y208405D01*
X386800Y205457D01*
X384543Y203200D01*
X381595Y201979D01*
X378405Y201979D01*
G37*
%LPD*%
%LPC*%
G36*
X-381595Y-18021D02*
X-381595Y-18021D01*
X-384543Y-16800D01*
X-386800Y-14543D01*
X-388021Y-11595D01*
X-388021Y-8405D01*
X-386800Y-5457D01*
X-384543Y-3200D01*
X-381595Y-1979D01*
X-378405Y-1979D01*
X-375457Y-3200D01*
X-373200Y-5457D01*
X-371979Y-8405D01*
X-371979Y-11595D01*
X-373200Y-14543D01*
X-375457Y-16800D01*
X-378405Y-18021D01*
X-381595Y-18021D01*
G37*
%LPD*%
%LPC*%
G36*
X378405Y-18021D02*
X378405Y-18021D01*
X375457Y-16800D01*
X373200Y-14543D01*
X371979Y-11595D01*
X371979Y-8405D01*
X373200Y-5457D01*
X375457Y-3200D01*
X378405Y-1979D01*
X381595Y-1979D01*
X384543Y-3200D01*
X386800Y-5457D01*
X388021Y-8405D01*
X388021Y-11595D01*
X386800Y-14543D01*
X384543Y-16800D01*
X381595Y-18021D01*
X378405Y-18021D01*
G37*
%LPD*%
%LPC*%
G36*
X378405Y1979D02*
X378405Y1979D01*
X375457Y3200D01*
X373200Y5457D01*
X371979Y8405D01*
X371979Y11595D01*
X373200Y14543D01*
X375457Y16800D01*
X378405Y18021D01*
X381595Y18021D01*
X384543Y16800D01*
X386800Y14543D01*
X388021Y11595D01*
X388021Y8405D01*
X386800Y5457D01*
X384543Y3200D01*
X381595Y1979D01*
X378405Y1979D01*
G37*
%LPD*%
%LPC*%
G36*
X-381595Y1979D02*
X-381595Y1979D01*
X-384543Y3200D01*
X-386800Y5457D01*
X-388021Y8405D01*
X-388021Y11595D01*
X-386800Y14543D01*
X-384543Y16800D01*
X-381595Y18021D01*
X-378405Y18021D01*
X-375457Y16800D01*
X-373200Y14543D01*
X-371979Y11595D01*
X-371979Y8405D01*
X-373200Y5457D01*
X-375457Y3200D01*
X-378405Y1979D01*
X-381595Y1979D01*
G37*
%LPD*%
%LPC*%
G36*
X378405Y161979D02*
X378405Y161979D01*
X375457Y163200D01*
X373200Y165457D01*
X371979Y168405D01*
X371979Y171595D01*
X373200Y174543D01*
X375457Y176800D01*
X378405Y178021D01*
X381595Y178021D01*
X384543Y176800D01*
X386800Y174543D01*
X388021Y171595D01*
X388021Y168405D01*
X386800Y165457D01*
X384543Y163200D01*
X381595Y161979D01*
X378405Y161979D01*
G37*
%LPD*%
%LPC*%
G36*
X-381595Y21979D02*
X-381595Y21979D01*
X-384543Y23200D01*
X-386800Y25457D01*
X-388021Y28405D01*
X-388021Y31595D01*
X-386800Y34543D01*
X-384543Y36800D01*
X-381595Y38021D01*
X-378405Y38021D01*
X-375457Y36800D01*
X-373200Y34543D01*
X-371979Y31595D01*
X-371979Y28405D01*
X-373200Y25457D01*
X-375457Y23200D01*
X-378405Y21979D01*
X-381595Y21979D01*
G37*
%LPD*%
%LPC*%
G36*
X-381595Y41979D02*
X-381595Y41979D01*
X-384543Y43200D01*
X-386800Y45457D01*
X-388021Y48405D01*
X-388021Y51595D01*
X-386800Y54543D01*
X-384543Y56800D01*
X-381595Y58021D01*
X-378405Y58021D01*
X-375457Y56800D01*
X-373200Y54543D01*
X-371979Y51595D01*
X-371979Y48405D01*
X-373200Y45457D01*
X-375457Y43200D01*
X-378405Y41979D01*
X-381595Y41979D01*
G37*
%LPD*%
%LPC*%
G36*
X378405Y41979D02*
X378405Y41979D01*
X375457Y43200D01*
X373200Y45457D01*
X371979Y48405D01*
X371979Y51595D01*
X373200Y54543D01*
X375457Y56800D01*
X378405Y58021D01*
X381595Y58021D01*
X384543Y56800D01*
X386800Y54543D01*
X388021Y51595D01*
X388021Y48405D01*
X386800Y45457D01*
X384543Y43200D01*
X381595Y41979D01*
X378405Y41979D01*
G37*
%LPD*%
%LPC*%
G36*
X-381595Y201979D02*
X-381595Y201979D01*
X-384543Y203200D01*
X-386800Y205457D01*
X-388021Y208405D01*
X-388021Y211595D01*
X-386800Y214543D01*
X-384543Y216800D01*
X-381595Y218021D01*
X-378405Y218021D01*
X-375457Y216800D01*
X-373200Y214543D01*
X-371979Y211595D01*
X-371979Y208405D01*
X-373200Y205457D01*
X-375457Y203200D01*
X-378405Y201979D01*
X-381595Y201979D01*
G37*
%LPD*%
%LPC*%
G36*
X-381595Y61979D02*
X-381595Y61979D01*
X-384543Y63200D01*
X-386800Y65457D01*
X-388021Y68405D01*
X-388021Y71595D01*
X-386800Y74543D01*
X-384543Y76800D01*
X-381595Y78021D01*
X-378405Y78021D01*
X-375457Y76800D01*
X-373200Y74543D01*
X-371979Y71595D01*
X-371979Y68405D01*
X-373200Y65457D01*
X-375457Y63200D01*
X-378405Y61979D01*
X-381595Y61979D01*
G37*
%LPD*%
%LPC*%
G36*
X378405Y61979D02*
X378405Y61979D01*
X375457Y63200D01*
X373200Y65457D01*
X371979Y68405D01*
X371979Y71595D01*
X373200Y74543D01*
X375457Y76800D01*
X378405Y78021D01*
X381595Y78021D01*
X384543Y76800D01*
X386800Y74543D01*
X388021Y71595D01*
X388021Y68405D01*
X386800Y65457D01*
X384543Y63200D01*
X381595Y61979D01*
X378405Y61979D01*
G37*
%LPD*%
%LPC*%
G36*
X-381595Y81979D02*
X-381595Y81979D01*
X-384543Y83200D01*
X-386800Y85457D01*
X-388021Y88405D01*
X-388021Y91595D01*
X-386800Y94543D01*
X-384543Y96800D01*
X-381595Y98021D01*
X-378405Y98021D01*
X-375457Y96800D01*
X-373200Y94543D01*
X-371979Y91595D01*
X-371979Y88405D01*
X-373200Y85457D01*
X-375457Y83200D01*
X-378405Y81979D01*
X-381595Y81979D01*
G37*
%LPD*%
%LPC*%
G36*
X378405Y141979D02*
X378405Y141979D01*
X375457Y143200D01*
X373200Y145457D01*
X371979Y148405D01*
X371979Y151595D01*
X373200Y154543D01*
X375457Y156800D01*
X378405Y158021D01*
X381595Y158021D01*
X384543Y156800D01*
X386800Y154543D01*
X388021Y151595D01*
X388021Y148405D01*
X386800Y145457D01*
X384543Y143200D01*
X381595Y141979D01*
X378405Y141979D01*
G37*
%LPD*%
%LPC*%
G36*
X-381595Y141979D02*
X-381595Y141979D01*
X-384543Y143200D01*
X-386800Y145457D01*
X-388021Y148405D01*
X-388021Y151595D01*
X-386800Y154543D01*
X-384543Y156800D01*
X-381595Y158021D01*
X-378405Y158021D01*
X-375457Y156800D01*
X-373200Y154543D01*
X-371979Y151595D01*
X-371979Y148405D01*
X-373200Y145457D01*
X-375457Y143200D01*
X-378405Y141979D01*
X-381595Y141979D01*
G37*
%LPD*%
%LPC*%
G36*
X378405Y121979D02*
X378405Y121979D01*
X375457Y123200D01*
X373200Y125457D01*
X371979Y128405D01*
X371979Y131595D01*
X373200Y134543D01*
X375457Y136800D01*
X378405Y138021D01*
X381595Y138021D01*
X384543Y136800D01*
X386800Y134543D01*
X388021Y131595D01*
X388021Y128405D01*
X386800Y125457D01*
X384543Y123200D01*
X381595Y121979D01*
X378405Y121979D01*
G37*
%LPD*%
%LPC*%
G36*
X-381595Y121979D02*
X-381595Y121979D01*
X-384543Y123200D01*
X-386800Y125457D01*
X-388021Y128405D01*
X-388021Y131595D01*
X-386800Y134543D01*
X-384543Y136800D01*
X-381595Y138021D01*
X-378405Y138021D01*
X-375457Y136800D01*
X-373200Y134543D01*
X-371979Y131595D01*
X-371979Y128405D01*
X-373200Y125457D01*
X-375457Y123200D01*
X-378405Y121979D01*
X-381595Y121979D01*
G37*
%LPD*%
%LPC*%
G36*
X378405Y101979D02*
X378405Y101979D01*
X375457Y103200D01*
X373200Y105457D01*
X371979Y108405D01*
X371979Y111595D01*
X373200Y114543D01*
X375457Y116800D01*
X378405Y118021D01*
X381595Y118021D01*
X384543Y116800D01*
X386800Y114543D01*
X388021Y111595D01*
X388021Y108405D01*
X386800Y105457D01*
X384543Y103200D01*
X381595Y101979D01*
X378405Y101979D01*
G37*
%LPD*%
%LPC*%
G36*
X-11467Y143959D02*
X-11467Y143959D01*
X-13541Y146033D01*
X-13541Y148967D01*
X-11467Y151041D01*
X-8533Y151041D01*
X-6698Y149206D01*
X-6644Y149168D01*
X-6597Y149123D01*
X-6553Y149105D01*
X-6514Y149078D01*
X-6451Y149061D01*
X-6390Y149036D01*
X-6343Y149034D01*
X-6297Y149022D01*
X-6232Y149029D01*
X-6166Y149026D01*
X-6121Y149040D01*
X-6074Y149045D01*
X-6015Y149074D01*
X-5952Y149094D01*
X-5908Y149127D01*
X-5873Y149144D01*
X-5846Y149173D01*
X-5801Y149206D01*
X-3967Y151041D01*
X-1675Y151041D01*
X-1610Y151052D01*
X-1544Y151054D01*
X-1501Y151072D01*
X-1454Y151080D01*
X-1397Y151114D01*
X-1337Y151139D01*
X-1302Y151170D01*
X-1261Y151195D01*
X-1219Y151246D01*
X-1171Y151290D01*
X-1149Y151332D01*
X-1120Y151369D01*
X-1099Y151431D01*
X-1068Y151490D01*
X-1060Y151544D01*
X-1048Y151581D01*
X-1049Y151621D01*
X-1041Y151675D01*
X-1041Y153967D01*
X1033Y156041D01*
X3967Y156041D01*
X6041Y153967D01*
X6041Y151033D01*
X3967Y148959D01*
X1675Y148959D01*
X1610Y148948D01*
X1544Y148946D01*
X1501Y148928D01*
X1454Y148920D01*
X1397Y148886D01*
X1337Y148861D01*
X1302Y148830D01*
X1261Y148805D01*
X1219Y148754D01*
X1171Y148710D01*
X1149Y148668D01*
X1120Y148631D01*
X1099Y148569D01*
X1068Y148510D01*
X1060Y148456D01*
X1048Y148419D01*
X1049Y148379D01*
X1041Y148325D01*
X1041Y146033D01*
X-1033Y143959D01*
X-3967Y143959D01*
X-5801Y145794D01*
X-5856Y145832D01*
X-5903Y145877D01*
X-5947Y145895D01*
X-5986Y145922D01*
X-6049Y145939D01*
X-6110Y145964D01*
X-6157Y145966D01*
X-6203Y145978D01*
X-6268Y145971D01*
X-6334Y145974D01*
X-6379Y145960D01*
X-6426Y145955D01*
X-6485Y145926D01*
X-6548Y145906D01*
X-6592Y145873D01*
X-6627Y145856D01*
X-6654Y145827D01*
X-6698Y145794D01*
X-8533Y143959D01*
X-11467Y143959D01*
G37*
%LPD*%
%LPC*%
G36*
X1033Y131459D02*
X1033Y131459D01*
X-1041Y133533D01*
X-1041Y136467D01*
X1033Y138541D01*
X3083Y138541D01*
X3125Y138548D01*
X3167Y138546D01*
X3234Y138568D01*
X3304Y138580D01*
X3340Y138602D01*
X3381Y138615D01*
X3453Y138669D01*
X3497Y138695D01*
X3510Y138711D01*
X3531Y138727D01*
X11273Y146469D01*
X11298Y146503D01*
X11329Y146532D01*
X11361Y146595D01*
X11402Y146653D01*
X11412Y146694D01*
X11432Y146732D01*
X11445Y146821D01*
X11458Y146870D01*
X11455Y146891D01*
X11459Y146917D01*
X11459Y148967D01*
X13533Y151041D01*
X16467Y151041D01*
X18541Y148967D01*
X18541Y146033D01*
X16467Y143959D01*
X14417Y143959D01*
X14375Y143952D01*
X14333Y143954D01*
X14266Y143932D01*
X14196Y143920D01*
X14160Y143898D01*
X14119Y143885D01*
X14047Y143831D01*
X14003Y143805D01*
X13990Y143789D01*
X13983Y143785D01*
X13980Y143782D01*
X13969Y143773D01*
X6227Y136031D01*
X6202Y135997D01*
X6171Y135968D01*
X6139Y135905D01*
X6098Y135847D01*
X6088Y135806D01*
X6068Y135768D01*
X6055Y135679D01*
X6042Y135630D01*
X6045Y135609D01*
X6041Y135583D01*
X6041Y133533D01*
X3967Y131459D01*
X1033Y131459D01*
G37*
%LPD*%
%LPC*%
G36*
X1269Y-266269D02*
X1269Y-266269D01*
X12243Y-266269D01*
X11988Y-267878D01*
X11390Y-269718D01*
X10512Y-271442D01*
X9375Y-273007D01*
X8007Y-274375D01*
X6442Y-275512D01*
X4718Y-276390D01*
X2878Y-276988D01*
X1269Y-277243D01*
X1269Y-266269D01*
G37*
%LPD*%
%LPC*%
G36*
X-2878Y-276988D02*
X-2878Y-276988D01*
X-4718Y-276390D01*
X-6442Y-275512D01*
X-8007Y-274375D01*
X-9375Y-273007D01*
X-10512Y-271442D01*
X-11390Y-269718D01*
X-11988Y-267878D01*
X-12243Y-266269D01*
X-1269Y-266269D01*
X-1269Y-277243D01*
X-2878Y-276988D01*
G37*
%LPD*%
%LPC*%
G36*
X26269Y-121269D02*
X26269Y-121269D01*
X37243Y-121269D01*
X36988Y-122878D01*
X36390Y-124718D01*
X35512Y-126442D01*
X34375Y-128007D01*
X33007Y-129375D01*
X31442Y-130512D01*
X29718Y-131390D01*
X27878Y-131988D01*
X26269Y-132243D01*
X26269Y-121269D01*
G37*
%LPD*%
%LPC*%
G36*
X22122Y-131988D02*
X22122Y-131988D01*
X20282Y-131390D01*
X18558Y-130512D01*
X16993Y-129375D01*
X15625Y-128007D01*
X14488Y-126442D01*
X13610Y-124718D01*
X13012Y-122878D01*
X12757Y-121269D01*
X23731Y-121269D01*
X23731Y-132243D01*
X22122Y-131988D01*
G37*
%LPD*%
%LPC*%
G36*
X-12243Y-263731D02*
X-12243Y-263731D01*
X-11988Y-262122D01*
X-11390Y-260282D01*
X-10512Y-258558D01*
X-9375Y-256993D01*
X-8007Y-255625D01*
X-6442Y-254488D01*
X-4718Y-253610D01*
X-2878Y-253012D01*
X-1269Y-252757D01*
X-1269Y-263731D01*
X-12243Y-263731D01*
G37*
%LPD*%
%LPC*%
G36*
X1269Y-263731D02*
X1269Y-263731D01*
X1269Y-252757D01*
X2878Y-253012D01*
X4718Y-253610D01*
X6442Y-254488D01*
X8007Y-255625D01*
X9375Y-256993D01*
X10512Y-258558D01*
X11390Y-260282D01*
X11988Y-262122D01*
X12243Y-263731D01*
X1269Y-263731D01*
G37*
%LPD*%
%LPC*%
G36*
X26269Y-118731D02*
X26269Y-118731D01*
X26269Y-107757D01*
X27878Y-108012D01*
X29718Y-108610D01*
X31442Y-109488D01*
X33007Y-110625D01*
X34375Y-111993D01*
X35512Y-113558D01*
X36390Y-115282D01*
X36988Y-117122D01*
X37243Y-118731D01*
X26269Y-118731D01*
G37*
%LPD*%
%LPC*%
G36*
X12757Y-118731D02*
X12757Y-118731D01*
X13012Y-117122D01*
X13610Y-115282D01*
X14488Y-113558D01*
X15625Y-111993D01*
X16993Y-110625D01*
X18558Y-109488D01*
X20282Y-108610D01*
X22122Y-108012D01*
X23731Y-107757D01*
X23731Y-118731D01*
X12757Y-118731D01*
G37*
%LPD*%
%LPC*%
G36*
X236033Y46459D02*
X236033Y46459D01*
X233959Y48533D01*
X233959Y51467D01*
X236033Y53541D01*
X238967Y53541D01*
X240802Y51706D01*
X240856Y51668D01*
X240903Y51623D01*
X240947Y51605D01*
X240986Y51578D01*
X241049Y51561D01*
X241110Y51536D01*
X241157Y51534D01*
X241203Y51522D01*
X241268Y51529D01*
X241334Y51526D01*
X241379Y51540D01*
X241426Y51545D01*
X241485Y51574D01*
X241548Y51594D01*
X241592Y51627D01*
X241627Y51644D01*
X241654Y51673D01*
X241699Y51706D01*
X243533Y53541D01*
X246467Y53541D01*
X248541Y51467D01*
X248541Y48533D01*
X246467Y46459D01*
X243533Y46459D01*
X241699Y48294D01*
X241644Y48332D01*
X241597Y48377D01*
X241553Y48395D01*
X241514Y48422D01*
X241451Y48439D01*
X241390Y48464D01*
X241343Y48466D01*
X241297Y48478D01*
X241232Y48471D01*
X241166Y48474D01*
X241121Y48460D01*
X241074Y48455D01*
X241015Y48426D01*
X240952Y48406D01*
X240908Y48373D01*
X240873Y48356D01*
X240846Y48327D01*
X240802Y48294D01*
X238967Y46459D01*
X236033Y46459D01*
G37*
%LPD*%
%LPC*%
G36*
X-173967Y181459D02*
X-173967Y181459D01*
X-176041Y183533D01*
X-176041Y186467D01*
X-174206Y188302D01*
X-174168Y188356D01*
X-174123Y188403D01*
X-174105Y188447D01*
X-174078Y188486D01*
X-174061Y188549D01*
X-174036Y188610D01*
X-174034Y188657D01*
X-174022Y188703D01*
X-174029Y188768D01*
X-174026Y188834D01*
X-174040Y188879D01*
X-174045Y188926D01*
X-174074Y188985D01*
X-174094Y189048D01*
X-174127Y189092D01*
X-174144Y189127D01*
X-174173Y189154D01*
X-174206Y189199D01*
X-176041Y191033D01*
X-176041Y193967D01*
X-173967Y196041D01*
X-171033Y196041D01*
X-168959Y193967D01*
X-168959Y191033D01*
X-170794Y189199D01*
X-170832Y189144D01*
X-170877Y189097D01*
X-170895Y189053D01*
X-170922Y189014D01*
X-170939Y188951D01*
X-170964Y188890D01*
X-170966Y188843D01*
X-170978Y188797D01*
X-170971Y188732D01*
X-170974Y188666D01*
X-170960Y188621D01*
X-170955Y188574D01*
X-170926Y188515D01*
X-170906Y188452D01*
X-170873Y188408D01*
X-170856Y188373D01*
X-170827Y188346D01*
X-170794Y188302D01*
X-168959Y186467D01*
X-168959Y183533D01*
X-171033Y181459D01*
X-173967Y181459D01*
G37*
%LPD*%
%LPC*%
G36*
X83533Y-93541D02*
X83533Y-93541D01*
X81459Y-91467D01*
X81459Y-88533D01*
X83533Y-86459D01*
X85825Y-86459D01*
X85890Y-86448D01*
X85956Y-86446D01*
X85999Y-86428D01*
X86046Y-86420D01*
X86103Y-86386D01*
X86163Y-86361D01*
X86198Y-86330D01*
X86239Y-86305D01*
X86281Y-86254D01*
X86329Y-86210D01*
X86351Y-86168D01*
X86380Y-86131D01*
X86401Y-86069D01*
X86432Y-86010D01*
X86440Y-85956D01*
X86452Y-85919D01*
X86451Y-85879D01*
X86459Y-85825D01*
X86459Y-83533D01*
X88533Y-81459D01*
X91467Y-81459D01*
X93541Y-83533D01*
X93541Y-86467D01*
X91467Y-88541D01*
X89175Y-88541D01*
X89110Y-88552D01*
X89044Y-88554D01*
X89001Y-88572D01*
X88954Y-88580D01*
X88897Y-88614D01*
X88837Y-88639D01*
X88802Y-88670D01*
X88761Y-88695D01*
X88719Y-88746D01*
X88671Y-88790D01*
X88649Y-88832D01*
X88620Y-88869D01*
X88599Y-88931D01*
X88568Y-88990D01*
X88560Y-89044D01*
X88548Y-89081D01*
X88549Y-89121D01*
X88541Y-89175D01*
X88541Y-91467D01*
X86467Y-93541D01*
X83533Y-93541D01*
G37*
%LPD*%
%LPC*%
G36*
X-386287Y-169446D02*
X-386287Y-169446D01*
X-388891Y-166842D01*
X-388891Y-163158D01*
X-386287Y-160554D01*
X-382603Y-160554D01*
X-379999Y-163158D01*
X-379999Y-166842D01*
X-382603Y-169446D01*
X-386287Y-169446D01*
G37*
%LPD*%
%LPC*%
G36*
X-349842Y-182001D02*
X-349842Y-182001D01*
X-352446Y-179397D01*
X-352446Y-175713D01*
X-349842Y-173109D01*
X-346158Y-173109D01*
X-343554Y-175713D01*
X-343554Y-179397D01*
X-346158Y-182001D01*
X-349842Y-182001D01*
G37*
%LPD*%
%LPC*%
G36*
X291158Y219359D02*
X291158Y219359D01*
X288554Y221963D01*
X288554Y225647D01*
X291158Y228251D01*
X294842Y228251D01*
X297446Y225647D01*
X297446Y221963D01*
X294842Y219359D01*
X291158Y219359D01*
G37*
%LPD*%
%LPC*%
G36*
X-316682Y100554D02*
X-316682Y100554D01*
X-319286Y103158D01*
X-319286Y106842D01*
X-316682Y109446D01*
X-312999Y109446D01*
X-310395Y106842D01*
X-310395Y103158D01*
X-312999Y100554D01*
X-316682Y100554D01*
G37*
%LPD*%
%LPC*%
G36*
X-256682Y100554D02*
X-256682Y100554D01*
X-259286Y103158D01*
X-259286Y106842D01*
X-256682Y109446D01*
X-252999Y109446D01*
X-250395Y106842D01*
X-250395Y103158D01*
X-252999Y100554D01*
X-256682Y100554D01*
G37*
%LPD*%
%LPC*%
G36*
X-207001Y100554D02*
X-207001Y100554D01*
X-209605Y103158D01*
X-209605Y106842D01*
X-207001Y109446D01*
X-203318Y109446D01*
X-200714Y106842D01*
X-200714Y103158D01*
X-203318Y100554D01*
X-207001Y100554D01*
G37*
%LPD*%
%LPC*%
G36*
X-267001Y100554D02*
X-267001Y100554D01*
X-269605Y103158D01*
X-269605Y106842D01*
X-267001Y109446D01*
X-263318Y109446D01*
X-260714Y106842D01*
X-260714Y103158D01*
X-263318Y100554D01*
X-267001Y100554D01*
G37*
%LPD*%
%LPC*%
G36*
X-238396Y75054D02*
X-238396Y75054D01*
X-241000Y77658D01*
X-241000Y81342D01*
X-238396Y83946D01*
X-234712Y83946D01*
X-232108Y81342D01*
X-232108Y77658D01*
X-234712Y75054D01*
X-238396Y75054D01*
G37*
%LPD*%
%LPC*%
G36*
X43158Y60474D02*
X43158Y60474D01*
X40554Y63078D01*
X40554Y66762D01*
X43158Y69366D01*
X46842Y69366D01*
X49446Y66762D01*
X49446Y63078D01*
X46842Y60474D01*
X43158Y60474D01*
G37*
%LPD*%
%LPC*%
G36*
X-221842Y139109D02*
X-221842Y139109D01*
X-224446Y141713D01*
X-224446Y145397D01*
X-221842Y148001D01*
X-218158Y148001D01*
X-215554Y145397D01*
X-215554Y141713D01*
X-218158Y139109D01*
X-221842Y139109D01*
G37*
%LPD*%
%LPC*%
G36*
X230168Y155304D02*
X230168Y155304D01*
X227564Y157908D01*
X227564Y161592D01*
X230168Y164196D01*
X233852Y164196D01*
X236456Y161592D01*
X236456Y157908D01*
X233852Y155304D01*
X230168Y155304D01*
G37*
%LPD*%
%LPC*%
G36*
X-226842Y48500D02*
X-226842Y48500D01*
X-229446Y51104D01*
X-229446Y54787D01*
X-226842Y57391D01*
X-223158Y57391D01*
X-220554Y54787D01*
X-220554Y51104D01*
X-223158Y48500D01*
X-226842Y48500D01*
G37*
%LPD*%
%LPC*%
G36*
X-285288Y75054D02*
X-285288Y75054D01*
X-287892Y77658D01*
X-287892Y81342D01*
X-285288Y83946D01*
X-281604Y83946D01*
X-279000Y81342D01*
X-279000Y77658D01*
X-281604Y75054D01*
X-285288Y75054D01*
G37*
%LPD*%
%LPC*%
G36*
X218158Y138500D02*
X218158Y138500D01*
X215554Y141104D01*
X215554Y144787D01*
X218158Y147391D01*
X221842Y147391D01*
X224446Y144787D01*
X224446Y141104D01*
X221842Y138500D01*
X218158Y138500D01*
G37*
%LPD*%
%LPC*%
G36*
X-314787Y-227196D02*
X-314787Y-227196D01*
X-317391Y-224592D01*
X-317391Y-220908D01*
X-314787Y-218304D01*
X-311103Y-218304D01*
X-308499Y-220908D01*
X-308499Y-224592D01*
X-311103Y-227196D01*
X-314787Y-227196D01*
G37*
%LPD*%
%LPC*%
G36*
X-202351Y-104794D02*
X-202351Y-104794D01*
X-203854Y-104305D01*
X-205262Y-103588D01*
X-206541Y-102659D01*
X-207659Y-101541D01*
X-208588Y-100262D01*
X-209305Y-98854D01*
X-209794Y-97351D01*
X-209965Y-96269D01*
X-201269Y-96269D01*
X-201269Y-104965D01*
X-202351Y-104794D01*
G37*
%LPD*%
%LPC*%
G36*
X-198731Y-96269D02*
X-198731Y-96269D01*
X-190035Y-96269D01*
X-190206Y-97351D01*
X-190695Y-98854D01*
X-191412Y-100262D01*
X-192341Y-101541D01*
X-193459Y-102659D01*
X-194738Y-103588D01*
X-196146Y-104305D01*
X-197649Y-104794D01*
X-198731Y-104965D01*
X-198731Y-96269D01*
G37*
%LPD*%
%LPC*%
G36*
X-209965Y-93731D02*
X-209965Y-93731D01*
X-209794Y-92649D01*
X-209305Y-91146D01*
X-208588Y-89738D01*
X-207659Y-88459D01*
X-206541Y-87341D01*
X-205262Y-86412D01*
X-203854Y-85695D01*
X-202351Y-85206D01*
X-201269Y-85035D01*
X-201269Y-93731D01*
X-209965Y-93731D01*
G37*
%LPD*%
%LPC*%
G36*
X-198731Y-93731D02*
X-198731Y-93731D01*
X-198731Y-85035D01*
X-197649Y-85206D01*
X-196146Y-85695D01*
X-194738Y-86412D01*
X-193459Y-87341D01*
X-192341Y-88459D01*
X-191412Y-89738D01*
X-190695Y-91146D01*
X-190206Y-92649D01*
X-190035Y-93731D01*
X-198731Y-93731D01*
G37*
%LPD*%
%LPC*%
G36*
X-389220Y171269D02*
X-389220Y171269D01*
X-388934Y172710D01*
X-388233Y174401D01*
X-387217Y175923D01*
X-385923Y177217D01*
X-384401Y178233D01*
X-382710Y178934D01*
X-381269Y179220D01*
X-381269Y171269D01*
X-389220Y171269D01*
G37*
%LPD*%
%LPC*%
G36*
X-389220Y111269D02*
X-389220Y111269D01*
X-388934Y112710D01*
X-388233Y114401D01*
X-387217Y115923D01*
X-385923Y117217D01*
X-384401Y118233D01*
X-382710Y118934D01*
X-381269Y119220D01*
X-381269Y111269D01*
X-389220Y111269D01*
G37*
%LPD*%
%LPC*%
G36*
X381269Y91269D02*
X381269Y91269D01*
X381269Y99220D01*
X382710Y98934D01*
X384401Y98233D01*
X385923Y97217D01*
X387217Y95923D01*
X388233Y94401D01*
X388934Y92710D01*
X389220Y91269D01*
X381269Y91269D01*
G37*
%LPD*%
%LPC*%
G36*
X381269Y31269D02*
X381269Y31269D01*
X381269Y39220D01*
X382710Y38934D01*
X384401Y38233D01*
X385923Y37217D01*
X387217Y35923D01*
X388233Y34401D01*
X388934Y32710D01*
X389220Y31269D01*
X381269Y31269D01*
G37*
%LPD*%
%LPC*%
G36*
X381269Y28731D02*
X381269Y28731D01*
X389220Y28731D01*
X388934Y27290D01*
X388233Y25599D01*
X387217Y24077D01*
X385923Y22783D01*
X384401Y21767D01*
X382710Y21066D01*
X381269Y20780D01*
X381269Y28731D01*
G37*
%LPD*%
%LPC*%
G36*
X370780Y31269D02*
X370780Y31269D01*
X371066Y32710D01*
X371767Y34401D01*
X372783Y35923D01*
X374077Y37217D01*
X375599Y38233D01*
X377290Y38934D01*
X378731Y39220D01*
X378731Y31269D01*
X370780Y31269D01*
G37*
%LPD*%
%LPC*%
G36*
X370780Y91269D02*
X370780Y91269D01*
X371066Y92710D01*
X371767Y94401D01*
X372783Y95923D01*
X374077Y97217D01*
X375599Y98233D01*
X377290Y98934D01*
X378731Y99220D01*
X378731Y91269D01*
X370780Y91269D01*
G37*
%LPD*%
%LPC*%
G36*
X-382710Y161066D02*
X-382710Y161066D01*
X-384401Y161767D01*
X-385923Y162783D01*
X-387217Y164077D01*
X-388233Y165599D01*
X-388934Y167290D01*
X-389220Y168731D01*
X-381269Y168731D01*
X-381269Y160780D01*
X-382710Y161066D01*
G37*
%LPD*%
%LPC*%
G36*
X-378731Y171269D02*
X-378731Y171269D01*
X-378731Y179220D01*
X-377290Y178934D01*
X-375599Y178233D01*
X-374077Y177217D01*
X-372783Y175923D01*
X-371767Y174401D01*
X-371066Y172710D01*
X-370780Y171269D01*
X-378731Y171269D01*
G37*
%LPD*%
%LPC*%
G36*
X-382710Y101066D02*
X-382710Y101066D01*
X-384401Y101767D01*
X-385923Y102783D01*
X-387217Y104077D01*
X-388233Y105599D01*
X-388934Y107290D01*
X-389220Y108731D01*
X-381269Y108731D01*
X-381269Y100780D01*
X-382710Y101066D01*
G37*
%LPD*%
%LPC*%
G36*
X-378731Y111269D02*
X-378731Y111269D01*
X-378731Y119220D01*
X-377290Y118934D01*
X-375599Y118233D01*
X-374077Y117217D01*
X-372783Y115923D01*
X-371767Y114401D01*
X-371066Y112710D01*
X-370780Y111269D01*
X-378731Y111269D01*
G37*
%LPD*%
%LPC*%
G36*
X381269Y88731D02*
X381269Y88731D01*
X389220Y88731D01*
X388934Y87290D01*
X388233Y85599D01*
X387217Y84077D01*
X385923Y82783D01*
X384401Y81767D01*
X382710Y81066D01*
X381269Y80780D01*
X381269Y88731D01*
G37*
%LPD*%
%LPC*%
G36*
X377290Y81066D02*
X377290Y81066D01*
X375599Y81767D01*
X374077Y82783D01*
X372783Y84077D01*
X371767Y85599D01*
X371066Y87290D01*
X370780Y88731D01*
X378731Y88731D01*
X378731Y80780D01*
X377290Y81066D01*
G37*
%LPD*%
%LPC*%
G36*
X-378731Y108731D02*
X-378731Y108731D01*
X-370780Y108731D01*
X-371066Y107290D01*
X-371767Y105599D01*
X-372783Y104077D01*
X-374077Y102783D01*
X-375599Y101767D01*
X-377290Y101066D01*
X-378731Y100780D01*
X-378731Y108731D01*
G37*
%LPD*%
%LPC*%
G36*
X-378731Y168731D02*
X-378731Y168731D01*
X-370780Y168731D01*
X-371066Y167290D01*
X-371767Y165599D01*
X-372783Y164077D01*
X-374077Y162783D01*
X-375599Y161767D01*
X-377290Y161066D01*
X-378731Y160780D01*
X-378731Y168731D01*
G37*
%LPD*%
%LPC*%
G36*
X377290Y21066D02*
X377290Y21066D01*
X375599Y21767D01*
X374077Y22783D01*
X372783Y24077D01*
X371767Y25599D01*
X371066Y27290D01*
X370780Y28731D01*
X378731Y28731D01*
X378731Y20780D01*
X377290Y21066D01*
G37*
%LPD*%
%LPC*%
G36*
X-66467Y133959D02*
X-66467Y133959D01*
X-68541Y136033D01*
X-68541Y138967D01*
X-66467Y141041D01*
X-63533Y141041D01*
X-61459Y138967D01*
X-61459Y136033D01*
X-63533Y133959D01*
X-66467Y133959D01*
G37*
%LPD*%
%LPC*%
G36*
X196033Y71459D02*
X196033Y71459D01*
X193959Y73533D01*
X193959Y76467D01*
X196033Y78541D01*
X198967Y78541D01*
X201041Y76467D01*
X201041Y73533D01*
X198967Y71459D01*
X196033Y71459D01*
G37*
%LPD*%
%LPC*%
G36*
X-26467Y153959D02*
X-26467Y153959D01*
X-28541Y156033D01*
X-28541Y158967D01*
X-26467Y161041D01*
X-23533Y161041D01*
X-21459Y158967D01*
X-21459Y156033D01*
X-23533Y153959D01*
X-26467Y153959D01*
G37*
%LPD*%
%LPC*%
G36*
X-36467Y156459D02*
X-36467Y156459D01*
X-38541Y158533D01*
X-38541Y161467D01*
X-36467Y163541D01*
X-33533Y163541D01*
X-31459Y161467D01*
X-31459Y158533D01*
X-33533Y156459D01*
X-36467Y156459D01*
G37*
%LPD*%
%LPC*%
G36*
X-81467Y78959D02*
X-81467Y78959D01*
X-83541Y81033D01*
X-83541Y83967D01*
X-81467Y86041D01*
X-78533Y86041D01*
X-76459Y83967D01*
X-76459Y81033D01*
X-78533Y78959D01*
X-81467Y78959D01*
G37*
%LPD*%
%LPC*%
G36*
X11033Y61299D02*
X11033Y61299D01*
X8959Y63373D01*
X8959Y66307D01*
X11033Y68381D01*
X13967Y68381D01*
X16041Y66307D01*
X16041Y63373D01*
X13967Y61299D01*
X11033Y61299D01*
G37*
%LPD*%
%LPC*%
G36*
X-83967Y133959D02*
X-83967Y133959D01*
X-86041Y136033D01*
X-86041Y138967D01*
X-83967Y141041D01*
X-81033Y141041D01*
X-78959Y138967D01*
X-78959Y136033D01*
X-81033Y133959D01*
X-83967Y133959D01*
G37*
%LPD*%
%LPC*%
G36*
X71033Y53959D02*
X71033Y53959D01*
X68959Y56033D01*
X68959Y58967D01*
X71033Y61041D01*
X73967Y61041D01*
X76041Y58967D01*
X76041Y56033D01*
X73967Y53959D01*
X71033Y53959D01*
G37*
%LPD*%
%LPC*%
G36*
X-83967Y53959D02*
X-83967Y53959D01*
X-86041Y56033D01*
X-86041Y58967D01*
X-83967Y61041D01*
X-81033Y61041D01*
X-78959Y58967D01*
X-78959Y56033D01*
X-81033Y53959D01*
X-83967Y53959D01*
G37*
%LPD*%
%LPC*%
G36*
X-56467Y52609D02*
X-56467Y52609D01*
X-58541Y54683D01*
X-58541Y57616D01*
X-56467Y59690D01*
X-53533Y59690D01*
X-51459Y57616D01*
X-51459Y54683D01*
X-53533Y52609D01*
X-56467Y52609D01*
G37*
%LPD*%
%LPC*%
G36*
X-41467Y248959D02*
X-41467Y248959D01*
X-43541Y251033D01*
X-43541Y253967D01*
X-41467Y256041D01*
X-38533Y256041D01*
X-36459Y253967D01*
X-36459Y251033D01*
X-38533Y248959D01*
X-41467Y248959D01*
G37*
%LPD*%
%LPC*%
G36*
X-31467Y238959D02*
X-31467Y238959D01*
X-33541Y241033D01*
X-33541Y243967D01*
X-31467Y246041D01*
X-28533Y246041D01*
X-26459Y243967D01*
X-26459Y241033D01*
X-28533Y238959D01*
X-31467Y238959D01*
G37*
%LPD*%
%LPC*%
G36*
X288533Y50310D02*
X288533Y50310D01*
X286459Y52384D01*
X286459Y55317D01*
X288533Y57391D01*
X291467Y57391D01*
X293541Y55317D01*
X293541Y52384D01*
X291467Y50310D01*
X288533Y50310D01*
G37*
%LPD*%
%LPC*%
G36*
X-36467Y133959D02*
X-36467Y133959D01*
X-38541Y136033D01*
X-38541Y138967D01*
X-36467Y141041D01*
X-33533Y141041D01*
X-31459Y138967D01*
X-31459Y136033D01*
X-33533Y133959D01*
X-36467Y133959D01*
G37*
%LPD*%
%LPC*%
G36*
X-63967Y123959D02*
X-63967Y123959D01*
X-66041Y126033D01*
X-66041Y128967D01*
X-63967Y131041D01*
X-61033Y131041D01*
X-58959Y128967D01*
X-58959Y126033D01*
X-61033Y123959D01*
X-63967Y123959D01*
G37*
%LPD*%
%LPC*%
G36*
X241033Y36459D02*
X241033Y36459D01*
X238959Y38533D01*
X238959Y41467D01*
X241033Y43541D01*
X243967Y43541D01*
X246041Y41467D01*
X246041Y38533D01*
X243967Y36459D01*
X241033Y36459D01*
G37*
%LPD*%
%LPC*%
G36*
X286033Y-226041D02*
X286033Y-226041D01*
X283959Y-223967D01*
X283959Y-221033D01*
X286033Y-218959D01*
X288967Y-218959D01*
X291041Y-221033D01*
X291041Y-223967D01*
X288967Y-226041D01*
X286033Y-226041D01*
G37*
%LPD*%
%LPC*%
G36*
X325618Y123709D02*
X325618Y123709D01*
X323544Y125783D01*
X323544Y128717D01*
X325618Y130791D01*
X328552Y130791D01*
X330626Y128717D01*
X330626Y125783D01*
X328552Y123709D01*
X325618Y123709D01*
G37*
%LPD*%
%LPC*%
G36*
X-81467Y31459D02*
X-81467Y31459D01*
X-83541Y33533D01*
X-83541Y36467D01*
X-81467Y38541D01*
X-78533Y38541D01*
X-76459Y36467D01*
X-76459Y33533D01*
X-78533Y31459D01*
X-81467Y31459D01*
G37*
%LPD*%
%LPC*%
G36*
X-123967Y76459D02*
X-123967Y76459D01*
X-126041Y78533D01*
X-126041Y81467D01*
X-123967Y83541D01*
X-121033Y83541D01*
X-118959Y81467D01*
X-118959Y78533D01*
X-121033Y76459D01*
X-123967Y76459D01*
G37*
%LPD*%
%LPC*%
G36*
X318650Y29209D02*
X318650Y29209D01*
X316576Y31283D01*
X316576Y34217D01*
X318650Y36291D01*
X321583Y36291D01*
X323657Y34217D01*
X323657Y31283D01*
X321583Y29209D01*
X318650Y29209D01*
G37*
%LPD*%
%LPC*%
G36*
X281033Y108959D02*
X281033Y108959D01*
X278959Y111033D01*
X278959Y113967D01*
X281033Y116041D01*
X283967Y116041D01*
X286041Y113967D01*
X286041Y111033D01*
X283967Y108959D01*
X281033Y108959D01*
G37*
%LPD*%
%LPC*%
G36*
X-271067Y220939D02*
X-271067Y220939D01*
X-273141Y223013D01*
X-273141Y225947D01*
X-271067Y228021D01*
X-268133Y228021D01*
X-266059Y225947D01*
X-266059Y223013D01*
X-268133Y220939D01*
X-271067Y220939D01*
G37*
%LPD*%
%LPC*%
G36*
X-268967Y-176041D02*
X-268967Y-176041D01*
X-271041Y-173967D01*
X-271041Y-171033D01*
X-268967Y-168959D01*
X-266033Y-168959D01*
X-263959Y-171033D01*
X-263959Y-173967D01*
X-266033Y-176041D01*
X-268967Y-176041D01*
G37*
%LPD*%
%LPC*%
G36*
X-56467Y11459D02*
X-56467Y11459D01*
X-58541Y13533D01*
X-58541Y16467D01*
X-56467Y18541D01*
X-53533Y18541D01*
X-51459Y16467D01*
X-51459Y13533D01*
X-53533Y11459D01*
X-56467Y11459D01*
G37*
%LPD*%
%LPC*%
G36*
X339993Y-168541D02*
X339993Y-168541D01*
X337919Y-166467D01*
X337919Y-163533D01*
X339993Y-161459D01*
X342927Y-161459D01*
X345001Y-163533D01*
X345001Y-166467D01*
X342927Y-168541D01*
X339993Y-168541D01*
G37*
%LPD*%
%LPC*%
G36*
X-313507Y-166291D02*
X-313507Y-166291D01*
X-315581Y-164217D01*
X-315581Y-161283D01*
X-313507Y-159209D01*
X-310573Y-159209D01*
X-308499Y-161283D01*
X-308499Y-164217D01*
X-310573Y-166291D01*
X-313507Y-166291D01*
G37*
%LPD*%
%LPC*%
G36*
X-68967Y3959D02*
X-68967Y3959D01*
X-71041Y6033D01*
X-71041Y8967D01*
X-68967Y11041D01*
X-66033Y11041D01*
X-63959Y8967D01*
X-63959Y6033D01*
X-66033Y3959D01*
X-68967Y3959D01*
G37*
%LPD*%
%LPC*%
G36*
X-281467Y-163541D02*
X-281467Y-163541D01*
X-283541Y-161467D01*
X-283541Y-158533D01*
X-281467Y-156459D01*
X-278533Y-156459D01*
X-276459Y-158533D01*
X-276459Y-161467D01*
X-278533Y-163541D01*
X-281467Y-163541D01*
G37*
%LPD*%
%LPC*%
G36*
X-66467Y173959D02*
X-66467Y173959D01*
X-68541Y176033D01*
X-68541Y178967D01*
X-66467Y181041D01*
X-63533Y181041D01*
X-61459Y178967D01*
X-61459Y176033D01*
X-63533Y173959D01*
X-66467Y173959D01*
G37*
%LPD*%
%LPC*%
G36*
X231448Y175709D02*
X231448Y175709D01*
X229374Y177783D01*
X229374Y180717D01*
X231448Y182791D01*
X234382Y182791D01*
X236456Y180717D01*
X236456Y177783D01*
X234382Y175709D01*
X231448Y175709D01*
G37*
%LPD*%
%LPC*%
G36*
X-18967Y-16041D02*
X-18967Y-16041D01*
X-21041Y-13967D01*
X-21041Y-11033D01*
X-18967Y-8959D01*
X-16033Y-8959D01*
X-13959Y-11033D01*
X-13959Y-13967D01*
X-16033Y-16041D01*
X-18967Y-16041D01*
G37*
%LPD*%
%LPC*%
G36*
X341033Y-18541D02*
X341033Y-18541D01*
X338959Y-16467D01*
X338959Y-13533D01*
X341033Y-11459D01*
X343967Y-11459D01*
X346041Y-13533D01*
X346041Y-16467D01*
X343967Y-18541D01*
X341033Y-18541D01*
G37*
%LPD*%
%LPC*%
G36*
X66033Y-18541D02*
X66033Y-18541D01*
X63959Y-16467D01*
X63959Y-13533D01*
X66033Y-11459D01*
X68967Y-11459D01*
X71041Y-13533D01*
X71041Y-16467D01*
X68967Y-18541D01*
X66033Y-18541D01*
G37*
%LPD*%
%LPC*%
G36*
X146033Y-21041D02*
X146033Y-21041D01*
X143959Y-18967D01*
X143959Y-16033D01*
X146033Y-13959D01*
X148967Y-13959D01*
X151041Y-16033D01*
X151041Y-18967D01*
X148967Y-21041D01*
X146033Y-21041D01*
G37*
%LPD*%
%LPC*%
G36*
X281033Y-31041D02*
X281033Y-31041D01*
X278959Y-28967D01*
X278959Y-26033D01*
X281033Y-23959D01*
X283967Y-23959D01*
X286041Y-26033D01*
X286041Y-28967D01*
X283967Y-31041D01*
X281033Y-31041D01*
G37*
%LPD*%
%LPC*%
G36*
X271033Y-31041D02*
X271033Y-31041D01*
X268959Y-28967D01*
X268959Y-26033D01*
X271033Y-23959D01*
X273967Y-23959D01*
X276041Y-26033D01*
X276041Y-28967D01*
X273967Y-31041D01*
X271033Y-31041D01*
G37*
%LPD*%
%LPC*%
G36*
X93533Y-41041D02*
X93533Y-41041D01*
X91459Y-38967D01*
X91459Y-36033D01*
X93533Y-33959D01*
X96467Y-33959D01*
X98541Y-36033D01*
X98541Y-38967D01*
X96467Y-41041D01*
X93533Y-41041D01*
G37*
%LPD*%
%LPC*%
G36*
X6033Y-41041D02*
X6033Y-41041D01*
X3959Y-38967D01*
X3959Y-36033D01*
X6033Y-33959D01*
X8967Y-33959D01*
X11041Y-36033D01*
X11041Y-38967D01*
X8967Y-41041D01*
X6033Y-41041D01*
G37*
%LPD*%
%LPC*%
G36*
X-133967Y-41041D02*
X-133967Y-41041D01*
X-136041Y-38967D01*
X-136041Y-36033D01*
X-133967Y-33959D01*
X-131033Y-33959D01*
X-128959Y-36033D01*
X-128959Y-38967D01*
X-131033Y-41041D01*
X-133967Y-41041D01*
G37*
%LPD*%
%LPC*%
G36*
X-186467Y-41041D02*
X-186467Y-41041D01*
X-188541Y-38967D01*
X-188541Y-36033D01*
X-186467Y-33959D01*
X-183533Y-33959D01*
X-181459Y-36033D01*
X-181459Y-38967D01*
X-183533Y-41041D01*
X-186467Y-41041D01*
G37*
%LPD*%
%LPC*%
G36*
X218533Y180310D02*
X218533Y180310D01*
X216459Y182384D01*
X216459Y185317D01*
X218533Y187391D01*
X221467Y187391D01*
X223541Y185317D01*
X223541Y182384D01*
X221467Y180310D01*
X218533Y180310D01*
G37*
%LPD*%
%LPC*%
G36*
X6033Y181619D02*
X6033Y181619D01*
X3959Y183693D01*
X3959Y186627D01*
X6033Y188701D01*
X8967Y188701D01*
X11041Y186627D01*
X11041Y183693D01*
X8967Y181619D01*
X6033Y181619D01*
G37*
%LPD*%
%LPC*%
G36*
X-278967Y-53541D02*
X-278967Y-53541D01*
X-281041Y-51467D01*
X-281041Y-48533D01*
X-278967Y-46459D01*
X-276033Y-46459D01*
X-273959Y-48533D01*
X-273959Y-51467D01*
X-276033Y-53541D01*
X-278967Y-53541D01*
G37*
%LPD*%
%LPC*%
G36*
X322219Y-66041D02*
X322219Y-66041D01*
X320145Y-63967D01*
X320145Y-61033D01*
X322219Y-58959D01*
X325153Y-58959D01*
X327227Y-61033D01*
X327227Y-63967D01*
X325153Y-66041D01*
X322219Y-66041D01*
G37*
%LPD*%
%LPC*%
G36*
X-291467Y-66041D02*
X-291467Y-66041D01*
X-293541Y-63967D01*
X-293541Y-61033D01*
X-291467Y-58959D01*
X-288533Y-58959D01*
X-286459Y-61033D01*
X-286459Y-63967D01*
X-288533Y-66041D01*
X-291467Y-66041D01*
G37*
%LPD*%
%LPC*%
G36*
X329678Y-71041D02*
X329678Y-71041D01*
X327603Y-68967D01*
X327603Y-66033D01*
X329678Y-63959D01*
X332611Y-63959D01*
X334685Y-66033D01*
X334685Y-68967D01*
X332611Y-71041D01*
X329678Y-71041D01*
G37*
%LPD*%
%LPC*%
G36*
X-146067Y-78231D02*
X-146067Y-78231D01*
X-148141Y-76157D01*
X-148141Y-73223D01*
X-146067Y-71149D01*
X-143133Y-71149D01*
X-141059Y-73223D01*
X-141059Y-76157D01*
X-143133Y-78231D01*
X-146067Y-78231D01*
G37*
%LPD*%
%LPC*%
G36*
X-61627Y153959D02*
X-61627Y153959D01*
X-63701Y156033D01*
X-63701Y158967D01*
X-61627Y161041D01*
X-58693Y161041D01*
X-56619Y158967D01*
X-56619Y156033D01*
X-58693Y153959D01*
X-61627Y153959D01*
G37*
%LPD*%
%LPC*%
G36*
X-336467Y-88541D02*
X-336467Y-88541D01*
X-338541Y-86467D01*
X-338541Y-83533D01*
X-336467Y-81459D01*
X-333533Y-81459D01*
X-331459Y-83533D01*
X-331459Y-86467D01*
X-333533Y-88541D01*
X-336467Y-88541D01*
G37*
%LPD*%
%LPC*%
G36*
X33533Y93959D02*
X33533Y93959D01*
X31459Y96033D01*
X31459Y98967D01*
X33533Y101041D01*
X36467Y101041D01*
X38541Y98967D01*
X38541Y96033D01*
X36467Y93959D01*
X33533Y93959D01*
G37*
%LPD*%
%LPC*%
G36*
X211033Y93959D02*
X211033Y93959D01*
X208959Y96033D01*
X208959Y98967D01*
X211033Y101041D01*
X213967Y101041D01*
X216041Y98967D01*
X216041Y96033D01*
X213967Y93959D01*
X211033Y93959D01*
G37*
%LPD*%
%LPC*%
G36*
X-303967Y-141041D02*
X-303967Y-141041D01*
X-306041Y-138967D01*
X-306041Y-136033D01*
X-303967Y-133959D01*
X-301033Y-133959D01*
X-298959Y-136033D01*
X-298959Y-138967D01*
X-301033Y-141041D01*
X-303967Y-141041D01*
G37*
%LPD*%
%LPC*%
G36*
X-141467Y190070D02*
X-141467Y190070D01*
X-143541Y192144D01*
X-143541Y195077D01*
X-141467Y197151D01*
X-138533Y197151D01*
X-136459Y195077D01*
X-136459Y192144D01*
X-138533Y190070D01*
X-141467Y190070D01*
G37*
%LPD*%
%LPC*%
G36*
X-81467Y190070D02*
X-81467Y190070D01*
X-83541Y192144D01*
X-83541Y195077D01*
X-81467Y197151D01*
X-78533Y197151D01*
X-76459Y195077D01*
X-76459Y192144D01*
X-78533Y190070D01*
X-81467Y190070D01*
G37*
%LPD*%
%LPC*%
G36*
X-346467Y-98541D02*
X-346467Y-98541D01*
X-348541Y-96467D01*
X-348541Y-93533D01*
X-346467Y-91459D01*
X-343533Y-91459D01*
X-341459Y-93533D01*
X-341459Y-96467D01*
X-343533Y-98541D01*
X-346467Y-98541D01*
G37*
%LPD*%
%LPC*%
G36*
X-61627Y103959D02*
X-61627Y103959D01*
X-63701Y106033D01*
X-63701Y108967D01*
X-61627Y111041D01*
X-58693Y111041D01*
X-56619Y108967D01*
X-56619Y106033D01*
X-58693Y103959D01*
X-61627Y103959D01*
G37*
%LPD*%
%LPC*%
G36*
X-31467Y190310D02*
X-31467Y190310D01*
X-33541Y192384D01*
X-33541Y195317D01*
X-31467Y197391D01*
X-28533Y197391D01*
X-26459Y195317D01*
X-26459Y192384D01*
X-28533Y190310D01*
X-31467Y190310D01*
G37*
%LPD*%
%LPC*%
G36*
X-143967Y96459D02*
X-143967Y96459D01*
X-146041Y98533D01*
X-146041Y101467D01*
X-143967Y103541D01*
X-141033Y103541D01*
X-138959Y101467D01*
X-138959Y98533D01*
X-141033Y96459D01*
X-143967Y96459D01*
G37*
%LPD*%
%LPC*%
G36*
X271033Y98959D02*
X271033Y98959D01*
X268959Y101033D01*
X268959Y103967D01*
X271033Y106041D01*
X273967Y106041D01*
X276041Y103967D01*
X276041Y101033D01*
X273967Y98959D01*
X271033Y98959D01*
G37*
%LPD*%
%LPC*%
G36*
X23533Y98959D02*
X23533Y98959D01*
X21459Y101033D01*
X21459Y103967D01*
X23533Y106041D01*
X26467Y106041D01*
X28541Y103967D01*
X28541Y101033D01*
X26467Y98959D01*
X23533Y98959D01*
G37*
%LPD*%
%LPC*%
G36*
X298533Y-116041D02*
X298533Y-116041D01*
X296459Y-113967D01*
X296459Y-111033D01*
X298533Y-108959D01*
X301467Y-108959D01*
X303541Y-111033D01*
X303541Y-113967D01*
X301467Y-116041D01*
X298533Y-116041D01*
G37*
%LPD*%
%LPC*%
G36*
X326033Y-3541D02*
X326033Y-3541D01*
X323959Y-1467D01*
X323959Y1467D01*
X326033Y3541D01*
X328967Y3541D01*
X331041Y1467D01*
X331041Y-1467D01*
X328967Y-3541D01*
X326033Y-3541D01*
G37*
%LPD*%
%LPC*%
G36*
X-241256Y86967D02*
X-241256Y86967D01*
X-243033Y88744D01*
X-243033Y91256D01*
X-241256Y93033D01*
X-238744Y93033D01*
X-236967Y91256D01*
X-236967Y88744D01*
X-238744Y86967D01*
X-241256Y86967D01*
G37*
%LPD*%
%LPC*%
G36*
X-311256Y86967D02*
X-311256Y86967D01*
X-313033Y88744D01*
X-313033Y91256D01*
X-311256Y93033D01*
X-308744Y93033D01*
X-306967Y91256D01*
X-306967Y88744D01*
X-308744Y86967D01*
X-311256Y86967D01*
G37*
%LPD*%
%LPC*%
G36*
X-301256Y86967D02*
X-301256Y86967D01*
X-303033Y88744D01*
X-303033Y91256D01*
X-301256Y93033D01*
X-298744Y93033D01*
X-296967Y91256D01*
X-296967Y88744D01*
X-298744Y86967D01*
X-301256Y86967D01*
G37*
%LPD*%
%LPC*%
G36*
X-291256Y96967D02*
X-291256Y96967D01*
X-293033Y98744D01*
X-293033Y101256D01*
X-291256Y103033D01*
X-288744Y103033D01*
X-286967Y101256D01*
X-286967Y98744D01*
X-288744Y96967D01*
X-291256Y96967D01*
G37*
%LPD*%
%LPC*%
G36*
X-231256Y96967D02*
X-231256Y96967D01*
X-233033Y98744D01*
X-233033Y101256D01*
X-231256Y103033D01*
X-228744Y103033D01*
X-226967Y101256D01*
X-226967Y98744D01*
X-228744Y96967D01*
X-231256Y96967D01*
G37*
%LPD*%
%LPC*%
G36*
X-211256Y86967D02*
X-211256Y86967D01*
X-213033Y88744D01*
X-213033Y91256D01*
X-211256Y93033D01*
X-208744Y93033D01*
X-206967Y91256D01*
X-206967Y88744D01*
X-208744Y86967D01*
X-211256Y86967D01*
G37*
%LPD*%
%LPC*%
G36*
X-291256Y106967D02*
X-291256Y106967D01*
X-293033Y108744D01*
X-293033Y111256D01*
X-291256Y113033D01*
X-288744Y113033D01*
X-286967Y111256D01*
X-286967Y108744D01*
X-288744Y106967D01*
X-291256Y106967D01*
G37*
%LPD*%
%LPC*%
G36*
X-221256Y86967D02*
X-221256Y86967D01*
X-223033Y88744D01*
X-223033Y91256D01*
X-221256Y93033D01*
X-218744Y93033D01*
X-216967Y91256D01*
X-216967Y88744D01*
X-218744Y86967D01*
X-221256Y86967D01*
G37*
%LPD*%
%LPC*%
G36*
X-231256Y86967D02*
X-231256Y86967D01*
X-233033Y88744D01*
X-233033Y91256D01*
X-231256Y93033D01*
X-228744Y93033D01*
X-226967Y91256D01*
X-226967Y88744D01*
X-228744Y86967D01*
X-231256Y86967D01*
G37*
%LPD*%
%LPC*%
G36*
X-231256Y106967D02*
X-231256Y106967D01*
X-233033Y108744D01*
X-233033Y111256D01*
X-231256Y113033D01*
X-228744Y113033D01*
X-226967Y111256D01*
X-226967Y108744D01*
X-228744Y106967D01*
X-231256Y106967D01*
G37*
%LPD*%
%LPC*%
G36*
X-291256Y86967D02*
X-291256Y86967D01*
X-293033Y88744D01*
X-293033Y91256D01*
X-291256Y93033D01*
X-288744Y93033D01*
X-286967Y91256D01*
X-286967Y88744D01*
X-288744Y86967D01*
X-291256Y86967D01*
G37*
%LPD*%
%LPC*%
G36*
X-281256Y86967D02*
X-281256Y86967D01*
X-283033Y88744D01*
X-283033Y91256D01*
X-281256Y93033D01*
X-278744Y93033D01*
X-276967Y91256D01*
X-276967Y88744D01*
X-278744Y86967D01*
X-281256Y86967D01*
G37*
%LPD*%
%LPC*%
G36*
X-251256Y86967D02*
X-251256Y86967D01*
X-253033Y88744D01*
X-253033Y91256D01*
X-251256Y93033D01*
X-248744Y93033D01*
X-246967Y91256D01*
X-246967Y88744D01*
X-248744Y86967D01*
X-251256Y86967D01*
G37*
%LPD*%
%LPC*%
G36*
X-271256Y86967D02*
X-271256Y86967D01*
X-273033Y88744D01*
X-273033Y91256D01*
X-271256Y93033D01*
X-268744Y93033D01*
X-266967Y91256D01*
X-266967Y88744D01*
X-268744Y86967D01*
X-271256Y86967D01*
G37*
%LPD*%
%LPC*%
G36*
X379999Y29999D02*
X379999Y29999D01*
X379999Y30001D01*
X380001Y30001D01*
X380001Y29999D01*
X379999Y29999D01*
G37*
%LPD*%
%LPC*%
G36*
X24999Y-120001D02*
X24999Y-120001D01*
X24999Y-119999D01*
X25001Y-119999D01*
X25001Y-120001D01*
X24999Y-120001D01*
G37*
%LPD*%
%LPC*%
G36*
X-200001Y-95001D02*
X-200001Y-95001D01*
X-200001Y-94999D01*
X-199999Y-94999D01*
X-199999Y-95001D01*
X-200001Y-95001D01*
G37*
%LPD*%
%LPC*%
G36*
X-380001Y109999D02*
X-380001Y109999D01*
X-380001Y110001D01*
X-379999Y110001D01*
X-379999Y109999D01*
X-380001Y109999D01*
G37*
%LPD*%
%LPC*%
G36*
X379999Y89999D02*
X379999Y89999D01*
X379999Y90001D01*
X380001Y90001D01*
X380001Y89999D01*
X379999Y89999D01*
G37*
%LPD*%
%LPC*%
G36*
X-380001Y169999D02*
X-380001Y169999D01*
X-380001Y170001D01*
X-379999Y170001D01*
X-379999Y169999D01*
X-380001Y169999D01*
G37*
%LPD*%
%LPC*%
G36*
X-1Y-265001D02*
X-1Y-265001D01*
X-1Y-264999D01*
X1Y-264999D01*
X1Y-265001D01*
X-1Y-265001D01*
G37*
%LPD*%
D10*
X-290000Y90000D03*
X-290000Y100000D03*
X-230000Y90000D03*
X-240000Y50000D03*
X-250000Y40000D03*
X-260000Y50000D03*
X-270000Y90000D03*
X-310000Y90000D03*
X-280000Y90000D03*
X-290000Y110000D03*
X-300000Y90000D03*
X-230000Y100000D03*
X-220000Y90000D03*
X-210000Y90000D03*
X-250000Y90000D03*
X-230000Y110000D03*
X-240000Y90000D03*
X-290000Y50000D03*
X-245000Y50000D03*
X-290000Y40000D03*
X-260000Y40000D03*
X-240000Y40000D03*
D11*
X-380000Y210000D03*
X-380000Y30000D03*
X-380000Y10000D03*
X-380000Y-10000D03*
X-380000Y170000D03*
X-380000Y150000D03*
X-380000Y110000D03*
X-380000Y90000D03*
X-380000Y70000D03*
X-380000Y50000D03*
X-380000Y130000D03*
X-380000Y190000D03*
X380000Y-10000D03*
X380000Y170000D03*
X380000Y190000D03*
X380000Y210000D03*
X380000Y30000D03*
X380000Y50000D03*
X380000Y90000D03*
X380000Y110000D03*
X380000Y130000D03*
X380000Y150000D03*
X380000Y70000D03*
X380000Y10000D03*
D12*
X-155000Y-95000D03*
X-245000Y-95000D03*
X-110000Y-95000D03*
X-200000Y-95000D03*
D13*
X-25000Y-265000D03*
X25000Y-265000D03*
X-25000Y-120000D03*
X25000Y-120000D03*
X0Y-265000D03*
D10*
X120000Y190000D03*
X215000Y270000D03*
X205000Y270000D03*
D14*
X-114388Y-527282D02*
X-114388Y-539022D01*
X-114389Y-539022D02*
X-114387Y-539155D01*
X-114381Y-539287D01*
X-114371Y-539419D01*
X-114358Y-539551D01*
X-114340Y-539683D01*
X-114319Y-539813D01*
X-114294Y-539944D01*
X-114265Y-540073D01*
X-114232Y-540201D01*
X-114196Y-540329D01*
X-114156Y-540455D01*
X-114112Y-540580D01*
X-114064Y-540704D01*
X-114013Y-540826D01*
X-113958Y-540947D01*
X-113900Y-541066D01*
X-113838Y-541184D01*
X-113773Y-541299D01*
X-113704Y-541413D01*
X-113633Y-541524D01*
X-113557Y-541633D01*
X-113479Y-541740D01*
X-113398Y-541845D01*
X-113313Y-541947D01*
X-113226Y-542047D01*
X-113136Y-542144D01*
X-113043Y-542239D01*
X-112947Y-542330D01*
X-112849Y-542419D01*
X-112748Y-542505D01*
X-112644Y-542588D01*
X-112538Y-542668D01*
X-112430Y-542744D01*
X-112320Y-542818D01*
X-112207Y-542888D01*
X-112093Y-542955D01*
X-111976Y-543018D01*
X-111858Y-543078D01*
X-111738Y-543135D01*
X-111616Y-543188D01*
X-111493Y-543237D01*
X-111369Y-543283D01*
X-111243Y-543325D01*
X-111116Y-543363D01*
X-110988Y-543398D01*
X-110859Y-543429D01*
X-110730Y-543456D01*
X-110599Y-543479D01*
X-110468Y-543499D01*
X-110336Y-543514D01*
X-110204Y-543526D01*
X-110072Y-543534D01*
X-109939Y-543538D01*
X-109807Y-543538D01*
X-109674Y-543534D01*
X-109542Y-543526D01*
X-109410Y-543514D01*
X-109278Y-543499D01*
X-109147Y-543479D01*
X-109016Y-543456D01*
X-108887Y-543429D01*
X-108758Y-543398D01*
X-108630Y-543363D01*
X-108503Y-543325D01*
X-108377Y-543283D01*
X-108253Y-543237D01*
X-108130Y-543188D01*
X-108008Y-543135D01*
X-107888Y-543078D01*
X-107770Y-543018D01*
X-107653Y-542955D01*
X-107539Y-542888D01*
X-107426Y-542818D01*
X-107316Y-542744D01*
X-107208Y-542668D01*
X-107102Y-542588D01*
X-106998Y-542505D01*
X-106897Y-542419D01*
X-106799Y-542330D01*
X-106703Y-542239D01*
X-106610Y-542144D01*
X-106520Y-542047D01*
X-106433Y-541947D01*
X-106348Y-541845D01*
X-106267Y-541740D01*
X-106189Y-541633D01*
X-106113Y-541524D01*
X-106042Y-541413D01*
X-105973Y-541299D01*
X-105908Y-541184D01*
X-105846Y-541066D01*
X-105788Y-540947D01*
X-105733Y-540826D01*
X-105682Y-540704D01*
X-105634Y-540580D01*
X-105590Y-540455D01*
X-105550Y-540329D01*
X-105514Y-540201D01*
X-105481Y-540073D01*
X-105452Y-539944D01*
X-105427Y-539813D01*
X-105406Y-539683D01*
X-105388Y-539551D01*
X-105375Y-539419D01*
X-105365Y-539287D01*
X-105359Y-539155D01*
X-105357Y-539022D01*
X-105357Y-527282D01*
X-97780Y-532701D02*
X-97780Y-548957D01*
X-97780Y-532701D02*
X-93265Y-532701D01*
X-93161Y-532703D01*
X-93058Y-532709D01*
X-92954Y-532719D01*
X-92851Y-532733D01*
X-92749Y-532751D01*
X-92648Y-532772D01*
X-92547Y-532798D01*
X-92448Y-532827D01*
X-92349Y-532860D01*
X-92252Y-532897D01*
X-92157Y-532938D01*
X-92063Y-532982D01*
X-91971Y-533030D01*
X-91881Y-533081D01*
X-91792Y-533136D01*
X-91706Y-533194D01*
X-91623Y-533256D01*
X-91541Y-533320D01*
X-91463Y-533388D01*
X-91387Y-533458D01*
X-91313Y-533531D01*
X-91243Y-533608D01*
X-91175Y-533686D01*
X-91111Y-533768D01*
X-91049Y-533851D01*
X-90991Y-533937D01*
X-90936Y-534026D01*
X-90885Y-534116D01*
X-90837Y-534208D01*
X-90793Y-534302D01*
X-90752Y-534397D01*
X-90715Y-534494D01*
X-90682Y-534593D01*
X-90653Y-534692D01*
X-90627Y-534793D01*
X-90606Y-534894D01*
X-90588Y-534996D01*
X-90574Y-535099D01*
X-90564Y-535203D01*
X-90558Y-535306D01*
X-90556Y-535410D01*
X-90556Y-540829D01*
X-90558Y-540930D01*
X-90564Y-541031D01*
X-90573Y-541132D01*
X-90586Y-541233D01*
X-90603Y-541333D01*
X-90624Y-541432D01*
X-90648Y-541530D01*
X-90676Y-541627D01*
X-90708Y-541724D01*
X-90743Y-541819D01*
X-90782Y-541912D01*
X-90824Y-542004D01*
X-90870Y-542095D01*
X-90919Y-542184D01*
X-90971Y-542270D01*
X-91027Y-542355D01*
X-91085Y-542438D01*
X-91147Y-542518D01*
X-91212Y-542596D01*
X-91279Y-542672D01*
X-91349Y-542745D01*
X-91422Y-542815D01*
X-91498Y-542882D01*
X-91576Y-542947D01*
X-91656Y-543009D01*
X-91739Y-543067D01*
X-91824Y-543123D01*
X-91911Y-543175D01*
X-91999Y-543224D01*
X-92090Y-543270D01*
X-92182Y-543312D01*
X-92275Y-543351D01*
X-92370Y-543386D01*
X-92467Y-543418D01*
X-92564Y-543446D01*
X-92662Y-543470D01*
X-92761Y-543491D01*
X-92861Y-543508D01*
X-92962Y-543521D01*
X-93063Y-543530D01*
X-93164Y-543536D01*
X-93265Y-543538D01*
X-97780Y-543538D01*
X-83712Y-548957D02*
X-83712Y-532701D01*
X-79197Y-532701D01*
X-79093Y-532703D01*
X-78990Y-532709D01*
X-78886Y-532719D01*
X-78783Y-532733D01*
X-78681Y-532751D01*
X-78580Y-532772D01*
X-78479Y-532798D01*
X-78380Y-532827D01*
X-78281Y-532860D01*
X-78184Y-532897D01*
X-78089Y-532938D01*
X-77995Y-532982D01*
X-77903Y-533030D01*
X-77813Y-533081D01*
X-77724Y-533136D01*
X-77638Y-533194D01*
X-77555Y-533256D01*
X-77473Y-533320D01*
X-77395Y-533388D01*
X-77319Y-533458D01*
X-77245Y-533531D01*
X-77175Y-533608D01*
X-77107Y-533686D01*
X-77043Y-533768D01*
X-76981Y-533851D01*
X-76923Y-533937D01*
X-76868Y-534026D01*
X-76817Y-534116D01*
X-76769Y-534208D01*
X-76725Y-534302D01*
X-76684Y-534397D01*
X-76647Y-534494D01*
X-76614Y-534593D01*
X-76585Y-534692D01*
X-76559Y-534793D01*
X-76538Y-534894D01*
X-76520Y-534996D01*
X-76506Y-535099D01*
X-76496Y-535203D01*
X-76490Y-535306D01*
X-76488Y-535410D01*
X-76487Y-535410D02*
X-76487Y-540829D01*
X-76488Y-540829D02*
X-76490Y-540930D01*
X-76496Y-541031D01*
X-76505Y-541132D01*
X-76518Y-541233D01*
X-76535Y-541333D01*
X-76556Y-541432D01*
X-76580Y-541530D01*
X-76608Y-541627D01*
X-76640Y-541724D01*
X-76675Y-541819D01*
X-76714Y-541912D01*
X-76756Y-542004D01*
X-76802Y-542095D01*
X-76851Y-542184D01*
X-76903Y-542270D01*
X-76959Y-542355D01*
X-77017Y-542438D01*
X-77079Y-542518D01*
X-77144Y-542596D01*
X-77211Y-542672D01*
X-77281Y-542745D01*
X-77354Y-542815D01*
X-77430Y-542882D01*
X-77508Y-542947D01*
X-77588Y-543009D01*
X-77671Y-543067D01*
X-77756Y-543123D01*
X-77843Y-543175D01*
X-77931Y-543224D01*
X-78022Y-543270D01*
X-78114Y-543312D01*
X-78207Y-543351D01*
X-78302Y-543386D01*
X-78399Y-543418D01*
X-78496Y-543446D01*
X-78594Y-543470D01*
X-78693Y-543491D01*
X-78793Y-543508D01*
X-78894Y-543521D01*
X-78995Y-543530D01*
X-79096Y-543536D01*
X-79197Y-543538D01*
X-83712Y-543538D01*
X-67529Y-543538D02*
X-63014Y-543538D01*
X-67529Y-543538D02*
X-67630Y-543536D01*
X-67731Y-543530D01*
X-67832Y-543521D01*
X-67933Y-543508D01*
X-68033Y-543491D01*
X-68132Y-543470D01*
X-68230Y-543446D01*
X-68327Y-543418D01*
X-68424Y-543386D01*
X-68519Y-543351D01*
X-68612Y-543312D01*
X-68704Y-543270D01*
X-68795Y-543224D01*
X-68884Y-543175D01*
X-68970Y-543123D01*
X-69055Y-543067D01*
X-69138Y-543009D01*
X-69218Y-542947D01*
X-69296Y-542882D01*
X-69372Y-542815D01*
X-69445Y-542745D01*
X-69515Y-542672D01*
X-69582Y-542596D01*
X-69647Y-542518D01*
X-69709Y-542438D01*
X-69767Y-542355D01*
X-69823Y-542270D01*
X-69875Y-542184D01*
X-69924Y-542095D01*
X-69970Y-542004D01*
X-70012Y-541912D01*
X-70051Y-541819D01*
X-70086Y-541724D01*
X-70118Y-541627D01*
X-70146Y-541530D01*
X-70170Y-541432D01*
X-70191Y-541333D01*
X-70208Y-541233D01*
X-70221Y-541132D01*
X-70230Y-541031D01*
X-70236Y-540930D01*
X-70238Y-540829D01*
X-70239Y-540829D02*
X-70239Y-536313D01*
X-70238Y-536313D02*
X-70236Y-536194D01*
X-70230Y-536074D01*
X-70220Y-535955D01*
X-70206Y-535837D01*
X-70189Y-535718D01*
X-70167Y-535601D01*
X-70142Y-535484D01*
X-70112Y-535369D01*
X-70079Y-535254D01*
X-70042Y-535140D01*
X-70002Y-535028D01*
X-69957Y-534917D01*
X-69909Y-534808D01*
X-69858Y-534700D01*
X-69803Y-534594D01*
X-69744Y-534490D01*
X-69682Y-534388D01*
X-69617Y-534288D01*
X-69548Y-534190D01*
X-69476Y-534094D01*
X-69401Y-534001D01*
X-69324Y-533911D01*
X-69243Y-533823D01*
X-69159Y-533738D01*
X-69072Y-533656D01*
X-68983Y-533576D01*
X-68891Y-533500D01*
X-68797Y-533426D01*
X-68700Y-533356D01*
X-68602Y-533289D01*
X-68501Y-533225D01*
X-68397Y-533165D01*
X-68292Y-533108D01*
X-68185Y-533055D01*
X-68077Y-533005D01*
X-67967Y-532959D01*
X-67855Y-532917D01*
X-67742Y-532878D01*
X-67628Y-532843D01*
X-67513Y-532812D01*
X-67396Y-532784D01*
X-67279Y-532761D01*
X-67162Y-532741D01*
X-67043Y-532725D01*
X-66924Y-532713D01*
X-66805Y-532705D01*
X-66686Y-532701D01*
X-66566Y-532701D01*
X-66447Y-532705D01*
X-66328Y-532713D01*
X-66209Y-532725D01*
X-66090Y-532741D01*
X-65973Y-532761D01*
X-65856Y-532784D01*
X-65739Y-532812D01*
X-65624Y-532843D01*
X-65510Y-532878D01*
X-65397Y-532917D01*
X-65285Y-532959D01*
X-65175Y-533005D01*
X-65067Y-533055D01*
X-64960Y-533108D01*
X-64855Y-533165D01*
X-64751Y-533225D01*
X-64650Y-533289D01*
X-64552Y-533356D01*
X-64455Y-533426D01*
X-64361Y-533500D01*
X-64269Y-533576D01*
X-64180Y-533656D01*
X-64093Y-533738D01*
X-64009Y-533823D01*
X-63928Y-533911D01*
X-63851Y-534001D01*
X-63776Y-534094D01*
X-63704Y-534190D01*
X-63635Y-534288D01*
X-63570Y-534388D01*
X-63508Y-534490D01*
X-63449Y-534594D01*
X-63394Y-534700D01*
X-63343Y-534808D01*
X-63295Y-534917D01*
X-63250Y-535028D01*
X-63210Y-535140D01*
X-63173Y-535254D01*
X-63140Y-535369D01*
X-63110Y-535484D01*
X-63085Y-535601D01*
X-63063Y-535718D01*
X-63046Y-535837D01*
X-63032Y-535955D01*
X-63022Y-536074D01*
X-63016Y-536194D01*
X-63014Y-536313D01*
X-63014Y-538119D01*
X-70239Y-538119D01*
X-56086Y-543538D02*
X-56086Y-532701D01*
X-50667Y-532701D01*
X-50667Y-534507D01*
X-35885Y-527282D02*
X-35885Y-543538D01*
X-37691Y-543538D02*
X-34079Y-543538D01*
X-34079Y-527282D02*
X-37691Y-527282D01*
X-27513Y-532701D02*
X-27513Y-543538D01*
X-27513Y-532701D02*
X-22998Y-532701D01*
X-22894Y-532703D01*
X-22791Y-532709D01*
X-22687Y-532719D01*
X-22584Y-532733D01*
X-22482Y-532751D01*
X-22381Y-532772D01*
X-22280Y-532798D01*
X-22181Y-532827D01*
X-22082Y-532860D01*
X-21985Y-532897D01*
X-21890Y-532938D01*
X-21796Y-532982D01*
X-21704Y-533030D01*
X-21614Y-533081D01*
X-21525Y-533136D01*
X-21439Y-533194D01*
X-21356Y-533256D01*
X-21274Y-533320D01*
X-21196Y-533388D01*
X-21120Y-533458D01*
X-21046Y-533531D01*
X-20976Y-533608D01*
X-20908Y-533686D01*
X-20844Y-533768D01*
X-20782Y-533851D01*
X-20724Y-533937D01*
X-20669Y-534026D01*
X-20618Y-534116D01*
X-20570Y-534208D01*
X-20526Y-534302D01*
X-20485Y-534397D01*
X-20448Y-534494D01*
X-20415Y-534593D01*
X-20386Y-534692D01*
X-20360Y-534793D01*
X-20339Y-534894D01*
X-20321Y-534996D01*
X-20307Y-535099D01*
X-20297Y-535203D01*
X-20291Y-535306D01*
X-20289Y-535410D01*
X-20288Y-535410D02*
X-20288Y-543538D01*
X-12924Y-543538D02*
X-12924Y-532701D01*
X-8409Y-532701D01*
X-8305Y-532703D01*
X-8202Y-532709D01*
X-8098Y-532719D01*
X-7995Y-532733D01*
X-7893Y-532751D01*
X-7792Y-532772D01*
X-7691Y-532798D01*
X-7592Y-532827D01*
X-7493Y-532860D01*
X-7396Y-532897D01*
X-7301Y-532938D01*
X-7207Y-532982D01*
X-7115Y-533030D01*
X-7025Y-533081D01*
X-6936Y-533136D01*
X-6850Y-533194D01*
X-6767Y-533256D01*
X-6685Y-533320D01*
X-6607Y-533388D01*
X-6531Y-533458D01*
X-6457Y-533531D01*
X-6387Y-533608D01*
X-6319Y-533686D01*
X-6255Y-533768D01*
X-6193Y-533851D01*
X-6135Y-533937D01*
X-6080Y-534026D01*
X-6029Y-534116D01*
X-5981Y-534208D01*
X-5937Y-534302D01*
X-5896Y-534397D01*
X-5859Y-534494D01*
X-5826Y-534593D01*
X-5797Y-534692D01*
X-5771Y-534793D01*
X-5750Y-534894D01*
X-5732Y-534996D01*
X-5718Y-535099D01*
X-5708Y-535203D01*
X-5702Y-535306D01*
X-5700Y-535410D01*
X-5699Y-535410D02*
X-5699Y-543538D01*
X3853Y-543538D02*
X8369Y-543538D01*
X3853Y-543538D02*
X3752Y-543536D01*
X3651Y-543530D01*
X3550Y-543521D01*
X3449Y-543508D01*
X3349Y-543491D01*
X3250Y-543470D01*
X3152Y-543446D01*
X3055Y-543418D01*
X2958Y-543386D01*
X2863Y-543351D01*
X2770Y-543312D01*
X2678Y-543270D01*
X2587Y-543224D01*
X2499Y-543175D01*
X2412Y-543123D01*
X2327Y-543067D01*
X2244Y-543009D01*
X2164Y-542947D01*
X2086Y-542882D01*
X2010Y-542815D01*
X1937Y-542745D01*
X1867Y-542672D01*
X1800Y-542596D01*
X1735Y-542518D01*
X1673Y-542438D01*
X1615Y-542355D01*
X1559Y-542270D01*
X1507Y-542184D01*
X1458Y-542095D01*
X1412Y-542004D01*
X1370Y-541912D01*
X1331Y-541819D01*
X1296Y-541724D01*
X1264Y-541627D01*
X1236Y-541530D01*
X1212Y-541432D01*
X1191Y-541333D01*
X1174Y-541233D01*
X1161Y-541132D01*
X1152Y-541031D01*
X1146Y-540930D01*
X1144Y-540829D01*
X1144Y-536313D01*
X1146Y-536194D01*
X1152Y-536074D01*
X1162Y-535955D01*
X1176Y-535837D01*
X1193Y-535718D01*
X1215Y-535601D01*
X1240Y-535484D01*
X1270Y-535369D01*
X1303Y-535254D01*
X1340Y-535140D01*
X1380Y-535028D01*
X1425Y-534917D01*
X1473Y-534808D01*
X1524Y-534700D01*
X1579Y-534594D01*
X1638Y-534490D01*
X1700Y-534388D01*
X1765Y-534288D01*
X1834Y-534190D01*
X1906Y-534094D01*
X1981Y-534001D01*
X2058Y-533911D01*
X2139Y-533823D01*
X2223Y-533738D01*
X2310Y-533656D01*
X2399Y-533576D01*
X2491Y-533500D01*
X2585Y-533426D01*
X2682Y-533356D01*
X2780Y-533289D01*
X2881Y-533225D01*
X2985Y-533165D01*
X3090Y-533108D01*
X3197Y-533055D01*
X3305Y-533005D01*
X3415Y-532959D01*
X3527Y-532917D01*
X3640Y-532878D01*
X3754Y-532843D01*
X3869Y-532812D01*
X3986Y-532784D01*
X4103Y-532761D01*
X4220Y-532741D01*
X4339Y-532725D01*
X4458Y-532713D01*
X4577Y-532705D01*
X4696Y-532701D01*
X4816Y-532701D01*
X4935Y-532705D01*
X5054Y-532713D01*
X5173Y-532725D01*
X5292Y-532741D01*
X5409Y-532761D01*
X5526Y-532784D01*
X5643Y-532812D01*
X5758Y-532843D01*
X5872Y-532878D01*
X5985Y-532917D01*
X6097Y-532959D01*
X6207Y-533005D01*
X6315Y-533055D01*
X6422Y-533108D01*
X6527Y-533165D01*
X6631Y-533225D01*
X6732Y-533289D01*
X6830Y-533356D01*
X6927Y-533426D01*
X7021Y-533500D01*
X7113Y-533576D01*
X7202Y-533656D01*
X7289Y-533738D01*
X7373Y-533823D01*
X7454Y-533911D01*
X7531Y-534001D01*
X7606Y-534094D01*
X7678Y-534190D01*
X7747Y-534288D01*
X7812Y-534388D01*
X7874Y-534490D01*
X7933Y-534594D01*
X7988Y-534700D01*
X8039Y-534808D01*
X8087Y-534917D01*
X8132Y-535028D01*
X8172Y-535140D01*
X8209Y-535254D01*
X8242Y-535369D01*
X8272Y-535484D01*
X8297Y-535601D01*
X8319Y-535718D01*
X8336Y-535837D01*
X8350Y-535955D01*
X8360Y-536074D01*
X8366Y-536194D01*
X8368Y-536313D01*
X8369Y-536313D02*
X8369Y-538119D01*
X1144Y-538119D01*
X15297Y-543538D02*
X15297Y-532701D01*
X20716Y-532701D01*
X20716Y-534507D01*
X34768Y-527282D02*
X34768Y-543538D01*
X40187Y-536313D02*
X34768Y-527282D01*
X40187Y-536313D02*
X45606Y-527282D01*
X45606Y-543538D01*
X55436Y-543538D02*
X59952Y-543538D01*
X55436Y-543538D02*
X55335Y-543536D01*
X55234Y-543530D01*
X55133Y-543521D01*
X55032Y-543508D01*
X54932Y-543491D01*
X54833Y-543470D01*
X54735Y-543446D01*
X54638Y-543418D01*
X54541Y-543386D01*
X54446Y-543351D01*
X54353Y-543312D01*
X54261Y-543270D01*
X54170Y-543224D01*
X54082Y-543175D01*
X53995Y-543123D01*
X53910Y-543067D01*
X53827Y-543009D01*
X53747Y-542947D01*
X53669Y-542882D01*
X53593Y-542815D01*
X53520Y-542745D01*
X53450Y-542672D01*
X53383Y-542596D01*
X53318Y-542518D01*
X53256Y-542438D01*
X53198Y-542355D01*
X53142Y-542270D01*
X53090Y-542184D01*
X53041Y-542095D01*
X52995Y-542004D01*
X52953Y-541912D01*
X52914Y-541819D01*
X52879Y-541724D01*
X52847Y-541627D01*
X52819Y-541530D01*
X52795Y-541432D01*
X52774Y-541333D01*
X52757Y-541233D01*
X52744Y-541132D01*
X52735Y-541031D01*
X52729Y-540930D01*
X52727Y-540829D01*
X52727Y-536313D01*
X52729Y-536194D01*
X52735Y-536074D01*
X52745Y-535955D01*
X52759Y-535837D01*
X52776Y-535718D01*
X52798Y-535601D01*
X52823Y-535484D01*
X52853Y-535369D01*
X52886Y-535254D01*
X52923Y-535140D01*
X52963Y-535028D01*
X53008Y-534917D01*
X53056Y-534808D01*
X53107Y-534700D01*
X53162Y-534594D01*
X53221Y-534490D01*
X53283Y-534388D01*
X53348Y-534288D01*
X53417Y-534190D01*
X53489Y-534094D01*
X53564Y-534001D01*
X53641Y-533911D01*
X53722Y-533823D01*
X53806Y-533738D01*
X53893Y-533656D01*
X53982Y-533576D01*
X54074Y-533500D01*
X54168Y-533426D01*
X54265Y-533356D01*
X54363Y-533289D01*
X54464Y-533225D01*
X54568Y-533165D01*
X54673Y-533108D01*
X54780Y-533055D01*
X54888Y-533005D01*
X54998Y-532959D01*
X55110Y-532917D01*
X55223Y-532878D01*
X55337Y-532843D01*
X55452Y-532812D01*
X55569Y-532784D01*
X55686Y-532761D01*
X55803Y-532741D01*
X55922Y-532725D01*
X56041Y-532713D01*
X56160Y-532705D01*
X56279Y-532701D01*
X56399Y-532701D01*
X56518Y-532705D01*
X56637Y-532713D01*
X56756Y-532725D01*
X56875Y-532741D01*
X56992Y-532761D01*
X57109Y-532784D01*
X57226Y-532812D01*
X57341Y-532843D01*
X57455Y-532878D01*
X57568Y-532917D01*
X57680Y-532959D01*
X57790Y-533005D01*
X57898Y-533055D01*
X58005Y-533108D01*
X58110Y-533165D01*
X58214Y-533225D01*
X58315Y-533289D01*
X58413Y-533356D01*
X58510Y-533426D01*
X58604Y-533500D01*
X58696Y-533576D01*
X58785Y-533656D01*
X58872Y-533738D01*
X58956Y-533823D01*
X59037Y-533911D01*
X59114Y-534001D01*
X59189Y-534094D01*
X59261Y-534190D01*
X59330Y-534288D01*
X59395Y-534388D01*
X59457Y-534490D01*
X59516Y-534594D01*
X59571Y-534700D01*
X59622Y-534808D01*
X59670Y-534917D01*
X59715Y-535028D01*
X59755Y-535140D01*
X59792Y-535254D01*
X59825Y-535369D01*
X59855Y-535484D01*
X59880Y-535601D01*
X59902Y-535718D01*
X59919Y-535837D01*
X59933Y-535955D01*
X59943Y-536074D01*
X59949Y-536194D01*
X59951Y-536313D01*
X59952Y-536313D02*
X59952Y-538119D01*
X52727Y-538119D01*
X64977Y-532701D02*
X70395Y-532701D01*
X66783Y-527282D02*
X66783Y-540829D01*
X66785Y-540930D01*
X66791Y-541031D01*
X66800Y-541132D01*
X66813Y-541233D01*
X66830Y-541333D01*
X66851Y-541432D01*
X66875Y-541530D01*
X66903Y-541627D01*
X66935Y-541724D01*
X66970Y-541819D01*
X67009Y-541912D01*
X67051Y-542004D01*
X67097Y-542095D01*
X67146Y-542184D01*
X67198Y-542270D01*
X67254Y-542355D01*
X67312Y-542438D01*
X67374Y-542518D01*
X67439Y-542596D01*
X67506Y-542672D01*
X67576Y-542745D01*
X67649Y-542815D01*
X67725Y-542882D01*
X67803Y-542947D01*
X67883Y-543009D01*
X67966Y-543067D01*
X68051Y-543123D01*
X68138Y-543175D01*
X68226Y-543224D01*
X68317Y-543270D01*
X68409Y-543312D01*
X68502Y-543351D01*
X68597Y-543386D01*
X68694Y-543418D01*
X68791Y-543446D01*
X68889Y-543470D01*
X68988Y-543491D01*
X69088Y-543508D01*
X69189Y-543521D01*
X69290Y-543530D01*
X69391Y-543536D01*
X69492Y-543538D01*
X70395Y-543538D01*
X79261Y-537216D02*
X83325Y-537216D01*
X79261Y-537216D02*
X79149Y-537218D01*
X79038Y-537224D01*
X78927Y-537234D01*
X78816Y-537247D01*
X78706Y-537265D01*
X78597Y-537287D01*
X78488Y-537312D01*
X78380Y-537341D01*
X78274Y-537374D01*
X78168Y-537411D01*
X78064Y-537451D01*
X77962Y-537495D01*
X77861Y-537543D01*
X77762Y-537594D01*
X77664Y-537649D01*
X77569Y-537707D01*
X77476Y-537768D01*
X77385Y-537833D01*
X77296Y-537901D01*
X77210Y-537972D01*
X77127Y-538045D01*
X77046Y-538122D01*
X76967Y-538202D01*
X76892Y-538284D01*
X76820Y-538369D01*
X76750Y-538456D01*
X76684Y-538546D01*
X76621Y-538638D01*
X76561Y-538733D01*
X76505Y-538829D01*
X76452Y-538927D01*
X76403Y-539027D01*
X76357Y-539129D01*
X76315Y-539232D01*
X76276Y-539337D01*
X76241Y-539443D01*
X76210Y-539550D01*
X76183Y-539658D01*
X76159Y-539767D01*
X76140Y-539877D01*
X76124Y-539987D01*
X76112Y-540098D01*
X76104Y-540210D01*
X76100Y-540321D01*
X76100Y-540433D01*
X76104Y-540544D01*
X76112Y-540656D01*
X76124Y-540767D01*
X76140Y-540877D01*
X76159Y-540987D01*
X76183Y-541096D01*
X76210Y-541204D01*
X76241Y-541311D01*
X76276Y-541417D01*
X76315Y-541522D01*
X76357Y-541625D01*
X76403Y-541727D01*
X76452Y-541827D01*
X76505Y-541925D01*
X76561Y-542021D01*
X76621Y-542116D01*
X76684Y-542208D01*
X76750Y-542298D01*
X76820Y-542385D01*
X76892Y-542470D01*
X76967Y-542552D01*
X77046Y-542632D01*
X77127Y-542709D01*
X77210Y-542782D01*
X77296Y-542853D01*
X77385Y-542921D01*
X77476Y-542986D01*
X77569Y-543047D01*
X77664Y-543105D01*
X77762Y-543160D01*
X77861Y-543211D01*
X77962Y-543259D01*
X78064Y-543303D01*
X78168Y-543343D01*
X78274Y-543380D01*
X78380Y-543413D01*
X78488Y-543442D01*
X78597Y-543467D01*
X78706Y-543489D01*
X78816Y-543507D01*
X78927Y-543520D01*
X79038Y-543530D01*
X79149Y-543536D01*
X79261Y-543538D01*
X83325Y-543538D01*
X83325Y-535410D01*
X83323Y-535309D01*
X83317Y-535208D01*
X83308Y-535107D01*
X83295Y-535006D01*
X83278Y-534906D01*
X83257Y-534807D01*
X83233Y-534709D01*
X83205Y-534612D01*
X83173Y-534515D01*
X83138Y-534420D01*
X83099Y-534327D01*
X83057Y-534235D01*
X83011Y-534144D01*
X82962Y-534056D01*
X82910Y-533969D01*
X82854Y-533884D01*
X82796Y-533801D01*
X82734Y-533721D01*
X82669Y-533643D01*
X82602Y-533567D01*
X82532Y-533494D01*
X82459Y-533424D01*
X82383Y-533357D01*
X82305Y-533292D01*
X82225Y-533230D01*
X82142Y-533172D01*
X82057Y-533116D01*
X81971Y-533064D01*
X81882Y-533015D01*
X81791Y-532969D01*
X81699Y-532927D01*
X81606Y-532888D01*
X81511Y-532853D01*
X81414Y-532821D01*
X81317Y-532793D01*
X81219Y-532769D01*
X81120Y-532748D01*
X81020Y-532731D01*
X80919Y-532718D01*
X80818Y-532709D01*
X80717Y-532703D01*
X80616Y-532701D01*
X77004Y-532701D01*
X90479Y-527282D02*
X90479Y-540829D01*
X90481Y-540930D01*
X90487Y-541031D01*
X90496Y-541132D01*
X90509Y-541233D01*
X90526Y-541333D01*
X90547Y-541432D01*
X90571Y-541530D01*
X90599Y-541627D01*
X90631Y-541724D01*
X90666Y-541819D01*
X90705Y-541912D01*
X90747Y-542004D01*
X90793Y-542095D01*
X90842Y-542184D01*
X90894Y-542270D01*
X90950Y-542355D01*
X91008Y-542438D01*
X91070Y-542518D01*
X91135Y-542596D01*
X91202Y-542672D01*
X91272Y-542745D01*
X91345Y-542815D01*
X91421Y-542882D01*
X91499Y-542947D01*
X91579Y-543009D01*
X91662Y-543067D01*
X91747Y-543123D01*
X91834Y-543175D01*
X91922Y-543224D01*
X92013Y-543270D01*
X92105Y-543312D01*
X92198Y-543351D01*
X92293Y-543386D01*
X92390Y-543418D01*
X92487Y-543446D01*
X92585Y-543470D01*
X92684Y-543491D01*
X92784Y-543508D01*
X92885Y-543521D01*
X92986Y-543530D01*
X93087Y-543536D01*
X93188Y-543538D01*
D15*
X253965Y120750D03*
X260160Y127250D03*
X253965Y153250D03*
X253965Y172750D03*
X306035Y146750D03*
X-195400Y-36110D03*
X364540Y-215000D03*
X-256539Y70000D03*
X-200000Y181540D03*
X-178000Y198460D03*
X-242000Y198460D03*
X-154460Y-125000D03*
X-105540Y-125000D03*
X262683Y-12750D03*
X-226540Y-154000D03*
X-226540Y-226000D03*
X155540Y-275000D03*
X204460Y-275000D03*
X155540Y-205000D03*
X204460Y-205000D03*
X-56960Y-53500D03*
X253460Y-154000D03*
X253460Y-226000D03*
X113460Y-154000D03*
X113460Y-226000D03*
X-275000Y30019D03*
X-154460Y-225000D03*
X-105540Y-225000D03*
X80000Y253253D03*
X56960Y-2700D03*
X56960Y73500D03*
X-37460Y102500D03*
X-37460Y152500D03*
X22500Y87540D03*
X7500Y87540D03*
X-7500Y87540D03*
X22500Y162460D03*
X2500Y162460D03*
X155540Y-135000D03*
X204460Y-135000D03*
X290000Y86150D03*
X296314Y-52500D03*
X288856Y-57500D03*
X-320400Y224480D03*
X220000Y103851D03*
X-287960Y-237250D03*
X30000Y226150D03*
X-30000Y226150D03*
X55000Y23851D03*
X-35000Y56150D03*
X35000Y56150D03*
X-225000Y86150D03*
X-323686Y-52500D03*
X-331144Y-57500D03*
X-295000Y86150D03*
X220000Y216150D03*
X-45000Y195000D03*
X-17500Y-12500D03*
X7500Y-37500D03*
X72500Y57500D03*
X147500Y-17500D03*
X67500Y-15000D03*
X197500Y75000D03*
D16*
X-365000Y190000D02*
X-380000Y190000D01*
X-365000Y190000D02*
X-305000Y130000D01*
X-195000Y130000D01*
X-100000Y35000D01*
X-100000Y-20000D01*
D17*
X-100000Y-20000D03*
X45000Y64920D03*
D15*
X-12500Y92500D03*
X-82500Y57500D03*
X220000Y183851D03*
X320117Y32750D03*
X-269600Y224480D03*
X341460Y-165000D03*
X-30000Y193851D03*
X-144600Y-74690D03*
X-55000Y56150D03*
X232915Y179250D03*
X327085Y127250D03*
X323686Y-62500D03*
X331144Y-67500D03*
X-312040Y-162750D03*
X-140000Y193611D03*
X-80000Y193611D03*
X290000Y53851D03*
X-60160Y107500D03*
X-60160Y157500D03*
X12500Y64840D03*
X-12500Y64840D03*
X7500Y185160D03*
X-35000Y160000D03*
X-65000Y177500D03*
X-142500Y100000D03*
X-185000Y-37500D03*
D16*
X-17500Y102500D02*
X-17500Y187500D01*
X-17500Y102500D02*
X-27500Y92500D01*
X-27500Y52500D01*
X62500Y-37500D01*
D15*
X-17500Y187500D03*
X62500Y-37500D03*
D16*
X210000Y60000D02*
X297500Y-27500D01*
X210000Y60000D02*
X117500Y60000D01*
X70000Y107500D01*
X35000Y107500D01*
X27500Y115000D01*
X27500Y140000D01*
X35000Y147500D01*
D15*
X297500Y-27500D03*
X35000Y147500D03*
X-55000Y15000D03*
X-67500Y7500D03*
X-35000Y137500D03*
X-132500Y-37500D03*
X-65000Y137500D03*
X-122500Y80000D03*
D17*
X-254841Y105000D03*
X-348000Y-177555D03*
X-265160Y105000D03*
X-205160Y105000D03*
X-225000Y52946D03*
X-220000Y143555D03*
X-236554Y79500D03*
D15*
X282500Y112500D03*
X272500Y102500D03*
X287500Y-222500D03*
X212500Y97500D03*
X-290000Y-62500D03*
X-277500Y-50000D03*
X342500Y-15000D03*
X327500Y0D03*
D16*
X-7500Y80000D02*
X-20000Y92500D01*
X-7500Y80000D02*
X92500Y80000D01*
X175000Y-2500D01*
X265000Y-2500D01*
D15*
X-20000Y92500D03*
X265000Y-2500D03*
X-82500Y137500D03*
X245000Y50000D03*
X237500Y50000D03*
X-172500Y192500D03*
X275000Y-12500D03*
X272500Y-27500D03*
X232500Y7500D03*
X-172500Y185000D03*
X242500Y40000D03*
X-80000Y35000D03*
X35000Y97500D03*
X172500Y7500D03*
D17*
X-314841Y105000D03*
X293000Y223805D03*
X-283446Y79500D03*
X-312945Y-222750D03*
D15*
X-62500Y127500D03*
X25000Y102500D03*
X-25000Y157500D03*
X-2500Y147500D03*
X90000Y-85000D03*
X-10000Y147500D03*
X85000Y-90000D03*
D16*
X-5000Y22500D02*
X-22500Y40000D01*
X-5000Y22500D02*
X-2500Y22500D01*
X50000Y-30000D01*
X50000Y-40000D01*
D15*
X-22500Y40000D03*
X50000Y-40000D03*
D16*
X10000Y22500D02*
X-22500Y55000D01*
X10000Y22500D02*
X10000Y20000D01*
X62500Y-32500D01*
X77500Y-32500D01*
X82500Y-37500D01*
D15*
X-22500Y55000D03*
X82500Y-37500D03*
D16*
X5000Y60000D02*
X-7500Y60000D01*
X5000Y60000D02*
X32500Y32500D01*
X45000Y32500D01*
X50000Y27500D01*
X50000Y22500D01*
X112500Y-40000D01*
D15*
X-7500Y60000D03*
X112500Y-40000D03*
X95000Y-37500D03*
X-80000Y82500D03*
D16*
X2500Y135000D02*
X15000Y147500D01*
D15*
X300000Y-112500D03*
X2500Y135000D03*
X15000Y147500D03*
X-335000Y-85000D03*
X-345000Y-95000D03*
X-280000Y-160000D03*
X-267500Y-172500D03*
X282500Y-27500D03*
X210000Y65000D03*
X-302500Y-137500D03*
X2500Y152500D03*
X-40000Y252500D03*
X-30000Y242500D03*
D17*
X220000Y142946D03*
X-384445Y-165000D03*
X232010Y159750D03*
D14*
X205000Y215000D02*
X205000Y270000D01*
X205000Y215000D02*
X205000Y160000D01*
X160000Y115000D02*
X35000Y115000D01*
X35000Y135000D01*
X95000Y135000D01*
X95000Y215000D01*
X95000Y280000D01*
D16*
X95000Y215000D02*
X205000Y215000D01*
M02*
