M48
;GenerationSoftware,Autodesk,EAGLE,9.3.0*%
;CreationDate,2019-06-23T05:58:35Z*%
FMAT,2
ICI,OFF
METRIC,TZ,000.000
T6C0.200
T5C0.381
T4C0.900
T3C1.000
T2C1.300
T1C2.200
%
G90
M71
T1
X-107000Y-27000
X-107000Y27000
X-107000Y27000
X-53000Y-27000
X-53000Y27000
X107000Y27000
X107000Y-27000
X107000Y-27000
X53000Y27000
X53000Y-27000
X-5700Y-19000
X5700Y-19000
X-37500Y-5500
X-37500Y25500
X37500Y-5500
X37500Y25500
T2
X0Y-26500
X2500Y-12000
X-2500Y-12000
X2500Y-26500
X-2500Y-26500
T3
X-20000Y-9500
X-11000Y-9500
X-24500Y-9500
X-15500Y-9500
T4
X-38000Y9000
X-38000Y11000
X-38000Y15000
X-38000Y17000
X-38000Y-1000
X-38000Y1000
X-38000Y3000
X-38000Y21000
X-38000Y7000
X-38000Y5000
X-38000Y13000
X-38000Y19000
X38000Y-1000
X38000Y17000
X38000Y19000
X38000Y21000
X38000Y3000
X38000Y5000
X38000Y9000
X38000Y11000
X38000Y13000
X38000Y15000
X38000Y7000
X38000Y1000
T5
X23201Y15975
X-38445Y-16500
X22000Y14295
X-31294Y-22275
X-28345Y7950
X29300Y22380
X-31484Y10500
X-23655Y7950
X-22000Y14355
X-22500Y5295
X-20516Y10500
X-26516Y10500
X-34800Y-17756
X-25484Y10500
X-10000Y-2000
X4500Y6492
T6
X-1250Y9250
X-8250Y5750
X22000Y18385
X32012Y3275
X-26960Y22448
X34146Y-16500
X-3000Y19385
X-14460Y-7469
X-5500Y5615
X23291Y17925
X32708Y12725
X32369Y-6250
X33114Y-6750
X-31204Y-16275
X-14000Y19361
X-8000Y19361
X29000Y5385
X-6016Y10750
X-6016Y15750
X1250Y6484
X-1250Y6484
X750Y18516
X-3500Y16000
X-6500Y17750
X-14250Y10000
X-18500Y-3750
X-1750Y18750
X6250Y-3750
X29750Y-2750
X3500Y14750
X-5500Y1500
X-6750Y750
X-3500Y13750
X-13250Y-3750
X-6500Y13750
X-12250Y8000
X19750Y7500
X6750Y-1500
X14750Y-1750
X7250Y5750
X750Y-3750
X-1750Y-1250
X-4500Y19500
X28250Y11250
X27250Y10250
X28750Y-22250
X21250Y9750
X-29000Y-6250
X-27750Y-5000
X34250Y-1500
X32750Y0
X-2000Y9250
X26500Y-250
X-8250Y13750
X24500Y5000
X23750Y5000
X-17250Y19250
X27500Y-1250
X27250Y-2750
X23250Y750
X-17250Y18500
X24250Y4000
X-8000Y3500
X3500Y9750
X17250Y750
X22000Y21615
X-29500Y8615
X-33114Y-5750
X-32369Y-5250
X-6250Y12750
X2500Y10250
X-2500Y15750
X-250Y14750
X9000Y-8500
X-1000Y14750
X8500Y-9000
X-2250Y4000
X5000Y-4000
X-2250Y5500
X8250Y-3750
X-750Y6000
X11250Y-4000
X9500Y-3750
X-8000Y8250
X30000Y-11250
X250Y13500
X1500Y14750
X-33500Y-8500
X-34500Y-9500
X-28000Y-16000
X-26750Y-17250
X28250Y-2750
X21000Y6500
X-30250Y-13750
X250Y15250
X-4000Y25250
X-3000Y24250
X-22500Y8615
X3500Y5615
X-3500Y5615
X5500Y2385
X-3000Y22615
X3000Y22615
X-28796Y-23725
X22000Y10385
X-32040Y22448
X28886Y-5750
X29631Y-5250
X29000Y8615
X20446Y-13500
X15554Y-13500
X250Y16246
X2250Y16246
X-750Y8754
X750Y8754
X2250Y8754
X-29000Y9000
X-29000Y10000
X-23000Y9000
X-24000Y5000
X-25000Y4000
X-26000Y5000
X-27000Y9000
X-31000Y9000
X-28000Y9000
X-29000Y11000
X-30000Y9000
X-23000Y10000
X-22000Y9000
X-21000Y9000
X-25000Y9000
X-23000Y11000
X-24000Y9000
X-29000Y5000
X-24500Y5000
X-29000Y4000
X-26000Y4000
X-24000Y4000
X-3746Y15250
X-3746Y10250
X5696Y7350
X5696Y-270
X8000Y25325
X-10554Y-22500
X-15446Y-22500
X-27500Y3002
X11346Y-22600
X11346Y-15400
X25346Y-22600
X25346Y-15400
X-5696Y-5350
X20446Y-20500
X15554Y-20500
X20446Y-27500
X15554Y-27500
X-22654Y-22600
X-22654Y-15400
X26268Y-1275
X-10554Y-12500
X-15446Y-12500
X-24200Y19846
X-17800Y19846
X-20000Y18154
X-25654Y7000
X36454Y-21500
X-19540Y-3611
X30603Y14675
X25396Y17275
X25396Y15325
X26016Y12725
X25396Y12075
X12000Y19000
X21500Y27000
X20500Y27000
M30