G04 EAGLE Gerber RS-274X export*
G75*
%MOMM*%
%FSLAX34Y34*%
%LPD*%
%INSolder side*%
%IPPOS*%
%AMOC8*
5,1,8,0,0,1.08239X$1,22.5*%
G01*
%ADD10C,0.352400*%
%ADD11R,1.350000X1.350000*%
%ADD12C,1.350000*%
%ADD13C,0.152400*%
%ADD14R,1.650000X1.650000*%
%ADD15C,1.650000*%
%ADD16C,1.891050*%
%ADD17C,1.950000*%
%ADD18R,1.950000X1.950000*%
%ADD19C,3.216000*%
%ADD20C,1.000000*%
%ADD21C,0.454000*%
%ADD22C,0.127000*%
%ADD23C,0.635000*%
%ADD24C,0.508000*%
%ADD25C,0.604000*%

G36*
X380022Y-297495D02*
X380022Y-297495D01*
X380050Y-297497D01*
X383470Y-297228D01*
X383519Y-297215D01*
X383616Y-297199D01*
X390123Y-295085D01*
X390127Y-295082D01*
X390133Y-295082D01*
X390299Y-294995D01*
X395834Y-290974D01*
X395838Y-290970D01*
X395843Y-290967D01*
X395974Y-290834D01*
X399995Y-285299D01*
X399997Y-285294D01*
X400001Y-285290D01*
X400085Y-285123D01*
X402199Y-278616D01*
X402206Y-278568D01*
X402206Y-278565D01*
X402206Y-278564D01*
X402228Y-278470D01*
X402497Y-275050D01*
X402495Y-275028D01*
X402499Y-275000D01*
X402499Y285000D01*
X402488Y285065D01*
X402486Y285131D01*
X402468Y285174D01*
X402460Y285221D01*
X402426Y285278D01*
X402401Y285338D01*
X402370Y285373D01*
X402345Y285414D01*
X402294Y285456D01*
X402250Y285504D01*
X402208Y285526D01*
X402171Y285555D01*
X402109Y285576D01*
X402050Y285607D01*
X401996Y285615D01*
X401959Y285627D01*
X401919Y285626D01*
X401865Y285634D01*
X160000Y285634D01*
X159935Y285623D01*
X159869Y285621D01*
X159826Y285603D01*
X159779Y285595D01*
X159722Y285561D01*
X159662Y285536D01*
X159627Y285505D01*
X159586Y285480D01*
X159545Y285429D01*
X159496Y285385D01*
X159474Y285343D01*
X159445Y285306D01*
X159424Y285244D01*
X159393Y285185D01*
X159385Y285131D01*
X159373Y285094D01*
X159374Y285054D01*
X159366Y285000D01*
X159366Y210634D01*
X151135Y210634D01*
X151070Y210623D01*
X151004Y210621D01*
X150961Y210603D01*
X150914Y210595D01*
X150857Y210561D01*
X150797Y210536D01*
X150762Y210505D01*
X150721Y210480D01*
X150679Y210429D01*
X150631Y210385D01*
X150609Y210343D01*
X150580Y210306D01*
X150559Y210244D01*
X150528Y210185D01*
X150520Y210131D01*
X150508Y210094D01*
X150509Y210054D01*
X150501Y210000D01*
X150501Y192227D01*
X150516Y192139D01*
X150526Y192051D01*
X150536Y192030D01*
X150540Y192006D01*
X150586Y191929D01*
X150625Y191850D01*
X150642Y191833D01*
X150655Y191813D01*
X150724Y191757D01*
X150788Y191696D01*
X150810Y191687D01*
X150829Y191672D01*
X150913Y191643D01*
X150995Y191608D01*
X151019Y191607D01*
X151041Y191600D01*
X151130Y191602D01*
X151219Y191598D01*
X151242Y191606D01*
X151266Y191606D01*
X151348Y191640D01*
X151433Y191667D01*
X151454Y191683D01*
X151473Y191691D01*
X151511Y191725D01*
X151583Y191779D01*
X151896Y192092D01*
X154211Y194406D01*
X170789Y194406D01*
X239406Y125789D01*
X239406Y85864D01*
X239413Y85823D01*
X239411Y85780D01*
X239433Y85713D01*
X239445Y85643D01*
X239467Y85607D01*
X239480Y85567D01*
X239534Y85494D01*
X239560Y85450D01*
X239576Y85437D01*
X239592Y85416D01*
X241041Y83967D01*
X241041Y81033D01*
X240496Y80488D01*
X240445Y80415D01*
X240389Y80346D01*
X240381Y80324D01*
X240368Y80304D01*
X240346Y80218D01*
X240317Y80134D01*
X240318Y80110D01*
X240312Y80087D01*
X240321Y79998D01*
X240324Y79909D01*
X240333Y79887D01*
X240335Y79864D01*
X240375Y79784D01*
X240408Y79702D01*
X240424Y79684D01*
X240434Y79663D01*
X240499Y79602D01*
X240559Y79536D01*
X240580Y79525D01*
X240598Y79509D01*
X240680Y79474D01*
X240759Y79433D01*
X240785Y79430D01*
X240804Y79421D01*
X240855Y79419D01*
X240944Y79406D01*
X260825Y79406D01*
X260890Y79417D01*
X260956Y79419D01*
X260999Y79437D01*
X261046Y79445D01*
X261103Y79479D01*
X261163Y79504D01*
X261198Y79535D01*
X261239Y79560D01*
X261281Y79611D01*
X261329Y79655D01*
X261351Y79697D01*
X261380Y79734D01*
X261401Y79796D01*
X261432Y79855D01*
X261440Y79909D01*
X261452Y79946D01*
X261451Y79986D01*
X261459Y80040D01*
X261459Y81467D01*
X263533Y83541D01*
X265583Y83541D01*
X265625Y83548D01*
X265667Y83546D01*
X265734Y83568D01*
X265804Y83580D01*
X265840Y83602D01*
X265881Y83615D01*
X265953Y83669D01*
X265997Y83695D01*
X266010Y83711D01*
X266031Y83727D01*
X310408Y128104D01*
X310433Y128138D01*
X310464Y128167D01*
X310496Y128230D01*
X310537Y128288D01*
X310547Y128329D01*
X310567Y128367D01*
X310580Y128456D01*
X310593Y128505D01*
X310590Y128526D01*
X310594Y128552D01*
X310594Y129136D01*
X310587Y129177D01*
X310589Y129220D01*
X310567Y129287D01*
X310555Y129356D01*
X310533Y129393D01*
X310520Y129433D01*
X310466Y129506D01*
X310440Y129550D01*
X310424Y129563D01*
X310408Y129584D01*
X308959Y131033D01*
X308959Y133967D01*
X311033Y136041D01*
X313967Y136041D01*
X316041Y133967D01*
X316041Y131033D01*
X314592Y129584D01*
X314567Y129549D01*
X314536Y129521D01*
X314504Y129458D01*
X314463Y129400D01*
X314453Y129359D01*
X314433Y129321D01*
X314420Y129231D01*
X314407Y129183D01*
X314410Y129162D01*
X314406Y129136D01*
X314406Y126711D01*
X268727Y81031D01*
X268702Y80997D01*
X268671Y80968D01*
X268639Y80905D01*
X268598Y80847D01*
X268588Y80806D01*
X268568Y80768D01*
X268555Y80679D01*
X268542Y80630D01*
X268545Y80609D01*
X268541Y80583D01*
X268541Y78533D01*
X267996Y77988D01*
X267945Y77915D01*
X267889Y77846D01*
X267881Y77824D01*
X267868Y77804D01*
X267846Y77718D01*
X267817Y77634D01*
X267818Y77610D01*
X267812Y77587D01*
X267821Y77498D01*
X267824Y77409D01*
X267833Y77387D01*
X267835Y77364D01*
X267875Y77284D01*
X267908Y77202D01*
X267924Y77184D01*
X267934Y77163D01*
X267999Y77102D01*
X268059Y77036D01*
X268080Y77025D01*
X268098Y77009D01*
X268180Y76974D01*
X268259Y76933D01*
X268285Y76930D01*
X268304Y76921D01*
X268355Y76919D01*
X268444Y76906D01*
X291636Y76906D01*
X291677Y76913D01*
X291720Y76911D01*
X291787Y76933D01*
X291856Y76945D01*
X291893Y76967D01*
X291933Y76980D01*
X292006Y77034D01*
X292050Y77060D01*
X292063Y77076D01*
X292084Y77092D01*
X293533Y78541D01*
X296467Y78541D01*
X298541Y76467D01*
X298541Y73533D01*
X297996Y72988D01*
X297945Y72915D01*
X297889Y72846D01*
X297881Y72824D01*
X297868Y72804D01*
X297846Y72718D01*
X297817Y72634D01*
X297818Y72610D01*
X297812Y72587D01*
X297821Y72498D01*
X297824Y72409D01*
X297833Y72387D01*
X297835Y72364D01*
X297875Y72284D01*
X297908Y72202D01*
X297924Y72184D01*
X297934Y72163D01*
X297999Y72102D01*
X298059Y72036D01*
X298080Y72025D01*
X298098Y72009D01*
X298180Y71974D01*
X298259Y71933D01*
X298285Y71930D01*
X298304Y71921D01*
X298355Y71919D01*
X298444Y71906D01*
X319056Y71906D01*
X319143Y71921D01*
X319232Y71931D01*
X319253Y71941D01*
X319277Y71945D01*
X319353Y71991D01*
X319433Y72030D01*
X319449Y72047D01*
X319470Y72060D01*
X319526Y72129D01*
X319587Y72193D01*
X319596Y72215D01*
X319611Y72234D01*
X319640Y72318D01*
X319674Y72400D01*
X319675Y72424D01*
X319683Y72446D01*
X319680Y72535D01*
X319684Y72624D01*
X319677Y72647D01*
X319676Y72671D01*
X319643Y72753D01*
X319616Y72838D01*
X319600Y72859D01*
X319592Y72878D01*
X319558Y72916D01*
X319504Y72988D01*
X318959Y73533D01*
X318959Y75583D01*
X318952Y75625D01*
X318954Y75667D01*
X318932Y75734D01*
X318920Y75804D01*
X318898Y75840D01*
X318885Y75881D01*
X318831Y75953D01*
X318805Y75997D01*
X318789Y76010D01*
X318773Y76031D01*
X313094Y81711D01*
X313094Y113289D01*
X325408Y125604D01*
X325433Y125638D01*
X325464Y125667D01*
X325496Y125730D01*
X325537Y125788D01*
X325547Y125829D01*
X325567Y125867D01*
X325580Y125956D01*
X325593Y126005D01*
X325590Y126026D01*
X325594Y126052D01*
X325594Y160789D01*
X326896Y162091D01*
X328773Y163969D01*
X328798Y164003D01*
X328829Y164032D01*
X328861Y164095D01*
X328902Y164153D01*
X328912Y164194D01*
X328932Y164232D01*
X328945Y164321D01*
X328958Y164370D01*
X328955Y164391D01*
X328959Y164417D01*
X328959Y166467D01*
X331033Y168541D01*
X333967Y168541D01*
X334512Y167996D01*
X334585Y167945D01*
X334654Y167889D01*
X334676Y167881D01*
X334696Y167868D01*
X334782Y167846D01*
X334866Y167817D01*
X334890Y167818D01*
X334913Y167812D01*
X335002Y167821D01*
X335091Y167824D01*
X335113Y167833D01*
X335136Y167835D01*
X335216Y167875D01*
X335298Y167908D01*
X335316Y167924D01*
X335337Y167934D01*
X335398Y167999D01*
X335464Y168059D01*
X335475Y168080D01*
X335491Y168098D01*
X335526Y168180D01*
X335567Y168259D01*
X335570Y168285D01*
X335579Y168304D01*
X335581Y168355D01*
X335594Y168444D01*
X335594Y168948D01*
X335587Y168990D01*
X335589Y169032D01*
X335567Y169099D01*
X335555Y169169D01*
X335533Y169205D01*
X335520Y169246D01*
X335466Y169318D01*
X335440Y169362D01*
X335424Y169375D01*
X335408Y169396D01*
X271031Y233773D01*
X270997Y233798D01*
X270968Y233829D01*
X270905Y233861D01*
X270847Y233902D01*
X270806Y233912D01*
X270768Y233932D01*
X270679Y233945D01*
X270630Y233958D01*
X270609Y233955D01*
X270583Y233959D01*
X268533Y233959D01*
X266459Y236033D01*
X266459Y238967D01*
X268533Y241041D01*
X271467Y241041D01*
X273541Y238967D01*
X273541Y236917D01*
X273548Y236875D01*
X273546Y236833D01*
X273568Y236766D01*
X273580Y236696D01*
X273602Y236660D01*
X273615Y236619D01*
X273669Y236547D01*
X273695Y236503D01*
X273711Y236490D01*
X273727Y236469D01*
X338104Y172092D01*
X339406Y170789D01*
X339406Y126052D01*
X339413Y126010D01*
X339411Y125968D01*
X339433Y125901D01*
X339445Y125831D01*
X339467Y125795D01*
X339480Y125754D01*
X339534Y125682D01*
X339560Y125638D01*
X339576Y125625D01*
X339592Y125604D01*
X360604Y104592D01*
X360604Y104591D01*
X362091Y103104D01*
X362092Y103104D01*
X365604Y99591D01*
X366906Y98289D01*
X366906Y83552D01*
X366913Y83510D01*
X366911Y83468D01*
X366933Y83401D01*
X366945Y83331D01*
X366967Y83295D01*
X366980Y83254D01*
X367034Y83182D01*
X367060Y83138D01*
X367076Y83125D01*
X367092Y83104D01*
X373978Y76218D01*
X374032Y76180D01*
X374079Y76135D01*
X374123Y76116D01*
X374162Y76089D01*
X374225Y76073D01*
X374286Y76047D01*
X374333Y76045D01*
X374379Y76034D01*
X374444Y76040D01*
X374510Y76037D01*
X374555Y76052D01*
X374602Y76057D01*
X374661Y76086D01*
X374724Y76106D01*
X374768Y76139D01*
X374803Y76156D01*
X374830Y76185D01*
X374875Y76218D01*
X375457Y76800D01*
X378405Y78021D01*
X381595Y78021D01*
X384543Y76800D01*
X386800Y74543D01*
X388021Y71595D01*
X388021Y68405D01*
X386800Y65457D01*
X384543Y63200D01*
X381595Y61979D01*
X378405Y61979D01*
X375457Y63200D01*
X373200Y65457D01*
X371979Y68405D01*
X371979Y71595D01*
X372177Y72074D01*
X372189Y72127D01*
X372210Y72177D01*
X372213Y72235D01*
X372225Y72293D01*
X372218Y72347D01*
X372220Y72401D01*
X372202Y72457D01*
X372194Y72515D01*
X372168Y72563D01*
X372151Y72614D01*
X372109Y72672D01*
X372087Y72712D01*
X372064Y72733D01*
X372040Y72765D01*
X363094Y81711D01*
X363094Y96448D01*
X363087Y96490D01*
X363089Y96532D01*
X363067Y96599D01*
X363055Y96669D01*
X363033Y96705D01*
X363020Y96746D01*
X362966Y96819D01*
X362940Y96862D01*
X362924Y96875D01*
X362909Y96896D01*
X360449Y99356D01*
X360414Y99381D01*
X360386Y99411D01*
X360365Y99422D01*
X360347Y99439D01*
X360303Y99458D01*
X360264Y99484D01*
X360221Y99496D01*
X360186Y99514D01*
X360162Y99517D01*
X360140Y99527D01*
X360093Y99529D01*
X360047Y99540D01*
X360023Y99538D01*
X360001Y99541D01*
X359999Y99541D01*
X359962Y99535D01*
X359916Y99537D01*
X359871Y99522D01*
X359824Y99517D01*
X359800Y99506D01*
X359778Y99502D01*
X359744Y99481D01*
X359702Y99468D01*
X359658Y99435D01*
X359623Y99418D01*
X359606Y99400D01*
X359585Y99387D01*
X359572Y99372D01*
X359552Y99356D01*
X328289Y68094D01*
X323632Y68094D01*
X323544Y68079D01*
X323456Y68069D01*
X323435Y68059D01*
X323411Y68055D01*
X323334Y68009D01*
X323255Y67970D01*
X323239Y67953D01*
X323218Y67940D01*
X323162Y67871D01*
X323101Y67807D01*
X323092Y67785D01*
X323077Y67766D01*
X323048Y67682D01*
X323013Y67600D01*
X323012Y67576D01*
X323005Y67554D01*
X323007Y67465D01*
X323003Y67376D01*
X323011Y67353D01*
X323011Y67329D01*
X323045Y67247D01*
X323072Y67162D01*
X323088Y67141D01*
X323096Y67122D01*
X323130Y67084D01*
X323184Y67012D01*
X324592Y65604D01*
X373978Y16218D01*
X374032Y16180D01*
X374079Y16135D01*
X374123Y16116D01*
X374162Y16089D01*
X374225Y16073D01*
X374286Y16047D01*
X374333Y16045D01*
X374379Y16034D01*
X374444Y16040D01*
X374510Y16037D01*
X374555Y16052D01*
X374602Y16057D01*
X374661Y16086D01*
X374724Y16106D01*
X374768Y16139D01*
X374803Y16156D01*
X374830Y16185D01*
X374875Y16218D01*
X375457Y16800D01*
X378405Y18021D01*
X381595Y18021D01*
X384543Y16800D01*
X386800Y14543D01*
X388021Y11595D01*
X388021Y8405D01*
X386800Y5457D01*
X384543Y3200D01*
X381595Y1979D01*
X378405Y1979D01*
X375457Y3200D01*
X373200Y5457D01*
X371979Y8405D01*
X371979Y11595D01*
X372177Y12074D01*
X372189Y12127D01*
X372210Y12177D01*
X372213Y12235D01*
X372225Y12293D01*
X372218Y12347D01*
X372220Y12401D01*
X372202Y12457D01*
X372194Y12515D01*
X372168Y12563D01*
X372151Y12614D01*
X372109Y12672D01*
X372087Y12712D01*
X372064Y12733D01*
X372040Y12765D01*
X321896Y62908D01*
X321862Y62933D01*
X321833Y62964D01*
X321770Y62996D01*
X321712Y63037D01*
X321671Y63047D01*
X321633Y63067D01*
X321544Y63080D01*
X321495Y63093D01*
X321474Y63090D01*
X321448Y63094D01*
X290944Y63094D01*
X290857Y63079D01*
X290768Y63069D01*
X290747Y63059D01*
X290723Y63055D01*
X290647Y63009D01*
X290567Y62970D01*
X290551Y62953D01*
X290530Y62940D01*
X290474Y62871D01*
X290413Y62807D01*
X290404Y62785D01*
X290389Y62766D01*
X290360Y62682D01*
X290326Y62600D01*
X290325Y62576D01*
X290317Y62554D01*
X290320Y62465D01*
X290316Y62376D01*
X290323Y62353D01*
X290324Y62329D01*
X290357Y62247D01*
X290384Y62162D01*
X290400Y62141D01*
X290408Y62122D01*
X290442Y62084D01*
X290496Y62012D01*
X291041Y61467D01*
X291041Y59417D01*
X291048Y59375D01*
X291046Y59333D01*
X291068Y59266D01*
X291080Y59196D01*
X291102Y59160D01*
X291115Y59119D01*
X291169Y59046D01*
X291195Y59003D01*
X291211Y58990D01*
X291226Y58969D01*
X292877Y57319D01*
X292950Y57268D01*
X293019Y57212D01*
X293041Y57204D01*
X293061Y57190D01*
X293147Y57168D01*
X293231Y57140D01*
X293255Y57140D01*
X293278Y57135D01*
X293367Y57144D01*
X293456Y57146D01*
X293478Y57155D01*
X293501Y57158D01*
X293581Y57197D01*
X293663Y57231D01*
X293681Y57247D01*
X293702Y57257D01*
X293763Y57322D01*
X293829Y57382D01*
X293840Y57403D01*
X293856Y57420D01*
X293891Y57502D01*
X293932Y57582D01*
X293935Y57608D01*
X293944Y57627D01*
X293946Y57677D01*
X293959Y57767D01*
X293959Y58967D01*
X296033Y61041D01*
X298967Y61041D01*
X301041Y58967D01*
X301041Y56033D01*
X298967Y53959D01*
X297767Y53959D01*
X297679Y53943D01*
X297591Y53934D01*
X297570Y53924D01*
X297546Y53920D01*
X297470Y53874D01*
X297390Y53835D01*
X297373Y53818D01*
X297353Y53805D01*
X297297Y53736D01*
X297236Y53672D01*
X297227Y53650D01*
X297212Y53631D01*
X297183Y53547D01*
X297148Y53465D01*
X297147Y53441D01*
X297140Y53419D01*
X297142Y53330D01*
X297138Y53241D01*
X297146Y53218D01*
X297146Y53194D01*
X297180Y53112D01*
X297207Y53027D01*
X297223Y53006D01*
X297231Y52987D01*
X297265Y52949D01*
X297319Y52877D01*
X309512Y40684D01*
X309585Y40633D01*
X309654Y40577D01*
X309676Y40569D01*
X309696Y40555D01*
X309782Y40533D01*
X309866Y40505D01*
X309890Y40505D01*
X309913Y40500D01*
X310002Y40509D01*
X310091Y40511D01*
X310113Y40520D01*
X310136Y40523D01*
X310216Y40562D01*
X310298Y40596D01*
X310316Y40612D01*
X310337Y40622D01*
X310398Y40687D01*
X310464Y40747D01*
X310475Y40768D01*
X310491Y40785D01*
X310526Y40867D01*
X310567Y40947D01*
X310570Y40973D01*
X310579Y40992D01*
X310581Y41042D01*
X310594Y41132D01*
X310594Y51636D01*
X310587Y51677D01*
X310589Y51720D01*
X310567Y51787D01*
X310555Y51857D01*
X310533Y51893D01*
X310520Y51933D01*
X310466Y52006D01*
X310440Y52050D01*
X310424Y52063D01*
X310408Y52084D01*
X308959Y53533D01*
X308959Y56467D01*
X311033Y58541D01*
X313967Y58541D01*
X316041Y56467D01*
X316041Y53533D01*
X314592Y52084D01*
X314567Y52049D01*
X314536Y52021D01*
X314504Y51958D01*
X314463Y51900D01*
X314453Y51859D01*
X314433Y51821D01*
X314420Y51731D01*
X314407Y51683D01*
X314410Y51662D01*
X314406Y51636D01*
X314406Y-26448D01*
X314413Y-26490D01*
X314411Y-26532D01*
X314433Y-26599D01*
X314445Y-26669D01*
X314467Y-26705D01*
X314480Y-26746D01*
X314534Y-26818D01*
X314560Y-26862D01*
X314576Y-26875D01*
X314592Y-26896D01*
X356906Y-69211D01*
X356906Y-175789D01*
X303727Y-228969D01*
X303702Y-229003D01*
X303671Y-229032D01*
X303639Y-229095D01*
X303598Y-229153D01*
X303588Y-229194D01*
X303568Y-229232D01*
X303555Y-229321D01*
X303542Y-229370D01*
X303545Y-229391D01*
X303541Y-229417D01*
X303541Y-231467D01*
X301467Y-233541D01*
X298533Y-233541D01*
X296459Y-231467D01*
X296459Y-228533D01*
X298533Y-226459D01*
X300583Y-226459D01*
X300625Y-226452D01*
X300667Y-226454D01*
X300734Y-226432D01*
X300804Y-226420D01*
X300840Y-226398D01*
X300881Y-226385D01*
X300953Y-226331D01*
X300997Y-226305D01*
X301010Y-226289D01*
X301031Y-226273D01*
X310181Y-217123D01*
X310232Y-217050D01*
X310288Y-216981D01*
X310296Y-216959D01*
X310310Y-216939D01*
X310332Y-216853D01*
X310360Y-216769D01*
X310360Y-216745D01*
X310365Y-216722D01*
X310356Y-216633D01*
X310354Y-216544D01*
X310345Y-216522D01*
X310342Y-216499D01*
X310303Y-216419D01*
X310269Y-216337D01*
X310253Y-216319D01*
X310243Y-216298D01*
X310178Y-216237D01*
X310118Y-216171D01*
X310097Y-216160D01*
X310080Y-216144D01*
X309998Y-216109D01*
X309918Y-216068D01*
X309892Y-216065D01*
X309873Y-216056D01*
X309823Y-216054D01*
X309733Y-216041D01*
X308533Y-216041D01*
X306699Y-214206D01*
X306644Y-214168D01*
X306597Y-214123D01*
X306553Y-214105D01*
X306514Y-214078D01*
X306451Y-214061D01*
X306390Y-214036D01*
X306343Y-214034D01*
X306297Y-214022D01*
X306232Y-214029D01*
X306166Y-214026D01*
X306121Y-214040D01*
X306074Y-214045D01*
X306015Y-214074D01*
X305952Y-214094D01*
X305908Y-214127D01*
X305873Y-214144D01*
X305846Y-214173D01*
X305802Y-214206D01*
X303967Y-216041D01*
X301033Y-216041D01*
X298959Y-213967D01*
X298959Y-211033D01*
X301033Y-208959D01*
X303967Y-208959D01*
X305802Y-210794D01*
X305856Y-210832D01*
X305903Y-210877D01*
X305947Y-210895D01*
X305986Y-210922D01*
X306049Y-210939D01*
X306110Y-210964D01*
X306157Y-210966D01*
X306203Y-210978D01*
X306268Y-210971D01*
X306334Y-210974D01*
X306379Y-210960D01*
X306426Y-210955D01*
X306485Y-210926D01*
X306548Y-210906D01*
X306592Y-210873D01*
X306627Y-210856D01*
X306654Y-210827D01*
X306699Y-210794D01*
X308533Y-208959D01*
X311467Y-208959D01*
X313541Y-211033D01*
X313541Y-212233D01*
X313557Y-212321D01*
X313566Y-212409D01*
X313576Y-212430D01*
X313580Y-212454D01*
X313626Y-212530D01*
X313665Y-212610D01*
X313682Y-212627D01*
X313695Y-212647D01*
X313764Y-212703D01*
X313828Y-212764D01*
X313850Y-212773D01*
X313869Y-212788D01*
X313953Y-212817D01*
X314035Y-212852D01*
X314059Y-212853D01*
X314081Y-212860D01*
X314170Y-212858D01*
X314259Y-212862D01*
X314282Y-212854D01*
X314306Y-212854D01*
X314388Y-212820D01*
X314473Y-212793D01*
X314494Y-212777D01*
X314513Y-212769D01*
X314551Y-212735D01*
X314623Y-212681D01*
X342681Y-184623D01*
X342732Y-184550D01*
X342788Y-184481D01*
X342796Y-184459D01*
X342810Y-184439D01*
X342832Y-184353D01*
X342860Y-184269D01*
X342860Y-184245D01*
X342865Y-184222D01*
X342856Y-184133D01*
X342854Y-184044D01*
X342845Y-184022D01*
X342842Y-183999D01*
X342803Y-183919D01*
X342769Y-183837D01*
X342753Y-183819D01*
X342743Y-183798D01*
X342678Y-183737D01*
X342618Y-183671D01*
X342597Y-183660D01*
X342580Y-183644D01*
X342498Y-183609D01*
X342418Y-183568D01*
X342392Y-183565D01*
X342373Y-183556D01*
X342323Y-183554D01*
X342233Y-183541D01*
X341033Y-183541D01*
X338959Y-181467D01*
X338959Y-178533D01*
X341033Y-176459D01*
X343083Y-176459D01*
X343125Y-176452D01*
X343167Y-176454D01*
X343234Y-176432D01*
X343304Y-176420D01*
X343340Y-176398D01*
X343381Y-176385D01*
X343453Y-176331D01*
X343497Y-176305D01*
X343510Y-176289D01*
X343531Y-176273D01*
X347908Y-171896D01*
X347933Y-171862D01*
X347964Y-171833D01*
X347996Y-171770D01*
X348037Y-171712D01*
X348047Y-171671D01*
X348067Y-171633D01*
X348080Y-171544D01*
X348093Y-171495D01*
X348090Y-171474D01*
X348094Y-171448D01*
X348094Y-71052D01*
X348087Y-71010D01*
X348089Y-70968D01*
X348081Y-70943D01*
X348081Y-70941D01*
X348078Y-70935D01*
X348067Y-70901D01*
X348055Y-70831D01*
X348033Y-70795D01*
X348020Y-70754D01*
X347966Y-70682D01*
X347940Y-70638D01*
X347924Y-70625D01*
X347908Y-70604D01*
X305594Y-28289D01*
X305594Y38948D01*
X305587Y38990D01*
X305589Y39032D01*
X305567Y39099D01*
X305555Y39169D01*
X305533Y39205D01*
X305520Y39246D01*
X305466Y39318D01*
X305440Y39362D01*
X305424Y39375D01*
X305408Y39396D01*
X288531Y56273D01*
X288497Y56298D01*
X288468Y56329D01*
X288405Y56361D01*
X288347Y56402D01*
X288306Y56412D01*
X288268Y56432D01*
X288179Y56445D01*
X288130Y56458D01*
X288109Y56455D01*
X288083Y56459D01*
X286033Y56459D01*
X283959Y58533D01*
X283959Y61467D01*
X284504Y62012D01*
X284555Y62085D01*
X284611Y62154D01*
X284619Y62176D01*
X284632Y62196D01*
X284654Y62282D01*
X284683Y62366D01*
X284682Y62390D01*
X284688Y62413D01*
X284679Y62502D01*
X284676Y62591D01*
X284667Y62613D01*
X284665Y62636D01*
X284625Y62716D01*
X284592Y62798D01*
X284576Y62816D01*
X284566Y62837D01*
X284501Y62898D01*
X284441Y62964D01*
X284420Y62975D01*
X284402Y62991D01*
X284320Y63026D01*
X284241Y63067D01*
X284215Y63070D01*
X284196Y63079D01*
X284145Y63081D01*
X284056Y63094D01*
X276052Y63094D01*
X276010Y63087D01*
X275968Y63089D01*
X275901Y63067D01*
X275831Y63055D01*
X275795Y63033D01*
X275754Y63020D01*
X275682Y62966D01*
X275638Y62940D01*
X275625Y62924D01*
X275604Y62908D01*
X265789Y53094D01*
X208632Y53094D01*
X208544Y53078D01*
X208456Y53069D01*
X208435Y53059D01*
X208411Y53055D01*
X208335Y53009D01*
X208255Y52970D01*
X208238Y52953D01*
X208218Y52940D01*
X208162Y52871D01*
X208101Y52807D01*
X208092Y52785D01*
X208077Y52766D01*
X208048Y52682D01*
X208013Y52600D01*
X208012Y52576D01*
X208005Y52554D01*
X208007Y52465D01*
X208003Y52376D01*
X208011Y52353D01*
X208011Y52329D01*
X208045Y52247D01*
X208072Y52162D01*
X208088Y52141D01*
X208096Y52122D01*
X208130Y52084D01*
X208184Y52012D01*
X301906Y-41711D01*
X301906Y-151636D01*
X301913Y-151677D01*
X301911Y-151720D01*
X301919Y-151744D01*
X301919Y-151752D01*
X301931Y-151782D01*
X301933Y-151787D01*
X301945Y-151856D01*
X301967Y-151893D01*
X301980Y-151933D01*
X302034Y-152006D01*
X302060Y-152050D01*
X302076Y-152063D01*
X302092Y-152084D01*
X303541Y-153533D01*
X303541Y-156467D01*
X301467Y-158541D01*
X298533Y-158541D01*
X296459Y-156467D01*
X296459Y-153533D01*
X297908Y-152084D01*
X297933Y-152049D01*
X297964Y-152021D01*
X297996Y-151958D01*
X298037Y-151900D01*
X298047Y-151859D01*
X298067Y-151821D01*
X298078Y-151742D01*
X298087Y-151715D01*
X298087Y-151704D01*
X298093Y-151683D01*
X298090Y-151662D01*
X298094Y-151636D01*
X298094Y-43552D01*
X298087Y-43510D01*
X298089Y-43468D01*
X298067Y-43401D01*
X298055Y-43331D01*
X298033Y-43295D01*
X298020Y-43254D01*
X297966Y-43182D01*
X297940Y-43138D01*
X297924Y-43125D01*
X297908Y-43104D01*
X171896Y82908D01*
X170594Y84211D01*
X170594Y85825D01*
X170583Y85890D01*
X170581Y85956D01*
X170563Y85999D01*
X170555Y86046D01*
X170521Y86103D01*
X170496Y86163D01*
X170465Y86198D01*
X170440Y86239D01*
X170389Y86280D01*
X170345Y86329D01*
X170303Y86351D01*
X170266Y86380D01*
X170204Y86401D01*
X170145Y86432D01*
X170091Y86440D01*
X170054Y86452D01*
X170014Y86451D01*
X169960Y86459D01*
X169417Y86459D01*
X169375Y86452D01*
X169333Y86454D01*
X169266Y86432D01*
X169196Y86420D01*
X169160Y86398D01*
X169119Y86385D01*
X169047Y86331D01*
X169003Y86305D01*
X168990Y86289D01*
X168969Y86273D01*
X147092Y64396D01*
X147067Y64362D01*
X147036Y64333D01*
X147004Y64270D01*
X146963Y64212D01*
X146953Y64171D01*
X146933Y64133D01*
X146920Y64044D01*
X146907Y63995D01*
X146910Y63974D01*
X146906Y63948D01*
X146906Y-83948D01*
X146913Y-83990D01*
X146911Y-84032D01*
X146933Y-84099D01*
X146945Y-84169D01*
X146967Y-84205D01*
X146980Y-84246D01*
X147034Y-84318D01*
X147060Y-84362D01*
X147076Y-84375D01*
X147092Y-84396D01*
X153969Y-91273D01*
X154003Y-91298D01*
X154032Y-91329D01*
X154095Y-91361D01*
X154153Y-91402D01*
X154194Y-91412D01*
X154232Y-91432D01*
X154321Y-91445D01*
X154370Y-91458D01*
X154391Y-91455D01*
X154417Y-91459D01*
X156467Y-91459D01*
X158541Y-93533D01*
X158541Y-96467D01*
X156467Y-98541D01*
X153533Y-98541D01*
X151459Y-96467D01*
X151459Y-94417D01*
X151452Y-94375D01*
X151454Y-94333D01*
X151432Y-94266D01*
X151420Y-94196D01*
X151398Y-94160D01*
X151385Y-94119D01*
X151331Y-94047D01*
X151305Y-94003D01*
X151289Y-93990D01*
X151273Y-93969D01*
X142988Y-85684D01*
X142915Y-85633D01*
X142846Y-85577D01*
X142824Y-85569D01*
X142804Y-85555D01*
X142718Y-85533D01*
X142634Y-85505D01*
X142610Y-85505D01*
X142587Y-85500D01*
X142498Y-85509D01*
X142409Y-85511D01*
X142387Y-85520D01*
X142364Y-85523D01*
X142284Y-85562D01*
X142202Y-85596D01*
X142184Y-85612D01*
X142163Y-85622D01*
X142102Y-85687D01*
X142036Y-85747D01*
X142025Y-85768D01*
X142009Y-85785D01*
X141974Y-85867D01*
X141933Y-85947D01*
X141930Y-85973D01*
X141921Y-85992D01*
X141919Y-86042D01*
X141906Y-86132D01*
X141906Y-108289D01*
X108727Y-141469D01*
X108702Y-141503D01*
X108671Y-141532D01*
X108639Y-141595D01*
X108598Y-141653D01*
X108588Y-141694D01*
X108568Y-141732D01*
X108555Y-141821D01*
X108542Y-141870D01*
X108545Y-141891D01*
X108541Y-141917D01*
X108541Y-143967D01*
X106467Y-146041D01*
X103533Y-146041D01*
X102988Y-145496D01*
X102915Y-145445D01*
X102846Y-145389D01*
X102824Y-145381D01*
X102804Y-145368D01*
X102718Y-145346D01*
X102634Y-145317D01*
X102610Y-145318D01*
X102587Y-145312D01*
X102498Y-145321D01*
X102409Y-145324D01*
X102387Y-145333D01*
X102364Y-145335D01*
X102284Y-145375D01*
X102202Y-145408D01*
X102184Y-145424D01*
X102163Y-145434D01*
X102102Y-145499D01*
X102036Y-145559D01*
X102025Y-145580D01*
X102009Y-145598D01*
X101974Y-145680D01*
X101933Y-145759D01*
X101930Y-145785D01*
X101921Y-145804D01*
X101919Y-145855D01*
X101906Y-145944D01*
X101906Y-151448D01*
X101913Y-151490D01*
X101911Y-151532D01*
X101933Y-151599D01*
X101945Y-151669D01*
X101967Y-151705D01*
X101980Y-151746D01*
X102034Y-151818D01*
X102060Y-151862D01*
X102076Y-151875D01*
X102092Y-151896D01*
X120604Y-170408D01*
X120638Y-170433D01*
X120667Y-170464D01*
X120730Y-170496D01*
X120788Y-170537D01*
X120829Y-170547D01*
X120867Y-170567D01*
X120956Y-170580D01*
X121005Y-170593D01*
X121026Y-170590D01*
X121052Y-170594D01*
X126636Y-170594D01*
X126677Y-170587D01*
X126720Y-170589D01*
X126787Y-170567D01*
X126856Y-170555D01*
X126893Y-170533D01*
X126933Y-170520D01*
X127006Y-170466D01*
X127050Y-170440D01*
X127063Y-170424D01*
X127084Y-170408D01*
X128533Y-168959D01*
X131467Y-168959D01*
X133541Y-171033D01*
X133541Y-173967D01*
X131467Y-176041D01*
X128533Y-176041D01*
X127084Y-174592D01*
X127049Y-174567D01*
X127021Y-174536D01*
X126958Y-174504D01*
X126900Y-174463D01*
X126859Y-174453D01*
X126821Y-174433D01*
X126731Y-174420D01*
X126683Y-174407D01*
X126662Y-174410D01*
X126636Y-174406D01*
X119211Y-174406D01*
X117908Y-173104D01*
X97988Y-153184D01*
X97915Y-153133D01*
X97846Y-153077D01*
X97824Y-153069D01*
X97804Y-153055D01*
X97718Y-153033D01*
X97634Y-153005D01*
X97610Y-153005D01*
X97587Y-153000D01*
X97498Y-153009D01*
X97409Y-153011D01*
X97387Y-153020D01*
X97364Y-153023D01*
X97284Y-153062D01*
X97202Y-153096D01*
X97184Y-153112D01*
X97163Y-153122D01*
X97102Y-153187D01*
X97036Y-153247D01*
X97025Y-153268D01*
X97009Y-153285D01*
X96974Y-153367D01*
X96933Y-153447D01*
X96930Y-153473D01*
X96921Y-153492D01*
X96919Y-153542D01*
X96906Y-153632D01*
X96906Y-200789D01*
X34524Y-263171D01*
X34493Y-263216D01*
X34454Y-263254D01*
X34429Y-263307D01*
X34396Y-263355D01*
X34382Y-263408D01*
X34359Y-263457D01*
X34355Y-263516D01*
X34340Y-263573D01*
X34346Y-263627D01*
X34341Y-263681D01*
X34358Y-263750D01*
X34363Y-263796D01*
X34377Y-263823D01*
X34386Y-263862D01*
X36021Y-267808D01*
X36021Y-272192D01*
X34343Y-276243D01*
X31243Y-279343D01*
X27192Y-281021D01*
X22808Y-281021D01*
X18757Y-279343D01*
X15657Y-276243D01*
X13979Y-272192D01*
X13979Y-267808D01*
X15657Y-263757D01*
X18757Y-260657D01*
X22808Y-258979D01*
X27192Y-258979D01*
X31138Y-260614D01*
X31190Y-260625D01*
X31240Y-260646D01*
X31299Y-260649D01*
X31357Y-260661D01*
X31410Y-260654D01*
X31465Y-260656D01*
X31521Y-260638D01*
X31579Y-260630D01*
X31627Y-260604D01*
X31678Y-260588D01*
X31735Y-260545D01*
X31776Y-260523D01*
X31796Y-260500D01*
X31829Y-260476D01*
X92908Y-199396D01*
X92933Y-199362D01*
X92964Y-199333D01*
X92996Y-199270D01*
X93037Y-199212D01*
X93047Y-199171D01*
X93067Y-199133D01*
X93080Y-199044D01*
X93093Y-198995D01*
X93090Y-198974D01*
X93094Y-198948D01*
X93094Y-139211D01*
X101711Y-130594D01*
X103948Y-130594D01*
X103990Y-130587D01*
X104032Y-130589D01*
X104099Y-130567D01*
X104169Y-130555D01*
X104205Y-130533D01*
X104246Y-130520D01*
X104318Y-130466D01*
X104362Y-130440D01*
X104375Y-130424D01*
X104396Y-130408D01*
X127908Y-106896D01*
X127933Y-106862D01*
X127964Y-106833D01*
X127996Y-106770D01*
X128037Y-106712D01*
X128047Y-106671D01*
X128067Y-106633D01*
X128080Y-106544D01*
X128093Y-106495D01*
X128090Y-106474D01*
X128094Y-106448D01*
X128094Y-26052D01*
X128087Y-26010D01*
X128089Y-25968D01*
X128067Y-25901D01*
X128055Y-25831D01*
X128033Y-25795D01*
X128020Y-25754D01*
X127989Y-25712D01*
X127985Y-25702D01*
X127967Y-25682D01*
X127966Y-25682D01*
X127940Y-25638D01*
X127924Y-25625D01*
X127908Y-25604D01*
X113531Y-11227D01*
X113497Y-11202D01*
X113468Y-11171D01*
X113405Y-11139D01*
X113347Y-11098D01*
X113306Y-11088D01*
X113268Y-11068D01*
X113179Y-11055D01*
X113130Y-11042D01*
X113109Y-11045D01*
X113083Y-11041D01*
X111033Y-11041D01*
X108959Y-8967D01*
X108959Y-7767D01*
X108943Y-7679D01*
X108934Y-7591D01*
X108924Y-7570D01*
X108920Y-7546D01*
X108874Y-7470D01*
X108835Y-7390D01*
X108818Y-7373D01*
X108805Y-7353D01*
X108736Y-7297D01*
X108672Y-7236D01*
X108650Y-7227D01*
X108631Y-7212D01*
X108547Y-7183D01*
X108465Y-7148D01*
X108441Y-7147D01*
X108419Y-7140D01*
X108330Y-7142D01*
X108241Y-7138D01*
X108218Y-7146D01*
X108194Y-7146D01*
X108112Y-7180D01*
X108027Y-7207D01*
X108006Y-7223D01*
X107987Y-7231D01*
X107949Y-7265D01*
X107877Y-7319D01*
X-5408Y-120604D01*
X-5433Y-120638D01*
X-5464Y-120667D01*
X-5496Y-120730D01*
X-5537Y-120788D01*
X-5547Y-120829D01*
X-5567Y-120867D01*
X-5580Y-120956D01*
X-5593Y-121005D01*
X-5590Y-121026D01*
X-5594Y-121052D01*
X-5594Y-135789D01*
X-14211Y-144406D01*
X-210789Y-144406D01*
X-244520Y-110675D01*
X-244565Y-110644D01*
X-244603Y-110605D01*
X-244656Y-110580D01*
X-244704Y-110547D01*
X-244757Y-110533D01*
X-244806Y-110510D01*
X-244865Y-110506D01*
X-244922Y-110491D01*
X-244976Y-110497D01*
X-245030Y-110492D01*
X-245099Y-110509D01*
X-245145Y-110514D01*
X-245172Y-110528D01*
X-245211Y-110537D01*
X-245666Y-110726D01*
X-249934Y-110726D01*
X-253876Y-109093D01*
X-256893Y-106076D01*
X-258526Y-102134D01*
X-258526Y-97866D01*
X-256893Y-93924D01*
X-253876Y-90907D01*
X-249934Y-89274D01*
X-245666Y-89274D01*
X-241724Y-90907D01*
X-238707Y-93924D01*
X-237074Y-97866D01*
X-237074Y-102134D01*
X-238707Y-106076D01*
X-240770Y-108138D01*
X-240807Y-108192D01*
X-240852Y-108240D01*
X-240871Y-108284D01*
X-240898Y-108323D01*
X-240914Y-108386D01*
X-240940Y-108447D01*
X-240942Y-108494D01*
X-240954Y-108540D01*
X-240947Y-108605D01*
X-240950Y-108671D01*
X-240935Y-108716D01*
X-240930Y-108763D01*
X-240901Y-108822D01*
X-240881Y-108885D01*
X-240848Y-108929D01*
X-240831Y-108964D01*
X-240802Y-108991D01*
X-240770Y-109035D01*
X-209396Y-140408D01*
X-209362Y-140433D01*
X-209333Y-140464D01*
X-209270Y-140496D01*
X-209212Y-140537D01*
X-209171Y-140547D01*
X-209133Y-140567D01*
X-209044Y-140580D01*
X-208995Y-140593D01*
X-208974Y-140590D01*
X-208948Y-140594D01*
X-16052Y-140594D01*
X-16010Y-140587D01*
X-15968Y-140589D01*
X-15901Y-140567D01*
X-15831Y-140555D01*
X-15795Y-140533D01*
X-15754Y-140520D01*
X-15682Y-140466D01*
X-15638Y-140440D01*
X-15625Y-140424D01*
X-15604Y-140408D01*
X-9592Y-134396D01*
X-9567Y-134362D01*
X-9536Y-134333D01*
X-9504Y-134270D01*
X-9463Y-134212D01*
X-9453Y-134171D01*
X-9433Y-134133D01*
X-9420Y-134044D01*
X-9407Y-133995D01*
X-9410Y-133974D01*
X-9406Y-133948D01*
X-9406Y-121132D01*
X-9419Y-121058D01*
X-9419Y-121047D01*
X-9422Y-121041D01*
X-9431Y-120956D01*
X-9441Y-120935D01*
X-9445Y-120911D01*
X-9491Y-120835D01*
X-9530Y-120755D01*
X-9547Y-120738D01*
X-9560Y-120718D01*
X-9629Y-120662D01*
X-9693Y-120601D01*
X-9715Y-120592D01*
X-9734Y-120577D01*
X-9818Y-120548D01*
X-9900Y-120513D01*
X-9924Y-120512D01*
X-9946Y-120505D01*
X-10035Y-120507D01*
X-10124Y-120503D01*
X-10147Y-120511D01*
X-10171Y-120511D01*
X-10253Y-120545D01*
X-10338Y-120572D01*
X-10359Y-120588D01*
X-10378Y-120596D01*
X-10416Y-120630D01*
X-10488Y-120684D01*
X-13793Y-123989D01*
X-13818Y-124023D01*
X-13849Y-124052D01*
X-13881Y-124115D01*
X-13922Y-124173D01*
X-13932Y-124214D01*
X-13952Y-124252D01*
X-13965Y-124341D01*
X-13978Y-124390D01*
X-13975Y-124411D01*
X-13979Y-124437D01*
X-13979Y-135276D01*
X-14724Y-136021D01*
X-35276Y-136021D01*
X-36021Y-135276D01*
X-36021Y-114724D01*
X-35276Y-113979D01*
X-14724Y-113979D01*
X-13979Y-114724D01*
X-13979Y-117253D01*
X-13963Y-117341D01*
X-13954Y-117429D01*
X-13944Y-117450D01*
X-13940Y-117474D01*
X-13894Y-117550D01*
X-13855Y-117630D01*
X-13838Y-117647D01*
X-13825Y-117667D01*
X-13756Y-117723D01*
X-13692Y-117784D01*
X-13670Y-117793D01*
X-13651Y-117808D01*
X-13567Y-117837D01*
X-13485Y-117872D01*
X-13461Y-117873D01*
X-13439Y-117880D01*
X-13350Y-117878D01*
X-13261Y-117882D01*
X-13238Y-117874D01*
X-13214Y-117874D01*
X-13132Y-117840D01*
X-13047Y-117813D01*
X-13026Y-117797D01*
X-13007Y-117789D01*
X-12969Y-117755D01*
X-12897Y-117701D01*
X87908Y-16896D01*
X87933Y-16862D01*
X87964Y-16833D01*
X87996Y-16770D01*
X88037Y-16712D01*
X88047Y-16671D01*
X88067Y-16633D01*
X88080Y-16544D01*
X88093Y-16495D01*
X88090Y-16474D01*
X88094Y-16448D01*
X88094Y48289D01*
X89396Y49591D01*
X89396Y49592D01*
X90409Y50604D01*
X90433Y50638D01*
X90464Y50667D01*
X90496Y50730D01*
X90537Y50788D01*
X90547Y50829D01*
X90567Y50867D01*
X90580Y50956D01*
X90593Y51005D01*
X90590Y51026D01*
X90594Y51052D01*
X90594Y90789D01*
X92908Y93104D01*
X92933Y93138D01*
X92964Y93167D01*
X92996Y93230D01*
X93037Y93288D01*
X93047Y93329D01*
X93067Y93367D01*
X93080Y93456D01*
X93093Y93505D01*
X93090Y93526D01*
X93094Y93552D01*
X93094Y116556D01*
X93079Y116643D01*
X93069Y116732D01*
X93059Y116753D01*
X93055Y116777D01*
X93009Y116853D01*
X92970Y116933D01*
X92953Y116949D01*
X92940Y116970D01*
X92871Y117026D01*
X92807Y117087D01*
X92785Y117096D01*
X92766Y117111D01*
X92682Y117140D01*
X92600Y117174D01*
X92576Y117175D01*
X92554Y117183D01*
X92465Y117180D01*
X92376Y117184D01*
X92353Y117177D01*
X92329Y117176D01*
X92247Y117143D01*
X92162Y117116D01*
X92141Y117100D01*
X92122Y117092D01*
X92084Y117058D01*
X92012Y117004D01*
X91467Y116459D01*
X89417Y116459D01*
X89375Y116452D01*
X89333Y116454D01*
X89266Y116432D01*
X89196Y116420D01*
X89160Y116398D01*
X89119Y116385D01*
X89047Y116331D01*
X89003Y116305D01*
X88990Y116289D01*
X88969Y116273D01*
X87092Y114396D01*
X87091Y114396D01*
X85789Y113094D01*
X81052Y113094D01*
X81010Y113087D01*
X80968Y113089D01*
X80901Y113067D01*
X80831Y113055D01*
X80795Y113033D01*
X80754Y113020D01*
X80682Y112966D01*
X80638Y112940D01*
X80625Y112924D01*
X80604Y112908D01*
X58289Y90594D01*
X21052Y90594D01*
X21010Y90587D01*
X20968Y90589D01*
X20901Y90567D01*
X20831Y90555D01*
X20795Y90533D01*
X20754Y90520D01*
X20682Y90466D01*
X20638Y90440D01*
X20625Y90424D01*
X20604Y90408D01*
X-32681Y37123D01*
X-32732Y37050D01*
X-32788Y36981D01*
X-32796Y36959D01*
X-32810Y36939D01*
X-32832Y36853D01*
X-32860Y36769D01*
X-32860Y36745D01*
X-32865Y36722D01*
X-32856Y36633D01*
X-32854Y36544D01*
X-32845Y36522D01*
X-32842Y36499D01*
X-32803Y36419D01*
X-32769Y36337D01*
X-32753Y36319D01*
X-32743Y36298D01*
X-32678Y36237D01*
X-32618Y36171D01*
X-32597Y36160D01*
X-32580Y36144D01*
X-32498Y36109D01*
X-32418Y36068D01*
X-32392Y36065D01*
X-32373Y36056D01*
X-32323Y36054D01*
X-32233Y36041D01*
X-31033Y36041D01*
X-29584Y34592D01*
X-29549Y34567D01*
X-29521Y34536D01*
X-29458Y34504D01*
X-29400Y34463D01*
X-29359Y34453D01*
X-29321Y34433D01*
X-29231Y34420D01*
X-29183Y34407D01*
X-29162Y34410D01*
X-29136Y34406D01*
X-1711Y34406D01*
X55604Y-22908D01*
X55638Y-22933D01*
X55667Y-22964D01*
X55730Y-22996D01*
X55788Y-23037D01*
X55829Y-23047D01*
X55867Y-23067D01*
X55956Y-23080D01*
X56005Y-23093D01*
X56026Y-23090D01*
X56052Y-23094D01*
X59136Y-23094D01*
X59177Y-23087D01*
X59220Y-23089D01*
X59287Y-23067D01*
X59356Y-23055D01*
X59393Y-23033D01*
X59433Y-23020D01*
X59506Y-22966D01*
X59550Y-22940D01*
X59563Y-22924D01*
X59584Y-22908D01*
X61033Y-21459D01*
X63967Y-21459D01*
X66041Y-23533D01*
X66041Y-25825D01*
X66052Y-25890D01*
X66054Y-25956D01*
X66072Y-25999D01*
X66080Y-26046D01*
X66114Y-26103D01*
X66139Y-26163D01*
X66170Y-26198D01*
X66195Y-26239D01*
X66246Y-26281D01*
X66290Y-26329D01*
X66332Y-26351D01*
X66369Y-26380D01*
X66431Y-26401D01*
X66490Y-26432D01*
X66544Y-26440D01*
X66581Y-26452D01*
X66621Y-26451D01*
X66675Y-26459D01*
X68967Y-26459D01*
X71041Y-28533D01*
X71041Y-31467D01*
X68967Y-33541D01*
X66033Y-33541D01*
X64584Y-32092D01*
X64549Y-32067D01*
X64521Y-32036D01*
X64458Y-32004D01*
X64400Y-31963D01*
X64359Y-31953D01*
X64321Y-31933D01*
X64231Y-31920D01*
X64183Y-31907D01*
X64162Y-31910D01*
X64136Y-31906D01*
X54211Y-31906D01*
X-3104Y25408D01*
X-3138Y25433D01*
X-3167Y25464D01*
X-3230Y25496D01*
X-3288Y25537D01*
X-3329Y25547D01*
X-3367Y25567D01*
X-3456Y25580D01*
X-3505Y25593D01*
X-3526Y25590D01*
X-3552Y25594D01*
X-28325Y25594D01*
X-28390Y25583D01*
X-28456Y25581D01*
X-28499Y25563D01*
X-28546Y25555D01*
X-28603Y25521D01*
X-28663Y25496D01*
X-28698Y25465D01*
X-28739Y25440D01*
X-28781Y25389D01*
X-28829Y25345D01*
X-28851Y25303D01*
X-28880Y25266D01*
X-28901Y25204D01*
X-28932Y25145D01*
X-28940Y25091D01*
X-28952Y25054D01*
X-28951Y25014D01*
X-28959Y24960D01*
X-28959Y23533D01*
X-31033Y21459D01*
X-33967Y21459D01*
X-36041Y23533D01*
X-36041Y26467D01*
X-34206Y28301D01*
X-34168Y28356D01*
X-34123Y28403D01*
X-34105Y28447D01*
X-34078Y28486D01*
X-34061Y28549D01*
X-34036Y28610D01*
X-34034Y28657D01*
X-34022Y28703D01*
X-34029Y28768D01*
X-34026Y28834D01*
X-34040Y28879D01*
X-34045Y28926D01*
X-34074Y28985D01*
X-34094Y29048D01*
X-34127Y29092D01*
X-34144Y29127D01*
X-34173Y29154D01*
X-34206Y29198D01*
X-36041Y31033D01*
X-36041Y32233D01*
X-36057Y32321D01*
X-36066Y32409D01*
X-36076Y32430D01*
X-36080Y32454D01*
X-36126Y32530D01*
X-36165Y32610D01*
X-36182Y32627D01*
X-36195Y32647D01*
X-36264Y32703D01*
X-36328Y32764D01*
X-36350Y32773D01*
X-36369Y32788D01*
X-36453Y32817D01*
X-36535Y32852D01*
X-36559Y32853D01*
X-36581Y32860D01*
X-36670Y32858D01*
X-36759Y32862D01*
X-36782Y32854D01*
X-36806Y32854D01*
X-36888Y32820D01*
X-36973Y32793D01*
X-36994Y32777D01*
X-37013Y32769D01*
X-37051Y32735D01*
X-37123Y32681D01*
X-52908Y16896D01*
X-52933Y16862D01*
X-52964Y16833D01*
X-52988Y16787D01*
X-53009Y16761D01*
X-53015Y16744D01*
X-53037Y16712D01*
X-53047Y16671D01*
X-53067Y16633D01*
X-53078Y16556D01*
X-53081Y16548D01*
X-53081Y16542D01*
X-53093Y16495D01*
X-53090Y16474D01*
X-53094Y16448D01*
X-53094Y13364D01*
X-53087Y13323D01*
X-53089Y13280D01*
X-53067Y13213D01*
X-53055Y13144D01*
X-53033Y13107D01*
X-53020Y13067D01*
X-52966Y12994D01*
X-52940Y12950D01*
X-52924Y12937D01*
X-52908Y12916D01*
X-51459Y11467D01*
X-51459Y8533D01*
X-52908Y7084D01*
X-52933Y7049D01*
X-52964Y7021D01*
X-52996Y6958D01*
X-53037Y6900D01*
X-53047Y6859D01*
X-53067Y6821D01*
X-53080Y6731D01*
X-53093Y6683D01*
X-53090Y6662D01*
X-53094Y6636D01*
X-53094Y6052D01*
X-53087Y6010D01*
X-53089Y5968D01*
X-53067Y5901D01*
X-53055Y5831D01*
X-53033Y5795D01*
X-53020Y5754D01*
X-52966Y5682D01*
X-52940Y5638D01*
X-52924Y5625D01*
X-52908Y5604D01*
X-51031Y3727D01*
X-50997Y3702D01*
X-50968Y3671D01*
X-50905Y3639D01*
X-50847Y3598D01*
X-50806Y3588D01*
X-50768Y3568D01*
X-50679Y3555D01*
X-50630Y3542D01*
X-50609Y3545D01*
X-50583Y3541D01*
X-48533Y3541D01*
X-46459Y1467D01*
X-46459Y-1467D01*
X-48533Y-3541D01*
X-51467Y-3541D01*
X-53541Y-1467D01*
X-53541Y583D01*
X-53548Y625D01*
X-53546Y667D01*
X-53568Y734D01*
X-53580Y804D01*
X-53602Y840D01*
X-53615Y881D01*
X-53651Y929D01*
X-53654Y937D01*
X-53667Y951D01*
X-53669Y953D01*
X-53695Y997D01*
X-53711Y1010D01*
X-53727Y1031D01*
X-56906Y4211D01*
X-56906Y6636D01*
X-56913Y6677D01*
X-56911Y6720D01*
X-56933Y6787D01*
X-56945Y6856D01*
X-56967Y6893D01*
X-56980Y6933D01*
X-57034Y7006D01*
X-57060Y7050D01*
X-57076Y7063D01*
X-57092Y7084D01*
X-58541Y8533D01*
X-58541Y11467D01*
X-57092Y12916D01*
X-57067Y12951D01*
X-57036Y12979D01*
X-57004Y13042D01*
X-56963Y13100D01*
X-56953Y13141D01*
X-56933Y13179D01*
X-56920Y13269D01*
X-56907Y13317D01*
X-56910Y13338D01*
X-56906Y13364D01*
X-56906Y18289D01*
X19316Y94512D01*
X19367Y94585D01*
X19423Y94654D01*
X19431Y94676D01*
X19445Y94696D01*
X19467Y94782D01*
X19495Y94866D01*
X19495Y94890D01*
X19500Y94913D01*
X19491Y95002D01*
X19489Y95091D01*
X19480Y95113D01*
X19477Y95136D01*
X19438Y95216D01*
X19404Y95298D01*
X19388Y95316D01*
X19378Y95337D01*
X19313Y95398D01*
X19253Y95464D01*
X19232Y95475D01*
X19215Y95491D01*
X19133Y95526D01*
X19053Y95567D01*
X19027Y95570D01*
X19008Y95579D01*
X18958Y95581D01*
X18868Y95594D01*
X-36448Y95594D01*
X-36490Y95587D01*
X-36532Y95589D01*
X-36599Y95567D01*
X-36669Y95555D01*
X-36705Y95533D01*
X-36746Y95520D01*
X-36818Y95466D01*
X-36862Y95440D01*
X-36875Y95424D01*
X-36896Y95408D01*
X-56273Y76031D01*
X-56298Y75997D01*
X-56329Y75968D01*
X-56361Y75905D01*
X-56402Y75847D01*
X-56412Y75806D01*
X-56432Y75768D01*
X-56445Y75679D01*
X-56458Y75630D01*
X-56455Y75609D01*
X-56459Y75583D01*
X-56459Y73533D01*
X-58533Y71459D01*
X-61467Y71459D01*
X-62916Y72908D01*
X-62951Y72933D01*
X-62979Y72964D01*
X-63042Y72996D01*
X-63100Y73037D01*
X-63141Y73047D01*
X-63179Y73067D01*
X-63269Y73080D01*
X-63317Y73093D01*
X-63338Y73090D01*
X-63364Y73094D01*
X-80789Y73094D01*
X-113104Y105408D01*
X-113138Y105433D01*
X-113167Y105464D01*
X-113230Y105496D01*
X-113288Y105537D01*
X-113329Y105547D01*
X-113367Y105567D01*
X-113456Y105580D01*
X-113505Y105593D01*
X-113526Y105590D01*
X-113552Y105594D01*
X-355789Y105594D01*
X-357091Y106896D01*
X-357092Y106896D01*
X-373978Y123782D01*
X-374032Y123820D01*
X-374079Y123865D01*
X-374123Y123884D01*
X-374162Y123911D01*
X-374225Y123927D01*
X-374286Y123953D01*
X-374333Y123955D01*
X-374379Y123966D01*
X-374444Y123960D01*
X-374510Y123963D01*
X-374555Y123948D01*
X-374602Y123943D01*
X-374661Y123914D01*
X-374724Y123894D01*
X-374768Y123861D01*
X-374803Y123844D01*
X-374830Y123815D01*
X-374874Y123782D01*
X-375457Y123200D01*
X-378405Y121979D01*
X-381595Y121979D01*
X-384543Y123200D01*
X-386800Y125457D01*
X-388021Y128405D01*
X-388021Y131595D01*
X-386800Y134543D01*
X-384543Y136800D01*
X-381595Y138021D01*
X-378405Y138021D01*
X-375457Y136800D01*
X-373200Y134543D01*
X-371979Y131595D01*
X-371979Y128405D01*
X-372177Y127926D01*
X-372189Y127873D01*
X-372210Y127823D01*
X-372213Y127765D01*
X-372225Y127707D01*
X-372218Y127653D01*
X-372220Y127599D01*
X-372202Y127543D01*
X-372194Y127485D01*
X-372168Y127437D01*
X-372151Y127386D01*
X-372109Y127328D01*
X-372087Y127288D01*
X-372064Y127267D01*
X-372040Y127235D01*
X-354396Y109592D01*
X-354362Y109567D01*
X-354333Y109536D01*
X-354270Y109504D01*
X-354212Y109463D01*
X-354171Y109453D01*
X-354133Y109433D01*
X-354044Y109420D01*
X-353995Y109407D01*
X-353974Y109410D01*
X-353948Y109406D01*
X-111711Y109406D01*
X-79396Y77092D01*
X-79362Y77067D01*
X-79333Y77036D01*
X-79270Y77004D01*
X-79212Y76963D01*
X-79171Y76953D01*
X-79133Y76933D01*
X-79044Y76920D01*
X-78995Y76907D01*
X-78974Y76910D01*
X-78948Y76906D01*
X-63364Y76906D01*
X-63323Y76913D01*
X-63280Y76911D01*
X-63213Y76933D01*
X-63144Y76945D01*
X-63107Y76967D01*
X-63067Y76980D01*
X-62994Y77034D01*
X-62950Y77060D01*
X-62937Y77076D01*
X-62916Y77092D01*
X-61467Y78541D01*
X-59417Y78541D01*
X-59375Y78548D01*
X-59333Y78546D01*
X-59266Y78568D01*
X-59196Y78580D01*
X-59160Y78602D01*
X-59119Y78615D01*
X-59047Y78669D01*
X-59003Y78695D01*
X-58990Y78711D01*
X-58969Y78727D01*
X-38289Y99406D01*
X-16132Y99406D01*
X-16044Y99421D01*
X-15956Y99431D01*
X-15935Y99441D01*
X-15911Y99445D01*
X-15834Y99491D01*
X-15755Y99530D01*
X-15739Y99547D01*
X-15718Y99560D01*
X-15662Y99629D01*
X-15601Y99693D01*
X-15592Y99715D01*
X-15577Y99734D01*
X-15548Y99818D01*
X-15513Y99900D01*
X-15512Y99924D01*
X-15505Y99946D01*
X-15507Y100035D01*
X-15503Y100124D01*
X-15511Y100147D01*
X-15511Y100171D01*
X-15545Y100253D01*
X-15572Y100338D01*
X-15588Y100359D01*
X-15596Y100378D01*
X-15630Y100416D01*
X-15684Y100488D01*
X-17092Y101896D01*
X-23969Y108773D01*
X-24003Y108798D01*
X-24032Y108829D01*
X-24095Y108861D01*
X-24153Y108902D01*
X-24194Y108912D01*
X-24232Y108932D01*
X-24321Y108945D01*
X-24370Y108958D01*
X-24391Y108955D01*
X-24417Y108959D01*
X-26467Y108959D01*
X-28541Y111033D01*
X-28541Y113967D01*
X-26467Y116041D01*
X-23533Y116041D01*
X-21459Y113967D01*
X-21459Y111917D01*
X-21452Y111875D01*
X-21454Y111833D01*
X-21432Y111766D01*
X-21420Y111696D01*
X-21398Y111660D01*
X-21385Y111619D01*
X-21331Y111547D01*
X-21305Y111503D01*
X-21289Y111490D01*
X-21273Y111469D01*
X-14396Y104592D01*
X-14362Y104567D01*
X-14333Y104536D01*
X-14270Y104504D01*
X-14212Y104463D01*
X-14171Y104453D01*
X-14133Y104433D01*
X-14044Y104420D01*
X-13995Y104407D01*
X-13974Y104410D01*
X-13948Y104406D01*
X46636Y104406D01*
X46677Y104413D01*
X46720Y104411D01*
X46787Y104433D01*
X46856Y104445D01*
X46893Y104467D01*
X46933Y104480D01*
X47006Y104534D01*
X47050Y104560D01*
X47063Y104576D01*
X47084Y104592D01*
X48533Y106041D01*
X51467Y106041D01*
X53541Y103967D01*
X53541Y101033D01*
X52996Y100488D01*
X52945Y100415D01*
X52889Y100346D01*
X52881Y100324D01*
X52868Y100304D01*
X52846Y100218D01*
X52817Y100134D01*
X52818Y100110D01*
X52812Y100087D01*
X52821Y99998D01*
X52824Y99909D01*
X52833Y99887D01*
X52835Y99864D01*
X52875Y99784D01*
X52908Y99702D01*
X52924Y99684D01*
X52934Y99663D01*
X52999Y99602D01*
X53059Y99536D01*
X53080Y99525D01*
X53098Y99509D01*
X53180Y99474D01*
X53259Y99433D01*
X53285Y99430D01*
X53304Y99421D01*
X53355Y99419D01*
X53444Y99406D01*
X56448Y99406D01*
X56490Y99413D01*
X56532Y99411D01*
X56599Y99433D01*
X56669Y99445D01*
X56705Y99467D01*
X56746Y99480D01*
X56818Y99534D01*
X56862Y99560D01*
X56875Y99576D01*
X56896Y99592D01*
X77681Y120377D01*
X77732Y120450D01*
X77788Y120519D01*
X77796Y120541D01*
X77810Y120561D01*
X77832Y120647D01*
X77860Y120731D01*
X77860Y120755D01*
X77865Y120778D01*
X77856Y120867D01*
X77854Y120956D01*
X77845Y120978D01*
X77842Y121001D01*
X77803Y121081D01*
X77769Y121163D01*
X77753Y121181D01*
X77743Y121202D01*
X77678Y121263D01*
X77618Y121329D01*
X77597Y121340D01*
X77580Y121356D01*
X77498Y121391D01*
X77418Y121432D01*
X77392Y121435D01*
X77373Y121444D01*
X77323Y121446D01*
X77233Y121459D01*
X76033Y121459D01*
X73959Y123533D01*
X73959Y124960D01*
X73948Y125025D01*
X73946Y125091D01*
X73928Y125134D01*
X73920Y125181D01*
X73886Y125238D01*
X73861Y125298D01*
X73830Y125333D01*
X73805Y125374D01*
X73754Y125416D01*
X73710Y125464D01*
X73668Y125486D01*
X73631Y125515D01*
X73569Y125536D01*
X73510Y125567D01*
X73456Y125575D01*
X73419Y125587D01*
X73379Y125586D01*
X73325Y125594D01*
X-21636Y125594D01*
X-21677Y125587D01*
X-21720Y125589D01*
X-21787Y125567D01*
X-21856Y125555D01*
X-21893Y125533D01*
X-21933Y125520D01*
X-22006Y125466D01*
X-22050Y125440D01*
X-22063Y125424D01*
X-22084Y125408D01*
X-23533Y123959D01*
X-26467Y123959D01*
X-28541Y126033D01*
X-28541Y128967D01*
X-26800Y130708D01*
X-26762Y130762D01*
X-26717Y130810D01*
X-26699Y130853D01*
X-26672Y130892D01*
X-26655Y130956D01*
X-26630Y131016D01*
X-26627Y131063D01*
X-26616Y131109D01*
X-26623Y131175D01*
X-26620Y131240D01*
X-26634Y131285D01*
X-26639Y131332D01*
X-26668Y131391D01*
X-26688Y131454D01*
X-26721Y131498D01*
X-26738Y131533D01*
X-26767Y131560D01*
X-26800Y131605D01*
X-27092Y131896D01*
X-91469Y196273D01*
X-91503Y196298D01*
X-91532Y196329D01*
X-91595Y196361D01*
X-91653Y196402D01*
X-91694Y196412D01*
X-91732Y196432D01*
X-91821Y196445D01*
X-91870Y196458D01*
X-91891Y196455D01*
X-91917Y196459D01*
X-93967Y196459D01*
X-96041Y198533D01*
X-96041Y201467D01*
X-93967Y203541D01*
X-91033Y203541D01*
X-88959Y201467D01*
X-88959Y199417D01*
X-88952Y199375D01*
X-88954Y199333D01*
X-88932Y199266D01*
X-88920Y199196D01*
X-88898Y199160D01*
X-88885Y199119D01*
X-88831Y199047D01*
X-88805Y199003D01*
X-88789Y198990D01*
X-88773Y198969D01*
X-24396Y134592D01*
X-24366Y134570D01*
X-24352Y134555D01*
X-24349Y134554D01*
X-24333Y134536D01*
X-24270Y134504D01*
X-24212Y134463D01*
X-24171Y134453D01*
X-24133Y134433D01*
X-24044Y134420D01*
X-23995Y134407D01*
X-23974Y134410D01*
X-23948Y134406D01*
X-10864Y134406D01*
X-10823Y134413D01*
X-10780Y134411D01*
X-10713Y134433D01*
X-10644Y134445D01*
X-10607Y134467D01*
X-10567Y134480D01*
X-10494Y134534D01*
X-10450Y134560D01*
X-10438Y134575D01*
X-10431Y134579D01*
X-10428Y134583D01*
X-10416Y134592D01*
X-8967Y136041D01*
X-6033Y136041D01*
X-4584Y134592D01*
X-4554Y134570D01*
X-4540Y134555D01*
X-4537Y134554D01*
X-4521Y134536D01*
X-4458Y134504D01*
X-4400Y134463D01*
X-4359Y134453D01*
X-4321Y134433D01*
X-4231Y134420D01*
X-4183Y134407D01*
X-4162Y134410D01*
X-4136Y134406D01*
X1368Y134406D01*
X1456Y134422D01*
X1544Y134431D01*
X1565Y134441D01*
X1589Y134445D01*
X1665Y134491D01*
X1745Y134530D01*
X1762Y134547D01*
X1782Y134560D01*
X1838Y134629D01*
X1899Y134693D01*
X1908Y134715D01*
X1923Y134734D01*
X1952Y134818D01*
X1987Y134900D01*
X1988Y134924D01*
X1995Y134946D01*
X1993Y135035D01*
X1997Y135124D01*
X1989Y135147D01*
X1989Y135171D01*
X1955Y135253D01*
X1928Y135338D01*
X1912Y135359D01*
X1904Y135378D01*
X1870Y135416D01*
X1816Y135488D01*
X-36906Y174211D01*
X-36906Y179136D01*
X-36913Y179177D01*
X-36911Y179220D01*
X-36933Y179287D01*
X-36945Y179356D01*
X-36967Y179393D01*
X-36980Y179433D01*
X-37034Y179506D01*
X-37060Y179550D01*
X-37076Y179563D01*
X-37092Y179584D01*
X-38541Y181033D01*
X-38541Y183967D01*
X-36467Y186041D01*
X-33533Y186041D01*
X-31459Y183967D01*
X-31459Y181033D01*
X-32908Y179584D01*
X-32933Y179549D01*
X-32964Y179521D01*
X-32996Y179458D01*
X-33037Y179400D01*
X-33047Y179359D01*
X-33067Y179321D01*
X-33080Y179231D01*
X-33093Y179183D01*
X-33090Y179162D01*
X-33094Y179136D01*
X-33094Y176052D01*
X-33087Y176010D01*
X-33089Y175968D01*
X-33067Y175901D01*
X-33055Y175831D01*
X-33033Y175795D01*
X-33020Y175754D01*
X-32966Y175682D01*
X-32940Y175638D01*
X-32924Y175625D01*
X-32908Y175604D01*
X-12123Y154819D01*
X-12050Y154768D01*
X-11981Y154712D01*
X-11959Y154704D01*
X-11939Y154690D01*
X-11853Y154668D01*
X-11769Y154640D01*
X-11745Y154640D01*
X-11722Y154635D01*
X-11633Y154644D01*
X-11544Y154646D01*
X-11522Y154655D01*
X-11499Y154658D01*
X-11419Y154697D01*
X-11337Y154731D01*
X-11319Y154747D01*
X-11298Y154757D01*
X-11237Y154822D01*
X-11171Y154882D01*
X-11160Y154903D01*
X-11144Y154920D01*
X-11109Y155002D01*
X-11068Y155082D01*
X-11065Y155108D01*
X-11056Y155127D01*
X-11054Y155177D01*
X-11041Y155267D01*
X-11041Y156467D01*
X-8967Y158541D01*
X-6917Y158541D01*
X-6875Y158548D01*
X-6833Y158546D01*
X-6766Y158568D01*
X-6696Y158580D01*
X-6660Y158602D01*
X-6619Y158615D01*
X-6547Y158669D01*
X-6503Y158695D01*
X-6490Y158711D01*
X-6469Y158727D01*
X-5789Y159406D01*
X41556Y159406D01*
X41643Y159421D01*
X41732Y159431D01*
X41753Y159441D01*
X41777Y159445D01*
X41853Y159491D01*
X41933Y159530D01*
X41949Y159547D01*
X41970Y159560D01*
X42026Y159629D01*
X42087Y159693D01*
X42096Y159715D01*
X42111Y159734D01*
X42140Y159818D01*
X42174Y159900D01*
X42175Y159924D01*
X42183Y159946D01*
X42180Y160035D01*
X42184Y160124D01*
X42177Y160147D01*
X42176Y160171D01*
X42143Y160253D01*
X42116Y160338D01*
X42100Y160359D01*
X42092Y160378D01*
X42058Y160416D01*
X42004Y160488D01*
X41459Y161033D01*
X41459Y163967D01*
X43533Y166041D01*
X46467Y166041D01*
X48541Y163967D01*
X48541Y161033D01*
X47996Y160488D01*
X47945Y160415D01*
X47889Y160346D01*
X47881Y160324D01*
X47868Y160304D01*
X47846Y160218D01*
X47817Y160134D01*
X47818Y160110D01*
X47812Y160087D01*
X47821Y159998D01*
X47824Y159909D01*
X47833Y159887D01*
X47835Y159864D01*
X47875Y159784D01*
X47908Y159702D01*
X47924Y159684D01*
X47934Y159663D01*
X47999Y159602D01*
X48059Y159536D01*
X48080Y159525D01*
X48098Y159509D01*
X48180Y159474D01*
X48259Y159433D01*
X48285Y159430D01*
X48304Y159421D01*
X48355Y159419D01*
X48444Y159406D01*
X73289Y159406D01*
X74591Y158104D01*
X76469Y156227D01*
X76503Y156202D01*
X76532Y156171D01*
X76595Y156139D01*
X76653Y156098D01*
X76694Y156088D01*
X76732Y156068D01*
X76821Y156055D01*
X76870Y156042D01*
X76891Y156045D01*
X76917Y156041D01*
X78967Y156041D01*
X81041Y153967D01*
X81041Y151033D01*
X78967Y148959D01*
X76715Y148959D01*
X76650Y148948D01*
X76584Y148946D01*
X76541Y148928D01*
X76494Y148920D01*
X76437Y148886D01*
X76377Y148861D01*
X76342Y148830D01*
X76301Y148805D01*
X76259Y148754D01*
X76211Y148710D01*
X76189Y148668D01*
X76160Y148631D01*
X76139Y148569D01*
X76108Y148510D01*
X76100Y148456D01*
X76088Y148419D01*
X76089Y148379D01*
X76081Y148325D01*
X76081Y146033D01*
X74007Y143959D01*
X71073Y143959D01*
X68999Y146033D01*
X68999Y148967D01*
X71073Y151041D01*
X73325Y151041D01*
X73390Y151052D01*
X73456Y151054D01*
X73499Y151072D01*
X73546Y151080D01*
X73603Y151114D01*
X73663Y151139D01*
X73698Y151170D01*
X73739Y151195D01*
X73781Y151246D01*
X73829Y151290D01*
X73851Y151332D01*
X73880Y151369D01*
X73901Y151431D01*
X73932Y151490D01*
X73940Y151544D01*
X73952Y151581D01*
X73951Y151621D01*
X73959Y151675D01*
X73959Y153083D01*
X73952Y153125D01*
X73954Y153167D01*
X73932Y153234D01*
X73920Y153304D01*
X73898Y153340D01*
X73885Y153381D01*
X73831Y153453D01*
X73805Y153497D01*
X73789Y153510D01*
X73773Y153531D01*
X71896Y155409D01*
X71862Y155433D01*
X71833Y155464D01*
X71770Y155496D01*
X71712Y155537D01*
X71671Y155547D01*
X71633Y155567D01*
X71544Y155580D01*
X71495Y155593D01*
X71474Y155590D01*
X71448Y155594D01*
X-3325Y155594D01*
X-3390Y155583D01*
X-3456Y155581D01*
X-3499Y155563D01*
X-3546Y155555D01*
X-3603Y155521D01*
X-3663Y155496D01*
X-3698Y155465D01*
X-3739Y155440D01*
X-3781Y155389D01*
X-3829Y155345D01*
X-3851Y155303D01*
X-3880Y155266D01*
X-3901Y155204D01*
X-3932Y155145D01*
X-3940Y155091D01*
X-3952Y155054D01*
X-3951Y155014D01*
X-3959Y154960D01*
X-3959Y153533D01*
X-6033Y151459D01*
X-7233Y151459D01*
X-7321Y151443D01*
X-7409Y151434D01*
X-7430Y151424D01*
X-7454Y151420D01*
X-7530Y151374D01*
X-7610Y151335D01*
X-7627Y151318D01*
X-7647Y151305D01*
X-7703Y151236D01*
X-7764Y151172D01*
X-7773Y151150D01*
X-7788Y151131D01*
X-7817Y151047D01*
X-7852Y150965D01*
X-7853Y150941D01*
X-7860Y150919D01*
X-7858Y150830D01*
X-7862Y150741D01*
X-7854Y150718D01*
X-7854Y150694D01*
X-7820Y150612D01*
X-7793Y150527D01*
X-7777Y150506D01*
X-7769Y150487D01*
X-7735Y150449D01*
X-7681Y150377D01*
X3104Y139592D01*
X3138Y139567D01*
X3167Y139536D01*
X3230Y139504D01*
X3288Y139463D01*
X3329Y139453D01*
X3367Y139433D01*
X3456Y139420D01*
X3505Y139407D01*
X3526Y139410D01*
X3552Y139406D01*
X4136Y139406D01*
X4177Y139413D01*
X4220Y139411D01*
X4287Y139433D01*
X4356Y139445D01*
X4393Y139467D01*
X4433Y139480D01*
X4506Y139534D01*
X4550Y139560D01*
X4563Y139576D01*
X4584Y139592D01*
X6033Y141041D01*
X8967Y141041D01*
X11041Y138967D01*
X11041Y136033D01*
X10496Y135488D01*
X10445Y135415D01*
X10389Y135346D01*
X10381Y135324D01*
X10368Y135304D01*
X10346Y135218D01*
X10317Y135134D01*
X10318Y135110D01*
X10312Y135087D01*
X10321Y134998D01*
X10324Y134909D01*
X10333Y134887D01*
X10335Y134864D01*
X10375Y134784D01*
X10408Y134702D01*
X10424Y134684D01*
X10434Y134663D01*
X10499Y134602D01*
X10559Y134536D01*
X10580Y134525D01*
X10598Y134509D01*
X10680Y134474D01*
X10759Y134433D01*
X10785Y134430D01*
X10804Y134421D01*
X10855Y134419D01*
X10944Y134406D01*
X36556Y134406D01*
X36643Y134421D01*
X36732Y134431D01*
X36753Y134441D01*
X36777Y134445D01*
X36853Y134491D01*
X36933Y134530D01*
X36949Y134547D01*
X36970Y134560D01*
X37026Y134629D01*
X37087Y134693D01*
X37096Y134715D01*
X37111Y134734D01*
X37140Y134818D01*
X37174Y134900D01*
X37175Y134924D01*
X37183Y134946D01*
X37180Y135035D01*
X37184Y135124D01*
X37177Y135147D01*
X37176Y135171D01*
X37143Y135253D01*
X37116Y135338D01*
X37100Y135359D01*
X37092Y135378D01*
X37058Y135416D01*
X37004Y135488D01*
X36459Y136033D01*
X36459Y138325D01*
X36448Y138390D01*
X36446Y138456D01*
X36428Y138499D01*
X36420Y138546D01*
X36386Y138603D01*
X36361Y138663D01*
X36330Y138698D01*
X36305Y138739D01*
X36254Y138781D01*
X36210Y138829D01*
X36168Y138851D01*
X36131Y138880D01*
X36069Y138901D01*
X36010Y138932D01*
X35956Y138940D01*
X35919Y138952D01*
X35879Y138951D01*
X35825Y138959D01*
X33533Y138959D01*
X31459Y141033D01*
X31459Y143967D01*
X33533Y146041D01*
X36467Y146041D01*
X38541Y143967D01*
X38541Y141675D01*
X38552Y141610D01*
X38554Y141544D01*
X38572Y141501D01*
X38580Y141454D01*
X38614Y141397D01*
X38639Y141337D01*
X38670Y141302D01*
X38695Y141261D01*
X38746Y141219D01*
X38790Y141171D01*
X38832Y141149D01*
X38869Y141120D01*
X38931Y141099D01*
X38990Y141068D01*
X39044Y141060D01*
X39081Y141048D01*
X39121Y141049D01*
X39175Y141041D01*
X41467Y141041D01*
X43541Y138967D01*
X43541Y136033D01*
X42996Y135488D01*
X42945Y135415D01*
X42889Y135346D01*
X42881Y135324D01*
X42868Y135304D01*
X42846Y135218D01*
X42817Y135134D01*
X42818Y135110D01*
X42812Y135087D01*
X42821Y134998D01*
X42824Y134909D01*
X42833Y134887D01*
X42835Y134864D01*
X42875Y134784D01*
X42908Y134702D01*
X42924Y134684D01*
X42934Y134663D01*
X42999Y134602D01*
X43059Y134536D01*
X43080Y134525D01*
X43098Y134509D01*
X43180Y134474D01*
X43259Y134433D01*
X43285Y134430D01*
X43304Y134421D01*
X43355Y134419D01*
X43444Y134406D01*
X71556Y134406D01*
X71643Y134421D01*
X71732Y134431D01*
X71753Y134441D01*
X71777Y134445D01*
X71853Y134491D01*
X71933Y134530D01*
X71949Y134547D01*
X71970Y134560D01*
X72026Y134629D01*
X72087Y134693D01*
X72096Y134715D01*
X72111Y134734D01*
X72140Y134818D01*
X72174Y134900D01*
X72175Y134924D01*
X72183Y134946D01*
X72180Y135035D01*
X72184Y135124D01*
X72177Y135147D01*
X72176Y135171D01*
X72143Y135253D01*
X72116Y135338D01*
X72100Y135359D01*
X72092Y135378D01*
X72058Y135416D01*
X72004Y135488D01*
X71459Y136033D01*
X71459Y138967D01*
X73533Y141041D01*
X76467Y141041D01*
X78541Y138967D01*
X78541Y137767D01*
X78557Y137679D01*
X78566Y137591D01*
X78576Y137570D01*
X78580Y137546D01*
X78626Y137470D01*
X78665Y137390D01*
X78682Y137373D01*
X78695Y137353D01*
X78764Y137297D01*
X78828Y137236D01*
X78850Y137227D01*
X78869Y137212D01*
X78953Y137183D01*
X79035Y137148D01*
X79059Y137147D01*
X79081Y137140D01*
X79170Y137142D01*
X79259Y137138D01*
X79282Y137146D01*
X79306Y137146D01*
X79388Y137180D01*
X79473Y137207D01*
X79494Y137223D01*
X79513Y137231D01*
X79551Y137265D01*
X79623Y137319D01*
X119316Y177012D01*
X119367Y177085D01*
X119423Y177154D01*
X119431Y177176D01*
X119445Y177196D01*
X119467Y177282D01*
X119495Y177366D01*
X119495Y177390D01*
X119500Y177413D01*
X119491Y177502D01*
X119489Y177591D01*
X119480Y177613D01*
X119477Y177636D01*
X119438Y177716D01*
X119404Y177798D01*
X119388Y177816D01*
X119378Y177837D01*
X119313Y177898D01*
X119253Y177964D01*
X119232Y177975D01*
X119215Y177991D01*
X119133Y178026D01*
X119053Y178067D01*
X119027Y178070D01*
X119008Y178079D01*
X118958Y178081D01*
X118868Y178094D01*
X91711Y178094D01*
X-15604Y285408D01*
X-15638Y285433D01*
X-15667Y285464D01*
X-15730Y285496D01*
X-15788Y285537D01*
X-15829Y285547D01*
X-15867Y285567D01*
X-15956Y285580D01*
X-16005Y285593D01*
X-16026Y285590D01*
X-16052Y285594D01*
X-55883Y285594D01*
X-55907Y285607D01*
X-55996Y285620D01*
X-56045Y285633D01*
X-56066Y285630D01*
X-56092Y285634D01*
X-401865Y285634D01*
X-401930Y285623D01*
X-401996Y285621D01*
X-402039Y285603D01*
X-402086Y285595D01*
X-402143Y285561D01*
X-402203Y285536D01*
X-402238Y285505D01*
X-402279Y285480D01*
X-402321Y285429D01*
X-402369Y285385D01*
X-402391Y285343D01*
X-402420Y285306D01*
X-402441Y285244D01*
X-402472Y285185D01*
X-402480Y285131D01*
X-402492Y285094D01*
X-402491Y285054D01*
X-402499Y285000D01*
X-402499Y-275000D01*
X-402495Y-275022D01*
X-402497Y-275050D01*
X-402228Y-278470D01*
X-402215Y-278519D01*
X-402199Y-278616D01*
X-400085Y-285123D01*
X-400082Y-285127D01*
X-400082Y-285133D01*
X-399995Y-285299D01*
X-395974Y-290834D01*
X-395970Y-290838D01*
X-395967Y-290843D01*
X-395834Y-290974D01*
X-390299Y-294995D01*
X-390294Y-294997D01*
X-390290Y-295001D01*
X-390123Y-295085D01*
X-383616Y-297199D01*
X-383566Y-297206D01*
X-383470Y-297228D01*
X-380050Y-297497D01*
X-380028Y-297495D01*
X-380000Y-297499D01*
X380000Y-297499D01*
X380022Y-297495D01*
G37*
%LPC*%
G36*
X-386287Y-194446D02*
X-386287Y-194446D01*
X-388891Y-191842D01*
X-388891Y-188158D01*
X-386287Y-185554D01*
X-383706Y-185554D01*
X-383664Y-185547D01*
X-383622Y-185549D01*
X-383555Y-185527D01*
X-383485Y-185515D01*
X-383449Y-185493D01*
X-383408Y-185480D01*
X-383336Y-185426D01*
X-383292Y-185400D01*
X-383279Y-185384D01*
X-383258Y-185368D01*
X-373997Y-176107D01*
X-373972Y-176073D01*
X-373941Y-176044D01*
X-373909Y-175981D01*
X-373868Y-175923D01*
X-373858Y-175882D01*
X-373838Y-175844D01*
X-373825Y-175755D01*
X-373812Y-175706D01*
X-373815Y-175685D01*
X-373811Y-175659D01*
X-373811Y-75922D01*
X-323997Y-26107D01*
X-323972Y-26073D01*
X-323941Y-26044D01*
X-323909Y-25981D01*
X-323868Y-25923D01*
X-323858Y-25882D01*
X-323838Y-25844D01*
X-323825Y-25755D01*
X-323812Y-25706D01*
X-323815Y-25685D01*
X-323811Y-25659D01*
X-323811Y-18422D01*
X-273378Y32012D01*
X-273327Y32085D01*
X-273271Y32154D01*
X-273263Y32176D01*
X-273250Y32196D01*
X-273227Y32282D01*
X-273199Y32366D01*
X-273200Y32390D01*
X-273194Y32413D01*
X-273203Y32502D01*
X-273205Y32591D01*
X-273214Y32613D01*
X-273217Y32636D01*
X-273256Y32716D01*
X-273290Y32798D01*
X-273306Y32816D01*
X-273316Y32837D01*
X-273381Y32898D01*
X-273441Y32964D01*
X-273462Y32975D01*
X-273480Y32991D01*
X-273561Y33026D01*
X-273641Y33067D01*
X-273667Y33070D01*
X-273686Y33079D01*
X-273737Y33081D01*
X-273826Y33094D01*
X-340789Y33094D01*
X-341906Y34211D01*
X-341906Y60789D01*
X-340644Y62052D01*
X-340606Y62106D01*
X-340561Y62153D01*
X-340542Y62197D01*
X-340516Y62236D01*
X-340499Y62299D01*
X-340473Y62360D01*
X-340471Y62407D01*
X-340460Y62453D01*
X-340466Y62518D01*
X-340463Y62584D01*
X-340478Y62629D01*
X-340483Y62676D01*
X-340512Y62735D01*
X-340532Y62798D01*
X-340565Y62842D01*
X-340582Y62877D01*
X-340611Y62904D01*
X-340644Y62949D01*
X-341906Y64211D01*
X-341906Y100789D01*
X-340789Y101906D01*
X-289211Y101906D01*
X-287948Y100644D01*
X-287894Y100606D01*
X-287847Y100561D01*
X-287803Y100542D01*
X-287764Y100516D01*
X-287701Y100499D01*
X-287640Y100473D01*
X-287593Y100471D01*
X-287547Y100460D01*
X-287482Y100466D01*
X-287416Y100463D01*
X-287371Y100478D01*
X-287324Y100483D01*
X-287265Y100512D01*
X-287202Y100532D01*
X-287158Y100565D01*
X-287123Y100582D01*
X-287096Y100611D01*
X-287051Y100644D01*
X-285789Y101906D01*
X-224211Y101906D01*
X-223094Y100789D01*
X-223094Y64211D01*
X-224356Y62949D01*
X-224394Y62894D01*
X-224439Y62847D01*
X-224458Y62803D01*
X-224484Y62764D01*
X-224501Y62701D01*
X-224527Y62640D01*
X-224529Y62593D01*
X-224540Y62547D01*
X-224534Y62482D01*
X-224537Y62416D01*
X-224522Y62371D01*
X-224517Y62324D01*
X-224488Y62265D01*
X-224468Y62202D01*
X-224435Y62158D01*
X-224418Y62123D01*
X-224389Y62096D01*
X-224356Y62052D01*
X-223094Y60789D01*
X-223094Y34211D01*
X-224211Y33094D01*
X-261254Y33094D01*
X-261296Y33087D01*
X-261338Y33089D01*
X-261405Y33067D01*
X-261475Y33055D01*
X-261511Y33033D01*
X-261552Y33020D01*
X-261624Y32966D01*
X-261668Y32940D01*
X-261681Y32924D01*
X-261702Y32908D01*
X-316003Y-21393D01*
X-316028Y-21427D01*
X-316059Y-21456D01*
X-316091Y-21519D01*
X-316132Y-21577D01*
X-316142Y-21618D01*
X-316162Y-21656D01*
X-316175Y-21745D01*
X-316188Y-21794D01*
X-316185Y-21815D01*
X-316189Y-21841D01*
X-316189Y-29078D01*
X-366003Y-78893D01*
X-366028Y-78927D01*
X-366059Y-78956D01*
X-366091Y-79019D01*
X-366132Y-79077D01*
X-366142Y-79118D01*
X-366162Y-79156D01*
X-366175Y-79245D01*
X-366188Y-79294D01*
X-366185Y-79315D01*
X-366189Y-79341D01*
X-366189Y-179078D01*
X-380922Y-193811D01*
X-381706Y-193811D01*
X-381748Y-193818D01*
X-381790Y-193816D01*
X-381857Y-193838D01*
X-381927Y-193850D01*
X-381963Y-193872D01*
X-382004Y-193885D01*
X-382076Y-193939D01*
X-382120Y-193965D01*
X-382133Y-193981D01*
X-382154Y-193997D01*
X-382603Y-194446D01*
X-386287Y-194446D01*
G37*
%LPD*%
G36*
X198367Y67144D02*
X198367Y67144D01*
X198456Y67146D01*
X198478Y67155D01*
X198501Y67158D01*
X198581Y67197D01*
X198663Y67231D01*
X198681Y67247D01*
X198702Y67257D01*
X198763Y67322D01*
X198829Y67382D01*
X198840Y67403D01*
X198856Y67420D01*
X198891Y67502D01*
X198932Y67582D01*
X198935Y67608D01*
X198944Y67627D01*
X198946Y67677D01*
X198959Y67767D01*
X198959Y68967D01*
X201033Y71041D01*
X203325Y71041D01*
X203390Y71052D01*
X203456Y71054D01*
X203499Y71072D01*
X203546Y71080D01*
X203603Y71114D01*
X203663Y71139D01*
X203698Y71170D01*
X203739Y71195D01*
X203781Y71246D01*
X203829Y71290D01*
X203851Y71332D01*
X203880Y71369D01*
X203901Y71431D01*
X203932Y71490D01*
X203940Y71544D01*
X203952Y71581D01*
X203951Y71621D01*
X203959Y71675D01*
X203959Y73967D01*
X206033Y76041D01*
X208325Y76041D01*
X208390Y76052D01*
X208456Y76054D01*
X208499Y76072D01*
X208546Y76080D01*
X208603Y76114D01*
X208663Y76139D01*
X208698Y76170D01*
X208739Y76195D01*
X208781Y76246D01*
X208829Y76290D01*
X208851Y76332D01*
X208880Y76369D01*
X208901Y76431D01*
X208932Y76490D01*
X208940Y76544D01*
X208952Y76581D01*
X208951Y76612D01*
X208952Y76615D01*
X208952Y76626D01*
X208959Y76675D01*
X208959Y78967D01*
X210369Y80377D01*
X210420Y80450D01*
X210476Y80519D01*
X210484Y80541D01*
X210497Y80561D01*
X210519Y80647D01*
X210548Y80731D01*
X210547Y80755D01*
X210553Y80778D01*
X210544Y80867D01*
X210541Y80956D01*
X210532Y80978D01*
X210530Y81001D01*
X210490Y81081D01*
X210457Y81163D01*
X210441Y81181D01*
X210431Y81202D01*
X210366Y81263D01*
X210306Y81329D01*
X210285Y81340D01*
X210267Y81356D01*
X210185Y81391D01*
X210106Y81432D01*
X210080Y81435D01*
X210061Y81444D01*
X210010Y81446D01*
X209921Y81459D01*
X209683Y81459D01*
X207609Y83533D01*
X207609Y86467D01*
X209683Y88541D01*
X212616Y88541D01*
X214690Y86467D01*
X214690Y83533D01*
X213280Y82123D01*
X213229Y82050D01*
X213173Y81981D01*
X213166Y81959D01*
X213152Y81939D01*
X213130Y81853D01*
X213102Y81769D01*
X213102Y81745D01*
X213096Y81722D01*
X213106Y81633D01*
X213108Y81544D01*
X213117Y81522D01*
X213120Y81499D01*
X213159Y81419D01*
X213192Y81337D01*
X213208Y81319D01*
X213219Y81298D01*
X213284Y81237D01*
X213344Y81171D01*
X213365Y81160D01*
X213382Y81144D01*
X213464Y81109D01*
X213543Y81068D01*
X213570Y81065D01*
X213589Y81056D01*
X213639Y81054D01*
X213729Y81041D01*
X213967Y81041D01*
X215416Y79592D01*
X215451Y79567D01*
X215479Y79536D01*
X215542Y79504D01*
X215600Y79463D01*
X215641Y79453D01*
X215679Y79433D01*
X215769Y79420D01*
X215817Y79407D01*
X215838Y79410D01*
X215864Y79406D01*
X234056Y79406D01*
X234143Y79421D01*
X234232Y79431D01*
X234253Y79441D01*
X234277Y79445D01*
X234353Y79491D01*
X234433Y79530D01*
X234449Y79547D01*
X234470Y79560D01*
X234526Y79629D01*
X234587Y79693D01*
X234596Y79715D01*
X234611Y79734D01*
X234640Y79818D01*
X234674Y79900D01*
X234675Y79924D01*
X234683Y79946D01*
X234680Y80035D01*
X234684Y80124D01*
X234677Y80147D01*
X234676Y80171D01*
X234643Y80253D01*
X234616Y80338D01*
X234600Y80359D01*
X234592Y80378D01*
X234558Y80416D01*
X234504Y80488D01*
X233959Y81033D01*
X233959Y83967D01*
X235408Y85416D01*
X235433Y85451D01*
X235464Y85479D01*
X235496Y85542D01*
X235537Y85600D01*
X235547Y85641D01*
X235567Y85679D01*
X235580Y85769D01*
X235593Y85817D01*
X235590Y85838D01*
X235594Y85864D01*
X235594Y123948D01*
X235587Y123990D01*
X235589Y124032D01*
X235567Y124099D01*
X235555Y124169D01*
X235533Y124205D01*
X235520Y124246D01*
X235466Y124318D01*
X235440Y124362D01*
X235424Y124375D01*
X235408Y124396D01*
X179623Y180181D01*
X179550Y180232D01*
X179481Y180288D01*
X179459Y180296D01*
X179439Y180310D01*
X179353Y180332D01*
X179269Y180360D01*
X179245Y180360D01*
X179222Y180365D01*
X179133Y180356D01*
X179044Y180354D01*
X179022Y180345D01*
X178999Y180342D01*
X178919Y180303D01*
X178837Y180269D01*
X178819Y180253D01*
X178798Y180243D01*
X178737Y180178D01*
X178671Y180118D01*
X178660Y180097D01*
X178644Y180080D01*
X178609Y179998D01*
X178568Y179918D01*
X178565Y179892D01*
X178556Y179873D01*
X178554Y179823D01*
X178541Y179733D01*
X178541Y178533D01*
X176467Y176459D01*
X174417Y176459D01*
X174375Y176452D01*
X174333Y176454D01*
X174266Y176432D01*
X174196Y176420D01*
X174160Y176398D01*
X174119Y176385D01*
X174047Y176331D01*
X174003Y176305D01*
X173990Y176289D01*
X173969Y176273D01*
X125789Y128094D01*
X98444Y128094D01*
X98357Y128079D01*
X98268Y128069D01*
X98247Y128059D01*
X98223Y128055D01*
X98147Y128009D01*
X98067Y127970D01*
X98051Y127953D01*
X98030Y127940D01*
X97974Y127871D01*
X97913Y127807D01*
X97904Y127785D01*
X97889Y127766D01*
X97860Y127682D01*
X97826Y127600D01*
X97825Y127576D01*
X97817Y127554D01*
X97820Y127465D01*
X97816Y127376D01*
X97823Y127353D01*
X97824Y127329D01*
X97857Y127247D01*
X97884Y127162D01*
X97900Y127141D01*
X97908Y127122D01*
X97942Y127084D01*
X97996Y127012D01*
X98541Y126467D01*
X98541Y123533D01*
X97092Y122084D01*
X97067Y122049D01*
X97036Y122021D01*
X97004Y121958D01*
X96963Y121900D01*
X96953Y121859D01*
X96933Y121821D01*
X96920Y121731D01*
X96907Y121683D01*
X96910Y121662D01*
X96906Y121636D01*
X96906Y93632D01*
X96922Y93544D01*
X96931Y93456D01*
X96941Y93435D01*
X96945Y93411D01*
X96991Y93335D01*
X97030Y93255D01*
X97047Y93238D01*
X97060Y93218D01*
X97129Y93162D01*
X97193Y93101D01*
X97215Y93092D01*
X97234Y93077D01*
X97318Y93048D01*
X97400Y93013D01*
X97424Y93012D01*
X97446Y93005D01*
X97535Y93007D01*
X97624Y93003D01*
X97647Y93011D01*
X97671Y93011D01*
X97753Y93045D01*
X97838Y93072D01*
X97859Y93088D01*
X97878Y93096D01*
X97916Y93130D01*
X97988Y93184D01*
X126711Y121906D01*
X131636Y121906D01*
X131677Y121913D01*
X131720Y121911D01*
X131787Y121933D01*
X131856Y121945D01*
X131893Y121967D01*
X131933Y121980D01*
X132006Y122034D01*
X132050Y122060D01*
X132063Y122076D01*
X132084Y122092D01*
X133533Y123541D01*
X136467Y123541D01*
X138541Y121467D01*
X138541Y118533D01*
X137996Y117988D01*
X137945Y117915D01*
X137889Y117846D01*
X137881Y117824D01*
X137868Y117804D01*
X137846Y117718D01*
X137817Y117634D01*
X137818Y117610D01*
X137812Y117587D01*
X137821Y117498D01*
X137824Y117409D01*
X137833Y117387D01*
X137835Y117364D01*
X137875Y117284D01*
X137908Y117202D01*
X137924Y117184D01*
X137934Y117163D01*
X137999Y117102D01*
X138059Y117036D01*
X138080Y117025D01*
X138098Y117009D01*
X138180Y116974D01*
X138259Y116933D01*
X138285Y116930D01*
X138304Y116921D01*
X138355Y116919D01*
X138444Y116906D01*
X143289Y116906D01*
X150604Y109592D01*
X150638Y109567D01*
X150667Y109536D01*
X150730Y109504D01*
X150788Y109463D01*
X150829Y109453D01*
X150867Y109433D01*
X150956Y109420D01*
X151005Y109407D01*
X151026Y109410D01*
X151052Y109406D01*
X165789Y109406D01*
X167092Y108104D01*
X180377Y94819D01*
X180450Y94768D01*
X180519Y94712D01*
X180541Y94704D01*
X180561Y94690D01*
X180647Y94668D01*
X180731Y94640D01*
X180755Y94640D01*
X180778Y94635D01*
X180867Y94644D01*
X180956Y94646D01*
X180978Y94655D01*
X181001Y94658D01*
X181081Y94697D01*
X181163Y94731D01*
X181181Y94747D01*
X181202Y94757D01*
X181263Y94822D01*
X181329Y94882D01*
X181340Y94903D01*
X181356Y94920D01*
X181391Y95002D01*
X181432Y95082D01*
X181435Y95108D01*
X181444Y95127D01*
X181446Y95177D01*
X181459Y95267D01*
X181459Y96467D01*
X183533Y98541D01*
X186467Y98541D01*
X188541Y96467D01*
X188541Y93533D01*
X186467Y91459D01*
X185267Y91459D01*
X185179Y91443D01*
X185091Y91434D01*
X185070Y91424D01*
X185046Y91420D01*
X184970Y91374D01*
X184890Y91335D01*
X184873Y91318D01*
X184853Y91305D01*
X184797Y91236D01*
X184736Y91172D01*
X184727Y91150D01*
X184712Y91131D01*
X184683Y91047D01*
X184648Y90965D01*
X184647Y90941D01*
X184640Y90919D01*
X184642Y90830D01*
X184638Y90741D01*
X184646Y90718D01*
X184646Y90694D01*
X184680Y90612D01*
X184707Y90527D01*
X184723Y90506D01*
X184731Y90487D01*
X184765Y90449D01*
X184819Y90377D01*
X186906Y88289D01*
X186906Y78552D01*
X186913Y78510D01*
X186911Y78468D01*
X186933Y78401D01*
X186945Y78331D01*
X186967Y78295D01*
X186980Y78254D01*
X187034Y78182D01*
X187060Y78138D01*
X187076Y78125D01*
X187092Y78104D01*
X197877Y67319D01*
X197950Y67268D01*
X198019Y67212D01*
X198041Y67204D01*
X198061Y67190D01*
X198147Y67168D01*
X198231Y67140D01*
X198255Y67140D01*
X198278Y67135D01*
X198367Y67144D01*
G37*
%LPC*%
G36*
X-97534Y-110726D02*
X-97534Y-110726D01*
X-101476Y-109093D01*
X-104493Y-106076D01*
X-106126Y-102134D01*
X-106126Y-97866D01*
X-104493Y-93924D01*
X-103427Y-92859D01*
X-103390Y-92805D01*
X-103345Y-92757D01*
X-103326Y-92713D01*
X-103299Y-92674D01*
X-103283Y-92611D01*
X-103257Y-92550D01*
X-103255Y-92503D01*
X-103243Y-92457D01*
X-103250Y-92392D01*
X-103247Y-92326D01*
X-103262Y-92281D01*
X-103267Y-92234D01*
X-103296Y-92175D01*
X-103316Y-92112D01*
X-103349Y-92068D01*
X-103366Y-92033D01*
X-103395Y-92006D01*
X-103427Y-91962D01*
X-153811Y-41578D01*
X-153811Y-25239D01*
X-153818Y-25197D01*
X-153816Y-25155D01*
X-153838Y-25088D01*
X-153850Y-25018D01*
X-153872Y-24982D01*
X-153885Y-24941D01*
X-153939Y-24869D01*
X-153965Y-24825D01*
X-153981Y-24812D01*
X-153997Y-24791D01*
X-154446Y-24342D01*
X-154446Y-23672D01*
X-154462Y-23584D01*
X-154471Y-23496D01*
X-154481Y-23475D01*
X-154485Y-23451D01*
X-154531Y-23375D01*
X-154570Y-23295D01*
X-154587Y-23278D01*
X-154600Y-23258D01*
X-154669Y-23202D01*
X-154733Y-23141D01*
X-154755Y-23132D01*
X-154774Y-23117D01*
X-154858Y-23088D01*
X-154940Y-23053D01*
X-154964Y-23052D01*
X-154986Y-23045D01*
X-155075Y-23047D01*
X-155164Y-23043D01*
X-155187Y-23051D01*
X-155211Y-23051D01*
X-155293Y-23085D01*
X-155378Y-23112D01*
X-155399Y-23128D01*
X-155418Y-23136D01*
X-155456Y-23170D01*
X-155528Y-23224D01*
X-186273Y-53969D01*
X-186298Y-54003D01*
X-186329Y-54032D01*
X-186361Y-54095D01*
X-186402Y-54153D01*
X-186412Y-54194D01*
X-186432Y-54232D01*
X-186445Y-54321D01*
X-186458Y-54370D01*
X-186455Y-54391D01*
X-186459Y-54417D01*
X-186459Y-56467D01*
X-188533Y-58541D01*
X-191467Y-58541D01*
X-193541Y-56467D01*
X-193541Y-54175D01*
X-193552Y-54110D01*
X-193554Y-54044D01*
X-193572Y-54001D01*
X-193580Y-53954D01*
X-193614Y-53897D01*
X-193639Y-53837D01*
X-193670Y-53802D01*
X-193695Y-53761D01*
X-193746Y-53719D01*
X-193790Y-53671D01*
X-193832Y-53649D01*
X-193869Y-53620D01*
X-193931Y-53599D01*
X-193990Y-53568D01*
X-194044Y-53560D01*
X-194081Y-53548D01*
X-194121Y-53549D01*
X-194175Y-53541D01*
X-196467Y-53541D01*
X-198541Y-51467D01*
X-198541Y-48533D01*
X-196467Y-46459D01*
X-193533Y-46459D01*
X-192084Y-47908D01*
X-192049Y-47933D01*
X-192021Y-47964D01*
X-191958Y-47996D01*
X-191900Y-48037D01*
X-191859Y-48047D01*
X-191821Y-48067D01*
X-191731Y-48080D01*
X-191683Y-48093D01*
X-191662Y-48090D01*
X-191636Y-48094D01*
X-191052Y-48094D01*
X-191010Y-48087D01*
X-190968Y-48089D01*
X-190901Y-48067D01*
X-190831Y-48055D01*
X-190795Y-48033D01*
X-190754Y-48020D01*
X-190682Y-47966D01*
X-190638Y-47940D01*
X-190625Y-47924D01*
X-190604Y-47908D01*
X-122092Y20604D01*
X-120684Y22012D01*
X-120633Y22085D01*
X-120577Y22154D01*
X-120569Y22176D01*
X-120555Y22196D01*
X-120533Y22282D01*
X-120505Y22366D01*
X-120505Y22390D01*
X-120500Y22413D01*
X-120509Y22502D01*
X-120511Y22591D01*
X-120520Y22613D01*
X-120523Y22636D01*
X-120562Y22716D01*
X-120596Y22798D01*
X-120612Y22816D01*
X-120622Y22837D01*
X-120687Y22898D01*
X-120747Y22964D01*
X-120768Y22975D01*
X-120785Y22991D01*
X-120867Y23026D01*
X-120947Y23067D01*
X-120973Y23070D01*
X-120992Y23079D01*
X-121042Y23081D01*
X-121132Y23094D01*
X-154136Y23094D01*
X-154177Y23087D01*
X-154220Y23089D01*
X-154287Y23067D01*
X-154356Y23055D01*
X-154393Y23033D01*
X-154433Y23020D01*
X-154506Y22966D01*
X-154550Y22940D01*
X-154563Y22924D01*
X-154584Y22908D01*
X-156033Y21459D01*
X-158967Y21459D01*
X-161041Y23533D01*
X-161041Y26467D01*
X-160496Y27012D01*
X-160445Y27085D01*
X-160389Y27154D01*
X-160381Y27176D01*
X-160368Y27196D01*
X-160346Y27282D01*
X-160317Y27366D01*
X-160318Y27390D01*
X-160312Y27413D01*
X-160321Y27502D01*
X-160324Y27591D01*
X-160333Y27613D01*
X-160335Y27636D01*
X-160375Y27716D01*
X-160408Y27798D01*
X-160424Y27816D01*
X-160434Y27837D01*
X-160499Y27898D01*
X-160559Y27964D01*
X-160580Y27975D01*
X-160598Y27991D01*
X-160680Y28026D01*
X-160759Y28067D01*
X-160785Y28070D01*
X-160804Y28079D01*
X-160855Y28081D01*
X-160944Y28094D01*
X-161448Y28094D01*
X-161490Y28087D01*
X-161532Y28089D01*
X-161599Y28067D01*
X-161669Y28055D01*
X-161705Y28033D01*
X-161746Y28020D01*
X-161818Y27966D01*
X-161862Y27940D01*
X-161875Y27924D01*
X-161896Y27908D01*
X-213773Y-23969D01*
X-213798Y-24003D01*
X-213829Y-24032D01*
X-213861Y-24095D01*
X-213902Y-24153D01*
X-213912Y-24194D01*
X-213932Y-24232D01*
X-213945Y-24321D01*
X-213958Y-24370D01*
X-213955Y-24391D01*
X-213959Y-24417D01*
X-213959Y-26467D01*
X-216033Y-28541D01*
X-218967Y-28541D01*
X-221041Y-26467D01*
X-221041Y-23533D01*
X-218967Y-21459D01*
X-216917Y-21459D01*
X-216875Y-21452D01*
X-216833Y-21454D01*
X-216766Y-21432D01*
X-216696Y-21420D01*
X-216660Y-21398D01*
X-216619Y-21385D01*
X-216547Y-21331D01*
X-216503Y-21305D01*
X-216490Y-21289D01*
X-216469Y-21273D01*
X-163289Y31906D01*
X-128552Y31906D01*
X-128510Y31913D01*
X-128468Y31911D01*
X-128401Y31933D01*
X-128331Y31945D01*
X-128295Y31967D01*
X-128254Y31980D01*
X-128182Y32034D01*
X-128138Y32060D01*
X-128125Y32076D01*
X-128104Y32092D01*
X-98289Y61906D01*
X-70864Y61906D01*
X-70823Y61913D01*
X-70780Y61911D01*
X-70713Y61933D01*
X-70644Y61945D01*
X-70607Y61967D01*
X-70567Y61980D01*
X-70494Y62034D01*
X-70450Y62060D01*
X-70437Y62076D01*
X-70416Y62092D01*
X-68967Y63541D01*
X-66033Y63541D01*
X-63959Y61467D01*
X-63959Y60079D01*
X-63943Y59992D01*
X-63934Y59903D01*
X-63924Y59882D01*
X-63920Y59858D01*
X-63874Y59782D01*
X-63835Y59702D01*
X-63818Y59686D01*
X-63805Y59665D01*
X-63736Y59609D01*
X-63672Y59548D01*
X-63650Y59539D01*
X-63631Y59524D01*
X-63547Y59495D01*
X-63465Y59461D01*
X-63441Y59460D01*
X-63419Y59452D01*
X-63330Y59455D01*
X-63241Y59451D01*
X-63218Y59458D01*
X-63194Y59459D01*
X-63112Y59492D01*
X-63027Y59519D01*
X-63006Y59535D01*
X-62987Y59543D01*
X-62949Y59577D01*
X-62877Y59631D01*
X-61467Y61041D01*
X-58533Y61041D01*
X-56459Y58967D01*
X-56459Y56033D01*
X-57908Y54584D01*
X-57933Y54549D01*
X-57964Y54521D01*
X-57996Y54458D01*
X-58037Y54400D01*
X-58047Y54359D01*
X-58067Y54321D01*
X-58080Y54231D01*
X-58093Y54183D01*
X-58090Y54162D01*
X-58094Y54136D01*
X-58094Y30944D01*
X-58079Y30857D01*
X-58069Y30768D01*
X-58059Y30747D01*
X-58055Y30723D01*
X-58009Y30647D01*
X-57970Y30567D01*
X-57953Y30551D01*
X-57940Y30530D01*
X-57871Y30474D01*
X-57807Y30413D01*
X-57785Y30404D01*
X-57766Y30389D01*
X-57682Y30360D01*
X-57600Y30326D01*
X-57576Y30325D01*
X-57554Y30317D01*
X-57465Y30320D01*
X-57376Y30316D01*
X-57353Y30323D01*
X-57329Y30324D01*
X-57247Y30357D01*
X-57162Y30384D01*
X-57141Y30400D01*
X-57122Y30408D01*
X-57084Y30442D01*
X-57012Y30496D01*
X-56467Y31041D01*
X-53533Y31041D01*
X-51459Y28967D01*
X-51459Y26033D01*
X-53533Y23959D01*
X-55583Y23959D01*
X-55625Y23952D01*
X-55667Y23954D01*
X-55734Y23932D01*
X-55804Y23920D01*
X-55840Y23898D01*
X-55881Y23885D01*
X-55953Y23831D01*
X-55997Y23805D01*
X-56010Y23789D01*
X-56031Y23773D01*
X-75408Y4396D01*
X-75433Y4362D01*
X-75464Y4333D01*
X-75496Y4270D01*
X-75537Y4212D01*
X-75547Y4171D01*
X-75567Y4133D01*
X-75580Y4044D01*
X-75593Y3995D01*
X-75590Y3974D01*
X-75594Y3948D01*
X-75594Y-84136D01*
X-75587Y-84177D01*
X-75589Y-84220D01*
X-75567Y-84287D01*
X-75555Y-84356D01*
X-75533Y-84393D01*
X-75520Y-84433D01*
X-75466Y-84506D01*
X-75440Y-84550D01*
X-75424Y-84563D01*
X-75408Y-84584D01*
X-73959Y-86033D01*
X-73959Y-89081D01*
X-73946Y-89157D01*
X-73940Y-89235D01*
X-73926Y-89267D01*
X-73920Y-89302D01*
X-73880Y-89369D01*
X-73848Y-89439D01*
X-73824Y-89464D01*
X-73805Y-89495D01*
X-73745Y-89544D01*
X-73691Y-89599D01*
X-73659Y-89614D01*
X-73631Y-89636D01*
X-73558Y-89661D01*
X-73488Y-89694D01*
X-73452Y-89697D01*
X-73419Y-89708D01*
X-73341Y-89706D01*
X-73264Y-89712D01*
X-73225Y-89703D01*
X-73194Y-89702D01*
X-73151Y-89684D01*
X-73082Y-89667D01*
X-72134Y-89274D01*
X-67866Y-89274D01*
X-63924Y-90907D01*
X-62123Y-92708D01*
X-62050Y-92759D01*
X-61981Y-92815D01*
X-61959Y-92822D01*
X-61939Y-92836D01*
X-61853Y-92858D01*
X-61769Y-92887D01*
X-61745Y-92886D01*
X-61722Y-92892D01*
X-61633Y-92883D01*
X-61544Y-92880D01*
X-61522Y-92871D01*
X-61499Y-92869D01*
X-61419Y-92829D01*
X-61337Y-92796D01*
X-61319Y-92780D01*
X-61298Y-92769D01*
X-61237Y-92704D01*
X-61171Y-92644D01*
X-61160Y-92623D01*
X-61144Y-92606D01*
X-61109Y-92524D01*
X-61068Y-92445D01*
X-61065Y-92418D01*
X-61056Y-92399D01*
X-61054Y-92349D01*
X-61041Y-92259D01*
X-61041Y-91033D01*
X-58967Y-88959D01*
X-56675Y-88959D01*
X-56610Y-88948D01*
X-56544Y-88946D01*
X-56501Y-88928D01*
X-56454Y-88920D01*
X-56397Y-88886D01*
X-56337Y-88861D01*
X-56302Y-88830D01*
X-56261Y-88805D01*
X-56219Y-88754D01*
X-56171Y-88710D01*
X-56149Y-88668D01*
X-56120Y-88631D01*
X-56099Y-88569D01*
X-56068Y-88510D01*
X-56060Y-88456D01*
X-56048Y-88419D01*
X-56049Y-88379D01*
X-56041Y-88325D01*
X-56041Y-86033D01*
X-53967Y-83959D01*
X-51033Y-83959D01*
X-48959Y-86033D01*
X-48959Y-88967D01*
X-51033Y-91041D01*
X-53325Y-91041D01*
X-53390Y-91052D01*
X-53456Y-91054D01*
X-53499Y-91072D01*
X-53546Y-91080D01*
X-53603Y-91114D01*
X-53663Y-91139D01*
X-53698Y-91170D01*
X-53739Y-91195D01*
X-53781Y-91246D01*
X-53829Y-91290D01*
X-53851Y-91332D01*
X-53880Y-91369D01*
X-53901Y-91431D01*
X-53932Y-91490D01*
X-53940Y-91544D01*
X-53952Y-91581D01*
X-53951Y-91621D01*
X-53959Y-91675D01*
X-53959Y-93967D01*
X-56033Y-96041D01*
X-59081Y-96041D01*
X-59157Y-96054D01*
X-59235Y-96060D01*
X-59267Y-96074D01*
X-59302Y-96080D01*
X-59369Y-96120D01*
X-59439Y-96152D01*
X-59464Y-96176D01*
X-59495Y-96195D01*
X-59544Y-96255D01*
X-59599Y-96309D01*
X-59614Y-96341D01*
X-59636Y-96369D01*
X-59661Y-96442D01*
X-59694Y-96512D01*
X-59697Y-96548D01*
X-59708Y-96581D01*
X-59706Y-96659D01*
X-59712Y-96736D01*
X-59703Y-96775D01*
X-59702Y-96806D01*
X-59684Y-96849D01*
X-59667Y-96918D01*
X-59274Y-97866D01*
X-59274Y-102134D01*
X-60907Y-106076D01*
X-63924Y-109093D01*
X-67866Y-110726D01*
X-72134Y-110726D01*
X-76076Y-109093D01*
X-79093Y-106076D01*
X-80726Y-102134D01*
X-80726Y-97866D01*
X-79093Y-93924D01*
X-77292Y-92123D01*
X-77241Y-92050D01*
X-77185Y-91981D01*
X-77178Y-91959D01*
X-77164Y-91939D01*
X-77142Y-91853D01*
X-77113Y-91769D01*
X-77114Y-91745D01*
X-77108Y-91722D01*
X-77117Y-91633D01*
X-77120Y-91544D01*
X-77129Y-91522D01*
X-77131Y-91499D01*
X-77171Y-91419D01*
X-77204Y-91337D01*
X-77220Y-91319D01*
X-77231Y-91298D01*
X-77296Y-91237D01*
X-77356Y-91171D01*
X-77377Y-91160D01*
X-77394Y-91144D01*
X-77476Y-91109D01*
X-77555Y-91068D01*
X-77582Y-91065D01*
X-77601Y-91056D01*
X-77651Y-91054D01*
X-77741Y-91041D01*
X-78967Y-91041D01*
X-81041Y-88967D01*
X-81041Y-86033D01*
X-79592Y-84584D01*
X-79567Y-84549D01*
X-79536Y-84521D01*
X-79504Y-84458D01*
X-79463Y-84400D01*
X-79453Y-84359D01*
X-79433Y-84321D01*
X-79420Y-84231D01*
X-79407Y-84183D01*
X-79410Y-84162D01*
X-79406Y-84136D01*
X-79406Y5789D01*
X-78104Y7092D01*
X-68184Y17012D01*
X-68133Y17085D01*
X-68077Y17154D01*
X-68069Y17176D01*
X-68055Y17196D01*
X-68033Y17282D01*
X-68005Y17366D01*
X-68005Y17390D01*
X-68000Y17413D01*
X-68009Y17502D01*
X-68011Y17591D01*
X-68020Y17613D01*
X-68023Y17636D01*
X-68062Y17716D01*
X-68096Y17798D01*
X-68112Y17816D01*
X-68122Y17837D01*
X-68187Y17898D01*
X-68247Y17964D01*
X-68268Y17975D01*
X-68285Y17991D01*
X-68367Y18026D01*
X-68447Y18067D01*
X-68473Y18070D01*
X-68492Y18079D01*
X-68542Y18081D01*
X-68632Y18094D01*
X-118948Y18094D01*
X-118990Y18087D01*
X-119032Y18089D01*
X-119099Y18067D01*
X-119169Y18055D01*
X-119205Y18033D01*
X-119246Y18020D01*
X-119318Y17966D01*
X-119362Y17940D01*
X-119375Y17924D01*
X-119396Y17908D01*
X-149316Y-12012D01*
X-149367Y-12085D01*
X-149423Y-12154D01*
X-149431Y-12176D01*
X-149445Y-12196D01*
X-149467Y-12282D01*
X-149495Y-12366D01*
X-149495Y-12390D01*
X-149500Y-12413D01*
X-149491Y-12502D01*
X-149489Y-12591D01*
X-149480Y-12613D01*
X-149477Y-12636D01*
X-149438Y-12716D01*
X-149404Y-12798D01*
X-149388Y-12816D01*
X-149378Y-12837D01*
X-149313Y-12898D01*
X-149253Y-12964D01*
X-149232Y-12975D01*
X-149215Y-12991D01*
X-149133Y-13026D01*
X-149053Y-13067D01*
X-149027Y-13070D01*
X-149008Y-13079D01*
X-148958Y-13081D01*
X-148868Y-13094D01*
X-145864Y-13094D01*
X-145823Y-13087D01*
X-145780Y-13089D01*
X-145713Y-13067D01*
X-145644Y-13055D01*
X-145607Y-13033D01*
X-145567Y-13020D01*
X-145494Y-12966D01*
X-145450Y-12940D01*
X-145437Y-12924D01*
X-145416Y-12908D01*
X-143967Y-11459D01*
X-141033Y-11459D01*
X-138959Y-13533D01*
X-138959Y-16467D01*
X-141033Y-18541D01*
X-143967Y-18541D01*
X-145416Y-17092D01*
X-145451Y-17067D01*
X-145479Y-17036D01*
X-145542Y-17004D01*
X-145600Y-16963D01*
X-145641Y-16953D01*
X-145679Y-16933D01*
X-145769Y-16920D01*
X-145817Y-16907D01*
X-145838Y-16910D01*
X-145864Y-16906D01*
X-147776Y-16906D01*
X-147864Y-16922D01*
X-147952Y-16931D01*
X-147973Y-16941D01*
X-147997Y-16945D01*
X-148073Y-16991D01*
X-148153Y-17030D01*
X-148169Y-17047D01*
X-148190Y-17060D01*
X-148246Y-17129D01*
X-148307Y-17193D01*
X-148316Y-17215D01*
X-148331Y-17234D01*
X-148360Y-17318D01*
X-148394Y-17400D01*
X-148396Y-17424D01*
X-148403Y-17446D01*
X-148401Y-17535D01*
X-148404Y-17624D01*
X-148397Y-17647D01*
X-148397Y-17671D01*
X-148363Y-17753D01*
X-148336Y-17838D01*
X-148320Y-17859D01*
X-148312Y-17878D01*
X-148278Y-17916D01*
X-148224Y-17988D01*
X-145554Y-20659D01*
X-145554Y-24342D01*
X-146003Y-24791D01*
X-146028Y-24826D01*
X-146059Y-24854D01*
X-146091Y-24917D01*
X-146132Y-24975D01*
X-146142Y-25016D01*
X-146162Y-25054D01*
X-146175Y-25143D01*
X-146188Y-25192D01*
X-146185Y-25213D01*
X-146189Y-25239D01*
X-146189Y-38159D01*
X-146182Y-38201D01*
X-146184Y-38243D01*
X-146162Y-38310D01*
X-146150Y-38380D01*
X-146128Y-38416D01*
X-146115Y-38457D01*
X-146061Y-38529D01*
X-146035Y-38573D01*
X-146019Y-38586D01*
X-146003Y-38607D01*
X-95523Y-89088D01*
X-95488Y-89112D01*
X-95459Y-89144D01*
X-95396Y-89176D01*
X-95338Y-89216D01*
X-95297Y-89227D01*
X-95259Y-89246D01*
X-95170Y-89260D01*
X-95121Y-89272D01*
X-95100Y-89270D01*
X-95074Y-89274D01*
X-93266Y-89274D01*
X-89324Y-90907D01*
X-86307Y-93924D01*
X-84674Y-97866D01*
X-84674Y-102134D01*
X-86307Y-106076D01*
X-89324Y-109093D01*
X-93266Y-110726D01*
X-97534Y-110726D01*
G37*
%LPD*%
G36*
X137502Y13009D02*
X137502Y13009D01*
X137591Y13011D01*
X137613Y13020D01*
X137636Y13023D01*
X137716Y13062D01*
X137798Y13096D01*
X137816Y13112D01*
X137837Y13122D01*
X137898Y13187D01*
X137964Y13247D01*
X137975Y13268D01*
X137991Y13285D01*
X138026Y13367D01*
X138067Y13447D01*
X138070Y13473D01*
X138079Y13492D01*
X138081Y13542D01*
X138094Y13632D01*
X138094Y106636D01*
X138087Y106677D01*
X138089Y106720D01*
X138067Y106787D01*
X138055Y106856D01*
X138033Y106893D01*
X138020Y106933D01*
X137966Y107006D01*
X137940Y107050D01*
X137924Y107063D01*
X137909Y107084D01*
X137123Y107869D01*
X137050Y107920D01*
X136981Y107976D01*
X136959Y107984D01*
X136939Y107997D01*
X136853Y108019D01*
X136769Y108048D01*
X136745Y108047D01*
X136722Y108053D01*
X136633Y108044D01*
X136544Y108041D01*
X136522Y108032D01*
X136499Y108030D01*
X136419Y107990D01*
X136337Y107957D01*
X136319Y107941D01*
X136298Y107931D01*
X136237Y107866D01*
X136171Y107806D01*
X136160Y107785D01*
X136144Y107767D01*
X136109Y107685D01*
X136068Y107606D01*
X136065Y107580D01*
X136056Y107561D01*
X136054Y107510D01*
X136041Y107421D01*
X136041Y106073D01*
X133967Y103999D01*
X131033Y103999D01*
X128959Y106073D01*
X128959Y108325D01*
X128948Y108390D01*
X128946Y108456D01*
X128928Y108499D01*
X128920Y108546D01*
X128886Y108603D01*
X128861Y108663D01*
X128830Y108698D01*
X128805Y108739D01*
X128754Y108780D01*
X128710Y108829D01*
X128668Y108851D01*
X128631Y108880D01*
X128569Y108901D01*
X128510Y108932D01*
X128456Y108940D01*
X128419Y108952D01*
X128379Y108951D01*
X128325Y108959D01*
X126917Y108959D01*
X126875Y108952D01*
X126833Y108954D01*
X126766Y108932D01*
X126696Y108920D01*
X126660Y108898D01*
X126619Y108885D01*
X126547Y108831D01*
X126503Y108805D01*
X126490Y108789D01*
X126469Y108773D01*
X104592Y86896D01*
X104567Y86862D01*
X104536Y86833D01*
X104504Y86770D01*
X104463Y86712D01*
X104453Y86671D01*
X104433Y86633D01*
X104420Y86544D01*
X104407Y86495D01*
X104410Y86474D01*
X104406Y86448D01*
X104406Y85864D01*
X104413Y85823D01*
X104411Y85780D01*
X104433Y85713D01*
X104445Y85643D01*
X104467Y85607D01*
X104480Y85567D01*
X104534Y85494D01*
X104560Y85450D01*
X104576Y85437D01*
X104592Y85416D01*
X106041Y83967D01*
X106041Y81033D01*
X103967Y78959D01*
X101033Y78959D01*
X100488Y79504D01*
X100415Y79555D01*
X100346Y79611D01*
X100324Y79619D01*
X100304Y79632D01*
X100218Y79654D01*
X100134Y79683D01*
X100110Y79682D01*
X100087Y79688D01*
X99998Y79679D01*
X99909Y79676D01*
X99887Y79667D01*
X99864Y79665D01*
X99784Y79625D01*
X99702Y79592D01*
X99684Y79576D01*
X99663Y79566D01*
X99602Y79501D01*
X99536Y79441D01*
X99525Y79420D01*
X99509Y79402D01*
X99474Y79320D01*
X99433Y79241D01*
X99430Y79215D01*
X99421Y79196D01*
X99419Y79145D01*
X99406Y79056D01*
X99406Y51052D01*
X99413Y51010D01*
X99411Y50968D01*
X99433Y50901D01*
X99445Y50831D01*
X99467Y50795D01*
X99480Y50754D01*
X99534Y50682D01*
X99560Y50638D01*
X99576Y50625D01*
X99592Y50604D01*
X135604Y14592D01*
X137012Y13184D01*
X137085Y13133D01*
X137154Y13077D01*
X137176Y13069D01*
X137196Y13055D01*
X137282Y13033D01*
X137366Y13005D01*
X137390Y13005D01*
X137413Y13000D01*
X137502Y13009D01*
G37*
G36*
X-280649Y64377D02*
X-280649Y64377D01*
X-280583Y64379D01*
X-280540Y64397D01*
X-280493Y64405D01*
X-280436Y64439D01*
X-280376Y64464D01*
X-280341Y64495D01*
X-280300Y64520D01*
X-280258Y64571D01*
X-280210Y64615D01*
X-280188Y64657D01*
X-280159Y64694D01*
X-280138Y64756D01*
X-280107Y64815D01*
X-280099Y64869D01*
X-280087Y64906D01*
X-280088Y64946D01*
X-280080Y65000D01*
X-280080Y66467D01*
X-278006Y68541D01*
X-275072Y68541D01*
X-272998Y66467D01*
X-272998Y65000D01*
X-272987Y64935D01*
X-272985Y64869D01*
X-272967Y64826D01*
X-272959Y64779D01*
X-272925Y64722D01*
X-272900Y64662D01*
X-272869Y64627D01*
X-272844Y64586D01*
X-272793Y64545D01*
X-272749Y64496D01*
X-272707Y64474D01*
X-272670Y64445D01*
X-272608Y64424D01*
X-272549Y64393D01*
X-272495Y64385D01*
X-272458Y64373D01*
X-272418Y64374D01*
X-272364Y64366D01*
X-225000Y64366D01*
X-224935Y64377D01*
X-224869Y64379D01*
X-224826Y64397D01*
X-224779Y64405D01*
X-224722Y64439D01*
X-224662Y64464D01*
X-224627Y64495D01*
X-224586Y64520D01*
X-224545Y64571D01*
X-224496Y64615D01*
X-224474Y64657D01*
X-224445Y64694D01*
X-224424Y64756D01*
X-224393Y64815D01*
X-224385Y64869D01*
X-224373Y64906D01*
X-224374Y64946D01*
X-224366Y65000D01*
X-224366Y100000D01*
X-224377Y100065D01*
X-224379Y100131D01*
X-224397Y100174D01*
X-224405Y100221D01*
X-224439Y100278D01*
X-224464Y100338D01*
X-224495Y100373D01*
X-224520Y100414D01*
X-224571Y100456D01*
X-224615Y100504D01*
X-224657Y100526D01*
X-224694Y100555D01*
X-224756Y100576D01*
X-224815Y100607D01*
X-224869Y100615D01*
X-224906Y100627D01*
X-224946Y100626D01*
X-225000Y100634D01*
X-285000Y100634D01*
X-285065Y100623D01*
X-285131Y100621D01*
X-285174Y100603D01*
X-285221Y100595D01*
X-285278Y100561D01*
X-285338Y100536D01*
X-285373Y100505D01*
X-285414Y100480D01*
X-285456Y100429D01*
X-285504Y100385D01*
X-285526Y100343D01*
X-285555Y100306D01*
X-285576Y100244D01*
X-285607Y100185D01*
X-285615Y100131D01*
X-285627Y100094D01*
X-285626Y100054D01*
X-285634Y100000D01*
X-285634Y65000D01*
X-285623Y64935D01*
X-285621Y64869D01*
X-285603Y64826D01*
X-285595Y64779D01*
X-285561Y64722D01*
X-285536Y64662D01*
X-285505Y64627D01*
X-285480Y64586D01*
X-285429Y64545D01*
X-285385Y64496D01*
X-285343Y64474D01*
X-285306Y64445D01*
X-285244Y64424D01*
X-285185Y64393D01*
X-285131Y64385D01*
X-285094Y64373D01*
X-285054Y64374D01*
X-285000Y64366D01*
X-280714Y64366D01*
X-280649Y64377D01*
G37*
G36*
X-271244Y34373D02*
X-271244Y34373D01*
X-271202Y34371D01*
X-271135Y34393D01*
X-271065Y34405D01*
X-271029Y34427D01*
X-270988Y34440D01*
X-270916Y34494D01*
X-270872Y34520D01*
X-270859Y34536D01*
X-270838Y34552D01*
X-261497Y43893D01*
X-261472Y43927D01*
X-261441Y43956D01*
X-261409Y44019D01*
X-261368Y44077D01*
X-261358Y44118D01*
X-261338Y44156D01*
X-261325Y44245D01*
X-261312Y44294D01*
X-261315Y44315D01*
X-261311Y44341D01*
X-261311Y60000D01*
X-261322Y60065D01*
X-261324Y60131D01*
X-261342Y60174D01*
X-261350Y60221D01*
X-261384Y60278D01*
X-261409Y60338D01*
X-261440Y60373D01*
X-261465Y60414D01*
X-261516Y60456D01*
X-261560Y60504D01*
X-261602Y60526D01*
X-261639Y60555D01*
X-261701Y60576D01*
X-261760Y60607D01*
X-261814Y60615D01*
X-261851Y60627D01*
X-261891Y60626D01*
X-261945Y60634D01*
X-340000Y60634D01*
X-340065Y60623D01*
X-340131Y60621D01*
X-340174Y60603D01*
X-340221Y60595D01*
X-340278Y60561D01*
X-340338Y60536D01*
X-340373Y60505D01*
X-340414Y60480D01*
X-340456Y60429D01*
X-340504Y60385D01*
X-340526Y60343D01*
X-340555Y60306D01*
X-340576Y60244D01*
X-340607Y60185D01*
X-340615Y60131D01*
X-340627Y60094D01*
X-340626Y60054D01*
X-340634Y60000D01*
X-340634Y35000D01*
X-340623Y34935D01*
X-340621Y34869D01*
X-340603Y34826D01*
X-340595Y34779D01*
X-340561Y34722D01*
X-340536Y34662D01*
X-340505Y34627D01*
X-340480Y34586D01*
X-340429Y34545D01*
X-340385Y34496D01*
X-340343Y34474D01*
X-340306Y34445D01*
X-340244Y34424D01*
X-340185Y34393D01*
X-340131Y34385D01*
X-340094Y34373D01*
X-340054Y34374D01*
X-340000Y34366D01*
X-271286Y34366D01*
X-271244Y34373D01*
G37*
G36*
X-289935Y64377D02*
X-289935Y64377D01*
X-289869Y64379D01*
X-289826Y64397D01*
X-289779Y64405D01*
X-289722Y64439D01*
X-289662Y64464D01*
X-289627Y64495D01*
X-289586Y64520D01*
X-289545Y64571D01*
X-289496Y64615D01*
X-289474Y64657D01*
X-289445Y64694D01*
X-289424Y64756D01*
X-289393Y64815D01*
X-289385Y64869D01*
X-289373Y64906D01*
X-289374Y64946D01*
X-289366Y65000D01*
X-289366Y100000D01*
X-289377Y100065D01*
X-289379Y100131D01*
X-289397Y100174D01*
X-289405Y100221D01*
X-289439Y100278D01*
X-289464Y100338D01*
X-289495Y100373D01*
X-289520Y100414D01*
X-289571Y100456D01*
X-289615Y100504D01*
X-289657Y100526D01*
X-289694Y100555D01*
X-289756Y100576D01*
X-289815Y100607D01*
X-289869Y100615D01*
X-289906Y100627D01*
X-289946Y100626D01*
X-290000Y100634D01*
X-340000Y100634D01*
X-340065Y100623D01*
X-340131Y100621D01*
X-340174Y100603D01*
X-340221Y100595D01*
X-340278Y100561D01*
X-340338Y100536D01*
X-340373Y100505D01*
X-340414Y100480D01*
X-340456Y100429D01*
X-340504Y100385D01*
X-340526Y100343D01*
X-340555Y100306D01*
X-340576Y100244D01*
X-340607Y100185D01*
X-340615Y100131D01*
X-340627Y100094D01*
X-340626Y100054D01*
X-340634Y100000D01*
X-340634Y65000D01*
X-340623Y64935D01*
X-340621Y64869D01*
X-340603Y64826D01*
X-340595Y64779D01*
X-340561Y64722D01*
X-340536Y64662D01*
X-340505Y64627D01*
X-340480Y64586D01*
X-340429Y64545D01*
X-340385Y64496D01*
X-340343Y64474D01*
X-340306Y64445D01*
X-340244Y64424D01*
X-340185Y64393D01*
X-340131Y64385D01*
X-340094Y64373D01*
X-340054Y64374D01*
X-340000Y64366D01*
X-290000Y64366D01*
X-289935Y64377D01*
G37*
G36*
X326490Y71913D02*
X326490Y71913D01*
X326532Y71911D01*
X326599Y71933D01*
X326669Y71945D01*
X326705Y71967D01*
X326746Y71980D01*
X326818Y72034D01*
X326862Y72060D01*
X326875Y72076D01*
X326896Y72092D01*
X356856Y102052D01*
X356894Y102106D01*
X356939Y102153D01*
X356958Y102197D01*
X356984Y102236D01*
X357001Y102299D01*
X357027Y102360D01*
X357029Y102407D01*
X357040Y102453D01*
X357034Y102518D01*
X357037Y102584D01*
X357022Y102629D01*
X357017Y102676D01*
X356988Y102735D01*
X356968Y102798D01*
X356935Y102842D01*
X356918Y102877D01*
X356889Y102904D01*
X356856Y102948D01*
X335448Y124356D01*
X335395Y124394D01*
X335347Y124439D01*
X335303Y124458D01*
X335264Y124484D01*
X335201Y124501D01*
X335140Y124527D01*
X335093Y124529D01*
X335047Y124540D01*
X334982Y124534D01*
X334916Y124537D01*
X334871Y124522D01*
X334824Y124517D01*
X334765Y124488D01*
X334702Y124468D01*
X334658Y124435D01*
X334623Y124418D01*
X334596Y124389D01*
X334552Y124356D01*
X327092Y116896D01*
X327067Y116862D01*
X327036Y116833D01*
X327004Y116770D01*
X326963Y116712D01*
X326953Y116671D01*
X326933Y116633D01*
X326920Y116544D01*
X326907Y116495D01*
X326910Y116474D01*
X326906Y116448D01*
X326906Y101711D01*
X326227Y101031D01*
X326202Y100997D01*
X326171Y100968D01*
X326139Y100905D01*
X326098Y100847D01*
X326088Y100806D01*
X326068Y100768D01*
X326055Y100679D01*
X326042Y100630D01*
X326045Y100609D01*
X326041Y100583D01*
X326041Y98533D01*
X323967Y96459D01*
X321033Y96459D01*
X318959Y98533D01*
X318959Y101467D01*
X321033Y103541D01*
X322460Y103541D01*
X322525Y103552D01*
X322591Y103554D01*
X322634Y103572D01*
X322681Y103580D01*
X322738Y103614D01*
X322798Y103639D01*
X322833Y103670D01*
X322874Y103695D01*
X322916Y103746D01*
X322964Y103790D01*
X322986Y103832D01*
X323015Y103869D01*
X323036Y103931D01*
X323067Y103990D01*
X323075Y104044D01*
X323087Y104081D01*
X323086Y104121D01*
X323094Y104175D01*
X323094Y116368D01*
X323078Y116456D01*
X323069Y116544D01*
X323059Y116565D01*
X323055Y116589D01*
X323009Y116665D01*
X322970Y116745D01*
X322953Y116762D01*
X322940Y116782D01*
X322871Y116838D01*
X322807Y116899D01*
X322785Y116908D01*
X322766Y116923D01*
X322682Y116952D01*
X322600Y116987D01*
X322576Y116988D01*
X322554Y116995D01*
X322465Y116993D01*
X322376Y116997D01*
X322353Y116989D01*
X322329Y116989D01*
X322247Y116955D01*
X322162Y116928D01*
X322141Y116912D01*
X322122Y116904D01*
X322084Y116870D01*
X322012Y116816D01*
X317092Y111896D01*
X317067Y111862D01*
X317036Y111833D01*
X317004Y111770D01*
X316963Y111712D01*
X316953Y111671D01*
X316933Y111633D01*
X316920Y111544D01*
X316907Y111495D01*
X316910Y111474D01*
X316906Y111448D01*
X316906Y83552D01*
X316913Y83510D01*
X316911Y83468D01*
X316933Y83401D01*
X316945Y83331D01*
X316967Y83295D01*
X316980Y83254D01*
X317034Y83182D01*
X317060Y83138D01*
X317076Y83125D01*
X317092Y83104D01*
X321469Y78727D01*
X321503Y78702D01*
X321532Y78671D01*
X321595Y78639D01*
X321653Y78598D01*
X321694Y78588D01*
X321732Y78568D01*
X321821Y78555D01*
X321870Y78542D01*
X321891Y78545D01*
X321917Y78541D01*
X323967Y78541D01*
X326041Y76467D01*
X326041Y73533D01*
X325496Y72988D01*
X325445Y72915D01*
X325389Y72846D01*
X325381Y72824D01*
X325368Y72804D01*
X325346Y72718D01*
X325317Y72634D01*
X325318Y72610D01*
X325312Y72587D01*
X325321Y72498D01*
X325324Y72409D01*
X325333Y72387D01*
X325335Y72364D01*
X325375Y72284D01*
X325408Y72202D01*
X325424Y72184D01*
X325434Y72163D01*
X325499Y72102D01*
X325559Y72036D01*
X325580Y72025D01*
X325598Y72009D01*
X325680Y71974D01*
X325759Y71933D01*
X325785Y71930D01*
X325804Y71921D01*
X325855Y71919D01*
X325944Y71906D01*
X326448Y71906D01*
X326490Y71913D01*
G37*
%LPC*%
G36*
X53549Y-212351D02*
X53549Y-212351D01*
X47172Y-209709D01*
X42291Y-204828D01*
X39649Y-198451D01*
X39649Y-191549D01*
X42291Y-185172D01*
X47172Y-180291D01*
X53549Y-177649D01*
X60451Y-177649D01*
X66828Y-180291D01*
X71709Y-185172D01*
X74351Y-191549D01*
X74351Y-198451D01*
X71709Y-204828D01*
X66828Y-209709D01*
X60451Y-212351D01*
X53549Y-212351D01*
G37*
%LPD*%
%LPC*%
G36*
X-60451Y-212351D02*
X-60451Y-212351D01*
X-66828Y-209709D01*
X-71709Y-204828D01*
X-74351Y-198451D01*
X-74351Y-191549D01*
X-71709Y-185172D01*
X-66828Y-180291D01*
X-60451Y-177649D01*
X-53549Y-177649D01*
X-47172Y-180291D01*
X-42291Y-185172D01*
X-39649Y-191549D01*
X-39649Y-198451D01*
X-42291Y-204828D01*
X-47172Y-209709D01*
X-53549Y-212351D01*
X-60451Y-212351D01*
G37*
%LPD*%
G36*
X-224935Y34377D02*
X-224935Y34377D01*
X-224869Y34379D01*
X-224826Y34397D01*
X-224779Y34405D01*
X-224722Y34439D01*
X-224662Y34464D01*
X-224627Y34495D01*
X-224586Y34520D01*
X-224545Y34571D01*
X-224496Y34615D01*
X-224474Y34657D01*
X-224445Y34694D01*
X-224424Y34756D01*
X-224393Y34815D01*
X-224385Y34869D01*
X-224373Y34906D01*
X-224374Y34946D01*
X-224366Y35000D01*
X-224366Y60000D01*
X-224377Y60065D01*
X-224379Y60131D01*
X-224397Y60174D01*
X-224405Y60221D01*
X-224439Y60278D01*
X-224464Y60338D01*
X-224495Y60373D01*
X-224520Y60414D01*
X-224571Y60456D01*
X-224615Y60504D01*
X-224657Y60526D01*
X-224694Y60555D01*
X-224756Y60576D01*
X-224815Y60607D01*
X-224869Y60615D01*
X-224906Y60627D01*
X-224946Y60626D01*
X-225000Y60634D01*
X-253055Y60634D01*
X-253120Y60623D01*
X-253186Y60621D01*
X-253229Y60603D01*
X-253276Y60595D01*
X-253333Y60561D01*
X-253393Y60536D01*
X-253428Y60505D01*
X-253469Y60480D01*
X-253511Y60429D01*
X-253559Y60385D01*
X-253581Y60343D01*
X-253610Y60306D01*
X-253631Y60244D01*
X-253662Y60185D01*
X-253670Y60131D01*
X-253682Y60094D01*
X-253681Y60054D01*
X-253689Y60000D01*
X-253689Y40922D01*
X-256107Y38504D01*
X-259162Y35449D01*
X-259213Y35375D01*
X-259269Y35306D01*
X-259277Y35284D01*
X-259290Y35264D01*
X-259313Y35178D01*
X-259341Y35094D01*
X-259340Y35070D01*
X-259346Y35047D01*
X-259337Y34958D01*
X-259335Y34869D01*
X-259326Y34847D01*
X-259323Y34824D01*
X-259284Y34744D01*
X-259250Y34662D01*
X-259234Y34644D01*
X-259224Y34623D01*
X-259159Y34562D01*
X-259099Y34496D01*
X-259078Y34485D01*
X-259060Y34469D01*
X-258979Y34434D01*
X-258899Y34393D01*
X-258873Y34390D01*
X-258854Y34381D01*
X-258803Y34379D01*
X-258714Y34366D01*
X-225000Y34366D01*
X-224935Y34377D01*
G37*
%LPC*%
G36*
X-377586Y241999D02*
X-377586Y241999D01*
X-382364Y243979D01*
X-386021Y247636D01*
X-388001Y252414D01*
X-388001Y257586D01*
X-386021Y262364D01*
X-382364Y266021D01*
X-377586Y268001D01*
X-372414Y268001D01*
X-367636Y266021D01*
X-363979Y262364D01*
X-361999Y257586D01*
X-361999Y252414D01*
X-363979Y247636D01*
X-367636Y243979D01*
X-372414Y241999D01*
X-377586Y241999D01*
G37*
%LPD*%
%LPC*%
G36*
X-377586Y-68001D02*
X-377586Y-68001D01*
X-382364Y-66021D01*
X-386021Y-62364D01*
X-388001Y-57586D01*
X-388001Y-52414D01*
X-386021Y-47636D01*
X-382364Y-43979D01*
X-377586Y-41999D01*
X-372414Y-41999D01*
X-367636Y-43979D01*
X-363979Y-47636D01*
X-361999Y-52414D01*
X-361999Y-57586D01*
X-363979Y-62364D01*
X-367636Y-66021D01*
X-372414Y-68001D01*
X-377586Y-68001D01*
G37*
%LPD*%
%LPC*%
G36*
X372414Y-68001D02*
X372414Y-68001D01*
X367636Y-66021D01*
X363979Y-62364D01*
X361999Y-57586D01*
X361999Y-52414D01*
X363979Y-47636D01*
X367636Y-43979D01*
X372414Y-41999D01*
X377586Y-41999D01*
X382364Y-43979D01*
X386021Y-47636D01*
X388001Y-52414D01*
X388001Y-57586D01*
X386021Y-62364D01*
X382364Y-66021D01*
X377586Y-68001D01*
X372414Y-68001D01*
G37*
%LPD*%
%LPC*%
G36*
X372414Y241999D02*
X372414Y241999D01*
X367636Y243979D01*
X363979Y247636D01*
X361999Y252414D01*
X361999Y257586D01*
X363979Y262364D01*
X367636Y266021D01*
X372414Y268001D01*
X377586Y268001D01*
X382364Y266021D01*
X386021Y262364D01*
X388001Y257586D01*
X388001Y252414D01*
X386021Y247636D01*
X382364Y243979D01*
X377586Y241999D01*
X372414Y241999D01*
G37*
%LPD*%
%LPC*%
G36*
X-286467Y-113541D02*
X-286467Y-113541D01*
X-288541Y-111467D01*
X-288541Y-108533D01*
X-286467Y-106459D01*
X-283533Y-106459D01*
X-283400Y-106593D01*
X-283317Y-106651D01*
X-283236Y-106711D01*
X-283225Y-106714D01*
X-283215Y-106721D01*
X-283118Y-106746D01*
X-283021Y-106775D01*
X-283010Y-106774D01*
X-282998Y-106777D01*
X-282898Y-106767D01*
X-282798Y-106760D01*
X-282787Y-106755D01*
X-282775Y-106754D01*
X-282685Y-106709D01*
X-282593Y-106668D01*
X-282584Y-106660D01*
X-282574Y-106655D01*
X-282505Y-106581D01*
X-282433Y-106511D01*
X-282428Y-106500D01*
X-282420Y-106491D01*
X-282380Y-106398D01*
X-282338Y-106307D01*
X-282337Y-106296D01*
X-282332Y-106285D01*
X-282328Y-106184D01*
X-282320Y-106084D01*
X-282323Y-106071D01*
X-282322Y-106061D01*
X-282336Y-106017D01*
X-282365Y-105902D01*
X-283926Y-102134D01*
X-283926Y-97866D01*
X-282293Y-93924D01*
X-279276Y-90907D01*
X-275334Y-89274D01*
X-271066Y-89274D01*
X-267124Y-90907D01*
X-264107Y-93924D01*
X-262474Y-97866D01*
X-262474Y-102134D01*
X-264107Y-106076D01*
X-267124Y-109093D01*
X-271066Y-110726D01*
X-275334Y-110726D01*
X-279276Y-109093D01*
X-280377Y-107992D01*
X-280450Y-107941D01*
X-280519Y-107885D01*
X-280541Y-107878D01*
X-280561Y-107864D01*
X-280647Y-107842D01*
X-280731Y-107813D01*
X-280755Y-107814D01*
X-280778Y-107808D01*
X-280867Y-107817D01*
X-280956Y-107820D01*
X-280978Y-107829D01*
X-281001Y-107831D01*
X-281081Y-107871D01*
X-281163Y-107904D01*
X-281181Y-107920D01*
X-281202Y-107931D01*
X-281263Y-107996D01*
X-281329Y-108056D01*
X-281340Y-108077D01*
X-281356Y-108094D01*
X-281391Y-108176D01*
X-281432Y-108255D01*
X-281435Y-108282D01*
X-281444Y-108301D01*
X-281446Y-108351D01*
X-281459Y-108441D01*
X-281459Y-111467D01*
X-283533Y-113541D01*
X-286467Y-113541D01*
G37*
%LPD*%
%LPC*%
G36*
X22808Y-136021D02*
X22808Y-136021D01*
X18757Y-134343D01*
X15657Y-131243D01*
X13979Y-127192D01*
X13979Y-122808D01*
X15657Y-118757D01*
X18757Y-115657D01*
X22808Y-113979D01*
X27192Y-113979D01*
X31243Y-115657D01*
X34343Y-118757D01*
X36021Y-122808D01*
X36021Y-127192D01*
X34343Y-131243D01*
X31243Y-134343D01*
X27192Y-136021D01*
X22808Y-136021D01*
G37*
%LPD*%
%LPC*%
G36*
X-27192Y-281021D02*
X-27192Y-281021D01*
X-31243Y-279343D01*
X-34343Y-276243D01*
X-36021Y-272192D01*
X-36021Y-267808D01*
X-34343Y-263757D01*
X-31243Y-260657D01*
X-27192Y-258979D01*
X-22808Y-258979D01*
X-18757Y-260657D01*
X-15657Y-263757D01*
X-13979Y-267808D01*
X-13979Y-272192D01*
X-15657Y-276243D01*
X-18757Y-279343D01*
X-22808Y-281021D01*
X-27192Y-281021D01*
G37*
%LPD*%
%LPC*%
G36*
X-2192Y-281021D02*
X-2192Y-281021D01*
X-6243Y-279343D01*
X-9343Y-276243D01*
X-11021Y-272192D01*
X-11021Y-267808D01*
X-9343Y-263757D01*
X-6243Y-260657D01*
X-2192Y-258979D01*
X2192Y-258979D01*
X6243Y-260657D01*
X9343Y-263757D01*
X11021Y-267808D01*
X11021Y-272192D01*
X9343Y-276243D01*
X6243Y-279343D01*
X2192Y-281021D01*
X-2192Y-281021D01*
G37*
%LPD*%
%LPC*%
G36*
X-9342Y-51946D02*
X-9342Y-51946D01*
X-11946Y-49342D01*
X-11946Y-45658D01*
X-11497Y-45209D01*
X-11472Y-45174D01*
X-11441Y-45146D01*
X-11409Y-45083D01*
X-11368Y-45025D01*
X-11358Y-44984D01*
X-11338Y-44946D01*
X-11325Y-44857D01*
X-11312Y-44808D01*
X-11315Y-44787D01*
X-11311Y-44761D01*
X-11311Y-15922D01*
X-4477Y-9087D01*
X-4452Y-9053D01*
X-4421Y-9024D01*
X-4389Y-8961D01*
X-4348Y-8903D01*
X-4338Y-8862D01*
X-4318Y-8824D01*
X-4305Y-8735D01*
X-4292Y-8686D01*
X-4295Y-8665D01*
X-4291Y-8639D01*
X-4291Y-8223D01*
X-1777Y-5709D01*
X1777Y-5709D01*
X4291Y-8223D01*
X4291Y-11777D01*
X1777Y-14291D01*
X1361Y-14291D01*
X1319Y-14298D01*
X1277Y-14296D01*
X1210Y-14318D01*
X1140Y-14330D01*
X1104Y-14352D01*
X1063Y-14365D01*
X991Y-14419D01*
X947Y-14445D01*
X934Y-14461D01*
X913Y-14477D01*
X-3503Y-18893D01*
X-3528Y-18927D01*
X-3559Y-18956D01*
X-3591Y-19019D01*
X-3632Y-19077D01*
X-3642Y-19118D01*
X-3662Y-19156D01*
X-3675Y-19245D01*
X-3688Y-19294D01*
X-3685Y-19315D01*
X-3689Y-19341D01*
X-3689Y-44761D01*
X-3682Y-44803D01*
X-3684Y-44845D01*
X-3662Y-44912D01*
X-3650Y-44982D01*
X-3628Y-45018D01*
X-3615Y-45059D01*
X-3561Y-45131D01*
X-3535Y-45175D01*
X-3519Y-45188D01*
X-3503Y-45209D01*
X-3054Y-45658D01*
X-3054Y-49342D01*
X-5658Y-51946D01*
X-9342Y-51946D01*
G37*
%LPD*%
%LPC*%
G36*
X-326134Y-110726D02*
X-326134Y-110726D01*
X-330076Y-109093D01*
X-333093Y-106076D01*
X-334726Y-102134D01*
X-334726Y-97866D01*
X-333093Y-93924D01*
X-330076Y-90907D01*
X-326134Y-89274D01*
X-321866Y-89274D01*
X-317924Y-90907D01*
X-314907Y-93924D01*
X-313274Y-97866D01*
X-313274Y-102134D01*
X-314907Y-106076D01*
X-317924Y-109093D01*
X-321866Y-110726D01*
X-326134Y-110726D01*
G37*
%LPD*%
%LPC*%
G36*
X-199134Y-110726D02*
X-199134Y-110726D01*
X-203076Y-109093D01*
X-206093Y-106076D01*
X-207726Y-102134D01*
X-207726Y-97866D01*
X-206093Y-93924D01*
X-203076Y-90907D01*
X-199134Y-89274D01*
X-194866Y-89274D01*
X-190924Y-90907D01*
X-187907Y-93924D01*
X-186274Y-97866D01*
X-186274Y-102134D01*
X-187907Y-106076D01*
X-190924Y-109093D01*
X-194866Y-110726D01*
X-199134Y-110726D01*
G37*
%LPD*%
%LPC*%
G36*
X-351534Y-110726D02*
X-351534Y-110726D01*
X-355476Y-109093D01*
X-358493Y-106076D01*
X-360126Y-102134D01*
X-360126Y-97866D01*
X-358493Y-93924D01*
X-355476Y-90907D01*
X-351534Y-89274D01*
X-347266Y-89274D01*
X-343324Y-90907D01*
X-340307Y-93924D01*
X-338674Y-97866D01*
X-338674Y-102134D01*
X-340307Y-106076D01*
X-343324Y-109093D01*
X-347266Y-110726D01*
X-351534Y-110726D01*
G37*
%LPD*%
%LPC*%
G36*
X-224534Y-110726D02*
X-224534Y-110726D01*
X-228476Y-109093D01*
X-231493Y-106076D01*
X-233126Y-102134D01*
X-233126Y-97866D01*
X-231493Y-93924D01*
X-228476Y-90907D01*
X-224534Y-89274D01*
X-220266Y-89274D01*
X-216324Y-90907D01*
X-213307Y-93924D01*
X-211674Y-97866D01*
X-211674Y-102134D01*
X-213307Y-106076D01*
X-216324Y-109093D01*
X-220266Y-110726D01*
X-224534Y-110726D01*
G37*
%LPD*%
%LPC*%
G36*
X-300734Y-110726D02*
X-300734Y-110726D01*
X-304676Y-109093D01*
X-307693Y-106076D01*
X-309326Y-102134D01*
X-309326Y-97866D01*
X-307693Y-93924D01*
X-304676Y-90907D01*
X-300734Y-89274D01*
X-296466Y-89274D01*
X-292524Y-90907D01*
X-289507Y-93924D01*
X-287874Y-97866D01*
X-287874Y-102134D01*
X-289507Y-106076D01*
X-292524Y-109093D01*
X-296466Y-110726D01*
X-300734Y-110726D01*
G37*
%LPD*%
%LPC*%
G36*
X-173734Y-110726D02*
X-173734Y-110726D01*
X-177676Y-109093D01*
X-180693Y-106076D01*
X-182326Y-102134D01*
X-182326Y-97866D01*
X-180693Y-93924D01*
X-177676Y-90907D01*
X-173734Y-89274D01*
X-169466Y-89274D01*
X-165524Y-90907D01*
X-162507Y-93924D01*
X-160874Y-97866D01*
X-160874Y-102134D01*
X-162507Y-106076D01*
X-165524Y-109093D01*
X-169466Y-110726D01*
X-173734Y-110726D01*
G37*
%LPD*%
%LPC*%
G36*
X-122934Y-110726D02*
X-122934Y-110726D01*
X-126876Y-109093D01*
X-129893Y-106076D01*
X-131526Y-102134D01*
X-131526Y-97866D01*
X-129893Y-93924D01*
X-126876Y-90907D01*
X-122934Y-89274D01*
X-118666Y-89274D01*
X-114724Y-90907D01*
X-111707Y-93924D01*
X-110074Y-97866D01*
X-110074Y-102134D01*
X-111707Y-106076D01*
X-114724Y-109093D01*
X-118666Y-110726D01*
X-122934Y-110726D01*
G37*
%LPD*%
%LPC*%
G36*
X-131076Y180479D02*
X-131076Y180479D01*
X-131821Y181224D01*
X-131821Y198776D01*
X-131076Y199521D01*
X-113524Y199521D01*
X-112779Y198776D01*
X-112779Y181224D01*
X-113524Y180479D01*
X-131076Y180479D01*
G37*
%LPD*%
%LPC*%
G36*
X-149594Y180479D02*
X-149594Y180479D01*
X-153093Y181929D01*
X-155771Y184607D01*
X-157221Y188106D01*
X-157221Y191894D01*
X-155771Y195393D01*
X-153093Y198071D01*
X-149594Y199521D01*
X-145806Y199521D01*
X-142307Y198071D01*
X-139629Y195393D01*
X-138179Y191894D01*
X-138179Y188106D01*
X-139629Y184607D01*
X-142307Y181929D01*
X-145806Y180479D01*
X-149594Y180479D01*
G37*
%LPD*%
%LPC*%
G36*
X-211247Y118729D02*
X-211247Y118729D01*
X-213552Y119684D01*
X-215316Y121448D01*
X-216271Y123753D01*
X-216271Y126247D01*
X-215316Y128552D01*
X-213552Y130316D01*
X-211247Y131271D01*
X-208753Y131271D01*
X-206448Y130316D01*
X-205949Y129817D01*
X-205894Y129779D01*
X-205847Y129734D01*
X-205803Y129716D01*
X-205764Y129689D01*
X-205701Y129672D01*
X-205640Y129646D01*
X-205593Y129644D01*
X-205547Y129633D01*
X-205482Y129639D01*
X-205416Y129636D01*
X-205371Y129651D01*
X-205324Y129656D01*
X-205265Y129685D01*
X-205202Y129705D01*
X-205158Y129738D01*
X-205123Y129755D01*
X-205096Y129784D01*
X-205052Y129817D01*
X-204552Y130316D01*
X-202247Y131271D01*
X-199753Y131271D01*
X-197448Y130316D01*
X-195684Y128552D01*
X-194729Y126247D01*
X-194729Y123753D01*
X-195684Y121448D01*
X-197448Y119684D01*
X-199753Y118729D01*
X-202247Y118729D01*
X-204552Y119684D01*
X-205052Y120183D01*
X-205106Y120221D01*
X-205153Y120266D01*
X-205197Y120284D01*
X-205236Y120311D01*
X-205299Y120328D01*
X-205360Y120354D01*
X-205407Y120356D01*
X-205453Y120367D01*
X-205518Y120361D01*
X-205584Y120364D01*
X-205629Y120349D01*
X-205676Y120344D01*
X-205735Y120315D01*
X-205798Y120295D01*
X-205842Y120262D01*
X-205877Y120245D01*
X-205904Y120216D01*
X-205949Y120183D01*
X-206448Y119684D01*
X-208753Y118729D01*
X-211247Y118729D01*
G37*
%LPD*%
%LPC*%
G36*
X-381595Y161979D02*
X-381595Y161979D01*
X-384543Y163200D01*
X-386800Y165457D01*
X-388021Y168405D01*
X-388021Y171595D01*
X-386800Y174543D01*
X-384543Y176800D01*
X-381595Y178021D01*
X-378405Y178021D01*
X-375457Y176800D01*
X-373200Y174543D01*
X-371979Y171595D01*
X-371979Y168405D01*
X-373200Y165457D01*
X-375457Y163200D01*
X-378405Y161979D01*
X-381595Y161979D01*
G37*
%LPD*%
%LPC*%
G36*
X378405Y161979D02*
X378405Y161979D01*
X375457Y163200D01*
X373200Y165457D01*
X371979Y168405D01*
X371979Y171595D01*
X373200Y174543D01*
X375457Y176800D01*
X378405Y178021D01*
X381595Y178021D01*
X384543Y176800D01*
X386800Y174543D01*
X388021Y171595D01*
X388021Y168405D01*
X386800Y165457D01*
X384543Y163200D01*
X381595Y161979D01*
X378405Y161979D01*
G37*
%LPD*%
%LPC*%
G36*
X-381595Y81979D02*
X-381595Y81979D01*
X-384543Y83200D01*
X-386800Y85457D01*
X-388021Y88405D01*
X-388021Y91595D01*
X-386800Y94543D01*
X-384543Y96800D01*
X-381595Y98021D01*
X-378405Y98021D01*
X-375457Y96800D01*
X-373200Y94543D01*
X-371979Y91595D01*
X-371979Y88405D01*
X-373200Y85457D01*
X-375457Y83200D01*
X-378405Y81979D01*
X-381595Y81979D01*
G37*
%LPD*%
%LPC*%
G36*
X-381595Y101979D02*
X-381595Y101979D01*
X-384543Y103200D01*
X-386800Y105457D01*
X-388021Y108405D01*
X-388021Y111595D01*
X-386800Y114543D01*
X-384543Y116800D01*
X-381595Y118021D01*
X-378405Y118021D01*
X-375457Y116800D01*
X-373200Y114543D01*
X-371979Y111595D01*
X-371979Y108405D01*
X-373200Y105457D01*
X-375457Y103200D01*
X-378405Y101979D01*
X-381595Y101979D01*
G37*
%LPD*%
%LPC*%
G36*
X378405Y81979D02*
X378405Y81979D01*
X375457Y83200D01*
X373200Y85457D01*
X371979Y88405D01*
X371979Y91595D01*
X373200Y94543D01*
X375457Y96800D01*
X378405Y98021D01*
X381595Y98021D01*
X384543Y96800D01*
X386800Y94543D01*
X388021Y91595D01*
X388021Y88405D01*
X386800Y85457D01*
X384543Y83200D01*
X381595Y81979D01*
X378405Y81979D01*
G37*
%LPD*%
%LPC*%
G36*
X-381595Y1979D02*
X-381595Y1979D01*
X-384543Y3200D01*
X-386800Y5457D01*
X-388021Y8405D01*
X-388021Y11595D01*
X-386800Y14543D01*
X-384543Y16800D01*
X-381595Y18021D01*
X-378405Y18021D01*
X-375457Y16800D01*
X-373200Y14543D01*
X-371979Y11595D01*
X-371979Y8405D01*
X-373200Y5457D01*
X-375457Y3200D01*
X-378405Y1979D01*
X-381595Y1979D01*
G37*
%LPD*%
%LPC*%
G36*
X-381595Y181979D02*
X-381595Y181979D01*
X-384543Y183200D01*
X-386800Y185457D01*
X-388021Y188405D01*
X-388021Y191595D01*
X-386800Y194543D01*
X-384543Y196800D01*
X-381595Y198021D01*
X-378405Y198021D01*
X-375457Y196800D01*
X-373200Y194543D01*
X-371979Y191595D01*
X-371979Y188405D01*
X-373200Y185457D01*
X-375457Y183200D01*
X-378405Y181979D01*
X-381595Y181979D01*
G37*
%LPD*%
%LPC*%
G36*
X378405Y141979D02*
X378405Y141979D01*
X375457Y143200D01*
X373200Y145457D01*
X371979Y148405D01*
X371979Y151595D01*
X373200Y154543D01*
X375457Y156800D01*
X378405Y158021D01*
X381595Y158021D01*
X384543Y156800D01*
X386800Y154543D01*
X388021Y151595D01*
X388021Y148405D01*
X386800Y145457D01*
X384543Y143200D01*
X381595Y141979D01*
X378405Y141979D01*
G37*
%LPD*%
%LPC*%
G36*
X378405Y181979D02*
X378405Y181979D01*
X375457Y183200D01*
X373200Y185457D01*
X371979Y188405D01*
X371979Y191595D01*
X373200Y194543D01*
X375457Y196800D01*
X378405Y198021D01*
X381595Y198021D01*
X384543Y196800D01*
X386800Y194543D01*
X388021Y191595D01*
X388021Y188405D01*
X386800Y185457D01*
X384543Y183200D01*
X381595Y181979D01*
X378405Y181979D01*
G37*
%LPD*%
%LPC*%
G36*
X-381595Y21979D02*
X-381595Y21979D01*
X-384543Y23200D01*
X-386800Y25457D01*
X-388021Y28405D01*
X-388021Y31595D01*
X-386800Y34543D01*
X-384543Y36800D01*
X-381595Y38021D01*
X-378405Y38021D01*
X-375457Y36800D01*
X-373200Y34543D01*
X-371979Y31595D01*
X-371979Y28405D01*
X-373200Y25457D01*
X-375457Y23200D01*
X-378405Y21979D01*
X-381595Y21979D01*
G37*
%LPD*%
%LPC*%
G36*
X378405Y21979D02*
X378405Y21979D01*
X375457Y23200D01*
X373200Y25457D01*
X371979Y28405D01*
X371979Y31595D01*
X373200Y34543D01*
X375457Y36800D01*
X378405Y38021D01*
X381595Y38021D01*
X384543Y36800D01*
X386800Y34543D01*
X388021Y31595D01*
X388021Y28405D01*
X386800Y25457D01*
X384543Y23200D01*
X381595Y21979D01*
X378405Y21979D01*
G37*
%LPD*%
%LPC*%
G36*
X-381595Y41979D02*
X-381595Y41979D01*
X-384543Y43200D01*
X-386800Y45457D01*
X-388021Y48405D01*
X-388021Y51595D01*
X-386800Y54543D01*
X-384543Y56800D01*
X-381595Y58021D01*
X-378405Y58021D01*
X-375457Y56800D01*
X-373200Y54543D01*
X-371979Y51595D01*
X-371979Y48405D01*
X-373200Y45457D01*
X-375457Y43200D01*
X-378405Y41979D01*
X-381595Y41979D01*
G37*
%LPD*%
%LPC*%
G36*
X-381595Y-18021D02*
X-381595Y-18021D01*
X-384543Y-16800D01*
X-386800Y-14543D01*
X-388021Y-11595D01*
X-388021Y-8405D01*
X-386800Y-5457D01*
X-384543Y-3200D01*
X-381595Y-1979D01*
X-378405Y-1979D01*
X-375457Y-3200D01*
X-373200Y-5457D01*
X-371979Y-8405D01*
X-371979Y-11595D01*
X-373200Y-14543D01*
X-375457Y-16800D01*
X-378405Y-18021D01*
X-381595Y-18021D01*
G37*
%LPD*%
%LPC*%
G36*
X378405Y121979D02*
X378405Y121979D01*
X375457Y123200D01*
X373200Y125457D01*
X371979Y128405D01*
X371979Y131595D01*
X373200Y134543D01*
X375457Y136800D01*
X378405Y138021D01*
X381595Y138021D01*
X384543Y136800D01*
X386800Y134543D01*
X388021Y131595D01*
X388021Y128405D01*
X386800Y125457D01*
X384543Y123200D01*
X381595Y121979D01*
X378405Y121979D01*
G37*
%LPD*%
%LPC*%
G36*
X-381595Y61979D02*
X-381595Y61979D01*
X-384543Y63200D01*
X-386800Y65457D01*
X-388021Y68405D01*
X-388021Y71595D01*
X-386800Y74543D01*
X-384543Y76800D01*
X-381595Y78021D01*
X-378405Y78021D01*
X-375457Y76800D01*
X-373200Y74543D01*
X-371979Y71595D01*
X-371979Y68405D01*
X-373200Y65457D01*
X-375457Y63200D01*
X-378405Y61979D01*
X-381595Y61979D01*
G37*
%LPD*%
%LPC*%
G36*
X378405Y101979D02*
X378405Y101979D01*
X375457Y103200D01*
X373200Y105457D01*
X371979Y108405D01*
X371979Y111595D01*
X373200Y114543D01*
X375457Y116800D01*
X378405Y118021D01*
X381595Y118021D01*
X384543Y116800D01*
X386800Y114543D01*
X388021Y111595D01*
X388021Y108405D01*
X386800Y105457D01*
X384543Y103200D01*
X381595Y101979D01*
X378405Y101979D01*
G37*
%LPD*%
%LPC*%
G36*
X378405Y201979D02*
X378405Y201979D01*
X375457Y203200D01*
X373200Y205457D01*
X371979Y208405D01*
X371979Y211595D01*
X373200Y214543D01*
X375457Y216800D01*
X378405Y218021D01*
X381595Y218021D01*
X384543Y216800D01*
X386800Y214543D01*
X388021Y211595D01*
X388021Y208405D01*
X386800Y205457D01*
X384543Y203200D01*
X381595Y201979D01*
X378405Y201979D01*
G37*
%LPD*%
%LPC*%
G36*
X13533Y196459D02*
X13533Y196459D01*
X11459Y198533D01*
X11459Y200583D01*
X11452Y200625D01*
X11454Y200667D01*
X11432Y200734D01*
X11420Y200804D01*
X11398Y200840D01*
X11385Y200881D01*
X11331Y200953D01*
X11305Y200997D01*
X11289Y201010D01*
X11273Y201031D01*
X8531Y203773D01*
X8497Y203798D01*
X8468Y203829D01*
X8405Y203861D01*
X8347Y203902D01*
X8306Y203912D01*
X8268Y203932D01*
X8179Y203945D01*
X8130Y203958D01*
X8109Y203955D01*
X8083Y203959D01*
X6033Y203959D01*
X3959Y206033D01*
X3959Y208967D01*
X6033Y211041D01*
X8967Y211041D01*
X11041Y208967D01*
X11041Y206917D01*
X11048Y206875D01*
X11046Y206833D01*
X11068Y206766D01*
X11080Y206696D01*
X11102Y206660D01*
X11115Y206619D01*
X11169Y206547D01*
X11195Y206503D01*
X11211Y206490D01*
X11227Y206469D01*
X13969Y203727D01*
X13999Y203705D01*
X14015Y203688D01*
X14017Y203687D01*
X14032Y203671D01*
X14095Y203639D01*
X14153Y203598D01*
X14194Y203588D01*
X14232Y203568D01*
X14321Y203555D01*
X14370Y203542D01*
X14391Y203545D01*
X14417Y203541D01*
X16467Y203541D01*
X18541Y201467D01*
X18541Y198533D01*
X16467Y196459D01*
X13533Y196459D01*
G37*
%LPD*%
%LPC*%
G36*
X-149009Y-111701D02*
X-149009Y-111701D01*
X-150805Y-111117D01*
X-152487Y-110260D01*
X-154015Y-109150D01*
X-155350Y-107815D01*
X-156460Y-106287D01*
X-157317Y-104605D01*
X-157901Y-102809D01*
X-158145Y-101269D01*
X-147469Y-101269D01*
X-147469Y-111945D01*
X-149009Y-111701D01*
G37*
%LPD*%
%LPC*%
G36*
X-158144Y-98731D02*
X-158144Y-98731D01*
X-157901Y-97191D01*
X-157317Y-95395D01*
X-156460Y-93713D01*
X-155350Y-92185D01*
X-154015Y-90850D01*
X-152487Y-89740D01*
X-150805Y-88883D01*
X-149009Y-88299D01*
X-147469Y-88055D01*
X-147469Y-98731D01*
X-158144Y-98731D01*
G37*
%LPD*%
%LPC*%
G36*
X-144931Y-101269D02*
X-144931Y-101269D01*
X-134255Y-101269D01*
X-134499Y-102809D01*
X-135083Y-104605D01*
X-135940Y-106287D01*
X-137050Y-107815D01*
X-138385Y-109150D01*
X-139913Y-110260D01*
X-141595Y-111117D01*
X-143391Y-111701D01*
X-144931Y-111944D01*
X-144931Y-101269D01*
G37*
%LPD*%
%LPC*%
G36*
X-144931Y-98731D02*
X-144931Y-98731D01*
X-144931Y-88056D01*
X-143391Y-88299D01*
X-141595Y-88883D01*
X-139913Y-89740D01*
X-138385Y-90850D01*
X-137050Y-92185D01*
X-135940Y-93713D01*
X-135083Y-95395D01*
X-134499Y-97191D01*
X-134256Y-98731D01*
X-144931Y-98731D01*
G37*
%LPD*%
%LPC*%
G36*
X1033Y43959D02*
X1033Y43959D01*
X-1041Y46033D01*
X-1041Y48325D01*
X-1052Y48390D01*
X-1054Y48456D01*
X-1072Y48499D01*
X-1080Y48546D01*
X-1114Y48603D01*
X-1139Y48663D01*
X-1170Y48698D01*
X-1195Y48739D01*
X-1246Y48781D01*
X-1290Y48829D01*
X-1332Y48851D01*
X-1369Y48880D01*
X-1431Y48901D01*
X-1490Y48932D01*
X-1544Y48940D01*
X-1581Y48952D01*
X-1621Y48951D01*
X-1675Y48959D01*
X-3967Y48959D01*
X-6041Y51033D01*
X-6041Y53967D01*
X-3967Y56041D01*
X-1033Y56041D01*
X1041Y53967D01*
X1041Y51675D01*
X1052Y51610D01*
X1054Y51544D01*
X1072Y51501D01*
X1080Y51454D01*
X1114Y51397D01*
X1139Y51337D01*
X1170Y51302D01*
X1195Y51261D01*
X1246Y51219D01*
X1290Y51171D01*
X1332Y51149D01*
X1369Y51120D01*
X1431Y51099D01*
X1490Y51068D01*
X1544Y51060D01*
X1581Y51048D01*
X1621Y51049D01*
X1675Y51041D01*
X3967Y51041D01*
X6041Y48967D01*
X6041Y46033D01*
X3967Y43959D01*
X1033Y43959D01*
G37*
%LPD*%
G36*
X335002Y147821D02*
X335002Y147821D01*
X335091Y147824D01*
X335113Y147833D01*
X335136Y147835D01*
X335216Y147875D01*
X335298Y147908D01*
X335316Y147924D01*
X335337Y147934D01*
X335398Y147999D01*
X335464Y148059D01*
X335475Y148080D01*
X335491Y148098D01*
X335526Y148180D01*
X335567Y148259D01*
X335570Y148285D01*
X335579Y148304D01*
X335581Y148355D01*
X335594Y148444D01*
X335594Y161556D01*
X335579Y161643D01*
X335569Y161732D01*
X335559Y161753D01*
X335555Y161777D01*
X335509Y161853D01*
X335470Y161933D01*
X335453Y161949D01*
X335440Y161970D01*
X335371Y162026D01*
X335307Y162087D01*
X335285Y162096D01*
X335266Y162111D01*
X335182Y162140D01*
X335100Y162174D01*
X335076Y162175D01*
X335054Y162183D01*
X334965Y162180D01*
X334876Y162184D01*
X334853Y162177D01*
X334829Y162176D01*
X334747Y162143D01*
X334662Y162116D01*
X334641Y162100D01*
X334622Y162092D01*
X334584Y162058D01*
X334512Y162004D01*
X333967Y161459D01*
X331917Y161459D01*
X331875Y161452D01*
X331833Y161454D01*
X331766Y161432D01*
X331696Y161420D01*
X331660Y161398D01*
X331619Y161385D01*
X331547Y161331D01*
X331503Y161305D01*
X331490Y161289D01*
X331469Y161273D01*
X329591Y159396D01*
X329567Y159362D01*
X329536Y159333D01*
X329504Y159270D01*
X329463Y159212D01*
X329453Y159171D01*
X329433Y159133D01*
X329420Y159044D01*
X329407Y158995D01*
X329410Y158974D01*
X329406Y158948D01*
X329406Y148444D01*
X329421Y148357D01*
X329431Y148268D01*
X329441Y148247D01*
X329445Y148223D01*
X329491Y148147D01*
X329530Y148067D01*
X329547Y148051D01*
X329560Y148030D01*
X329629Y147974D01*
X329693Y147913D01*
X329715Y147904D01*
X329734Y147889D01*
X329818Y147860D01*
X329900Y147826D01*
X329924Y147825D01*
X329946Y147817D01*
X330035Y147820D01*
X330124Y147816D01*
X330147Y147823D01*
X330171Y147824D01*
X330253Y147857D01*
X330338Y147884D01*
X330359Y147900D01*
X330378Y147908D01*
X330416Y147942D01*
X330488Y147996D01*
X331033Y148541D01*
X333967Y148541D01*
X334512Y147996D01*
X334585Y147945D01*
X334654Y147889D01*
X334676Y147881D01*
X334696Y147868D01*
X334782Y147846D01*
X334866Y147817D01*
X334890Y147818D01*
X334913Y147812D01*
X335002Y147821D01*
G37*
%LPC*%
G36*
X-311842Y-34286D02*
X-311842Y-34286D01*
X-314446Y-31682D01*
X-314446Y-27999D01*
X-311842Y-25395D01*
X-308158Y-25395D01*
X-305554Y-27999D01*
X-305554Y-31682D01*
X-308158Y-34286D01*
X-311842Y-34286D01*
G37*
%LPD*%
%LPC*%
G36*
X-337397Y-194446D02*
X-337397Y-194446D01*
X-340001Y-191842D01*
X-340001Y-188158D01*
X-337397Y-185554D01*
X-333713Y-185554D01*
X-331109Y-188158D01*
X-331109Y-191842D01*
X-333713Y-194446D01*
X-337397Y-194446D01*
G37*
%LPD*%
%LPC*%
G36*
X-314787Y-227196D02*
X-314787Y-227196D01*
X-317391Y-224592D01*
X-317391Y-220908D01*
X-314787Y-218304D01*
X-311103Y-218304D01*
X-308499Y-220908D01*
X-308499Y-224592D01*
X-311103Y-227196D01*
X-314787Y-227196D01*
G37*
%LPD*%
%LPC*%
G36*
X-231842Y134109D02*
X-231842Y134109D01*
X-234446Y136713D01*
X-234446Y140397D01*
X-231842Y143001D01*
X-228158Y143001D01*
X-225554Y140397D01*
X-225554Y136713D01*
X-228158Y134109D01*
X-231842Y134109D01*
G37*
%LPD*%
%LPC*%
G36*
X-386287Y-169446D02*
X-386287Y-169446D01*
X-388891Y-166842D01*
X-388891Y-163158D01*
X-386287Y-160554D01*
X-382603Y-160554D01*
X-379999Y-163158D01*
X-379999Y-166842D01*
X-382603Y-169446D01*
X-386287Y-169446D01*
G37*
%LPD*%
%LPC*%
G36*
X286158Y244359D02*
X286158Y244359D01*
X283554Y246963D01*
X283554Y250647D01*
X286158Y253251D01*
X289842Y253251D01*
X292446Y250647D01*
X292446Y246963D01*
X289842Y244359D01*
X286158Y244359D01*
G37*
%LPD*%
%LPC*%
G36*
X381269Y-19291D02*
X381269Y-19291D01*
X381269Y-11269D01*
X389291Y-11269D01*
X389291Y-17085D01*
X389118Y-17731D01*
X388783Y-18310D01*
X388310Y-18783D01*
X387731Y-19118D01*
X387085Y-19291D01*
X381269Y-19291D01*
G37*
%LPD*%
%LPC*%
G36*
X-389291Y211269D02*
X-389291Y211269D01*
X-389291Y217085D01*
X-389118Y217731D01*
X-388783Y218310D01*
X-388310Y218783D01*
X-387731Y219118D01*
X-387085Y219291D01*
X-381269Y219291D01*
X-381269Y211269D01*
X-389291Y211269D01*
G37*
%LPD*%
%LPC*%
G36*
X-387085Y200709D02*
X-387085Y200709D01*
X-387731Y200882D01*
X-388310Y201217D01*
X-388783Y201690D01*
X-389118Y202269D01*
X-389291Y202915D01*
X-389291Y208731D01*
X-381269Y208731D01*
X-381269Y200709D01*
X-387085Y200709D01*
G37*
%LPD*%
%LPC*%
G36*
X381269Y-8731D02*
X381269Y-8731D01*
X381269Y-709D01*
X387085Y-709D01*
X387731Y-882D01*
X388310Y-1217D01*
X388783Y-1690D01*
X389118Y-2269D01*
X389291Y-2915D01*
X389291Y-8731D01*
X381269Y-8731D01*
G37*
%LPD*%
%LPC*%
G36*
X-378731Y211269D02*
X-378731Y211269D01*
X-378731Y219291D01*
X-372915Y219291D01*
X-372269Y219118D01*
X-371690Y218783D01*
X-371217Y218310D01*
X-370882Y217731D01*
X-370709Y217085D01*
X-370709Y211269D01*
X-378731Y211269D01*
G37*
%LPD*%
%LPC*%
G36*
X372915Y-19291D02*
X372915Y-19291D01*
X372269Y-19118D01*
X371690Y-18783D01*
X371217Y-18310D01*
X370882Y-17731D01*
X370709Y-17085D01*
X370709Y-11269D01*
X378731Y-11269D01*
X378731Y-19291D01*
X372915Y-19291D01*
G37*
%LPD*%
%LPC*%
G36*
X-378731Y200709D02*
X-378731Y200709D01*
X-378731Y208731D01*
X-370709Y208731D01*
X-370709Y202915D01*
X-370882Y202269D01*
X-371217Y201690D01*
X-371690Y201217D01*
X-372269Y200882D01*
X-372915Y200709D01*
X-378731Y200709D01*
G37*
%LPD*%
%LPC*%
G36*
X370709Y-8731D02*
X370709Y-8731D01*
X370709Y-2915D01*
X370882Y-2269D01*
X371217Y-1690D01*
X371690Y-1217D01*
X372269Y-882D01*
X372915Y-709D01*
X378731Y-709D01*
X378731Y-8731D01*
X370709Y-8731D01*
G37*
%LPD*%
G36*
X182502Y78009D02*
X182502Y78009D01*
X182591Y78011D01*
X182613Y78020D01*
X182636Y78023D01*
X182716Y78062D01*
X182798Y78096D01*
X182816Y78112D01*
X182837Y78122D01*
X182898Y78187D01*
X182964Y78247D01*
X182975Y78268D01*
X182991Y78285D01*
X183026Y78367D01*
X183067Y78447D01*
X183070Y78473D01*
X183079Y78492D01*
X183081Y78542D01*
X183094Y78632D01*
X183094Y86448D01*
X183087Y86490D01*
X183089Y86532D01*
X183067Y86599D01*
X183055Y86669D01*
X183033Y86705D01*
X183020Y86746D01*
X182966Y86818D01*
X182940Y86862D01*
X182924Y86875D01*
X182908Y86896D01*
X177988Y91816D01*
X177915Y91867D01*
X177846Y91923D01*
X177824Y91931D01*
X177804Y91945D01*
X177718Y91967D01*
X177634Y91995D01*
X177610Y91995D01*
X177587Y92000D01*
X177498Y91991D01*
X177409Y91989D01*
X177387Y91980D01*
X177364Y91977D01*
X177284Y91938D01*
X177202Y91904D01*
X177184Y91888D01*
X177163Y91878D01*
X177102Y91813D01*
X177036Y91753D01*
X177025Y91732D01*
X177009Y91715D01*
X176974Y91633D01*
X176933Y91553D01*
X176930Y91527D01*
X176921Y91508D01*
X176919Y91458D01*
X176906Y91368D01*
X176906Y86711D01*
X175644Y85448D01*
X175606Y85394D01*
X175561Y85347D01*
X175542Y85303D01*
X175516Y85264D01*
X175499Y85201D01*
X175473Y85140D01*
X175471Y85093D01*
X175460Y85047D01*
X175466Y84982D01*
X175463Y84916D01*
X175478Y84871D01*
X175483Y84824D01*
X175512Y84765D01*
X175532Y84702D01*
X175565Y84658D01*
X175582Y84623D01*
X175611Y84596D01*
X175644Y84552D01*
X182012Y78184D01*
X182085Y78133D01*
X182154Y78077D01*
X182176Y78069D01*
X182196Y78055D01*
X182282Y78033D01*
X182366Y78005D01*
X182390Y78005D01*
X182413Y78000D01*
X182502Y78009D01*
G37*
%LPC*%
G36*
X-1777Y-4291D02*
X-1777Y-4291D01*
X-4291Y-1777D01*
X-4291Y1777D01*
X-1777Y4291D01*
X1777Y4291D01*
X4291Y1777D01*
X4291Y-1777D01*
X1777Y-4291D01*
X-1777Y-4291D01*
G37*
%LPD*%
%LPC*%
G36*
X381269Y51269D02*
X381269Y51269D01*
X381269Y59220D01*
X382710Y58934D01*
X384401Y58233D01*
X385923Y57217D01*
X387217Y55923D01*
X388233Y54401D01*
X388934Y52710D01*
X389220Y51269D01*
X381269Y51269D01*
G37*
%LPD*%
%LPC*%
G36*
X-389220Y151269D02*
X-389220Y151269D01*
X-388934Y152710D01*
X-388233Y154401D01*
X-387217Y155923D01*
X-385923Y157217D01*
X-384401Y158233D01*
X-382710Y158934D01*
X-381269Y159220D01*
X-381269Y151269D01*
X-389220Y151269D01*
G37*
%LPD*%
%LPC*%
G36*
X-378731Y151269D02*
X-378731Y151269D01*
X-378731Y159220D01*
X-377290Y158934D01*
X-375599Y158233D01*
X-374077Y157217D01*
X-372783Y155923D01*
X-371767Y154401D01*
X-371066Y152710D01*
X-370780Y151269D01*
X-378731Y151269D01*
G37*
%LPD*%
%LPC*%
G36*
X370780Y51269D02*
X370780Y51269D01*
X371066Y52710D01*
X371767Y54401D01*
X372783Y55923D01*
X374077Y57217D01*
X375599Y58233D01*
X377290Y58934D01*
X378731Y59220D01*
X378731Y51269D01*
X370780Y51269D01*
G37*
%LPD*%
%LPC*%
G36*
X381269Y48731D02*
X381269Y48731D01*
X389220Y48731D01*
X388934Y47290D01*
X388233Y45599D01*
X387217Y44077D01*
X385923Y42783D01*
X384401Y41767D01*
X382710Y41066D01*
X381269Y40780D01*
X381269Y48731D01*
G37*
%LPD*%
%LPC*%
G36*
X-382710Y141066D02*
X-382710Y141066D01*
X-384401Y141767D01*
X-385923Y142783D01*
X-387217Y144077D01*
X-388233Y145599D01*
X-388934Y147290D01*
X-389220Y148731D01*
X-381269Y148731D01*
X-381269Y140780D01*
X-382710Y141066D01*
G37*
%LPD*%
%LPC*%
G36*
X377290Y41066D02*
X377290Y41066D01*
X375599Y41767D01*
X374077Y42783D01*
X372783Y44077D01*
X371767Y45599D01*
X371066Y47290D01*
X370780Y48731D01*
X378731Y48731D01*
X378731Y40780D01*
X377290Y41066D01*
G37*
%LPD*%
%LPC*%
G36*
X-378731Y148731D02*
X-378731Y148731D01*
X-370780Y148731D01*
X-371066Y147290D01*
X-371767Y145599D01*
X-372783Y144077D01*
X-374077Y142783D01*
X-375599Y141767D01*
X-377290Y141066D01*
X-378731Y140780D01*
X-378731Y148731D01*
G37*
%LPD*%
%LPC*%
G36*
X7384Y166459D02*
X7384Y166459D01*
X5310Y168533D01*
X5310Y171467D01*
X7384Y173541D01*
X10317Y173541D01*
X12391Y171467D01*
X12391Y168533D01*
X10317Y166459D01*
X7384Y166459D01*
G37*
%LPD*%
%LPC*%
G36*
X-42611Y43959D02*
X-42611Y43959D01*
X-44685Y46033D01*
X-44685Y48967D01*
X-42611Y51041D01*
X-39678Y51041D01*
X-37603Y48967D01*
X-37603Y46033D01*
X-39678Y43959D01*
X-42611Y43959D01*
G37*
%LPD*%
%LPC*%
G36*
X-35153Y48959D02*
X-35153Y48959D01*
X-37227Y51033D01*
X-37227Y53967D01*
X-35153Y56041D01*
X-32219Y56041D01*
X-30145Y53967D01*
X-30145Y51033D01*
X-32219Y48959D01*
X-35153Y48959D01*
G37*
%LPD*%
%LPC*%
G36*
X-11467Y78959D02*
X-11467Y78959D01*
X-13541Y81033D01*
X-13541Y83967D01*
X-11467Y86041D01*
X-8533Y86041D01*
X-6459Y83967D01*
X-6459Y81033D01*
X-8533Y78959D01*
X-11467Y78959D01*
G37*
%LPD*%
%LPC*%
G36*
X-82611Y83959D02*
X-82611Y83959D01*
X-84685Y86033D01*
X-84685Y88967D01*
X-82611Y91041D01*
X-79678Y91041D01*
X-77603Y88967D01*
X-77603Y86033D01*
X-79678Y83959D01*
X-82611Y83959D01*
G37*
%LPD*%
%LPC*%
G36*
X293533Y83959D02*
X293533Y83959D01*
X291459Y86033D01*
X291459Y88967D01*
X293533Y91041D01*
X296467Y91041D01*
X298541Y88967D01*
X298541Y86033D01*
X296467Y83959D01*
X293533Y83959D01*
G37*
%LPD*%
%LPC*%
G36*
X-75153Y88959D02*
X-75153Y88959D01*
X-77227Y91033D01*
X-77227Y93967D01*
X-75153Y96041D01*
X-72219Y96041D01*
X-70145Y93967D01*
X-70145Y91033D01*
X-72219Y88959D01*
X-75153Y88959D01*
G37*
%LPD*%
%LPC*%
G36*
X154073Y-278541D02*
X154073Y-278541D01*
X151999Y-276467D01*
X151999Y-273533D01*
X154073Y-271459D01*
X157007Y-271459D01*
X159081Y-273533D01*
X159081Y-276467D01*
X157007Y-278541D01*
X154073Y-278541D01*
G37*
%LPD*%
%LPC*%
G36*
X293533Y96459D02*
X293533Y96459D01*
X291459Y98533D01*
X291459Y101467D01*
X293533Y103541D01*
X296467Y103541D01*
X298541Y101467D01*
X298541Y98533D01*
X296467Y96459D01*
X293533Y96459D01*
G37*
%LPD*%
%LPC*%
G36*
X81033Y103999D02*
X81033Y103999D01*
X78959Y106073D01*
X78959Y109007D01*
X81033Y111081D01*
X83967Y111081D01*
X86041Y109007D01*
X86041Y106073D01*
X83967Y103999D01*
X81033Y103999D01*
G37*
%LPD*%
%LPC*%
G36*
X7384Y106459D02*
X7384Y106459D01*
X5310Y108533D01*
X5310Y111467D01*
X7384Y113541D01*
X10317Y113541D01*
X12391Y111467D01*
X12391Y108533D01*
X10317Y106459D01*
X7384Y106459D01*
G37*
%LPD*%
%LPC*%
G36*
X-35153Y-11041D02*
X-35153Y-11041D01*
X-37227Y-8967D01*
X-37227Y-6033D01*
X-35153Y-3959D01*
X-32219Y-3959D01*
X-30145Y-6033D01*
X-30145Y-8967D01*
X-32219Y-11041D01*
X-35153Y-11041D01*
G37*
%LPD*%
%LPC*%
G36*
X333533Y112609D02*
X333533Y112609D01*
X331459Y114683D01*
X331459Y117616D01*
X333533Y119690D01*
X336467Y119690D01*
X338541Y117616D01*
X338541Y114683D01*
X336467Y112609D01*
X333533Y112609D01*
G37*
%LPD*%
%LPC*%
G36*
X202993Y-278541D02*
X202993Y-278541D01*
X200919Y-276467D01*
X200919Y-273533D01*
X202993Y-271459D01*
X205927Y-271459D01*
X208001Y-273533D01*
X208001Y-276467D01*
X205927Y-278541D01*
X202993Y-278541D01*
G37*
%LPD*%
%LPC*%
G36*
X108533Y118959D02*
X108533Y118959D01*
X106459Y121033D01*
X106459Y123967D01*
X108533Y126041D01*
X111467Y126041D01*
X113541Y123967D01*
X113541Y121033D01*
X111467Y118959D01*
X108533Y118959D01*
G37*
%LPD*%
%LPC*%
G36*
X-246467Y77609D02*
X-246467Y77609D01*
X-248541Y79683D01*
X-248541Y82616D01*
X-246467Y84690D01*
X-243533Y84690D01*
X-241459Y82616D01*
X-241459Y79683D01*
X-243533Y77609D01*
X-246467Y77609D01*
G37*
%LPD*%
%LPC*%
G36*
X106073Y-29416D02*
X106073Y-29416D01*
X103999Y-27342D01*
X103999Y-24408D01*
X106073Y-22334D01*
X109007Y-22334D01*
X111081Y-24408D01*
X111081Y-27342D01*
X109007Y-29416D01*
X106073Y-29416D01*
G37*
%LPD*%
%LPC*%
G36*
X-316467Y77609D02*
X-316467Y77609D01*
X-318541Y79683D01*
X-318541Y82616D01*
X-316467Y84690D01*
X-313533Y84690D01*
X-311459Y82616D01*
X-311459Y79683D01*
X-313533Y77609D01*
X-316467Y77609D01*
G37*
%LPD*%
%LPC*%
G36*
X311533Y270169D02*
X311533Y270169D01*
X309459Y272243D01*
X309459Y275177D01*
X311533Y277251D01*
X314467Y277251D01*
X316541Y275177D01*
X316541Y272243D01*
X314467Y270169D01*
X311533Y270169D01*
G37*
%LPD*%
%LPC*%
G36*
X257498Y147209D02*
X257498Y147209D01*
X255424Y149283D01*
X255424Y152217D01*
X257498Y154291D01*
X260432Y154291D01*
X262506Y152217D01*
X262506Y149283D01*
X260432Y147209D01*
X257498Y147209D01*
G37*
%LPD*%
%LPC*%
G36*
X-107927Y-55291D02*
X-107927Y-55291D01*
X-110001Y-53217D01*
X-110001Y-50283D01*
X-107927Y-48209D01*
X-104993Y-48209D01*
X-102919Y-50283D01*
X-102919Y-53217D01*
X-104993Y-55291D01*
X-107927Y-55291D01*
G37*
%LPD*%
%LPC*%
G36*
X104993Y-55291D02*
X104993Y-55291D01*
X102919Y-53217D01*
X102919Y-50283D01*
X104993Y-48209D01*
X107927Y-48209D01*
X110001Y-50283D01*
X110001Y-53217D01*
X107927Y-55291D01*
X104993Y-55291D01*
G37*
%LPD*%
%LPC*%
G36*
X-181467Y-66041D02*
X-181467Y-66041D01*
X-183541Y-63967D01*
X-183541Y-61033D01*
X-181467Y-58959D01*
X-178533Y-58959D01*
X-176459Y-61033D01*
X-176459Y-63967D01*
X-178533Y-66041D01*
X-181467Y-66041D01*
G37*
%LPD*%
%LPC*%
G36*
X-107927Y58209D02*
X-107927Y58209D01*
X-110001Y60283D01*
X-110001Y63217D01*
X-107927Y65291D01*
X-104993Y65291D01*
X-102919Y63217D01*
X-102919Y60283D01*
X-104993Y58209D01*
X-107927Y58209D01*
G37*
%LPD*%
%LPC*%
G36*
X104993Y58209D02*
X104993Y58209D01*
X102919Y60283D01*
X102919Y63217D01*
X104993Y65291D01*
X107927Y65291D01*
X110001Y63217D01*
X110001Y60283D01*
X107927Y58209D01*
X104993Y58209D01*
G37*
%LPD*%
%LPC*%
G36*
X223533Y152609D02*
X223533Y152609D01*
X221459Y154683D01*
X221459Y157616D01*
X223533Y159690D01*
X226467Y159690D01*
X228541Y157616D01*
X228541Y154683D01*
X226467Y152609D01*
X223533Y152609D01*
G37*
%LPD*%
%LPC*%
G36*
X263693Y153709D02*
X263693Y153709D01*
X261619Y155783D01*
X261619Y158717D01*
X263693Y160791D01*
X266626Y160791D01*
X268700Y158717D01*
X268700Y155783D01*
X266626Y153709D01*
X263693Y153709D01*
G37*
%LPD*%
%LPC*%
G36*
X81033Y161459D02*
X81033Y161459D01*
X78959Y163533D01*
X78959Y166467D01*
X81033Y168541D01*
X83967Y168541D01*
X86041Y166467D01*
X86041Y163533D01*
X83967Y161459D01*
X81033Y161459D01*
G37*
%LPD*%
%LPC*%
G36*
X236033Y163959D02*
X236033Y163959D01*
X233959Y166033D01*
X233959Y168967D01*
X236033Y171041D01*
X238967Y171041D01*
X241041Y168967D01*
X241041Y166033D01*
X238967Y163959D01*
X236033Y163959D01*
G37*
%LPD*%
%LPC*%
G36*
X71073Y163959D02*
X71073Y163959D01*
X68999Y166033D01*
X68999Y168967D01*
X71073Y171041D01*
X74007Y171041D01*
X76081Y168967D01*
X76081Y166033D01*
X74007Y163959D01*
X71073Y163959D01*
G37*
%LPD*%
%LPC*%
G36*
X223533Y232609D02*
X223533Y232609D01*
X221459Y234683D01*
X221459Y237616D01*
X223533Y239690D01*
X226467Y239690D01*
X228541Y237616D01*
X228541Y234683D01*
X226467Y232609D01*
X223533Y232609D01*
G37*
%LPD*%
%LPC*%
G36*
X258533Y168959D02*
X258533Y168959D01*
X256459Y171033D01*
X256459Y173967D01*
X258533Y176041D01*
X261467Y176041D01*
X263541Y173967D01*
X263541Y171033D01*
X261467Y168959D01*
X258533Y168959D01*
G37*
%LPD*%
%LPC*%
G36*
X86033Y171459D02*
X86033Y171459D01*
X83959Y173533D01*
X83959Y176467D01*
X86033Y178541D01*
X88967Y178541D01*
X91041Y176467D01*
X91041Y173533D01*
X88967Y171459D01*
X86033Y171459D01*
G37*
%LPD*%
%LPC*%
G36*
X-289427Y-240791D02*
X-289427Y-240791D01*
X-291501Y-238717D01*
X-291501Y-235783D01*
X-289427Y-233709D01*
X-286493Y-233709D01*
X-284419Y-235783D01*
X-284419Y-238717D01*
X-286493Y-240791D01*
X-289427Y-240791D01*
G37*
%LPD*%
%LPC*%
G36*
X309568Y173209D02*
X309568Y173209D01*
X307494Y175283D01*
X307494Y178217D01*
X309568Y180291D01*
X312502Y180291D01*
X314576Y178217D01*
X314576Y175283D01*
X312502Y173209D01*
X309568Y173209D01*
G37*
%LPD*%
%LPC*%
G36*
X38533Y176459D02*
X38533Y176459D01*
X36459Y178533D01*
X36459Y181467D01*
X38533Y183541D01*
X41467Y183541D01*
X43541Y181467D01*
X43541Y178533D01*
X41467Y176459D01*
X38533Y176459D01*
G37*
%LPD*%
%LPC*%
G36*
X-21067Y177569D02*
X-21067Y177569D01*
X-23141Y179643D01*
X-23141Y182577D01*
X-21067Y184651D01*
X-18133Y184651D01*
X-16059Y182577D01*
X-16059Y179643D01*
X-18133Y177569D01*
X-21067Y177569D01*
G37*
%LPD*%
%LPC*%
G36*
X-107007Y-138541D02*
X-107007Y-138541D01*
X-109081Y-136467D01*
X-109081Y-133533D01*
X-107007Y-131459D01*
X-104073Y-131459D01*
X-101999Y-133533D01*
X-101999Y-136467D01*
X-104073Y-138541D01*
X-107007Y-138541D01*
G37*
%LPD*%
%LPC*%
G36*
X-155927Y-138541D02*
X-155927Y-138541D01*
X-158001Y-136467D01*
X-158001Y-133533D01*
X-155927Y-131459D01*
X-152993Y-131459D01*
X-150919Y-133533D01*
X-150919Y-136467D01*
X-152993Y-138541D01*
X-155927Y-138541D01*
G37*
%LPD*%
%LPC*%
G36*
X154073Y-138541D02*
X154073Y-138541D01*
X151999Y-136467D01*
X151999Y-133533D01*
X154073Y-131459D01*
X157007Y-131459D01*
X159081Y-133533D01*
X159081Y-136467D01*
X157007Y-138541D01*
X154073Y-138541D01*
G37*
%LPD*%
%LPC*%
G36*
X202993Y-138541D02*
X202993Y-138541D01*
X200919Y-136467D01*
X200919Y-133533D01*
X202993Y-131459D01*
X205927Y-131459D01*
X208001Y-133533D01*
X208001Y-136467D01*
X205927Y-138541D01*
X202993Y-138541D01*
G37*
%LPD*%
%LPC*%
G36*
X231033Y-143541D02*
X231033Y-143541D01*
X228959Y-141467D01*
X228959Y-138533D01*
X231033Y-136459D01*
X233967Y-136459D01*
X236041Y-138533D01*
X236041Y-141467D01*
X233967Y-143541D01*
X231033Y-143541D01*
G37*
%LPD*%
%LPC*%
G36*
X313533Y-156041D02*
X313533Y-156041D01*
X311459Y-153967D01*
X311459Y-151033D01*
X313533Y-148959D01*
X316467Y-148959D01*
X318541Y-151033D01*
X318541Y-153967D01*
X316467Y-156041D01*
X313533Y-156041D01*
G37*
%LPD*%
%LPC*%
G36*
X-228007Y-157541D02*
X-228007Y-157541D01*
X-230081Y-155467D01*
X-230081Y-152533D01*
X-228007Y-150459D01*
X-225073Y-150459D01*
X-222999Y-152533D01*
X-222999Y-155467D01*
X-225073Y-157541D01*
X-228007Y-157541D01*
G37*
%LPD*%
%LPC*%
G36*
X111993Y-157541D02*
X111993Y-157541D01*
X109919Y-155467D01*
X109919Y-152533D01*
X111993Y-150459D01*
X114927Y-150459D01*
X117001Y-152533D01*
X117001Y-155467D01*
X114927Y-157541D01*
X111993Y-157541D01*
G37*
%LPD*%
%LPC*%
G36*
X251993Y-157541D02*
X251993Y-157541D01*
X249919Y-155467D01*
X249919Y-152533D01*
X251993Y-150459D01*
X254927Y-150459D01*
X257001Y-152533D01*
X257001Y-155467D01*
X254927Y-157541D01*
X251993Y-157541D01*
G37*
%LPD*%
%LPC*%
G36*
X257498Y179709D02*
X257498Y179709D01*
X255424Y181783D01*
X255424Y184717D01*
X257498Y186791D01*
X260432Y186791D01*
X262506Y184717D01*
X262506Y181783D01*
X260432Y179709D01*
X257498Y179709D01*
G37*
%LPD*%
%LPC*%
G36*
X298533Y-173541D02*
X298533Y-173541D01*
X296459Y-171467D01*
X296459Y-168533D01*
X298533Y-166459D01*
X301467Y-166459D01*
X303541Y-168533D01*
X303541Y-171467D01*
X301467Y-173541D01*
X298533Y-173541D01*
G37*
%LPD*%
%LPC*%
G36*
X209683Y191459D02*
X209683Y191459D01*
X207609Y193533D01*
X207609Y196467D01*
X209683Y198541D01*
X212616Y198541D01*
X214690Y196467D01*
X214690Y193533D01*
X212616Y191459D01*
X209683Y191459D01*
G37*
%LPD*%
%LPC*%
G36*
X-343607Y198399D02*
X-343607Y198399D01*
X-345681Y200473D01*
X-345681Y203407D01*
X-343607Y205481D01*
X-340673Y205481D01*
X-338599Y203407D01*
X-338599Y200473D01*
X-340673Y198399D01*
X-343607Y198399D01*
G37*
%LPD*%
%LPC*%
G36*
X308533Y-191041D02*
X308533Y-191041D01*
X306459Y-188967D01*
X306459Y-186033D01*
X308533Y-183959D01*
X311467Y-183959D01*
X313541Y-186033D01*
X313541Y-188967D01*
X311467Y-191041D01*
X308533Y-191041D01*
G37*
%LPD*%
%LPC*%
G36*
X257498Y199209D02*
X257498Y199209D01*
X255424Y201283D01*
X255424Y204217D01*
X257498Y206291D01*
X260432Y206291D01*
X262506Y204217D01*
X262506Y201283D01*
X260432Y199209D01*
X257498Y199209D01*
G37*
%LPD*%
%LPC*%
G36*
X154073Y-208541D02*
X154073Y-208541D01*
X151999Y-206467D01*
X151999Y-203533D01*
X154073Y-201459D01*
X157007Y-201459D01*
X159081Y-203533D01*
X159081Y-206467D01*
X157007Y-208541D01*
X154073Y-208541D01*
G37*
%LPD*%
%LPC*%
G36*
X202993Y-208541D02*
X202993Y-208541D01*
X200919Y-206467D01*
X200919Y-203533D01*
X202993Y-201459D01*
X205927Y-201459D01*
X208001Y-203533D01*
X208001Y-206467D01*
X205927Y-208541D01*
X202993Y-208541D01*
G37*
%LPD*%
%LPC*%
G36*
X363073Y-218541D02*
X363073Y-218541D01*
X360999Y-216467D01*
X360999Y-213533D01*
X363073Y-211459D01*
X366007Y-211459D01*
X368081Y-213533D01*
X368081Y-216467D01*
X366007Y-218541D01*
X363073Y-218541D01*
G37*
%LPD*%
%LPC*%
G36*
X153533Y-238541D02*
X153533Y-238541D01*
X151459Y-236467D01*
X151459Y-233533D01*
X153533Y-231459D01*
X156467Y-231459D01*
X158541Y-233533D01*
X158541Y-236467D01*
X156467Y-238541D01*
X153533Y-238541D01*
G37*
%LPD*%
%LPC*%
G36*
X-107007Y-228541D02*
X-107007Y-228541D01*
X-109081Y-226467D01*
X-109081Y-223533D01*
X-107007Y-221459D01*
X-104073Y-221459D01*
X-101999Y-223533D01*
X-101999Y-226467D01*
X-104073Y-228541D01*
X-107007Y-228541D01*
G37*
%LPD*%
%LPC*%
G36*
X-155927Y-228541D02*
X-155927Y-228541D01*
X-158001Y-226467D01*
X-158001Y-223533D01*
X-155927Y-221459D01*
X-152993Y-221459D01*
X-150919Y-223533D01*
X-150919Y-226467D01*
X-152993Y-228541D01*
X-155927Y-228541D01*
G37*
%LPD*%
%LPC*%
G36*
X251993Y-229541D02*
X251993Y-229541D01*
X249919Y-227467D01*
X249919Y-224533D01*
X251993Y-222459D01*
X254927Y-222459D01*
X257001Y-224533D01*
X257001Y-227467D01*
X254927Y-229541D01*
X251993Y-229541D01*
G37*
%LPD*%
%LPC*%
G36*
X111993Y-229541D02*
X111993Y-229541D01*
X109919Y-227467D01*
X109919Y-224533D01*
X111993Y-222459D01*
X114927Y-222459D01*
X117001Y-224533D01*
X117001Y-227467D01*
X114927Y-229541D01*
X111993Y-229541D01*
G37*
%LPD*%
%LPC*%
G36*
X-228007Y-229541D02*
X-228007Y-229541D01*
X-230081Y-227467D01*
X-230081Y-224533D01*
X-228007Y-222459D01*
X-225073Y-222459D01*
X-222999Y-224533D01*
X-222999Y-227467D01*
X-225073Y-229541D01*
X-228007Y-229541D01*
G37*
%LPD*%
%LPC*%
G36*
X318533Y-233541D02*
X318533Y-233541D01*
X316459Y-231467D01*
X316459Y-228533D01*
X318533Y-226459D01*
X321467Y-226459D01*
X323541Y-228533D01*
X323541Y-231467D01*
X321467Y-233541D01*
X318533Y-233541D01*
G37*
%LPD*%
%LPC*%
G36*
X-109007Y-4666D02*
X-109007Y-4666D01*
X-111081Y-2592D01*
X-111081Y342D01*
X-109007Y2416D01*
X-106073Y2416D01*
X-103999Y342D01*
X-103999Y-2592D01*
X-106073Y-4666D01*
X-109007Y-4666D01*
G37*
%LPD*%
%LPC*%
G36*
X-380001Y209999D02*
X-380001Y209999D01*
X-380001Y210001D01*
X-379999Y210001D01*
X-379999Y209999D01*
X-380001Y209999D01*
G37*
%LPD*%
%LPC*%
G36*
X-146201Y-100001D02*
X-146201Y-100001D01*
X-146201Y-99999D01*
X-146199Y-99999D01*
X-146199Y-100001D01*
X-146201Y-100001D01*
G37*
%LPD*%
%LPC*%
G36*
X379999Y49999D02*
X379999Y49999D01*
X379999Y50001D01*
X380001Y50001D01*
X380001Y49999D01*
X379999Y49999D01*
G37*
%LPD*%
%LPC*%
G36*
X-380001Y149999D02*
X-380001Y149999D01*
X-380001Y150001D01*
X-379999Y150001D01*
X-379999Y149999D01*
X-380001Y149999D01*
G37*
%LPD*%
%LPC*%
G36*
X379999Y-10001D02*
X379999Y-10001D01*
X379999Y-9999D01*
X380001Y-9999D01*
X380001Y-10001D01*
X379999Y-10001D01*
G37*
%LPD*%
D10*
X-310000Y85000D03*
X-310000Y95000D03*
X-250000Y85000D03*
X-250000Y45000D03*
X-320000Y45000D03*
X-280000Y45000D03*
X-290000Y85000D03*
X-330000Y85000D03*
X-300000Y85000D03*
X-320000Y95000D03*
X-320000Y85000D03*
X-250000Y95000D03*
X-240000Y85000D03*
X-230000Y85000D03*
X-270000Y85000D03*
X-260000Y95000D03*
X-260000Y85000D03*
X-310000Y45000D03*
X-265000Y45000D03*
X-290000Y45000D03*
X-300000Y45000D03*
X-275000Y45000D03*
D11*
X-380000Y210000D03*
D12*
X-380000Y30000D03*
X-380000Y10000D03*
X-380000Y-10000D03*
X-380000Y170000D03*
X-380000Y150000D03*
X-380000Y110000D03*
X-380000Y90000D03*
X-380000Y70000D03*
X-380000Y50000D03*
X-380000Y130000D03*
X-380000Y190000D03*
D11*
X380000Y-10000D03*
D12*
X380000Y170000D03*
X380000Y190000D03*
X380000Y210000D03*
X380000Y30000D03*
X380000Y50000D03*
X380000Y90000D03*
X380000Y110000D03*
X380000Y130000D03*
X380000Y150000D03*
X380000Y70000D03*
X380000Y10000D03*
D13*
X-79468Y-588007D02*
X-83983Y-588007D01*
X-79468Y-588006D02*
X-79335Y-588008D01*
X-79203Y-588014D01*
X-79071Y-588024D01*
X-78939Y-588037D01*
X-78807Y-588055D01*
X-78677Y-588076D01*
X-78546Y-588101D01*
X-78417Y-588130D01*
X-78289Y-588163D01*
X-78161Y-588199D01*
X-78035Y-588239D01*
X-77910Y-588283D01*
X-77786Y-588331D01*
X-77664Y-588382D01*
X-77543Y-588437D01*
X-77424Y-588495D01*
X-77306Y-588557D01*
X-77191Y-588622D01*
X-77077Y-588691D01*
X-76966Y-588762D01*
X-76857Y-588838D01*
X-76750Y-588916D01*
X-76645Y-588997D01*
X-76543Y-589082D01*
X-76443Y-589169D01*
X-76346Y-589259D01*
X-76251Y-589352D01*
X-76160Y-589448D01*
X-76071Y-589546D01*
X-75985Y-589647D01*
X-75902Y-589751D01*
X-75822Y-589857D01*
X-75746Y-589965D01*
X-75672Y-590075D01*
X-75602Y-590188D01*
X-75535Y-590302D01*
X-75472Y-590419D01*
X-75412Y-590537D01*
X-75355Y-590657D01*
X-75302Y-590779D01*
X-75253Y-590902D01*
X-75207Y-591026D01*
X-75165Y-591152D01*
X-75127Y-591279D01*
X-75092Y-591407D01*
X-75061Y-591536D01*
X-75034Y-591665D01*
X-75011Y-591796D01*
X-74991Y-591927D01*
X-74976Y-592059D01*
X-74964Y-592191D01*
X-74956Y-592323D01*
X-74952Y-592456D01*
X-74952Y-592588D01*
X-74956Y-592721D01*
X-74964Y-592853D01*
X-74976Y-592985D01*
X-74991Y-593117D01*
X-75011Y-593248D01*
X-75034Y-593379D01*
X-75061Y-593508D01*
X-75092Y-593637D01*
X-75127Y-593765D01*
X-75165Y-593892D01*
X-75207Y-594018D01*
X-75253Y-594142D01*
X-75302Y-594265D01*
X-75355Y-594387D01*
X-75412Y-594507D01*
X-75472Y-594625D01*
X-75535Y-594742D01*
X-75602Y-594856D01*
X-75672Y-594969D01*
X-75746Y-595079D01*
X-75822Y-595187D01*
X-75902Y-595293D01*
X-75985Y-595397D01*
X-76071Y-595498D01*
X-76160Y-595596D01*
X-76251Y-595692D01*
X-76346Y-595785D01*
X-76443Y-595875D01*
X-76543Y-595962D01*
X-76645Y-596047D01*
X-76750Y-596128D01*
X-76857Y-596206D01*
X-76966Y-596282D01*
X-77077Y-596353D01*
X-77191Y-596422D01*
X-77306Y-596487D01*
X-77424Y-596549D01*
X-77543Y-596607D01*
X-77664Y-596662D01*
X-77786Y-596713D01*
X-77910Y-596761D01*
X-78035Y-596805D01*
X-78161Y-596845D01*
X-78289Y-596881D01*
X-78417Y-596914D01*
X-78546Y-596943D01*
X-78677Y-596968D01*
X-78807Y-596989D01*
X-78939Y-597007D01*
X-79071Y-597020D01*
X-79203Y-597030D01*
X-79335Y-597036D01*
X-79468Y-597038D01*
X-83983Y-597038D01*
X-83983Y-580782D01*
X-79468Y-580782D01*
X-79349Y-580784D01*
X-79229Y-580790D01*
X-79110Y-580800D01*
X-78992Y-580814D01*
X-78873Y-580831D01*
X-78756Y-580853D01*
X-78639Y-580878D01*
X-78524Y-580908D01*
X-78409Y-580941D01*
X-78295Y-580978D01*
X-78183Y-581018D01*
X-78072Y-581063D01*
X-77963Y-581111D01*
X-77855Y-581162D01*
X-77749Y-581217D01*
X-77645Y-581276D01*
X-77543Y-581338D01*
X-77443Y-581403D01*
X-77345Y-581472D01*
X-77249Y-581544D01*
X-77156Y-581619D01*
X-77066Y-581696D01*
X-76978Y-581777D01*
X-76893Y-581861D01*
X-76811Y-581948D01*
X-76731Y-582037D01*
X-76655Y-582129D01*
X-76581Y-582223D01*
X-76511Y-582320D01*
X-76444Y-582418D01*
X-76380Y-582519D01*
X-76320Y-582623D01*
X-76263Y-582728D01*
X-76210Y-582835D01*
X-76160Y-582943D01*
X-76114Y-583053D01*
X-76072Y-583165D01*
X-76033Y-583278D01*
X-75998Y-583392D01*
X-75967Y-583507D01*
X-75939Y-583624D01*
X-75916Y-583741D01*
X-75896Y-583858D01*
X-75880Y-583977D01*
X-75868Y-584096D01*
X-75860Y-584215D01*
X-75856Y-584334D01*
X-75856Y-584454D01*
X-75860Y-584573D01*
X-75868Y-584692D01*
X-75880Y-584811D01*
X-75896Y-584930D01*
X-75916Y-585047D01*
X-75939Y-585164D01*
X-75967Y-585281D01*
X-75998Y-585396D01*
X-76033Y-585510D01*
X-76072Y-585623D01*
X-76114Y-585735D01*
X-76160Y-585845D01*
X-76210Y-585953D01*
X-76263Y-586060D01*
X-76320Y-586165D01*
X-76380Y-586269D01*
X-76444Y-586370D01*
X-76511Y-586468D01*
X-76581Y-586565D01*
X-76655Y-586659D01*
X-76731Y-586751D01*
X-76811Y-586840D01*
X-76893Y-586927D01*
X-76978Y-587011D01*
X-77066Y-587092D01*
X-77156Y-587169D01*
X-77249Y-587244D01*
X-77345Y-587316D01*
X-77443Y-587385D01*
X-77543Y-587450D01*
X-77645Y-587512D01*
X-77749Y-587571D01*
X-77855Y-587626D01*
X-77963Y-587677D01*
X-78072Y-587725D01*
X-78183Y-587770D01*
X-78295Y-587810D01*
X-78409Y-587847D01*
X-78524Y-587880D01*
X-78639Y-587910D01*
X-78756Y-587935D01*
X-78873Y-587957D01*
X-78992Y-587974D01*
X-79110Y-587988D01*
X-79229Y-587998D01*
X-79349Y-588004D01*
X-79468Y-588006D01*
X-69223Y-589813D02*
X-69223Y-593426D01*
X-69223Y-589813D02*
X-69221Y-589694D01*
X-69215Y-589574D01*
X-69205Y-589455D01*
X-69191Y-589337D01*
X-69174Y-589218D01*
X-69152Y-589101D01*
X-69127Y-588984D01*
X-69097Y-588869D01*
X-69064Y-588754D01*
X-69027Y-588640D01*
X-68987Y-588528D01*
X-68942Y-588417D01*
X-68894Y-588308D01*
X-68843Y-588200D01*
X-68788Y-588094D01*
X-68729Y-587990D01*
X-68667Y-587888D01*
X-68602Y-587788D01*
X-68533Y-587690D01*
X-68461Y-587594D01*
X-68386Y-587501D01*
X-68309Y-587411D01*
X-68228Y-587323D01*
X-68144Y-587238D01*
X-68057Y-587156D01*
X-67968Y-587076D01*
X-67876Y-587000D01*
X-67782Y-586926D01*
X-67685Y-586856D01*
X-67587Y-586789D01*
X-67486Y-586725D01*
X-67382Y-586665D01*
X-67277Y-586608D01*
X-67170Y-586555D01*
X-67062Y-586505D01*
X-66952Y-586459D01*
X-66840Y-586417D01*
X-66727Y-586378D01*
X-66613Y-586343D01*
X-66498Y-586312D01*
X-66381Y-586284D01*
X-66264Y-586261D01*
X-66147Y-586241D01*
X-66028Y-586225D01*
X-65909Y-586213D01*
X-65790Y-586205D01*
X-65671Y-586201D01*
X-65551Y-586201D01*
X-65432Y-586205D01*
X-65313Y-586213D01*
X-65194Y-586225D01*
X-65075Y-586241D01*
X-64958Y-586261D01*
X-64841Y-586284D01*
X-64724Y-586312D01*
X-64609Y-586343D01*
X-64495Y-586378D01*
X-64382Y-586417D01*
X-64270Y-586459D01*
X-64160Y-586505D01*
X-64052Y-586555D01*
X-63945Y-586608D01*
X-63840Y-586665D01*
X-63736Y-586725D01*
X-63635Y-586789D01*
X-63537Y-586856D01*
X-63440Y-586926D01*
X-63346Y-587000D01*
X-63254Y-587076D01*
X-63165Y-587156D01*
X-63078Y-587238D01*
X-62994Y-587323D01*
X-62913Y-587411D01*
X-62836Y-587501D01*
X-62761Y-587594D01*
X-62689Y-587690D01*
X-62620Y-587788D01*
X-62555Y-587888D01*
X-62493Y-587990D01*
X-62434Y-588094D01*
X-62379Y-588200D01*
X-62328Y-588308D01*
X-62280Y-588417D01*
X-62235Y-588528D01*
X-62195Y-588640D01*
X-62158Y-588754D01*
X-62125Y-588869D01*
X-62095Y-588984D01*
X-62070Y-589101D01*
X-62048Y-589218D01*
X-62031Y-589337D01*
X-62017Y-589455D01*
X-62007Y-589574D01*
X-62001Y-589694D01*
X-61999Y-589813D01*
X-61998Y-589813D02*
X-61998Y-593426D01*
X-61999Y-593426D02*
X-62001Y-593545D01*
X-62007Y-593665D01*
X-62017Y-593784D01*
X-62031Y-593902D01*
X-62048Y-594021D01*
X-62070Y-594138D01*
X-62095Y-594255D01*
X-62125Y-594370D01*
X-62158Y-594485D01*
X-62195Y-594599D01*
X-62235Y-594711D01*
X-62280Y-594822D01*
X-62328Y-594931D01*
X-62379Y-595039D01*
X-62434Y-595145D01*
X-62493Y-595249D01*
X-62555Y-595351D01*
X-62620Y-595451D01*
X-62689Y-595549D01*
X-62761Y-595645D01*
X-62836Y-595738D01*
X-62913Y-595828D01*
X-62994Y-595916D01*
X-63078Y-596001D01*
X-63165Y-596083D01*
X-63254Y-596163D01*
X-63346Y-596239D01*
X-63440Y-596313D01*
X-63537Y-596383D01*
X-63635Y-596450D01*
X-63736Y-596514D01*
X-63840Y-596574D01*
X-63945Y-596631D01*
X-64052Y-596684D01*
X-64160Y-596734D01*
X-64270Y-596780D01*
X-64382Y-596822D01*
X-64495Y-596861D01*
X-64609Y-596896D01*
X-64724Y-596927D01*
X-64841Y-596955D01*
X-64958Y-596978D01*
X-65075Y-596998D01*
X-65194Y-597014D01*
X-65313Y-597026D01*
X-65432Y-597034D01*
X-65551Y-597038D01*
X-65671Y-597038D01*
X-65790Y-597034D01*
X-65909Y-597026D01*
X-66028Y-597014D01*
X-66147Y-596998D01*
X-66264Y-596978D01*
X-66381Y-596955D01*
X-66498Y-596927D01*
X-66613Y-596896D01*
X-66727Y-596861D01*
X-66840Y-596822D01*
X-66952Y-596780D01*
X-67062Y-596734D01*
X-67170Y-596684D01*
X-67277Y-596631D01*
X-67382Y-596574D01*
X-67486Y-596514D01*
X-67587Y-596450D01*
X-67685Y-596383D01*
X-67782Y-596313D01*
X-67876Y-596239D01*
X-67968Y-596163D01*
X-68057Y-596083D01*
X-68144Y-596001D01*
X-68228Y-595916D01*
X-68309Y-595828D01*
X-68386Y-595738D01*
X-68461Y-595645D01*
X-68533Y-595549D01*
X-68602Y-595451D01*
X-68667Y-595351D01*
X-68729Y-595249D01*
X-68788Y-595145D01*
X-68843Y-595039D01*
X-68894Y-594931D01*
X-68942Y-594822D01*
X-68987Y-594711D01*
X-69027Y-594599D01*
X-69064Y-594485D01*
X-69097Y-594370D01*
X-69127Y-594255D01*
X-69152Y-594138D01*
X-69174Y-594021D01*
X-69191Y-593902D01*
X-69205Y-593784D01*
X-69215Y-593665D01*
X-69221Y-593545D01*
X-69223Y-593426D01*
X-56973Y-586201D02*
X-51555Y-586201D01*
X-55167Y-580782D02*
X-55167Y-594329D01*
X-55165Y-594430D01*
X-55159Y-594531D01*
X-55150Y-594632D01*
X-55137Y-594733D01*
X-55120Y-594833D01*
X-55099Y-594932D01*
X-55075Y-595030D01*
X-55047Y-595127D01*
X-55015Y-595224D01*
X-54980Y-595319D01*
X-54941Y-595412D01*
X-54899Y-595504D01*
X-54853Y-595595D01*
X-54804Y-595684D01*
X-54752Y-595770D01*
X-54696Y-595855D01*
X-54638Y-595938D01*
X-54576Y-596018D01*
X-54511Y-596096D01*
X-54444Y-596172D01*
X-54374Y-596245D01*
X-54301Y-596315D01*
X-54225Y-596382D01*
X-54147Y-596447D01*
X-54067Y-596509D01*
X-53984Y-596567D01*
X-53899Y-596623D01*
X-53813Y-596675D01*
X-53724Y-596724D01*
X-53633Y-596770D01*
X-53541Y-596812D01*
X-53448Y-596851D01*
X-53353Y-596886D01*
X-53256Y-596918D01*
X-53159Y-596946D01*
X-53061Y-596970D01*
X-52962Y-596991D01*
X-52862Y-597008D01*
X-52761Y-597021D01*
X-52660Y-597030D01*
X-52559Y-597036D01*
X-52458Y-597038D01*
X-51555Y-597038D01*
X-47074Y-586201D02*
X-41655Y-586201D01*
X-45267Y-580782D02*
X-45267Y-594329D01*
X-45265Y-594430D01*
X-45259Y-594531D01*
X-45250Y-594632D01*
X-45237Y-594733D01*
X-45220Y-594833D01*
X-45199Y-594932D01*
X-45175Y-595030D01*
X-45147Y-595127D01*
X-45115Y-595224D01*
X-45080Y-595319D01*
X-45041Y-595412D01*
X-44999Y-595504D01*
X-44953Y-595595D01*
X-44904Y-595684D01*
X-44852Y-595770D01*
X-44796Y-595855D01*
X-44738Y-595938D01*
X-44676Y-596018D01*
X-44611Y-596096D01*
X-44544Y-596172D01*
X-44474Y-596245D01*
X-44401Y-596315D01*
X-44325Y-596382D01*
X-44247Y-596447D01*
X-44167Y-596509D01*
X-44084Y-596567D01*
X-43999Y-596623D01*
X-43913Y-596675D01*
X-43824Y-596724D01*
X-43733Y-596770D01*
X-43641Y-596812D01*
X-43548Y-596851D01*
X-43453Y-596886D01*
X-43356Y-596918D01*
X-43259Y-596946D01*
X-43161Y-596970D01*
X-43062Y-596991D01*
X-42962Y-597008D01*
X-42861Y-597021D01*
X-42760Y-597030D01*
X-42659Y-597036D01*
X-42558Y-597038D01*
X-41655Y-597038D01*
X-35877Y-593426D02*
X-35877Y-589813D01*
X-35876Y-589813D02*
X-35874Y-589694D01*
X-35868Y-589574D01*
X-35858Y-589455D01*
X-35844Y-589337D01*
X-35827Y-589218D01*
X-35805Y-589101D01*
X-35780Y-588984D01*
X-35750Y-588869D01*
X-35717Y-588754D01*
X-35680Y-588640D01*
X-35640Y-588528D01*
X-35595Y-588417D01*
X-35547Y-588308D01*
X-35496Y-588200D01*
X-35441Y-588094D01*
X-35382Y-587990D01*
X-35320Y-587888D01*
X-35255Y-587788D01*
X-35186Y-587690D01*
X-35114Y-587594D01*
X-35039Y-587501D01*
X-34962Y-587411D01*
X-34881Y-587323D01*
X-34797Y-587238D01*
X-34710Y-587156D01*
X-34621Y-587076D01*
X-34529Y-587000D01*
X-34435Y-586926D01*
X-34338Y-586856D01*
X-34240Y-586789D01*
X-34139Y-586725D01*
X-34035Y-586665D01*
X-33930Y-586608D01*
X-33823Y-586555D01*
X-33715Y-586505D01*
X-33605Y-586459D01*
X-33493Y-586417D01*
X-33380Y-586378D01*
X-33266Y-586343D01*
X-33151Y-586312D01*
X-33034Y-586284D01*
X-32917Y-586261D01*
X-32800Y-586241D01*
X-32681Y-586225D01*
X-32562Y-586213D01*
X-32443Y-586205D01*
X-32324Y-586201D01*
X-32204Y-586201D01*
X-32085Y-586205D01*
X-31966Y-586213D01*
X-31847Y-586225D01*
X-31728Y-586241D01*
X-31611Y-586261D01*
X-31494Y-586284D01*
X-31377Y-586312D01*
X-31262Y-586343D01*
X-31148Y-586378D01*
X-31035Y-586417D01*
X-30923Y-586459D01*
X-30813Y-586505D01*
X-30705Y-586555D01*
X-30598Y-586608D01*
X-30493Y-586665D01*
X-30389Y-586725D01*
X-30288Y-586789D01*
X-30190Y-586856D01*
X-30093Y-586926D01*
X-29999Y-587000D01*
X-29907Y-587076D01*
X-29818Y-587156D01*
X-29731Y-587238D01*
X-29647Y-587323D01*
X-29566Y-587411D01*
X-29489Y-587501D01*
X-29414Y-587594D01*
X-29342Y-587690D01*
X-29273Y-587788D01*
X-29208Y-587888D01*
X-29146Y-587990D01*
X-29087Y-588094D01*
X-29032Y-588200D01*
X-28981Y-588308D01*
X-28933Y-588417D01*
X-28888Y-588528D01*
X-28848Y-588640D01*
X-28811Y-588754D01*
X-28778Y-588869D01*
X-28748Y-588984D01*
X-28723Y-589101D01*
X-28701Y-589218D01*
X-28684Y-589337D01*
X-28670Y-589455D01*
X-28660Y-589574D01*
X-28654Y-589694D01*
X-28652Y-589813D01*
X-28652Y-593426D01*
X-28654Y-593545D01*
X-28660Y-593665D01*
X-28670Y-593784D01*
X-28684Y-593902D01*
X-28701Y-594021D01*
X-28723Y-594138D01*
X-28748Y-594255D01*
X-28778Y-594370D01*
X-28811Y-594485D01*
X-28848Y-594599D01*
X-28888Y-594711D01*
X-28933Y-594822D01*
X-28981Y-594931D01*
X-29032Y-595039D01*
X-29087Y-595145D01*
X-29146Y-595249D01*
X-29208Y-595351D01*
X-29273Y-595451D01*
X-29342Y-595549D01*
X-29414Y-595645D01*
X-29489Y-595738D01*
X-29566Y-595828D01*
X-29647Y-595916D01*
X-29731Y-596001D01*
X-29818Y-596083D01*
X-29907Y-596163D01*
X-29999Y-596239D01*
X-30093Y-596313D01*
X-30190Y-596383D01*
X-30288Y-596450D01*
X-30389Y-596514D01*
X-30493Y-596574D01*
X-30598Y-596631D01*
X-30705Y-596684D01*
X-30813Y-596734D01*
X-30923Y-596780D01*
X-31035Y-596822D01*
X-31148Y-596861D01*
X-31262Y-596896D01*
X-31377Y-596927D01*
X-31494Y-596955D01*
X-31611Y-596978D01*
X-31728Y-596998D01*
X-31847Y-597014D01*
X-31966Y-597026D01*
X-32085Y-597034D01*
X-32204Y-597038D01*
X-32324Y-597038D01*
X-32443Y-597034D01*
X-32562Y-597026D01*
X-32681Y-597014D01*
X-32800Y-596998D01*
X-32917Y-596978D01*
X-33034Y-596955D01*
X-33151Y-596927D01*
X-33266Y-596896D01*
X-33380Y-596861D01*
X-33493Y-596822D01*
X-33605Y-596780D01*
X-33715Y-596734D01*
X-33823Y-596684D01*
X-33930Y-596631D01*
X-34035Y-596574D01*
X-34139Y-596514D01*
X-34240Y-596450D01*
X-34338Y-596383D01*
X-34435Y-596313D01*
X-34529Y-596239D01*
X-34621Y-596163D01*
X-34710Y-596083D01*
X-34797Y-596001D01*
X-34881Y-595916D01*
X-34962Y-595828D01*
X-35039Y-595738D01*
X-35114Y-595645D01*
X-35186Y-595549D01*
X-35255Y-595451D01*
X-35320Y-595351D01*
X-35382Y-595249D01*
X-35441Y-595145D01*
X-35496Y-595039D01*
X-35547Y-594931D01*
X-35595Y-594822D01*
X-35640Y-594711D01*
X-35680Y-594599D01*
X-35717Y-594485D01*
X-35750Y-594370D01*
X-35780Y-594255D01*
X-35805Y-594138D01*
X-35827Y-594021D01*
X-35844Y-593902D01*
X-35858Y-593784D01*
X-35868Y-593665D01*
X-35874Y-593545D01*
X-35876Y-593426D01*
X-21530Y-597038D02*
X-21530Y-586201D01*
X-13402Y-586201D01*
X-13301Y-586203D01*
X-13200Y-586209D01*
X-13099Y-586218D01*
X-12998Y-586231D01*
X-12898Y-586248D01*
X-12799Y-586269D01*
X-12701Y-586293D01*
X-12604Y-586321D01*
X-12507Y-586353D01*
X-12412Y-586388D01*
X-12319Y-586427D01*
X-12227Y-586469D01*
X-12136Y-586515D01*
X-12048Y-586564D01*
X-11961Y-586616D01*
X-11876Y-586672D01*
X-11793Y-586730D01*
X-11713Y-586792D01*
X-11635Y-586857D01*
X-11559Y-586924D01*
X-11486Y-586994D01*
X-11416Y-587067D01*
X-11349Y-587143D01*
X-11284Y-587221D01*
X-11222Y-587301D01*
X-11164Y-587384D01*
X-11108Y-587469D01*
X-11056Y-587556D01*
X-11007Y-587644D01*
X-10961Y-587735D01*
X-10919Y-587827D01*
X-10880Y-587920D01*
X-10845Y-588015D01*
X-10813Y-588112D01*
X-10785Y-588209D01*
X-10761Y-588307D01*
X-10740Y-588406D01*
X-10723Y-588506D01*
X-10710Y-588607D01*
X-10701Y-588708D01*
X-10695Y-588809D01*
X-10693Y-588910D01*
X-10693Y-597038D01*
X-16112Y-597038D02*
X-16112Y-586201D01*
X5564Y-580782D02*
X5564Y-597038D01*
X10982Y-589813D02*
X5564Y-580782D01*
X10982Y-589813D02*
X16401Y-580782D01*
X16401Y-597038D01*
X26232Y-597038D02*
X30747Y-597038D01*
X26232Y-597038D02*
X26131Y-597036D01*
X26030Y-597030D01*
X25929Y-597021D01*
X25828Y-597008D01*
X25728Y-596991D01*
X25629Y-596970D01*
X25531Y-596946D01*
X25434Y-596918D01*
X25337Y-596886D01*
X25242Y-596851D01*
X25149Y-596812D01*
X25057Y-596770D01*
X24966Y-596724D01*
X24878Y-596675D01*
X24791Y-596623D01*
X24706Y-596567D01*
X24623Y-596509D01*
X24543Y-596447D01*
X24465Y-596382D01*
X24389Y-596315D01*
X24316Y-596245D01*
X24246Y-596172D01*
X24179Y-596096D01*
X24114Y-596018D01*
X24052Y-595938D01*
X23994Y-595855D01*
X23938Y-595770D01*
X23886Y-595684D01*
X23837Y-595595D01*
X23791Y-595504D01*
X23749Y-595412D01*
X23710Y-595319D01*
X23675Y-595224D01*
X23643Y-595127D01*
X23615Y-595030D01*
X23591Y-594932D01*
X23570Y-594833D01*
X23553Y-594733D01*
X23540Y-594632D01*
X23531Y-594531D01*
X23525Y-594430D01*
X23523Y-594329D01*
X23522Y-594329D02*
X23522Y-589813D01*
X23523Y-589813D02*
X23525Y-589694D01*
X23531Y-589574D01*
X23541Y-589455D01*
X23555Y-589337D01*
X23572Y-589218D01*
X23594Y-589101D01*
X23619Y-588984D01*
X23649Y-588869D01*
X23682Y-588754D01*
X23719Y-588640D01*
X23759Y-588528D01*
X23804Y-588417D01*
X23852Y-588308D01*
X23903Y-588200D01*
X23958Y-588094D01*
X24017Y-587990D01*
X24079Y-587888D01*
X24144Y-587788D01*
X24213Y-587690D01*
X24285Y-587594D01*
X24360Y-587501D01*
X24437Y-587411D01*
X24518Y-587323D01*
X24602Y-587238D01*
X24689Y-587156D01*
X24778Y-587076D01*
X24870Y-587000D01*
X24964Y-586926D01*
X25061Y-586856D01*
X25159Y-586789D01*
X25260Y-586725D01*
X25364Y-586665D01*
X25469Y-586608D01*
X25576Y-586555D01*
X25684Y-586505D01*
X25794Y-586459D01*
X25906Y-586417D01*
X26019Y-586378D01*
X26133Y-586343D01*
X26248Y-586312D01*
X26365Y-586284D01*
X26482Y-586261D01*
X26599Y-586241D01*
X26718Y-586225D01*
X26837Y-586213D01*
X26956Y-586205D01*
X27075Y-586201D01*
X27195Y-586201D01*
X27314Y-586205D01*
X27433Y-586213D01*
X27552Y-586225D01*
X27671Y-586241D01*
X27788Y-586261D01*
X27905Y-586284D01*
X28022Y-586312D01*
X28137Y-586343D01*
X28251Y-586378D01*
X28364Y-586417D01*
X28476Y-586459D01*
X28586Y-586505D01*
X28694Y-586555D01*
X28801Y-586608D01*
X28906Y-586665D01*
X29010Y-586725D01*
X29111Y-586789D01*
X29209Y-586856D01*
X29306Y-586926D01*
X29400Y-587000D01*
X29492Y-587076D01*
X29581Y-587156D01*
X29668Y-587238D01*
X29752Y-587323D01*
X29833Y-587411D01*
X29910Y-587501D01*
X29985Y-587594D01*
X30057Y-587690D01*
X30126Y-587788D01*
X30191Y-587888D01*
X30253Y-587990D01*
X30312Y-588094D01*
X30367Y-588200D01*
X30418Y-588308D01*
X30466Y-588417D01*
X30511Y-588528D01*
X30551Y-588640D01*
X30588Y-588754D01*
X30621Y-588869D01*
X30651Y-588984D01*
X30676Y-589101D01*
X30698Y-589218D01*
X30715Y-589337D01*
X30729Y-589455D01*
X30739Y-589574D01*
X30745Y-589694D01*
X30747Y-589813D01*
X30747Y-591619D01*
X23522Y-591619D01*
X35772Y-586201D02*
X41191Y-586201D01*
X37578Y-580782D02*
X37578Y-594329D01*
X37579Y-594329D02*
X37581Y-594430D01*
X37587Y-594531D01*
X37596Y-594632D01*
X37609Y-594733D01*
X37626Y-594833D01*
X37647Y-594932D01*
X37671Y-595030D01*
X37699Y-595127D01*
X37731Y-595224D01*
X37766Y-595319D01*
X37805Y-595412D01*
X37847Y-595504D01*
X37893Y-595595D01*
X37942Y-595684D01*
X37994Y-595770D01*
X38050Y-595855D01*
X38108Y-595938D01*
X38170Y-596018D01*
X38235Y-596096D01*
X38302Y-596172D01*
X38372Y-596245D01*
X38445Y-596315D01*
X38521Y-596382D01*
X38599Y-596447D01*
X38679Y-596509D01*
X38762Y-596567D01*
X38847Y-596623D01*
X38934Y-596675D01*
X39022Y-596724D01*
X39113Y-596770D01*
X39205Y-596812D01*
X39298Y-596851D01*
X39393Y-596886D01*
X39490Y-596918D01*
X39587Y-596946D01*
X39685Y-596970D01*
X39784Y-596991D01*
X39884Y-597008D01*
X39985Y-597021D01*
X40086Y-597030D01*
X40187Y-597036D01*
X40288Y-597038D01*
X41191Y-597038D01*
X50057Y-590716D02*
X54121Y-590716D01*
X50057Y-590716D02*
X49945Y-590718D01*
X49834Y-590724D01*
X49723Y-590734D01*
X49612Y-590747D01*
X49502Y-590765D01*
X49393Y-590787D01*
X49284Y-590812D01*
X49176Y-590841D01*
X49070Y-590874D01*
X48964Y-590911D01*
X48860Y-590951D01*
X48758Y-590995D01*
X48657Y-591043D01*
X48558Y-591094D01*
X48460Y-591149D01*
X48365Y-591207D01*
X48272Y-591268D01*
X48181Y-591333D01*
X48092Y-591401D01*
X48006Y-591472D01*
X47923Y-591545D01*
X47842Y-591622D01*
X47763Y-591702D01*
X47688Y-591784D01*
X47616Y-591869D01*
X47546Y-591956D01*
X47480Y-592046D01*
X47417Y-592138D01*
X47357Y-592233D01*
X47301Y-592329D01*
X47248Y-592427D01*
X47199Y-592527D01*
X47153Y-592629D01*
X47111Y-592732D01*
X47072Y-592837D01*
X47037Y-592943D01*
X47006Y-593050D01*
X46979Y-593158D01*
X46955Y-593267D01*
X46936Y-593377D01*
X46920Y-593487D01*
X46908Y-593598D01*
X46900Y-593710D01*
X46896Y-593821D01*
X46896Y-593933D01*
X46900Y-594044D01*
X46908Y-594156D01*
X46920Y-594267D01*
X46936Y-594377D01*
X46955Y-594487D01*
X46979Y-594596D01*
X47006Y-594704D01*
X47037Y-594811D01*
X47072Y-594917D01*
X47111Y-595022D01*
X47153Y-595125D01*
X47199Y-595227D01*
X47248Y-595327D01*
X47301Y-595425D01*
X47357Y-595521D01*
X47417Y-595616D01*
X47480Y-595708D01*
X47546Y-595798D01*
X47616Y-595885D01*
X47688Y-595970D01*
X47763Y-596052D01*
X47842Y-596132D01*
X47923Y-596209D01*
X48006Y-596282D01*
X48092Y-596353D01*
X48181Y-596421D01*
X48272Y-596486D01*
X48365Y-596547D01*
X48460Y-596605D01*
X48558Y-596660D01*
X48657Y-596711D01*
X48758Y-596759D01*
X48860Y-596803D01*
X48964Y-596843D01*
X49070Y-596880D01*
X49176Y-596913D01*
X49284Y-596942D01*
X49393Y-596967D01*
X49502Y-596989D01*
X49612Y-597007D01*
X49723Y-597020D01*
X49834Y-597030D01*
X49945Y-597036D01*
X50057Y-597038D01*
X54121Y-597038D01*
X54121Y-588910D01*
X54120Y-588910D02*
X54118Y-588809D01*
X54112Y-588708D01*
X54103Y-588607D01*
X54090Y-588506D01*
X54073Y-588406D01*
X54052Y-588307D01*
X54028Y-588209D01*
X54000Y-588112D01*
X53968Y-588015D01*
X53933Y-587920D01*
X53894Y-587827D01*
X53852Y-587735D01*
X53806Y-587644D01*
X53757Y-587556D01*
X53705Y-587469D01*
X53649Y-587384D01*
X53591Y-587301D01*
X53529Y-587221D01*
X53464Y-587143D01*
X53397Y-587067D01*
X53327Y-586994D01*
X53254Y-586924D01*
X53178Y-586857D01*
X53100Y-586792D01*
X53020Y-586730D01*
X52937Y-586672D01*
X52852Y-586616D01*
X52766Y-586564D01*
X52677Y-586515D01*
X52586Y-586469D01*
X52494Y-586427D01*
X52401Y-586388D01*
X52306Y-586353D01*
X52209Y-586321D01*
X52112Y-586293D01*
X52014Y-586269D01*
X51915Y-586248D01*
X51815Y-586231D01*
X51714Y-586218D01*
X51613Y-586209D01*
X51512Y-586203D01*
X51411Y-586201D01*
X47799Y-586201D01*
X61274Y-580782D02*
X61274Y-594329D01*
X61276Y-594430D01*
X61282Y-594531D01*
X61291Y-594632D01*
X61304Y-594733D01*
X61321Y-594833D01*
X61342Y-594932D01*
X61366Y-595030D01*
X61394Y-595127D01*
X61426Y-595224D01*
X61461Y-595319D01*
X61500Y-595412D01*
X61542Y-595504D01*
X61588Y-595595D01*
X61637Y-595684D01*
X61689Y-595770D01*
X61745Y-595855D01*
X61803Y-595938D01*
X61865Y-596018D01*
X61930Y-596096D01*
X61997Y-596172D01*
X62067Y-596245D01*
X62140Y-596315D01*
X62216Y-596382D01*
X62294Y-596447D01*
X62374Y-596509D01*
X62457Y-596567D01*
X62542Y-596623D01*
X62629Y-596675D01*
X62717Y-596724D01*
X62808Y-596770D01*
X62900Y-596812D01*
X62993Y-596851D01*
X63088Y-596886D01*
X63185Y-596918D01*
X63282Y-596946D01*
X63380Y-596970D01*
X63479Y-596991D01*
X63579Y-597008D01*
X63680Y-597021D01*
X63781Y-597030D01*
X63882Y-597036D01*
X63983Y-597038D01*
D14*
X-122300Y190000D03*
D15*
X-147700Y190000D03*
D16*
X-70000Y-100000D03*
X-95400Y-100000D03*
X-120800Y-100000D03*
X-146200Y-100000D03*
X-171600Y-100000D03*
X-197000Y-100000D03*
X-222400Y-100000D03*
X-247800Y-100000D03*
X-273200Y-100000D03*
X-298600Y-100000D03*
X-324000Y-100000D03*
X-349400Y-100000D03*
D17*
X-25000Y-270000D03*
X25000Y-270000D03*
D18*
X-25000Y-125000D03*
D17*
X25000Y-125000D03*
X0Y-270000D03*
D19*
X-57000Y-195000D03*
X57000Y-195000D03*
D20*
X-210000Y125000D03*
X-201000Y125000D03*
D21*
X258965Y150750D03*
X265160Y157250D03*
X258965Y183250D03*
X258965Y202750D03*
X311035Y176750D03*
X-106460Y61750D03*
X-106460Y-51750D03*
X-107540Y35875D03*
X-107540Y-1125D03*
X107540Y-25875D03*
X107540Y11125D03*
X106460Y-51750D03*
X106460Y61750D03*
X-276539Y65000D03*
X113460Y-154000D03*
X113460Y-226000D03*
X155540Y-135000D03*
X204460Y-135000D03*
X-154460Y-135000D03*
X-105540Y-135000D03*
X-19600Y181110D03*
X262683Y62250D03*
X-154460Y-225000D03*
X-105540Y-225000D03*
X155540Y-205000D03*
X204460Y-205000D03*
X155540Y-275000D03*
X204460Y-275000D03*
X253460Y-154000D03*
X253460Y-226000D03*
X364540Y-215000D03*
X72540Y167500D03*
X72540Y147500D03*
X147460Y167500D03*
X132500Y107540D03*
X82500Y107540D03*
X313000Y273710D03*
X-226540Y-154000D03*
X-226540Y-226000D03*
X8851Y110000D03*
X-33686Y-7500D03*
X211150Y85000D03*
X225000Y236150D03*
X-315000Y81150D03*
X-245000Y81150D03*
X-287960Y-237250D03*
X225000Y156150D03*
X-33686Y52500D03*
X-41144Y47500D03*
X-73686Y92500D03*
X-81144Y87500D03*
X-342140Y201940D03*
X-73686Y52500D03*
X-81144Y47500D03*
X211150Y195000D03*
X335000Y116150D03*
X8851Y170000D03*
D22*
X145000Y65000D02*
X170000Y90000D01*
X145000Y65000D02*
X145000Y-85000D01*
X155000Y-95000D01*
D21*
X170000Y90000D03*
X155000Y-95000D03*
D22*
X102500Y87500D02*
X127500Y112500D01*
X102500Y87500D02*
X102500Y82500D01*
X377500Y10000D02*
X380000Y10000D01*
X377500Y10000D02*
X322500Y65000D01*
X275000Y65000D01*
X265000Y55000D01*
X207500Y55000D01*
X185000Y77500D01*
X185000Y87500D01*
X165000Y107500D01*
X150000Y107500D01*
X142500Y115000D01*
X130000Y115000D01*
X127500Y112500D01*
D21*
X127500Y112500D03*
X102500Y82500D03*
D22*
X270000Y237500D02*
X337500Y170000D01*
X337500Y125000D01*
X360000Y102500D02*
X365000Y97500D01*
X360000Y102500D02*
X337500Y125000D01*
X365000Y97500D02*
X365000Y82500D01*
X377500Y70000D01*
X380000Y70000D01*
X257500Y67500D02*
X202500Y67500D01*
X257500Y67500D02*
X260000Y70000D01*
X327500Y70000D01*
X360000Y102500D01*
D21*
X270000Y237500D03*
X202500Y67500D03*
D22*
X147500Y177500D02*
X157500Y187500D01*
X147500Y177500D02*
X122500Y177500D01*
X77500Y132500D01*
X-7500Y132500D01*
X-25000Y132500D02*
X-92500Y200000D01*
X-25000Y132500D02*
X-7500Y132500D01*
D21*
X157500Y187500D03*
X-7500Y132500D03*
X-92500Y200000D03*
D22*
X125000Y130000D02*
X175000Y180000D01*
X125000Y130000D02*
X90000Y130000D01*
X57500Y97500D01*
X-37500Y97500D01*
X-60000Y75000D01*
X-377500Y130000D02*
X-380000Y130000D01*
X-377500Y130000D02*
X-355000Y107500D01*
X-112500Y107500D01*
X-80000Y75000D01*
X-60000Y75000D01*
D21*
X175000Y180000D03*
X-60000Y75000D03*
X320117Y107750D03*
X-84460Y11125D03*
X-84460Y-25625D03*
X335000Y83851D03*
X84460Y-1125D03*
X84460Y35625D03*
X-287960Y-162750D03*
X-6314Y42500D03*
X1144Y37500D03*
X-6314Y7500D03*
X41150Y110000D03*
X49840Y152500D03*
X175160Y172500D03*
X170160Y157500D03*
X170160Y132500D03*
X127500Y84840D03*
X77500Y84840D03*
X178851Y85000D03*
X225000Y203851D03*
X237915Y209250D03*
X332085Y157250D03*
X341460Y-165000D03*
D22*
X77500Y152500D02*
X72500Y157500D01*
X-5000Y157500D01*
X-7500Y155000D01*
X-150000Y-15000D02*
X-190000Y-55000D01*
X-150000Y-15000D02*
X-142500Y-15000D01*
D21*
X77500Y152500D03*
X-7500Y155000D03*
X-190000Y-55000D03*
X-142500Y-15000D03*
X40000Y137500D03*
X155000Y-235000D03*
D22*
X300000Y-155000D02*
X300000Y-42500D01*
X172500Y85000D01*
X175000Y87500D01*
X175000Y92500D01*
X165000Y102500D01*
X160000Y102500D01*
D21*
X300000Y-155000D03*
X160000Y102500D03*
X87500Y175000D03*
D22*
X75000Y127500D02*
X77500Y125000D01*
X75000Y127500D02*
X-25000Y127500D01*
D21*
X77500Y125000D03*
X-25000Y127500D03*
D22*
X2500Y137500D02*
X7500Y137500D01*
X2500Y137500D02*
X-35000Y175000D01*
X-35000Y182500D01*
D21*
X7500Y137500D03*
X-35000Y182500D03*
D22*
X312500Y132500D02*
X312500Y127500D01*
X265000Y80000D01*
D21*
X312500Y132500D03*
X265000Y80000D03*
D22*
X327500Y160000D02*
X332500Y165000D01*
X327500Y160000D02*
X327500Y125000D01*
X315000Y112500D01*
X315000Y82500D01*
X322500Y75000D01*
D21*
X332500Y165000D03*
X322500Y75000D03*
D23*
X-230000Y138555D03*
X-256554Y74500D03*
X-384445Y-190000D03*
D24*
X-382500Y-190000D02*
X-370000Y-177500D01*
X-370000Y-77500D01*
X-320000Y-27500D01*
X-320000Y-20000D01*
X-257500Y42500D01*
X-257500Y65000D01*
X-382500Y-190000D02*
X-384445Y-190000D01*
D22*
X332500Y125000D02*
X332500Y145000D01*
X332500Y125000D02*
X325000Y117500D01*
X325000Y102500D01*
X322500Y100000D01*
D21*
X332500Y145000D03*
X322500Y100000D03*
D22*
X355000Y-175000D02*
X300000Y-230000D01*
X355000Y-175000D02*
X355000Y-70000D01*
X312500Y-27500D01*
X312500Y55000D01*
D21*
X300000Y-230000D03*
X312500Y55000D03*
X260000Y172500D03*
D22*
X-30000Y27500D02*
X-32500Y25000D01*
X-30000Y27500D02*
X-2500Y27500D01*
X55000Y-30000D01*
X67500Y-30000D01*
D21*
X-32500Y25000D03*
X67500Y-30000D03*
X310000Y-212500D03*
D22*
X-67500Y27500D02*
X-70000Y25000D01*
X-157500Y25000D01*
D21*
X-67500Y27500D03*
X-157500Y25000D03*
D22*
X342500Y-180000D02*
X350000Y-172500D01*
X350000Y-70000D01*
X307500Y-27500D01*
X307500Y40000D01*
X287500Y60000D01*
D21*
X342500Y-180000D03*
X287500Y60000D03*
D22*
X260000Y77500D02*
X212500Y77500D01*
X260000Y77500D02*
X262500Y75000D01*
X295000Y75000D01*
D21*
X212500Y77500D03*
X295000Y75000D03*
X-10000Y82500D03*
X295000Y100000D03*
X295000Y87500D03*
X-62500Y312500D03*
X297500Y57500D03*
X-70000Y312500D03*
D22*
X237500Y125000D02*
X237500Y82500D01*
X237500Y125000D02*
X170000Y192500D01*
X155000Y192500D01*
X152500Y190000D01*
X152500Y187500D01*
X147500Y182500D01*
X122500Y182500D01*
X120000Y180000D01*
X92500Y180000D01*
X-15000Y287500D01*
X-55000Y287500D01*
X-80000Y312500D01*
X-312500Y312500D01*
D21*
X237500Y82500D03*
X-312500Y312500D03*
D22*
X207500Y72500D02*
X237500Y72500D01*
D21*
X207500Y72500D03*
X237500Y72500D03*
D25*
X0Y-10000D03*
D23*
X-335555Y-190000D03*
X-303446Y74500D03*
X288000Y248805D03*
X-312945Y-222750D03*
D24*
X-7500Y-17500D02*
X0Y-10000D01*
X-7500Y-17500D02*
X-7500Y-47500D01*
D23*
X-7500Y-47500D03*
D21*
X95000Y45000D03*
D22*
X112500Y-7500D02*
X130000Y-25000D01*
X130000Y-107500D01*
X105000Y-132500D01*
X102500Y-132500D01*
X95000Y-140000D01*
X95000Y-200000D01*
X25000Y-270000D01*
D21*
X112500Y-7500D03*
D22*
X95000Y92500D02*
X95000Y125000D01*
X95000Y92500D02*
X92500Y90000D01*
X92500Y50000D01*
X90000Y47500D01*
X90000Y-17500D01*
X-17500Y-125000D01*
X-25000Y-125000D01*
D21*
X95000Y125000D03*
X35000Y142500D03*
X-52500Y-87500D03*
X75000Y137500D03*
X-57500Y-92500D03*
D22*
X140000Y-107500D02*
X140000Y110000D01*
X140000Y-107500D02*
X105000Y-142500D01*
D21*
X140000Y110000D03*
X105000Y-142500D03*
D22*
X127500Y120000D02*
X135000Y120000D01*
X127500Y120000D02*
X97500Y90000D01*
X97500Y50000D01*
X135000Y12500D01*
X135000Y-107500D01*
X105000Y-137500D01*
X102500Y-137500D01*
X100000Y-140000D01*
X100000Y-152500D01*
X120000Y-172500D01*
X130000Y-172500D01*
D21*
X135000Y120000D03*
X130000Y-172500D03*
X185000Y95000D03*
X232500Y-140000D03*
X-2500Y52500D03*
X300000Y-170000D03*
X315000Y-152500D03*
X82500Y165000D03*
D22*
X-60000Y57500D02*
X-60000Y27500D01*
X-67500Y20000D01*
X-120000Y20000D01*
X-190000Y-50000D01*
X-195000Y-50000D01*
D21*
X-60000Y57500D03*
X-195000Y-50000D03*
D22*
X-97500Y60000D02*
X-67500Y60000D01*
X-97500Y60000D02*
X-127500Y30000D01*
X-162500Y30000D01*
X-217500Y-25000D01*
D21*
X-67500Y60000D03*
X-217500Y-25000D03*
X-77500Y40000D03*
X-180000Y-62500D03*
D22*
X-77500Y5000D02*
X-55000Y27500D01*
X-77500Y5000D02*
X-77500Y-87500D01*
D21*
X-55000Y27500D03*
X-77500Y-87500D03*
X320000Y-230000D03*
X237500Y167500D03*
X-285000Y-110000D03*
X40000Y180000D03*
D22*
X15000Y200000D02*
X7500Y207500D01*
D21*
X7500Y207500D03*
X15000Y200000D03*
D22*
X-25000Y112500D02*
X-15000Y102500D01*
X50000Y102500D01*
D21*
X-25000Y112500D03*
X50000Y102500D03*
X2500Y47500D03*
X310000Y-187500D03*
D22*
X-2500Y32500D02*
X-32500Y32500D01*
X-2500Y32500D02*
X55000Y-25000D01*
X62500Y-25000D01*
D21*
X-32500Y32500D03*
X62500Y-25000D03*
X302500Y-212500D03*
D22*
X-50000Y0D02*
X-55000Y5000D01*
X-55000Y10000D01*
X85000Y115000D02*
X90000Y120000D01*
X85000Y115000D02*
X80000Y115000D01*
X57500Y92500D01*
X20000Y92500D01*
X-55000Y17500D01*
X-55000Y10000D01*
D21*
X-50000Y0D03*
X-55000Y10000D03*
X90000Y120000D03*
D25*
X0Y0D03*
D23*
X-384445Y-165000D03*
X-310000Y-29841D03*
D21*
X45000Y162500D03*
D24*
X-150000Y-22500D02*
X-150000Y-40000D01*
X-97500Y-92500D01*
X-97500Y-100000D01*
X-95400Y-100000D01*
D23*
X-150000Y-22500D03*
D21*
X110000Y122500D03*
D22*
X117500Y5000D02*
X-7500Y-120000D01*
X-7500Y-135000D01*
X-15000Y-142500D01*
X-210000Y-142500D01*
X-247500Y-105000D01*
X-247500Y-100000D01*
X-247800Y-100000D01*
D21*
X117500Y5000D03*
X137500Y172500D03*
X127500Y167500D03*
M02*
