G04 EAGLE Gerber RS-274X export*
G75*
%MOMM*%
%FSLAX34Y34*%
%LPD*%
%INBottom Inner Metal*%
%IPPOS*%
%AMOC8*
5,1,8,0,0,1.08239X$1,22.5*%
G01*
%ADD10C,0.352400*%
%ADD11C,1.350000*%
%ADD12C,1.500000*%
%ADD13C,1.950000*%
%ADD14C,1.650000*%
%ADD15C,0.152400*%
%ADD16C,0.508000*%
%ADD17C,0.635000*%
%ADD18C,0.454000*%
%ADD19C,0.127000*%

G36*
X370018Y-367496D02*
X370018Y-367496D01*
X370042Y-367498D01*
X376159Y-367097D01*
X376205Y-367085D01*
X376281Y-367077D01*
X388099Y-363910D01*
X388139Y-363891D01*
X388252Y-363847D01*
X398847Y-357730D01*
X398881Y-357701D01*
X398978Y-357629D01*
X407629Y-348978D01*
X407654Y-348941D01*
X407730Y-348847D01*
X413847Y-338252D01*
X413862Y-338209D01*
X413910Y-338099D01*
X417077Y-326281D01*
X417081Y-326233D01*
X417097Y-326159D01*
X417498Y-320041D01*
X417496Y-320023D01*
X417499Y-320000D01*
X417499Y295000D01*
X417496Y295018D01*
X417498Y295041D01*
X417097Y301159D01*
X417085Y301205D01*
X417077Y301281D01*
X413910Y313099D01*
X413891Y313139D01*
X413847Y313252D01*
X407730Y323847D01*
X407701Y323881D01*
X407629Y323978D01*
X398978Y332629D01*
X398941Y332654D01*
X398847Y332730D01*
X388252Y338847D01*
X388246Y338849D01*
X388241Y338853D01*
X388194Y338869D01*
X388099Y338910D01*
X376281Y342077D01*
X376233Y342081D01*
X376159Y342097D01*
X370042Y342498D01*
X370023Y342496D01*
X370000Y342499D01*
X201727Y342499D01*
X201639Y342484D01*
X201551Y342474D01*
X201530Y342464D01*
X201506Y342460D01*
X201429Y342414D01*
X201350Y342375D01*
X201334Y342358D01*
X201313Y342345D01*
X201257Y342276D01*
X201196Y342212D01*
X201187Y342190D01*
X201172Y342171D01*
X201143Y342087D01*
X201108Y342005D01*
X201107Y341981D01*
X201100Y341959D01*
X201102Y341870D01*
X201098Y341781D01*
X201106Y341758D01*
X201106Y341734D01*
X201140Y341652D01*
X201167Y341567D01*
X201183Y341546D01*
X201191Y341527D01*
X201225Y341489D01*
X201279Y341417D01*
X201906Y340789D01*
X201906Y337646D01*
X201913Y337604D01*
X201911Y337562D01*
X201933Y337495D01*
X201945Y337425D01*
X201967Y337388D01*
X201980Y337348D01*
X202034Y337275D01*
X202060Y337232D01*
X202076Y337219D01*
X202092Y337197D01*
X203033Y336256D01*
X203033Y333744D01*
X202092Y332803D01*
X202067Y332768D01*
X202036Y332739D01*
X202004Y332676D01*
X201963Y332618D01*
X201953Y332577D01*
X201933Y332539D01*
X201920Y332450D01*
X201907Y332401D01*
X201910Y332380D01*
X201906Y332354D01*
X201906Y262540D01*
X201917Y262475D01*
X201919Y262409D01*
X201937Y262366D01*
X201945Y262319D01*
X201979Y262262D01*
X202004Y262202D01*
X202035Y262167D01*
X202060Y262126D01*
X202111Y262084D01*
X202155Y262036D01*
X202197Y262014D01*
X202234Y261985D01*
X202296Y261964D01*
X202355Y261933D01*
X202409Y261925D01*
X202446Y261913D01*
X202486Y261914D01*
X202540Y261906D01*
X215789Y261906D01*
X216906Y260789D01*
X216906Y162540D01*
X216917Y162475D01*
X216919Y162409D01*
X216937Y162366D01*
X216945Y162319D01*
X216979Y162262D01*
X217004Y162202D01*
X217035Y162167D01*
X217060Y162126D01*
X217111Y162084D01*
X217155Y162036D01*
X217197Y162014D01*
X217234Y161985D01*
X217296Y161964D01*
X217355Y161933D01*
X217409Y161925D01*
X217446Y161913D01*
X217486Y161914D01*
X217540Y161906D01*
X250789Y161906D01*
X251906Y160789D01*
X251906Y134211D01*
X250789Y133094D01*
X248444Y133094D01*
X248357Y133079D01*
X248268Y133069D01*
X248247Y133059D01*
X248223Y133055D01*
X248147Y133009D01*
X248067Y132970D01*
X248051Y132953D01*
X248030Y132940D01*
X247974Y132871D01*
X247913Y132807D01*
X247904Y132785D01*
X247889Y132766D01*
X247860Y132682D01*
X247826Y132600D01*
X247825Y132576D01*
X247817Y132554D01*
X247820Y132465D01*
X247816Y132376D01*
X247823Y132353D01*
X247824Y132329D01*
X247857Y132247D01*
X247884Y132162D01*
X247900Y132141D01*
X247908Y132122D01*
X247942Y132084D01*
X247996Y132012D01*
X248541Y131467D01*
X248541Y128533D01*
X246706Y126699D01*
X246668Y126644D01*
X246623Y126597D01*
X246605Y126553D01*
X246578Y126514D01*
X246561Y126451D01*
X246536Y126390D01*
X246534Y126343D01*
X246522Y126297D01*
X246529Y126232D01*
X246526Y126166D01*
X246540Y126121D01*
X246545Y126074D01*
X246574Y126015D01*
X246594Y125952D01*
X246627Y125908D01*
X246644Y125873D01*
X246673Y125846D01*
X246706Y125802D01*
X248541Y123967D01*
X248541Y121033D01*
X246467Y118959D01*
X243533Y118959D01*
X242084Y120408D01*
X242049Y120433D01*
X242021Y120464D01*
X241958Y120496D01*
X241900Y120537D01*
X241859Y120547D01*
X241821Y120567D01*
X241731Y120580D01*
X241683Y120593D01*
X241662Y120590D01*
X241636Y120594D01*
X194211Y120594D01*
X119396Y195408D01*
X119362Y195433D01*
X119333Y195464D01*
X119270Y195496D01*
X119212Y195537D01*
X119171Y195547D01*
X119133Y195567D01*
X119044Y195580D01*
X118995Y195593D01*
X118974Y195590D01*
X118948Y195594D01*
X103364Y195594D01*
X103323Y195587D01*
X103280Y195589D01*
X103213Y195567D01*
X103144Y195555D01*
X103107Y195533D01*
X103067Y195520D01*
X102994Y195466D01*
X102950Y195440D01*
X102937Y195424D01*
X102916Y195408D01*
X101467Y193959D01*
X98533Y193959D01*
X96459Y196033D01*
X96459Y198967D01*
X98533Y201041D01*
X101467Y201041D01*
X102916Y199592D01*
X102951Y199567D01*
X102979Y199536D01*
X103042Y199504D01*
X103100Y199463D01*
X103141Y199453D01*
X103179Y199433D01*
X103269Y199420D01*
X103317Y199407D01*
X103338Y199410D01*
X103364Y199406D01*
X120789Y199406D01*
X195604Y124592D01*
X195638Y124567D01*
X195667Y124536D01*
X195730Y124504D01*
X195788Y124463D01*
X195829Y124453D01*
X195867Y124433D01*
X195956Y124420D01*
X196005Y124407D01*
X196026Y124410D01*
X196052Y124406D01*
X241636Y124406D01*
X241677Y124413D01*
X241720Y124411D01*
X241787Y124433D01*
X241856Y124445D01*
X241893Y124467D01*
X241933Y124480D01*
X242006Y124534D01*
X242050Y124560D01*
X242063Y124576D01*
X242084Y124592D01*
X243294Y125802D01*
X243332Y125856D01*
X243377Y125903D01*
X243395Y125947D01*
X243422Y125986D01*
X243439Y126049D01*
X243464Y126110D01*
X243466Y126157D01*
X243478Y126203D01*
X243471Y126268D01*
X243474Y126334D01*
X243460Y126379D01*
X243455Y126426D01*
X243426Y126485D01*
X243406Y126548D01*
X243373Y126592D01*
X243356Y126627D01*
X243327Y126654D01*
X243294Y126699D01*
X241459Y128533D01*
X241459Y131467D01*
X242004Y132012D01*
X242055Y132085D01*
X242111Y132154D01*
X242119Y132176D01*
X242132Y132196D01*
X242154Y132282D01*
X242183Y132366D01*
X242182Y132390D01*
X242188Y132413D01*
X242179Y132502D01*
X242176Y132591D01*
X242167Y132613D01*
X242165Y132636D01*
X242125Y132716D01*
X242092Y132798D01*
X242076Y132816D01*
X242066Y132837D01*
X242001Y132898D01*
X241941Y132964D01*
X241920Y132975D01*
X241902Y132991D01*
X241820Y133026D01*
X241741Y133067D01*
X241715Y133070D01*
X241696Y133079D01*
X241645Y133081D01*
X241556Y133094D01*
X204211Y133094D01*
X128094Y209211D01*
X128094Y257460D01*
X128083Y257525D01*
X128081Y257591D01*
X128063Y257634D01*
X128055Y257681D01*
X128021Y257738D01*
X127996Y257798D01*
X127965Y257833D01*
X127940Y257874D01*
X127889Y257916D01*
X127845Y257964D01*
X127803Y257986D01*
X127766Y258015D01*
X127704Y258036D01*
X127645Y258067D01*
X127591Y258075D01*
X127554Y258087D01*
X127514Y258086D01*
X127460Y258094D01*
X-45789Y258094D01*
X-46906Y259211D01*
X-46906Y340789D01*
X-46279Y341417D01*
X-46228Y341490D01*
X-46172Y341559D01*
X-46164Y341581D01*
X-46150Y341601D01*
X-46128Y341687D01*
X-46100Y341771D01*
X-46100Y341795D01*
X-46095Y341818D01*
X-46104Y341907D01*
X-46106Y341996D01*
X-46115Y342018D01*
X-46118Y342041D01*
X-46157Y342121D01*
X-46191Y342203D01*
X-46207Y342221D01*
X-46217Y342242D01*
X-46282Y342303D01*
X-46342Y342369D01*
X-46363Y342380D01*
X-46380Y342396D01*
X-46462Y342431D01*
X-46542Y342472D01*
X-46568Y342475D01*
X-46587Y342484D01*
X-46637Y342486D01*
X-46727Y342499D01*
X-54051Y342499D01*
X-54141Y342483D01*
X-54233Y342473D01*
X-54254Y342463D01*
X-54272Y342460D01*
X-54315Y342434D01*
X-54403Y342393D01*
X-68355Y333091D01*
X-68389Y333058D01*
X-68451Y333012D01*
X-68964Y332499D01*
X-69051Y332499D01*
X-69142Y332483D01*
X-69233Y332473D01*
X-69254Y332463D01*
X-69272Y332460D01*
X-69315Y332434D01*
X-69403Y332393D01*
X-69475Y332345D01*
X-70186Y332487D01*
X-70234Y332488D01*
X-70310Y332499D01*
X-149690Y332499D01*
X-149737Y332491D01*
X-149814Y332487D01*
X-150525Y332345D01*
X-150597Y332393D01*
X-150682Y332429D01*
X-150764Y332472D01*
X-150786Y332475D01*
X-150803Y332482D01*
X-150853Y332485D01*
X-150949Y332499D01*
X-151036Y332499D01*
X-151549Y333012D01*
X-151588Y333040D01*
X-151645Y333091D01*
X-165597Y342393D01*
X-165682Y342429D01*
X-165764Y342472D01*
X-165786Y342475D01*
X-165803Y342482D01*
X-165853Y342485D01*
X-165949Y342499D01*
X-390000Y342499D01*
X-390018Y342496D01*
X-390041Y342498D01*
X-396159Y342097D01*
X-396205Y342085D01*
X-396281Y342077D01*
X-408099Y338910D01*
X-408139Y338891D01*
X-408252Y338847D01*
X-418847Y332730D01*
X-418881Y332701D01*
X-418978Y332629D01*
X-427629Y323978D01*
X-427654Y323941D01*
X-427730Y323847D01*
X-433847Y313252D01*
X-433862Y313209D01*
X-433910Y313099D01*
X-437077Y301281D01*
X-437081Y301233D01*
X-437097Y301159D01*
X-437498Y295041D01*
X-437496Y295023D01*
X-437499Y295000D01*
X-437499Y-320000D01*
X-437496Y-320018D01*
X-437498Y-320041D01*
X-437097Y-326159D01*
X-437085Y-326205D01*
X-437077Y-326281D01*
X-433910Y-338099D01*
X-433891Y-338139D01*
X-433847Y-338252D01*
X-427730Y-348847D01*
X-427701Y-348881D01*
X-427629Y-348978D01*
X-418978Y-357629D01*
X-418941Y-357654D01*
X-418847Y-357730D01*
X-408252Y-363847D01*
X-408209Y-363862D01*
X-408099Y-363910D01*
X-396281Y-367077D01*
X-396233Y-367081D01*
X-396159Y-367097D01*
X-390041Y-367498D01*
X-390023Y-367496D01*
X-390000Y-367499D01*
X370000Y-367499D01*
X370018Y-367496D01*
G37*
G36*
X247603Y136907D02*
X247603Y136907D01*
X247612Y136906D01*
X247700Y136927D01*
X247790Y136945D01*
X247797Y136950D01*
X247805Y136952D01*
X247878Y137006D01*
X247954Y137058D01*
X247958Y137065D01*
X247965Y137070D01*
X248012Y137148D01*
X248061Y137225D01*
X248062Y137234D01*
X248067Y137241D01*
X248094Y137405D01*
X248094Y157595D01*
X248093Y157603D01*
X248094Y157612D01*
X248073Y157700D01*
X248055Y157790D01*
X248050Y157797D01*
X248048Y157805D01*
X247994Y157878D01*
X247942Y157954D01*
X247935Y157958D01*
X247930Y157965D01*
X247852Y158012D01*
X247775Y158061D01*
X247766Y158062D01*
X247759Y158067D01*
X247595Y158094D01*
X214211Y158094D01*
X213094Y159211D01*
X213094Y257595D01*
X213093Y257603D01*
X213094Y257612D01*
X213073Y257700D01*
X213055Y257790D01*
X213050Y257797D01*
X213048Y257805D01*
X212994Y257878D01*
X212942Y257954D01*
X212935Y257958D01*
X212930Y257965D01*
X212852Y258012D01*
X212775Y258061D01*
X212766Y258062D01*
X212759Y258067D01*
X212595Y258094D01*
X199211Y258094D01*
X198094Y259211D01*
X198094Y260000D01*
X198093Y260008D01*
X198094Y260017D01*
X198073Y260105D01*
X198055Y260195D01*
X198050Y260202D01*
X198048Y260210D01*
X197994Y260283D01*
X197942Y260359D01*
X197935Y260363D01*
X197930Y260370D01*
X197852Y260417D01*
X197775Y260466D01*
X197766Y260467D01*
X197759Y260472D01*
X197595Y260499D01*
X132405Y260499D01*
X132397Y260498D01*
X132388Y260499D01*
X132300Y260478D01*
X132210Y260460D01*
X132203Y260455D01*
X132195Y260453D01*
X132122Y260399D01*
X132046Y260347D01*
X132042Y260340D01*
X132035Y260335D01*
X131988Y260257D01*
X131939Y260180D01*
X131938Y260171D01*
X131933Y260164D01*
X131906Y260000D01*
X131906Y210996D01*
X131908Y210984D01*
X131906Y210971D01*
X131928Y210887D01*
X131945Y210801D01*
X131952Y210791D01*
X131956Y210779D01*
X132052Y210643D01*
X205643Y137052D01*
X205654Y137045D01*
X205661Y137035D01*
X205736Y136990D01*
X205809Y136942D01*
X205821Y136940D01*
X205832Y136933D01*
X205996Y136906D01*
X247595Y136906D01*
X247603Y136907D01*
G37*
%LPC*%
G36*
X-41467Y63959D02*
X-41467Y63959D01*
X-43541Y66033D01*
X-43541Y68967D01*
X-41467Y71041D01*
X-38533Y71041D01*
X-37084Y69592D01*
X-37049Y69567D01*
X-37021Y69536D01*
X-36958Y69504D01*
X-36900Y69463D01*
X-36859Y69453D01*
X-36821Y69433D01*
X-36731Y69420D01*
X-36683Y69407D01*
X-36662Y69410D01*
X-36636Y69406D01*
X66556Y69406D01*
X66643Y69421D01*
X66732Y69431D01*
X66753Y69441D01*
X66777Y69445D01*
X66853Y69491D01*
X66933Y69530D01*
X66949Y69547D01*
X66970Y69560D01*
X67026Y69629D01*
X67087Y69693D01*
X67096Y69715D01*
X67111Y69734D01*
X67140Y69818D01*
X67174Y69900D01*
X67175Y69924D01*
X67183Y69946D01*
X67180Y70035D01*
X67184Y70124D01*
X67177Y70147D01*
X67176Y70171D01*
X67143Y70253D01*
X67116Y70338D01*
X67100Y70359D01*
X67092Y70378D01*
X67058Y70416D01*
X67004Y70488D01*
X66459Y71033D01*
X66459Y73967D01*
X68533Y76041D01*
X71467Y76041D01*
X73541Y73967D01*
X73541Y71033D01*
X72996Y70488D01*
X72945Y70415D01*
X72889Y70346D01*
X72881Y70324D01*
X72868Y70304D01*
X72846Y70218D01*
X72817Y70134D01*
X72818Y70110D01*
X72812Y70087D01*
X72821Y69998D01*
X72824Y69909D01*
X72833Y69887D01*
X72835Y69864D01*
X72875Y69784D01*
X72908Y69702D01*
X72924Y69684D01*
X72934Y69663D01*
X72999Y69602D01*
X73059Y69536D01*
X73080Y69525D01*
X73098Y69509D01*
X73180Y69474D01*
X73259Y69433D01*
X73285Y69430D01*
X73304Y69421D01*
X73355Y69419D01*
X73444Y69406D01*
X213948Y69406D01*
X213990Y69413D01*
X214032Y69411D01*
X214099Y69433D01*
X214169Y69445D01*
X214205Y69467D01*
X214246Y69480D01*
X214318Y69534D01*
X214362Y69560D01*
X214375Y69576D01*
X214396Y69592D01*
X224316Y79512D01*
X224367Y79585D01*
X224423Y79654D01*
X224431Y79676D01*
X224445Y79696D01*
X224467Y79782D01*
X224495Y79866D01*
X224495Y79890D01*
X224500Y79913D01*
X224491Y80002D01*
X224489Y80091D01*
X224480Y80113D01*
X224477Y80136D01*
X224438Y80216D01*
X224404Y80298D01*
X224388Y80316D01*
X224378Y80337D01*
X224313Y80398D01*
X224253Y80464D01*
X224232Y80475D01*
X224215Y80491D01*
X224133Y80526D01*
X224053Y80567D01*
X224027Y80570D01*
X224008Y80579D01*
X223958Y80581D01*
X223868Y80594D01*
X125944Y80594D01*
X125857Y80579D01*
X125768Y80569D01*
X125747Y80559D01*
X125723Y80555D01*
X125647Y80509D01*
X125567Y80470D01*
X125551Y80453D01*
X125530Y80440D01*
X125474Y80371D01*
X125413Y80307D01*
X125404Y80285D01*
X125389Y80266D01*
X125360Y80182D01*
X125326Y80100D01*
X125325Y80076D01*
X125317Y80054D01*
X125320Y79965D01*
X125316Y79876D01*
X125323Y79853D01*
X125324Y79829D01*
X125357Y79747D01*
X125384Y79662D01*
X125400Y79641D01*
X125408Y79622D01*
X125442Y79584D01*
X125496Y79512D01*
X126041Y78967D01*
X126041Y76033D01*
X123967Y73959D01*
X121033Y73959D01*
X118959Y76033D01*
X118959Y78967D01*
X119504Y79512D01*
X119555Y79585D01*
X119611Y79654D01*
X119619Y79676D01*
X119632Y79696D01*
X119654Y79782D01*
X119683Y79866D01*
X119682Y79890D01*
X119688Y79913D01*
X119679Y80002D01*
X119676Y80091D01*
X119667Y80113D01*
X119665Y80136D01*
X119625Y80216D01*
X119592Y80298D01*
X119576Y80316D01*
X119566Y80337D01*
X119501Y80398D01*
X119441Y80464D01*
X119420Y80475D01*
X119402Y80491D01*
X119320Y80526D01*
X119241Y80567D01*
X119215Y80570D01*
X119196Y80579D01*
X119145Y80581D01*
X119056Y80594D01*
X-3289Y80594D01*
X-16469Y93773D01*
X-16503Y93798D01*
X-16532Y93829D01*
X-16595Y93861D01*
X-16653Y93902D01*
X-16694Y93912D01*
X-16732Y93932D01*
X-16821Y93945D01*
X-16870Y93958D01*
X-16891Y93955D01*
X-16917Y93959D01*
X-18967Y93959D01*
X-21041Y96033D01*
X-21041Y98967D01*
X-19206Y100801D01*
X-19168Y100856D01*
X-19123Y100903D01*
X-19105Y100947D01*
X-19078Y100986D01*
X-19061Y101049D01*
X-19036Y101110D01*
X-19034Y101157D01*
X-19022Y101203D01*
X-19029Y101268D01*
X-19026Y101334D01*
X-19040Y101379D01*
X-19045Y101426D01*
X-19074Y101485D01*
X-19094Y101548D01*
X-19127Y101592D01*
X-19144Y101627D01*
X-19173Y101654D01*
X-19206Y101698D01*
X-21041Y103533D01*
X-21041Y106467D01*
X-18967Y108541D01*
X-16033Y108541D01*
X-13959Y106467D01*
X-13959Y103533D01*
X-15794Y101698D01*
X-15832Y101644D01*
X-15877Y101597D01*
X-15895Y101553D01*
X-15922Y101514D01*
X-15939Y101451D01*
X-15964Y101390D01*
X-15966Y101343D01*
X-15978Y101297D01*
X-15971Y101232D01*
X-15974Y101166D01*
X-15960Y101121D01*
X-15955Y101074D01*
X-15926Y101015D01*
X-15906Y100952D01*
X-15873Y100908D01*
X-15856Y100873D01*
X-15827Y100846D01*
X-15794Y100801D01*
X-13959Y98967D01*
X-13959Y96917D01*
X-13952Y96875D01*
X-13954Y96833D01*
X-13932Y96766D01*
X-13920Y96696D01*
X-13898Y96660D01*
X-13885Y96619D01*
X-13831Y96547D01*
X-13805Y96503D01*
X-13789Y96490D01*
X-13773Y96469D01*
X-1896Y84592D01*
X-1862Y84567D01*
X-1833Y84536D01*
X-1770Y84504D01*
X-1712Y84463D01*
X-1671Y84453D01*
X-1633Y84433D01*
X-1544Y84420D01*
X-1495Y84407D01*
X-1474Y84410D01*
X-1448Y84406D01*
X41556Y84406D01*
X41643Y84421D01*
X41732Y84431D01*
X41753Y84441D01*
X41777Y84445D01*
X41853Y84491D01*
X41933Y84530D01*
X41949Y84547D01*
X41970Y84560D01*
X42026Y84629D01*
X42087Y84693D01*
X42096Y84715D01*
X42111Y84734D01*
X42140Y84818D01*
X42174Y84900D01*
X42175Y84924D01*
X42183Y84946D01*
X42180Y85035D01*
X42184Y85124D01*
X42177Y85147D01*
X42176Y85171D01*
X42143Y85253D01*
X42116Y85338D01*
X42100Y85359D01*
X42092Y85378D01*
X42058Y85416D01*
X42004Y85488D01*
X41459Y86033D01*
X41459Y88967D01*
X43533Y91041D01*
X46467Y91041D01*
X48541Y88967D01*
X48541Y86033D01*
X47996Y85488D01*
X47945Y85415D01*
X47889Y85346D01*
X47881Y85324D01*
X47868Y85304D01*
X47846Y85218D01*
X47817Y85134D01*
X47818Y85110D01*
X47812Y85087D01*
X47821Y84998D01*
X47824Y84909D01*
X47833Y84887D01*
X47835Y84864D01*
X47875Y84784D01*
X47908Y84702D01*
X47924Y84684D01*
X47934Y84663D01*
X47999Y84602D01*
X48059Y84536D01*
X48080Y84525D01*
X48098Y84509D01*
X48180Y84474D01*
X48259Y84433D01*
X48285Y84430D01*
X48304Y84421D01*
X48355Y84419D01*
X48444Y84406D01*
X148868Y84406D01*
X148956Y84421D01*
X149044Y84431D01*
X149065Y84441D01*
X149089Y84445D01*
X149166Y84491D01*
X149245Y84530D01*
X149261Y84547D01*
X149282Y84560D01*
X149338Y84629D01*
X149399Y84693D01*
X149408Y84715D01*
X149423Y84734D01*
X149452Y84818D01*
X149487Y84900D01*
X149488Y84924D01*
X149495Y84946D01*
X149493Y85035D01*
X149497Y85124D01*
X149489Y85147D01*
X149489Y85171D01*
X149455Y85253D01*
X149428Y85338D01*
X149412Y85359D01*
X149404Y85378D01*
X149370Y85416D01*
X149316Y85488D01*
X147908Y86896D01*
X-10604Y245408D01*
X-10638Y245433D01*
X-10667Y245464D01*
X-10730Y245496D01*
X-10788Y245537D01*
X-10829Y245547D01*
X-10867Y245567D01*
X-10956Y245580D01*
X-11005Y245593D01*
X-11026Y245590D01*
X-11052Y245594D01*
X-11636Y245594D01*
X-11677Y245587D01*
X-11720Y245589D01*
X-11787Y245567D01*
X-11856Y245555D01*
X-11893Y245533D01*
X-11933Y245520D01*
X-12006Y245466D01*
X-12050Y245440D01*
X-12063Y245424D01*
X-12084Y245408D01*
X-13533Y243959D01*
X-16467Y243959D01*
X-18541Y246033D01*
X-18541Y248967D01*
X-16467Y251041D01*
X-13533Y251041D01*
X-12084Y249592D01*
X-12049Y249567D01*
X-12021Y249536D01*
X-11958Y249504D01*
X-11900Y249463D01*
X-11859Y249453D01*
X-11821Y249433D01*
X-11731Y249420D01*
X-11683Y249407D01*
X-11662Y249410D01*
X-11636Y249406D01*
X-9211Y249406D01*
X150604Y89592D01*
X150638Y89567D01*
X150667Y89536D01*
X150730Y89504D01*
X150788Y89463D01*
X150829Y89453D01*
X150867Y89433D01*
X150956Y89420D01*
X151005Y89407D01*
X151026Y89410D01*
X151052Y89406D01*
X206636Y89406D01*
X206677Y89413D01*
X206720Y89411D01*
X206787Y89433D01*
X206856Y89445D01*
X206893Y89467D01*
X206933Y89480D01*
X207006Y89534D01*
X207050Y89560D01*
X207063Y89576D01*
X207084Y89592D01*
X208533Y91041D01*
X211467Y91041D01*
X213541Y88967D01*
X213541Y86033D01*
X212996Y85488D01*
X212945Y85415D01*
X212889Y85346D01*
X212881Y85324D01*
X212868Y85304D01*
X212846Y85218D01*
X212817Y85134D01*
X212818Y85110D01*
X212812Y85087D01*
X212821Y84998D01*
X212824Y84909D01*
X212833Y84887D01*
X212835Y84864D01*
X212875Y84784D01*
X212908Y84702D01*
X212924Y84684D01*
X212934Y84663D01*
X212999Y84602D01*
X213059Y84536D01*
X213080Y84525D01*
X213098Y84509D01*
X213180Y84474D01*
X213259Y84433D01*
X213285Y84430D01*
X213304Y84421D01*
X213355Y84419D01*
X213444Y84406D01*
X223948Y84406D01*
X223990Y84413D01*
X224032Y84411D01*
X224099Y84433D01*
X224169Y84445D01*
X224205Y84467D01*
X224246Y84480D01*
X224319Y84534D01*
X224362Y84560D01*
X224375Y84576D01*
X224396Y84591D01*
X227681Y87877D01*
X227732Y87950D01*
X227788Y88019D01*
X227796Y88041D01*
X227810Y88061D01*
X227832Y88147D01*
X227860Y88231D01*
X227860Y88255D01*
X227865Y88278D01*
X227856Y88367D01*
X227854Y88456D01*
X227845Y88478D01*
X227842Y88501D01*
X227803Y88581D01*
X227769Y88663D01*
X227753Y88681D01*
X227743Y88702D01*
X227678Y88763D01*
X227618Y88829D01*
X227597Y88840D01*
X227580Y88856D01*
X227498Y88891D01*
X227418Y88932D01*
X227392Y88935D01*
X227373Y88944D01*
X227323Y88946D01*
X227233Y88959D01*
X226033Y88959D01*
X223959Y91033D01*
X223959Y93967D01*
X226033Y96041D01*
X228967Y96041D01*
X231041Y93967D01*
X231041Y92767D01*
X231057Y92679D01*
X231066Y92591D01*
X231076Y92570D01*
X231080Y92546D01*
X231126Y92470D01*
X231165Y92390D01*
X231182Y92373D01*
X231195Y92353D01*
X231264Y92297D01*
X231328Y92236D01*
X231350Y92227D01*
X231369Y92212D01*
X231453Y92183D01*
X231535Y92148D01*
X231559Y92147D01*
X231581Y92140D01*
X231670Y92142D01*
X231759Y92138D01*
X231782Y92146D01*
X231806Y92146D01*
X231888Y92180D01*
X231973Y92207D01*
X231994Y92223D01*
X232013Y92231D01*
X232051Y92265D01*
X232123Y92319D01*
X252681Y112877D01*
X252732Y112950D01*
X252788Y113019D01*
X252796Y113041D01*
X252810Y113061D01*
X252832Y113147D01*
X252860Y113231D01*
X252860Y113255D01*
X252865Y113278D01*
X252856Y113367D01*
X252854Y113456D01*
X252845Y113478D01*
X252842Y113501D01*
X252803Y113581D01*
X252769Y113663D01*
X252753Y113681D01*
X252743Y113702D01*
X252678Y113763D01*
X252618Y113829D01*
X252597Y113840D01*
X252580Y113856D01*
X252498Y113891D01*
X252418Y113932D01*
X252392Y113935D01*
X252373Y113944D01*
X252323Y113946D01*
X252233Y113959D01*
X251033Y113959D01*
X248959Y116033D01*
X248959Y118967D01*
X251033Y121041D01*
X253967Y121041D01*
X256041Y118967D01*
X256041Y117767D01*
X256057Y117679D01*
X256066Y117591D01*
X256076Y117570D01*
X256080Y117546D01*
X256126Y117470D01*
X256165Y117390D01*
X256182Y117373D01*
X256195Y117353D01*
X256264Y117297D01*
X256328Y117236D01*
X256350Y117227D01*
X256369Y117212D01*
X256453Y117183D01*
X256535Y117148D01*
X256559Y117147D01*
X256581Y117140D01*
X256670Y117142D01*
X256759Y117138D01*
X256782Y117146D01*
X256806Y117146D01*
X256888Y117180D01*
X256973Y117207D01*
X256994Y117223D01*
X257013Y117231D01*
X257051Y117265D01*
X257123Y117319D01*
X261273Y121469D01*
X261298Y121503D01*
X261329Y121532D01*
X261361Y121595D01*
X261402Y121653D01*
X261412Y121694D01*
X261432Y121732D01*
X261445Y121821D01*
X261458Y121870D01*
X261455Y121891D01*
X261459Y121917D01*
X261459Y123967D01*
X263533Y126041D01*
X266467Y126041D01*
X268301Y124206D01*
X268331Y124186D01*
X268341Y124175D01*
X268358Y124166D01*
X268403Y124123D01*
X268447Y124105D01*
X268486Y124078D01*
X268549Y124061D01*
X268610Y124036D01*
X268657Y124034D01*
X268703Y124022D01*
X268768Y124029D01*
X268834Y124026D01*
X268879Y124040D01*
X268926Y124045D01*
X268985Y124074D01*
X269048Y124094D01*
X269092Y124127D01*
X269127Y124144D01*
X269154Y124173D01*
X269187Y124198D01*
X269188Y124198D01*
X269189Y124199D01*
X269198Y124206D01*
X271033Y126041D01*
X273967Y126041D01*
X276041Y123967D01*
X276041Y122767D01*
X276053Y122700D01*
X276054Y122645D01*
X276062Y122627D01*
X276066Y122591D01*
X276076Y122570D01*
X276080Y122546D01*
X276126Y122470D01*
X276139Y122438D01*
X276145Y122431D01*
X276165Y122390D01*
X276182Y122373D01*
X276195Y122353D01*
X276264Y122297D01*
X276289Y122273D01*
X276290Y122272D01*
X276328Y122236D01*
X276350Y122227D01*
X276369Y122212D01*
X276453Y122183D01*
X276535Y122148D01*
X276559Y122147D01*
X276581Y122140D01*
X276670Y122142D01*
X276671Y122142D01*
X276675Y122142D01*
X276684Y122142D01*
X276759Y122138D01*
X276782Y122146D01*
X276806Y122146D01*
X276882Y122177D01*
X276905Y122181D01*
X276919Y122190D01*
X276973Y122207D01*
X276994Y122223D01*
X277013Y122231D01*
X277051Y122265D01*
X277070Y122279D01*
X277098Y122296D01*
X277106Y122306D01*
X277123Y122319D01*
X281273Y126469D01*
X281298Y126503D01*
X281329Y126532D01*
X281361Y126595D01*
X281402Y126653D01*
X281412Y126694D01*
X281432Y126732D01*
X281445Y126821D01*
X281458Y126870D01*
X281455Y126891D01*
X281459Y126917D01*
X281459Y128967D01*
X283533Y131041D01*
X286467Y131041D01*
X288541Y128967D01*
X288541Y126033D01*
X286467Y123959D01*
X284417Y123959D01*
X284375Y123952D01*
X284333Y123954D01*
X284266Y123932D01*
X284196Y123920D01*
X284160Y123898D01*
X284119Y123885D01*
X284047Y123831D01*
X284003Y123805D01*
X283990Y123789D01*
X283969Y123773D01*
X244300Y84105D01*
X244262Y84051D01*
X244217Y84003D01*
X244199Y83959D01*
X244172Y83920D01*
X244155Y83857D01*
X244130Y83796D01*
X244127Y83749D01*
X244116Y83703D01*
X244123Y83638D01*
X244120Y83572D01*
X244134Y83527D01*
X244139Y83480D01*
X244168Y83421D01*
X244188Y83358D01*
X244221Y83314D01*
X244238Y83279D01*
X244267Y83252D01*
X244300Y83208D01*
X246041Y81467D01*
X246041Y78533D01*
X243967Y76459D01*
X241033Y76459D01*
X238959Y78533D01*
X238959Y81467D01*
X239504Y82012D01*
X239555Y82085D01*
X239611Y82154D01*
X239619Y82176D01*
X239632Y82196D01*
X239654Y82282D01*
X239683Y82366D01*
X239682Y82390D01*
X239688Y82413D01*
X239679Y82502D01*
X239676Y82591D01*
X239667Y82613D01*
X239665Y82636D01*
X239625Y82716D01*
X239592Y82798D01*
X239576Y82816D01*
X239566Y82837D01*
X239501Y82898D01*
X239441Y82964D01*
X239420Y82975D01*
X239402Y82991D01*
X239320Y83026D01*
X239241Y83067D01*
X239215Y83070D01*
X239196Y83079D01*
X239145Y83081D01*
X239056Y83094D01*
X233552Y83094D01*
X233510Y83087D01*
X233468Y83089D01*
X233401Y83067D01*
X233331Y83055D01*
X233295Y83033D01*
X233254Y83020D01*
X233182Y82966D01*
X233138Y82940D01*
X233125Y82924D01*
X233104Y82908D01*
X215789Y65594D01*
X-36636Y65594D01*
X-36677Y65587D01*
X-36720Y65589D01*
X-36787Y65567D01*
X-36856Y65555D01*
X-36893Y65533D01*
X-36933Y65520D01*
X-37006Y65466D01*
X-37050Y65440D01*
X-37063Y65424D01*
X-37084Y65408D01*
X-38533Y63959D01*
X-41467Y63959D01*
G37*
%LPD*%
%LPC*%
G36*
X1033Y133959D02*
X1033Y133959D01*
X-1041Y136033D01*
X-1041Y138967D01*
X909Y140917D01*
X960Y140990D01*
X1016Y141059D01*
X1024Y141081D01*
X1037Y141101D01*
X1059Y141187D01*
X1088Y141271D01*
X1087Y141295D01*
X1093Y141318D01*
X1084Y141407D01*
X1081Y141496D01*
X1072Y141518D01*
X1070Y141541D01*
X1030Y141621D01*
X997Y141703D01*
X981Y141721D01*
X971Y141742D01*
X906Y141803D01*
X846Y141869D01*
X825Y141880D01*
X807Y141896D01*
X725Y141931D01*
X646Y141972D01*
X620Y141975D01*
X601Y141984D01*
X550Y141986D01*
X461Y141999D01*
X-3581Y141999D01*
X-10197Y144740D01*
X-15260Y149803D01*
X-18001Y156419D01*
X-18001Y163581D01*
X-15260Y170197D01*
X-10197Y175260D01*
X-3581Y178001D01*
X3581Y178001D01*
X10197Y175260D01*
X15260Y170197D01*
X18001Y163581D01*
X18001Y156419D01*
X15260Y149803D01*
X10197Y144740D01*
X4053Y142195D01*
X3988Y142153D01*
X3918Y142119D01*
X3894Y142093D01*
X3864Y142074D01*
X3817Y142012D01*
X3764Y141955D01*
X3750Y141923D01*
X3729Y141894D01*
X3707Y141820D01*
X3677Y141749D01*
X3675Y141713D01*
X3665Y141679D01*
X3670Y141602D01*
X3667Y141525D01*
X3678Y141491D01*
X3680Y141455D01*
X3712Y141385D01*
X3735Y141311D01*
X3759Y141279D01*
X3772Y141251D01*
X3805Y141218D01*
X3847Y141160D01*
X6041Y138967D01*
X6041Y136033D01*
X3967Y133959D01*
X1033Y133959D01*
G37*
%LPD*%
%LPC*%
G36*
X-73581Y141999D02*
X-73581Y141999D01*
X-80197Y144740D01*
X-85260Y149803D01*
X-88001Y156419D01*
X-88001Y163581D01*
X-85260Y170197D01*
X-80197Y175260D01*
X-73581Y178001D01*
X-66419Y178001D01*
X-59803Y175260D01*
X-54740Y170197D01*
X-51999Y163581D01*
X-51999Y156419D01*
X-54740Y149803D01*
X-59803Y144740D01*
X-66419Y141999D01*
X-73581Y141999D01*
G37*
%LPD*%
%LPC*%
G36*
X362414Y-98001D02*
X362414Y-98001D01*
X357636Y-96021D01*
X353979Y-92364D01*
X351999Y-87586D01*
X351999Y-82414D01*
X353979Y-77636D01*
X357636Y-73979D01*
X362414Y-71999D01*
X367586Y-71999D01*
X372364Y-73979D01*
X376021Y-77636D01*
X378001Y-82414D01*
X378001Y-87586D01*
X376021Y-92364D01*
X372364Y-96021D01*
X367586Y-98001D01*
X362414Y-98001D01*
G37*
%LPD*%
%LPC*%
G36*
X44414Y-263001D02*
X44414Y-263001D01*
X39636Y-261021D01*
X35979Y-257364D01*
X33999Y-252586D01*
X33999Y-247414D01*
X35979Y-242636D01*
X39636Y-238979D01*
X44414Y-236999D01*
X49586Y-236999D01*
X54364Y-238979D01*
X58021Y-242636D01*
X60001Y-247414D01*
X60001Y-252586D01*
X58021Y-257364D01*
X54364Y-261021D01*
X49586Y-263001D01*
X44414Y-263001D01*
G37*
%LPD*%
%LPC*%
G36*
X-387586Y-98001D02*
X-387586Y-98001D01*
X-392364Y-96021D01*
X-396021Y-92364D01*
X-398001Y-87586D01*
X-398001Y-82414D01*
X-396021Y-77636D01*
X-392364Y-73979D01*
X-387586Y-71999D01*
X-382414Y-71999D01*
X-377636Y-73979D01*
X-373979Y-77636D01*
X-371999Y-82414D01*
X-371999Y-87586D01*
X-373979Y-92364D01*
X-377636Y-96021D01*
X-382414Y-98001D01*
X-387586Y-98001D01*
G37*
%LPD*%
%LPC*%
G36*
X-69586Y-263001D02*
X-69586Y-263001D01*
X-74364Y-261021D01*
X-78021Y-257364D01*
X-80001Y-252586D01*
X-80001Y-247414D01*
X-78021Y-242636D01*
X-74364Y-238979D01*
X-69586Y-236999D01*
X-64414Y-236999D01*
X-59636Y-238979D01*
X-55979Y-242636D01*
X-53999Y-247414D01*
X-53999Y-252586D01*
X-55979Y-257364D01*
X-59636Y-261021D01*
X-64414Y-263001D01*
X-69586Y-263001D01*
G37*
%LPD*%
%LPC*%
G36*
X-387586Y211999D02*
X-387586Y211999D01*
X-392364Y213979D01*
X-396021Y217636D01*
X-398001Y222414D01*
X-398001Y227586D01*
X-396021Y232364D01*
X-392364Y236021D01*
X-387586Y238001D01*
X-382414Y238001D01*
X-377636Y236021D01*
X-373979Y232364D01*
X-371999Y227586D01*
X-371999Y222414D01*
X-373979Y217636D01*
X-377636Y213979D01*
X-382414Y211999D01*
X-387586Y211999D01*
G37*
%LPD*%
%LPC*%
G36*
X362414Y211999D02*
X362414Y211999D01*
X357636Y213979D01*
X353979Y217636D01*
X351999Y222414D01*
X351999Y227586D01*
X353979Y232364D01*
X357636Y236021D01*
X362414Y238001D01*
X367586Y238001D01*
X372364Y236021D01*
X376021Y232364D01*
X378001Y227586D01*
X378001Y222414D01*
X376021Y217636D01*
X372364Y213979D01*
X367586Y211999D01*
X362414Y211999D01*
G37*
%LPD*%
%LPC*%
G36*
X-37192Y-191021D02*
X-37192Y-191021D01*
X-41243Y-189343D01*
X-44343Y-186243D01*
X-46021Y-182192D01*
X-46021Y-177808D01*
X-44343Y-173757D01*
X-41243Y-170657D01*
X-37192Y-168979D01*
X-32808Y-168979D01*
X-28757Y-170657D01*
X-25657Y-173757D01*
X-23979Y-177808D01*
X-23979Y-182192D01*
X-25657Y-186243D01*
X-28757Y-189343D01*
X-32808Y-191021D01*
X-37192Y-191021D01*
G37*
%LPD*%
%LPC*%
G36*
X12808Y-191021D02*
X12808Y-191021D01*
X8757Y-189343D01*
X5657Y-186243D01*
X3979Y-182192D01*
X3979Y-177808D01*
X5657Y-173757D01*
X8757Y-170657D01*
X12808Y-168979D01*
X17192Y-168979D01*
X21243Y-170657D01*
X24343Y-173757D01*
X26021Y-177808D01*
X26021Y-182192D01*
X24343Y-186243D01*
X21243Y-189343D01*
X17192Y-191021D01*
X12808Y-191021D01*
G37*
%LPD*%
%LPC*%
G36*
X12808Y-336021D02*
X12808Y-336021D01*
X8757Y-334343D01*
X5657Y-331243D01*
X3979Y-327192D01*
X3979Y-322808D01*
X5657Y-318757D01*
X8757Y-315657D01*
X12808Y-313979D01*
X17192Y-313979D01*
X21243Y-315657D01*
X24343Y-318757D01*
X26021Y-322808D01*
X26021Y-327192D01*
X24343Y-331243D01*
X21243Y-334343D01*
X17192Y-336021D01*
X12808Y-336021D01*
G37*
%LPD*%
%LPC*%
G36*
X-37192Y-336021D02*
X-37192Y-336021D01*
X-41243Y-334343D01*
X-44343Y-331243D01*
X-46021Y-327192D01*
X-46021Y-322808D01*
X-44343Y-318757D01*
X-41243Y-315657D01*
X-37192Y-313979D01*
X-32808Y-313979D01*
X-28757Y-315657D01*
X-25657Y-318757D01*
X-23979Y-322808D01*
X-23979Y-327192D01*
X-25657Y-331243D01*
X-28757Y-334343D01*
X-32808Y-336021D01*
X-37192Y-336021D01*
G37*
%LPD*%
%LPC*%
G36*
X-12192Y-336021D02*
X-12192Y-336021D01*
X-16243Y-334343D01*
X-19343Y-331243D01*
X-21021Y-327192D01*
X-21021Y-322808D01*
X-19343Y-318757D01*
X-16243Y-315657D01*
X-12192Y-313979D01*
X-7808Y-313979D01*
X-3757Y-315657D01*
X-657Y-318757D01*
X1021Y-322808D01*
X1021Y-327192D01*
X-657Y-331243D01*
X-3757Y-334343D01*
X-7808Y-336021D01*
X-12192Y-336021D01*
G37*
%LPD*%
%LPC*%
G36*
X-171894Y137779D02*
X-171894Y137779D01*
X-175393Y139229D01*
X-178071Y141907D01*
X-179521Y145406D01*
X-179521Y149194D01*
X-178071Y152693D01*
X-175393Y155371D01*
X-171894Y156821D01*
X-168106Y156821D01*
X-164607Y155371D01*
X-161929Y152693D01*
X-160479Y149194D01*
X-160479Y145406D01*
X-161929Y141907D01*
X-164607Y139229D01*
X-168106Y137779D01*
X-171894Y137779D01*
G37*
%LPD*%
%LPC*%
G36*
X-171894Y163179D02*
X-171894Y163179D01*
X-175393Y164629D01*
X-178071Y167307D01*
X-179521Y170806D01*
X-179521Y174594D01*
X-178071Y178093D01*
X-175393Y180771D01*
X-171894Y182221D01*
X-168106Y182221D01*
X-164607Y180771D01*
X-161929Y178093D01*
X-160479Y174594D01*
X-160479Y170806D01*
X-161929Y167307D01*
X-164607Y164629D01*
X-168106Y163179D01*
X-171894Y163179D01*
G37*
%LPD*%
%LPC*%
G36*
X8255Y-148771D02*
X8255Y-148771D01*
X5032Y-147435D01*
X2565Y-144968D01*
X1229Y-141745D01*
X1229Y-138255D01*
X2565Y-135032D01*
X5032Y-132565D01*
X8255Y-131229D01*
X11745Y-131229D01*
X14968Y-132565D01*
X17435Y-135032D01*
X18771Y-138255D01*
X18771Y-141745D01*
X17435Y-144968D01*
X14968Y-147435D01*
X11745Y-148771D01*
X8255Y-148771D01*
G37*
%LPD*%
%LPC*%
G36*
X-71745Y-148771D02*
X-71745Y-148771D01*
X-74968Y-147435D01*
X-77435Y-144968D01*
X-78771Y-141745D01*
X-78771Y-138255D01*
X-77435Y-135032D01*
X-74968Y-132565D01*
X-71745Y-131229D01*
X-68255Y-131229D01*
X-65032Y-132565D01*
X-62565Y-135032D01*
X-61229Y-138255D01*
X-61229Y-141745D01*
X-62565Y-144968D01*
X-65032Y-147435D01*
X-68255Y-148771D01*
X-71745Y-148771D01*
G37*
%LPD*%
%LPC*%
G36*
X48255Y-148771D02*
X48255Y-148771D01*
X45032Y-147435D01*
X42565Y-144968D01*
X41229Y-141745D01*
X41229Y-138255D01*
X42565Y-135032D01*
X45032Y-132565D01*
X48255Y-131229D01*
X51745Y-131229D01*
X54968Y-132565D01*
X57435Y-135032D01*
X58771Y-138255D01*
X58771Y-141745D01*
X57435Y-144968D01*
X54968Y-147435D01*
X51745Y-148771D01*
X48255Y-148771D01*
G37*
%LPD*%
%LPC*%
G36*
X-411595Y-48521D02*
X-411595Y-48521D01*
X-414543Y-47300D01*
X-416800Y-45043D01*
X-418021Y-42095D01*
X-418021Y-38905D01*
X-416800Y-35957D01*
X-414543Y-33700D01*
X-411595Y-32479D01*
X-408405Y-32479D01*
X-405457Y-33700D01*
X-403200Y-35957D01*
X-401979Y-38905D01*
X-401979Y-42095D01*
X-403200Y-45043D01*
X-405457Y-47300D01*
X-408405Y-48521D01*
X-411595Y-48521D01*
G37*
%LPD*%
%LPC*%
G36*
X388405Y-28021D02*
X388405Y-28021D01*
X385457Y-26800D01*
X383200Y-24543D01*
X381979Y-21595D01*
X381979Y-18405D01*
X383200Y-15457D01*
X385457Y-13200D01*
X388405Y-11979D01*
X391595Y-11979D01*
X394543Y-13200D01*
X396800Y-15457D01*
X398021Y-18405D01*
X398021Y-21595D01*
X396800Y-24543D01*
X394543Y-26800D01*
X391595Y-28021D01*
X388405Y-28021D01*
G37*
%LPD*%
%LPC*%
G36*
X-411595Y171479D02*
X-411595Y171479D01*
X-414543Y172700D01*
X-416800Y174957D01*
X-418021Y177905D01*
X-418021Y181095D01*
X-416800Y184043D01*
X-414543Y186300D01*
X-411595Y187521D01*
X-408405Y187521D01*
X-405457Y186300D01*
X-403200Y184043D01*
X-401979Y181095D01*
X-401979Y177905D01*
X-403200Y174957D01*
X-405457Y172700D01*
X-408405Y171479D01*
X-411595Y171479D01*
G37*
%LPD*%
%LPC*%
G36*
X388405Y171979D02*
X388405Y171979D01*
X385457Y173200D01*
X383200Y175457D01*
X381979Y178405D01*
X381979Y181595D01*
X383200Y184543D01*
X385457Y186800D01*
X388405Y188021D01*
X391595Y188021D01*
X394543Y186800D01*
X396800Y184543D01*
X398021Y181595D01*
X398021Y178405D01*
X396800Y175457D01*
X394543Y173200D01*
X391595Y171979D01*
X388405Y171979D01*
G37*
%LPD*%
%LPC*%
G36*
X388405Y91979D02*
X388405Y91979D01*
X385457Y93200D01*
X383200Y95457D01*
X381979Y98405D01*
X381979Y101595D01*
X383200Y104543D01*
X385457Y106800D01*
X388405Y108021D01*
X391595Y108021D01*
X394543Y106800D01*
X396800Y104543D01*
X398021Y101595D01*
X398021Y98405D01*
X396800Y95457D01*
X394543Y93200D01*
X391595Y91979D01*
X388405Y91979D01*
G37*
%LPD*%
%LPC*%
G36*
X388405Y71979D02*
X388405Y71979D01*
X385457Y73200D01*
X383200Y75457D01*
X381979Y78405D01*
X381979Y81595D01*
X383200Y84543D01*
X385457Y86800D01*
X388405Y88021D01*
X391595Y88021D01*
X394543Y86800D01*
X396800Y84543D01*
X398021Y81595D01*
X398021Y78405D01*
X396800Y75457D01*
X394543Y73200D01*
X391595Y71979D01*
X388405Y71979D01*
G37*
%LPD*%
%LPC*%
G36*
X-411595Y71479D02*
X-411595Y71479D01*
X-414543Y72700D01*
X-416800Y74957D01*
X-418021Y77905D01*
X-418021Y81095D01*
X-416800Y84043D01*
X-414543Y86300D01*
X-411595Y87521D01*
X-408405Y87521D01*
X-405457Y86300D01*
X-403200Y84043D01*
X-401979Y81095D01*
X-401979Y77905D01*
X-403200Y74957D01*
X-405457Y72700D01*
X-408405Y71479D01*
X-411595Y71479D01*
G37*
%LPD*%
%LPC*%
G36*
X388405Y51979D02*
X388405Y51979D01*
X385457Y53200D01*
X383200Y55457D01*
X381979Y58405D01*
X381979Y61595D01*
X383200Y64543D01*
X385457Y66800D01*
X388405Y68021D01*
X391595Y68021D01*
X394543Y66800D01*
X396800Y64543D01*
X398021Y61595D01*
X398021Y58405D01*
X396800Y55457D01*
X394543Y53200D01*
X391595Y51979D01*
X388405Y51979D01*
G37*
%LPD*%
%LPC*%
G36*
X388405Y151979D02*
X388405Y151979D01*
X385457Y153200D01*
X383200Y155457D01*
X381979Y158405D01*
X381979Y161595D01*
X383200Y164543D01*
X385457Y166800D01*
X388405Y168021D01*
X391595Y168021D01*
X394543Y166800D01*
X396800Y164543D01*
X398021Y161595D01*
X398021Y158405D01*
X396800Y155457D01*
X394543Y153200D01*
X391595Y151979D01*
X388405Y151979D01*
G37*
%LPD*%
%LPC*%
G36*
X-411595Y151479D02*
X-411595Y151479D01*
X-414543Y152700D01*
X-416800Y154957D01*
X-418021Y157905D01*
X-418021Y161095D01*
X-416800Y164043D01*
X-414543Y166300D01*
X-411595Y167521D01*
X-408405Y167521D01*
X-405457Y166300D01*
X-403200Y164043D01*
X-401979Y161095D01*
X-401979Y157905D01*
X-403200Y154957D01*
X-405457Y152700D01*
X-408405Y151479D01*
X-411595Y151479D01*
G37*
%LPD*%
%LPC*%
G36*
X-411595Y51479D02*
X-411595Y51479D01*
X-414543Y52700D01*
X-416800Y54957D01*
X-418021Y57905D01*
X-418021Y61095D01*
X-416800Y64043D01*
X-414543Y66300D01*
X-411595Y67521D01*
X-408405Y67521D01*
X-405457Y66300D01*
X-403200Y64043D01*
X-401979Y61095D01*
X-401979Y57905D01*
X-403200Y54957D01*
X-405457Y52700D01*
X-408405Y51479D01*
X-411595Y51479D01*
G37*
%LPD*%
%LPC*%
G36*
X-411595Y111479D02*
X-411595Y111479D01*
X-414543Y112700D01*
X-416800Y114957D01*
X-418021Y117905D01*
X-418021Y121095D01*
X-416800Y124043D01*
X-414543Y126300D01*
X-411595Y127521D01*
X-408405Y127521D01*
X-405457Y126300D01*
X-403200Y124043D01*
X-401979Y121095D01*
X-401979Y117905D01*
X-403200Y114957D01*
X-405457Y112700D01*
X-408405Y111479D01*
X-411595Y111479D01*
G37*
%LPD*%
%LPC*%
G36*
X388405Y111979D02*
X388405Y111979D01*
X385457Y113200D01*
X383200Y115457D01*
X381979Y118405D01*
X381979Y121595D01*
X383200Y124543D01*
X385457Y126800D01*
X388405Y128021D01*
X391595Y128021D01*
X394543Y126800D01*
X396800Y124543D01*
X398021Y121595D01*
X398021Y118405D01*
X396800Y115457D01*
X394543Y113200D01*
X391595Y111979D01*
X388405Y111979D01*
G37*
%LPD*%
%LPC*%
G36*
X388405Y31979D02*
X388405Y31979D01*
X385457Y33200D01*
X383200Y35457D01*
X381979Y38405D01*
X381979Y41595D01*
X383200Y44543D01*
X385457Y46800D01*
X388405Y48021D01*
X391595Y48021D01*
X394543Y46800D01*
X396800Y44543D01*
X398021Y41595D01*
X398021Y38405D01*
X396800Y35457D01*
X394543Y33200D01*
X391595Y31979D01*
X388405Y31979D01*
G37*
%LPD*%
%LPC*%
G36*
X-411595Y31479D02*
X-411595Y31479D01*
X-414543Y32700D01*
X-416800Y34957D01*
X-418021Y37905D01*
X-418021Y41095D01*
X-416800Y44043D01*
X-414543Y46300D01*
X-411595Y47521D01*
X-408405Y47521D01*
X-405457Y46300D01*
X-403200Y44043D01*
X-401979Y41095D01*
X-401979Y37905D01*
X-403200Y34957D01*
X-405457Y32700D01*
X-408405Y31479D01*
X-411595Y31479D01*
G37*
%LPD*%
%LPC*%
G36*
X388405Y11979D02*
X388405Y11979D01*
X385457Y13200D01*
X383200Y15457D01*
X381979Y18405D01*
X381979Y21595D01*
X383200Y24543D01*
X385457Y26800D01*
X388405Y28021D01*
X391595Y28021D01*
X394543Y26800D01*
X396800Y24543D01*
X398021Y21595D01*
X398021Y18405D01*
X396800Y15457D01*
X394543Y13200D01*
X391595Y11979D01*
X388405Y11979D01*
G37*
%LPD*%
%LPC*%
G36*
X-411595Y11479D02*
X-411595Y11479D01*
X-414543Y12700D01*
X-416800Y14957D01*
X-418021Y17905D01*
X-418021Y21095D01*
X-416800Y24043D01*
X-414543Y26300D01*
X-411595Y27521D01*
X-408405Y27521D01*
X-405457Y26300D01*
X-403200Y24043D01*
X-401979Y21095D01*
X-401979Y17905D01*
X-403200Y14957D01*
X-405457Y12700D01*
X-408405Y11479D01*
X-411595Y11479D01*
G37*
%LPD*%
%LPC*%
G36*
X-411595Y91479D02*
X-411595Y91479D01*
X-414543Y92700D01*
X-416800Y94957D01*
X-418021Y97905D01*
X-418021Y101095D01*
X-416800Y104043D01*
X-414543Y106300D01*
X-411595Y107521D01*
X-408405Y107521D01*
X-405457Y106300D01*
X-403200Y104043D01*
X-401979Y101095D01*
X-401979Y97905D01*
X-403200Y94957D01*
X-405457Y92700D01*
X-408405Y91479D01*
X-411595Y91479D01*
G37*
%LPD*%
%LPC*%
G36*
X-411595Y-28521D02*
X-411595Y-28521D01*
X-414543Y-27300D01*
X-416800Y-25043D01*
X-418021Y-22095D01*
X-418021Y-18905D01*
X-416800Y-15957D01*
X-414543Y-13700D01*
X-411595Y-12479D01*
X-408405Y-12479D01*
X-405457Y-13700D01*
X-403200Y-15957D01*
X-401979Y-18905D01*
X-401979Y-22095D01*
X-403200Y-25043D01*
X-405457Y-27300D01*
X-408405Y-28521D01*
X-411595Y-28521D01*
G37*
%LPD*%
%LPC*%
G36*
X-411595Y131479D02*
X-411595Y131479D01*
X-414543Y132700D01*
X-416800Y134957D01*
X-418021Y137905D01*
X-418021Y141095D01*
X-416800Y144043D01*
X-414543Y146300D01*
X-411595Y147521D01*
X-408405Y147521D01*
X-405457Y146300D01*
X-403200Y144043D01*
X-401979Y141095D01*
X-401979Y137905D01*
X-403200Y134957D01*
X-405457Y132700D01*
X-408405Y131479D01*
X-411595Y131479D01*
G37*
%LPD*%
%LPC*%
G36*
X388405Y131979D02*
X388405Y131979D01*
X385457Y133200D01*
X383200Y135457D01*
X381979Y138405D01*
X381979Y141595D01*
X383200Y144543D01*
X385457Y146800D01*
X388405Y148021D01*
X391595Y148021D01*
X394543Y146800D01*
X396800Y144543D01*
X398021Y141595D01*
X398021Y138405D01*
X396800Y135457D01*
X394543Y133200D01*
X391595Y131979D01*
X388405Y131979D01*
G37*
%LPD*%
%LPC*%
G36*
X388405Y-48021D02*
X388405Y-48021D01*
X385457Y-46800D01*
X383200Y-44543D01*
X381979Y-41595D01*
X381979Y-38405D01*
X383200Y-35457D01*
X385457Y-33200D01*
X388405Y-31979D01*
X391595Y-31979D01*
X394543Y-33200D01*
X396800Y-35457D01*
X398021Y-38405D01*
X398021Y-41595D01*
X396800Y-44543D01*
X394543Y-46800D01*
X391595Y-48021D01*
X388405Y-48021D01*
G37*
%LPD*%
%LPC*%
G36*
X-411595Y-8521D02*
X-411595Y-8521D01*
X-414543Y-7300D01*
X-416800Y-5043D01*
X-418021Y-2095D01*
X-418021Y1095D01*
X-416800Y4043D01*
X-414543Y6300D01*
X-411595Y7521D01*
X-408405Y7521D01*
X-405457Y6300D01*
X-403200Y4043D01*
X-401979Y1095D01*
X-401979Y-2095D01*
X-403200Y-5043D01*
X-405457Y-7300D01*
X-408405Y-8521D01*
X-411595Y-8521D01*
G37*
%LPD*%
%LPC*%
G36*
X388405Y-8021D02*
X388405Y-8021D01*
X385457Y-6800D01*
X383200Y-4543D01*
X381979Y-1595D01*
X381979Y1595D01*
X383200Y4543D01*
X385457Y6800D01*
X388405Y8021D01*
X391595Y8021D01*
X394543Y6800D01*
X396800Y4543D01*
X398021Y1595D01*
X398021Y-1595D01*
X396800Y-4543D01*
X394543Y-6800D01*
X391595Y-8021D01*
X388405Y-8021D01*
G37*
%LPD*%
%LPC*%
G36*
X58158Y86049D02*
X58158Y86049D01*
X55554Y88653D01*
X55554Y92336D01*
X57769Y94551D01*
X57807Y94606D01*
X57852Y94653D01*
X57870Y94697D01*
X57897Y94736D01*
X57914Y94799D01*
X57939Y94860D01*
X57942Y94907D01*
X57953Y94953D01*
X57947Y95018D01*
X57949Y95084D01*
X57935Y95129D01*
X57930Y95176D01*
X57901Y95235D01*
X57881Y95298D01*
X57848Y95342D01*
X57831Y95377D01*
X57802Y95404D01*
X57769Y95448D01*
X55554Y97663D01*
X55554Y101347D01*
X58158Y103951D01*
X61842Y103951D01*
X64446Y101347D01*
X64446Y97663D01*
X62231Y95448D01*
X62193Y95394D01*
X62148Y95347D01*
X62130Y95303D01*
X62103Y95264D01*
X62086Y95201D01*
X62061Y95140D01*
X62058Y95093D01*
X62047Y95047D01*
X62053Y94982D01*
X62051Y94916D01*
X62065Y94871D01*
X62070Y94824D01*
X62099Y94765D01*
X62119Y94702D01*
X62152Y94658D01*
X62169Y94623D01*
X62198Y94596D01*
X62231Y94551D01*
X64446Y92336D01*
X64446Y88653D01*
X61842Y86049D01*
X58158Y86049D01*
G37*
%LPD*%
%LPC*%
G36*
X248422Y-133551D02*
X248422Y-133551D01*
X246638Y-131767D01*
X246584Y-131729D01*
X246536Y-131684D01*
X246492Y-131666D01*
X246453Y-131639D01*
X246390Y-131622D01*
X246329Y-131597D01*
X246282Y-131595D01*
X246236Y-131583D01*
X246171Y-131590D01*
X246105Y-131587D01*
X246060Y-131601D01*
X246013Y-131606D01*
X245954Y-131635D01*
X245891Y-131655D01*
X245847Y-131688D01*
X245812Y-131705D01*
X245785Y-131734D01*
X245741Y-131767D01*
X243967Y-133541D01*
X241033Y-133541D01*
X238959Y-131467D01*
X238959Y-128533D01*
X241033Y-126459D01*
X243967Y-126459D01*
X245481Y-127973D01*
X245535Y-128011D01*
X245583Y-128056D01*
X245626Y-128074D01*
X245665Y-128101D01*
X245728Y-128118D01*
X245789Y-128143D01*
X245836Y-128145D01*
X245882Y-128157D01*
X245948Y-128150D01*
X246013Y-128153D01*
X246058Y-128139D01*
X246105Y-128134D01*
X246164Y-128105D01*
X246227Y-128085D01*
X246271Y-128052D01*
X246306Y-128035D01*
X246333Y-128006D01*
X246378Y-127973D01*
X248422Y-125929D01*
X250825Y-125929D01*
X250890Y-125918D01*
X250956Y-125916D01*
X250999Y-125898D01*
X251046Y-125890D01*
X251103Y-125856D01*
X251163Y-125831D01*
X251198Y-125800D01*
X251239Y-125775D01*
X251281Y-125724D01*
X251329Y-125680D01*
X251351Y-125638D01*
X251380Y-125601D01*
X251401Y-125539D01*
X251432Y-125480D01*
X251440Y-125426D01*
X251452Y-125389D01*
X251451Y-125349D01*
X251459Y-125295D01*
X251459Y-123533D01*
X253533Y-121459D01*
X256467Y-121459D01*
X258541Y-123533D01*
X258541Y-126467D01*
X256467Y-128541D01*
X254445Y-128541D01*
X254380Y-128552D01*
X254314Y-128554D01*
X254271Y-128572D01*
X254224Y-128580D01*
X254167Y-128614D01*
X254107Y-128639D01*
X254072Y-128670D01*
X254031Y-128695D01*
X253989Y-128746D01*
X253941Y-128790D01*
X253919Y-128832D01*
X253890Y-128869D01*
X253869Y-128931D01*
X253838Y-128990D01*
X253830Y-129044D01*
X253818Y-129081D01*
X253819Y-129121D01*
X253811Y-129175D01*
X253811Y-131318D01*
X251578Y-133551D01*
X248422Y-133551D01*
G37*
%LPD*%
%LPC*%
G36*
X51033Y43959D02*
X51033Y43959D01*
X48959Y46033D01*
X48959Y48967D01*
X51033Y51041D01*
X53967Y51041D01*
X55107Y49901D01*
X55180Y49850D01*
X55249Y49794D01*
X55271Y49786D01*
X55291Y49773D01*
X55377Y49751D01*
X55461Y49722D01*
X55485Y49723D01*
X55508Y49717D01*
X55597Y49726D01*
X55686Y49729D01*
X55708Y49738D01*
X55731Y49740D01*
X55811Y49780D01*
X55893Y49813D01*
X55911Y49829D01*
X55932Y49839D01*
X55993Y49904D01*
X56059Y49964D01*
X56070Y49985D01*
X56086Y50003D01*
X56121Y50085D01*
X56162Y50164D01*
X56165Y50190D01*
X56174Y50209D01*
X56176Y50260D01*
X56189Y50349D01*
X56189Y51718D01*
X58422Y53951D01*
X61578Y53951D01*
X63811Y51718D01*
X63811Y48562D01*
X61578Y46329D01*
X58422Y46329D01*
X57123Y47627D01*
X57050Y47678D01*
X56981Y47734D01*
X56959Y47742D01*
X56939Y47755D01*
X56853Y47778D01*
X56769Y47806D01*
X56745Y47805D01*
X56722Y47811D01*
X56633Y47802D01*
X56544Y47800D01*
X56522Y47791D01*
X56499Y47788D01*
X56419Y47749D01*
X56337Y47715D01*
X56319Y47699D01*
X56298Y47689D01*
X56237Y47624D01*
X56171Y47564D01*
X56160Y47543D01*
X56144Y47525D01*
X56109Y47444D01*
X56068Y47364D01*
X56065Y47338D01*
X56056Y47319D01*
X56054Y47268D01*
X56041Y47179D01*
X56041Y46033D01*
X53967Y43959D01*
X51033Y43959D01*
G37*
%LPD*%
%LPC*%
G36*
X351033Y21459D02*
X351033Y21459D01*
X348959Y23533D01*
X348959Y26467D01*
X351033Y28541D01*
X353967Y28541D01*
X355801Y26706D01*
X355856Y26668D01*
X355903Y26623D01*
X355947Y26605D01*
X355986Y26578D01*
X356049Y26561D01*
X356110Y26536D01*
X356157Y26534D01*
X356203Y26522D01*
X356268Y26529D01*
X356334Y26526D01*
X356379Y26540D01*
X356426Y26545D01*
X356485Y26574D01*
X356548Y26594D01*
X356592Y26627D01*
X356627Y26644D01*
X356654Y26673D01*
X356698Y26706D01*
X358533Y28541D01*
X361467Y28541D01*
X363541Y26467D01*
X363541Y23533D01*
X361467Y21459D01*
X358533Y21459D01*
X356698Y23294D01*
X356644Y23332D01*
X356597Y23377D01*
X356553Y23395D01*
X356514Y23422D01*
X356451Y23439D01*
X356390Y23464D01*
X356343Y23466D01*
X356297Y23478D01*
X356232Y23471D01*
X356166Y23474D01*
X356121Y23460D01*
X356074Y23455D01*
X356015Y23426D01*
X355952Y23406D01*
X355908Y23373D01*
X355873Y23356D01*
X355846Y23327D01*
X355801Y23294D01*
X353967Y21459D01*
X351033Y21459D01*
G37*
%LPD*%
%LPC*%
G36*
X271033Y66459D02*
X271033Y66459D01*
X268959Y68533D01*
X268959Y71467D01*
X270369Y72877D01*
X270420Y72950D01*
X270476Y73019D01*
X270484Y73041D01*
X270497Y73061D01*
X270519Y73147D01*
X270548Y73231D01*
X270547Y73255D01*
X270553Y73278D01*
X270544Y73367D01*
X270541Y73456D01*
X270532Y73478D01*
X270530Y73501D01*
X270490Y73581D01*
X270457Y73663D01*
X270441Y73681D01*
X270431Y73702D01*
X270366Y73763D01*
X270306Y73829D01*
X270285Y73840D01*
X270267Y73856D01*
X270185Y73891D01*
X270106Y73932D01*
X270080Y73935D01*
X270061Y73944D01*
X270010Y73946D01*
X269921Y73959D01*
X268533Y73959D01*
X266459Y76033D01*
X266459Y78967D01*
X268533Y81041D01*
X271467Y81041D01*
X273541Y78967D01*
X273541Y76033D01*
X272131Y74623D01*
X272080Y74550D01*
X272024Y74481D01*
X272016Y74459D01*
X272003Y74439D01*
X271981Y74353D01*
X271952Y74269D01*
X271953Y74245D01*
X271947Y74222D01*
X271956Y74133D01*
X271959Y74044D01*
X271968Y74022D01*
X271970Y73999D01*
X272010Y73919D01*
X272043Y73837D01*
X272059Y73819D01*
X272069Y73798D01*
X272134Y73737D01*
X272194Y73671D01*
X272215Y73660D01*
X272233Y73644D01*
X272315Y73609D01*
X272394Y73568D01*
X272420Y73565D01*
X272439Y73556D01*
X272490Y73554D01*
X272579Y73541D01*
X273967Y73541D01*
X276041Y71467D01*
X276041Y68533D01*
X273967Y66459D01*
X271033Y66459D01*
G37*
%LPD*%
%LPC*%
G36*
X148533Y-41041D02*
X148533Y-41041D01*
X146459Y-38967D01*
X146459Y-36033D01*
X148533Y-33959D01*
X150825Y-33959D01*
X150890Y-33948D01*
X150956Y-33946D01*
X150999Y-33928D01*
X151046Y-33920D01*
X151103Y-33886D01*
X151163Y-33861D01*
X151198Y-33830D01*
X151239Y-33805D01*
X151281Y-33754D01*
X151329Y-33710D01*
X151351Y-33668D01*
X151380Y-33631D01*
X151401Y-33569D01*
X151432Y-33510D01*
X151440Y-33456D01*
X151452Y-33419D01*
X151451Y-33379D01*
X151459Y-33325D01*
X151459Y-31033D01*
X153533Y-28959D01*
X156467Y-28959D01*
X158541Y-31033D01*
X158541Y-33967D01*
X156467Y-36041D01*
X154175Y-36041D01*
X154110Y-36052D01*
X154044Y-36054D01*
X154001Y-36072D01*
X153954Y-36080D01*
X153897Y-36114D01*
X153837Y-36139D01*
X153802Y-36170D01*
X153761Y-36195D01*
X153719Y-36246D01*
X153671Y-36290D01*
X153649Y-36332D01*
X153620Y-36369D01*
X153599Y-36431D01*
X153568Y-36490D01*
X153560Y-36544D01*
X153548Y-36581D01*
X153549Y-36621D01*
X153541Y-36675D01*
X153541Y-38967D01*
X151467Y-41041D01*
X148533Y-41041D01*
G37*
%LPD*%
%LPC*%
G36*
X-223967Y-196041D02*
X-223967Y-196041D01*
X-226041Y-193967D01*
X-226041Y-191033D01*
X-223967Y-188959D01*
X-221675Y-188959D01*
X-221610Y-188948D01*
X-221544Y-188946D01*
X-221501Y-188928D01*
X-221454Y-188920D01*
X-221397Y-188886D01*
X-221337Y-188861D01*
X-221302Y-188830D01*
X-221261Y-188805D01*
X-221219Y-188754D01*
X-221171Y-188710D01*
X-221149Y-188668D01*
X-221120Y-188631D01*
X-221099Y-188569D01*
X-221068Y-188510D01*
X-221060Y-188456D01*
X-221048Y-188419D01*
X-221049Y-188379D01*
X-221041Y-188325D01*
X-221041Y-186033D01*
X-218967Y-183959D01*
X-216033Y-183959D01*
X-213959Y-186033D01*
X-213959Y-188967D01*
X-216033Y-191041D01*
X-218325Y-191041D01*
X-218390Y-191052D01*
X-218456Y-191054D01*
X-218499Y-191072D01*
X-218546Y-191080D01*
X-218603Y-191114D01*
X-218663Y-191139D01*
X-218698Y-191170D01*
X-218739Y-191195D01*
X-218781Y-191246D01*
X-218829Y-191290D01*
X-218851Y-191332D01*
X-218880Y-191369D01*
X-218901Y-191431D01*
X-218932Y-191490D01*
X-218940Y-191544D01*
X-218952Y-191581D01*
X-218951Y-191621D01*
X-218959Y-191675D01*
X-218959Y-193967D01*
X-221033Y-196041D01*
X-223967Y-196041D01*
G37*
%LPD*%
%LPC*%
G36*
X148533Y103959D02*
X148533Y103959D01*
X146459Y106033D01*
X146459Y108967D01*
X148533Y111041D01*
X150825Y111041D01*
X150890Y111052D01*
X150956Y111054D01*
X150999Y111072D01*
X151046Y111080D01*
X151103Y111114D01*
X151163Y111139D01*
X151198Y111170D01*
X151239Y111195D01*
X151281Y111246D01*
X151329Y111290D01*
X151351Y111332D01*
X151380Y111369D01*
X151401Y111431D01*
X151432Y111490D01*
X151440Y111544D01*
X151452Y111581D01*
X151451Y111621D01*
X151459Y111675D01*
X151459Y113967D01*
X153533Y116041D01*
X156467Y116041D01*
X158541Y113967D01*
X158541Y111033D01*
X156467Y108959D01*
X154175Y108959D01*
X154110Y108948D01*
X154044Y108946D01*
X154001Y108928D01*
X153954Y108920D01*
X153897Y108886D01*
X153837Y108861D01*
X153802Y108830D01*
X153761Y108805D01*
X153719Y108754D01*
X153671Y108710D01*
X153649Y108668D01*
X153620Y108631D01*
X153599Y108569D01*
X153568Y108510D01*
X153560Y108456D01*
X153548Y108419D01*
X153549Y108379D01*
X153541Y108325D01*
X153541Y106033D01*
X151467Y103959D01*
X148533Y103959D01*
G37*
%LPD*%
%LPC*%
G36*
X291033Y111459D02*
X291033Y111459D01*
X288959Y113533D01*
X288959Y116467D01*
X291033Y118541D01*
X293325Y118541D01*
X293390Y118552D01*
X293456Y118554D01*
X293499Y118572D01*
X293546Y118580D01*
X293603Y118614D01*
X293663Y118639D01*
X293698Y118670D01*
X293739Y118695D01*
X293781Y118746D01*
X293829Y118790D01*
X293851Y118832D01*
X293880Y118869D01*
X293901Y118931D01*
X293932Y118990D01*
X293940Y119044D01*
X293952Y119081D01*
X293951Y119121D01*
X293959Y119175D01*
X293959Y121467D01*
X296033Y123541D01*
X298967Y123541D01*
X301041Y121467D01*
X301041Y118533D01*
X298967Y116459D01*
X296675Y116459D01*
X296610Y116448D01*
X296544Y116446D01*
X296501Y116428D01*
X296454Y116420D01*
X296397Y116386D01*
X296337Y116361D01*
X296302Y116330D01*
X296261Y116305D01*
X296219Y116254D01*
X296171Y116210D01*
X296149Y116168D01*
X296120Y116131D01*
X296099Y116069D01*
X296068Y116010D01*
X296060Y115956D01*
X296048Y115919D01*
X296048Y115895D01*
X296048Y115893D01*
X296048Y115875D01*
X296041Y115825D01*
X296041Y113533D01*
X293967Y111459D01*
X291033Y111459D01*
G37*
%LPD*%
%LPC*%
G36*
X-271842Y128209D02*
X-271842Y128209D01*
X-274446Y130813D01*
X-274446Y134497D01*
X-271842Y137101D01*
X-268158Y137101D01*
X-265554Y134497D01*
X-265554Y130813D01*
X-268158Y128209D01*
X-271842Y128209D01*
G37*
%LPD*%
%LPC*%
G36*
X-98842Y279359D02*
X-98842Y279359D01*
X-101446Y281963D01*
X-101446Y285647D01*
X-98842Y288251D01*
X-95158Y288251D01*
X-92554Y285647D01*
X-92554Y281963D01*
X-95158Y279359D01*
X-98842Y279359D01*
G37*
%LPD*%
%LPC*%
G36*
X-270787Y-276946D02*
X-270787Y-276946D01*
X-273391Y-274342D01*
X-273391Y-270658D01*
X-270787Y-268054D01*
X-267103Y-268054D01*
X-264499Y-270658D01*
X-264499Y-274342D01*
X-267103Y-276946D01*
X-270787Y-276946D01*
G37*
%LPD*%
%LPC*%
G36*
X-271842Y182899D02*
X-271842Y182899D01*
X-274446Y185503D01*
X-274446Y189187D01*
X-271842Y191791D01*
X-268158Y191791D01*
X-265554Y189187D01*
X-265554Y185503D01*
X-268158Y182899D01*
X-271842Y182899D01*
G37*
%LPD*%
%LPC*%
G36*
X-241842Y122899D02*
X-241842Y122899D01*
X-244446Y125503D01*
X-244446Y129187D01*
X-241842Y131791D01*
X-238158Y131791D01*
X-235554Y129187D01*
X-235554Y125503D01*
X-238158Y122899D01*
X-241842Y122899D01*
G37*
%LPD*%
%LPC*%
G36*
X353158Y150554D02*
X353158Y150554D01*
X350554Y153158D01*
X350554Y156842D01*
X353158Y159446D01*
X356842Y159446D01*
X359446Y156842D01*
X359446Y153158D01*
X356842Y150554D01*
X353158Y150554D01*
G37*
%LPD*%
%LPC*%
G36*
X-302342Y102108D02*
X-302342Y102108D01*
X-304946Y104712D01*
X-304946Y108396D01*
X-302342Y111000D01*
X-298658Y111000D01*
X-296054Y108396D01*
X-296054Y104712D01*
X-298658Y102108D01*
X-302342Y102108D01*
G37*
%LPD*%
%LPC*%
G36*
X-149287Y143054D02*
X-149287Y143054D01*
X-151891Y145658D01*
X-151891Y149342D01*
X-149287Y151946D01*
X-145603Y151946D01*
X-142999Y149342D01*
X-142999Y145658D01*
X-145603Y143054D01*
X-149287Y143054D01*
G37*
%LPD*%
%LPC*%
G36*
X-51842Y-13951D02*
X-51842Y-13951D01*
X-54446Y-11347D01*
X-54446Y-7663D01*
X-51842Y-5059D01*
X-48158Y-5059D01*
X-45554Y-7663D01*
X-45554Y-11347D01*
X-48158Y-13951D01*
X-51842Y-13951D01*
G37*
%LPD*%
%LPC*%
G36*
X-413842Y-266891D02*
X-413842Y-266891D01*
X-416446Y-264287D01*
X-416446Y-260603D01*
X-413842Y-257999D01*
X-410158Y-257999D01*
X-407554Y-260603D01*
X-407554Y-264287D01*
X-410158Y-266891D01*
X-413842Y-266891D01*
G37*
%LPD*%
%LPC*%
G36*
X-241842Y68209D02*
X-241842Y68209D01*
X-244446Y70813D01*
X-244446Y74497D01*
X-241842Y77101D01*
X-238158Y77101D01*
X-235554Y74497D01*
X-235554Y70813D01*
X-238158Y68209D01*
X-241842Y68209D01*
G37*
%LPD*%
%LPC*%
G36*
X-302342Y149000D02*
X-302342Y149000D01*
X-304946Y151604D01*
X-304946Y155288D01*
X-302342Y157892D01*
X-298658Y157892D01*
X-296054Y155288D01*
X-296054Y151604D01*
X-298658Y149000D01*
X-302342Y149000D01*
G37*
%LPD*%
%LPC*%
G36*
X-377397Y-279446D02*
X-377397Y-279446D01*
X-380001Y-276842D01*
X-380001Y-273158D01*
X-377397Y-270554D01*
X-373713Y-270554D01*
X-371109Y-273158D01*
X-371109Y-276842D01*
X-373713Y-279446D01*
X-377397Y-279446D01*
G37*
%LPD*%
%LPC*%
G36*
X-194397Y143054D02*
X-194397Y143054D01*
X-197001Y145658D01*
X-197001Y149342D01*
X-194397Y151946D01*
X-190713Y151946D01*
X-188109Y149342D01*
X-188109Y145658D01*
X-190713Y143054D01*
X-194397Y143054D01*
G37*
%LPD*%
%LPC*%
G36*
X-311842Y196049D02*
X-311842Y196049D01*
X-314446Y198653D01*
X-314446Y202337D01*
X-311842Y204941D01*
X-308158Y204941D01*
X-305554Y202337D01*
X-305554Y198653D01*
X-308158Y196049D01*
X-311842Y196049D01*
G37*
%LPD*%
%LPC*%
G36*
X-32351Y-149794D02*
X-32351Y-149794D01*
X-33854Y-149305D01*
X-35262Y-148588D01*
X-36541Y-147659D01*
X-37659Y-146541D01*
X-38588Y-145262D01*
X-39305Y-143854D01*
X-39794Y-142351D01*
X-39965Y-141269D01*
X-31269Y-141269D01*
X-31269Y-149965D01*
X-32351Y-149794D01*
G37*
%LPD*%
%LPC*%
G36*
X-39965Y-138731D02*
X-39965Y-138731D01*
X-39794Y-137649D01*
X-39305Y-136146D01*
X-38588Y-134738D01*
X-37659Y-133459D01*
X-36541Y-132341D01*
X-35262Y-131412D01*
X-33854Y-130695D01*
X-32351Y-130206D01*
X-31269Y-130035D01*
X-31269Y-138731D01*
X-39965Y-138731D01*
G37*
%LPD*%
%LPC*%
G36*
X-28731Y-141269D02*
X-28731Y-141269D01*
X-20035Y-141269D01*
X-20206Y-142351D01*
X-20695Y-143854D01*
X-21412Y-145262D01*
X-22341Y-146541D01*
X-23459Y-147659D01*
X-24738Y-148588D01*
X-26146Y-149305D01*
X-27649Y-149794D01*
X-28731Y-149965D01*
X-28731Y-141269D01*
G37*
%LPD*%
%LPC*%
G36*
X-28731Y-138731D02*
X-28731Y-138731D01*
X-28731Y-130035D01*
X-27649Y-130206D01*
X-26146Y-130695D01*
X-24738Y-131412D01*
X-23459Y-132341D01*
X-22341Y-133459D01*
X-21412Y-134738D01*
X-20695Y-136146D01*
X-20206Y-137649D01*
X-20035Y-138731D01*
X-28731Y-138731D01*
G37*
%LPD*%
%LPC*%
G36*
X130612Y-338811D02*
X130612Y-338811D01*
X128379Y-336578D01*
X128379Y-333422D01*
X130612Y-331189D01*
X133768Y-331189D01*
X136001Y-333422D01*
X136001Y-336578D01*
X133768Y-338811D01*
X130612Y-338811D01*
G37*
%LPD*%
%LPC*%
G36*
X-311578Y96049D02*
X-311578Y96049D01*
X-313811Y98282D01*
X-313811Y101438D01*
X-311578Y103671D01*
X-308422Y103671D01*
X-306189Y101438D01*
X-306189Y98282D01*
X-308422Y96049D01*
X-311578Y96049D01*
G37*
%LPD*%
%LPC*%
G36*
X226232Y-338811D02*
X226232Y-338811D01*
X223999Y-336578D01*
X223999Y-333422D01*
X226232Y-331189D01*
X229388Y-331189D01*
X231621Y-333422D01*
X231621Y-336578D01*
X229388Y-338811D01*
X226232Y-338811D01*
G37*
%LPD*%
%LPC*%
G36*
X228422Y306049D02*
X228422Y306049D01*
X226189Y308282D01*
X226189Y311438D01*
X228422Y313671D01*
X231578Y313671D01*
X233811Y311438D01*
X233811Y308282D01*
X231578Y306049D01*
X228422Y306049D01*
G37*
%LPD*%
%LPC*%
G36*
X74112Y93439D02*
X74112Y93439D01*
X71880Y95672D01*
X71880Y98828D01*
X74112Y101061D01*
X77269Y101061D01*
X79501Y98828D01*
X79501Y95672D01*
X77269Y93439D01*
X74112Y93439D01*
G37*
%LPD*%
%LPC*%
G36*
X81067Y86939D02*
X81067Y86939D01*
X78834Y89172D01*
X78834Y92328D01*
X81067Y94561D01*
X84223Y94561D01*
X86456Y92328D01*
X86456Y89172D01*
X84223Y86939D01*
X81067Y86939D01*
G37*
%LPD*%
%LPC*%
G36*
X255922Y85759D02*
X255922Y85759D01*
X253689Y87992D01*
X253689Y91148D01*
X255922Y93381D01*
X259078Y93381D01*
X261311Y91148D01*
X261311Y87992D01*
X259078Y85759D01*
X255922Y85759D01*
G37*
%LPD*%
%LPC*%
G36*
X318422Y306049D02*
X318422Y306049D01*
X316189Y308282D01*
X316189Y311438D01*
X318422Y313671D01*
X321578Y313671D01*
X323811Y311438D01*
X323811Y308282D01*
X321578Y306049D01*
X318422Y306049D01*
G37*
%LPD*%
%LPC*%
G36*
X-233268Y-311311D02*
X-233268Y-311311D01*
X-235501Y-309078D01*
X-235501Y-305922D01*
X-233268Y-303689D01*
X-230112Y-303689D01*
X-227879Y-305922D01*
X-227879Y-309078D01*
X-230112Y-311311D01*
X-233268Y-311311D01*
G37*
%LPD*%
%LPC*%
G36*
X275232Y-289811D02*
X275232Y-289811D01*
X272999Y-287578D01*
X272999Y-284422D01*
X275232Y-282189D01*
X278388Y-282189D01*
X280621Y-284422D01*
X280621Y-287578D01*
X278388Y-289811D01*
X275232Y-289811D01*
G37*
%LPD*%
%LPC*%
G36*
X-358388Y-289811D02*
X-358388Y-289811D01*
X-360621Y-287578D01*
X-360621Y-284422D01*
X-358388Y-282189D01*
X-355232Y-282189D01*
X-352999Y-284422D01*
X-352999Y-287578D01*
X-355232Y-289811D01*
X-358388Y-289811D01*
G37*
%LPD*%
%LPC*%
G36*
X175777Y112939D02*
X175777Y112939D01*
X173544Y115172D01*
X173544Y118328D01*
X175777Y120561D01*
X178933Y120561D01*
X181166Y118328D01*
X181166Y115172D01*
X178933Y112939D01*
X175777Y112939D01*
G37*
%LPD*%
%LPC*%
G36*
X81612Y-289811D02*
X81612Y-289811D01*
X79379Y-287578D01*
X79379Y-284422D01*
X81612Y-282189D01*
X84768Y-282189D01*
X87001Y-284422D01*
X87001Y-287578D01*
X84768Y-289811D01*
X81612Y-289811D01*
G37*
%LPD*%
%LPC*%
G36*
X-199388Y-288811D02*
X-199388Y-288811D01*
X-201621Y-286578D01*
X-201621Y-283422D01*
X-199388Y-281189D01*
X-196232Y-281189D01*
X-193999Y-283422D01*
X-193999Y-286578D01*
X-196232Y-288811D01*
X-199388Y-288811D01*
G37*
%LPD*%
%LPC*%
G36*
X-103768Y-288811D02*
X-103768Y-288811D01*
X-106001Y-286578D01*
X-106001Y-283422D01*
X-103768Y-281189D01*
X-100612Y-281189D01*
X-98379Y-283422D01*
X-98379Y-286578D01*
X-100612Y-288811D01*
X-103768Y-288811D01*
G37*
%LPD*%
%LPC*%
G36*
X354612Y-278811D02*
X354612Y-278811D01*
X352379Y-276578D01*
X352379Y-273422D01*
X354612Y-271189D01*
X357768Y-271189D01*
X360001Y-273422D01*
X360001Y-276578D01*
X357768Y-278811D01*
X354612Y-278811D01*
G37*
%LPD*%
%LPC*%
G36*
X-124578Y280629D02*
X-124578Y280629D01*
X-126811Y282862D01*
X-126811Y286018D01*
X-124578Y288251D01*
X-121422Y288251D01*
X-119189Y286018D01*
X-119189Y282862D01*
X-121422Y280629D01*
X-124578Y280629D01*
G37*
%LPD*%
%LPC*%
G36*
X-335078Y247199D02*
X-335078Y247199D01*
X-337311Y249432D01*
X-337311Y252588D01*
X-335078Y254821D01*
X-331922Y254821D01*
X-329689Y252588D01*
X-329689Y249432D01*
X-331922Y247199D01*
X-335078Y247199D01*
G37*
%LPD*%
%LPC*%
G36*
X130612Y-268811D02*
X130612Y-268811D01*
X128379Y-266578D01*
X128379Y-263422D01*
X130612Y-261189D01*
X133768Y-261189D01*
X136001Y-263422D01*
X136001Y-266578D01*
X133768Y-268811D01*
X130612Y-268811D01*
G37*
%LPD*%
%LPC*%
G36*
X81067Y119439D02*
X81067Y119439D01*
X78834Y121672D01*
X78834Y124828D01*
X81067Y127061D01*
X84223Y127061D01*
X86456Y124828D01*
X86456Y121672D01*
X84223Y119439D01*
X81067Y119439D01*
G37*
%LPD*%
%LPC*%
G36*
X226232Y-268811D02*
X226232Y-268811D01*
X223999Y-266578D01*
X223999Y-263422D01*
X226232Y-261189D01*
X229388Y-261189D01*
X231621Y-263422D01*
X231621Y-266578D01*
X229388Y-268811D01*
X226232Y-268811D01*
G37*
%LPD*%
%LPC*%
G36*
X228422Y216329D02*
X228422Y216329D01*
X226189Y218562D01*
X226189Y221718D01*
X228422Y223951D01*
X231578Y223951D01*
X233811Y221718D01*
X233811Y218562D01*
X231578Y216329D01*
X228422Y216329D01*
G37*
%LPD*%
%LPC*%
G36*
X198422Y126049D02*
X198422Y126049D01*
X196189Y128282D01*
X196189Y131438D01*
X198422Y133671D01*
X201578Y133671D01*
X203811Y131438D01*
X203811Y128282D01*
X201578Y126049D01*
X198422Y126049D01*
G37*
%LPD*%
%LPC*%
G36*
X-34328Y126576D02*
X-34328Y126576D01*
X-36561Y128808D01*
X-36561Y131965D01*
X-34328Y134197D01*
X-31172Y134197D01*
X-28939Y131965D01*
X-28939Y128808D01*
X-31172Y126576D01*
X-34328Y126576D01*
G37*
%LPD*%
%LPC*%
G36*
X318422Y216329D02*
X318422Y216329D01*
X316189Y218562D01*
X316189Y221718D01*
X318422Y223951D01*
X321578Y223951D01*
X323811Y221718D01*
X323811Y218562D01*
X321578Y216329D01*
X318422Y216329D01*
G37*
%LPD*%
%LPC*%
G36*
X255922Y206619D02*
X255922Y206619D01*
X253689Y208852D01*
X253689Y212008D01*
X255922Y214241D01*
X259078Y214241D01*
X261311Y212008D01*
X261311Y208852D01*
X259078Y206619D01*
X255922Y206619D01*
G37*
%LPD*%
%LPC*%
G36*
X298422Y36329D02*
X298422Y36329D01*
X296189Y38562D01*
X296189Y41718D01*
X298422Y43951D01*
X301578Y43951D01*
X303811Y41718D01*
X303811Y38562D01*
X301578Y36329D01*
X298422Y36329D01*
G37*
%LPD*%
%LPC*%
G36*
X258422Y36329D02*
X258422Y36329D01*
X256189Y38562D01*
X256189Y41718D01*
X258422Y43951D01*
X261578Y43951D01*
X263811Y41718D01*
X263811Y38562D01*
X261578Y36329D01*
X258422Y36329D01*
G37*
%LPD*%
%LPC*%
G36*
X-196978Y31229D02*
X-196978Y31229D01*
X-199211Y33462D01*
X-199211Y36618D01*
X-196978Y38851D01*
X-193822Y38851D01*
X-191589Y36618D01*
X-191589Y33462D01*
X-193822Y31229D01*
X-196978Y31229D01*
G37*
%LPD*%
%LPC*%
G36*
X81612Y-217811D02*
X81612Y-217811D01*
X79379Y-215578D01*
X79379Y-212422D01*
X81612Y-210189D01*
X84768Y-210189D01*
X87001Y-212422D01*
X87001Y-215578D01*
X84768Y-217811D01*
X81612Y-217811D01*
G37*
%LPD*%
%LPC*%
G36*
X-358388Y-217811D02*
X-358388Y-217811D01*
X-360621Y-215578D01*
X-360621Y-212422D01*
X-358388Y-210189D01*
X-355232Y-210189D01*
X-352999Y-212422D01*
X-352999Y-215578D01*
X-355232Y-217811D01*
X-358388Y-217811D01*
G37*
%LPD*%
%LPC*%
G36*
X275232Y-217811D02*
X275232Y-217811D01*
X272999Y-215578D01*
X272999Y-212422D01*
X275232Y-210189D01*
X278388Y-210189D01*
X280621Y-212422D01*
X280621Y-215578D01*
X278388Y-217811D01*
X275232Y-217811D01*
G37*
%LPD*%
%LPC*%
G36*
X130612Y-198811D02*
X130612Y-198811D01*
X128379Y-196578D01*
X128379Y-193422D01*
X130612Y-191189D01*
X133768Y-191189D01*
X136001Y-193422D01*
X136001Y-196578D01*
X133768Y-198811D01*
X130612Y-198811D01*
G37*
%LPD*%
%LPC*%
G36*
X226232Y-198811D02*
X226232Y-198811D01*
X223999Y-196578D01*
X223999Y-193422D01*
X226232Y-191189D01*
X229388Y-191189D01*
X231621Y-193422D01*
X231621Y-196578D01*
X229388Y-198811D01*
X226232Y-198811D01*
G37*
%LPD*%
%LPC*%
G36*
X68422Y199392D02*
X68422Y199392D01*
X66189Y201624D01*
X66189Y204781D01*
X68422Y207013D01*
X71578Y207013D01*
X73811Y204781D01*
X73811Y201624D01*
X71578Y199392D01*
X68422Y199392D01*
G37*
%LPD*%
%LPC*%
G36*
X-199388Y-188811D02*
X-199388Y-188811D01*
X-201621Y-186578D01*
X-201621Y-183422D01*
X-199388Y-181189D01*
X-196232Y-181189D01*
X-193999Y-183422D01*
X-193999Y-186578D01*
X-196232Y-188811D01*
X-199388Y-188811D01*
G37*
%LPD*%
%LPC*%
G36*
X-127588Y19689D02*
X-127588Y19689D01*
X-129821Y21922D01*
X-129821Y25078D01*
X-127588Y27311D01*
X-124432Y27311D01*
X-122199Y25078D01*
X-122199Y21922D01*
X-124432Y19689D01*
X-127588Y19689D01*
G37*
%LPD*%
%LPC*%
G36*
X-103768Y-188811D02*
X-103768Y-188811D01*
X-106001Y-186578D01*
X-106001Y-183422D01*
X-103768Y-181189D01*
X-100612Y-181189D01*
X-98379Y-183422D01*
X-98379Y-186578D01*
X-100612Y-188811D01*
X-103768Y-188811D01*
G37*
%LPD*%
%LPC*%
G36*
X-351578Y196449D02*
X-351578Y196449D01*
X-353811Y198682D01*
X-353811Y201838D01*
X-351578Y204071D01*
X-348422Y204071D01*
X-346189Y201838D01*
X-346189Y198682D01*
X-348422Y196449D01*
X-351578Y196449D01*
G37*
%LPD*%
%LPC*%
G36*
X58422Y186049D02*
X58422Y186049D01*
X56189Y188282D01*
X56189Y191438D01*
X58422Y193671D01*
X61578Y193671D01*
X63811Y191438D01*
X63811Y188282D01*
X61578Y186049D01*
X58422Y186049D01*
G37*
%LPD*%
%LPC*%
G36*
X-220388Y168689D02*
X-220388Y168689D01*
X-222621Y170922D01*
X-222621Y174078D01*
X-220388Y176311D01*
X-217232Y176311D01*
X-214999Y174078D01*
X-214999Y170922D01*
X-217232Y168689D01*
X-220388Y168689D01*
G37*
%LPD*%
%LPC*%
G36*
X-11578Y-11001D02*
X-11578Y-11001D01*
X-13811Y-8768D01*
X-13811Y-5612D01*
X-11578Y-3379D01*
X-8422Y-3379D01*
X-6189Y-5612D01*
X-6189Y-8768D01*
X-8422Y-11001D01*
X-11578Y-11001D01*
G37*
%LPD*%
%LPC*%
G36*
X-122768Y168689D02*
X-122768Y168689D01*
X-125001Y170922D01*
X-125001Y174078D01*
X-122768Y176311D01*
X-119612Y176311D01*
X-117379Y174078D01*
X-117379Y170922D01*
X-119612Y168689D01*
X-122768Y168689D01*
G37*
%LPD*%
%LPC*%
G36*
X28422Y-13951D02*
X28422Y-13951D01*
X26189Y-11718D01*
X26189Y-8562D01*
X28422Y-6329D01*
X31578Y-6329D01*
X33811Y-8562D01*
X33811Y-11718D01*
X31578Y-13951D01*
X28422Y-13951D01*
G37*
%LPD*%
%LPC*%
G36*
X58422Y136049D02*
X58422Y136049D01*
X56189Y138282D01*
X56189Y141438D01*
X58422Y143671D01*
X61578Y143671D01*
X63811Y141438D01*
X63811Y138282D01*
X61578Y136049D01*
X58422Y136049D01*
G37*
%LPD*%
%LPC*%
G36*
X81067Y138939D02*
X81067Y138939D01*
X78834Y141172D01*
X78834Y144328D01*
X81067Y146561D01*
X84223Y146561D01*
X86456Y144328D01*
X86456Y141172D01*
X84223Y138939D01*
X81067Y138939D01*
G37*
%LPD*%
%LPC*%
G36*
X-311578Y156329D02*
X-311578Y156329D01*
X-313811Y158562D01*
X-313811Y161718D01*
X-311578Y163951D01*
X-308422Y163951D01*
X-306189Y161718D01*
X-306189Y158562D01*
X-308422Y156329D01*
X-311578Y156329D01*
G37*
%LPD*%
%LPC*%
G36*
X104432Y-31111D02*
X104432Y-31111D01*
X102199Y-28878D01*
X102199Y-25722D01*
X104432Y-23489D01*
X107588Y-23489D01*
X109821Y-25722D01*
X109821Y-28878D01*
X107588Y-31111D01*
X104432Y-31111D01*
G37*
%LPD*%
%LPC*%
G36*
X-251578Y-133551D02*
X-251578Y-133551D01*
X-253811Y-131318D01*
X-253811Y-128162D01*
X-251578Y-125929D01*
X-248422Y-125929D01*
X-246189Y-128162D01*
X-246189Y-131318D01*
X-248422Y-133551D01*
X-251578Y-133551D01*
G37*
%LPD*%
%LPC*%
G36*
X-211578Y-133551D02*
X-211578Y-133551D01*
X-213811Y-131318D01*
X-213811Y-128162D01*
X-211578Y-125929D01*
X-208422Y-125929D01*
X-206189Y-128162D01*
X-206189Y-131318D01*
X-208422Y-133551D01*
X-211578Y-133551D01*
G37*
%LPD*%
%LPC*%
G36*
X288422Y-133551D02*
X288422Y-133551D01*
X286189Y-131318D01*
X286189Y-128162D01*
X288422Y-125929D01*
X291578Y-125929D01*
X293811Y-128162D01*
X293811Y-131318D01*
X291578Y-133551D01*
X288422Y-133551D01*
G37*
%LPD*%
%LPC*%
G36*
X104432Y-107311D02*
X104432Y-107311D01*
X102199Y-105078D01*
X102199Y-101922D01*
X104432Y-99689D01*
X107588Y-99689D01*
X109821Y-101922D01*
X109821Y-105078D01*
X107588Y-107311D01*
X104432Y-107311D01*
G37*
%LPD*%
%LPC*%
G36*
X-51578Y-53671D02*
X-51578Y-53671D01*
X-53811Y-51438D01*
X-53811Y-48282D01*
X-51578Y-46049D01*
X-48422Y-46049D01*
X-46189Y-48282D01*
X-46189Y-51438D01*
X-48422Y-53671D01*
X-51578Y-53671D01*
G37*
%LPD*%
%LPC*%
G36*
X-127588Y-56511D02*
X-127588Y-56511D01*
X-129821Y-54278D01*
X-129821Y-51122D01*
X-127588Y-48889D01*
X-124432Y-48889D01*
X-122199Y-51122D01*
X-122199Y-54278D01*
X-124432Y-56511D01*
X-127588Y-56511D01*
G37*
%LPD*%
%LPC*%
G36*
X313533Y-61041D02*
X313533Y-61041D01*
X311459Y-58967D01*
X311459Y-56033D01*
X313533Y-53959D01*
X316467Y-53959D01*
X318541Y-56033D01*
X318541Y-58967D01*
X316467Y-61041D01*
X313533Y-61041D01*
G37*
%LPD*%
%LPC*%
G36*
X51033Y-73541D02*
X51033Y-73541D01*
X48959Y-71467D01*
X48959Y-68533D01*
X51033Y-66459D01*
X53967Y-66459D01*
X56041Y-68533D01*
X56041Y-71467D01*
X53967Y-73541D01*
X51033Y-73541D01*
G37*
%LPD*%
%LPC*%
G36*
X66033Y-73541D02*
X66033Y-73541D01*
X63959Y-71467D01*
X63959Y-68533D01*
X66033Y-66459D01*
X68967Y-66459D01*
X71041Y-68533D01*
X71041Y-71467D01*
X68967Y-73541D01*
X66033Y-73541D01*
G37*
%LPD*%
%LPC*%
G36*
X-18967Y83959D02*
X-18967Y83959D01*
X-21041Y86033D01*
X-21041Y88967D01*
X-18967Y91041D01*
X-16033Y91041D01*
X-13959Y88967D01*
X-13959Y86033D01*
X-16033Y83959D01*
X-18967Y83959D01*
G37*
%LPD*%
%LPC*%
G36*
X-8967Y73959D02*
X-8967Y73959D01*
X-11041Y76033D01*
X-11041Y78967D01*
X-8967Y81041D01*
X-6033Y81041D01*
X-3959Y78967D01*
X-3959Y76033D01*
X-6033Y73959D01*
X-8967Y73959D01*
G37*
%LPD*%
%LPC*%
G36*
X-98967Y-91041D02*
X-98967Y-91041D01*
X-101041Y-88967D01*
X-101041Y-86033D01*
X-98967Y-83959D01*
X-96033Y-83959D01*
X-93959Y-86033D01*
X-93959Y-88967D01*
X-96033Y-91041D01*
X-98967Y-91041D01*
G37*
%LPD*%
%LPC*%
G36*
X-18967Y71459D02*
X-18967Y71459D01*
X-21041Y73533D01*
X-21041Y76467D01*
X-18967Y78541D01*
X-16033Y78541D01*
X-13959Y76467D01*
X-13959Y73533D01*
X-16033Y71459D01*
X-18967Y71459D01*
G37*
%LPD*%
%LPC*%
G36*
X-336467Y-126041D02*
X-336467Y-126041D01*
X-338541Y-123967D01*
X-338541Y-121033D01*
X-336467Y-118959D01*
X-333533Y-118959D01*
X-331459Y-121033D01*
X-331459Y-123967D01*
X-333533Y-126041D01*
X-336467Y-126041D01*
G37*
%LPD*%
%LPC*%
G36*
X311033Y48959D02*
X311033Y48959D01*
X308959Y51033D01*
X308959Y53967D01*
X311033Y56041D01*
X313967Y56041D01*
X316041Y53967D01*
X316041Y51033D01*
X313967Y48959D01*
X311033Y48959D01*
G37*
%LPD*%
%LPC*%
G36*
X313533Y143959D02*
X313533Y143959D01*
X311459Y146033D01*
X311459Y148967D01*
X313533Y151041D01*
X316467Y151041D01*
X318541Y148967D01*
X318541Y146033D01*
X316467Y143959D01*
X313533Y143959D01*
G37*
%LPD*%
%LPC*%
G36*
X291033Y-38541D02*
X291033Y-38541D01*
X288959Y-36467D01*
X288959Y-33533D01*
X291033Y-31459D01*
X293967Y-31459D01*
X296041Y-33533D01*
X296041Y-36467D01*
X293967Y-38541D01*
X291033Y-38541D01*
G37*
%LPD*%
%LPC*%
G36*
X278533Y141459D02*
X278533Y141459D01*
X276459Y143533D01*
X276459Y146467D01*
X278533Y148541D01*
X281467Y148541D01*
X283541Y146467D01*
X283541Y143533D01*
X281467Y141459D01*
X278533Y141459D01*
G37*
%LPD*%
%LPC*%
G36*
X306033Y126459D02*
X306033Y126459D01*
X303959Y128533D01*
X303959Y131467D01*
X306033Y133541D01*
X308967Y133541D01*
X311041Y131467D01*
X311041Y128533D01*
X308967Y126459D01*
X306033Y126459D01*
G37*
%LPD*%
%LPC*%
G36*
X278533Y-26041D02*
X278533Y-26041D01*
X276459Y-23967D01*
X276459Y-21033D01*
X278533Y-18959D01*
X281467Y-18959D01*
X283541Y-21033D01*
X283541Y-23967D01*
X281467Y-26041D01*
X278533Y-26041D01*
G37*
%LPD*%
%LPC*%
G36*
X296033Y168959D02*
X296033Y168959D01*
X293959Y171033D01*
X293959Y173967D01*
X296033Y176041D01*
X298967Y176041D01*
X301041Y173967D01*
X301041Y171033D01*
X298967Y168959D01*
X296033Y168959D01*
G37*
%LPD*%
%LPC*%
G36*
X-33967Y38959D02*
X-33967Y38959D01*
X-36041Y41033D01*
X-36041Y43967D01*
X-33967Y46041D01*
X-31033Y46041D01*
X-28959Y43967D01*
X-28959Y41033D01*
X-31033Y38959D01*
X-33967Y38959D01*
G37*
%LPD*%
%LPC*%
G36*
X266033Y-8541D02*
X266033Y-8541D01*
X263959Y-6467D01*
X263959Y-3533D01*
X266033Y-1459D01*
X268967Y-1459D01*
X271041Y-3533D01*
X271041Y-6467D01*
X268967Y-8541D01*
X266033Y-8541D01*
G37*
%LPD*%
%LPC*%
G36*
X226033Y-143541D02*
X226033Y-143541D01*
X223959Y-141467D01*
X223959Y-138533D01*
X226033Y-136459D01*
X228967Y-136459D01*
X231041Y-138533D01*
X231041Y-141467D01*
X228967Y-143541D01*
X226033Y-143541D01*
G37*
%LPD*%
%LPC*%
G36*
X-56467Y38959D02*
X-56467Y38959D01*
X-58541Y41033D01*
X-58541Y43967D01*
X-56467Y46041D01*
X-53533Y46041D01*
X-51459Y43967D01*
X-51459Y41033D01*
X-53533Y38959D01*
X-56467Y38959D01*
G37*
%LPD*%
%LPC*%
G36*
X-223967Y31459D02*
X-223967Y31459D01*
X-226041Y33533D01*
X-226041Y36467D01*
X-223967Y38541D01*
X-221033Y38541D01*
X-218959Y36467D01*
X-218959Y33533D01*
X-221033Y31459D01*
X-223967Y31459D01*
G37*
%LPD*%
%LPC*%
G36*
X306033Y28959D02*
X306033Y28959D01*
X303959Y31033D01*
X303959Y33967D01*
X306033Y36041D01*
X308967Y36041D01*
X311041Y33967D01*
X311041Y31033D01*
X308967Y28959D01*
X306033Y28959D01*
G37*
%LPD*%
%LPC*%
G36*
X236033Y-161041D02*
X236033Y-161041D01*
X233959Y-158967D01*
X233959Y-156033D01*
X236033Y-153959D01*
X238967Y-153959D01*
X241041Y-156033D01*
X241041Y-158967D01*
X238967Y-161041D01*
X236033Y-161041D01*
G37*
%LPD*%
%LPC*%
G36*
X53533Y-161041D02*
X53533Y-161041D01*
X51459Y-158967D01*
X51459Y-156033D01*
X53533Y-153959D01*
X56467Y-153959D01*
X58541Y-156033D01*
X58541Y-158967D01*
X56467Y-161041D01*
X53533Y-161041D01*
G37*
%LPD*%
%LPC*%
G36*
X-33967Y28959D02*
X-33967Y28959D01*
X-36041Y31033D01*
X-36041Y33967D01*
X-33967Y36041D01*
X-31033Y36041D01*
X-28959Y33967D01*
X-28959Y31033D01*
X-31033Y28959D01*
X-33967Y28959D01*
G37*
%LPD*%
%LPC*%
G36*
X111033Y26459D02*
X111033Y26459D01*
X108959Y28533D01*
X108959Y31467D01*
X111033Y33541D01*
X113967Y33541D01*
X116041Y31467D01*
X116041Y28533D01*
X113967Y26459D01*
X111033Y26459D01*
G37*
%LPD*%
%LPC*%
G36*
X-211467Y-183541D02*
X-211467Y-183541D01*
X-213541Y-181467D01*
X-213541Y-178533D01*
X-211467Y-176459D01*
X-208533Y-176459D01*
X-206459Y-178533D01*
X-206459Y-181467D01*
X-208533Y-183541D01*
X-211467Y-183541D01*
G37*
%LPD*%
%LPC*%
G36*
X-191467Y18959D02*
X-191467Y18959D01*
X-193541Y21033D01*
X-193541Y23967D01*
X-191467Y26041D01*
X-188533Y26041D01*
X-186459Y23967D01*
X-186459Y21033D01*
X-188533Y18959D01*
X-191467Y18959D01*
G37*
%LPD*%
%LPC*%
G36*
X266033Y131459D02*
X266033Y131459D01*
X263959Y133533D01*
X263959Y136467D01*
X266033Y138541D01*
X268967Y138541D01*
X271041Y136467D01*
X271041Y133533D01*
X268967Y131459D01*
X266033Y131459D01*
G37*
%LPD*%
%LPC*%
G36*
X-13967Y133959D02*
X-13967Y133959D01*
X-16041Y136033D01*
X-16041Y138967D01*
X-13967Y141041D01*
X-11033Y141041D01*
X-8959Y138967D01*
X-8959Y136033D01*
X-11033Y133959D01*
X-13967Y133959D01*
G37*
%LPD*%
%LPC*%
G36*
X-361256Y136967D02*
X-361256Y136967D01*
X-363033Y138744D01*
X-363033Y141256D01*
X-361256Y143033D01*
X-358744Y143033D01*
X-356967Y141256D01*
X-356967Y138744D01*
X-358744Y136967D01*
X-361256Y136967D01*
G37*
%LPD*%
%LPC*%
G36*
X-341256Y136967D02*
X-341256Y136967D01*
X-343033Y138744D01*
X-343033Y141256D01*
X-341256Y143033D01*
X-338744Y143033D01*
X-336967Y141256D01*
X-336967Y138744D01*
X-338744Y136967D01*
X-341256Y136967D01*
G37*
%LPD*%
%LPC*%
G36*
X-291256Y136967D02*
X-291256Y136967D01*
X-293033Y138744D01*
X-293033Y141256D01*
X-291256Y143033D01*
X-288744Y143033D01*
X-286967Y141256D01*
X-286967Y138744D01*
X-288744Y136967D01*
X-291256Y136967D01*
G37*
%LPD*%
%LPC*%
G36*
X-291256Y176967D02*
X-291256Y176967D01*
X-293033Y178744D01*
X-293033Y181256D01*
X-291256Y183033D01*
X-288744Y183033D01*
X-286967Y181256D01*
X-286967Y178744D01*
X-288744Y176967D01*
X-291256Y176967D01*
G37*
%LPD*%
%LPC*%
G36*
X-251256Y176967D02*
X-251256Y176967D01*
X-253033Y178744D01*
X-253033Y181256D01*
X-251256Y183033D01*
X-248744Y183033D01*
X-246967Y181256D01*
X-246967Y178744D01*
X-248744Y176967D01*
X-251256Y176967D01*
G37*
%LPD*%
%LPC*%
G36*
X-291256Y66967D02*
X-291256Y66967D01*
X-293033Y68744D01*
X-293033Y71256D01*
X-291256Y73033D01*
X-288744Y73033D01*
X-286967Y71256D01*
X-286967Y68744D01*
X-288744Y66967D01*
X-291256Y66967D01*
G37*
%LPD*%
%LPC*%
G36*
X-251256Y136967D02*
X-251256Y136967D01*
X-253033Y138744D01*
X-253033Y141256D01*
X-251256Y143033D01*
X-248744Y143033D01*
X-246967Y141256D01*
X-246967Y138744D01*
X-248744Y136967D01*
X-251256Y136967D01*
G37*
%LPD*%
%LPC*%
G36*
X-291256Y156967D02*
X-291256Y156967D01*
X-293033Y158744D01*
X-293033Y161256D01*
X-291256Y163033D01*
X-288744Y163033D01*
X-286967Y161256D01*
X-286967Y158744D01*
X-288744Y156967D01*
X-291256Y156967D01*
G37*
%LPD*%
%LPC*%
G36*
X-271256Y156967D02*
X-271256Y156967D01*
X-273033Y158744D01*
X-273033Y161256D01*
X-271256Y163033D01*
X-268744Y163033D01*
X-266967Y161256D01*
X-266967Y158744D01*
X-268744Y156967D01*
X-271256Y156967D01*
G37*
%LPD*%
%LPC*%
G36*
X-341256Y116967D02*
X-341256Y116967D01*
X-343033Y118744D01*
X-343033Y121256D01*
X-341256Y123033D01*
X-338744Y123033D01*
X-336967Y121256D01*
X-336967Y118744D01*
X-338744Y116967D01*
X-341256Y116967D01*
G37*
%LPD*%
%LPC*%
G36*
X-291256Y106967D02*
X-291256Y106967D01*
X-293033Y108744D01*
X-293033Y111256D01*
X-291256Y113033D01*
X-288744Y113033D01*
X-286967Y111256D01*
X-286967Y108744D01*
X-288744Y106967D01*
X-291256Y106967D01*
G37*
%LPD*%
%LPC*%
G36*
X-271256Y66967D02*
X-271256Y66967D01*
X-273033Y68744D01*
X-273033Y71256D01*
X-271256Y73033D01*
X-268744Y73033D01*
X-266967Y71256D01*
X-266967Y68744D01*
X-268744Y66967D01*
X-271256Y66967D01*
G37*
%LPD*%
%LPC*%
G36*
X-361256Y116967D02*
X-361256Y116967D01*
X-363033Y118744D01*
X-363033Y121256D01*
X-361256Y123033D01*
X-358744Y123033D01*
X-356967Y121256D01*
X-356967Y118744D01*
X-358744Y116967D01*
X-361256Y116967D01*
G37*
%LPD*%
%LPC*%
G36*
X-251256Y156967D02*
X-251256Y156967D01*
X-253033Y158744D01*
X-253033Y161256D01*
X-251256Y163033D01*
X-248744Y163033D01*
X-246967Y161256D01*
X-246967Y158744D01*
X-248744Y156967D01*
X-251256Y156967D01*
G37*
%LPD*%
%LPC*%
G36*
X-361256Y156967D02*
X-361256Y156967D01*
X-363033Y158744D01*
X-363033Y161256D01*
X-361256Y163033D01*
X-358744Y163033D01*
X-356967Y161256D01*
X-356967Y158744D01*
X-358744Y156967D01*
X-361256Y156967D01*
G37*
%LPD*%
%LPC*%
G36*
X-281256Y116967D02*
X-281256Y116967D01*
X-283033Y118744D01*
X-283033Y121256D01*
X-281256Y123033D01*
X-278744Y123033D01*
X-276967Y121256D01*
X-276967Y118744D01*
X-278744Y116967D01*
X-281256Y116967D01*
G37*
%LPD*%
%LPC*%
G36*
X-271256Y106967D02*
X-271256Y106967D01*
X-273033Y108744D01*
X-273033Y111256D01*
X-271256Y113033D01*
X-268744Y113033D01*
X-266967Y111256D01*
X-266967Y108744D01*
X-268744Y106967D01*
X-271256Y106967D01*
G37*
%LPD*%
%LPC*%
G36*
X-341256Y156967D02*
X-341256Y156967D01*
X-343033Y158744D01*
X-343033Y161256D01*
X-341256Y163033D01*
X-338744Y163033D01*
X-336967Y161256D01*
X-336967Y158744D01*
X-338744Y156967D01*
X-341256Y156967D01*
G37*
%LPD*%
%LPC*%
G36*
X-291256Y86967D02*
X-291256Y86967D01*
X-293033Y88744D01*
X-293033Y91256D01*
X-291256Y93033D01*
X-288744Y93033D01*
X-286967Y91256D01*
X-286967Y88744D01*
X-288744Y86967D01*
X-291256Y86967D01*
G37*
%LPD*%
%LPC*%
G36*
X-271256Y86967D02*
X-271256Y86967D01*
X-273033Y88744D01*
X-273033Y91256D01*
X-271256Y93033D01*
X-268744Y93033D01*
X-266967Y91256D01*
X-266967Y88744D01*
X-268744Y86967D01*
X-271256Y86967D01*
G37*
%LPD*%
%LPC*%
G36*
X-361256Y96967D02*
X-361256Y96967D01*
X-363033Y98744D01*
X-363033Y101256D01*
X-361256Y103033D01*
X-358744Y103033D01*
X-356967Y101256D01*
X-356967Y98744D01*
X-358744Y96967D01*
X-361256Y96967D01*
G37*
%LPD*%
%LPC*%
G36*
X208744Y331967D02*
X208744Y331967D01*
X206967Y333744D01*
X206967Y336256D01*
X208744Y338033D01*
X211256Y338033D01*
X213033Y336256D01*
X213033Y333744D01*
X211256Y331967D01*
X208744Y331967D01*
G37*
%LPD*%
%LPC*%
G36*
X-341256Y96967D02*
X-341256Y96967D01*
X-343033Y98744D01*
X-343033Y101256D01*
X-341256Y103033D01*
X-338744Y103033D01*
X-336967Y101256D01*
X-336967Y98744D01*
X-338744Y96967D01*
X-341256Y96967D01*
G37*
%LPD*%
%LPC*%
G36*
X-30001Y-140001D02*
X-30001Y-140001D01*
X-30001Y-139999D01*
X-29999Y-139999D01*
X-29999Y-140001D01*
X-30001Y-140001D01*
G37*
%LPD*%
D10*
X-290000Y180000D03*
X-250000Y180000D03*
X-290000Y90000D03*
X-360000Y100000D03*
X-360000Y140000D03*
X-340000Y160000D03*
X-290000Y140000D03*
X-250000Y140000D03*
X-290000Y160000D03*
X-270000Y160000D03*
X-250000Y160000D03*
X-270000Y90000D03*
X-290000Y70000D03*
X-270000Y70000D03*
X-280000Y120000D03*
X-270000Y110000D03*
X-290000Y110000D03*
X-340000Y120000D03*
X-340000Y140000D03*
X-360000Y120000D03*
X-360000Y160000D03*
X-340000Y100000D03*
D11*
X-410000Y179500D03*
X-410000Y-500D03*
X-410000Y-20500D03*
X-410000Y-40500D03*
X-410000Y139500D03*
X-410000Y119500D03*
X-410000Y79500D03*
X-410000Y59500D03*
X-410000Y39500D03*
X-410000Y19500D03*
X-410000Y99500D03*
X-410000Y159500D03*
X390000Y-40000D03*
X390000Y140000D03*
X390000Y160000D03*
X390000Y180000D03*
X390000Y0D03*
X390000Y20000D03*
X390000Y60000D03*
X390000Y80000D03*
X390000Y100000D03*
X390000Y120000D03*
X390000Y40000D03*
X390000Y-20000D03*
D12*
X-30000Y-140000D03*
X50000Y-140000D03*
X-70000Y-140000D03*
X10000Y-140000D03*
D13*
X-35000Y-325000D03*
X15000Y-325000D03*
X-35000Y-180000D03*
X15000Y-180000D03*
X-10000Y-325000D03*
D10*
X140000Y250000D03*
D14*
X-170000Y172700D03*
X-170000Y147300D03*
D10*
X210000Y335000D03*
X200000Y335000D03*
D15*
X-110552Y-532682D02*
X-110552Y-548938D01*
X-103327Y-548938D01*
X-97695Y-545326D02*
X-97695Y-541713D01*
X-97694Y-541713D02*
X-97692Y-541594D01*
X-97686Y-541474D01*
X-97676Y-541355D01*
X-97662Y-541237D01*
X-97645Y-541118D01*
X-97623Y-541001D01*
X-97598Y-540884D01*
X-97568Y-540769D01*
X-97535Y-540654D01*
X-97498Y-540540D01*
X-97458Y-540428D01*
X-97413Y-540317D01*
X-97365Y-540208D01*
X-97314Y-540100D01*
X-97259Y-539994D01*
X-97200Y-539890D01*
X-97138Y-539788D01*
X-97073Y-539688D01*
X-97004Y-539590D01*
X-96932Y-539494D01*
X-96857Y-539401D01*
X-96780Y-539311D01*
X-96699Y-539223D01*
X-96615Y-539138D01*
X-96528Y-539056D01*
X-96439Y-538976D01*
X-96347Y-538900D01*
X-96253Y-538826D01*
X-96156Y-538756D01*
X-96058Y-538689D01*
X-95957Y-538625D01*
X-95853Y-538565D01*
X-95748Y-538508D01*
X-95641Y-538455D01*
X-95533Y-538405D01*
X-95423Y-538359D01*
X-95311Y-538317D01*
X-95198Y-538278D01*
X-95084Y-538243D01*
X-94969Y-538212D01*
X-94852Y-538184D01*
X-94735Y-538161D01*
X-94618Y-538141D01*
X-94499Y-538125D01*
X-94380Y-538113D01*
X-94261Y-538105D01*
X-94142Y-538101D01*
X-94022Y-538101D01*
X-93903Y-538105D01*
X-93784Y-538113D01*
X-93665Y-538125D01*
X-93546Y-538141D01*
X-93429Y-538161D01*
X-93312Y-538184D01*
X-93195Y-538212D01*
X-93080Y-538243D01*
X-92966Y-538278D01*
X-92853Y-538317D01*
X-92741Y-538359D01*
X-92631Y-538405D01*
X-92523Y-538455D01*
X-92416Y-538508D01*
X-92311Y-538565D01*
X-92207Y-538625D01*
X-92106Y-538689D01*
X-92008Y-538756D01*
X-91911Y-538826D01*
X-91817Y-538900D01*
X-91725Y-538976D01*
X-91636Y-539056D01*
X-91549Y-539138D01*
X-91465Y-539223D01*
X-91384Y-539311D01*
X-91307Y-539401D01*
X-91232Y-539494D01*
X-91160Y-539590D01*
X-91091Y-539688D01*
X-91026Y-539788D01*
X-90964Y-539890D01*
X-90905Y-539994D01*
X-90850Y-540100D01*
X-90799Y-540208D01*
X-90751Y-540317D01*
X-90706Y-540428D01*
X-90666Y-540540D01*
X-90629Y-540654D01*
X-90596Y-540769D01*
X-90566Y-540884D01*
X-90541Y-541001D01*
X-90519Y-541118D01*
X-90502Y-541237D01*
X-90488Y-541355D01*
X-90478Y-541474D01*
X-90472Y-541594D01*
X-90470Y-541713D01*
X-90470Y-545326D01*
X-90472Y-545445D01*
X-90478Y-545565D01*
X-90488Y-545684D01*
X-90502Y-545802D01*
X-90519Y-545921D01*
X-90541Y-546038D01*
X-90566Y-546155D01*
X-90596Y-546270D01*
X-90629Y-546385D01*
X-90666Y-546499D01*
X-90706Y-546611D01*
X-90751Y-546722D01*
X-90799Y-546831D01*
X-90850Y-546939D01*
X-90905Y-547045D01*
X-90964Y-547149D01*
X-91026Y-547251D01*
X-91091Y-547351D01*
X-91160Y-547449D01*
X-91232Y-547545D01*
X-91307Y-547638D01*
X-91384Y-547728D01*
X-91465Y-547816D01*
X-91549Y-547901D01*
X-91636Y-547983D01*
X-91725Y-548063D01*
X-91817Y-548139D01*
X-91911Y-548213D01*
X-92008Y-548283D01*
X-92106Y-548350D01*
X-92207Y-548414D01*
X-92311Y-548474D01*
X-92416Y-548531D01*
X-92523Y-548584D01*
X-92631Y-548634D01*
X-92741Y-548680D01*
X-92853Y-548722D01*
X-92966Y-548761D01*
X-93080Y-548796D01*
X-93195Y-548827D01*
X-93312Y-548855D01*
X-93429Y-548878D01*
X-93546Y-548898D01*
X-93665Y-548914D01*
X-93784Y-548926D01*
X-93903Y-548934D01*
X-94022Y-548938D01*
X-94142Y-548938D01*
X-94261Y-548934D01*
X-94380Y-548926D01*
X-94499Y-548914D01*
X-94618Y-548898D01*
X-94735Y-548878D01*
X-94852Y-548855D01*
X-94969Y-548827D01*
X-95084Y-548796D01*
X-95198Y-548761D01*
X-95311Y-548722D01*
X-95423Y-548680D01*
X-95533Y-548634D01*
X-95641Y-548584D01*
X-95748Y-548531D01*
X-95853Y-548474D01*
X-95957Y-548414D01*
X-96058Y-548350D01*
X-96156Y-548283D01*
X-96253Y-548213D01*
X-96347Y-548139D01*
X-96439Y-548063D01*
X-96528Y-547983D01*
X-96615Y-547901D01*
X-96699Y-547816D01*
X-96780Y-547728D01*
X-96857Y-547638D01*
X-96932Y-547545D01*
X-97004Y-547449D01*
X-97073Y-547351D01*
X-97138Y-547251D01*
X-97200Y-547149D01*
X-97259Y-547045D01*
X-97314Y-546939D01*
X-97365Y-546831D01*
X-97413Y-546722D01*
X-97458Y-546611D01*
X-97498Y-546499D01*
X-97535Y-546385D01*
X-97568Y-546270D01*
X-97598Y-546155D01*
X-97623Y-546038D01*
X-97645Y-545921D01*
X-97662Y-545802D01*
X-97676Y-545684D01*
X-97686Y-545565D01*
X-97692Y-545445D01*
X-97694Y-545326D01*
X-84391Y-538101D02*
X-81682Y-548938D01*
X-78972Y-541713D01*
X-76263Y-548938D01*
X-73554Y-538101D01*
X-64765Y-548938D02*
X-60250Y-548938D01*
X-64765Y-548938D02*
X-64866Y-548936D01*
X-64967Y-548930D01*
X-65068Y-548921D01*
X-65169Y-548908D01*
X-65269Y-548891D01*
X-65368Y-548870D01*
X-65466Y-548846D01*
X-65563Y-548818D01*
X-65660Y-548786D01*
X-65755Y-548751D01*
X-65848Y-548712D01*
X-65940Y-548670D01*
X-66031Y-548624D01*
X-66120Y-548575D01*
X-66206Y-548523D01*
X-66291Y-548467D01*
X-66374Y-548409D01*
X-66454Y-548347D01*
X-66532Y-548282D01*
X-66608Y-548215D01*
X-66681Y-548145D01*
X-66751Y-548072D01*
X-66818Y-547996D01*
X-66883Y-547918D01*
X-66945Y-547838D01*
X-67003Y-547755D01*
X-67059Y-547670D01*
X-67111Y-547584D01*
X-67160Y-547495D01*
X-67206Y-547404D01*
X-67248Y-547312D01*
X-67287Y-547219D01*
X-67322Y-547124D01*
X-67354Y-547027D01*
X-67382Y-546930D01*
X-67406Y-546832D01*
X-67427Y-546733D01*
X-67444Y-546633D01*
X-67457Y-546532D01*
X-67466Y-546431D01*
X-67472Y-546330D01*
X-67474Y-546229D01*
X-67475Y-546229D02*
X-67475Y-541713D01*
X-67474Y-541713D02*
X-67472Y-541594D01*
X-67466Y-541474D01*
X-67456Y-541355D01*
X-67442Y-541237D01*
X-67425Y-541118D01*
X-67403Y-541001D01*
X-67378Y-540884D01*
X-67348Y-540769D01*
X-67315Y-540654D01*
X-67278Y-540540D01*
X-67238Y-540428D01*
X-67193Y-540317D01*
X-67145Y-540208D01*
X-67094Y-540100D01*
X-67039Y-539994D01*
X-66980Y-539890D01*
X-66918Y-539788D01*
X-66853Y-539688D01*
X-66784Y-539590D01*
X-66712Y-539494D01*
X-66637Y-539401D01*
X-66560Y-539311D01*
X-66479Y-539223D01*
X-66395Y-539138D01*
X-66308Y-539056D01*
X-66219Y-538976D01*
X-66127Y-538900D01*
X-66033Y-538826D01*
X-65936Y-538756D01*
X-65838Y-538689D01*
X-65737Y-538625D01*
X-65633Y-538565D01*
X-65528Y-538508D01*
X-65421Y-538455D01*
X-65313Y-538405D01*
X-65203Y-538359D01*
X-65091Y-538317D01*
X-64978Y-538278D01*
X-64864Y-538243D01*
X-64749Y-538212D01*
X-64632Y-538184D01*
X-64515Y-538161D01*
X-64398Y-538141D01*
X-64279Y-538125D01*
X-64160Y-538113D01*
X-64041Y-538105D01*
X-63922Y-538101D01*
X-63802Y-538101D01*
X-63683Y-538105D01*
X-63564Y-538113D01*
X-63445Y-538125D01*
X-63326Y-538141D01*
X-63209Y-538161D01*
X-63092Y-538184D01*
X-62975Y-538212D01*
X-62860Y-538243D01*
X-62746Y-538278D01*
X-62633Y-538317D01*
X-62521Y-538359D01*
X-62411Y-538405D01*
X-62303Y-538455D01*
X-62196Y-538508D01*
X-62091Y-538565D01*
X-61987Y-538625D01*
X-61886Y-538689D01*
X-61788Y-538756D01*
X-61691Y-538826D01*
X-61597Y-538900D01*
X-61505Y-538976D01*
X-61416Y-539056D01*
X-61329Y-539138D01*
X-61245Y-539223D01*
X-61164Y-539311D01*
X-61087Y-539401D01*
X-61012Y-539494D01*
X-60940Y-539590D01*
X-60871Y-539688D01*
X-60806Y-539788D01*
X-60744Y-539890D01*
X-60685Y-539994D01*
X-60630Y-540100D01*
X-60579Y-540208D01*
X-60531Y-540317D01*
X-60486Y-540428D01*
X-60446Y-540540D01*
X-60409Y-540654D01*
X-60376Y-540769D01*
X-60346Y-540884D01*
X-60321Y-541001D01*
X-60299Y-541118D01*
X-60282Y-541237D01*
X-60268Y-541355D01*
X-60258Y-541474D01*
X-60252Y-541594D01*
X-60250Y-541713D01*
X-60250Y-543519D01*
X-67475Y-543519D01*
X-53322Y-548938D02*
X-53322Y-538101D01*
X-47903Y-538101D01*
X-47903Y-539907D01*
X-33121Y-532682D02*
X-33121Y-548938D01*
X-34927Y-548938D02*
X-31315Y-548938D01*
X-31315Y-532682D02*
X-34927Y-532682D01*
X-24749Y-538101D02*
X-24749Y-548938D01*
X-24749Y-538101D02*
X-20234Y-538101D01*
X-20130Y-538103D01*
X-20027Y-538109D01*
X-19923Y-538119D01*
X-19820Y-538133D01*
X-19718Y-538151D01*
X-19617Y-538172D01*
X-19516Y-538198D01*
X-19417Y-538227D01*
X-19318Y-538260D01*
X-19221Y-538297D01*
X-19126Y-538338D01*
X-19032Y-538382D01*
X-18940Y-538430D01*
X-18850Y-538481D01*
X-18761Y-538536D01*
X-18675Y-538594D01*
X-18592Y-538656D01*
X-18510Y-538720D01*
X-18432Y-538788D01*
X-18356Y-538858D01*
X-18282Y-538931D01*
X-18212Y-539008D01*
X-18144Y-539086D01*
X-18080Y-539168D01*
X-18018Y-539251D01*
X-17960Y-539337D01*
X-17905Y-539426D01*
X-17854Y-539516D01*
X-17806Y-539608D01*
X-17762Y-539702D01*
X-17721Y-539797D01*
X-17684Y-539894D01*
X-17651Y-539993D01*
X-17622Y-540092D01*
X-17596Y-540193D01*
X-17575Y-540294D01*
X-17557Y-540396D01*
X-17543Y-540499D01*
X-17533Y-540603D01*
X-17527Y-540706D01*
X-17525Y-540810D01*
X-17524Y-540810D02*
X-17524Y-548938D01*
X-10160Y-548938D02*
X-10160Y-538101D01*
X-5645Y-538101D01*
X-5541Y-538103D01*
X-5438Y-538109D01*
X-5334Y-538119D01*
X-5231Y-538133D01*
X-5129Y-538151D01*
X-5028Y-538172D01*
X-4927Y-538198D01*
X-4828Y-538227D01*
X-4729Y-538260D01*
X-4632Y-538297D01*
X-4537Y-538338D01*
X-4443Y-538382D01*
X-4351Y-538430D01*
X-4261Y-538481D01*
X-4172Y-538536D01*
X-4086Y-538594D01*
X-4003Y-538656D01*
X-3921Y-538720D01*
X-3843Y-538788D01*
X-3767Y-538858D01*
X-3693Y-538931D01*
X-3623Y-539008D01*
X-3555Y-539086D01*
X-3491Y-539168D01*
X-3429Y-539251D01*
X-3371Y-539337D01*
X-3316Y-539426D01*
X-3265Y-539516D01*
X-3217Y-539608D01*
X-3173Y-539702D01*
X-3132Y-539797D01*
X-3095Y-539894D01*
X-3062Y-539993D01*
X-3033Y-540092D01*
X-3007Y-540193D01*
X-2986Y-540294D01*
X-2968Y-540396D01*
X-2954Y-540499D01*
X-2944Y-540603D01*
X-2938Y-540706D01*
X-2936Y-540810D01*
X-2935Y-540810D02*
X-2935Y-548938D01*
X6617Y-548938D02*
X11133Y-548938D01*
X6617Y-548938D02*
X6516Y-548936D01*
X6415Y-548930D01*
X6314Y-548921D01*
X6213Y-548908D01*
X6113Y-548891D01*
X6014Y-548870D01*
X5916Y-548846D01*
X5819Y-548818D01*
X5722Y-548786D01*
X5627Y-548751D01*
X5534Y-548712D01*
X5442Y-548670D01*
X5351Y-548624D01*
X5263Y-548575D01*
X5176Y-548523D01*
X5091Y-548467D01*
X5008Y-548409D01*
X4928Y-548347D01*
X4850Y-548282D01*
X4774Y-548215D01*
X4701Y-548145D01*
X4631Y-548072D01*
X4564Y-547996D01*
X4499Y-547918D01*
X4437Y-547838D01*
X4379Y-547755D01*
X4323Y-547670D01*
X4271Y-547584D01*
X4222Y-547495D01*
X4176Y-547404D01*
X4134Y-547312D01*
X4095Y-547219D01*
X4060Y-547124D01*
X4028Y-547027D01*
X4000Y-546930D01*
X3976Y-546832D01*
X3955Y-546733D01*
X3938Y-546633D01*
X3925Y-546532D01*
X3916Y-546431D01*
X3910Y-546330D01*
X3908Y-546229D01*
X3908Y-541713D01*
X3910Y-541594D01*
X3916Y-541474D01*
X3926Y-541355D01*
X3940Y-541237D01*
X3957Y-541118D01*
X3979Y-541001D01*
X4004Y-540884D01*
X4034Y-540769D01*
X4067Y-540654D01*
X4104Y-540540D01*
X4144Y-540428D01*
X4189Y-540317D01*
X4237Y-540208D01*
X4288Y-540100D01*
X4343Y-539994D01*
X4402Y-539890D01*
X4464Y-539788D01*
X4529Y-539688D01*
X4598Y-539590D01*
X4670Y-539494D01*
X4745Y-539401D01*
X4822Y-539311D01*
X4903Y-539223D01*
X4987Y-539138D01*
X5074Y-539056D01*
X5163Y-538976D01*
X5255Y-538900D01*
X5349Y-538826D01*
X5446Y-538756D01*
X5544Y-538689D01*
X5645Y-538625D01*
X5749Y-538565D01*
X5854Y-538508D01*
X5961Y-538455D01*
X6069Y-538405D01*
X6179Y-538359D01*
X6291Y-538317D01*
X6404Y-538278D01*
X6518Y-538243D01*
X6633Y-538212D01*
X6750Y-538184D01*
X6867Y-538161D01*
X6984Y-538141D01*
X7103Y-538125D01*
X7222Y-538113D01*
X7341Y-538105D01*
X7460Y-538101D01*
X7580Y-538101D01*
X7699Y-538105D01*
X7818Y-538113D01*
X7937Y-538125D01*
X8056Y-538141D01*
X8173Y-538161D01*
X8290Y-538184D01*
X8407Y-538212D01*
X8522Y-538243D01*
X8636Y-538278D01*
X8749Y-538317D01*
X8861Y-538359D01*
X8971Y-538405D01*
X9079Y-538455D01*
X9186Y-538508D01*
X9291Y-538565D01*
X9395Y-538625D01*
X9496Y-538689D01*
X9594Y-538756D01*
X9691Y-538826D01*
X9785Y-538900D01*
X9877Y-538976D01*
X9966Y-539056D01*
X10053Y-539138D01*
X10137Y-539223D01*
X10218Y-539311D01*
X10295Y-539401D01*
X10370Y-539494D01*
X10442Y-539590D01*
X10511Y-539688D01*
X10576Y-539788D01*
X10638Y-539890D01*
X10697Y-539994D01*
X10752Y-540100D01*
X10803Y-540208D01*
X10851Y-540317D01*
X10896Y-540428D01*
X10936Y-540540D01*
X10973Y-540654D01*
X11006Y-540769D01*
X11036Y-540884D01*
X11061Y-541001D01*
X11083Y-541118D01*
X11100Y-541237D01*
X11114Y-541355D01*
X11124Y-541474D01*
X11130Y-541594D01*
X11132Y-541713D01*
X11133Y-541713D02*
X11133Y-543519D01*
X3908Y-543519D01*
X18061Y-548938D02*
X18061Y-538101D01*
X23480Y-538101D01*
X23480Y-539907D01*
X37533Y-532682D02*
X37533Y-548938D01*
X42951Y-541713D02*
X37533Y-532682D01*
X42951Y-541713D02*
X48370Y-532682D01*
X48370Y-548938D01*
X58200Y-548938D02*
X62716Y-548938D01*
X58200Y-548938D02*
X58099Y-548936D01*
X57998Y-548930D01*
X57897Y-548921D01*
X57796Y-548908D01*
X57696Y-548891D01*
X57597Y-548870D01*
X57499Y-548846D01*
X57402Y-548818D01*
X57305Y-548786D01*
X57210Y-548751D01*
X57117Y-548712D01*
X57025Y-548670D01*
X56934Y-548624D01*
X56846Y-548575D01*
X56759Y-548523D01*
X56674Y-548467D01*
X56591Y-548409D01*
X56511Y-548347D01*
X56433Y-548282D01*
X56357Y-548215D01*
X56284Y-548145D01*
X56214Y-548072D01*
X56147Y-547996D01*
X56082Y-547918D01*
X56020Y-547838D01*
X55962Y-547755D01*
X55906Y-547670D01*
X55854Y-547584D01*
X55805Y-547495D01*
X55759Y-547404D01*
X55717Y-547312D01*
X55678Y-547219D01*
X55643Y-547124D01*
X55611Y-547027D01*
X55583Y-546930D01*
X55559Y-546832D01*
X55538Y-546733D01*
X55521Y-546633D01*
X55508Y-546532D01*
X55499Y-546431D01*
X55493Y-546330D01*
X55491Y-546229D01*
X55491Y-541713D01*
X55493Y-541594D01*
X55499Y-541474D01*
X55509Y-541355D01*
X55523Y-541237D01*
X55540Y-541118D01*
X55562Y-541001D01*
X55587Y-540884D01*
X55617Y-540769D01*
X55650Y-540654D01*
X55687Y-540540D01*
X55727Y-540428D01*
X55772Y-540317D01*
X55820Y-540208D01*
X55871Y-540100D01*
X55926Y-539994D01*
X55985Y-539890D01*
X56047Y-539788D01*
X56112Y-539688D01*
X56181Y-539590D01*
X56253Y-539494D01*
X56328Y-539401D01*
X56405Y-539311D01*
X56486Y-539223D01*
X56570Y-539138D01*
X56657Y-539056D01*
X56746Y-538976D01*
X56838Y-538900D01*
X56932Y-538826D01*
X57029Y-538756D01*
X57127Y-538689D01*
X57228Y-538625D01*
X57332Y-538565D01*
X57437Y-538508D01*
X57544Y-538455D01*
X57652Y-538405D01*
X57762Y-538359D01*
X57874Y-538317D01*
X57987Y-538278D01*
X58101Y-538243D01*
X58216Y-538212D01*
X58333Y-538184D01*
X58450Y-538161D01*
X58567Y-538141D01*
X58686Y-538125D01*
X58805Y-538113D01*
X58924Y-538105D01*
X59043Y-538101D01*
X59163Y-538101D01*
X59282Y-538105D01*
X59401Y-538113D01*
X59520Y-538125D01*
X59639Y-538141D01*
X59756Y-538161D01*
X59873Y-538184D01*
X59990Y-538212D01*
X60105Y-538243D01*
X60219Y-538278D01*
X60332Y-538317D01*
X60444Y-538359D01*
X60554Y-538405D01*
X60662Y-538455D01*
X60769Y-538508D01*
X60874Y-538565D01*
X60978Y-538625D01*
X61079Y-538689D01*
X61177Y-538756D01*
X61274Y-538826D01*
X61368Y-538900D01*
X61460Y-538976D01*
X61549Y-539056D01*
X61636Y-539138D01*
X61720Y-539223D01*
X61801Y-539311D01*
X61878Y-539401D01*
X61953Y-539494D01*
X62025Y-539590D01*
X62094Y-539688D01*
X62159Y-539788D01*
X62221Y-539890D01*
X62280Y-539994D01*
X62335Y-540100D01*
X62386Y-540208D01*
X62434Y-540317D01*
X62479Y-540428D01*
X62519Y-540540D01*
X62556Y-540654D01*
X62589Y-540769D01*
X62619Y-540884D01*
X62644Y-541001D01*
X62666Y-541118D01*
X62683Y-541237D01*
X62697Y-541355D01*
X62707Y-541474D01*
X62713Y-541594D01*
X62715Y-541713D01*
X62716Y-541713D02*
X62716Y-543519D01*
X55491Y-543519D01*
X67741Y-538101D02*
X73159Y-538101D01*
X69547Y-532682D02*
X69547Y-546229D01*
X69549Y-546330D01*
X69555Y-546431D01*
X69564Y-546532D01*
X69577Y-546633D01*
X69594Y-546733D01*
X69615Y-546832D01*
X69639Y-546930D01*
X69667Y-547027D01*
X69699Y-547124D01*
X69734Y-547219D01*
X69773Y-547312D01*
X69815Y-547404D01*
X69861Y-547495D01*
X69910Y-547584D01*
X69962Y-547670D01*
X70018Y-547755D01*
X70076Y-547838D01*
X70138Y-547918D01*
X70203Y-547996D01*
X70270Y-548072D01*
X70340Y-548145D01*
X70413Y-548215D01*
X70489Y-548282D01*
X70567Y-548347D01*
X70647Y-548409D01*
X70730Y-548467D01*
X70815Y-548523D01*
X70902Y-548575D01*
X70990Y-548624D01*
X71081Y-548670D01*
X71173Y-548712D01*
X71266Y-548751D01*
X71361Y-548786D01*
X71458Y-548818D01*
X71555Y-548846D01*
X71653Y-548870D01*
X71752Y-548891D01*
X71852Y-548908D01*
X71953Y-548921D01*
X72054Y-548930D01*
X72155Y-548936D01*
X72256Y-548938D01*
X73159Y-548938D01*
X82025Y-542616D02*
X86089Y-542616D01*
X82025Y-542616D02*
X81913Y-542618D01*
X81802Y-542624D01*
X81691Y-542634D01*
X81580Y-542647D01*
X81470Y-542665D01*
X81361Y-542687D01*
X81252Y-542712D01*
X81144Y-542741D01*
X81038Y-542774D01*
X80932Y-542811D01*
X80828Y-542851D01*
X80726Y-542895D01*
X80625Y-542943D01*
X80526Y-542994D01*
X80428Y-543049D01*
X80333Y-543107D01*
X80240Y-543168D01*
X80149Y-543233D01*
X80060Y-543301D01*
X79974Y-543372D01*
X79891Y-543445D01*
X79810Y-543522D01*
X79731Y-543602D01*
X79656Y-543684D01*
X79584Y-543769D01*
X79514Y-543856D01*
X79448Y-543946D01*
X79385Y-544038D01*
X79325Y-544133D01*
X79269Y-544229D01*
X79216Y-544327D01*
X79167Y-544427D01*
X79121Y-544529D01*
X79079Y-544632D01*
X79040Y-544737D01*
X79005Y-544843D01*
X78974Y-544950D01*
X78947Y-545058D01*
X78923Y-545167D01*
X78904Y-545277D01*
X78888Y-545387D01*
X78876Y-545498D01*
X78868Y-545610D01*
X78864Y-545721D01*
X78864Y-545833D01*
X78868Y-545944D01*
X78876Y-546056D01*
X78888Y-546167D01*
X78904Y-546277D01*
X78923Y-546387D01*
X78947Y-546496D01*
X78974Y-546604D01*
X79005Y-546711D01*
X79040Y-546817D01*
X79079Y-546922D01*
X79121Y-547025D01*
X79167Y-547127D01*
X79216Y-547227D01*
X79269Y-547325D01*
X79325Y-547421D01*
X79385Y-547516D01*
X79448Y-547608D01*
X79514Y-547698D01*
X79584Y-547785D01*
X79656Y-547870D01*
X79731Y-547952D01*
X79810Y-548032D01*
X79891Y-548109D01*
X79974Y-548182D01*
X80060Y-548253D01*
X80149Y-548321D01*
X80240Y-548386D01*
X80333Y-548447D01*
X80428Y-548505D01*
X80526Y-548560D01*
X80625Y-548611D01*
X80726Y-548659D01*
X80828Y-548703D01*
X80932Y-548743D01*
X81038Y-548780D01*
X81144Y-548813D01*
X81252Y-548842D01*
X81361Y-548867D01*
X81470Y-548889D01*
X81580Y-548907D01*
X81691Y-548920D01*
X81802Y-548930D01*
X81913Y-548936D01*
X82025Y-548938D01*
X86089Y-548938D01*
X86089Y-540810D01*
X86087Y-540709D01*
X86081Y-540608D01*
X86072Y-540507D01*
X86059Y-540406D01*
X86042Y-540306D01*
X86021Y-540207D01*
X85997Y-540109D01*
X85969Y-540012D01*
X85937Y-539915D01*
X85902Y-539820D01*
X85863Y-539727D01*
X85821Y-539635D01*
X85775Y-539544D01*
X85726Y-539456D01*
X85674Y-539369D01*
X85618Y-539284D01*
X85560Y-539201D01*
X85498Y-539121D01*
X85433Y-539043D01*
X85366Y-538967D01*
X85296Y-538894D01*
X85223Y-538824D01*
X85147Y-538757D01*
X85069Y-538692D01*
X84989Y-538630D01*
X84906Y-538572D01*
X84821Y-538516D01*
X84735Y-538464D01*
X84646Y-538415D01*
X84555Y-538369D01*
X84463Y-538327D01*
X84370Y-538288D01*
X84275Y-538253D01*
X84178Y-538221D01*
X84081Y-538193D01*
X83983Y-538169D01*
X83884Y-538148D01*
X83784Y-538131D01*
X83683Y-538118D01*
X83582Y-538109D01*
X83481Y-538103D01*
X83380Y-538101D01*
X79768Y-538101D01*
X93243Y-532682D02*
X93243Y-546229D01*
X93245Y-546330D01*
X93251Y-546431D01*
X93260Y-546532D01*
X93273Y-546633D01*
X93290Y-546733D01*
X93311Y-546832D01*
X93335Y-546930D01*
X93363Y-547027D01*
X93395Y-547124D01*
X93430Y-547219D01*
X93469Y-547312D01*
X93511Y-547404D01*
X93557Y-547495D01*
X93606Y-547584D01*
X93658Y-547670D01*
X93714Y-547755D01*
X93772Y-547838D01*
X93834Y-547918D01*
X93899Y-547996D01*
X93966Y-548072D01*
X94036Y-548145D01*
X94109Y-548215D01*
X94185Y-548282D01*
X94263Y-548347D01*
X94343Y-548409D01*
X94426Y-548467D01*
X94511Y-548523D01*
X94598Y-548575D01*
X94686Y-548624D01*
X94777Y-548670D01*
X94869Y-548712D01*
X94962Y-548751D01*
X95057Y-548786D01*
X95154Y-548818D01*
X95251Y-548846D01*
X95349Y-548870D01*
X95448Y-548891D01*
X95548Y-548908D01*
X95649Y-548921D01*
X95750Y-548930D01*
X95851Y-548936D01*
X95952Y-548938D01*
D16*
X-195400Y35040D03*
X-333500Y251010D03*
X300000Y40140D03*
X257500Y89570D03*
X257500Y210430D03*
X320000Y220140D03*
X30000Y-10140D03*
X-10000Y-7190D03*
X82645Y90750D03*
X75691Y97250D03*
X82645Y123250D03*
X82645Y142750D03*
X177355Y116750D03*
X-32750Y130387D03*
X-50000Y-49860D03*
X-310000Y99860D03*
X-218810Y172500D03*
X-121190Y172500D03*
X276810Y-214000D03*
X276810Y-286000D03*
X-123000Y284440D03*
X70000Y203203D03*
X200000Y129860D03*
X60000Y189860D03*
X260000Y40140D03*
X-197810Y-185000D03*
X-102190Y-185000D03*
X106010Y-27300D03*
X106010Y-103500D03*
X83190Y-286000D03*
X83190Y-214000D03*
X230000Y309860D03*
X60000Y139860D03*
X-350000Y200260D03*
X230000Y220140D03*
X-250000Y-129740D03*
X-126010Y-52700D03*
X-126010Y23500D03*
X-210000Y-129740D03*
X250000Y-129740D03*
X132190Y-195000D03*
X227810Y-195000D03*
X132190Y-265000D03*
X227810Y-265000D03*
X290000Y-129740D03*
X-231690Y-307500D03*
X-197810Y-285000D03*
X-102190Y-285000D03*
X356190Y-275000D03*
X320000Y309860D03*
X-356810Y-286000D03*
X-356810Y-214000D03*
X132190Y-335000D03*
X227810Y-335000D03*
X-310000Y160140D03*
X60000Y50140D03*
D17*
X355000Y155000D03*
D18*
X352500Y25000D03*
X227500Y-140000D03*
X245000Y130000D03*
X-32500Y32500D03*
X267500Y135000D03*
X-97500Y-87500D03*
X-222500Y35000D03*
D16*
X-500Y-52810D03*
X30000Y-49860D03*
X320000Y259860D03*
X340430Y167500D03*
X340430Y117500D03*
X272500Y89570D03*
X267500Y210430D03*
X292500Y210430D03*
X300000Y79860D03*
X-410000Y-129740D03*
X-282700Y251010D03*
X356190Y-225000D03*
X-268310Y-192500D03*
X370000Y-129740D03*
X-144600Y35040D03*
X330000Y-129740D03*
X-170000Y-129740D03*
X12750Y49614D03*
D18*
X-335000Y-122500D03*
X-190000Y22500D03*
X292500Y115000D03*
X292500Y-35000D03*
X242500Y-130000D03*
X227500Y92500D03*
X272500Y122500D03*
X-55000Y42500D03*
X307500Y130000D03*
X307500Y32500D03*
D19*
X242500Y85000D02*
X285000Y127500D01*
X242500Y85000D02*
X232500Y85000D01*
X215000Y67500D01*
X-40000Y67500D01*
D18*
X285000Y127500D03*
X-40000Y67500D03*
D17*
X-240000Y127345D03*
X-412000Y-262445D03*
X-270000Y132655D03*
D18*
X122500Y77500D03*
X-17500Y105000D03*
X70000Y72500D03*
X-17500Y75000D03*
D17*
X-192555Y147500D03*
X-147445Y147500D03*
X-240000Y72655D03*
X-300500Y106554D03*
D18*
X155000Y112500D03*
X155000Y-32500D03*
X67500Y-70000D03*
X45000Y87500D03*
X112500Y30000D03*
X-32500Y42500D03*
X52500Y-70000D03*
X52500Y47500D03*
X-7500Y77500D03*
X-17500Y87500D03*
X2500Y137500D03*
X-12500Y137500D03*
D19*
X225000Y82500D02*
X265000Y122500D01*
X225000Y82500D02*
X-2500Y82500D01*
X-17500Y97500D01*
D18*
X265000Y122500D03*
X-17500Y97500D03*
D17*
X-270000Y187345D03*
X-310000Y200495D03*
X-268945Y-272500D03*
X-300500Y153446D03*
X-97000Y283805D03*
D18*
X315000Y147500D03*
X312500Y52500D03*
X272500Y70000D03*
X270000Y77500D03*
X267500Y-5000D03*
X297500Y120000D03*
X55000Y-157500D03*
X280000Y145000D03*
X280000Y-22500D03*
X360000Y25000D03*
X315000Y-57500D03*
X297500Y172500D03*
X237500Y-157500D03*
X255000Y-125000D03*
X252500Y117500D03*
X-210000Y-180000D03*
X-217500Y-187500D03*
X150000Y107500D03*
X150000Y-37500D03*
X-222500Y-192500D03*
X242500Y80000D03*
D19*
X120000Y197500D02*
X100000Y197500D01*
X120000Y197500D02*
X195000Y122500D01*
X245000Y122500D01*
D18*
X100000Y197500D03*
X245000Y122500D03*
D19*
X-10000Y247500D02*
X-15000Y247500D01*
X-10000Y247500D02*
X150000Y87500D01*
X210000Y87500D01*
D18*
X-15000Y247500D03*
X210000Y87500D03*
D17*
X-375555Y-275000D03*
X60000Y90495D03*
X60000Y99505D03*
X-50000Y-9505D03*
D19*
X200000Y335280D02*
X200000Y340000D01*
X200000Y335280D02*
X200000Y335000D01*
X200000Y260000D01*
X215000Y260000D01*
X215000Y160000D01*
X250000Y160000D01*
X250000Y135000D01*
X205000Y135000D01*
X130000Y210000D01*
X130000Y260000D01*
X-45000Y260000D01*
X-45000Y340000D01*
X200000Y335000D02*
X200025Y335280D01*
X200000Y335280D01*
M02*
