G04 EAGLE Gerber RS-274X export*
G75*
%MOMM*%
%FSLAX34Y34*%
%LPD*%
%INComponent side*%
%IPPOS*%
%AMOC8*
5,1,8,0,0,1.08239X$1,22.5*%
G01*
%ADD10C,0.496800*%
%ADD11R,0.650000X0.850000*%
%ADD12R,0.550000X1.200000*%
%ADD13C,3.516000*%
%ADD14R,1.100000X1.990000*%
%ADD15C,1.000000*%
%ADD16C,1.000000*%
%ADD17C,0.127000*%
%ADD18R,1.200000X3.000000*%
%ADD19R,1.500000X3.500000*%
%ADD20R,1.100000X3.000000*%
%ADD21C,0.460000*%
%ADD22C,0.508000*%
%ADD23C,0.635000*%

G36*
X-84380Y1917D02*
X-84380Y1917D01*
X-84314Y1919D01*
X-84271Y1937D01*
X-84224Y1945D01*
X-84167Y1979D01*
X-84107Y2004D01*
X-84072Y2035D01*
X-84031Y2060D01*
X-83989Y2111D01*
X-83941Y2155D01*
X-83919Y2197D01*
X-83890Y2234D01*
X-83869Y2296D01*
X-83838Y2355D01*
X-83830Y2409D01*
X-83818Y2446D01*
X-83819Y2486D01*
X-83811Y2540D01*
X-83811Y5659D01*
X-83818Y5701D01*
X-83816Y5743D01*
X-83838Y5810D01*
X-83850Y5880D01*
X-83872Y5916D01*
X-83885Y5957D01*
X-83939Y6029D01*
X-83965Y6073D01*
X-83981Y6086D01*
X-83996Y6107D01*
X-84333Y6443D01*
X-84368Y6468D01*
X-84396Y6499D01*
X-84459Y6531D01*
X-84517Y6572D01*
X-84558Y6582D01*
X-84596Y6602D01*
X-84685Y6615D01*
X-84734Y6628D01*
X-84755Y6625D01*
X-84781Y6629D01*
X-88421Y6629D01*
X-90621Y8829D01*
X-90621Y21171D01*
X-88421Y23371D01*
X-79479Y23371D01*
X-77279Y21171D01*
X-77279Y10431D01*
X-77272Y10389D01*
X-77274Y10347D01*
X-77252Y10280D01*
X-77240Y10210D01*
X-77218Y10174D01*
X-77205Y10133D01*
X-77151Y10061D01*
X-77125Y10017D01*
X-77109Y10004D01*
X-77093Y9983D01*
X-76189Y9078D01*
X-76189Y2540D01*
X-76178Y2475D01*
X-76176Y2409D01*
X-76158Y2366D01*
X-76150Y2319D01*
X-76116Y2262D01*
X-76091Y2202D01*
X-76060Y2167D01*
X-76035Y2126D01*
X-75984Y2084D01*
X-75940Y2036D01*
X-75898Y2014D01*
X-75861Y1985D01*
X-75799Y1964D01*
X-75740Y1933D01*
X-75686Y1925D01*
X-75649Y1913D01*
X-75609Y1914D01*
X-75555Y1906D01*
X-62540Y1906D01*
X-62475Y1917D01*
X-62409Y1919D01*
X-62366Y1937D01*
X-62319Y1945D01*
X-62262Y1979D01*
X-62202Y2004D01*
X-62167Y2035D01*
X-62126Y2060D01*
X-62084Y2111D01*
X-62036Y2155D01*
X-62014Y2197D01*
X-61985Y2234D01*
X-61964Y2296D01*
X-61933Y2355D01*
X-61925Y2409D01*
X-61913Y2446D01*
X-61914Y2486D01*
X-61906Y2540D01*
X-61906Y3289D01*
X-60545Y4651D01*
X-60510Y4700D01*
X-60469Y4742D01*
X-60447Y4791D01*
X-60416Y4835D01*
X-60402Y4893D01*
X-60377Y4947D01*
X-60374Y5000D01*
X-60360Y5052D01*
X-60367Y5111D01*
X-60363Y5171D01*
X-60378Y5222D01*
X-60384Y5275D01*
X-60410Y5329D01*
X-60427Y5386D01*
X-60459Y5428D01*
X-60483Y5476D01*
X-60527Y5517D01*
X-60562Y5565D01*
X-60608Y5594D01*
X-60646Y5630D01*
X-60701Y5653D01*
X-60752Y5686D01*
X-60804Y5697D01*
X-60853Y5718D01*
X-60913Y5720D01*
X-60971Y5733D01*
X-61034Y5726D01*
X-61077Y5728D01*
X-61110Y5717D01*
X-61157Y5712D01*
X-62472Y5359D01*
X-64781Y5359D01*
X-64781Y13731D01*
X-58109Y13731D01*
X-58109Y9722D01*
X-58462Y8407D01*
X-58467Y8348D01*
X-58482Y8290D01*
X-58476Y8237D01*
X-58481Y8184D01*
X-58465Y8126D01*
X-58458Y8067D01*
X-58435Y8019D01*
X-58420Y7967D01*
X-58385Y7919D01*
X-58359Y7866D01*
X-58320Y7829D01*
X-58289Y7786D01*
X-58239Y7753D01*
X-58196Y7712D01*
X-58146Y7691D01*
X-58102Y7661D01*
X-58044Y7648D01*
X-57989Y7624D01*
X-57936Y7622D01*
X-57884Y7610D01*
X-57824Y7617D01*
X-57765Y7614D01*
X-57714Y7631D01*
X-57661Y7637D01*
X-57608Y7665D01*
X-57551Y7683D01*
X-57500Y7721D01*
X-57462Y7741D01*
X-57438Y7766D01*
X-57401Y7795D01*
X-54591Y10604D01*
X-54567Y10638D01*
X-54536Y10667D01*
X-54504Y10730D01*
X-54463Y10788D01*
X-54453Y10829D01*
X-54433Y10867D01*
X-54420Y10956D01*
X-54407Y11005D01*
X-54410Y11026D01*
X-54406Y11052D01*
X-54406Y28289D01*
X-53289Y29406D01*
X-33552Y29406D01*
X-33510Y29413D01*
X-33468Y29411D01*
X-33401Y29433D01*
X-33331Y29445D01*
X-33295Y29467D01*
X-33254Y29480D01*
X-33182Y29534D01*
X-33138Y29560D01*
X-33136Y29562D01*
X-33124Y29577D01*
X-33104Y29592D01*
X-26507Y36189D01*
X-26482Y36223D01*
X-26451Y36252D01*
X-26419Y36315D01*
X-26378Y36373D01*
X-26368Y36414D01*
X-26348Y36452D01*
X-26335Y36541D01*
X-26322Y36590D01*
X-26325Y36611D01*
X-26321Y36637D01*
X-26321Y46079D01*
X-24229Y48171D01*
X-22540Y48171D01*
X-22475Y48182D01*
X-22409Y48184D01*
X-22366Y48202D01*
X-22319Y48210D01*
X-22262Y48244D01*
X-22202Y48269D01*
X-22167Y48300D01*
X-22126Y48325D01*
X-22084Y48376D01*
X-22036Y48420D01*
X-22014Y48462D01*
X-21985Y48499D01*
X-21964Y48561D01*
X-21933Y48620D01*
X-21925Y48674D01*
X-21913Y48711D01*
X-21914Y48751D01*
X-21906Y48805D01*
X-21906Y51195D01*
X-21917Y51260D01*
X-21919Y51326D01*
X-21937Y51369D01*
X-21945Y51416D01*
X-21979Y51473D01*
X-22004Y51533D01*
X-22035Y51568D01*
X-22060Y51609D01*
X-22111Y51651D01*
X-22155Y51699D01*
X-22197Y51721D01*
X-22234Y51750D01*
X-22296Y51771D01*
X-22355Y51802D01*
X-22409Y51810D01*
X-22446Y51822D01*
X-22486Y51821D01*
X-22540Y51829D01*
X-24229Y51829D01*
X-26321Y53921D01*
X-26321Y66079D01*
X-24229Y68171D01*
X-16671Y68171D01*
X-14579Y66079D01*
X-14579Y53921D01*
X-16671Y51829D01*
X-17460Y51829D01*
X-17525Y51818D01*
X-17591Y51816D01*
X-17634Y51798D01*
X-17681Y51790D01*
X-17738Y51756D01*
X-17798Y51731D01*
X-17833Y51700D01*
X-17874Y51675D01*
X-17916Y51624D01*
X-17964Y51580D01*
X-17986Y51538D01*
X-18015Y51501D01*
X-18036Y51439D01*
X-18067Y51380D01*
X-18075Y51326D01*
X-18087Y51289D01*
X-18086Y51249D01*
X-18094Y51195D01*
X-18094Y48805D01*
X-18083Y48740D01*
X-18081Y48674D01*
X-18063Y48631D01*
X-18055Y48584D01*
X-18021Y48527D01*
X-17996Y48467D01*
X-17965Y48432D01*
X-17940Y48391D01*
X-17889Y48349D01*
X-17845Y48301D01*
X-17803Y48279D01*
X-17766Y48250D01*
X-17704Y48229D01*
X-17645Y48198D01*
X-17591Y48190D01*
X-17554Y48178D01*
X-17514Y48179D01*
X-17460Y48171D01*
X-16671Y48171D01*
X-14579Y46079D01*
X-14579Y33921D01*
X-16671Y31829D01*
X-24229Y31829D01*
X-24404Y32004D01*
X-24458Y32042D01*
X-24506Y32087D01*
X-24549Y32105D01*
X-24588Y32132D01*
X-24652Y32149D01*
X-24712Y32174D01*
X-24760Y32176D01*
X-24805Y32188D01*
X-24871Y32181D01*
X-24937Y32184D01*
X-24981Y32170D01*
X-25028Y32165D01*
X-25087Y32136D01*
X-25150Y32116D01*
X-25194Y32083D01*
X-25230Y32065D01*
X-25257Y32037D01*
X-25301Y32004D01*
X-31711Y25594D01*
X-49960Y25594D01*
X-50025Y25583D01*
X-50091Y25581D01*
X-50134Y25563D01*
X-50181Y25555D01*
X-50238Y25521D01*
X-50298Y25496D01*
X-50333Y25465D01*
X-50374Y25440D01*
X-50416Y25389D01*
X-50464Y25345D01*
X-50486Y25303D01*
X-50515Y25266D01*
X-50536Y25204D01*
X-50567Y25145D01*
X-50575Y25091D01*
X-50587Y25054D01*
X-50586Y25014D01*
X-50594Y24960D01*
X-50594Y10137D01*
X-50587Y10098D01*
X-50590Y10060D01*
X-50568Y9989D01*
X-50555Y9916D01*
X-50535Y9882D01*
X-50523Y9845D01*
X-50478Y9786D01*
X-50440Y9723D01*
X-50410Y9698D01*
X-50386Y9667D01*
X-50324Y9628D01*
X-50266Y9581D01*
X-50229Y9569D01*
X-50196Y9548D01*
X-50124Y9533D01*
X-50054Y9510D01*
X-50015Y9511D01*
X-49977Y9503D01*
X-49903Y9514D01*
X-49829Y9516D01*
X-49793Y9531D01*
X-49755Y9537D01*
X-49690Y9573D01*
X-49622Y9600D01*
X-49593Y9627D01*
X-49559Y9646D01*
X-49493Y9718D01*
X-49456Y9752D01*
X-49448Y9768D01*
X-49433Y9784D01*
X-47571Y12571D01*
X-39509Y17957D01*
X-30000Y19849D01*
X-20491Y17957D01*
X-12429Y12571D01*
X-7043Y4509D01*
X-6626Y2416D01*
X-6625Y2413D01*
X-6625Y2409D01*
X-6585Y2310D01*
X-6544Y2207D01*
X-6542Y2205D01*
X-6541Y2202D01*
X-6468Y2122D01*
X-6395Y2040D01*
X-6392Y2039D01*
X-6389Y2036D01*
X-6292Y1986D01*
X-6196Y1936D01*
X-6193Y1935D01*
X-6190Y1933D01*
X-6004Y1906D01*
X6004Y1906D01*
X6008Y1906D01*
X6011Y1906D01*
X6119Y1926D01*
X6225Y1945D01*
X6228Y1947D01*
X6232Y1948D01*
X6325Y2004D01*
X6418Y2060D01*
X6420Y2062D01*
X6423Y2064D01*
X6491Y2149D01*
X6560Y2234D01*
X6561Y2237D01*
X6563Y2240D01*
X6626Y2416D01*
X7043Y4509D01*
X12429Y12571D01*
X20491Y17957D01*
X30000Y19849D01*
X39509Y17957D01*
X41201Y16827D01*
X41248Y16807D01*
X41289Y16778D01*
X41334Y16766D01*
X41363Y16751D01*
X41382Y16748D01*
X41407Y16737D01*
X41458Y16734D01*
X41507Y16722D01*
X41538Y16725D01*
X41549Y16723D01*
X41550Y16723D01*
X41575Y16728D01*
X41631Y16725D01*
X41680Y16740D01*
X41730Y16745D01*
X41764Y16762D01*
X41771Y16763D01*
X41789Y16773D01*
X41845Y16791D01*
X41886Y16822D01*
X41931Y16844D01*
X41959Y16874D01*
X41964Y16877D01*
X41976Y16891D01*
X42023Y16928D01*
X42050Y16971D01*
X42085Y17008D01*
X42101Y17045D01*
X42106Y17051D01*
X42112Y17069D01*
X42142Y17118D01*
X42153Y17167D01*
X42172Y17214D01*
X42174Y17253D01*
X42178Y17264D01*
X42177Y17286D01*
X42188Y17338D01*
X42180Y17388D01*
X42182Y17438D01*
X42172Y17472D01*
X42171Y17488D01*
X42161Y17513D01*
X42154Y17559D01*
X42129Y17604D01*
X42114Y17652D01*
X42094Y17679D01*
X42087Y17696D01*
X42064Y17721D01*
X42045Y17755D01*
X42021Y17777D01*
X42002Y17803D01*
X26551Y33254D01*
X26497Y33292D01*
X26449Y33337D01*
X26405Y33355D01*
X26367Y33382D01*
X26303Y33399D01*
X26242Y33424D01*
X26195Y33426D01*
X26149Y33438D01*
X26084Y33431D01*
X26018Y33434D01*
X25973Y33420D01*
X25926Y33415D01*
X25867Y33386D01*
X25805Y33366D01*
X25760Y33333D01*
X25725Y33315D01*
X25698Y33287D01*
X25654Y33254D01*
X24229Y31829D01*
X16671Y31829D01*
X14579Y33921D01*
X14579Y46079D01*
X16671Y48171D01*
X17460Y48171D01*
X17525Y48182D01*
X17591Y48184D01*
X17634Y48202D01*
X17681Y48210D01*
X17738Y48244D01*
X17798Y48269D01*
X17833Y48300D01*
X17874Y48325D01*
X17916Y48376D01*
X17964Y48420D01*
X17986Y48462D01*
X18015Y48499D01*
X18036Y48561D01*
X18067Y48620D01*
X18075Y48674D01*
X18087Y48711D01*
X18086Y48751D01*
X18094Y48805D01*
X18094Y51195D01*
X18083Y51260D01*
X18081Y51326D01*
X18063Y51369D01*
X18055Y51416D01*
X18021Y51473D01*
X17996Y51533D01*
X17965Y51568D01*
X17940Y51609D01*
X17889Y51651D01*
X17845Y51699D01*
X17803Y51721D01*
X17766Y51750D01*
X17704Y51771D01*
X17645Y51802D01*
X17591Y51810D01*
X17554Y51822D01*
X17514Y51821D01*
X17460Y51829D01*
X16671Y51829D01*
X14579Y53921D01*
X14579Y66079D01*
X16671Y68171D01*
X24229Y68171D01*
X26321Y66079D01*
X26321Y53921D01*
X24229Y51829D01*
X22540Y51829D01*
X22475Y51818D01*
X22409Y51816D01*
X22366Y51798D01*
X22319Y51790D01*
X22262Y51756D01*
X22202Y51731D01*
X22167Y51700D01*
X22126Y51675D01*
X22084Y51624D01*
X22036Y51580D01*
X22014Y51538D01*
X21985Y51501D01*
X21964Y51439D01*
X21933Y51380D01*
X21925Y51326D01*
X21913Y51289D01*
X21914Y51249D01*
X21906Y51195D01*
X21906Y48805D01*
X21917Y48740D01*
X21919Y48674D01*
X21937Y48631D01*
X21945Y48584D01*
X21979Y48527D01*
X22004Y48467D01*
X22035Y48432D01*
X22060Y48391D01*
X22111Y48349D01*
X22155Y48301D01*
X22197Y48279D01*
X22234Y48250D01*
X22296Y48229D01*
X22355Y48198D01*
X22409Y48190D01*
X22446Y48178D01*
X22486Y48179D01*
X22540Y48171D01*
X24229Y48171D01*
X26321Y46079D01*
X26321Y39137D01*
X26328Y39095D01*
X26326Y39053D01*
X26348Y38986D01*
X26360Y38916D01*
X26382Y38880D01*
X26395Y38839D01*
X26449Y38767D01*
X26475Y38723D01*
X26491Y38710D01*
X26507Y38689D01*
X49472Y15724D01*
X49545Y15673D01*
X49614Y15617D01*
X49636Y15609D01*
X49656Y15595D01*
X49742Y15573D01*
X49826Y15545D01*
X49850Y15545D01*
X49873Y15540D01*
X49962Y15549D01*
X50051Y15551D01*
X50073Y15560D01*
X50096Y15563D01*
X50176Y15602D01*
X50258Y15636D01*
X50276Y15652D01*
X50297Y15662D01*
X50358Y15727D01*
X50424Y15787D01*
X50435Y15808D01*
X50451Y15825D01*
X50486Y15907D01*
X50527Y15987D01*
X50530Y16013D01*
X50539Y16032D01*
X50541Y16082D01*
X50554Y16172D01*
X50554Y16842D01*
X53158Y19446D01*
X56842Y19446D01*
X57291Y18997D01*
X57326Y18972D01*
X57354Y18941D01*
X57417Y18909D01*
X57475Y18868D01*
X57516Y18858D01*
X57554Y18838D01*
X57643Y18825D01*
X57692Y18812D01*
X57713Y18815D01*
X57739Y18811D01*
X58745Y18811D01*
X58810Y18822D01*
X58876Y18824D01*
X58919Y18842D01*
X58966Y18850D01*
X59023Y18884D01*
X59083Y18909D01*
X59118Y18940D01*
X59159Y18965D01*
X59201Y19016D01*
X59249Y19060D01*
X59271Y19102D01*
X59300Y19139D01*
X59321Y19201D01*
X59352Y19260D01*
X59360Y19314D01*
X59372Y19351D01*
X59371Y19391D01*
X59379Y19445D01*
X59379Y21171D01*
X61579Y23371D01*
X70521Y23371D01*
X72721Y21171D01*
X72721Y8829D01*
X70521Y6629D01*
X61579Y6629D01*
X59379Y8829D01*
X59379Y10555D01*
X59368Y10620D01*
X59366Y10686D01*
X59348Y10729D01*
X59340Y10776D01*
X59306Y10833D01*
X59281Y10893D01*
X59250Y10928D01*
X59225Y10969D01*
X59174Y11011D01*
X59130Y11059D01*
X59088Y11081D01*
X59051Y11110D01*
X58989Y11131D01*
X58930Y11162D01*
X58876Y11170D01*
X58839Y11182D01*
X58799Y11181D01*
X58745Y11189D01*
X57739Y11189D01*
X57697Y11182D01*
X57655Y11184D01*
X57588Y11162D01*
X57518Y11150D01*
X57482Y11128D01*
X57441Y11115D01*
X57369Y11061D01*
X57325Y11035D01*
X57312Y11019D01*
X57291Y11003D01*
X56842Y10554D01*
X56172Y10554D01*
X56084Y10538D01*
X55996Y10529D01*
X55975Y10519D01*
X55951Y10515D01*
X55875Y10469D01*
X55795Y10430D01*
X55778Y10413D01*
X55758Y10400D01*
X55702Y10331D01*
X55641Y10267D01*
X55632Y10245D01*
X55617Y10226D01*
X55588Y10142D01*
X55553Y10060D01*
X55552Y10036D01*
X55545Y10014D01*
X55547Y9925D01*
X55543Y9836D01*
X55551Y9813D01*
X55551Y9789D01*
X55585Y9707D01*
X55612Y9622D01*
X55628Y9601D01*
X55636Y9582D01*
X55670Y9544D01*
X55724Y9472D01*
X63104Y2092D01*
X63138Y2067D01*
X63167Y2036D01*
X63230Y2004D01*
X63288Y1963D01*
X63329Y1953D01*
X63367Y1933D01*
X63456Y1920D01*
X63505Y1907D01*
X63526Y1910D01*
X63552Y1906D01*
X97315Y1906D01*
X97380Y1917D01*
X97446Y1919D01*
X97489Y1937D01*
X97536Y1945D01*
X97593Y1979D01*
X97653Y2004D01*
X97688Y2035D01*
X97729Y2060D01*
X97771Y2111D01*
X97819Y2155D01*
X97841Y2197D01*
X97870Y2234D01*
X97891Y2296D01*
X97922Y2355D01*
X97930Y2409D01*
X97942Y2446D01*
X97941Y2486D01*
X97949Y2540D01*
X97949Y215000D01*
X97945Y215022D01*
X97947Y215050D01*
X97734Y217758D01*
X97721Y217807D01*
X97705Y217905D01*
X96031Y223057D01*
X96028Y223062D01*
X96027Y223067D01*
X95981Y223157D01*
X95966Y223193D01*
X95957Y223203D01*
X95941Y223234D01*
X92757Y227616D01*
X92753Y227620D01*
X92750Y227625D01*
X92616Y227757D01*
X88234Y230941D01*
X88229Y230943D01*
X88225Y230947D01*
X88057Y231031D01*
X82905Y232705D01*
X82855Y232712D01*
X82758Y232734D01*
X80050Y232947D01*
X80028Y232945D01*
X80000Y232949D01*
X-80000Y232949D01*
X-80022Y232945D01*
X-80050Y232947D01*
X-82758Y232734D01*
X-82807Y232721D01*
X-82905Y232705D01*
X-88057Y231031D01*
X-88062Y231028D01*
X-88067Y231027D01*
X-88234Y230941D01*
X-92616Y227757D01*
X-92620Y227753D01*
X-92625Y227750D01*
X-92757Y227616D01*
X-95941Y223234D01*
X-95943Y223229D01*
X-95947Y223225D01*
X-95970Y223180D01*
X-95985Y223161D01*
X-95998Y223123D01*
X-96031Y223057D01*
X-97705Y217905D01*
X-97712Y217855D01*
X-97734Y217758D01*
X-97947Y215050D01*
X-97945Y215028D01*
X-97949Y215000D01*
X-97949Y2540D01*
X-97938Y2475D01*
X-97936Y2409D01*
X-97918Y2366D01*
X-97910Y2319D01*
X-97876Y2262D01*
X-97851Y2202D01*
X-97820Y2167D01*
X-97795Y2126D01*
X-97744Y2084D01*
X-97700Y2036D01*
X-97658Y2014D01*
X-97621Y1985D01*
X-97559Y1964D01*
X-97500Y1933D01*
X-97446Y1925D01*
X-97409Y1913D01*
X-97369Y1914D01*
X-97315Y1906D01*
X-84445Y1906D01*
X-84380Y1917D01*
G37*
G36*
X-42405Y-165634D02*
X-42405Y-165634D01*
X-42340Y-165623D01*
X-42274Y-165621D01*
X-42231Y-165603D01*
X-42184Y-165595D01*
X-42127Y-165561D01*
X-42067Y-165536D01*
X-42032Y-165505D01*
X-41991Y-165480D01*
X-41949Y-165429D01*
X-41901Y-165385D01*
X-41879Y-165343D01*
X-41850Y-165306D01*
X-41829Y-165244D01*
X-41798Y-165185D01*
X-41790Y-165131D01*
X-41778Y-165094D01*
X-41779Y-165054D01*
X-41771Y-165000D01*
X-41771Y-157024D01*
X-41026Y-156279D01*
X-28974Y-156279D01*
X-28229Y-157024D01*
X-28229Y-165000D01*
X-28218Y-165065D01*
X-28216Y-165131D01*
X-28198Y-165174D01*
X-28190Y-165221D01*
X-28156Y-165278D01*
X-28131Y-165338D01*
X-28100Y-165373D01*
X-28075Y-165414D01*
X-28024Y-165455D01*
X-27980Y-165504D01*
X-27938Y-165526D01*
X-27901Y-165555D01*
X-27839Y-165576D01*
X-27780Y-165607D01*
X-27726Y-165615D01*
X-27689Y-165627D01*
X-27649Y-165626D01*
X-27595Y-165634D01*
X-17405Y-165634D01*
X-17340Y-165623D01*
X-17274Y-165621D01*
X-17231Y-165603D01*
X-17184Y-165595D01*
X-17127Y-165561D01*
X-17067Y-165536D01*
X-17032Y-165505D01*
X-16991Y-165480D01*
X-16949Y-165429D01*
X-16901Y-165385D01*
X-16879Y-165343D01*
X-16850Y-165306D01*
X-16829Y-165244D01*
X-16798Y-165185D01*
X-16790Y-165131D01*
X-16778Y-165094D01*
X-16779Y-165054D01*
X-16771Y-165000D01*
X-16771Y-157024D01*
X-16026Y-156279D01*
X-3974Y-156279D01*
X-3229Y-157024D01*
X-3229Y-165000D01*
X-3218Y-165065D01*
X-3216Y-165131D01*
X-3198Y-165174D01*
X-3190Y-165221D01*
X-3156Y-165278D01*
X-3131Y-165338D01*
X-3100Y-165373D01*
X-3075Y-165414D01*
X-3024Y-165455D01*
X-2980Y-165504D01*
X-2938Y-165526D01*
X-2901Y-165555D01*
X-2839Y-165576D01*
X-2780Y-165607D01*
X-2726Y-165615D01*
X-2689Y-165627D01*
X-2649Y-165626D01*
X-2595Y-165634D01*
X2595Y-165634D01*
X2660Y-165623D01*
X2726Y-165621D01*
X2769Y-165603D01*
X2816Y-165595D01*
X2873Y-165561D01*
X2933Y-165536D01*
X2968Y-165505D01*
X3009Y-165480D01*
X3051Y-165429D01*
X3099Y-165385D01*
X3121Y-165343D01*
X3150Y-165306D01*
X3171Y-165244D01*
X3202Y-165185D01*
X3210Y-165131D01*
X3222Y-165094D01*
X3221Y-165054D01*
X3229Y-165000D01*
X3229Y-157024D01*
X3974Y-156279D01*
X16026Y-156279D01*
X16771Y-157024D01*
X16771Y-165000D01*
X16782Y-165065D01*
X16784Y-165131D01*
X16802Y-165174D01*
X16810Y-165221D01*
X16844Y-165278D01*
X16869Y-165338D01*
X16900Y-165373D01*
X16925Y-165414D01*
X16976Y-165455D01*
X17020Y-165504D01*
X17062Y-165526D01*
X17099Y-165555D01*
X17161Y-165576D01*
X17220Y-165607D01*
X17274Y-165615D01*
X17311Y-165627D01*
X17351Y-165626D01*
X17405Y-165634D01*
X26325Y-165634D01*
X26390Y-165623D01*
X26456Y-165621D01*
X26499Y-165603D01*
X26546Y-165595D01*
X26603Y-165561D01*
X26663Y-165536D01*
X26698Y-165505D01*
X26739Y-165480D01*
X26781Y-165429D01*
X26829Y-165385D01*
X26851Y-165343D01*
X26880Y-165306D01*
X26901Y-165244D01*
X26932Y-165185D01*
X26940Y-165131D01*
X26952Y-165094D01*
X26951Y-165054D01*
X26959Y-165000D01*
X26959Y-157215D01*
X27132Y-156569D01*
X27467Y-155990D01*
X27940Y-155517D01*
X28519Y-155182D01*
X29165Y-155009D01*
X33731Y-155009D01*
X33731Y-165000D01*
X33742Y-165065D01*
X33744Y-165131D01*
X33762Y-165174D01*
X33770Y-165221D01*
X33804Y-165278D01*
X33829Y-165338D01*
X33861Y-165373D01*
X33885Y-165414D01*
X33936Y-165455D01*
X33980Y-165504D01*
X34022Y-165526D01*
X34059Y-165555D01*
X34121Y-165576D01*
X34180Y-165607D01*
X34234Y-165615D01*
X34271Y-165627D01*
X34311Y-165626D01*
X34365Y-165634D01*
X35635Y-165634D01*
X35700Y-165623D01*
X35765Y-165621D01*
X35809Y-165603D01*
X35856Y-165595D01*
X35913Y-165561D01*
X35973Y-165536D01*
X36008Y-165505D01*
X36049Y-165480D01*
X36090Y-165429D01*
X36139Y-165385D01*
X36161Y-165343D01*
X36190Y-165306D01*
X36211Y-165244D01*
X36241Y-165185D01*
X36250Y-165131D01*
X36262Y-165094D01*
X36261Y-165054D01*
X36269Y-165000D01*
X36269Y-155009D01*
X40835Y-155009D01*
X41481Y-155182D01*
X42060Y-155517D01*
X42533Y-155990D01*
X42868Y-156569D01*
X43041Y-157215D01*
X43041Y-165000D01*
X43052Y-165065D01*
X43054Y-165131D01*
X43072Y-165174D01*
X43080Y-165221D01*
X43114Y-165278D01*
X43139Y-165338D01*
X43170Y-165373D01*
X43195Y-165414D01*
X43246Y-165455D01*
X43290Y-165504D01*
X43332Y-165526D01*
X43369Y-165555D01*
X43431Y-165576D01*
X43490Y-165607D01*
X43544Y-165615D01*
X43581Y-165627D01*
X43621Y-165626D01*
X43675Y-165634D01*
X45555Y-165634D01*
X45620Y-165623D01*
X45686Y-165621D01*
X45729Y-165603D01*
X45776Y-165595D01*
X45833Y-165561D01*
X45893Y-165536D01*
X45928Y-165505D01*
X45969Y-165480D01*
X46011Y-165429D01*
X46059Y-165385D01*
X46081Y-165343D01*
X46110Y-165306D01*
X46131Y-165244D01*
X46162Y-165185D01*
X46170Y-165131D01*
X46182Y-165094D01*
X46181Y-165054D01*
X46189Y-165000D01*
X46189Y-144341D01*
X46182Y-144299D01*
X46184Y-144257D01*
X46162Y-144190D01*
X46150Y-144120D01*
X46128Y-144084D01*
X46115Y-144043D01*
X46061Y-143971D01*
X46035Y-143927D01*
X46019Y-143914D01*
X46003Y-143893D01*
X20467Y-118357D01*
X20433Y-118332D01*
X20404Y-118301D01*
X20341Y-118269D01*
X20283Y-118228D01*
X20242Y-118218D01*
X20204Y-118198D01*
X20115Y-118185D01*
X20066Y-118172D01*
X20045Y-118175D01*
X20019Y-118171D01*
X16671Y-118171D01*
X14579Y-116079D01*
X14579Y-114445D01*
X14568Y-114380D01*
X14566Y-114314D01*
X14548Y-114271D01*
X14540Y-114224D01*
X14506Y-114167D01*
X14481Y-114107D01*
X14450Y-114072D01*
X14425Y-114031D01*
X14374Y-113989D01*
X14330Y-113941D01*
X14288Y-113919D01*
X14251Y-113890D01*
X14189Y-113869D01*
X14130Y-113838D01*
X14076Y-113830D01*
X14039Y-113818D01*
X13999Y-113819D01*
X13945Y-113811D01*
X-13945Y-113811D01*
X-14010Y-113822D01*
X-14076Y-113824D01*
X-14119Y-113842D01*
X-14166Y-113850D01*
X-14223Y-113884D01*
X-14283Y-113909D01*
X-14318Y-113940D01*
X-14359Y-113965D01*
X-14401Y-114016D01*
X-14449Y-114060D01*
X-14471Y-114102D01*
X-14500Y-114139D01*
X-14521Y-114201D01*
X-14552Y-114260D01*
X-14560Y-114314D01*
X-14572Y-114351D01*
X-14571Y-114391D01*
X-14579Y-114445D01*
X-14579Y-116079D01*
X-16671Y-118171D01*
X-24229Y-118171D01*
X-26321Y-116079D01*
X-26321Y-109331D01*
X-26328Y-109289D01*
X-26326Y-109247D01*
X-26348Y-109180D01*
X-26360Y-109110D01*
X-26382Y-109074D01*
X-26395Y-109033D01*
X-26449Y-108961D01*
X-26475Y-108917D01*
X-26491Y-108904D01*
X-26507Y-108883D01*
X-36393Y-98997D01*
X-36427Y-98972D01*
X-36456Y-98941D01*
X-36519Y-98909D01*
X-36577Y-98868D01*
X-36618Y-98858D01*
X-36656Y-98838D01*
X-36745Y-98825D01*
X-36794Y-98812D01*
X-36815Y-98815D01*
X-36841Y-98811D01*
X-61578Y-98811D01*
X-63811Y-96578D01*
X-63811Y-74005D01*
X-63822Y-73940D01*
X-63824Y-73874D01*
X-63842Y-73831D01*
X-63850Y-73784D01*
X-63884Y-73727D01*
X-63909Y-73667D01*
X-63940Y-73632D01*
X-63965Y-73591D01*
X-64016Y-73549D01*
X-64060Y-73501D01*
X-64102Y-73479D01*
X-64139Y-73450D01*
X-64201Y-73429D01*
X-64260Y-73398D01*
X-64314Y-73390D01*
X-64351Y-73378D01*
X-64391Y-73379D01*
X-64445Y-73371D01*
X-65521Y-73371D01*
X-67012Y-71880D01*
X-67085Y-71830D01*
X-67154Y-71774D01*
X-67176Y-71766D01*
X-67196Y-71752D01*
X-67282Y-71730D01*
X-67366Y-71702D01*
X-67390Y-71702D01*
X-67413Y-71696D01*
X-67502Y-71706D01*
X-67591Y-71708D01*
X-67613Y-71717D01*
X-67636Y-71720D01*
X-67716Y-71759D01*
X-67798Y-71793D01*
X-67816Y-71809D01*
X-67837Y-71819D01*
X-67898Y-71884D01*
X-67964Y-71944D01*
X-67975Y-71965D01*
X-67991Y-71982D01*
X-68026Y-72064D01*
X-68067Y-72144D01*
X-68070Y-72170D01*
X-68079Y-72189D01*
X-68081Y-72239D01*
X-68094Y-72329D01*
X-68094Y-107460D01*
X-68083Y-107525D01*
X-68081Y-107591D01*
X-68063Y-107634D01*
X-68055Y-107681D01*
X-68021Y-107738D01*
X-67996Y-107798D01*
X-67965Y-107833D01*
X-67940Y-107874D01*
X-67889Y-107916D01*
X-67845Y-107964D01*
X-67803Y-107986D01*
X-67766Y-108015D01*
X-67704Y-108036D01*
X-67645Y-108067D01*
X-67591Y-108075D01*
X-67554Y-108087D01*
X-67514Y-108086D01*
X-67460Y-108094D01*
X-46055Y-108094D01*
X-45990Y-108083D01*
X-45924Y-108081D01*
X-45881Y-108063D01*
X-45834Y-108055D01*
X-45777Y-108021D01*
X-45717Y-107996D01*
X-45682Y-107965D01*
X-45641Y-107940D01*
X-45599Y-107889D01*
X-45551Y-107845D01*
X-45529Y-107803D01*
X-45500Y-107766D01*
X-45479Y-107704D01*
X-45448Y-107645D01*
X-45440Y-107591D01*
X-45428Y-107554D01*
X-45429Y-107514D01*
X-45421Y-107460D01*
X-45421Y-103921D01*
X-43329Y-101829D01*
X-35771Y-101829D01*
X-33679Y-103921D01*
X-33679Y-116079D01*
X-35771Y-118171D01*
X-43329Y-118171D01*
X-45421Y-116079D01*
X-45421Y-112540D01*
X-45432Y-112475D01*
X-45434Y-112409D01*
X-45452Y-112366D01*
X-45460Y-112319D01*
X-45494Y-112262D01*
X-45519Y-112202D01*
X-45550Y-112167D01*
X-45575Y-112126D01*
X-45626Y-112084D01*
X-45670Y-112036D01*
X-45712Y-112014D01*
X-45749Y-111985D01*
X-45811Y-111964D01*
X-45870Y-111933D01*
X-45924Y-111925D01*
X-45961Y-111913D01*
X-46001Y-111914D01*
X-46055Y-111906D01*
X-70789Y-111906D01*
X-71906Y-110789D01*
X-71906Y-74125D01*
X-71922Y-74037D01*
X-71931Y-73948D01*
X-71941Y-73927D01*
X-71945Y-73904D01*
X-71991Y-73827D01*
X-72030Y-73747D01*
X-72048Y-73731D01*
X-72060Y-73711D01*
X-72129Y-73655D01*
X-72194Y-73594D01*
X-72216Y-73584D01*
X-72234Y-73570D01*
X-72318Y-73541D01*
X-72401Y-73506D01*
X-72424Y-73505D01*
X-72446Y-73498D01*
X-72535Y-73500D01*
X-72625Y-73496D01*
X-72647Y-73504D01*
X-72671Y-73504D01*
X-72753Y-73538D01*
X-72838Y-73565D01*
X-72859Y-73581D01*
X-72878Y-73589D01*
X-72901Y-73609D01*
X-74095Y-74298D01*
X-75372Y-74641D01*
X-77681Y-74641D01*
X-77681Y-65635D01*
X-77692Y-65570D01*
X-77694Y-65505D01*
X-77712Y-65461D01*
X-77720Y-65414D01*
X-77754Y-65358D01*
X-77779Y-65297D01*
X-77811Y-65262D01*
X-77835Y-65221D01*
X-77886Y-65180D01*
X-77930Y-65131D01*
X-77972Y-65109D01*
X-78009Y-65080D01*
X-78071Y-65059D01*
X-78130Y-65029D01*
X-78184Y-65020D01*
X-78221Y-65008D01*
X-78261Y-65009D01*
X-78315Y-65001D01*
X-78951Y-65001D01*
X-78951Y-64999D01*
X-78315Y-64999D01*
X-78250Y-64987D01*
X-78185Y-64986D01*
X-78141Y-64968D01*
X-78094Y-64959D01*
X-78037Y-64926D01*
X-77977Y-64901D01*
X-77942Y-64869D01*
X-77901Y-64845D01*
X-77860Y-64794D01*
X-77811Y-64750D01*
X-77789Y-64708D01*
X-77760Y-64671D01*
X-77739Y-64609D01*
X-77708Y-64550D01*
X-77700Y-64496D01*
X-77688Y-64459D01*
X-77689Y-64419D01*
X-77681Y-64365D01*
X-77681Y-55359D01*
X-75372Y-55359D01*
X-74095Y-55702D01*
X-72949Y-56363D01*
X-72013Y-57299D01*
X-71687Y-57863D01*
X-71664Y-57891D01*
X-71648Y-57923D01*
X-71592Y-57976D01*
X-71543Y-58035D01*
X-71511Y-58052D01*
X-71485Y-58077D01*
X-71414Y-58107D01*
X-71347Y-58145D01*
X-71311Y-58150D01*
X-71278Y-58165D01*
X-71201Y-58168D01*
X-71126Y-58180D01*
X-71090Y-58173D01*
X-71054Y-58175D01*
X-70981Y-58151D01*
X-70906Y-58136D01*
X-70875Y-58117D01*
X-70840Y-58106D01*
X-70757Y-58044D01*
X-70715Y-58018D01*
X-70705Y-58006D01*
X-70690Y-57994D01*
X-70604Y-57908D01*
X-70603Y-57908D01*
X-65789Y-53094D01*
X-65040Y-53094D01*
X-64975Y-53083D01*
X-64909Y-53081D01*
X-64866Y-53063D01*
X-64819Y-53055D01*
X-64762Y-53021D01*
X-64702Y-52996D01*
X-64667Y-52965D01*
X-64626Y-52940D01*
X-64584Y-52889D01*
X-64536Y-52845D01*
X-64514Y-52803D01*
X-64485Y-52766D01*
X-64464Y-52704D01*
X-64433Y-52645D01*
X-64425Y-52591D01*
X-64413Y-52554D01*
X-64414Y-52514D01*
X-64406Y-52460D01*
X-64406Y-49905D01*
X-64413Y-49863D01*
X-64411Y-49821D01*
X-64433Y-49754D01*
X-64445Y-49684D01*
X-64467Y-49648D01*
X-64480Y-49607D01*
X-64521Y-49552D01*
X-64521Y-36475D01*
X-63776Y-35730D01*
X-57224Y-35730D01*
X-56479Y-36475D01*
X-56479Y-49527D01*
X-57224Y-50272D01*
X-59960Y-50272D01*
X-60025Y-50283D01*
X-60091Y-50285D01*
X-60134Y-50303D01*
X-60181Y-50311D01*
X-60238Y-50345D01*
X-60298Y-50370D01*
X-60333Y-50401D01*
X-60374Y-50426D01*
X-60416Y-50477D01*
X-60464Y-50521D01*
X-60486Y-50563D01*
X-60515Y-50600D01*
X-60536Y-50662D01*
X-60567Y-50721D01*
X-60575Y-50775D01*
X-60587Y-50812D01*
X-60586Y-50852D01*
X-60594Y-50906D01*
X-60594Y-55995D01*
X-60583Y-56060D01*
X-60581Y-56126D01*
X-60563Y-56169D01*
X-60555Y-56216D01*
X-60521Y-56273D01*
X-60496Y-56333D01*
X-60465Y-56368D01*
X-60440Y-56409D01*
X-60389Y-56451D01*
X-60345Y-56499D01*
X-60303Y-56521D01*
X-60266Y-56550D01*
X-60204Y-56571D01*
X-60145Y-56602D01*
X-60091Y-56610D01*
X-60054Y-56622D01*
X-60014Y-56621D01*
X-59960Y-56629D01*
X-56579Y-56629D01*
X-54586Y-58622D01*
X-54564Y-58637D01*
X-54546Y-58658D01*
X-54472Y-58701D01*
X-54402Y-58750D01*
X-54376Y-58757D01*
X-54352Y-58770D01*
X-54268Y-58784D01*
X-54185Y-58806D01*
X-54158Y-58803D01*
X-54131Y-58808D01*
X-54047Y-58791D01*
X-53962Y-58783D01*
X-53937Y-58771D01*
X-53910Y-58765D01*
X-53837Y-58721D01*
X-53760Y-58683D01*
X-53742Y-58663D01*
X-53718Y-58649D01*
X-53665Y-58582D01*
X-53607Y-58520D01*
X-53596Y-58495D01*
X-53579Y-58473D01*
X-53535Y-58350D01*
X-53519Y-58313D01*
X-53519Y-58306D01*
X-53516Y-58297D01*
X-52957Y-55491D01*
X-47571Y-47429D01*
X-39509Y-42043D01*
X-30000Y-40151D01*
X-20491Y-42043D01*
X-12429Y-47429D01*
X-7043Y-55491D01*
X-5151Y-65000D01*
X-7043Y-74509D01*
X-12429Y-82571D01*
X-20491Y-87957D01*
X-30000Y-89849D01*
X-39509Y-87957D01*
X-47571Y-82571D01*
X-52957Y-74509D01*
X-53516Y-71703D01*
X-53526Y-71678D01*
X-53528Y-71651D01*
X-53566Y-71574D01*
X-53598Y-71494D01*
X-53616Y-71474D01*
X-53628Y-71449D01*
X-53690Y-71391D01*
X-53747Y-71327D01*
X-53771Y-71314D01*
X-53791Y-71295D01*
X-53870Y-71262D01*
X-53946Y-71222D01*
X-53973Y-71219D01*
X-53998Y-71208D01*
X-54083Y-71204D01*
X-54168Y-71193D01*
X-54195Y-71199D01*
X-54222Y-71198D01*
X-54303Y-71224D01*
X-54387Y-71243D01*
X-54410Y-71258D01*
X-54436Y-71267D01*
X-54541Y-71345D01*
X-54574Y-71367D01*
X-54579Y-71373D01*
X-54586Y-71378D01*
X-56003Y-72796D01*
X-56028Y-72830D01*
X-56059Y-72859D01*
X-56091Y-72922D01*
X-56132Y-72980D01*
X-56142Y-73021D01*
X-56162Y-73059D01*
X-56175Y-73148D01*
X-56188Y-73197D01*
X-56185Y-73218D01*
X-56189Y-73244D01*
X-56189Y-90555D01*
X-56178Y-90620D01*
X-56176Y-90686D01*
X-56158Y-90729D01*
X-56150Y-90776D01*
X-56116Y-90833D01*
X-56091Y-90893D01*
X-56060Y-90928D01*
X-56035Y-90969D01*
X-55984Y-91011D01*
X-55940Y-91059D01*
X-55898Y-91081D01*
X-55861Y-91110D01*
X-55799Y-91131D01*
X-55740Y-91162D01*
X-55686Y-91170D01*
X-55649Y-91182D01*
X-55609Y-91181D01*
X-55555Y-91189D01*
X-33422Y-91189D01*
X-22967Y-101643D01*
X-22933Y-101668D01*
X-22904Y-101699D01*
X-22841Y-101731D01*
X-22783Y-101772D01*
X-22742Y-101782D01*
X-22704Y-101802D01*
X-22615Y-101815D01*
X-22566Y-101828D01*
X-22545Y-101825D01*
X-22519Y-101829D01*
X-16671Y-101829D01*
X-14579Y-103921D01*
X-14579Y-105555D01*
X-14568Y-105620D01*
X-14566Y-105686D01*
X-14548Y-105729D01*
X-14540Y-105776D01*
X-14506Y-105833D01*
X-14481Y-105893D01*
X-14450Y-105928D01*
X-14425Y-105969D01*
X-14374Y-106011D01*
X-14330Y-106059D01*
X-14288Y-106081D01*
X-14251Y-106110D01*
X-14189Y-106131D01*
X-14130Y-106162D01*
X-14076Y-106170D01*
X-14039Y-106182D01*
X-13999Y-106181D01*
X-13945Y-106189D01*
X13945Y-106189D01*
X14010Y-106178D01*
X14076Y-106176D01*
X14119Y-106158D01*
X14166Y-106150D01*
X14223Y-106116D01*
X14283Y-106091D01*
X14318Y-106060D01*
X14359Y-106035D01*
X14401Y-105984D01*
X14449Y-105940D01*
X14471Y-105898D01*
X14500Y-105861D01*
X14521Y-105799D01*
X14552Y-105740D01*
X14560Y-105686D01*
X14572Y-105649D01*
X14571Y-105609D01*
X14579Y-105555D01*
X14579Y-103921D01*
X16671Y-101829D01*
X24229Y-101829D01*
X26321Y-103921D01*
X26321Y-113169D01*
X26328Y-113211D01*
X26326Y-113253D01*
X26348Y-113320D01*
X26360Y-113390D01*
X26382Y-113426D01*
X26395Y-113467D01*
X26449Y-113539D01*
X26475Y-113583D01*
X26491Y-113596D01*
X26507Y-113617D01*
X51393Y-138503D01*
X53811Y-140922D01*
X53811Y-165000D01*
X53822Y-165065D01*
X53824Y-165131D01*
X53842Y-165174D01*
X53850Y-165221D01*
X53884Y-165278D01*
X53909Y-165338D01*
X53940Y-165373D01*
X53965Y-165414D01*
X54016Y-165455D01*
X54060Y-165504D01*
X54102Y-165526D01*
X54139Y-165555D01*
X54201Y-165576D01*
X54260Y-165607D01*
X54314Y-165615D01*
X54351Y-165627D01*
X54391Y-165626D01*
X54445Y-165634D01*
X97315Y-165634D01*
X97380Y-165623D01*
X97446Y-165621D01*
X97489Y-165603D01*
X97536Y-165595D01*
X97593Y-165561D01*
X97653Y-165536D01*
X97688Y-165505D01*
X97729Y-165480D01*
X97771Y-165429D01*
X97819Y-165385D01*
X97841Y-165343D01*
X97870Y-165306D01*
X97891Y-165244D01*
X97922Y-165185D01*
X97930Y-165131D01*
X97942Y-165094D01*
X97941Y-165054D01*
X97949Y-165000D01*
X97949Y0D01*
X97938Y65D01*
X97936Y131D01*
X97918Y174D01*
X97910Y221D01*
X97876Y278D01*
X97851Y338D01*
X97820Y373D01*
X97795Y414D01*
X97744Y456D01*
X97700Y504D01*
X97658Y526D01*
X97621Y555D01*
X97559Y576D01*
X97500Y607D01*
X97446Y615D01*
X97409Y627D01*
X97369Y626D01*
X97315Y634D01*
X94445Y634D01*
X94380Y623D01*
X94314Y621D01*
X94271Y603D01*
X94224Y595D01*
X94167Y561D01*
X94107Y536D01*
X94072Y505D01*
X94031Y480D01*
X93989Y429D01*
X93941Y385D01*
X93919Y343D01*
X93890Y306D01*
X93869Y244D01*
X93838Y185D01*
X93830Y131D01*
X93818Y94D01*
X93819Y54D01*
X93811Y0D01*
X93811Y-24078D01*
X92088Y-25801D01*
X92050Y-25856D01*
X92005Y-25903D01*
X91987Y-25947D01*
X91960Y-25986D01*
X91943Y-26049D01*
X91918Y-26110D01*
X91915Y-26157D01*
X91904Y-26203D01*
X91910Y-26268D01*
X91908Y-26334D01*
X91922Y-26379D01*
X91927Y-26426D01*
X91956Y-26485D01*
X91976Y-26548D01*
X92009Y-26592D01*
X92026Y-26627D01*
X92055Y-26654D01*
X92088Y-26698D01*
X93811Y-28422D01*
X93811Y-56578D01*
X85807Y-64583D01*
X85782Y-64617D01*
X85751Y-64646D01*
X85719Y-64709D01*
X85678Y-64767D01*
X85668Y-64808D01*
X85648Y-64846D01*
X85635Y-64935D01*
X85622Y-64984D01*
X85625Y-65005D01*
X85621Y-65031D01*
X85621Y-71171D01*
X83421Y-73371D01*
X83395Y-73371D01*
X83330Y-73382D01*
X83264Y-73384D01*
X83221Y-73402D01*
X83174Y-73410D01*
X83117Y-73444D01*
X83057Y-73469D01*
X83022Y-73500D01*
X82981Y-73525D01*
X82939Y-73576D01*
X82891Y-73620D01*
X82869Y-73662D01*
X82840Y-73699D01*
X82819Y-73761D01*
X82788Y-73820D01*
X82780Y-73874D01*
X82768Y-73911D01*
X82769Y-73951D01*
X82761Y-74005D01*
X82761Y-102109D01*
X82768Y-102151D01*
X82766Y-102193D01*
X82788Y-102260D01*
X82800Y-102330D01*
X82822Y-102366D01*
X82835Y-102407D01*
X82889Y-102480D01*
X82915Y-102523D01*
X82931Y-102536D01*
X82946Y-102557D01*
X83933Y-103543D01*
X83968Y-103568D01*
X83996Y-103599D01*
X84059Y-103631D01*
X84117Y-103672D01*
X84158Y-103682D01*
X84196Y-103702D01*
X84285Y-103715D01*
X84334Y-103728D01*
X84355Y-103725D01*
X84381Y-103729D01*
X86247Y-103729D01*
X88552Y-104684D01*
X90316Y-106448D01*
X91271Y-108753D01*
X91271Y-111247D01*
X90316Y-113552D01*
X88552Y-115316D01*
X86247Y-116271D01*
X83753Y-116271D01*
X81448Y-115316D01*
X79684Y-113552D01*
X78729Y-111247D01*
X78729Y-109381D01*
X78722Y-109339D01*
X78724Y-109297D01*
X78702Y-109230D01*
X78690Y-109160D01*
X78668Y-109124D01*
X78655Y-109083D01*
X78601Y-109011D01*
X78575Y-108967D01*
X78559Y-108954D01*
X78543Y-108933D01*
X77557Y-107946D01*
X75139Y-105528D01*
X75139Y-74005D01*
X75128Y-73940D01*
X75126Y-73874D01*
X75108Y-73831D01*
X75100Y-73784D01*
X75066Y-73727D01*
X75041Y-73667D01*
X75010Y-73632D01*
X74985Y-73591D01*
X74934Y-73549D01*
X74890Y-73501D01*
X74848Y-73479D01*
X74811Y-73450D01*
X74749Y-73429D01*
X74690Y-73398D01*
X74636Y-73390D01*
X74599Y-73378D01*
X74559Y-73379D01*
X74505Y-73371D01*
X74479Y-73371D01*
X72988Y-71880D01*
X72915Y-71830D01*
X72846Y-71774D01*
X72824Y-71766D01*
X72804Y-71752D01*
X72718Y-71730D01*
X72634Y-71702D01*
X72610Y-71702D01*
X72587Y-71696D01*
X72498Y-71706D01*
X72409Y-71708D01*
X72387Y-71717D01*
X72364Y-71720D01*
X72284Y-71759D01*
X72202Y-71793D01*
X72184Y-71809D01*
X72163Y-71819D01*
X72102Y-71884D01*
X72036Y-71944D01*
X72025Y-71965D01*
X72009Y-71982D01*
X71974Y-72064D01*
X71933Y-72144D01*
X71930Y-72170D01*
X71921Y-72189D01*
X71919Y-72239D01*
X71906Y-72329D01*
X71906Y-110789D01*
X70789Y-111906D01*
X46055Y-111906D01*
X45990Y-111917D01*
X45924Y-111919D01*
X45881Y-111937D01*
X45834Y-111945D01*
X45777Y-111979D01*
X45717Y-112004D01*
X45682Y-112035D01*
X45641Y-112060D01*
X45599Y-112111D01*
X45551Y-112155D01*
X45529Y-112197D01*
X45500Y-112234D01*
X45479Y-112296D01*
X45448Y-112355D01*
X45440Y-112409D01*
X45428Y-112446D01*
X45429Y-112486D01*
X45421Y-112540D01*
X45421Y-116079D01*
X43329Y-118171D01*
X35771Y-118171D01*
X33679Y-116079D01*
X33679Y-103921D01*
X35771Y-101829D01*
X43329Y-101829D01*
X45421Y-103921D01*
X45421Y-107460D01*
X45432Y-107525D01*
X45434Y-107591D01*
X45452Y-107634D01*
X45460Y-107681D01*
X45494Y-107738D01*
X45519Y-107798D01*
X45550Y-107833D01*
X45575Y-107874D01*
X45626Y-107916D01*
X45670Y-107964D01*
X45712Y-107986D01*
X45749Y-108015D01*
X45811Y-108036D01*
X45870Y-108067D01*
X45924Y-108075D01*
X45961Y-108087D01*
X46001Y-108086D01*
X46055Y-108094D01*
X67460Y-108094D01*
X67525Y-108083D01*
X67591Y-108081D01*
X67634Y-108063D01*
X67681Y-108055D01*
X67738Y-108021D01*
X67798Y-107996D01*
X67833Y-107965D01*
X67874Y-107940D01*
X67916Y-107889D01*
X67964Y-107845D01*
X67986Y-107803D01*
X68015Y-107766D01*
X68036Y-107704D01*
X68067Y-107645D01*
X68075Y-107591D01*
X68087Y-107554D01*
X68086Y-107514D01*
X68094Y-107460D01*
X68094Y-74125D01*
X68078Y-74037D01*
X68069Y-73948D01*
X68059Y-73927D01*
X68055Y-73904D01*
X68009Y-73827D01*
X67970Y-73747D01*
X67952Y-73731D01*
X67940Y-73711D01*
X67871Y-73655D01*
X67806Y-73594D01*
X67784Y-73584D01*
X67766Y-73570D01*
X67682Y-73541D01*
X67599Y-73506D01*
X67576Y-73505D01*
X67554Y-73498D01*
X67465Y-73500D01*
X67375Y-73496D01*
X67353Y-73504D01*
X67329Y-73504D01*
X67247Y-73538D01*
X67162Y-73565D01*
X67141Y-73581D01*
X67122Y-73589D01*
X67099Y-73609D01*
X65905Y-74298D01*
X64628Y-74641D01*
X62319Y-74641D01*
X62319Y-65635D01*
X62308Y-65570D01*
X62306Y-65505D01*
X62288Y-65461D01*
X62279Y-65414D01*
X62246Y-65358D01*
X62221Y-65297D01*
X62189Y-65262D01*
X62165Y-65221D01*
X62114Y-65180D01*
X62070Y-65131D01*
X62028Y-65109D01*
X61991Y-65080D01*
X61929Y-65059D01*
X61870Y-65029D01*
X61816Y-65020D01*
X61779Y-65008D01*
X61739Y-65009D01*
X61685Y-65001D01*
X60415Y-65001D01*
X60350Y-65013D01*
X60285Y-65014D01*
X60241Y-65032D01*
X60194Y-65041D01*
X60137Y-65074D01*
X60077Y-65099D01*
X60042Y-65131D01*
X60001Y-65155D01*
X59960Y-65206D01*
X59911Y-65250D01*
X59889Y-65292D01*
X59860Y-65329D01*
X59839Y-65391D01*
X59808Y-65450D01*
X59800Y-65504D01*
X59788Y-65541D01*
X59789Y-65581D01*
X59781Y-65635D01*
X59781Y-74641D01*
X57472Y-74641D01*
X56195Y-74298D01*
X55049Y-73637D01*
X54288Y-72876D01*
X54266Y-72861D01*
X54248Y-72840D01*
X54174Y-72797D01*
X54104Y-72748D01*
X54078Y-72741D01*
X54054Y-72728D01*
X53970Y-72714D01*
X53887Y-72692D01*
X53860Y-72695D01*
X53833Y-72691D01*
X53748Y-72707D01*
X53664Y-72715D01*
X53639Y-72727D01*
X53612Y-72733D01*
X53539Y-72777D01*
X53462Y-72815D01*
X53444Y-72835D01*
X53420Y-72849D01*
X53367Y-72916D01*
X53309Y-72978D01*
X53298Y-73003D01*
X53281Y-73025D01*
X53237Y-73148D01*
X53221Y-73185D01*
X53221Y-73192D01*
X53218Y-73201D01*
X52957Y-74509D01*
X47571Y-82571D01*
X39509Y-87957D01*
X30000Y-89849D01*
X20491Y-87957D01*
X12429Y-82571D01*
X7043Y-74509D01*
X5151Y-65000D01*
X7043Y-55491D01*
X12429Y-47429D01*
X20491Y-42043D01*
X30000Y-40151D01*
X39509Y-42043D01*
X47571Y-47429D01*
X52957Y-55491D01*
X53218Y-56799D01*
X53228Y-56824D01*
X53230Y-56851D01*
X53268Y-56928D01*
X53300Y-57008D01*
X53318Y-57028D01*
X53330Y-57053D01*
X53392Y-57111D01*
X53449Y-57175D01*
X53473Y-57188D01*
X53493Y-57206D01*
X53572Y-57240D01*
X53648Y-57280D01*
X53675Y-57283D01*
X53700Y-57294D01*
X53785Y-57298D01*
X53870Y-57309D01*
X53897Y-57303D01*
X53924Y-57304D01*
X54005Y-57278D01*
X54089Y-57259D01*
X54112Y-57244D01*
X54138Y-57235D01*
X54243Y-57157D01*
X54276Y-57135D01*
X54281Y-57129D01*
X54288Y-57124D01*
X55049Y-56363D01*
X56195Y-55702D01*
X57472Y-55359D01*
X59781Y-55359D01*
X59781Y-64365D01*
X59792Y-64430D01*
X59794Y-64495D01*
X59812Y-64539D01*
X59820Y-64586D01*
X59854Y-64642D01*
X59879Y-64703D01*
X59911Y-64738D01*
X59935Y-64779D01*
X59986Y-64820D01*
X60030Y-64869D01*
X60072Y-64891D01*
X60109Y-64920D01*
X60171Y-64941D01*
X60230Y-64971D01*
X60284Y-64980D01*
X60321Y-64992D01*
X60361Y-64991D01*
X60415Y-64999D01*
X61685Y-64999D01*
X61750Y-64987D01*
X61815Y-64986D01*
X61859Y-64968D01*
X61906Y-64959D01*
X61963Y-64926D01*
X62023Y-64901D01*
X62058Y-64869D01*
X62099Y-64845D01*
X62140Y-64794D01*
X62189Y-64750D01*
X62211Y-64708D01*
X62240Y-64671D01*
X62261Y-64609D01*
X62291Y-64550D01*
X62300Y-64496D01*
X62312Y-64459D01*
X62311Y-64419D01*
X62319Y-64365D01*
X62319Y-55359D01*
X64628Y-55359D01*
X65905Y-55702D01*
X67051Y-56363D01*
X67987Y-57299D01*
X68313Y-57863D01*
X68336Y-57891D01*
X68352Y-57923D01*
X68408Y-57976D01*
X68457Y-58035D01*
X68489Y-58052D01*
X68515Y-58077D01*
X68586Y-58107D01*
X68653Y-58145D01*
X68689Y-58150D01*
X68722Y-58165D01*
X68799Y-58168D01*
X68874Y-58180D01*
X68910Y-58173D01*
X68946Y-58175D01*
X69019Y-58151D01*
X69094Y-58136D01*
X69125Y-58117D01*
X69160Y-58106D01*
X69243Y-58044D01*
X69285Y-58018D01*
X69295Y-58006D01*
X69310Y-57994D01*
X69396Y-57908D01*
X69397Y-57908D01*
X74211Y-53094D01*
X74960Y-53094D01*
X75025Y-53083D01*
X75091Y-53081D01*
X75134Y-53063D01*
X75181Y-53055D01*
X75238Y-53021D01*
X75298Y-52996D01*
X75333Y-52965D01*
X75374Y-52940D01*
X75416Y-52889D01*
X75464Y-52845D01*
X75486Y-52803D01*
X75515Y-52766D01*
X75536Y-52704D01*
X75567Y-52645D01*
X75575Y-52591D01*
X75587Y-52554D01*
X75586Y-52514D01*
X75594Y-52460D01*
X75594Y-49905D01*
X75587Y-49863D01*
X75589Y-49821D01*
X75567Y-49754D01*
X75555Y-49684D01*
X75533Y-49648D01*
X75520Y-49607D01*
X75479Y-49552D01*
X75479Y-36475D01*
X76224Y-35730D01*
X82776Y-35730D01*
X83521Y-36475D01*
X83521Y-49527D01*
X82776Y-50272D01*
X80040Y-50272D01*
X79975Y-50283D01*
X79909Y-50285D01*
X79866Y-50303D01*
X79819Y-50311D01*
X79762Y-50345D01*
X79702Y-50370D01*
X79667Y-50401D01*
X79626Y-50426D01*
X79584Y-50477D01*
X79536Y-50521D01*
X79514Y-50563D01*
X79485Y-50600D01*
X79464Y-50662D01*
X79433Y-50721D01*
X79425Y-50775D01*
X79413Y-50812D01*
X79414Y-50852D01*
X79406Y-50906D01*
X79406Y-55995D01*
X79417Y-56060D01*
X79419Y-56126D01*
X79437Y-56169D01*
X79445Y-56216D01*
X79479Y-56273D01*
X79504Y-56333D01*
X79535Y-56368D01*
X79560Y-56409D01*
X79611Y-56451D01*
X79655Y-56499D01*
X79697Y-56521D01*
X79734Y-56550D01*
X79796Y-56571D01*
X79855Y-56602D01*
X79909Y-56610D01*
X79946Y-56622D01*
X79986Y-56621D01*
X80040Y-56629D01*
X82719Y-56629D01*
X82761Y-56622D01*
X82803Y-56624D01*
X82870Y-56602D01*
X82940Y-56590D01*
X82976Y-56568D01*
X83017Y-56555D01*
X83089Y-56501D01*
X83133Y-56475D01*
X83146Y-56459D01*
X83167Y-56443D01*
X86003Y-53607D01*
X86028Y-53573D01*
X86059Y-53544D01*
X86091Y-53481D01*
X86132Y-53423D01*
X86142Y-53382D01*
X86162Y-53344D01*
X86175Y-53255D01*
X86188Y-53206D01*
X86185Y-53185D01*
X86189Y-53159D01*
X86189Y-34445D01*
X86178Y-34380D01*
X86176Y-34314D01*
X86158Y-34271D01*
X86150Y-34224D01*
X86116Y-34167D01*
X86091Y-34107D01*
X86060Y-34072D01*
X86035Y-34031D01*
X85984Y-33989D01*
X85940Y-33941D01*
X85898Y-33919D01*
X85861Y-33890D01*
X85799Y-33869D01*
X85740Y-33838D01*
X85686Y-33830D01*
X85649Y-33818D01*
X85609Y-33819D01*
X85555Y-33811D01*
X68422Y-33811D01*
X66189Y-31578D01*
X66189Y-23998D01*
X66182Y-23956D01*
X66184Y-23914D01*
X66162Y-23847D01*
X66150Y-23777D01*
X66128Y-23741D01*
X66115Y-23700D01*
X66061Y-23628D01*
X66035Y-23584D01*
X66019Y-23571D01*
X66003Y-23550D01*
X65979Y-23525D01*
X65979Y-10473D01*
X66724Y-9728D01*
X73276Y-9728D01*
X74021Y-10473D01*
X74021Y-23525D01*
X73997Y-23550D01*
X73972Y-23584D01*
X73941Y-23613D01*
X73909Y-23676D01*
X73868Y-23734D01*
X73858Y-23775D01*
X73838Y-23813D01*
X73825Y-23902D01*
X73812Y-23951D01*
X73815Y-23972D01*
X73811Y-23998D01*
X73811Y-25555D01*
X73822Y-25620D01*
X73824Y-25686D01*
X73842Y-25729D01*
X73850Y-25776D01*
X73884Y-25833D01*
X73909Y-25893D01*
X73940Y-25928D01*
X73965Y-25969D01*
X74016Y-26011D01*
X74060Y-26059D01*
X74102Y-26081D01*
X74139Y-26110D01*
X74201Y-26131D01*
X74260Y-26162D01*
X74314Y-26170D01*
X74351Y-26182D01*
X74391Y-26181D01*
X74445Y-26189D01*
X80659Y-26189D01*
X80701Y-26182D01*
X80743Y-26184D01*
X80810Y-26162D01*
X80880Y-26150D01*
X80916Y-26128D01*
X80957Y-26115D01*
X81029Y-26061D01*
X81073Y-26035D01*
X81086Y-26019D01*
X81107Y-26004D01*
X81758Y-25352D01*
X81809Y-25279D01*
X81865Y-25210D01*
X81873Y-25188D01*
X81886Y-25168D01*
X81909Y-25082D01*
X81937Y-24998D01*
X81936Y-24974D01*
X81942Y-24951D01*
X81933Y-24862D01*
X81931Y-24773D01*
X81922Y-24751D01*
X81919Y-24728D01*
X81880Y-24648D01*
X81846Y-24566D01*
X81830Y-24548D01*
X81820Y-24527D01*
X81755Y-24466D01*
X81695Y-24400D01*
X81674Y-24389D01*
X81656Y-24373D01*
X81574Y-24338D01*
X81495Y-24297D01*
X81469Y-24294D01*
X81450Y-24285D01*
X81399Y-24283D01*
X81310Y-24270D01*
X76224Y-24270D01*
X75479Y-23525D01*
X75479Y-10473D01*
X76224Y-9728D01*
X77460Y-9728D01*
X77525Y-9717D01*
X77591Y-9715D01*
X77634Y-9697D01*
X77681Y-9689D01*
X77738Y-9655D01*
X77798Y-9630D01*
X77833Y-9599D01*
X77874Y-9574D01*
X77916Y-9523D01*
X77964Y-9479D01*
X77986Y-9437D01*
X78015Y-9400D01*
X78036Y-9338D01*
X78067Y-9279D01*
X78075Y-9225D01*
X78087Y-9188D01*
X78086Y-9148D01*
X78094Y-9094D01*
X78094Y-2540D01*
X78083Y-2475D01*
X78081Y-2409D01*
X78063Y-2366D01*
X78055Y-2319D01*
X78021Y-2262D01*
X77996Y-2202D01*
X77965Y-2167D01*
X77940Y-2126D01*
X77889Y-2084D01*
X77845Y-2036D01*
X77803Y-2014D01*
X77766Y-1985D01*
X77704Y-1964D01*
X77645Y-1933D01*
X77591Y-1925D01*
X77554Y-1913D01*
X77514Y-1914D01*
X77460Y-1906D01*
X64724Y-1906D01*
X64636Y-1921D01*
X64548Y-1931D01*
X64527Y-1941D01*
X64503Y-1945D01*
X64427Y-1991D01*
X64347Y-2030D01*
X64331Y-2047D01*
X64310Y-2060D01*
X64254Y-2128D01*
X64193Y-2193D01*
X64184Y-2215D01*
X64169Y-2234D01*
X64140Y-2318D01*
X64106Y-2400D01*
X64104Y-2424D01*
X64097Y-2446D01*
X64099Y-2535D01*
X64096Y-2624D01*
X64103Y-2647D01*
X64103Y-2671D01*
X64137Y-2753D01*
X64164Y-2838D01*
X64180Y-2859D01*
X64188Y-2878D01*
X64222Y-2916D01*
X64276Y-2988D01*
X64446Y-3159D01*
X64446Y-6841D01*
X63997Y-7291D01*
X63972Y-7326D01*
X63941Y-7354D01*
X63909Y-7417D01*
X63868Y-7475D01*
X63858Y-7516D01*
X63838Y-7554D01*
X63825Y-7643D01*
X63812Y-7692D01*
X63815Y-7713D01*
X63811Y-7739D01*
X63811Y-9500D01*
X63818Y-9542D01*
X63816Y-9584D01*
X63838Y-9651D01*
X63850Y-9721D01*
X63872Y-9757D01*
X63885Y-9798D01*
X63939Y-9870D01*
X63965Y-9914D01*
X63981Y-9927D01*
X63997Y-9948D01*
X64521Y-10473D01*
X64521Y-17291D01*
X64529Y-17340D01*
X64540Y-17445D01*
X64584Y-17624D01*
X64584Y-17626D01*
X64548Y-17694D01*
X64542Y-17735D01*
X64532Y-17763D01*
X64531Y-17810D01*
X64521Y-17880D01*
X64521Y-23525D01*
X63776Y-24270D01*
X57224Y-24270D01*
X56479Y-23525D01*
X56479Y-17131D01*
X56472Y-17089D01*
X56474Y-17047D01*
X56452Y-16980D01*
X56440Y-16910D01*
X56418Y-16874D01*
X56405Y-16833D01*
X56351Y-16761D01*
X56325Y-16717D01*
X56309Y-16704D01*
X56293Y-16683D01*
X56189Y-16578D01*
X56189Y-15547D01*
X56181Y-15499D01*
X56170Y-15394D01*
X55920Y-14393D01*
X56099Y-14095D01*
X56126Y-14023D01*
X56162Y-13954D01*
X56168Y-13914D01*
X56178Y-13886D01*
X56179Y-13839D01*
X56189Y-13769D01*
X56189Y-7739D01*
X56182Y-7697D01*
X56184Y-7655D01*
X56162Y-7588D01*
X56150Y-7518D01*
X56128Y-7482D01*
X56115Y-7441D01*
X56061Y-7369D01*
X56035Y-7325D01*
X56019Y-7312D01*
X56003Y-7291D01*
X55499Y-6787D01*
X55477Y-6771D01*
X55460Y-6750D01*
X55385Y-6707D01*
X55315Y-6659D01*
X55289Y-6652D01*
X55265Y-6638D01*
X55181Y-6624D01*
X55098Y-6603D01*
X55071Y-6605D01*
X55044Y-6601D01*
X54960Y-6617D01*
X54875Y-6626D01*
X54851Y-6638D01*
X54824Y-6643D01*
X54750Y-6687D01*
X54674Y-6725D01*
X54655Y-6745D01*
X54632Y-6759D01*
X54579Y-6826D01*
X54520Y-6889D01*
X54509Y-6914D01*
X54492Y-6935D01*
X54448Y-7058D01*
X54432Y-7095D01*
X54432Y-7103D01*
X54429Y-7111D01*
X52957Y-14509D01*
X47571Y-22571D01*
X39509Y-27957D01*
X30000Y-29849D01*
X20491Y-27957D01*
X12429Y-22571D01*
X7043Y-14509D01*
X5151Y-5000D01*
X6121Y-124D01*
X6121Y-108D01*
X6126Y-94D01*
X6123Y3D01*
X6125Y101D01*
X6120Y115D01*
X6120Y131D01*
X6083Y220D01*
X6051Y312D01*
X6041Y324D01*
X6035Y338D01*
X5970Y410D01*
X5908Y485D01*
X5894Y493D01*
X5884Y504D01*
X5797Y549D01*
X5713Y597D01*
X5698Y600D01*
X5684Y607D01*
X5499Y634D01*
X-5499Y634D01*
X-5514Y632D01*
X-5529Y634D01*
X-5624Y612D01*
X-5720Y595D01*
X-5733Y587D01*
X-5748Y583D01*
X-5829Y530D01*
X-5913Y480D01*
X-5923Y469D01*
X-5936Y460D01*
X-5993Y382D01*
X-6054Y306D01*
X-6059Y292D01*
X-6068Y279D01*
X-6095Y185D01*
X-6126Y94D01*
X-6126Y78D01*
X-6130Y64D01*
X-6121Y-124D01*
X-5151Y-5000D01*
X-7043Y-14509D01*
X-12429Y-22571D01*
X-20491Y-27957D01*
X-30000Y-29849D01*
X-39509Y-27957D01*
X-47571Y-22571D01*
X-52957Y-14509D01*
X-54849Y-5000D01*
X-53879Y-124D01*
X-53879Y-108D01*
X-53874Y-94D01*
X-53877Y3D01*
X-53875Y101D01*
X-53880Y115D01*
X-53880Y131D01*
X-53917Y220D01*
X-53949Y312D01*
X-53959Y324D01*
X-53965Y338D01*
X-54030Y410D01*
X-54092Y485D01*
X-54106Y493D01*
X-54116Y504D01*
X-54203Y549D01*
X-54287Y597D01*
X-54302Y600D01*
X-54316Y607D01*
X-54501Y634D01*
X-57460Y634D01*
X-57525Y623D01*
X-57591Y621D01*
X-57634Y603D01*
X-57681Y595D01*
X-57738Y561D01*
X-57798Y536D01*
X-57833Y505D01*
X-57874Y480D01*
X-57916Y429D01*
X-57964Y385D01*
X-57986Y343D01*
X-58015Y306D01*
X-58036Y244D01*
X-58067Y185D01*
X-58075Y131D01*
X-58087Y94D01*
X-58086Y54D01*
X-58094Y0D01*
X-58094Y-9094D01*
X-58083Y-9159D01*
X-58081Y-9225D01*
X-58063Y-9268D01*
X-58055Y-9315D01*
X-58021Y-9372D01*
X-57996Y-9432D01*
X-57965Y-9467D01*
X-57940Y-9508D01*
X-57889Y-9550D01*
X-57845Y-9598D01*
X-57803Y-9620D01*
X-57766Y-9649D01*
X-57704Y-9670D01*
X-57645Y-9701D01*
X-57591Y-9709D01*
X-57554Y-9721D01*
X-57514Y-9720D01*
X-57460Y-9728D01*
X-57224Y-9728D01*
X-56479Y-10473D01*
X-56479Y-23525D01*
X-57224Y-24270D01*
X-63776Y-24270D01*
X-64521Y-23525D01*
X-64521Y-10473D01*
X-63776Y-9728D01*
X-62540Y-9728D01*
X-62475Y-9717D01*
X-62409Y-9715D01*
X-62366Y-9697D01*
X-62319Y-9689D01*
X-62262Y-9655D01*
X-62202Y-9630D01*
X-62167Y-9599D01*
X-62126Y-9574D01*
X-62084Y-9523D01*
X-62036Y-9479D01*
X-62014Y-9437D01*
X-61985Y-9400D01*
X-61964Y-9338D01*
X-61933Y-9279D01*
X-61925Y-9225D01*
X-61913Y-9188D01*
X-61914Y-9148D01*
X-61906Y-9094D01*
X-61906Y0D01*
X-61917Y65D01*
X-61919Y131D01*
X-61937Y174D01*
X-61945Y221D01*
X-61979Y278D01*
X-62004Y338D01*
X-62035Y373D01*
X-62060Y414D01*
X-62111Y456D01*
X-62155Y504D01*
X-62197Y526D01*
X-62234Y555D01*
X-62296Y576D01*
X-62355Y607D01*
X-62409Y615D01*
X-62446Y627D01*
X-62486Y626D01*
X-62540Y634D01*
X-65555Y634D01*
X-65620Y623D01*
X-65686Y621D01*
X-65729Y603D01*
X-65776Y595D01*
X-65833Y561D01*
X-65893Y536D01*
X-65928Y505D01*
X-65969Y480D01*
X-66011Y429D01*
X-66059Y385D01*
X-66081Y343D01*
X-66110Y306D01*
X-66131Y244D01*
X-66162Y185D01*
X-66170Y131D01*
X-66182Y94D01*
X-66181Y54D01*
X-66189Y0D01*
X-66189Y-10000D01*
X-66182Y-10042D01*
X-66184Y-10084D01*
X-66162Y-10151D01*
X-66150Y-10221D01*
X-66128Y-10257D01*
X-66115Y-10298D01*
X-66061Y-10371D01*
X-66035Y-10414D01*
X-66019Y-10427D01*
X-66003Y-10448D01*
X-65979Y-10473D01*
X-65979Y-23525D01*
X-66724Y-24270D01*
X-73276Y-24270D01*
X-74021Y-23525D01*
X-74021Y-10473D01*
X-73997Y-10448D01*
X-73972Y-10414D01*
X-73941Y-10385D01*
X-73909Y-10322D01*
X-73868Y-10264D01*
X-73858Y-10223D01*
X-73838Y-10185D01*
X-73825Y-10096D01*
X-73812Y-10047D01*
X-73815Y-10026D01*
X-73811Y-10000D01*
X-73811Y0D01*
X-73822Y65D01*
X-73824Y131D01*
X-73842Y174D01*
X-73850Y221D01*
X-73884Y278D01*
X-73909Y338D01*
X-73940Y373D01*
X-73965Y414D01*
X-74016Y456D01*
X-74060Y504D01*
X-74102Y526D01*
X-74139Y555D01*
X-74201Y576D01*
X-74260Y607D01*
X-74314Y615D01*
X-74351Y627D01*
X-74391Y626D01*
X-74445Y634D01*
X-75555Y634D01*
X-75620Y623D01*
X-75686Y621D01*
X-75729Y603D01*
X-75776Y595D01*
X-75833Y561D01*
X-75893Y536D01*
X-75928Y505D01*
X-75969Y480D01*
X-76011Y429D01*
X-76059Y385D01*
X-76081Y343D01*
X-76110Y306D01*
X-76131Y244D01*
X-76162Y185D01*
X-76170Y131D01*
X-76182Y94D01*
X-76181Y54D01*
X-76189Y0D01*
X-76189Y-9500D01*
X-76182Y-9542D01*
X-76184Y-9584D01*
X-76162Y-9651D01*
X-76150Y-9721D01*
X-76128Y-9757D01*
X-76115Y-9798D01*
X-76061Y-9870D01*
X-76035Y-9914D01*
X-76019Y-9927D01*
X-76003Y-9948D01*
X-75479Y-10473D01*
X-75479Y-17291D01*
X-75471Y-17340D01*
X-75460Y-17445D01*
X-75416Y-17624D01*
X-75416Y-17626D01*
X-75452Y-17694D01*
X-75458Y-17735D01*
X-75468Y-17763D01*
X-75469Y-17810D01*
X-75479Y-17880D01*
X-75479Y-23525D01*
X-76224Y-24270D01*
X-82776Y-24270D01*
X-83521Y-23525D01*
X-83521Y-17131D01*
X-83528Y-17089D01*
X-83526Y-17047D01*
X-83548Y-16980D01*
X-83560Y-16910D01*
X-83582Y-16874D01*
X-83595Y-16833D01*
X-83649Y-16761D01*
X-83675Y-16717D01*
X-83691Y-16704D01*
X-83707Y-16683D01*
X-83811Y-16578D01*
X-83811Y-15547D01*
X-83819Y-15499D01*
X-83830Y-15394D01*
X-84080Y-14393D01*
X-83901Y-14095D01*
X-83874Y-14023D01*
X-83838Y-13955D01*
X-83832Y-13914D01*
X-83822Y-13886D01*
X-83821Y-13839D01*
X-83811Y-13769D01*
X-83811Y-10080D01*
X-83822Y-10015D01*
X-83824Y-9949D01*
X-83842Y-9906D01*
X-83850Y-9859D01*
X-83884Y-9802D01*
X-83909Y-9742D01*
X-83940Y-9707D01*
X-83965Y-9666D01*
X-84016Y-9624D01*
X-84060Y-9576D01*
X-84102Y-9554D01*
X-84139Y-9525D01*
X-84201Y-9504D01*
X-84260Y-9473D01*
X-84314Y-9465D01*
X-84326Y-9461D01*
X-86946Y-6842D01*
X-86946Y-3159D01*
X-84236Y-449D01*
X-84185Y-375D01*
X-84129Y-306D01*
X-84121Y-284D01*
X-84108Y-264D01*
X-84085Y-178D01*
X-84057Y-94D01*
X-84058Y-70D01*
X-84052Y-47D01*
X-84061Y42D01*
X-84064Y131D01*
X-84072Y153D01*
X-84075Y176D01*
X-84114Y256D01*
X-84148Y338D01*
X-84164Y356D01*
X-84174Y377D01*
X-84239Y438D01*
X-84299Y504D01*
X-84320Y515D01*
X-84338Y531D01*
X-84420Y566D01*
X-84499Y607D01*
X-84525Y610D01*
X-84544Y619D01*
X-84595Y621D01*
X-84684Y634D01*
X-97315Y634D01*
X-97380Y623D01*
X-97446Y621D01*
X-97489Y603D01*
X-97536Y595D01*
X-97593Y561D01*
X-97653Y536D01*
X-97688Y505D01*
X-97729Y480D01*
X-97771Y429D01*
X-97819Y385D01*
X-97841Y343D01*
X-97870Y306D01*
X-97891Y244D01*
X-97922Y185D01*
X-97930Y131D01*
X-97942Y94D01*
X-97941Y54D01*
X-97949Y0D01*
X-97949Y-165000D01*
X-97938Y-165065D01*
X-97936Y-165131D01*
X-97918Y-165174D01*
X-97910Y-165221D01*
X-97876Y-165278D01*
X-97851Y-165338D01*
X-97820Y-165373D01*
X-97795Y-165414D01*
X-97744Y-165456D01*
X-97700Y-165504D01*
X-97658Y-165526D01*
X-97621Y-165555D01*
X-97559Y-165576D01*
X-97500Y-165607D01*
X-97446Y-165615D01*
X-97409Y-165627D01*
X-97369Y-165626D01*
X-97315Y-165634D01*
X-42405Y-165634D01*
G37*
G36*
X80022Y-217945D02*
X80022Y-217945D01*
X80050Y-217947D01*
X82758Y-217734D01*
X82807Y-217721D01*
X82905Y-217705D01*
X88057Y-216031D01*
X88062Y-216028D01*
X88067Y-216027D01*
X88234Y-215941D01*
X92616Y-212757D01*
X92620Y-212753D01*
X92625Y-212750D01*
X92645Y-212730D01*
X92659Y-212721D01*
X92688Y-212686D01*
X92757Y-212616D01*
X95941Y-208234D01*
X95943Y-208229D01*
X95947Y-208225D01*
X96031Y-208057D01*
X97705Y-202905D01*
X97712Y-202855D01*
X97712Y-202853D01*
X97723Y-202821D01*
X97723Y-202808D01*
X97734Y-202758D01*
X97947Y-200050D01*
X97945Y-200028D01*
X97949Y-200000D01*
X97949Y-167540D01*
X97938Y-167475D01*
X97936Y-167409D01*
X97918Y-167366D01*
X97910Y-167319D01*
X97876Y-167262D01*
X97851Y-167202D01*
X97820Y-167167D01*
X97795Y-167126D01*
X97744Y-167084D01*
X97700Y-167036D01*
X97658Y-167014D01*
X97621Y-166985D01*
X97559Y-166964D01*
X97500Y-166933D01*
X97446Y-166925D01*
X97409Y-166913D01*
X97369Y-166914D01*
X97315Y-166906D01*
X42405Y-166906D01*
X42340Y-166917D01*
X42274Y-166919D01*
X42231Y-166937D01*
X42184Y-166945D01*
X42127Y-166979D01*
X42067Y-167004D01*
X42032Y-167035D01*
X41991Y-167060D01*
X41949Y-167111D01*
X41901Y-167155D01*
X41879Y-167197D01*
X41850Y-167234D01*
X41829Y-167296D01*
X41798Y-167355D01*
X41790Y-167409D01*
X41778Y-167446D01*
X41779Y-167486D01*
X41771Y-167540D01*
X41771Y-177976D01*
X41026Y-178721D01*
X28974Y-178721D01*
X28229Y-177976D01*
X28229Y-167540D01*
X28218Y-167475D01*
X28216Y-167409D01*
X28198Y-167366D01*
X28190Y-167319D01*
X28156Y-167262D01*
X28131Y-167202D01*
X28100Y-167167D01*
X28075Y-167126D01*
X28024Y-167084D01*
X27980Y-167036D01*
X27938Y-167014D01*
X27901Y-166985D01*
X27839Y-166964D01*
X27780Y-166933D01*
X27726Y-166925D01*
X27689Y-166913D01*
X27649Y-166914D01*
X27595Y-166906D01*
X17405Y-166906D01*
X17340Y-166917D01*
X17274Y-166919D01*
X17231Y-166937D01*
X17184Y-166945D01*
X17127Y-166979D01*
X17067Y-167004D01*
X17032Y-167035D01*
X16991Y-167060D01*
X16949Y-167111D01*
X16901Y-167155D01*
X16879Y-167197D01*
X16850Y-167234D01*
X16829Y-167296D01*
X16798Y-167355D01*
X16790Y-167409D01*
X16778Y-167446D01*
X16779Y-167486D01*
X16771Y-167540D01*
X16771Y-177976D01*
X16026Y-178721D01*
X3974Y-178721D01*
X3229Y-177976D01*
X3229Y-167540D01*
X3218Y-167475D01*
X3216Y-167409D01*
X3198Y-167366D01*
X3190Y-167319D01*
X3156Y-167262D01*
X3131Y-167202D01*
X3100Y-167167D01*
X3075Y-167126D01*
X3024Y-167084D01*
X2980Y-167036D01*
X2938Y-167014D01*
X2901Y-166985D01*
X2839Y-166964D01*
X2780Y-166933D01*
X2726Y-166925D01*
X2689Y-166913D01*
X2649Y-166914D01*
X2595Y-166906D01*
X-2595Y-166906D01*
X-2660Y-166917D01*
X-2726Y-166919D01*
X-2769Y-166937D01*
X-2816Y-166945D01*
X-2873Y-166979D01*
X-2933Y-167004D01*
X-2968Y-167035D01*
X-3009Y-167060D01*
X-3051Y-167111D01*
X-3099Y-167155D01*
X-3121Y-167197D01*
X-3150Y-167234D01*
X-3171Y-167296D01*
X-3202Y-167355D01*
X-3210Y-167409D01*
X-3222Y-167446D01*
X-3221Y-167486D01*
X-3229Y-167540D01*
X-3229Y-177976D01*
X-3974Y-178721D01*
X-16026Y-178721D01*
X-16771Y-177976D01*
X-16771Y-167540D01*
X-16782Y-167475D01*
X-16784Y-167409D01*
X-16802Y-167366D01*
X-16810Y-167319D01*
X-16844Y-167262D01*
X-16869Y-167202D01*
X-16900Y-167167D01*
X-16925Y-167126D01*
X-16976Y-167084D01*
X-17020Y-167036D01*
X-17062Y-167014D01*
X-17099Y-166985D01*
X-17161Y-166964D01*
X-17220Y-166933D01*
X-17274Y-166925D01*
X-17311Y-166913D01*
X-17351Y-166914D01*
X-17405Y-166906D01*
X-27595Y-166906D01*
X-27660Y-166917D01*
X-27726Y-166919D01*
X-27769Y-166937D01*
X-27816Y-166945D01*
X-27873Y-166979D01*
X-27933Y-167004D01*
X-27968Y-167035D01*
X-28009Y-167060D01*
X-28051Y-167111D01*
X-28099Y-167155D01*
X-28121Y-167197D01*
X-28150Y-167234D01*
X-28171Y-167296D01*
X-28202Y-167355D01*
X-28210Y-167409D01*
X-28222Y-167446D01*
X-28221Y-167486D01*
X-28229Y-167540D01*
X-28229Y-177976D01*
X-28974Y-178721D01*
X-41026Y-178721D01*
X-41771Y-177976D01*
X-41771Y-167540D01*
X-41782Y-167475D01*
X-41784Y-167409D01*
X-41802Y-167366D01*
X-41810Y-167319D01*
X-41844Y-167262D01*
X-41869Y-167202D01*
X-41900Y-167167D01*
X-41925Y-167126D01*
X-41976Y-167084D01*
X-42020Y-167036D01*
X-42062Y-167014D01*
X-42099Y-166985D01*
X-42161Y-166964D01*
X-42220Y-166933D01*
X-42274Y-166925D01*
X-42311Y-166913D01*
X-42351Y-166914D01*
X-42405Y-166906D01*
X-97315Y-166906D01*
X-97380Y-166917D01*
X-97446Y-166919D01*
X-97489Y-166937D01*
X-97536Y-166945D01*
X-97593Y-166979D01*
X-97653Y-167004D01*
X-97688Y-167035D01*
X-97729Y-167060D01*
X-97771Y-167111D01*
X-97819Y-167155D01*
X-97841Y-167197D01*
X-97870Y-167234D01*
X-97891Y-167296D01*
X-97922Y-167355D01*
X-97930Y-167409D01*
X-97942Y-167446D01*
X-97941Y-167486D01*
X-97949Y-167540D01*
X-97949Y-200000D01*
X-97945Y-200022D01*
X-97947Y-200050D01*
X-97734Y-202758D01*
X-97721Y-202807D01*
X-97717Y-202832D01*
X-97716Y-202858D01*
X-97710Y-202873D01*
X-97705Y-202905D01*
X-96031Y-208057D01*
X-96028Y-208062D01*
X-96027Y-208067D01*
X-95941Y-208234D01*
X-92757Y-212616D01*
X-92753Y-212620D01*
X-92750Y-212625D01*
X-92650Y-212724D01*
X-92630Y-212745D01*
X-92626Y-212747D01*
X-92616Y-212757D01*
X-88234Y-215941D01*
X-88229Y-215943D01*
X-88225Y-215947D01*
X-88057Y-216031D01*
X-82905Y-217705D01*
X-82855Y-217712D01*
X-82758Y-217734D01*
X-80050Y-217947D01*
X-80028Y-217945D01*
X-80000Y-217949D01*
X80000Y-217949D01*
X80022Y-217945D01*
G37*
%LPC*%
G36*
X-86247Y68729D02*
X-86247Y68729D01*
X-88552Y69684D01*
X-90316Y71448D01*
X-91271Y73753D01*
X-91271Y76247D01*
X-90316Y78552D01*
X-88552Y80316D01*
X-86247Y81271D01*
X-84381Y81271D01*
X-84339Y81278D01*
X-84297Y81276D01*
X-84230Y81298D01*
X-84160Y81310D01*
X-84124Y81332D01*
X-84083Y81345D01*
X-84011Y81399D01*
X-83967Y81425D01*
X-83954Y81441D01*
X-83933Y81457D01*
X-76497Y88893D01*
X-76472Y88927D01*
X-76441Y88956D01*
X-76409Y89019D01*
X-76368Y89077D01*
X-76358Y89118D01*
X-76338Y89156D01*
X-76325Y89245D01*
X-76312Y89294D01*
X-76315Y89315D01*
X-76311Y89341D01*
X-76311Y104078D01*
X-74078Y106311D01*
X-67405Y106311D01*
X-67340Y106322D01*
X-67274Y106324D01*
X-67231Y106342D01*
X-67184Y106350D01*
X-67127Y106384D01*
X-67067Y106409D01*
X-67032Y106440D01*
X-66991Y106465D01*
X-66949Y106516D01*
X-66901Y106560D01*
X-66879Y106602D01*
X-66850Y106639D01*
X-66829Y106701D01*
X-66798Y106760D01*
X-66790Y106814D01*
X-66778Y106851D01*
X-66779Y106891D01*
X-66771Y106945D01*
X-66771Y123526D01*
X-66026Y124271D01*
X-53974Y124271D01*
X-53229Y123526D01*
X-53229Y92474D01*
X-53974Y91729D01*
X-66026Y91729D01*
X-66771Y92474D01*
X-66771Y98055D01*
X-66782Y98120D01*
X-66784Y98186D01*
X-66802Y98229D01*
X-66810Y98276D01*
X-66844Y98333D01*
X-66869Y98393D01*
X-66900Y98428D01*
X-66925Y98469D01*
X-66976Y98511D01*
X-67020Y98559D01*
X-67062Y98581D01*
X-67099Y98610D01*
X-67161Y98631D01*
X-67220Y98662D01*
X-67274Y98670D01*
X-67311Y98682D01*
X-67351Y98681D01*
X-67405Y98689D01*
X-68055Y98689D01*
X-68120Y98678D01*
X-68186Y98676D01*
X-68229Y98658D01*
X-68276Y98650D01*
X-68333Y98616D01*
X-68393Y98591D01*
X-68428Y98560D01*
X-68469Y98535D01*
X-68511Y98484D01*
X-68559Y98440D01*
X-68581Y98398D01*
X-68610Y98361D01*
X-68631Y98299D01*
X-68662Y98240D01*
X-68670Y98186D01*
X-68682Y98149D01*
X-68681Y98109D01*
X-68689Y98055D01*
X-68689Y85922D01*
X-78543Y76067D01*
X-78568Y76033D01*
X-78599Y76004D01*
X-78631Y75941D01*
X-78672Y75883D01*
X-78682Y75842D01*
X-78702Y75804D01*
X-78715Y75715D01*
X-78728Y75666D01*
X-78725Y75645D01*
X-78729Y75619D01*
X-78729Y73753D01*
X-79684Y71448D01*
X-81448Y69684D01*
X-83753Y68729D01*
X-86247Y68729D01*
G37*
%LPD*%
%LPC*%
G36*
X35771Y51829D02*
X35771Y51829D01*
X33679Y53921D01*
X33679Y66079D01*
X35771Y68171D01*
X43329Y68171D01*
X43954Y67546D01*
X44008Y67508D01*
X44056Y67463D01*
X44099Y67445D01*
X44138Y67418D01*
X44202Y67401D01*
X44262Y67376D01*
X44310Y67374D01*
X44355Y67362D01*
X44421Y67369D01*
X44487Y67366D01*
X44532Y67380D01*
X44578Y67385D01*
X44637Y67414D01*
X44700Y67434D01*
X44744Y67467D01*
X44780Y67485D01*
X44807Y67513D01*
X44851Y67546D01*
X51711Y74406D01*
X70789Y74406D01*
X71906Y73289D01*
X71906Y68405D01*
X71917Y68340D01*
X71919Y68274D01*
X71937Y68231D01*
X71945Y68184D01*
X71979Y68127D01*
X72004Y68067D01*
X72035Y68032D01*
X72060Y67991D01*
X72111Y67949D01*
X72155Y67901D01*
X72197Y67879D01*
X72234Y67850D01*
X72296Y67829D01*
X72355Y67798D01*
X72409Y67790D01*
X72446Y67778D01*
X72486Y67779D01*
X72540Y67771D01*
X73026Y67771D01*
X73771Y67026D01*
X73771Y57474D01*
X73026Y56729D01*
X65474Y56729D01*
X65449Y56754D01*
X65394Y56792D01*
X65347Y56837D01*
X65303Y56856D01*
X65264Y56883D01*
X65201Y56899D01*
X65140Y56925D01*
X65093Y56927D01*
X65047Y56938D01*
X64982Y56932D01*
X64916Y56935D01*
X64871Y56920D01*
X64824Y56915D01*
X64765Y56886D01*
X64702Y56866D01*
X64658Y56833D01*
X64623Y56816D01*
X64596Y56787D01*
X64552Y56754D01*
X64526Y56729D01*
X56974Y56729D01*
X56229Y57474D01*
X56229Y58055D01*
X56218Y58120D01*
X56216Y58186D01*
X56198Y58229D01*
X56190Y58276D01*
X56156Y58333D01*
X56131Y58393D01*
X56100Y58428D01*
X56075Y58469D01*
X56024Y58511D01*
X55980Y58559D01*
X55938Y58581D01*
X55901Y58610D01*
X55839Y58631D01*
X55780Y58662D01*
X55726Y58670D01*
X55689Y58682D01*
X55649Y58681D01*
X55595Y58689D01*
X55239Y58689D01*
X55197Y58682D01*
X55155Y58684D01*
X55088Y58662D01*
X55018Y58650D01*
X54982Y58628D01*
X54941Y58615D01*
X54869Y58561D01*
X54825Y58535D01*
X54812Y58519D01*
X54791Y58503D01*
X54342Y58054D01*
X50658Y58054D01*
X48054Y60658D01*
X48054Y63828D01*
X48038Y63916D01*
X48029Y64004D01*
X48019Y64025D01*
X48015Y64049D01*
X47969Y64125D01*
X47930Y64205D01*
X47913Y64222D01*
X47900Y64242D01*
X47831Y64298D01*
X47767Y64359D01*
X47745Y64368D01*
X47726Y64383D01*
X47642Y64412D01*
X47560Y64447D01*
X47536Y64448D01*
X47514Y64455D01*
X47425Y64453D01*
X47336Y64457D01*
X47313Y64449D01*
X47289Y64449D01*
X47207Y64415D01*
X47122Y64388D01*
X47101Y64372D01*
X47082Y64364D01*
X47044Y64330D01*
X46972Y64276D01*
X45607Y62911D01*
X45582Y62877D01*
X45551Y62848D01*
X45519Y62785D01*
X45478Y62727D01*
X45468Y62686D01*
X45448Y62648D01*
X45435Y62559D01*
X45422Y62510D01*
X45425Y62489D01*
X45421Y62463D01*
X45421Y53921D01*
X43329Y51829D01*
X35771Y51829D01*
G37*
%LPD*%
%LPC*%
G36*
X-5941Y-47271D02*
X-5941Y-47271D01*
X-12271Y-40941D01*
X-12271Y-29059D01*
X-5941Y-22729D01*
X5941Y-22729D01*
X12271Y-29059D01*
X12271Y-40941D01*
X5941Y-47271D01*
X-5941Y-47271D01*
G37*
%LPD*%
%LPC*%
G36*
X33974Y91729D02*
X33974Y91729D01*
X33229Y92474D01*
X33229Y102911D01*
X33214Y102999D01*
X33204Y103087D01*
X33194Y103108D01*
X33190Y103132D01*
X33144Y103208D01*
X33105Y103288D01*
X33088Y103304D01*
X33075Y103325D01*
X33006Y103381D01*
X32942Y103442D01*
X32920Y103451D01*
X32901Y103466D01*
X32817Y103495D01*
X32735Y103529D01*
X32711Y103531D01*
X32689Y103538D01*
X32600Y103536D01*
X32511Y103539D01*
X32488Y103532D01*
X32464Y103532D01*
X32382Y103498D01*
X32297Y103471D01*
X32276Y103455D01*
X32257Y103447D01*
X32219Y103413D01*
X32147Y103359D01*
X31841Y103054D01*
X28158Y103054D01*
X25554Y105658D01*
X25554Y109342D01*
X28158Y111946D01*
X31841Y111946D01*
X32147Y111641D01*
X32220Y111590D01*
X32289Y111534D01*
X32311Y111526D01*
X32331Y111513D01*
X32417Y111490D01*
X32501Y111462D01*
X32525Y111463D01*
X32548Y111457D01*
X32637Y111466D01*
X32726Y111468D01*
X32747Y111477D01*
X32771Y111480D01*
X32851Y111519D01*
X32933Y111553D01*
X32951Y111569D01*
X32972Y111579D01*
X33033Y111644D01*
X33099Y111704D01*
X33110Y111725D01*
X33126Y111743D01*
X33161Y111825D01*
X33202Y111904D01*
X33205Y111930D01*
X33214Y111949D01*
X33216Y112000D01*
X33229Y112089D01*
X33229Y123526D01*
X33974Y124271D01*
X46026Y124271D01*
X46771Y123526D01*
X46771Y92474D01*
X46026Y91729D01*
X33974Y91729D01*
G37*
%LPD*%
%LPC*%
G36*
X-43329Y51829D02*
X-43329Y51829D01*
X-45421Y53921D01*
X-45421Y59960D01*
X-45432Y60025D01*
X-45434Y60091D01*
X-45452Y60134D01*
X-45460Y60181D01*
X-45494Y60238D01*
X-45519Y60298D01*
X-45550Y60333D01*
X-45575Y60374D01*
X-45626Y60416D01*
X-45670Y60464D01*
X-45712Y60486D01*
X-45749Y60515D01*
X-45811Y60536D01*
X-45870Y60567D01*
X-45924Y60575D01*
X-45961Y60587D01*
X-46001Y60586D01*
X-46055Y60594D01*
X-55595Y60594D01*
X-55660Y60583D01*
X-55726Y60581D01*
X-55769Y60563D01*
X-55816Y60555D01*
X-55873Y60521D01*
X-55933Y60496D01*
X-55968Y60465D01*
X-56009Y60440D01*
X-56051Y60389D01*
X-56099Y60345D01*
X-56121Y60303D01*
X-56150Y60266D01*
X-56171Y60204D01*
X-56202Y60145D01*
X-56210Y60091D01*
X-56222Y60054D01*
X-56221Y60014D01*
X-56229Y59960D01*
X-56229Y57474D01*
X-56974Y56729D01*
X-64526Y56729D01*
X-64551Y56754D01*
X-64606Y56792D01*
X-64653Y56837D01*
X-64697Y56856D01*
X-64736Y56883D01*
X-64799Y56899D01*
X-64860Y56925D01*
X-64907Y56927D01*
X-64953Y56938D01*
X-65018Y56932D01*
X-65084Y56935D01*
X-65129Y56920D01*
X-65176Y56915D01*
X-65235Y56886D01*
X-65298Y56866D01*
X-65342Y56833D01*
X-65377Y56816D01*
X-65404Y56787D01*
X-65448Y56754D01*
X-65474Y56729D01*
X-73026Y56729D01*
X-73771Y57474D01*
X-73771Y58055D01*
X-73782Y58120D01*
X-73784Y58186D01*
X-73802Y58229D01*
X-73810Y58276D01*
X-73844Y58333D01*
X-73869Y58393D01*
X-73900Y58428D01*
X-73925Y58469D01*
X-73976Y58511D01*
X-74020Y58559D01*
X-74062Y58581D01*
X-74099Y58610D01*
X-74161Y58631D01*
X-74220Y58662D01*
X-74274Y58670D01*
X-74311Y58682D01*
X-74351Y58681D01*
X-74405Y58689D01*
X-74761Y58689D01*
X-74803Y58682D01*
X-74845Y58684D01*
X-74912Y58662D01*
X-74982Y58650D01*
X-75018Y58628D01*
X-75059Y58615D01*
X-75131Y58561D01*
X-75175Y58535D01*
X-75188Y58519D01*
X-75209Y58503D01*
X-75658Y58054D01*
X-79342Y58054D01*
X-81946Y60658D01*
X-81946Y64342D01*
X-79342Y66946D01*
X-75658Y66946D01*
X-75209Y66497D01*
X-75174Y66472D01*
X-75146Y66441D01*
X-75083Y66409D01*
X-75025Y66368D01*
X-74984Y66358D01*
X-74946Y66338D01*
X-74857Y66325D01*
X-74808Y66312D01*
X-74787Y66315D01*
X-74761Y66311D01*
X-74405Y66311D01*
X-74340Y66322D01*
X-74274Y66324D01*
X-74231Y66342D01*
X-74184Y66350D01*
X-74127Y66384D01*
X-74067Y66409D01*
X-74032Y66440D01*
X-73991Y66465D01*
X-73949Y66516D01*
X-73901Y66560D01*
X-73879Y66602D01*
X-73850Y66639D01*
X-73829Y66701D01*
X-73798Y66760D01*
X-73790Y66814D01*
X-73778Y66851D01*
X-73779Y66891D01*
X-73771Y66945D01*
X-73771Y67026D01*
X-73026Y67771D01*
X-65474Y67771D01*
X-65448Y67746D01*
X-65394Y67708D01*
X-65347Y67663D01*
X-65303Y67644D01*
X-65264Y67617D01*
X-65201Y67601D01*
X-65140Y67575D01*
X-65093Y67573D01*
X-65047Y67562D01*
X-64982Y67568D01*
X-64916Y67565D01*
X-64871Y67580D01*
X-64824Y67585D01*
X-64765Y67614D01*
X-64702Y67634D01*
X-64658Y67667D01*
X-64623Y67684D01*
X-64596Y67713D01*
X-64551Y67746D01*
X-64526Y67771D01*
X-56974Y67771D01*
X-56229Y67026D01*
X-56229Y65040D01*
X-56218Y64975D01*
X-56216Y64909D01*
X-56198Y64866D01*
X-56190Y64819D01*
X-56156Y64762D01*
X-56131Y64702D01*
X-56100Y64667D01*
X-56075Y64626D01*
X-56024Y64584D01*
X-55980Y64536D01*
X-55938Y64514D01*
X-55901Y64485D01*
X-55839Y64464D01*
X-55780Y64433D01*
X-55726Y64425D01*
X-55689Y64413D01*
X-55649Y64414D01*
X-55595Y64406D01*
X-46055Y64406D01*
X-45990Y64417D01*
X-45924Y64419D01*
X-45881Y64437D01*
X-45834Y64445D01*
X-45777Y64479D01*
X-45717Y64504D01*
X-45682Y64535D01*
X-45641Y64560D01*
X-45599Y64611D01*
X-45551Y64655D01*
X-45529Y64697D01*
X-45500Y64734D01*
X-45479Y64796D01*
X-45448Y64855D01*
X-45440Y64909D01*
X-45428Y64946D01*
X-45429Y64986D01*
X-45421Y65040D01*
X-45421Y66079D01*
X-43329Y68171D01*
X-35771Y68171D01*
X-33679Y66079D01*
X-33679Y53921D01*
X-35771Y51829D01*
X-43329Y51829D01*
G37*
%LPD*%
%LPC*%
G36*
X-43329Y31829D02*
X-43329Y31829D01*
X-45421Y33921D01*
X-45421Y34960D01*
X-45432Y35025D01*
X-45434Y35091D01*
X-45452Y35134D01*
X-45460Y35181D01*
X-45494Y35238D01*
X-45519Y35298D01*
X-45550Y35333D01*
X-45575Y35374D01*
X-45626Y35416D01*
X-45670Y35464D01*
X-45712Y35486D01*
X-45749Y35515D01*
X-45811Y35536D01*
X-45870Y35567D01*
X-45924Y35575D01*
X-45961Y35587D01*
X-46001Y35586D01*
X-46055Y35594D01*
X-70789Y35594D01*
X-71906Y36711D01*
X-71906Y41595D01*
X-71917Y41660D01*
X-71919Y41726D01*
X-71937Y41769D01*
X-71945Y41816D01*
X-71979Y41873D01*
X-72004Y41933D01*
X-72035Y41968D01*
X-72060Y42009D01*
X-72111Y42051D01*
X-72155Y42099D01*
X-72197Y42121D01*
X-72234Y42150D01*
X-72296Y42171D01*
X-72355Y42202D01*
X-72409Y42210D01*
X-72446Y42222D01*
X-72486Y42221D01*
X-72540Y42229D01*
X-73026Y42229D01*
X-73771Y42974D01*
X-73771Y52526D01*
X-73026Y53271D01*
X-66566Y53271D01*
X-66554Y53273D01*
X-66541Y53271D01*
X-66444Y53293D01*
X-66345Y53310D01*
X-66335Y53317D01*
X-66322Y53320D01*
X-66238Y53374D01*
X-66152Y53425D01*
X-66144Y53434D01*
X-66134Y53441D01*
X-66063Y53531D01*
X-65560Y54033D01*
X-64981Y54368D01*
X-64335Y54541D01*
X-62019Y54541D01*
X-62019Y48385D01*
X-62008Y48320D01*
X-62006Y48255D01*
X-61988Y48211D01*
X-61979Y48164D01*
X-61946Y48108D01*
X-61921Y48047D01*
X-61889Y48012D01*
X-61865Y47971D01*
X-61814Y47930D01*
X-61770Y47881D01*
X-61728Y47859D01*
X-61691Y47830D01*
X-61629Y47809D01*
X-61570Y47779D01*
X-61516Y47770D01*
X-61479Y47758D01*
X-61439Y47759D01*
X-61385Y47751D01*
X-60749Y47751D01*
X-60749Y47749D01*
X-61385Y47749D01*
X-61450Y47737D01*
X-61515Y47736D01*
X-61559Y47718D01*
X-61606Y47709D01*
X-61663Y47676D01*
X-61723Y47651D01*
X-61758Y47619D01*
X-61799Y47595D01*
X-61840Y47544D01*
X-61889Y47500D01*
X-61911Y47458D01*
X-61940Y47421D01*
X-61961Y47359D01*
X-61991Y47300D01*
X-62000Y47246D01*
X-62012Y47209D01*
X-62011Y47169D01*
X-62019Y47115D01*
X-62019Y40959D01*
X-64335Y40959D01*
X-64981Y41132D01*
X-65560Y41467D01*
X-66065Y41972D01*
X-66097Y42007D01*
X-66162Y42084D01*
X-66173Y42090D01*
X-66181Y42099D01*
X-66270Y42145D01*
X-66357Y42194D01*
X-66370Y42196D01*
X-66381Y42202D01*
X-66566Y42229D01*
X-67460Y42229D01*
X-67525Y42218D01*
X-67591Y42216D01*
X-67634Y42198D01*
X-67681Y42190D01*
X-67738Y42156D01*
X-67798Y42131D01*
X-67833Y42100D01*
X-67874Y42075D01*
X-67916Y42024D01*
X-67964Y41980D01*
X-67986Y41938D01*
X-68015Y41901D01*
X-68036Y41839D01*
X-68067Y41780D01*
X-68075Y41726D01*
X-68087Y41689D01*
X-68086Y41649D01*
X-68094Y41595D01*
X-68094Y40040D01*
X-68083Y39975D01*
X-68081Y39909D01*
X-68063Y39866D01*
X-68055Y39819D01*
X-68021Y39762D01*
X-67996Y39702D01*
X-67965Y39667D01*
X-67940Y39626D01*
X-67889Y39584D01*
X-67845Y39536D01*
X-67803Y39514D01*
X-67766Y39485D01*
X-67704Y39464D01*
X-67645Y39433D01*
X-67591Y39425D01*
X-67554Y39413D01*
X-67514Y39414D01*
X-67460Y39406D01*
X-46055Y39406D01*
X-45990Y39417D01*
X-45924Y39419D01*
X-45881Y39437D01*
X-45834Y39445D01*
X-45777Y39479D01*
X-45717Y39504D01*
X-45682Y39535D01*
X-45641Y39560D01*
X-45599Y39611D01*
X-45551Y39655D01*
X-45529Y39697D01*
X-45500Y39734D01*
X-45479Y39796D01*
X-45448Y39855D01*
X-45440Y39909D01*
X-45428Y39946D01*
X-45429Y39986D01*
X-45421Y40040D01*
X-45421Y46079D01*
X-43329Y48171D01*
X-35771Y48171D01*
X-33679Y46079D01*
X-33679Y33921D01*
X-35771Y31829D01*
X-43329Y31829D01*
G37*
%LPD*%
G36*
X5095Y-45986D02*
X5095Y-45986D01*
X5191Y-45981D01*
X5234Y-45966D01*
X5279Y-45959D01*
X5367Y-45920D01*
X5458Y-45888D01*
X5492Y-45863D01*
X5536Y-45843D01*
X5634Y-45760D01*
X5707Y-45707D01*
X10707Y-40707D01*
X10725Y-40682D01*
X10747Y-40664D01*
X10781Y-40611D01*
X10829Y-40558D01*
X10849Y-40517D01*
X10876Y-40481D01*
X10889Y-40446D01*
X10901Y-40428D01*
X10917Y-40377D01*
X10952Y-40305D01*
X10958Y-40263D01*
X10975Y-40217D01*
X10979Y-40174D01*
X10984Y-40158D01*
X10984Y-40103D01*
X10985Y-40090D01*
X10999Y-40000D01*
X10999Y-30000D01*
X10990Y-29937D01*
X10991Y-29883D01*
X10983Y-29855D01*
X10981Y-29809D01*
X10966Y-29766D01*
X10959Y-29721D01*
X10925Y-29645D01*
X10916Y-29612D01*
X10908Y-29599D01*
X10888Y-29542D01*
X10863Y-29508D01*
X10843Y-29464D01*
X10777Y-29386D01*
X10768Y-29372D01*
X10756Y-29361D01*
X10707Y-29293D01*
X5707Y-24293D01*
X5630Y-24236D01*
X5558Y-24171D01*
X5517Y-24151D01*
X5481Y-24124D01*
X5391Y-24090D01*
X5305Y-24048D01*
X5263Y-24042D01*
X5217Y-24025D01*
X5090Y-24015D01*
X5000Y-24001D01*
X-5000Y-24001D01*
X-5095Y-24014D01*
X-5191Y-24019D01*
X-5234Y-24034D01*
X-5279Y-24041D01*
X-5367Y-24080D01*
X-5458Y-24112D01*
X-5492Y-24137D01*
X-5536Y-24157D01*
X-5634Y-24240D01*
X-5707Y-24293D01*
X-10707Y-29293D01*
X-10750Y-29351D01*
X-10753Y-29355D01*
X-10764Y-29370D01*
X-10829Y-29442D01*
X-10849Y-29483D01*
X-10876Y-29519D01*
X-10897Y-29576D01*
X-10905Y-29587D01*
X-10914Y-29619D01*
X-10952Y-29695D01*
X-10958Y-29737D01*
X-10975Y-29783D01*
X-10979Y-29830D01*
X-10987Y-29857D01*
X-10988Y-29930D01*
X-10999Y-30000D01*
X-10999Y-40000D01*
X-10987Y-40088D01*
X-10987Y-40132D01*
X-10983Y-40147D01*
X-10981Y-40191D01*
X-10966Y-40234D01*
X-10959Y-40279D01*
X-10926Y-40353D01*
X-10912Y-40403D01*
X-10901Y-40422D01*
X-10888Y-40458D01*
X-10863Y-40492D01*
X-10843Y-40536D01*
X-10796Y-40591D01*
X-10764Y-40643D01*
X-10731Y-40673D01*
X-10707Y-40707D01*
X-5707Y-45707D01*
X-5630Y-45764D01*
X-5558Y-45829D01*
X-5517Y-45849D01*
X-5481Y-45876D01*
X-5391Y-45910D01*
X-5305Y-45952D01*
X-5263Y-45958D01*
X-5217Y-45975D01*
X-5090Y-45985D01*
X-5000Y-45999D01*
X5000Y-45999D01*
X5095Y-45986D01*
G37*
%LPC*%
G36*
X35771Y31829D02*
X35771Y31829D01*
X33679Y33921D01*
X33679Y46079D01*
X35771Y48171D01*
X43329Y48171D01*
X45421Y46079D01*
X45421Y44647D01*
X45437Y44559D01*
X45446Y44471D01*
X45456Y44450D01*
X45460Y44426D01*
X45506Y44350D01*
X45545Y44270D01*
X45562Y44253D01*
X45575Y44233D01*
X45644Y44177D01*
X45708Y44116D01*
X45730Y44107D01*
X45749Y44092D01*
X45833Y44063D01*
X45915Y44028D01*
X45939Y44027D01*
X45961Y44020D01*
X46050Y44022D01*
X46139Y44018D01*
X46162Y44026D01*
X46186Y44026D01*
X46268Y44060D01*
X46353Y44087D01*
X46374Y44103D01*
X46393Y44111D01*
X46431Y44145D01*
X46503Y44199D01*
X51711Y49406D01*
X55595Y49406D01*
X55660Y49417D01*
X55726Y49419D01*
X55769Y49437D01*
X55816Y49445D01*
X55873Y49479D01*
X55933Y49504D01*
X55968Y49535D01*
X56009Y49560D01*
X56050Y49611D01*
X56099Y49655D01*
X56121Y49697D01*
X56150Y49734D01*
X56171Y49796D01*
X56202Y49855D01*
X56210Y49909D01*
X56222Y49946D01*
X56221Y49986D01*
X56229Y50040D01*
X56229Y52526D01*
X56974Y53271D01*
X63434Y53271D01*
X63446Y53273D01*
X63459Y53271D01*
X63556Y53293D01*
X63655Y53310D01*
X63665Y53317D01*
X63678Y53320D01*
X63762Y53374D01*
X63848Y53425D01*
X63856Y53434D01*
X63866Y53441D01*
X63937Y53531D01*
X64440Y54033D01*
X65019Y54368D01*
X65665Y54541D01*
X67981Y54541D01*
X67981Y48385D01*
X67992Y48320D01*
X67994Y48255D01*
X68012Y48211D01*
X68020Y48164D01*
X68054Y48108D01*
X68079Y48047D01*
X68111Y48012D01*
X68135Y47971D01*
X68186Y47930D01*
X68230Y47881D01*
X68272Y47859D01*
X68309Y47830D01*
X68371Y47809D01*
X68430Y47779D01*
X68484Y47770D01*
X68521Y47758D01*
X68561Y47759D01*
X68615Y47751D01*
X69251Y47751D01*
X69251Y47749D01*
X68615Y47749D01*
X68550Y47737D01*
X68485Y47736D01*
X68441Y47718D01*
X68394Y47709D01*
X68337Y47676D01*
X68277Y47651D01*
X68242Y47619D01*
X68201Y47595D01*
X68160Y47544D01*
X68111Y47500D01*
X68089Y47458D01*
X68060Y47421D01*
X68039Y47359D01*
X68008Y47300D01*
X68000Y47246D01*
X67988Y47209D01*
X67989Y47169D01*
X67981Y47115D01*
X67981Y40959D01*
X65665Y40959D01*
X65019Y41132D01*
X64440Y41467D01*
X63935Y41972D01*
X63903Y42007D01*
X63838Y42084D01*
X63827Y42090D01*
X63819Y42099D01*
X63730Y42145D01*
X63643Y42194D01*
X63630Y42196D01*
X63619Y42202D01*
X63434Y42229D01*
X56974Y42229D01*
X56229Y42974D01*
X56229Y44960D01*
X56218Y45025D01*
X56216Y45091D01*
X56198Y45134D01*
X56190Y45181D01*
X56156Y45238D01*
X56131Y45298D01*
X56100Y45333D01*
X56075Y45374D01*
X56024Y45416D01*
X55980Y45464D01*
X55938Y45486D01*
X55901Y45515D01*
X55839Y45536D01*
X55780Y45567D01*
X55726Y45575D01*
X55689Y45587D01*
X55649Y45586D01*
X55595Y45594D01*
X53552Y45594D01*
X53510Y45587D01*
X53468Y45589D01*
X53401Y45567D01*
X53331Y45555D01*
X53295Y45533D01*
X53254Y45520D01*
X53182Y45466D01*
X53138Y45440D01*
X53125Y45424D01*
X53104Y45408D01*
X45607Y37911D01*
X45582Y37877D01*
X45551Y37848D01*
X45519Y37785D01*
X45478Y37727D01*
X45468Y37686D01*
X45448Y37648D01*
X45435Y37559D01*
X45422Y37510D01*
X45425Y37489D01*
X45421Y37463D01*
X45421Y33921D01*
X43329Y31829D01*
X35771Y31829D01*
G37*
%LPD*%
%LPC*%
G36*
X-59819Y-212621D02*
X-59819Y-212621D01*
X-62434Y-212276D01*
X-64981Y-211594D01*
X-67418Y-210584D01*
X-69703Y-209266D01*
X-71795Y-207660D01*
X-73660Y-205795D01*
X-75266Y-203703D01*
X-76584Y-201418D01*
X-77594Y-198981D01*
X-78276Y-196434D01*
X-78621Y-193819D01*
X-78621Y-193769D01*
X-59769Y-193769D01*
X-59769Y-212621D01*
X-59819Y-212621D01*
G37*
%LPD*%
%LPC*%
G36*
X59769Y-212621D02*
X59769Y-212621D01*
X59769Y-193769D01*
X78621Y-193769D01*
X78621Y-193819D01*
X78276Y-196434D01*
X77594Y-198981D01*
X76584Y-201418D01*
X75266Y-203703D01*
X73660Y-205795D01*
X71795Y-207660D01*
X69703Y-209266D01*
X67418Y-210584D01*
X64981Y-211594D01*
X62434Y-212276D01*
X59819Y-212621D01*
X59769Y-212621D01*
G37*
%LPD*%
%LPC*%
G36*
X-57231Y-212621D02*
X-57231Y-212621D01*
X-57231Y-193769D01*
X-38379Y-193769D01*
X-38379Y-193819D01*
X-38724Y-196434D01*
X-39406Y-198981D01*
X-40416Y-201418D01*
X-41734Y-203703D01*
X-43340Y-205795D01*
X-45205Y-207660D01*
X-47297Y-209266D01*
X-49582Y-210584D01*
X-52019Y-211594D01*
X-54566Y-212276D01*
X-57181Y-212621D01*
X-57231Y-212621D01*
G37*
%LPD*%
%LPC*%
G36*
X-78621Y-191231D02*
X-78621Y-191231D01*
X-78621Y-191181D01*
X-78276Y-188566D01*
X-77594Y-186019D01*
X-76584Y-183582D01*
X-75266Y-181297D01*
X-73660Y-179205D01*
X-71795Y-177340D01*
X-69703Y-175734D01*
X-67418Y-174416D01*
X-64981Y-173406D01*
X-62434Y-172724D01*
X-59819Y-172379D01*
X-59769Y-172379D01*
X-59769Y-191231D01*
X-78621Y-191231D01*
G37*
%LPD*%
%LPC*%
G36*
X57181Y-212621D02*
X57181Y-212621D01*
X54566Y-212276D01*
X52019Y-211594D01*
X49582Y-210584D01*
X47297Y-209266D01*
X45205Y-207660D01*
X43340Y-205795D01*
X41734Y-203703D01*
X40416Y-201418D01*
X39406Y-198981D01*
X38724Y-196434D01*
X38379Y-193819D01*
X38379Y-193769D01*
X57231Y-193769D01*
X57231Y-212621D01*
X57181Y-212621D01*
G37*
%LPD*%
%LPC*%
G36*
X59769Y-191231D02*
X59769Y-191231D01*
X59769Y-172379D01*
X59819Y-172379D01*
X62434Y-172724D01*
X64981Y-173406D01*
X67418Y-174416D01*
X69703Y-175734D01*
X71795Y-177340D01*
X73660Y-179205D01*
X75266Y-181297D01*
X76584Y-183582D01*
X77594Y-186019D01*
X78276Y-188566D01*
X78621Y-191181D01*
X78621Y-191231D01*
X59769Y-191231D01*
G37*
%LPD*%
%LPC*%
G36*
X38379Y-191231D02*
X38379Y-191231D01*
X38379Y-191181D01*
X38724Y-188566D01*
X39406Y-186019D01*
X40416Y-183582D01*
X41734Y-181297D01*
X43340Y-179205D01*
X45205Y-177340D01*
X47297Y-175734D01*
X49582Y-174416D01*
X52019Y-173406D01*
X54566Y-172724D01*
X57181Y-172379D01*
X57231Y-172379D01*
X57231Y-191231D01*
X38379Y-191231D01*
G37*
%LPD*%
%LPC*%
G36*
X-57231Y-191231D02*
X-57231Y-191231D01*
X-57231Y-172379D01*
X-57181Y-172379D01*
X-54566Y-172724D01*
X-52019Y-173406D01*
X-49582Y-174416D01*
X-47297Y-175734D01*
X-45205Y-177340D01*
X-43340Y-179205D01*
X-41734Y-181297D01*
X-40416Y-183582D01*
X-39406Y-186019D01*
X-38724Y-188566D01*
X-38379Y-191181D01*
X-38379Y-191231D01*
X-57231Y-191231D01*
G37*
%LPD*%
%LPC*%
G36*
X-24492Y-200001D02*
X-24492Y-200001D01*
X-27249Y-198859D01*
X-29359Y-196749D01*
X-30501Y-193992D01*
X-30501Y-191008D01*
X-29359Y-188251D01*
X-27249Y-186141D01*
X-24492Y-184999D01*
X-21508Y-184999D01*
X-18751Y-186141D01*
X-16641Y-188251D01*
X-15499Y-191008D01*
X-15499Y-193992D01*
X-16641Y-196749D01*
X-18751Y-198859D01*
X-21508Y-200001D01*
X-24492Y-200001D01*
G37*
%LPD*%
%LPC*%
G36*
X21508Y-200001D02*
X21508Y-200001D01*
X18751Y-198859D01*
X16641Y-196749D01*
X15499Y-193992D01*
X15499Y-191008D01*
X16641Y-188251D01*
X18751Y-186141D01*
X21508Y-184999D01*
X24492Y-184999D01*
X27249Y-186141D01*
X29359Y-188251D01*
X30501Y-191008D01*
X30501Y-193992D01*
X29359Y-196749D01*
X27249Y-198859D01*
X24492Y-200001D01*
X21508Y-200001D01*
G37*
%LPD*%
%LPC*%
G36*
X-28041Y165769D02*
X-28041Y165769D01*
X-28041Y182335D01*
X-27868Y182981D01*
X-27533Y183560D01*
X-27060Y184033D01*
X-26481Y184368D01*
X-25835Y184541D01*
X-19269Y184541D01*
X-19269Y165769D01*
X-28041Y165769D01*
G37*
%LPD*%
%LPC*%
G36*
X-92041Y165769D02*
X-92041Y165769D01*
X-92041Y182335D01*
X-91868Y182981D01*
X-91533Y183560D01*
X-91060Y184033D01*
X-90481Y184368D01*
X-89835Y184541D01*
X-83269Y184541D01*
X-83269Y165769D01*
X-92041Y165769D01*
G37*
%LPD*%
%LPC*%
G36*
X19269Y165769D02*
X19269Y165769D01*
X19269Y184541D01*
X25835Y184541D01*
X26481Y184368D01*
X27060Y184033D01*
X27533Y183560D01*
X27868Y182981D01*
X28041Y182335D01*
X28041Y165769D01*
X19269Y165769D01*
G37*
%LPD*%
%LPC*%
G36*
X83269Y165769D02*
X83269Y165769D01*
X83269Y184541D01*
X89835Y184541D01*
X90481Y184368D01*
X91060Y184033D01*
X91533Y183560D01*
X91868Y182981D01*
X92041Y182335D01*
X92041Y165769D01*
X83269Y165769D01*
G37*
%LPD*%
%LPC*%
G36*
X83269Y144459D02*
X83269Y144459D01*
X83269Y163231D01*
X92041Y163231D01*
X92041Y146665D01*
X91868Y146019D01*
X91533Y145440D01*
X91060Y144967D01*
X90481Y144632D01*
X89835Y144459D01*
X83269Y144459D01*
G37*
%LPD*%
%LPC*%
G36*
X-89835Y144459D02*
X-89835Y144459D01*
X-90481Y144632D01*
X-91060Y144967D01*
X-91533Y145440D01*
X-91868Y146019D01*
X-92041Y146665D01*
X-92041Y163231D01*
X-83269Y163231D01*
X-83269Y144459D01*
X-89835Y144459D01*
G37*
%LPD*%
%LPC*%
G36*
X19269Y144459D02*
X19269Y144459D01*
X19269Y163231D01*
X28041Y163231D01*
X28041Y146665D01*
X27868Y146019D01*
X27533Y145440D01*
X27060Y144967D01*
X26481Y144632D01*
X25835Y144459D01*
X19269Y144459D01*
G37*
%LPD*%
%LPC*%
G36*
X-25835Y144459D02*
X-25835Y144459D01*
X-26481Y144632D01*
X-27060Y144967D01*
X-27533Y145440D01*
X-27868Y146019D01*
X-28041Y146665D01*
X-28041Y163231D01*
X-19269Y163231D01*
X-19269Y144459D01*
X-25835Y144459D01*
G37*
%LPD*%
%LPC*%
G36*
X7959Y165769D02*
X7959Y165769D01*
X7959Y182335D01*
X8132Y182981D01*
X8467Y183560D01*
X8940Y184033D01*
X9519Y184368D01*
X10165Y184541D01*
X16731Y184541D01*
X16731Y165769D01*
X7959Y165769D01*
G37*
%LPD*%
%LPC*%
G36*
X-80731Y165769D02*
X-80731Y165769D01*
X-80731Y184541D01*
X-74165Y184541D01*
X-73519Y184368D01*
X-72940Y184033D01*
X-72467Y183560D01*
X-72132Y182981D01*
X-71959Y182335D01*
X-71959Y165769D01*
X-80731Y165769D01*
G37*
%LPD*%
%LPC*%
G36*
X71959Y165769D02*
X71959Y165769D01*
X71959Y182335D01*
X72132Y182981D01*
X72467Y183560D01*
X72940Y184033D01*
X73519Y184368D01*
X74165Y184541D01*
X80731Y184541D01*
X80731Y165769D01*
X71959Y165769D01*
G37*
%LPD*%
%LPC*%
G36*
X-16731Y165769D02*
X-16731Y165769D01*
X-16731Y184541D01*
X-10165Y184541D01*
X-9519Y184368D01*
X-8940Y184033D01*
X-8467Y183560D01*
X-8132Y182981D01*
X-7959Y182335D01*
X-7959Y165769D01*
X-16731Y165769D01*
G37*
%LPD*%
%LPC*%
G36*
X10165Y144459D02*
X10165Y144459D01*
X9519Y144632D01*
X8940Y144967D01*
X8467Y145440D01*
X8132Y146019D01*
X7959Y146665D01*
X7959Y163231D01*
X16731Y163231D01*
X16731Y144459D01*
X10165Y144459D01*
G37*
%LPD*%
%LPC*%
G36*
X-80731Y144459D02*
X-80731Y144459D01*
X-80731Y163231D01*
X-71959Y163231D01*
X-71959Y146665D01*
X-72132Y146019D01*
X-72467Y145440D01*
X-72940Y144967D01*
X-73519Y144632D01*
X-74165Y144459D01*
X-80731Y144459D01*
G37*
%LPD*%
%LPC*%
G36*
X-16731Y144459D02*
X-16731Y144459D01*
X-16731Y163231D01*
X-7959Y163231D01*
X-7959Y146665D01*
X-8132Y146019D01*
X-8467Y145440D01*
X-8940Y144967D01*
X-9519Y144632D01*
X-10165Y144459D01*
X-16731Y144459D01*
G37*
%LPD*%
%LPC*%
G36*
X74165Y144459D02*
X74165Y144459D01*
X73519Y144632D01*
X72940Y144967D01*
X72467Y145440D01*
X72132Y146019D01*
X71959Y146665D01*
X71959Y163231D01*
X80731Y163231D01*
X80731Y144459D01*
X74165Y144459D01*
G37*
%LPD*%
%LPC*%
G36*
X83753Y68729D02*
X83753Y68729D01*
X81448Y69684D01*
X79684Y71448D01*
X78729Y73753D01*
X78729Y76247D01*
X79684Y78552D01*
X81448Y80316D01*
X83753Y81271D01*
X86247Y81271D01*
X88552Y80316D01*
X90316Y78552D01*
X91271Y76247D01*
X91271Y73753D01*
X90316Y71448D01*
X88552Y69684D01*
X86247Y68729D01*
X83753Y68729D01*
G37*
%LPD*%
%LPC*%
G36*
X61269Y109269D02*
X61269Y109269D01*
X61269Y125541D01*
X66335Y125541D01*
X66981Y125368D01*
X67560Y125033D01*
X68033Y124560D01*
X68368Y123981D01*
X68541Y123335D01*
X68541Y109269D01*
X61269Y109269D01*
G37*
%LPD*%
%LPC*%
G36*
X-48541Y109269D02*
X-48541Y109269D01*
X-48541Y123335D01*
X-48368Y123981D01*
X-48033Y124560D01*
X-47560Y125033D01*
X-46981Y125368D01*
X-46335Y125541D01*
X-41269Y125541D01*
X-41269Y109269D01*
X-48541Y109269D01*
G37*
%LPD*%
%LPC*%
G36*
X-46335Y90459D02*
X-46335Y90459D01*
X-46981Y90632D01*
X-47560Y90967D01*
X-48033Y91440D01*
X-48368Y92019D01*
X-48541Y92665D01*
X-48541Y106731D01*
X-41269Y106731D01*
X-41269Y90459D01*
X-46335Y90459D01*
G37*
%LPD*%
%LPC*%
G36*
X61269Y90459D02*
X61269Y90459D01*
X61269Y106731D01*
X68541Y106731D01*
X68541Y92665D01*
X68368Y92019D01*
X68033Y91440D01*
X67560Y90967D01*
X66981Y90632D01*
X66335Y90459D01*
X61269Y90459D01*
G37*
%LPD*%
%LPC*%
G36*
X-38731Y109269D02*
X-38731Y109269D01*
X-38731Y125541D01*
X-33665Y125541D01*
X-33019Y125368D01*
X-32440Y125033D01*
X-31967Y124560D01*
X-31632Y123981D01*
X-31459Y123335D01*
X-31459Y109269D01*
X-38731Y109269D01*
G37*
%LPD*%
%LPC*%
G36*
X51459Y109269D02*
X51459Y109269D01*
X51459Y123335D01*
X51632Y123981D01*
X51967Y124560D01*
X52440Y125033D01*
X53019Y125368D01*
X53665Y125541D01*
X58731Y125541D01*
X58731Y109269D01*
X51459Y109269D01*
G37*
%LPD*%
%LPC*%
G36*
X53665Y90459D02*
X53665Y90459D01*
X53019Y90632D01*
X52440Y90967D01*
X51967Y91440D01*
X51632Y92019D01*
X51459Y92665D01*
X51459Y106731D01*
X58731Y106731D01*
X58731Y90459D01*
X53665Y90459D01*
G37*
%LPD*%
%LPC*%
G36*
X-38731Y90459D02*
X-38731Y90459D01*
X-38731Y106731D01*
X-31459Y106731D01*
X-31459Y92665D01*
X-31632Y92019D01*
X-31967Y91440D01*
X-32440Y90967D01*
X-33019Y90632D01*
X-33665Y90459D01*
X-38731Y90459D01*
G37*
%LPD*%
%LPC*%
G36*
X-73991Y16269D02*
X-73991Y16269D01*
X-73991Y20278D01*
X-73648Y21555D01*
X-72987Y22701D01*
X-72051Y23637D01*
X-70905Y24298D01*
X-69628Y24641D01*
X-67319Y24641D01*
X-67319Y16269D01*
X-73991Y16269D01*
G37*
%LPD*%
%LPC*%
G36*
X85219Y16269D02*
X85219Y16269D01*
X85219Y24641D01*
X87528Y24641D01*
X88805Y24298D01*
X89951Y23637D01*
X90887Y22701D01*
X91548Y21555D01*
X91891Y20278D01*
X91891Y16269D01*
X85219Y16269D01*
G37*
%LPD*%
%LPC*%
G36*
X-83805Y-74298D02*
X-83805Y-74298D01*
X-84951Y-73637D01*
X-85887Y-72701D01*
X-86548Y-71555D01*
X-86891Y-70278D01*
X-86891Y-66269D01*
X-80219Y-66269D01*
X-80219Y-74641D01*
X-82528Y-74641D01*
X-83805Y-74298D01*
G37*
%LPD*%
%LPC*%
G36*
X85219Y5359D02*
X85219Y5359D01*
X85219Y13731D01*
X91891Y13731D01*
X91891Y9722D01*
X91548Y8445D01*
X90887Y7299D01*
X89951Y6363D01*
X88805Y5702D01*
X87528Y5359D01*
X85219Y5359D01*
G37*
%LPD*%
%LPC*%
G36*
X-86891Y-63731D02*
X-86891Y-63731D01*
X-86891Y-59722D01*
X-86548Y-58445D01*
X-85887Y-57299D01*
X-84951Y-56363D01*
X-83805Y-55702D01*
X-82528Y-55359D01*
X-80219Y-55359D01*
X-80219Y-63731D01*
X-86891Y-63731D01*
G37*
%LPD*%
%LPC*%
G36*
X-69628Y5359D02*
X-69628Y5359D01*
X-70905Y5702D01*
X-72051Y6363D01*
X-72987Y7299D01*
X-73648Y8445D01*
X-73991Y9722D01*
X-73991Y13731D01*
X-67319Y13731D01*
X-67319Y5359D01*
X-69628Y5359D01*
G37*
%LPD*%
%LPC*%
G36*
X76009Y16269D02*
X76009Y16269D01*
X76009Y20278D01*
X76352Y21555D01*
X77013Y22701D01*
X77949Y23637D01*
X79095Y24298D01*
X80372Y24641D01*
X82681Y24641D01*
X82681Y16269D01*
X76009Y16269D01*
G37*
%LPD*%
%LPC*%
G36*
X-64781Y16269D02*
X-64781Y16269D01*
X-64781Y24641D01*
X-62472Y24641D01*
X-61195Y24298D01*
X-60049Y23637D01*
X-59113Y22701D01*
X-58452Y21555D01*
X-58109Y20278D01*
X-58109Y16269D01*
X-64781Y16269D01*
G37*
%LPD*%
%LPC*%
G36*
X80372Y5359D02*
X80372Y5359D01*
X79095Y5702D01*
X77949Y6363D01*
X77013Y7299D01*
X76352Y8445D01*
X76009Y9722D01*
X76009Y13731D01*
X82681Y13731D01*
X82681Y5359D01*
X80372Y5359D01*
G37*
%LPD*%
%LPC*%
G36*
X-82585Y-51542D02*
X-82585Y-51542D01*
X-83231Y-51369D01*
X-83810Y-51034D01*
X-84283Y-50561D01*
X-84618Y-49982D01*
X-84791Y-49336D01*
X-84791Y-44270D01*
X-80769Y-44270D01*
X-80769Y-51542D01*
X-82585Y-51542D01*
G37*
%LPD*%
%LPC*%
G36*
X61769Y-51542D02*
X61769Y-51542D01*
X61769Y-44270D01*
X65791Y-44270D01*
X65791Y-49336D01*
X65618Y-49982D01*
X65283Y-50561D01*
X64810Y-51034D01*
X64231Y-51369D01*
X63585Y-51542D01*
X61769Y-51542D01*
G37*
%LPD*%
%LPC*%
G36*
X61769Y-41732D02*
X61769Y-41732D01*
X61769Y-34460D01*
X63585Y-34460D01*
X64231Y-34633D01*
X64810Y-34968D01*
X65283Y-35441D01*
X65618Y-36020D01*
X65791Y-36666D01*
X65791Y-41732D01*
X61769Y-41732D01*
G37*
%LPD*%
%LPC*%
G36*
X57415Y-51542D02*
X57415Y-51542D01*
X56769Y-51369D01*
X56190Y-51034D01*
X55717Y-50561D01*
X55382Y-49982D01*
X55209Y-49336D01*
X55209Y-44270D01*
X59231Y-44270D01*
X59231Y-51542D01*
X57415Y-51542D01*
G37*
%LPD*%
%LPC*%
G36*
X-84791Y-41732D02*
X-84791Y-41732D01*
X-84791Y-36666D01*
X-84618Y-36020D01*
X-84283Y-35441D01*
X-83810Y-34968D01*
X-83231Y-34633D01*
X-82585Y-34460D01*
X-80769Y-34460D01*
X-80769Y-41732D01*
X-84791Y-41732D01*
G37*
%LPD*%
%LPC*%
G36*
X-78231Y-51542D02*
X-78231Y-51542D01*
X-78231Y-44270D01*
X-74209Y-44270D01*
X-74209Y-49336D01*
X-74382Y-49982D01*
X-74717Y-50561D01*
X-75190Y-51034D01*
X-75769Y-51369D01*
X-76415Y-51542D01*
X-78231Y-51542D01*
G37*
%LPD*%
%LPC*%
G36*
X-78231Y-41732D02*
X-78231Y-41732D01*
X-78231Y-34460D01*
X-76415Y-34460D01*
X-75769Y-34633D01*
X-75190Y-34968D01*
X-74717Y-35441D01*
X-74382Y-36020D01*
X-74209Y-36666D01*
X-74209Y-41732D01*
X-78231Y-41732D01*
G37*
%LPD*%
%LPC*%
G36*
X55209Y-41732D02*
X55209Y-41732D01*
X55209Y-36666D01*
X55382Y-36020D01*
X55717Y-35441D01*
X56190Y-34968D01*
X56769Y-34633D01*
X57415Y-34460D01*
X59231Y-34460D01*
X59231Y-41732D01*
X55209Y-41732D01*
G37*
%LPD*%
%LPC*%
G36*
X-87200Y-117251D02*
X-87200Y-117251D01*
X-88572Y-116682D01*
X-89807Y-115857D01*
X-90857Y-114807D01*
X-91682Y-113572D01*
X-92251Y-112200D01*
X-92440Y-111249D01*
X-86249Y-111249D01*
X-86249Y-117440D01*
X-87200Y-117251D01*
G37*
%LPD*%
%LPC*%
G36*
X-83751Y-111249D02*
X-83751Y-111249D01*
X-77560Y-111249D01*
X-77749Y-112200D01*
X-78318Y-113572D01*
X-79143Y-114807D01*
X-80193Y-115857D01*
X-81428Y-116682D01*
X-82800Y-117251D01*
X-83751Y-117440D01*
X-83751Y-111249D01*
G37*
%LPD*%
%LPC*%
G36*
X-92440Y-108751D02*
X-92440Y-108751D01*
X-92251Y-107800D01*
X-91682Y-106428D01*
X-90857Y-105193D01*
X-89807Y-104143D01*
X-88572Y-103318D01*
X-87200Y-102749D01*
X-86249Y-102560D01*
X-86249Y-108751D01*
X-92440Y-108751D01*
G37*
%LPD*%
%LPC*%
G36*
X-83751Y-108751D02*
X-83751Y-108751D01*
X-83751Y-102560D01*
X-82800Y-102749D01*
X-81428Y-103318D01*
X-80193Y-104143D01*
X-79143Y-105193D01*
X-78318Y-106428D01*
X-77749Y-107800D01*
X-77560Y-108751D01*
X-83751Y-108751D01*
G37*
%LPD*%
%LPC*%
G36*
X70519Y49019D02*
X70519Y49019D01*
X70519Y54541D01*
X72835Y54541D01*
X73481Y54368D01*
X74060Y54033D01*
X74533Y53560D01*
X74868Y52981D01*
X75041Y52335D01*
X75041Y49019D01*
X70519Y49019D01*
G37*
%LPD*%
%LPC*%
G36*
X70519Y40959D02*
X70519Y40959D01*
X70519Y46481D01*
X75041Y46481D01*
X75041Y43165D01*
X74868Y42519D01*
X74533Y41940D01*
X74060Y41467D01*
X73481Y41132D01*
X72835Y40959D01*
X70519Y40959D01*
G37*
%LPD*%
%LPC*%
G36*
X-59481Y49019D02*
X-59481Y49019D01*
X-59481Y54541D01*
X-57165Y54541D01*
X-56519Y54368D01*
X-55940Y54033D01*
X-55467Y53560D01*
X-55132Y52981D01*
X-54959Y52335D01*
X-54959Y49019D01*
X-59481Y49019D01*
G37*
%LPD*%
%LPC*%
G36*
X-59481Y40959D02*
X-59481Y40959D01*
X-59481Y46481D01*
X-54959Y46481D01*
X-54959Y43165D01*
X-55132Y42519D01*
X-55467Y41940D01*
X-55940Y41467D01*
X-56519Y41132D01*
X-57165Y40959D01*
X-59481Y40959D01*
G37*
%LPD*%
%LPC*%
G36*
X58499Y-192501D02*
X58499Y-192501D01*
X58499Y-192499D01*
X58501Y-192499D01*
X58501Y-192501D01*
X58499Y-192501D01*
G37*
%LPD*%
%LPC*%
G36*
X-58501Y-192501D02*
X-58501Y-192501D01*
X-58501Y-192499D01*
X-58499Y-192499D01*
X-58499Y-192501D01*
X-58501Y-192501D01*
G37*
%LPD*%
%LPC*%
G36*
X-79501Y-43002D02*
X-79501Y-43002D01*
X-79501Y-43000D01*
X-79499Y-43000D01*
X-79499Y-43002D01*
X-79501Y-43002D01*
G37*
%LPD*%
%LPC*%
G36*
X60499Y-43002D02*
X60499Y-43002D01*
X60499Y-43000D01*
X60501Y-43000D01*
X60501Y-43002D01*
X60499Y-43002D01*
G37*
%LPD*%
%LPC*%
G36*
X-18001Y164499D02*
X-18001Y164499D01*
X-18001Y164501D01*
X-17999Y164501D01*
X-17999Y164499D01*
X-18001Y164499D01*
G37*
%LPD*%
%LPC*%
G36*
X83949Y14999D02*
X83949Y14999D01*
X83949Y15001D01*
X83951Y15001D01*
X83951Y14999D01*
X83949Y14999D01*
G37*
%LPD*%
%LPC*%
G36*
X17999Y164499D02*
X17999Y164499D01*
X17999Y164501D01*
X18001Y164501D01*
X18001Y164499D01*
X17999Y164499D01*
G37*
%LPD*%
%LPC*%
G36*
X59999Y107999D02*
X59999Y107999D01*
X59999Y108001D01*
X60001Y108001D01*
X60001Y107999D01*
X59999Y107999D01*
G37*
%LPD*%
%LPC*%
G36*
X-40001Y107999D02*
X-40001Y107999D01*
X-40001Y108001D01*
X-39999Y108001D01*
X-39999Y107999D01*
X-40001Y107999D01*
G37*
%LPD*%
%LPC*%
G36*
X-82001Y164499D02*
X-82001Y164499D01*
X-82001Y164501D01*
X-81999Y164501D01*
X-81999Y164499D01*
X-82001Y164499D01*
G37*
%LPD*%
%LPC*%
G36*
X81999Y164499D02*
X81999Y164499D01*
X81999Y164501D01*
X82001Y164501D01*
X82001Y164499D01*
X81999Y164499D01*
G37*
%LPD*%
%LPC*%
G36*
X-66051Y14999D02*
X-66051Y14999D01*
X-66051Y15001D01*
X-66049Y15001D01*
X-66049Y14999D01*
X-66051Y14999D01*
G37*
%LPD*%
D10*
X-86866Y19616D02*
X-81034Y19616D01*
X-81034Y10384D01*
X-86866Y10384D01*
X-86866Y19616D01*
X-86866Y15104D02*
X-81034Y15104D01*
X-68966Y10384D02*
X-63134Y10384D01*
X-68966Y10384D02*
X-68966Y19616D01*
X-63134Y19616D01*
X-63134Y10384D01*
X-63134Y15104D02*
X-68966Y15104D01*
D11*
X-60750Y62250D03*
X-69250Y62250D03*
X-60750Y47750D03*
X-69250Y47750D03*
D12*
X-60500Y-16999D03*
X-70000Y-16999D03*
X-79500Y-16999D03*
X-79500Y-43001D03*
X-60500Y-43001D03*
X79500Y-16999D03*
X70000Y-16999D03*
X60500Y-16999D03*
X60500Y-43001D03*
X79500Y-43001D03*
D10*
X68966Y19616D02*
X63134Y19616D01*
X68966Y19616D02*
X68966Y10384D01*
X63134Y10384D01*
X63134Y19616D01*
X63134Y15104D02*
X68966Y15104D01*
X81034Y10384D02*
X86866Y10384D01*
X81034Y10384D02*
X81034Y19616D01*
X86866Y19616D01*
X86866Y10384D01*
X86866Y15104D02*
X81034Y15104D01*
D11*
X69250Y62250D03*
X60750Y62250D03*
X69250Y47750D03*
X60750Y47750D03*
D13*
X58500Y-192500D03*
X-58500Y-192500D03*
D14*
X35000Y-167500D03*
X10000Y-167500D03*
X-10000Y-167500D03*
X-35000Y-167500D03*
D15*
X-85000Y75000D03*
X85000Y75000D03*
X-85000Y-110000D03*
X85000Y-110000D03*
D10*
X-76034Y-60384D02*
X-81866Y-60384D01*
X-76034Y-60384D02*
X-76034Y-69616D01*
X-81866Y-69616D01*
X-81866Y-60384D01*
X-81866Y-64896D02*
X-76034Y-64896D01*
X-63966Y-69616D02*
X-58134Y-69616D01*
X-63966Y-69616D02*
X-63966Y-60384D01*
X-58134Y-60384D01*
X-58134Y-69616D01*
X-58134Y-64896D02*
X-63966Y-64896D01*
X58134Y-60384D02*
X63966Y-60384D01*
X63966Y-69616D01*
X58134Y-69616D01*
X58134Y-60384D01*
X58134Y-64896D02*
X63966Y-64896D01*
X76034Y-69616D02*
X81866Y-69616D01*
X76034Y-69616D02*
X76034Y-60384D01*
X81866Y-60384D01*
X81866Y-69616D01*
X81866Y-64896D02*
X76034Y-64896D01*
D16*
X-35000Y-65000D02*
X-34998Y-64859D01*
X-34992Y-64718D01*
X-34982Y-64578D01*
X-34968Y-64438D01*
X-34950Y-64298D01*
X-34929Y-64159D01*
X-34903Y-64020D01*
X-34874Y-63882D01*
X-34840Y-63746D01*
X-34803Y-63610D01*
X-34762Y-63475D01*
X-34717Y-63341D01*
X-34668Y-63209D01*
X-34616Y-63078D01*
X-34560Y-62949D01*
X-34500Y-62822D01*
X-34437Y-62696D01*
X-34371Y-62572D01*
X-34300Y-62449D01*
X-34227Y-62329D01*
X-34150Y-62211D01*
X-34070Y-62095D01*
X-33986Y-61982D01*
X-33900Y-61871D01*
X-33810Y-61762D01*
X-33717Y-61656D01*
X-33622Y-61553D01*
X-33523Y-61452D01*
X-33422Y-61354D01*
X-33318Y-61259D01*
X-33211Y-61167D01*
X-33102Y-61078D01*
X-32990Y-60993D01*
X-32876Y-60910D01*
X-32760Y-60830D01*
X-32641Y-60754D01*
X-32520Y-60682D01*
X-32398Y-60612D01*
X-32273Y-60547D01*
X-32147Y-60484D01*
X-32019Y-60426D01*
X-31889Y-60371D01*
X-31758Y-60319D01*
X-31625Y-60272D01*
X-31491Y-60228D01*
X-31356Y-60187D01*
X-31220Y-60151D01*
X-31083Y-60119D01*
X-30945Y-60090D01*
X-30807Y-60065D01*
X-30667Y-60045D01*
X-30527Y-60028D01*
X-30387Y-60015D01*
X-30246Y-60006D01*
X-30106Y-60001D01*
X-29965Y-60000D01*
X-29824Y-60003D01*
X-29683Y-60010D01*
X-29543Y-60021D01*
X-29403Y-60036D01*
X-29263Y-60055D01*
X-29124Y-60077D01*
X-28986Y-60104D01*
X-28848Y-60134D01*
X-28712Y-60169D01*
X-28576Y-60207D01*
X-28442Y-60249D01*
X-28308Y-60295D01*
X-28176Y-60344D01*
X-28046Y-60398D01*
X-27917Y-60455D01*
X-27790Y-60515D01*
X-27664Y-60579D01*
X-27541Y-60647D01*
X-27419Y-60718D01*
X-27299Y-60792D01*
X-27182Y-60870D01*
X-27067Y-60951D01*
X-26954Y-61035D01*
X-26843Y-61122D01*
X-26735Y-61213D01*
X-26630Y-61306D01*
X-26527Y-61403D01*
X-26427Y-61502D01*
X-26330Y-61604D01*
X-26236Y-61709D01*
X-26145Y-61816D01*
X-26057Y-61926D01*
X-25972Y-62038D01*
X-25890Y-62153D01*
X-25811Y-62270D01*
X-25736Y-62389D01*
X-25664Y-62510D01*
X-25596Y-62633D01*
X-25531Y-62758D01*
X-25469Y-62885D01*
X-25412Y-63014D01*
X-25357Y-63144D01*
X-25307Y-63275D01*
X-25260Y-63408D01*
X-25217Y-63542D01*
X-25178Y-63678D01*
X-25143Y-63814D01*
X-25111Y-63951D01*
X-25084Y-64089D01*
X-25060Y-64228D01*
X-25040Y-64368D01*
X-25024Y-64508D01*
X-25012Y-64648D01*
X-25004Y-64789D01*
X-25000Y-64930D01*
X-25000Y-65070D01*
X-25004Y-65211D01*
X-25012Y-65352D01*
X-25024Y-65492D01*
X-25040Y-65632D01*
X-25060Y-65772D01*
X-25084Y-65911D01*
X-25111Y-66049D01*
X-25143Y-66186D01*
X-25178Y-66322D01*
X-25217Y-66458D01*
X-25260Y-66592D01*
X-25307Y-66725D01*
X-25357Y-66856D01*
X-25412Y-66986D01*
X-25469Y-67115D01*
X-25531Y-67242D01*
X-25596Y-67367D01*
X-25664Y-67490D01*
X-25736Y-67611D01*
X-25811Y-67730D01*
X-25890Y-67847D01*
X-25972Y-67962D01*
X-26057Y-68074D01*
X-26145Y-68184D01*
X-26236Y-68291D01*
X-26330Y-68396D01*
X-26427Y-68498D01*
X-26527Y-68597D01*
X-26630Y-68694D01*
X-26735Y-68787D01*
X-26843Y-68878D01*
X-26954Y-68965D01*
X-27067Y-69049D01*
X-27182Y-69130D01*
X-27299Y-69208D01*
X-27419Y-69282D01*
X-27541Y-69353D01*
X-27664Y-69421D01*
X-27790Y-69485D01*
X-27917Y-69545D01*
X-28046Y-69602D01*
X-28176Y-69656D01*
X-28308Y-69705D01*
X-28442Y-69751D01*
X-28576Y-69793D01*
X-28712Y-69831D01*
X-28848Y-69866D01*
X-28986Y-69896D01*
X-29124Y-69923D01*
X-29263Y-69945D01*
X-29403Y-69964D01*
X-29543Y-69979D01*
X-29683Y-69990D01*
X-29824Y-69997D01*
X-29965Y-70000D01*
X-30106Y-69999D01*
X-30246Y-69994D01*
X-30387Y-69985D01*
X-30527Y-69972D01*
X-30667Y-69955D01*
X-30807Y-69935D01*
X-30945Y-69910D01*
X-31083Y-69881D01*
X-31220Y-69849D01*
X-31356Y-69813D01*
X-31491Y-69772D01*
X-31625Y-69728D01*
X-31758Y-69681D01*
X-31889Y-69629D01*
X-32019Y-69574D01*
X-32147Y-69516D01*
X-32273Y-69453D01*
X-32398Y-69388D01*
X-32520Y-69318D01*
X-32641Y-69246D01*
X-32760Y-69170D01*
X-32876Y-69090D01*
X-32990Y-69007D01*
X-33102Y-68922D01*
X-33211Y-68833D01*
X-33318Y-68741D01*
X-33422Y-68646D01*
X-33523Y-68548D01*
X-33622Y-68447D01*
X-33717Y-68344D01*
X-33810Y-68238D01*
X-33900Y-68129D01*
X-33986Y-68018D01*
X-34070Y-67905D01*
X-34150Y-67789D01*
X-34227Y-67671D01*
X-34300Y-67551D01*
X-34371Y-67428D01*
X-34437Y-67304D01*
X-34500Y-67178D01*
X-34560Y-67051D01*
X-34616Y-66922D01*
X-34668Y-66791D01*
X-34717Y-66659D01*
X-34762Y-66525D01*
X-34803Y-66390D01*
X-34840Y-66254D01*
X-34874Y-66118D01*
X-34903Y-65980D01*
X-34929Y-65841D01*
X-34950Y-65702D01*
X-34968Y-65562D01*
X-34982Y-65422D01*
X-34992Y-65282D01*
X-34998Y-65141D01*
X-35000Y-65000D01*
X-41180Y-65000D02*
X-41177Y-64726D01*
X-41167Y-64451D01*
X-41150Y-64178D01*
X-41126Y-63904D01*
X-41096Y-63631D01*
X-41059Y-63360D01*
X-41015Y-63089D01*
X-40965Y-62819D01*
X-40908Y-62550D01*
X-40845Y-62283D01*
X-40775Y-62018D01*
X-40699Y-61755D01*
X-40616Y-61493D01*
X-40526Y-61234D01*
X-40431Y-60976D01*
X-40329Y-60722D01*
X-40221Y-60469D01*
X-40107Y-60220D01*
X-39986Y-59973D01*
X-39860Y-59730D01*
X-39728Y-59489D01*
X-39589Y-59252D01*
X-39445Y-59019D01*
X-39296Y-58789D01*
X-39141Y-58562D01*
X-38980Y-58340D01*
X-38814Y-58122D01*
X-38642Y-57907D01*
X-38466Y-57698D01*
X-38284Y-57492D01*
X-38097Y-57291D01*
X-37905Y-57095D01*
X-37709Y-56903D01*
X-37508Y-56716D01*
X-37302Y-56534D01*
X-37093Y-56358D01*
X-36878Y-56186D01*
X-36660Y-56020D01*
X-36438Y-55859D01*
X-36211Y-55704D01*
X-35981Y-55555D01*
X-35748Y-55411D01*
X-35511Y-55272D01*
X-35270Y-55140D01*
X-35027Y-55014D01*
X-34780Y-54893D01*
X-34531Y-54779D01*
X-34278Y-54671D01*
X-34024Y-54569D01*
X-33766Y-54474D01*
X-33507Y-54384D01*
X-33245Y-54301D01*
X-32982Y-54225D01*
X-32717Y-54155D01*
X-32450Y-54092D01*
X-32181Y-54035D01*
X-31911Y-53985D01*
X-31640Y-53941D01*
X-31369Y-53904D01*
X-31096Y-53874D01*
X-30822Y-53850D01*
X-30549Y-53833D01*
X-30274Y-53823D01*
X-30000Y-53820D01*
X-29726Y-53823D01*
X-29451Y-53833D01*
X-29178Y-53850D01*
X-28904Y-53874D01*
X-28631Y-53904D01*
X-28360Y-53941D01*
X-28089Y-53985D01*
X-27819Y-54035D01*
X-27550Y-54092D01*
X-27283Y-54155D01*
X-27018Y-54225D01*
X-26755Y-54301D01*
X-26493Y-54384D01*
X-26234Y-54474D01*
X-25976Y-54569D01*
X-25722Y-54671D01*
X-25469Y-54779D01*
X-25220Y-54893D01*
X-24973Y-55014D01*
X-24730Y-55140D01*
X-24489Y-55272D01*
X-24252Y-55411D01*
X-24019Y-55555D01*
X-23789Y-55704D01*
X-23562Y-55859D01*
X-23340Y-56020D01*
X-23122Y-56186D01*
X-22907Y-56358D01*
X-22698Y-56534D01*
X-22492Y-56716D01*
X-22291Y-56903D01*
X-22095Y-57095D01*
X-21903Y-57291D01*
X-21716Y-57492D01*
X-21534Y-57698D01*
X-21358Y-57907D01*
X-21186Y-58122D01*
X-21020Y-58340D01*
X-20859Y-58562D01*
X-20704Y-58789D01*
X-20555Y-59019D01*
X-20411Y-59252D01*
X-20272Y-59489D01*
X-20140Y-59730D01*
X-20014Y-59973D01*
X-19893Y-60220D01*
X-19779Y-60469D01*
X-19671Y-60722D01*
X-19569Y-60976D01*
X-19474Y-61234D01*
X-19384Y-61493D01*
X-19301Y-61755D01*
X-19225Y-62018D01*
X-19155Y-62283D01*
X-19092Y-62550D01*
X-19035Y-62819D01*
X-18985Y-63089D01*
X-18941Y-63360D01*
X-18904Y-63631D01*
X-18874Y-63904D01*
X-18850Y-64178D01*
X-18833Y-64451D01*
X-18823Y-64726D01*
X-18820Y-65000D01*
X-18823Y-65274D01*
X-18833Y-65549D01*
X-18850Y-65822D01*
X-18874Y-66096D01*
X-18904Y-66369D01*
X-18941Y-66640D01*
X-18985Y-66911D01*
X-19035Y-67181D01*
X-19092Y-67450D01*
X-19155Y-67717D01*
X-19225Y-67982D01*
X-19301Y-68245D01*
X-19384Y-68507D01*
X-19474Y-68766D01*
X-19569Y-69024D01*
X-19671Y-69278D01*
X-19779Y-69531D01*
X-19893Y-69780D01*
X-20014Y-70027D01*
X-20140Y-70270D01*
X-20272Y-70511D01*
X-20411Y-70748D01*
X-20555Y-70981D01*
X-20704Y-71211D01*
X-20859Y-71438D01*
X-21020Y-71660D01*
X-21186Y-71878D01*
X-21358Y-72093D01*
X-21534Y-72302D01*
X-21716Y-72508D01*
X-21903Y-72709D01*
X-22095Y-72905D01*
X-22291Y-73097D01*
X-22492Y-73284D01*
X-22698Y-73466D01*
X-22907Y-73642D01*
X-23122Y-73814D01*
X-23340Y-73980D01*
X-23562Y-74141D01*
X-23789Y-74296D01*
X-24019Y-74445D01*
X-24252Y-74589D01*
X-24489Y-74728D01*
X-24730Y-74860D01*
X-24973Y-74986D01*
X-25220Y-75107D01*
X-25469Y-75221D01*
X-25722Y-75329D01*
X-25976Y-75431D01*
X-26234Y-75526D01*
X-26493Y-75616D01*
X-26755Y-75699D01*
X-27018Y-75775D01*
X-27283Y-75845D01*
X-27550Y-75908D01*
X-27819Y-75965D01*
X-28089Y-76015D01*
X-28360Y-76059D01*
X-28631Y-76096D01*
X-28904Y-76126D01*
X-29178Y-76150D01*
X-29451Y-76167D01*
X-29726Y-76177D01*
X-30000Y-76180D01*
X-30274Y-76177D01*
X-30549Y-76167D01*
X-30822Y-76150D01*
X-31096Y-76126D01*
X-31369Y-76096D01*
X-31640Y-76059D01*
X-31911Y-76015D01*
X-32181Y-75965D01*
X-32450Y-75908D01*
X-32717Y-75845D01*
X-32982Y-75775D01*
X-33245Y-75699D01*
X-33507Y-75616D01*
X-33766Y-75526D01*
X-34024Y-75431D01*
X-34278Y-75329D01*
X-34531Y-75221D01*
X-34780Y-75107D01*
X-35027Y-74986D01*
X-35270Y-74860D01*
X-35511Y-74728D01*
X-35748Y-74589D01*
X-35981Y-74445D01*
X-36211Y-74296D01*
X-36438Y-74141D01*
X-36660Y-73980D01*
X-36878Y-73814D01*
X-37093Y-73642D01*
X-37302Y-73466D01*
X-37508Y-73284D01*
X-37709Y-73097D01*
X-37905Y-72905D01*
X-38097Y-72709D01*
X-38284Y-72508D01*
X-38466Y-72302D01*
X-38642Y-72093D01*
X-38814Y-71878D01*
X-38980Y-71660D01*
X-39141Y-71438D01*
X-39296Y-71211D01*
X-39445Y-70981D01*
X-39589Y-70748D01*
X-39728Y-70511D01*
X-39860Y-70270D01*
X-39986Y-70027D01*
X-40107Y-69780D01*
X-40221Y-69531D01*
X-40329Y-69278D01*
X-40431Y-69024D01*
X-40526Y-68766D01*
X-40616Y-68507D01*
X-40699Y-68245D01*
X-40775Y-67982D01*
X-40845Y-67717D01*
X-40908Y-67450D01*
X-40965Y-67181D01*
X-41015Y-66911D01*
X-41059Y-66640D01*
X-41096Y-66369D01*
X-41126Y-66096D01*
X-41150Y-65822D01*
X-41167Y-65549D01*
X-41177Y-65274D01*
X-41180Y-65000D01*
X-45000Y-65000D02*
X-44995Y-64632D01*
X-44982Y-64264D01*
X-44959Y-63897D01*
X-44928Y-63530D01*
X-44887Y-63164D01*
X-44838Y-62799D01*
X-44779Y-62436D01*
X-44712Y-62074D01*
X-44636Y-61713D01*
X-44550Y-61355D01*
X-44457Y-60999D01*
X-44354Y-60646D01*
X-44243Y-60295D01*
X-44123Y-59947D01*
X-43995Y-59602D01*
X-43858Y-59260D01*
X-43713Y-58921D01*
X-43560Y-58587D01*
X-43398Y-58256D01*
X-43229Y-57929D01*
X-43051Y-57607D01*
X-42866Y-57288D01*
X-42673Y-56975D01*
X-42472Y-56666D01*
X-42264Y-56363D01*
X-42048Y-56065D01*
X-41825Y-55772D01*
X-41595Y-55484D01*
X-41358Y-55202D01*
X-41114Y-54927D01*
X-40864Y-54657D01*
X-40607Y-54393D01*
X-40343Y-54136D01*
X-40073Y-53886D01*
X-39798Y-53642D01*
X-39516Y-53405D01*
X-39228Y-53175D01*
X-38935Y-52952D01*
X-38637Y-52736D01*
X-38334Y-52528D01*
X-38025Y-52327D01*
X-37712Y-52134D01*
X-37393Y-51949D01*
X-37071Y-51771D01*
X-36744Y-51602D01*
X-36413Y-51440D01*
X-36079Y-51287D01*
X-35740Y-51142D01*
X-35398Y-51005D01*
X-35053Y-50877D01*
X-34705Y-50757D01*
X-34354Y-50646D01*
X-34001Y-50543D01*
X-33645Y-50450D01*
X-33287Y-50364D01*
X-32926Y-50288D01*
X-32564Y-50221D01*
X-32201Y-50162D01*
X-31836Y-50113D01*
X-31470Y-50072D01*
X-31103Y-50041D01*
X-30736Y-50018D01*
X-30368Y-50005D01*
X-30000Y-50000D01*
X-29632Y-50005D01*
X-29264Y-50018D01*
X-28897Y-50041D01*
X-28530Y-50072D01*
X-28164Y-50113D01*
X-27799Y-50162D01*
X-27436Y-50221D01*
X-27074Y-50288D01*
X-26713Y-50364D01*
X-26355Y-50450D01*
X-25999Y-50543D01*
X-25646Y-50646D01*
X-25295Y-50757D01*
X-24947Y-50877D01*
X-24602Y-51005D01*
X-24260Y-51142D01*
X-23921Y-51287D01*
X-23587Y-51440D01*
X-23256Y-51602D01*
X-22929Y-51771D01*
X-22607Y-51949D01*
X-22288Y-52134D01*
X-21975Y-52327D01*
X-21666Y-52528D01*
X-21363Y-52736D01*
X-21065Y-52952D01*
X-20772Y-53175D01*
X-20484Y-53405D01*
X-20202Y-53642D01*
X-19927Y-53886D01*
X-19657Y-54136D01*
X-19393Y-54393D01*
X-19136Y-54657D01*
X-18886Y-54927D01*
X-18642Y-55202D01*
X-18405Y-55484D01*
X-18175Y-55772D01*
X-17952Y-56065D01*
X-17736Y-56363D01*
X-17528Y-56666D01*
X-17327Y-56975D01*
X-17134Y-57288D01*
X-16949Y-57607D01*
X-16771Y-57929D01*
X-16602Y-58256D01*
X-16440Y-58587D01*
X-16287Y-58921D01*
X-16142Y-59260D01*
X-16005Y-59602D01*
X-15877Y-59947D01*
X-15757Y-60295D01*
X-15646Y-60646D01*
X-15543Y-60999D01*
X-15450Y-61355D01*
X-15364Y-61713D01*
X-15288Y-62074D01*
X-15221Y-62436D01*
X-15162Y-62799D01*
X-15113Y-63164D01*
X-15072Y-63530D01*
X-15041Y-63897D01*
X-15018Y-64264D01*
X-15005Y-64632D01*
X-15000Y-65000D01*
X-15005Y-65368D01*
X-15018Y-65736D01*
X-15041Y-66103D01*
X-15072Y-66470D01*
X-15113Y-66836D01*
X-15162Y-67201D01*
X-15221Y-67564D01*
X-15288Y-67926D01*
X-15364Y-68287D01*
X-15450Y-68645D01*
X-15543Y-69001D01*
X-15646Y-69354D01*
X-15757Y-69705D01*
X-15877Y-70053D01*
X-16005Y-70398D01*
X-16142Y-70740D01*
X-16287Y-71079D01*
X-16440Y-71413D01*
X-16602Y-71744D01*
X-16771Y-72071D01*
X-16949Y-72393D01*
X-17134Y-72712D01*
X-17327Y-73025D01*
X-17528Y-73334D01*
X-17736Y-73637D01*
X-17952Y-73935D01*
X-18175Y-74228D01*
X-18405Y-74516D01*
X-18642Y-74798D01*
X-18886Y-75073D01*
X-19136Y-75343D01*
X-19393Y-75607D01*
X-19657Y-75864D01*
X-19927Y-76114D01*
X-20202Y-76358D01*
X-20484Y-76595D01*
X-20772Y-76825D01*
X-21065Y-77048D01*
X-21363Y-77264D01*
X-21666Y-77472D01*
X-21975Y-77673D01*
X-22288Y-77866D01*
X-22607Y-78051D01*
X-22929Y-78229D01*
X-23256Y-78398D01*
X-23587Y-78560D01*
X-23921Y-78713D01*
X-24260Y-78858D01*
X-24602Y-78995D01*
X-24947Y-79123D01*
X-25295Y-79243D01*
X-25646Y-79354D01*
X-25999Y-79457D01*
X-26355Y-79550D01*
X-26713Y-79636D01*
X-27074Y-79712D01*
X-27436Y-79779D01*
X-27799Y-79838D01*
X-28164Y-79887D01*
X-28530Y-79928D01*
X-28897Y-79959D01*
X-29264Y-79982D01*
X-29632Y-79995D01*
X-30000Y-80000D01*
X-30368Y-79995D01*
X-30736Y-79982D01*
X-31103Y-79959D01*
X-31470Y-79928D01*
X-31836Y-79887D01*
X-32201Y-79838D01*
X-32564Y-79779D01*
X-32926Y-79712D01*
X-33287Y-79636D01*
X-33645Y-79550D01*
X-34001Y-79457D01*
X-34354Y-79354D01*
X-34705Y-79243D01*
X-35053Y-79123D01*
X-35398Y-78995D01*
X-35740Y-78858D01*
X-36079Y-78713D01*
X-36413Y-78560D01*
X-36744Y-78398D01*
X-37071Y-78229D01*
X-37393Y-78051D01*
X-37712Y-77866D01*
X-38025Y-77673D01*
X-38334Y-77472D01*
X-38637Y-77264D01*
X-38935Y-77048D01*
X-39228Y-76825D01*
X-39516Y-76595D01*
X-39798Y-76358D01*
X-40073Y-76114D01*
X-40343Y-75864D01*
X-40607Y-75607D01*
X-40864Y-75343D01*
X-41114Y-75073D01*
X-41358Y-74798D01*
X-41595Y-74516D01*
X-41825Y-74228D01*
X-42048Y-73935D01*
X-42264Y-73637D01*
X-42472Y-73334D01*
X-42673Y-73025D01*
X-42866Y-72712D01*
X-43051Y-72393D01*
X-43229Y-72071D01*
X-43398Y-71744D01*
X-43560Y-71413D01*
X-43713Y-71079D01*
X-43858Y-70740D01*
X-43995Y-70398D01*
X-44123Y-70053D01*
X-44243Y-69705D01*
X-44354Y-69354D01*
X-44457Y-69001D01*
X-44550Y-68645D01*
X-44636Y-68287D01*
X-44712Y-67926D01*
X-44779Y-67564D01*
X-44838Y-67201D01*
X-44887Y-66836D01*
X-44928Y-66470D01*
X-44959Y-66103D01*
X-44982Y-65736D01*
X-44995Y-65368D01*
X-45000Y-65000D01*
D17*
X-50000Y-65000D02*
X-49994Y-64509D01*
X-49976Y-64019D01*
X-49946Y-63529D01*
X-49904Y-63040D01*
X-49850Y-62552D01*
X-49784Y-62065D01*
X-49706Y-61581D01*
X-49616Y-61098D01*
X-49514Y-60618D01*
X-49401Y-60140D01*
X-49276Y-59666D01*
X-49139Y-59194D01*
X-48991Y-58726D01*
X-48831Y-58262D01*
X-48660Y-57802D01*
X-48478Y-57346D01*
X-48284Y-56895D01*
X-48080Y-56449D01*
X-47864Y-56008D01*
X-47638Y-55572D01*
X-47402Y-55142D01*
X-47155Y-54718D01*
X-46897Y-54300D01*
X-46629Y-53889D01*
X-46352Y-53484D01*
X-46064Y-53086D01*
X-45767Y-52695D01*
X-45460Y-52312D01*
X-45144Y-51937D01*
X-44819Y-51569D01*
X-44485Y-51209D01*
X-44142Y-50858D01*
X-43791Y-50515D01*
X-43431Y-50181D01*
X-43063Y-49856D01*
X-42688Y-49540D01*
X-42305Y-49233D01*
X-41914Y-48936D01*
X-41516Y-48648D01*
X-41111Y-48371D01*
X-40700Y-48103D01*
X-40282Y-47845D01*
X-39858Y-47598D01*
X-39428Y-47362D01*
X-38992Y-47136D01*
X-38551Y-46920D01*
X-38105Y-46716D01*
X-37654Y-46522D01*
X-37198Y-46340D01*
X-36738Y-46169D01*
X-36274Y-46009D01*
X-35806Y-45861D01*
X-35334Y-45724D01*
X-34860Y-45599D01*
X-34382Y-45486D01*
X-33902Y-45384D01*
X-33419Y-45294D01*
X-32935Y-45216D01*
X-32448Y-45150D01*
X-31960Y-45096D01*
X-31471Y-45054D01*
X-30981Y-45024D01*
X-30491Y-45006D01*
X-30000Y-45000D01*
X-29509Y-45006D01*
X-29019Y-45024D01*
X-28529Y-45054D01*
X-28040Y-45096D01*
X-27552Y-45150D01*
X-27065Y-45216D01*
X-26581Y-45294D01*
X-26098Y-45384D01*
X-25618Y-45486D01*
X-25140Y-45599D01*
X-24666Y-45724D01*
X-24194Y-45861D01*
X-23726Y-46009D01*
X-23262Y-46169D01*
X-22802Y-46340D01*
X-22346Y-46522D01*
X-21895Y-46716D01*
X-21449Y-46920D01*
X-21008Y-47136D01*
X-20572Y-47362D01*
X-20142Y-47598D01*
X-19718Y-47845D01*
X-19300Y-48103D01*
X-18889Y-48371D01*
X-18484Y-48648D01*
X-18086Y-48936D01*
X-17695Y-49233D01*
X-17312Y-49540D01*
X-16937Y-49856D01*
X-16569Y-50181D01*
X-16209Y-50515D01*
X-15858Y-50858D01*
X-15515Y-51209D01*
X-15181Y-51569D01*
X-14856Y-51937D01*
X-14540Y-52312D01*
X-14233Y-52695D01*
X-13936Y-53086D01*
X-13648Y-53484D01*
X-13371Y-53889D01*
X-13103Y-54300D01*
X-12845Y-54718D01*
X-12598Y-55142D01*
X-12362Y-55572D01*
X-12136Y-56008D01*
X-11920Y-56449D01*
X-11716Y-56895D01*
X-11522Y-57346D01*
X-11340Y-57802D01*
X-11169Y-58262D01*
X-11009Y-58726D01*
X-10861Y-59194D01*
X-10724Y-59666D01*
X-10599Y-60140D01*
X-10486Y-60618D01*
X-10384Y-61098D01*
X-10294Y-61581D01*
X-10216Y-62065D01*
X-10150Y-62552D01*
X-10096Y-63040D01*
X-10054Y-63529D01*
X-10024Y-64019D01*
X-10006Y-64509D01*
X-10000Y-65000D01*
X-10006Y-65491D01*
X-10024Y-65981D01*
X-10054Y-66471D01*
X-10096Y-66960D01*
X-10150Y-67448D01*
X-10216Y-67935D01*
X-10294Y-68419D01*
X-10384Y-68902D01*
X-10486Y-69382D01*
X-10599Y-69860D01*
X-10724Y-70334D01*
X-10861Y-70806D01*
X-11009Y-71274D01*
X-11169Y-71738D01*
X-11340Y-72198D01*
X-11522Y-72654D01*
X-11716Y-73105D01*
X-11920Y-73551D01*
X-12136Y-73992D01*
X-12362Y-74428D01*
X-12598Y-74858D01*
X-12845Y-75282D01*
X-13103Y-75700D01*
X-13371Y-76111D01*
X-13648Y-76516D01*
X-13936Y-76914D01*
X-14233Y-77305D01*
X-14540Y-77688D01*
X-14856Y-78063D01*
X-15181Y-78431D01*
X-15515Y-78791D01*
X-15858Y-79142D01*
X-16209Y-79485D01*
X-16569Y-79819D01*
X-16937Y-80144D01*
X-17312Y-80460D01*
X-17695Y-80767D01*
X-18086Y-81064D01*
X-18484Y-81352D01*
X-18889Y-81629D01*
X-19300Y-81897D01*
X-19718Y-82155D01*
X-20142Y-82402D01*
X-20572Y-82638D01*
X-21008Y-82864D01*
X-21449Y-83080D01*
X-21895Y-83284D01*
X-22346Y-83478D01*
X-22802Y-83660D01*
X-23262Y-83831D01*
X-23726Y-83991D01*
X-24194Y-84139D01*
X-24666Y-84276D01*
X-25140Y-84401D01*
X-25618Y-84514D01*
X-26098Y-84616D01*
X-26581Y-84706D01*
X-27065Y-84784D01*
X-27552Y-84850D01*
X-28040Y-84904D01*
X-28529Y-84946D01*
X-29019Y-84976D01*
X-29509Y-84994D01*
X-30000Y-85000D01*
X-30491Y-84994D01*
X-30981Y-84976D01*
X-31471Y-84946D01*
X-31960Y-84904D01*
X-32448Y-84850D01*
X-32935Y-84784D01*
X-33419Y-84706D01*
X-33902Y-84616D01*
X-34382Y-84514D01*
X-34860Y-84401D01*
X-35334Y-84276D01*
X-35806Y-84139D01*
X-36274Y-83991D01*
X-36738Y-83831D01*
X-37198Y-83660D01*
X-37654Y-83478D01*
X-38105Y-83284D01*
X-38551Y-83080D01*
X-38992Y-82864D01*
X-39428Y-82638D01*
X-39858Y-82402D01*
X-40282Y-82155D01*
X-40700Y-81897D01*
X-41111Y-81629D01*
X-41516Y-81352D01*
X-41914Y-81064D01*
X-42305Y-80767D01*
X-42688Y-80460D01*
X-43063Y-80144D01*
X-43431Y-79819D01*
X-43791Y-79485D01*
X-44142Y-79142D01*
X-44485Y-78791D01*
X-44819Y-78431D01*
X-45144Y-78063D01*
X-45460Y-77688D01*
X-45767Y-77305D01*
X-46064Y-76914D01*
X-46352Y-76516D01*
X-46629Y-76111D01*
X-46897Y-75700D01*
X-47155Y-75282D01*
X-47402Y-74858D01*
X-47638Y-74428D01*
X-47864Y-73992D01*
X-48080Y-73551D01*
X-48284Y-73105D01*
X-48478Y-72654D01*
X-48660Y-72198D01*
X-48831Y-71738D01*
X-48991Y-71274D01*
X-49139Y-70806D01*
X-49276Y-70334D01*
X-49401Y-69860D01*
X-49514Y-69382D01*
X-49616Y-68902D01*
X-49706Y-68419D01*
X-49784Y-67935D01*
X-49850Y-67448D01*
X-49904Y-66960D01*
X-49946Y-66471D01*
X-49976Y-65981D01*
X-49994Y-65491D01*
X-50000Y-65000D01*
D16*
X-35000Y-5000D02*
X-34998Y-4859D01*
X-34992Y-4718D01*
X-34982Y-4578D01*
X-34968Y-4438D01*
X-34950Y-4298D01*
X-34929Y-4159D01*
X-34903Y-4020D01*
X-34874Y-3882D01*
X-34840Y-3746D01*
X-34803Y-3610D01*
X-34762Y-3475D01*
X-34717Y-3341D01*
X-34668Y-3209D01*
X-34616Y-3078D01*
X-34560Y-2949D01*
X-34500Y-2822D01*
X-34437Y-2696D01*
X-34371Y-2572D01*
X-34300Y-2449D01*
X-34227Y-2329D01*
X-34150Y-2211D01*
X-34070Y-2095D01*
X-33986Y-1982D01*
X-33900Y-1871D01*
X-33810Y-1762D01*
X-33717Y-1656D01*
X-33622Y-1553D01*
X-33523Y-1452D01*
X-33422Y-1354D01*
X-33318Y-1259D01*
X-33211Y-1167D01*
X-33102Y-1078D01*
X-32990Y-993D01*
X-32876Y-910D01*
X-32760Y-830D01*
X-32641Y-754D01*
X-32520Y-682D01*
X-32398Y-612D01*
X-32273Y-547D01*
X-32147Y-484D01*
X-32019Y-426D01*
X-31889Y-371D01*
X-31758Y-319D01*
X-31625Y-272D01*
X-31491Y-228D01*
X-31356Y-187D01*
X-31220Y-151D01*
X-31083Y-119D01*
X-30945Y-90D01*
X-30807Y-65D01*
X-30667Y-45D01*
X-30527Y-28D01*
X-30387Y-15D01*
X-30246Y-6D01*
X-30106Y-1D01*
X-29965Y0D01*
X-29824Y-3D01*
X-29683Y-10D01*
X-29543Y-21D01*
X-29403Y-36D01*
X-29263Y-55D01*
X-29124Y-77D01*
X-28986Y-104D01*
X-28848Y-134D01*
X-28712Y-169D01*
X-28576Y-207D01*
X-28442Y-249D01*
X-28308Y-295D01*
X-28176Y-344D01*
X-28046Y-398D01*
X-27917Y-455D01*
X-27790Y-515D01*
X-27664Y-579D01*
X-27541Y-647D01*
X-27419Y-718D01*
X-27299Y-792D01*
X-27182Y-870D01*
X-27067Y-951D01*
X-26954Y-1035D01*
X-26843Y-1122D01*
X-26735Y-1213D01*
X-26630Y-1306D01*
X-26527Y-1403D01*
X-26427Y-1502D01*
X-26330Y-1604D01*
X-26236Y-1709D01*
X-26145Y-1816D01*
X-26057Y-1926D01*
X-25972Y-2038D01*
X-25890Y-2153D01*
X-25811Y-2270D01*
X-25736Y-2389D01*
X-25664Y-2510D01*
X-25596Y-2633D01*
X-25531Y-2758D01*
X-25469Y-2885D01*
X-25412Y-3014D01*
X-25357Y-3144D01*
X-25307Y-3275D01*
X-25260Y-3408D01*
X-25217Y-3542D01*
X-25178Y-3678D01*
X-25143Y-3814D01*
X-25111Y-3951D01*
X-25084Y-4089D01*
X-25060Y-4228D01*
X-25040Y-4368D01*
X-25024Y-4508D01*
X-25012Y-4648D01*
X-25004Y-4789D01*
X-25000Y-4930D01*
X-25000Y-5070D01*
X-25004Y-5211D01*
X-25012Y-5352D01*
X-25024Y-5492D01*
X-25040Y-5632D01*
X-25060Y-5772D01*
X-25084Y-5911D01*
X-25111Y-6049D01*
X-25143Y-6186D01*
X-25178Y-6322D01*
X-25217Y-6458D01*
X-25260Y-6592D01*
X-25307Y-6725D01*
X-25357Y-6856D01*
X-25412Y-6986D01*
X-25469Y-7115D01*
X-25531Y-7242D01*
X-25596Y-7367D01*
X-25664Y-7490D01*
X-25736Y-7611D01*
X-25811Y-7730D01*
X-25890Y-7847D01*
X-25972Y-7962D01*
X-26057Y-8074D01*
X-26145Y-8184D01*
X-26236Y-8291D01*
X-26330Y-8396D01*
X-26427Y-8498D01*
X-26527Y-8597D01*
X-26630Y-8694D01*
X-26735Y-8787D01*
X-26843Y-8878D01*
X-26954Y-8965D01*
X-27067Y-9049D01*
X-27182Y-9130D01*
X-27299Y-9208D01*
X-27419Y-9282D01*
X-27541Y-9353D01*
X-27664Y-9421D01*
X-27790Y-9485D01*
X-27917Y-9545D01*
X-28046Y-9602D01*
X-28176Y-9656D01*
X-28308Y-9705D01*
X-28442Y-9751D01*
X-28576Y-9793D01*
X-28712Y-9831D01*
X-28848Y-9866D01*
X-28986Y-9896D01*
X-29124Y-9923D01*
X-29263Y-9945D01*
X-29403Y-9964D01*
X-29543Y-9979D01*
X-29683Y-9990D01*
X-29824Y-9997D01*
X-29965Y-10000D01*
X-30106Y-9999D01*
X-30246Y-9994D01*
X-30387Y-9985D01*
X-30527Y-9972D01*
X-30667Y-9955D01*
X-30807Y-9935D01*
X-30945Y-9910D01*
X-31083Y-9881D01*
X-31220Y-9849D01*
X-31356Y-9813D01*
X-31491Y-9772D01*
X-31625Y-9728D01*
X-31758Y-9681D01*
X-31889Y-9629D01*
X-32019Y-9574D01*
X-32147Y-9516D01*
X-32273Y-9453D01*
X-32398Y-9388D01*
X-32520Y-9318D01*
X-32641Y-9246D01*
X-32760Y-9170D01*
X-32876Y-9090D01*
X-32990Y-9007D01*
X-33102Y-8922D01*
X-33211Y-8833D01*
X-33318Y-8741D01*
X-33422Y-8646D01*
X-33523Y-8548D01*
X-33622Y-8447D01*
X-33717Y-8344D01*
X-33810Y-8238D01*
X-33900Y-8129D01*
X-33986Y-8018D01*
X-34070Y-7905D01*
X-34150Y-7789D01*
X-34227Y-7671D01*
X-34300Y-7551D01*
X-34371Y-7428D01*
X-34437Y-7304D01*
X-34500Y-7178D01*
X-34560Y-7051D01*
X-34616Y-6922D01*
X-34668Y-6791D01*
X-34717Y-6659D01*
X-34762Y-6525D01*
X-34803Y-6390D01*
X-34840Y-6254D01*
X-34874Y-6118D01*
X-34903Y-5980D01*
X-34929Y-5841D01*
X-34950Y-5702D01*
X-34968Y-5562D01*
X-34982Y-5422D01*
X-34992Y-5282D01*
X-34998Y-5141D01*
X-35000Y-5000D01*
X-40000Y-5000D02*
X-39997Y-4755D01*
X-39988Y-4509D01*
X-39973Y-4264D01*
X-39952Y-4020D01*
X-39925Y-3776D01*
X-39892Y-3533D01*
X-39853Y-3290D01*
X-39808Y-3049D01*
X-39757Y-2809D01*
X-39700Y-2570D01*
X-39638Y-2333D01*
X-39569Y-2097D01*
X-39495Y-1863D01*
X-39415Y-1631D01*
X-39330Y-1401D01*
X-39239Y-1173D01*
X-39142Y-948D01*
X-39040Y-724D01*
X-38932Y-504D01*
X-38819Y-286D01*
X-38701Y-71D01*
X-38577Y141D01*
X-38449Y350D01*
X-38315Y556D01*
X-38176Y758D01*
X-38032Y957D01*
X-37883Y1152D01*
X-37730Y1344D01*
X-37572Y1532D01*
X-37410Y1716D01*
X-37242Y1895D01*
X-37071Y2071D01*
X-36895Y2242D01*
X-36716Y2410D01*
X-36532Y2572D01*
X-36344Y2730D01*
X-36152Y2883D01*
X-35957Y3032D01*
X-35758Y3176D01*
X-35556Y3315D01*
X-35350Y3449D01*
X-35141Y3577D01*
X-34929Y3701D01*
X-34714Y3819D01*
X-34496Y3932D01*
X-34276Y4040D01*
X-34052Y4142D01*
X-33827Y4239D01*
X-33599Y4330D01*
X-33369Y4415D01*
X-33137Y4495D01*
X-32903Y4569D01*
X-32667Y4638D01*
X-32430Y4700D01*
X-32191Y4757D01*
X-31951Y4808D01*
X-31710Y4853D01*
X-31467Y4892D01*
X-31224Y4925D01*
X-30980Y4952D01*
X-30736Y4973D01*
X-30491Y4988D01*
X-30245Y4997D01*
X-30000Y5000D01*
X-29755Y4997D01*
X-29509Y4988D01*
X-29264Y4973D01*
X-29020Y4952D01*
X-28776Y4925D01*
X-28533Y4892D01*
X-28290Y4853D01*
X-28049Y4808D01*
X-27809Y4757D01*
X-27570Y4700D01*
X-27333Y4638D01*
X-27097Y4569D01*
X-26863Y4495D01*
X-26631Y4415D01*
X-26401Y4330D01*
X-26173Y4239D01*
X-25948Y4142D01*
X-25724Y4040D01*
X-25504Y3932D01*
X-25286Y3819D01*
X-25071Y3701D01*
X-24859Y3577D01*
X-24650Y3449D01*
X-24444Y3315D01*
X-24242Y3176D01*
X-24043Y3032D01*
X-23848Y2883D01*
X-23656Y2730D01*
X-23468Y2572D01*
X-23284Y2410D01*
X-23105Y2242D01*
X-22929Y2071D01*
X-22758Y1895D01*
X-22590Y1716D01*
X-22428Y1532D01*
X-22270Y1344D01*
X-22117Y1152D01*
X-21968Y957D01*
X-21824Y758D01*
X-21685Y556D01*
X-21551Y350D01*
X-21423Y141D01*
X-21299Y-71D01*
X-21181Y-286D01*
X-21068Y-504D01*
X-20960Y-724D01*
X-20858Y-948D01*
X-20761Y-1173D01*
X-20670Y-1401D01*
X-20585Y-1631D01*
X-20505Y-1863D01*
X-20431Y-2097D01*
X-20362Y-2333D01*
X-20300Y-2570D01*
X-20243Y-2809D01*
X-20192Y-3049D01*
X-20147Y-3290D01*
X-20108Y-3533D01*
X-20075Y-3776D01*
X-20048Y-4020D01*
X-20027Y-4264D01*
X-20012Y-4509D01*
X-20003Y-4755D01*
X-20000Y-5000D01*
X-20003Y-5245D01*
X-20012Y-5491D01*
X-20027Y-5736D01*
X-20048Y-5980D01*
X-20075Y-6224D01*
X-20108Y-6467D01*
X-20147Y-6710D01*
X-20192Y-6951D01*
X-20243Y-7191D01*
X-20300Y-7430D01*
X-20362Y-7667D01*
X-20431Y-7903D01*
X-20505Y-8137D01*
X-20585Y-8369D01*
X-20670Y-8599D01*
X-20761Y-8827D01*
X-20858Y-9052D01*
X-20960Y-9276D01*
X-21068Y-9496D01*
X-21181Y-9714D01*
X-21299Y-9929D01*
X-21423Y-10141D01*
X-21551Y-10350D01*
X-21685Y-10556D01*
X-21824Y-10758D01*
X-21968Y-10957D01*
X-22117Y-11152D01*
X-22270Y-11344D01*
X-22428Y-11532D01*
X-22590Y-11716D01*
X-22758Y-11895D01*
X-22929Y-12071D01*
X-23105Y-12242D01*
X-23284Y-12410D01*
X-23468Y-12572D01*
X-23656Y-12730D01*
X-23848Y-12883D01*
X-24043Y-13032D01*
X-24242Y-13176D01*
X-24444Y-13315D01*
X-24650Y-13449D01*
X-24859Y-13577D01*
X-25071Y-13701D01*
X-25286Y-13819D01*
X-25504Y-13932D01*
X-25724Y-14040D01*
X-25948Y-14142D01*
X-26173Y-14239D01*
X-26401Y-14330D01*
X-26631Y-14415D01*
X-26863Y-14495D01*
X-27097Y-14569D01*
X-27333Y-14638D01*
X-27570Y-14700D01*
X-27809Y-14757D01*
X-28049Y-14808D01*
X-28290Y-14853D01*
X-28533Y-14892D01*
X-28776Y-14925D01*
X-29020Y-14952D01*
X-29264Y-14973D01*
X-29509Y-14988D01*
X-29755Y-14997D01*
X-30000Y-15000D01*
X-30245Y-14997D01*
X-30491Y-14988D01*
X-30736Y-14973D01*
X-30980Y-14952D01*
X-31224Y-14925D01*
X-31467Y-14892D01*
X-31710Y-14853D01*
X-31951Y-14808D01*
X-32191Y-14757D01*
X-32430Y-14700D01*
X-32667Y-14638D01*
X-32903Y-14569D01*
X-33137Y-14495D01*
X-33369Y-14415D01*
X-33599Y-14330D01*
X-33827Y-14239D01*
X-34052Y-14142D01*
X-34276Y-14040D01*
X-34496Y-13932D01*
X-34714Y-13819D01*
X-34929Y-13701D01*
X-35141Y-13577D01*
X-35350Y-13449D01*
X-35556Y-13315D01*
X-35758Y-13176D01*
X-35957Y-13032D01*
X-36152Y-12883D01*
X-36344Y-12730D01*
X-36532Y-12572D01*
X-36716Y-12410D01*
X-36895Y-12242D01*
X-37071Y-12071D01*
X-37242Y-11895D01*
X-37410Y-11716D01*
X-37572Y-11532D01*
X-37730Y-11344D01*
X-37883Y-11152D01*
X-38032Y-10957D01*
X-38176Y-10758D01*
X-38315Y-10556D01*
X-38449Y-10350D01*
X-38577Y-10141D01*
X-38701Y-9929D01*
X-38819Y-9714D01*
X-38932Y-9496D01*
X-39040Y-9276D01*
X-39142Y-9052D01*
X-39239Y-8827D01*
X-39330Y-8599D01*
X-39415Y-8369D01*
X-39495Y-8137D01*
X-39569Y-7903D01*
X-39638Y-7667D01*
X-39700Y-7430D01*
X-39757Y-7191D01*
X-39808Y-6951D01*
X-39853Y-6710D01*
X-39892Y-6467D01*
X-39925Y-6224D01*
X-39952Y-5980D01*
X-39973Y-5736D01*
X-39988Y-5491D01*
X-39997Y-5245D01*
X-40000Y-5000D01*
X-45000Y-5000D02*
X-44995Y-4632D01*
X-44982Y-4264D01*
X-44959Y-3897D01*
X-44928Y-3530D01*
X-44887Y-3164D01*
X-44838Y-2799D01*
X-44779Y-2436D01*
X-44712Y-2074D01*
X-44636Y-1713D01*
X-44550Y-1355D01*
X-44457Y-999D01*
X-44354Y-646D01*
X-44243Y-295D01*
X-44123Y53D01*
X-43995Y398D01*
X-43858Y740D01*
X-43713Y1079D01*
X-43560Y1413D01*
X-43398Y1744D01*
X-43229Y2071D01*
X-43051Y2393D01*
X-42866Y2712D01*
X-42673Y3025D01*
X-42472Y3334D01*
X-42264Y3637D01*
X-42048Y3935D01*
X-41825Y4228D01*
X-41595Y4516D01*
X-41358Y4798D01*
X-41114Y5073D01*
X-40864Y5343D01*
X-40607Y5607D01*
X-40343Y5864D01*
X-40073Y6114D01*
X-39798Y6358D01*
X-39516Y6595D01*
X-39228Y6825D01*
X-38935Y7048D01*
X-38637Y7264D01*
X-38334Y7472D01*
X-38025Y7673D01*
X-37712Y7866D01*
X-37393Y8051D01*
X-37071Y8229D01*
X-36744Y8398D01*
X-36413Y8560D01*
X-36079Y8713D01*
X-35740Y8858D01*
X-35398Y8995D01*
X-35053Y9123D01*
X-34705Y9243D01*
X-34354Y9354D01*
X-34001Y9457D01*
X-33645Y9550D01*
X-33287Y9636D01*
X-32926Y9712D01*
X-32564Y9779D01*
X-32201Y9838D01*
X-31836Y9887D01*
X-31470Y9928D01*
X-31103Y9959D01*
X-30736Y9982D01*
X-30368Y9995D01*
X-30000Y10000D01*
X-29632Y9995D01*
X-29264Y9982D01*
X-28897Y9959D01*
X-28530Y9928D01*
X-28164Y9887D01*
X-27799Y9838D01*
X-27436Y9779D01*
X-27074Y9712D01*
X-26713Y9636D01*
X-26355Y9550D01*
X-25999Y9457D01*
X-25646Y9354D01*
X-25295Y9243D01*
X-24947Y9123D01*
X-24602Y8995D01*
X-24260Y8858D01*
X-23921Y8713D01*
X-23587Y8560D01*
X-23256Y8398D01*
X-22929Y8229D01*
X-22607Y8051D01*
X-22288Y7866D01*
X-21975Y7673D01*
X-21666Y7472D01*
X-21363Y7264D01*
X-21065Y7048D01*
X-20772Y6825D01*
X-20484Y6595D01*
X-20202Y6358D01*
X-19927Y6114D01*
X-19657Y5864D01*
X-19393Y5607D01*
X-19136Y5343D01*
X-18886Y5073D01*
X-18642Y4798D01*
X-18405Y4516D01*
X-18175Y4228D01*
X-17952Y3935D01*
X-17736Y3637D01*
X-17528Y3334D01*
X-17327Y3025D01*
X-17134Y2712D01*
X-16949Y2393D01*
X-16771Y2071D01*
X-16602Y1744D01*
X-16440Y1413D01*
X-16287Y1079D01*
X-16142Y740D01*
X-16005Y398D01*
X-15877Y53D01*
X-15757Y-295D01*
X-15646Y-646D01*
X-15543Y-999D01*
X-15450Y-1355D01*
X-15364Y-1713D01*
X-15288Y-2074D01*
X-15221Y-2436D01*
X-15162Y-2799D01*
X-15113Y-3164D01*
X-15072Y-3530D01*
X-15041Y-3897D01*
X-15018Y-4264D01*
X-15005Y-4632D01*
X-15000Y-5000D01*
X-15005Y-5368D01*
X-15018Y-5736D01*
X-15041Y-6103D01*
X-15072Y-6470D01*
X-15113Y-6836D01*
X-15162Y-7201D01*
X-15221Y-7564D01*
X-15288Y-7926D01*
X-15364Y-8287D01*
X-15450Y-8645D01*
X-15543Y-9001D01*
X-15646Y-9354D01*
X-15757Y-9705D01*
X-15877Y-10053D01*
X-16005Y-10398D01*
X-16142Y-10740D01*
X-16287Y-11079D01*
X-16440Y-11413D01*
X-16602Y-11744D01*
X-16771Y-12071D01*
X-16949Y-12393D01*
X-17134Y-12712D01*
X-17327Y-13025D01*
X-17528Y-13334D01*
X-17736Y-13637D01*
X-17952Y-13935D01*
X-18175Y-14228D01*
X-18405Y-14516D01*
X-18642Y-14798D01*
X-18886Y-15073D01*
X-19136Y-15343D01*
X-19393Y-15607D01*
X-19657Y-15864D01*
X-19927Y-16114D01*
X-20202Y-16358D01*
X-20484Y-16595D01*
X-20772Y-16825D01*
X-21065Y-17048D01*
X-21363Y-17264D01*
X-21666Y-17472D01*
X-21975Y-17673D01*
X-22288Y-17866D01*
X-22607Y-18051D01*
X-22929Y-18229D01*
X-23256Y-18398D01*
X-23587Y-18560D01*
X-23921Y-18713D01*
X-24260Y-18858D01*
X-24602Y-18995D01*
X-24947Y-19123D01*
X-25295Y-19243D01*
X-25646Y-19354D01*
X-25999Y-19457D01*
X-26355Y-19550D01*
X-26713Y-19636D01*
X-27074Y-19712D01*
X-27436Y-19779D01*
X-27799Y-19838D01*
X-28164Y-19887D01*
X-28530Y-19928D01*
X-28897Y-19959D01*
X-29264Y-19982D01*
X-29632Y-19995D01*
X-30000Y-20000D01*
X-30368Y-19995D01*
X-30736Y-19982D01*
X-31103Y-19959D01*
X-31470Y-19928D01*
X-31836Y-19887D01*
X-32201Y-19838D01*
X-32564Y-19779D01*
X-32926Y-19712D01*
X-33287Y-19636D01*
X-33645Y-19550D01*
X-34001Y-19457D01*
X-34354Y-19354D01*
X-34705Y-19243D01*
X-35053Y-19123D01*
X-35398Y-18995D01*
X-35740Y-18858D01*
X-36079Y-18713D01*
X-36413Y-18560D01*
X-36744Y-18398D01*
X-37071Y-18229D01*
X-37393Y-18051D01*
X-37712Y-17866D01*
X-38025Y-17673D01*
X-38334Y-17472D01*
X-38637Y-17264D01*
X-38935Y-17048D01*
X-39228Y-16825D01*
X-39516Y-16595D01*
X-39798Y-16358D01*
X-40073Y-16114D01*
X-40343Y-15864D01*
X-40607Y-15607D01*
X-40864Y-15343D01*
X-41114Y-15073D01*
X-41358Y-14798D01*
X-41595Y-14516D01*
X-41825Y-14228D01*
X-42048Y-13935D01*
X-42264Y-13637D01*
X-42472Y-13334D01*
X-42673Y-13025D01*
X-42866Y-12712D01*
X-43051Y-12393D01*
X-43229Y-12071D01*
X-43398Y-11744D01*
X-43560Y-11413D01*
X-43713Y-11079D01*
X-43858Y-10740D01*
X-43995Y-10398D01*
X-44123Y-10053D01*
X-44243Y-9705D01*
X-44354Y-9354D01*
X-44457Y-9001D01*
X-44550Y-8645D01*
X-44636Y-8287D01*
X-44712Y-7926D01*
X-44779Y-7564D01*
X-44838Y-7201D01*
X-44887Y-6836D01*
X-44928Y-6470D01*
X-44959Y-6103D01*
X-44982Y-5736D01*
X-44995Y-5368D01*
X-45000Y-5000D01*
D17*
X-50000Y-5000D02*
X-49994Y-4509D01*
X-49976Y-4019D01*
X-49946Y-3529D01*
X-49904Y-3040D01*
X-49850Y-2552D01*
X-49784Y-2065D01*
X-49706Y-1581D01*
X-49616Y-1098D01*
X-49514Y-618D01*
X-49401Y-140D01*
X-49276Y334D01*
X-49139Y806D01*
X-48991Y1274D01*
X-48831Y1738D01*
X-48660Y2198D01*
X-48478Y2654D01*
X-48284Y3105D01*
X-48080Y3551D01*
X-47864Y3992D01*
X-47638Y4428D01*
X-47402Y4858D01*
X-47155Y5282D01*
X-46897Y5700D01*
X-46629Y6111D01*
X-46352Y6516D01*
X-46064Y6914D01*
X-45767Y7305D01*
X-45460Y7688D01*
X-45144Y8063D01*
X-44819Y8431D01*
X-44485Y8791D01*
X-44142Y9142D01*
X-43791Y9485D01*
X-43431Y9819D01*
X-43063Y10144D01*
X-42688Y10460D01*
X-42305Y10767D01*
X-41914Y11064D01*
X-41516Y11352D01*
X-41111Y11629D01*
X-40700Y11897D01*
X-40282Y12155D01*
X-39858Y12402D01*
X-39428Y12638D01*
X-38992Y12864D01*
X-38551Y13080D01*
X-38105Y13284D01*
X-37654Y13478D01*
X-37198Y13660D01*
X-36738Y13831D01*
X-36274Y13991D01*
X-35806Y14139D01*
X-35334Y14276D01*
X-34860Y14401D01*
X-34382Y14514D01*
X-33902Y14616D01*
X-33419Y14706D01*
X-32935Y14784D01*
X-32448Y14850D01*
X-31960Y14904D01*
X-31471Y14946D01*
X-30981Y14976D01*
X-30491Y14994D01*
X-30000Y15000D01*
X-29509Y14994D01*
X-29019Y14976D01*
X-28529Y14946D01*
X-28040Y14904D01*
X-27552Y14850D01*
X-27065Y14784D01*
X-26581Y14706D01*
X-26098Y14616D01*
X-25618Y14514D01*
X-25140Y14401D01*
X-24666Y14276D01*
X-24194Y14139D01*
X-23726Y13991D01*
X-23262Y13831D01*
X-22802Y13660D01*
X-22346Y13478D01*
X-21895Y13284D01*
X-21449Y13080D01*
X-21008Y12864D01*
X-20572Y12638D01*
X-20142Y12402D01*
X-19718Y12155D01*
X-19300Y11897D01*
X-18889Y11629D01*
X-18484Y11352D01*
X-18086Y11064D01*
X-17695Y10767D01*
X-17312Y10460D01*
X-16937Y10144D01*
X-16569Y9819D01*
X-16209Y9485D01*
X-15858Y9142D01*
X-15515Y8791D01*
X-15181Y8431D01*
X-14856Y8063D01*
X-14540Y7688D01*
X-14233Y7305D01*
X-13936Y6914D01*
X-13648Y6516D01*
X-13371Y6111D01*
X-13103Y5700D01*
X-12845Y5282D01*
X-12598Y4858D01*
X-12362Y4428D01*
X-12136Y3992D01*
X-11920Y3551D01*
X-11716Y3105D01*
X-11522Y2654D01*
X-11340Y2198D01*
X-11169Y1738D01*
X-11009Y1274D01*
X-10861Y806D01*
X-10724Y334D01*
X-10599Y-140D01*
X-10486Y-618D01*
X-10384Y-1098D01*
X-10294Y-1581D01*
X-10216Y-2065D01*
X-10150Y-2552D01*
X-10096Y-3040D01*
X-10054Y-3529D01*
X-10024Y-4019D01*
X-10006Y-4509D01*
X-10000Y-5000D01*
X-10006Y-5491D01*
X-10024Y-5981D01*
X-10054Y-6471D01*
X-10096Y-6960D01*
X-10150Y-7448D01*
X-10216Y-7935D01*
X-10294Y-8419D01*
X-10384Y-8902D01*
X-10486Y-9382D01*
X-10599Y-9860D01*
X-10724Y-10334D01*
X-10861Y-10806D01*
X-11009Y-11274D01*
X-11169Y-11738D01*
X-11340Y-12198D01*
X-11522Y-12654D01*
X-11716Y-13105D01*
X-11920Y-13551D01*
X-12136Y-13992D01*
X-12362Y-14428D01*
X-12598Y-14858D01*
X-12845Y-15282D01*
X-13103Y-15700D01*
X-13371Y-16111D01*
X-13648Y-16516D01*
X-13936Y-16914D01*
X-14233Y-17305D01*
X-14540Y-17688D01*
X-14856Y-18063D01*
X-15181Y-18431D01*
X-15515Y-18791D01*
X-15858Y-19142D01*
X-16209Y-19485D01*
X-16569Y-19819D01*
X-16937Y-20144D01*
X-17312Y-20460D01*
X-17695Y-20767D01*
X-18086Y-21064D01*
X-18484Y-21352D01*
X-18889Y-21629D01*
X-19300Y-21897D01*
X-19718Y-22155D01*
X-20142Y-22402D01*
X-20572Y-22638D01*
X-21008Y-22864D01*
X-21449Y-23080D01*
X-21895Y-23284D01*
X-22346Y-23478D01*
X-22802Y-23660D01*
X-23262Y-23831D01*
X-23726Y-23991D01*
X-24194Y-24139D01*
X-24666Y-24276D01*
X-25140Y-24401D01*
X-25618Y-24514D01*
X-26098Y-24616D01*
X-26581Y-24706D01*
X-27065Y-24784D01*
X-27552Y-24850D01*
X-28040Y-24904D01*
X-28529Y-24946D01*
X-29019Y-24976D01*
X-29509Y-24994D01*
X-30000Y-25000D01*
X-30491Y-24994D01*
X-30981Y-24976D01*
X-31471Y-24946D01*
X-31960Y-24904D01*
X-32448Y-24850D01*
X-32935Y-24784D01*
X-33419Y-24706D01*
X-33902Y-24616D01*
X-34382Y-24514D01*
X-34860Y-24401D01*
X-35334Y-24276D01*
X-35806Y-24139D01*
X-36274Y-23991D01*
X-36738Y-23831D01*
X-37198Y-23660D01*
X-37654Y-23478D01*
X-38105Y-23284D01*
X-38551Y-23080D01*
X-38992Y-22864D01*
X-39428Y-22638D01*
X-39858Y-22402D01*
X-40282Y-22155D01*
X-40700Y-21897D01*
X-41111Y-21629D01*
X-41516Y-21352D01*
X-41914Y-21064D01*
X-42305Y-20767D01*
X-42688Y-20460D01*
X-43063Y-20144D01*
X-43431Y-19819D01*
X-43791Y-19485D01*
X-44142Y-19142D01*
X-44485Y-18791D01*
X-44819Y-18431D01*
X-45144Y-18063D01*
X-45460Y-17688D01*
X-45767Y-17305D01*
X-46064Y-16914D01*
X-46352Y-16516D01*
X-46629Y-16111D01*
X-46897Y-15700D01*
X-47155Y-15282D01*
X-47402Y-14858D01*
X-47638Y-14428D01*
X-47864Y-13992D01*
X-48080Y-13551D01*
X-48284Y-13105D01*
X-48478Y-12654D01*
X-48660Y-12198D01*
X-48831Y-11738D01*
X-48991Y-11274D01*
X-49139Y-10806D01*
X-49276Y-10334D01*
X-49401Y-9860D01*
X-49514Y-9382D01*
X-49616Y-8902D01*
X-49706Y-8419D01*
X-49784Y-7935D01*
X-49850Y-7448D01*
X-49904Y-6960D01*
X-49946Y-6471D01*
X-49976Y-5981D01*
X-49994Y-5491D01*
X-50000Y-5000D01*
D16*
X25000Y-65000D02*
X25002Y-64859D01*
X25008Y-64718D01*
X25018Y-64578D01*
X25032Y-64438D01*
X25050Y-64298D01*
X25071Y-64159D01*
X25097Y-64020D01*
X25126Y-63882D01*
X25160Y-63746D01*
X25197Y-63610D01*
X25238Y-63475D01*
X25283Y-63341D01*
X25332Y-63209D01*
X25384Y-63078D01*
X25440Y-62949D01*
X25500Y-62822D01*
X25563Y-62696D01*
X25629Y-62572D01*
X25700Y-62449D01*
X25773Y-62329D01*
X25850Y-62211D01*
X25930Y-62095D01*
X26014Y-61982D01*
X26100Y-61871D01*
X26190Y-61762D01*
X26283Y-61656D01*
X26378Y-61553D01*
X26477Y-61452D01*
X26578Y-61354D01*
X26682Y-61259D01*
X26789Y-61167D01*
X26898Y-61078D01*
X27010Y-60993D01*
X27124Y-60910D01*
X27240Y-60830D01*
X27359Y-60754D01*
X27480Y-60682D01*
X27602Y-60612D01*
X27727Y-60547D01*
X27853Y-60484D01*
X27981Y-60426D01*
X28111Y-60371D01*
X28242Y-60319D01*
X28375Y-60272D01*
X28509Y-60228D01*
X28644Y-60187D01*
X28780Y-60151D01*
X28917Y-60119D01*
X29055Y-60090D01*
X29193Y-60065D01*
X29333Y-60045D01*
X29473Y-60028D01*
X29613Y-60015D01*
X29754Y-60006D01*
X29894Y-60001D01*
X30035Y-60000D01*
X30176Y-60003D01*
X30317Y-60010D01*
X30457Y-60021D01*
X30597Y-60036D01*
X30737Y-60055D01*
X30876Y-60077D01*
X31014Y-60104D01*
X31152Y-60134D01*
X31288Y-60169D01*
X31424Y-60207D01*
X31558Y-60249D01*
X31692Y-60295D01*
X31824Y-60344D01*
X31954Y-60398D01*
X32083Y-60455D01*
X32210Y-60515D01*
X32336Y-60579D01*
X32459Y-60647D01*
X32581Y-60718D01*
X32701Y-60792D01*
X32818Y-60870D01*
X32933Y-60951D01*
X33046Y-61035D01*
X33157Y-61122D01*
X33265Y-61213D01*
X33370Y-61306D01*
X33473Y-61403D01*
X33573Y-61502D01*
X33670Y-61604D01*
X33764Y-61709D01*
X33855Y-61816D01*
X33943Y-61926D01*
X34028Y-62038D01*
X34110Y-62153D01*
X34189Y-62270D01*
X34264Y-62389D01*
X34336Y-62510D01*
X34404Y-62633D01*
X34469Y-62758D01*
X34531Y-62885D01*
X34588Y-63014D01*
X34643Y-63144D01*
X34693Y-63275D01*
X34740Y-63408D01*
X34783Y-63542D01*
X34822Y-63678D01*
X34857Y-63814D01*
X34889Y-63951D01*
X34916Y-64089D01*
X34940Y-64228D01*
X34960Y-64368D01*
X34976Y-64508D01*
X34988Y-64648D01*
X34996Y-64789D01*
X35000Y-64930D01*
X35000Y-65070D01*
X34996Y-65211D01*
X34988Y-65352D01*
X34976Y-65492D01*
X34960Y-65632D01*
X34940Y-65772D01*
X34916Y-65911D01*
X34889Y-66049D01*
X34857Y-66186D01*
X34822Y-66322D01*
X34783Y-66458D01*
X34740Y-66592D01*
X34693Y-66725D01*
X34643Y-66856D01*
X34588Y-66986D01*
X34531Y-67115D01*
X34469Y-67242D01*
X34404Y-67367D01*
X34336Y-67490D01*
X34264Y-67611D01*
X34189Y-67730D01*
X34110Y-67847D01*
X34028Y-67962D01*
X33943Y-68074D01*
X33855Y-68184D01*
X33764Y-68291D01*
X33670Y-68396D01*
X33573Y-68498D01*
X33473Y-68597D01*
X33370Y-68694D01*
X33265Y-68787D01*
X33157Y-68878D01*
X33046Y-68965D01*
X32933Y-69049D01*
X32818Y-69130D01*
X32701Y-69208D01*
X32581Y-69282D01*
X32459Y-69353D01*
X32336Y-69421D01*
X32210Y-69485D01*
X32083Y-69545D01*
X31954Y-69602D01*
X31824Y-69656D01*
X31692Y-69705D01*
X31558Y-69751D01*
X31424Y-69793D01*
X31288Y-69831D01*
X31152Y-69866D01*
X31014Y-69896D01*
X30876Y-69923D01*
X30737Y-69945D01*
X30597Y-69964D01*
X30457Y-69979D01*
X30317Y-69990D01*
X30176Y-69997D01*
X30035Y-70000D01*
X29894Y-69999D01*
X29754Y-69994D01*
X29613Y-69985D01*
X29473Y-69972D01*
X29333Y-69955D01*
X29193Y-69935D01*
X29055Y-69910D01*
X28917Y-69881D01*
X28780Y-69849D01*
X28644Y-69813D01*
X28509Y-69772D01*
X28375Y-69728D01*
X28242Y-69681D01*
X28111Y-69629D01*
X27981Y-69574D01*
X27853Y-69516D01*
X27727Y-69453D01*
X27602Y-69388D01*
X27480Y-69318D01*
X27359Y-69246D01*
X27240Y-69170D01*
X27124Y-69090D01*
X27010Y-69007D01*
X26898Y-68922D01*
X26789Y-68833D01*
X26682Y-68741D01*
X26578Y-68646D01*
X26477Y-68548D01*
X26378Y-68447D01*
X26283Y-68344D01*
X26190Y-68238D01*
X26100Y-68129D01*
X26014Y-68018D01*
X25930Y-67905D01*
X25850Y-67789D01*
X25773Y-67671D01*
X25700Y-67551D01*
X25629Y-67428D01*
X25563Y-67304D01*
X25500Y-67178D01*
X25440Y-67051D01*
X25384Y-66922D01*
X25332Y-66791D01*
X25283Y-66659D01*
X25238Y-66525D01*
X25197Y-66390D01*
X25160Y-66254D01*
X25126Y-66118D01*
X25097Y-65980D01*
X25071Y-65841D01*
X25050Y-65702D01*
X25032Y-65562D01*
X25018Y-65422D01*
X25008Y-65282D01*
X25002Y-65141D01*
X25000Y-65000D01*
X20000Y-65000D02*
X20003Y-64755D01*
X20012Y-64509D01*
X20027Y-64264D01*
X20048Y-64020D01*
X20075Y-63776D01*
X20108Y-63533D01*
X20147Y-63290D01*
X20192Y-63049D01*
X20243Y-62809D01*
X20300Y-62570D01*
X20362Y-62333D01*
X20431Y-62097D01*
X20505Y-61863D01*
X20585Y-61631D01*
X20670Y-61401D01*
X20761Y-61173D01*
X20858Y-60948D01*
X20960Y-60724D01*
X21068Y-60504D01*
X21181Y-60286D01*
X21299Y-60071D01*
X21423Y-59859D01*
X21551Y-59650D01*
X21685Y-59444D01*
X21824Y-59242D01*
X21968Y-59043D01*
X22117Y-58848D01*
X22270Y-58656D01*
X22428Y-58468D01*
X22590Y-58284D01*
X22758Y-58105D01*
X22929Y-57929D01*
X23105Y-57758D01*
X23284Y-57590D01*
X23468Y-57428D01*
X23656Y-57270D01*
X23848Y-57117D01*
X24043Y-56968D01*
X24242Y-56824D01*
X24444Y-56685D01*
X24650Y-56551D01*
X24859Y-56423D01*
X25071Y-56299D01*
X25286Y-56181D01*
X25504Y-56068D01*
X25724Y-55960D01*
X25948Y-55858D01*
X26173Y-55761D01*
X26401Y-55670D01*
X26631Y-55585D01*
X26863Y-55505D01*
X27097Y-55431D01*
X27333Y-55362D01*
X27570Y-55300D01*
X27809Y-55243D01*
X28049Y-55192D01*
X28290Y-55147D01*
X28533Y-55108D01*
X28776Y-55075D01*
X29020Y-55048D01*
X29264Y-55027D01*
X29509Y-55012D01*
X29755Y-55003D01*
X30000Y-55000D01*
X30245Y-55003D01*
X30491Y-55012D01*
X30736Y-55027D01*
X30980Y-55048D01*
X31224Y-55075D01*
X31467Y-55108D01*
X31710Y-55147D01*
X31951Y-55192D01*
X32191Y-55243D01*
X32430Y-55300D01*
X32667Y-55362D01*
X32903Y-55431D01*
X33137Y-55505D01*
X33369Y-55585D01*
X33599Y-55670D01*
X33827Y-55761D01*
X34052Y-55858D01*
X34276Y-55960D01*
X34496Y-56068D01*
X34714Y-56181D01*
X34929Y-56299D01*
X35141Y-56423D01*
X35350Y-56551D01*
X35556Y-56685D01*
X35758Y-56824D01*
X35957Y-56968D01*
X36152Y-57117D01*
X36344Y-57270D01*
X36532Y-57428D01*
X36716Y-57590D01*
X36895Y-57758D01*
X37071Y-57929D01*
X37242Y-58105D01*
X37410Y-58284D01*
X37572Y-58468D01*
X37730Y-58656D01*
X37883Y-58848D01*
X38032Y-59043D01*
X38176Y-59242D01*
X38315Y-59444D01*
X38449Y-59650D01*
X38577Y-59859D01*
X38701Y-60071D01*
X38819Y-60286D01*
X38932Y-60504D01*
X39040Y-60724D01*
X39142Y-60948D01*
X39239Y-61173D01*
X39330Y-61401D01*
X39415Y-61631D01*
X39495Y-61863D01*
X39569Y-62097D01*
X39638Y-62333D01*
X39700Y-62570D01*
X39757Y-62809D01*
X39808Y-63049D01*
X39853Y-63290D01*
X39892Y-63533D01*
X39925Y-63776D01*
X39952Y-64020D01*
X39973Y-64264D01*
X39988Y-64509D01*
X39997Y-64755D01*
X40000Y-65000D01*
X39997Y-65245D01*
X39988Y-65491D01*
X39973Y-65736D01*
X39952Y-65980D01*
X39925Y-66224D01*
X39892Y-66467D01*
X39853Y-66710D01*
X39808Y-66951D01*
X39757Y-67191D01*
X39700Y-67430D01*
X39638Y-67667D01*
X39569Y-67903D01*
X39495Y-68137D01*
X39415Y-68369D01*
X39330Y-68599D01*
X39239Y-68827D01*
X39142Y-69052D01*
X39040Y-69276D01*
X38932Y-69496D01*
X38819Y-69714D01*
X38701Y-69929D01*
X38577Y-70141D01*
X38449Y-70350D01*
X38315Y-70556D01*
X38176Y-70758D01*
X38032Y-70957D01*
X37883Y-71152D01*
X37730Y-71344D01*
X37572Y-71532D01*
X37410Y-71716D01*
X37242Y-71895D01*
X37071Y-72071D01*
X36895Y-72242D01*
X36716Y-72410D01*
X36532Y-72572D01*
X36344Y-72730D01*
X36152Y-72883D01*
X35957Y-73032D01*
X35758Y-73176D01*
X35556Y-73315D01*
X35350Y-73449D01*
X35141Y-73577D01*
X34929Y-73701D01*
X34714Y-73819D01*
X34496Y-73932D01*
X34276Y-74040D01*
X34052Y-74142D01*
X33827Y-74239D01*
X33599Y-74330D01*
X33369Y-74415D01*
X33137Y-74495D01*
X32903Y-74569D01*
X32667Y-74638D01*
X32430Y-74700D01*
X32191Y-74757D01*
X31951Y-74808D01*
X31710Y-74853D01*
X31467Y-74892D01*
X31224Y-74925D01*
X30980Y-74952D01*
X30736Y-74973D01*
X30491Y-74988D01*
X30245Y-74997D01*
X30000Y-75000D01*
X29755Y-74997D01*
X29509Y-74988D01*
X29264Y-74973D01*
X29020Y-74952D01*
X28776Y-74925D01*
X28533Y-74892D01*
X28290Y-74853D01*
X28049Y-74808D01*
X27809Y-74757D01*
X27570Y-74700D01*
X27333Y-74638D01*
X27097Y-74569D01*
X26863Y-74495D01*
X26631Y-74415D01*
X26401Y-74330D01*
X26173Y-74239D01*
X25948Y-74142D01*
X25724Y-74040D01*
X25504Y-73932D01*
X25286Y-73819D01*
X25071Y-73701D01*
X24859Y-73577D01*
X24650Y-73449D01*
X24444Y-73315D01*
X24242Y-73176D01*
X24043Y-73032D01*
X23848Y-72883D01*
X23656Y-72730D01*
X23468Y-72572D01*
X23284Y-72410D01*
X23105Y-72242D01*
X22929Y-72071D01*
X22758Y-71895D01*
X22590Y-71716D01*
X22428Y-71532D01*
X22270Y-71344D01*
X22117Y-71152D01*
X21968Y-70957D01*
X21824Y-70758D01*
X21685Y-70556D01*
X21551Y-70350D01*
X21423Y-70141D01*
X21299Y-69929D01*
X21181Y-69714D01*
X21068Y-69496D01*
X20960Y-69276D01*
X20858Y-69052D01*
X20761Y-68827D01*
X20670Y-68599D01*
X20585Y-68369D01*
X20505Y-68137D01*
X20431Y-67903D01*
X20362Y-67667D01*
X20300Y-67430D01*
X20243Y-67191D01*
X20192Y-66951D01*
X20147Y-66710D01*
X20108Y-66467D01*
X20075Y-66224D01*
X20048Y-65980D01*
X20027Y-65736D01*
X20012Y-65491D01*
X20003Y-65245D01*
X20000Y-65000D01*
X14189Y-65000D02*
X14194Y-64612D01*
X14208Y-64224D01*
X14232Y-63837D01*
X14265Y-63450D01*
X14308Y-63065D01*
X14360Y-62680D01*
X14422Y-62297D01*
X14493Y-61915D01*
X14573Y-61536D01*
X14663Y-61158D01*
X14762Y-60783D01*
X14870Y-60410D01*
X14987Y-60040D01*
X15113Y-59673D01*
X15248Y-59310D01*
X15393Y-58949D01*
X15545Y-58593D01*
X15707Y-58240D01*
X15877Y-57891D01*
X16056Y-57547D01*
X16243Y-57207D01*
X16438Y-56872D01*
X16642Y-56541D01*
X16854Y-56216D01*
X17073Y-55896D01*
X17300Y-55581D01*
X17535Y-55273D01*
X17778Y-54970D01*
X18028Y-54673D01*
X18285Y-54382D01*
X18549Y-54098D01*
X18820Y-53820D01*
X19098Y-53549D01*
X19382Y-53285D01*
X19673Y-53028D01*
X19970Y-52778D01*
X20273Y-52535D01*
X20581Y-52300D01*
X20896Y-52073D01*
X21216Y-51854D01*
X21541Y-51642D01*
X21872Y-51438D01*
X22207Y-51243D01*
X22547Y-51056D01*
X22891Y-50877D01*
X23240Y-50707D01*
X23593Y-50545D01*
X23949Y-50393D01*
X24310Y-50248D01*
X24673Y-50113D01*
X25040Y-49987D01*
X25410Y-49870D01*
X25783Y-49762D01*
X26158Y-49663D01*
X26536Y-49573D01*
X26915Y-49493D01*
X27297Y-49422D01*
X27680Y-49360D01*
X28065Y-49308D01*
X28450Y-49265D01*
X28837Y-49232D01*
X29224Y-49208D01*
X29612Y-49194D01*
X30000Y-49189D01*
X30388Y-49194D01*
X30776Y-49208D01*
X31163Y-49232D01*
X31550Y-49265D01*
X31935Y-49308D01*
X32320Y-49360D01*
X32703Y-49422D01*
X33085Y-49493D01*
X33464Y-49573D01*
X33842Y-49663D01*
X34217Y-49762D01*
X34590Y-49870D01*
X34960Y-49987D01*
X35327Y-50113D01*
X35690Y-50248D01*
X36051Y-50393D01*
X36407Y-50545D01*
X36760Y-50707D01*
X37109Y-50877D01*
X37453Y-51056D01*
X37793Y-51243D01*
X38128Y-51438D01*
X38459Y-51642D01*
X38784Y-51854D01*
X39104Y-52073D01*
X39419Y-52300D01*
X39727Y-52535D01*
X40030Y-52778D01*
X40327Y-53028D01*
X40618Y-53285D01*
X40902Y-53549D01*
X41180Y-53820D01*
X41451Y-54098D01*
X41715Y-54382D01*
X41972Y-54673D01*
X42222Y-54970D01*
X42465Y-55273D01*
X42700Y-55581D01*
X42927Y-55896D01*
X43146Y-56216D01*
X43358Y-56541D01*
X43562Y-56872D01*
X43757Y-57207D01*
X43944Y-57547D01*
X44123Y-57891D01*
X44293Y-58240D01*
X44455Y-58593D01*
X44607Y-58949D01*
X44752Y-59310D01*
X44887Y-59673D01*
X45013Y-60040D01*
X45130Y-60410D01*
X45238Y-60783D01*
X45337Y-61158D01*
X45427Y-61536D01*
X45507Y-61915D01*
X45578Y-62297D01*
X45640Y-62680D01*
X45692Y-63065D01*
X45735Y-63450D01*
X45768Y-63837D01*
X45792Y-64224D01*
X45806Y-64612D01*
X45811Y-65000D01*
X45806Y-65388D01*
X45792Y-65776D01*
X45768Y-66163D01*
X45735Y-66550D01*
X45692Y-66935D01*
X45640Y-67320D01*
X45578Y-67703D01*
X45507Y-68085D01*
X45427Y-68464D01*
X45337Y-68842D01*
X45238Y-69217D01*
X45130Y-69590D01*
X45013Y-69960D01*
X44887Y-70327D01*
X44752Y-70690D01*
X44607Y-71051D01*
X44455Y-71407D01*
X44293Y-71760D01*
X44123Y-72109D01*
X43944Y-72453D01*
X43757Y-72793D01*
X43562Y-73128D01*
X43358Y-73459D01*
X43146Y-73784D01*
X42927Y-74104D01*
X42700Y-74419D01*
X42465Y-74727D01*
X42222Y-75030D01*
X41972Y-75327D01*
X41715Y-75618D01*
X41451Y-75902D01*
X41180Y-76180D01*
X40902Y-76451D01*
X40618Y-76715D01*
X40327Y-76972D01*
X40030Y-77222D01*
X39727Y-77465D01*
X39419Y-77700D01*
X39104Y-77927D01*
X38784Y-78146D01*
X38459Y-78358D01*
X38128Y-78562D01*
X37793Y-78757D01*
X37453Y-78944D01*
X37109Y-79123D01*
X36760Y-79293D01*
X36407Y-79455D01*
X36051Y-79607D01*
X35690Y-79752D01*
X35327Y-79887D01*
X34960Y-80013D01*
X34590Y-80130D01*
X34217Y-80238D01*
X33842Y-80337D01*
X33464Y-80427D01*
X33085Y-80507D01*
X32703Y-80578D01*
X32320Y-80640D01*
X31935Y-80692D01*
X31550Y-80735D01*
X31163Y-80768D01*
X30776Y-80792D01*
X30388Y-80806D01*
X30000Y-80811D01*
X29612Y-80806D01*
X29224Y-80792D01*
X28837Y-80768D01*
X28450Y-80735D01*
X28065Y-80692D01*
X27680Y-80640D01*
X27297Y-80578D01*
X26915Y-80507D01*
X26536Y-80427D01*
X26158Y-80337D01*
X25783Y-80238D01*
X25410Y-80130D01*
X25040Y-80013D01*
X24673Y-79887D01*
X24310Y-79752D01*
X23949Y-79607D01*
X23593Y-79455D01*
X23240Y-79293D01*
X22891Y-79123D01*
X22547Y-78944D01*
X22207Y-78757D01*
X21872Y-78562D01*
X21541Y-78358D01*
X21216Y-78146D01*
X20896Y-77927D01*
X20581Y-77700D01*
X20273Y-77465D01*
X19970Y-77222D01*
X19673Y-76972D01*
X19382Y-76715D01*
X19098Y-76451D01*
X18820Y-76180D01*
X18549Y-75902D01*
X18285Y-75618D01*
X18028Y-75327D01*
X17778Y-75030D01*
X17535Y-74727D01*
X17300Y-74419D01*
X17073Y-74104D01*
X16854Y-73784D01*
X16642Y-73459D01*
X16438Y-73128D01*
X16243Y-72793D01*
X16056Y-72453D01*
X15877Y-72109D01*
X15707Y-71760D01*
X15545Y-71407D01*
X15393Y-71051D01*
X15248Y-70690D01*
X15113Y-70327D01*
X14987Y-69960D01*
X14870Y-69590D01*
X14762Y-69217D01*
X14663Y-68842D01*
X14573Y-68464D01*
X14493Y-68085D01*
X14422Y-67703D01*
X14360Y-67320D01*
X14308Y-66935D01*
X14265Y-66550D01*
X14232Y-66163D01*
X14208Y-65776D01*
X14194Y-65388D01*
X14189Y-65000D01*
D17*
X10000Y-65000D02*
X10006Y-64509D01*
X10024Y-64019D01*
X10054Y-63529D01*
X10096Y-63040D01*
X10150Y-62552D01*
X10216Y-62065D01*
X10294Y-61581D01*
X10384Y-61098D01*
X10486Y-60618D01*
X10599Y-60140D01*
X10724Y-59666D01*
X10861Y-59194D01*
X11009Y-58726D01*
X11169Y-58262D01*
X11340Y-57802D01*
X11522Y-57346D01*
X11716Y-56895D01*
X11920Y-56449D01*
X12136Y-56008D01*
X12362Y-55572D01*
X12598Y-55142D01*
X12845Y-54718D01*
X13103Y-54300D01*
X13371Y-53889D01*
X13648Y-53484D01*
X13936Y-53086D01*
X14233Y-52695D01*
X14540Y-52312D01*
X14856Y-51937D01*
X15181Y-51569D01*
X15515Y-51209D01*
X15858Y-50858D01*
X16209Y-50515D01*
X16569Y-50181D01*
X16937Y-49856D01*
X17312Y-49540D01*
X17695Y-49233D01*
X18086Y-48936D01*
X18484Y-48648D01*
X18889Y-48371D01*
X19300Y-48103D01*
X19718Y-47845D01*
X20142Y-47598D01*
X20572Y-47362D01*
X21008Y-47136D01*
X21449Y-46920D01*
X21895Y-46716D01*
X22346Y-46522D01*
X22802Y-46340D01*
X23262Y-46169D01*
X23726Y-46009D01*
X24194Y-45861D01*
X24666Y-45724D01*
X25140Y-45599D01*
X25618Y-45486D01*
X26098Y-45384D01*
X26581Y-45294D01*
X27065Y-45216D01*
X27552Y-45150D01*
X28040Y-45096D01*
X28529Y-45054D01*
X29019Y-45024D01*
X29509Y-45006D01*
X30000Y-45000D01*
X30491Y-45006D01*
X30981Y-45024D01*
X31471Y-45054D01*
X31960Y-45096D01*
X32448Y-45150D01*
X32935Y-45216D01*
X33419Y-45294D01*
X33902Y-45384D01*
X34382Y-45486D01*
X34860Y-45599D01*
X35334Y-45724D01*
X35806Y-45861D01*
X36274Y-46009D01*
X36738Y-46169D01*
X37198Y-46340D01*
X37654Y-46522D01*
X38105Y-46716D01*
X38551Y-46920D01*
X38992Y-47136D01*
X39428Y-47362D01*
X39858Y-47598D01*
X40282Y-47845D01*
X40700Y-48103D01*
X41111Y-48371D01*
X41516Y-48648D01*
X41914Y-48936D01*
X42305Y-49233D01*
X42688Y-49540D01*
X43063Y-49856D01*
X43431Y-50181D01*
X43791Y-50515D01*
X44142Y-50858D01*
X44485Y-51209D01*
X44819Y-51569D01*
X45144Y-51937D01*
X45460Y-52312D01*
X45767Y-52695D01*
X46064Y-53086D01*
X46352Y-53484D01*
X46629Y-53889D01*
X46897Y-54300D01*
X47155Y-54718D01*
X47402Y-55142D01*
X47638Y-55572D01*
X47864Y-56008D01*
X48080Y-56449D01*
X48284Y-56895D01*
X48478Y-57346D01*
X48660Y-57802D01*
X48831Y-58262D01*
X48991Y-58726D01*
X49139Y-59194D01*
X49276Y-59666D01*
X49401Y-60140D01*
X49514Y-60618D01*
X49616Y-61098D01*
X49706Y-61581D01*
X49784Y-62065D01*
X49850Y-62552D01*
X49904Y-63040D01*
X49946Y-63529D01*
X49976Y-64019D01*
X49994Y-64509D01*
X50000Y-65000D01*
X49994Y-65491D01*
X49976Y-65981D01*
X49946Y-66471D01*
X49904Y-66960D01*
X49850Y-67448D01*
X49784Y-67935D01*
X49706Y-68419D01*
X49616Y-68902D01*
X49514Y-69382D01*
X49401Y-69860D01*
X49276Y-70334D01*
X49139Y-70806D01*
X48991Y-71274D01*
X48831Y-71738D01*
X48660Y-72198D01*
X48478Y-72654D01*
X48284Y-73105D01*
X48080Y-73551D01*
X47864Y-73992D01*
X47638Y-74428D01*
X47402Y-74858D01*
X47155Y-75282D01*
X46897Y-75700D01*
X46629Y-76111D01*
X46352Y-76516D01*
X46064Y-76914D01*
X45767Y-77305D01*
X45460Y-77688D01*
X45144Y-78063D01*
X44819Y-78431D01*
X44485Y-78791D01*
X44142Y-79142D01*
X43791Y-79485D01*
X43431Y-79819D01*
X43063Y-80144D01*
X42688Y-80460D01*
X42305Y-80767D01*
X41914Y-81064D01*
X41516Y-81352D01*
X41111Y-81629D01*
X40700Y-81897D01*
X40282Y-82155D01*
X39858Y-82402D01*
X39428Y-82638D01*
X38992Y-82864D01*
X38551Y-83080D01*
X38105Y-83284D01*
X37654Y-83478D01*
X37198Y-83660D01*
X36738Y-83831D01*
X36274Y-83991D01*
X35806Y-84139D01*
X35334Y-84276D01*
X34860Y-84401D01*
X34382Y-84514D01*
X33902Y-84616D01*
X33419Y-84706D01*
X32935Y-84784D01*
X32448Y-84850D01*
X31960Y-84904D01*
X31471Y-84946D01*
X30981Y-84976D01*
X30491Y-84994D01*
X30000Y-85000D01*
X29509Y-84994D01*
X29019Y-84976D01*
X28529Y-84946D01*
X28040Y-84904D01*
X27552Y-84850D01*
X27065Y-84784D01*
X26581Y-84706D01*
X26098Y-84616D01*
X25618Y-84514D01*
X25140Y-84401D01*
X24666Y-84276D01*
X24194Y-84139D01*
X23726Y-83991D01*
X23262Y-83831D01*
X22802Y-83660D01*
X22346Y-83478D01*
X21895Y-83284D01*
X21449Y-83080D01*
X21008Y-82864D01*
X20572Y-82638D01*
X20142Y-82402D01*
X19718Y-82155D01*
X19300Y-81897D01*
X18889Y-81629D01*
X18484Y-81352D01*
X18086Y-81064D01*
X17695Y-80767D01*
X17312Y-80460D01*
X16937Y-80144D01*
X16569Y-79819D01*
X16209Y-79485D01*
X15858Y-79142D01*
X15515Y-78791D01*
X15181Y-78431D01*
X14856Y-78063D01*
X14540Y-77688D01*
X14233Y-77305D01*
X13936Y-76914D01*
X13648Y-76516D01*
X13371Y-76111D01*
X13103Y-75700D01*
X12845Y-75282D01*
X12598Y-74858D01*
X12362Y-74428D01*
X12136Y-73992D01*
X11920Y-73551D01*
X11716Y-73105D01*
X11522Y-72654D01*
X11340Y-72198D01*
X11169Y-71738D01*
X11009Y-71274D01*
X10861Y-70806D01*
X10724Y-70334D01*
X10599Y-69860D01*
X10486Y-69382D01*
X10384Y-68902D01*
X10294Y-68419D01*
X10216Y-67935D01*
X10150Y-67448D01*
X10096Y-66960D01*
X10054Y-66471D01*
X10024Y-65981D01*
X10006Y-65491D01*
X10000Y-65000D01*
D16*
X25000Y-5000D02*
X25002Y-4859D01*
X25008Y-4718D01*
X25018Y-4578D01*
X25032Y-4438D01*
X25050Y-4298D01*
X25071Y-4159D01*
X25097Y-4020D01*
X25126Y-3882D01*
X25160Y-3746D01*
X25197Y-3610D01*
X25238Y-3475D01*
X25283Y-3341D01*
X25332Y-3209D01*
X25384Y-3078D01*
X25440Y-2949D01*
X25500Y-2822D01*
X25563Y-2696D01*
X25629Y-2572D01*
X25700Y-2449D01*
X25773Y-2329D01*
X25850Y-2211D01*
X25930Y-2095D01*
X26014Y-1982D01*
X26100Y-1871D01*
X26190Y-1762D01*
X26283Y-1656D01*
X26378Y-1553D01*
X26477Y-1452D01*
X26578Y-1354D01*
X26682Y-1259D01*
X26789Y-1167D01*
X26898Y-1078D01*
X27010Y-993D01*
X27124Y-910D01*
X27240Y-830D01*
X27359Y-754D01*
X27480Y-682D01*
X27602Y-612D01*
X27727Y-547D01*
X27853Y-484D01*
X27981Y-426D01*
X28111Y-371D01*
X28242Y-319D01*
X28375Y-272D01*
X28509Y-228D01*
X28644Y-187D01*
X28780Y-151D01*
X28917Y-119D01*
X29055Y-90D01*
X29193Y-65D01*
X29333Y-45D01*
X29473Y-28D01*
X29613Y-15D01*
X29754Y-6D01*
X29894Y-1D01*
X30035Y0D01*
X30176Y-3D01*
X30317Y-10D01*
X30457Y-21D01*
X30597Y-36D01*
X30737Y-55D01*
X30876Y-77D01*
X31014Y-104D01*
X31152Y-134D01*
X31288Y-169D01*
X31424Y-207D01*
X31558Y-249D01*
X31692Y-295D01*
X31824Y-344D01*
X31954Y-398D01*
X32083Y-455D01*
X32210Y-515D01*
X32336Y-579D01*
X32459Y-647D01*
X32581Y-718D01*
X32701Y-792D01*
X32818Y-870D01*
X32933Y-951D01*
X33046Y-1035D01*
X33157Y-1122D01*
X33265Y-1213D01*
X33370Y-1306D01*
X33473Y-1403D01*
X33573Y-1502D01*
X33670Y-1604D01*
X33764Y-1709D01*
X33855Y-1816D01*
X33943Y-1926D01*
X34028Y-2038D01*
X34110Y-2153D01*
X34189Y-2270D01*
X34264Y-2389D01*
X34336Y-2510D01*
X34404Y-2633D01*
X34469Y-2758D01*
X34531Y-2885D01*
X34588Y-3014D01*
X34643Y-3144D01*
X34693Y-3275D01*
X34740Y-3408D01*
X34783Y-3542D01*
X34822Y-3678D01*
X34857Y-3814D01*
X34889Y-3951D01*
X34916Y-4089D01*
X34940Y-4228D01*
X34960Y-4368D01*
X34976Y-4508D01*
X34988Y-4648D01*
X34996Y-4789D01*
X35000Y-4930D01*
X35000Y-5070D01*
X34996Y-5211D01*
X34988Y-5352D01*
X34976Y-5492D01*
X34960Y-5632D01*
X34940Y-5772D01*
X34916Y-5911D01*
X34889Y-6049D01*
X34857Y-6186D01*
X34822Y-6322D01*
X34783Y-6458D01*
X34740Y-6592D01*
X34693Y-6725D01*
X34643Y-6856D01*
X34588Y-6986D01*
X34531Y-7115D01*
X34469Y-7242D01*
X34404Y-7367D01*
X34336Y-7490D01*
X34264Y-7611D01*
X34189Y-7730D01*
X34110Y-7847D01*
X34028Y-7962D01*
X33943Y-8074D01*
X33855Y-8184D01*
X33764Y-8291D01*
X33670Y-8396D01*
X33573Y-8498D01*
X33473Y-8597D01*
X33370Y-8694D01*
X33265Y-8787D01*
X33157Y-8878D01*
X33046Y-8965D01*
X32933Y-9049D01*
X32818Y-9130D01*
X32701Y-9208D01*
X32581Y-9282D01*
X32459Y-9353D01*
X32336Y-9421D01*
X32210Y-9485D01*
X32083Y-9545D01*
X31954Y-9602D01*
X31824Y-9656D01*
X31692Y-9705D01*
X31558Y-9751D01*
X31424Y-9793D01*
X31288Y-9831D01*
X31152Y-9866D01*
X31014Y-9896D01*
X30876Y-9923D01*
X30737Y-9945D01*
X30597Y-9964D01*
X30457Y-9979D01*
X30317Y-9990D01*
X30176Y-9997D01*
X30035Y-10000D01*
X29894Y-9999D01*
X29754Y-9994D01*
X29613Y-9985D01*
X29473Y-9972D01*
X29333Y-9955D01*
X29193Y-9935D01*
X29055Y-9910D01*
X28917Y-9881D01*
X28780Y-9849D01*
X28644Y-9813D01*
X28509Y-9772D01*
X28375Y-9728D01*
X28242Y-9681D01*
X28111Y-9629D01*
X27981Y-9574D01*
X27853Y-9516D01*
X27727Y-9453D01*
X27602Y-9388D01*
X27480Y-9318D01*
X27359Y-9246D01*
X27240Y-9170D01*
X27124Y-9090D01*
X27010Y-9007D01*
X26898Y-8922D01*
X26789Y-8833D01*
X26682Y-8741D01*
X26578Y-8646D01*
X26477Y-8548D01*
X26378Y-8447D01*
X26283Y-8344D01*
X26190Y-8238D01*
X26100Y-8129D01*
X26014Y-8018D01*
X25930Y-7905D01*
X25850Y-7789D01*
X25773Y-7671D01*
X25700Y-7551D01*
X25629Y-7428D01*
X25563Y-7304D01*
X25500Y-7178D01*
X25440Y-7051D01*
X25384Y-6922D01*
X25332Y-6791D01*
X25283Y-6659D01*
X25238Y-6525D01*
X25197Y-6390D01*
X25160Y-6254D01*
X25126Y-6118D01*
X25097Y-5980D01*
X25071Y-5841D01*
X25050Y-5702D01*
X25032Y-5562D01*
X25018Y-5422D01*
X25008Y-5282D01*
X25002Y-5141D01*
X25000Y-5000D01*
X18820Y-5000D02*
X18823Y-4726D01*
X18833Y-4451D01*
X18850Y-4178D01*
X18874Y-3904D01*
X18904Y-3631D01*
X18941Y-3360D01*
X18985Y-3089D01*
X19035Y-2819D01*
X19092Y-2550D01*
X19155Y-2283D01*
X19225Y-2018D01*
X19301Y-1755D01*
X19384Y-1493D01*
X19474Y-1234D01*
X19569Y-976D01*
X19671Y-722D01*
X19779Y-469D01*
X19893Y-220D01*
X20014Y27D01*
X20140Y270D01*
X20272Y511D01*
X20411Y748D01*
X20555Y981D01*
X20704Y1211D01*
X20859Y1438D01*
X21020Y1660D01*
X21186Y1878D01*
X21358Y2093D01*
X21534Y2302D01*
X21716Y2508D01*
X21903Y2709D01*
X22095Y2905D01*
X22291Y3097D01*
X22492Y3284D01*
X22698Y3466D01*
X22907Y3642D01*
X23122Y3814D01*
X23340Y3980D01*
X23562Y4141D01*
X23789Y4296D01*
X24019Y4445D01*
X24252Y4589D01*
X24489Y4728D01*
X24730Y4860D01*
X24973Y4986D01*
X25220Y5107D01*
X25469Y5221D01*
X25722Y5329D01*
X25976Y5431D01*
X26234Y5526D01*
X26493Y5616D01*
X26755Y5699D01*
X27018Y5775D01*
X27283Y5845D01*
X27550Y5908D01*
X27819Y5965D01*
X28089Y6015D01*
X28360Y6059D01*
X28631Y6096D01*
X28904Y6126D01*
X29178Y6150D01*
X29451Y6167D01*
X29726Y6177D01*
X30000Y6180D01*
X30274Y6177D01*
X30549Y6167D01*
X30822Y6150D01*
X31096Y6126D01*
X31369Y6096D01*
X31640Y6059D01*
X31911Y6015D01*
X32181Y5965D01*
X32450Y5908D01*
X32717Y5845D01*
X32982Y5775D01*
X33245Y5699D01*
X33507Y5616D01*
X33766Y5526D01*
X34024Y5431D01*
X34278Y5329D01*
X34531Y5221D01*
X34780Y5107D01*
X35027Y4986D01*
X35270Y4860D01*
X35511Y4728D01*
X35748Y4589D01*
X35981Y4445D01*
X36211Y4296D01*
X36438Y4141D01*
X36660Y3980D01*
X36878Y3814D01*
X37093Y3642D01*
X37302Y3466D01*
X37508Y3284D01*
X37709Y3097D01*
X37905Y2905D01*
X38097Y2709D01*
X38284Y2508D01*
X38466Y2302D01*
X38642Y2093D01*
X38814Y1878D01*
X38980Y1660D01*
X39141Y1438D01*
X39296Y1211D01*
X39445Y981D01*
X39589Y748D01*
X39728Y511D01*
X39860Y270D01*
X39986Y27D01*
X40107Y-220D01*
X40221Y-469D01*
X40329Y-722D01*
X40431Y-976D01*
X40526Y-1234D01*
X40616Y-1493D01*
X40699Y-1755D01*
X40775Y-2018D01*
X40845Y-2283D01*
X40908Y-2550D01*
X40965Y-2819D01*
X41015Y-3089D01*
X41059Y-3360D01*
X41096Y-3631D01*
X41126Y-3904D01*
X41150Y-4178D01*
X41167Y-4451D01*
X41177Y-4726D01*
X41180Y-5000D01*
X41177Y-5274D01*
X41167Y-5549D01*
X41150Y-5822D01*
X41126Y-6096D01*
X41096Y-6369D01*
X41059Y-6640D01*
X41015Y-6911D01*
X40965Y-7181D01*
X40908Y-7450D01*
X40845Y-7717D01*
X40775Y-7982D01*
X40699Y-8245D01*
X40616Y-8507D01*
X40526Y-8766D01*
X40431Y-9024D01*
X40329Y-9278D01*
X40221Y-9531D01*
X40107Y-9780D01*
X39986Y-10027D01*
X39860Y-10270D01*
X39728Y-10511D01*
X39589Y-10748D01*
X39445Y-10981D01*
X39296Y-11211D01*
X39141Y-11438D01*
X38980Y-11660D01*
X38814Y-11878D01*
X38642Y-12093D01*
X38466Y-12302D01*
X38284Y-12508D01*
X38097Y-12709D01*
X37905Y-12905D01*
X37709Y-13097D01*
X37508Y-13284D01*
X37302Y-13466D01*
X37093Y-13642D01*
X36878Y-13814D01*
X36660Y-13980D01*
X36438Y-14141D01*
X36211Y-14296D01*
X35981Y-14445D01*
X35748Y-14589D01*
X35511Y-14728D01*
X35270Y-14860D01*
X35027Y-14986D01*
X34780Y-15107D01*
X34531Y-15221D01*
X34278Y-15329D01*
X34024Y-15431D01*
X33766Y-15526D01*
X33507Y-15616D01*
X33245Y-15699D01*
X32982Y-15775D01*
X32717Y-15845D01*
X32450Y-15908D01*
X32181Y-15965D01*
X31911Y-16015D01*
X31640Y-16059D01*
X31369Y-16096D01*
X31096Y-16126D01*
X30822Y-16150D01*
X30549Y-16167D01*
X30274Y-16177D01*
X30000Y-16180D01*
X29726Y-16177D01*
X29451Y-16167D01*
X29178Y-16150D01*
X28904Y-16126D01*
X28631Y-16096D01*
X28360Y-16059D01*
X28089Y-16015D01*
X27819Y-15965D01*
X27550Y-15908D01*
X27283Y-15845D01*
X27018Y-15775D01*
X26755Y-15699D01*
X26493Y-15616D01*
X26234Y-15526D01*
X25976Y-15431D01*
X25722Y-15329D01*
X25469Y-15221D01*
X25220Y-15107D01*
X24973Y-14986D01*
X24730Y-14860D01*
X24489Y-14728D01*
X24252Y-14589D01*
X24019Y-14445D01*
X23789Y-14296D01*
X23562Y-14141D01*
X23340Y-13980D01*
X23122Y-13814D01*
X22907Y-13642D01*
X22698Y-13466D01*
X22492Y-13284D01*
X22291Y-13097D01*
X22095Y-12905D01*
X21903Y-12709D01*
X21716Y-12508D01*
X21534Y-12302D01*
X21358Y-12093D01*
X21186Y-11878D01*
X21020Y-11660D01*
X20859Y-11438D01*
X20704Y-11211D01*
X20555Y-10981D01*
X20411Y-10748D01*
X20272Y-10511D01*
X20140Y-10270D01*
X20014Y-10027D01*
X19893Y-9780D01*
X19779Y-9531D01*
X19671Y-9278D01*
X19569Y-9024D01*
X19474Y-8766D01*
X19384Y-8507D01*
X19301Y-8245D01*
X19225Y-7982D01*
X19155Y-7717D01*
X19092Y-7450D01*
X19035Y-7181D01*
X18985Y-6911D01*
X18941Y-6640D01*
X18904Y-6369D01*
X18874Y-6096D01*
X18850Y-5822D01*
X18833Y-5549D01*
X18823Y-5274D01*
X18820Y-5000D01*
X15000Y-5000D02*
X15005Y-4632D01*
X15018Y-4264D01*
X15041Y-3897D01*
X15072Y-3530D01*
X15113Y-3164D01*
X15162Y-2799D01*
X15221Y-2436D01*
X15288Y-2074D01*
X15364Y-1713D01*
X15450Y-1355D01*
X15543Y-999D01*
X15646Y-646D01*
X15757Y-295D01*
X15877Y53D01*
X16005Y398D01*
X16142Y740D01*
X16287Y1079D01*
X16440Y1413D01*
X16602Y1744D01*
X16771Y2071D01*
X16949Y2393D01*
X17134Y2712D01*
X17327Y3025D01*
X17528Y3334D01*
X17736Y3637D01*
X17952Y3935D01*
X18175Y4228D01*
X18405Y4516D01*
X18642Y4798D01*
X18886Y5073D01*
X19136Y5343D01*
X19393Y5607D01*
X19657Y5864D01*
X19927Y6114D01*
X20202Y6358D01*
X20484Y6595D01*
X20772Y6825D01*
X21065Y7048D01*
X21363Y7264D01*
X21666Y7472D01*
X21975Y7673D01*
X22288Y7866D01*
X22607Y8051D01*
X22929Y8229D01*
X23256Y8398D01*
X23587Y8560D01*
X23921Y8713D01*
X24260Y8858D01*
X24602Y8995D01*
X24947Y9123D01*
X25295Y9243D01*
X25646Y9354D01*
X25999Y9457D01*
X26355Y9550D01*
X26713Y9636D01*
X27074Y9712D01*
X27436Y9779D01*
X27799Y9838D01*
X28164Y9887D01*
X28530Y9928D01*
X28897Y9959D01*
X29264Y9982D01*
X29632Y9995D01*
X30000Y10000D01*
X30368Y9995D01*
X30736Y9982D01*
X31103Y9959D01*
X31470Y9928D01*
X31836Y9887D01*
X32201Y9838D01*
X32564Y9779D01*
X32926Y9712D01*
X33287Y9636D01*
X33645Y9550D01*
X34001Y9457D01*
X34354Y9354D01*
X34705Y9243D01*
X35053Y9123D01*
X35398Y8995D01*
X35740Y8858D01*
X36079Y8713D01*
X36413Y8560D01*
X36744Y8398D01*
X37071Y8229D01*
X37393Y8051D01*
X37712Y7866D01*
X38025Y7673D01*
X38334Y7472D01*
X38637Y7264D01*
X38935Y7048D01*
X39228Y6825D01*
X39516Y6595D01*
X39798Y6358D01*
X40073Y6114D01*
X40343Y5864D01*
X40607Y5607D01*
X40864Y5343D01*
X41114Y5073D01*
X41358Y4798D01*
X41595Y4516D01*
X41825Y4228D01*
X42048Y3935D01*
X42264Y3637D01*
X42472Y3334D01*
X42673Y3025D01*
X42866Y2712D01*
X43051Y2393D01*
X43229Y2071D01*
X43398Y1744D01*
X43560Y1413D01*
X43713Y1079D01*
X43858Y740D01*
X43995Y398D01*
X44123Y53D01*
X44243Y-295D01*
X44354Y-646D01*
X44457Y-999D01*
X44550Y-1355D01*
X44636Y-1713D01*
X44712Y-2074D01*
X44779Y-2436D01*
X44838Y-2799D01*
X44887Y-3164D01*
X44928Y-3530D01*
X44959Y-3897D01*
X44982Y-4264D01*
X44995Y-4632D01*
X45000Y-5000D01*
X44995Y-5368D01*
X44982Y-5736D01*
X44959Y-6103D01*
X44928Y-6470D01*
X44887Y-6836D01*
X44838Y-7201D01*
X44779Y-7564D01*
X44712Y-7926D01*
X44636Y-8287D01*
X44550Y-8645D01*
X44457Y-9001D01*
X44354Y-9354D01*
X44243Y-9705D01*
X44123Y-10053D01*
X43995Y-10398D01*
X43858Y-10740D01*
X43713Y-11079D01*
X43560Y-11413D01*
X43398Y-11744D01*
X43229Y-12071D01*
X43051Y-12393D01*
X42866Y-12712D01*
X42673Y-13025D01*
X42472Y-13334D01*
X42264Y-13637D01*
X42048Y-13935D01*
X41825Y-14228D01*
X41595Y-14516D01*
X41358Y-14798D01*
X41114Y-15073D01*
X40864Y-15343D01*
X40607Y-15607D01*
X40343Y-15864D01*
X40073Y-16114D01*
X39798Y-16358D01*
X39516Y-16595D01*
X39228Y-16825D01*
X38935Y-17048D01*
X38637Y-17264D01*
X38334Y-17472D01*
X38025Y-17673D01*
X37712Y-17866D01*
X37393Y-18051D01*
X37071Y-18229D01*
X36744Y-18398D01*
X36413Y-18560D01*
X36079Y-18713D01*
X35740Y-18858D01*
X35398Y-18995D01*
X35053Y-19123D01*
X34705Y-19243D01*
X34354Y-19354D01*
X34001Y-19457D01*
X33645Y-19550D01*
X33287Y-19636D01*
X32926Y-19712D01*
X32564Y-19779D01*
X32201Y-19838D01*
X31836Y-19887D01*
X31470Y-19928D01*
X31103Y-19959D01*
X30736Y-19982D01*
X30368Y-19995D01*
X30000Y-20000D01*
X29632Y-19995D01*
X29264Y-19982D01*
X28897Y-19959D01*
X28530Y-19928D01*
X28164Y-19887D01*
X27799Y-19838D01*
X27436Y-19779D01*
X27074Y-19712D01*
X26713Y-19636D01*
X26355Y-19550D01*
X25999Y-19457D01*
X25646Y-19354D01*
X25295Y-19243D01*
X24947Y-19123D01*
X24602Y-18995D01*
X24260Y-18858D01*
X23921Y-18713D01*
X23587Y-18560D01*
X23256Y-18398D01*
X22929Y-18229D01*
X22607Y-18051D01*
X22288Y-17866D01*
X21975Y-17673D01*
X21666Y-17472D01*
X21363Y-17264D01*
X21065Y-17048D01*
X20772Y-16825D01*
X20484Y-16595D01*
X20202Y-16358D01*
X19927Y-16114D01*
X19657Y-15864D01*
X19393Y-15607D01*
X19136Y-15343D01*
X18886Y-15073D01*
X18642Y-14798D01*
X18405Y-14516D01*
X18175Y-14228D01*
X17952Y-13935D01*
X17736Y-13637D01*
X17528Y-13334D01*
X17327Y-13025D01*
X17134Y-12712D01*
X16949Y-12393D01*
X16771Y-12071D01*
X16602Y-11744D01*
X16440Y-11413D01*
X16287Y-11079D01*
X16142Y-10740D01*
X16005Y-10398D01*
X15877Y-10053D01*
X15757Y-9705D01*
X15646Y-9354D01*
X15543Y-9001D01*
X15450Y-8645D01*
X15364Y-8287D01*
X15288Y-7926D01*
X15221Y-7564D01*
X15162Y-7201D01*
X15113Y-6836D01*
X15072Y-6470D01*
X15041Y-6103D01*
X15018Y-5736D01*
X15005Y-5368D01*
X15000Y-5000D01*
D17*
X10000Y-5000D02*
X10006Y-4509D01*
X10024Y-4019D01*
X10054Y-3529D01*
X10096Y-3040D01*
X10150Y-2552D01*
X10216Y-2065D01*
X10294Y-1581D01*
X10384Y-1098D01*
X10486Y-618D01*
X10599Y-140D01*
X10724Y334D01*
X10861Y806D01*
X11009Y1274D01*
X11169Y1738D01*
X11340Y2198D01*
X11522Y2654D01*
X11716Y3105D01*
X11920Y3551D01*
X12136Y3992D01*
X12362Y4428D01*
X12598Y4858D01*
X12845Y5282D01*
X13103Y5700D01*
X13371Y6111D01*
X13648Y6516D01*
X13936Y6914D01*
X14233Y7305D01*
X14540Y7688D01*
X14856Y8063D01*
X15181Y8431D01*
X15515Y8791D01*
X15858Y9142D01*
X16209Y9485D01*
X16569Y9819D01*
X16937Y10144D01*
X17312Y10460D01*
X17695Y10767D01*
X18086Y11064D01*
X18484Y11352D01*
X18889Y11629D01*
X19300Y11897D01*
X19718Y12155D01*
X20142Y12402D01*
X20572Y12638D01*
X21008Y12864D01*
X21449Y13080D01*
X21895Y13284D01*
X22346Y13478D01*
X22802Y13660D01*
X23262Y13831D01*
X23726Y13991D01*
X24194Y14139D01*
X24666Y14276D01*
X25140Y14401D01*
X25618Y14514D01*
X26098Y14616D01*
X26581Y14706D01*
X27065Y14784D01*
X27552Y14850D01*
X28040Y14904D01*
X28529Y14946D01*
X29019Y14976D01*
X29509Y14994D01*
X30000Y15000D01*
X30491Y14994D01*
X30981Y14976D01*
X31471Y14946D01*
X31960Y14904D01*
X32448Y14850D01*
X32935Y14784D01*
X33419Y14706D01*
X33902Y14616D01*
X34382Y14514D01*
X34860Y14401D01*
X35334Y14276D01*
X35806Y14139D01*
X36274Y13991D01*
X36738Y13831D01*
X37198Y13660D01*
X37654Y13478D01*
X38105Y13284D01*
X38551Y13080D01*
X38992Y12864D01*
X39428Y12638D01*
X39858Y12402D01*
X40282Y12155D01*
X40700Y11897D01*
X41111Y11629D01*
X41516Y11352D01*
X41914Y11064D01*
X42305Y10767D01*
X42688Y10460D01*
X43063Y10144D01*
X43431Y9819D01*
X43791Y9485D01*
X44142Y9142D01*
X44485Y8791D01*
X44819Y8431D01*
X45144Y8063D01*
X45460Y7688D01*
X45767Y7305D01*
X46064Y6914D01*
X46352Y6516D01*
X46629Y6111D01*
X46897Y5700D01*
X47155Y5282D01*
X47402Y4858D01*
X47638Y4428D01*
X47864Y3992D01*
X48080Y3551D01*
X48284Y3105D01*
X48478Y2654D01*
X48660Y2198D01*
X48831Y1738D01*
X48991Y1274D01*
X49139Y806D01*
X49276Y334D01*
X49401Y-140D01*
X49514Y-618D01*
X49616Y-1098D01*
X49706Y-1581D01*
X49784Y-2065D01*
X49850Y-2552D01*
X49904Y-3040D01*
X49946Y-3529D01*
X49976Y-4019D01*
X49994Y-4509D01*
X50000Y-5000D01*
X49994Y-5491D01*
X49976Y-5981D01*
X49946Y-6471D01*
X49904Y-6960D01*
X49850Y-7448D01*
X49784Y-7935D01*
X49706Y-8419D01*
X49616Y-8902D01*
X49514Y-9382D01*
X49401Y-9860D01*
X49276Y-10334D01*
X49139Y-10806D01*
X48991Y-11274D01*
X48831Y-11738D01*
X48660Y-12198D01*
X48478Y-12654D01*
X48284Y-13105D01*
X48080Y-13551D01*
X47864Y-13992D01*
X47638Y-14428D01*
X47402Y-14858D01*
X47155Y-15282D01*
X46897Y-15700D01*
X46629Y-16111D01*
X46352Y-16516D01*
X46064Y-16914D01*
X45767Y-17305D01*
X45460Y-17688D01*
X45144Y-18063D01*
X44819Y-18431D01*
X44485Y-18791D01*
X44142Y-19142D01*
X43791Y-19485D01*
X43431Y-19819D01*
X43063Y-20144D01*
X42688Y-20460D01*
X42305Y-20767D01*
X41914Y-21064D01*
X41516Y-21352D01*
X41111Y-21629D01*
X40700Y-21897D01*
X40282Y-22155D01*
X39858Y-22402D01*
X39428Y-22638D01*
X38992Y-22864D01*
X38551Y-23080D01*
X38105Y-23284D01*
X37654Y-23478D01*
X37198Y-23660D01*
X36738Y-23831D01*
X36274Y-23991D01*
X35806Y-24139D01*
X35334Y-24276D01*
X34860Y-24401D01*
X34382Y-24514D01*
X33902Y-24616D01*
X33419Y-24706D01*
X32935Y-24784D01*
X32448Y-24850D01*
X31960Y-24904D01*
X31471Y-24946D01*
X30981Y-24976D01*
X30491Y-24994D01*
X30000Y-25000D01*
X29509Y-24994D01*
X29019Y-24976D01*
X28529Y-24946D01*
X28040Y-24904D01*
X27552Y-24850D01*
X27065Y-24784D01*
X26581Y-24706D01*
X26098Y-24616D01*
X25618Y-24514D01*
X25140Y-24401D01*
X24666Y-24276D01*
X24194Y-24139D01*
X23726Y-23991D01*
X23262Y-23831D01*
X22802Y-23660D01*
X22346Y-23478D01*
X21895Y-23284D01*
X21449Y-23080D01*
X21008Y-22864D01*
X20572Y-22638D01*
X20142Y-22402D01*
X19718Y-22155D01*
X19300Y-21897D01*
X18889Y-21629D01*
X18484Y-21352D01*
X18086Y-21064D01*
X17695Y-20767D01*
X17312Y-20460D01*
X16937Y-20144D01*
X16569Y-19819D01*
X16209Y-19485D01*
X15858Y-19142D01*
X15515Y-18791D01*
X15181Y-18431D01*
X14856Y-18063D01*
X14540Y-17688D01*
X14233Y-17305D01*
X13936Y-16914D01*
X13648Y-16516D01*
X13371Y-16111D01*
X13103Y-15700D01*
X12845Y-15282D01*
X12598Y-14858D01*
X12362Y-14428D01*
X12136Y-13992D01*
X11920Y-13551D01*
X11716Y-13105D01*
X11522Y-12654D01*
X11340Y-12198D01*
X11169Y-11738D01*
X11009Y-11274D01*
X10861Y-10806D01*
X10724Y-10334D01*
X10599Y-9860D01*
X10486Y-9382D01*
X10384Y-8902D01*
X10294Y-8419D01*
X10216Y-7935D01*
X10150Y-7448D01*
X10096Y-6960D01*
X10054Y-6471D01*
X10024Y-5981D01*
X10006Y-5491D01*
X10000Y-5000D01*
D18*
X-40000Y108000D03*
D19*
X-18000Y164500D03*
X-82000Y164500D03*
D20*
X-60000Y108000D03*
D18*
X60000Y108000D03*
D19*
X82000Y164500D03*
X18000Y164500D03*
D20*
X40000Y108000D03*
D21*
X-37250Y44600D02*
X-41850Y44600D01*
X-37250Y44600D02*
X-37250Y35400D01*
X-41850Y35400D01*
X-41850Y44600D01*
X-41850Y39770D02*
X-37250Y39770D01*
X-37250Y44140D02*
X-41850Y44140D01*
X-22750Y35400D02*
X-18150Y35400D01*
X-22750Y35400D02*
X-22750Y44600D01*
X-18150Y44600D01*
X-18150Y35400D01*
X-18150Y39770D02*
X-22750Y39770D01*
X-22750Y44140D02*
X-18150Y44140D01*
X-37250Y64600D02*
X-41850Y64600D01*
X-37250Y64600D02*
X-37250Y55400D01*
X-41850Y55400D01*
X-41850Y64600D01*
X-41850Y59770D02*
X-37250Y59770D01*
X-37250Y64140D02*
X-41850Y64140D01*
X-22750Y55400D02*
X-18150Y55400D01*
X-22750Y55400D02*
X-22750Y64600D01*
X-18150Y64600D01*
X-18150Y55400D01*
X-18150Y59770D02*
X-22750Y59770D01*
X-22750Y64140D02*
X-18150Y64140D01*
X37250Y35400D02*
X41850Y35400D01*
X37250Y35400D02*
X37250Y44600D01*
X41850Y44600D01*
X41850Y35400D01*
X41850Y39770D02*
X37250Y39770D01*
X37250Y44140D02*
X41850Y44140D01*
X22750Y44600D02*
X18150Y44600D01*
X22750Y44600D02*
X22750Y35400D01*
X18150Y35400D01*
X18150Y44600D01*
X18150Y39770D02*
X22750Y39770D01*
X22750Y44140D02*
X18150Y44140D01*
X37250Y55400D02*
X41850Y55400D01*
X37250Y55400D02*
X37250Y64600D01*
X41850Y64600D01*
X41850Y55400D01*
X41850Y59770D02*
X37250Y59770D01*
X37250Y64140D02*
X41850Y64140D01*
X22750Y64600D02*
X18150Y64600D01*
X22750Y64600D02*
X22750Y55400D01*
X18150Y55400D01*
X18150Y64600D01*
X18150Y59770D02*
X22750Y59770D01*
X22750Y64140D02*
X18150Y64140D01*
X-37250Y-105400D02*
X-41850Y-105400D01*
X-37250Y-105400D02*
X-37250Y-114600D01*
X-41850Y-114600D01*
X-41850Y-105400D01*
X-41850Y-110230D02*
X-37250Y-110230D01*
X-37250Y-105860D02*
X-41850Y-105860D01*
X-22750Y-114600D02*
X-18150Y-114600D01*
X-22750Y-114600D02*
X-22750Y-105400D01*
X-18150Y-105400D01*
X-18150Y-114600D01*
X-18150Y-110230D02*
X-22750Y-110230D01*
X-22750Y-105860D02*
X-18150Y-105860D01*
X37250Y-114600D02*
X41850Y-114600D01*
X37250Y-114600D02*
X37250Y-105400D01*
X41850Y-105400D01*
X41850Y-114600D01*
X41850Y-110230D02*
X37250Y-110230D01*
X37250Y-105860D02*
X41850Y-105860D01*
X22750Y-105400D02*
X18150Y-105400D01*
X22750Y-105400D02*
X22750Y-114600D01*
X18150Y-114600D01*
X18150Y-105400D01*
X18150Y-110230D02*
X22750Y-110230D01*
X22750Y-105860D02*
X18150Y-105860D01*
D22*
X-70000Y-16999D02*
X-70000Y2540D01*
X70000Y-16999D02*
X70000Y-30000D01*
X82500Y-30000D01*
X90000Y-22500D01*
X90000Y2540D01*
X90000Y-55000D02*
X80000Y-65000D01*
X90000Y-55000D02*
X90000Y-30000D01*
X82500Y-30000D01*
X80000Y-65000D02*
X78950Y-65000D01*
X20450Y-110000D02*
X-20450Y-110000D01*
X-60000Y-95000D02*
X-60000Y-65000D01*
X-60000Y-95000D02*
X-35000Y-95000D01*
X-22500Y-107500D01*
X-20000Y-107500D01*
X-60000Y-65000D02*
X-61050Y-65000D01*
X-20000Y-107500D02*
X-20450Y-110000D01*
X20000Y-112500D02*
X50000Y-142500D01*
X50000Y-192500D01*
X58500Y-192500D01*
X20000Y-112500D02*
X20450Y-110000D01*
X82000Y164500D02*
X82500Y165000D01*
X82635Y163865D01*
X78950Y-103950D02*
X85000Y-110000D01*
X78950Y-103950D02*
X78950Y-65000D01*
D17*
X-60000Y-15000D02*
X-60000Y2500D01*
X-52500Y10000D01*
X-52500Y27500D01*
X-32500Y27500D01*
X-20000Y40000D01*
X-60000Y-15000D02*
X-60500Y-16999D01*
X-20000Y40000D02*
X-20000Y60000D01*
X-20450Y60000D01*
X-20450Y40000D02*
X-20000Y40000D01*
X-62500Y-45000D02*
X-62500Y-55000D01*
X-65000Y-55000D01*
X-70000Y-60000D01*
X-70000Y-110000D01*
X-39550Y-110000D01*
X-62500Y-45000D02*
X-60500Y-43001D01*
X-60000Y62500D02*
X-42500Y62500D01*
X-40000Y60000D01*
X-60000Y62500D02*
X-60750Y62250D01*
X-40000Y60000D02*
X-39550Y60000D01*
X-70000Y47500D02*
X-70000Y37500D01*
X-42500Y37500D01*
X-40000Y40000D01*
X-69250Y47750D02*
X-70000Y47500D01*
X-40000Y40000D02*
X-39550Y40000D01*
D22*
X-80000Y7500D02*
X-80000Y-5000D01*
X-80000Y-15000D01*
X-80000Y7500D02*
X-82500Y10000D01*
X-82500Y15000D01*
X-80000Y-15000D02*
X-79500Y-16999D01*
X-82500Y15000D02*
X-83950Y15000D01*
X-85000Y75000D02*
X-72500Y87500D01*
X-72500Y102500D01*
X-65000Y102500D01*
X-60000Y107500D01*
X-60000Y108000D01*
X-80000Y-5000D02*
X-82500Y-5000D01*
D23*
X-82500Y-5000D03*
D17*
X80000Y0D02*
X80000Y-15000D01*
X80000Y0D02*
X62500Y0D01*
X22500Y40000D01*
X80000Y-15000D02*
X79500Y-16999D01*
X22500Y40000D02*
X20450Y40000D01*
X20000Y40000D02*
X20000Y60000D01*
X20450Y60000D01*
X20450Y40000D02*
X20000Y40000D01*
X77500Y-45000D02*
X77500Y-55000D01*
X75000Y-55000D01*
X70000Y-60000D01*
X70000Y-110000D01*
X39550Y-110000D01*
X77500Y-45000D02*
X79500Y-43001D01*
X70000Y62500D02*
X70000Y72500D01*
X52500Y72500D01*
X40000Y60000D01*
X69250Y62250D02*
X70000Y62500D01*
X40000Y60000D02*
X39550Y60000D01*
X52500Y47500D02*
X60000Y47500D01*
X52500Y47500D02*
X45000Y40000D01*
X39550Y40000D01*
X60000Y47500D02*
X60750Y47750D01*
D22*
X60000Y-5000D02*
X60000Y-15000D01*
X60500Y-16999D01*
X55000Y15000D02*
X66050Y15000D01*
X40000Y107500D02*
X30000Y107500D01*
X40000Y107500D02*
X40000Y108000D01*
D23*
X60000Y-5000D03*
X55000Y15000D03*
X30000Y107500D03*
D22*
X-70000Y62500D02*
X-77500Y62500D01*
X-70000Y62500D02*
X-69250Y62250D01*
X52500Y62500D02*
X60000Y62500D01*
X60750Y62250D01*
D23*
X-77500Y62500D03*
X52500Y62500D03*
M02*
