G04 EAGLE Gerber RS-274X export*
G75*
%MOMM*%
%FSLAX34Y34*%
%LPD*%
%INSilk screen CMP*%
%IPPOS*%
%AMOC8*
5,1,8,0,0,1.08239X$1,22.5*%
G01*
%ADD10C,0.010000*%
%ADD11C,0.076200*%
%ADD12C,0.120000*%
%ADD13C,0.127000*%
%ADD14C,0.200000*%
%ADD15C,0.203200*%
%ADD16C,0.000000*%
%ADD17C,0.500000*%
%ADD18C,0.254000*%


D10*
X-100000Y215000D02*
X-100000Y-200000D01*
X-99994Y-200483D01*
X-99977Y-200966D01*
X-99947Y-201449D01*
X-99907Y-201930D01*
X-99854Y-202411D01*
X-99790Y-202890D01*
X-99715Y-203367D01*
X-99627Y-203843D01*
X-99529Y-204316D01*
X-99419Y-204786D01*
X-99298Y-205254D01*
X-99165Y-205719D01*
X-99021Y-206180D01*
X-98866Y-206638D01*
X-98700Y-207092D01*
X-98523Y-207542D01*
X-98336Y-207987D01*
X-98137Y-208428D01*
X-97929Y-208864D01*
X-97709Y-209294D01*
X-97479Y-209720D01*
X-97239Y-210139D01*
X-96989Y-210553D01*
X-96729Y-210960D01*
X-96460Y-211361D01*
X-96180Y-211756D01*
X-95892Y-212143D01*
X-95593Y-212524D01*
X-95286Y-212897D01*
X-94970Y-213262D01*
X-94645Y-213620D01*
X-94312Y-213970D01*
X-93970Y-214312D01*
X-93620Y-214645D01*
X-93262Y-214970D01*
X-92897Y-215286D01*
X-92524Y-215593D01*
X-92143Y-215892D01*
X-91756Y-216180D01*
X-91361Y-216460D01*
X-90960Y-216729D01*
X-90553Y-216989D01*
X-90139Y-217239D01*
X-89720Y-217479D01*
X-89294Y-217709D01*
X-88864Y-217929D01*
X-88428Y-218137D01*
X-87987Y-218336D01*
X-87542Y-218523D01*
X-87092Y-218700D01*
X-86638Y-218866D01*
X-86180Y-219021D01*
X-85719Y-219165D01*
X-85254Y-219298D01*
X-84786Y-219419D01*
X-84316Y-219529D01*
X-83843Y-219627D01*
X-83367Y-219715D01*
X-82890Y-219790D01*
X-82411Y-219854D01*
X-81930Y-219907D01*
X-81449Y-219947D01*
X-80966Y-219977D01*
X-80483Y-219994D01*
X-80000Y-220000D01*
X80000Y-220000D01*
X80483Y-219994D01*
X80966Y-219977D01*
X81449Y-219947D01*
X81930Y-219907D01*
X82411Y-219854D01*
X82890Y-219790D01*
X83367Y-219715D01*
X83843Y-219627D01*
X84316Y-219529D01*
X84786Y-219419D01*
X85254Y-219298D01*
X85719Y-219165D01*
X86180Y-219021D01*
X86638Y-218866D01*
X87092Y-218700D01*
X87542Y-218523D01*
X87987Y-218336D01*
X88428Y-218137D01*
X88864Y-217929D01*
X89294Y-217709D01*
X89720Y-217479D01*
X90139Y-217239D01*
X90553Y-216989D01*
X90960Y-216729D01*
X91361Y-216460D01*
X91756Y-216180D01*
X92143Y-215892D01*
X92524Y-215593D01*
X92897Y-215286D01*
X93262Y-214970D01*
X93620Y-214645D01*
X93970Y-214312D01*
X94312Y-213970D01*
X94645Y-213620D01*
X94970Y-213262D01*
X95286Y-212897D01*
X95593Y-212524D01*
X95892Y-212143D01*
X96180Y-211756D01*
X96460Y-211361D01*
X96729Y-210960D01*
X96989Y-210553D01*
X97239Y-210139D01*
X97479Y-209720D01*
X97709Y-209294D01*
X97929Y-208864D01*
X98137Y-208428D01*
X98336Y-207987D01*
X98523Y-207542D01*
X98700Y-207092D01*
X98866Y-206638D01*
X99021Y-206180D01*
X99165Y-205719D01*
X99298Y-205254D01*
X99419Y-204786D01*
X99529Y-204316D01*
X99627Y-203843D01*
X99715Y-203367D01*
X99790Y-202890D01*
X99854Y-202411D01*
X99907Y-201930D01*
X99947Y-201449D01*
X99977Y-200966D01*
X99994Y-200483D01*
X100000Y-200000D01*
X100000Y215000D01*
X99994Y215483D01*
X99977Y215966D01*
X99947Y216449D01*
X99907Y216930D01*
X99854Y217411D01*
X99790Y217890D01*
X99715Y218367D01*
X99627Y218843D01*
X99529Y219316D01*
X99419Y219786D01*
X99298Y220254D01*
X99165Y220719D01*
X99021Y221180D01*
X98866Y221638D01*
X98700Y222092D01*
X98523Y222542D01*
X98336Y222987D01*
X98137Y223428D01*
X97929Y223864D01*
X97709Y224294D01*
X97479Y224720D01*
X97239Y225139D01*
X96989Y225553D01*
X96729Y225960D01*
X96460Y226361D01*
X96180Y226756D01*
X95892Y227143D01*
X95593Y227524D01*
X95286Y227897D01*
X94970Y228262D01*
X94645Y228620D01*
X94312Y228970D01*
X93970Y229312D01*
X93620Y229645D01*
X93262Y229970D01*
X92897Y230286D01*
X92524Y230593D01*
X92143Y230892D01*
X91756Y231180D01*
X91361Y231460D01*
X90960Y231729D01*
X90553Y231989D01*
X90139Y232239D01*
X89720Y232479D01*
X89294Y232709D01*
X88864Y232929D01*
X88428Y233137D01*
X87987Y233336D01*
X87542Y233523D01*
X87092Y233700D01*
X86638Y233866D01*
X86180Y234021D01*
X85719Y234165D01*
X85254Y234298D01*
X84786Y234419D01*
X84316Y234529D01*
X83843Y234627D01*
X83367Y234715D01*
X82890Y234790D01*
X82411Y234854D01*
X81930Y234907D01*
X81449Y234947D01*
X80966Y234977D01*
X80483Y234994D01*
X80000Y235000D01*
X-80000Y235000D01*
X-80483Y234994D01*
X-80966Y234977D01*
X-81449Y234947D01*
X-81930Y234907D01*
X-82411Y234854D01*
X-82890Y234790D01*
X-83367Y234715D01*
X-83843Y234627D01*
X-84316Y234529D01*
X-84786Y234419D01*
X-85254Y234298D01*
X-85719Y234165D01*
X-86180Y234021D01*
X-86638Y233866D01*
X-87092Y233700D01*
X-87542Y233523D01*
X-87987Y233336D01*
X-88428Y233137D01*
X-88864Y232929D01*
X-89294Y232709D01*
X-89720Y232479D01*
X-90139Y232239D01*
X-90553Y231989D01*
X-90960Y231729D01*
X-91361Y231460D01*
X-91756Y231180D01*
X-92143Y230892D01*
X-92524Y230593D01*
X-92897Y230286D01*
X-93262Y229970D01*
X-93620Y229645D01*
X-93970Y229312D01*
X-94312Y228970D01*
X-94645Y228620D01*
X-94970Y228262D01*
X-95286Y227897D01*
X-95593Y227524D01*
X-95892Y227143D01*
X-96180Y226756D01*
X-96460Y226361D01*
X-96729Y225960D01*
X-96989Y225553D01*
X-97239Y225139D01*
X-97479Y224720D01*
X-97709Y224294D01*
X-97929Y223864D01*
X-98137Y223428D01*
X-98336Y222987D01*
X-98523Y222542D01*
X-98700Y222092D01*
X-98866Y221638D01*
X-99021Y221180D01*
X-99165Y220719D01*
X-99298Y220254D01*
X-99419Y219786D01*
X-99529Y219316D01*
X-99627Y218843D01*
X-99715Y218367D01*
X-99790Y217890D01*
X-99854Y217411D01*
X-99907Y216930D01*
X-99947Y216449D01*
X-99977Y215966D01*
X-99994Y215483D01*
X-100000Y215000D01*
D11*
X80881Y-139132D02*
X89119Y-136386D01*
X80881Y-133640D01*
X80881Y-129906D02*
X89119Y-129906D01*
X89119Y-128991D02*
X89119Y-130822D01*
X80881Y-130822D02*
X80881Y-128991D01*
X80881Y-125445D02*
X89119Y-125445D01*
X89119Y-120868D02*
X80881Y-125445D01*
X80881Y-120868D02*
X89119Y-120868D01*
X-85458Y-136352D02*
X-85458Y-137725D01*
X-85458Y-136352D02*
X-80881Y-136352D01*
X-80881Y-139098D01*
X-80883Y-139183D01*
X-80889Y-139267D01*
X-80899Y-139351D01*
X-80912Y-139434D01*
X-80930Y-139517D01*
X-80951Y-139599D01*
X-80976Y-139680D01*
X-81005Y-139759D01*
X-81037Y-139838D01*
X-81073Y-139914D01*
X-81112Y-139989D01*
X-81155Y-140062D01*
X-81201Y-140133D01*
X-81251Y-140201D01*
X-81303Y-140268D01*
X-81359Y-140332D01*
X-81417Y-140393D01*
X-81478Y-140451D01*
X-81542Y-140507D01*
X-81609Y-140559D01*
X-81677Y-140609D01*
X-81748Y-140655D01*
X-81821Y-140698D01*
X-81896Y-140737D01*
X-81972Y-140773D01*
X-82051Y-140805D01*
X-82130Y-140834D01*
X-82211Y-140859D01*
X-82293Y-140880D01*
X-82376Y-140898D01*
X-82459Y-140911D01*
X-82543Y-140921D01*
X-82627Y-140927D01*
X-82712Y-140929D01*
X-82712Y-140928D02*
X-87288Y-140928D01*
X-87288Y-140929D02*
X-87373Y-140927D01*
X-87457Y-140921D01*
X-87541Y-140911D01*
X-87624Y-140898D01*
X-87707Y-140880D01*
X-87789Y-140859D01*
X-87870Y-140834D01*
X-87949Y-140805D01*
X-88028Y-140773D01*
X-88104Y-140737D01*
X-88179Y-140698D01*
X-88252Y-140655D01*
X-88323Y-140609D01*
X-88391Y-140559D01*
X-88458Y-140507D01*
X-88522Y-140451D01*
X-88583Y-140393D01*
X-88641Y-140332D01*
X-88697Y-140268D01*
X-88749Y-140201D01*
X-88799Y-140133D01*
X-88845Y-140062D01*
X-88888Y-139989D01*
X-88927Y-139914D01*
X-88963Y-139838D01*
X-88995Y-139759D01*
X-89024Y-139680D01*
X-89049Y-139599D01*
X-89070Y-139517D01*
X-89088Y-139434D01*
X-89101Y-139351D01*
X-89111Y-139267D01*
X-89117Y-139183D01*
X-89119Y-139098D01*
X-89119Y-136352D01*
X-89119Y-132288D02*
X-80881Y-132288D01*
X-80881Y-127712D02*
X-89119Y-132288D01*
X-89119Y-127712D02*
X-80881Y-127712D01*
X-80881Y-123648D02*
X-89119Y-123648D01*
X-89119Y-121360D01*
X-89117Y-121265D01*
X-89111Y-121171D01*
X-89101Y-121077D01*
X-89088Y-120983D01*
X-89070Y-120890D01*
X-89049Y-120798D01*
X-89024Y-120707D01*
X-88995Y-120617D01*
X-88962Y-120528D01*
X-88926Y-120441D01*
X-88887Y-120355D01*
X-88843Y-120271D01*
X-88797Y-120189D01*
X-88746Y-120109D01*
X-88693Y-120031D01*
X-88637Y-119955D01*
X-88577Y-119881D01*
X-88514Y-119810D01*
X-88449Y-119742D01*
X-88381Y-119677D01*
X-88310Y-119614D01*
X-88236Y-119554D01*
X-88161Y-119498D01*
X-88082Y-119445D01*
X-88002Y-119394D01*
X-87920Y-119348D01*
X-87836Y-119304D01*
X-87750Y-119265D01*
X-87663Y-119229D01*
X-87574Y-119196D01*
X-87484Y-119167D01*
X-87393Y-119142D01*
X-87301Y-119121D01*
X-87208Y-119103D01*
X-87114Y-119090D01*
X-87020Y-119080D01*
X-86926Y-119074D01*
X-86831Y-119072D01*
X-83169Y-119072D01*
X-83074Y-119074D01*
X-82980Y-119080D01*
X-82886Y-119090D01*
X-82792Y-119103D01*
X-82699Y-119121D01*
X-82607Y-119142D01*
X-82516Y-119167D01*
X-82426Y-119196D01*
X-82337Y-119229D01*
X-82250Y-119265D01*
X-82164Y-119304D01*
X-82080Y-119348D01*
X-81998Y-119394D01*
X-81918Y-119445D01*
X-81839Y-119498D01*
X-81764Y-119554D01*
X-81690Y-119614D01*
X-81619Y-119677D01*
X-81551Y-119742D01*
X-81486Y-119810D01*
X-81423Y-119881D01*
X-81363Y-119955D01*
X-81307Y-120031D01*
X-81254Y-120109D01*
X-81203Y-120189D01*
X-81157Y-120271D01*
X-81113Y-120355D01*
X-81074Y-120441D01*
X-81038Y-120528D01*
X-81005Y-120617D01*
X-80976Y-120707D01*
X-80951Y-120798D01*
X-80930Y-120890D01*
X-80912Y-120983D01*
X-80899Y-121077D01*
X-80889Y-121171D01*
X-80883Y-121265D01*
X-80881Y-121360D01*
X-80881Y-123648D01*
X-55972Y-130381D02*
X-55972Y-139619D01*
X-55972Y-130381D02*
X-53406Y-130381D01*
X-53308Y-130383D01*
X-53210Y-130389D01*
X-53112Y-130398D01*
X-53014Y-130411D01*
X-52917Y-130428D01*
X-52821Y-130448D01*
X-52726Y-130473D01*
X-52632Y-130501D01*
X-52539Y-130532D01*
X-52447Y-130567D01*
X-52356Y-130606D01*
X-52267Y-130647D01*
X-52180Y-130693D01*
X-52095Y-130741D01*
X-52011Y-130793D01*
X-51930Y-130848D01*
X-51850Y-130906D01*
X-51773Y-130967D01*
X-51699Y-131031D01*
X-51627Y-131098D01*
X-51557Y-131168D01*
X-51490Y-131240D01*
X-51426Y-131314D01*
X-51365Y-131391D01*
X-51307Y-131471D01*
X-51252Y-131552D01*
X-51200Y-131636D01*
X-51152Y-131721D01*
X-51106Y-131808D01*
X-51065Y-131897D01*
X-51026Y-131988D01*
X-50991Y-132080D01*
X-50960Y-132173D01*
X-50932Y-132267D01*
X-50907Y-132362D01*
X-50887Y-132458D01*
X-50870Y-132555D01*
X-50857Y-132653D01*
X-50848Y-132751D01*
X-50842Y-132849D01*
X-50840Y-132947D01*
X-50839Y-132947D02*
X-50839Y-137053D01*
X-50840Y-137053D02*
X-50842Y-137151D01*
X-50848Y-137249D01*
X-50857Y-137347D01*
X-50870Y-137445D01*
X-50887Y-137542D01*
X-50907Y-137638D01*
X-50932Y-137733D01*
X-50960Y-137827D01*
X-50991Y-137920D01*
X-51026Y-138012D01*
X-51065Y-138103D01*
X-51106Y-138192D01*
X-51152Y-138279D01*
X-51200Y-138364D01*
X-51252Y-138448D01*
X-51307Y-138529D01*
X-51365Y-138609D01*
X-51426Y-138686D01*
X-51490Y-138760D01*
X-51557Y-138832D01*
X-51627Y-138902D01*
X-51699Y-138969D01*
X-51773Y-139033D01*
X-51850Y-139094D01*
X-51930Y-139152D01*
X-52011Y-139207D01*
X-52095Y-139259D01*
X-52180Y-139307D01*
X-52267Y-139353D01*
X-52356Y-139394D01*
X-52447Y-139433D01*
X-52539Y-139468D01*
X-52632Y-139499D01*
X-52726Y-139527D01*
X-52821Y-139552D01*
X-52917Y-139572D01*
X-53014Y-139589D01*
X-53112Y-139602D01*
X-53210Y-139611D01*
X-53308Y-139617D01*
X-53406Y-139619D01*
X-55972Y-139619D01*
X-46458Y-138079D02*
X-46458Y-133460D01*
X-46459Y-138079D02*
X-46457Y-138155D01*
X-46452Y-138230D01*
X-46442Y-138305D01*
X-46429Y-138379D01*
X-46413Y-138453D01*
X-46393Y-138526D01*
X-46369Y-138598D01*
X-46342Y-138668D01*
X-46311Y-138737D01*
X-46277Y-138805D01*
X-46240Y-138871D01*
X-46199Y-138935D01*
X-46156Y-138996D01*
X-46109Y-139056D01*
X-46060Y-139113D01*
X-46008Y-139168D01*
X-45953Y-139220D01*
X-45896Y-139269D01*
X-45836Y-139316D01*
X-45775Y-139359D01*
X-45711Y-139400D01*
X-45645Y-139437D01*
X-45577Y-139471D01*
X-45508Y-139502D01*
X-45438Y-139529D01*
X-45366Y-139553D01*
X-45293Y-139573D01*
X-45219Y-139589D01*
X-45145Y-139602D01*
X-45070Y-139612D01*
X-44995Y-139617D01*
X-44919Y-139619D01*
X-42353Y-139619D01*
X-42353Y-133460D01*
X-38358Y-135513D02*
X-38358Y-137566D01*
X-38359Y-135513D02*
X-38357Y-135423D01*
X-38351Y-135334D01*
X-38341Y-135245D01*
X-38328Y-135157D01*
X-38310Y-135069D01*
X-38289Y-134982D01*
X-38264Y-134896D01*
X-38235Y-134811D01*
X-38203Y-134727D01*
X-38167Y-134645D01*
X-38127Y-134565D01*
X-38084Y-134487D01*
X-38037Y-134410D01*
X-37988Y-134335D01*
X-37935Y-134263D01*
X-37879Y-134193D01*
X-37820Y-134126D01*
X-37758Y-134061D01*
X-37693Y-133999D01*
X-37626Y-133940D01*
X-37556Y-133884D01*
X-37484Y-133831D01*
X-37409Y-133782D01*
X-37333Y-133735D01*
X-37254Y-133692D01*
X-37174Y-133652D01*
X-37092Y-133616D01*
X-37008Y-133584D01*
X-36923Y-133555D01*
X-36837Y-133530D01*
X-36750Y-133509D01*
X-36662Y-133491D01*
X-36574Y-133478D01*
X-36485Y-133468D01*
X-36396Y-133462D01*
X-36306Y-133460D01*
X-36216Y-133462D01*
X-36127Y-133468D01*
X-36038Y-133478D01*
X-35950Y-133491D01*
X-35862Y-133509D01*
X-35775Y-133530D01*
X-35689Y-133555D01*
X-35604Y-133584D01*
X-35520Y-133616D01*
X-35438Y-133652D01*
X-35358Y-133692D01*
X-35280Y-133735D01*
X-35203Y-133782D01*
X-35128Y-133831D01*
X-35056Y-133884D01*
X-34986Y-133940D01*
X-34919Y-133999D01*
X-34854Y-134061D01*
X-34792Y-134126D01*
X-34733Y-134193D01*
X-34677Y-134263D01*
X-34624Y-134335D01*
X-34575Y-134410D01*
X-34528Y-134487D01*
X-34485Y-134565D01*
X-34445Y-134645D01*
X-34409Y-134727D01*
X-34377Y-134811D01*
X-34348Y-134896D01*
X-34323Y-134982D01*
X-34302Y-135069D01*
X-34284Y-135157D01*
X-34271Y-135245D01*
X-34261Y-135334D01*
X-34255Y-135423D01*
X-34253Y-135513D01*
X-34253Y-137566D01*
X-34255Y-137656D01*
X-34261Y-137745D01*
X-34271Y-137834D01*
X-34284Y-137922D01*
X-34302Y-138010D01*
X-34323Y-138097D01*
X-34348Y-138183D01*
X-34377Y-138268D01*
X-34409Y-138352D01*
X-34445Y-138434D01*
X-34485Y-138514D01*
X-34528Y-138593D01*
X-34575Y-138669D01*
X-34624Y-138744D01*
X-34677Y-138816D01*
X-34733Y-138886D01*
X-34792Y-138953D01*
X-34854Y-139018D01*
X-34919Y-139080D01*
X-34986Y-139139D01*
X-35056Y-139195D01*
X-35128Y-139248D01*
X-35203Y-139297D01*
X-35280Y-139344D01*
X-35358Y-139387D01*
X-35438Y-139427D01*
X-35520Y-139463D01*
X-35604Y-139495D01*
X-35689Y-139524D01*
X-35775Y-139549D01*
X-35862Y-139570D01*
X-35950Y-139588D01*
X-36038Y-139601D01*
X-36127Y-139611D01*
X-36216Y-139617D01*
X-36306Y-139619D01*
X-36396Y-139617D01*
X-36485Y-139611D01*
X-36574Y-139601D01*
X-36662Y-139588D01*
X-36750Y-139570D01*
X-36837Y-139549D01*
X-36923Y-139524D01*
X-37008Y-139495D01*
X-37092Y-139463D01*
X-37174Y-139427D01*
X-37254Y-139387D01*
X-37333Y-139344D01*
X-37409Y-139297D01*
X-37484Y-139248D01*
X-37556Y-139195D01*
X-37626Y-139139D01*
X-37693Y-139080D01*
X-37758Y-139018D01*
X-37820Y-138953D01*
X-37879Y-138886D01*
X-37935Y-138816D01*
X-37988Y-138744D01*
X-38037Y-138669D01*
X-38084Y-138593D01*
X-38127Y-138514D01*
X-38167Y-138434D01*
X-38203Y-138352D01*
X-38235Y-138268D01*
X-38264Y-138183D01*
X-38289Y-138097D01*
X-38310Y-138010D01*
X-38328Y-137922D01*
X-38341Y-137834D01*
X-38351Y-137745D01*
X-38357Y-137656D01*
X-38359Y-137566D01*
X-25354Y-139619D02*
X-25354Y-130381D01*
X-25354Y-139619D02*
X-21249Y-139619D01*
X-18006Y-139619D02*
X-18006Y-133460D01*
X-18262Y-130894D02*
X-18262Y-130381D01*
X-17749Y-130381D01*
X-17749Y-130894D01*
X-18262Y-130894D01*
X-14013Y-133460D02*
X-14013Y-142698D01*
X-14013Y-133460D02*
X-11447Y-133460D01*
X-11371Y-133462D01*
X-11296Y-133467D01*
X-11221Y-133477D01*
X-11147Y-133490D01*
X-11073Y-133506D01*
X-11000Y-133526D01*
X-10928Y-133550D01*
X-10858Y-133577D01*
X-10789Y-133608D01*
X-10721Y-133642D01*
X-10655Y-133679D01*
X-10591Y-133720D01*
X-10530Y-133763D01*
X-10470Y-133810D01*
X-10413Y-133859D01*
X-10358Y-133911D01*
X-10306Y-133966D01*
X-10257Y-134023D01*
X-10210Y-134083D01*
X-10167Y-134144D01*
X-10126Y-134208D01*
X-10089Y-134274D01*
X-10055Y-134342D01*
X-10024Y-134411D01*
X-9997Y-134481D01*
X-9973Y-134553D01*
X-9953Y-134626D01*
X-9937Y-134700D01*
X-9924Y-134774D01*
X-9914Y-134849D01*
X-9909Y-134924D01*
X-9907Y-135000D01*
X-9908Y-135000D02*
X-9908Y-138079D01*
X-9907Y-138079D02*
X-9909Y-138155D01*
X-9914Y-138230D01*
X-9924Y-138305D01*
X-9937Y-138379D01*
X-9953Y-138453D01*
X-9973Y-138526D01*
X-9997Y-138598D01*
X-10024Y-138668D01*
X-10055Y-138737D01*
X-10089Y-138805D01*
X-10126Y-138871D01*
X-10167Y-138935D01*
X-10210Y-138996D01*
X-10257Y-139056D01*
X-10306Y-139113D01*
X-10358Y-139168D01*
X-10413Y-139220D01*
X-10470Y-139269D01*
X-10530Y-139316D01*
X-10591Y-139359D01*
X-10655Y-139400D01*
X-10721Y-139437D01*
X-10789Y-139471D01*
X-10858Y-139502D01*
X-10928Y-139529D01*
X-11000Y-139553D01*
X-11073Y-139573D01*
X-11147Y-139589D01*
X-11221Y-139602D01*
X-11296Y-139612D01*
X-11371Y-139617D01*
X-11447Y-139619D01*
X-14013Y-139619D01*
X-6259Y-137566D02*
X-6259Y-135513D01*
X-6257Y-135423D01*
X-6251Y-135334D01*
X-6241Y-135245D01*
X-6228Y-135157D01*
X-6210Y-135069D01*
X-6189Y-134982D01*
X-6164Y-134896D01*
X-6135Y-134811D01*
X-6103Y-134727D01*
X-6067Y-134645D01*
X-6027Y-134565D01*
X-5984Y-134487D01*
X-5937Y-134410D01*
X-5888Y-134335D01*
X-5835Y-134263D01*
X-5779Y-134193D01*
X-5720Y-134126D01*
X-5658Y-134061D01*
X-5593Y-133999D01*
X-5526Y-133940D01*
X-5456Y-133884D01*
X-5384Y-133831D01*
X-5309Y-133782D01*
X-5232Y-133735D01*
X-5154Y-133692D01*
X-5074Y-133652D01*
X-4992Y-133616D01*
X-4908Y-133584D01*
X-4823Y-133555D01*
X-4737Y-133530D01*
X-4650Y-133509D01*
X-4562Y-133491D01*
X-4474Y-133478D01*
X-4385Y-133468D01*
X-4296Y-133462D01*
X-4206Y-133460D01*
X-4116Y-133462D01*
X-4027Y-133468D01*
X-3938Y-133478D01*
X-3850Y-133491D01*
X-3762Y-133509D01*
X-3675Y-133530D01*
X-3589Y-133555D01*
X-3504Y-133584D01*
X-3420Y-133616D01*
X-3338Y-133652D01*
X-3258Y-133692D01*
X-3179Y-133735D01*
X-3103Y-133782D01*
X-3028Y-133831D01*
X-2956Y-133884D01*
X-2886Y-133940D01*
X-2819Y-133999D01*
X-2754Y-134061D01*
X-2692Y-134126D01*
X-2633Y-134193D01*
X-2577Y-134263D01*
X-2524Y-134335D01*
X-2475Y-134410D01*
X-2428Y-134487D01*
X-2385Y-134565D01*
X-2345Y-134645D01*
X-2309Y-134727D01*
X-2277Y-134811D01*
X-2248Y-134896D01*
X-2223Y-134982D01*
X-2202Y-135069D01*
X-2184Y-135157D01*
X-2171Y-135245D01*
X-2161Y-135334D01*
X-2155Y-135423D01*
X-2153Y-135513D01*
X-2153Y-137566D01*
X-2155Y-137656D01*
X-2161Y-137745D01*
X-2171Y-137834D01*
X-2184Y-137922D01*
X-2202Y-138010D01*
X-2223Y-138097D01*
X-2248Y-138183D01*
X-2277Y-138268D01*
X-2309Y-138352D01*
X-2345Y-138434D01*
X-2385Y-138514D01*
X-2428Y-138593D01*
X-2475Y-138669D01*
X-2524Y-138744D01*
X-2577Y-138816D01*
X-2633Y-138886D01*
X-2692Y-138953D01*
X-2754Y-139018D01*
X-2819Y-139080D01*
X-2886Y-139139D01*
X-2956Y-139195D01*
X-3028Y-139248D01*
X-3103Y-139297D01*
X-3180Y-139344D01*
X-3258Y-139387D01*
X-3338Y-139427D01*
X-3420Y-139463D01*
X-3504Y-139495D01*
X-3589Y-139524D01*
X-3675Y-139549D01*
X-3762Y-139570D01*
X-3850Y-139588D01*
X-3938Y-139601D01*
X-4027Y-139611D01*
X-4116Y-139617D01*
X-4206Y-139619D01*
X-4296Y-139617D01*
X-4385Y-139611D01*
X-4474Y-139601D01*
X-4562Y-139588D01*
X-4650Y-139570D01*
X-4737Y-139549D01*
X-4823Y-139524D01*
X-4908Y-139495D01*
X-4992Y-139463D01*
X-5074Y-139427D01*
X-5154Y-139387D01*
X-5233Y-139344D01*
X-5309Y-139297D01*
X-5384Y-139248D01*
X-5456Y-139195D01*
X-5526Y-139139D01*
X-5593Y-139080D01*
X-5658Y-139018D01*
X-5720Y-138953D01*
X-5779Y-138886D01*
X-5835Y-138816D01*
X-5888Y-138744D01*
X-5937Y-138669D01*
X-5984Y-138593D01*
X-6027Y-138514D01*
X-6067Y-138434D01*
X-6103Y-138352D01*
X-6135Y-138268D01*
X-6164Y-138183D01*
X-6189Y-138097D01*
X-6210Y-138010D01*
X-6228Y-137922D01*
X-6241Y-137834D01*
X-6251Y-137745D01*
X-6257Y-137656D01*
X-6259Y-137566D01*
X8456Y-139619D02*
X10508Y-139619D01*
X8456Y-139619D02*
X8366Y-139617D01*
X8277Y-139611D01*
X8188Y-139601D01*
X8100Y-139588D01*
X8012Y-139570D01*
X7925Y-139549D01*
X7839Y-139524D01*
X7754Y-139495D01*
X7670Y-139463D01*
X7588Y-139427D01*
X7508Y-139387D01*
X7429Y-139344D01*
X7353Y-139297D01*
X7278Y-139248D01*
X7206Y-139195D01*
X7136Y-139139D01*
X7069Y-139080D01*
X7004Y-139018D01*
X6942Y-138953D01*
X6883Y-138886D01*
X6827Y-138816D01*
X6774Y-138744D01*
X6725Y-138669D01*
X6678Y-138593D01*
X6635Y-138514D01*
X6595Y-138434D01*
X6559Y-138352D01*
X6527Y-138268D01*
X6498Y-138183D01*
X6473Y-138097D01*
X6452Y-138010D01*
X6434Y-137922D01*
X6421Y-137834D01*
X6411Y-137745D01*
X6405Y-137656D01*
X6403Y-137566D01*
X6403Y-132434D01*
X6405Y-132344D01*
X6411Y-132255D01*
X6421Y-132166D01*
X6434Y-132078D01*
X6452Y-131990D01*
X6473Y-131903D01*
X6498Y-131817D01*
X6527Y-131732D01*
X6559Y-131648D01*
X6595Y-131566D01*
X6635Y-131486D01*
X6678Y-131408D01*
X6725Y-131331D01*
X6774Y-131256D01*
X6827Y-131184D01*
X6883Y-131114D01*
X6942Y-131047D01*
X7004Y-130982D01*
X7069Y-130920D01*
X7136Y-130861D01*
X7206Y-130805D01*
X7278Y-130752D01*
X7353Y-130703D01*
X7429Y-130656D01*
X7508Y-130613D01*
X7588Y-130573D01*
X7670Y-130537D01*
X7754Y-130505D01*
X7839Y-130476D01*
X7925Y-130451D01*
X8012Y-130430D01*
X8099Y-130412D01*
X8188Y-130399D01*
X8277Y-130389D01*
X8366Y-130383D01*
X8456Y-130381D01*
X10508Y-130381D01*
X14141Y-130381D02*
X14141Y-139619D01*
X14141Y-133460D02*
X16708Y-133460D01*
X16784Y-133462D01*
X16859Y-133467D01*
X16934Y-133477D01*
X17008Y-133490D01*
X17082Y-133506D01*
X17155Y-133526D01*
X17227Y-133550D01*
X17297Y-133577D01*
X17366Y-133608D01*
X17434Y-133642D01*
X17500Y-133679D01*
X17564Y-133720D01*
X17625Y-133763D01*
X17685Y-133810D01*
X17742Y-133859D01*
X17797Y-133911D01*
X17849Y-133966D01*
X17898Y-134023D01*
X17945Y-134083D01*
X17988Y-134144D01*
X18029Y-134208D01*
X18066Y-134274D01*
X18100Y-134342D01*
X18131Y-134411D01*
X18158Y-134481D01*
X18182Y-134553D01*
X18202Y-134626D01*
X18218Y-134700D01*
X18231Y-134774D01*
X18241Y-134849D01*
X18246Y-134924D01*
X18248Y-135000D01*
X18247Y-135000D02*
X18247Y-139619D01*
X23992Y-136026D02*
X26302Y-136026D01*
X23992Y-136027D02*
X23909Y-136029D01*
X23826Y-136035D01*
X23744Y-136044D01*
X23662Y-136058D01*
X23581Y-136075D01*
X23501Y-136096D01*
X23421Y-136120D01*
X23343Y-136148D01*
X23267Y-136180D01*
X23191Y-136215D01*
X23118Y-136254D01*
X23047Y-136296D01*
X22977Y-136341D01*
X22910Y-136390D01*
X22845Y-136441D01*
X22782Y-136496D01*
X22722Y-136553D01*
X22665Y-136613D01*
X22610Y-136676D01*
X22559Y-136741D01*
X22510Y-136808D01*
X22465Y-136878D01*
X22423Y-136949D01*
X22384Y-137022D01*
X22349Y-137098D01*
X22317Y-137174D01*
X22289Y-137252D01*
X22265Y-137332D01*
X22244Y-137412D01*
X22227Y-137493D01*
X22213Y-137575D01*
X22204Y-137657D01*
X22198Y-137740D01*
X22196Y-137823D01*
X22198Y-137906D01*
X22204Y-137989D01*
X22213Y-138071D01*
X22227Y-138153D01*
X22244Y-138234D01*
X22265Y-138314D01*
X22289Y-138394D01*
X22317Y-138472D01*
X22349Y-138548D01*
X22384Y-138624D01*
X22423Y-138697D01*
X22465Y-138768D01*
X22510Y-138838D01*
X22559Y-138905D01*
X22610Y-138970D01*
X22665Y-139033D01*
X22722Y-139093D01*
X22782Y-139150D01*
X22845Y-139205D01*
X22910Y-139256D01*
X22977Y-139305D01*
X23047Y-139350D01*
X23118Y-139392D01*
X23191Y-139431D01*
X23267Y-139466D01*
X23343Y-139498D01*
X23421Y-139526D01*
X23501Y-139550D01*
X23581Y-139571D01*
X23662Y-139588D01*
X23744Y-139602D01*
X23826Y-139611D01*
X23909Y-139617D01*
X23992Y-139619D01*
X26302Y-139619D01*
X26302Y-135000D01*
X26300Y-134922D01*
X26294Y-134844D01*
X26284Y-134767D01*
X26270Y-134690D01*
X26253Y-134614D01*
X26231Y-134539D01*
X26206Y-134465D01*
X26177Y-134393D01*
X26145Y-134322D01*
X26108Y-134253D01*
X26069Y-134185D01*
X26026Y-134120D01*
X25980Y-134057D01*
X25930Y-133997D01*
X25878Y-133939D01*
X25823Y-133884D01*
X25765Y-133832D01*
X25705Y-133782D01*
X25642Y-133736D01*
X25577Y-133693D01*
X25509Y-133654D01*
X25440Y-133617D01*
X25369Y-133585D01*
X25297Y-133556D01*
X25223Y-133531D01*
X25148Y-133509D01*
X25072Y-133492D01*
X24995Y-133478D01*
X24918Y-133468D01*
X24840Y-133462D01*
X24762Y-133460D01*
X22709Y-133460D01*
X30692Y-133460D02*
X30692Y-139619D01*
X30692Y-133460D02*
X33772Y-133460D01*
X33772Y-134487D01*
X38136Y-139619D02*
X40702Y-139619D01*
X38136Y-139619D02*
X38058Y-139617D01*
X37980Y-139611D01*
X37903Y-139601D01*
X37826Y-139587D01*
X37750Y-139570D01*
X37675Y-139548D01*
X37601Y-139523D01*
X37529Y-139494D01*
X37458Y-139462D01*
X37389Y-139425D01*
X37321Y-139386D01*
X37256Y-139343D01*
X37193Y-139297D01*
X37133Y-139247D01*
X37075Y-139195D01*
X37020Y-139140D01*
X36968Y-139082D01*
X36918Y-139022D01*
X36872Y-138959D01*
X36829Y-138894D01*
X36790Y-138826D01*
X36753Y-138757D01*
X36721Y-138686D01*
X36692Y-138614D01*
X36667Y-138540D01*
X36645Y-138465D01*
X36628Y-138389D01*
X36614Y-138312D01*
X36604Y-138235D01*
X36598Y-138157D01*
X36596Y-138079D01*
X36596Y-135000D01*
X36598Y-134924D01*
X36603Y-134849D01*
X36613Y-134774D01*
X36626Y-134700D01*
X36642Y-134626D01*
X36662Y-134553D01*
X36686Y-134481D01*
X36713Y-134411D01*
X36744Y-134342D01*
X36778Y-134274D01*
X36815Y-134208D01*
X36856Y-134144D01*
X36899Y-134083D01*
X36946Y-134023D01*
X36995Y-133966D01*
X37047Y-133911D01*
X37102Y-133859D01*
X37159Y-133810D01*
X37219Y-133763D01*
X37280Y-133720D01*
X37344Y-133679D01*
X37410Y-133642D01*
X37478Y-133608D01*
X37547Y-133577D01*
X37617Y-133550D01*
X37689Y-133526D01*
X37762Y-133506D01*
X37836Y-133490D01*
X37910Y-133477D01*
X37985Y-133467D01*
X38060Y-133462D01*
X38136Y-133460D01*
X40702Y-133460D01*
X40702Y-141159D01*
X40700Y-141235D01*
X40695Y-141310D01*
X40685Y-141385D01*
X40672Y-141459D01*
X40656Y-141533D01*
X40636Y-141606D01*
X40612Y-141678D01*
X40585Y-141748D01*
X40554Y-141817D01*
X40520Y-141885D01*
X40483Y-141951D01*
X40442Y-142015D01*
X40399Y-142076D01*
X40352Y-142136D01*
X40303Y-142193D01*
X40251Y-142248D01*
X40196Y-142300D01*
X40139Y-142349D01*
X40079Y-142396D01*
X40018Y-142439D01*
X39954Y-142480D01*
X39888Y-142517D01*
X39820Y-142551D01*
X39751Y-142582D01*
X39681Y-142609D01*
X39609Y-142633D01*
X39536Y-142653D01*
X39462Y-142669D01*
X39388Y-142682D01*
X39313Y-142692D01*
X39238Y-142697D01*
X39162Y-142699D01*
X39162Y-142698D02*
X37109Y-142698D01*
X46281Y-139619D02*
X48847Y-139619D01*
X46281Y-139619D02*
X46203Y-139617D01*
X46125Y-139611D01*
X46048Y-139601D01*
X45971Y-139587D01*
X45895Y-139570D01*
X45820Y-139548D01*
X45746Y-139523D01*
X45674Y-139494D01*
X45603Y-139462D01*
X45534Y-139425D01*
X45466Y-139386D01*
X45401Y-139343D01*
X45338Y-139297D01*
X45278Y-139247D01*
X45220Y-139195D01*
X45165Y-139140D01*
X45113Y-139082D01*
X45063Y-139022D01*
X45017Y-138959D01*
X44974Y-138894D01*
X44935Y-138826D01*
X44898Y-138757D01*
X44866Y-138686D01*
X44837Y-138614D01*
X44812Y-138540D01*
X44790Y-138465D01*
X44773Y-138389D01*
X44759Y-138312D01*
X44749Y-138235D01*
X44743Y-138157D01*
X44741Y-138079D01*
X44741Y-135513D01*
X44743Y-135423D01*
X44749Y-135334D01*
X44759Y-135245D01*
X44772Y-135157D01*
X44790Y-135069D01*
X44811Y-134982D01*
X44836Y-134896D01*
X44865Y-134811D01*
X44897Y-134727D01*
X44933Y-134645D01*
X44973Y-134565D01*
X45016Y-134487D01*
X45063Y-134410D01*
X45112Y-134335D01*
X45165Y-134263D01*
X45221Y-134193D01*
X45280Y-134126D01*
X45342Y-134061D01*
X45407Y-133999D01*
X45474Y-133940D01*
X45544Y-133884D01*
X45616Y-133831D01*
X45691Y-133782D01*
X45768Y-133735D01*
X45846Y-133692D01*
X45926Y-133652D01*
X46008Y-133616D01*
X46092Y-133584D01*
X46177Y-133555D01*
X46263Y-133530D01*
X46350Y-133509D01*
X46438Y-133491D01*
X46526Y-133478D01*
X46615Y-133468D01*
X46704Y-133462D01*
X46794Y-133460D01*
X46884Y-133462D01*
X46973Y-133468D01*
X47062Y-133478D01*
X47150Y-133491D01*
X47238Y-133509D01*
X47325Y-133530D01*
X47411Y-133555D01*
X47496Y-133584D01*
X47580Y-133616D01*
X47662Y-133652D01*
X47742Y-133692D01*
X47821Y-133735D01*
X47897Y-133782D01*
X47972Y-133831D01*
X48044Y-133884D01*
X48114Y-133940D01*
X48181Y-133999D01*
X48246Y-134061D01*
X48308Y-134126D01*
X48367Y-134193D01*
X48423Y-134263D01*
X48476Y-134335D01*
X48525Y-134410D01*
X48572Y-134487D01*
X48615Y-134565D01*
X48655Y-134645D01*
X48691Y-134727D01*
X48723Y-134811D01*
X48752Y-134896D01*
X48777Y-134982D01*
X48798Y-135069D01*
X48816Y-135157D01*
X48829Y-135245D01*
X48839Y-135334D01*
X48845Y-135423D01*
X48847Y-135513D01*
X48847Y-136540D01*
X44741Y-136540D01*
X52892Y-139619D02*
X52892Y-133460D01*
X55972Y-133460D01*
X55972Y-134487D01*
X-85881Y-201755D02*
X-91373Y-201755D01*
X-91373Y-199009D01*
X-90458Y-199009D01*
X-85881Y-195031D02*
X-85881Y-192742D01*
X-85881Y-195031D02*
X-85883Y-195103D01*
X-85889Y-195175D01*
X-85898Y-195246D01*
X-85911Y-195316D01*
X-85928Y-195386D01*
X-85948Y-195455D01*
X-85972Y-195523D01*
X-86000Y-195589D01*
X-86031Y-195654D01*
X-86065Y-195718D01*
X-86103Y-195779D01*
X-86143Y-195838D01*
X-86187Y-195895D01*
X-86234Y-195950D01*
X-86283Y-196002D01*
X-86335Y-196051D01*
X-86390Y-196098D01*
X-86447Y-196142D01*
X-86506Y-196182D01*
X-86568Y-196220D01*
X-86631Y-196254D01*
X-86696Y-196285D01*
X-86762Y-196313D01*
X-86830Y-196337D01*
X-86899Y-196357D01*
X-86969Y-196374D01*
X-87039Y-196387D01*
X-87110Y-196396D01*
X-87182Y-196402D01*
X-87254Y-196404D01*
X-89542Y-196404D01*
X-89627Y-196402D01*
X-89711Y-196396D01*
X-89795Y-196386D01*
X-89878Y-196373D01*
X-89961Y-196355D01*
X-90043Y-196334D01*
X-90124Y-196309D01*
X-90203Y-196280D01*
X-90282Y-196248D01*
X-90358Y-196212D01*
X-90433Y-196173D01*
X-90506Y-196130D01*
X-90577Y-196084D01*
X-90645Y-196034D01*
X-90712Y-195982D01*
X-90776Y-195926D01*
X-90837Y-195868D01*
X-90895Y-195807D01*
X-90951Y-195743D01*
X-91003Y-195676D01*
X-91053Y-195608D01*
X-91099Y-195537D01*
X-91142Y-195464D01*
X-91181Y-195389D01*
X-91217Y-195313D01*
X-91249Y-195234D01*
X-91278Y-195155D01*
X-91303Y-195074D01*
X-91324Y-194992D01*
X-91342Y-194909D01*
X-91355Y-194826D01*
X-91365Y-194742D01*
X-91371Y-194658D01*
X-91373Y-194573D01*
X-91371Y-194488D01*
X-91365Y-194404D01*
X-91355Y-194320D01*
X-91342Y-194237D01*
X-91324Y-194154D01*
X-91303Y-194072D01*
X-91278Y-193991D01*
X-91249Y-193912D01*
X-91217Y-193833D01*
X-91181Y-193757D01*
X-91142Y-193682D01*
X-91099Y-193609D01*
X-91053Y-193538D01*
X-91003Y-193470D01*
X-90951Y-193403D01*
X-90895Y-193339D01*
X-90837Y-193278D01*
X-90776Y-193220D01*
X-90712Y-193164D01*
X-90645Y-193112D01*
X-90577Y-193062D01*
X-90506Y-193016D01*
X-90433Y-192973D01*
X-90358Y-192934D01*
X-90282Y-192898D01*
X-90203Y-192866D01*
X-90124Y-192837D01*
X-90043Y-192812D01*
X-89961Y-192791D01*
X-89878Y-192773D01*
X-89795Y-192760D01*
X-89711Y-192750D01*
X-89627Y-192744D01*
X-89542Y-192742D01*
X-88627Y-192742D01*
X-88627Y-196404D01*
X-91373Y-189654D02*
X-85881Y-187823D01*
X-91373Y-185992D01*
X-92288Y-182821D02*
X-94119Y-180533D01*
X-85881Y-180533D01*
X-85881Y-182821D02*
X-85881Y-178245D01*
X-44403Y-154119D02*
X-44318Y-154117D01*
X-44234Y-154111D01*
X-44150Y-154101D01*
X-44067Y-154088D01*
X-43984Y-154070D01*
X-43902Y-154049D01*
X-43821Y-154024D01*
X-43742Y-153995D01*
X-43663Y-153963D01*
X-43587Y-153927D01*
X-43512Y-153888D01*
X-43439Y-153845D01*
X-43368Y-153799D01*
X-43300Y-153749D01*
X-43233Y-153697D01*
X-43169Y-153641D01*
X-43108Y-153583D01*
X-43050Y-153522D01*
X-42994Y-153458D01*
X-42942Y-153391D01*
X-42892Y-153323D01*
X-42846Y-153252D01*
X-42803Y-153179D01*
X-42764Y-153104D01*
X-42728Y-153028D01*
X-42696Y-152949D01*
X-42667Y-152870D01*
X-42642Y-152789D01*
X-42621Y-152707D01*
X-42603Y-152624D01*
X-42590Y-152541D01*
X-42580Y-152457D01*
X-42574Y-152373D01*
X-42572Y-152288D01*
X-44403Y-154119D02*
X-44525Y-154117D01*
X-44647Y-154111D01*
X-44769Y-154102D01*
X-44890Y-154088D01*
X-45011Y-154071D01*
X-45131Y-154050D01*
X-45251Y-154025D01*
X-45370Y-153996D01*
X-45487Y-153964D01*
X-45604Y-153928D01*
X-45720Y-153888D01*
X-45834Y-153845D01*
X-45946Y-153798D01*
X-46058Y-153747D01*
X-46167Y-153693D01*
X-46275Y-153636D01*
X-46381Y-153575D01*
X-46485Y-153511D01*
X-46587Y-153443D01*
X-46686Y-153373D01*
X-46784Y-153299D01*
X-46879Y-153223D01*
X-46971Y-153143D01*
X-47061Y-153060D01*
X-47149Y-152975D01*
X-46921Y-147712D02*
X-46919Y-147627D01*
X-46913Y-147543D01*
X-46903Y-147459D01*
X-46890Y-147376D01*
X-46872Y-147293D01*
X-46851Y-147211D01*
X-46826Y-147130D01*
X-46797Y-147051D01*
X-46765Y-146972D01*
X-46729Y-146896D01*
X-46690Y-146821D01*
X-46647Y-146748D01*
X-46601Y-146677D01*
X-46551Y-146609D01*
X-46499Y-146542D01*
X-46443Y-146478D01*
X-46385Y-146417D01*
X-46324Y-146359D01*
X-46260Y-146303D01*
X-46193Y-146251D01*
X-46125Y-146201D01*
X-46054Y-146155D01*
X-45981Y-146112D01*
X-45906Y-146073D01*
X-45830Y-146037D01*
X-45751Y-146005D01*
X-45672Y-145976D01*
X-45591Y-145951D01*
X-45509Y-145930D01*
X-45426Y-145912D01*
X-45343Y-145899D01*
X-45259Y-145889D01*
X-45175Y-145883D01*
X-45090Y-145881D01*
X-44974Y-145883D01*
X-44858Y-145889D01*
X-44742Y-145899D01*
X-44626Y-145912D01*
X-44511Y-145930D01*
X-44397Y-145952D01*
X-44284Y-145977D01*
X-44171Y-146006D01*
X-44060Y-146039D01*
X-43949Y-146076D01*
X-43840Y-146117D01*
X-43733Y-146161D01*
X-43627Y-146208D01*
X-43523Y-146260D01*
X-43420Y-146315D01*
X-43319Y-146373D01*
X-43221Y-146434D01*
X-43124Y-146499D01*
X-43030Y-146568D01*
X-46005Y-149314D02*
X-46076Y-149269D01*
X-46145Y-149222D01*
X-46212Y-149172D01*
X-46277Y-149118D01*
X-46339Y-149062D01*
X-46399Y-149003D01*
X-46456Y-148941D01*
X-46510Y-148877D01*
X-46561Y-148810D01*
X-46609Y-148741D01*
X-46654Y-148671D01*
X-46695Y-148598D01*
X-46734Y-148523D01*
X-46769Y-148447D01*
X-46800Y-148369D01*
X-46828Y-148290D01*
X-46852Y-148209D01*
X-46873Y-148128D01*
X-46890Y-148046D01*
X-46903Y-147963D01*
X-46912Y-147880D01*
X-46918Y-147796D01*
X-46920Y-147712D01*
X-43488Y-150686D02*
X-43417Y-150731D01*
X-43348Y-150778D01*
X-43281Y-150828D01*
X-43216Y-150882D01*
X-43154Y-150938D01*
X-43094Y-150997D01*
X-43037Y-151059D01*
X-42983Y-151123D01*
X-42932Y-151190D01*
X-42884Y-151259D01*
X-42839Y-151329D01*
X-42798Y-151402D01*
X-42759Y-151477D01*
X-42724Y-151553D01*
X-42693Y-151631D01*
X-42665Y-151710D01*
X-42641Y-151791D01*
X-42620Y-151872D01*
X-42603Y-151954D01*
X-42590Y-152037D01*
X-42581Y-152120D01*
X-42575Y-152204D01*
X-42573Y-152288D01*
X-43488Y-150687D02*
X-46005Y-149314D01*
X-40092Y-148627D02*
X-37346Y-148627D01*
X-39176Y-145881D02*
X-39176Y-152746D01*
X-39174Y-152818D01*
X-39168Y-152890D01*
X-39159Y-152961D01*
X-39146Y-153031D01*
X-39129Y-153101D01*
X-39109Y-153170D01*
X-39085Y-153238D01*
X-39057Y-153304D01*
X-39026Y-153369D01*
X-38992Y-153433D01*
X-38954Y-153494D01*
X-38914Y-153553D01*
X-38870Y-153610D01*
X-38823Y-153665D01*
X-38774Y-153717D01*
X-38722Y-153766D01*
X-38667Y-153813D01*
X-38610Y-153857D01*
X-38551Y-153897D01*
X-38490Y-153935D01*
X-38426Y-153969D01*
X-38361Y-154000D01*
X-38295Y-154028D01*
X-38227Y-154052D01*
X-38158Y-154072D01*
X-38088Y-154089D01*
X-38018Y-154102D01*
X-37947Y-154111D01*
X-37875Y-154117D01*
X-37803Y-154119D01*
X-37346Y-154119D01*
X-32899Y-154119D02*
X-30611Y-154119D01*
X-32899Y-154119D02*
X-32971Y-154117D01*
X-33043Y-154111D01*
X-33114Y-154102D01*
X-33184Y-154089D01*
X-33254Y-154072D01*
X-33323Y-154052D01*
X-33391Y-154028D01*
X-33457Y-154000D01*
X-33522Y-153969D01*
X-33586Y-153935D01*
X-33647Y-153897D01*
X-33706Y-153857D01*
X-33763Y-153813D01*
X-33818Y-153766D01*
X-33870Y-153717D01*
X-33919Y-153665D01*
X-33966Y-153610D01*
X-34010Y-153553D01*
X-34050Y-153494D01*
X-34088Y-153433D01*
X-34122Y-153369D01*
X-34153Y-153304D01*
X-34181Y-153238D01*
X-34205Y-153170D01*
X-34225Y-153101D01*
X-34242Y-153031D01*
X-34255Y-152961D01*
X-34264Y-152890D01*
X-34270Y-152818D01*
X-34272Y-152746D01*
X-34272Y-150458D01*
X-34270Y-150373D01*
X-34264Y-150289D01*
X-34254Y-150205D01*
X-34241Y-150122D01*
X-34223Y-150039D01*
X-34202Y-149957D01*
X-34177Y-149876D01*
X-34148Y-149797D01*
X-34116Y-149718D01*
X-34080Y-149642D01*
X-34041Y-149567D01*
X-33998Y-149494D01*
X-33952Y-149423D01*
X-33902Y-149355D01*
X-33850Y-149288D01*
X-33794Y-149224D01*
X-33736Y-149163D01*
X-33675Y-149105D01*
X-33611Y-149049D01*
X-33544Y-148997D01*
X-33476Y-148947D01*
X-33405Y-148901D01*
X-33332Y-148858D01*
X-33257Y-148819D01*
X-33181Y-148783D01*
X-33102Y-148751D01*
X-33023Y-148722D01*
X-32942Y-148697D01*
X-32860Y-148676D01*
X-32777Y-148658D01*
X-32694Y-148645D01*
X-32610Y-148635D01*
X-32526Y-148629D01*
X-32441Y-148627D01*
X-32356Y-148629D01*
X-32272Y-148635D01*
X-32188Y-148645D01*
X-32105Y-148658D01*
X-32022Y-148676D01*
X-31940Y-148697D01*
X-31859Y-148722D01*
X-31780Y-148751D01*
X-31701Y-148783D01*
X-31625Y-148819D01*
X-31550Y-148858D01*
X-31477Y-148901D01*
X-31406Y-148947D01*
X-31338Y-148997D01*
X-31271Y-149049D01*
X-31207Y-149105D01*
X-31146Y-149163D01*
X-31088Y-149224D01*
X-31032Y-149288D01*
X-30980Y-149355D01*
X-30930Y-149423D01*
X-30884Y-149494D01*
X-30841Y-149567D01*
X-30802Y-149642D01*
X-30766Y-149718D01*
X-30734Y-149797D01*
X-30705Y-149876D01*
X-30680Y-149957D01*
X-30659Y-150039D01*
X-30641Y-150122D01*
X-30628Y-150205D01*
X-30618Y-150289D01*
X-30612Y-150373D01*
X-30610Y-150458D01*
X-30611Y-150458D02*
X-30611Y-151373D01*
X-34272Y-151373D01*
X-27522Y-148627D02*
X-25691Y-154119D01*
X-23861Y-148627D01*
X-19399Y-154119D02*
X-17111Y-154119D01*
X-19399Y-154119D02*
X-19471Y-154117D01*
X-19543Y-154111D01*
X-19614Y-154102D01*
X-19684Y-154089D01*
X-19754Y-154072D01*
X-19823Y-154052D01*
X-19891Y-154028D01*
X-19957Y-154000D01*
X-20022Y-153969D01*
X-20086Y-153935D01*
X-20147Y-153897D01*
X-20206Y-153857D01*
X-20263Y-153813D01*
X-20318Y-153766D01*
X-20370Y-153717D01*
X-20419Y-153665D01*
X-20466Y-153610D01*
X-20510Y-153553D01*
X-20550Y-153494D01*
X-20588Y-153433D01*
X-20622Y-153369D01*
X-20653Y-153304D01*
X-20681Y-153238D01*
X-20705Y-153170D01*
X-20725Y-153101D01*
X-20742Y-153031D01*
X-20755Y-152961D01*
X-20764Y-152890D01*
X-20770Y-152818D01*
X-20772Y-152746D01*
X-20772Y-150458D01*
X-20770Y-150373D01*
X-20764Y-150289D01*
X-20754Y-150205D01*
X-20741Y-150122D01*
X-20723Y-150039D01*
X-20702Y-149957D01*
X-20677Y-149876D01*
X-20648Y-149797D01*
X-20616Y-149718D01*
X-20580Y-149642D01*
X-20541Y-149567D01*
X-20498Y-149494D01*
X-20452Y-149423D01*
X-20402Y-149355D01*
X-20350Y-149288D01*
X-20294Y-149224D01*
X-20236Y-149163D01*
X-20175Y-149105D01*
X-20111Y-149049D01*
X-20044Y-148997D01*
X-19976Y-148947D01*
X-19905Y-148901D01*
X-19832Y-148858D01*
X-19757Y-148819D01*
X-19681Y-148783D01*
X-19602Y-148751D01*
X-19523Y-148722D01*
X-19442Y-148697D01*
X-19360Y-148676D01*
X-19277Y-148658D01*
X-19194Y-148645D01*
X-19110Y-148635D01*
X-19026Y-148629D01*
X-18941Y-148627D01*
X-18856Y-148629D01*
X-18772Y-148635D01*
X-18688Y-148645D01*
X-18605Y-148658D01*
X-18522Y-148676D01*
X-18440Y-148697D01*
X-18359Y-148722D01*
X-18280Y-148751D01*
X-18201Y-148783D01*
X-18125Y-148819D01*
X-18050Y-148858D01*
X-17977Y-148901D01*
X-17906Y-148947D01*
X-17838Y-148997D01*
X-17771Y-149049D01*
X-17707Y-149105D01*
X-17646Y-149163D01*
X-17588Y-149224D01*
X-17532Y-149288D01*
X-17480Y-149355D01*
X-17430Y-149423D01*
X-17384Y-149494D01*
X-17341Y-149567D01*
X-17302Y-149642D01*
X-17266Y-149718D01*
X-17234Y-149797D01*
X-17205Y-149876D01*
X-17180Y-149957D01*
X-17159Y-150039D01*
X-17141Y-150122D01*
X-17128Y-150205D01*
X-17118Y-150289D01*
X-17112Y-150373D01*
X-17110Y-150458D01*
X-17111Y-150458D02*
X-17111Y-151373D01*
X-20772Y-151373D01*
X-13482Y-154119D02*
X-13482Y-148627D01*
X-11194Y-148627D01*
X-11122Y-148629D01*
X-11050Y-148635D01*
X-10979Y-148644D01*
X-10909Y-148657D01*
X-10839Y-148674D01*
X-10770Y-148694D01*
X-10702Y-148718D01*
X-10636Y-148746D01*
X-10571Y-148777D01*
X-10508Y-148811D01*
X-10446Y-148849D01*
X-10387Y-148889D01*
X-10330Y-148933D01*
X-10275Y-148980D01*
X-10223Y-149029D01*
X-10174Y-149081D01*
X-10127Y-149136D01*
X-10083Y-149193D01*
X-10043Y-149252D01*
X-10005Y-149314D01*
X-9971Y-149377D01*
X-9940Y-149442D01*
X-9912Y-149508D01*
X-9888Y-149576D01*
X-9868Y-149645D01*
X-9851Y-149715D01*
X-9838Y-149785D01*
X-9829Y-149856D01*
X-9823Y-149928D01*
X-9821Y-150000D01*
X-9821Y-154119D01*
X687Y-154119D02*
X772Y-154117D01*
X856Y-154111D01*
X940Y-154101D01*
X1023Y-154088D01*
X1106Y-154070D01*
X1188Y-154049D01*
X1269Y-154024D01*
X1348Y-153995D01*
X1427Y-153963D01*
X1503Y-153927D01*
X1578Y-153888D01*
X1651Y-153845D01*
X1722Y-153799D01*
X1790Y-153749D01*
X1857Y-153697D01*
X1921Y-153641D01*
X1982Y-153583D01*
X2040Y-153522D01*
X2096Y-153458D01*
X2148Y-153391D01*
X2198Y-153323D01*
X2244Y-153252D01*
X2287Y-153179D01*
X2326Y-153104D01*
X2362Y-153028D01*
X2394Y-152949D01*
X2423Y-152870D01*
X2448Y-152789D01*
X2469Y-152707D01*
X2487Y-152624D01*
X2500Y-152541D01*
X2510Y-152457D01*
X2516Y-152373D01*
X2518Y-152288D01*
X687Y-154119D02*
X565Y-154117D01*
X443Y-154111D01*
X321Y-154102D01*
X200Y-154088D01*
X79Y-154071D01*
X-41Y-154050D01*
X-161Y-154025D01*
X-280Y-153996D01*
X-397Y-153964D01*
X-514Y-153928D01*
X-630Y-153888D01*
X-744Y-153845D01*
X-856Y-153798D01*
X-968Y-153747D01*
X-1077Y-153693D01*
X-1185Y-153636D01*
X-1291Y-153575D01*
X-1395Y-153511D01*
X-1497Y-153443D01*
X-1596Y-153373D01*
X-1694Y-153299D01*
X-1789Y-153222D01*
X-1881Y-153143D01*
X-1971Y-153060D01*
X-2059Y-152975D01*
X-1831Y-147712D02*
X-1829Y-147627D01*
X-1823Y-147543D01*
X-1813Y-147459D01*
X-1800Y-147376D01*
X-1782Y-147293D01*
X-1761Y-147211D01*
X-1736Y-147130D01*
X-1707Y-147051D01*
X-1675Y-146972D01*
X-1639Y-146896D01*
X-1600Y-146821D01*
X-1557Y-146748D01*
X-1511Y-146677D01*
X-1461Y-146609D01*
X-1409Y-146542D01*
X-1353Y-146478D01*
X-1295Y-146417D01*
X-1234Y-146359D01*
X-1170Y-146303D01*
X-1103Y-146251D01*
X-1035Y-146201D01*
X-964Y-146155D01*
X-891Y-146112D01*
X-816Y-146073D01*
X-740Y-146037D01*
X-661Y-146005D01*
X-582Y-145976D01*
X-501Y-145951D01*
X-419Y-145930D01*
X-336Y-145912D01*
X-253Y-145899D01*
X-169Y-145889D01*
X-85Y-145883D01*
X0Y-145881D01*
X116Y-145883D01*
X232Y-145889D01*
X348Y-145899D01*
X464Y-145912D01*
X579Y-145930D01*
X693Y-145952D01*
X806Y-145977D01*
X919Y-146006D01*
X1030Y-146039D01*
X1141Y-146076D01*
X1250Y-146117D01*
X1357Y-146161D01*
X1463Y-146208D01*
X1567Y-146260D01*
X1670Y-146315D01*
X1771Y-146373D01*
X1869Y-146434D01*
X1966Y-146499D01*
X2060Y-146568D01*
X-915Y-149314D02*
X-986Y-149269D01*
X-1055Y-149222D01*
X-1122Y-149172D01*
X-1187Y-149118D01*
X-1249Y-149062D01*
X-1309Y-149003D01*
X-1366Y-148941D01*
X-1420Y-148877D01*
X-1471Y-148810D01*
X-1519Y-148741D01*
X-1564Y-148671D01*
X-1605Y-148598D01*
X-1644Y-148523D01*
X-1679Y-148447D01*
X-1710Y-148369D01*
X-1738Y-148290D01*
X-1762Y-148209D01*
X-1783Y-148128D01*
X-1800Y-148046D01*
X-1813Y-147963D01*
X-1822Y-147880D01*
X-1828Y-147796D01*
X-1830Y-147712D01*
X1602Y-150686D02*
X1673Y-150731D01*
X1742Y-150778D01*
X1809Y-150829D01*
X1874Y-150882D01*
X1936Y-150938D01*
X1996Y-150997D01*
X2053Y-151059D01*
X2107Y-151123D01*
X2158Y-151190D01*
X2206Y-151259D01*
X2251Y-151329D01*
X2292Y-151402D01*
X2331Y-151477D01*
X2366Y-151553D01*
X2397Y-151631D01*
X2425Y-151710D01*
X2449Y-151791D01*
X2470Y-151872D01*
X2487Y-151954D01*
X2500Y-152037D01*
X2509Y-152120D01*
X2515Y-152204D01*
X2517Y-152288D01*
X1602Y-150687D02*
X-915Y-149314D01*
X5583Y-148627D02*
X6956Y-154119D01*
X8329Y-150458D01*
X9702Y-154119D01*
X11075Y-148627D01*
X15887Y-150915D02*
X17947Y-150915D01*
X15887Y-150915D02*
X15808Y-150917D01*
X15730Y-150923D01*
X15652Y-150932D01*
X15574Y-150946D01*
X15498Y-150963D01*
X15422Y-150984D01*
X15347Y-151009D01*
X15274Y-151037D01*
X15202Y-151069D01*
X15132Y-151104D01*
X15063Y-151143D01*
X14997Y-151185D01*
X14933Y-151230D01*
X14871Y-151279D01*
X14811Y-151330D01*
X14754Y-151384D01*
X14700Y-151441D01*
X14649Y-151501D01*
X14600Y-151563D01*
X14555Y-151627D01*
X14513Y-151693D01*
X14474Y-151762D01*
X14439Y-151832D01*
X14407Y-151904D01*
X14379Y-151977D01*
X14354Y-152052D01*
X14333Y-152128D01*
X14316Y-152204D01*
X14302Y-152282D01*
X14293Y-152360D01*
X14287Y-152438D01*
X14285Y-152517D01*
X14287Y-152596D01*
X14293Y-152674D01*
X14302Y-152752D01*
X14316Y-152830D01*
X14333Y-152906D01*
X14354Y-152982D01*
X14379Y-153057D01*
X14407Y-153130D01*
X14439Y-153202D01*
X14474Y-153272D01*
X14513Y-153341D01*
X14555Y-153407D01*
X14600Y-153471D01*
X14649Y-153533D01*
X14700Y-153593D01*
X14754Y-153650D01*
X14811Y-153704D01*
X14871Y-153755D01*
X14933Y-153804D01*
X14997Y-153849D01*
X15063Y-153891D01*
X15132Y-153930D01*
X15202Y-153965D01*
X15274Y-153997D01*
X15347Y-154025D01*
X15422Y-154050D01*
X15498Y-154071D01*
X15574Y-154088D01*
X15652Y-154102D01*
X15730Y-154111D01*
X15808Y-154117D01*
X15887Y-154119D01*
X17947Y-154119D01*
X17947Y-150000D01*
X17945Y-149928D01*
X17939Y-149856D01*
X17930Y-149785D01*
X17917Y-149715D01*
X17900Y-149645D01*
X17880Y-149576D01*
X17856Y-149508D01*
X17828Y-149442D01*
X17797Y-149377D01*
X17763Y-149314D01*
X17725Y-149252D01*
X17685Y-149193D01*
X17641Y-149136D01*
X17594Y-149081D01*
X17545Y-149029D01*
X17493Y-148980D01*
X17438Y-148933D01*
X17381Y-148889D01*
X17322Y-148849D01*
X17261Y-148811D01*
X17197Y-148777D01*
X17132Y-148746D01*
X17066Y-148718D01*
X16998Y-148694D01*
X16929Y-148674D01*
X16859Y-148657D01*
X16789Y-148644D01*
X16718Y-148635D01*
X16646Y-148629D01*
X16574Y-148627D01*
X14743Y-148627D01*
X21888Y-148627D02*
X21888Y-154119D01*
X21888Y-148627D02*
X24176Y-148627D01*
X24248Y-148629D01*
X24320Y-148635D01*
X24391Y-148644D01*
X24461Y-148657D01*
X24531Y-148674D01*
X24600Y-148694D01*
X24668Y-148718D01*
X24734Y-148746D01*
X24799Y-148777D01*
X24863Y-148811D01*
X24924Y-148849D01*
X24983Y-148889D01*
X25040Y-148933D01*
X25095Y-148980D01*
X25147Y-149029D01*
X25196Y-149081D01*
X25243Y-149136D01*
X25287Y-149193D01*
X25327Y-149252D01*
X25365Y-149314D01*
X25399Y-149377D01*
X25430Y-149442D01*
X25458Y-149508D01*
X25482Y-149576D01*
X25502Y-149645D01*
X25519Y-149715D01*
X25532Y-149785D01*
X25541Y-149856D01*
X25547Y-149928D01*
X25549Y-150000D01*
X25549Y-154119D01*
X29865Y-150915D02*
X32153Y-151831D01*
X29864Y-150916D02*
X29802Y-150889D01*
X29742Y-150859D01*
X29684Y-150826D01*
X29628Y-150789D01*
X29574Y-150749D01*
X29522Y-150706D01*
X29473Y-150660D01*
X29426Y-150612D01*
X29382Y-150561D01*
X29342Y-150507D01*
X29304Y-150452D01*
X29269Y-150394D01*
X29238Y-150335D01*
X29210Y-150273D01*
X29186Y-150211D01*
X29166Y-150147D01*
X29149Y-150082D01*
X29135Y-150016D01*
X29126Y-149949D01*
X29120Y-149882D01*
X29118Y-149815D01*
X29120Y-149748D01*
X29125Y-149681D01*
X29135Y-149614D01*
X29148Y-149548D01*
X29165Y-149483D01*
X29186Y-149419D01*
X29210Y-149357D01*
X29237Y-149295D01*
X29268Y-149236D01*
X29303Y-149178D01*
X29340Y-149122D01*
X29381Y-149069D01*
X29425Y-149018D01*
X29471Y-148969D01*
X29521Y-148923D01*
X29572Y-148880D01*
X29626Y-148840D01*
X29682Y-148803D01*
X29741Y-148770D01*
X29801Y-148739D01*
X29862Y-148713D01*
X29925Y-148689D01*
X29990Y-148670D01*
X30055Y-148654D01*
X30121Y-148641D01*
X30188Y-148633D01*
X30255Y-148628D01*
X30322Y-148627D01*
X30322Y-148628D02*
X30464Y-148631D01*
X30605Y-148639D01*
X30746Y-148651D01*
X30887Y-148666D01*
X31027Y-148686D01*
X31167Y-148709D01*
X31306Y-148736D01*
X31444Y-148767D01*
X31582Y-148801D01*
X31718Y-148839D01*
X31853Y-148881D01*
X31988Y-148927D01*
X32120Y-148976D01*
X32252Y-149029D01*
X32382Y-149085D01*
X32153Y-151830D02*
X32215Y-151857D01*
X32275Y-151887D01*
X32333Y-151920D01*
X32389Y-151957D01*
X32443Y-151997D01*
X32495Y-152040D01*
X32544Y-152086D01*
X32591Y-152134D01*
X32635Y-152185D01*
X32675Y-152239D01*
X32713Y-152294D01*
X32748Y-152352D01*
X32779Y-152411D01*
X32807Y-152473D01*
X32831Y-152535D01*
X32851Y-152599D01*
X32868Y-152664D01*
X32882Y-152730D01*
X32891Y-152797D01*
X32897Y-152864D01*
X32899Y-152931D01*
X32897Y-152998D01*
X32892Y-153065D01*
X32882Y-153132D01*
X32869Y-153198D01*
X32852Y-153263D01*
X32831Y-153327D01*
X32807Y-153389D01*
X32780Y-153451D01*
X32749Y-153510D01*
X32714Y-153568D01*
X32677Y-153624D01*
X32636Y-153677D01*
X32592Y-153728D01*
X32546Y-153777D01*
X32497Y-153823D01*
X32445Y-153866D01*
X32391Y-153906D01*
X32335Y-153943D01*
X32276Y-153976D01*
X32216Y-154007D01*
X32155Y-154033D01*
X32092Y-154057D01*
X32027Y-154076D01*
X31962Y-154092D01*
X31896Y-154105D01*
X31829Y-154113D01*
X31762Y-154118D01*
X31695Y-154119D01*
X31695Y-154118D02*
X31512Y-154113D01*
X31328Y-154104D01*
X31145Y-154091D01*
X30963Y-154073D01*
X30780Y-154051D01*
X30599Y-154025D01*
X30418Y-153994D01*
X30238Y-153959D01*
X30058Y-153920D01*
X29880Y-153876D01*
X29703Y-153829D01*
X29526Y-153777D01*
X29352Y-153721D01*
X29178Y-153661D01*
X36198Y-152288D02*
X36198Y-150458D01*
X36200Y-150373D01*
X36206Y-150289D01*
X36216Y-150205D01*
X36229Y-150122D01*
X36247Y-150039D01*
X36268Y-149957D01*
X36293Y-149876D01*
X36322Y-149797D01*
X36354Y-149718D01*
X36390Y-149642D01*
X36429Y-149567D01*
X36472Y-149494D01*
X36518Y-149423D01*
X36568Y-149355D01*
X36620Y-149288D01*
X36676Y-149224D01*
X36734Y-149163D01*
X36795Y-149105D01*
X36859Y-149049D01*
X36926Y-148997D01*
X36994Y-148947D01*
X37065Y-148901D01*
X37138Y-148858D01*
X37213Y-148819D01*
X37289Y-148783D01*
X37368Y-148751D01*
X37447Y-148722D01*
X37528Y-148697D01*
X37610Y-148676D01*
X37693Y-148658D01*
X37776Y-148645D01*
X37860Y-148635D01*
X37944Y-148629D01*
X38029Y-148627D01*
X38114Y-148629D01*
X38198Y-148635D01*
X38282Y-148645D01*
X38365Y-148658D01*
X38448Y-148676D01*
X38530Y-148697D01*
X38611Y-148722D01*
X38690Y-148751D01*
X38769Y-148783D01*
X38845Y-148819D01*
X38920Y-148858D01*
X38993Y-148901D01*
X39064Y-148947D01*
X39132Y-148997D01*
X39199Y-149049D01*
X39263Y-149105D01*
X39324Y-149163D01*
X39382Y-149224D01*
X39438Y-149288D01*
X39490Y-149355D01*
X39540Y-149423D01*
X39586Y-149494D01*
X39629Y-149567D01*
X39668Y-149642D01*
X39704Y-149718D01*
X39736Y-149797D01*
X39765Y-149876D01*
X39790Y-149957D01*
X39811Y-150039D01*
X39829Y-150122D01*
X39842Y-150205D01*
X39852Y-150289D01*
X39858Y-150373D01*
X39860Y-150458D01*
X39859Y-150458D02*
X39859Y-152288D01*
X39860Y-152288D02*
X39858Y-152373D01*
X39852Y-152457D01*
X39842Y-152541D01*
X39829Y-152624D01*
X39811Y-152707D01*
X39790Y-152789D01*
X39765Y-152870D01*
X39736Y-152949D01*
X39704Y-153028D01*
X39668Y-153104D01*
X39629Y-153179D01*
X39586Y-153252D01*
X39540Y-153323D01*
X39490Y-153391D01*
X39438Y-153458D01*
X39382Y-153522D01*
X39324Y-153583D01*
X39263Y-153641D01*
X39199Y-153697D01*
X39132Y-153749D01*
X39064Y-153799D01*
X38993Y-153845D01*
X38920Y-153888D01*
X38845Y-153927D01*
X38769Y-153963D01*
X38690Y-153995D01*
X38611Y-154024D01*
X38530Y-154049D01*
X38448Y-154070D01*
X38365Y-154088D01*
X38282Y-154101D01*
X38198Y-154111D01*
X38114Y-154117D01*
X38029Y-154119D01*
X37944Y-154117D01*
X37860Y-154111D01*
X37776Y-154101D01*
X37693Y-154088D01*
X37610Y-154070D01*
X37528Y-154049D01*
X37447Y-154024D01*
X37368Y-153995D01*
X37289Y-153963D01*
X37213Y-153927D01*
X37138Y-153888D01*
X37065Y-153845D01*
X36994Y-153799D01*
X36926Y-153749D01*
X36859Y-153697D01*
X36795Y-153641D01*
X36734Y-153583D01*
X36676Y-153522D01*
X36620Y-153458D01*
X36568Y-153391D01*
X36518Y-153323D01*
X36472Y-153252D01*
X36429Y-153179D01*
X36390Y-153104D01*
X36354Y-153028D01*
X36322Y-152949D01*
X36293Y-152870D01*
X36268Y-152789D01*
X36247Y-152707D01*
X36229Y-152624D01*
X36216Y-152541D01*
X36206Y-152457D01*
X36200Y-152373D01*
X36198Y-152288D01*
X43488Y-154119D02*
X43488Y-148627D01*
X45776Y-148627D01*
X45848Y-148629D01*
X45920Y-148635D01*
X45991Y-148644D01*
X46061Y-148657D01*
X46131Y-148674D01*
X46200Y-148694D01*
X46268Y-148718D01*
X46334Y-148746D01*
X46399Y-148777D01*
X46463Y-148811D01*
X46524Y-148849D01*
X46583Y-148889D01*
X46640Y-148933D01*
X46695Y-148980D01*
X46747Y-149029D01*
X46796Y-149081D01*
X46843Y-149136D01*
X46887Y-149193D01*
X46927Y-149252D01*
X46965Y-149314D01*
X46999Y-149377D01*
X47030Y-149442D01*
X47058Y-149508D01*
X47082Y-149576D01*
X47102Y-149645D01*
X47119Y-149715D01*
X47132Y-149785D01*
X47141Y-149856D01*
X47147Y-149928D01*
X47149Y-150000D01*
X47149Y-154119D01*
D12*
X-65000Y6100D02*
X-85000Y6100D01*
X-85000Y23900D02*
X-65000Y23900D01*
D11*
X-90881Y12986D02*
X-90881Y11155D01*
X-90883Y11070D01*
X-90889Y10986D01*
X-90899Y10902D01*
X-90912Y10819D01*
X-90930Y10736D01*
X-90951Y10654D01*
X-90976Y10573D01*
X-91005Y10494D01*
X-91037Y10415D01*
X-91073Y10339D01*
X-91112Y10264D01*
X-91155Y10191D01*
X-91201Y10120D01*
X-91251Y10052D01*
X-91303Y9985D01*
X-91359Y9921D01*
X-91417Y9860D01*
X-91478Y9802D01*
X-91542Y9746D01*
X-91609Y9694D01*
X-91677Y9644D01*
X-91748Y9598D01*
X-91821Y9555D01*
X-91896Y9516D01*
X-91972Y9480D01*
X-92051Y9448D01*
X-92130Y9419D01*
X-92211Y9394D01*
X-92293Y9373D01*
X-92376Y9355D01*
X-92459Y9342D01*
X-92543Y9332D01*
X-92627Y9326D01*
X-92712Y9324D01*
X-92712Y9325D02*
X-97288Y9325D01*
X-97288Y9324D02*
X-97373Y9326D01*
X-97457Y9332D01*
X-97541Y9342D01*
X-97624Y9355D01*
X-97707Y9373D01*
X-97789Y9394D01*
X-97870Y9419D01*
X-97949Y9448D01*
X-98028Y9480D01*
X-98104Y9516D01*
X-98179Y9555D01*
X-98252Y9598D01*
X-98323Y9644D01*
X-98391Y9694D01*
X-98458Y9746D01*
X-98522Y9802D01*
X-98583Y9860D01*
X-98641Y9921D01*
X-98697Y9985D01*
X-98749Y10052D01*
X-98799Y10120D01*
X-98845Y10191D01*
X-98888Y10264D01*
X-98927Y10339D01*
X-98963Y10415D01*
X-98995Y10494D01*
X-99024Y10573D01*
X-99049Y10654D01*
X-99070Y10736D01*
X-99088Y10819D01*
X-99101Y10902D01*
X-99111Y10986D01*
X-99117Y11070D01*
X-99119Y11155D01*
X-99119Y12986D01*
X-95458Y16099D02*
X-95458Y18845D01*
X-95456Y18930D01*
X-95450Y19014D01*
X-95440Y19098D01*
X-95427Y19181D01*
X-95409Y19264D01*
X-95388Y19346D01*
X-95363Y19427D01*
X-95334Y19506D01*
X-95302Y19585D01*
X-95266Y19661D01*
X-95227Y19736D01*
X-95184Y19809D01*
X-95138Y19880D01*
X-95088Y19948D01*
X-95036Y20015D01*
X-94980Y20079D01*
X-94922Y20140D01*
X-94861Y20198D01*
X-94797Y20254D01*
X-94730Y20306D01*
X-94662Y20356D01*
X-94591Y20402D01*
X-94518Y20445D01*
X-94443Y20484D01*
X-94367Y20520D01*
X-94288Y20552D01*
X-94209Y20581D01*
X-94128Y20606D01*
X-94046Y20627D01*
X-93963Y20645D01*
X-93880Y20658D01*
X-93796Y20668D01*
X-93712Y20674D01*
X-93627Y20676D01*
X-93627Y20675D02*
X-93169Y20675D01*
X-93074Y20673D01*
X-92980Y20667D01*
X-92886Y20657D01*
X-92792Y20644D01*
X-92699Y20626D01*
X-92607Y20605D01*
X-92516Y20580D01*
X-92426Y20551D01*
X-92337Y20518D01*
X-92250Y20482D01*
X-92164Y20443D01*
X-92080Y20399D01*
X-91998Y20353D01*
X-91918Y20302D01*
X-91839Y20249D01*
X-91764Y20193D01*
X-91690Y20133D01*
X-91619Y20070D01*
X-91551Y20005D01*
X-91486Y19937D01*
X-91423Y19866D01*
X-91363Y19792D01*
X-91307Y19717D01*
X-91254Y19638D01*
X-91203Y19558D01*
X-91157Y19476D01*
X-91113Y19392D01*
X-91074Y19306D01*
X-91038Y19219D01*
X-91005Y19130D01*
X-90976Y19040D01*
X-90951Y18949D01*
X-90930Y18857D01*
X-90912Y18764D01*
X-90899Y18670D01*
X-90889Y18576D01*
X-90883Y18482D01*
X-90881Y18387D01*
X-90883Y18292D01*
X-90889Y18198D01*
X-90899Y18104D01*
X-90912Y18010D01*
X-90930Y17917D01*
X-90951Y17825D01*
X-90976Y17734D01*
X-91005Y17644D01*
X-91038Y17555D01*
X-91074Y17468D01*
X-91113Y17382D01*
X-91157Y17298D01*
X-91203Y17216D01*
X-91254Y17136D01*
X-91307Y17057D01*
X-91363Y16982D01*
X-91423Y16908D01*
X-91486Y16837D01*
X-91551Y16769D01*
X-91619Y16704D01*
X-91690Y16641D01*
X-91764Y16581D01*
X-91839Y16525D01*
X-91918Y16472D01*
X-91998Y16421D01*
X-92080Y16375D01*
X-92164Y16331D01*
X-92250Y16292D01*
X-92337Y16256D01*
X-92426Y16223D01*
X-92516Y16194D01*
X-92607Y16169D01*
X-92699Y16148D01*
X-92792Y16130D01*
X-92886Y16117D01*
X-92980Y16107D01*
X-93074Y16101D01*
X-93169Y16099D01*
X-95458Y16099D01*
X-95578Y16101D01*
X-95697Y16107D01*
X-95817Y16117D01*
X-95936Y16130D01*
X-96054Y16148D01*
X-96172Y16169D01*
X-96289Y16195D01*
X-96406Y16224D01*
X-96521Y16257D01*
X-96635Y16293D01*
X-96748Y16334D01*
X-96859Y16378D01*
X-96969Y16425D01*
X-97077Y16477D01*
X-97184Y16531D01*
X-97288Y16589D01*
X-97391Y16651D01*
X-97492Y16716D01*
X-97590Y16784D01*
X-97687Y16856D01*
X-97781Y16930D01*
X-97872Y17008D01*
X-97961Y17088D01*
X-98047Y17171D01*
X-98130Y17257D01*
X-98210Y17346D01*
X-98288Y17437D01*
X-98362Y17531D01*
X-98434Y17628D01*
X-98502Y17726D01*
X-98567Y17827D01*
X-98629Y17929D01*
X-98687Y18034D01*
X-98741Y18141D01*
X-98793Y18249D01*
X-98840Y18359D01*
X-98884Y18470D01*
X-98925Y18583D01*
X-98961Y18697D01*
X-98994Y18812D01*
X-99023Y18929D01*
X-99049Y19046D01*
X-99070Y19164D01*
X-99088Y19282D01*
X-99101Y19401D01*
X-99111Y19521D01*
X-99117Y19640D01*
X-99119Y19760D01*
X-86566Y4119D02*
X-88854Y2288D01*
X-86566Y4119D02*
X-86566Y-4119D01*
X-88854Y-4119D02*
X-84277Y-4119D01*
X-80754Y0D02*
X-80752Y162D01*
X-80746Y324D01*
X-80737Y486D01*
X-80723Y647D01*
X-80706Y808D01*
X-80684Y969D01*
X-80659Y1129D01*
X-80631Y1289D01*
X-80598Y1448D01*
X-80561Y1605D01*
X-80521Y1762D01*
X-80477Y1918D01*
X-80430Y2073D01*
X-80378Y2227D01*
X-80323Y2380D01*
X-80265Y2531D01*
X-80203Y2680D01*
X-80137Y2828D01*
X-80067Y2975D01*
X-80068Y2975D02*
X-80039Y3051D01*
X-80008Y3125D01*
X-79973Y3198D01*
X-79934Y3269D01*
X-79892Y3338D01*
X-79847Y3405D01*
X-79799Y3470D01*
X-79748Y3532D01*
X-79694Y3592D01*
X-79637Y3649D01*
X-79577Y3704D01*
X-79515Y3755D01*
X-79450Y3804D01*
X-79383Y3849D01*
X-79314Y3891D01*
X-79243Y3930D01*
X-79171Y3965D01*
X-79097Y3997D01*
X-79021Y4025D01*
X-78944Y4050D01*
X-78866Y4071D01*
X-78787Y4088D01*
X-78708Y4102D01*
X-78627Y4111D01*
X-78547Y4117D01*
X-78466Y4119D01*
X-78385Y4117D01*
X-78305Y4111D01*
X-78225Y4102D01*
X-78145Y4088D01*
X-78066Y4071D01*
X-77988Y4050D01*
X-77911Y4025D01*
X-77835Y3997D01*
X-77761Y3965D01*
X-77689Y3930D01*
X-77618Y3891D01*
X-77549Y3849D01*
X-77482Y3804D01*
X-77417Y3755D01*
X-77355Y3704D01*
X-77296Y3649D01*
X-77239Y3592D01*
X-77184Y3532D01*
X-77133Y3470D01*
X-77085Y3405D01*
X-77040Y3338D01*
X-76998Y3269D01*
X-76959Y3198D01*
X-76924Y3125D01*
X-76893Y3051D01*
X-76865Y2975D01*
X-76864Y2975D02*
X-76794Y2828D01*
X-76728Y2680D01*
X-76666Y2531D01*
X-76608Y2380D01*
X-76553Y2227D01*
X-76501Y2073D01*
X-76454Y1918D01*
X-76410Y1762D01*
X-76370Y1605D01*
X-76333Y1448D01*
X-76300Y1289D01*
X-76272Y1129D01*
X-76247Y969D01*
X-76225Y808D01*
X-76208Y647D01*
X-76194Y486D01*
X-76185Y324D01*
X-76179Y162D01*
X-76177Y0D01*
X-80754Y0D02*
X-80752Y-162D01*
X-80746Y-324D01*
X-80737Y-486D01*
X-80723Y-647D01*
X-80706Y-808D01*
X-80684Y-969D01*
X-80659Y-1129D01*
X-80631Y-1289D01*
X-80598Y-1448D01*
X-80561Y-1605D01*
X-80521Y-1762D01*
X-80477Y-1918D01*
X-80430Y-2073D01*
X-80378Y-2227D01*
X-80323Y-2380D01*
X-80265Y-2531D01*
X-80202Y-2680D01*
X-80137Y-2828D01*
X-80067Y-2975D01*
X-80039Y-3051D01*
X-80008Y-3125D01*
X-79973Y-3198D01*
X-79934Y-3269D01*
X-79892Y-3338D01*
X-79847Y-3405D01*
X-79799Y-3470D01*
X-79748Y-3532D01*
X-79693Y-3592D01*
X-79636Y-3649D01*
X-79577Y-3704D01*
X-79515Y-3755D01*
X-79450Y-3804D01*
X-79383Y-3849D01*
X-79314Y-3891D01*
X-79243Y-3930D01*
X-79171Y-3965D01*
X-79097Y-3997D01*
X-79021Y-4025D01*
X-78944Y-4050D01*
X-78866Y-4071D01*
X-78787Y-4088D01*
X-78708Y-4102D01*
X-78627Y-4111D01*
X-78547Y-4117D01*
X-78466Y-4119D01*
X-76864Y-2975D02*
X-76794Y-2828D01*
X-76729Y-2680D01*
X-76666Y-2531D01*
X-76608Y-2380D01*
X-76553Y-2227D01*
X-76501Y-2073D01*
X-76454Y-1918D01*
X-76410Y-1762D01*
X-76370Y-1605D01*
X-76333Y-1448D01*
X-76300Y-1289D01*
X-76272Y-1129D01*
X-76247Y-969D01*
X-76225Y-808D01*
X-76208Y-647D01*
X-76194Y-486D01*
X-76185Y-324D01*
X-76179Y-162D01*
X-76177Y0D01*
X-76865Y-2975D02*
X-76893Y-3051D01*
X-76924Y-3125D01*
X-76959Y-3198D01*
X-76998Y-3269D01*
X-77040Y-3338D01*
X-77085Y-3405D01*
X-77133Y-3470D01*
X-77184Y-3532D01*
X-77239Y-3592D01*
X-77296Y-3649D01*
X-77355Y-3704D01*
X-77417Y-3755D01*
X-77482Y-3804D01*
X-77549Y-3849D01*
X-77618Y-3891D01*
X-77689Y-3930D01*
X-77761Y-3965D01*
X-77835Y-3997D01*
X-77911Y-4025D01*
X-77988Y-4050D01*
X-78066Y-4071D01*
X-78145Y-4088D01*
X-78225Y-4102D01*
X-78305Y-4111D01*
X-78385Y-4117D01*
X-78466Y-4119D01*
X-80296Y-2288D02*
X-76635Y2288D01*
X-72466Y1373D02*
X-72466Y-2746D01*
X-72464Y-2818D01*
X-72458Y-2890D01*
X-72449Y-2961D01*
X-72436Y-3031D01*
X-72419Y-3101D01*
X-72399Y-3170D01*
X-72375Y-3238D01*
X-72347Y-3304D01*
X-72316Y-3369D01*
X-72282Y-3432D01*
X-72244Y-3494D01*
X-72204Y-3553D01*
X-72160Y-3610D01*
X-72113Y-3665D01*
X-72064Y-3717D01*
X-72012Y-3766D01*
X-71957Y-3813D01*
X-71900Y-3857D01*
X-71841Y-3897D01*
X-71780Y-3935D01*
X-71716Y-3969D01*
X-71651Y-4000D01*
X-71585Y-4028D01*
X-71517Y-4052D01*
X-71448Y-4072D01*
X-71378Y-4089D01*
X-71308Y-4102D01*
X-71237Y-4111D01*
X-71165Y-4117D01*
X-71093Y-4119D01*
X-68805Y-4119D01*
X-68805Y1373D01*
X-64807Y4119D02*
X-64807Y-4119D01*
X-64807Y4119D02*
X-61146Y4119D01*
X-61146Y458D02*
X-64807Y458D01*
D13*
X-75500Y41000D02*
X-75500Y69000D01*
X-75500Y41000D02*
X-54500Y41000D01*
X-54500Y69000D01*
D14*
X-66000Y37000D02*
X-65998Y37063D01*
X-65992Y37125D01*
X-65982Y37187D01*
X-65969Y37249D01*
X-65951Y37309D01*
X-65930Y37368D01*
X-65905Y37426D01*
X-65876Y37482D01*
X-65844Y37536D01*
X-65809Y37588D01*
X-65771Y37637D01*
X-65729Y37685D01*
X-65685Y37729D01*
X-65637Y37771D01*
X-65588Y37809D01*
X-65536Y37844D01*
X-65482Y37876D01*
X-65426Y37905D01*
X-65368Y37930D01*
X-65309Y37951D01*
X-65249Y37969D01*
X-65187Y37982D01*
X-65125Y37992D01*
X-65063Y37998D01*
X-65000Y38000D01*
X-64937Y37998D01*
X-64875Y37992D01*
X-64813Y37982D01*
X-64751Y37969D01*
X-64691Y37951D01*
X-64632Y37930D01*
X-64574Y37905D01*
X-64518Y37876D01*
X-64464Y37844D01*
X-64412Y37809D01*
X-64363Y37771D01*
X-64315Y37729D01*
X-64271Y37685D01*
X-64229Y37637D01*
X-64191Y37588D01*
X-64156Y37536D01*
X-64124Y37482D01*
X-64095Y37426D01*
X-64070Y37368D01*
X-64049Y37309D01*
X-64031Y37249D01*
X-64018Y37187D01*
X-64008Y37125D01*
X-64002Y37063D01*
X-64000Y37000D01*
X-64002Y36937D01*
X-64008Y36875D01*
X-64018Y36813D01*
X-64031Y36751D01*
X-64049Y36691D01*
X-64070Y36632D01*
X-64095Y36574D01*
X-64124Y36518D01*
X-64156Y36464D01*
X-64191Y36412D01*
X-64229Y36363D01*
X-64271Y36315D01*
X-64315Y36271D01*
X-64363Y36229D01*
X-64412Y36191D01*
X-64464Y36156D01*
X-64518Y36124D01*
X-64574Y36095D01*
X-64632Y36070D01*
X-64691Y36049D01*
X-64751Y36031D01*
X-64813Y36018D01*
X-64875Y36008D01*
X-64937Y36002D01*
X-65000Y36000D01*
X-65063Y36002D01*
X-65125Y36008D01*
X-65187Y36018D01*
X-65249Y36031D01*
X-65309Y36049D01*
X-65368Y36070D01*
X-65426Y36095D01*
X-65482Y36124D01*
X-65536Y36156D01*
X-65588Y36191D01*
X-65637Y36229D01*
X-65685Y36271D01*
X-65729Y36315D01*
X-65771Y36363D01*
X-65809Y36412D01*
X-65844Y36464D01*
X-65876Y36518D01*
X-65905Y36574D01*
X-65930Y36632D01*
X-65951Y36691D01*
X-65969Y36751D01*
X-65982Y36813D01*
X-65992Y36875D01*
X-65998Y36937D01*
X-66000Y37000D01*
D11*
X-71473Y34119D02*
X-71473Y25881D01*
X-71473Y34119D02*
X-69185Y34119D01*
X-69090Y34117D01*
X-68996Y34111D01*
X-68902Y34101D01*
X-68808Y34088D01*
X-68715Y34070D01*
X-68623Y34049D01*
X-68532Y34024D01*
X-68442Y33995D01*
X-68353Y33962D01*
X-68266Y33926D01*
X-68180Y33887D01*
X-68096Y33843D01*
X-68014Y33797D01*
X-67934Y33746D01*
X-67856Y33693D01*
X-67780Y33637D01*
X-67706Y33577D01*
X-67635Y33514D01*
X-67567Y33449D01*
X-67502Y33381D01*
X-67439Y33310D01*
X-67379Y33236D01*
X-67323Y33161D01*
X-67270Y33082D01*
X-67219Y33002D01*
X-67173Y32920D01*
X-67129Y32836D01*
X-67090Y32750D01*
X-67054Y32663D01*
X-67021Y32574D01*
X-66992Y32484D01*
X-66967Y32393D01*
X-66946Y32301D01*
X-66928Y32208D01*
X-66915Y32114D01*
X-66905Y32020D01*
X-66899Y31926D01*
X-66897Y31831D01*
X-66897Y28169D01*
X-66899Y28074D01*
X-66905Y27980D01*
X-66915Y27886D01*
X-66928Y27792D01*
X-66946Y27699D01*
X-66967Y27607D01*
X-66992Y27516D01*
X-67021Y27426D01*
X-67054Y27337D01*
X-67090Y27250D01*
X-67129Y27164D01*
X-67173Y27080D01*
X-67219Y26998D01*
X-67270Y26918D01*
X-67323Y26839D01*
X-67379Y26764D01*
X-67439Y26690D01*
X-67502Y26619D01*
X-67567Y26551D01*
X-67635Y26486D01*
X-67706Y26423D01*
X-67780Y26363D01*
X-67856Y26307D01*
X-67934Y26254D01*
X-68014Y26203D01*
X-68096Y26157D01*
X-68180Y26113D01*
X-68266Y26074D01*
X-68353Y26038D01*
X-68442Y26005D01*
X-68532Y25976D01*
X-68623Y25951D01*
X-68715Y25930D01*
X-68808Y25912D01*
X-68902Y25899D01*
X-68996Y25889D01*
X-69090Y25883D01*
X-69185Y25881D01*
X-71473Y25881D01*
X-63103Y32288D02*
X-60815Y34119D01*
X-60815Y25881D01*
X-63103Y25881D02*
X-58527Y25881D01*
D15*
X-66000Y-40500D02*
X-74000Y-40500D01*
X-53500Y-38000D02*
X-53500Y-22000D01*
X-86500Y-22000D02*
X-86500Y-38000D01*
D11*
X-93169Y-36473D02*
X-99119Y-36473D01*
X-93169Y-36473D02*
X-93074Y-36471D01*
X-92980Y-36465D01*
X-92886Y-36455D01*
X-92792Y-36442D01*
X-92699Y-36424D01*
X-92607Y-36403D01*
X-92516Y-36378D01*
X-92426Y-36349D01*
X-92337Y-36316D01*
X-92250Y-36280D01*
X-92164Y-36241D01*
X-92080Y-36197D01*
X-91998Y-36151D01*
X-91918Y-36100D01*
X-91839Y-36047D01*
X-91764Y-35991D01*
X-91690Y-35931D01*
X-91619Y-35868D01*
X-91551Y-35803D01*
X-91486Y-35735D01*
X-91423Y-35664D01*
X-91363Y-35590D01*
X-91307Y-35515D01*
X-91254Y-35436D01*
X-91203Y-35356D01*
X-91157Y-35274D01*
X-91113Y-35190D01*
X-91074Y-35104D01*
X-91038Y-35017D01*
X-91005Y-34928D01*
X-90976Y-34838D01*
X-90951Y-34747D01*
X-90930Y-34655D01*
X-90912Y-34562D01*
X-90899Y-34468D01*
X-90889Y-34374D01*
X-90883Y-34280D01*
X-90881Y-34185D01*
X-90883Y-34090D01*
X-90889Y-33996D01*
X-90899Y-33902D01*
X-90912Y-33808D01*
X-90930Y-33715D01*
X-90951Y-33623D01*
X-90976Y-33532D01*
X-91005Y-33442D01*
X-91038Y-33353D01*
X-91074Y-33266D01*
X-91113Y-33180D01*
X-91157Y-33096D01*
X-91203Y-33014D01*
X-91254Y-32934D01*
X-91307Y-32855D01*
X-91363Y-32780D01*
X-91423Y-32706D01*
X-91486Y-32635D01*
X-91551Y-32567D01*
X-91619Y-32502D01*
X-91690Y-32439D01*
X-91764Y-32379D01*
X-91839Y-32323D01*
X-91918Y-32270D01*
X-91998Y-32219D01*
X-92080Y-32173D01*
X-92164Y-32129D01*
X-92250Y-32090D01*
X-92337Y-32054D01*
X-92426Y-32021D01*
X-92516Y-31992D01*
X-92607Y-31967D01*
X-92699Y-31946D01*
X-92792Y-31928D01*
X-92886Y-31915D01*
X-92980Y-31905D01*
X-93074Y-31899D01*
X-93169Y-31897D01*
X-99119Y-31897D01*
X-97288Y-28103D02*
X-99119Y-25815D01*
X-90881Y-25815D01*
X-90881Y-28103D02*
X-90881Y-23527D01*
D15*
X66000Y-40500D02*
X74000Y-40500D01*
X86500Y-38000D02*
X86500Y-22000D01*
X53500Y-22000D02*
X53500Y-38000D01*
D11*
X90881Y-36473D02*
X96831Y-36473D01*
X96926Y-36471D01*
X97020Y-36465D01*
X97114Y-36455D01*
X97208Y-36442D01*
X97301Y-36424D01*
X97393Y-36403D01*
X97484Y-36378D01*
X97574Y-36349D01*
X97663Y-36316D01*
X97750Y-36280D01*
X97836Y-36241D01*
X97920Y-36197D01*
X98002Y-36151D01*
X98082Y-36100D01*
X98161Y-36047D01*
X98236Y-35991D01*
X98310Y-35931D01*
X98381Y-35868D01*
X98449Y-35803D01*
X98514Y-35735D01*
X98577Y-35664D01*
X98637Y-35590D01*
X98693Y-35515D01*
X98746Y-35436D01*
X98797Y-35356D01*
X98843Y-35274D01*
X98887Y-35190D01*
X98926Y-35104D01*
X98962Y-35017D01*
X98995Y-34928D01*
X99024Y-34838D01*
X99049Y-34747D01*
X99070Y-34655D01*
X99088Y-34562D01*
X99101Y-34468D01*
X99111Y-34374D01*
X99117Y-34280D01*
X99119Y-34185D01*
X99117Y-34090D01*
X99111Y-33996D01*
X99101Y-33902D01*
X99088Y-33808D01*
X99070Y-33715D01*
X99049Y-33623D01*
X99024Y-33532D01*
X98995Y-33442D01*
X98962Y-33353D01*
X98926Y-33266D01*
X98887Y-33180D01*
X98843Y-33096D01*
X98797Y-33014D01*
X98746Y-32934D01*
X98693Y-32855D01*
X98637Y-32780D01*
X98577Y-32706D01*
X98514Y-32635D01*
X98449Y-32567D01*
X98381Y-32502D01*
X98310Y-32439D01*
X98236Y-32379D01*
X98161Y-32323D01*
X98082Y-32270D01*
X98002Y-32219D01*
X97920Y-32173D01*
X97836Y-32129D01*
X97750Y-32090D01*
X97663Y-32054D01*
X97574Y-32021D01*
X97484Y-31992D01*
X97393Y-31967D01*
X97301Y-31946D01*
X97208Y-31928D01*
X97114Y-31915D01*
X97020Y-31905D01*
X96926Y-31899D01*
X96831Y-31897D01*
X90881Y-31897D01*
X90881Y-26273D02*
X97288Y-28103D01*
X97288Y-23527D01*
X95458Y-24900D02*
X99119Y-24900D01*
D12*
X85000Y6100D02*
X65000Y6100D01*
X65000Y23900D02*
X85000Y23900D01*
D11*
X99119Y12986D02*
X99119Y11155D01*
X99117Y11070D01*
X99111Y10986D01*
X99101Y10902D01*
X99088Y10819D01*
X99070Y10736D01*
X99049Y10654D01*
X99024Y10573D01*
X98995Y10494D01*
X98963Y10415D01*
X98927Y10339D01*
X98888Y10264D01*
X98845Y10191D01*
X98799Y10120D01*
X98749Y10052D01*
X98697Y9985D01*
X98641Y9921D01*
X98583Y9860D01*
X98522Y9802D01*
X98458Y9746D01*
X98391Y9694D01*
X98323Y9644D01*
X98252Y9598D01*
X98179Y9555D01*
X98104Y9516D01*
X98028Y9480D01*
X97949Y9448D01*
X97870Y9419D01*
X97789Y9394D01*
X97707Y9373D01*
X97624Y9355D01*
X97541Y9342D01*
X97457Y9332D01*
X97373Y9326D01*
X97288Y9324D01*
X97288Y9325D02*
X92712Y9325D01*
X92712Y9324D02*
X92627Y9326D01*
X92543Y9332D01*
X92459Y9342D01*
X92376Y9355D01*
X92293Y9373D01*
X92211Y9394D01*
X92130Y9419D01*
X92051Y9448D01*
X91972Y9480D01*
X91896Y9516D01*
X91821Y9555D01*
X91748Y9598D01*
X91677Y9644D01*
X91609Y9694D01*
X91542Y9746D01*
X91478Y9802D01*
X91417Y9860D01*
X91359Y9921D01*
X91303Y9985D01*
X91251Y10052D01*
X91201Y10120D01*
X91155Y10191D01*
X91112Y10264D01*
X91073Y10339D01*
X91037Y10415D01*
X91005Y10494D01*
X90976Y10573D01*
X90951Y10654D01*
X90930Y10736D01*
X90912Y10819D01*
X90899Y10902D01*
X90889Y10986D01*
X90883Y11070D01*
X90881Y11155D01*
X90881Y12986D01*
X96831Y16099D02*
X96736Y16101D01*
X96642Y16107D01*
X96548Y16117D01*
X96454Y16130D01*
X96361Y16148D01*
X96269Y16169D01*
X96178Y16194D01*
X96088Y16223D01*
X95999Y16256D01*
X95912Y16292D01*
X95826Y16331D01*
X95742Y16375D01*
X95660Y16421D01*
X95580Y16472D01*
X95501Y16525D01*
X95426Y16581D01*
X95352Y16641D01*
X95281Y16704D01*
X95213Y16769D01*
X95148Y16837D01*
X95085Y16908D01*
X95025Y16982D01*
X94969Y17057D01*
X94916Y17136D01*
X94865Y17216D01*
X94819Y17298D01*
X94775Y17382D01*
X94736Y17468D01*
X94700Y17555D01*
X94667Y17644D01*
X94638Y17734D01*
X94613Y17825D01*
X94592Y17917D01*
X94574Y18010D01*
X94561Y18104D01*
X94551Y18198D01*
X94545Y18292D01*
X94543Y18387D01*
X94545Y18482D01*
X94551Y18576D01*
X94561Y18670D01*
X94574Y18764D01*
X94592Y18857D01*
X94613Y18949D01*
X94638Y19040D01*
X94667Y19130D01*
X94700Y19219D01*
X94736Y19306D01*
X94775Y19392D01*
X94819Y19476D01*
X94865Y19558D01*
X94916Y19638D01*
X94969Y19717D01*
X95025Y19792D01*
X95085Y19866D01*
X95148Y19937D01*
X95213Y20005D01*
X95281Y20070D01*
X95352Y20133D01*
X95426Y20193D01*
X95501Y20249D01*
X95580Y20302D01*
X95660Y20353D01*
X95742Y20399D01*
X95826Y20443D01*
X95912Y20482D01*
X95999Y20518D01*
X96088Y20551D01*
X96178Y20580D01*
X96269Y20605D01*
X96361Y20626D01*
X96454Y20644D01*
X96548Y20657D01*
X96642Y20667D01*
X96736Y20673D01*
X96831Y20675D01*
X96926Y20673D01*
X97020Y20667D01*
X97114Y20657D01*
X97208Y20644D01*
X97301Y20626D01*
X97393Y20605D01*
X97484Y20580D01*
X97574Y20551D01*
X97663Y20518D01*
X97750Y20482D01*
X97836Y20443D01*
X97920Y20399D01*
X98002Y20353D01*
X98082Y20302D01*
X98161Y20249D01*
X98236Y20193D01*
X98310Y20133D01*
X98381Y20070D01*
X98449Y20005D01*
X98514Y19937D01*
X98577Y19866D01*
X98637Y19792D01*
X98693Y19717D01*
X98746Y19638D01*
X98797Y19558D01*
X98843Y19476D01*
X98887Y19392D01*
X98926Y19306D01*
X98962Y19219D01*
X98995Y19130D01*
X99024Y19040D01*
X99049Y18949D01*
X99070Y18857D01*
X99088Y18764D01*
X99101Y18670D01*
X99111Y18576D01*
X99117Y18482D01*
X99119Y18387D01*
X99117Y18292D01*
X99111Y18198D01*
X99101Y18104D01*
X99088Y18010D01*
X99070Y17917D01*
X99049Y17825D01*
X99024Y17734D01*
X98995Y17644D01*
X98962Y17555D01*
X98926Y17468D01*
X98887Y17382D01*
X98843Y17298D01*
X98797Y17216D01*
X98746Y17136D01*
X98693Y17057D01*
X98637Y16982D01*
X98577Y16908D01*
X98514Y16837D01*
X98449Y16769D01*
X98381Y16704D01*
X98310Y16641D01*
X98236Y16581D01*
X98161Y16525D01*
X98082Y16472D01*
X98002Y16421D01*
X97920Y16375D01*
X97836Y16331D01*
X97750Y16292D01*
X97663Y16256D01*
X97574Y16223D01*
X97484Y16194D01*
X97393Y16169D01*
X97301Y16148D01*
X97208Y16130D01*
X97114Y16117D01*
X97020Y16107D01*
X96926Y16101D01*
X96831Y16099D01*
X92712Y16556D02*
X92627Y16558D01*
X92543Y16564D01*
X92459Y16574D01*
X92376Y16587D01*
X92293Y16605D01*
X92211Y16626D01*
X92130Y16651D01*
X92051Y16680D01*
X91972Y16712D01*
X91896Y16748D01*
X91821Y16787D01*
X91748Y16830D01*
X91677Y16876D01*
X91609Y16926D01*
X91542Y16978D01*
X91478Y17034D01*
X91417Y17092D01*
X91359Y17153D01*
X91303Y17217D01*
X91251Y17284D01*
X91201Y17352D01*
X91155Y17423D01*
X91112Y17496D01*
X91073Y17571D01*
X91037Y17647D01*
X91005Y17726D01*
X90976Y17805D01*
X90951Y17886D01*
X90930Y17968D01*
X90912Y18051D01*
X90899Y18134D01*
X90889Y18218D01*
X90883Y18302D01*
X90881Y18387D01*
X90883Y18472D01*
X90889Y18556D01*
X90899Y18640D01*
X90912Y18723D01*
X90930Y18806D01*
X90951Y18888D01*
X90976Y18969D01*
X91005Y19048D01*
X91037Y19127D01*
X91073Y19203D01*
X91112Y19278D01*
X91155Y19351D01*
X91201Y19422D01*
X91251Y19490D01*
X91303Y19557D01*
X91359Y19621D01*
X91417Y19682D01*
X91478Y19740D01*
X91542Y19796D01*
X91609Y19848D01*
X91677Y19898D01*
X91748Y19944D01*
X91821Y19987D01*
X91896Y20026D01*
X91972Y20062D01*
X92051Y20094D01*
X92130Y20123D01*
X92211Y20148D01*
X92293Y20169D01*
X92376Y20187D01*
X92459Y20200D01*
X92543Y20210D01*
X92627Y20216D01*
X92712Y20218D01*
X92797Y20216D01*
X92881Y20210D01*
X92965Y20200D01*
X93048Y20187D01*
X93131Y20169D01*
X93213Y20148D01*
X93294Y20123D01*
X93373Y20094D01*
X93452Y20062D01*
X93528Y20026D01*
X93603Y19987D01*
X93676Y19944D01*
X93747Y19898D01*
X93815Y19848D01*
X93882Y19796D01*
X93946Y19740D01*
X94007Y19682D01*
X94065Y19621D01*
X94121Y19557D01*
X94173Y19490D01*
X94223Y19422D01*
X94269Y19351D01*
X94312Y19278D01*
X94351Y19203D01*
X94387Y19127D01*
X94419Y19048D01*
X94448Y18969D01*
X94473Y18888D01*
X94494Y18806D01*
X94512Y18723D01*
X94525Y18640D01*
X94535Y18556D01*
X94541Y18472D01*
X94543Y18387D01*
X94541Y18302D01*
X94535Y18218D01*
X94525Y18134D01*
X94512Y18051D01*
X94494Y17968D01*
X94473Y17886D01*
X94448Y17805D01*
X94419Y17726D01*
X94387Y17647D01*
X94351Y17571D01*
X94312Y17496D01*
X94269Y17423D01*
X94223Y17352D01*
X94173Y17284D01*
X94121Y17217D01*
X94065Y17153D01*
X94007Y17092D01*
X93946Y17034D01*
X93882Y16978D01*
X93815Y16926D01*
X93747Y16876D01*
X93676Y16830D01*
X93603Y16787D01*
X93528Y16748D01*
X93452Y16712D01*
X93373Y16680D01*
X93294Y16651D01*
X93213Y16626D01*
X93131Y16605D01*
X93048Y16587D01*
X92965Y16574D01*
X92881Y16564D01*
X92797Y16558D01*
X92712Y16556D01*
X63434Y4119D02*
X61146Y2288D01*
X63434Y4119D02*
X63434Y-4119D01*
X61146Y-4119D02*
X65723Y-4119D01*
X69246Y0D02*
X69248Y162D01*
X69254Y324D01*
X69263Y486D01*
X69277Y647D01*
X69294Y808D01*
X69316Y969D01*
X69341Y1129D01*
X69369Y1289D01*
X69402Y1448D01*
X69439Y1605D01*
X69479Y1762D01*
X69523Y1918D01*
X69570Y2073D01*
X69622Y2227D01*
X69677Y2380D01*
X69735Y2531D01*
X69797Y2680D01*
X69863Y2828D01*
X69933Y2975D01*
X69932Y2975D02*
X69961Y3051D01*
X69992Y3125D01*
X70027Y3198D01*
X70066Y3269D01*
X70108Y3338D01*
X70153Y3405D01*
X70201Y3470D01*
X70252Y3532D01*
X70306Y3592D01*
X70363Y3649D01*
X70423Y3704D01*
X70485Y3755D01*
X70550Y3804D01*
X70617Y3849D01*
X70686Y3891D01*
X70757Y3930D01*
X70829Y3965D01*
X70903Y3997D01*
X70979Y4025D01*
X71056Y4050D01*
X71134Y4071D01*
X71213Y4088D01*
X71292Y4102D01*
X71373Y4111D01*
X71453Y4117D01*
X71534Y4119D01*
X71615Y4117D01*
X71695Y4111D01*
X71776Y4102D01*
X71855Y4088D01*
X71934Y4071D01*
X72012Y4050D01*
X72089Y4025D01*
X72165Y3997D01*
X72239Y3965D01*
X72311Y3930D01*
X72382Y3891D01*
X72451Y3849D01*
X72518Y3804D01*
X72583Y3755D01*
X72645Y3704D01*
X72705Y3649D01*
X72762Y3592D01*
X72816Y3532D01*
X72867Y3470D01*
X72915Y3405D01*
X72960Y3338D01*
X73002Y3269D01*
X73041Y3198D01*
X73076Y3125D01*
X73107Y3051D01*
X73136Y2975D01*
X73206Y2828D01*
X73272Y2680D01*
X73334Y2531D01*
X73392Y2380D01*
X73447Y2227D01*
X73499Y2073D01*
X73546Y1918D01*
X73590Y1762D01*
X73630Y1605D01*
X73667Y1448D01*
X73700Y1289D01*
X73728Y1129D01*
X73753Y969D01*
X73775Y808D01*
X73792Y647D01*
X73806Y486D01*
X73815Y324D01*
X73821Y162D01*
X73823Y0D01*
X69246Y0D02*
X69248Y-162D01*
X69254Y-324D01*
X69263Y-486D01*
X69277Y-647D01*
X69294Y-808D01*
X69316Y-969D01*
X69341Y-1129D01*
X69369Y-1289D01*
X69402Y-1448D01*
X69439Y-1605D01*
X69479Y-1762D01*
X69523Y-1918D01*
X69570Y-2073D01*
X69622Y-2227D01*
X69677Y-2380D01*
X69735Y-2531D01*
X69798Y-2680D01*
X69863Y-2828D01*
X69933Y-2975D01*
X69961Y-3051D01*
X69992Y-3125D01*
X70027Y-3198D01*
X70066Y-3269D01*
X70108Y-3338D01*
X70153Y-3405D01*
X70201Y-3470D01*
X70252Y-3532D01*
X70307Y-3592D01*
X70364Y-3649D01*
X70423Y-3704D01*
X70485Y-3755D01*
X70550Y-3804D01*
X70617Y-3849D01*
X70686Y-3891D01*
X70757Y-3930D01*
X70829Y-3965D01*
X70903Y-3997D01*
X70979Y-4025D01*
X71056Y-4050D01*
X71134Y-4071D01*
X71213Y-4088D01*
X71292Y-4102D01*
X71373Y-4111D01*
X71453Y-4117D01*
X71534Y-4119D01*
X73136Y-2975D02*
X73206Y-2828D01*
X73271Y-2680D01*
X73334Y-2531D01*
X73392Y-2380D01*
X73447Y-2227D01*
X73499Y-2073D01*
X73546Y-1918D01*
X73590Y-1762D01*
X73630Y-1605D01*
X73667Y-1448D01*
X73700Y-1289D01*
X73728Y-1129D01*
X73753Y-969D01*
X73775Y-808D01*
X73792Y-647D01*
X73806Y-486D01*
X73815Y-324D01*
X73821Y-162D01*
X73823Y0D01*
X73135Y-2975D02*
X73107Y-3051D01*
X73076Y-3125D01*
X73041Y-3198D01*
X73002Y-3269D01*
X72960Y-3338D01*
X72915Y-3405D01*
X72867Y-3470D01*
X72816Y-3532D01*
X72761Y-3592D01*
X72704Y-3649D01*
X72645Y-3704D01*
X72583Y-3755D01*
X72518Y-3804D01*
X72451Y-3849D01*
X72382Y-3891D01*
X72311Y-3930D01*
X72239Y-3965D01*
X72165Y-3997D01*
X72089Y-4025D01*
X72012Y-4050D01*
X71934Y-4071D01*
X71855Y-4088D01*
X71775Y-4102D01*
X71695Y-4111D01*
X71615Y-4117D01*
X71534Y-4119D01*
X69704Y-2288D02*
X73365Y2288D01*
X77534Y1373D02*
X77534Y-2746D01*
X77536Y-2818D01*
X77542Y-2890D01*
X77551Y-2961D01*
X77564Y-3031D01*
X77581Y-3101D01*
X77601Y-3170D01*
X77625Y-3238D01*
X77653Y-3304D01*
X77684Y-3369D01*
X77718Y-3432D01*
X77756Y-3494D01*
X77796Y-3553D01*
X77840Y-3610D01*
X77887Y-3665D01*
X77936Y-3717D01*
X77988Y-3766D01*
X78043Y-3813D01*
X78100Y-3857D01*
X78159Y-3897D01*
X78221Y-3935D01*
X78284Y-3969D01*
X78349Y-4000D01*
X78415Y-4028D01*
X78483Y-4052D01*
X78552Y-4072D01*
X78622Y-4089D01*
X78692Y-4102D01*
X78763Y-4111D01*
X78835Y-4117D01*
X78907Y-4119D01*
X81195Y-4119D01*
X81195Y1373D01*
X85193Y4119D02*
X85193Y-4119D01*
X85193Y4119D02*
X88854Y4119D01*
X88854Y458D02*
X85193Y458D01*
D13*
X54500Y41000D02*
X54500Y69000D01*
X54500Y41000D02*
X75500Y41000D01*
X75500Y69000D01*
D14*
X64000Y37000D02*
X64002Y37063D01*
X64008Y37125D01*
X64018Y37187D01*
X64031Y37249D01*
X64049Y37309D01*
X64070Y37368D01*
X64095Y37426D01*
X64124Y37482D01*
X64156Y37536D01*
X64191Y37588D01*
X64229Y37637D01*
X64271Y37685D01*
X64315Y37729D01*
X64363Y37771D01*
X64412Y37809D01*
X64464Y37844D01*
X64518Y37876D01*
X64574Y37905D01*
X64632Y37930D01*
X64691Y37951D01*
X64751Y37969D01*
X64813Y37982D01*
X64875Y37992D01*
X64937Y37998D01*
X65000Y38000D01*
X65063Y37998D01*
X65125Y37992D01*
X65187Y37982D01*
X65249Y37969D01*
X65309Y37951D01*
X65368Y37930D01*
X65426Y37905D01*
X65482Y37876D01*
X65536Y37844D01*
X65588Y37809D01*
X65637Y37771D01*
X65685Y37729D01*
X65729Y37685D01*
X65771Y37637D01*
X65809Y37588D01*
X65844Y37536D01*
X65876Y37482D01*
X65905Y37426D01*
X65930Y37368D01*
X65951Y37309D01*
X65969Y37249D01*
X65982Y37187D01*
X65992Y37125D01*
X65998Y37063D01*
X66000Y37000D01*
X65998Y36937D01*
X65992Y36875D01*
X65982Y36813D01*
X65969Y36751D01*
X65951Y36691D01*
X65930Y36632D01*
X65905Y36574D01*
X65876Y36518D01*
X65844Y36464D01*
X65809Y36412D01*
X65771Y36363D01*
X65729Y36315D01*
X65685Y36271D01*
X65637Y36229D01*
X65588Y36191D01*
X65536Y36156D01*
X65482Y36124D01*
X65426Y36095D01*
X65368Y36070D01*
X65309Y36049D01*
X65249Y36031D01*
X65187Y36018D01*
X65125Y36008D01*
X65063Y36002D01*
X65000Y36000D01*
X64937Y36002D01*
X64875Y36008D01*
X64813Y36018D01*
X64751Y36031D01*
X64691Y36049D01*
X64632Y36070D01*
X64574Y36095D01*
X64518Y36124D01*
X64464Y36156D01*
X64412Y36191D01*
X64363Y36229D01*
X64315Y36271D01*
X64271Y36315D01*
X64229Y36363D01*
X64191Y36412D01*
X64156Y36464D01*
X64124Y36518D01*
X64095Y36574D01*
X64070Y36632D01*
X64049Y36691D01*
X64031Y36751D01*
X64018Y36813D01*
X64008Y36875D01*
X64002Y36937D01*
X64000Y37000D01*
D11*
X58527Y34119D02*
X58527Y25881D01*
X58527Y34119D02*
X60815Y34119D01*
X60910Y34117D01*
X61004Y34111D01*
X61098Y34101D01*
X61192Y34088D01*
X61285Y34070D01*
X61377Y34049D01*
X61468Y34024D01*
X61558Y33995D01*
X61647Y33962D01*
X61734Y33926D01*
X61820Y33887D01*
X61904Y33843D01*
X61986Y33797D01*
X62066Y33746D01*
X62145Y33693D01*
X62220Y33637D01*
X62294Y33577D01*
X62365Y33514D01*
X62433Y33449D01*
X62498Y33381D01*
X62561Y33310D01*
X62621Y33236D01*
X62677Y33161D01*
X62730Y33082D01*
X62781Y33002D01*
X62827Y32920D01*
X62871Y32836D01*
X62910Y32750D01*
X62946Y32663D01*
X62979Y32574D01*
X63008Y32484D01*
X63033Y32393D01*
X63054Y32301D01*
X63072Y32208D01*
X63085Y32114D01*
X63095Y32020D01*
X63101Y31926D01*
X63103Y31831D01*
X63103Y28169D01*
X63101Y28074D01*
X63095Y27980D01*
X63085Y27886D01*
X63072Y27792D01*
X63054Y27699D01*
X63033Y27607D01*
X63008Y27516D01*
X62979Y27426D01*
X62946Y27337D01*
X62910Y27250D01*
X62871Y27164D01*
X62827Y27080D01*
X62781Y26998D01*
X62730Y26918D01*
X62677Y26839D01*
X62621Y26764D01*
X62561Y26690D01*
X62498Y26619D01*
X62433Y26551D01*
X62365Y26486D01*
X62294Y26423D01*
X62220Y26363D01*
X62145Y26307D01*
X62066Y26254D01*
X61986Y26203D01*
X61904Y26157D01*
X61820Y26113D01*
X61734Y26074D01*
X61647Y26038D01*
X61558Y26005D01*
X61468Y25976D01*
X61377Y25951D01*
X61285Y25930D01*
X61192Y25912D01*
X61098Y25899D01*
X61004Y25889D01*
X60910Y25883D01*
X60815Y25881D01*
X58527Y25881D01*
X66897Y27712D02*
X68727Y34119D01*
X66897Y27712D02*
X71473Y27712D01*
X70100Y29542D02*
X70100Y25881D01*
D16*
X17500Y-192500D02*
X17502Y-192352D01*
X17508Y-192204D01*
X17518Y-192056D01*
X17532Y-191908D01*
X17550Y-191761D01*
X17572Y-191614D01*
X17598Y-191468D01*
X17627Y-191323D01*
X17661Y-191178D01*
X17699Y-191035D01*
X17740Y-190892D01*
X17785Y-190751D01*
X17835Y-190611D01*
X17887Y-190473D01*
X17944Y-190335D01*
X18004Y-190200D01*
X18068Y-190066D01*
X18135Y-189934D01*
X18206Y-189804D01*
X18281Y-189675D01*
X18359Y-189549D01*
X18440Y-189425D01*
X18524Y-189303D01*
X18612Y-189184D01*
X18703Y-189067D01*
X18797Y-188952D01*
X18895Y-188840D01*
X18995Y-188731D01*
X19098Y-188624D01*
X19204Y-188520D01*
X19312Y-188419D01*
X19424Y-188321D01*
X19538Y-188226D01*
X19654Y-188135D01*
X19773Y-188046D01*
X19894Y-187961D01*
X20018Y-187879D01*
X20144Y-187800D01*
X20271Y-187725D01*
X20401Y-187653D01*
X20533Y-187584D01*
X20666Y-187520D01*
X20801Y-187459D01*
X20938Y-187401D01*
X21076Y-187347D01*
X21216Y-187297D01*
X21357Y-187251D01*
X21499Y-187209D01*
X21642Y-187170D01*
X21786Y-187136D01*
X21932Y-187105D01*
X22077Y-187078D01*
X22224Y-187055D01*
X22371Y-187036D01*
X22519Y-187021D01*
X22666Y-187010D01*
X22815Y-187003D01*
X22963Y-187000D01*
X23111Y-187001D01*
X23259Y-187006D01*
X23407Y-187015D01*
X23555Y-187028D01*
X23703Y-187045D01*
X23849Y-187066D01*
X23996Y-187091D01*
X24141Y-187120D01*
X24286Y-187152D01*
X24429Y-187189D01*
X24572Y-187229D01*
X24714Y-187274D01*
X24854Y-187322D01*
X24993Y-187374D01*
X25130Y-187429D01*
X25266Y-187489D01*
X25401Y-187552D01*
X25533Y-187618D01*
X25664Y-187688D01*
X25793Y-187762D01*
X25919Y-187839D01*
X26044Y-187919D01*
X26166Y-188003D01*
X26287Y-188090D01*
X26404Y-188180D01*
X26520Y-188274D01*
X26632Y-188370D01*
X26742Y-188469D01*
X26850Y-188572D01*
X26954Y-188677D01*
X27056Y-188785D01*
X27154Y-188896D01*
X27250Y-189009D01*
X27343Y-189125D01*
X27432Y-189243D01*
X27518Y-189364D01*
X27601Y-189487D01*
X27681Y-189612D01*
X27757Y-189739D01*
X27830Y-189869D01*
X27899Y-190000D01*
X27964Y-190133D01*
X28027Y-190267D01*
X28085Y-190404D01*
X28140Y-190542D01*
X28190Y-190681D01*
X28238Y-190822D01*
X28281Y-190963D01*
X28321Y-191106D01*
X28356Y-191250D01*
X28388Y-191395D01*
X28416Y-191541D01*
X28440Y-191687D01*
X28460Y-191834D01*
X28476Y-191982D01*
X28488Y-192129D01*
X28496Y-192278D01*
X28500Y-192426D01*
X28500Y-192574D01*
X28496Y-192722D01*
X28488Y-192871D01*
X28476Y-193018D01*
X28460Y-193166D01*
X28440Y-193313D01*
X28416Y-193459D01*
X28388Y-193605D01*
X28356Y-193750D01*
X28321Y-193894D01*
X28281Y-194037D01*
X28238Y-194178D01*
X28190Y-194319D01*
X28140Y-194458D01*
X28085Y-194596D01*
X28027Y-194733D01*
X27964Y-194867D01*
X27899Y-195000D01*
X27830Y-195131D01*
X27757Y-195261D01*
X27681Y-195388D01*
X27601Y-195513D01*
X27518Y-195636D01*
X27432Y-195757D01*
X27343Y-195875D01*
X27250Y-195991D01*
X27154Y-196104D01*
X27056Y-196215D01*
X26954Y-196323D01*
X26850Y-196428D01*
X26742Y-196531D01*
X26632Y-196630D01*
X26520Y-196726D01*
X26404Y-196820D01*
X26287Y-196910D01*
X26166Y-196997D01*
X26044Y-197081D01*
X25919Y-197161D01*
X25793Y-197238D01*
X25664Y-197312D01*
X25533Y-197382D01*
X25401Y-197448D01*
X25266Y-197511D01*
X25130Y-197571D01*
X24993Y-197626D01*
X24854Y-197678D01*
X24714Y-197726D01*
X24572Y-197771D01*
X24429Y-197811D01*
X24286Y-197848D01*
X24141Y-197880D01*
X23996Y-197909D01*
X23849Y-197934D01*
X23703Y-197955D01*
X23555Y-197972D01*
X23407Y-197985D01*
X23259Y-197994D01*
X23111Y-197999D01*
X22963Y-198000D01*
X22815Y-197997D01*
X22666Y-197990D01*
X22519Y-197979D01*
X22371Y-197964D01*
X22224Y-197945D01*
X22077Y-197922D01*
X21932Y-197895D01*
X21786Y-197864D01*
X21642Y-197830D01*
X21499Y-197791D01*
X21357Y-197749D01*
X21216Y-197703D01*
X21076Y-197653D01*
X20938Y-197599D01*
X20801Y-197541D01*
X20666Y-197480D01*
X20533Y-197416D01*
X20401Y-197347D01*
X20271Y-197275D01*
X20144Y-197200D01*
X20018Y-197121D01*
X19894Y-197039D01*
X19773Y-196954D01*
X19654Y-196865D01*
X19538Y-196774D01*
X19424Y-196679D01*
X19312Y-196581D01*
X19204Y-196480D01*
X19098Y-196376D01*
X18995Y-196269D01*
X18895Y-196160D01*
X18797Y-196048D01*
X18703Y-195933D01*
X18612Y-195816D01*
X18524Y-195697D01*
X18440Y-195575D01*
X18359Y-195451D01*
X18281Y-195325D01*
X18206Y-195196D01*
X18135Y-195066D01*
X18068Y-194934D01*
X18004Y-194800D01*
X17944Y-194665D01*
X17887Y-194527D01*
X17835Y-194389D01*
X17785Y-194249D01*
X17740Y-194108D01*
X17699Y-193965D01*
X17661Y-193822D01*
X17627Y-193677D01*
X17598Y-193532D01*
X17572Y-193386D01*
X17550Y-193239D01*
X17532Y-193092D01*
X17518Y-192944D01*
X17508Y-192796D01*
X17502Y-192648D01*
X17500Y-192500D01*
X-28500Y-192500D02*
X-28498Y-192352D01*
X-28492Y-192204D01*
X-28482Y-192056D01*
X-28468Y-191908D01*
X-28450Y-191761D01*
X-28428Y-191614D01*
X-28402Y-191468D01*
X-28373Y-191323D01*
X-28339Y-191178D01*
X-28301Y-191035D01*
X-28260Y-190892D01*
X-28215Y-190751D01*
X-28165Y-190611D01*
X-28113Y-190473D01*
X-28056Y-190335D01*
X-27996Y-190200D01*
X-27932Y-190066D01*
X-27865Y-189934D01*
X-27794Y-189804D01*
X-27719Y-189675D01*
X-27641Y-189549D01*
X-27560Y-189425D01*
X-27476Y-189303D01*
X-27388Y-189184D01*
X-27297Y-189067D01*
X-27203Y-188952D01*
X-27105Y-188840D01*
X-27005Y-188731D01*
X-26902Y-188624D01*
X-26796Y-188520D01*
X-26688Y-188419D01*
X-26576Y-188321D01*
X-26462Y-188226D01*
X-26346Y-188135D01*
X-26227Y-188046D01*
X-26106Y-187961D01*
X-25982Y-187879D01*
X-25856Y-187800D01*
X-25729Y-187725D01*
X-25599Y-187653D01*
X-25467Y-187584D01*
X-25334Y-187520D01*
X-25199Y-187459D01*
X-25062Y-187401D01*
X-24924Y-187347D01*
X-24784Y-187297D01*
X-24643Y-187251D01*
X-24501Y-187209D01*
X-24358Y-187170D01*
X-24214Y-187136D01*
X-24068Y-187105D01*
X-23923Y-187078D01*
X-23776Y-187055D01*
X-23629Y-187036D01*
X-23481Y-187021D01*
X-23334Y-187010D01*
X-23185Y-187003D01*
X-23037Y-187000D01*
X-22889Y-187001D01*
X-22741Y-187006D01*
X-22593Y-187015D01*
X-22445Y-187028D01*
X-22297Y-187045D01*
X-22151Y-187066D01*
X-22004Y-187091D01*
X-21859Y-187120D01*
X-21714Y-187152D01*
X-21571Y-187189D01*
X-21428Y-187229D01*
X-21286Y-187274D01*
X-21146Y-187322D01*
X-21007Y-187374D01*
X-20870Y-187429D01*
X-20734Y-187489D01*
X-20599Y-187552D01*
X-20467Y-187618D01*
X-20336Y-187688D01*
X-20207Y-187762D01*
X-20081Y-187839D01*
X-19956Y-187919D01*
X-19834Y-188003D01*
X-19713Y-188090D01*
X-19596Y-188180D01*
X-19480Y-188274D01*
X-19368Y-188370D01*
X-19258Y-188469D01*
X-19150Y-188572D01*
X-19046Y-188677D01*
X-18944Y-188785D01*
X-18846Y-188896D01*
X-18750Y-189009D01*
X-18657Y-189125D01*
X-18568Y-189243D01*
X-18482Y-189364D01*
X-18399Y-189487D01*
X-18319Y-189612D01*
X-18243Y-189739D01*
X-18170Y-189869D01*
X-18101Y-190000D01*
X-18036Y-190133D01*
X-17973Y-190267D01*
X-17915Y-190404D01*
X-17860Y-190542D01*
X-17810Y-190681D01*
X-17762Y-190822D01*
X-17719Y-190963D01*
X-17679Y-191106D01*
X-17644Y-191250D01*
X-17612Y-191395D01*
X-17584Y-191541D01*
X-17560Y-191687D01*
X-17540Y-191834D01*
X-17524Y-191982D01*
X-17512Y-192129D01*
X-17504Y-192278D01*
X-17500Y-192426D01*
X-17500Y-192574D01*
X-17504Y-192722D01*
X-17512Y-192871D01*
X-17524Y-193018D01*
X-17540Y-193166D01*
X-17560Y-193313D01*
X-17584Y-193459D01*
X-17612Y-193605D01*
X-17644Y-193750D01*
X-17679Y-193894D01*
X-17719Y-194037D01*
X-17762Y-194178D01*
X-17810Y-194319D01*
X-17860Y-194458D01*
X-17915Y-194596D01*
X-17973Y-194733D01*
X-18036Y-194867D01*
X-18101Y-195000D01*
X-18170Y-195131D01*
X-18243Y-195261D01*
X-18319Y-195388D01*
X-18399Y-195513D01*
X-18482Y-195636D01*
X-18568Y-195757D01*
X-18657Y-195875D01*
X-18750Y-195991D01*
X-18846Y-196104D01*
X-18944Y-196215D01*
X-19046Y-196323D01*
X-19150Y-196428D01*
X-19258Y-196531D01*
X-19368Y-196630D01*
X-19480Y-196726D01*
X-19596Y-196820D01*
X-19713Y-196910D01*
X-19834Y-196997D01*
X-19956Y-197081D01*
X-20081Y-197161D01*
X-20207Y-197238D01*
X-20336Y-197312D01*
X-20467Y-197382D01*
X-20599Y-197448D01*
X-20734Y-197511D01*
X-20870Y-197571D01*
X-21007Y-197626D01*
X-21146Y-197678D01*
X-21286Y-197726D01*
X-21428Y-197771D01*
X-21571Y-197811D01*
X-21714Y-197848D01*
X-21859Y-197880D01*
X-22004Y-197909D01*
X-22151Y-197934D01*
X-22297Y-197955D01*
X-22445Y-197972D01*
X-22593Y-197985D01*
X-22741Y-197994D01*
X-22889Y-197999D01*
X-23037Y-198000D01*
X-23185Y-197997D01*
X-23334Y-197990D01*
X-23481Y-197979D01*
X-23629Y-197964D01*
X-23776Y-197945D01*
X-23923Y-197922D01*
X-24068Y-197895D01*
X-24214Y-197864D01*
X-24358Y-197830D01*
X-24501Y-197791D01*
X-24643Y-197749D01*
X-24784Y-197703D01*
X-24924Y-197653D01*
X-25062Y-197599D01*
X-25199Y-197541D01*
X-25334Y-197480D01*
X-25467Y-197416D01*
X-25599Y-197347D01*
X-25729Y-197275D01*
X-25856Y-197200D01*
X-25982Y-197121D01*
X-26106Y-197039D01*
X-26227Y-196954D01*
X-26346Y-196865D01*
X-26462Y-196774D01*
X-26576Y-196679D01*
X-26688Y-196581D01*
X-26796Y-196480D01*
X-26902Y-196376D01*
X-27005Y-196269D01*
X-27105Y-196160D01*
X-27203Y-196048D01*
X-27297Y-195933D01*
X-27388Y-195816D01*
X-27476Y-195697D01*
X-27560Y-195575D01*
X-27641Y-195451D01*
X-27719Y-195325D01*
X-27794Y-195196D01*
X-27865Y-195066D01*
X-27932Y-194934D01*
X-27996Y-194800D01*
X-28056Y-194665D01*
X-28113Y-194527D01*
X-28165Y-194389D01*
X-28215Y-194249D01*
X-28260Y-194108D01*
X-28301Y-193965D01*
X-28339Y-193822D01*
X-28373Y-193677D01*
X-28402Y-193532D01*
X-28428Y-193386D01*
X-28450Y-193239D01*
X-28468Y-193092D01*
X-28482Y-192944D01*
X-28492Y-192796D01*
X-28498Y-192648D01*
X-28500Y-192500D01*
D13*
X60000Y-180000D02*
X60000Y-220000D01*
X60000Y-180000D02*
X-60000Y-180000D01*
X-60000Y-220000D01*
D11*
X57205Y-162288D02*
X57205Y-155881D01*
X57205Y-162288D02*
X57203Y-162373D01*
X57197Y-162457D01*
X57187Y-162541D01*
X57174Y-162624D01*
X57156Y-162707D01*
X57135Y-162789D01*
X57110Y-162870D01*
X57081Y-162949D01*
X57049Y-163028D01*
X57013Y-163104D01*
X56974Y-163179D01*
X56931Y-163252D01*
X56885Y-163323D01*
X56835Y-163391D01*
X56783Y-163458D01*
X56727Y-163522D01*
X56669Y-163583D01*
X56608Y-163641D01*
X56544Y-163697D01*
X56477Y-163749D01*
X56409Y-163799D01*
X56338Y-163845D01*
X56265Y-163888D01*
X56190Y-163927D01*
X56114Y-163963D01*
X56035Y-163995D01*
X55956Y-164024D01*
X55875Y-164049D01*
X55793Y-164070D01*
X55710Y-164088D01*
X55627Y-164101D01*
X55543Y-164111D01*
X55459Y-164117D01*
X55374Y-164119D01*
X54459Y-164119D01*
X63482Y-155881D02*
X63572Y-155883D01*
X63662Y-155889D01*
X63751Y-155899D01*
X63840Y-155912D01*
X63928Y-155930D01*
X64015Y-155951D01*
X64101Y-155976D01*
X64187Y-156005D01*
X64270Y-156038D01*
X64353Y-156074D01*
X64433Y-156114D01*
X64512Y-156157D01*
X64589Y-156204D01*
X64664Y-156254D01*
X64736Y-156307D01*
X64806Y-156363D01*
X64874Y-156422D01*
X64939Y-156484D01*
X65001Y-156549D01*
X65060Y-156617D01*
X65116Y-156687D01*
X65169Y-156759D01*
X65219Y-156834D01*
X65266Y-156911D01*
X65309Y-156990D01*
X65349Y-157070D01*
X65385Y-157153D01*
X65418Y-157236D01*
X65447Y-157322D01*
X65472Y-157408D01*
X65493Y-157495D01*
X65511Y-157583D01*
X65524Y-157672D01*
X65534Y-157761D01*
X65540Y-157851D01*
X65542Y-157941D01*
X63482Y-155881D02*
X63381Y-155883D01*
X63281Y-155889D01*
X63180Y-155898D01*
X63080Y-155912D01*
X62981Y-155929D01*
X62882Y-155950D01*
X62784Y-155975D01*
X62688Y-156003D01*
X62592Y-156035D01*
X62498Y-156071D01*
X62405Y-156110D01*
X62314Y-156153D01*
X62224Y-156199D01*
X62136Y-156249D01*
X62050Y-156302D01*
X61967Y-156358D01*
X61885Y-156417D01*
X61806Y-156480D01*
X61729Y-156545D01*
X61655Y-156613D01*
X61583Y-156684D01*
X61514Y-156758D01*
X61449Y-156834D01*
X61385Y-156913D01*
X61326Y-156994D01*
X61269Y-157077D01*
X61215Y-157162D01*
X61165Y-157250D01*
X61118Y-157339D01*
X61074Y-157430D01*
X61034Y-157522D01*
X60998Y-157616D01*
X60965Y-157712D01*
X64854Y-159543D02*
X64918Y-159480D01*
X64979Y-159414D01*
X65037Y-159346D01*
X65093Y-159276D01*
X65145Y-159203D01*
X65195Y-159129D01*
X65242Y-159052D01*
X65285Y-158974D01*
X65325Y-158894D01*
X65362Y-158812D01*
X65396Y-158729D01*
X65426Y-158645D01*
X65453Y-158560D01*
X65476Y-158473D01*
X65496Y-158386D01*
X65512Y-158298D01*
X65525Y-158209D01*
X65534Y-158120D01*
X65539Y-158031D01*
X65541Y-157941D01*
X64855Y-159542D02*
X60964Y-164119D01*
X65541Y-164119D01*
X-91142Y50881D02*
X-91142Y59119D01*
X-88853Y59119D01*
X-88758Y59117D01*
X-88664Y59111D01*
X-88570Y59101D01*
X-88476Y59088D01*
X-88383Y59070D01*
X-88291Y59049D01*
X-88200Y59024D01*
X-88110Y58995D01*
X-88021Y58962D01*
X-87934Y58926D01*
X-87848Y58887D01*
X-87764Y58843D01*
X-87682Y58797D01*
X-87602Y58746D01*
X-87523Y58693D01*
X-87448Y58637D01*
X-87374Y58577D01*
X-87303Y58514D01*
X-87235Y58449D01*
X-87170Y58381D01*
X-87107Y58310D01*
X-87047Y58236D01*
X-86991Y58161D01*
X-86938Y58082D01*
X-86887Y58002D01*
X-86841Y57920D01*
X-86797Y57836D01*
X-86758Y57750D01*
X-86722Y57663D01*
X-86689Y57574D01*
X-86660Y57484D01*
X-86635Y57393D01*
X-86614Y57301D01*
X-86596Y57208D01*
X-86583Y57114D01*
X-86573Y57020D01*
X-86567Y56926D01*
X-86565Y56831D01*
X-86567Y56736D01*
X-86573Y56642D01*
X-86583Y56548D01*
X-86596Y56454D01*
X-86614Y56361D01*
X-86635Y56269D01*
X-86660Y56178D01*
X-86689Y56088D01*
X-86722Y55999D01*
X-86758Y55912D01*
X-86797Y55826D01*
X-86841Y55742D01*
X-86887Y55660D01*
X-86938Y55580D01*
X-86991Y55501D01*
X-87047Y55426D01*
X-87107Y55352D01*
X-87170Y55281D01*
X-87235Y55213D01*
X-87303Y55148D01*
X-87374Y55085D01*
X-87448Y55025D01*
X-87523Y54969D01*
X-87602Y54916D01*
X-87682Y54865D01*
X-87764Y54819D01*
X-87848Y54775D01*
X-87934Y54736D01*
X-88021Y54700D01*
X-88110Y54667D01*
X-88200Y54638D01*
X-88291Y54613D01*
X-88383Y54592D01*
X-88476Y54574D01*
X-88570Y54561D01*
X-88664Y54551D01*
X-88758Y54545D01*
X-88853Y54543D01*
X-88853Y54542D02*
X-91142Y54542D01*
X-83435Y57288D02*
X-81147Y59119D01*
X-81147Y50881D01*
X-83435Y50881D02*
X-78858Y50881D01*
X78858Y50881D02*
X78858Y59119D01*
X81147Y59119D01*
X81242Y59117D01*
X81336Y59111D01*
X81430Y59101D01*
X81524Y59088D01*
X81617Y59070D01*
X81709Y59049D01*
X81800Y59024D01*
X81890Y58995D01*
X81979Y58962D01*
X82066Y58926D01*
X82152Y58887D01*
X82236Y58843D01*
X82318Y58797D01*
X82398Y58746D01*
X82477Y58693D01*
X82552Y58637D01*
X82626Y58577D01*
X82697Y58514D01*
X82765Y58449D01*
X82830Y58381D01*
X82893Y58310D01*
X82953Y58236D01*
X83009Y58161D01*
X83062Y58082D01*
X83113Y58002D01*
X83159Y57920D01*
X83203Y57836D01*
X83242Y57750D01*
X83278Y57663D01*
X83311Y57574D01*
X83340Y57484D01*
X83365Y57393D01*
X83386Y57301D01*
X83404Y57208D01*
X83417Y57114D01*
X83427Y57020D01*
X83433Y56926D01*
X83435Y56831D01*
X83433Y56736D01*
X83427Y56642D01*
X83417Y56548D01*
X83404Y56454D01*
X83386Y56361D01*
X83365Y56269D01*
X83340Y56178D01*
X83311Y56088D01*
X83278Y55999D01*
X83242Y55912D01*
X83203Y55826D01*
X83159Y55742D01*
X83113Y55660D01*
X83062Y55580D01*
X83009Y55501D01*
X82953Y55426D01*
X82893Y55352D01*
X82830Y55281D01*
X82765Y55213D01*
X82697Y55148D01*
X82626Y55085D01*
X82552Y55025D01*
X82477Y54969D01*
X82398Y54916D01*
X82318Y54865D01*
X82236Y54819D01*
X82152Y54775D01*
X82066Y54736D01*
X81979Y54700D01*
X81890Y54667D01*
X81800Y54638D01*
X81709Y54613D01*
X81617Y54592D01*
X81524Y54574D01*
X81430Y54561D01*
X81336Y54551D01*
X81242Y54545D01*
X81147Y54543D01*
X81147Y54542D02*
X78858Y54542D01*
X86565Y52712D02*
X88396Y59119D01*
X86565Y52712D02*
X91142Y52712D01*
X89769Y54542D02*
X89769Y50881D01*
D13*
X-92500Y-110000D02*
X-92498Y-109816D01*
X-92491Y-109632D01*
X-92480Y-109448D01*
X-92464Y-109265D01*
X-92444Y-109082D01*
X-92419Y-108900D01*
X-92390Y-108718D01*
X-92356Y-108537D01*
X-92318Y-108357D01*
X-92275Y-108178D01*
X-92228Y-108000D01*
X-92177Y-107823D01*
X-92121Y-107647D01*
X-92062Y-107473D01*
X-91997Y-107301D01*
X-91929Y-107130D01*
X-91857Y-106961D01*
X-91780Y-106793D01*
X-91699Y-106628D01*
X-91614Y-106465D01*
X-91526Y-106303D01*
X-91433Y-106144D01*
X-91336Y-105988D01*
X-91236Y-105833D01*
X-91132Y-105681D01*
X-91024Y-105532D01*
X-90913Y-105386D01*
X-90798Y-105242D01*
X-90679Y-105101D01*
X-90557Y-104963D01*
X-90432Y-104828D01*
X-90303Y-104697D01*
X-90172Y-104568D01*
X-90037Y-104443D01*
X-89899Y-104321D01*
X-89758Y-104202D01*
X-89614Y-104087D01*
X-89468Y-103976D01*
X-89319Y-103868D01*
X-89167Y-103764D01*
X-89012Y-103664D01*
X-88856Y-103567D01*
X-88697Y-103474D01*
X-88535Y-103386D01*
X-88372Y-103301D01*
X-88207Y-103220D01*
X-88039Y-103143D01*
X-87870Y-103071D01*
X-87699Y-103003D01*
X-87527Y-102938D01*
X-87353Y-102879D01*
X-87177Y-102823D01*
X-87000Y-102772D01*
X-86822Y-102725D01*
X-86643Y-102682D01*
X-86463Y-102644D01*
X-86282Y-102610D01*
X-86100Y-102581D01*
X-85918Y-102556D01*
X-85735Y-102536D01*
X-85552Y-102520D01*
X-85368Y-102509D01*
X-85184Y-102502D01*
X-85000Y-102500D01*
X-84816Y-102502D01*
X-84632Y-102509D01*
X-84448Y-102520D01*
X-84265Y-102536D01*
X-84082Y-102556D01*
X-83900Y-102581D01*
X-83718Y-102610D01*
X-83537Y-102644D01*
X-83357Y-102682D01*
X-83178Y-102725D01*
X-83000Y-102772D01*
X-82823Y-102823D01*
X-82647Y-102879D01*
X-82473Y-102938D01*
X-82301Y-103003D01*
X-82130Y-103071D01*
X-81961Y-103143D01*
X-81793Y-103220D01*
X-81628Y-103301D01*
X-81465Y-103386D01*
X-81303Y-103474D01*
X-81144Y-103567D01*
X-80988Y-103664D01*
X-80833Y-103764D01*
X-80681Y-103868D01*
X-80532Y-103976D01*
X-80386Y-104087D01*
X-80242Y-104202D01*
X-80101Y-104321D01*
X-79963Y-104443D01*
X-79828Y-104568D01*
X-79697Y-104697D01*
X-79568Y-104828D01*
X-79443Y-104963D01*
X-79321Y-105101D01*
X-79202Y-105242D01*
X-79087Y-105386D01*
X-78976Y-105532D01*
X-78868Y-105681D01*
X-78764Y-105833D01*
X-78664Y-105988D01*
X-78567Y-106144D01*
X-78474Y-106303D01*
X-78386Y-106465D01*
X-78301Y-106628D01*
X-78220Y-106793D01*
X-78143Y-106961D01*
X-78071Y-107130D01*
X-78003Y-107301D01*
X-77938Y-107473D01*
X-77879Y-107647D01*
X-77823Y-107823D01*
X-77772Y-108000D01*
X-77725Y-108178D01*
X-77682Y-108357D01*
X-77644Y-108537D01*
X-77610Y-108718D01*
X-77581Y-108900D01*
X-77556Y-109082D01*
X-77536Y-109265D01*
X-77520Y-109448D01*
X-77509Y-109632D01*
X-77502Y-109816D01*
X-77500Y-110000D01*
X-77502Y-110184D01*
X-77509Y-110368D01*
X-77520Y-110552D01*
X-77536Y-110735D01*
X-77556Y-110918D01*
X-77581Y-111100D01*
X-77610Y-111282D01*
X-77644Y-111463D01*
X-77682Y-111643D01*
X-77725Y-111822D01*
X-77772Y-112000D01*
X-77823Y-112177D01*
X-77879Y-112353D01*
X-77938Y-112527D01*
X-78003Y-112699D01*
X-78071Y-112870D01*
X-78143Y-113039D01*
X-78220Y-113207D01*
X-78301Y-113372D01*
X-78386Y-113535D01*
X-78474Y-113697D01*
X-78567Y-113856D01*
X-78664Y-114012D01*
X-78764Y-114167D01*
X-78868Y-114319D01*
X-78976Y-114468D01*
X-79087Y-114614D01*
X-79202Y-114758D01*
X-79321Y-114899D01*
X-79443Y-115037D01*
X-79568Y-115172D01*
X-79697Y-115303D01*
X-79828Y-115432D01*
X-79963Y-115557D01*
X-80101Y-115679D01*
X-80242Y-115798D01*
X-80386Y-115913D01*
X-80532Y-116024D01*
X-80681Y-116132D01*
X-80833Y-116236D01*
X-80988Y-116336D01*
X-81144Y-116433D01*
X-81303Y-116526D01*
X-81465Y-116614D01*
X-81628Y-116699D01*
X-81793Y-116780D01*
X-81961Y-116857D01*
X-82130Y-116929D01*
X-82301Y-116997D01*
X-82473Y-117062D01*
X-82647Y-117121D01*
X-82823Y-117177D01*
X-83000Y-117228D01*
X-83178Y-117275D01*
X-83357Y-117318D01*
X-83537Y-117356D01*
X-83718Y-117390D01*
X-83900Y-117419D01*
X-84082Y-117444D01*
X-84265Y-117464D01*
X-84448Y-117480D01*
X-84632Y-117491D01*
X-84816Y-117498D01*
X-85000Y-117500D01*
X-85184Y-117498D01*
X-85368Y-117491D01*
X-85552Y-117480D01*
X-85735Y-117464D01*
X-85918Y-117444D01*
X-86100Y-117419D01*
X-86282Y-117390D01*
X-86463Y-117356D01*
X-86643Y-117318D01*
X-86822Y-117275D01*
X-87000Y-117228D01*
X-87177Y-117177D01*
X-87353Y-117121D01*
X-87527Y-117062D01*
X-87699Y-116997D01*
X-87870Y-116929D01*
X-88039Y-116857D01*
X-88207Y-116780D01*
X-88372Y-116699D01*
X-88535Y-116614D01*
X-88697Y-116526D01*
X-88856Y-116433D01*
X-89012Y-116336D01*
X-89167Y-116236D01*
X-89319Y-116132D01*
X-89468Y-116024D01*
X-89614Y-115913D01*
X-89758Y-115798D01*
X-89899Y-115679D01*
X-90037Y-115557D01*
X-90172Y-115432D01*
X-90303Y-115303D01*
X-90432Y-115172D01*
X-90557Y-115037D01*
X-90679Y-114899D01*
X-90798Y-114758D01*
X-90913Y-114614D01*
X-91024Y-114468D01*
X-91132Y-114319D01*
X-91236Y-114167D01*
X-91336Y-114012D01*
X-91433Y-113856D01*
X-91526Y-113697D01*
X-91614Y-113535D01*
X-91699Y-113372D01*
X-91780Y-113207D01*
X-91857Y-113039D01*
X-91929Y-112870D01*
X-91997Y-112699D01*
X-92062Y-112527D01*
X-92121Y-112353D01*
X-92177Y-112177D01*
X-92228Y-112000D01*
X-92275Y-111822D01*
X-92318Y-111643D01*
X-92356Y-111463D01*
X-92390Y-111282D01*
X-92419Y-111100D01*
X-92444Y-110918D01*
X-92464Y-110735D01*
X-92480Y-110552D01*
X-92491Y-110368D01*
X-92498Y-110184D01*
X-92500Y-110000D01*
D11*
X-74119Y-116142D02*
X-65881Y-116142D01*
X-74119Y-116142D02*
X-74119Y-113853D01*
X-74117Y-113758D01*
X-74111Y-113664D01*
X-74101Y-113570D01*
X-74088Y-113476D01*
X-74070Y-113383D01*
X-74049Y-113291D01*
X-74024Y-113200D01*
X-73995Y-113110D01*
X-73962Y-113021D01*
X-73926Y-112934D01*
X-73887Y-112848D01*
X-73843Y-112764D01*
X-73797Y-112682D01*
X-73746Y-112602D01*
X-73693Y-112523D01*
X-73637Y-112448D01*
X-73577Y-112374D01*
X-73514Y-112303D01*
X-73449Y-112235D01*
X-73381Y-112170D01*
X-73310Y-112107D01*
X-73236Y-112047D01*
X-73161Y-111991D01*
X-73082Y-111938D01*
X-73002Y-111887D01*
X-72920Y-111841D01*
X-72836Y-111797D01*
X-72750Y-111758D01*
X-72663Y-111722D01*
X-72574Y-111689D01*
X-72484Y-111660D01*
X-72393Y-111635D01*
X-72301Y-111614D01*
X-72208Y-111596D01*
X-72114Y-111583D01*
X-72020Y-111573D01*
X-71926Y-111567D01*
X-71831Y-111565D01*
X-71736Y-111567D01*
X-71642Y-111573D01*
X-71548Y-111583D01*
X-71454Y-111596D01*
X-71361Y-111614D01*
X-71269Y-111635D01*
X-71178Y-111660D01*
X-71088Y-111689D01*
X-70999Y-111722D01*
X-70912Y-111758D01*
X-70826Y-111797D01*
X-70742Y-111841D01*
X-70660Y-111887D01*
X-70580Y-111938D01*
X-70501Y-111991D01*
X-70426Y-112047D01*
X-70352Y-112107D01*
X-70281Y-112170D01*
X-70213Y-112235D01*
X-70148Y-112303D01*
X-70085Y-112374D01*
X-70025Y-112448D01*
X-69969Y-112523D01*
X-69916Y-112602D01*
X-69865Y-112682D01*
X-69819Y-112764D01*
X-69775Y-112848D01*
X-69736Y-112934D01*
X-69700Y-113021D01*
X-69667Y-113110D01*
X-69638Y-113200D01*
X-69613Y-113291D01*
X-69592Y-113383D01*
X-69574Y-113476D01*
X-69561Y-113570D01*
X-69551Y-113664D01*
X-69545Y-113758D01*
X-69543Y-113853D01*
X-69542Y-113853D02*
X-69542Y-116142D01*
X-65881Y-108435D02*
X-65881Y-105689D01*
X-65883Y-105604D01*
X-65889Y-105520D01*
X-65899Y-105436D01*
X-65912Y-105353D01*
X-65930Y-105270D01*
X-65951Y-105188D01*
X-65976Y-105107D01*
X-66005Y-105028D01*
X-66037Y-104949D01*
X-66073Y-104873D01*
X-66112Y-104798D01*
X-66155Y-104725D01*
X-66201Y-104654D01*
X-66251Y-104586D01*
X-66303Y-104519D01*
X-66359Y-104455D01*
X-66417Y-104394D01*
X-66478Y-104336D01*
X-66542Y-104280D01*
X-66609Y-104228D01*
X-66677Y-104178D01*
X-66748Y-104132D01*
X-66821Y-104089D01*
X-66896Y-104050D01*
X-66972Y-104014D01*
X-67051Y-103982D01*
X-67130Y-103953D01*
X-67211Y-103928D01*
X-67293Y-103907D01*
X-67376Y-103889D01*
X-67459Y-103876D01*
X-67543Y-103866D01*
X-67627Y-103860D01*
X-67712Y-103858D01*
X-68627Y-103858D01*
X-68712Y-103860D01*
X-68796Y-103866D01*
X-68880Y-103876D01*
X-68963Y-103889D01*
X-69046Y-103907D01*
X-69128Y-103928D01*
X-69209Y-103953D01*
X-69288Y-103982D01*
X-69367Y-104014D01*
X-69443Y-104050D01*
X-69518Y-104089D01*
X-69591Y-104132D01*
X-69662Y-104178D01*
X-69730Y-104228D01*
X-69797Y-104280D01*
X-69861Y-104336D01*
X-69922Y-104394D01*
X-69980Y-104455D01*
X-70036Y-104519D01*
X-70088Y-104586D01*
X-70138Y-104654D01*
X-70184Y-104725D01*
X-70227Y-104798D01*
X-70266Y-104873D01*
X-70302Y-104949D01*
X-70334Y-105028D01*
X-70363Y-105107D01*
X-70388Y-105188D01*
X-70409Y-105270D01*
X-70427Y-105353D01*
X-70440Y-105436D01*
X-70450Y-105520D01*
X-70456Y-105604D01*
X-70458Y-105689D01*
X-70458Y-108435D01*
X-74119Y-108435D01*
X-74119Y-103858D01*
D13*
X77500Y-110000D02*
X77502Y-109816D01*
X77509Y-109632D01*
X77520Y-109448D01*
X77536Y-109265D01*
X77556Y-109082D01*
X77581Y-108900D01*
X77610Y-108718D01*
X77644Y-108537D01*
X77682Y-108357D01*
X77725Y-108178D01*
X77772Y-108000D01*
X77823Y-107823D01*
X77879Y-107647D01*
X77938Y-107473D01*
X78003Y-107301D01*
X78071Y-107130D01*
X78143Y-106961D01*
X78220Y-106793D01*
X78301Y-106628D01*
X78386Y-106465D01*
X78474Y-106303D01*
X78567Y-106144D01*
X78664Y-105988D01*
X78764Y-105833D01*
X78868Y-105681D01*
X78976Y-105532D01*
X79087Y-105386D01*
X79202Y-105242D01*
X79321Y-105101D01*
X79443Y-104963D01*
X79568Y-104828D01*
X79697Y-104697D01*
X79828Y-104568D01*
X79963Y-104443D01*
X80101Y-104321D01*
X80242Y-104202D01*
X80386Y-104087D01*
X80532Y-103976D01*
X80681Y-103868D01*
X80833Y-103764D01*
X80988Y-103664D01*
X81144Y-103567D01*
X81303Y-103474D01*
X81465Y-103386D01*
X81628Y-103301D01*
X81793Y-103220D01*
X81961Y-103143D01*
X82130Y-103071D01*
X82301Y-103003D01*
X82473Y-102938D01*
X82647Y-102879D01*
X82823Y-102823D01*
X83000Y-102772D01*
X83178Y-102725D01*
X83357Y-102682D01*
X83537Y-102644D01*
X83718Y-102610D01*
X83900Y-102581D01*
X84082Y-102556D01*
X84265Y-102536D01*
X84448Y-102520D01*
X84632Y-102509D01*
X84816Y-102502D01*
X85000Y-102500D01*
X85184Y-102502D01*
X85368Y-102509D01*
X85552Y-102520D01*
X85735Y-102536D01*
X85918Y-102556D01*
X86100Y-102581D01*
X86282Y-102610D01*
X86463Y-102644D01*
X86643Y-102682D01*
X86822Y-102725D01*
X87000Y-102772D01*
X87177Y-102823D01*
X87353Y-102879D01*
X87527Y-102938D01*
X87699Y-103003D01*
X87870Y-103071D01*
X88039Y-103143D01*
X88207Y-103220D01*
X88372Y-103301D01*
X88535Y-103386D01*
X88697Y-103474D01*
X88856Y-103567D01*
X89012Y-103664D01*
X89167Y-103764D01*
X89319Y-103868D01*
X89468Y-103976D01*
X89614Y-104087D01*
X89758Y-104202D01*
X89899Y-104321D01*
X90037Y-104443D01*
X90172Y-104568D01*
X90303Y-104697D01*
X90432Y-104828D01*
X90557Y-104963D01*
X90679Y-105101D01*
X90798Y-105242D01*
X90913Y-105386D01*
X91024Y-105532D01*
X91132Y-105681D01*
X91236Y-105833D01*
X91336Y-105988D01*
X91433Y-106144D01*
X91526Y-106303D01*
X91614Y-106465D01*
X91699Y-106628D01*
X91780Y-106793D01*
X91857Y-106961D01*
X91929Y-107130D01*
X91997Y-107301D01*
X92062Y-107473D01*
X92121Y-107647D01*
X92177Y-107823D01*
X92228Y-108000D01*
X92275Y-108178D01*
X92318Y-108357D01*
X92356Y-108537D01*
X92390Y-108718D01*
X92419Y-108900D01*
X92444Y-109082D01*
X92464Y-109265D01*
X92480Y-109448D01*
X92491Y-109632D01*
X92498Y-109816D01*
X92500Y-110000D01*
X92498Y-110184D01*
X92491Y-110368D01*
X92480Y-110552D01*
X92464Y-110735D01*
X92444Y-110918D01*
X92419Y-111100D01*
X92390Y-111282D01*
X92356Y-111463D01*
X92318Y-111643D01*
X92275Y-111822D01*
X92228Y-112000D01*
X92177Y-112177D01*
X92121Y-112353D01*
X92062Y-112527D01*
X91997Y-112699D01*
X91929Y-112870D01*
X91857Y-113039D01*
X91780Y-113207D01*
X91699Y-113372D01*
X91614Y-113535D01*
X91526Y-113697D01*
X91433Y-113856D01*
X91336Y-114012D01*
X91236Y-114167D01*
X91132Y-114319D01*
X91024Y-114468D01*
X90913Y-114614D01*
X90798Y-114758D01*
X90679Y-114899D01*
X90557Y-115037D01*
X90432Y-115172D01*
X90303Y-115303D01*
X90172Y-115432D01*
X90037Y-115557D01*
X89899Y-115679D01*
X89758Y-115798D01*
X89614Y-115913D01*
X89468Y-116024D01*
X89319Y-116132D01*
X89167Y-116236D01*
X89012Y-116336D01*
X88856Y-116433D01*
X88697Y-116526D01*
X88535Y-116614D01*
X88372Y-116699D01*
X88207Y-116780D01*
X88039Y-116857D01*
X87870Y-116929D01*
X87699Y-116997D01*
X87527Y-117062D01*
X87353Y-117121D01*
X87177Y-117177D01*
X87000Y-117228D01*
X86822Y-117275D01*
X86643Y-117318D01*
X86463Y-117356D01*
X86282Y-117390D01*
X86100Y-117419D01*
X85918Y-117444D01*
X85735Y-117464D01*
X85552Y-117480D01*
X85368Y-117491D01*
X85184Y-117498D01*
X85000Y-117500D01*
X84816Y-117498D01*
X84632Y-117491D01*
X84448Y-117480D01*
X84265Y-117464D01*
X84082Y-117444D01*
X83900Y-117419D01*
X83718Y-117390D01*
X83537Y-117356D01*
X83357Y-117318D01*
X83178Y-117275D01*
X83000Y-117228D01*
X82823Y-117177D01*
X82647Y-117121D01*
X82473Y-117062D01*
X82301Y-116997D01*
X82130Y-116929D01*
X81961Y-116857D01*
X81793Y-116780D01*
X81628Y-116699D01*
X81465Y-116614D01*
X81303Y-116526D01*
X81144Y-116433D01*
X80988Y-116336D01*
X80833Y-116236D01*
X80681Y-116132D01*
X80532Y-116024D01*
X80386Y-115913D01*
X80242Y-115798D01*
X80101Y-115679D01*
X79963Y-115557D01*
X79828Y-115432D01*
X79697Y-115303D01*
X79568Y-115172D01*
X79443Y-115037D01*
X79321Y-114899D01*
X79202Y-114758D01*
X79087Y-114614D01*
X78976Y-114468D01*
X78868Y-114319D01*
X78764Y-114167D01*
X78664Y-114012D01*
X78567Y-113856D01*
X78474Y-113697D01*
X78386Y-113535D01*
X78301Y-113372D01*
X78220Y-113207D01*
X78143Y-113039D01*
X78071Y-112870D01*
X78003Y-112699D01*
X77938Y-112527D01*
X77879Y-112353D01*
X77823Y-112177D01*
X77772Y-112000D01*
X77725Y-111822D01*
X77682Y-111643D01*
X77644Y-111463D01*
X77610Y-111282D01*
X77581Y-111100D01*
X77556Y-110918D01*
X77536Y-110735D01*
X77520Y-110552D01*
X77509Y-110368D01*
X77502Y-110184D01*
X77500Y-110000D01*
D11*
X74119Y-116142D02*
X65881Y-116142D01*
X65881Y-113853D01*
X65883Y-113758D01*
X65889Y-113664D01*
X65899Y-113570D01*
X65912Y-113476D01*
X65930Y-113383D01*
X65951Y-113291D01*
X65976Y-113200D01*
X66005Y-113110D01*
X66038Y-113021D01*
X66074Y-112934D01*
X66113Y-112848D01*
X66157Y-112764D01*
X66203Y-112682D01*
X66254Y-112602D01*
X66307Y-112523D01*
X66363Y-112448D01*
X66423Y-112374D01*
X66486Y-112303D01*
X66551Y-112235D01*
X66619Y-112170D01*
X66690Y-112107D01*
X66764Y-112047D01*
X66839Y-111991D01*
X66918Y-111938D01*
X66998Y-111887D01*
X67080Y-111841D01*
X67164Y-111797D01*
X67250Y-111758D01*
X67337Y-111722D01*
X67426Y-111689D01*
X67516Y-111660D01*
X67607Y-111635D01*
X67699Y-111614D01*
X67792Y-111596D01*
X67886Y-111583D01*
X67980Y-111573D01*
X68074Y-111567D01*
X68169Y-111565D01*
X68264Y-111567D01*
X68358Y-111573D01*
X68452Y-111583D01*
X68546Y-111596D01*
X68639Y-111614D01*
X68731Y-111635D01*
X68822Y-111660D01*
X68912Y-111689D01*
X69001Y-111722D01*
X69088Y-111758D01*
X69174Y-111797D01*
X69258Y-111841D01*
X69340Y-111887D01*
X69420Y-111938D01*
X69499Y-111991D01*
X69574Y-112047D01*
X69648Y-112107D01*
X69719Y-112170D01*
X69787Y-112235D01*
X69852Y-112303D01*
X69915Y-112374D01*
X69975Y-112448D01*
X70031Y-112523D01*
X70084Y-112602D01*
X70135Y-112682D01*
X70181Y-112764D01*
X70225Y-112848D01*
X70264Y-112934D01*
X70300Y-113021D01*
X70333Y-113110D01*
X70362Y-113200D01*
X70387Y-113291D01*
X70408Y-113383D01*
X70426Y-113476D01*
X70439Y-113570D01*
X70449Y-113664D01*
X70455Y-113758D01*
X70457Y-113853D01*
X70458Y-113853D02*
X70458Y-116142D01*
X69542Y-108435D02*
X69542Y-105689D01*
X69544Y-105604D01*
X69550Y-105520D01*
X69560Y-105436D01*
X69573Y-105353D01*
X69591Y-105270D01*
X69612Y-105188D01*
X69637Y-105107D01*
X69666Y-105028D01*
X69698Y-104949D01*
X69734Y-104873D01*
X69773Y-104798D01*
X69816Y-104725D01*
X69862Y-104654D01*
X69912Y-104586D01*
X69964Y-104519D01*
X70020Y-104455D01*
X70078Y-104394D01*
X70139Y-104336D01*
X70203Y-104280D01*
X70270Y-104228D01*
X70338Y-104178D01*
X70409Y-104132D01*
X70482Y-104089D01*
X70557Y-104050D01*
X70633Y-104014D01*
X70712Y-103982D01*
X70791Y-103953D01*
X70872Y-103928D01*
X70954Y-103907D01*
X71037Y-103889D01*
X71120Y-103876D01*
X71204Y-103866D01*
X71288Y-103860D01*
X71373Y-103858D01*
X71831Y-103858D01*
X71831Y-103859D02*
X71926Y-103861D01*
X72020Y-103867D01*
X72114Y-103877D01*
X72208Y-103890D01*
X72301Y-103908D01*
X72393Y-103929D01*
X72484Y-103954D01*
X72574Y-103983D01*
X72663Y-104016D01*
X72750Y-104052D01*
X72836Y-104091D01*
X72920Y-104135D01*
X73002Y-104181D01*
X73082Y-104232D01*
X73161Y-104285D01*
X73236Y-104341D01*
X73310Y-104401D01*
X73381Y-104464D01*
X73449Y-104529D01*
X73514Y-104597D01*
X73577Y-104668D01*
X73637Y-104742D01*
X73693Y-104817D01*
X73746Y-104896D01*
X73797Y-104976D01*
X73843Y-105058D01*
X73887Y-105142D01*
X73926Y-105228D01*
X73962Y-105315D01*
X73995Y-105404D01*
X74024Y-105494D01*
X74049Y-105585D01*
X74070Y-105677D01*
X74088Y-105770D01*
X74101Y-105864D01*
X74111Y-105958D01*
X74117Y-106052D01*
X74119Y-106147D01*
X74117Y-106242D01*
X74111Y-106336D01*
X74101Y-106430D01*
X74088Y-106524D01*
X74070Y-106617D01*
X74049Y-106709D01*
X74024Y-106800D01*
X73995Y-106890D01*
X73962Y-106979D01*
X73926Y-107066D01*
X73887Y-107152D01*
X73843Y-107236D01*
X73797Y-107318D01*
X73746Y-107398D01*
X73693Y-107477D01*
X73637Y-107552D01*
X73577Y-107626D01*
X73514Y-107697D01*
X73449Y-107765D01*
X73381Y-107830D01*
X73310Y-107893D01*
X73236Y-107953D01*
X73161Y-108009D01*
X73082Y-108062D01*
X73002Y-108113D01*
X72920Y-108159D01*
X72836Y-108203D01*
X72750Y-108242D01*
X72663Y-108278D01*
X72574Y-108311D01*
X72484Y-108340D01*
X72393Y-108365D01*
X72301Y-108386D01*
X72208Y-108404D01*
X72114Y-108417D01*
X72020Y-108427D01*
X71926Y-108433D01*
X71831Y-108435D01*
X69542Y-108435D01*
X69422Y-108433D01*
X69303Y-108427D01*
X69183Y-108417D01*
X69064Y-108404D01*
X68946Y-108386D01*
X68828Y-108365D01*
X68711Y-108339D01*
X68594Y-108310D01*
X68479Y-108277D01*
X68365Y-108241D01*
X68252Y-108200D01*
X68141Y-108156D01*
X68031Y-108109D01*
X67923Y-108057D01*
X67816Y-108003D01*
X67712Y-107945D01*
X67609Y-107883D01*
X67508Y-107818D01*
X67410Y-107750D01*
X67313Y-107678D01*
X67220Y-107604D01*
X67128Y-107527D01*
X67039Y-107446D01*
X66953Y-107363D01*
X66870Y-107277D01*
X66790Y-107188D01*
X66712Y-107097D01*
X66638Y-107003D01*
X66566Y-106906D01*
X66498Y-106808D01*
X66433Y-106707D01*
X66372Y-106605D01*
X66313Y-106500D01*
X66259Y-106393D01*
X66207Y-106285D01*
X66160Y-106175D01*
X66116Y-106064D01*
X66075Y-105951D01*
X66039Y-105837D01*
X66006Y-105722D01*
X65977Y-105605D01*
X65951Y-105488D01*
X65930Y-105370D01*
X65912Y-105252D01*
X65899Y-105133D01*
X65889Y-105014D01*
X65883Y-104894D01*
X65881Y-104774D01*
D12*
X-60000Y-73900D02*
X-80000Y-73900D01*
X-80000Y-56100D02*
X-60000Y-56100D01*
D11*
X-85881Y-67014D02*
X-85881Y-68845D01*
X-85883Y-68930D01*
X-85889Y-69014D01*
X-85899Y-69098D01*
X-85912Y-69181D01*
X-85930Y-69264D01*
X-85951Y-69346D01*
X-85976Y-69427D01*
X-86005Y-69506D01*
X-86037Y-69585D01*
X-86073Y-69661D01*
X-86112Y-69736D01*
X-86155Y-69809D01*
X-86201Y-69880D01*
X-86251Y-69948D01*
X-86303Y-70015D01*
X-86359Y-70079D01*
X-86417Y-70140D01*
X-86478Y-70198D01*
X-86542Y-70254D01*
X-86609Y-70306D01*
X-86677Y-70356D01*
X-86748Y-70402D01*
X-86821Y-70445D01*
X-86896Y-70484D01*
X-86972Y-70520D01*
X-87051Y-70552D01*
X-87130Y-70581D01*
X-87211Y-70606D01*
X-87293Y-70627D01*
X-87376Y-70645D01*
X-87459Y-70658D01*
X-87543Y-70668D01*
X-87627Y-70674D01*
X-87712Y-70676D01*
X-87712Y-70675D02*
X-92288Y-70675D01*
X-92288Y-70676D02*
X-92373Y-70674D01*
X-92457Y-70668D01*
X-92541Y-70658D01*
X-92624Y-70645D01*
X-92707Y-70627D01*
X-92789Y-70606D01*
X-92870Y-70581D01*
X-92949Y-70552D01*
X-93028Y-70520D01*
X-93104Y-70484D01*
X-93179Y-70445D01*
X-93252Y-70402D01*
X-93323Y-70356D01*
X-93391Y-70306D01*
X-93458Y-70254D01*
X-93522Y-70198D01*
X-93583Y-70140D01*
X-93641Y-70079D01*
X-93697Y-70015D01*
X-93749Y-69948D01*
X-93799Y-69880D01*
X-93845Y-69809D01*
X-93888Y-69736D01*
X-93927Y-69661D01*
X-93963Y-69585D01*
X-93995Y-69506D01*
X-94024Y-69427D01*
X-94049Y-69346D01*
X-94070Y-69264D01*
X-94088Y-69181D01*
X-94101Y-69098D01*
X-94111Y-69014D01*
X-94117Y-68930D01*
X-94119Y-68845D01*
X-94119Y-67014D01*
X-92288Y-63901D02*
X-94119Y-61613D01*
X-85881Y-61613D01*
X-85881Y-63901D02*
X-85881Y-59325D01*
X-81566Y-75881D02*
X-83854Y-77712D01*
X-81566Y-75881D02*
X-81566Y-84119D01*
X-83854Y-84119D02*
X-79277Y-84119D01*
X-75754Y-80000D02*
X-75752Y-79838D01*
X-75746Y-79676D01*
X-75737Y-79514D01*
X-75723Y-79353D01*
X-75706Y-79192D01*
X-75684Y-79031D01*
X-75659Y-78871D01*
X-75631Y-78711D01*
X-75598Y-78552D01*
X-75561Y-78395D01*
X-75521Y-78238D01*
X-75477Y-78082D01*
X-75430Y-77927D01*
X-75378Y-77773D01*
X-75323Y-77620D01*
X-75265Y-77469D01*
X-75203Y-77320D01*
X-75137Y-77172D01*
X-75067Y-77025D01*
X-75068Y-77025D02*
X-75039Y-76949D01*
X-75008Y-76875D01*
X-74973Y-76802D01*
X-74934Y-76731D01*
X-74892Y-76662D01*
X-74847Y-76595D01*
X-74799Y-76530D01*
X-74748Y-76468D01*
X-74694Y-76408D01*
X-74637Y-76351D01*
X-74577Y-76296D01*
X-74515Y-76245D01*
X-74450Y-76196D01*
X-74383Y-76151D01*
X-74314Y-76109D01*
X-74243Y-76070D01*
X-74171Y-76035D01*
X-74097Y-76003D01*
X-74021Y-75975D01*
X-73944Y-75950D01*
X-73866Y-75929D01*
X-73787Y-75912D01*
X-73708Y-75898D01*
X-73627Y-75889D01*
X-73547Y-75883D01*
X-73466Y-75881D01*
X-73385Y-75883D01*
X-73305Y-75889D01*
X-73225Y-75898D01*
X-73145Y-75912D01*
X-73066Y-75929D01*
X-72988Y-75950D01*
X-72911Y-75975D01*
X-72835Y-76003D01*
X-72761Y-76035D01*
X-72689Y-76070D01*
X-72618Y-76109D01*
X-72549Y-76151D01*
X-72482Y-76196D01*
X-72417Y-76245D01*
X-72355Y-76296D01*
X-72296Y-76351D01*
X-72239Y-76408D01*
X-72184Y-76468D01*
X-72133Y-76530D01*
X-72085Y-76595D01*
X-72040Y-76662D01*
X-71998Y-76731D01*
X-71959Y-76802D01*
X-71924Y-76875D01*
X-71893Y-76949D01*
X-71865Y-77025D01*
X-71864Y-77025D02*
X-71794Y-77172D01*
X-71728Y-77320D01*
X-71666Y-77469D01*
X-71608Y-77620D01*
X-71553Y-77773D01*
X-71501Y-77927D01*
X-71454Y-78082D01*
X-71410Y-78238D01*
X-71370Y-78395D01*
X-71333Y-78552D01*
X-71300Y-78711D01*
X-71272Y-78871D01*
X-71247Y-79031D01*
X-71225Y-79192D01*
X-71208Y-79353D01*
X-71194Y-79514D01*
X-71185Y-79676D01*
X-71179Y-79838D01*
X-71177Y-80000D01*
X-75754Y-80000D02*
X-75752Y-80162D01*
X-75746Y-80324D01*
X-75737Y-80486D01*
X-75723Y-80647D01*
X-75706Y-80808D01*
X-75684Y-80969D01*
X-75659Y-81129D01*
X-75631Y-81289D01*
X-75598Y-81448D01*
X-75561Y-81605D01*
X-75521Y-81762D01*
X-75477Y-81918D01*
X-75430Y-82073D01*
X-75378Y-82227D01*
X-75323Y-82380D01*
X-75265Y-82531D01*
X-75202Y-82680D01*
X-75137Y-82828D01*
X-75067Y-82975D01*
X-75039Y-83051D01*
X-75008Y-83125D01*
X-74973Y-83198D01*
X-74934Y-83269D01*
X-74892Y-83338D01*
X-74847Y-83405D01*
X-74799Y-83470D01*
X-74748Y-83532D01*
X-74693Y-83592D01*
X-74636Y-83649D01*
X-74577Y-83704D01*
X-74515Y-83755D01*
X-74450Y-83804D01*
X-74383Y-83849D01*
X-74314Y-83891D01*
X-74243Y-83930D01*
X-74171Y-83965D01*
X-74097Y-83997D01*
X-74021Y-84025D01*
X-73944Y-84050D01*
X-73866Y-84071D01*
X-73787Y-84088D01*
X-73708Y-84102D01*
X-73627Y-84111D01*
X-73547Y-84117D01*
X-73466Y-84119D01*
X-71864Y-82975D02*
X-71794Y-82828D01*
X-71729Y-82680D01*
X-71666Y-82531D01*
X-71608Y-82380D01*
X-71553Y-82227D01*
X-71501Y-82073D01*
X-71454Y-81918D01*
X-71410Y-81762D01*
X-71370Y-81605D01*
X-71333Y-81448D01*
X-71300Y-81289D01*
X-71272Y-81129D01*
X-71247Y-80969D01*
X-71225Y-80808D01*
X-71208Y-80647D01*
X-71194Y-80486D01*
X-71185Y-80324D01*
X-71179Y-80162D01*
X-71177Y-80000D01*
X-71865Y-82975D02*
X-71893Y-83051D01*
X-71924Y-83125D01*
X-71959Y-83198D01*
X-71998Y-83269D01*
X-72040Y-83338D01*
X-72085Y-83405D01*
X-72133Y-83470D01*
X-72184Y-83532D01*
X-72239Y-83592D01*
X-72296Y-83649D01*
X-72355Y-83704D01*
X-72417Y-83755D01*
X-72482Y-83804D01*
X-72549Y-83849D01*
X-72618Y-83891D01*
X-72689Y-83930D01*
X-72761Y-83965D01*
X-72835Y-83997D01*
X-72911Y-84025D01*
X-72988Y-84050D01*
X-73066Y-84071D01*
X-73145Y-84088D01*
X-73225Y-84102D01*
X-73305Y-84111D01*
X-73385Y-84117D01*
X-73466Y-84119D01*
X-75296Y-82288D02*
X-71635Y-77712D01*
X-67466Y-78627D02*
X-67466Y-82746D01*
X-67464Y-82818D01*
X-67458Y-82890D01*
X-67449Y-82961D01*
X-67436Y-83031D01*
X-67419Y-83101D01*
X-67399Y-83170D01*
X-67375Y-83238D01*
X-67347Y-83304D01*
X-67316Y-83369D01*
X-67282Y-83433D01*
X-67244Y-83494D01*
X-67204Y-83553D01*
X-67160Y-83610D01*
X-67113Y-83665D01*
X-67064Y-83717D01*
X-67012Y-83766D01*
X-66957Y-83813D01*
X-66900Y-83857D01*
X-66841Y-83897D01*
X-66780Y-83935D01*
X-66716Y-83969D01*
X-66651Y-84000D01*
X-66585Y-84028D01*
X-66517Y-84052D01*
X-66448Y-84072D01*
X-66378Y-84089D01*
X-66308Y-84102D01*
X-66237Y-84111D01*
X-66165Y-84117D01*
X-66093Y-84119D01*
X-63805Y-84119D01*
X-63805Y-78627D01*
X-59807Y-75881D02*
X-59807Y-84119D01*
X-59807Y-75881D02*
X-56146Y-75881D01*
X-56146Y-79542D02*
X-59807Y-79542D01*
D12*
X60000Y-73900D02*
X80000Y-73900D01*
X80000Y-56100D02*
X60000Y-56100D01*
D11*
X94119Y-67014D02*
X94119Y-68845D01*
X94117Y-68930D01*
X94111Y-69014D01*
X94101Y-69098D01*
X94088Y-69181D01*
X94070Y-69264D01*
X94049Y-69346D01*
X94024Y-69427D01*
X93995Y-69506D01*
X93963Y-69585D01*
X93927Y-69661D01*
X93888Y-69736D01*
X93845Y-69809D01*
X93799Y-69880D01*
X93749Y-69948D01*
X93697Y-70015D01*
X93641Y-70079D01*
X93583Y-70140D01*
X93522Y-70198D01*
X93458Y-70254D01*
X93391Y-70306D01*
X93323Y-70356D01*
X93252Y-70402D01*
X93179Y-70445D01*
X93104Y-70484D01*
X93028Y-70520D01*
X92949Y-70552D01*
X92870Y-70581D01*
X92789Y-70606D01*
X92707Y-70627D01*
X92624Y-70645D01*
X92541Y-70658D01*
X92457Y-70668D01*
X92373Y-70674D01*
X92288Y-70676D01*
X92288Y-70675D02*
X87712Y-70675D01*
X87712Y-70676D02*
X87627Y-70674D01*
X87543Y-70668D01*
X87459Y-70658D01*
X87376Y-70645D01*
X87293Y-70627D01*
X87211Y-70606D01*
X87130Y-70581D01*
X87051Y-70552D01*
X86972Y-70520D01*
X86896Y-70484D01*
X86821Y-70445D01*
X86748Y-70402D01*
X86677Y-70356D01*
X86609Y-70306D01*
X86542Y-70254D01*
X86478Y-70198D01*
X86417Y-70140D01*
X86359Y-70079D01*
X86303Y-70015D01*
X86251Y-69948D01*
X86201Y-69880D01*
X86155Y-69809D01*
X86112Y-69736D01*
X86073Y-69661D01*
X86037Y-69585D01*
X86005Y-69506D01*
X85976Y-69427D01*
X85951Y-69346D01*
X85930Y-69264D01*
X85912Y-69181D01*
X85899Y-69098D01*
X85889Y-69014D01*
X85883Y-68930D01*
X85881Y-68845D01*
X85881Y-67014D01*
X94119Y-63901D02*
X94119Y-61613D01*
X94117Y-61518D01*
X94111Y-61424D01*
X94101Y-61330D01*
X94088Y-61236D01*
X94070Y-61143D01*
X94049Y-61051D01*
X94024Y-60960D01*
X93995Y-60870D01*
X93962Y-60781D01*
X93926Y-60694D01*
X93887Y-60608D01*
X93843Y-60524D01*
X93797Y-60442D01*
X93746Y-60362D01*
X93693Y-60283D01*
X93637Y-60208D01*
X93577Y-60134D01*
X93514Y-60063D01*
X93449Y-59995D01*
X93381Y-59930D01*
X93310Y-59867D01*
X93236Y-59807D01*
X93161Y-59751D01*
X93082Y-59698D01*
X93002Y-59647D01*
X92920Y-59601D01*
X92836Y-59557D01*
X92750Y-59518D01*
X92663Y-59482D01*
X92574Y-59449D01*
X92484Y-59420D01*
X92393Y-59395D01*
X92301Y-59374D01*
X92208Y-59356D01*
X92114Y-59343D01*
X92020Y-59333D01*
X91926Y-59327D01*
X91831Y-59325D01*
X91736Y-59327D01*
X91642Y-59333D01*
X91548Y-59343D01*
X91454Y-59356D01*
X91361Y-59374D01*
X91269Y-59395D01*
X91178Y-59420D01*
X91088Y-59449D01*
X90999Y-59482D01*
X90912Y-59518D01*
X90826Y-59557D01*
X90742Y-59601D01*
X90660Y-59647D01*
X90580Y-59698D01*
X90501Y-59751D01*
X90426Y-59807D01*
X90352Y-59867D01*
X90281Y-59930D01*
X90213Y-59995D01*
X90148Y-60063D01*
X90085Y-60134D01*
X90025Y-60208D01*
X89969Y-60283D01*
X89916Y-60362D01*
X89865Y-60442D01*
X89819Y-60524D01*
X89775Y-60608D01*
X89736Y-60694D01*
X89700Y-60781D01*
X89667Y-60870D01*
X89638Y-60960D01*
X89613Y-61051D01*
X89592Y-61143D01*
X89574Y-61236D01*
X89561Y-61330D01*
X89551Y-61424D01*
X89545Y-61518D01*
X89543Y-61613D01*
X85881Y-61155D02*
X85881Y-63901D01*
X85881Y-61155D02*
X85883Y-61070D01*
X85889Y-60986D01*
X85899Y-60902D01*
X85912Y-60819D01*
X85930Y-60736D01*
X85951Y-60654D01*
X85976Y-60573D01*
X86005Y-60494D01*
X86037Y-60415D01*
X86073Y-60339D01*
X86112Y-60264D01*
X86155Y-60191D01*
X86201Y-60120D01*
X86251Y-60052D01*
X86303Y-59985D01*
X86359Y-59921D01*
X86417Y-59860D01*
X86478Y-59802D01*
X86542Y-59746D01*
X86609Y-59694D01*
X86677Y-59644D01*
X86748Y-59598D01*
X86821Y-59555D01*
X86896Y-59516D01*
X86972Y-59480D01*
X87051Y-59448D01*
X87130Y-59419D01*
X87211Y-59394D01*
X87293Y-59373D01*
X87376Y-59355D01*
X87459Y-59342D01*
X87543Y-59332D01*
X87627Y-59326D01*
X87712Y-59324D01*
X87797Y-59326D01*
X87881Y-59332D01*
X87965Y-59342D01*
X88048Y-59355D01*
X88131Y-59373D01*
X88213Y-59394D01*
X88294Y-59419D01*
X88373Y-59448D01*
X88452Y-59480D01*
X88528Y-59516D01*
X88603Y-59555D01*
X88676Y-59598D01*
X88747Y-59644D01*
X88815Y-59694D01*
X88882Y-59746D01*
X88946Y-59802D01*
X89007Y-59860D01*
X89065Y-59921D01*
X89121Y-59985D01*
X89173Y-60052D01*
X89223Y-60120D01*
X89269Y-60191D01*
X89312Y-60264D01*
X89351Y-60339D01*
X89387Y-60415D01*
X89419Y-60494D01*
X89448Y-60573D01*
X89473Y-60654D01*
X89494Y-60736D01*
X89512Y-60819D01*
X89525Y-60902D01*
X89535Y-60986D01*
X89541Y-61070D01*
X89543Y-61155D01*
X89542Y-61155D02*
X89542Y-62986D01*
X58434Y-76314D02*
X56146Y-78145D01*
X58434Y-76314D02*
X58434Y-84552D01*
X56146Y-84552D02*
X60723Y-84552D01*
X64246Y-80433D02*
X64248Y-80271D01*
X64254Y-80109D01*
X64263Y-79947D01*
X64277Y-79786D01*
X64294Y-79625D01*
X64316Y-79464D01*
X64341Y-79304D01*
X64369Y-79144D01*
X64402Y-78985D01*
X64439Y-78828D01*
X64479Y-78671D01*
X64523Y-78515D01*
X64570Y-78360D01*
X64622Y-78206D01*
X64677Y-78053D01*
X64735Y-77902D01*
X64797Y-77753D01*
X64863Y-77605D01*
X64933Y-77458D01*
X64932Y-77458D02*
X64961Y-77382D01*
X64992Y-77308D01*
X65027Y-77235D01*
X65066Y-77164D01*
X65108Y-77095D01*
X65153Y-77028D01*
X65201Y-76963D01*
X65252Y-76901D01*
X65306Y-76841D01*
X65363Y-76784D01*
X65423Y-76729D01*
X65485Y-76678D01*
X65550Y-76629D01*
X65617Y-76584D01*
X65686Y-76542D01*
X65757Y-76503D01*
X65829Y-76468D01*
X65903Y-76436D01*
X65979Y-76408D01*
X66056Y-76383D01*
X66134Y-76362D01*
X66213Y-76345D01*
X66292Y-76331D01*
X66373Y-76322D01*
X66453Y-76316D01*
X66534Y-76314D01*
X66615Y-76316D01*
X66695Y-76322D01*
X66776Y-76331D01*
X66855Y-76345D01*
X66934Y-76362D01*
X67012Y-76383D01*
X67089Y-76408D01*
X67165Y-76436D01*
X67239Y-76468D01*
X67311Y-76503D01*
X67382Y-76542D01*
X67451Y-76584D01*
X67518Y-76629D01*
X67583Y-76678D01*
X67645Y-76729D01*
X67705Y-76784D01*
X67762Y-76841D01*
X67816Y-76901D01*
X67867Y-76963D01*
X67915Y-77028D01*
X67960Y-77095D01*
X68002Y-77164D01*
X68041Y-77235D01*
X68076Y-77308D01*
X68107Y-77382D01*
X68136Y-77458D01*
X68206Y-77605D01*
X68272Y-77753D01*
X68334Y-77902D01*
X68392Y-78053D01*
X68447Y-78206D01*
X68499Y-78360D01*
X68546Y-78515D01*
X68590Y-78671D01*
X68630Y-78828D01*
X68667Y-78985D01*
X68700Y-79144D01*
X68728Y-79304D01*
X68753Y-79464D01*
X68775Y-79625D01*
X68792Y-79786D01*
X68806Y-79947D01*
X68815Y-80109D01*
X68821Y-80271D01*
X68823Y-80433D01*
X64246Y-80433D02*
X64248Y-80595D01*
X64254Y-80757D01*
X64263Y-80919D01*
X64277Y-81080D01*
X64294Y-81241D01*
X64316Y-81402D01*
X64341Y-81562D01*
X64369Y-81722D01*
X64402Y-81881D01*
X64439Y-82038D01*
X64479Y-82195D01*
X64523Y-82351D01*
X64570Y-82506D01*
X64622Y-82660D01*
X64677Y-82813D01*
X64735Y-82964D01*
X64798Y-83113D01*
X64863Y-83261D01*
X64933Y-83408D01*
X64961Y-83484D01*
X64992Y-83558D01*
X65027Y-83631D01*
X65066Y-83702D01*
X65108Y-83771D01*
X65153Y-83838D01*
X65201Y-83903D01*
X65252Y-83965D01*
X65307Y-84025D01*
X65364Y-84082D01*
X65423Y-84137D01*
X65485Y-84188D01*
X65550Y-84237D01*
X65617Y-84282D01*
X65686Y-84324D01*
X65757Y-84363D01*
X65829Y-84398D01*
X65903Y-84430D01*
X65979Y-84458D01*
X66056Y-84483D01*
X66134Y-84504D01*
X66213Y-84521D01*
X66292Y-84535D01*
X66373Y-84544D01*
X66453Y-84550D01*
X66534Y-84552D01*
X68136Y-83408D02*
X68206Y-83261D01*
X68271Y-83113D01*
X68334Y-82964D01*
X68392Y-82813D01*
X68447Y-82660D01*
X68499Y-82506D01*
X68546Y-82351D01*
X68590Y-82195D01*
X68630Y-82038D01*
X68667Y-81881D01*
X68700Y-81722D01*
X68728Y-81562D01*
X68753Y-81402D01*
X68775Y-81241D01*
X68792Y-81080D01*
X68806Y-80919D01*
X68815Y-80757D01*
X68821Y-80595D01*
X68823Y-80433D01*
X68135Y-83408D02*
X68107Y-83484D01*
X68076Y-83558D01*
X68041Y-83631D01*
X68002Y-83702D01*
X67960Y-83771D01*
X67915Y-83838D01*
X67867Y-83903D01*
X67816Y-83965D01*
X67761Y-84025D01*
X67704Y-84082D01*
X67645Y-84137D01*
X67583Y-84188D01*
X67518Y-84237D01*
X67451Y-84282D01*
X67382Y-84324D01*
X67311Y-84363D01*
X67239Y-84398D01*
X67165Y-84430D01*
X67089Y-84458D01*
X67012Y-84483D01*
X66934Y-84504D01*
X66855Y-84521D01*
X66775Y-84535D01*
X66695Y-84544D01*
X66615Y-84550D01*
X66534Y-84552D01*
X64704Y-82721D02*
X68365Y-78145D01*
X72534Y-79060D02*
X72534Y-83179D01*
X72536Y-83251D01*
X72542Y-83323D01*
X72551Y-83394D01*
X72564Y-83464D01*
X72581Y-83534D01*
X72601Y-83603D01*
X72625Y-83671D01*
X72653Y-83737D01*
X72684Y-83802D01*
X72718Y-83866D01*
X72756Y-83927D01*
X72796Y-83986D01*
X72840Y-84043D01*
X72887Y-84098D01*
X72936Y-84150D01*
X72988Y-84199D01*
X73043Y-84246D01*
X73100Y-84290D01*
X73159Y-84330D01*
X73221Y-84368D01*
X73284Y-84402D01*
X73349Y-84433D01*
X73415Y-84461D01*
X73483Y-84485D01*
X73552Y-84505D01*
X73622Y-84522D01*
X73692Y-84535D01*
X73763Y-84544D01*
X73835Y-84550D01*
X73907Y-84552D01*
X76195Y-84552D01*
X76195Y-79060D01*
X80193Y-76314D02*
X80193Y-84552D01*
X80193Y-76314D02*
X83854Y-76314D01*
X83854Y-79975D02*
X80193Y-79975D01*
D17*
X0Y-35000D02*
X-30000Y-5000D01*
X0Y-35000D02*
X-30000Y-65000D01*
X0Y-35000D02*
X30000Y-65000D01*
X0Y-35000D02*
X30000Y-5000D01*
D13*
X-25000Y215500D02*
X-75000Y215500D01*
X-25000Y215500D02*
X-25000Y227500D01*
X-8000Y227500D01*
X-25000Y149500D02*
X-25000Y115000D01*
X-25000Y149500D02*
X-8000Y149500D01*
X-25000Y115000D02*
X-75000Y115000D01*
X-8000Y149500D02*
X-8000Y227500D01*
X-75000Y227500D02*
X-75000Y215500D01*
X-75000Y149500D02*
X-75000Y115000D01*
X-75000Y227500D02*
X-92000Y227500D01*
X-92000Y149500D01*
X-75000Y149500D01*
D11*
X-56142Y80458D02*
X-53853Y80458D01*
X-53853Y80457D02*
X-53758Y80455D01*
X-53664Y80449D01*
X-53570Y80439D01*
X-53476Y80426D01*
X-53383Y80408D01*
X-53291Y80387D01*
X-53200Y80362D01*
X-53110Y80333D01*
X-53021Y80300D01*
X-52934Y80264D01*
X-52848Y80225D01*
X-52764Y80181D01*
X-52682Y80135D01*
X-52602Y80084D01*
X-52523Y80031D01*
X-52448Y79975D01*
X-52374Y79915D01*
X-52303Y79852D01*
X-52235Y79787D01*
X-52170Y79719D01*
X-52107Y79648D01*
X-52047Y79574D01*
X-51991Y79499D01*
X-51938Y79420D01*
X-51887Y79340D01*
X-51841Y79258D01*
X-51797Y79174D01*
X-51758Y79088D01*
X-51722Y79001D01*
X-51689Y78912D01*
X-51660Y78822D01*
X-51635Y78731D01*
X-51614Y78639D01*
X-51596Y78546D01*
X-51583Y78452D01*
X-51573Y78358D01*
X-51567Y78264D01*
X-51565Y78169D01*
X-51567Y78074D01*
X-51573Y77980D01*
X-51583Y77886D01*
X-51596Y77792D01*
X-51614Y77699D01*
X-51635Y77607D01*
X-51660Y77516D01*
X-51689Y77426D01*
X-51722Y77337D01*
X-51758Y77250D01*
X-51797Y77164D01*
X-51841Y77080D01*
X-51887Y76998D01*
X-51938Y76918D01*
X-51991Y76839D01*
X-52047Y76764D01*
X-52107Y76690D01*
X-52170Y76619D01*
X-52235Y76551D01*
X-52303Y76486D01*
X-52374Y76423D01*
X-52448Y76363D01*
X-52523Y76307D01*
X-52602Y76254D01*
X-52682Y76203D01*
X-52764Y76157D01*
X-52848Y76113D01*
X-52934Y76074D01*
X-53021Y76038D01*
X-53110Y76005D01*
X-53200Y75976D01*
X-53291Y75951D01*
X-53383Y75930D01*
X-53476Y75912D01*
X-53570Y75899D01*
X-53664Y75889D01*
X-53758Y75883D01*
X-53853Y75881D01*
X-56142Y75881D01*
X-56142Y84119D01*
X-53853Y84119D01*
X-53768Y84117D01*
X-53684Y84111D01*
X-53600Y84101D01*
X-53517Y84088D01*
X-53434Y84070D01*
X-53352Y84049D01*
X-53271Y84024D01*
X-53192Y83995D01*
X-53113Y83963D01*
X-53037Y83927D01*
X-52962Y83888D01*
X-52889Y83845D01*
X-52818Y83799D01*
X-52750Y83749D01*
X-52683Y83697D01*
X-52619Y83641D01*
X-52558Y83583D01*
X-52500Y83522D01*
X-52444Y83458D01*
X-52392Y83391D01*
X-52342Y83323D01*
X-52296Y83252D01*
X-52253Y83179D01*
X-52214Y83104D01*
X-52178Y83028D01*
X-52146Y82949D01*
X-52117Y82870D01*
X-52092Y82789D01*
X-52071Y82707D01*
X-52053Y82624D01*
X-52040Y82541D01*
X-52030Y82457D01*
X-52024Y82373D01*
X-52022Y82288D01*
X-52024Y82203D01*
X-52030Y82119D01*
X-52040Y82035D01*
X-52053Y81952D01*
X-52071Y81869D01*
X-52092Y81787D01*
X-52117Y81706D01*
X-52146Y81627D01*
X-52178Y81548D01*
X-52214Y81472D01*
X-52253Y81397D01*
X-52296Y81324D01*
X-52342Y81253D01*
X-52392Y81185D01*
X-52444Y81118D01*
X-52500Y81054D01*
X-52558Y80993D01*
X-52619Y80935D01*
X-52683Y80879D01*
X-52750Y80827D01*
X-52818Y80777D01*
X-52889Y80731D01*
X-52962Y80688D01*
X-53037Y80649D01*
X-53113Y80613D01*
X-53192Y80581D01*
X-53271Y80552D01*
X-53352Y80527D01*
X-53434Y80506D01*
X-53517Y80488D01*
X-53600Y80475D01*
X-53684Y80465D01*
X-53768Y80459D01*
X-53853Y80457D01*
X-48435Y82288D02*
X-46147Y84119D01*
X-46147Y75881D01*
X-48435Y75881D02*
X-43858Y75881D01*
D13*
X25000Y215500D02*
X75000Y215500D01*
X75000Y227500D01*
X92000Y227500D01*
X75000Y149500D02*
X75000Y115000D01*
X75000Y149500D02*
X92000Y149500D01*
X75000Y115000D02*
X25000Y115000D01*
X92000Y149500D02*
X92000Y227500D01*
X25000Y227500D02*
X25000Y215500D01*
X25000Y149500D02*
X25000Y115000D01*
X25000Y227500D02*
X8000Y227500D01*
X8000Y149500D01*
X25000Y149500D01*
D11*
X43858Y80458D02*
X46147Y80458D01*
X46147Y80457D02*
X46242Y80455D01*
X46336Y80449D01*
X46430Y80439D01*
X46524Y80426D01*
X46617Y80408D01*
X46709Y80387D01*
X46800Y80362D01*
X46890Y80333D01*
X46979Y80300D01*
X47066Y80264D01*
X47152Y80225D01*
X47236Y80181D01*
X47318Y80135D01*
X47398Y80084D01*
X47477Y80031D01*
X47552Y79975D01*
X47626Y79915D01*
X47697Y79852D01*
X47765Y79787D01*
X47830Y79719D01*
X47893Y79648D01*
X47953Y79574D01*
X48009Y79499D01*
X48062Y79420D01*
X48113Y79340D01*
X48159Y79258D01*
X48203Y79174D01*
X48242Y79088D01*
X48278Y79001D01*
X48311Y78912D01*
X48340Y78822D01*
X48365Y78731D01*
X48386Y78639D01*
X48404Y78546D01*
X48417Y78452D01*
X48427Y78358D01*
X48433Y78264D01*
X48435Y78169D01*
X48433Y78074D01*
X48427Y77980D01*
X48417Y77886D01*
X48404Y77792D01*
X48386Y77699D01*
X48365Y77607D01*
X48340Y77516D01*
X48311Y77426D01*
X48278Y77337D01*
X48242Y77250D01*
X48203Y77164D01*
X48159Y77080D01*
X48113Y76998D01*
X48062Y76918D01*
X48009Y76839D01*
X47953Y76764D01*
X47893Y76690D01*
X47830Y76619D01*
X47765Y76551D01*
X47697Y76486D01*
X47626Y76423D01*
X47552Y76363D01*
X47477Y76307D01*
X47398Y76254D01*
X47318Y76203D01*
X47236Y76157D01*
X47152Y76113D01*
X47066Y76074D01*
X46979Y76038D01*
X46890Y76005D01*
X46800Y75976D01*
X46709Y75951D01*
X46617Y75930D01*
X46524Y75912D01*
X46430Y75899D01*
X46336Y75889D01*
X46242Y75883D01*
X46147Y75881D01*
X43858Y75881D01*
X43858Y84119D01*
X46147Y84119D01*
X46232Y84117D01*
X46316Y84111D01*
X46400Y84101D01*
X46483Y84088D01*
X46566Y84070D01*
X46648Y84049D01*
X46729Y84024D01*
X46808Y83995D01*
X46887Y83963D01*
X46963Y83927D01*
X47038Y83888D01*
X47111Y83845D01*
X47182Y83799D01*
X47250Y83749D01*
X47317Y83697D01*
X47381Y83641D01*
X47442Y83583D01*
X47500Y83522D01*
X47556Y83458D01*
X47608Y83391D01*
X47658Y83323D01*
X47704Y83252D01*
X47747Y83179D01*
X47786Y83104D01*
X47822Y83028D01*
X47854Y82949D01*
X47883Y82870D01*
X47908Y82789D01*
X47929Y82707D01*
X47947Y82624D01*
X47960Y82541D01*
X47970Y82457D01*
X47976Y82373D01*
X47978Y82288D01*
X47976Y82203D01*
X47970Y82119D01*
X47960Y82035D01*
X47947Y81952D01*
X47929Y81869D01*
X47908Y81787D01*
X47883Y81706D01*
X47854Y81627D01*
X47822Y81548D01*
X47786Y81472D01*
X47747Y81397D01*
X47704Y81324D01*
X47658Y81253D01*
X47608Y81185D01*
X47556Y81118D01*
X47500Y81054D01*
X47442Y80993D01*
X47381Y80935D01*
X47317Y80879D01*
X47250Y80827D01*
X47182Y80777D01*
X47111Y80731D01*
X47038Y80688D01*
X46963Y80649D01*
X46887Y80613D01*
X46808Y80581D01*
X46729Y80552D01*
X46648Y80527D01*
X46566Y80506D01*
X46483Y80488D01*
X46400Y80475D01*
X46316Y80465D01*
X46232Y80459D01*
X46147Y80457D01*
X51565Y77712D02*
X53396Y84119D01*
X51565Y77712D02*
X56142Y77712D01*
X54769Y79542D02*
X54769Y75881D01*
D12*
X-20000Y31300D02*
X-40000Y31300D01*
X-40000Y48700D02*
X-20000Y48700D01*
D11*
X-36311Y29119D02*
X-36311Y20881D01*
X-36311Y29119D02*
X-34023Y29119D01*
X-33928Y29117D01*
X-33834Y29111D01*
X-33740Y29101D01*
X-33646Y29088D01*
X-33553Y29070D01*
X-33461Y29049D01*
X-33370Y29024D01*
X-33280Y28995D01*
X-33191Y28962D01*
X-33104Y28926D01*
X-33018Y28887D01*
X-32934Y28843D01*
X-32852Y28797D01*
X-32772Y28746D01*
X-32693Y28693D01*
X-32618Y28637D01*
X-32544Y28577D01*
X-32473Y28514D01*
X-32405Y28449D01*
X-32340Y28381D01*
X-32277Y28310D01*
X-32217Y28236D01*
X-32161Y28161D01*
X-32108Y28082D01*
X-32057Y28002D01*
X-32011Y27920D01*
X-31967Y27836D01*
X-31928Y27750D01*
X-31892Y27663D01*
X-31859Y27574D01*
X-31830Y27484D01*
X-31805Y27393D01*
X-31784Y27301D01*
X-31766Y27208D01*
X-31753Y27114D01*
X-31743Y27020D01*
X-31737Y26926D01*
X-31735Y26831D01*
X-31737Y26736D01*
X-31743Y26642D01*
X-31753Y26548D01*
X-31766Y26454D01*
X-31784Y26361D01*
X-31805Y26269D01*
X-31830Y26178D01*
X-31859Y26088D01*
X-31892Y25999D01*
X-31928Y25912D01*
X-31967Y25826D01*
X-32011Y25742D01*
X-32057Y25660D01*
X-32108Y25580D01*
X-32161Y25501D01*
X-32217Y25426D01*
X-32277Y25352D01*
X-32340Y25281D01*
X-32405Y25213D01*
X-32473Y25148D01*
X-32544Y25085D01*
X-32618Y25025D01*
X-32693Y24969D01*
X-32772Y24916D01*
X-32852Y24865D01*
X-32934Y24819D01*
X-33018Y24775D01*
X-33104Y24736D01*
X-33191Y24700D01*
X-33280Y24667D01*
X-33370Y24638D01*
X-33461Y24613D01*
X-33553Y24592D01*
X-33646Y24574D01*
X-33740Y24561D01*
X-33834Y24551D01*
X-33928Y24545D01*
X-34023Y24543D01*
X-34023Y24542D02*
X-36311Y24542D01*
X-33565Y24542D02*
X-31735Y20881D01*
X-28265Y27288D02*
X-25977Y29119D01*
X-25977Y20881D01*
X-28265Y20881D02*
X-23689Y20881D01*
D12*
X-20000Y51300D02*
X-40000Y51300D01*
X-40000Y68700D02*
X-20000Y68700D01*
D11*
X-36311Y70881D02*
X-36311Y79119D01*
X-34023Y79119D01*
X-33928Y79117D01*
X-33834Y79111D01*
X-33740Y79101D01*
X-33646Y79088D01*
X-33553Y79070D01*
X-33461Y79049D01*
X-33370Y79024D01*
X-33280Y78995D01*
X-33191Y78962D01*
X-33104Y78926D01*
X-33018Y78887D01*
X-32934Y78843D01*
X-32852Y78797D01*
X-32772Y78746D01*
X-32693Y78693D01*
X-32618Y78637D01*
X-32544Y78577D01*
X-32473Y78514D01*
X-32405Y78449D01*
X-32340Y78381D01*
X-32277Y78310D01*
X-32217Y78236D01*
X-32161Y78161D01*
X-32108Y78082D01*
X-32057Y78002D01*
X-32011Y77920D01*
X-31967Y77836D01*
X-31928Y77750D01*
X-31892Y77663D01*
X-31859Y77574D01*
X-31830Y77484D01*
X-31805Y77393D01*
X-31784Y77301D01*
X-31766Y77208D01*
X-31753Y77114D01*
X-31743Y77020D01*
X-31737Y76926D01*
X-31735Y76831D01*
X-31737Y76736D01*
X-31743Y76642D01*
X-31753Y76548D01*
X-31766Y76454D01*
X-31784Y76361D01*
X-31805Y76269D01*
X-31830Y76178D01*
X-31859Y76088D01*
X-31892Y75999D01*
X-31928Y75912D01*
X-31967Y75826D01*
X-32011Y75742D01*
X-32057Y75660D01*
X-32108Y75580D01*
X-32161Y75501D01*
X-32217Y75426D01*
X-32277Y75352D01*
X-32340Y75281D01*
X-32405Y75213D01*
X-32473Y75148D01*
X-32544Y75085D01*
X-32618Y75025D01*
X-32693Y74969D01*
X-32772Y74916D01*
X-32852Y74865D01*
X-32934Y74819D01*
X-33018Y74775D01*
X-33104Y74736D01*
X-33191Y74700D01*
X-33280Y74667D01*
X-33370Y74638D01*
X-33461Y74613D01*
X-33553Y74592D01*
X-33646Y74574D01*
X-33740Y74561D01*
X-33834Y74551D01*
X-33928Y74545D01*
X-34023Y74543D01*
X-34023Y74542D02*
X-36311Y74542D01*
X-33565Y74542D02*
X-31735Y70881D01*
X-23688Y77060D02*
X-23690Y77150D01*
X-23696Y77240D01*
X-23706Y77329D01*
X-23719Y77418D01*
X-23737Y77506D01*
X-23758Y77593D01*
X-23783Y77679D01*
X-23812Y77765D01*
X-23845Y77848D01*
X-23881Y77931D01*
X-23921Y78011D01*
X-23964Y78090D01*
X-24011Y78167D01*
X-24061Y78242D01*
X-24114Y78314D01*
X-24170Y78384D01*
X-24229Y78452D01*
X-24291Y78517D01*
X-24356Y78579D01*
X-24424Y78638D01*
X-24494Y78694D01*
X-24566Y78747D01*
X-24641Y78797D01*
X-24718Y78844D01*
X-24797Y78887D01*
X-24877Y78927D01*
X-24960Y78963D01*
X-25043Y78996D01*
X-25129Y79025D01*
X-25215Y79050D01*
X-25302Y79071D01*
X-25390Y79089D01*
X-25479Y79102D01*
X-25568Y79112D01*
X-25658Y79118D01*
X-25748Y79120D01*
X-25748Y79119D02*
X-25849Y79117D01*
X-25949Y79111D01*
X-26050Y79102D01*
X-26150Y79088D01*
X-26249Y79071D01*
X-26348Y79050D01*
X-26446Y79025D01*
X-26542Y78997D01*
X-26638Y78965D01*
X-26732Y78929D01*
X-26825Y78890D01*
X-26916Y78847D01*
X-27006Y78801D01*
X-27094Y78751D01*
X-27180Y78698D01*
X-27263Y78642D01*
X-27345Y78583D01*
X-27424Y78520D01*
X-27501Y78455D01*
X-27575Y78387D01*
X-27647Y78316D01*
X-27716Y78242D01*
X-27781Y78166D01*
X-27845Y78087D01*
X-27905Y78006D01*
X-27961Y77923D01*
X-28015Y77838D01*
X-28065Y77750D01*
X-28112Y77661D01*
X-28156Y77570D01*
X-28196Y77478D01*
X-28232Y77384D01*
X-28265Y77288D01*
X-24375Y75458D02*
X-24312Y75521D01*
X-24251Y75587D01*
X-24193Y75655D01*
X-24137Y75725D01*
X-24085Y75798D01*
X-24035Y75872D01*
X-23988Y75949D01*
X-23945Y76027D01*
X-23905Y76107D01*
X-23868Y76189D01*
X-23834Y76272D01*
X-23804Y76356D01*
X-23777Y76441D01*
X-23754Y76528D01*
X-23734Y76615D01*
X-23718Y76703D01*
X-23705Y76792D01*
X-23696Y76881D01*
X-23691Y76970D01*
X-23689Y77060D01*
X-24375Y75458D02*
X-28265Y70881D01*
X-23689Y70881D01*
D12*
X20000Y48700D02*
X40000Y48700D01*
X40000Y31300D02*
X20000Y31300D01*
D11*
X23689Y29119D02*
X23689Y20881D01*
X23689Y29119D02*
X25977Y29119D01*
X26072Y29117D01*
X26166Y29111D01*
X26260Y29101D01*
X26354Y29088D01*
X26447Y29070D01*
X26539Y29049D01*
X26630Y29024D01*
X26720Y28995D01*
X26809Y28962D01*
X26896Y28926D01*
X26982Y28887D01*
X27066Y28843D01*
X27148Y28797D01*
X27228Y28746D01*
X27307Y28693D01*
X27382Y28637D01*
X27456Y28577D01*
X27527Y28514D01*
X27595Y28449D01*
X27660Y28381D01*
X27723Y28310D01*
X27783Y28236D01*
X27839Y28161D01*
X27892Y28082D01*
X27943Y28002D01*
X27989Y27920D01*
X28033Y27836D01*
X28072Y27750D01*
X28108Y27663D01*
X28141Y27574D01*
X28170Y27484D01*
X28195Y27393D01*
X28216Y27301D01*
X28234Y27208D01*
X28247Y27114D01*
X28257Y27020D01*
X28263Y26926D01*
X28265Y26831D01*
X28263Y26736D01*
X28257Y26642D01*
X28247Y26548D01*
X28234Y26454D01*
X28216Y26361D01*
X28195Y26269D01*
X28170Y26178D01*
X28141Y26088D01*
X28108Y25999D01*
X28072Y25912D01*
X28033Y25826D01*
X27989Y25742D01*
X27943Y25660D01*
X27892Y25580D01*
X27839Y25501D01*
X27783Y25426D01*
X27723Y25352D01*
X27660Y25281D01*
X27595Y25213D01*
X27527Y25148D01*
X27456Y25085D01*
X27382Y25025D01*
X27307Y24969D01*
X27228Y24916D01*
X27148Y24865D01*
X27066Y24819D01*
X26982Y24775D01*
X26896Y24736D01*
X26809Y24700D01*
X26720Y24667D01*
X26630Y24638D01*
X26539Y24613D01*
X26447Y24592D01*
X26354Y24574D01*
X26260Y24561D01*
X26166Y24551D01*
X26072Y24545D01*
X25977Y24543D01*
X25977Y24542D02*
X23689Y24542D01*
X26435Y24542D02*
X28265Y20881D01*
X31735Y20881D02*
X34023Y20881D01*
X34118Y20883D01*
X34212Y20889D01*
X34306Y20899D01*
X34400Y20912D01*
X34493Y20930D01*
X34585Y20951D01*
X34676Y20976D01*
X34766Y21005D01*
X34855Y21038D01*
X34942Y21074D01*
X35028Y21113D01*
X35112Y21157D01*
X35194Y21203D01*
X35274Y21254D01*
X35353Y21307D01*
X35428Y21363D01*
X35502Y21423D01*
X35573Y21486D01*
X35641Y21551D01*
X35706Y21619D01*
X35769Y21690D01*
X35829Y21764D01*
X35885Y21839D01*
X35938Y21918D01*
X35989Y21998D01*
X36035Y22080D01*
X36079Y22164D01*
X36118Y22250D01*
X36154Y22337D01*
X36187Y22426D01*
X36216Y22516D01*
X36241Y22607D01*
X36262Y22699D01*
X36280Y22792D01*
X36293Y22886D01*
X36303Y22980D01*
X36309Y23074D01*
X36311Y23169D01*
X36309Y23264D01*
X36303Y23358D01*
X36293Y23452D01*
X36280Y23546D01*
X36262Y23639D01*
X36241Y23731D01*
X36216Y23822D01*
X36187Y23912D01*
X36154Y24001D01*
X36118Y24088D01*
X36079Y24174D01*
X36035Y24258D01*
X35989Y24340D01*
X35938Y24420D01*
X35885Y24499D01*
X35829Y24574D01*
X35769Y24648D01*
X35706Y24719D01*
X35641Y24787D01*
X35573Y24852D01*
X35502Y24915D01*
X35428Y24975D01*
X35353Y25031D01*
X35274Y25084D01*
X35194Y25135D01*
X35112Y25181D01*
X35028Y25225D01*
X34942Y25264D01*
X34855Y25300D01*
X34766Y25333D01*
X34676Y25362D01*
X34585Y25387D01*
X34493Y25408D01*
X34400Y25426D01*
X34306Y25439D01*
X34212Y25449D01*
X34118Y25455D01*
X34023Y25457D01*
X34481Y29119D02*
X31735Y29119D01*
X34481Y29119D02*
X34566Y29117D01*
X34650Y29111D01*
X34734Y29101D01*
X34817Y29088D01*
X34900Y29070D01*
X34982Y29049D01*
X35063Y29024D01*
X35142Y28995D01*
X35221Y28963D01*
X35297Y28927D01*
X35372Y28888D01*
X35445Y28845D01*
X35516Y28799D01*
X35584Y28749D01*
X35651Y28697D01*
X35715Y28641D01*
X35776Y28583D01*
X35834Y28522D01*
X35890Y28458D01*
X35942Y28391D01*
X35992Y28323D01*
X36038Y28252D01*
X36081Y28179D01*
X36120Y28104D01*
X36156Y28028D01*
X36188Y27949D01*
X36217Y27870D01*
X36242Y27789D01*
X36263Y27707D01*
X36281Y27624D01*
X36294Y27541D01*
X36304Y27457D01*
X36310Y27373D01*
X36312Y27288D01*
X36310Y27203D01*
X36304Y27119D01*
X36294Y27035D01*
X36281Y26952D01*
X36263Y26869D01*
X36242Y26787D01*
X36217Y26706D01*
X36188Y26627D01*
X36156Y26548D01*
X36120Y26472D01*
X36081Y26397D01*
X36038Y26324D01*
X35992Y26253D01*
X35942Y26185D01*
X35890Y26118D01*
X35834Y26054D01*
X35776Y25993D01*
X35715Y25935D01*
X35651Y25879D01*
X35584Y25827D01*
X35516Y25777D01*
X35445Y25731D01*
X35372Y25688D01*
X35297Y25649D01*
X35221Y25613D01*
X35142Y25581D01*
X35063Y25552D01*
X34982Y25527D01*
X34900Y25506D01*
X34817Y25488D01*
X34734Y25475D01*
X34650Y25465D01*
X34566Y25459D01*
X34481Y25457D01*
X34481Y25458D02*
X32650Y25458D01*
X-2288Y37795D02*
X-4119Y40083D01*
X4119Y40083D01*
X4119Y37795D02*
X4119Y42372D01*
X4119Y45524D02*
X3661Y45524D01*
X3661Y45982D01*
X4119Y45982D01*
X4119Y45524D01*
X-2060Y53712D02*
X-2150Y53710D01*
X-2240Y53704D01*
X-2329Y53694D01*
X-2418Y53681D01*
X-2506Y53663D01*
X-2593Y53642D01*
X-2679Y53617D01*
X-2765Y53588D01*
X-2848Y53555D01*
X-2931Y53519D01*
X-3011Y53479D01*
X-3090Y53436D01*
X-3167Y53389D01*
X-3242Y53339D01*
X-3314Y53286D01*
X-3384Y53230D01*
X-3452Y53171D01*
X-3517Y53109D01*
X-3579Y53044D01*
X-3638Y52976D01*
X-3694Y52906D01*
X-3747Y52834D01*
X-3797Y52759D01*
X-3844Y52682D01*
X-3887Y52603D01*
X-3927Y52523D01*
X-3963Y52440D01*
X-3996Y52357D01*
X-4025Y52271D01*
X-4050Y52185D01*
X-4071Y52098D01*
X-4089Y52010D01*
X-4102Y51921D01*
X-4112Y51832D01*
X-4118Y51742D01*
X-4120Y51652D01*
X-4119Y51652D02*
X-4117Y51551D01*
X-4111Y51451D01*
X-4102Y51350D01*
X-4088Y51250D01*
X-4071Y51151D01*
X-4050Y51052D01*
X-4025Y50954D01*
X-3997Y50858D01*
X-3965Y50762D01*
X-3929Y50668D01*
X-3890Y50575D01*
X-3847Y50484D01*
X-3801Y50394D01*
X-3751Y50306D01*
X-3698Y50220D01*
X-3642Y50137D01*
X-3583Y50055D01*
X-3520Y49976D01*
X-3455Y49899D01*
X-3387Y49825D01*
X-3316Y49753D01*
X-3242Y49684D01*
X-3166Y49619D01*
X-3087Y49555D01*
X-3006Y49496D01*
X-2923Y49439D01*
X-2838Y49385D01*
X-2750Y49335D01*
X-2661Y49288D01*
X-2570Y49244D01*
X-2478Y49204D01*
X-2384Y49168D01*
X-2288Y49135D01*
X-458Y53025D02*
X-521Y53088D01*
X-587Y53149D01*
X-655Y53207D01*
X-725Y53263D01*
X-798Y53315D01*
X-872Y53365D01*
X-949Y53412D01*
X-1027Y53455D01*
X-1107Y53495D01*
X-1189Y53532D01*
X-1272Y53566D01*
X-1356Y53596D01*
X-1441Y53623D01*
X-1528Y53646D01*
X-1615Y53666D01*
X-1703Y53682D01*
X-1792Y53695D01*
X-1881Y53704D01*
X-1970Y53709D01*
X-2060Y53711D01*
X-458Y53025D02*
X4119Y49135D01*
X4119Y53712D01*
X4119Y57628D02*
X-4119Y57628D01*
X-4119Y62205D02*
X915Y57628D01*
X-915Y59459D02*
X4119Y62205D01*
D12*
X20000Y68700D02*
X40000Y68700D01*
X40000Y51300D02*
X20000Y51300D01*
D11*
X23689Y70881D02*
X23689Y79119D01*
X25977Y79119D01*
X26072Y79117D01*
X26166Y79111D01*
X26260Y79101D01*
X26354Y79088D01*
X26447Y79070D01*
X26539Y79049D01*
X26630Y79024D01*
X26720Y78995D01*
X26809Y78962D01*
X26896Y78926D01*
X26982Y78887D01*
X27066Y78843D01*
X27148Y78797D01*
X27228Y78746D01*
X27307Y78693D01*
X27382Y78637D01*
X27456Y78577D01*
X27527Y78514D01*
X27595Y78449D01*
X27660Y78381D01*
X27723Y78310D01*
X27783Y78236D01*
X27839Y78161D01*
X27892Y78082D01*
X27943Y78002D01*
X27989Y77920D01*
X28033Y77836D01*
X28072Y77750D01*
X28108Y77663D01*
X28141Y77574D01*
X28170Y77484D01*
X28195Y77393D01*
X28216Y77301D01*
X28234Y77208D01*
X28247Y77114D01*
X28257Y77020D01*
X28263Y76926D01*
X28265Y76831D01*
X28263Y76736D01*
X28257Y76642D01*
X28247Y76548D01*
X28234Y76454D01*
X28216Y76361D01*
X28195Y76269D01*
X28170Y76178D01*
X28141Y76088D01*
X28108Y75999D01*
X28072Y75912D01*
X28033Y75826D01*
X27989Y75742D01*
X27943Y75660D01*
X27892Y75580D01*
X27839Y75501D01*
X27783Y75426D01*
X27723Y75352D01*
X27660Y75281D01*
X27595Y75213D01*
X27527Y75148D01*
X27456Y75085D01*
X27382Y75025D01*
X27307Y74969D01*
X27228Y74916D01*
X27148Y74865D01*
X27066Y74819D01*
X26982Y74775D01*
X26896Y74736D01*
X26809Y74700D01*
X26720Y74667D01*
X26630Y74638D01*
X26539Y74613D01*
X26447Y74592D01*
X26354Y74574D01*
X26260Y74561D01*
X26166Y74551D01*
X26072Y74545D01*
X25977Y74543D01*
X25977Y74542D02*
X23689Y74542D01*
X26435Y74542D02*
X28265Y70881D01*
X31735Y72712D02*
X33565Y79119D01*
X31735Y72712D02*
X36311Y72712D01*
X34938Y74542D02*
X34938Y70881D01*
D12*
X-20000Y-118700D02*
X-40000Y-118700D01*
X-40000Y-101300D02*
X-20000Y-101300D01*
D11*
X-36311Y-99119D02*
X-36311Y-90881D01*
X-34023Y-90881D01*
X-33928Y-90883D01*
X-33834Y-90889D01*
X-33740Y-90899D01*
X-33646Y-90912D01*
X-33553Y-90930D01*
X-33461Y-90951D01*
X-33370Y-90976D01*
X-33280Y-91005D01*
X-33191Y-91038D01*
X-33104Y-91074D01*
X-33018Y-91113D01*
X-32934Y-91157D01*
X-32852Y-91203D01*
X-32772Y-91254D01*
X-32693Y-91307D01*
X-32618Y-91363D01*
X-32544Y-91423D01*
X-32473Y-91486D01*
X-32405Y-91551D01*
X-32340Y-91619D01*
X-32277Y-91690D01*
X-32217Y-91764D01*
X-32161Y-91839D01*
X-32108Y-91918D01*
X-32057Y-91998D01*
X-32011Y-92080D01*
X-31967Y-92164D01*
X-31928Y-92250D01*
X-31892Y-92337D01*
X-31859Y-92426D01*
X-31830Y-92516D01*
X-31805Y-92607D01*
X-31784Y-92699D01*
X-31766Y-92792D01*
X-31753Y-92886D01*
X-31743Y-92980D01*
X-31737Y-93074D01*
X-31735Y-93169D01*
X-31737Y-93264D01*
X-31743Y-93358D01*
X-31753Y-93452D01*
X-31766Y-93546D01*
X-31784Y-93639D01*
X-31805Y-93731D01*
X-31830Y-93822D01*
X-31859Y-93912D01*
X-31892Y-94001D01*
X-31928Y-94088D01*
X-31967Y-94174D01*
X-32011Y-94258D01*
X-32057Y-94340D01*
X-32108Y-94420D01*
X-32161Y-94499D01*
X-32217Y-94574D01*
X-32277Y-94648D01*
X-32340Y-94719D01*
X-32405Y-94787D01*
X-32473Y-94852D01*
X-32544Y-94915D01*
X-32618Y-94975D01*
X-32693Y-95031D01*
X-32772Y-95084D01*
X-32852Y-95135D01*
X-32934Y-95181D01*
X-33018Y-95225D01*
X-33104Y-95264D01*
X-33191Y-95300D01*
X-33280Y-95333D01*
X-33370Y-95362D01*
X-33461Y-95387D01*
X-33553Y-95408D01*
X-33646Y-95426D01*
X-33740Y-95439D01*
X-33834Y-95449D01*
X-33928Y-95455D01*
X-34023Y-95457D01*
X-34023Y-95458D02*
X-36311Y-95458D01*
X-33565Y-95458D02*
X-31735Y-99119D01*
X-28265Y-99119D02*
X-25519Y-99119D01*
X-25434Y-99117D01*
X-25350Y-99111D01*
X-25266Y-99101D01*
X-25183Y-99088D01*
X-25100Y-99070D01*
X-25018Y-99049D01*
X-24937Y-99024D01*
X-24858Y-98995D01*
X-24779Y-98963D01*
X-24703Y-98927D01*
X-24628Y-98888D01*
X-24555Y-98845D01*
X-24484Y-98799D01*
X-24416Y-98749D01*
X-24349Y-98697D01*
X-24285Y-98641D01*
X-24224Y-98583D01*
X-24166Y-98522D01*
X-24110Y-98458D01*
X-24058Y-98391D01*
X-24008Y-98323D01*
X-23962Y-98252D01*
X-23919Y-98179D01*
X-23880Y-98104D01*
X-23844Y-98028D01*
X-23812Y-97949D01*
X-23783Y-97870D01*
X-23758Y-97789D01*
X-23737Y-97707D01*
X-23719Y-97624D01*
X-23706Y-97541D01*
X-23696Y-97457D01*
X-23690Y-97373D01*
X-23688Y-97288D01*
X-23689Y-97288D02*
X-23689Y-96373D01*
X-23688Y-96373D02*
X-23690Y-96288D01*
X-23696Y-96204D01*
X-23706Y-96120D01*
X-23719Y-96037D01*
X-23737Y-95954D01*
X-23758Y-95872D01*
X-23783Y-95791D01*
X-23812Y-95712D01*
X-23844Y-95633D01*
X-23880Y-95557D01*
X-23919Y-95482D01*
X-23962Y-95409D01*
X-24008Y-95338D01*
X-24058Y-95270D01*
X-24110Y-95203D01*
X-24166Y-95139D01*
X-24224Y-95078D01*
X-24285Y-95020D01*
X-24349Y-94964D01*
X-24416Y-94912D01*
X-24484Y-94862D01*
X-24555Y-94816D01*
X-24628Y-94773D01*
X-24703Y-94734D01*
X-24779Y-94698D01*
X-24858Y-94666D01*
X-24937Y-94637D01*
X-25018Y-94612D01*
X-25100Y-94591D01*
X-25183Y-94573D01*
X-25266Y-94560D01*
X-25350Y-94550D01*
X-25434Y-94544D01*
X-25519Y-94542D01*
X-28265Y-94542D01*
X-28265Y-90881D01*
X-23689Y-90881D01*
X-34018Y-120881D02*
X-33928Y-120883D01*
X-33838Y-120889D01*
X-33749Y-120899D01*
X-33660Y-120912D01*
X-33572Y-120930D01*
X-33485Y-120951D01*
X-33399Y-120976D01*
X-33313Y-121005D01*
X-33230Y-121038D01*
X-33147Y-121074D01*
X-33067Y-121114D01*
X-32988Y-121157D01*
X-32911Y-121204D01*
X-32836Y-121254D01*
X-32764Y-121307D01*
X-32694Y-121363D01*
X-32626Y-121422D01*
X-32561Y-121484D01*
X-32499Y-121549D01*
X-32440Y-121617D01*
X-32384Y-121687D01*
X-32331Y-121759D01*
X-32281Y-121834D01*
X-32234Y-121911D01*
X-32191Y-121990D01*
X-32151Y-122070D01*
X-32115Y-122153D01*
X-32082Y-122236D01*
X-32053Y-122322D01*
X-32028Y-122408D01*
X-32007Y-122495D01*
X-31989Y-122583D01*
X-31976Y-122672D01*
X-31966Y-122761D01*
X-31960Y-122851D01*
X-31958Y-122941D01*
X-34018Y-120881D02*
X-34119Y-120883D01*
X-34219Y-120889D01*
X-34320Y-120898D01*
X-34420Y-120912D01*
X-34519Y-120929D01*
X-34618Y-120950D01*
X-34716Y-120975D01*
X-34812Y-121003D01*
X-34908Y-121035D01*
X-35002Y-121071D01*
X-35095Y-121110D01*
X-35186Y-121153D01*
X-35276Y-121199D01*
X-35364Y-121249D01*
X-35450Y-121302D01*
X-35533Y-121358D01*
X-35615Y-121417D01*
X-35694Y-121480D01*
X-35771Y-121545D01*
X-35845Y-121613D01*
X-35917Y-121684D01*
X-35986Y-121758D01*
X-36051Y-121834D01*
X-36115Y-121913D01*
X-36175Y-121994D01*
X-36231Y-122077D01*
X-36285Y-122162D01*
X-36335Y-122250D01*
X-36382Y-122339D01*
X-36426Y-122430D01*
X-36466Y-122522D01*
X-36502Y-122616D01*
X-36535Y-122712D01*
X-32645Y-124543D02*
X-32581Y-124480D01*
X-32520Y-124414D01*
X-32462Y-124346D01*
X-32406Y-124276D01*
X-32354Y-124203D01*
X-32304Y-124129D01*
X-32257Y-124052D01*
X-32214Y-123974D01*
X-32174Y-123894D01*
X-32137Y-123812D01*
X-32103Y-123729D01*
X-32073Y-123645D01*
X-32046Y-123560D01*
X-32023Y-123473D01*
X-32003Y-123386D01*
X-31987Y-123298D01*
X-31974Y-123209D01*
X-31965Y-123120D01*
X-31960Y-123031D01*
X-31958Y-122941D01*
X-32645Y-124542D02*
X-36535Y-129119D01*
X-31958Y-129119D01*
X-28042Y-129119D02*
X-28042Y-120881D01*
X-23465Y-120881D02*
X-28042Y-125915D01*
X-26211Y-124085D02*
X-23465Y-129119D01*
D12*
X20000Y-101300D02*
X40000Y-101300D01*
X40000Y-118700D02*
X20000Y-118700D01*
D11*
X23689Y-99119D02*
X23689Y-90881D01*
X25977Y-90881D01*
X26072Y-90883D01*
X26166Y-90889D01*
X26260Y-90899D01*
X26354Y-90912D01*
X26447Y-90930D01*
X26539Y-90951D01*
X26630Y-90976D01*
X26720Y-91005D01*
X26809Y-91038D01*
X26896Y-91074D01*
X26982Y-91113D01*
X27066Y-91157D01*
X27148Y-91203D01*
X27228Y-91254D01*
X27307Y-91307D01*
X27382Y-91363D01*
X27456Y-91423D01*
X27527Y-91486D01*
X27595Y-91551D01*
X27660Y-91619D01*
X27723Y-91690D01*
X27783Y-91764D01*
X27839Y-91839D01*
X27892Y-91918D01*
X27943Y-91998D01*
X27989Y-92080D01*
X28033Y-92164D01*
X28072Y-92250D01*
X28108Y-92337D01*
X28141Y-92426D01*
X28170Y-92516D01*
X28195Y-92607D01*
X28216Y-92699D01*
X28234Y-92792D01*
X28247Y-92886D01*
X28257Y-92980D01*
X28263Y-93074D01*
X28265Y-93169D01*
X28263Y-93264D01*
X28257Y-93358D01*
X28247Y-93452D01*
X28234Y-93546D01*
X28216Y-93639D01*
X28195Y-93731D01*
X28170Y-93822D01*
X28141Y-93912D01*
X28108Y-94001D01*
X28072Y-94088D01*
X28033Y-94174D01*
X27989Y-94258D01*
X27943Y-94340D01*
X27892Y-94420D01*
X27839Y-94499D01*
X27783Y-94574D01*
X27723Y-94648D01*
X27660Y-94719D01*
X27595Y-94787D01*
X27527Y-94852D01*
X27456Y-94915D01*
X27382Y-94975D01*
X27307Y-95031D01*
X27228Y-95084D01*
X27148Y-95135D01*
X27066Y-95181D01*
X26982Y-95225D01*
X26896Y-95264D01*
X26809Y-95300D01*
X26720Y-95333D01*
X26630Y-95362D01*
X26539Y-95387D01*
X26447Y-95408D01*
X26354Y-95426D01*
X26260Y-95439D01*
X26166Y-95449D01*
X26072Y-95455D01*
X25977Y-95457D01*
X25977Y-95458D02*
X23689Y-95458D01*
X26435Y-95458D02*
X28265Y-99119D01*
X31735Y-91796D02*
X31735Y-90881D01*
X36311Y-90881D01*
X34023Y-99119D01*
X25982Y-120881D02*
X26072Y-120883D01*
X26162Y-120889D01*
X26251Y-120899D01*
X26340Y-120912D01*
X26428Y-120930D01*
X26515Y-120951D01*
X26601Y-120976D01*
X26687Y-121005D01*
X26770Y-121038D01*
X26853Y-121074D01*
X26933Y-121114D01*
X27012Y-121157D01*
X27089Y-121204D01*
X27164Y-121254D01*
X27236Y-121307D01*
X27306Y-121363D01*
X27374Y-121422D01*
X27439Y-121484D01*
X27501Y-121549D01*
X27560Y-121617D01*
X27616Y-121687D01*
X27669Y-121759D01*
X27719Y-121834D01*
X27766Y-121911D01*
X27809Y-121990D01*
X27849Y-122070D01*
X27885Y-122153D01*
X27918Y-122236D01*
X27947Y-122322D01*
X27972Y-122408D01*
X27993Y-122495D01*
X28011Y-122583D01*
X28024Y-122672D01*
X28034Y-122761D01*
X28040Y-122851D01*
X28042Y-122941D01*
X25982Y-120881D02*
X25881Y-120883D01*
X25781Y-120889D01*
X25680Y-120898D01*
X25580Y-120912D01*
X25481Y-120929D01*
X25382Y-120950D01*
X25284Y-120975D01*
X25188Y-121003D01*
X25092Y-121035D01*
X24998Y-121071D01*
X24905Y-121110D01*
X24814Y-121153D01*
X24724Y-121199D01*
X24636Y-121249D01*
X24550Y-121302D01*
X24467Y-121358D01*
X24385Y-121417D01*
X24306Y-121480D01*
X24229Y-121545D01*
X24155Y-121613D01*
X24083Y-121684D01*
X24014Y-121758D01*
X23949Y-121834D01*
X23885Y-121913D01*
X23826Y-121994D01*
X23769Y-122077D01*
X23715Y-122162D01*
X23665Y-122250D01*
X23618Y-122339D01*
X23574Y-122430D01*
X23534Y-122522D01*
X23498Y-122616D01*
X23465Y-122712D01*
X27355Y-124543D02*
X27419Y-124480D01*
X27480Y-124414D01*
X27538Y-124346D01*
X27594Y-124276D01*
X27646Y-124203D01*
X27696Y-124129D01*
X27743Y-124052D01*
X27786Y-123974D01*
X27826Y-123894D01*
X27863Y-123812D01*
X27897Y-123729D01*
X27927Y-123645D01*
X27954Y-123560D01*
X27977Y-123473D01*
X27997Y-123386D01*
X28013Y-123298D01*
X28026Y-123209D01*
X28035Y-123120D01*
X28040Y-123031D01*
X28042Y-122941D01*
X27355Y-124542D02*
X23465Y-129119D01*
X28042Y-129119D01*
X31958Y-129119D02*
X31958Y-120881D01*
X36535Y-120881D02*
X31958Y-125915D01*
X33789Y-124085D02*
X36535Y-129119D01*
D18*
X-100000Y-200000D02*
X-99924Y-201743D01*
X-99696Y-203473D01*
X-99319Y-205176D01*
X-98794Y-206840D01*
X-98126Y-208452D01*
X-97321Y-210000D01*
X-96383Y-211472D01*
X-95321Y-212856D01*
X-94142Y-214142D01*
X-92856Y-215321D01*
X-91472Y-216383D01*
X-90000Y-217321D01*
X-88452Y-218126D01*
X-86840Y-218794D01*
X-85176Y-219319D01*
X-83473Y-219696D01*
X-81743Y-219924D01*
X-80000Y-220000D01*
X80000Y-220000D01*
X81743Y-219924D01*
X83473Y-219696D01*
X85176Y-219319D01*
X86840Y-218794D01*
X88452Y-218126D01*
X90000Y-217321D01*
X91472Y-216383D01*
X92856Y-215321D01*
X94142Y-214142D01*
X95321Y-212856D01*
X96383Y-211472D01*
X97321Y-210000D01*
X98126Y-208452D01*
X98794Y-206840D01*
X99319Y-205176D01*
X99696Y-203473D01*
X99924Y-201743D01*
X100000Y-200000D01*
X100000Y215000D01*
X99924Y216743D01*
X99696Y218473D01*
X99319Y220176D01*
X98794Y221840D01*
X98126Y223452D01*
X97321Y225000D01*
X96383Y226472D01*
X95321Y227856D01*
X94142Y229142D01*
X92856Y230321D01*
X91472Y231383D01*
X90000Y232321D01*
X88452Y233126D01*
X86840Y233794D01*
X85176Y234319D01*
X83473Y234696D01*
X81743Y234924D01*
X80000Y235000D01*
X-80000Y235000D01*
X-81743Y234924D01*
X-83473Y234696D01*
X-85176Y234319D01*
X-86840Y233794D01*
X-88452Y233126D01*
X-90000Y232321D01*
X-91472Y231383D01*
X-92856Y230321D01*
X-94142Y229142D01*
X-95321Y227856D01*
X-96383Y226472D01*
X-97321Y225000D01*
X-98126Y223452D01*
X-98794Y221840D01*
X-99319Y220176D01*
X-99696Y218473D01*
X-99924Y216743D01*
X-100000Y215000D01*
X-100000Y-200000D01*
M02*
