G04 EAGLE Gerber RS-274X export*
G75*
%MOMM*%
%FSLAX34Y34*%
%LPD*%
%INSilk screen SOL*%
%IPPOS*%
%AMOC8*
5,1,8,0,0,1.08239X$1,22.5*%
G01*
%ADD10C,0.100000*%
%ADD11C,0.000000*%
%ADD12C,0.101600*%
%ADD13C,0.127000*%
%ADD14C,0.076200*%
%ADD15C,0.152400*%


D10*
X-380000Y-300000D02*
X380000Y-300000D01*
X220000Y285000D02*
X-380000Y285000D01*
X235000Y270000D02*
X315000Y270000D01*
X235000Y270000D02*
X220000Y285000D01*
X315000Y270000D02*
X330000Y285000D01*
X-380000Y285000D02*
X-380604Y284993D01*
X-381208Y284971D01*
X-381811Y284934D01*
X-382413Y284883D01*
X-383013Y284818D01*
X-383612Y284738D01*
X-384209Y284643D01*
X-384803Y284534D01*
X-385395Y284411D01*
X-385983Y284274D01*
X-386568Y284122D01*
X-387149Y283956D01*
X-387725Y283776D01*
X-388298Y283583D01*
X-388865Y283375D01*
X-389427Y283154D01*
X-389984Y282920D01*
X-390535Y282672D01*
X-391080Y282411D01*
X-391618Y282136D01*
X-392150Y281849D01*
X-392674Y281549D01*
X-393191Y281237D01*
X-393700Y280912D01*
X-394202Y280575D01*
X-394695Y280225D01*
X-395179Y279864D01*
X-395655Y279492D01*
X-396121Y279108D01*
X-396578Y278713D01*
X-397025Y278307D01*
X-397463Y277890D01*
X-397890Y277463D01*
X-398307Y277025D01*
X-398713Y276578D01*
X-399108Y276121D01*
X-399492Y275655D01*
X-399864Y275179D01*
X-400225Y274695D01*
X-400575Y274202D01*
X-400912Y273700D01*
X-401237Y273191D01*
X-401549Y272674D01*
X-401849Y272150D01*
X-402136Y271618D01*
X-402411Y271080D01*
X-402672Y270535D01*
X-402920Y269984D01*
X-403154Y269427D01*
X-403375Y268865D01*
X-403583Y268298D01*
X-403776Y267725D01*
X-403956Y267149D01*
X-404122Y266568D01*
X-404274Y265983D01*
X-404411Y265395D01*
X-404534Y264803D01*
X-404643Y264209D01*
X-404738Y263612D01*
X-404818Y263013D01*
X-404883Y262413D01*
X-404934Y261811D01*
X-404971Y261208D01*
X-404993Y260604D01*
X-405000Y260000D01*
X-405000Y-275000D01*
X-404993Y-275604D01*
X-404971Y-276208D01*
X-404934Y-276811D01*
X-404883Y-277413D01*
X-404818Y-278013D01*
X-404738Y-278612D01*
X-404643Y-279209D01*
X-404534Y-279803D01*
X-404411Y-280395D01*
X-404274Y-280983D01*
X-404122Y-281568D01*
X-403956Y-282149D01*
X-403776Y-282725D01*
X-403583Y-283298D01*
X-403375Y-283865D01*
X-403154Y-284427D01*
X-402920Y-284984D01*
X-402672Y-285535D01*
X-402411Y-286080D01*
X-402136Y-286618D01*
X-401849Y-287150D01*
X-401549Y-287674D01*
X-401237Y-288191D01*
X-400912Y-288700D01*
X-400575Y-289202D01*
X-400225Y-289695D01*
X-399864Y-290179D01*
X-399492Y-290655D01*
X-399108Y-291121D01*
X-398713Y-291578D01*
X-398307Y-292025D01*
X-397890Y-292463D01*
X-397463Y-292890D01*
X-397025Y-293307D01*
X-396578Y-293713D01*
X-396121Y-294108D01*
X-395655Y-294492D01*
X-395179Y-294864D01*
X-394695Y-295225D01*
X-394202Y-295575D01*
X-393700Y-295912D01*
X-393191Y-296237D01*
X-392674Y-296549D01*
X-392150Y-296849D01*
X-391618Y-297136D01*
X-391080Y-297411D01*
X-390535Y-297672D01*
X-389984Y-297920D01*
X-389427Y-298154D01*
X-388865Y-298375D01*
X-388298Y-298583D01*
X-387725Y-298776D01*
X-387149Y-298956D01*
X-386568Y-299122D01*
X-385983Y-299274D01*
X-385395Y-299411D01*
X-384803Y-299534D01*
X-384209Y-299643D01*
X-383612Y-299738D01*
X-383013Y-299818D01*
X-382413Y-299883D01*
X-381811Y-299934D01*
X-381208Y-299971D01*
X-380604Y-299993D01*
X-380000Y-300000D01*
X380000Y-300000D02*
X380604Y-299993D01*
X381208Y-299971D01*
X381811Y-299934D01*
X382413Y-299883D01*
X383013Y-299818D01*
X383612Y-299738D01*
X384209Y-299643D01*
X384803Y-299534D01*
X385395Y-299411D01*
X385983Y-299274D01*
X386568Y-299122D01*
X387149Y-298956D01*
X387725Y-298776D01*
X388298Y-298583D01*
X388865Y-298375D01*
X389427Y-298154D01*
X389984Y-297920D01*
X390535Y-297672D01*
X391080Y-297411D01*
X391618Y-297136D01*
X392150Y-296849D01*
X392674Y-296549D01*
X393191Y-296237D01*
X393700Y-295912D01*
X394202Y-295575D01*
X394695Y-295225D01*
X395179Y-294864D01*
X395655Y-294492D01*
X396121Y-294108D01*
X396578Y-293713D01*
X397025Y-293307D01*
X397463Y-292890D01*
X397890Y-292463D01*
X398307Y-292025D01*
X398713Y-291578D01*
X399108Y-291121D01*
X399492Y-290655D01*
X399864Y-290179D01*
X400225Y-289695D01*
X400575Y-289202D01*
X400912Y-288700D01*
X401237Y-288191D01*
X401549Y-287674D01*
X401849Y-287150D01*
X402136Y-286618D01*
X402411Y-286080D01*
X402672Y-285535D01*
X402920Y-284984D01*
X403154Y-284427D01*
X403375Y-283865D01*
X403583Y-283298D01*
X403776Y-282725D01*
X403956Y-282149D01*
X404122Y-281568D01*
X404274Y-280983D01*
X404411Y-280395D01*
X404534Y-279803D01*
X404643Y-279209D01*
X404738Y-278612D01*
X404818Y-278013D01*
X404883Y-277413D01*
X404934Y-276811D01*
X404971Y-276208D01*
X404993Y-275604D01*
X405000Y-275000D01*
X405000Y260000D01*
X404993Y260604D01*
X404971Y261208D01*
X404934Y261811D01*
X404883Y262413D01*
X404818Y263013D01*
X404738Y263612D01*
X404643Y264209D01*
X404534Y264803D01*
X404411Y265395D01*
X404274Y265983D01*
X404122Y266568D01*
X403956Y267149D01*
X403776Y267725D01*
X403583Y268298D01*
X403375Y268865D01*
X403154Y269427D01*
X402920Y269984D01*
X402672Y270535D01*
X402411Y271080D01*
X402136Y271618D01*
X401849Y272150D01*
X401549Y272674D01*
X401237Y273191D01*
X400912Y273700D01*
X400575Y274202D01*
X400225Y274695D01*
X399864Y275179D01*
X399492Y275655D01*
X399108Y276121D01*
X398713Y276578D01*
X398307Y277025D01*
X397890Y277463D01*
X397463Y277890D01*
X397025Y278307D01*
X396578Y278713D01*
X396121Y279108D01*
X395655Y279492D01*
X395179Y279864D01*
X394695Y280225D01*
X394202Y280575D01*
X393700Y280912D01*
X393191Y281237D01*
X392674Y281549D01*
X392150Y281849D01*
X391618Y282136D01*
X391080Y282411D01*
X390535Y282672D01*
X389984Y282920D01*
X389427Y283154D01*
X388865Y283375D01*
X388298Y283583D01*
X387725Y283776D01*
X387149Y283956D01*
X386568Y284122D01*
X385983Y284274D01*
X385395Y284411D01*
X384803Y284534D01*
X384209Y284643D01*
X383612Y284738D01*
X383013Y284818D01*
X382413Y284883D01*
X381811Y284934D01*
X381208Y284971D01*
X380604Y284993D01*
X380000Y285000D01*
X330000Y285000D01*
D11*
X-1081000Y-270000D02*
X-1080997Y-269730D01*
X-1080987Y-269460D01*
X-1080970Y-269191D01*
X-1080947Y-268922D01*
X-1080917Y-268653D01*
X-1080881Y-268386D01*
X-1080838Y-268119D01*
X-1080789Y-267854D01*
X-1080733Y-267590D01*
X-1080670Y-267327D01*
X-1080602Y-267066D01*
X-1080526Y-266807D01*
X-1080445Y-266550D01*
X-1080357Y-266294D01*
X-1080263Y-266041D01*
X-1080163Y-265790D01*
X-1080056Y-265542D01*
X-1079944Y-265297D01*
X-1079825Y-265054D01*
X-1079701Y-264815D01*
X-1079571Y-264578D01*
X-1079435Y-264345D01*
X-1079293Y-264115D01*
X-1079146Y-263889D01*
X-1078993Y-263666D01*
X-1078835Y-263447D01*
X-1078672Y-263232D01*
X-1078503Y-263022D01*
X-1078329Y-262815D01*
X-1078150Y-262613D01*
X-1077967Y-262415D01*
X-1077778Y-262222D01*
X-1077585Y-262033D01*
X-1077387Y-261850D01*
X-1077185Y-261671D01*
X-1076978Y-261497D01*
X-1076768Y-261328D01*
X-1076553Y-261165D01*
X-1076334Y-261007D01*
X-1076111Y-260854D01*
X-1075885Y-260707D01*
X-1075655Y-260565D01*
X-1075422Y-260429D01*
X-1075185Y-260299D01*
X-1074946Y-260175D01*
X-1074703Y-260056D01*
X-1074458Y-259944D01*
X-1074210Y-259837D01*
X-1073959Y-259737D01*
X-1073706Y-259643D01*
X-1073450Y-259555D01*
X-1073193Y-259474D01*
X-1072934Y-259398D01*
X-1072673Y-259330D01*
X-1072410Y-259267D01*
X-1072146Y-259211D01*
X-1071881Y-259162D01*
X-1071614Y-259119D01*
X-1071347Y-259083D01*
X-1071078Y-259053D01*
X-1070809Y-259030D01*
X-1070540Y-259013D01*
X-1070270Y-259003D01*
X-1070000Y-259000D01*
X-1069730Y-259003D01*
X-1069460Y-259013D01*
X-1069191Y-259030D01*
X-1068922Y-259053D01*
X-1068653Y-259083D01*
X-1068386Y-259119D01*
X-1068119Y-259162D01*
X-1067854Y-259211D01*
X-1067590Y-259267D01*
X-1067327Y-259330D01*
X-1067066Y-259398D01*
X-1066807Y-259474D01*
X-1066550Y-259555D01*
X-1066294Y-259643D01*
X-1066041Y-259737D01*
X-1065790Y-259837D01*
X-1065542Y-259944D01*
X-1065297Y-260056D01*
X-1065054Y-260175D01*
X-1064815Y-260299D01*
X-1064578Y-260429D01*
X-1064345Y-260565D01*
X-1064115Y-260707D01*
X-1063889Y-260854D01*
X-1063666Y-261007D01*
X-1063447Y-261165D01*
X-1063232Y-261328D01*
X-1063022Y-261497D01*
X-1062815Y-261671D01*
X-1062613Y-261850D01*
X-1062415Y-262033D01*
X-1062222Y-262222D01*
X-1062033Y-262415D01*
X-1061850Y-262613D01*
X-1061671Y-262815D01*
X-1061497Y-263022D01*
X-1061328Y-263232D01*
X-1061165Y-263447D01*
X-1061007Y-263666D01*
X-1060854Y-263889D01*
X-1060707Y-264115D01*
X-1060565Y-264345D01*
X-1060429Y-264578D01*
X-1060299Y-264815D01*
X-1060175Y-265054D01*
X-1060056Y-265297D01*
X-1059944Y-265542D01*
X-1059837Y-265790D01*
X-1059737Y-266041D01*
X-1059643Y-266294D01*
X-1059555Y-266550D01*
X-1059474Y-266807D01*
X-1059398Y-267066D01*
X-1059330Y-267327D01*
X-1059267Y-267590D01*
X-1059211Y-267854D01*
X-1059162Y-268119D01*
X-1059119Y-268386D01*
X-1059083Y-268653D01*
X-1059053Y-268922D01*
X-1059030Y-269191D01*
X-1059013Y-269460D01*
X-1059003Y-269730D01*
X-1059000Y-270000D01*
X-1059003Y-270270D01*
X-1059013Y-270540D01*
X-1059030Y-270809D01*
X-1059053Y-271078D01*
X-1059083Y-271347D01*
X-1059119Y-271614D01*
X-1059162Y-271881D01*
X-1059211Y-272146D01*
X-1059267Y-272410D01*
X-1059330Y-272673D01*
X-1059398Y-272934D01*
X-1059474Y-273193D01*
X-1059555Y-273450D01*
X-1059643Y-273706D01*
X-1059737Y-273959D01*
X-1059837Y-274210D01*
X-1059944Y-274458D01*
X-1060056Y-274703D01*
X-1060175Y-274946D01*
X-1060299Y-275185D01*
X-1060429Y-275422D01*
X-1060565Y-275655D01*
X-1060707Y-275885D01*
X-1060854Y-276111D01*
X-1061007Y-276334D01*
X-1061165Y-276553D01*
X-1061328Y-276768D01*
X-1061497Y-276978D01*
X-1061671Y-277185D01*
X-1061850Y-277387D01*
X-1062033Y-277585D01*
X-1062222Y-277778D01*
X-1062415Y-277967D01*
X-1062613Y-278150D01*
X-1062815Y-278329D01*
X-1063022Y-278503D01*
X-1063232Y-278672D01*
X-1063447Y-278835D01*
X-1063666Y-278993D01*
X-1063889Y-279146D01*
X-1064115Y-279293D01*
X-1064345Y-279435D01*
X-1064578Y-279571D01*
X-1064815Y-279701D01*
X-1065054Y-279825D01*
X-1065297Y-279944D01*
X-1065542Y-280056D01*
X-1065790Y-280163D01*
X-1066041Y-280263D01*
X-1066294Y-280357D01*
X-1066550Y-280445D01*
X-1066807Y-280526D01*
X-1067066Y-280602D01*
X-1067327Y-280670D01*
X-1067590Y-280733D01*
X-1067854Y-280789D01*
X-1068119Y-280838D01*
X-1068386Y-280881D01*
X-1068653Y-280917D01*
X-1068922Y-280947D01*
X-1069191Y-280970D01*
X-1069460Y-280987D01*
X-1069730Y-280997D01*
X-1070000Y-281000D01*
X-1070270Y-280997D01*
X-1070540Y-280987D01*
X-1070809Y-280970D01*
X-1071078Y-280947D01*
X-1071347Y-280917D01*
X-1071614Y-280881D01*
X-1071881Y-280838D01*
X-1072146Y-280789D01*
X-1072410Y-280733D01*
X-1072673Y-280670D01*
X-1072934Y-280602D01*
X-1073193Y-280526D01*
X-1073450Y-280445D01*
X-1073706Y-280357D01*
X-1073959Y-280263D01*
X-1074210Y-280163D01*
X-1074458Y-280056D01*
X-1074703Y-279944D01*
X-1074946Y-279825D01*
X-1075185Y-279701D01*
X-1075422Y-279571D01*
X-1075655Y-279435D01*
X-1075885Y-279293D01*
X-1076111Y-279146D01*
X-1076334Y-278993D01*
X-1076553Y-278835D01*
X-1076768Y-278672D01*
X-1076978Y-278503D01*
X-1077185Y-278329D01*
X-1077387Y-278150D01*
X-1077585Y-277967D01*
X-1077778Y-277778D01*
X-1077967Y-277585D01*
X-1078150Y-277387D01*
X-1078329Y-277185D01*
X-1078503Y-276978D01*
X-1078672Y-276768D01*
X-1078835Y-276553D01*
X-1078993Y-276334D01*
X-1079146Y-276111D01*
X-1079293Y-275885D01*
X-1079435Y-275655D01*
X-1079571Y-275422D01*
X-1079701Y-275185D01*
X-1079825Y-274946D01*
X-1079944Y-274703D01*
X-1080056Y-274458D01*
X-1080163Y-274210D01*
X-1080263Y-273959D01*
X-1080357Y-273706D01*
X-1080445Y-273450D01*
X-1080526Y-273193D01*
X-1080602Y-272934D01*
X-1080670Y-272673D01*
X-1080733Y-272410D01*
X-1080789Y-272146D01*
X-1080838Y-271881D01*
X-1080881Y-271614D01*
X-1080917Y-271347D01*
X-1080947Y-271078D01*
X-1080970Y-270809D01*
X-1080987Y-270540D01*
X-1080997Y-270270D01*
X-1081000Y-270000D01*
X-1081000Y270000D02*
X-1080997Y270270D01*
X-1080987Y270540D01*
X-1080970Y270809D01*
X-1080947Y271078D01*
X-1080917Y271347D01*
X-1080881Y271614D01*
X-1080838Y271881D01*
X-1080789Y272146D01*
X-1080733Y272410D01*
X-1080670Y272673D01*
X-1080602Y272934D01*
X-1080526Y273193D01*
X-1080445Y273450D01*
X-1080357Y273706D01*
X-1080263Y273959D01*
X-1080163Y274210D01*
X-1080056Y274458D01*
X-1079944Y274703D01*
X-1079825Y274946D01*
X-1079701Y275185D01*
X-1079571Y275422D01*
X-1079435Y275655D01*
X-1079293Y275885D01*
X-1079146Y276111D01*
X-1078993Y276334D01*
X-1078835Y276553D01*
X-1078672Y276768D01*
X-1078503Y276978D01*
X-1078329Y277185D01*
X-1078150Y277387D01*
X-1077967Y277585D01*
X-1077778Y277778D01*
X-1077585Y277967D01*
X-1077387Y278150D01*
X-1077185Y278329D01*
X-1076978Y278503D01*
X-1076768Y278672D01*
X-1076553Y278835D01*
X-1076334Y278993D01*
X-1076111Y279146D01*
X-1075885Y279293D01*
X-1075655Y279435D01*
X-1075422Y279571D01*
X-1075185Y279701D01*
X-1074946Y279825D01*
X-1074703Y279944D01*
X-1074458Y280056D01*
X-1074210Y280163D01*
X-1073959Y280263D01*
X-1073706Y280357D01*
X-1073450Y280445D01*
X-1073193Y280526D01*
X-1072934Y280602D01*
X-1072673Y280670D01*
X-1072410Y280733D01*
X-1072146Y280789D01*
X-1071881Y280838D01*
X-1071614Y280881D01*
X-1071347Y280917D01*
X-1071078Y280947D01*
X-1070809Y280970D01*
X-1070540Y280987D01*
X-1070270Y280997D01*
X-1070000Y281000D01*
X-1069730Y280997D01*
X-1069460Y280987D01*
X-1069191Y280970D01*
X-1068922Y280947D01*
X-1068653Y280917D01*
X-1068386Y280881D01*
X-1068119Y280838D01*
X-1067854Y280789D01*
X-1067590Y280733D01*
X-1067327Y280670D01*
X-1067066Y280602D01*
X-1066807Y280526D01*
X-1066550Y280445D01*
X-1066294Y280357D01*
X-1066041Y280263D01*
X-1065790Y280163D01*
X-1065542Y280056D01*
X-1065297Y279944D01*
X-1065054Y279825D01*
X-1064815Y279701D01*
X-1064578Y279571D01*
X-1064345Y279435D01*
X-1064115Y279293D01*
X-1063889Y279146D01*
X-1063666Y278993D01*
X-1063447Y278835D01*
X-1063232Y278672D01*
X-1063022Y278503D01*
X-1062815Y278329D01*
X-1062613Y278150D01*
X-1062415Y277967D01*
X-1062222Y277778D01*
X-1062033Y277585D01*
X-1061850Y277387D01*
X-1061671Y277185D01*
X-1061497Y276978D01*
X-1061328Y276768D01*
X-1061165Y276553D01*
X-1061007Y276334D01*
X-1060854Y276111D01*
X-1060707Y275885D01*
X-1060565Y275655D01*
X-1060429Y275422D01*
X-1060299Y275185D01*
X-1060175Y274946D01*
X-1060056Y274703D01*
X-1059944Y274458D01*
X-1059837Y274210D01*
X-1059737Y273959D01*
X-1059643Y273706D01*
X-1059555Y273450D01*
X-1059474Y273193D01*
X-1059398Y272934D01*
X-1059330Y272673D01*
X-1059267Y272410D01*
X-1059211Y272146D01*
X-1059162Y271881D01*
X-1059119Y271614D01*
X-1059083Y271347D01*
X-1059053Y271078D01*
X-1059030Y270809D01*
X-1059013Y270540D01*
X-1059003Y270270D01*
X-1059000Y270000D01*
X-1059003Y269730D01*
X-1059013Y269460D01*
X-1059030Y269191D01*
X-1059053Y268922D01*
X-1059083Y268653D01*
X-1059119Y268386D01*
X-1059162Y268119D01*
X-1059211Y267854D01*
X-1059267Y267590D01*
X-1059330Y267327D01*
X-1059398Y267066D01*
X-1059474Y266807D01*
X-1059555Y266550D01*
X-1059643Y266294D01*
X-1059737Y266041D01*
X-1059837Y265790D01*
X-1059944Y265542D01*
X-1060056Y265297D01*
X-1060175Y265054D01*
X-1060299Y264815D01*
X-1060429Y264578D01*
X-1060565Y264345D01*
X-1060707Y264115D01*
X-1060854Y263889D01*
X-1061007Y263666D01*
X-1061165Y263447D01*
X-1061328Y263232D01*
X-1061497Y263022D01*
X-1061671Y262815D01*
X-1061850Y262613D01*
X-1062033Y262415D01*
X-1062222Y262222D01*
X-1062415Y262033D01*
X-1062613Y261850D01*
X-1062815Y261671D01*
X-1063022Y261497D01*
X-1063232Y261328D01*
X-1063447Y261165D01*
X-1063666Y261007D01*
X-1063889Y260854D01*
X-1064115Y260707D01*
X-1064345Y260565D01*
X-1064578Y260429D01*
X-1064815Y260299D01*
X-1065054Y260175D01*
X-1065297Y260056D01*
X-1065542Y259944D01*
X-1065790Y259837D01*
X-1066041Y259737D01*
X-1066294Y259643D01*
X-1066550Y259555D01*
X-1066807Y259474D01*
X-1067066Y259398D01*
X-1067327Y259330D01*
X-1067590Y259267D01*
X-1067854Y259211D01*
X-1068119Y259162D01*
X-1068386Y259119D01*
X-1068653Y259083D01*
X-1068922Y259053D01*
X-1069191Y259030D01*
X-1069460Y259013D01*
X-1069730Y259003D01*
X-1070000Y259000D01*
X-1070270Y259003D01*
X-1070540Y259013D01*
X-1070809Y259030D01*
X-1071078Y259053D01*
X-1071347Y259083D01*
X-1071614Y259119D01*
X-1071881Y259162D01*
X-1072146Y259211D01*
X-1072410Y259267D01*
X-1072673Y259330D01*
X-1072934Y259398D01*
X-1073193Y259474D01*
X-1073450Y259555D01*
X-1073706Y259643D01*
X-1073959Y259737D01*
X-1074210Y259837D01*
X-1074458Y259944D01*
X-1074703Y260056D01*
X-1074946Y260175D01*
X-1075185Y260299D01*
X-1075422Y260429D01*
X-1075655Y260565D01*
X-1075885Y260707D01*
X-1076111Y260854D01*
X-1076334Y261007D01*
X-1076553Y261165D01*
X-1076768Y261328D01*
X-1076978Y261497D01*
X-1077185Y261671D01*
X-1077387Y261850D01*
X-1077585Y262033D01*
X-1077778Y262222D01*
X-1077967Y262415D01*
X-1078150Y262613D01*
X-1078329Y262815D01*
X-1078503Y263022D01*
X-1078672Y263232D01*
X-1078835Y263447D01*
X-1078993Y263666D01*
X-1079146Y263889D01*
X-1079293Y264115D01*
X-1079435Y264345D01*
X-1079571Y264578D01*
X-1079701Y264815D01*
X-1079825Y265054D01*
X-1079944Y265297D01*
X-1080056Y265542D01*
X-1080163Y265790D01*
X-1080263Y266041D01*
X-1080357Y266294D01*
X-1080445Y266550D01*
X-1080526Y266807D01*
X-1080602Y267066D01*
X-1080670Y267327D01*
X-1080733Y267590D01*
X-1080789Y267854D01*
X-1080838Y268119D01*
X-1080881Y268386D01*
X-1080917Y268653D01*
X-1080947Y268922D01*
X-1080970Y269191D01*
X-1080987Y269460D01*
X-1080997Y269730D01*
X-1081000Y270000D01*
X-1080997Y270270D01*
X-1080987Y270540D01*
X-1080970Y270809D01*
X-1080947Y271078D01*
X-1080917Y271347D01*
X-1080881Y271614D01*
X-1080838Y271881D01*
X-1080789Y272146D01*
X-1080733Y272410D01*
X-1080670Y272673D01*
X-1080602Y272934D01*
X-1080526Y273193D01*
X-1080445Y273450D01*
X-1080357Y273706D01*
X-1080263Y273959D01*
X-1080163Y274210D01*
X-1080056Y274458D01*
X-1079944Y274703D01*
X-1079825Y274946D01*
X-1079701Y275185D01*
X-1079571Y275422D01*
X-1079435Y275655D01*
X-1079293Y275885D01*
X-1079146Y276111D01*
X-1078993Y276334D01*
X-1078835Y276553D01*
X-1078672Y276768D01*
X-1078503Y276978D01*
X-1078329Y277185D01*
X-1078150Y277387D01*
X-1077967Y277585D01*
X-1077778Y277778D01*
X-1077585Y277967D01*
X-1077387Y278150D01*
X-1077185Y278329D01*
X-1076978Y278503D01*
X-1076768Y278672D01*
X-1076553Y278835D01*
X-1076334Y278993D01*
X-1076111Y279146D01*
X-1075885Y279293D01*
X-1075655Y279435D01*
X-1075422Y279571D01*
X-1075185Y279701D01*
X-1074946Y279825D01*
X-1074703Y279944D01*
X-1074458Y280056D01*
X-1074210Y280163D01*
X-1073959Y280263D01*
X-1073706Y280357D01*
X-1073450Y280445D01*
X-1073193Y280526D01*
X-1072934Y280602D01*
X-1072673Y280670D01*
X-1072410Y280733D01*
X-1072146Y280789D01*
X-1071881Y280838D01*
X-1071614Y280881D01*
X-1071347Y280917D01*
X-1071078Y280947D01*
X-1070809Y280970D01*
X-1070540Y280987D01*
X-1070270Y280997D01*
X-1070000Y281000D01*
X-1069730Y280997D01*
X-1069460Y280987D01*
X-1069191Y280970D01*
X-1068922Y280947D01*
X-1068653Y280917D01*
X-1068386Y280881D01*
X-1068119Y280838D01*
X-1067854Y280789D01*
X-1067590Y280733D01*
X-1067327Y280670D01*
X-1067066Y280602D01*
X-1066807Y280526D01*
X-1066550Y280445D01*
X-1066294Y280357D01*
X-1066041Y280263D01*
X-1065790Y280163D01*
X-1065542Y280056D01*
X-1065297Y279944D01*
X-1065054Y279825D01*
X-1064815Y279701D01*
X-1064578Y279571D01*
X-1064345Y279435D01*
X-1064115Y279293D01*
X-1063889Y279146D01*
X-1063666Y278993D01*
X-1063447Y278835D01*
X-1063232Y278672D01*
X-1063022Y278503D01*
X-1062815Y278329D01*
X-1062613Y278150D01*
X-1062415Y277967D01*
X-1062222Y277778D01*
X-1062033Y277585D01*
X-1061850Y277387D01*
X-1061671Y277185D01*
X-1061497Y276978D01*
X-1061328Y276768D01*
X-1061165Y276553D01*
X-1061007Y276334D01*
X-1060854Y276111D01*
X-1060707Y275885D01*
X-1060565Y275655D01*
X-1060429Y275422D01*
X-1060299Y275185D01*
X-1060175Y274946D01*
X-1060056Y274703D01*
X-1059944Y274458D01*
X-1059837Y274210D01*
X-1059737Y273959D01*
X-1059643Y273706D01*
X-1059555Y273450D01*
X-1059474Y273193D01*
X-1059398Y272934D01*
X-1059330Y272673D01*
X-1059267Y272410D01*
X-1059211Y272146D01*
X-1059162Y271881D01*
X-1059119Y271614D01*
X-1059083Y271347D01*
X-1059053Y271078D01*
X-1059030Y270809D01*
X-1059013Y270540D01*
X-1059003Y270270D01*
X-1059000Y270000D01*
X-1059003Y269730D01*
X-1059013Y269460D01*
X-1059030Y269191D01*
X-1059053Y268922D01*
X-1059083Y268653D01*
X-1059119Y268386D01*
X-1059162Y268119D01*
X-1059211Y267854D01*
X-1059267Y267590D01*
X-1059330Y267327D01*
X-1059398Y267066D01*
X-1059474Y266807D01*
X-1059555Y266550D01*
X-1059643Y266294D01*
X-1059737Y266041D01*
X-1059837Y265790D01*
X-1059944Y265542D01*
X-1060056Y265297D01*
X-1060175Y265054D01*
X-1060299Y264815D01*
X-1060429Y264578D01*
X-1060565Y264345D01*
X-1060707Y264115D01*
X-1060854Y263889D01*
X-1061007Y263666D01*
X-1061165Y263447D01*
X-1061328Y263232D01*
X-1061497Y263022D01*
X-1061671Y262815D01*
X-1061850Y262613D01*
X-1062033Y262415D01*
X-1062222Y262222D01*
X-1062415Y262033D01*
X-1062613Y261850D01*
X-1062815Y261671D01*
X-1063022Y261497D01*
X-1063232Y261328D01*
X-1063447Y261165D01*
X-1063666Y261007D01*
X-1063889Y260854D01*
X-1064115Y260707D01*
X-1064345Y260565D01*
X-1064578Y260429D01*
X-1064815Y260299D01*
X-1065054Y260175D01*
X-1065297Y260056D01*
X-1065542Y259944D01*
X-1065790Y259837D01*
X-1066041Y259737D01*
X-1066294Y259643D01*
X-1066550Y259555D01*
X-1066807Y259474D01*
X-1067066Y259398D01*
X-1067327Y259330D01*
X-1067590Y259267D01*
X-1067854Y259211D01*
X-1068119Y259162D01*
X-1068386Y259119D01*
X-1068653Y259083D01*
X-1068922Y259053D01*
X-1069191Y259030D01*
X-1069460Y259013D01*
X-1069730Y259003D01*
X-1070000Y259000D01*
X-1070270Y259003D01*
X-1070540Y259013D01*
X-1070809Y259030D01*
X-1071078Y259053D01*
X-1071347Y259083D01*
X-1071614Y259119D01*
X-1071881Y259162D01*
X-1072146Y259211D01*
X-1072410Y259267D01*
X-1072673Y259330D01*
X-1072934Y259398D01*
X-1073193Y259474D01*
X-1073450Y259555D01*
X-1073706Y259643D01*
X-1073959Y259737D01*
X-1074210Y259837D01*
X-1074458Y259944D01*
X-1074703Y260056D01*
X-1074946Y260175D01*
X-1075185Y260299D01*
X-1075422Y260429D01*
X-1075655Y260565D01*
X-1075885Y260707D01*
X-1076111Y260854D01*
X-1076334Y261007D01*
X-1076553Y261165D01*
X-1076768Y261328D01*
X-1076978Y261497D01*
X-1077185Y261671D01*
X-1077387Y261850D01*
X-1077585Y262033D01*
X-1077778Y262222D01*
X-1077967Y262415D01*
X-1078150Y262613D01*
X-1078329Y262815D01*
X-1078503Y263022D01*
X-1078672Y263232D01*
X-1078835Y263447D01*
X-1078993Y263666D01*
X-1079146Y263889D01*
X-1079293Y264115D01*
X-1079435Y264345D01*
X-1079571Y264578D01*
X-1079701Y264815D01*
X-1079825Y265054D01*
X-1079944Y265297D01*
X-1080056Y265542D01*
X-1080163Y265790D01*
X-1080263Y266041D01*
X-1080357Y266294D01*
X-1080445Y266550D01*
X-1080526Y266807D01*
X-1080602Y267066D01*
X-1080670Y267327D01*
X-1080733Y267590D01*
X-1080789Y267854D01*
X-1080838Y268119D01*
X-1080881Y268386D01*
X-1080917Y268653D01*
X-1080947Y268922D01*
X-1080970Y269191D01*
X-1080987Y269460D01*
X-1080997Y269730D01*
X-1081000Y270000D01*
X-541000Y-270000D02*
X-540997Y-269730D01*
X-540987Y-269460D01*
X-540970Y-269191D01*
X-540947Y-268922D01*
X-540917Y-268653D01*
X-540881Y-268386D01*
X-540838Y-268119D01*
X-540789Y-267854D01*
X-540733Y-267590D01*
X-540670Y-267327D01*
X-540602Y-267066D01*
X-540526Y-266807D01*
X-540445Y-266550D01*
X-540357Y-266294D01*
X-540263Y-266041D01*
X-540163Y-265790D01*
X-540056Y-265542D01*
X-539944Y-265297D01*
X-539825Y-265054D01*
X-539701Y-264815D01*
X-539571Y-264578D01*
X-539435Y-264345D01*
X-539293Y-264115D01*
X-539146Y-263889D01*
X-538993Y-263666D01*
X-538835Y-263447D01*
X-538672Y-263232D01*
X-538503Y-263022D01*
X-538329Y-262815D01*
X-538150Y-262613D01*
X-537967Y-262415D01*
X-537778Y-262222D01*
X-537585Y-262033D01*
X-537387Y-261850D01*
X-537185Y-261671D01*
X-536978Y-261497D01*
X-536768Y-261328D01*
X-536553Y-261165D01*
X-536334Y-261007D01*
X-536111Y-260854D01*
X-535885Y-260707D01*
X-535655Y-260565D01*
X-535422Y-260429D01*
X-535185Y-260299D01*
X-534946Y-260175D01*
X-534703Y-260056D01*
X-534458Y-259944D01*
X-534210Y-259837D01*
X-533959Y-259737D01*
X-533706Y-259643D01*
X-533450Y-259555D01*
X-533193Y-259474D01*
X-532934Y-259398D01*
X-532673Y-259330D01*
X-532410Y-259267D01*
X-532146Y-259211D01*
X-531881Y-259162D01*
X-531614Y-259119D01*
X-531347Y-259083D01*
X-531078Y-259053D01*
X-530809Y-259030D01*
X-530540Y-259013D01*
X-530270Y-259003D01*
X-530000Y-259000D01*
X-529730Y-259003D01*
X-529460Y-259013D01*
X-529191Y-259030D01*
X-528922Y-259053D01*
X-528653Y-259083D01*
X-528386Y-259119D01*
X-528119Y-259162D01*
X-527854Y-259211D01*
X-527590Y-259267D01*
X-527327Y-259330D01*
X-527066Y-259398D01*
X-526807Y-259474D01*
X-526550Y-259555D01*
X-526294Y-259643D01*
X-526041Y-259737D01*
X-525790Y-259837D01*
X-525542Y-259944D01*
X-525297Y-260056D01*
X-525054Y-260175D01*
X-524815Y-260299D01*
X-524578Y-260429D01*
X-524345Y-260565D01*
X-524115Y-260707D01*
X-523889Y-260854D01*
X-523666Y-261007D01*
X-523447Y-261165D01*
X-523232Y-261328D01*
X-523022Y-261497D01*
X-522815Y-261671D01*
X-522613Y-261850D01*
X-522415Y-262033D01*
X-522222Y-262222D01*
X-522033Y-262415D01*
X-521850Y-262613D01*
X-521671Y-262815D01*
X-521497Y-263022D01*
X-521328Y-263232D01*
X-521165Y-263447D01*
X-521007Y-263666D01*
X-520854Y-263889D01*
X-520707Y-264115D01*
X-520565Y-264345D01*
X-520429Y-264578D01*
X-520299Y-264815D01*
X-520175Y-265054D01*
X-520056Y-265297D01*
X-519944Y-265542D01*
X-519837Y-265790D01*
X-519737Y-266041D01*
X-519643Y-266294D01*
X-519555Y-266550D01*
X-519474Y-266807D01*
X-519398Y-267066D01*
X-519330Y-267327D01*
X-519267Y-267590D01*
X-519211Y-267854D01*
X-519162Y-268119D01*
X-519119Y-268386D01*
X-519083Y-268653D01*
X-519053Y-268922D01*
X-519030Y-269191D01*
X-519013Y-269460D01*
X-519003Y-269730D01*
X-519000Y-270000D01*
X-519003Y-270270D01*
X-519013Y-270540D01*
X-519030Y-270809D01*
X-519053Y-271078D01*
X-519083Y-271347D01*
X-519119Y-271614D01*
X-519162Y-271881D01*
X-519211Y-272146D01*
X-519267Y-272410D01*
X-519330Y-272673D01*
X-519398Y-272934D01*
X-519474Y-273193D01*
X-519555Y-273450D01*
X-519643Y-273706D01*
X-519737Y-273959D01*
X-519837Y-274210D01*
X-519944Y-274458D01*
X-520056Y-274703D01*
X-520175Y-274946D01*
X-520299Y-275185D01*
X-520429Y-275422D01*
X-520565Y-275655D01*
X-520707Y-275885D01*
X-520854Y-276111D01*
X-521007Y-276334D01*
X-521165Y-276553D01*
X-521328Y-276768D01*
X-521497Y-276978D01*
X-521671Y-277185D01*
X-521850Y-277387D01*
X-522033Y-277585D01*
X-522222Y-277778D01*
X-522415Y-277967D01*
X-522613Y-278150D01*
X-522815Y-278329D01*
X-523022Y-278503D01*
X-523232Y-278672D01*
X-523447Y-278835D01*
X-523666Y-278993D01*
X-523889Y-279146D01*
X-524115Y-279293D01*
X-524345Y-279435D01*
X-524578Y-279571D01*
X-524815Y-279701D01*
X-525054Y-279825D01*
X-525297Y-279944D01*
X-525542Y-280056D01*
X-525790Y-280163D01*
X-526041Y-280263D01*
X-526294Y-280357D01*
X-526550Y-280445D01*
X-526807Y-280526D01*
X-527066Y-280602D01*
X-527327Y-280670D01*
X-527590Y-280733D01*
X-527854Y-280789D01*
X-528119Y-280838D01*
X-528386Y-280881D01*
X-528653Y-280917D01*
X-528922Y-280947D01*
X-529191Y-280970D01*
X-529460Y-280987D01*
X-529730Y-280997D01*
X-530000Y-281000D01*
X-530270Y-280997D01*
X-530540Y-280987D01*
X-530809Y-280970D01*
X-531078Y-280947D01*
X-531347Y-280917D01*
X-531614Y-280881D01*
X-531881Y-280838D01*
X-532146Y-280789D01*
X-532410Y-280733D01*
X-532673Y-280670D01*
X-532934Y-280602D01*
X-533193Y-280526D01*
X-533450Y-280445D01*
X-533706Y-280357D01*
X-533959Y-280263D01*
X-534210Y-280163D01*
X-534458Y-280056D01*
X-534703Y-279944D01*
X-534946Y-279825D01*
X-535185Y-279701D01*
X-535422Y-279571D01*
X-535655Y-279435D01*
X-535885Y-279293D01*
X-536111Y-279146D01*
X-536334Y-278993D01*
X-536553Y-278835D01*
X-536768Y-278672D01*
X-536978Y-278503D01*
X-537185Y-278329D01*
X-537387Y-278150D01*
X-537585Y-277967D01*
X-537778Y-277778D01*
X-537967Y-277585D01*
X-538150Y-277387D01*
X-538329Y-277185D01*
X-538503Y-276978D01*
X-538672Y-276768D01*
X-538835Y-276553D01*
X-538993Y-276334D01*
X-539146Y-276111D01*
X-539293Y-275885D01*
X-539435Y-275655D01*
X-539571Y-275422D01*
X-539701Y-275185D01*
X-539825Y-274946D01*
X-539944Y-274703D01*
X-540056Y-274458D01*
X-540163Y-274210D01*
X-540263Y-273959D01*
X-540357Y-273706D01*
X-540445Y-273450D01*
X-540526Y-273193D01*
X-540602Y-272934D01*
X-540670Y-272673D01*
X-540733Y-272410D01*
X-540789Y-272146D01*
X-540838Y-271881D01*
X-540881Y-271614D01*
X-540917Y-271347D01*
X-540947Y-271078D01*
X-540970Y-270809D01*
X-540987Y-270540D01*
X-540997Y-270270D01*
X-541000Y-270000D01*
X-541000Y270000D02*
X-540997Y270270D01*
X-540987Y270540D01*
X-540970Y270809D01*
X-540947Y271078D01*
X-540917Y271347D01*
X-540881Y271614D01*
X-540838Y271881D01*
X-540789Y272146D01*
X-540733Y272410D01*
X-540670Y272673D01*
X-540602Y272934D01*
X-540526Y273193D01*
X-540445Y273450D01*
X-540357Y273706D01*
X-540263Y273959D01*
X-540163Y274210D01*
X-540056Y274458D01*
X-539944Y274703D01*
X-539825Y274946D01*
X-539701Y275185D01*
X-539571Y275422D01*
X-539435Y275655D01*
X-539293Y275885D01*
X-539146Y276111D01*
X-538993Y276334D01*
X-538835Y276553D01*
X-538672Y276768D01*
X-538503Y276978D01*
X-538329Y277185D01*
X-538150Y277387D01*
X-537967Y277585D01*
X-537778Y277778D01*
X-537585Y277967D01*
X-537387Y278150D01*
X-537185Y278329D01*
X-536978Y278503D01*
X-536768Y278672D01*
X-536553Y278835D01*
X-536334Y278993D01*
X-536111Y279146D01*
X-535885Y279293D01*
X-535655Y279435D01*
X-535422Y279571D01*
X-535185Y279701D01*
X-534946Y279825D01*
X-534703Y279944D01*
X-534458Y280056D01*
X-534210Y280163D01*
X-533959Y280263D01*
X-533706Y280357D01*
X-533450Y280445D01*
X-533193Y280526D01*
X-532934Y280602D01*
X-532673Y280670D01*
X-532410Y280733D01*
X-532146Y280789D01*
X-531881Y280838D01*
X-531614Y280881D01*
X-531347Y280917D01*
X-531078Y280947D01*
X-530809Y280970D01*
X-530540Y280987D01*
X-530270Y280997D01*
X-530000Y281000D01*
X-529730Y280997D01*
X-529460Y280987D01*
X-529191Y280970D01*
X-528922Y280947D01*
X-528653Y280917D01*
X-528386Y280881D01*
X-528119Y280838D01*
X-527854Y280789D01*
X-527590Y280733D01*
X-527327Y280670D01*
X-527066Y280602D01*
X-526807Y280526D01*
X-526550Y280445D01*
X-526294Y280357D01*
X-526041Y280263D01*
X-525790Y280163D01*
X-525542Y280056D01*
X-525297Y279944D01*
X-525054Y279825D01*
X-524815Y279701D01*
X-524578Y279571D01*
X-524345Y279435D01*
X-524115Y279293D01*
X-523889Y279146D01*
X-523666Y278993D01*
X-523447Y278835D01*
X-523232Y278672D01*
X-523022Y278503D01*
X-522815Y278329D01*
X-522613Y278150D01*
X-522415Y277967D01*
X-522222Y277778D01*
X-522033Y277585D01*
X-521850Y277387D01*
X-521671Y277185D01*
X-521497Y276978D01*
X-521328Y276768D01*
X-521165Y276553D01*
X-521007Y276334D01*
X-520854Y276111D01*
X-520707Y275885D01*
X-520565Y275655D01*
X-520429Y275422D01*
X-520299Y275185D01*
X-520175Y274946D01*
X-520056Y274703D01*
X-519944Y274458D01*
X-519837Y274210D01*
X-519737Y273959D01*
X-519643Y273706D01*
X-519555Y273450D01*
X-519474Y273193D01*
X-519398Y272934D01*
X-519330Y272673D01*
X-519267Y272410D01*
X-519211Y272146D01*
X-519162Y271881D01*
X-519119Y271614D01*
X-519083Y271347D01*
X-519053Y271078D01*
X-519030Y270809D01*
X-519013Y270540D01*
X-519003Y270270D01*
X-519000Y270000D01*
X-519003Y269730D01*
X-519013Y269460D01*
X-519030Y269191D01*
X-519053Y268922D01*
X-519083Y268653D01*
X-519119Y268386D01*
X-519162Y268119D01*
X-519211Y267854D01*
X-519267Y267590D01*
X-519330Y267327D01*
X-519398Y267066D01*
X-519474Y266807D01*
X-519555Y266550D01*
X-519643Y266294D01*
X-519737Y266041D01*
X-519837Y265790D01*
X-519944Y265542D01*
X-520056Y265297D01*
X-520175Y265054D01*
X-520299Y264815D01*
X-520429Y264578D01*
X-520565Y264345D01*
X-520707Y264115D01*
X-520854Y263889D01*
X-521007Y263666D01*
X-521165Y263447D01*
X-521328Y263232D01*
X-521497Y263022D01*
X-521671Y262815D01*
X-521850Y262613D01*
X-522033Y262415D01*
X-522222Y262222D01*
X-522415Y262033D01*
X-522613Y261850D01*
X-522815Y261671D01*
X-523022Y261497D01*
X-523232Y261328D01*
X-523447Y261165D01*
X-523666Y261007D01*
X-523889Y260854D01*
X-524115Y260707D01*
X-524345Y260565D01*
X-524578Y260429D01*
X-524815Y260299D01*
X-525054Y260175D01*
X-525297Y260056D01*
X-525542Y259944D01*
X-525790Y259837D01*
X-526041Y259737D01*
X-526294Y259643D01*
X-526550Y259555D01*
X-526807Y259474D01*
X-527066Y259398D01*
X-527327Y259330D01*
X-527590Y259267D01*
X-527854Y259211D01*
X-528119Y259162D01*
X-528386Y259119D01*
X-528653Y259083D01*
X-528922Y259053D01*
X-529191Y259030D01*
X-529460Y259013D01*
X-529730Y259003D01*
X-530000Y259000D01*
X-530270Y259003D01*
X-530540Y259013D01*
X-530809Y259030D01*
X-531078Y259053D01*
X-531347Y259083D01*
X-531614Y259119D01*
X-531881Y259162D01*
X-532146Y259211D01*
X-532410Y259267D01*
X-532673Y259330D01*
X-532934Y259398D01*
X-533193Y259474D01*
X-533450Y259555D01*
X-533706Y259643D01*
X-533959Y259737D01*
X-534210Y259837D01*
X-534458Y259944D01*
X-534703Y260056D01*
X-534946Y260175D01*
X-535185Y260299D01*
X-535422Y260429D01*
X-535655Y260565D01*
X-535885Y260707D01*
X-536111Y260854D01*
X-536334Y261007D01*
X-536553Y261165D01*
X-536768Y261328D01*
X-536978Y261497D01*
X-537185Y261671D01*
X-537387Y261850D01*
X-537585Y262033D01*
X-537778Y262222D01*
X-537967Y262415D01*
X-538150Y262613D01*
X-538329Y262815D01*
X-538503Y263022D01*
X-538672Y263232D01*
X-538835Y263447D01*
X-538993Y263666D01*
X-539146Y263889D01*
X-539293Y264115D01*
X-539435Y264345D01*
X-539571Y264578D01*
X-539701Y264815D01*
X-539825Y265054D01*
X-539944Y265297D01*
X-540056Y265542D01*
X-540163Y265790D01*
X-540263Y266041D01*
X-540357Y266294D01*
X-540445Y266550D01*
X-540526Y266807D01*
X-540602Y267066D01*
X-540670Y267327D01*
X-540733Y267590D01*
X-540789Y267854D01*
X-540838Y268119D01*
X-540881Y268386D01*
X-540917Y268653D01*
X-540947Y268922D01*
X-540970Y269191D01*
X-540987Y269460D01*
X-540997Y269730D01*
X-541000Y270000D01*
X1059000Y270000D02*
X1059003Y270270D01*
X1059013Y270540D01*
X1059030Y270809D01*
X1059053Y271078D01*
X1059083Y271347D01*
X1059119Y271614D01*
X1059162Y271881D01*
X1059211Y272146D01*
X1059267Y272410D01*
X1059330Y272673D01*
X1059398Y272934D01*
X1059474Y273193D01*
X1059555Y273450D01*
X1059643Y273706D01*
X1059737Y273959D01*
X1059837Y274210D01*
X1059944Y274458D01*
X1060056Y274703D01*
X1060175Y274946D01*
X1060299Y275185D01*
X1060429Y275422D01*
X1060565Y275655D01*
X1060707Y275885D01*
X1060854Y276111D01*
X1061007Y276334D01*
X1061165Y276553D01*
X1061328Y276768D01*
X1061497Y276978D01*
X1061671Y277185D01*
X1061850Y277387D01*
X1062033Y277585D01*
X1062222Y277778D01*
X1062415Y277967D01*
X1062613Y278150D01*
X1062815Y278329D01*
X1063022Y278503D01*
X1063232Y278672D01*
X1063447Y278835D01*
X1063666Y278993D01*
X1063889Y279146D01*
X1064115Y279293D01*
X1064345Y279435D01*
X1064578Y279571D01*
X1064815Y279701D01*
X1065054Y279825D01*
X1065297Y279944D01*
X1065542Y280056D01*
X1065790Y280163D01*
X1066041Y280263D01*
X1066294Y280357D01*
X1066550Y280445D01*
X1066807Y280526D01*
X1067066Y280602D01*
X1067327Y280670D01*
X1067590Y280733D01*
X1067854Y280789D01*
X1068119Y280838D01*
X1068386Y280881D01*
X1068653Y280917D01*
X1068922Y280947D01*
X1069191Y280970D01*
X1069460Y280987D01*
X1069730Y280997D01*
X1070000Y281000D01*
X1070270Y280997D01*
X1070540Y280987D01*
X1070809Y280970D01*
X1071078Y280947D01*
X1071347Y280917D01*
X1071614Y280881D01*
X1071881Y280838D01*
X1072146Y280789D01*
X1072410Y280733D01*
X1072673Y280670D01*
X1072934Y280602D01*
X1073193Y280526D01*
X1073450Y280445D01*
X1073706Y280357D01*
X1073959Y280263D01*
X1074210Y280163D01*
X1074458Y280056D01*
X1074703Y279944D01*
X1074946Y279825D01*
X1075185Y279701D01*
X1075422Y279571D01*
X1075655Y279435D01*
X1075885Y279293D01*
X1076111Y279146D01*
X1076334Y278993D01*
X1076553Y278835D01*
X1076768Y278672D01*
X1076978Y278503D01*
X1077185Y278329D01*
X1077387Y278150D01*
X1077585Y277967D01*
X1077778Y277778D01*
X1077967Y277585D01*
X1078150Y277387D01*
X1078329Y277185D01*
X1078503Y276978D01*
X1078672Y276768D01*
X1078835Y276553D01*
X1078993Y276334D01*
X1079146Y276111D01*
X1079293Y275885D01*
X1079435Y275655D01*
X1079571Y275422D01*
X1079701Y275185D01*
X1079825Y274946D01*
X1079944Y274703D01*
X1080056Y274458D01*
X1080163Y274210D01*
X1080263Y273959D01*
X1080357Y273706D01*
X1080445Y273450D01*
X1080526Y273193D01*
X1080602Y272934D01*
X1080670Y272673D01*
X1080733Y272410D01*
X1080789Y272146D01*
X1080838Y271881D01*
X1080881Y271614D01*
X1080917Y271347D01*
X1080947Y271078D01*
X1080970Y270809D01*
X1080987Y270540D01*
X1080997Y270270D01*
X1081000Y270000D01*
X1080997Y269730D01*
X1080987Y269460D01*
X1080970Y269191D01*
X1080947Y268922D01*
X1080917Y268653D01*
X1080881Y268386D01*
X1080838Y268119D01*
X1080789Y267854D01*
X1080733Y267590D01*
X1080670Y267327D01*
X1080602Y267066D01*
X1080526Y266807D01*
X1080445Y266550D01*
X1080357Y266294D01*
X1080263Y266041D01*
X1080163Y265790D01*
X1080056Y265542D01*
X1079944Y265297D01*
X1079825Y265054D01*
X1079701Y264815D01*
X1079571Y264578D01*
X1079435Y264345D01*
X1079293Y264115D01*
X1079146Y263889D01*
X1078993Y263666D01*
X1078835Y263447D01*
X1078672Y263232D01*
X1078503Y263022D01*
X1078329Y262815D01*
X1078150Y262613D01*
X1077967Y262415D01*
X1077778Y262222D01*
X1077585Y262033D01*
X1077387Y261850D01*
X1077185Y261671D01*
X1076978Y261497D01*
X1076768Y261328D01*
X1076553Y261165D01*
X1076334Y261007D01*
X1076111Y260854D01*
X1075885Y260707D01*
X1075655Y260565D01*
X1075422Y260429D01*
X1075185Y260299D01*
X1074946Y260175D01*
X1074703Y260056D01*
X1074458Y259944D01*
X1074210Y259837D01*
X1073959Y259737D01*
X1073706Y259643D01*
X1073450Y259555D01*
X1073193Y259474D01*
X1072934Y259398D01*
X1072673Y259330D01*
X1072410Y259267D01*
X1072146Y259211D01*
X1071881Y259162D01*
X1071614Y259119D01*
X1071347Y259083D01*
X1071078Y259053D01*
X1070809Y259030D01*
X1070540Y259013D01*
X1070270Y259003D01*
X1070000Y259000D01*
X1069730Y259003D01*
X1069460Y259013D01*
X1069191Y259030D01*
X1068922Y259053D01*
X1068653Y259083D01*
X1068386Y259119D01*
X1068119Y259162D01*
X1067854Y259211D01*
X1067590Y259267D01*
X1067327Y259330D01*
X1067066Y259398D01*
X1066807Y259474D01*
X1066550Y259555D01*
X1066294Y259643D01*
X1066041Y259737D01*
X1065790Y259837D01*
X1065542Y259944D01*
X1065297Y260056D01*
X1065054Y260175D01*
X1064815Y260299D01*
X1064578Y260429D01*
X1064345Y260565D01*
X1064115Y260707D01*
X1063889Y260854D01*
X1063666Y261007D01*
X1063447Y261165D01*
X1063232Y261328D01*
X1063022Y261497D01*
X1062815Y261671D01*
X1062613Y261850D01*
X1062415Y262033D01*
X1062222Y262222D01*
X1062033Y262415D01*
X1061850Y262613D01*
X1061671Y262815D01*
X1061497Y263022D01*
X1061328Y263232D01*
X1061165Y263447D01*
X1061007Y263666D01*
X1060854Y263889D01*
X1060707Y264115D01*
X1060565Y264345D01*
X1060429Y264578D01*
X1060299Y264815D01*
X1060175Y265054D01*
X1060056Y265297D01*
X1059944Y265542D01*
X1059837Y265790D01*
X1059737Y266041D01*
X1059643Y266294D01*
X1059555Y266550D01*
X1059474Y266807D01*
X1059398Y267066D01*
X1059330Y267327D01*
X1059267Y267590D01*
X1059211Y267854D01*
X1059162Y268119D01*
X1059119Y268386D01*
X1059083Y268653D01*
X1059053Y268922D01*
X1059030Y269191D01*
X1059013Y269460D01*
X1059003Y269730D01*
X1059000Y270000D01*
X1059000Y-270000D02*
X1059003Y-269730D01*
X1059013Y-269460D01*
X1059030Y-269191D01*
X1059053Y-268922D01*
X1059083Y-268653D01*
X1059119Y-268386D01*
X1059162Y-268119D01*
X1059211Y-267854D01*
X1059267Y-267590D01*
X1059330Y-267327D01*
X1059398Y-267066D01*
X1059474Y-266807D01*
X1059555Y-266550D01*
X1059643Y-266294D01*
X1059737Y-266041D01*
X1059837Y-265790D01*
X1059944Y-265542D01*
X1060056Y-265297D01*
X1060175Y-265054D01*
X1060299Y-264815D01*
X1060429Y-264578D01*
X1060565Y-264345D01*
X1060707Y-264115D01*
X1060854Y-263889D01*
X1061007Y-263666D01*
X1061165Y-263447D01*
X1061328Y-263232D01*
X1061497Y-263022D01*
X1061671Y-262815D01*
X1061850Y-262613D01*
X1062033Y-262415D01*
X1062222Y-262222D01*
X1062415Y-262033D01*
X1062613Y-261850D01*
X1062815Y-261671D01*
X1063022Y-261497D01*
X1063232Y-261328D01*
X1063447Y-261165D01*
X1063666Y-261007D01*
X1063889Y-260854D01*
X1064115Y-260707D01*
X1064345Y-260565D01*
X1064578Y-260429D01*
X1064815Y-260299D01*
X1065054Y-260175D01*
X1065297Y-260056D01*
X1065542Y-259944D01*
X1065790Y-259837D01*
X1066041Y-259737D01*
X1066294Y-259643D01*
X1066550Y-259555D01*
X1066807Y-259474D01*
X1067066Y-259398D01*
X1067327Y-259330D01*
X1067590Y-259267D01*
X1067854Y-259211D01*
X1068119Y-259162D01*
X1068386Y-259119D01*
X1068653Y-259083D01*
X1068922Y-259053D01*
X1069191Y-259030D01*
X1069460Y-259013D01*
X1069730Y-259003D01*
X1070000Y-259000D01*
X1070270Y-259003D01*
X1070540Y-259013D01*
X1070809Y-259030D01*
X1071078Y-259053D01*
X1071347Y-259083D01*
X1071614Y-259119D01*
X1071881Y-259162D01*
X1072146Y-259211D01*
X1072410Y-259267D01*
X1072673Y-259330D01*
X1072934Y-259398D01*
X1073193Y-259474D01*
X1073450Y-259555D01*
X1073706Y-259643D01*
X1073959Y-259737D01*
X1074210Y-259837D01*
X1074458Y-259944D01*
X1074703Y-260056D01*
X1074946Y-260175D01*
X1075185Y-260299D01*
X1075422Y-260429D01*
X1075655Y-260565D01*
X1075885Y-260707D01*
X1076111Y-260854D01*
X1076334Y-261007D01*
X1076553Y-261165D01*
X1076768Y-261328D01*
X1076978Y-261497D01*
X1077185Y-261671D01*
X1077387Y-261850D01*
X1077585Y-262033D01*
X1077778Y-262222D01*
X1077967Y-262415D01*
X1078150Y-262613D01*
X1078329Y-262815D01*
X1078503Y-263022D01*
X1078672Y-263232D01*
X1078835Y-263447D01*
X1078993Y-263666D01*
X1079146Y-263889D01*
X1079293Y-264115D01*
X1079435Y-264345D01*
X1079571Y-264578D01*
X1079701Y-264815D01*
X1079825Y-265054D01*
X1079944Y-265297D01*
X1080056Y-265542D01*
X1080163Y-265790D01*
X1080263Y-266041D01*
X1080357Y-266294D01*
X1080445Y-266550D01*
X1080526Y-266807D01*
X1080602Y-267066D01*
X1080670Y-267327D01*
X1080733Y-267590D01*
X1080789Y-267854D01*
X1080838Y-268119D01*
X1080881Y-268386D01*
X1080917Y-268653D01*
X1080947Y-268922D01*
X1080970Y-269191D01*
X1080987Y-269460D01*
X1080997Y-269730D01*
X1081000Y-270000D01*
X1080997Y-270270D01*
X1080987Y-270540D01*
X1080970Y-270809D01*
X1080947Y-271078D01*
X1080917Y-271347D01*
X1080881Y-271614D01*
X1080838Y-271881D01*
X1080789Y-272146D01*
X1080733Y-272410D01*
X1080670Y-272673D01*
X1080602Y-272934D01*
X1080526Y-273193D01*
X1080445Y-273450D01*
X1080357Y-273706D01*
X1080263Y-273959D01*
X1080163Y-274210D01*
X1080056Y-274458D01*
X1079944Y-274703D01*
X1079825Y-274946D01*
X1079701Y-275185D01*
X1079571Y-275422D01*
X1079435Y-275655D01*
X1079293Y-275885D01*
X1079146Y-276111D01*
X1078993Y-276334D01*
X1078835Y-276553D01*
X1078672Y-276768D01*
X1078503Y-276978D01*
X1078329Y-277185D01*
X1078150Y-277387D01*
X1077967Y-277585D01*
X1077778Y-277778D01*
X1077585Y-277967D01*
X1077387Y-278150D01*
X1077185Y-278329D01*
X1076978Y-278503D01*
X1076768Y-278672D01*
X1076553Y-278835D01*
X1076334Y-278993D01*
X1076111Y-279146D01*
X1075885Y-279293D01*
X1075655Y-279435D01*
X1075422Y-279571D01*
X1075185Y-279701D01*
X1074946Y-279825D01*
X1074703Y-279944D01*
X1074458Y-280056D01*
X1074210Y-280163D01*
X1073959Y-280263D01*
X1073706Y-280357D01*
X1073450Y-280445D01*
X1073193Y-280526D01*
X1072934Y-280602D01*
X1072673Y-280670D01*
X1072410Y-280733D01*
X1072146Y-280789D01*
X1071881Y-280838D01*
X1071614Y-280881D01*
X1071347Y-280917D01*
X1071078Y-280947D01*
X1070809Y-280970D01*
X1070540Y-280987D01*
X1070270Y-280997D01*
X1070000Y-281000D01*
X1069730Y-280997D01*
X1069460Y-280987D01*
X1069191Y-280970D01*
X1068922Y-280947D01*
X1068653Y-280917D01*
X1068386Y-280881D01*
X1068119Y-280838D01*
X1067854Y-280789D01*
X1067590Y-280733D01*
X1067327Y-280670D01*
X1067066Y-280602D01*
X1066807Y-280526D01*
X1066550Y-280445D01*
X1066294Y-280357D01*
X1066041Y-280263D01*
X1065790Y-280163D01*
X1065542Y-280056D01*
X1065297Y-279944D01*
X1065054Y-279825D01*
X1064815Y-279701D01*
X1064578Y-279571D01*
X1064345Y-279435D01*
X1064115Y-279293D01*
X1063889Y-279146D01*
X1063666Y-278993D01*
X1063447Y-278835D01*
X1063232Y-278672D01*
X1063022Y-278503D01*
X1062815Y-278329D01*
X1062613Y-278150D01*
X1062415Y-277967D01*
X1062222Y-277778D01*
X1062033Y-277585D01*
X1061850Y-277387D01*
X1061671Y-277185D01*
X1061497Y-276978D01*
X1061328Y-276768D01*
X1061165Y-276553D01*
X1061007Y-276334D01*
X1060854Y-276111D01*
X1060707Y-275885D01*
X1060565Y-275655D01*
X1060429Y-275422D01*
X1060299Y-275185D01*
X1060175Y-274946D01*
X1060056Y-274703D01*
X1059944Y-274458D01*
X1059837Y-274210D01*
X1059737Y-273959D01*
X1059643Y-273706D01*
X1059555Y-273450D01*
X1059474Y-273193D01*
X1059398Y-272934D01*
X1059330Y-272673D01*
X1059267Y-272410D01*
X1059211Y-272146D01*
X1059162Y-271881D01*
X1059119Y-271614D01*
X1059083Y-271347D01*
X1059053Y-271078D01*
X1059030Y-270809D01*
X1059013Y-270540D01*
X1059003Y-270270D01*
X1059000Y-270000D01*
X1059003Y-269730D01*
X1059013Y-269460D01*
X1059030Y-269191D01*
X1059053Y-268922D01*
X1059083Y-268653D01*
X1059119Y-268386D01*
X1059162Y-268119D01*
X1059211Y-267854D01*
X1059267Y-267590D01*
X1059330Y-267327D01*
X1059398Y-267066D01*
X1059474Y-266807D01*
X1059555Y-266550D01*
X1059643Y-266294D01*
X1059737Y-266041D01*
X1059837Y-265790D01*
X1059944Y-265542D01*
X1060056Y-265297D01*
X1060175Y-265054D01*
X1060299Y-264815D01*
X1060429Y-264578D01*
X1060565Y-264345D01*
X1060707Y-264115D01*
X1060854Y-263889D01*
X1061007Y-263666D01*
X1061165Y-263447D01*
X1061328Y-263232D01*
X1061497Y-263022D01*
X1061671Y-262815D01*
X1061850Y-262613D01*
X1062033Y-262415D01*
X1062222Y-262222D01*
X1062415Y-262033D01*
X1062613Y-261850D01*
X1062815Y-261671D01*
X1063022Y-261497D01*
X1063232Y-261328D01*
X1063447Y-261165D01*
X1063666Y-261007D01*
X1063889Y-260854D01*
X1064115Y-260707D01*
X1064345Y-260565D01*
X1064578Y-260429D01*
X1064815Y-260299D01*
X1065054Y-260175D01*
X1065297Y-260056D01*
X1065542Y-259944D01*
X1065790Y-259837D01*
X1066041Y-259737D01*
X1066294Y-259643D01*
X1066550Y-259555D01*
X1066807Y-259474D01*
X1067066Y-259398D01*
X1067327Y-259330D01*
X1067590Y-259267D01*
X1067854Y-259211D01*
X1068119Y-259162D01*
X1068386Y-259119D01*
X1068653Y-259083D01*
X1068922Y-259053D01*
X1069191Y-259030D01*
X1069460Y-259013D01*
X1069730Y-259003D01*
X1070000Y-259000D01*
X1070270Y-259003D01*
X1070540Y-259013D01*
X1070809Y-259030D01*
X1071078Y-259053D01*
X1071347Y-259083D01*
X1071614Y-259119D01*
X1071881Y-259162D01*
X1072146Y-259211D01*
X1072410Y-259267D01*
X1072673Y-259330D01*
X1072934Y-259398D01*
X1073193Y-259474D01*
X1073450Y-259555D01*
X1073706Y-259643D01*
X1073959Y-259737D01*
X1074210Y-259837D01*
X1074458Y-259944D01*
X1074703Y-260056D01*
X1074946Y-260175D01*
X1075185Y-260299D01*
X1075422Y-260429D01*
X1075655Y-260565D01*
X1075885Y-260707D01*
X1076111Y-260854D01*
X1076334Y-261007D01*
X1076553Y-261165D01*
X1076768Y-261328D01*
X1076978Y-261497D01*
X1077185Y-261671D01*
X1077387Y-261850D01*
X1077585Y-262033D01*
X1077778Y-262222D01*
X1077967Y-262415D01*
X1078150Y-262613D01*
X1078329Y-262815D01*
X1078503Y-263022D01*
X1078672Y-263232D01*
X1078835Y-263447D01*
X1078993Y-263666D01*
X1079146Y-263889D01*
X1079293Y-264115D01*
X1079435Y-264345D01*
X1079571Y-264578D01*
X1079701Y-264815D01*
X1079825Y-265054D01*
X1079944Y-265297D01*
X1080056Y-265542D01*
X1080163Y-265790D01*
X1080263Y-266041D01*
X1080357Y-266294D01*
X1080445Y-266550D01*
X1080526Y-266807D01*
X1080602Y-267066D01*
X1080670Y-267327D01*
X1080733Y-267590D01*
X1080789Y-267854D01*
X1080838Y-268119D01*
X1080881Y-268386D01*
X1080917Y-268653D01*
X1080947Y-268922D01*
X1080970Y-269191D01*
X1080987Y-269460D01*
X1080997Y-269730D01*
X1081000Y-270000D01*
X1080997Y-270270D01*
X1080987Y-270540D01*
X1080970Y-270809D01*
X1080947Y-271078D01*
X1080917Y-271347D01*
X1080881Y-271614D01*
X1080838Y-271881D01*
X1080789Y-272146D01*
X1080733Y-272410D01*
X1080670Y-272673D01*
X1080602Y-272934D01*
X1080526Y-273193D01*
X1080445Y-273450D01*
X1080357Y-273706D01*
X1080263Y-273959D01*
X1080163Y-274210D01*
X1080056Y-274458D01*
X1079944Y-274703D01*
X1079825Y-274946D01*
X1079701Y-275185D01*
X1079571Y-275422D01*
X1079435Y-275655D01*
X1079293Y-275885D01*
X1079146Y-276111D01*
X1078993Y-276334D01*
X1078835Y-276553D01*
X1078672Y-276768D01*
X1078503Y-276978D01*
X1078329Y-277185D01*
X1078150Y-277387D01*
X1077967Y-277585D01*
X1077778Y-277778D01*
X1077585Y-277967D01*
X1077387Y-278150D01*
X1077185Y-278329D01*
X1076978Y-278503D01*
X1076768Y-278672D01*
X1076553Y-278835D01*
X1076334Y-278993D01*
X1076111Y-279146D01*
X1075885Y-279293D01*
X1075655Y-279435D01*
X1075422Y-279571D01*
X1075185Y-279701D01*
X1074946Y-279825D01*
X1074703Y-279944D01*
X1074458Y-280056D01*
X1074210Y-280163D01*
X1073959Y-280263D01*
X1073706Y-280357D01*
X1073450Y-280445D01*
X1073193Y-280526D01*
X1072934Y-280602D01*
X1072673Y-280670D01*
X1072410Y-280733D01*
X1072146Y-280789D01*
X1071881Y-280838D01*
X1071614Y-280881D01*
X1071347Y-280917D01*
X1071078Y-280947D01*
X1070809Y-280970D01*
X1070540Y-280987D01*
X1070270Y-280997D01*
X1070000Y-281000D01*
X1069730Y-280997D01*
X1069460Y-280987D01*
X1069191Y-280970D01*
X1068922Y-280947D01*
X1068653Y-280917D01*
X1068386Y-280881D01*
X1068119Y-280838D01*
X1067854Y-280789D01*
X1067590Y-280733D01*
X1067327Y-280670D01*
X1067066Y-280602D01*
X1066807Y-280526D01*
X1066550Y-280445D01*
X1066294Y-280357D01*
X1066041Y-280263D01*
X1065790Y-280163D01*
X1065542Y-280056D01*
X1065297Y-279944D01*
X1065054Y-279825D01*
X1064815Y-279701D01*
X1064578Y-279571D01*
X1064345Y-279435D01*
X1064115Y-279293D01*
X1063889Y-279146D01*
X1063666Y-278993D01*
X1063447Y-278835D01*
X1063232Y-278672D01*
X1063022Y-278503D01*
X1062815Y-278329D01*
X1062613Y-278150D01*
X1062415Y-277967D01*
X1062222Y-277778D01*
X1062033Y-277585D01*
X1061850Y-277387D01*
X1061671Y-277185D01*
X1061497Y-276978D01*
X1061328Y-276768D01*
X1061165Y-276553D01*
X1061007Y-276334D01*
X1060854Y-276111D01*
X1060707Y-275885D01*
X1060565Y-275655D01*
X1060429Y-275422D01*
X1060299Y-275185D01*
X1060175Y-274946D01*
X1060056Y-274703D01*
X1059944Y-274458D01*
X1059837Y-274210D01*
X1059737Y-273959D01*
X1059643Y-273706D01*
X1059555Y-273450D01*
X1059474Y-273193D01*
X1059398Y-272934D01*
X1059330Y-272673D01*
X1059267Y-272410D01*
X1059211Y-272146D01*
X1059162Y-271881D01*
X1059119Y-271614D01*
X1059083Y-271347D01*
X1059053Y-271078D01*
X1059030Y-270809D01*
X1059013Y-270540D01*
X1059003Y-270270D01*
X1059000Y-270000D01*
X519000Y270000D02*
X519003Y270270D01*
X519013Y270540D01*
X519030Y270809D01*
X519053Y271078D01*
X519083Y271347D01*
X519119Y271614D01*
X519162Y271881D01*
X519211Y272146D01*
X519267Y272410D01*
X519330Y272673D01*
X519398Y272934D01*
X519474Y273193D01*
X519555Y273450D01*
X519643Y273706D01*
X519737Y273959D01*
X519837Y274210D01*
X519944Y274458D01*
X520056Y274703D01*
X520175Y274946D01*
X520299Y275185D01*
X520429Y275422D01*
X520565Y275655D01*
X520707Y275885D01*
X520854Y276111D01*
X521007Y276334D01*
X521165Y276553D01*
X521328Y276768D01*
X521497Y276978D01*
X521671Y277185D01*
X521850Y277387D01*
X522033Y277585D01*
X522222Y277778D01*
X522415Y277967D01*
X522613Y278150D01*
X522815Y278329D01*
X523022Y278503D01*
X523232Y278672D01*
X523447Y278835D01*
X523666Y278993D01*
X523889Y279146D01*
X524115Y279293D01*
X524345Y279435D01*
X524578Y279571D01*
X524815Y279701D01*
X525054Y279825D01*
X525297Y279944D01*
X525542Y280056D01*
X525790Y280163D01*
X526041Y280263D01*
X526294Y280357D01*
X526550Y280445D01*
X526807Y280526D01*
X527066Y280602D01*
X527327Y280670D01*
X527590Y280733D01*
X527854Y280789D01*
X528119Y280838D01*
X528386Y280881D01*
X528653Y280917D01*
X528922Y280947D01*
X529191Y280970D01*
X529460Y280987D01*
X529730Y280997D01*
X530000Y281000D01*
X530270Y280997D01*
X530540Y280987D01*
X530809Y280970D01*
X531078Y280947D01*
X531347Y280917D01*
X531614Y280881D01*
X531881Y280838D01*
X532146Y280789D01*
X532410Y280733D01*
X532673Y280670D01*
X532934Y280602D01*
X533193Y280526D01*
X533450Y280445D01*
X533706Y280357D01*
X533959Y280263D01*
X534210Y280163D01*
X534458Y280056D01*
X534703Y279944D01*
X534946Y279825D01*
X535185Y279701D01*
X535422Y279571D01*
X535655Y279435D01*
X535885Y279293D01*
X536111Y279146D01*
X536334Y278993D01*
X536553Y278835D01*
X536768Y278672D01*
X536978Y278503D01*
X537185Y278329D01*
X537387Y278150D01*
X537585Y277967D01*
X537778Y277778D01*
X537967Y277585D01*
X538150Y277387D01*
X538329Y277185D01*
X538503Y276978D01*
X538672Y276768D01*
X538835Y276553D01*
X538993Y276334D01*
X539146Y276111D01*
X539293Y275885D01*
X539435Y275655D01*
X539571Y275422D01*
X539701Y275185D01*
X539825Y274946D01*
X539944Y274703D01*
X540056Y274458D01*
X540163Y274210D01*
X540263Y273959D01*
X540357Y273706D01*
X540445Y273450D01*
X540526Y273193D01*
X540602Y272934D01*
X540670Y272673D01*
X540733Y272410D01*
X540789Y272146D01*
X540838Y271881D01*
X540881Y271614D01*
X540917Y271347D01*
X540947Y271078D01*
X540970Y270809D01*
X540987Y270540D01*
X540997Y270270D01*
X541000Y270000D01*
X540997Y269730D01*
X540987Y269460D01*
X540970Y269191D01*
X540947Y268922D01*
X540917Y268653D01*
X540881Y268386D01*
X540838Y268119D01*
X540789Y267854D01*
X540733Y267590D01*
X540670Y267327D01*
X540602Y267066D01*
X540526Y266807D01*
X540445Y266550D01*
X540357Y266294D01*
X540263Y266041D01*
X540163Y265790D01*
X540056Y265542D01*
X539944Y265297D01*
X539825Y265054D01*
X539701Y264815D01*
X539571Y264578D01*
X539435Y264345D01*
X539293Y264115D01*
X539146Y263889D01*
X538993Y263666D01*
X538835Y263447D01*
X538672Y263232D01*
X538503Y263022D01*
X538329Y262815D01*
X538150Y262613D01*
X537967Y262415D01*
X537778Y262222D01*
X537585Y262033D01*
X537387Y261850D01*
X537185Y261671D01*
X536978Y261497D01*
X536768Y261328D01*
X536553Y261165D01*
X536334Y261007D01*
X536111Y260854D01*
X535885Y260707D01*
X535655Y260565D01*
X535422Y260429D01*
X535185Y260299D01*
X534946Y260175D01*
X534703Y260056D01*
X534458Y259944D01*
X534210Y259837D01*
X533959Y259737D01*
X533706Y259643D01*
X533450Y259555D01*
X533193Y259474D01*
X532934Y259398D01*
X532673Y259330D01*
X532410Y259267D01*
X532146Y259211D01*
X531881Y259162D01*
X531614Y259119D01*
X531347Y259083D01*
X531078Y259053D01*
X530809Y259030D01*
X530540Y259013D01*
X530270Y259003D01*
X530000Y259000D01*
X529730Y259003D01*
X529460Y259013D01*
X529191Y259030D01*
X528922Y259053D01*
X528653Y259083D01*
X528386Y259119D01*
X528119Y259162D01*
X527854Y259211D01*
X527590Y259267D01*
X527327Y259330D01*
X527066Y259398D01*
X526807Y259474D01*
X526550Y259555D01*
X526294Y259643D01*
X526041Y259737D01*
X525790Y259837D01*
X525542Y259944D01*
X525297Y260056D01*
X525054Y260175D01*
X524815Y260299D01*
X524578Y260429D01*
X524345Y260565D01*
X524115Y260707D01*
X523889Y260854D01*
X523666Y261007D01*
X523447Y261165D01*
X523232Y261328D01*
X523022Y261497D01*
X522815Y261671D01*
X522613Y261850D01*
X522415Y262033D01*
X522222Y262222D01*
X522033Y262415D01*
X521850Y262613D01*
X521671Y262815D01*
X521497Y263022D01*
X521328Y263232D01*
X521165Y263447D01*
X521007Y263666D01*
X520854Y263889D01*
X520707Y264115D01*
X520565Y264345D01*
X520429Y264578D01*
X520299Y264815D01*
X520175Y265054D01*
X520056Y265297D01*
X519944Y265542D01*
X519837Y265790D01*
X519737Y266041D01*
X519643Y266294D01*
X519555Y266550D01*
X519474Y266807D01*
X519398Y267066D01*
X519330Y267327D01*
X519267Y267590D01*
X519211Y267854D01*
X519162Y268119D01*
X519119Y268386D01*
X519083Y268653D01*
X519053Y268922D01*
X519030Y269191D01*
X519013Y269460D01*
X519003Y269730D01*
X519000Y270000D01*
X519000Y-270000D02*
X519003Y-269730D01*
X519013Y-269460D01*
X519030Y-269191D01*
X519053Y-268922D01*
X519083Y-268653D01*
X519119Y-268386D01*
X519162Y-268119D01*
X519211Y-267854D01*
X519267Y-267590D01*
X519330Y-267327D01*
X519398Y-267066D01*
X519474Y-266807D01*
X519555Y-266550D01*
X519643Y-266294D01*
X519737Y-266041D01*
X519837Y-265790D01*
X519944Y-265542D01*
X520056Y-265297D01*
X520175Y-265054D01*
X520299Y-264815D01*
X520429Y-264578D01*
X520565Y-264345D01*
X520707Y-264115D01*
X520854Y-263889D01*
X521007Y-263666D01*
X521165Y-263447D01*
X521328Y-263232D01*
X521497Y-263022D01*
X521671Y-262815D01*
X521850Y-262613D01*
X522033Y-262415D01*
X522222Y-262222D01*
X522415Y-262033D01*
X522613Y-261850D01*
X522815Y-261671D01*
X523022Y-261497D01*
X523232Y-261328D01*
X523447Y-261165D01*
X523666Y-261007D01*
X523889Y-260854D01*
X524115Y-260707D01*
X524345Y-260565D01*
X524578Y-260429D01*
X524815Y-260299D01*
X525054Y-260175D01*
X525297Y-260056D01*
X525542Y-259944D01*
X525790Y-259837D01*
X526041Y-259737D01*
X526294Y-259643D01*
X526550Y-259555D01*
X526807Y-259474D01*
X527066Y-259398D01*
X527327Y-259330D01*
X527590Y-259267D01*
X527854Y-259211D01*
X528119Y-259162D01*
X528386Y-259119D01*
X528653Y-259083D01*
X528922Y-259053D01*
X529191Y-259030D01*
X529460Y-259013D01*
X529730Y-259003D01*
X530000Y-259000D01*
X530270Y-259003D01*
X530540Y-259013D01*
X530809Y-259030D01*
X531078Y-259053D01*
X531347Y-259083D01*
X531614Y-259119D01*
X531881Y-259162D01*
X532146Y-259211D01*
X532410Y-259267D01*
X532673Y-259330D01*
X532934Y-259398D01*
X533193Y-259474D01*
X533450Y-259555D01*
X533706Y-259643D01*
X533959Y-259737D01*
X534210Y-259837D01*
X534458Y-259944D01*
X534703Y-260056D01*
X534946Y-260175D01*
X535185Y-260299D01*
X535422Y-260429D01*
X535655Y-260565D01*
X535885Y-260707D01*
X536111Y-260854D01*
X536334Y-261007D01*
X536553Y-261165D01*
X536768Y-261328D01*
X536978Y-261497D01*
X537185Y-261671D01*
X537387Y-261850D01*
X537585Y-262033D01*
X537778Y-262222D01*
X537967Y-262415D01*
X538150Y-262613D01*
X538329Y-262815D01*
X538503Y-263022D01*
X538672Y-263232D01*
X538835Y-263447D01*
X538993Y-263666D01*
X539146Y-263889D01*
X539293Y-264115D01*
X539435Y-264345D01*
X539571Y-264578D01*
X539701Y-264815D01*
X539825Y-265054D01*
X539944Y-265297D01*
X540056Y-265542D01*
X540163Y-265790D01*
X540263Y-266041D01*
X540357Y-266294D01*
X540445Y-266550D01*
X540526Y-266807D01*
X540602Y-267066D01*
X540670Y-267327D01*
X540733Y-267590D01*
X540789Y-267854D01*
X540838Y-268119D01*
X540881Y-268386D01*
X540917Y-268653D01*
X540947Y-268922D01*
X540970Y-269191D01*
X540987Y-269460D01*
X540997Y-269730D01*
X541000Y-270000D01*
X540997Y-270270D01*
X540987Y-270540D01*
X540970Y-270809D01*
X540947Y-271078D01*
X540917Y-271347D01*
X540881Y-271614D01*
X540838Y-271881D01*
X540789Y-272146D01*
X540733Y-272410D01*
X540670Y-272673D01*
X540602Y-272934D01*
X540526Y-273193D01*
X540445Y-273450D01*
X540357Y-273706D01*
X540263Y-273959D01*
X540163Y-274210D01*
X540056Y-274458D01*
X539944Y-274703D01*
X539825Y-274946D01*
X539701Y-275185D01*
X539571Y-275422D01*
X539435Y-275655D01*
X539293Y-275885D01*
X539146Y-276111D01*
X538993Y-276334D01*
X538835Y-276553D01*
X538672Y-276768D01*
X538503Y-276978D01*
X538329Y-277185D01*
X538150Y-277387D01*
X537967Y-277585D01*
X537778Y-277778D01*
X537585Y-277967D01*
X537387Y-278150D01*
X537185Y-278329D01*
X536978Y-278503D01*
X536768Y-278672D01*
X536553Y-278835D01*
X536334Y-278993D01*
X536111Y-279146D01*
X535885Y-279293D01*
X535655Y-279435D01*
X535422Y-279571D01*
X535185Y-279701D01*
X534946Y-279825D01*
X534703Y-279944D01*
X534458Y-280056D01*
X534210Y-280163D01*
X533959Y-280263D01*
X533706Y-280357D01*
X533450Y-280445D01*
X533193Y-280526D01*
X532934Y-280602D01*
X532673Y-280670D01*
X532410Y-280733D01*
X532146Y-280789D01*
X531881Y-280838D01*
X531614Y-280881D01*
X531347Y-280917D01*
X531078Y-280947D01*
X530809Y-280970D01*
X530540Y-280987D01*
X530270Y-280997D01*
X530000Y-281000D01*
X529730Y-280997D01*
X529460Y-280987D01*
X529191Y-280970D01*
X528922Y-280947D01*
X528653Y-280917D01*
X528386Y-280881D01*
X528119Y-280838D01*
X527854Y-280789D01*
X527590Y-280733D01*
X527327Y-280670D01*
X527066Y-280602D01*
X526807Y-280526D01*
X526550Y-280445D01*
X526294Y-280357D01*
X526041Y-280263D01*
X525790Y-280163D01*
X525542Y-280056D01*
X525297Y-279944D01*
X525054Y-279825D01*
X524815Y-279701D01*
X524578Y-279571D01*
X524345Y-279435D01*
X524115Y-279293D01*
X523889Y-279146D01*
X523666Y-278993D01*
X523447Y-278835D01*
X523232Y-278672D01*
X523022Y-278503D01*
X522815Y-278329D01*
X522613Y-278150D01*
X522415Y-277967D01*
X522222Y-277778D01*
X522033Y-277585D01*
X521850Y-277387D01*
X521671Y-277185D01*
X521497Y-276978D01*
X521328Y-276768D01*
X521165Y-276553D01*
X521007Y-276334D01*
X520854Y-276111D01*
X520707Y-275885D01*
X520565Y-275655D01*
X520429Y-275422D01*
X520299Y-275185D01*
X520175Y-274946D01*
X520056Y-274703D01*
X519944Y-274458D01*
X519837Y-274210D01*
X519737Y-273959D01*
X519643Y-273706D01*
X519555Y-273450D01*
X519474Y-273193D01*
X519398Y-272934D01*
X519330Y-272673D01*
X519267Y-272410D01*
X519211Y-272146D01*
X519162Y-271881D01*
X519119Y-271614D01*
X519083Y-271347D01*
X519053Y-271078D01*
X519030Y-270809D01*
X519013Y-270540D01*
X519003Y-270270D01*
X519000Y-270000D01*
D12*
X-45898Y18805D02*
X-45898Y26595D01*
X-159408Y28542D02*
X-159408Y16858D01*
X-162654Y16858D01*
X-162741Y16860D01*
X-162829Y16866D01*
X-162915Y16876D01*
X-163002Y16889D01*
X-163087Y16907D01*
X-163172Y16928D01*
X-163256Y16953D01*
X-163338Y16982D01*
X-163419Y17015D01*
X-163499Y17051D01*
X-163577Y17090D01*
X-163653Y17134D01*
X-163727Y17180D01*
X-163798Y17230D01*
X-163868Y17283D01*
X-163935Y17339D01*
X-163999Y17398D01*
X-164061Y17459D01*
X-164120Y17524D01*
X-164176Y17591D01*
X-164229Y17661D01*
X-164279Y17732D01*
X-164325Y17806D01*
X-164369Y17882D01*
X-164408Y17960D01*
X-164444Y18040D01*
X-164477Y18121D01*
X-164506Y18203D01*
X-164531Y18287D01*
X-164552Y18372D01*
X-164570Y18457D01*
X-164583Y18544D01*
X-164593Y18630D01*
X-164599Y18718D01*
X-164601Y18805D01*
X-164601Y22700D01*
X-164599Y22787D01*
X-164593Y22875D01*
X-164583Y22961D01*
X-164570Y23048D01*
X-164552Y23133D01*
X-164531Y23218D01*
X-164506Y23302D01*
X-164477Y23384D01*
X-164444Y23465D01*
X-164408Y23545D01*
X-164369Y23623D01*
X-164325Y23699D01*
X-164279Y23773D01*
X-164229Y23844D01*
X-164176Y23914D01*
X-164120Y23981D01*
X-164061Y24045D01*
X-163999Y24107D01*
X-163935Y24166D01*
X-163868Y24222D01*
X-163798Y24275D01*
X-163727Y24325D01*
X-163653Y24371D01*
X-163577Y24415D01*
X-163499Y24454D01*
X-163419Y24490D01*
X-163338Y24523D01*
X-163256Y24552D01*
X-163172Y24577D01*
X-163087Y24598D01*
X-163002Y24616D01*
X-162915Y24629D01*
X-162829Y24639D01*
X-162741Y24645D01*
X-162654Y24647D01*
X-159408Y24647D01*
X-169405Y28542D02*
X-169405Y18805D01*
X-169407Y18718D01*
X-169413Y18630D01*
X-169423Y18544D01*
X-169436Y18457D01*
X-169454Y18372D01*
X-169475Y18287D01*
X-169500Y18203D01*
X-169529Y18121D01*
X-169562Y18040D01*
X-169598Y17960D01*
X-169637Y17882D01*
X-169681Y17806D01*
X-169727Y17732D01*
X-169777Y17661D01*
X-169830Y17591D01*
X-169886Y17524D01*
X-169945Y17460D01*
X-170007Y17398D01*
X-170071Y17339D01*
X-170138Y17283D01*
X-170208Y17230D01*
X-170279Y17180D01*
X-170353Y17134D01*
X-170429Y17090D01*
X-170507Y17051D01*
X-170587Y17015D01*
X-170668Y16982D01*
X-170750Y16953D01*
X-170834Y16928D01*
X-170919Y16907D01*
X-171004Y16889D01*
X-171091Y16876D01*
X-171177Y16866D01*
X-171265Y16860D01*
X-171352Y16858D01*
X-177564Y21402D02*
X-180485Y21402D01*
X-177564Y21402D02*
X-177470Y21400D01*
X-177376Y21394D01*
X-177283Y21385D01*
X-177190Y21371D01*
X-177098Y21354D01*
X-177006Y21332D01*
X-176916Y21308D01*
X-176826Y21279D01*
X-176738Y21247D01*
X-176651Y21211D01*
X-176566Y21171D01*
X-176483Y21128D01*
X-176401Y21082D01*
X-176321Y21032D01*
X-176244Y20979D01*
X-176169Y20923D01*
X-176096Y20864D01*
X-176025Y20802D01*
X-175957Y20737D01*
X-175892Y20669D01*
X-175830Y20598D01*
X-175771Y20525D01*
X-175715Y20450D01*
X-175662Y20373D01*
X-175612Y20293D01*
X-175566Y20211D01*
X-175523Y20128D01*
X-175483Y20043D01*
X-175447Y19956D01*
X-175415Y19868D01*
X-175386Y19778D01*
X-175362Y19688D01*
X-175340Y19596D01*
X-175323Y19504D01*
X-175309Y19411D01*
X-175300Y19318D01*
X-175294Y19224D01*
X-175292Y19130D01*
X-175294Y19036D01*
X-175300Y18942D01*
X-175309Y18849D01*
X-175323Y18756D01*
X-175340Y18664D01*
X-175362Y18572D01*
X-175386Y18482D01*
X-175415Y18392D01*
X-175447Y18304D01*
X-175483Y18217D01*
X-175523Y18132D01*
X-175566Y18049D01*
X-175612Y17967D01*
X-175662Y17887D01*
X-175715Y17810D01*
X-175771Y17735D01*
X-175830Y17662D01*
X-175892Y17591D01*
X-175957Y17523D01*
X-176025Y17458D01*
X-176096Y17396D01*
X-176169Y17337D01*
X-176244Y17281D01*
X-176321Y17228D01*
X-176401Y17178D01*
X-176483Y17132D01*
X-176566Y17089D01*
X-176651Y17049D01*
X-176738Y17013D01*
X-176826Y16981D01*
X-176916Y16952D01*
X-177006Y16928D01*
X-177098Y16906D01*
X-177190Y16889D01*
X-177283Y16875D01*
X-177376Y16866D01*
X-177470Y16860D01*
X-177564Y16858D01*
X-180485Y16858D01*
X-180485Y22700D01*
X-180483Y22787D01*
X-180477Y22875D01*
X-180467Y22961D01*
X-180454Y23048D01*
X-180436Y23133D01*
X-180415Y23218D01*
X-180390Y23302D01*
X-180361Y23384D01*
X-180328Y23465D01*
X-180292Y23545D01*
X-180253Y23623D01*
X-180209Y23699D01*
X-180163Y23773D01*
X-180113Y23844D01*
X-180060Y23914D01*
X-180004Y23981D01*
X-179945Y24045D01*
X-179883Y24107D01*
X-179819Y24166D01*
X-179752Y24222D01*
X-179682Y24275D01*
X-179611Y24325D01*
X-179537Y24371D01*
X-179461Y24415D01*
X-179383Y24454D01*
X-179303Y24490D01*
X-179222Y24523D01*
X-179140Y24552D01*
X-179056Y24577D01*
X-178971Y24598D01*
X-178886Y24616D01*
X-178799Y24629D01*
X-178713Y24639D01*
X-178625Y24645D01*
X-178538Y24647D01*
X-175941Y24647D01*
X-187599Y16858D02*
X-190195Y16858D01*
X-187599Y16858D02*
X-187512Y16860D01*
X-187424Y16866D01*
X-187338Y16876D01*
X-187251Y16889D01*
X-187166Y16907D01*
X-187081Y16928D01*
X-186997Y16953D01*
X-186915Y16982D01*
X-186834Y17015D01*
X-186754Y17051D01*
X-186676Y17090D01*
X-186600Y17134D01*
X-186526Y17180D01*
X-186455Y17230D01*
X-186385Y17283D01*
X-186318Y17339D01*
X-186254Y17398D01*
X-186192Y17460D01*
X-186133Y17524D01*
X-186077Y17591D01*
X-186024Y17661D01*
X-185974Y17732D01*
X-185928Y17806D01*
X-185884Y17882D01*
X-185845Y17960D01*
X-185809Y18040D01*
X-185776Y18121D01*
X-185747Y18203D01*
X-185722Y18287D01*
X-185701Y18372D01*
X-185683Y18457D01*
X-185670Y18544D01*
X-185660Y18630D01*
X-185654Y18718D01*
X-185652Y18805D01*
X-185651Y18805D02*
X-185651Y22700D01*
X-185652Y22700D02*
X-185654Y22787D01*
X-185660Y22875D01*
X-185670Y22961D01*
X-185683Y23048D01*
X-185701Y23133D01*
X-185722Y23218D01*
X-185747Y23302D01*
X-185776Y23384D01*
X-185809Y23465D01*
X-185845Y23545D01*
X-185884Y23623D01*
X-185928Y23699D01*
X-185974Y23773D01*
X-186024Y23844D01*
X-186077Y23914D01*
X-186133Y23981D01*
X-186192Y24045D01*
X-186254Y24107D01*
X-186318Y24166D01*
X-186385Y24222D01*
X-186455Y24275D01*
X-186526Y24325D01*
X-186600Y24371D01*
X-186676Y24415D01*
X-186754Y24454D01*
X-186834Y24490D01*
X-186915Y24523D01*
X-186997Y24552D01*
X-187081Y24577D01*
X-187166Y24598D01*
X-187251Y24616D01*
X-187338Y24629D01*
X-187424Y24639D01*
X-187512Y24645D01*
X-187599Y24647D01*
X-190195Y24647D01*
X-194917Y28542D02*
X-194917Y16858D01*
X-194917Y20753D02*
X-200110Y24647D01*
X-197189Y22375D02*
X-200110Y16858D01*
X-50442Y44854D02*
X-38758Y44854D01*
X-43951Y44854D02*
X-43951Y51346D01*
X-38758Y51346D02*
X-50442Y51346D01*
X-45898Y69605D02*
X-45898Y77395D01*
X-42004Y73500D02*
X-49793Y73500D01*
X-159408Y75447D02*
X-161355Y67658D01*
X-163303Y72851D01*
X-165250Y67658D01*
X-167197Y75447D01*
X-172136Y79342D02*
X-172136Y67658D01*
X-172136Y75447D02*
X-175382Y75447D01*
X-175469Y75445D01*
X-175557Y75439D01*
X-175643Y75429D01*
X-175730Y75416D01*
X-175815Y75398D01*
X-175900Y75377D01*
X-175984Y75352D01*
X-176066Y75323D01*
X-176147Y75290D01*
X-176227Y75254D01*
X-176305Y75215D01*
X-176381Y75171D01*
X-176455Y75125D01*
X-176526Y75075D01*
X-176596Y75022D01*
X-176663Y74966D01*
X-176727Y74907D01*
X-176789Y74846D01*
X-176848Y74781D01*
X-176904Y74714D01*
X-176957Y74644D01*
X-177007Y74573D01*
X-177053Y74499D01*
X-177097Y74423D01*
X-177136Y74345D01*
X-177172Y74265D01*
X-177205Y74184D01*
X-177234Y74102D01*
X-177259Y74018D01*
X-177280Y73933D01*
X-177298Y73848D01*
X-177311Y73761D01*
X-177321Y73675D01*
X-177327Y73587D01*
X-177329Y73500D01*
X-177329Y67658D01*
X-182353Y67658D02*
X-182353Y75447D01*
X-182028Y78693D02*
X-182028Y79342D01*
X-182677Y79342D01*
X-182677Y78693D01*
X-182028Y78693D01*
X-186028Y75447D02*
X-189923Y75447D01*
X-187326Y79342D02*
X-187326Y69605D01*
X-187328Y69518D01*
X-187334Y69430D01*
X-187344Y69344D01*
X-187357Y69257D01*
X-187375Y69172D01*
X-187396Y69087D01*
X-187421Y69003D01*
X-187450Y68921D01*
X-187483Y68840D01*
X-187519Y68760D01*
X-187558Y68682D01*
X-187602Y68606D01*
X-187648Y68532D01*
X-187698Y68461D01*
X-187751Y68391D01*
X-187807Y68324D01*
X-187866Y68260D01*
X-187928Y68198D01*
X-187992Y68139D01*
X-188059Y68083D01*
X-188129Y68030D01*
X-188200Y67980D01*
X-188274Y67934D01*
X-188350Y67890D01*
X-188428Y67851D01*
X-188508Y67815D01*
X-188589Y67782D01*
X-188671Y67753D01*
X-188755Y67728D01*
X-188840Y67707D01*
X-188925Y67689D01*
X-189012Y67676D01*
X-189098Y67666D01*
X-189186Y67660D01*
X-189273Y67658D01*
X-189923Y67658D01*
X-196181Y67658D02*
X-199427Y67658D01*
X-196181Y67658D02*
X-196094Y67660D01*
X-196006Y67666D01*
X-195920Y67676D01*
X-195833Y67689D01*
X-195748Y67707D01*
X-195663Y67728D01*
X-195579Y67753D01*
X-195497Y67782D01*
X-195416Y67815D01*
X-195336Y67851D01*
X-195258Y67890D01*
X-195182Y67934D01*
X-195108Y67980D01*
X-195037Y68030D01*
X-194967Y68083D01*
X-194900Y68139D01*
X-194836Y68198D01*
X-194774Y68260D01*
X-194715Y68324D01*
X-194659Y68391D01*
X-194606Y68461D01*
X-194556Y68532D01*
X-194510Y68606D01*
X-194466Y68682D01*
X-194427Y68760D01*
X-194391Y68840D01*
X-194358Y68921D01*
X-194329Y69003D01*
X-194304Y69087D01*
X-194283Y69172D01*
X-194265Y69257D01*
X-194252Y69344D01*
X-194242Y69430D01*
X-194236Y69518D01*
X-194234Y69605D01*
X-194234Y72851D01*
X-194235Y72851D02*
X-194237Y72952D01*
X-194243Y73052D01*
X-194253Y73152D01*
X-194266Y73252D01*
X-194284Y73351D01*
X-194305Y73450D01*
X-194330Y73547D01*
X-194359Y73644D01*
X-194392Y73739D01*
X-194428Y73833D01*
X-194468Y73925D01*
X-194511Y74016D01*
X-194558Y74105D01*
X-194608Y74192D01*
X-194662Y74278D01*
X-194719Y74361D01*
X-194779Y74441D01*
X-194842Y74520D01*
X-194909Y74596D01*
X-194978Y74669D01*
X-195050Y74739D01*
X-195124Y74807D01*
X-195201Y74872D01*
X-195281Y74933D01*
X-195363Y74992D01*
X-195447Y75047D01*
X-195533Y75099D01*
X-195621Y75148D01*
X-195711Y75193D01*
X-195803Y75235D01*
X-195896Y75273D01*
X-195991Y75307D01*
X-196086Y75338D01*
X-196183Y75365D01*
X-196281Y75388D01*
X-196380Y75408D01*
X-196480Y75423D01*
X-196580Y75435D01*
X-196680Y75443D01*
X-196781Y75447D01*
X-196881Y75447D01*
X-196982Y75443D01*
X-197082Y75435D01*
X-197182Y75423D01*
X-197282Y75408D01*
X-197381Y75388D01*
X-197479Y75365D01*
X-197576Y75338D01*
X-197671Y75307D01*
X-197766Y75273D01*
X-197859Y75235D01*
X-197951Y75193D01*
X-198041Y75148D01*
X-198129Y75099D01*
X-198215Y75047D01*
X-198299Y74992D01*
X-198381Y74933D01*
X-198461Y74872D01*
X-198538Y74807D01*
X-198612Y74739D01*
X-198684Y74669D01*
X-198753Y74596D01*
X-198820Y74520D01*
X-198883Y74441D01*
X-198943Y74361D01*
X-199000Y74278D01*
X-199054Y74192D01*
X-199104Y74105D01*
X-199151Y74016D01*
X-199194Y73925D01*
X-199234Y73833D01*
X-199270Y73739D01*
X-199303Y73644D01*
X-199332Y73547D01*
X-199357Y73450D01*
X-199378Y73351D01*
X-199396Y73252D01*
X-199409Y73152D01*
X-199419Y73052D01*
X-199425Y72952D01*
X-199427Y72851D01*
X-199427Y71553D01*
X-194234Y71553D01*
D13*
X-125000Y90000D02*
X-100000Y90000D01*
X-125000Y90000D02*
X-125000Y-68730D01*
D12*
X-45898Y-6595D02*
X-45898Y1195D01*
X-42004Y-2700D02*
X-49793Y-2700D01*
X-159408Y-753D02*
X-161355Y-8542D01*
X-163303Y-3349D01*
X-165250Y-8542D01*
X-167197Y-753D01*
X-172136Y3142D02*
X-172136Y-8542D01*
X-172136Y-753D02*
X-175382Y-753D01*
X-175469Y-755D01*
X-175557Y-761D01*
X-175643Y-771D01*
X-175730Y-784D01*
X-175815Y-802D01*
X-175900Y-823D01*
X-175984Y-848D01*
X-176066Y-877D01*
X-176147Y-910D01*
X-176227Y-946D01*
X-176305Y-985D01*
X-176381Y-1029D01*
X-176455Y-1075D01*
X-176526Y-1125D01*
X-176596Y-1178D01*
X-176663Y-1234D01*
X-176727Y-1293D01*
X-176789Y-1354D01*
X-176848Y-1419D01*
X-176904Y-1486D01*
X-176957Y-1556D01*
X-177007Y-1627D01*
X-177053Y-1701D01*
X-177097Y-1777D01*
X-177136Y-1855D01*
X-177172Y-1935D01*
X-177205Y-2016D01*
X-177234Y-2098D01*
X-177259Y-2182D01*
X-177280Y-2267D01*
X-177298Y-2352D01*
X-177311Y-2439D01*
X-177321Y-2525D01*
X-177327Y-2613D01*
X-177329Y-2700D01*
X-177329Y-8542D01*
X-182353Y-8542D02*
X-182353Y-753D01*
X-182028Y2493D02*
X-182028Y3142D01*
X-182677Y3142D01*
X-182677Y2493D01*
X-182028Y2493D01*
X-186028Y-753D02*
X-189923Y-753D01*
X-187326Y3142D02*
X-187326Y-6595D01*
X-187328Y-6682D01*
X-187334Y-6770D01*
X-187344Y-6856D01*
X-187357Y-6943D01*
X-187375Y-7028D01*
X-187396Y-7113D01*
X-187421Y-7197D01*
X-187450Y-7279D01*
X-187483Y-7360D01*
X-187519Y-7440D01*
X-187558Y-7518D01*
X-187602Y-7594D01*
X-187648Y-7668D01*
X-187698Y-7739D01*
X-187751Y-7809D01*
X-187807Y-7876D01*
X-187866Y-7940D01*
X-187928Y-8002D01*
X-187992Y-8061D01*
X-188059Y-8117D01*
X-188129Y-8170D01*
X-188200Y-8220D01*
X-188274Y-8266D01*
X-188350Y-8310D01*
X-188428Y-8349D01*
X-188508Y-8385D01*
X-188589Y-8418D01*
X-188671Y-8447D01*
X-188755Y-8472D01*
X-188840Y-8493D01*
X-188925Y-8511D01*
X-189012Y-8524D01*
X-189098Y-8534D01*
X-189186Y-8540D01*
X-189273Y-8542D01*
X-189923Y-8542D01*
X-196181Y-8542D02*
X-199427Y-8542D01*
X-196181Y-8542D02*
X-196094Y-8540D01*
X-196006Y-8534D01*
X-195920Y-8524D01*
X-195833Y-8511D01*
X-195748Y-8493D01*
X-195663Y-8472D01*
X-195579Y-8447D01*
X-195497Y-8418D01*
X-195416Y-8385D01*
X-195336Y-8349D01*
X-195258Y-8310D01*
X-195182Y-8266D01*
X-195108Y-8220D01*
X-195037Y-8170D01*
X-194967Y-8117D01*
X-194900Y-8061D01*
X-194836Y-8002D01*
X-194774Y-7940D01*
X-194715Y-7876D01*
X-194659Y-7809D01*
X-194606Y-7739D01*
X-194556Y-7668D01*
X-194510Y-7594D01*
X-194466Y-7518D01*
X-194427Y-7440D01*
X-194391Y-7360D01*
X-194358Y-7279D01*
X-194329Y-7197D01*
X-194304Y-7113D01*
X-194283Y-7028D01*
X-194265Y-6943D01*
X-194252Y-6856D01*
X-194242Y-6770D01*
X-194236Y-6682D01*
X-194234Y-6595D01*
X-194234Y-3349D01*
X-194235Y-3349D02*
X-194237Y-3248D01*
X-194243Y-3148D01*
X-194253Y-3048D01*
X-194266Y-2948D01*
X-194284Y-2849D01*
X-194305Y-2750D01*
X-194330Y-2653D01*
X-194359Y-2556D01*
X-194392Y-2461D01*
X-194428Y-2367D01*
X-194468Y-2275D01*
X-194511Y-2184D01*
X-194558Y-2095D01*
X-194608Y-2008D01*
X-194662Y-1922D01*
X-194719Y-1839D01*
X-194779Y-1759D01*
X-194842Y-1680D01*
X-194909Y-1604D01*
X-194978Y-1531D01*
X-195050Y-1461D01*
X-195124Y-1393D01*
X-195201Y-1328D01*
X-195281Y-1267D01*
X-195363Y-1208D01*
X-195447Y-1153D01*
X-195533Y-1101D01*
X-195621Y-1052D01*
X-195711Y-1007D01*
X-195803Y-965D01*
X-195896Y-927D01*
X-195991Y-893D01*
X-196086Y-862D01*
X-196183Y-835D01*
X-196281Y-812D01*
X-196380Y-792D01*
X-196480Y-777D01*
X-196580Y-765D01*
X-196680Y-757D01*
X-196781Y-753D01*
X-196881Y-753D01*
X-196982Y-757D01*
X-197082Y-765D01*
X-197182Y-777D01*
X-197282Y-792D01*
X-197381Y-812D01*
X-197479Y-835D01*
X-197576Y-862D01*
X-197671Y-893D01*
X-197766Y-927D01*
X-197859Y-965D01*
X-197951Y-1007D01*
X-198041Y-1052D01*
X-198129Y-1101D01*
X-198215Y-1153D01*
X-198299Y-1208D01*
X-198381Y-1267D01*
X-198461Y-1328D01*
X-198538Y-1393D01*
X-198612Y-1461D01*
X-198684Y-1531D01*
X-198753Y-1604D01*
X-198820Y-1680D01*
X-198883Y-1759D01*
X-198943Y-1839D01*
X-199000Y-1922D01*
X-199054Y-2008D01*
X-199104Y-2095D01*
X-199151Y-2184D01*
X-199194Y-2275D01*
X-199234Y-2367D01*
X-199270Y-2461D01*
X-199303Y-2556D01*
X-199332Y-2653D01*
X-199357Y-2750D01*
X-199378Y-2849D01*
X-199396Y-2948D01*
X-199409Y-3048D01*
X-199419Y-3148D01*
X-199425Y-3248D01*
X-199427Y-3349D01*
X-199427Y-4647D01*
X-194234Y-4647D01*
X-50442Y-28100D02*
X-38758Y-31995D01*
X-38758Y-24205D02*
X-50442Y-28100D01*
X-45898Y-49605D02*
X-45898Y-57395D01*
X-159408Y-59342D02*
X-159408Y-47658D01*
X-159408Y-59342D02*
X-162654Y-59342D01*
X-162741Y-59340D01*
X-162829Y-59334D01*
X-162915Y-59324D01*
X-163002Y-59311D01*
X-163087Y-59293D01*
X-163172Y-59272D01*
X-163256Y-59247D01*
X-163338Y-59218D01*
X-163419Y-59185D01*
X-163499Y-59149D01*
X-163577Y-59110D01*
X-163653Y-59066D01*
X-163727Y-59020D01*
X-163798Y-58970D01*
X-163868Y-58917D01*
X-163935Y-58861D01*
X-163999Y-58802D01*
X-164061Y-58741D01*
X-164120Y-58676D01*
X-164176Y-58609D01*
X-164229Y-58539D01*
X-164279Y-58468D01*
X-164325Y-58394D01*
X-164369Y-58318D01*
X-164408Y-58240D01*
X-164444Y-58160D01*
X-164477Y-58079D01*
X-164506Y-57997D01*
X-164531Y-57913D01*
X-164552Y-57828D01*
X-164570Y-57743D01*
X-164583Y-57656D01*
X-164593Y-57570D01*
X-164599Y-57482D01*
X-164601Y-57395D01*
X-164601Y-53500D01*
X-164599Y-53413D01*
X-164593Y-53325D01*
X-164583Y-53239D01*
X-164570Y-53152D01*
X-164552Y-53067D01*
X-164531Y-52982D01*
X-164506Y-52898D01*
X-164477Y-52816D01*
X-164444Y-52735D01*
X-164408Y-52655D01*
X-164369Y-52577D01*
X-164325Y-52501D01*
X-164279Y-52427D01*
X-164229Y-52356D01*
X-164176Y-52286D01*
X-164120Y-52219D01*
X-164061Y-52155D01*
X-163999Y-52093D01*
X-163935Y-52034D01*
X-163868Y-51978D01*
X-163798Y-51925D01*
X-163727Y-51875D01*
X-163653Y-51829D01*
X-163577Y-51785D01*
X-163499Y-51746D01*
X-163419Y-51710D01*
X-163338Y-51677D01*
X-163256Y-51648D01*
X-163172Y-51623D01*
X-163087Y-51602D01*
X-163002Y-51584D01*
X-162915Y-51571D01*
X-162829Y-51561D01*
X-162741Y-51555D01*
X-162654Y-51553D01*
X-159408Y-51553D01*
X-169405Y-47658D02*
X-169405Y-57395D01*
X-169407Y-57482D01*
X-169413Y-57570D01*
X-169423Y-57656D01*
X-169436Y-57743D01*
X-169454Y-57828D01*
X-169475Y-57913D01*
X-169500Y-57997D01*
X-169529Y-58079D01*
X-169562Y-58160D01*
X-169598Y-58240D01*
X-169637Y-58318D01*
X-169681Y-58394D01*
X-169727Y-58468D01*
X-169777Y-58539D01*
X-169830Y-58609D01*
X-169886Y-58676D01*
X-169945Y-58740D01*
X-170007Y-58802D01*
X-170071Y-58861D01*
X-170138Y-58917D01*
X-170208Y-58970D01*
X-170279Y-59020D01*
X-170353Y-59066D01*
X-170429Y-59110D01*
X-170507Y-59149D01*
X-170587Y-59185D01*
X-170668Y-59218D01*
X-170750Y-59247D01*
X-170834Y-59272D01*
X-170919Y-59293D01*
X-171004Y-59311D01*
X-171091Y-59324D01*
X-171177Y-59334D01*
X-171265Y-59340D01*
X-171352Y-59342D01*
X-177564Y-54798D02*
X-180485Y-54798D01*
X-177564Y-54798D02*
X-177470Y-54800D01*
X-177376Y-54806D01*
X-177283Y-54815D01*
X-177190Y-54829D01*
X-177098Y-54846D01*
X-177006Y-54868D01*
X-176916Y-54892D01*
X-176826Y-54921D01*
X-176738Y-54953D01*
X-176651Y-54989D01*
X-176566Y-55029D01*
X-176483Y-55072D01*
X-176401Y-55118D01*
X-176321Y-55168D01*
X-176244Y-55221D01*
X-176169Y-55277D01*
X-176096Y-55336D01*
X-176025Y-55398D01*
X-175957Y-55463D01*
X-175892Y-55531D01*
X-175830Y-55602D01*
X-175771Y-55675D01*
X-175715Y-55750D01*
X-175662Y-55827D01*
X-175612Y-55907D01*
X-175566Y-55989D01*
X-175523Y-56072D01*
X-175483Y-56157D01*
X-175447Y-56244D01*
X-175415Y-56332D01*
X-175386Y-56422D01*
X-175362Y-56512D01*
X-175340Y-56604D01*
X-175323Y-56696D01*
X-175309Y-56789D01*
X-175300Y-56882D01*
X-175294Y-56976D01*
X-175292Y-57070D01*
X-175294Y-57164D01*
X-175300Y-57258D01*
X-175309Y-57351D01*
X-175323Y-57444D01*
X-175340Y-57536D01*
X-175362Y-57628D01*
X-175386Y-57718D01*
X-175415Y-57808D01*
X-175447Y-57896D01*
X-175483Y-57983D01*
X-175523Y-58068D01*
X-175566Y-58151D01*
X-175612Y-58233D01*
X-175662Y-58313D01*
X-175715Y-58390D01*
X-175771Y-58465D01*
X-175830Y-58538D01*
X-175892Y-58609D01*
X-175957Y-58677D01*
X-176025Y-58742D01*
X-176096Y-58804D01*
X-176169Y-58863D01*
X-176244Y-58919D01*
X-176321Y-58972D01*
X-176401Y-59022D01*
X-176483Y-59068D01*
X-176566Y-59111D01*
X-176651Y-59151D01*
X-176738Y-59187D01*
X-176826Y-59219D01*
X-176916Y-59248D01*
X-177006Y-59272D01*
X-177098Y-59294D01*
X-177190Y-59311D01*
X-177283Y-59325D01*
X-177376Y-59334D01*
X-177470Y-59340D01*
X-177564Y-59342D01*
X-180485Y-59342D01*
X-180485Y-53500D01*
X-180483Y-53413D01*
X-180477Y-53325D01*
X-180467Y-53239D01*
X-180454Y-53152D01*
X-180436Y-53067D01*
X-180415Y-52982D01*
X-180390Y-52898D01*
X-180361Y-52816D01*
X-180328Y-52735D01*
X-180292Y-52655D01*
X-180253Y-52577D01*
X-180209Y-52501D01*
X-180163Y-52427D01*
X-180113Y-52356D01*
X-180060Y-52286D01*
X-180004Y-52219D01*
X-179945Y-52155D01*
X-179883Y-52093D01*
X-179819Y-52034D01*
X-179752Y-51978D01*
X-179682Y-51925D01*
X-179611Y-51875D01*
X-179537Y-51829D01*
X-179461Y-51785D01*
X-179383Y-51746D01*
X-179303Y-51710D01*
X-179222Y-51677D01*
X-179140Y-51648D01*
X-179056Y-51623D01*
X-178971Y-51602D01*
X-178886Y-51584D01*
X-178799Y-51571D01*
X-178713Y-51561D01*
X-178625Y-51555D01*
X-178538Y-51553D01*
X-175941Y-51553D01*
X-187599Y-59342D02*
X-190195Y-59342D01*
X-187599Y-59342D02*
X-187512Y-59340D01*
X-187424Y-59334D01*
X-187338Y-59324D01*
X-187251Y-59311D01*
X-187166Y-59293D01*
X-187081Y-59272D01*
X-186997Y-59247D01*
X-186915Y-59218D01*
X-186834Y-59185D01*
X-186754Y-59149D01*
X-186676Y-59110D01*
X-186600Y-59066D01*
X-186526Y-59020D01*
X-186455Y-58970D01*
X-186385Y-58917D01*
X-186318Y-58861D01*
X-186254Y-58802D01*
X-186192Y-58740D01*
X-186133Y-58676D01*
X-186077Y-58609D01*
X-186024Y-58539D01*
X-185974Y-58468D01*
X-185928Y-58394D01*
X-185884Y-58318D01*
X-185845Y-58240D01*
X-185809Y-58160D01*
X-185776Y-58079D01*
X-185747Y-57997D01*
X-185722Y-57913D01*
X-185701Y-57828D01*
X-185683Y-57743D01*
X-185670Y-57656D01*
X-185660Y-57570D01*
X-185654Y-57482D01*
X-185652Y-57395D01*
X-185651Y-57395D02*
X-185651Y-53500D01*
X-185652Y-53500D02*
X-185654Y-53413D01*
X-185660Y-53325D01*
X-185670Y-53239D01*
X-185683Y-53152D01*
X-185701Y-53067D01*
X-185722Y-52982D01*
X-185747Y-52898D01*
X-185776Y-52816D01*
X-185809Y-52735D01*
X-185845Y-52655D01*
X-185884Y-52577D01*
X-185928Y-52501D01*
X-185974Y-52427D01*
X-186024Y-52356D01*
X-186077Y-52286D01*
X-186133Y-52219D01*
X-186192Y-52155D01*
X-186254Y-52093D01*
X-186318Y-52034D01*
X-186385Y-51978D01*
X-186455Y-51925D01*
X-186526Y-51875D01*
X-186600Y-51829D01*
X-186676Y-51785D01*
X-186754Y-51746D01*
X-186834Y-51710D01*
X-186915Y-51677D01*
X-186997Y-51648D01*
X-187081Y-51623D01*
X-187166Y-51602D01*
X-187251Y-51584D01*
X-187338Y-51571D01*
X-187424Y-51561D01*
X-187512Y-51555D01*
X-187599Y-51553D01*
X-190195Y-51553D01*
X-194917Y-47658D02*
X-194917Y-59342D01*
X-194917Y-55447D02*
X-200110Y-51553D01*
X-197189Y-53825D02*
X-200110Y-59342D01*
D13*
X-100000Y-68730D02*
X-100000Y90000D01*
X-100000Y-68730D02*
X-125000Y-68730D01*
D14*
X-62205Y-65881D02*
X-62205Y-72288D01*
X-62203Y-72373D01*
X-62197Y-72457D01*
X-62187Y-72541D01*
X-62174Y-72624D01*
X-62156Y-72707D01*
X-62135Y-72789D01*
X-62110Y-72870D01*
X-62081Y-72949D01*
X-62049Y-73028D01*
X-62013Y-73104D01*
X-61974Y-73179D01*
X-61931Y-73252D01*
X-61885Y-73323D01*
X-61835Y-73391D01*
X-61783Y-73458D01*
X-61727Y-73522D01*
X-61669Y-73583D01*
X-61608Y-73641D01*
X-61544Y-73697D01*
X-61477Y-73749D01*
X-61409Y-73799D01*
X-61338Y-73845D01*
X-61265Y-73888D01*
X-61190Y-73927D01*
X-61114Y-73963D01*
X-61035Y-73995D01*
X-60956Y-74024D01*
X-60875Y-74049D01*
X-60793Y-74070D01*
X-60710Y-74088D01*
X-60627Y-74101D01*
X-60543Y-74111D01*
X-60459Y-74117D01*
X-60374Y-74119D01*
X-59459Y-74119D01*
X-65964Y-66796D02*
X-65964Y-65881D01*
X-70541Y-65881D01*
X-68253Y-74119D01*
D12*
X43302Y-6595D02*
X43302Y1195D01*
X200110Y3142D02*
X200110Y-8542D01*
X196865Y-8542D01*
X196778Y-8540D01*
X196690Y-8534D01*
X196604Y-8524D01*
X196517Y-8511D01*
X196432Y-8493D01*
X196347Y-8472D01*
X196263Y-8447D01*
X196181Y-8418D01*
X196100Y-8385D01*
X196020Y-8349D01*
X195942Y-8310D01*
X195866Y-8266D01*
X195792Y-8220D01*
X195721Y-8170D01*
X195651Y-8117D01*
X195584Y-8061D01*
X195520Y-8002D01*
X195458Y-7941D01*
X195399Y-7876D01*
X195343Y-7809D01*
X195290Y-7739D01*
X195240Y-7668D01*
X195194Y-7594D01*
X195151Y-7518D01*
X195111Y-7440D01*
X195075Y-7360D01*
X195042Y-7279D01*
X195013Y-7197D01*
X194988Y-7113D01*
X194967Y-7028D01*
X194949Y-6943D01*
X194936Y-6856D01*
X194926Y-6770D01*
X194920Y-6682D01*
X194918Y-6595D01*
X194917Y-6595D02*
X194917Y-2700D01*
X194918Y-2700D02*
X194920Y-2613D01*
X194926Y-2525D01*
X194936Y-2439D01*
X194949Y-2352D01*
X194967Y-2267D01*
X194988Y-2182D01*
X195013Y-2098D01*
X195042Y-2016D01*
X195075Y-1935D01*
X195111Y-1855D01*
X195150Y-1777D01*
X195194Y-1701D01*
X195240Y-1627D01*
X195290Y-1556D01*
X195343Y-1486D01*
X195399Y-1419D01*
X195458Y-1354D01*
X195520Y-1293D01*
X195584Y-1234D01*
X195651Y-1178D01*
X195721Y-1125D01*
X195792Y-1075D01*
X195866Y-1029D01*
X195942Y-985D01*
X196020Y-946D01*
X196100Y-910D01*
X196181Y-877D01*
X196263Y-848D01*
X196347Y-823D01*
X196432Y-802D01*
X196517Y-784D01*
X196604Y-771D01*
X196691Y-761D01*
X196778Y-755D01*
X196865Y-753D01*
X200110Y-753D01*
X190114Y3142D02*
X190114Y-6595D01*
X190113Y-6595D02*
X190111Y-6682D01*
X190105Y-6770D01*
X190095Y-6856D01*
X190082Y-6943D01*
X190064Y-7028D01*
X190043Y-7113D01*
X190018Y-7197D01*
X189989Y-7279D01*
X189956Y-7360D01*
X189920Y-7440D01*
X189881Y-7518D01*
X189837Y-7594D01*
X189791Y-7668D01*
X189741Y-7739D01*
X189688Y-7809D01*
X189632Y-7876D01*
X189573Y-7940D01*
X189511Y-8002D01*
X189447Y-8061D01*
X189380Y-8117D01*
X189310Y-8170D01*
X189239Y-8220D01*
X189165Y-8266D01*
X189089Y-8310D01*
X189011Y-8349D01*
X188931Y-8385D01*
X188850Y-8418D01*
X188768Y-8447D01*
X188684Y-8472D01*
X188599Y-8493D01*
X188514Y-8511D01*
X188427Y-8524D01*
X188341Y-8534D01*
X188253Y-8540D01*
X188166Y-8542D01*
X181954Y-3998D02*
X179033Y-3998D01*
X181954Y-3998D02*
X182048Y-4000D01*
X182142Y-4006D01*
X182235Y-4015D01*
X182328Y-4029D01*
X182420Y-4046D01*
X182512Y-4068D01*
X182602Y-4092D01*
X182692Y-4121D01*
X182780Y-4153D01*
X182867Y-4189D01*
X182952Y-4229D01*
X183035Y-4272D01*
X183117Y-4318D01*
X183197Y-4368D01*
X183274Y-4421D01*
X183349Y-4477D01*
X183422Y-4536D01*
X183493Y-4598D01*
X183561Y-4663D01*
X183626Y-4731D01*
X183688Y-4802D01*
X183747Y-4875D01*
X183803Y-4950D01*
X183856Y-5027D01*
X183906Y-5107D01*
X183952Y-5189D01*
X183995Y-5272D01*
X184035Y-5357D01*
X184071Y-5444D01*
X184103Y-5532D01*
X184132Y-5622D01*
X184156Y-5712D01*
X184178Y-5804D01*
X184195Y-5896D01*
X184209Y-5989D01*
X184218Y-6082D01*
X184224Y-6176D01*
X184226Y-6270D01*
X184224Y-6364D01*
X184218Y-6458D01*
X184209Y-6551D01*
X184195Y-6644D01*
X184178Y-6736D01*
X184156Y-6828D01*
X184132Y-6918D01*
X184103Y-7008D01*
X184071Y-7096D01*
X184035Y-7183D01*
X183995Y-7268D01*
X183952Y-7351D01*
X183906Y-7433D01*
X183856Y-7513D01*
X183803Y-7590D01*
X183747Y-7665D01*
X183688Y-7738D01*
X183626Y-7809D01*
X183561Y-7877D01*
X183493Y-7942D01*
X183422Y-8004D01*
X183349Y-8063D01*
X183274Y-8119D01*
X183197Y-8172D01*
X183117Y-8222D01*
X183035Y-8268D01*
X182952Y-8311D01*
X182867Y-8351D01*
X182780Y-8387D01*
X182692Y-8419D01*
X182602Y-8448D01*
X182512Y-8472D01*
X182420Y-8494D01*
X182328Y-8511D01*
X182235Y-8525D01*
X182142Y-8534D01*
X182048Y-8540D01*
X181954Y-8542D01*
X179033Y-8542D01*
X179033Y-2700D01*
X179034Y-2700D02*
X179036Y-2613D01*
X179042Y-2525D01*
X179052Y-2439D01*
X179065Y-2352D01*
X179083Y-2267D01*
X179104Y-2182D01*
X179129Y-2098D01*
X179158Y-2016D01*
X179191Y-1935D01*
X179227Y-1855D01*
X179266Y-1777D01*
X179310Y-1701D01*
X179356Y-1627D01*
X179406Y-1556D01*
X179459Y-1486D01*
X179515Y-1419D01*
X179574Y-1354D01*
X179636Y-1293D01*
X179700Y-1234D01*
X179767Y-1178D01*
X179837Y-1125D01*
X179908Y-1075D01*
X179982Y-1029D01*
X180058Y-985D01*
X180136Y-946D01*
X180216Y-910D01*
X180297Y-877D01*
X180379Y-848D01*
X180463Y-823D01*
X180548Y-802D01*
X180633Y-784D01*
X180720Y-771D01*
X180807Y-761D01*
X180894Y-755D01*
X180981Y-753D01*
X183577Y-753D01*
X171920Y-8542D02*
X169323Y-8542D01*
X171920Y-8542D02*
X172007Y-8540D01*
X172095Y-8534D01*
X172181Y-8524D01*
X172268Y-8511D01*
X172353Y-8493D01*
X172438Y-8472D01*
X172522Y-8447D01*
X172604Y-8418D01*
X172685Y-8385D01*
X172765Y-8349D01*
X172843Y-8310D01*
X172919Y-8266D01*
X172993Y-8220D01*
X173064Y-8170D01*
X173134Y-8117D01*
X173201Y-8061D01*
X173265Y-8002D01*
X173327Y-7940D01*
X173386Y-7876D01*
X173442Y-7809D01*
X173495Y-7739D01*
X173545Y-7668D01*
X173591Y-7594D01*
X173635Y-7518D01*
X173674Y-7440D01*
X173710Y-7360D01*
X173743Y-7279D01*
X173772Y-7197D01*
X173797Y-7113D01*
X173818Y-7028D01*
X173836Y-6943D01*
X173849Y-6856D01*
X173859Y-6770D01*
X173865Y-6682D01*
X173867Y-6595D01*
X173867Y-2700D01*
X173865Y-2613D01*
X173859Y-2525D01*
X173849Y-2439D01*
X173836Y-2352D01*
X173818Y-2267D01*
X173797Y-2182D01*
X173772Y-2098D01*
X173743Y-2016D01*
X173710Y-1935D01*
X173674Y-1855D01*
X173635Y-1777D01*
X173591Y-1701D01*
X173545Y-1627D01*
X173495Y-1556D01*
X173442Y-1486D01*
X173386Y-1419D01*
X173327Y-1355D01*
X173265Y-1293D01*
X173201Y-1234D01*
X173134Y-1178D01*
X173064Y-1125D01*
X172993Y-1075D01*
X172919Y-1029D01*
X172843Y-985D01*
X172765Y-946D01*
X172685Y-910D01*
X172604Y-877D01*
X172522Y-848D01*
X172438Y-823D01*
X172353Y-802D01*
X172268Y-784D01*
X172181Y-771D01*
X172095Y-761D01*
X172007Y-755D01*
X171920Y-753D01*
X169323Y-753D01*
X164601Y3142D02*
X164601Y-8542D01*
X164601Y-4647D02*
X159408Y-753D01*
X162329Y-3025D02*
X159408Y-8542D01*
X50442Y-31346D02*
X38758Y-31346D01*
X45249Y-31346D02*
X45249Y-24854D01*
X50442Y-24854D02*
X38758Y-24854D01*
X43302Y-49605D02*
X43302Y-57395D01*
X47196Y-53500D02*
X39407Y-53500D01*
X197480Y-59342D02*
X199427Y-51553D01*
X195532Y-54149D02*
X197480Y-59342D01*
X193585Y-59342D02*
X195532Y-54149D01*
X191638Y-51553D02*
X193585Y-59342D01*
X186699Y-59342D02*
X186699Y-47658D01*
X186699Y-51553D02*
X183453Y-51553D01*
X183366Y-51555D01*
X183278Y-51561D01*
X183192Y-51571D01*
X183105Y-51584D01*
X183020Y-51602D01*
X182935Y-51623D01*
X182851Y-51648D01*
X182769Y-51677D01*
X182688Y-51710D01*
X182608Y-51746D01*
X182530Y-51785D01*
X182454Y-51829D01*
X182380Y-51875D01*
X182309Y-51925D01*
X182239Y-51978D01*
X182172Y-52034D01*
X182108Y-52093D01*
X182046Y-52154D01*
X181987Y-52219D01*
X181931Y-52286D01*
X181878Y-52356D01*
X181828Y-52427D01*
X181782Y-52501D01*
X181739Y-52577D01*
X181699Y-52655D01*
X181663Y-52735D01*
X181630Y-52816D01*
X181601Y-52898D01*
X181576Y-52982D01*
X181555Y-53067D01*
X181537Y-53152D01*
X181524Y-53239D01*
X181514Y-53325D01*
X181508Y-53413D01*
X181506Y-53500D01*
X181506Y-59342D01*
X176482Y-59342D02*
X176482Y-51553D01*
X176807Y-48307D02*
X176807Y-47658D01*
X176158Y-47658D01*
X176158Y-48307D01*
X176807Y-48307D01*
X172807Y-51553D02*
X168912Y-51553D01*
X171509Y-47658D02*
X171509Y-57395D01*
X171507Y-57482D01*
X171501Y-57570D01*
X171491Y-57656D01*
X171478Y-57743D01*
X171460Y-57828D01*
X171439Y-57913D01*
X171414Y-57997D01*
X171385Y-58079D01*
X171352Y-58160D01*
X171316Y-58240D01*
X171277Y-58318D01*
X171233Y-58394D01*
X171187Y-58468D01*
X171137Y-58539D01*
X171084Y-58609D01*
X171028Y-58676D01*
X170969Y-58740D01*
X170907Y-58802D01*
X170843Y-58861D01*
X170776Y-58917D01*
X170706Y-58970D01*
X170635Y-59020D01*
X170561Y-59066D01*
X170485Y-59110D01*
X170407Y-59149D01*
X170327Y-59185D01*
X170246Y-59218D01*
X170164Y-59247D01*
X170080Y-59272D01*
X169995Y-59293D01*
X169910Y-59311D01*
X169823Y-59324D01*
X169737Y-59334D01*
X169649Y-59340D01*
X169562Y-59342D01*
X168912Y-59342D01*
X162654Y-59342D02*
X159408Y-59342D01*
X162654Y-59342D02*
X162741Y-59340D01*
X162829Y-59334D01*
X162915Y-59324D01*
X163002Y-59311D01*
X163087Y-59293D01*
X163172Y-59272D01*
X163256Y-59247D01*
X163338Y-59218D01*
X163419Y-59185D01*
X163499Y-59149D01*
X163577Y-59110D01*
X163653Y-59066D01*
X163727Y-59020D01*
X163798Y-58970D01*
X163868Y-58917D01*
X163935Y-58861D01*
X163999Y-58802D01*
X164061Y-58740D01*
X164120Y-58676D01*
X164176Y-58609D01*
X164229Y-58539D01*
X164279Y-58468D01*
X164325Y-58394D01*
X164369Y-58318D01*
X164408Y-58240D01*
X164444Y-58160D01*
X164477Y-58079D01*
X164506Y-57997D01*
X164531Y-57913D01*
X164552Y-57828D01*
X164570Y-57743D01*
X164583Y-57656D01*
X164593Y-57570D01*
X164599Y-57482D01*
X164601Y-57395D01*
X164601Y-54149D01*
X164600Y-54149D02*
X164598Y-54048D01*
X164592Y-53948D01*
X164582Y-53848D01*
X164569Y-53748D01*
X164551Y-53649D01*
X164530Y-53550D01*
X164505Y-53453D01*
X164476Y-53356D01*
X164443Y-53261D01*
X164407Y-53167D01*
X164367Y-53075D01*
X164324Y-52984D01*
X164277Y-52895D01*
X164227Y-52808D01*
X164173Y-52722D01*
X164116Y-52639D01*
X164056Y-52559D01*
X163993Y-52480D01*
X163926Y-52404D01*
X163857Y-52331D01*
X163785Y-52261D01*
X163711Y-52193D01*
X163634Y-52128D01*
X163554Y-52067D01*
X163472Y-52008D01*
X163388Y-51953D01*
X163302Y-51901D01*
X163214Y-51852D01*
X163124Y-51807D01*
X163032Y-51765D01*
X162939Y-51727D01*
X162844Y-51693D01*
X162749Y-51662D01*
X162652Y-51635D01*
X162554Y-51612D01*
X162455Y-51592D01*
X162355Y-51577D01*
X162255Y-51565D01*
X162155Y-51557D01*
X162054Y-51553D01*
X161954Y-51553D01*
X161853Y-51557D01*
X161753Y-51565D01*
X161653Y-51577D01*
X161553Y-51592D01*
X161454Y-51612D01*
X161356Y-51635D01*
X161259Y-51662D01*
X161164Y-51693D01*
X161069Y-51727D01*
X160976Y-51765D01*
X160884Y-51807D01*
X160794Y-51852D01*
X160706Y-51901D01*
X160620Y-51953D01*
X160536Y-52008D01*
X160454Y-52067D01*
X160374Y-52128D01*
X160297Y-52193D01*
X160223Y-52261D01*
X160151Y-52331D01*
X160082Y-52404D01*
X160015Y-52480D01*
X159952Y-52559D01*
X159892Y-52639D01*
X159835Y-52722D01*
X159781Y-52808D01*
X159731Y-52895D01*
X159684Y-52984D01*
X159641Y-53075D01*
X159601Y-53167D01*
X159565Y-53261D01*
X159532Y-53356D01*
X159503Y-53453D01*
X159478Y-53550D01*
X159457Y-53649D01*
X159439Y-53748D01*
X159426Y-53848D01*
X159416Y-53948D01*
X159410Y-54048D01*
X159408Y-54149D01*
X159408Y-55447D01*
X164601Y-55447D01*
D13*
X125000Y-70000D02*
X100000Y-70000D01*
X125000Y-70000D02*
X125000Y88730D01*
D12*
X43302Y26595D02*
X43302Y18805D01*
X47196Y22700D02*
X39407Y22700D01*
X197480Y16858D02*
X199427Y24647D01*
X195532Y22051D02*
X197480Y16858D01*
X193585Y16858D02*
X195532Y22051D01*
X191638Y24647D02*
X193585Y16858D01*
X186699Y16858D02*
X186699Y28542D01*
X186699Y24647D02*
X183453Y24647D01*
X183366Y24645D01*
X183278Y24639D01*
X183192Y24629D01*
X183105Y24616D01*
X183020Y24598D01*
X182935Y24577D01*
X182851Y24552D01*
X182769Y24523D01*
X182688Y24490D01*
X182608Y24454D01*
X182530Y24415D01*
X182454Y24371D01*
X182380Y24325D01*
X182309Y24275D01*
X182239Y24222D01*
X182172Y24166D01*
X182108Y24107D01*
X182046Y24046D01*
X181987Y23981D01*
X181931Y23914D01*
X181878Y23844D01*
X181828Y23773D01*
X181782Y23699D01*
X181739Y23623D01*
X181699Y23545D01*
X181663Y23465D01*
X181630Y23384D01*
X181601Y23302D01*
X181576Y23218D01*
X181555Y23133D01*
X181537Y23048D01*
X181524Y22961D01*
X181514Y22875D01*
X181508Y22787D01*
X181506Y22700D01*
X181506Y16858D01*
X176482Y16858D02*
X176482Y24647D01*
X176807Y27893D02*
X176807Y28542D01*
X176158Y28542D01*
X176158Y27893D01*
X176807Y27893D01*
X172807Y24647D02*
X168912Y24647D01*
X171509Y28542D02*
X171509Y18805D01*
X171507Y18718D01*
X171501Y18630D01*
X171491Y18544D01*
X171478Y18457D01*
X171460Y18372D01*
X171439Y18287D01*
X171414Y18203D01*
X171385Y18121D01*
X171352Y18040D01*
X171316Y17960D01*
X171277Y17882D01*
X171233Y17806D01*
X171187Y17732D01*
X171137Y17661D01*
X171084Y17591D01*
X171028Y17524D01*
X170969Y17460D01*
X170907Y17398D01*
X170843Y17339D01*
X170776Y17283D01*
X170706Y17230D01*
X170635Y17180D01*
X170561Y17134D01*
X170485Y17090D01*
X170407Y17051D01*
X170327Y17015D01*
X170246Y16982D01*
X170164Y16953D01*
X170080Y16928D01*
X169995Y16907D01*
X169910Y16889D01*
X169823Y16876D01*
X169737Y16866D01*
X169649Y16860D01*
X169562Y16858D01*
X168912Y16858D01*
X162654Y16858D02*
X159408Y16858D01*
X162654Y16858D02*
X162741Y16860D01*
X162829Y16866D01*
X162915Y16876D01*
X163002Y16889D01*
X163087Y16907D01*
X163172Y16928D01*
X163256Y16953D01*
X163338Y16982D01*
X163419Y17015D01*
X163499Y17051D01*
X163577Y17090D01*
X163653Y17134D01*
X163727Y17180D01*
X163798Y17230D01*
X163868Y17283D01*
X163935Y17339D01*
X163999Y17398D01*
X164061Y17460D01*
X164120Y17524D01*
X164176Y17591D01*
X164229Y17661D01*
X164279Y17732D01*
X164325Y17806D01*
X164369Y17882D01*
X164408Y17960D01*
X164444Y18040D01*
X164477Y18121D01*
X164506Y18203D01*
X164531Y18287D01*
X164552Y18372D01*
X164570Y18457D01*
X164583Y18544D01*
X164593Y18630D01*
X164599Y18718D01*
X164601Y18805D01*
X164601Y22051D01*
X164600Y22051D02*
X164598Y22152D01*
X164592Y22252D01*
X164582Y22352D01*
X164569Y22452D01*
X164551Y22551D01*
X164530Y22650D01*
X164505Y22747D01*
X164476Y22844D01*
X164443Y22939D01*
X164407Y23033D01*
X164367Y23125D01*
X164324Y23216D01*
X164277Y23305D01*
X164227Y23392D01*
X164173Y23478D01*
X164116Y23561D01*
X164056Y23641D01*
X163993Y23720D01*
X163926Y23796D01*
X163857Y23869D01*
X163785Y23939D01*
X163711Y24007D01*
X163634Y24072D01*
X163554Y24133D01*
X163472Y24192D01*
X163388Y24247D01*
X163302Y24299D01*
X163214Y24348D01*
X163124Y24393D01*
X163032Y24435D01*
X162939Y24473D01*
X162844Y24507D01*
X162749Y24538D01*
X162652Y24565D01*
X162554Y24588D01*
X162455Y24608D01*
X162355Y24623D01*
X162255Y24635D01*
X162155Y24643D01*
X162054Y24647D01*
X161954Y24647D01*
X161853Y24643D01*
X161753Y24635D01*
X161653Y24623D01*
X161553Y24608D01*
X161454Y24588D01*
X161356Y24565D01*
X161259Y24538D01*
X161164Y24507D01*
X161069Y24473D01*
X160976Y24435D01*
X160884Y24393D01*
X160794Y24348D01*
X160706Y24299D01*
X160620Y24247D01*
X160536Y24192D01*
X160454Y24133D01*
X160374Y24072D01*
X160297Y24007D01*
X160223Y23939D01*
X160151Y23869D01*
X160082Y23796D01*
X160015Y23720D01*
X159952Y23641D01*
X159892Y23561D01*
X159835Y23478D01*
X159781Y23392D01*
X159731Y23305D01*
X159684Y23216D01*
X159641Y23125D01*
X159601Y23033D01*
X159565Y22939D01*
X159532Y22844D01*
X159503Y22747D01*
X159478Y22650D01*
X159457Y22551D01*
X159439Y22452D01*
X159426Y22352D01*
X159416Y22252D01*
X159410Y22152D01*
X159408Y22051D01*
X159408Y20753D01*
X164601Y20753D01*
X50442Y44205D02*
X38758Y48100D01*
X50442Y51995D01*
X43302Y69605D02*
X43302Y77395D01*
X200110Y79342D02*
X200110Y67658D01*
X196865Y67658D01*
X196778Y67660D01*
X196690Y67666D01*
X196604Y67676D01*
X196517Y67689D01*
X196432Y67707D01*
X196347Y67728D01*
X196263Y67753D01*
X196181Y67782D01*
X196100Y67815D01*
X196020Y67851D01*
X195942Y67890D01*
X195866Y67934D01*
X195792Y67980D01*
X195721Y68030D01*
X195651Y68083D01*
X195584Y68139D01*
X195520Y68198D01*
X195458Y68259D01*
X195399Y68324D01*
X195343Y68391D01*
X195290Y68461D01*
X195240Y68532D01*
X195194Y68606D01*
X195151Y68682D01*
X195111Y68760D01*
X195075Y68840D01*
X195042Y68921D01*
X195013Y69003D01*
X194988Y69087D01*
X194967Y69172D01*
X194949Y69257D01*
X194936Y69344D01*
X194926Y69430D01*
X194920Y69518D01*
X194918Y69605D01*
X194917Y69605D02*
X194917Y73500D01*
X194918Y73500D02*
X194920Y73587D01*
X194926Y73675D01*
X194936Y73761D01*
X194949Y73848D01*
X194967Y73933D01*
X194988Y74018D01*
X195013Y74102D01*
X195042Y74184D01*
X195075Y74265D01*
X195111Y74345D01*
X195150Y74423D01*
X195194Y74499D01*
X195240Y74573D01*
X195290Y74644D01*
X195343Y74714D01*
X195399Y74781D01*
X195458Y74846D01*
X195520Y74907D01*
X195584Y74966D01*
X195651Y75022D01*
X195721Y75075D01*
X195792Y75125D01*
X195866Y75171D01*
X195942Y75215D01*
X196020Y75254D01*
X196100Y75290D01*
X196181Y75323D01*
X196263Y75352D01*
X196347Y75377D01*
X196432Y75398D01*
X196517Y75416D01*
X196604Y75429D01*
X196691Y75439D01*
X196778Y75445D01*
X196865Y75447D01*
X200110Y75447D01*
X190114Y79342D02*
X190114Y69605D01*
X190113Y69605D02*
X190111Y69518D01*
X190105Y69430D01*
X190095Y69344D01*
X190082Y69257D01*
X190064Y69172D01*
X190043Y69087D01*
X190018Y69003D01*
X189989Y68921D01*
X189956Y68840D01*
X189920Y68760D01*
X189881Y68682D01*
X189837Y68606D01*
X189791Y68532D01*
X189741Y68461D01*
X189688Y68391D01*
X189632Y68324D01*
X189573Y68260D01*
X189511Y68198D01*
X189447Y68139D01*
X189380Y68083D01*
X189310Y68030D01*
X189239Y67980D01*
X189165Y67934D01*
X189089Y67890D01*
X189011Y67851D01*
X188931Y67815D01*
X188850Y67782D01*
X188768Y67753D01*
X188684Y67728D01*
X188599Y67707D01*
X188514Y67689D01*
X188427Y67676D01*
X188341Y67666D01*
X188253Y67660D01*
X188166Y67658D01*
X181954Y72202D02*
X179033Y72202D01*
X181954Y72202D02*
X182048Y72200D01*
X182142Y72194D01*
X182235Y72185D01*
X182328Y72171D01*
X182420Y72154D01*
X182512Y72132D01*
X182602Y72108D01*
X182692Y72079D01*
X182780Y72047D01*
X182867Y72011D01*
X182952Y71971D01*
X183035Y71928D01*
X183117Y71882D01*
X183197Y71832D01*
X183274Y71779D01*
X183349Y71723D01*
X183422Y71664D01*
X183493Y71602D01*
X183561Y71537D01*
X183626Y71469D01*
X183688Y71398D01*
X183747Y71325D01*
X183803Y71250D01*
X183856Y71173D01*
X183906Y71093D01*
X183952Y71011D01*
X183995Y70928D01*
X184035Y70843D01*
X184071Y70756D01*
X184103Y70668D01*
X184132Y70578D01*
X184156Y70488D01*
X184178Y70396D01*
X184195Y70304D01*
X184209Y70211D01*
X184218Y70118D01*
X184224Y70024D01*
X184226Y69930D01*
X184224Y69836D01*
X184218Y69742D01*
X184209Y69649D01*
X184195Y69556D01*
X184178Y69464D01*
X184156Y69372D01*
X184132Y69282D01*
X184103Y69192D01*
X184071Y69104D01*
X184035Y69017D01*
X183995Y68932D01*
X183952Y68849D01*
X183906Y68767D01*
X183856Y68687D01*
X183803Y68610D01*
X183747Y68535D01*
X183688Y68462D01*
X183626Y68391D01*
X183561Y68323D01*
X183493Y68258D01*
X183422Y68196D01*
X183349Y68137D01*
X183274Y68081D01*
X183197Y68028D01*
X183117Y67978D01*
X183035Y67932D01*
X182952Y67889D01*
X182867Y67849D01*
X182780Y67813D01*
X182692Y67781D01*
X182602Y67752D01*
X182512Y67728D01*
X182420Y67706D01*
X182328Y67689D01*
X182235Y67675D01*
X182142Y67666D01*
X182048Y67660D01*
X181954Y67658D01*
X179033Y67658D01*
X179033Y73500D01*
X179034Y73500D02*
X179036Y73587D01*
X179042Y73675D01*
X179052Y73761D01*
X179065Y73848D01*
X179083Y73933D01*
X179104Y74018D01*
X179129Y74102D01*
X179158Y74184D01*
X179191Y74265D01*
X179227Y74345D01*
X179266Y74423D01*
X179310Y74499D01*
X179356Y74573D01*
X179406Y74644D01*
X179459Y74714D01*
X179515Y74781D01*
X179574Y74846D01*
X179636Y74907D01*
X179700Y74966D01*
X179767Y75022D01*
X179837Y75075D01*
X179908Y75125D01*
X179982Y75171D01*
X180058Y75215D01*
X180136Y75254D01*
X180216Y75290D01*
X180297Y75323D01*
X180379Y75352D01*
X180463Y75377D01*
X180548Y75398D01*
X180633Y75416D01*
X180720Y75429D01*
X180807Y75439D01*
X180894Y75445D01*
X180981Y75447D01*
X183577Y75447D01*
X171920Y67658D02*
X169323Y67658D01*
X171920Y67658D02*
X172007Y67660D01*
X172095Y67666D01*
X172181Y67676D01*
X172268Y67689D01*
X172353Y67707D01*
X172438Y67728D01*
X172522Y67753D01*
X172604Y67782D01*
X172685Y67815D01*
X172765Y67851D01*
X172843Y67890D01*
X172919Y67934D01*
X172993Y67980D01*
X173064Y68030D01*
X173134Y68083D01*
X173201Y68139D01*
X173265Y68198D01*
X173327Y68260D01*
X173386Y68324D01*
X173442Y68391D01*
X173495Y68461D01*
X173545Y68532D01*
X173591Y68606D01*
X173635Y68682D01*
X173674Y68760D01*
X173710Y68840D01*
X173743Y68921D01*
X173772Y69003D01*
X173797Y69087D01*
X173818Y69172D01*
X173836Y69257D01*
X173849Y69344D01*
X173859Y69430D01*
X173865Y69518D01*
X173867Y69605D01*
X173867Y73500D01*
X173865Y73587D01*
X173859Y73675D01*
X173849Y73761D01*
X173836Y73848D01*
X173818Y73933D01*
X173797Y74018D01*
X173772Y74102D01*
X173743Y74184D01*
X173710Y74265D01*
X173674Y74345D01*
X173635Y74423D01*
X173591Y74499D01*
X173545Y74573D01*
X173495Y74644D01*
X173442Y74714D01*
X173386Y74781D01*
X173327Y74845D01*
X173265Y74907D01*
X173201Y74966D01*
X173134Y75022D01*
X173064Y75075D01*
X172993Y75125D01*
X172919Y75171D01*
X172843Y75215D01*
X172765Y75254D01*
X172685Y75290D01*
X172604Y75323D01*
X172522Y75352D01*
X172438Y75377D01*
X172353Y75398D01*
X172268Y75416D01*
X172181Y75429D01*
X172095Y75439D01*
X172007Y75445D01*
X171920Y75447D01*
X169323Y75447D01*
X164601Y79342D02*
X164601Y67658D01*
X164601Y71553D02*
X159408Y75447D01*
X162329Y73175D02*
X159408Y67658D01*
D13*
X100000Y88730D02*
X100000Y-70000D01*
X100000Y88730D02*
X125000Y88730D01*
D14*
X89795Y-65881D02*
X89795Y-72288D01*
X89797Y-72373D01*
X89803Y-72457D01*
X89813Y-72541D01*
X89826Y-72624D01*
X89844Y-72707D01*
X89865Y-72789D01*
X89890Y-72870D01*
X89919Y-72949D01*
X89951Y-73028D01*
X89987Y-73104D01*
X90026Y-73179D01*
X90069Y-73252D01*
X90115Y-73323D01*
X90165Y-73391D01*
X90217Y-73458D01*
X90273Y-73522D01*
X90331Y-73583D01*
X90392Y-73641D01*
X90456Y-73697D01*
X90523Y-73749D01*
X90591Y-73799D01*
X90662Y-73845D01*
X90735Y-73888D01*
X90810Y-73927D01*
X90886Y-73963D01*
X90965Y-73995D01*
X91044Y-74024D01*
X91125Y-74049D01*
X91207Y-74070D01*
X91290Y-74088D01*
X91373Y-74101D01*
X91457Y-74111D01*
X91541Y-74117D01*
X91626Y-74119D01*
X92541Y-74119D01*
X86035Y-71831D02*
X86033Y-71736D01*
X86027Y-71642D01*
X86017Y-71548D01*
X86004Y-71454D01*
X85986Y-71361D01*
X85965Y-71269D01*
X85940Y-71178D01*
X85911Y-71088D01*
X85878Y-70999D01*
X85842Y-70912D01*
X85803Y-70826D01*
X85759Y-70742D01*
X85713Y-70660D01*
X85662Y-70580D01*
X85609Y-70501D01*
X85553Y-70426D01*
X85493Y-70352D01*
X85430Y-70281D01*
X85365Y-70213D01*
X85297Y-70148D01*
X85226Y-70085D01*
X85152Y-70025D01*
X85077Y-69969D01*
X84998Y-69916D01*
X84918Y-69865D01*
X84836Y-69819D01*
X84752Y-69775D01*
X84666Y-69736D01*
X84579Y-69700D01*
X84490Y-69667D01*
X84400Y-69638D01*
X84309Y-69613D01*
X84217Y-69592D01*
X84124Y-69574D01*
X84030Y-69561D01*
X83936Y-69551D01*
X83842Y-69545D01*
X83747Y-69543D01*
X83652Y-69545D01*
X83558Y-69551D01*
X83464Y-69561D01*
X83370Y-69574D01*
X83277Y-69592D01*
X83185Y-69613D01*
X83094Y-69638D01*
X83004Y-69667D01*
X82915Y-69700D01*
X82828Y-69736D01*
X82742Y-69775D01*
X82658Y-69819D01*
X82576Y-69865D01*
X82496Y-69916D01*
X82417Y-69969D01*
X82342Y-70025D01*
X82268Y-70085D01*
X82197Y-70148D01*
X82129Y-70213D01*
X82064Y-70281D01*
X82001Y-70352D01*
X81941Y-70426D01*
X81885Y-70501D01*
X81832Y-70580D01*
X81781Y-70660D01*
X81735Y-70742D01*
X81691Y-70826D01*
X81652Y-70912D01*
X81616Y-70999D01*
X81583Y-71088D01*
X81554Y-71178D01*
X81529Y-71269D01*
X81508Y-71361D01*
X81490Y-71454D01*
X81477Y-71548D01*
X81467Y-71642D01*
X81461Y-71736D01*
X81459Y-71831D01*
X81461Y-71926D01*
X81467Y-72020D01*
X81477Y-72114D01*
X81490Y-72208D01*
X81508Y-72301D01*
X81529Y-72393D01*
X81554Y-72484D01*
X81583Y-72574D01*
X81616Y-72663D01*
X81652Y-72750D01*
X81691Y-72836D01*
X81735Y-72920D01*
X81781Y-73002D01*
X81832Y-73082D01*
X81885Y-73161D01*
X81941Y-73236D01*
X82001Y-73310D01*
X82064Y-73381D01*
X82129Y-73449D01*
X82197Y-73514D01*
X82268Y-73577D01*
X82342Y-73637D01*
X82417Y-73693D01*
X82496Y-73746D01*
X82576Y-73797D01*
X82658Y-73843D01*
X82742Y-73887D01*
X82828Y-73926D01*
X82915Y-73962D01*
X83004Y-73995D01*
X83094Y-74024D01*
X83185Y-74049D01*
X83277Y-74070D01*
X83370Y-74088D01*
X83464Y-74101D01*
X83558Y-74111D01*
X83652Y-74117D01*
X83747Y-74119D01*
X83842Y-74117D01*
X83936Y-74111D01*
X84030Y-74101D01*
X84124Y-74088D01*
X84217Y-74070D01*
X84309Y-74049D01*
X84400Y-74024D01*
X84490Y-73995D01*
X84579Y-73962D01*
X84666Y-73926D01*
X84752Y-73887D01*
X84836Y-73843D01*
X84918Y-73797D01*
X84998Y-73746D01*
X85077Y-73693D01*
X85152Y-73637D01*
X85226Y-73577D01*
X85297Y-73514D01*
X85365Y-73449D01*
X85430Y-73381D01*
X85493Y-73310D01*
X85553Y-73236D01*
X85609Y-73161D01*
X85662Y-73082D01*
X85713Y-73002D01*
X85759Y-72920D01*
X85803Y-72836D01*
X85842Y-72750D01*
X85878Y-72663D01*
X85911Y-72574D01*
X85940Y-72484D01*
X85965Y-72393D01*
X85986Y-72301D01*
X86004Y-72208D01*
X86017Y-72114D01*
X86027Y-72020D01*
X86033Y-71926D01*
X86035Y-71831D01*
X85578Y-67712D02*
X85576Y-67627D01*
X85570Y-67543D01*
X85560Y-67459D01*
X85547Y-67376D01*
X85529Y-67293D01*
X85508Y-67211D01*
X85483Y-67130D01*
X85454Y-67051D01*
X85422Y-66972D01*
X85386Y-66896D01*
X85347Y-66821D01*
X85304Y-66748D01*
X85258Y-66677D01*
X85208Y-66609D01*
X85156Y-66542D01*
X85100Y-66478D01*
X85042Y-66417D01*
X84981Y-66359D01*
X84917Y-66303D01*
X84850Y-66251D01*
X84782Y-66201D01*
X84711Y-66155D01*
X84638Y-66112D01*
X84563Y-66073D01*
X84487Y-66037D01*
X84408Y-66005D01*
X84329Y-65976D01*
X84248Y-65951D01*
X84166Y-65930D01*
X84083Y-65912D01*
X84000Y-65899D01*
X83916Y-65889D01*
X83832Y-65883D01*
X83747Y-65881D01*
X83662Y-65883D01*
X83578Y-65889D01*
X83494Y-65899D01*
X83411Y-65912D01*
X83328Y-65930D01*
X83246Y-65951D01*
X83165Y-65976D01*
X83086Y-66005D01*
X83007Y-66037D01*
X82931Y-66073D01*
X82856Y-66112D01*
X82783Y-66155D01*
X82712Y-66201D01*
X82644Y-66251D01*
X82577Y-66303D01*
X82513Y-66359D01*
X82452Y-66417D01*
X82394Y-66478D01*
X82338Y-66542D01*
X82286Y-66609D01*
X82236Y-66677D01*
X82190Y-66748D01*
X82147Y-66821D01*
X82108Y-66896D01*
X82072Y-66972D01*
X82040Y-67051D01*
X82011Y-67130D01*
X81986Y-67211D01*
X81965Y-67293D01*
X81947Y-67376D01*
X81934Y-67459D01*
X81924Y-67543D01*
X81918Y-67627D01*
X81916Y-67712D01*
X81918Y-67797D01*
X81924Y-67881D01*
X81934Y-67965D01*
X81947Y-68048D01*
X81965Y-68131D01*
X81986Y-68213D01*
X82011Y-68294D01*
X82040Y-68373D01*
X82072Y-68452D01*
X82108Y-68528D01*
X82147Y-68603D01*
X82190Y-68676D01*
X82236Y-68747D01*
X82286Y-68815D01*
X82338Y-68882D01*
X82394Y-68946D01*
X82452Y-69007D01*
X82513Y-69065D01*
X82577Y-69121D01*
X82644Y-69173D01*
X82712Y-69223D01*
X82783Y-69269D01*
X82856Y-69312D01*
X82931Y-69351D01*
X83007Y-69387D01*
X83086Y-69419D01*
X83165Y-69448D01*
X83246Y-69473D01*
X83328Y-69494D01*
X83411Y-69512D01*
X83494Y-69525D01*
X83578Y-69535D01*
X83662Y-69541D01*
X83747Y-69543D01*
X83832Y-69541D01*
X83916Y-69535D01*
X84000Y-69525D01*
X84083Y-69512D01*
X84166Y-69494D01*
X84248Y-69473D01*
X84329Y-69448D01*
X84408Y-69419D01*
X84487Y-69387D01*
X84563Y-69351D01*
X84638Y-69312D01*
X84711Y-69269D01*
X84782Y-69223D01*
X84850Y-69173D01*
X84917Y-69121D01*
X84981Y-69065D01*
X85042Y-69007D01*
X85100Y-68946D01*
X85156Y-68882D01*
X85208Y-68815D01*
X85258Y-68747D01*
X85304Y-68676D01*
X85347Y-68603D01*
X85386Y-68528D01*
X85422Y-68452D01*
X85454Y-68373D01*
X85483Y-68294D01*
X85508Y-68213D01*
X85529Y-68131D01*
X85547Y-68048D01*
X85560Y-67965D01*
X85570Y-67881D01*
X85576Y-67797D01*
X85578Y-67712D01*
D11*
X-68000Y-190000D02*
X-67997Y-189730D01*
X-67987Y-189460D01*
X-67970Y-189191D01*
X-67947Y-188922D01*
X-67917Y-188653D01*
X-67881Y-188386D01*
X-67838Y-188119D01*
X-67789Y-187854D01*
X-67733Y-187590D01*
X-67670Y-187327D01*
X-67602Y-187066D01*
X-67526Y-186807D01*
X-67445Y-186550D01*
X-67357Y-186294D01*
X-67263Y-186041D01*
X-67163Y-185790D01*
X-67056Y-185542D01*
X-66944Y-185297D01*
X-66825Y-185054D01*
X-66701Y-184815D01*
X-66571Y-184578D01*
X-66435Y-184345D01*
X-66293Y-184115D01*
X-66146Y-183889D01*
X-65993Y-183666D01*
X-65835Y-183447D01*
X-65672Y-183232D01*
X-65503Y-183022D01*
X-65329Y-182815D01*
X-65150Y-182613D01*
X-64967Y-182415D01*
X-64778Y-182222D01*
X-64585Y-182033D01*
X-64387Y-181850D01*
X-64185Y-181671D01*
X-63978Y-181497D01*
X-63768Y-181328D01*
X-63553Y-181165D01*
X-63334Y-181007D01*
X-63111Y-180854D01*
X-62885Y-180707D01*
X-62655Y-180565D01*
X-62422Y-180429D01*
X-62185Y-180299D01*
X-61946Y-180175D01*
X-61703Y-180056D01*
X-61458Y-179944D01*
X-61210Y-179837D01*
X-60959Y-179737D01*
X-60706Y-179643D01*
X-60450Y-179555D01*
X-60193Y-179474D01*
X-59934Y-179398D01*
X-59673Y-179330D01*
X-59410Y-179267D01*
X-59146Y-179211D01*
X-58881Y-179162D01*
X-58614Y-179119D01*
X-58347Y-179083D01*
X-58078Y-179053D01*
X-57809Y-179030D01*
X-57540Y-179013D01*
X-57270Y-179003D01*
X-57000Y-179000D01*
X-56730Y-179003D01*
X-56460Y-179013D01*
X-56191Y-179030D01*
X-55922Y-179053D01*
X-55653Y-179083D01*
X-55386Y-179119D01*
X-55119Y-179162D01*
X-54854Y-179211D01*
X-54590Y-179267D01*
X-54327Y-179330D01*
X-54066Y-179398D01*
X-53807Y-179474D01*
X-53550Y-179555D01*
X-53294Y-179643D01*
X-53041Y-179737D01*
X-52790Y-179837D01*
X-52542Y-179944D01*
X-52297Y-180056D01*
X-52054Y-180175D01*
X-51815Y-180299D01*
X-51578Y-180429D01*
X-51345Y-180565D01*
X-51115Y-180707D01*
X-50889Y-180854D01*
X-50666Y-181007D01*
X-50447Y-181165D01*
X-50232Y-181328D01*
X-50022Y-181497D01*
X-49815Y-181671D01*
X-49613Y-181850D01*
X-49415Y-182033D01*
X-49222Y-182222D01*
X-49033Y-182415D01*
X-48850Y-182613D01*
X-48671Y-182815D01*
X-48497Y-183022D01*
X-48328Y-183232D01*
X-48165Y-183447D01*
X-48007Y-183666D01*
X-47854Y-183889D01*
X-47707Y-184115D01*
X-47565Y-184345D01*
X-47429Y-184578D01*
X-47299Y-184815D01*
X-47175Y-185054D01*
X-47056Y-185297D01*
X-46944Y-185542D01*
X-46837Y-185790D01*
X-46737Y-186041D01*
X-46643Y-186294D01*
X-46555Y-186550D01*
X-46474Y-186807D01*
X-46398Y-187066D01*
X-46330Y-187327D01*
X-46267Y-187590D01*
X-46211Y-187854D01*
X-46162Y-188119D01*
X-46119Y-188386D01*
X-46083Y-188653D01*
X-46053Y-188922D01*
X-46030Y-189191D01*
X-46013Y-189460D01*
X-46003Y-189730D01*
X-46000Y-190000D01*
X-46003Y-190270D01*
X-46013Y-190540D01*
X-46030Y-190809D01*
X-46053Y-191078D01*
X-46083Y-191347D01*
X-46119Y-191614D01*
X-46162Y-191881D01*
X-46211Y-192146D01*
X-46267Y-192410D01*
X-46330Y-192673D01*
X-46398Y-192934D01*
X-46474Y-193193D01*
X-46555Y-193450D01*
X-46643Y-193706D01*
X-46737Y-193959D01*
X-46837Y-194210D01*
X-46944Y-194458D01*
X-47056Y-194703D01*
X-47175Y-194946D01*
X-47299Y-195185D01*
X-47429Y-195422D01*
X-47565Y-195655D01*
X-47707Y-195885D01*
X-47854Y-196111D01*
X-48007Y-196334D01*
X-48165Y-196553D01*
X-48328Y-196768D01*
X-48497Y-196978D01*
X-48671Y-197185D01*
X-48850Y-197387D01*
X-49033Y-197585D01*
X-49222Y-197778D01*
X-49415Y-197967D01*
X-49613Y-198150D01*
X-49815Y-198329D01*
X-50022Y-198503D01*
X-50232Y-198672D01*
X-50447Y-198835D01*
X-50666Y-198993D01*
X-50889Y-199146D01*
X-51115Y-199293D01*
X-51345Y-199435D01*
X-51578Y-199571D01*
X-51815Y-199701D01*
X-52054Y-199825D01*
X-52297Y-199944D01*
X-52542Y-200056D01*
X-52790Y-200163D01*
X-53041Y-200263D01*
X-53294Y-200357D01*
X-53550Y-200445D01*
X-53807Y-200526D01*
X-54066Y-200602D01*
X-54327Y-200670D01*
X-54590Y-200733D01*
X-54854Y-200789D01*
X-55119Y-200838D01*
X-55386Y-200881D01*
X-55653Y-200917D01*
X-55922Y-200947D01*
X-56191Y-200970D01*
X-56460Y-200987D01*
X-56730Y-200997D01*
X-57000Y-201000D01*
X-57270Y-200997D01*
X-57540Y-200987D01*
X-57809Y-200970D01*
X-58078Y-200947D01*
X-58347Y-200917D01*
X-58614Y-200881D01*
X-58881Y-200838D01*
X-59146Y-200789D01*
X-59410Y-200733D01*
X-59673Y-200670D01*
X-59934Y-200602D01*
X-60193Y-200526D01*
X-60450Y-200445D01*
X-60706Y-200357D01*
X-60959Y-200263D01*
X-61210Y-200163D01*
X-61458Y-200056D01*
X-61703Y-199944D01*
X-61946Y-199825D01*
X-62185Y-199701D01*
X-62422Y-199571D01*
X-62655Y-199435D01*
X-62885Y-199293D01*
X-63111Y-199146D01*
X-63334Y-198993D01*
X-63553Y-198835D01*
X-63768Y-198672D01*
X-63978Y-198503D01*
X-64185Y-198329D01*
X-64387Y-198150D01*
X-64585Y-197967D01*
X-64778Y-197778D01*
X-64967Y-197585D01*
X-65150Y-197387D01*
X-65329Y-197185D01*
X-65503Y-196978D01*
X-65672Y-196768D01*
X-65835Y-196553D01*
X-65993Y-196334D01*
X-66146Y-196111D01*
X-66293Y-195885D01*
X-66435Y-195655D01*
X-66571Y-195422D01*
X-66701Y-195185D01*
X-66825Y-194946D01*
X-66944Y-194703D01*
X-67056Y-194458D01*
X-67163Y-194210D01*
X-67263Y-193959D01*
X-67357Y-193706D01*
X-67445Y-193450D01*
X-67526Y-193193D01*
X-67602Y-192934D01*
X-67670Y-192673D01*
X-67733Y-192410D01*
X-67789Y-192146D01*
X-67838Y-191881D01*
X-67881Y-191614D01*
X-67917Y-191347D01*
X-67947Y-191078D01*
X-67970Y-190809D01*
X-67987Y-190540D01*
X-67997Y-190270D01*
X-68000Y-190000D01*
X46000Y-190000D02*
X46003Y-189730D01*
X46013Y-189460D01*
X46030Y-189191D01*
X46053Y-188922D01*
X46083Y-188653D01*
X46119Y-188386D01*
X46162Y-188119D01*
X46211Y-187854D01*
X46267Y-187590D01*
X46330Y-187327D01*
X46398Y-187066D01*
X46474Y-186807D01*
X46555Y-186550D01*
X46643Y-186294D01*
X46737Y-186041D01*
X46837Y-185790D01*
X46944Y-185542D01*
X47056Y-185297D01*
X47175Y-185054D01*
X47299Y-184815D01*
X47429Y-184578D01*
X47565Y-184345D01*
X47707Y-184115D01*
X47854Y-183889D01*
X48007Y-183666D01*
X48165Y-183447D01*
X48328Y-183232D01*
X48497Y-183022D01*
X48671Y-182815D01*
X48850Y-182613D01*
X49033Y-182415D01*
X49222Y-182222D01*
X49415Y-182033D01*
X49613Y-181850D01*
X49815Y-181671D01*
X50022Y-181497D01*
X50232Y-181328D01*
X50447Y-181165D01*
X50666Y-181007D01*
X50889Y-180854D01*
X51115Y-180707D01*
X51345Y-180565D01*
X51578Y-180429D01*
X51815Y-180299D01*
X52054Y-180175D01*
X52297Y-180056D01*
X52542Y-179944D01*
X52790Y-179837D01*
X53041Y-179737D01*
X53294Y-179643D01*
X53550Y-179555D01*
X53807Y-179474D01*
X54066Y-179398D01*
X54327Y-179330D01*
X54590Y-179267D01*
X54854Y-179211D01*
X55119Y-179162D01*
X55386Y-179119D01*
X55653Y-179083D01*
X55922Y-179053D01*
X56191Y-179030D01*
X56460Y-179013D01*
X56730Y-179003D01*
X57000Y-179000D01*
X57270Y-179003D01*
X57540Y-179013D01*
X57809Y-179030D01*
X58078Y-179053D01*
X58347Y-179083D01*
X58614Y-179119D01*
X58881Y-179162D01*
X59146Y-179211D01*
X59410Y-179267D01*
X59673Y-179330D01*
X59934Y-179398D01*
X60193Y-179474D01*
X60450Y-179555D01*
X60706Y-179643D01*
X60959Y-179737D01*
X61210Y-179837D01*
X61458Y-179944D01*
X61703Y-180056D01*
X61946Y-180175D01*
X62185Y-180299D01*
X62422Y-180429D01*
X62655Y-180565D01*
X62885Y-180707D01*
X63111Y-180854D01*
X63334Y-181007D01*
X63553Y-181165D01*
X63768Y-181328D01*
X63978Y-181497D01*
X64185Y-181671D01*
X64387Y-181850D01*
X64585Y-182033D01*
X64778Y-182222D01*
X64967Y-182415D01*
X65150Y-182613D01*
X65329Y-182815D01*
X65503Y-183022D01*
X65672Y-183232D01*
X65835Y-183447D01*
X65993Y-183666D01*
X66146Y-183889D01*
X66293Y-184115D01*
X66435Y-184345D01*
X66571Y-184578D01*
X66701Y-184815D01*
X66825Y-185054D01*
X66944Y-185297D01*
X67056Y-185542D01*
X67163Y-185790D01*
X67263Y-186041D01*
X67357Y-186294D01*
X67445Y-186550D01*
X67526Y-186807D01*
X67602Y-187066D01*
X67670Y-187327D01*
X67733Y-187590D01*
X67789Y-187854D01*
X67838Y-188119D01*
X67881Y-188386D01*
X67917Y-188653D01*
X67947Y-188922D01*
X67970Y-189191D01*
X67987Y-189460D01*
X67997Y-189730D01*
X68000Y-190000D01*
X67997Y-190270D01*
X67987Y-190540D01*
X67970Y-190809D01*
X67947Y-191078D01*
X67917Y-191347D01*
X67881Y-191614D01*
X67838Y-191881D01*
X67789Y-192146D01*
X67733Y-192410D01*
X67670Y-192673D01*
X67602Y-192934D01*
X67526Y-193193D01*
X67445Y-193450D01*
X67357Y-193706D01*
X67263Y-193959D01*
X67163Y-194210D01*
X67056Y-194458D01*
X66944Y-194703D01*
X66825Y-194946D01*
X66701Y-195185D01*
X66571Y-195422D01*
X66435Y-195655D01*
X66293Y-195885D01*
X66146Y-196111D01*
X65993Y-196334D01*
X65835Y-196553D01*
X65672Y-196768D01*
X65503Y-196978D01*
X65329Y-197185D01*
X65150Y-197387D01*
X64967Y-197585D01*
X64778Y-197778D01*
X64585Y-197967D01*
X64387Y-198150D01*
X64185Y-198329D01*
X63978Y-198503D01*
X63768Y-198672D01*
X63553Y-198835D01*
X63334Y-198993D01*
X63111Y-199146D01*
X62885Y-199293D01*
X62655Y-199435D01*
X62422Y-199571D01*
X62185Y-199701D01*
X61946Y-199825D01*
X61703Y-199944D01*
X61458Y-200056D01*
X61210Y-200163D01*
X60959Y-200263D01*
X60706Y-200357D01*
X60450Y-200445D01*
X60193Y-200526D01*
X59934Y-200602D01*
X59673Y-200670D01*
X59410Y-200733D01*
X59146Y-200789D01*
X58881Y-200838D01*
X58614Y-200881D01*
X58347Y-200917D01*
X58078Y-200947D01*
X57809Y-200970D01*
X57540Y-200987D01*
X57270Y-200997D01*
X57000Y-201000D01*
X56730Y-200997D01*
X56460Y-200987D01*
X56191Y-200970D01*
X55922Y-200947D01*
X55653Y-200917D01*
X55386Y-200881D01*
X55119Y-200838D01*
X54854Y-200789D01*
X54590Y-200733D01*
X54327Y-200670D01*
X54066Y-200602D01*
X53807Y-200526D01*
X53550Y-200445D01*
X53294Y-200357D01*
X53041Y-200263D01*
X52790Y-200163D01*
X52542Y-200056D01*
X52297Y-199944D01*
X52054Y-199825D01*
X51815Y-199701D01*
X51578Y-199571D01*
X51345Y-199435D01*
X51115Y-199293D01*
X50889Y-199146D01*
X50666Y-198993D01*
X50447Y-198835D01*
X50232Y-198672D01*
X50022Y-198503D01*
X49815Y-198329D01*
X49613Y-198150D01*
X49415Y-197967D01*
X49222Y-197778D01*
X49033Y-197585D01*
X48850Y-197387D01*
X48671Y-197185D01*
X48497Y-196978D01*
X48328Y-196768D01*
X48165Y-196553D01*
X48007Y-196334D01*
X47854Y-196111D01*
X47707Y-195885D01*
X47565Y-195655D01*
X47429Y-195422D01*
X47299Y-195185D01*
X47175Y-194946D01*
X47056Y-194703D01*
X46944Y-194458D01*
X46837Y-194210D01*
X46737Y-193959D01*
X46643Y-193706D01*
X46555Y-193450D01*
X46474Y-193193D01*
X46398Y-192934D01*
X46330Y-192673D01*
X46267Y-192410D01*
X46211Y-192146D01*
X46162Y-191881D01*
X46119Y-191614D01*
X46083Y-191347D01*
X46053Y-191078D01*
X46030Y-190809D01*
X46013Y-190540D01*
X46003Y-190270D01*
X46000Y-190000D01*
X-386000Y-55000D02*
X-385997Y-54730D01*
X-385987Y-54460D01*
X-385970Y-54191D01*
X-385947Y-53922D01*
X-385917Y-53653D01*
X-385881Y-53386D01*
X-385838Y-53119D01*
X-385789Y-52854D01*
X-385733Y-52590D01*
X-385670Y-52327D01*
X-385602Y-52066D01*
X-385526Y-51807D01*
X-385445Y-51550D01*
X-385357Y-51294D01*
X-385263Y-51041D01*
X-385163Y-50790D01*
X-385056Y-50542D01*
X-384944Y-50297D01*
X-384825Y-50054D01*
X-384701Y-49815D01*
X-384571Y-49578D01*
X-384435Y-49345D01*
X-384293Y-49115D01*
X-384146Y-48889D01*
X-383993Y-48666D01*
X-383835Y-48447D01*
X-383672Y-48232D01*
X-383503Y-48022D01*
X-383329Y-47815D01*
X-383150Y-47613D01*
X-382967Y-47415D01*
X-382778Y-47222D01*
X-382585Y-47033D01*
X-382387Y-46850D01*
X-382185Y-46671D01*
X-381978Y-46497D01*
X-381768Y-46328D01*
X-381553Y-46165D01*
X-381334Y-46007D01*
X-381111Y-45854D01*
X-380885Y-45707D01*
X-380655Y-45565D01*
X-380422Y-45429D01*
X-380185Y-45299D01*
X-379946Y-45175D01*
X-379703Y-45056D01*
X-379458Y-44944D01*
X-379210Y-44837D01*
X-378959Y-44737D01*
X-378706Y-44643D01*
X-378450Y-44555D01*
X-378193Y-44474D01*
X-377934Y-44398D01*
X-377673Y-44330D01*
X-377410Y-44267D01*
X-377146Y-44211D01*
X-376881Y-44162D01*
X-376614Y-44119D01*
X-376347Y-44083D01*
X-376078Y-44053D01*
X-375809Y-44030D01*
X-375540Y-44013D01*
X-375270Y-44003D01*
X-375000Y-44000D01*
X-374730Y-44003D01*
X-374460Y-44013D01*
X-374191Y-44030D01*
X-373922Y-44053D01*
X-373653Y-44083D01*
X-373386Y-44119D01*
X-373119Y-44162D01*
X-372854Y-44211D01*
X-372590Y-44267D01*
X-372327Y-44330D01*
X-372066Y-44398D01*
X-371807Y-44474D01*
X-371550Y-44555D01*
X-371294Y-44643D01*
X-371041Y-44737D01*
X-370790Y-44837D01*
X-370542Y-44944D01*
X-370297Y-45056D01*
X-370054Y-45175D01*
X-369815Y-45299D01*
X-369578Y-45429D01*
X-369345Y-45565D01*
X-369115Y-45707D01*
X-368889Y-45854D01*
X-368666Y-46007D01*
X-368447Y-46165D01*
X-368232Y-46328D01*
X-368022Y-46497D01*
X-367815Y-46671D01*
X-367613Y-46850D01*
X-367415Y-47033D01*
X-367222Y-47222D01*
X-367033Y-47415D01*
X-366850Y-47613D01*
X-366671Y-47815D01*
X-366497Y-48022D01*
X-366328Y-48232D01*
X-366165Y-48447D01*
X-366007Y-48666D01*
X-365854Y-48889D01*
X-365707Y-49115D01*
X-365565Y-49345D01*
X-365429Y-49578D01*
X-365299Y-49815D01*
X-365175Y-50054D01*
X-365056Y-50297D01*
X-364944Y-50542D01*
X-364837Y-50790D01*
X-364737Y-51041D01*
X-364643Y-51294D01*
X-364555Y-51550D01*
X-364474Y-51807D01*
X-364398Y-52066D01*
X-364330Y-52327D01*
X-364267Y-52590D01*
X-364211Y-52854D01*
X-364162Y-53119D01*
X-364119Y-53386D01*
X-364083Y-53653D01*
X-364053Y-53922D01*
X-364030Y-54191D01*
X-364013Y-54460D01*
X-364003Y-54730D01*
X-364000Y-55000D01*
X-364003Y-55270D01*
X-364013Y-55540D01*
X-364030Y-55809D01*
X-364053Y-56078D01*
X-364083Y-56347D01*
X-364119Y-56614D01*
X-364162Y-56881D01*
X-364211Y-57146D01*
X-364267Y-57410D01*
X-364330Y-57673D01*
X-364398Y-57934D01*
X-364474Y-58193D01*
X-364555Y-58450D01*
X-364643Y-58706D01*
X-364737Y-58959D01*
X-364837Y-59210D01*
X-364944Y-59458D01*
X-365056Y-59703D01*
X-365175Y-59946D01*
X-365299Y-60185D01*
X-365429Y-60422D01*
X-365565Y-60655D01*
X-365707Y-60885D01*
X-365854Y-61111D01*
X-366007Y-61334D01*
X-366165Y-61553D01*
X-366328Y-61768D01*
X-366497Y-61978D01*
X-366671Y-62185D01*
X-366850Y-62387D01*
X-367033Y-62585D01*
X-367222Y-62778D01*
X-367415Y-62967D01*
X-367613Y-63150D01*
X-367815Y-63329D01*
X-368022Y-63503D01*
X-368232Y-63672D01*
X-368447Y-63835D01*
X-368666Y-63993D01*
X-368889Y-64146D01*
X-369115Y-64293D01*
X-369345Y-64435D01*
X-369578Y-64571D01*
X-369815Y-64701D01*
X-370054Y-64825D01*
X-370297Y-64944D01*
X-370542Y-65056D01*
X-370790Y-65163D01*
X-371041Y-65263D01*
X-371294Y-65357D01*
X-371550Y-65445D01*
X-371807Y-65526D01*
X-372066Y-65602D01*
X-372327Y-65670D01*
X-372590Y-65733D01*
X-372854Y-65789D01*
X-373119Y-65838D01*
X-373386Y-65881D01*
X-373653Y-65917D01*
X-373922Y-65947D01*
X-374191Y-65970D01*
X-374460Y-65987D01*
X-374730Y-65997D01*
X-375000Y-66000D01*
X-375270Y-65997D01*
X-375540Y-65987D01*
X-375809Y-65970D01*
X-376078Y-65947D01*
X-376347Y-65917D01*
X-376614Y-65881D01*
X-376881Y-65838D01*
X-377146Y-65789D01*
X-377410Y-65733D01*
X-377673Y-65670D01*
X-377934Y-65602D01*
X-378193Y-65526D01*
X-378450Y-65445D01*
X-378706Y-65357D01*
X-378959Y-65263D01*
X-379210Y-65163D01*
X-379458Y-65056D01*
X-379703Y-64944D01*
X-379946Y-64825D01*
X-380185Y-64701D01*
X-380422Y-64571D01*
X-380655Y-64435D01*
X-380885Y-64293D01*
X-381111Y-64146D01*
X-381334Y-63993D01*
X-381553Y-63835D01*
X-381768Y-63672D01*
X-381978Y-63503D01*
X-382185Y-63329D01*
X-382387Y-63150D01*
X-382585Y-62967D01*
X-382778Y-62778D01*
X-382967Y-62585D01*
X-383150Y-62387D01*
X-383329Y-62185D01*
X-383503Y-61978D01*
X-383672Y-61768D01*
X-383835Y-61553D01*
X-383993Y-61334D01*
X-384146Y-61111D01*
X-384293Y-60885D01*
X-384435Y-60655D01*
X-384571Y-60422D01*
X-384701Y-60185D01*
X-384825Y-59946D01*
X-384944Y-59703D01*
X-385056Y-59458D01*
X-385163Y-59210D01*
X-385263Y-58959D01*
X-385357Y-58706D01*
X-385445Y-58450D01*
X-385526Y-58193D01*
X-385602Y-57934D01*
X-385670Y-57673D01*
X-385733Y-57410D01*
X-385789Y-57146D01*
X-385838Y-56881D01*
X-385881Y-56614D01*
X-385917Y-56347D01*
X-385947Y-56078D01*
X-385970Y-55809D01*
X-385987Y-55540D01*
X-385997Y-55270D01*
X-386000Y-55000D01*
X-386000Y255000D02*
X-385997Y255270D01*
X-385987Y255540D01*
X-385970Y255809D01*
X-385947Y256078D01*
X-385917Y256347D01*
X-385881Y256614D01*
X-385838Y256881D01*
X-385789Y257146D01*
X-385733Y257410D01*
X-385670Y257673D01*
X-385602Y257934D01*
X-385526Y258193D01*
X-385445Y258450D01*
X-385357Y258706D01*
X-385263Y258959D01*
X-385163Y259210D01*
X-385056Y259458D01*
X-384944Y259703D01*
X-384825Y259946D01*
X-384701Y260185D01*
X-384571Y260422D01*
X-384435Y260655D01*
X-384293Y260885D01*
X-384146Y261111D01*
X-383993Y261334D01*
X-383835Y261553D01*
X-383672Y261768D01*
X-383503Y261978D01*
X-383329Y262185D01*
X-383150Y262387D01*
X-382967Y262585D01*
X-382778Y262778D01*
X-382585Y262967D01*
X-382387Y263150D01*
X-382185Y263329D01*
X-381978Y263503D01*
X-381768Y263672D01*
X-381553Y263835D01*
X-381334Y263993D01*
X-381111Y264146D01*
X-380885Y264293D01*
X-380655Y264435D01*
X-380422Y264571D01*
X-380185Y264701D01*
X-379946Y264825D01*
X-379703Y264944D01*
X-379458Y265056D01*
X-379210Y265163D01*
X-378959Y265263D01*
X-378706Y265357D01*
X-378450Y265445D01*
X-378193Y265526D01*
X-377934Y265602D01*
X-377673Y265670D01*
X-377410Y265733D01*
X-377146Y265789D01*
X-376881Y265838D01*
X-376614Y265881D01*
X-376347Y265917D01*
X-376078Y265947D01*
X-375809Y265970D01*
X-375540Y265987D01*
X-375270Y265997D01*
X-375000Y266000D01*
X-374730Y265997D01*
X-374460Y265987D01*
X-374191Y265970D01*
X-373922Y265947D01*
X-373653Y265917D01*
X-373386Y265881D01*
X-373119Y265838D01*
X-372854Y265789D01*
X-372590Y265733D01*
X-372327Y265670D01*
X-372066Y265602D01*
X-371807Y265526D01*
X-371550Y265445D01*
X-371294Y265357D01*
X-371041Y265263D01*
X-370790Y265163D01*
X-370542Y265056D01*
X-370297Y264944D01*
X-370054Y264825D01*
X-369815Y264701D01*
X-369578Y264571D01*
X-369345Y264435D01*
X-369115Y264293D01*
X-368889Y264146D01*
X-368666Y263993D01*
X-368447Y263835D01*
X-368232Y263672D01*
X-368022Y263503D01*
X-367815Y263329D01*
X-367613Y263150D01*
X-367415Y262967D01*
X-367222Y262778D01*
X-367033Y262585D01*
X-366850Y262387D01*
X-366671Y262185D01*
X-366497Y261978D01*
X-366328Y261768D01*
X-366165Y261553D01*
X-366007Y261334D01*
X-365854Y261111D01*
X-365707Y260885D01*
X-365565Y260655D01*
X-365429Y260422D01*
X-365299Y260185D01*
X-365175Y259946D01*
X-365056Y259703D01*
X-364944Y259458D01*
X-364837Y259210D01*
X-364737Y258959D01*
X-364643Y258706D01*
X-364555Y258450D01*
X-364474Y258193D01*
X-364398Y257934D01*
X-364330Y257673D01*
X-364267Y257410D01*
X-364211Y257146D01*
X-364162Y256881D01*
X-364119Y256614D01*
X-364083Y256347D01*
X-364053Y256078D01*
X-364030Y255809D01*
X-364013Y255540D01*
X-364003Y255270D01*
X-364000Y255000D01*
X-364003Y254730D01*
X-364013Y254460D01*
X-364030Y254191D01*
X-364053Y253922D01*
X-364083Y253653D01*
X-364119Y253386D01*
X-364162Y253119D01*
X-364211Y252854D01*
X-364267Y252590D01*
X-364330Y252327D01*
X-364398Y252066D01*
X-364474Y251807D01*
X-364555Y251550D01*
X-364643Y251294D01*
X-364737Y251041D01*
X-364837Y250790D01*
X-364944Y250542D01*
X-365056Y250297D01*
X-365175Y250054D01*
X-365299Y249815D01*
X-365429Y249578D01*
X-365565Y249345D01*
X-365707Y249115D01*
X-365854Y248889D01*
X-366007Y248666D01*
X-366165Y248447D01*
X-366328Y248232D01*
X-366497Y248022D01*
X-366671Y247815D01*
X-366850Y247613D01*
X-367033Y247415D01*
X-367222Y247222D01*
X-367415Y247033D01*
X-367613Y246850D01*
X-367815Y246671D01*
X-368022Y246497D01*
X-368232Y246328D01*
X-368447Y246165D01*
X-368666Y246007D01*
X-368889Y245854D01*
X-369115Y245707D01*
X-369345Y245565D01*
X-369578Y245429D01*
X-369815Y245299D01*
X-370054Y245175D01*
X-370297Y245056D01*
X-370542Y244944D01*
X-370790Y244837D01*
X-371041Y244737D01*
X-371294Y244643D01*
X-371550Y244555D01*
X-371807Y244474D01*
X-372066Y244398D01*
X-372327Y244330D01*
X-372590Y244267D01*
X-372854Y244211D01*
X-373119Y244162D01*
X-373386Y244119D01*
X-373653Y244083D01*
X-373922Y244053D01*
X-374191Y244030D01*
X-374460Y244013D01*
X-374730Y244003D01*
X-375000Y244000D01*
X-375270Y244003D01*
X-375540Y244013D01*
X-375809Y244030D01*
X-376078Y244053D01*
X-376347Y244083D01*
X-376614Y244119D01*
X-376881Y244162D01*
X-377146Y244211D01*
X-377410Y244267D01*
X-377673Y244330D01*
X-377934Y244398D01*
X-378193Y244474D01*
X-378450Y244555D01*
X-378706Y244643D01*
X-378959Y244737D01*
X-379210Y244837D01*
X-379458Y244944D01*
X-379703Y245056D01*
X-379946Y245175D01*
X-380185Y245299D01*
X-380422Y245429D01*
X-380655Y245565D01*
X-380885Y245707D01*
X-381111Y245854D01*
X-381334Y246007D01*
X-381553Y246165D01*
X-381768Y246328D01*
X-381978Y246497D01*
X-382185Y246671D01*
X-382387Y246850D01*
X-382585Y247033D01*
X-382778Y247222D01*
X-382967Y247415D01*
X-383150Y247613D01*
X-383329Y247815D01*
X-383503Y248022D01*
X-383672Y248232D01*
X-383835Y248447D01*
X-383993Y248666D01*
X-384146Y248889D01*
X-384293Y249115D01*
X-384435Y249345D01*
X-384571Y249578D01*
X-384701Y249815D01*
X-384825Y250054D01*
X-384944Y250297D01*
X-385056Y250542D01*
X-385163Y250790D01*
X-385263Y251041D01*
X-385357Y251294D01*
X-385445Y251550D01*
X-385526Y251807D01*
X-385602Y252066D01*
X-385670Y252327D01*
X-385733Y252590D01*
X-385789Y252854D01*
X-385838Y253119D01*
X-385881Y253386D01*
X-385917Y253653D01*
X-385947Y253922D01*
X-385970Y254191D01*
X-385987Y254460D01*
X-385997Y254730D01*
X-386000Y255000D01*
X364000Y-55000D02*
X364003Y-54730D01*
X364013Y-54460D01*
X364030Y-54191D01*
X364053Y-53922D01*
X364083Y-53653D01*
X364119Y-53386D01*
X364162Y-53119D01*
X364211Y-52854D01*
X364267Y-52590D01*
X364330Y-52327D01*
X364398Y-52066D01*
X364474Y-51807D01*
X364555Y-51550D01*
X364643Y-51294D01*
X364737Y-51041D01*
X364837Y-50790D01*
X364944Y-50542D01*
X365056Y-50297D01*
X365175Y-50054D01*
X365299Y-49815D01*
X365429Y-49578D01*
X365565Y-49345D01*
X365707Y-49115D01*
X365854Y-48889D01*
X366007Y-48666D01*
X366165Y-48447D01*
X366328Y-48232D01*
X366497Y-48022D01*
X366671Y-47815D01*
X366850Y-47613D01*
X367033Y-47415D01*
X367222Y-47222D01*
X367415Y-47033D01*
X367613Y-46850D01*
X367815Y-46671D01*
X368022Y-46497D01*
X368232Y-46328D01*
X368447Y-46165D01*
X368666Y-46007D01*
X368889Y-45854D01*
X369115Y-45707D01*
X369345Y-45565D01*
X369578Y-45429D01*
X369815Y-45299D01*
X370054Y-45175D01*
X370297Y-45056D01*
X370542Y-44944D01*
X370790Y-44837D01*
X371041Y-44737D01*
X371294Y-44643D01*
X371550Y-44555D01*
X371807Y-44474D01*
X372066Y-44398D01*
X372327Y-44330D01*
X372590Y-44267D01*
X372854Y-44211D01*
X373119Y-44162D01*
X373386Y-44119D01*
X373653Y-44083D01*
X373922Y-44053D01*
X374191Y-44030D01*
X374460Y-44013D01*
X374730Y-44003D01*
X375000Y-44000D01*
X375270Y-44003D01*
X375540Y-44013D01*
X375809Y-44030D01*
X376078Y-44053D01*
X376347Y-44083D01*
X376614Y-44119D01*
X376881Y-44162D01*
X377146Y-44211D01*
X377410Y-44267D01*
X377673Y-44330D01*
X377934Y-44398D01*
X378193Y-44474D01*
X378450Y-44555D01*
X378706Y-44643D01*
X378959Y-44737D01*
X379210Y-44837D01*
X379458Y-44944D01*
X379703Y-45056D01*
X379946Y-45175D01*
X380185Y-45299D01*
X380422Y-45429D01*
X380655Y-45565D01*
X380885Y-45707D01*
X381111Y-45854D01*
X381334Y-46007D01*
X381553Y-46165D01*
X381768Y-46328D01*
X381978Y-46497D01*
X382185Y-46671D01*
X382387Y-46850D01*
X382585Y-47033D01*
X382778Y-47222D01*
X382967Y-47415D01*
X383150Y-47613D01*
X383329Y-47815D01*
X383503Y-48022D01*
X383672Y-48232D01*
X383835Y-48447D01*
X383993Y-48666D01*
X384146Y-48889D01*
X384293Y-49115D01*
X384435Y-49345D01*
X384571Y-49578D01*
X384701Y-49815D01*
X384825Y-50054D01*
X384944Y-50297D01*
X385056Y-50542D01*
X385163Y-50790D01*
X385263Y-51041D01*
X385357Y-51294D01*
X385445Y-51550D01*
X385526Y-51807D01*
X385602Y-52066D01*
X385670Y-52327D01*
X385733Y-52590D01*
X385789Y-52854D01*
X385838Y-53119D01*
X385881Y-53386D01*
X385917Y-53653D01*
X385947Y-53922D01*
X385970Y-54191D01*
X385987Y-54460D01*
X385997Y-54730D01*
X386000Y-55000D01*
X385997Y-55270D01*
X385987Y-55540D01*
X385970Y-55809D01*
X385947Y-56078D01*
X385917Y-56347D01*
X385881Y-56614D01*
X385838Y-56881D01*
X385789Y-57146D01*
X385733Y-57410D01*
X385670Y-57673D01*
X385602Y-57934D01*
X385526Y-58193D01*
X385445Y-58450D01*
X385357Y-58706D01*
X385263Y-58959D01*
X385163Y-59210D01*
X385056Y-59458D01*
X384944Y-59703D01*
X384825Y-59946D01*
X384701Y-60185D01*
X384571Y-60422D01*
X384435Y-60655D01*
X384293Y-60885D01*
X384146Y-61111D01*
X383993Y-61334D01*
X383835Y-61553D01*
X383672Y-61768D01*
X383503Y-61978D01*
X383329Y-62185D01*
X383150Y-62387D01*
X382967Y-62585D01*
X382778Y-62778D01*
X382585Y-62967D01*
X382387Y-63150D01*
X382185Y-63329D01*
X381978Y-63503D01*
X381768Y-63672D01*
X381553Y-63835D01*
X381334Y-63993D01*
X381111Y-64146D01*
X380885Y-64293D01*
X380655Y-64435D01*
X380422Y-64571D01*
X380185Y-64701D01*
X379946Y-64825D01*
X379703Y-64944D01*
X379458Y-65056D01*
X379210Y-65163D01*
X378959Y-65263D01*
X378706Y-65357D01*
X378450Y-65445D01*
X378193Y-65526D01*
X377934Y-65602D01*
X377673Y-65670D01*
X377410Y-65733D01*
X377146Y-65789D01*
X376881Y-65838D01*
X376614Y-65881D01*
X376347Y-65917D01*
X376078Y-65947D01*
X375809Y-65970D01*
X375540Y-65987D01*
X375270Y-65997D01*
X375000Y-66000D01*
X374730Y-65997D01*
X374460Y-65987D01*
X374191Y-65970D01*
X373922Y-65947D01*
X373653Y-65917D01*
X373386Y-65881D01*
X373119Y-65838D01*
X372854Y-65789D01*
X372590Y-65733D01*
X372327Y-65670D01*
X372066Y-65602D01*
X371807Y-65526D01*
X371550Y-65445D01*
X371294Y-65357D01*
X371041Y-65263D01*
X370790Y-65163D01*
X370542Y-65056D01*
X370297Y-64944D01*
X370054Y-64825D01*
X369815Y-64701D01*
X369578Y-64571D01*
X369345Y-64435D01*
X369115Y-64293D01*
X368889Y-64146D01*
X368666Y-63993D01*
X368447Y-63835D01*
X368232Y-63672D01*
X368022Y-63503D01*
X367815Y-63329D01*
X367613Y-63150D01*
X367415Y-62967D01*
X367222Y-62778D01*
X367033Y-62585D01*
X366850Y-62387D01*
X366671Y-62185D01*
X366497Y-61978D01*
X366328Y-61768D01*
X366165Y-61553D01*
X366007Y-61334D01*
X365854Y-61111D01*
X365707Y-60885D01*
X365565Y-60655D01*
X365429Y-60422D01*
X365299Y-60185D01*
X365175Y-59946D01*
X365056Y-59703D01*
X364944Y-59458D01*
X364837Y-59210D01*
X364737Y-58959D01*
X364643Y-58706D01*
X364555Y-58450D01*
X364474Y-58193D01*
X364398Y-57934D01*
X364330Y-57673D01*
X364267Y-57410D01*
X364211Y-57146D01*
X364162Y-56881D01*
X364119Y-56614D01*
X364083Y-56347D01*
X364053Y-56078D01*
X364030Y-55809D01*
X364013Y-55540D01*
X364003Y-55270D01*
X364000Y-55000D01*
X364000Y255000D02*
X364003Y255270D01*
X364013Y255540D01*
X364030Y255809D01*
X364053Y256078D01*
X364083Y256347D01*
X364119Y256614D01*
X364162Y256881D01*
X364211Y257146D01*
X364267Y257410D01*
X364330Y257673D01*
X364398Y257934D01*
X364474Y258193D01*
X364555Y258450D01*
X364643Y258706D01*
X364737Y258959D01*
X364837Y259210D01*
X364944Y259458D01*
X365056Y259703D01*
X365175Y259946D01*
X365299Y260185D01*
X365429Y260422D01*
X365565Y260655D01*
X365707Y260885D01*
X365854Y261111D01*
X366007Y261334D01*
X366165Y261553D01*
X366328Y261768D01*
X366497Y261978D01*
X366671Y262185D01*
X366850Y262387D01*
X367033Y262585D01*
X367222Y262778D01*
X367415Y262967D01*
X367613Y263150D01*
X367815Y263329D01*
X368022Y263503D01*
X368232Y263672D01*
X368447Y263835D01*
X368666Y263993D01*
X368889Y264146D01*
X369115Y264293D01*
X369345Y264435D01*
X369578Y264571D01*
X369815Y264701D01*
X370054Y264825D01*
X370297Y264944D01*
X370542Y265056D01*
X370790Y265163D01*
X371041Y265263D01*
X371294Y265357D01*
X371550Y265445D01*
X371807Y265526D01*
X372066Y265602D01*
X372327Y265670D01*
X372590Y265733D01*
X372854Y265789D01*
X373119Y265838D01*
X373386Y265881D01*
X373653Y265917D01*
X373922Y265947D01*
X374191Y265970D01*
X374460Y265987D01*
X374730Y265997D01*
X375000Y266000D01*
X375270Y265997D01*
X375540Y265987D01*
X375809Y265970D01*
X376078Y265947D01*
X376347Y265917D01*
X376614Y265881D01*
X376881Y265838D01*
X377146Y265789D01*
X377410Y265733D01*
X377673Y265670D01*
X377934Y265602D01*
X378193Y265526D01*
X378450Y265445D01*
X378706Y265357D01*
X378959Y265263D01*
X379210Y265163D01*
X379458Y265056D01*
X379703Y264944D01*
X379946Y264825D01*
X380185Y264701D01*
X380422Y264571D01*
X380655Y264435D01*
X380885Y264293D01*
X381111Y264146D01*
X381334Y263993D01*
X381553Y263835D01*
X381768Y263672D01*
X381978Y263503D01*
X382185Y263329D01*
X382387Y263150D01*
X382585Y262967D01*
X382778Y262778D01*
X382967Y262585D01*
X383150Y262387D01*
X383329Y262185D01*
X383503Y261978D01*
X383672Y261768D01*
X383835Y261553D01*
X383993Y261334D01*
X384146Y261111D01*
X384293Y260885D01*
X384435Y260655D01*
X384571Y260422D01*
X384701Y260185D01*
X384825Y259946D01*
X384944Y259703D01*
X385056Y259458D01*
X385163Y259210D01*
X385263Y258959D01*
X385357Y258706D01*
X385445Y258450D01*
X385526Y258193D01*
X385602Y257934D01*
X385670Y257673D01*
X385733Y257410D01*
X385789Y257146D01*
X385838Y256881D01*
X385881Y256614D01*
X385917Y256347D01*
X385947Y256078D01*
X385970Y255809D01*
X385987Y255540D01*
X385997Y255270D01*
X386000Y255000D01*
X385997Y254730D01*
X385987Y254460D01*
X385970Y254191D01*
X385947Y253922D01*
X385917Y253653D01*
X385881Y253386D01*
X385838Y253119D01*
X385789Y252854D01*
X385733Y252590D01*
X385670Y252327D01*
X385602Y252066D01*
X385526Y251807D01*
X385445Y251550D01*
X385357Y251294D01*
X385263Y251041D01*
X385163Y250790D01*
X385056Y250542D01*
X384944Y250297D01*
X384825Y250054D01*
X384701Y249815D01*
X384571Y249578D01*
X384435Y249345D01*
X384293Y249115D01*
X384146Y248889D01*
X383993Y248666D01*
X383835Y248447D01*
X383672Y248232D01*
X383503Y248022D01*
X383329Y247815D01*
X383150Y247613D01*
X382967Y247415D01*
X382778Y247222D01*
X382585Y247033D01*
X382387Y246850D01*
X382185Y246671D01*
X381978Y246497D01*
X381768Y246328D01*
X381553Y246165D01*
X381334Y246007D01*
X381111Y245854D01*
X380885Y245707D01*
X380655Y245565D01*
X380422Y245429D01*
X380185Y245299D01*
X379946Y245175D01*
X379703Y245056D01*
X379458Y244944D01*
X379210Y244837D01*
X378959Y244737D01*
X378706Y244643D01*
X378450Y244555D01*
X378193Y244474D01*
X377934Y244398D01*
X377673Y244330D01*
X377410Y244267D01*
X377146Y244211D01*
X376881Y244162D01*
X376614Y244119D01*
X376347Y244083D01*
X376078Y244053D01*
X375809Y244030D01*
X375540Y244013D01*
X375270Y244003D01*
X375000Y244000D01*
X374730Y244003D01*
X374460Y244013D01*
X374191Y244030D01*
X373922Y244053D01*
X373653Y244083D01*
X373386Y244119D01*
X373119Y244162D01*
X372854Y244211D01*
X372590Y244267D01*
X372327Y244330D01*
X372066Y244398D01*
X371807Y244474D01*
X371550Y244555D01*
X371294Y244643D01*
X371041Y244737D01*
X370790Y244837D01*
X370542Y244944D01*
X370297Y245056D01*
X370054Y245175D01*
X369815Y245299D01*
X369578Y245429D01*
X369345Y245565D01*
X369115Y245707D01*
X368889Y245854D01*
X368666Y246007D01*
X368447Y246165D01*
X368232Y246328D01*
X368022Y246497D01*
X367815Y246671D01*
X367613Y246850D01*
X367415Y247033D01*
X367222Y247222D01*
X367033Y247415D01*
X366850Y247613D01*
X366671Y247815D01*
X366497Y248022D01*
X366328Y248232D01*
X366165Y248447D01*
X366007Y248666D01*
X365854Y248889D01*
X365707Y249115D01*
X365565Y249345D01*
X365429Y249578D01*
X365299Y249815D01*
X365175Y250054D01*
X365056Y250297D01*
X364944Y250542D01*
X364837Y250790D01*
X364737Y251041D01*
X364643Y251294D01*
X364555Y251550D01*
X364474Y251807D01*
X364398Y252066D01*
X364330Y252327D01*
X364267Y252590D01*
X364211Y252854D01*
X364162Y253119D01*
X364119Y253386D01*
X364083Y253653D01*
X364053Y253922D01*
X364030Y254191D01*
X364013Y254460D01*
X364003Y254730D01*
X364000Y255000D01*
D13*
X-160000Y255000D02*
X-160000Y230000D01*
X-160000Y255000D02*
X-318730Y255000D01*
X-318730Y230000D02*
X-160000Y230000D01*
X-318730Y230000D02*
X-318730Y255000D01*
D12*
X-160000Y220649D02*
X-156754Y220649D01*
X-160000Y220650D02*
X-160113Y220648D01*
X-160226Y220642D01*
X-160339Y220632D01*
X-160452Y220618D01*
X-160564Y220601D01*
X-160675Y220579D01*
X-160785Y220554D01*
X-160895Y220524D01*
X-161003Y220491D01*
X-161110Y220454D01*
X-161216Y220414D01*
X-161320Y220369D01*
X-161423Y220321D01*
X-161524Y220270D01*
X-161623Y220215D01*
X-161720Y220157D01*
X-161815Y220095D01*
X-161908Y220030D01*
X-161998Y219962D01*
X-162086Y219891D01*
X-162172Y219816D01*
X-162255Y219739D01*
X-162335Y219659D01*
X-162412Y219576D01*
X-162487Y219490D01*
X-162558Y219402D01*
X-162626Y219312D01*
X-162691Y219219D01*
X-162753Y219124D01*
X-162811Y219027D01*
X-162866Y218928D01*
X-162917Y218827D01*
X-162965Y218724D01*
X-163010Y218620D01*
X-163050Y218514D01*
X-163087Y218407D01*
X-163120Y218299D01*
X-163150Y218189D01*
X-163175Y218079D01*
X-163197Y217968D01*
X-163214Y217856D01*
X-163228Y217743D01*
X-163238Y217630D01*
X-163244Y217517D01*
X-163246Y217404D01*
X-163244Y217291D01*
X-163238Y217178D01*
X-163228Y217065D01*
X-163214Y216952D01*
X-163197Y216840D01*
X-163175Y216729D01*
X-163150Y216619D01*
X-163120Y216509D01*
X-163087Y216401D01*
X-163050Y216294D01*
X-163010Y216188D01*
X-162965Y216084D01*
X-162917Y215981D01*
X-162866Y215880D01*
X-162811Y215781D01*
X-162753Y215684D01*
X-162691Y215589D01*
X-162626Y215496D01*
X-162558Y215406D01*
X-162487Y215318D01*
X-162412Y215232D01*
X-162335Y215149D01*
X-162255Y215069D01*
X-162172Y214992D01*
X-162086Y214917D01*
X-161998Y214846D01*
X-161908Y214778D01*
X-161815Y214713D01*
X-161720Y214651D01*
X-161623Y214593D01*
X-161524Y214538D01*
X-161423Y214487D01*
X-161320Y214439D01*
X-161216Y214394D01*
X-161110Y214354D01*
X-161003Y214317D01*
X-160895Y214284D01*
X-160785Y214254D01*
X-160675Y214229D01*
X-160564Y214207D01*
X-160452Y214190D01*
X-160339Y214176D01*
X-160226Y214166D01*
X-160113Y214160D01*
X-160000Y214158D01*
X-156754Y214158D01*
X-156754Y225842D01*
X-160000Y225842D01*
X-160101Y225840D01*
X-160201Y225834D01*
X-160301Y225824D01*
X-160401Y225811D01*
X-160500Y225793D01*
X-160599Y225772D01*
X-160696Y225747D01*
X-160793Y225718D01*
X-160888Y225685D01*
X-160982Y225649D01*
X-161074Y225609D01*
X-161165Y225566D01*
X-161254Y225519D01*
X-161341Y225469D01*
X-161427Y225415D01*
X-161510Y225358D01*
X-161590Y225298D01*
X-161669Y225235D01*
X-161745Y225168D01*
X-161818Y225099D01*
X-161888Y225027D01*
X-161956Y224953D01*
X-162021Y224876D01*
X-162082Y224796D01*
X-162141Y224714D01*
X-162196Y224630D01*
X-162248Y224544D01*
X-162297Y224456D01*
X-162342Y224366D01*
X-162384Y224274D01*
X-162422Y224181D01*
X-162456Y224086D01*
X-162487Y223991D01*
X-162514Y223894D01*
X-162537Y223796D01*
X-162557Y223697D01*
X-162572Y223597D01*
X-162584Y223497D01*
X-162592Y223397D01*
X-162596Y223296D01*
X-162596Y223196D01*
X-162592Y223095D01*
X-162584Y222995D01*
X-162572Y222895D01*
X-162557Y222795D01*
X-162537Y222696D01*
X-162514Y222598D01*
X-162487Y222501D01*
X-162456Y222406D01*
X-162422Y222311D01*
X-162384Y222218D01*
X-162342Y222126D01*
X-162297Y222036D01*
X-162248Y221948D01*
X-162196Y221862D01*
X-162141Y221778D01*
X-162082Y221696D01*
X-162021Y221616D01*
X-161956Y221539D01*
X-161888Y221465D01*
X-161818Y221393D01*
X-161745Y221324D01*
X-161669Y221257D01*
X-161590Y221194D01*
X-161510Y221134D01*
X-161427Y221077D01*
X-161341Y221023D01*
X-161254Y220973D01*
X-161165Y220926D01*
X-161074Y220883D01*
X-160982Y220843D01*
X-160888Y220807D01*
X-160793Y220774D01*
X-160696Y220745D01*
X-160599Y220720D01*
X-160500Y220699D01*
X-160401Y220681D01*
X-160301Y220668D01*
X-160201Y220658D01*
X-160101Y220652D01*
X-160000Y220650D01*
X-236065Y185842D02*
X-236065Y176754D01*
X-236063Y176655D01*
X-236057Y176555D01*
X-236048Y176456D01*
X-236035Y176358D01*
X-236018Y176260D01*
X-235997Y176162D01*
X-235972Y176066D01*
X-235944Y175971D01*
X-235912Y175877D01*
X-235877Y175784D01*
X-235838Y175692D01*
X-235795Y175602D01*
X-235750Y175514D01*
X-235700Y175427D01*
X-235648Y175343D01*
X-235592Y175260D01*
X-235534Y175180D01*
X-235472Y175102D01*
X-235407Y175027D01*
X-235339Y174954D01*
X-235269Y174884D01*
X-235196Y174816D01*
X-235121Y174751D01*
X-235043Y174689D01*
X-234963Y174631D01*
X-234880Y174575D01*
X-234796Y174523D01*
X-234709Y174473D01*
X-234621Y174428D01*
X-234531Y174385D01*
X-234439Y174346D01*
X-234346Y174311D01*
X-234252Y174279D01*
X-234157Y174251D01*
X-234061Y174226D01*
X-233963Y174205D01*
X-233865Y174188D01*
X-233767Y174175D01*
X-233668Y174166D01*
X-233568Y174160D01*
X-233469Y174158D01*
X-232170Y174158D01*
X-241339Y174158D02*
X-245233Y174158D01*
X-245332Y174160D01*
X-245432Y174166D01*
X-245531Y174175D01*
X-245629Y174188D01*
X-245727Y174205D01*
X-245825Y174226D01*
X-245921Y174251D01*
X-246016Y174279D01*
X-246110Y174311D01*
X-246203Y174346D01*
X-246295Y174385D01*
X-246385Y174428D01*
X-246473Y174473D01*
X-246560Y174523D01*
X-246644Y174575D01*
X-246727Y174631D01*
X-246807Y174689D01*
X-246885Y174751D01*
X-246960Y174816D01*
X-247033Y174884D01*
X-247103Y174954D01*
X-247171Y175027D01*
X-247236Y175102D01*
X-247298Y175180D01*
X-247356Y175260D01*
X-247412Y175343D01*
X-247464Y175427D01*
X-247514Y175514D01*
X-247559Y175602D01*
X-247602Y175692D01*
X-247641Y175784D01*
X-247676Y175877D01*
X-247708Y175971D01*
X-247736Y176066D01*
X-247761Y176162D01*
X-247782Y176260D01*
X-247799Y176358D01*
X-247812Y176456D01*
X-247821Y176555D01*
X-247827Y176655D01*
X-247829Y176754D01*
X-247830Y176754D02*
X-247830Y178053D01*
X-247829Y178053D02*
X-247827Y178152D01*
X-247821Y178252D01*
X-247812Y178351D01*
X-247799Y178449D01*
X-247782Y178547D01*
X-247761Y178645D01*
X-247736Y178741D01*
X-247708Y178836D01*
X-247676Y178930D01*
X-247641Y179023D01*
X-247602Y179115D01*
X-247559Y179205D01*
X-247514Y179293D01*
X-247464Y179380D01*
X-247412Y179464D01*
X-247356Y179547D01*
X-247298Y179627D01*
X-247236Y179705D01*
X-247171Y179780D01*
X-247103Y179853D01*
X-247033Y179923D01*
X-246960Y179991D01*
X-246885Y180056D01*
X-246807Y180118D01*
X-246727Y180176D01*
X-246644Y180232D01*
X-246560Y180284D01*
X-246473Y180334D01*
X-246385Y180379D01*
X-246295Y180422D01*
X-246203Y180461D01*
X-246110Y180496D01*
X-246016Y180528D01*
X-245921Y180556D01*
X-245825Y180581D01*
X-245727Y180602D01*
X-245629Y180619D01*
X-245531Y180632D01*
X-245432Y180641D01*
X-245332Y180647D01*
X-245233Y180649D01*
X-241339Y180649D01*
X-241339Y185842D01*
X-247830Y185842D01*
X-321298Y220649D02*
X-323246Y220649D01*
X-323246Y214158D01*
X-319351Y214158D01*
X-319252Y214160D01*
X-319152Y214166D01*
X-319053Y214175D01*
X-318955Y214188D01*
X-318857Y214205D01*
X-318759Y214226D01*
X-318663Y214251D01*
X-318568Y214279D01*
X-318474Y214311D01*
X-318381Y214346D01*
X-318289Y214385D01*
X-318199Y214428D01*
X-318111Y214473D01*
X-318024Y214523D01*
X-317940Y214575D01*
X-317857Y214631D01*
X-317777Y214689D01*
X-317699Y214751D01*
X-317624Y214816D01*
X-317551Y214884D01*
X-317481Y214954D01*
X-317413Y215027D01*
X-317348Y215102D01*
X-317286Y215180D01*
X-317228Y215260D01*
X-317172Y215343D01*
X-317120Y215427D01*
X-317070Y215514D01*
X-317025Y215602D01*
X-316982Y215692D01*
X-316943Y215784D01*
X-316908Y215877D01*
X-316876Y215971D01*
X-316848Y216066D01*
X-316823Y216162D01*
X-316802Y216260D01*
X-316785Y216358D01*
X-316772Y216456D01*
X-316763Y216555D01*
X-316757Y216655D01*
X-316755Y216754D01*
X-316754Y216754D02*
X-316754Y223246D01*
X-316755Y223246D02*
X-316757Y223345D01*
X-316763Y223445D01*
X-316772Y223544D01*
X-316785Y223642D01*
X-316802Y223740D01*
X-316823Y223838D01*
X-316848Y223934D01*
X-316876Y224029D01*
X-316908Y224123D01*
X-316943Y224216D01*
X-316982Y224308D01*
X-317025Y224398D01*
X-317070Y224486D01*
X-317120Y224573D01*
X-317172Y224657D01*
X-317228Y224740D01*
X-317286Y224820D01*
X-317348Y224898D01*
X-317413Y224973D01*
X-317481Y225046D01*
X-317551Y225116D01*
X-317624Y225184D01*
X-317699Y225249D01*
X-317777Y225311D01*
X-317857Y225369D01*
X-317940Y225425D01*
X-318024Y225477D01*
X-318111Y225527D01*
X-318199Y225572D01*
X-318289Y225615D01*
X-318381Y225654D01*
X-318473Y225689D01*
X-318568Y225721D01*
X-318663Y225749D01*
X-318759Y225774D01*
X-318857Y225795D01*
X-318955Y225812D01*
X-319053Y225825D01*
X-319152Y225834D01*
X-319252Y225840D01*
X-319351Y225842D01*
X-323246Y225842D01*
D15*
X-118167Y-638807D02*
X-113651Y-638807D01*
X-113651Y-638806D02*
X-113518Y-638808D01*
X-113386Y-638814D01*
X-113254Y-638824D01*
X-113122Y-638837D01*
X-112990Y-638855D01*
X-112860Y-638876D01*
X-112729Y-638901D01*
X-112600Y-638930D01*
X-112472Y-638963D01*
X-112344Y-638999D01*
X-112218Y-639039D01*
X-112093Y-639083D01*
X-111969Y-639131D01*
X-111847Y-639182D01*
X-111726Y-639237D01*
X-111607Y-639295D01*
X-111489Y-639357D01*
X-111374Y-639422D01*
X-111260Y-639491D01*
X-111149Y-639562D01*
X-111040Y-639638D01*
X-110933Y-639716D01*
X-110828Y-639797D01*
X-110726Y-639882D01*
X-110626Y-639969D01*
X-110529Y-640059D01*
X-110434Y-640152D01*
X-110343Y-640248D01*
X-110254Y-640346D01*
X-110168Y-640447D01*
X-110085Y-640551D01*
X-110005Y-640657D01*
X-109929Y-640765D01*
X-109855Y-640875D01*
X-109785Y-640988D01*
X-109718Y-641102D01*
X-109655Y-641219D01*
X-109595Y-641337D01*
X-109538Y-641457D01*
X-109485Y-641579D01*
X-109436Y-641702D01*
X-109390Y-641826D01*
X-109348Y-641952D01*
X-109310Y-642079D01*
X-109275Y-642207D01*
X-109244Y-642336D01*
X-109217Y-642465D01*
X-109194Y-642596D01*
X-109174Y-642727D01*
X-109159Y-642859D01*
X-109147Y-642991D01*
X-109139Y-643123D01*
X-109135Y-643256D01*
X-109135Y-643388D01*
X-109139Y-643521D01*
X-109147Y-643653D01*
X-109159Y-643785D01*
X-109174Y-643917D01*
X-109194Y-644048D01*
X-109217Y-644179D01*
X-109244Y-644308D01*
X-109275Y-644437D01*
X-109310Y-644565D01*
X-109348Y-644692D01*
X-109390Y-644818D01*
X-109436Y-644942D01*
X-109485Y-645065D01*
X-109538Y-645187D01*
X-109595Y-645307D01*
X-109655Y-645425D01*
X-109718Y-645542D01*
X-109785Y-645656D01*
X-109855Y-645769D01*
X-109929Y-645879D01*
X-110005Y-645987D01*
X-110085Y-646093D01*
X-110168Y-646197D01*
X-110254Y-646298D01*
X-110343Y-646396D01*
X-110434Y-646492D01*
X-110529Y-646585D01*
X-110626Y-646675D01*
X-110726Y-646762D01*
X-110828Y-646847D01*
X-110933Y-646928D01*
X-111040Y-647006D01*
X-111149Y-647082D01*
X-111260Y-647153D01*
X-111374Y-647222D01*
X-111489Y-647287D01*
X-111607Y-647349D01*
X-111726Y-647407D01*
X-111847Y-647462D01*
X-111969Y-647513D01*
X-112093Y-647561D01*
X-112218Y-647605D01*
X-112344Y-647645D01*
X-112472Y-647681D01*
X-112600Y-647714D01*
X-112729Y-647743D01*
X-112860Y-647768D01*
X-112990Y-647789D01*
X-113122Y-647807D01*
X-113254Y-647820D01*
X-113386Y-647830D01*
X-113518Y-647836D01*
X-113651Y-647838D01*
X-118167Y-647838D01*
X-118167Y-631582D01*
X-113651Y-631582D01*
X-113532Y-631584D01*
X-113412Y-631590D01*
X-113293Y-631600D01*
X-113175Y-631614D01*
X-113056Y-631631D01*
X-112939Y-631653D01*
X-112822Y-631678D01*
X-112707Y-631708D01*
X-112592Y-631741D01*
X-112478Y-631778D01*
X-112366Y-631818D01*
X-112255Y-631863D01*
X-112146Y-631911D01*
X-112038Y-631962D01*
X-111932Y-632017D01*
X-111828Y-632076D01*
X-111726Y-632138D01*
X-111626Y-632203D01*
X-111528Y-632272D01*
X-111432Y-632344D01*
X-111339Y-632419D01*
X-111249Y-632496D01*
X-111161Y-632577D01*
X-111076Y-632661D01*
X-110994Y-632748D01*
X-110914Y-632837D01*
X-110838Y-632929D01*
X-110764Y-633023D01*
X-110694Y-633120D01*
X-110627Y-633218D01*
X-110563Y-633319D01*
X-110503Y-633423D01*
X-110446Y-633528D01*
X-110393Y-633635D01*
X-110343Y-633743D01*
X-110297Y-633853D01*
X-110255Y-633965D01*
X-110216Y-634078D01*
X-110181Y-634192D01*
X-110150Y-634307D01*
X-110122Y-634424D01*
X-110099Y-634541D01*
X-110079Y-634658D01*
X-110063Y-634777D01*
X-110051Y-634896D01*
X-110043Y-635015D01*
X-110039Y-635134D01*
X-110039Y-635254D01*
X-110043Y-635373D01*
X-110051Y-635492D01*
X-110063Y-635611D01*
X-110079Y-635730D01*
X-110099Y-635847D01*
X-110122Y-635964D01*
X-110150Y-636081D01*
X-110181Y-636196D01*
X-110216Y-636310D01*
X-110255Y-636423D01*
X-110297Y-636535D01*
X-110343Y-636645D01*
X-110393Y-636753D01*
X-110446Y-636860D01*
X-110503Y-636965D01*
X-110563Y-637069D01*
X-110627Y-637170D01*
X-110694Y-637268D01*
X-110764Y-637365D01*
X-110838Y-637459D01*
X-110914Y-637551D01*
X-110994Y-637640D01*
X-111076Y-637727D01*
X-111161Y-637811D01*
X-111249Y-637892D01*
X-111339Y-637969D01*
X-111432Y-638044D01*
X-111528Y-638116D01*
X-111626Y-638185D01*
X-111726Y-638250D01*
X-111828Y-638312D01*
X-111932Y-638371D01*
X-112038Y-638426D01*
X-112146Y-638477D01*
X-112255Y-638525D01*
X-112366Y-638570D01*
X-112478Y-638610D01*
X-112592Y-638647D01*
X-112707Y-638680D01*
X-112822Y-638710D01*
X-112939Y-638735D01*
X-113056Y-638757D01*
X-113175Y-638774D01*
X-113293Y-638788D01*
X-113412Y-638798D01*
X-113532Y-638804D01*
X-113651Y-638806D01*
X-103406Y-640613D02*
X-103406Y-644226D01*
X-103406Y-640613D02*
X-103404Y-640494D01*
X-103398Y-640374D01*
X-103388Y-640255D01*
X-103374Y-640137D01*
X-103357Y-640018D01*
X-103335Y-639901D01*
X-103310Y-639784D01*
X-103280Y-639669D01*
X-103247Y-639554D01*
X-103210Y-639440D01*
X-103170Y-639328D01*
X-103125Y-639217D01*
X-103077Y-639108D01*
X-103026Y-639000D01*
X-102971Y-638894D01*
X-102912Y-638790D01*
X-102850Y-638688D01*
X-102785Y-638588D01*
X-102716Y-638490D01*
X-102644Y-638394D01*
X-102569Y-638301D01*
X-102492Y-638211D01*
X-102411Y-638123D01*
X-102327Y-638038D01*
X-102240Y-637956D01*
X-102151Y-637876D01*
X-102059Y-637800D01*
X-101965Y-637726D01*
X-101868Y-637656D01*
X-101770Y-637589D01*
X-101669Y-637525D01*
X-101565Y-637465D01*
X-101460Y-637408D01*
X-101353Y-637355D01*
X-101245Y-637305D01*
X-101135Y-637259D01*
X-101023Y-637217D01*
X-100910Y-637178D01*
X-100796Y-637143D01*
X-100681Y-637112D01*
X-100564Y-637084D01*
X-100447Y-637061D01*
X-100330Y-637041D01*
X-100211Y-637025D01*
X-100092Y-637013D01*
X-99973Y-637005D01*
X-99854Y-637001D01*
X-99734Y-637001D01*
X-99615Y-637005D01*
X-99496Y-637013D01*
X-99377Y-637025D01*
X-99258Y-637041D01*
X-99141Y-637061D01*
X-99024Y-637084D01*
X-98907Y-637112D01*
X-98792Y-637143D01*
X-98678Y-637178D01*
X-98565Y-637217D01*
X-98453Y-637259D01*
X-98343Y-637305D01*
X-98235Y-637355D01*
X-98128Y-637408D01*
X-98023Y-637465D01*
X-97919Y-637525D01*
X-97818Y-637589D01*
X-97720Y-637656D01*
X-97623Y-637726D01*
X-97529Y-637800D01*
X-97437Y-637876D01*
X-97348Y-637956D01*
X-97261Y-638038D01*
X-97177Y-638123D01*
X-97096Y-638211D01*
X-97019Y-638301D01*
X-96944Y-638394D01*
X-96872Y-638490D01*
X-96803Y-638588D01*
X-96738Y-638688D01*
X-96676Y-638790D01*
X-96617Y-638894D01*
X-96562Y-639000D01*
X-96511Y-639108D01*
X-96463Y-639217D01*
X-96418Y-639328D01*
X-96378Y-639440D01*
X-96341Y-639554D01*
X-96308Y-639669D01*
X-96278Y-639784D01*
X-96253Y-639901D01*
X-96231Y-640018D01*
X-96214Y-640137D01*
X-96200Y-640255D01*
X-96190Y-640374D01*
X-96184Y-640494D01*
X-96182Y-640613D01*
X-96182Y-644226D01*
X-96184Y-644345D01*
X-96190Y-644465D01*
X-96200Y-644584D01*
X-96214Y-644702D01*
X-96231Y-644821D01*
X-96253Y-644938D01*
X-96278Y-645055D01*
X-96308Y-645170D01*
X-96341Y-645285D01*
X-96378Y-645399D01*
X-96418Y-645511D01*
X-96463Y-645622D01*
X-96511Y-645731D01*
X-96562Y-645839D01*
X-96617Y-645945D01*
X-96676Y-646049D01*
X-96738Y-646151D01*
X-96803Y-646251D01*
X-96872Y-646349D01*
X-96944Y-646445D01*
X-97019Y-646538D01*
X-97096Y-646628D01*
X-97177Y-646716D01*
X-97261Y-646801D01*
X-97348Y-646883D01*
X-97437Y-646963D01*
X-97529Y-647039D01*
X-97623Y-647113D01*
X-97720Y-647183D01*
X-97818Y-647250D01*
X-97919Y-647314D01*
X-98023Y-647374D01*
X-98128Y-647431D01*
X-98235Y-647484D01*
X-98343Y-647534D01*
X-98453Y-647580D01*
X-98565Y-647622D01*
X-98678Y-647661D01*
X-98792Y-647696D01*
X-98907Y-647727D01*
X-99024Y-647755D01*
X-99141Y-647778D01*
X-99258Y-647798D01*
X-99377Y-647814D01*
X-99496Y-647826D01*
X-99615Y-647834D01*
X-99734Y-647838D01*
X-99854Y-647838D01*
X-99973Y-647834D01*
X-100092Y-647826D01*
X-100211Y-647814D01*
X-100330Y-647798D01*
X-100447Y-647778D01*
X-100564Y-647755D01*
X-100681Y-647727D01*
X-100796Y-647696D01*
X-100910Y-647661D01*
X-101023Y-647622D01*
X-101135Y-647580D01*
X-101245Y-647534D01*
X-101353Y-647484D01*
X-101460Y-647431D01*
X-101565Y-647374D01*
X-101669Y-647314D01*
X-101770Y-647250D01*
X-101868Y-647183D01*
X-101965Y-647113D01*
X-102059Y-647039D01*
X-102151Y-646963D01*
X-102240Y-646883D01*
X-102327Y-646801D01*
X-102411Y-646716D01*
X-102492Y-646628D01*
X-102569Y-646538D01*
X-102644Y-646445D01*
X-102716Y-646349D01*
X-102785Y-646251D01*
X-102850Y-646151D01*
X-102912Y-646049D01*
X-102971Y-645945D01*
X-103026Y-645839D01*
X-103077Y-645731D01*
X-103125Y-645622D01*
X-103170Y-645511D01*
X-103210Y-645399D01*
X-103247Y-645285D01*
X-103280Y-645170D01*
X-103310Y-645055D01*
X-103335Y-644938D01*
X-103357Y-644821D01*
X-103374Y-644702D01*
X-103388Y-644584D01*
X-103398Y-644465D01*
X-103404Y-644345D01*
X-103406Y-644226D01*
X-91157Y-637001D02*
X-85738Y-637001D01*
X-89350Y-631582D02*
X-89350Y-645129D01*
X-89348Y-645230D01*
X-89342Y-645331D01*
X-89333Y-645432D01*
X-89320Y-645533D01*
X-89303Y-645633D01*
X-89282Y-645732D01*
X-89258Y-645830D01*
X-89230Y-645927D01*
X-89198Y-646024D01*
X-89163Y-646119D01*
X-89124Y-646212D01*
X-89082Y-646304D01*
X-89036Y-646395D01*
X-88987Y-646484D01*
X-88935Y-646570D01*
X-88879Y-646655D01*
X-88821Y-646738D01*
X-88759Y-646818D01*
X-88694Y-646896D01*
X-88627Y-646972D01*
X-88557Y-647045D01*
X-88484Y-647115D01*
X-88408Y-647182D01*
X-88330Y-647247D01*
X-88250Y-647309D01*
X-88167Y-647367D01*
X-88082Y-647423D01*
X-87996Y-647475D01*
X-87907Y-647524D01*
X-87816Y-647570D01*
X-87724Y-647612D01*
X-87631Y-647651D01*
X-87536Y-647686D01*
X-87439Y-647718D01*
X-87342Y-647746D01*
X-87244Y-647770D01*
X-87145Y-647791D01*
X-87045Y-647808D01*
X-86944Y-647821D01*
X-86843Y-647830D01*
X-86742Y-647836D01*
X-86641Y-647838D01*
X-85738Y-647838D01*
X-81257Y-637001D02*
X-75838Y-637001D01*
X-79451Y-631582D02*
X-79451Y-645129D01*
X-79450Y-645129D02*
X-79448Y-645230D01*
X-79442Y-645331D01*
X-79433Y-645432D01*
X-79420Y-645533D01*
X-79403Y-645633D01*
X-79382Y-645732D01*
X-79358Y-645830D01*
X-79330Y-645927D01*
X-79298Y-646024D01*
X-79263Y-646119D01*
X-79224Y-646212D01*
X-79182Y-646304D01*
X-79136Y-646395D01*
X-79087Y-646484D01*
X-79035Y-646570D01*
X-78979Y-646655D01*
X-78921Y-646738D01*
X-78859Y-646818D01*
X-78794Y-646896D01*
X-78727Y-646972D01*
X-78657Y-647045D01*
X-78584Y-647115D01*
X-78508Y-647182D01*
X-78430Y-647247D01*
X-78350Y-647309D01*
X-78267Y-647367D01*
X-78182Y-647423D01*
X-78096Y-647475D01*
X-78007Y-647524D01*
X-77916Y-647570D01*
X-77824Y-647612D01*
X-77731Y-647651D01*
X-77636Y-647686D01*
X-77539Y-647718D01*
X-77442Y-647746D01*
X-77344Y-647770D01*
X-77245Y-647791D01*
X-77145Y-647808D01*
X-77044Y-647821D01*
X-76943Y-647830D01*
X-76842Y-647836D01*
X-76741Y-647838D01*
X-75838Y-647838D01*
X-70060Y-644226D02*
X-70060Y-640613D01*
X-70059Y-640613D02*
X-70057Y-640494D01*
X-70051Y-640374D01*
X-70041Y-640255D01*
X-70027Y-640137D01*
X-70010Y-640018D01*
X-69988Y-639901D01*
X-69963Y-639784D01*
X-69933Y-639669D01*
X-69900Y-639554D01*
X-69863Y-639440D01*
X-69823Y-639328D01*
X-69778Y-639217D01*
X-69730Y-639108D01*
X-69679Y-639000D01*
X-69624Y-638894D01*
X-69565Y-638790D01*
X-69503Y-638688D01*
X-69438Y-638588D01*
X-69369Y-638490D01*
X-69297Y-638394D01*
X-69222Y-638301D01*
X-69145Y-638211D01*
X-69064Y-638123D01*
X-68980Y-638038D01*
X-68893Y-637956D01*
X-68804Y-637876D01*
X-68712Y-637800D01*
X-68618Y-637726D01*
X-68521Y-637656D01*
X-68423Y-637589D01*
X-68322Y-637525D01*
X-68218Y-637465D01*
X-68113Y-637408D01*
X-68006Y-637355D01*
X-67898Y-637305D01*
X-67788Y-637259D01*
X-67676Y-637217D01*
X-67563Y-637178D01*
X-67449Y-637143D01*
X-67334Y-637112D01*
X-67217Y-637084D01*
X-67100Y-637061D01*
X-66983Y-637041D01*
X-66864Y-637025D01*
X-66745Y-637013D01*
X-66626Y-637005D01*
X-66507Y-637001D01*
X-66387Y-637001D01*
X-66268Y-637005D01*
X-66149Y-637013D01*
X-66030Y-637025D01*
X-65911Y-637041D01*
X-65794Y-637061D01*
X-65677Y-637084D01*
X-65560Y-637112D01*
X-65445Y-637143D01*
X-65331Y-637178D01*
X-65218Y-637217D01*
X-65106Y-637259D01*
X-64996Y-637305D01*
X-64888Y-637355D01*
X-64781Y-637408D01*
X-64676Y-637465D01*
X-64572Y-637525D01*
X-64471Y-637589D01*
X-64373Y-637656D01*
X-64276Y-637726D01*
X-64182Y-637800D01*
X-64090Y-637876D01*
X-64001Y-637956D01*
X-63914Y-638038D01*
X-63830Y-638123D01*
X-63749Y-638211D01*
X-63672Y-638301D01*
X-63597Y-638394D01*
X-63525Y-638490D01*
X-63456Y-638588D01*
X-63391Y-638688D01*
X-63329Y-638790D01*
X-63270Y-638894D01*
X-63215Y-639000D01*
X-63164Y-639108D01*
X-63116Y-639217D01*
X-63071Y-639328D01*
X-63031Y-639440D01*
X-62994Y-639554D01*
X-62961Y-639669D01*
X-62931Y-639784D01*
X-62906Y-639901D01*
X-62884Y-640018D01*
X-62867Y-640137D01*
X-62853Y-640255D01*
X-62843Y-640374D01*
X-62837Y-640494D01*
X-62835Y-640613D01*
X-62835Y-644226D01*
X-62837Y-644345D01*
X-62843Y-644465D01*
X-62853Y-644584D01*
X-62867Y-644702D01*
X-62884Y-644821D01*
X-62906Y-644938D01*
X-62931Y-645055D01*
X-62961Y-645170D01*
X-62994Y-645285D01*
X-63031Y-645399D01*
X-63071Y-645511D01*
X-63116Y-645622D01*
X-63164Y-645731D01*
X-63215Y-645839D01*
X-63270Y-645945D01*
X-63329Y-646049D01*
X-63391Y-646151D01*
X-63456Y-646251D01*
X-63525Y-646349D01*
X-63597Y-646445D01*
X-63672Y-646538D01*
X-63749Y-646628D01*
X-63830Y-646716D01*
X-63914Y-646801D01*
X-64001Y-646883D01*
X-64090Y-646963D01*
X-64182Y-647039D01*
X-64276Y-647113D01*
X-64373Y-647183D01*
X-64471Y-647250D01*
X-64572Y-647314D01*
X-64676Y-647374D01*
X-64781Y-647431D01*
X-64888Y-647484D01*
X-64996Y-647534D01*
X-65106Y-647580D01*
X-65218Y-647622D01*
X-65331Y-647661D01*
X-65445Y-647696D01*
X-65560Y-647727D01*
X-65677Y-647755D01*
X-65794Y-647778D01*
X-65911Y-647798D01*
X-66030Y-647814D01*
X-66149Y-647826D01*
X-66268Y-647834D01*
X-66387Y-647838D01*
X-66507Y-647838D01*
X-66626Y-647834D01*
X-66745Y-647826D01*
X-66864Y-647814D01*
X-66983Y-647798D01*
X-67100Y-647778D01*
X-67217Y-647755D01*
X-67334Y-647727D01*
X-67449Y-647696D01*
X-67563Y-647661D01*
X-67676Y-647622D01*
X-67788Y-647580D01*
X-67898Y-647534D01*
X-68006Y-647484D01*
X-68113Y-647431D01*
X-68218Y-647374D01*
X-68322Y-647314D01*
X-68423Y-647250D01*
X-68521Y-647183D01*
X-68618Y-647113D01*
X-68712Y-647039D01*
X-68804Y-646963D01*
X-68893Y-646883D01*
X-68980Y-646801D01*
X-69064Y-646716D01*
X-69145Y-646628D01*
X-69222Y-646538D01*
X-69297Y-646445D01*
X-69369Y-646349D01*
X-69438Y-646251D01*
X-69503Y-646151D01*
X-69565Y-646049D01*
X-69624Y-645945D01*
X-69679Y-645839D01*
X-69730Y-645731D01*
X-69778Y-645622D01*
X-69823Y-645511D01*
X-69863Y-645399D01*
X-69900Y-645285D01*
X-69933Y-645170D01*
X-69963Y-645055D01*
X-69988Y-644938D01*
X-70010Y-644821D01*
X-70027Y-644702D01*
X-70041Y-644584D01*
X-70051Y-644465D01*
X-70057Y-644345D01*
X-70059Y-644226D01*
X-55714Y-647838D02*
X-55714Y-637001D01*
X-47586Y-637001D01*
X-47485Y-637003D01*
X-47384Y-637009D01*
X-47283Y-637018D01*
X-47182Y-637031D01*
X-47082Y-637048D01*
X-46983Y-637069D01*
X-46885Y-637093D01*
X-46788Y-637121D01*
X-46691Y-637153D01*
X-46596Y-637188D01*
X-46503Y-637227D01*
X-46411Y-637269D01*
X-46320Y-637315D01*
X-46232Y-637364D01*
X-46145Y-637416D01*
X-46060Y-637472D01*
X-45977Y-637530D01*
X-45897Y-637592D01*
X-45819Y-637657D01*
X-45743Y-637724D01*
X-45670Y-637794D01*
X-45600Y-637867D01*
X-45533Y-637943D01*
X-45468Y-638021D01*
X-45406Y-638101D01*
X-45348Y-638184D01*
X-45292Y-638269D01*
X-45240Y-638356D01*
X-45191Y-638444D01*
X-45145Y-638535D01*
X-45103Y-638627D01*
X-45064Y-638720D01*
X-45029Y-638815D01*
X-44997Y-638912D01*
X-44969Y-639009D01*
X-44945Y-639107D01*
X-44924Y-639206D01*
X-44907Y-639306D01*
X-44894Y-639407D01*
X-44885Y-639508D01*
X-44879Y-639609D01*
X-44877Y-639710D01*
X-44876Y-639710D02*
X-44876Y-647838D01*
X-50295Y-647838D02*
X-50295Y-637001D01*
X-24382Y-647838D02*
X-24264Y-647836D01*
X-24146Y-647830D01*
X-24028Y-647821D01*
X-23911Y-647807D01*
X-23794Y-647790D01*
X-23677Y-647769D01*
X-23562Y-647744D01*
X-23447Y-647715D01*
X-23333Y-647682D01*
X-23221Y-647646D01*
X-23110Y-647606D01*
X-23000Y-647563D01*
X-22891Y-647516D01*
X-22784Y-647466D01*
X-22679Y-647411D01*
X-22576Y-647354D01*
X-22475Y-647293D01*
X-22375Y-647229D01*
X-22278Y-647162D01*
X-22183Y-647092D01*
X-22091Y-647018D01*
X-22000Y-646942D01*
X-21913Y-646862D01*
X-21828Y-646780D01*
X-21746Y-646695D01*
X-21666Y-646608D01*
X-21590Y-646517D01*
X-21516Y-646425D01*
X-21446Y-646330D01*
X-21379Y-646233D01*
X-21315Y-646133D01*
X-21254Y-646032D01*
X-21197Y-645929D01*
X-21142Y-645824D01*
X-21092Y-645717D01*
X-21045Y-645608D01*
X-21002Y-645498D01*
X-20962Y-645387D01*
X-20926Y-645275D01*
X-20893Y-645161D01*
X-20864Y-645046D01*
X-20839Y-644931D01*
X-20818Y-644814D01*
X-20801Y-644697D01*
X-20787Y-644580D01*
X-20778Y-644462D01*
X-20772Y-644344D01*
X-20770Y-644226D01*
X-24382Y-647838D02*
X-24565Y-647836D01*
X-24747Y-647829D01*
X-24929Y-647818D01*
X-25111Y-647803D01*
X-25293Y-647783D01*
X-25474Y-647759D01*
X-25654Y-647731D01*
X-25834Y-647699D01*
X-26013Y-647662D01*
X-26190Y-647621D01*
X-26367Y-647575D01*
X-26543Y-647526D01*
X-26718Y-647472D01*
X-26891Y-647414D01*
X-27062Y-647352D01*
X-27233Y-647286D01*
X-27401Y-647215D01*
X-27568Y-647141D01*
X-27733Y-647063D01*
X-27896Y-646981D01*
X-28057Y-646895D01*
X-28216Y-646805D01*
X-28373Y-646711D01*
X-28527Y-646614D01*
X-28679Y-646513D01*
X-28829Y-646408D01*
X-28976Y-646300D01*
X-29120Y-646189D01*
X-29262Y-646074D01*
X-29401Y-645955D01*
X-29537Y-645833D01*
X-29670Y-645708D01*
X-29800Y-645580D01*
X-29350Y-635194D02*
X-29348Y-635076D01*
X-29342Y-634958D01*
X-29333Y-634840D01*
X-29319Y-634722D01*
X-29302Y-634605D01*
X-29281Y-634489D01*
X-29256Y-634374D01*
X-29227Y-634259D01*
X-29194Y-634145D01*
X-29158Y-634033D01*
X-29118Y-633921D01*
X-29075Y-633811D01*
X-29028Y-633703D01*
X-28977Y-633596D01*
X-28923Y-633491D01*
X-28866Y-633388D01*
X-28805Y-633286D01*
X-28741Y-633187D01*
X-28674Y-633090D01*
X-28603Y-632995D01*
X-28530Y-632902D01*
X-28453Y-632812D01*
X-28374Y-632724D01*
X-28292Y-632639D01*
X-28207Y-632557D01*
X-28119Y-632478D01*
X-28029Y-632401D01*
X-27936Y-632328D01*
X-27842Y-632257D01*
X-27744Y-632190D01*
X-27645Y-632126D01*
X-27544Y-632065D01*
X-27440Y-632008D01*
X-27335Y-631954D01*
X-27228Y-631903D01*
X-27120Y-631856D01*
X-27010Y-631813D01*
X-26898Y-631773D01*
X-26786Y-631737D01*
X-26672Y-631704D01*
X-26557Y-631675D01*
X-26442Y-631650D01*
X-26326Y-631629D01*
X-26209Y-631612D01*
X-26091Y-631598D01*
X-25973Y-631589D01*
X-25855Y-631583D01*
X-25737Y-631581D01*
X-25737Y-631582D02*
X-25576Y-631584D01*
X-25414Y-631590D01*
X-25253Y-631599D01*
X-25092Y-631613D01*
X-24932Y-631630D01*
X-24772Y-631651D01*
X-24612Y-631676D01*
X-24453Y-631705D01*
X-24295Y-631737D01*
X-24138Y-631773D01*
X-23982Y-631813D01*
X-23826Y-631857D01*
X-23672Y-631905D01*
X-23519Y-631956D01*
X-23367Y-632010D01*
X-23216Y-632069D01*
X-23067Y-632130D01*
X-22920Y-632196D01*
X-22774Y-632265D01*
X-22629Y-632337D01*
X-22487Y-632413D01*
X-22346Y-632492D01*
X-22207Y-632574D01*
X-22071Y-632660D01*
X-21936Y-632749D01*
X-21803Y-632841D01*
X-21673Y-632937D01*
X-27543Y-638355D02*
X-27644Y-638293D01*
X-27744Y-638228D01*
X-27841Y-638159D01*
X-27936Y-638087D01*
X-28029Y-638013D01*
X-28119Y-637935D01*
X-28207Y-637854D01*
X-28292Y-637771D01*
X-28374Y-637685D01*
X-28453Y-637596D01*
X-28530Y-637505D01*
X-28603Y-637411D01*
X-28674Y-637315D01*
X-28741Y-637217D01*
X-28805Y-637117D01*
X-28866Y-637014D01*
X-28923Y-636910D01*
X-28977Y-636804D01*
X-29027Y-636696D01*
X-29074Y-636587D01*
X-29118Y-636476D01*
X-29158Y-636364D01*
X-29194Y-636250D01*
X-29226Y-636136D01*
X-29255Y-636020D01*
X-29280Y-635904D01*
X-29301Y-635787D01*
X-29318Y-635669D01*
X-29332Y-635551D01*
X-29341Y-635432D01*
X-29347Y-635313D01*
X-29349Y-635194D01*
X-22575Y-641065D02*
X-22474Y-641127D01*
X-22374Y-641192D01*
X-22277Y-641261D01*
X-22182Y-641333D01*
X-22089Y-641407D01*
X-21999Y-641485D01*
X-21911Y-641566D01*
X-21826Y-641649D01*
X-21744Y-641735D01*
X-21665Y-641824D01*
X-21588Y-641915D01*
X-21515Y-642009D01*
X-21444Y-642105D01*
X-21377Y-642203D01*
X-21313Y-642303D01*
X-21252Y-642406D01*
X-21195Y-642510D01*
X-21141Y-642616D01*
X-21091Y-642724D01*
X-21044Y-642833D01*
X-21000Y-642944D01*
X-20960Y-643056D01*
X-20924Y-643170D01*
X-20892Y-643284D01*
X-20863Y-643400D01*
X-20838Y-643516D01*
X-20817Y-643633D01*
X-20800Y-643751D01*
X-20786Y-643869D01*
X-20777Y-643988D01*
X-20771Y-644107D01*
X-20769Y-644226D01*
X-22576Y-641065D02*
X-27543Y-638355D01*
X-14864Y-637001D02*
X-14864Y-647838D01*
X-15316Y-632485D02*
X-15316Y-631582D01*
X-14413Y-631582D01*
X-14413Y-632485D01*
X-15316Y-632485D01*
X-8340Y-631582D02*
X-8340Y-645129D01*
X-8338Y-645230D01*
X-8332Y-645331D01*
X-8323Y-645432D01*
X-8310Y-645533D01*
X-8293Y-645633D01*
X-8272Y-645732D01*
X-8248Y-645830D01*
X-8220Y-645927D01*
X-8188Y-646024D01*
X-8153Y-646119D01*
X-8114Y-646212D01*
X-8072Y-646304D01*
X-8026Y-646395D01*
X-7977Y-646484D01*
X-7925Y-646570D01*
X-7869Y-646655D01*
X-7811Y-646738D01*
X-7749Y-646818D01*
X-7684Y-646896D01*
X-7617Y-646972D01*
X-7547Y-647045D01*
X-7474Y-647115D01*
X-7398Y-647182D01*
X-7320Y-647247D01*
X-7240Y-647309D01*
X-7157Y-647367D01*
X-7072Y-647423D01*
X-6985Y-647475D01*
X-6897Y-647524D01*
X-6806Y-647570D01*
X-6714Y-647612D01*
X-6621Y-647651D01*
X-6526Y-647686D01*
X-6429Y-647718D01*
X-6332Y-647746D01*
X-6234Y-647770D01*
X-6135Y-647791D01*
X-6035Y-647808D01*
X-5934Y-647821D01*
X-5833Y-647830D01*
X-5732Y-647836D01*
X-5631Y-647838D01*
X449Y-647838D02*
X449Y-631582D01*
X7674Y-637001D02*
X449Y-642419D01*
X3610Y-640162D02*
X7674Y-647838D01*
X14661Y-641516D02*
X19177Y-643322D01*
X14661Y-641516D02*
X14573Y-641479D01*
X14487Y-641438D01*
X14402Y-641394D01*
X14319Y-641346D01*
X14239Y-641295D01*
X14160Y-641241D01*
X14084Y-641183D01*
X14010Y-641123D01*
X13938Y-641059D01*
X13870Y-640993D01*
X13804Y-640923D01*
X13741Y-640852D01*
X13680Y-640777D01*
X13623Y-640701D01*
X13570Y-640622D01*
X13519Y-640541D01*
X13472Y-640458D01*
X13428Y-640373D01*
X13388Y-640286D01*
X13351Y-640198D01*
X13318Y-640108D01*
X13288Y-640017D01*
X13263Y-639925D01*
X13241Y-639832D01*
X13223Y-639738D01*
X13208Y-639644D01*
X13198Y-639549D01*
X13192Y-639453D01*
X13189Y-639358D01*
X13190Y-639262D01*
X13196Y-639167D01*
X13205Y-639071D01*
X13218Y-638977D01*
X13234Y-638883D01*
X13255Y-638789D01*
X13280Y-638697D01*
X13308Y-638606D01*
X13340Y-638516D01*
X13375Y-638427D01*
X13414Y-638340D01*
X13457Y-638254D01*
X13503Y-638170D01*
X13553Y-638089D01*
X13605Y-638009D01*
X13661Y-637931D01*
X13721Y-637856D01*
X13783Y-637784D01*
X13848Y-637714D01*
X13916Y-637646D01*
X13986Y-637582D01*
X14059Y-637520D01*
X14135Y-637462D01*
X14213Y-637406D01*
X14293Y-637354D01*
X14375Y-637305D01*
X14459Y-637260D01*
X14545Y-637218D01*
X14632Y-637179D01*
X14721Y-637144D01*
X14812Y-637113D01*
X14903Y-637086D01*
X14996Y-637062D01*
X15089Y-637042D01*
X15183Y-637026D01*
X15278Y-637014D01*
X15373Y-637005D01*
X15469Y-637001D01*
X15564Y-637000D01*
X15811Y-637007D01*
X16057Y-637019D01*
X16303Y-637037D01*
X16549Y-637062D01*
X16793Y-637092D01*
X17037Y-637128D01*
X17280Y-637170D01*
X17522Y-637217D01*
X17763Y-637271D01*
X18002Y-637330D01*
X18240Y-637395D01*
X18477Y-637466D01*
X18711Y-637542D01*
X18944Y-637624D01*
X19174Y-637712D01*
X19402Y-637805D01*
X19629Y-637903D01*
X19177Y-643323D02*
X19265Y-643360D01*
X19351Y-643401D01*
X19436Y-643445D01*
X19519Y-643493D01*
X19599Y-643544D01*
X19678Y-643598D01*
X19754Y-643656D01*
X19828Y-643716D01*
X19900Y-643780D01*
X19968Y-643846D01*
X20034Y-643916D01*
X20097Y-643987D01*
X20158Y-644062D01*
X20215Y-644138D01*
X20268Y-644217D01*
X20319Y-644298D01*
X20366Y-644381D01*
X20410Y-644466D01*
X20450Y-644553D01*
X20487Y-644641D01*
X20520Y-644731D01*
X20550Y-644822D01*
X20575Y-644914D01*
X20597Y-645007D01*
X20615Y-645101D01*
X20630Y-645195D01*
X20640Y-645290D01*
X20646Y-645386D01*
X20649Y-645481D01*
X20648Y-645577D01*
X20642Y-645672D01*
X20633Y-645768D01*
X20620Y-645862D01*
X20604Y-645956D01*
X20583Y-646050D01*
X20558Y-646142D01*
X20530Y-646233D01*
X20498Y-646323D01*
X20463Y-646412D01*
X20424Y-646499D01*
X20381Y-646585D01*
X20335Y-646669D01*
X20285Y-646750D01*
X20233Y-646830D01*
X20177Y-646908D01*
X20117Y-646983D01*
X20055Y-647055D01*
X19990Y-647125D01*
X19922Y-647193D01*
X19852Y-647257D01*
X19779Y-647319D01*
X19703Y-647377D01*
X19625Y-647433D01*
X19545Y-647485D01*
X19463Y-647534D01*
X19379Y-647579D01*
X19293Y-647621D01*
X19206Y-647660D01*
X19117Y-647695D01*
X19026Y-647726D01*
X18935Y-647753D01*
X18842Y-647777D01*
X18749Y-647797D01*
X18655Y-647813D01*
X18560Y-647825D01*
X18465Y-647834D01*
X18369Y-647838D01*
X18274Y-647839D01*
X18274Y-647838D02*
X17912Y-647829D01*
X17550Y-647811D01*
X17189Y-647784D01*
X16829Y-647749D01*
X16469Y-647706D01*
X16110Y-647654D01*
X15753Y-647593D01*
X15398Y-647524D01*
X15044Y-647447D01*
X14692Y-647361D01*
X14342Y-647267D01*
X13994Y-647164D01*
X13649Y-647054D01*
X13307Y-646935D01*
X29581Y-647838D02*
X33193Y-647838D01*
X29581Y-647838D02*
X29480Y-647836D01*
X29379Y-647830D01*
X29278Y-647821D01*
X29177Y-647808D01*
X29077Y-647791D01*
X28978Y-647770D01*
X28880Y-647746D01*
X28783Y-647718D01*
X28686Y-647686D01*
X28591Y-647651D01*
X28498Y-647612D01*
X28406Y-647570D01*
X28315Y-647524D01*
X28227Y-647475D01*
X28140Y-647423D01*
X28055Y-647367D01*
X27972Y-647309D01*
X27892Y-647247D01*
X27814Y-647182D01*
X27738Y-647115D01*
X27665Y-647045D01*
X27595Y-646972D01*
X27528Y-646896D01*
X27463Y-646818D01*
X27401Y-646738D01*
X27343Y-646655D01*
X27287Y-646570D01*
X27235Y-646484D01*
X27186Y-646395D01*
X27140Y-646304D01*
X27098Y-646212D01*
X27059Y-646119D01*
X27024Y-646024D01*
X26992Y-645927D01*
X26964Y-645830D01*
X26940Y-645732D01*
X26919Y-645633D01*
X26902Y-645533D01*
X26889Y-645432D01*
X26880Y-645331D01*
X26874Y-645230D01*
X26872Y-645129D01*
X26871Y-645129D02*
X26871Y-639710D01*
X26872Y-639710D02*
X26874Y-639609D01*
X26880Y-639508D01*
X26889Y-639407D01*
X26902Y-639306D01*
X26919Y-639206D01*
X26940Y-639107D01*
X26964Y-639009D01*
X26992Y-638912D01*
X27024Y-638815D01*
X27059Y-638720D01*
X27098Y-638627D01*
X27140Y-638535D01*
X27186Y-638444D01*
X27235Y-638356D01*
X27287Y-638269D01*
X27343Y-638184D01*
X27401Y-638101D01*
X27463Y-638021D01*
X27528Y-637943D01*
X27595Y-637867D01*
X27665Y-637794D01*
X27738Y-637724D01*
X27814Y-637657D01*
X27892Y-637592D01*
X27972Y-637530D01*
X28055Y-637472D01*
X28140Y-637416D01*
X28227Y-637364D01*
X28315Y-637315D01*
X28406Y-637269D01*
X28498Y-637227D01*
X28591Y-637188D01*
X28686Y-637153D01*
X28783Y-637121D01*
X28880Y-637093D01*
X28978Y-637069D01*
X29077Y-637048D01*
X29177Y-637031D01*
X29278Y-637018D01*
X29379Y-637009D01*
X29480Y-637003D01*
X29581Y-637001D01*
X33193Y-637001D01*
X39444Y-637001D02*
X39444Y-647838D01*
X39444Y-637001D02*
X44862Y-637001D01*
X44862Y-638807D01*
X52489Y-647838D02*
X57004Y-647838D01*
X52489Y-647838D02*
X52388Y-647836D01*
X52287Y-647830D01*
X52186Y-647821D01*
X52085Y-647808D01*
X51985Y-647791D01*
X51886Y-647770D01*
X51788Y-647746D01*
X51691Y-647718D01*
X51594Y-647686D01*
X51499Y-647651D01*
X51406Y-647612D01*
X51314Y-647570D01*
X51223Y-647524D01*
X51135Y-647475D01*
X51048Y-647423D01*
X50963Y-647367D01*
X50880Y-647309D01*
X50800Y-647247D01*
X50722Y-647182D01*
X50646Y-647115D01*
X50573Y-647045D01*
X50503Y-646972D01*
X50436Y-646896D01*
X50371Y-646818D01*
X50309Y-646738D01*
X50251Y-646655D01*
X50195Y-646570D01*
X50143Y-646484D01*
X50094Y-646395D01*
X50048Y-646304D01*
X50006Y-646212D01*
X49967Y-646119D01*
X49932Y-646024D01*
X49900Y-645927D01*
X49872Y-645830D01*
X49848Y-645732D01*
X49827Y-645633D01*
X49810Y-645533D01*
X49797Y-645432D01*
X49788Y-645331D01*
X49782Y-645230D01*
X49780Y-645129D01*
X49780Y-640613D01*
X49782Y-640494D01*
X49788Y-640374D01*
X49798Y-640255D01*
X49812Y-640137D01*
X49829Y-640018D01*
X49851Y-639901D01*
X49876Y-639784D01*
X49906Y-639669D01*
X49939Y-639554D01*
X49976Y-639440D01*
X50016Y-639328D01*
X50061Y-639217D01*
X50109Y-639108D01*
X50160Y-639000D01*
X50215Y-638894D01*
X50274Y-638790D01*
X50336Y-638688D01*
X50401Y-638588D01*
X50470Y-638490D01*
X50542Y-638394D01*
X50617Y-638301D01*
X50694Y-638211D01*
X50775Y-638123D01*
X50859Y-638038D01*
X50946Y-637956D01*
X51035Y-637876D01*
X51127Y-637800D01*
X51221Y-637726D01*
X51318Y-637656D01*
X51416Y-637589D01*
X51517Y-637525D01*
X51621Y-637465D01*
X51726Y-637408D01*
X51833Y-637355D01*
X51941Y-637305D01*
X52051Y-637259D01*
X52163Y-637217D01*
X52276Y-637178D01*
X52390Y-637143D01*
X52505Y-637112D01*
X52622Y-637084D01*
X52739Y-637061D01*
X52856Y-637041D01*
X52975Y-637025D01*
X53094Y-637013D01*
X53213Y-637005D01*
X53332Y-637001D01*
X53452Y-637001D01*
X53571Y-637005D01*
X53690Y-637013D01*
X53809Y-637025D01*
X53928Y-637041D01*
X54045Y-637061D01*
X54162Y-637084D01*
X54279Y-637112D01*
X54394Y-637143D01*
X54508Y-637178D01*
X54621Y-637217D01*
X54733Y-637259D01*
X54843Y-637305D01*
X54951Y-637355D01*
X55058Y-637408D01*
X55163Y-637465D01*
X55267Y-637525D01*
X55368Y-637589D01*
X55466Y-637656D01*
X55563Y-637726D01*
X55657Y-637800D01*
X55749Y-637876D01*
X55838Y-637956D01*
X55925Y-638038D01*
X56009Y-638123D01*
X56090Y-638211D01*
X56167Y-638301D01*
X56242Y-638394D01*
X56314Y-638490D01*
X56383Y-638588D01*
X56448Y-638688D01*
X56510Y-638790D01*
X56569Y-638894D01*
X56624Y-639000D01*
X56675Y-639108D01*
X56723Y-639217D01*
X56768Y-639328D01*
X56808Y-639440D01*
X56845Y-639554D01*
X56878Y-639669D01*
X56908Y-639784D01*
X56933Y-639901D01*
X56955Y-640018D01*
X56972Y-640137D01*
X56986Y-640255D01*
X56996Y-640374D01*
X57002Y-640494D01*
X57004Y-640613D01*
X57004Y-642419D01*
X49780Y-642419D01*
X66036Y-647838D02*
X70552Y-647838D01*
X66036Y-647838D02*
X65935Y-647836D01*
X65834Y-647830D01*
X65733Y-647821D01*
X65632Y-647808D01*
X65532Y-647791D01*
X65433Y-647770D01*
X65335Y-647746D01*
X65238Y-647718D01*
X65141Y-647686D01*
X65046Y-647651D01*
X64953Y-647612D01*
X64861Y-647570D01*
X64770Y-647524D01*
X64682Y-647475D01*
X64595Y-647423D01*
X64510Y-647367D01*
X64427Y-647309D01*
X64347Y-647247D01*
X64269Y-647182D01*
X64193Y-647115D01*
X64120Y-647045D01*
X64050Y-646972D01*
X63983Y-646896D01*
X63918Y-646818D01*
X63856Y-646738D01*
X63798Y-646655D01*
X63742Y-646570D01*
X63690Y-646484D01*
X63641Y-646395D01*
X63595Y-646304D01*
X63553Y-646212D01*
X63514Y-646119D01*
X63479Y-646024D01*
X63447Y-645927D01*
X63419Y-645830D01*
X63395Y-645732D01*
X63374Y-645633D01*
X63357Y-645533D01*
X63344Y-645432D01*
X63335Y-645331D01*
X63329Y-645230D01*
X63327Y-645129D01*
X63327Y-640613D01*
X63329Y-640494D01*
X63335Y-640374D01*
X63345Y-640255D01*
X63359Y-640137D01*
X63376Y-640018D01*
X63398Y-639901D01*
X63423Y-639784D01*
X63453Y-639669D01*
X63486Y-639554D01*
X63523Y-639440D01*
X63563Y-639328D01*
X63608Y-639217D01*
X63656Y-639108D01*
X63707Y-639000D01*
X63762Y-638894D01*
X63821Y-638790D01*
X63883Y-638688D01*
X63948Y-638588D01*
X64017Y-638490D01*
X64089Y-638394D01*
X64164Y-638301D01*
X64241Y-638211D01*
X64322Y-638123D01*
X64406Y-638038D01*
X64493Y-637956D01*
X64582Y-637876D01*
X64674Y-637800D01*
X64768Y-637726D01*
X64865Y-637656D01*
X64963Y-637589D01*
X65064Y-637525D01*
X65168Y-637465D01*
X65273Y-637408D01*
X65380Y-637355D01*
X65488Y-637305D01*
X65598Y-637259D01*
X65710Y-637217D01*
X65823Y-637178D01*
X65937Y-637143D01*
X66052Y-637112D01*
X66169Y-637084D01*
X66286Y-637061D01*
X66403Y-637041D01*
X66522Y-637025D01*
X66641Y-637013D01*
X66760Y-637005D01*
X66879Y-637001D01*
X66999Y-637001D01*
X67118Y-637005D01*
X67237Y-637013D01*
X67356Y-637025D01*
X67475Y-637041D01*
X67592Y-637061D01*
X67709Y-637084D01*
X67826Y-637112D01*
X67941Y-637143D01*
X68055Y-637178D01*
X68168Y-637217D01*
X68280Y-637259D01*
X68390Y-637305D01*
X68498Y-637355D01*
X68605Y-637408D01*
X68710Y-637465D01*
X68814Y-637525D01*
X68915Y-637589D01*
X69013Y-637656D01*
X69110Y-637726D01*
X69204Y-637800D01*
X69296Y-637876D01*
X69385Y-637956D01*
X69472Y-638038D01*
X69556Y-638123D01*
X69637Y-638211D01*
X69714Y-638301D01*
X69789Y-638394D01*
X69861Y-638490D01*
X69930Y-638588D01*
X69995Y-638688D01*
X70057Y-638790D01*
X70116Y-638894D01*
X70171Y-639000D01*
X70222Y-639108D01*
X70270Y-639217D01*
X70315Y-639328D01*
X70355Y-639440D01*
X70392Y-639554D01*
X70425Y-639669D01*
X70455Y-639784D01*
X70480Y-639901D01*
X70502Y-640018D01*
X70519Y-640137D01*
X70533Y-640255D01*
X70543Y-640374D01*
X70549Y-640494D01*
X70551Y-640613D01*
X70552Y-640613D02*
X70552Y-642419D01*
X63327Y-642419D01*
X79583Y-647838D02*
X84099Y-647838D01*
X79583Y-647838D02*
X79482Y-647836D01*
X79381Y-647830D01*
X79280Y-647821D01*
X79179Y-647808D01*
X79079Y-647791D01*
X78980Y-647770D01*
X78882Y-647746D01*
X78785Y-647718D01*
X78688Y-647686D01*
X78593Y-647651D01*
X78500Y-647612D01*
X78408Y-647570D01*
X78317Y-647524D01*
X78229Y-647475D01*
X78142Y-647423D01*
X78057Y-647367D01*
X77974Y-647309D01*
X77894Y-647247D01*
X77816Y-647182D01*
X77740Y-647115D01*
X77667Y-647045D01*
X77597Y-646972D01*
X77530Y-646896D01*
X77465Y-646818D01*
X77403Y-646738D01*
X77345Y-646655D01*
X77289Y-646570D01*
X77237Y-646484D01*
X77188Y-646395D01*
X77142Y-646304D01*
X77100Y-646212D01*
X77061Y-646119D01*
X77026Y-646024D01*
X76994Y-645927D01*
X76966Y-645830D01*
X76942Y-645732D01*
X76921Y-645633D01*
X76904Y-645533D01*
X76891Y-645432D01*
X76882Y-645331D01*
X76876Y-645230D01*
X76874Y-645129D01*
X76874Y-640613D01*
X76876Y-640494D01*
X76882Y-640374D01*
X76892Y-640255D01*
X76906Y-640137D01*
X76923Y-640018D01*
X76945Y-639901D01*
X76970Y-639784D01*
X77000Y-639669D01*
X77033Y-639554D01*
X77070Y-639440D01*
X77110Y-639328D01*
X77155Y-639217D01*
X77203Y-639108D01*
X77254Y-639000D01*
X77309Y-638894D01*
X77368Y-638790D01*
X77430Y-638688D01*
X77495Y-638588D01*
X77564Y-638490D01*
X77636Y-638394D01*
X77711Y-638301D01*
X77788Y-638211D01*
X77869Y-638123D01*
X77953Y-638038D01*
X78040Y-637956D01*
X78129Y-637876D01*
X78221Y-637800D01*
X78315Y-637726D01*
X78412Y-637656D01*
X78510Y-637589D01*
X78611Y-637525D01*
X78715Y-637465D01*
X78820Y-637408D01*
X78927Y-637355D01*
X79035Y-637305D01*
X79145Y-637259D01*
X79257Y-637217D01*
X79370Y-637178D01*
X79484Y-637143D01*
X79599Y-637112D01*
X79716Y-637084D01*
X79833Y-637061D01*
X79950Y-637041D01*
X80069Y-637025D01*
X80188Y-637013D01*
X80307Y-637005D01*
X80426Y-637001D01*
X80546Y-637001D01*
X80665Y-637005D01*
X80784Y-637013D01*
X80903Y-637025D01*
X81022Y-637041D01*
X81139Y-637061D01*
X81256Y-637084D01*
X81373Y-637112D01*
X81488Y-637143D01*
X81602Y-637178D01*
X81715Y-637217D01*
X81827Y-637259D01*
X81937Y-637305D01*
X82045Y-637355D01*
X82152Y-637408D01*
X82257Y-637465D01*
X82361Y-637525D01*
X82462Y-637589D01*
X82560Y-637656D01*
X82657Y-637726D01*
X82751Y-637800D01*
X82843Y-637876D01*
X82932Y-637956D01*
X83019Y-638038D01*
X83103Y-638123D01*
X83184Y-638211D01*
X83261Y-638301D01*
X83336Y-638394D01*
X83408Y-638490D01*
X83477Y-638588D01*
X83542Y-638688D01*
X83604Y-638790D01*
X83663Y-638894D01*
X83718Y-639000D01*
X83769Y-639108D01*
X83817Y-639217D01*
X83862Y-639328D01*
X83902Y-639440D01*
X83939Y-639554D01*
X83972Y-639669D01*
X84002Y-639784D01*
X84027Y-639901D01*
X84049Y-640018D01*
X84066Y-640137D01*
X84080Y-640255D01*
X84090Y-640374D01*
X84096Y-640494D01*
X84098Y-640613D01*
X84099Y-640613D02*
X84099Y-642419D01*
X76874Y-642419D01*
X90942Y-647838D02*
X90942Y-637001D01*
X95457Y-637001D01*
X95561Y-637003D01*
X95664Y-637009D01*
X95768Y-637019D01*
X95871Y-637033D01*
X95973Y-637051D01*
X96074Y-637072D01*
X96175Y-637098D01*
X96274Y-637127D01*
X96373Y-637160D01*
X96470Y-637197D01*
X96565Y-637238D01*
X96659Y-637282D01*
X96751Y-637330D01*
X96841Y-637381D01*
X96930Y-637436D01*
X97016Y-637494D01*
X97099Y-637556D01*
X97181Y-637620D01*
X97259Y-637688D01*
X97335Y-637758D01*
X97409Y-637831D01*
X97479Y-637908D01*
X97547Y-637986D01*
X97611Y-638068D01*
X97673Y-638151D01*
X97731Y-638237D01*
X97786Y-638326D01*
X97837Y-638416D01*
X97885Y-638508D01*
X97929Y-638602D01*
X97970Y-638697D01*
X98007Y-638794D01*
X98040Y-638893D01*
X98069Y-638992D01*
X98095Y-639093D01*
X98116Y-639194D01*
X98134Y-639296D01*
X98148Y-639399D01*
X98158Y-639503D01*
X98164Y-639606D01*
X98166Y-639710D01*
X98167Y-639710D02*
X98167Y-647838D01*
M02*
