M48
;GenerationSoftware,Autodesk,EAGLE,9.3.0*%
;CreationDate,2020-09-12T07:12:58Z*%
FMAT,2
ICI,OFF
METRIC,TZ,000.000
T6C0.200
T5C0.381
T4C0.900
T3C1.000
T2C1.300
T1C2.200
%
G90
M71
T1
X-107000Y-27000
X-107000Y27000
X-107000Y27000
X-53000Y-27000
X-53000Y27000
X107000Y27000
X107000Y-27000
X107000Y-27000
X53000Y27000
X53000Y-27000
X-5700Y-19000
X5700Y-19000
X-37500Y-5500
X-37500Y25500
X37500Y-5500
X37500Y25500
T2
X0Y-26500
X2500Y-12000
X-2500Y-12000
X2500Y-26500
X-2500Y-26500
T3
X-20000Y-9500
X-12000Y-9500
X-24000Y-9500
X-16000Y-9500
T4
X-38000Y9000
X-38000Y11000
X-38000Y15000
X-38000Y17000
X-38000Y-1000
X-38000Y1000
X-38000Y3000
X-38000Y21000
X-38000Y7000
X-38000Y5000
X-38000Y13000
X-38000Y19000
X38000Y-1000
X38000Y17000
X38000Y19000
X38000Y21000
X38000Y3000
X38000Y5000
X38000Y9000
X38000Y11000
X38000Y13000
X38000Y15000
X38000Y7000
X38000Y1000
T5
X-20000Y-6258
X-31500Y-6198
X-33000Y-7984
X-38445Y-16500
X-20000Y-7020
X-23500Y-8500
X28800Y21880
X-28345Y7950
X-31294Y-22275
X-33556Y-19000
X-26258Y10500
X-39500Y-10250
X-23000Y12355
X-38445Y-19000
X-23655Y7950
T6
X24750Y20000
X15000Y-500
X15500Y18750
X-1500Y1750
X-24000Y10750
X17250Y18250
X22500Y17385
X34146Y-16500
X-20131Y-5250
X23791Y17925
X33209Y12725
X33500Y5385
X4984Y15250
X17016Y15750
X17016Y13250
X12750Y8484
X7750Y8484
X-24131Y-2750
X17885Y8500
X4115Y11000
X-28796Y-16275
X32369Y-6250
X33114Y-6750
X32012Y7775
X-22730Y22574
X-23500Y-4750
X-23500Y-3250
X7750Y14250
X-2750Y16250
X-23000Y-11750
X9250Y11000
X14500Y-2500
X29500Y-1500
X8750Y17500
X2750Y9250
X-10250Y6750
X9750Y7750
X-11750Y-3750
X4000Y8750
X-10500Y-2750
X29000Y7000
X28250Y6250
X34250Y13500
X35250Y13500
X11000Y11250
X20750Y-1500
X18750Y7000
X-26869Y-2250
X15615Y25000
X30250Y17250
X29250Y17500
X28500Y-6250
X24250Y9750
X-24000Y-6250
X-24000Y-1500
X33250Y-1500
X32750Y4500
X19750Y7250
X27750Y3750
X-10500Y5000
X29500Y7500
X19250Y3750
X2000Y21000
X-30750Y18500
X16000Y0
X14250Y1750
X-17650Y18696
X20250Y4750
X3000Y22000
X-26000Y17750
X21750Y6250
X-10500Y10250
X18250Y5750
X19750Y4250
X21115Y19500
X-28796Y-23725
X885Y17000
X22500Y12615
X-27614Y-5750
X-26869Y-5250
X13750Y3000
X10250Y-7500
X14500Y2500
X16500Y-1500
X1250Y15500
X-250Y14750
X-250Y-8500
X10250Y11000
X15500Y-1500
X4500Y13750
X9250Y-8000
X17250Y11750
X21500Y-1500
X14250Y11500
X22250Y-1500
X17250Y12500
X28750Y-1500
X9250Y-6250
X-10500Y8250
X31000Y-7750
X8500Y15750
X-25000Y-8750
X-26000Y-9750
X-25500Y-4750
X-31250Y-11750
X-25500Y-8250
X-25000Y-13750
X-27250Y-6250
X-32250Y-11250
X34500Y-1500
X26500Y13500
X-30000Y-14500
X1500Y18000
X-1500Y18500
X750Y16250
X-4750Y17750
X2500Y10000
X-12250Y-4250
X9000Y13000
X-25500Y-750
X-22500Y8615
X-29500Y8615
X22500Y20615
X-34214Y17194
X-22869Y-6750
X33500Y8615
X21115Y8500
X885Y11000
X28886Y-5750
X29631Y-5250
X26268Y3225
X5696Y7350
X5696Y-270
X-10554Y-12500
X-15446Y-12500
X-25654Y7000
X-10554Y-22500
X-15446Y-22500
X8000Y25325
X25346Y-22600
X-29000Y9000
X-29000Y10000
X-23000Y9000
X-23000Y5000
X-30000Y5000
X-26000Y5000
X-27000Y9000
X-31000Y9000
X-28000Y9000
X-30000Y10000
X-30000Y9000
X-23000Y10000
X-22000Y9000
X-21000Y9000
X-25000Y9000
X-24000Y10000
X-24000Y9000
X-29000Y5000
X-24500Y5000
X-27000Y5000
X-28000Y5000
X-25500Y5000
X25346Y-15400
X-22654Y-22600
X-22654Y-15400
X36454Y-21500
X20446Y-20500
X15554Y-20500
X20446Y-27500
X15554Y-27500
X-16040Y-3611
X-5696Y-5350
X-5696Y2270
X20446Y-13500
X15554Y-13500
X23700Y24371
X26300Y24371
X28700Y24371
X31300Y24371
X-25200Y17846
X-18800Y17846
X-21000Y16154
X11346Y-22600
X11346Y-15400
X31103Y14675
X25896Y17275
X25896Y15325
X26516Y12725
X25896Y12075
X8250Y10754
X13250Y10754
X14746Y16750
X7254Y14750
X7254Y16750
X16500Y27500
X15500Y27500
X-27750Y22750
M30