G04 EAGLE Gerber RS-274X export*
G75*
%MOMM*%
%FSLAX34Y34*%
%LPD*%
%INTop Inner Metal*%
%IPPOS*%
%AMOC8*
5,1,8,0,0,1.08239X$1,22.5*%
G01*
%ADD10C,0.352400*%
%ADD11C,1.350000*%
%ADD12C,1.500000*%
%ADD13C,1.950000*%
%ADD14C,0.152400*%
%ADD15C,0.454000*%
%ADD16C,0.127000*%
%ADD17C,0.635000*%
%ADD18C,0.508000*%

G36*
X380022Y-297495D02*
X380022Y-297495D01*
X380050Y-297497D01*
X383470Y-297228D01*
X383519Y-297215D01*
X383616Y-297199D01*
X390123Y-295085D01*
X390127Y-295082D01*
X390133Y-295082D01*
X390299Y-294995D01*
X395834Y-290974D01*
X395838Y-290970D01*
X395843Y-290967D01*
X395974Y-290834D01*
X399995Y-285299D01*
X399997Y-285294D01*
X400001Y-285290D01*
X400085Y-285123D01*
X402199Y-278616D01*
X402206Y-278568D01*
X402206Y-278565D01*
X402206Y-278564D01*
X402228Y-278470D01*
X402497Y-275050D01*
X402495Y-275028D01*
X402499Y-275000D01*
X402499Y258788D01*
X402494Y258815D01*
X402497Y258842D01*
X402475Y258925D01*
X402460Y259009D01*
X402450Y259025D01*
X402499Y260044D01*
X402497Y260058D01*
X402499Y260074D01*
X402499Y260264D01*
X402498Y260273D01*
X402499Y260284D01*
X402390Y263799D01*
X402380Y263848D01*
X402368Y263946D01*
X400460Y270932D01*
X400458Y270937D01*
X400457Y270942D01*
X400379Y271113D01*
X396406Y277167D01*
X396402Y277171D01*
X396400Y277176D01*
X396273Y277314D01*
X390623Y281844D01*
X390618Y281846D01*
X390615Y281851D01*
X390451Y281942D01*
X383678Y284505D01*
X383629Y284514D01*
X383534Y284541D01*
X379959Y284994D01*
X379924Y284992D01*
X379879Y284999D01*
X331442Y284999D01*
X331376Y284987D01*
X331310Y284985D01*
X331267Y284968D01*
X331221Y284960D01*
X331164Y284926D01*
X331102Y284901D01*
X331061Y284865D01*
X331028Y284845D01*
X331003Y284814D01*
X330960Y284778D01*
X317653Y269253D01*
X317644Y269237D01*
X317631Y269225D01*
X317588Y269141D01*
X317540Y269060D01*
X317537Y269042D01*
X317528Y269026D01*
X317522Y268986D01*
X316853Y268317D01*
X316841Y268299D01*
X316820Y268281D01*
X316200Y267557D01*
X316131Y267539D01*
X316116Y267529D01*
X316099Y267523D01*
X316067Y267499D01*
X315120Y267499D01*
X315099Y267495D01*
X315072Y267497D01*
X314121Y267424D01*
X314060Y267460D01*
X314042Y267463D01*
X314026Y267472D01*
X313840Y267499D01*
X236160Y267499D01*
X236142Y267496D01*
X236124Y267498D01*
X236032Y267476D01*
X235939Y267460D01*
X235923Y267450D01*
X235906Y267446D01*
X235872Y267425D01*
X234928Y267497D01*
X234907Y267495D01*
X234880Y267499D01*
X233926Y267499D01*
X233868Y267540D01*
X233850Y267544D01*
X233835Y267554D01*
X233795Y267563D01*
X233180Y268281D01*
X233163Y268295D01*
X233147Y268317D01*
X232472Y268991D01*
X232460Y269061D01*
X232450Y269077D01*
X232446Y269094D01*
X232347Y269253D01*
X219040Y284778D01*
X218988Y284820D01*
X218943Y284869D01*
X218902Y284890D01*
X218866Y284920D01*
X218803Y284941D01*
X218743Y284972D01*
X218690Y284980D01*
X218653Y284992D01*
X218614Y284991D01*
X218558Y284999D01*
X175104Y284999D01*
X175086Y284996D01*
X175062Y284998D01*
X170940Y284723D01*
X168345Y285601D01*
X168336Y285602D01*
X168327Y285607D01*
X168142Y285634D01*
X-71862Y285634D01*
X-71893Y285629D01*
X-71923Y285631D01*
X-72038Y285603D01*
X-72083Y285595D01*
X-72093Y285589D01*
X-72105Y285586D01*
X-73522Y284999D01*
X-377500Y284999D01*
X-377522Y284995D01*
X-377550Y284997D01*
X-381361Y284697D01*
X-381410Y284685D01*
X-381508Y284668D01*
X-388757Y282313D01*
X-388762Y282310D01*
X-388768Y282309D01*
X-388934Y282223D01*
X-395101Y277742D01*
X-395105Y277738D01*
X-395110Y277735D01*
X-395242Y277601D01*
X-399723Y271434D01*
X-399725Y271429D01*
X-399729Y271425D01*
X-399813Y271257D01*
X-402168Y264008D01*
X-402175Y263957D01*
X-402176Y263954D01*
X-402192Y263906D01*
X-402192Y263886D01*
X-402197Y263861D01*
X-402497Y260050D01*
X-402495Y260028D01*
X-402499Y260000D01*
X-402499Y-275000D01*
X-402495Y-275022D01*
X-402497Y-275050D01*
X-402228Y-278470D01*
X-402215Y-278519D01*
X-402199Y-278616D01*
X-400085Y-285123D01*
X-400082Y-285127D01*
X-400082Y-285133D01*
X-399995Y-285299D01*
X-395974Y-290834D01*
X-395970Y-290838D01*
X-395967Y-290843D01*
X-395834Y-290974D01*
X-390299Y-294995D01*
X-390294Y-294997D01*
X-390290Y-295001D01*
X-390123Y-295085D01*
X-383616Y-297199D01*
X-383566Y-297206D01*
X-383470Y-297228D01*
X-380050Y-297497D01*
X-380028Y-297495D01*
X-380000Y-297499D01*
X380000Y-297499D01*
X380022Y-297495D01*
G37*
%LPC*%
G36*
X308533Y-81041D02*
X308533Y-81041D01*
X306459Y-78967D01*
X306459Y-76033D01*
X307908Y-74584D01*
X307933Y-74549D01*
X307964Y-74521D01*
X307996Y-74458D01*
X308037Y-74400D01*
X308047Y-74359D01*
X308067Y-74321D01*
X308080Y-74231D01*
X308093Y-74183D01*
X308090Y-74162D01*
X308094Y-74136D01*
X308094Y-73552D01*
X308087Y-73510D01*
X308089Y-73468D01*
X308067Y-73401D01*
X308055Y-73331D01*
X308033Y-73295D01*
X308020Y-73254D01*
X307966Y-73182D01*
X307940Y-73138D01*
X307924Y-73125D01*
X307908Y-73104D01*
X288094Y-53289D01*
X288094Y-51132D01*
X288079Y-51044D01*
X288069Y-50956D01*
X288059Y-50935D01*
X288055Y-50911D01*
X288009Y-50834D01*
X287970Y-50755D01*
X287953Y-50739D01*
X287940Y-50718D01*
X287871Y-50662D01*
X287807Y-50601D01*
X287785Y-50592D01*
X287766Y-50577D01*
X287682Y-50548D01*
X287600Y-50513D01*
X287576Y-50512D01*
X287554Y-50505D01*
X287465Y-50507D01*
X287376Y-50503D01*
X287353Y-50511D01*
X287329Y-50511D01*
X287247Y-50545D01*
X287162Y-50572D01*
X287141Y-50588D01*
X287122Y-50596D01*
X287084Y-50630D01*
X287012Y-50684D01*
X285604Y-52092D01*
X284592Y-53104D01*
X284567Y-53138D01*
X284536Y-53167D01*
X284504Y-53230D01*
X284463Y-53288D01*
X284453Y-53329D01*
X284433Y-53367D01*
X284420Y-53456D01*
X284407Y-53505D01*
X284410Y-53526D01*
X284406Y-53552D01*
X284406Y-56448D01*
X284413Y-56490D01*
X284411Y-56532D01*
X284433Y-56599D01*
X284445Y-56669D01*
X284467Y-56705D01*
X284480Y-56746D01*
X284534Y-56818D01*
X284560Y-56862D01*
X284576Y-56875D01*
X284592Y-56896D01*
X286912Y-59216D01*
X286911Y-59220D01*
X286933Y-59287D01*
X286945Y-59357D01*
X286967Y-59393D01*
X286980Y-59433D01*
X287034Y-59506D01*
X287060Y-59550D01*
X287076Y-59563D01*
X287092Y-59584D01*
X288541Y-61033D01*
X288541Y-63967D01*
X286467Y-66041D01*
X283533Y-66041D01*
X281459Y-63967D01*
X281459Y-61033D01*
X281950Y-60542D01*
X281988Y-60488D01*
X282033Y-60440D01*
X282051Y-60397D01*
X282078Y-60358D01*
X282095Y-60294D01*
X282120Y-60234D01*
X282123Y-60187D01*
X282134Y-60141D01*
X282127Y-60075D01*
X282130Y-60010D01*
X282116Y-59965D01*
X282111Y-59918D01*
X282082Y-59859D01*
X282062Y-59796D01*
X282029Y-59752D01*
X282012Y-59717D01*
X281983Y-59690D01*
X281950Y-59645D01*
X280594Y-58289D01*
X280594Y-51711D01*
X282908Y-49396D01*
X282933Y-49362D01*
X282964Y-49333D01*
X282996Y-49270D01*
X283037Y-49212D01*
X283047Y-49171D01*
X283067Y-49133D01*
X283080Y-49044D01*
X283093Y-48995D01*
X283090Y-48974D01*
X283094Y-48948D01*
X283094Y-21052D01*
X283087Y-21010D01*
X283089Y-20968D01*
X283067Y-20901D01*
X283055Y-20831D01*
X283033Y-20795D01*
X283020Y-20754D01*
X282966Y-20682D01*
X282940Y-20638D01*
X282924Y-20625D01*
X282908Y-20604D01*
X240594Y21711D01*
X240594Y94136D01*
X240587Y94177D01*
X240589Y94220D01*
X240567Y94287D01*
X240555Y94356D01*
X240533Y94393D01*
X240520Y94433D01*
X240466Y94506D01*
X240440Y94550D01*
X240424Y94563D01*
X240408Y94584D01*
X238959Y96033D01*
X238959Y98967D01*
X241033Y101041D01*
X242233Y101041D01*
X242321Y101057D01*
X242409Y101066D01*
X242430Y101076D01*
X242454Y101080D01*
X242530Y101126D01*
X242610Y101165D01*
X242627Y101182D01*
X242647Y101195D01*
X242703Y101264D01*
X242764Y101328D01*
X242773Y101350D01*
X242788Y101369D01*
X242817Y101453D01*
X242852Y101535D01*
X242853Y101559D01*
X242860Y101581D01*
X242858Y101670D01*
X242862Y101759D01*
X242854Y101782D01*
X242854Y101806D01*
X242820Y101888D01*
X242793Y101973D01*
X242777Y101994D01*
X242769Y102013D01*
X242735Y102051D01*
X242681Y102123D01*
X226896Y117908D01*
X226862Y117933D01*
X226833Y117964D01*
X226770Y117996D01*
X226712Y118037D01*
X226671Y118047D01*
X226633Y118067D01*
X226544Y118080D01*
X226495Y118093D01*
X226474Y118090D01*
X226448Y118094D01*
X224211Y118094D01*
X158066Y184239D01*
X158059Y184253D01*
X158055Y184277D01*
X158009Y184353D01*
X157970Y184433D01*
X157953Y184449D01*
X157940Y184470D01*
X157871Y184526D01*
X157807Y184587D01*
X157785Y184596D01*
X157766Y184611D01*
X157682Y184640D01*
X157600Y184674D01*
X157576Y184675D01*
X157554Y184683D01*
X157465Y184680D01*
X157376Y184684D01*
X157353Y184677D01*
X157329Y184676D01*
X157247Y184643D01*
X157162Y184616D01*
X157141Y184600D01*
X157122Y184592D01*
X157084Y184558D01*
X157012Y184504D01*
X156467Y183959D01*
X154417Y183959D01*
X154375Y183952D01*
X154333Y183954D01*
X154266Y183932D01*
X154196Y183920D01*
X154160Y183898D01*
X154119Y183885D01*
X154047Y183831D01*
X154003Y183805D01*
X153990Y183789D01*
X153969Y183773D01*
X-11273Y18531D01*
X-11298Y18497D01*
X-11329Y18468D01*
X-11361Y18405D01*
X-11402Y18347D01*
X-11412Y18306D01*
X-11432Y18268D01*
X-11445Y18179D01*
X-11458Y18130D01*
X-11455Y18109D01*
X-11459Y18083D01*
X-11459Y16033D01*
X-13533Y13959D01*
X-16467Y13959D01*
X-18541Y16033D01*
X-18541Y17233D01*
X-18557Y17321D01*
X-18566Y17409D01*
X-18576Y17430D01*
X-18580Y17454D01*
X-18626Y17530D01*
X-18665Y17610D01*
X-18682Y17627D01*
X-18695Y17647D01*
X-18764Y17703D01*
X-18828Y17764D01*
X-18850Y17773D01*
X-18869Y17788D01*
X-18953Y17817D01*
X-19035Y17852D01*
X-19059Y17853D01*
X-19081Y17860D01*
X-19170Y17858D01*
X-19259Y17862D01*
X-19282Y17854D01*
X-19306Y17854D01*
X-19388Y17820D01*
X-19473Y17793D01*
X-19494Y17777D01*
X-19513Y17769D01*
X-19551Y17735D01*
X-19623Y17681D01*
X-71816Y-34512D01*
X-71867Y-34585D01*
X-71923Y-34654D01*
X-71931Y-34676D01*
X-71945Y-34696D01*
X-71967Y-34782D01*
X-71995Y-34866D01*
X-71995Y-34890D01*
X-72000Y-34913D01*
X-71991Y-35002D01*
X-71989Y-35091D01*
X-71980Y-35113D01*
X-71977Y-35136D01*
X-71938Y-35216D01*
X-71904Y-35298D01*
X-71888Y-35316D01*
X-71878Y-35337D01*
X-71813Y-35398D01*
X-71753Y-35464D01*
X-71732Y-35475D01*
X-71715Y-35491D01*
X-71633Y-35526D01*
X-71553Y-35567D01*
X-71527Y-35570D01*
X-71508Y-35579D01*
X-71458Y-35581D01*
X-71368Y-35594D01*
X-18552Y-35594D01*
X-18510Y-35587D01*
X-18468Y-35589D01*
X-18401Y-35567D01*
X-18331Y-35555D01*
X-18295Y-35533D01*
X-18254Y-35520D01*
X-18182Y-35466D01*
X-18138Y-35440D01*
X-18125Y-35424D01*
X-18104Y-35408D01*
X93773Y76469D01*
X93798Y76503D01*
X93829Y76532D01*
X93861Y76595D01*
X93902Y76653D01*
X93912Y76694D01*
X93932Y76732D01*
X93945Y76821D01*
X93958Y76870D01*
X93955Y76891D01*
X93959Y76917D01*
X93959Y78967D01*
X96033Y81041D01*
X98967Y81041D01*
X101041Y78967D01*
X101041Y76033D01*
X98967Y73959D01*
X96917Y73959D01*
X96875Y73952D01*
X96833Y73954D01*
X96766Y73932D01*
X96696Y73920D01*
X96660Y73898D01*
X96619Y73885D01*
X96547Y73831D01*
X96503Y73805D01*
X96490Y73789D01*
X96469Y73773D01*
X-16711Y-39406D01*
X-114136Y-39406D01*
X-114177Y-39413D01*
X-114220Y-39411D01*
X-114287Y-39433D01*
X-114356Y-39445D01*
X-114393Y-39467D01*
X-114433Y-39480D01*
X-114506Y-39534D01*
X-114550Y-39560D01*
X-114563Y-39576D01*
X-114584Y-39592D01*
X-116033Y-41041D01*
X-118325Y-41041D01*
X-118390Y-41052D01*
X-118456Y-41054D01*
X-118499Y-41072D01*
X-118546Y-41080D01*
X-118603Y-41114D01*
X-118663Y-41139D01*
X-118698Y-41170D01*
X-118739Y-41195D01*
X-118781Y-41246D01*
X-118829Y-41290D01*
X-118851Y-41332D01*
X-118880Y-41369D01*
X-118901Y-41431D01*
X-118932Y-41490D01*
X-118940Y-41544D01*
X-118952Y-41581D01*
X-118951Y-41621D01*
X-118959Y-41675D01*
X-118959Y-43967D01*
X-121033Y-46041D01*
X-123967Y-46041D01*
X-126041Y-43967D01*
X-126041Y-41033D01*
X-124592Y-39584D01*
X-124567Y-39549D01*
X-124536Y-39521D01*
X-124504Y-39458D01*
X-124463Y-39400D01*
X-124453Y-39359D01*
X-124433Y-39321D01*
X-124420Y-39231D01*
X-124407Y-39183D01*
X-124410Y-39162D01*
X-124406Y-39136D01*
X-124406Y-34211D01*
X-123104Y-32909D01*
X-123104Y-32908D01*
X-122092Y-31896D01*
X-122091Y-31896D01*
X-120789Y-30594D01*
X-108444Y-30594D01*
X-108357Y-30579D01*
X-108268Y-30569D01*
X-108247Y-30559D01*
X-108223Y-30555D01*
X-108147Y-30509D01*
X-108067Y-30470D01*
X-108051Y-30453D01*
X-108030Y-30440D01*
X-107974Y-30371D01*
X-107913Y-30307D01*
X-107904Y-30285D01*
X-107889Y-30266D01*
X-107860Y-30182D01*
X-107826Y-30100D01*
X-107825Y-30076D01*
X-107817Y-30054D01*
X-107820Y-29965D01*
X-107816Y-29876D01*
X-107823Y-29853D01*
X-107824Y-29829D01*
X-107857Y-29747D01*
X-107884Y-29662D01*
X-107900Y-29641D01*
X-107908Y-29622D01*
X-107942Y-29584D01*
X-107996Y-29512D01*
X-108541Y-28967D01*
X-108541Y-26033D01*
X-106467Y-23959D01*
X-103533Y-23959D01*
X-102084Y-25408D01*
X-102049Y-25433D01*
X-102021Y-25464D01*
X-101958Y-25496D01*
X-101900Y-25537D01*
X-101859Y-25547D01*
X-101821Y-25567D01*
X-101731Y-25580D01*
X-101683Y-25593D01*
X-101662Y-25590D01*
X-101636Y-25594D01*
X-73552Y-25594D01*
X-73510Y-25587D01*
X-73468Y-25589D01*
X-73401Y-25567D01*
X-73331Y-25555D01*
X-73295Y-25533D01*
X-73254Y-25520D01*
X-73182Y-25466D01*
X-73138Y-25440D01*
X-73125Y-25424D01*
X-73104Y-25408D01*
X36950Y84645D01*
X36988Y84699D01*
X37033Y84747D01*
X37051Y84791D01*
X37078Y84830D01*
X37095Y84893D01*
X37120Y84954D01*
X37123Y85001D01*
X37134Y85047D01*
X37127Y85112D01*
X37130Y85178D01*
X37116Y85223D01*
X37111Y85270D01*
X37082Y85329D01*
X37062Y85392D01*
X37029Y85436D01*
X37012Y85471D01*
X36983Y85498D01*
X36950Y85542D01*
X36459Y86033D01*
X36459Y88967D01*
X38533Y91041D01*
X41467Y91041D01*
X43541Y88967D01*
X43541Y87767D01*
X43557Y87679D01*
X43566Y87591D01*
X43576Y87570D01*
X43580Y87546D01*
X43626Y87470D01*
X43665Y87390D01*
X43682Y87373D01*
X43695Y87353D01*
X43764Y87297D01*
X43828Y87236D01*
X43850Y87227D01*
X43869Y87212D01*
X43953Y87183D01*
X44035Y87148D01*
X44059Y87147D01*
X44081Y87140D01*
X44170Y87142D01*
X44259Y87138D01*
X44282Y87146D01*
X44306Y87146D01*
X44388Y87180D01*
X44473Y87207D01*
X44494Y87223D01*
X44513Y87231D01*
X44551Y87265D01*
X44623Y87319D01*
X86273Y128969D01*
X86298Y129003D01*
X86329Y129032D01*
X86361Y129095D01*
X86402Y129153D01*
X86412Y129194D01*
X86432Y129232D01*
X86445Y129321D01*
X86458Y129370D01*
X86455Y129391D01*
X86459Y129417D01*
X86459Y131467D01*
X88533Y133541D01*
X91467Y133541D01*
X93541Y131467D01*
X93541Y130267D01*
X93557Y130179D01*
X93566Y130091D01*
X93576Y130070D01*
X93580Y130046D01*
X93626Y129970D01*
X93665Y129890D01*
X93682Y129873D01*
X93695Y129853D01*
X93764Y129797D01*
X93828Y129736D01*
X93850Y129727D01*
X93869Y129712D01*
X93953Y129683D01*
X94035Y129648D01*
X94059Y129647D01*
X94081Y129640D01*
X94170Y129642D01*
X94259Y129638D01*
X94282Y129646D01*
X94306Y129646D01*
X94388Y129680D01*
X94473Y129707D01*
X94494Y129723D01*
X94513Y129731D01*
X94551Y129765D01*
X94623Y129819D01*
X151273Y186469D01*
X151298Y186503D01*
X151329Y186532D01*
X151361Y186595D01*
X151402Y186653D01*
X151412Y186694D01*
X151432Y186732D01*
X151445Y186821D01*
X151458Y186870D01*
X151455Y186891D01*
X151459Y186917D01*
X151459Y188967D01*
X152004Y189512D01*
X152055Y189585D01*
X152111Y189654D01*
X152119Y189676D01*
X152132Y189696D01*
X152154Y189782D01*
X152183Y189866D01*
X152182Y189890D01*
X152188Y189913D01*
X152179Y190002D01*
X152176Y190091D01*
X152167Y190113D01*
X152165Y190136D01*
X152125Y190216D01*
X152092Y190298D01*
X152076Y190316D01*
X152066Y190337D01*
X152001Y190398D01*
X151941Y190464D01*
X151920Y190475D01*
X151902Y190491D01*
X151820Y190526D01*
X151741Y190567D01*
X151715Y190570D01*
X151696Y190579D01*
X151645Y190581D01*
X151556Y190594D01*
X121052Y190594D01*
X121010Y190587D01*
X120968Y190589D01*
X120901Y190567D01*
X120831Y190555D01*
X120795Y190533D01*
X120754Y190520D01*
X120682Y190466D01*
X120638Y190440D01*
X120625Y190424D01*
X120604Y190408D01*
X88727Y158531D01*
X88702Y158497D01*
X88671Y158468D01*
X88639Y158405D01*
X88598Y158347D01*
X88588Y158306D01*
X88568Y158268D01*
X88555Y158179D01*
X88542Y158130D01*
X88545Y158109D01*
X88541Y158083D01*
X88541Y156033D01*
X86467Y153959D01*
X83533Y153959D01*
X81459Y156033D01*
X81459Y158967D01*
X83533Y161041D01*
X85583Y161041D01*
X85625Y161048D01*
X85667Y161046D01*
X85734Y161068D01*
X85804Y161080D01*
X85840Y161102D01*
X85881Y161115D01*
X85953Y161169D01*
X85997Y161195D01*
X86010Y161211D01*
X86016Y161215D01*
X86020Y161217D01*
X86021Y161219D01*
X86031Y161227D01*
X91816Y167012D01*
X91867Y167085D01*
X91923Y167154D01*
X91931Y167176D01*
X91945Y167196D01*
X91967Y167282D01*
X91995Y167366D01*
X91995Y167390D01*
X92000Y167413D01*
X91991Y167502D01*
X91989Y167591D01*
X91980Y167613D01*
X91977Y167636D01*
X91938Y167716D01*
X91904Y167798D01*
X91888Y167816D01*
X91878Y167837D01*
X91813Y167898D01*
X91753Y167964D01*
X91732Y167975D01*
X91715Y167991D01*
X91633Y168026D01*
X91553Y168067D01*
X91527Y168070D01*
X91508Y168079D01*
X91458Y168081D01*
X91368Y168094D01*
X88552Y168094D01*
X88510Y168087D01*
X88468Y168089D01*
X88401Y168067D01*
X88331Y168055D01*
X88295Y168033D01*
X88254Y168020D01*
X88182Y167966D01*
X88138Y167940D01*
X88125Y167924D01*
X88104Y167908D01*
X24819Y104623D01*
X24768Y104550D01*
X24712Y104481D01*
X24704Y104459D01*
X24690Y104439D01*
X24668Y104353D01*
X24640Y104269D01*
X24640Y104245D01*
X24635Y104222D01*
X24644Y104133D01*
X24646Y104044D01*
X24655Y104022D01*
X24658Y103999D01*
X24697Y103919D01*
X24731Y103837D01*
X24747Y103819D01*
X24757Y103798D01*
X24822Y103737D01*
X24882Y103671D01*
X24903Y103660D01*
X24920Y103644D01*
X25002Y103609D01*
X25082Y103568D01*
X25108Y103565D01*
X25127Y103556D01*
X25177Y103554D01*
X25267Y103541D01*
X26467Y103541D01*
X28541Y101467D01*
X28541Y98533D01*
X27131Y97123D01*
X27080Y97050D01*
X27024Y96981D01*
X27016Y96959D01*
X27003Y96939D01*
X26981Y96853D01*
X26952Y96769D01*
X26953Y96745D01*
X26947Y96722D01*
X26956Y96633D01*
X26959Y96544D01*
X26968Y96522D01*
X26970Y96499D01*
X27010Y96419D01*
X27043Y96337D01*
X27059Y96319D01*
X27069Y96298D01*
X27134Y96237D01*
X27194Y96171D01*
X27215Y96160D01*
X27233Y96144D01*
X27315Y96109D01*
X27394Y96068D01*
X27420Y96065D01*
X27439Y96056D01*
X27490Y96054D01*
X27579Y96041D01*
X28967Y96041D01*
X31041Y93967D01*
X31041Y91033D01*
X28967Y88959D01*
X26033Y88959D01*
X23959Y91033D01*
X23959Y93967D01*
X25369Y95377D01*
X25420Y95450D01*
X25476Y95519D01*
X25484Y95541D01*
X25497Y95561D01*
X25519Y95647D01*
X25548Y95731D01*
X25547Y95755D01*
X25553Y95778D01*
X25544Y95867D01*
X25541Y95956D01*
X25532Y95978D01*
X25530Y96001D01*
X25490Y96081D01*
X25457Y96163D01*
X25441Y96181D01*
X25431Y96202D01*
X25366Y96263D01*
X25306Y96329D01*
X25285Y96340D01*
X25267Y96356D01*
X25185Y96391D01*
X25106Y96432D01*
X25080Y96435D01*
X25061Y96444D01*
X25010Y96446D01*
X24921Y96459D01*
X23533Y96459D01*
X21459Y98533D01*
X21459Y99733D01*
X21443Y99821D01*
X21434Y99909D01*
X21424Y99930D01*
X21420Y99954D01*
X21374Y100030D01*
X21335Y100110D01*
X21318Y100127D01*
X21305Y100147D01*
X21236Y100203D01*
X21172Y100264D01*
X21150Y100273D01*
X21131Y100288D01*
X21047Y100317D01*
X20965Y100352D01*
X20941Y100353D01*
X20919Y100360D01*
X20830Y100358D01*
X20741Y100362D01*
X20718Y100354D01*
X20694Y100354D01*
X20612Y100320D01*
X20527Y100293D01*
X20506Y100277D01*
X20487Y100269D01*
X20449Y100235D01*
X20377Y100181D01*
X-31711Y48094D01*
X-101636Y48094D01*
X-101677Y48087D01*
X-101720Y48089D01*
X-101787Y48067D01*
X-101856Y48055D01*
X-101893Y48033D01*
X-101933Y48020D01*
X-102006Y47966D01*
X-102050Y47940D01*
X-102063Y47924D01*
X-102084Y47908D01*
X-103533Y46459D01*
X-106467Y46459D01*
X-108541Y48533D01*
X-108541Y51467D01*
X-106467Y53541D01*
X-103533Y53541D01*
X-102084Y52092D01*
X-102049Y52067D01*
X-102021Y52036D01*
X-101958Y52004D01*
X-101900Y51963D01*
X-101859Y51953D01*
X-101821Y51933D01*
X-101731Y51920D01*
X-101683Y51907D01*
X-101662Y51910D01*
X-101636Y51906D01*
X-33552Y51906D01*
X-33510Y51913D01*
X-33468Y51911D01*
X-33401Y51933D01*
X-33331Y51945D01*
X-33295Y51967D01*
X-33254Y51980D01*
X-33182Y52034D01*
X-33138Y52060D01*
X-33125Y52076D01*
X-33104Y52092D01*
X85408Y170604D01*
X85700Y170895D01*
X85738Y170949D01*
X85783Y170997D01*
X85801Y171041D01*
X85828Y171080D01*
X85845Y171143D01*
X85870Y171204D01*
X85873Y171251D01*
X85884Y171297D01*
X85877Y171362D01*
X85880Y171428D01*
X85866Y171473D01*
X85861Y171520D01*
X85832Y171579D01*
X85812Y171642D01*
X85779Y171686D01*
X85762Y171721D01*
X85733Y171748D01*
X85700Y171792D01*
X83959Y173533D01*
X83959Y176467D01*
X86033Y178541D01*
X88967Y178541D01*
X91041Y176467D01*
X91041Y173533D01*
X90496Y172988D01*
X90445Y172915D01*
X90389Y172846D01*
X90381Y172824D01*
X90368Y172804D01*
X90346Y172718D01*
X90317Y172634D01*
X90318Y172610D01*
X90312Y172587D01*
X90321Y172498D01*
X90324Y172409D01*
X90333Y172387D01*
X90335Y172364D01*
X90375Y172284D01*
X90408Y172202D01*
X90424Y172184D01*
X90434Y172163D01*
X90499Y172102D01*
X90559Y172036D01*
X90580Y172025D01*
X90598Y172009D01*
X90680Y171974D01*
X90759Y171933D01*
X90785Y171930D01*
X90804Y171921D01*
X90855Y171919D01*
X90944Y171906D01*
X91448Y171906D01*
X91490Y171913D01*
X91532Y171911D01*
X91599Y171933D01*
X91669Y171945D01*
X91705Y171967D01*
X91746Y171980D01*
X91818Y172034D01*
X91862Y172060D01*
X91875Y172076D01*
X91896Y172092D01*
X119211Y199406D01*
X158289Y199406D01*
X168104Y189592D01*
X168138Y189567D01*
X168167Y189536D01*
X168230Y189504D01*
X168288Y189463D01*
X168329Y189453D01*
X168367Y189433D01*
X168456Y189420D01*
X168505Y189407D01*
X168526Y189410D01*
X168552Y189406D01*
X183289Y189406D01*
X293969Y78727D01*
X294003Y78702D01*
X294032Y78671D01*
X294095Y78639D01*
X294153Y78598D01*
X294194Y78588D01*
X294232Y78568D01*
X294321Y78555D01*
X294370Y78542D01*
X294391Y78545D01*
X294417Y78541D01*
X296467Y78541D01*
X298541Y76467D01*
X298541Y73533D01*
X296467Y71459D01*
X294175Y71459D01*
X294110Y71448D01*
X294044Y71446D01*
X294001Y71428D01*
X293954Y71420D01*
X293897Y71386D01*
X293837Y71361D01*
X293802Y71330D01*
X293761Y71305D01*
X293719Y71254D01*
X293671Y71210D01*
X293649Y71168D01*
X293620Y71131D01*
X293599Y71069D01*
X293568Y71010D01*
X293560Y70956D01*
X293548Y70919D01*
X293549Y70879D01*
X293541Y70825D01*
X293541Y68533D01*
X291467Y66459D01*
X288533Y66459D01*
X286459Y68533D01*
X286459Y71467D01*
X288533Y73541D01*
X290825Y73541D01*
X290890Y73552D01*
X290956Y73554D01*
X290999Y73572D01*
X291046Y73580D01*
X291103Y73614D01*
X291163Y73639D01*
X291198Y73670D01*
X291239Y73695D01*
X291281Y73746D01*
X291329Y73790D01*
X291351Y73832D01*
X291380Y73869D01*
X291401Y73931D01*
X291432Y73990D01*
X291440Y74044D01*
X291452Y74081D01*
X291451Y74121D01*
X291459Y74175D01*
X291459Y75583D01*
X291452Y75625D01*
X291454Y75667D01*
X291432Y75734D01*
X291420Y75804D01*
X291398Y75840D01*
X291385Y75881D01*
X291331Y75953D01*
X291305Y75997D01*
X291289Y76010D01*
X291273Y76031D01*
X181896Y185408D01*
X181862Y185433D01*
X181833Y185464D01*
X181770Y185496D01*
X181712Y185537D01*
X181671Y185547D01*
X181633Y185567D01*
X181544Y185580D01*
X181495Y185593D01*
X181474Y185590D01*
X181448Y185594D01*
X175944Y185594D01*
X175857Y185579D01*
X175768Y185569D01*
X175747Y185559D01*
X175723Y185555D01*
X175647Y185509D01*
X175567Y185470D01*
X175551Y185453D01*
X175530Y185440D01*
X175474Y185371D01*
X175413Y185307D01*
X175404Y185285D01*
X175389Y185266D01*
X175360Y185182D01*
X175326Y185100D01*
X175325Y185076D01*
X175317Y185054D01*
X175320Y184965D01*
X175316Y184876D01*
X175323Y184853D01*
X175324Y184829D01*
X175357Y184747D01*
X175384Y184662D01*
X175400Y184641D01*
X175408Y184622D01*
X175442Y184584D01*
X175496Y184512D01*
X176041Y183967D01*
X176041Y181033D01*
X173967Y178959D01*
X171033Y178959D01*
X168959Y181033D01*
X168959Y183967D01*
X169504Y184512D01*
X169555Y184585D01*
X169611Y184654D01*
X169619Y184676D01*
X169632Y184696D01*
X169654Y184782D01*
X169683Y184866D01*
X169682Y184890D01*
X169688Y184913D01*
X169679Y185002D01*
X169676Y185091D01*
X169667Y185113D01*
X169665Y185136D01*
X169625Y185216D01*
X169592Y185298D01*
X169576Y185316D01*
X169566Y185337D01*
X169501Y185398D01*
X169441Y185464D01*
X169420Y185475D01*
X169402Y185491D01*
X169320Y185526D01*
X169241Y185567D01*
X169215Y185570D01*
X169196Y185579D01*
X169145Y185581D01*
X169056Y185594D01*
X166711Y185594D01*
X165409Y186896D01*
X162988Y189316D01*
X162915Y189367D01*
X162846Y189423D01*
X162824Y189431D01*
X162804Y189445D01*
X162718Y189467D01*
X162634Y189495D01*
X162610Y189495D01*
X162587Y189500D01*
X162498Y189491D01*
X162409Y189489D01*
X162387Y189480D01*
X162364Y189477D01*
X162284Y189438D01*
X162202Y189404D01*
X162184Y189388D01*
X162163Y189378D01*
X162102Y189313D01*
X162036Y189253D01*
X162025Y189232D01*
X162009Y189215D01*
X161974Y189133D01*
X161933Y189053D01*
X161930Y189027D01*
X161921Y189008D01*
X161919Y188958D01*
X161906Y188868D01*
X161906Y186052D01*
X161913Y186010D01*
X161911Y185968D01*
X161933Y185901D01*
X161945Y185831D01*
X161967Y185795D01*
X161980Y185754D01*
X162034Y185682D01*
X162060Y185638D01*
X162076Y185625D01*
X162092Y185604D01*
X225604Y122092D01*
X225638Y122067D01*
X225667Y122036D01*
X225730Y122004D01*
X225788Y121963D01*
X225829Y121953D01*
X225867Y121933D01*
X225956Y121920D01*
X226005Y121907D01*
X226026Y121910D01*
X226052Y121906D01*
X228289Y121906D01*
X229591Y120604D01*
X229592Y120604D01*
X249406Y100789D01*
X249406Y41052D01*
X249413Y41010D01*
X249411Y40968D01*
X249433Y40901D01*
X249445Y40831D01*
X249467Y40795D01*
X249480Y40754D01*
X249534Y40682D01*
X249560Y40638D01*
X249576Y40625D01*
X249592Y40604D01*
X301906Y-11711D01*
X301906Y-18289D01*
X292092Y-28104D01*
X292067Y-28138D01*
X292036Y-28167D01*
X292004Y-28230D01*
X291963Y-28288D01*
X291953Y-28329D01*
X291933Y-28367D01*
X291920Y-28456D01*
X291914Y-28479D01*
X291913Y-28484D01*
X291913Y-28485D01*
X291907Y-28505D01*
X291910Y-28526D01*
X291906Y-28552D01*
X291906Y-51448D01*
X291913Y-51490D01*
X291911Y-51532D01*
X291933Y-51599D01*
X291945Y-51669D01*
X291967Y-51705D01*
X291980Y-51746D01*
X292034Y-51818D01*
X292060Y-51862D01*
X292076Y-51875D01*
X292092Y-51896D01*
X311906Y-71711D01*
X311906Y-74136D01*
X311913Y-74177D01*
X311911Y-74220D01*
X311933Y-74287D01*
X311945Y-74357D01*
X311967Y-74393D01*
X311980Y-74433D01*
X312034Y-74506D01*
X312060Y-74550D01*
X312076Y-74563D01*
X312092Y-74584D01*
X313541Y-76033D01*
X313541Y-78967D01*
X311467Y-81041D01*
X308533Y-81041D01*
G37*
%LPD*%
%LPC*%
G36*
X143533Y-28541D02*
X143533Y-28541D01*
X141459Y-26467D01*
X141459Y-23533D01*
X142908Y-22084D01*
X142933Y-22049D01*
X142964Y-22021D01*
X142996Y-21958D01*
X143037Y-21900D01*
X143047Y-21859D01*
X143067Y-21821D01*
X143080Y-21731D01*
X143093Y-21683D01*
X143090Y-21662D01*
X143094Y-21636D01*
X143094Y-1711D01*
X144396Y-409D01*
X147908Y3104D01*
X147933Y3138D01*
X147964Y3167D01*
X147996Y3230D01*
X148037Y3288D01*
X148047Y3329D01*
X148067Y3367D01*
X148080Y3456D01*
X148093Y3505D01*
X148090Y3526D01*
X148094Y3552D01*
X148094Y21556D01*
X148082Y21626D01*
X148081Y21659D01*
X148076Y21672D01*
X148069Y21732D01*
X148059Y21753D01*
X148055Y21777D01*
X148009Y21853D01*
X147970Y21933D01*
X147953Y21949D01*
X147940Y21970D01*
X147871Y22026D01*
X147807Y22087D01*
X147785Y22096D01*
X147766Y22111D01*
X147682Y22140D01*
X147600Y22174D01*
X147576Y22175D01*
X147554Y22183D01*
X147465Y22180D01*
X147376Y22184D01*
X147353Y22177D01*
X147329Y22176D01*
X147247Y22143D01*
X147162Y22116D01*
X147141Y22100D01*
X147122Y22092D01*
X147084Y22058D01*
X147012Y22004D01*
X146467Y21459D01*
X145079Y21459D01*
X144992Y21443D01*
X144903Y21434D01*
X144882Y21424D01*
X144858Y21420D01*
X144782Y21374D01*
X144702Y21335D01*
X144686Y21318D01*
X144665Y21305D01*
X144609Y21236D01*
X144548Y21172D01*
X144539Y21150D01*
X144524Y21131D01*
X144495Y21047D01*
X144461Y20965D01*
X144460Y20941D01*
X144452Y20919D01*
X144455Y20830D01*
X144451Y20741D01*
X144458Y20718D01*
X144459Y20694D01*
X144492Y20612D01*
X144519Y20527D01*
X144535Y20506D01*
X144543Y20487D01*
X144577Y20449D01*
X144631Y20377D01*
X146041Y18967D01*
X146041Y16033D01*
X143967Y13959D01*
X141033Y13959D01*
X138959Y16033D01*
X138959Y18967D01*
X141033Y21041D01*
X142421Y21041D01*
X142508Y21057D01*
X142597Y21066D01*
X142618Y21076D01*
X142642Y21080D01*
X142718Y21126D01*
X142798Y21165D01*
X142814Y21182D01*
X142835Y21195D01*
X142891Y21264D01*
X142952Y21328D01*
X142961Y21350D01*
X142976Y21369D01*
X143005Y21453D01*
X143039Y21535D01*
X143040Y21559D01*
X143048Y21581D01*
X143045Y21670D01*
X143049Y21759D01*
X143042Y21782D01*
X143041Y21806D01*
X143008Y21888D01*
X142981Y21973D01*
X142965Y21994D01*
X142957Y22013D01*
X142923Y22051D01*
X142869Y22123D01*
X141459Y23533D01*
X141459Y26467D01*
X143533Y28541D01*
X146467Y28541D01*
X147012Y27996D01*
X147085Y27945D01*
X147154Y27889D01*
X147176Y27881D01*
X147196Y27868D01*
X147282Y27846D01*
X147366Y27817D01*
X147390Y27818D01*
X147413Y27812D01*
X147502Y27821D01*
X147591Y27824D01*
X147613Y27833D01*
X147636Y27835D01*
X147716Y27875D01*
X147798Y27908D01*
X147816Y27924D01*
X147837Y27934D01*
X147898Y27999D01*
X147964Y28059D01*
X147975Y28080D01*
X147991Y28098D01*
X148026Y28180D01*
X148067Y28259D01*
X148070Y28285D01*
X148079Y28304D01*
X148081Y28355D01*
X148094Y28444D01*
X148094Y46448D01*
X148087Y46490D01*
X148089Y46532D01*
X148067Y46599D01*
X148055Y46669D01*
X148033Y46705D01*
X148020Y46746D01*
X147966Y46818D01*
X147940Y46862D01*
X147924Y46875D01*
X147908Y46896D01*
X95594Y99211D01*
X95594Y103948D01*
X95587Y103990D01*
X95589Y104032D01*
X95567Y104099D01*
X95555Y104169D01*
X95533Y104205D01*
X95520Y104246D01*
X95466Y104318D01*
X95440Y104362D01*
X95424Y104375D01*
X95408Y104396D01*
X93531Y106273D01*
X93497Y106298D01*
X93468Y106329D01*
X93405Y106361D01*
X93347Y106402D01*
X93306Y106412D01*
X93268Y106432D01*
X93179Y106445D01*
X93130Y106458D01*
X93109Y106455D01*
X93083Y106459D01*
X91033Y106459D01*
X88959Y108533D01*
X88959Y111467D01*
X91033Y113541D01*
X93967Y113541D01*
X96041Y111467D01*
X96041Y109417D01*
X96048Y109375D01*
X96046Y109333D01*
X96068Y109266D01*
X96080Y109196D01*
X96102Y109160D01*
X96115Y109119D01*
X96169Y109047D01*
X96195Y109003D01*
X96211Y108990D01*
X96227Y108969D01*
X98104Y107092D01*
X99512Y105684D01*
X99585Y105633D01*
X99654Y105577D01*
X99676Y105569D01*
X99696Y105555D01*
X99782Y105533D01*
X99866Y105505D01*
X99890Y105505D01*
X99913Y105500D01*
X100002Y105509D01*
X100091Y105511D01*
X100113Y105520D01*
X100136Y105523D01*
X100216Y105562D01*
X100298Y105596D01*
X100316Y105612D01*
X100337Y105622D01*
X100398Y105687D01*
X100464Y105747D01*
X100475Y105768D01*
X100491Y105785D01*
X100526Y105867D01*
X100567Y105947D01*
X100570Y105973D01*
X100579Y105992D01*
X100581Y106042D01*
X100594Y106132D01*
X100594Y106636D01*
X100587Y106677D01*
X100589Y106720D01*
X100567Y106787D01*
X100555Y106856D01*
X100533Y106893D01*
X100520Y106933D01*
X100466Y107006D01*
X100440Y107050D01*
X100424Y107063D01*
X100408Y107084D01*
X98959Y108533D01*
X98959Y111467D01*
X101033Y113541D01*
X103967Y113541D01*
X105377Y112131D01*
X105450Y112080D01*
X105519Y112024D01*
X105541Y112016D01*
X105561Y112003D01*
X105647Y111981D01*
X105731Y111952D01*
X105755Y111953D01*
X105778Y111947D01*
X105867Y111956D01*
X105956Y111959D01*
X105978Y111968D01*
X106001Y111970D01*
X106081Y112010D01*
X106163Y112043D01*
X106181Y112059D01*
X106202Y112069D01*
X106263Y112134D01*
X106329Y112194D01*
X106340Y112215D01*
X106356Y112233D01*
X106391Y112315D01*
X106432Y112394D01*
X106435Y112420D01*
X106444Y112439D01*
X106446Y112490D01*
X106459Y112579D01*
X106459Y113967D01*
X108533Y116041D01*
X111467Y116041D01*
X113541Y113967D01*
X113541Y111033D01*
X111467Y108959D01*
X108533Y108959D01*
X107123Y110369D01*
X107050Y110420D01*
X106981Y110476D01*
X106959Y110484D01*
X106939Y110497D01*
X106853Y110519D01*
X106769Y110548D01*
X106745Y110547D01*
X106722Y110553D01*
X106633Y110544D01*
X106544Y110541D01*
X106522Y110532D01*
X106499Y110530D01*
X106419Y110490D01*
X106337Y110457D01*
X106319Y110441D01*
X106298Y110431D01*
X106237Y110366D01*
X106171Y110306D01*
X106160Y110285D01*
X106144Y110267D01*
X106109Y110185D01*
X106068Y110106D01*
X106065Y110080D01*
X106056Y110061D01*
X106054Y110010D01*
X106041Y109921D01*
X106041Y108533D01*
X104592Y107084D01*
X104567Y107049D01*
X104536Y107021D01*
X104504Y106958D01*
X104463Y106900D01*
X104453Y106859D01*
X104433Y106821D01*
X104420Y106731D01*
X104407Y106683D01*
X104410Y106662D01*
X104406Y106636D01*
X104406Y101052D01*
X104413Y101010D01*
X104411Y100968D01*
X104433Y100901D01*
X104445Y100831D01*
X104467Y100795D01*
X104480Y100754D01*
X104534Y100682D01*
X104560Y100638D01*
X104576Y100625D01*
X104592Y100604D01*
X139512Y65684D01*
X139585Y65633D01*
X139654Y65577D01*
X139676Y65569D01*
X139696Y65555D01*
X139782Y65533D01*
X139866Y65505D01*
X139890Y65505D01*
X139913Y65500D01*
X140002Y65509D01*
X140091Y65511D01*
X140113Y65520D01*
X140136Y65523D01*
X140216Y65562D01*
X140298Y65596D01*
X140316Y65612D01*
X140337Y65622D01*
X140398Y65687D01*
X140464Y65747D01*
X140475Y65768D01*
X140491Y65785D01*
X140526Y65867D01*
X140567Y65947D01*
X140570Y65973D01*
X140579Y65992D01*
X140581Y66042D01*
X140594Y66132D01*
X140594Y111636D01*
X140587Y111677D01*
X140589Y111720D01*
X140567Y111787D01*
X140555Y111856D01*
X140533Y111893D01*
X140520Y111933D01*
X140466Y112006D01*
X140440Y112050D01*
X140424Y112063D01*
X140408Y112084D01*
X138959Y113533D01*
X138959Y116467D01*
X141033Y118541D01*
X143967Y118541D01*
X146041Y116467D01*
X146041Y113533D01*
X144592Y112084D01*
X144567Y112049D01*
X144536Y112021D01*
X144504Y111958D01*
X144463Y111900D01*
X144453Y111859D01*
X144433Y111821D01*
X144420Y111731D01*
X144407Y111683D01*
X144410Y111662D01*
X144406Y111636D01*
X144406Y66052D01*
X144413Y66010D01*
X144411Y65968D01*
X144433Y65901D01*
X144445Y65831D01*
X144467Y65795D01*
X144480Y65754D01*
X144534Y65682D01*
X144560Y65638D01*
X144576Y65625D01*
X144592Y65604D01*
X221469Y-11273D01*
X221502Y-11297D01*
X221525Y-11322D01*
X221526Y-11323D01*
X221532Y-11329D01*
X221595Y-11361D01*
X221653Y-11402D01*
X221694Y-11412D01*
X221732Y-11432D01*
X221821Y-11445D01*
X221870Y-11458D01*
X221891Y-11455D01*
X221917Y-11459D01*
X223967Y-11459D01*
X226041Y-13533D01*
X226041Y-16467D01*
X223967Y-18541D01*
X221033Y-18541D01*
X219198Y-16706D01*
X219165Y-16683D01*
X219141Y-16657D01*
X219121Y-16646D01*
X219097Y-16623D01*
X219053Y-16605D01*
X219014Y-16578D01*
X218961Y-16564D01*
X218942Y-16554D01*
X218929Y-16552D01*
X218890Y-16536D01*
X218843Y-16534D01*
X218797Y-16522D01*
X218752Y-16527D01*
X218744Y-16527D01*
X218732Y-16529D01*
X218666Y-16526D01*
X218621Y-16540D01*
X218574Y-16545D01*
X218536Y-16564D01*
X218523Y-16566D01*
X218502Y-16578D01*
X218452Y-16594D01*
X218408Y-16627D01*
X218373Y-16644D01*
X218351Y-16668D01*
X218330Y-16680D01*
X218320Y-16692D01*
X218301Y-16706D01*
X216467Y-18541D01*
X213533Y-18541D01*
X211699Y-16706D01*
X211665Y-16683D01*
X211641Y-16657D01*
X211621Y-16646D01*
X211597Y-16623D01*
X211553Y-16605D01*
X211514Y-16578D01*
X211461Y-16564D01*
X211442Y-16554D01*
X211429Y-16552D01*
X211390Y-16536D01*
X211343Y-16534D01*
X211297Y-16522D01*
X211252Y-16527D01*
X211244Y-16527D01*
X211232Y-16529D01*
X211166Y-16526D01*
X211121Y-16540D01*
X211074Y-16545D01*
X211036Y-16564D01*
X211023Y-16566D01*
X211002Y-16578D01*
X210952Y-16594D01*
X210908Y-16627D01*
X210873Y-16644D01*
X210851Y-16668D01*
X210830Y-16680D01*
X210820Y-16692D01*
X210802Y-16706D01*
X208967Y-18541D01*
X206033Y-18541D01*
X203959Y-16467D01*
X203959Y-13533D01*
X206033Y-11459D01*
X208967Y-11459D01*
X210802Y-13294D01*
X210856Y-13332D01*
X210903Y-13377D01*
X210947Y-13395D01*
X210986Y-13422D01*
X211049Y-13439D01*
X211110Y-13464D01*
X211157Y-13466D01*
X211203Y-13478D01*
X211268Y-13471D01*
X211334Y-13474D01*
X211379Y-13460D01*
X211426Y-13455D01*
X211485Y-13426D01*
X211548Y-13406D01*
X211592Y-13373D01*
X211627Y-13356D01*
X211654Y-13327D01*
X211699Y-13294D01*
X213533Y-11459D01*
X214733Y-11459D01*
X214821Y-11443D01*
X214909Y-11434D01*
X214930Y-11424D01*
X214954Y-11420D01*
X215030Y-11374D01*
X215110Y-11335D01*
X215127Y-11318D01*
X215147Y-11305D01*
X215203Y-11236D01*
X215264Y-11172D01*
X215273Y-11150D01*
X215288Y-11131D01*
X215317Y-11047D01*
X215352Y-10965D01*
X215353Y-10941D01*
X215360Y-10919D01*
X215358Y-10830D01*
X215362Y-10741D01*
X215354Y-10718D01*
X215354Y-10694D01*
X215320Y-10612D01*
X215293Y-10527D01*
X215277Y-10506D01*
X215269Y-10487D01*
X215235Y-10449D01*
X215181Y-10377D01*
X157988Y46816D01*
X157915Y46867D01*
X157846Y46923D01*
X157824Y46931D01*
X157804Y46945D01*
X157718Y46967D01*
X157634Y46995D01*
X157610Y46995D01*
X157587Y47000D01*
X157498Y46991D01*
X157409Y46989D01*
X157387Y46980D01*
X157364Y46977D01*
X157284Y46938D01*
X157202Y46904D01*
X157184Y46888D01*
X157163Y46878D01*
X157102Y46813D01*
X157036Y46753D01*
X157025Y46732D01*
X157009Y46715D01*
X156974Y46633D01*
X156933Y46553D01*
X156930Y46527D01*
X156921Y46508D01*
X156919Y46458D01*
X156906Y46368D01*
X156906Y3444D01*
X156921Y3357D01*
X156931Y3268D01*
X156941Y3247D01*
X156945Y3223D01*
X156991Y3147D01*
X157030Y3067D01*
X157047Y3051D01*
X157060Y3030D01*
X157129Y2974D01*
X157193Y2913D01*
X157215Y2904D01*
X157234Y2889D01*
X157318Y2860D01*
X157400Y2826D01*
X157424Y2825D01*
X157446Y2817D01*
X157535Y2820D01*
X157624Y2816D01*
X157647Y2823D01*
X157671Y2824D01*
X157753Y2857D01*
X157838Y2884D01*
X157859Y2900D01*
X157878Y2908D01*
X157916Y2942D01*
X157988Y2996D01*
X158533Y3541D01*
X161467Y3541D01*
X163541Y1467D01*
X163541Y-1467D01*
X161467Y-3541D01*
X158533Y-3541D01*
X157988Y-2996D01*
X157915Y-2945D01*
X157846Y-2889D01*
X157824Y-2881D01*
X157804Y-2868D01*
X157718Y-2846D01*
X157634Y-2817D01*
X157610Y-2818D01*
X157587Y-2812D01*
X157498Y-2821D01*
X157409Y-2824D01*
X157387Y-2833D01*
X157364Y-2835D01*
X157284Y-2875D01*
X157202Y-2908D01*
X157184Y-2924D01*
X157163Y-2934D01*
X157102Y-2999D01*
X157036Y-3059D01*
X157025Y-3080D01*
X157009Y-3098D01*
X156974Y-3180D01*
X156933Y-3259D01*
X156930Y-3285D01*
X156921Y-3304D01*
X156919Y-3355D01*
X156906Y-3444D01*
X156906Y-11636D01*
X156913Y-11677D01*
X156911Y-11720D01*
X156933Y-11787D01*
X156945Y-11856D01*
X156967Y-11893D01*
X156980Y-11933D01*
X157034Y-12006D01*
X157060Y-12050D01*
X157076Y-12063D01*
X157092Y-12084D01*
X158541Y-13533D01*
X158541Y-16467D01*
X156467Y-18541D01*
X153533Y-18541D01*
X151459Y-16467D01*
X151459Y-13533D01*
X152908Y-12084D01*
X152933Y-12049D01*
X152964Y-12021D01*
X152996Y-11958D01*
X153037Y-11900D01*
X153047Y-11859D01*
X153067Y-11821D01*
X153080Y-11731D01*
X153093Y-11683D01*
X153090Y-11662D01*
X153094Y-11636D01*
X153094Y-8444D01*
X153079Y-8357D01*
X153069Y-8268D01*
X153059Y-8247D01*
X153055Y-8223D01*
X153009Y-8147D01*
X152970Y-8067D01*
X152953Y-8051D01*
X152940Y-8030D01*
X152871Y-7974D01*
X152807Y-7913D01*
X152785Y-7904D01*
X152766Y-7889D01*
X152682Y-7860D01*
X152600Y-7826D01*
X152576Y-7825D01*
X152554Y-7817D01*
X152465Y-7820D01*
X152376Y-7816D01*
X152353Y-7823D01*
X152329Y-7824D01*
X152247Y-7857D01*
X152162Y-7884D01*
X152141Y-7900D01*
X152122Y-7908D01*
X152084Y-7942D01*
X152012Y-7996D01*
X151467Y-8541D01*
X148533Y-8541D01*
X147988Y-7996D01*
X147915Y-7945D01*
X147846Y-7889D01*
X147824Y-7881D01*
X147804Y-7868D01*
X147718Y-7846D01*
X147634Y-7817D01*
X147610Y-7818D01*
X147587Y-7812D01*
X147498Y-7821D01*
X147409Y-7824D01*
X147387Y-7833D01*
X147364Y-7835D01*
X147284Y-7875D01*
X147202Y-7908D01*
X147184Y-7924D01*
X147163Y-7934D01*
X147102Y-7999D01*
X147036Y-8059D01*
X147025Y-8080D01*
X147009Y-8098D01*
X146974Y-8180D01*
X146933Y-8259D01*
X146930Y-8285D01*
X146921Y-8304D01*
X146919Y-8355D01*
X146906Y-8444D01*
X146906Y-21636D01*
X146913Y-21677D01*
X146911Y-21720D01*
X146933Y-21787D01*
X146945Y-21856D01*
X146967Y-21893D01*
X146980Y-21933D01*
X147034Y-22006D01*
X147060Y-22050D01*
X147076Y-22063D01*
X147092Y-22084D01*
X148541Y-23533D01*
X148541Y-26467D01*
X146467Y-28541D01*
X143533Y-28541D01*
G37*
%LPD*%
%LPC*%
G36*
X-301467Y-148541D02*
X-301467Y-148541D01*
X-303541Y-146467D01*
X-303541Y-143533D01*
X-302092Y-142084D01*
X-302067Y-142049D01*
X-302036Y-142021D01*
X-302004Y-141958D01*
X-301963Y-141900D01*
X-301953Y-141859D01*
X-301933Y-141821D01*
X-301920Y-141731D01*
X-301907Y-141683D01*
X-301910Y-141662D01*
X-301906Y-141636D01*
X-301906Y-114211D01*
X-238261Y-50566D01*
X-238247Y-50559D01*
X-238223Y-50555D01*
X-238147Y-50509D01*
X-238067Y-50470D01*
X-238051Y-50453D01*
X-238030Y-50440D01*
X-237974Y-50371D01*
X-237913Y-50307D01*
X-237904Y-50285D01*
X-237889Y-50266D01*
X-237860Y-50182D01*
X-237826Y-50100D01*
X-237825Y-50076D01*
X-237817Y-50054D01*
X-237820Y-49965D01*
X-237816Y-49876D01*
X-237823Y-49853D01*
X-237824Y-49829D01*
X-237857Y-49747D01*
X-237884Y-49662D01*
X-237900Y-49641D01*
X-237908Y-49622D01*
X-237942Y-49584D01*
X-237996Y-49512D01*
X-238541Y-48967D01*
X-238541Y-46033D01*
X-236467Y-43959D01*
X-233533Y-43959D01*
X-231459Y-46033D01*
X-231459Y-48967D01*
X-232004Y-49512D01*
X-232055Y-49585D01*
X-232111Y-49654D01*
X-232119Y-49676D01*
X-232132Y-49696D01*
X-232154Y-49782D01*
X-232183Y-49866D01*
X-232182Y-49890D01*
X-232188Y-49913D01*
X-232179Y-50002D01*
X-232176Y-50091D01*
X-232167Y-50113D01*
X-232165Y-50136D01*
X-232125Y-50216D01*
X-232092Y-50298D01*
X-232076Y-50316D01*
X-232066Y-50337D01*
X-232001Y-50398D01*
X-231941Y-50464D01*
X-231920Y-50475D01*
X-231902Y-50491D01*
X-231820Y-50526D01*
X-231741Y-50567D01*
X-231715Y-50570D01*
X-231696Y-50579D01*
X-231645Y-50581D01*
X-231556Y-50594D01*
X-231052Y-50594D01*
X-231010Y-50587D01*
X-230968Y-50589D01*
X-230901Y-50567D01*
X-230831Y-50555D01*
X-230795Y-50533D01*
X-230754Y-50520D01*
X-230682Y-50466D01*
X-230638Y-50440D01*
X-230625Y-50424D01*
X-230604Y-50408D01*
X-188289Y-8094D01*
X-171052Y-8094D01*
X-171010Y-8087D01*
X-170968Y-8089D01*
X-170901Y-8067D01*
X-170831Y-8055D01*
X-170795Y-8033D01*
X-170754Y-8020D01*
X-170682Y-7966D01*
X-170638Y-7940D01*
X-170625Y-7924D01*
X-170604Y-7908D01*
X-147092Y15604D01*
X-147067Y15638D01*
X-147036Y15667D01*
X-147004Y15730D01*
X-146963Y15788D01*
X-146953Y15829D01*
X-146933Y15867D01*
X-146920Y15956D01*
X-146907Y16005D01*
X-146910Y16026D01*
X-146906Y16052D01*
X-146906Y33289D01*
X408Y180604D01*
X409Y180604D01*
X1711Y181906D01*
X11636Y181906D01*
X11677Y181913D01*
X11720Y181911D01*
X11787Y181933D01*
X11856Y181945D01*
X11893Y181967D01*
X11933Y181980D01*
X12006Y182034D01*
X12050Y182060D01*
X12063Y182076D01*
X12084Y182092D01*
X13533Y183541D01*
X16467Y183541D01*
X18541Y181467D01*
X18541Y178533D01*
X16467Y176459D01*
X13533Y176459D01*
X12084Y177908D01*
X12049Y177933D01*
X12021Y177964D01*
X11958Y177996D01*
X11900Y178037D01*
X11859Y178047D01*
X11821Y178067D01*
X11731Y178080D01*
X11683Y178093D01*
X11662Y178090D01*
X11636Y178094D01*
X3552Y178094D01*
X3510Y178087D01*
X3468Y178089D01*
X3401Y178067D01*
X3331Y178055D01*
X3295Y178033D01*
X3254Y178020D01*
X3182Y177966D01*
X3138Y177940D01*
X3125Y177924D01*
X3104Y177908D01*
X-102681Y72123D01*
X-102732Y72050D01*
X-102788Y71981D01*
X-102796Y71959D01*
X-102810Y71939D01*
X-102832Y71853D01*
X-102860Y71769D01*
X-102860Y71745D01*
X-102865Y71722D01*
X-102856Y71633D01*
X-102854Y71544D01*
X-102845Y71522D01*
X-102842Y71499D01*
X-102803Y71419D01*
X-102769Y71337D01*
X-102753Y71319D01*
X-102743Y71298D01*
X-102678Y71237D01*
X-102618Y71171D01*
X-102597Y71160D01*
X-102580Y71144D01*
X-102498Y71109D01*
X-102418Y71068D01*
X-102392Y71065D01*
X-102373Y71056D01*
X-102323Y71054D01*
X-102233Y71041D01*
X-101033Y71041D01*
X-98959Y68967D01*
X-98959Y66033D01*
X-101033Y63959D01*
X-103967Y63959D01*
X-106041Y66033D01*
X-106041Y67233D01*
X-106054Y67305D01*
X-106054Y67325D01*
X-106058Y67334D01*
X-106066Y67409D01*
X-106076Y67430D01*
X-106080Y67454D01*
X-106126Y67530D01*
X-106165Y67610D01*
X-106182Y67627D01*
X-106195Y67647D01*
X-106264Y67703D01*
X-106328Y67764D01*
X-106350Y67773D01*
X-106369Y67788D01*
X-106453Y67817D01*
X-106535Y67852D01*
X-106559Y67853D01*
X-106581Y67860D01*
X-106670Y67858D01*
X-106759Y67862D01*
X-106782Y67854D01*
X-106806Y67854D01*
X-106888Y67820D01*
X-106973Y67793D01*
X-106994Y67777D01*
X-107013Y67769D01*
X-107051Y67735D01*
X-107123Y67681D01*
X-142908Y31896D01*
X-142933Y31862D01*
X-142964Y31833D01*
X-142996Y31770D01*
X-143037Y31712D01*
X-143047Y31671D01*
X-143067Y31633D01*
X-143080Y31544D01*
X-143093Y31495D01*
X-143090Y31474D01*
X-143094Y31448D01*
X-143094Y14211D01*
X-144396Y12908D01*
X-169211Y-11906D01*
X-186448Y-11906D01*
X-186490Y-11913D01*
X-186532Y-11911D01*
X-186599Y-11933D01*
X-186669Y-11945D01*
X-186705Y-11967D01*
X-186746Y-11980D01*
X-186818Y-12034D01*
X-186862Y-12060D01*
X-186875Y-12076D01*
X-186896Y-12092D01*
X-229211Y-54406D01*
X-236448Y-54406D01*
X-236490Y-54413D01*
X-236532Y-54411D01*
X-236599Y-54433D01*
X-236669Y-54445D01*
X-236705Y-54467D01*
X-236746Y-54480D01*
X-236819Y-54534D01*
X-236862Y-54560D01*
X-236875Y-54576D01*
X-236896Y-54591D01*
X-240181Y-57877D01*
X-240232Y-57950D01*
X-240288Y-58019D01*
X-240296Y-58041D01*
X-240310Y-58061D01*
X-240332Y-58147D01*
X-240360Y-58231D01*
X-240360Y-58255D01*
X-240365Y-58278D01*
X-240356Y-58367D01*
X-240354Y-58456D01*
X-240345Y-58478D01*
X-240342Y-58501D01*
X-240303Y-58581D01*
X-240269Y-58663D01*
X-240253Y-58681D01*
X-240243Y-58702D01*
X-240178Y-58763D01*
X-240118Y-58829D01*
X-240097Y-58840D01*
X-240080Y-58856D01*
X-239998Y-58891D01*
X-239918Y-58932D01*
X-239892Y-58935D01*
X-239873Y-58944D01*
X-239823Y-58946D01*
X-239733Y-58959D01*
X-238533Y-58959D01*
X-236459Y-61033D01*
X-236459Y-63967D01*
X-238533Y-66041D01*
X-241467Y-66041D01*
X-243541Y-63967D01*
X-243541Y-62767D01*
X-243557Y-62679D01*
X-243566Y-62591D01*
X-243576Y-62570D01*
X-243580Y-62546D01*
X-243626Y-62470D01*
X-243665Y-62390D01*
X-243682Y-62373D01*
X-243695Y-62353D01*
X-243764Y-62297D01*
X-243828Y-62236D01*
X-243850Y-62227D01*
X-243869Y-62212D01*
X-243953Y-62183D01*
X-244035Y-62148D01*
X-244059Y-62147D01*
X-244081Y-62140D01*
X-244170Y-62142D01*
X-244259Y-62138D01*
X-244282Y-62146D01*
X-244306Y-62146D01*
X-244388Y-62180D01*
X-244473Y-62207D01*
X-244494Y-62223D01*
X-244513Y-62231D01*
X-244551Y-62265D01*
X-244623Y-62319D01*
X-297908Y-115604D01*
X-297933Y-115638D01*
X-297964Y-115667D01*
X-297996Y-115730D01*
X-298037Y-115788D01*
X-298047Y-115829D01*
X-298067Y-115867D01*
X-298080Y-115956D01*
X-298093Y-116005D01*
X-298090Y-116026D01*
X-298094Y-116052D01*
X-298094Y-141636D01*
X-298087Y-141677D01*
X-298089Y-141720D01*
X-298067Y-141787D01*
X-298055Y-141856D01*
X-298033Y-141893D01*
X-298020Y-141933D01*
X-297966Y-142006D01*
X-297940Y-142050D01*
X-297924Y-142063D01*
X-297908Y-142084D01*
X-296459Y-143533D01*
X-296459Y-146467D01*
X-298533Y-148541D01*
X-301467Y-148541D01*
G37*
%LPD*%
%LPC*%
G36*
X-241745Y-103771D02*
X-241745Y-103771D01*
X-244968Y-102435D01*
X-247435Y-99968D01*
X-248771Y-96745D01*
X-248771Y-93255D01*
X-248217Y-91918D01*
X-248200Y-91842D01*
X-248175Y-91769D01*
X-248176Y-91733D01*
X-248169Y-91698D01*
X-248180Y-91622D01*
X-248182Y-91544D01*
X-248195Y-91512D01*
X-248200Y-91476D01*
X-248237Y-91408D01*
X-248266Y-91337D01*
X-248290Y-91310D01*
X-248307Y-91279D01*
X-248365Y-91228D01*
X-248418Y-91171D01*
X-248449Y-91155D01*
X-248476Y-91131D01*
X-248548Y-91104D01*
X-248617Y-91068D01*
X-248657Y-91062D01*
X-248686Y-91052D01*
X-248732Y-91051D01*
X-248803Y-91041D01*
X-251467Y-91041D01*
X-253541Y-88967D01*
X-253541Y-86675D01*
X-253552Y-86610D01*
X-253554Y-86544D01*
X-253572Y-86501D01*
X-253580Y-86454D01*
X-253614Y-86397D01*
X-253639Y-86337D01*
X-253670Y-86302D01*
X-253695Y-86261D01*
X-253746Y-86220D01*
X-253790Y-86171D01*
X-253832Y-86149D01*
X-253869Y-86120D01*
X-253931Y-86099D01*
X-253990Y-86068D01*
X-254044Y-86060D01*
X-254081Y-86048D01*
X-254121Y-86049D01*
X-254175Y-86041D01*
X-256467Y-86041D01*
X-258541Y-83967D01*
X-258541Y-81033D01*
X-256467Y-78959D01*
X-253533Y-78959D01*
X-251459Y-81033D01*
X-251459Y-83325D01*
X-251448Y-83390D01*
X-251446Y-83456D01*
X-251428Y-83499D01*
X-251420Y-83546D01*
X-251386Y-83603D01*
X-251361Y-83663D01*
X-251330Y-83698D01*
X-251305Y-83739D01*
X-251254Y-83781D01*
X-251210Y-83829D01*
X-251168Y-83851D01*
X-251131Y-83880D01*
X-251069Y-83901D01*
X-251010Y-83932D01*
X-250956Y-83940D01*
X-250919Y-83952D01*
X-250879Y-83951D01*
X-250825Y-83959D01*
X-248533Y-83959D01*
X-246459Y-86033D01*
X-246459Y-87524D01*
X-246444Y-87612D01*
X-246434Y-87701D01*
X-246424Y-87722D01*
X-246420Y-87745D01*
X-246374Y-87822D01*
X-246335Y-87902D01*
X-246318Y-87918D01*
X-246305Y-87938D01*
X-246236Y-87994D01*
X-246172Y-88056D01*
X-246150Y-88065D01*
X-246131Y-88080D01*
X-246047Y-88108D01*
X-245965Y-88143D01*
X-245941Y-88144D01*
X-245919Y-88152D01*
X-245830Y-88149D01*
X-245741Y-88153D01*
X-245718Y-88146D01*
X-245694Y-88145D01*
X-245612Y-88112D01*
X-245527Y-88084D01*
X-245506Y-88069D01*
X-245487Y-88061D01*
X-245449Y-88027D01*
X-245377Y-87973D01*
X-244968Y-87565D01*
X-241745Y-86229D01*
X-240080Y-86229D01*
X-240015Y-86218D01*
X-239949Y-86216D01*
X-239906Y-86198D01*
X-239859Y-86190D01*
X-239802Y-86156D01*
X-239742Y-86131D01*
X-239707Y-86100D01*
X-239666Y-86075D01*
X-239624Y-86024D01*
X-239576Y-85980D01*
X-239554Y-85938D01*
X-239525Y-85901D01*
X-239504Y-85839D01*
X-239473Y-85780D01*
X-239465Y-85726D01*
X-239453Y-85689D01*
X-239454Y-85649D01*
X-239446Y-85595D01*
X-239446Y-83158D01*
X-236842Y-80554D01*
X-236206Y-80554D01*
X-236164Y-80547D01*
X-236122Y-80549D01*
X-236055Y-80527D01*
X-235985Y-80515D01*
X-235949Y-80493D01*
X-235908Y-80480D01*
X-235836Y-80426D01*
X-235792Y-80400D01*
X-235779Y-80384D01*
X-235758Y-80368D01*
X-231508Y-76119D01*
X-225378Y-76119D01*
X-225337Y-76112D01*
X-225294Y-76114D01*
X-225227Y-76092D01*
X-225158Y-76080D01*
X-225121Y-76058D01*
X-225081Y-76045D01*
X-225008Y-75991D01*
X-224964Y-75965D01*
X-224951Y-75949D01*
X-224930Y-75933D01*
X-215386Y-66389D01*
X-204009Y-66389D01*
X-203921Y-66374D01*
X-203833Y-66364D01*
X-203812Y-66354D01*
X-203788Y-66350D01*
X-203712Y-66304D01*
X-203632Y-66265D01*
X-203616Y-66248D01*
X-203595Y-66235D01*
X-203539Y-66166D01*
X-203478Y-66102D01*
X-203469Y-66080D01*
X-203454Y-66061D01*
X-203425Y-65977D01*
X-203391Y-65895D01*
X-203389Y-65871D01*
X-203382Y-65849D01*
X-203384Y-65760D01*
X-203381Y-65671D01*
X-203388Y-65648D01*
X-203388Y-65624D01*
X-203422Y-65542D01*
X-203449Y-65457D01*
X-203465Y-65436D01*
X-203473Y-65417D01*
X-203507Y-65379D01*
X-203561Y-65307D01*
X-204446Y-64421D01*
X-204446Y-60738D01*
X-201842Y-58134D01*
X-198158Y-58134D01*
X-195554Y-60738D01*
X-195554Y-64422D01*
X-197074Y-65942D01*
X-197112Y-65996D01*
X-197157Y-66043D01*
X-197175Y-66087D01*
X-197202Y-66126D01*
X-197219Y-66189D01*
X-197244Y-66250D01*
X-197247Y-66297D01*
X-197258Y-66343D01*
X-197252Y-66408D01*
X-197254Y-66474D01*
X-197240Y-66519D01*
X-197235Y-66566D01*
X-197206Y-66625D01*
X-197186Y-66688D01*
X-197153Y-66732D01*
X-197136Y-66767D01*
X-197107Y-66794D01*
X-197074Y-66839D01*
X-195554Y-68359D01*
X-195554Y-72042D01*
X-198158Y-74646D01*
X-201841Y-74646D01*
X-202291Y-74197D01*
X-202326Y-74172D01*
X-202354Y-74141D01*
X-202417Y-74109D01*
X-202475Y-74068D01*
X-202516Y-74058D01*
X-202554Y-74038D01*
X-202643Y-74025D01*
X-202692Y-74012D01*
X-202713Y-74015D01*
X-202739Y-74011D01*
X-211966Y-74011D01*
X-212008Y-74018D01*
X-212050Y-74016D01*
X-212117Y-74038D01*
X-212187Y-74050D01*
X-212223Y-74072D01*
X-212264Y-74085D01*
X-212337Y-74139D01*
X-212380Y-74165D01*
X-212393Y-74181D01*
X-212415Y-74197D01*
X-221959Y-83741D01*
X-228089Y-83741D01*
X-228131Y-83748D01*
X-228173Y-83746D01*
X-228240Y-83768D01*
X-228310Y-83780D01*
X-228346Y-83802D01*
X-228387Y-83815D01*
X-228459Y-83869D01*
X-228503Y-83895D01*
X-228513Y-83907D01*
X-228519Y-83911D01*
X-228524Y-83917D01*
X-228537Y-83927D01*
X-230368Y-85758D01*
X-230393Y-85792D01*
X-230424Y-85821D01*
X-230456Y-85884D01*
X-230497Y-85942D01*
X-230507Y-85983D01*
X-230527Y-86021D01*
X-230540Y-86110D01*
X-230553Y-86159D01*
X-230550Y-86180D01*
X-230554Y-86206D01*
X-230554Y-86841D01*
X-232706Y-88993D01*
X-232744Y-89047D01*
X-232789Y-89095D01*
X-232807Y-89139D01*
X-232834Y-89177D01*
X-232851Y-89241D01*
X-232876Y-89302D01*
X-232878Y-89349D01*
X-232890Y-89395D01*
X-232883Y-89460D01*
X-232886Y-89526D01*
X-232872Y-89571D01*
X-232867Y-89618D01*
X-232838Y-89677D01*
X-232818Y-89740D01*
X-232785Y-89784D01*
X-232767Y-89819D01*
X-232739Y-89846D01*
X-232706Y-89890D01*
X-232565Y-90032D01*
X-231229Y-93255D01*
X-231229Y-96745D01*
X-232565Y-99968D01*
X-235032Y-102435D01*
X-238255Y-103771D01*
X-241745Y-103771D01*
G37*
%LPD*%
%LPC*%
G36*
X-59586Y-203001D02*
X-59586Y-203001D01*
X-64364Y-201021D01*
X-68021Y-197364D01*
X-70001Y-192586D01*
X-70001Y-187414D01*
X-68021Y-182636D01*
X-64364Y-178979D01*
X-59586Y-176999D01*
X-54414Y-176999D01*
X-49636Y-178979D01*
X-45979Y-182636D01*
X-43999Y-187414D01*
X-43999Y-192586D01*
X-45979Y-197364D01*
X-49636Y-201021D01*
X-54414Y-203001D01*
X-59586Y-203001D01*
G37*
%LPD*%
%LPC*%
G36*
X54414Y-203001D02*
X54414Y-203001D01*
X49636Y-201021D01*
X45979Y-197364D01*
X43999Y-192586D01*
X43999Y-187414D01*
X45979Y-182636D01*
X49636Y-178979D01*
X54414Y-176999D01*
X59586Y-176999D01*
X64364Y-178979D01*
X68021Y-182636D01*
X70001Y-187414D01*
X70001Y-192586D01*
X68021Y-197364D01*
X64364Y-201021D01*
X59586Y-203001D01*
X54414Y-203001D01*
G37*
%LPD*%
%LPC*%
G36*
X-377586Y-68001D02*
X-377586Y-68001D01*
X-382364Y-66021D01*
X-386021Y-62364D01*
X-388001Y-57586D01*
X-388001Y-52414D01*
X-386021Y-47636D01*
X-382364Y-43979D01*
X-377586Y-41999D01*
X-372414Y-41999D01*
X-367636Y-43979D01*
X-363979Y-47636D01*
X-361999Y-52414D01*
X-361999Y-57586D01*
X-363979Y-62364D01*
X-367636Y-66021D01*
X-372414Y-68001D01*
X-377586Y-68001D01*
G37*
%LPD*%
%LPC*%
G36*
X372414Y241999D02*
X372414Y241999D01*
X367636Y243979D01*
X363979Y247636D01*
X361999Y252414D01*
X361999Y257586D01*
X363979Y262364D01*
X367636Y266021D01*
X372414Y268001D01*
X377586Y268001D01*
X382364Y266021D01*
X386021Y262364D01*
X388001Y257586D01*
X388001Y252414D01*
X386021Y247636D01*
X382364Y243979D01*
X377586Y241999D01*
X372414Y241999D01*
G37*
%LPD*%
%LPC*%
G36*
X-377586Y241999D02*
X-377586Y241999D01*
X-382364Y243979D01*
X-386021Y247636D01*
X-388001Y252414D01*
X-388001Y257586D01*
X-386021Y262364D01*
X-382364Y266021D01*
X-377586Y268001D01*
X-372414Y268001D01*
X-367636Y266021D01*
X-363979Y262364D01*
X-361999Y257586D01*
X-361999Y252414D01*
X-363979Y247636D01*
X-367636Y243979D01*
X-372414Y241999D01*
X-377586Y241999D01*
G37*
%LPD*%
%LPC*%
G36*
X372414Y-68001D02*
X372414Y-68001D01*
X367636Y-66021D01*
X363979Y-62364D01*
X361999Y-57586D01*
X361999Y-52414D01*
X363979Y-47636D01*
X367636Y-43979D01*
X372414Y-41999D01*
X377586Y-41999D01*
X382364Y-43979D01*
X386021Y-47636D01*
X388001Y-52414D01*
X388001Y-57586D01*
X386021Y-62364D01*
X382364Y-66021D01*
X377586Y-68001D01*
X372414Y-68001D01*
G37*
%LPD*%
%LPC*%
G36*
X22808Y-276021D02*
X22808Y-276021D01*
X18757Y-274343D01*
X15657Y-271243D01*
X13979Y-267192D01*
X13979Y-262808D01*
X15657Y-258757D01*
X18757Y-255657D01*
X22808Y-253979D01*
X27192Y-253979D01*
X31243Y-255657D01*
X34343Y-258757D01*
X36021Y-262808D01*
X36021Y-267192D01*
X34343Y-271243D01*
X31243Y-274343D01*
X27192Y-276021D01*
X22808Y-276021D01*
G37*
%LPD*%
%LPC*%
G36*
X-27192Y-276021D02*
X-27192Y-276021D01*
X-31243Y-274343D01*
X-34343Y-271243D01*
X-36021Y-267192D01*
X-36021Y-262808D01*
X-34343Y-258757D01*
X-31243Y-255657D01*
X-27192Y-253979D01*
X-22808Y-253979D01*
X-18757Y-255657D01*
X-15657Y-258757D01*
X-13979Y-262808D01*
X-13979Y-267192D01*
X-15657Y-271243D01*
X-18757Y-274343D01*
X-22808Y-276021D01*
X-27192Y-276021D01*
G37*
%LPD*%
%LPC*%
G36*
X-27192Y-131021D02*
X-27192Y-131021D01*
X-31243Y-129343D01*
X-34343Y-126243D01*
X-36021Y-122192D01*
X-36021Y-117808D01*
X-34343Y-113757D01*
X-31243Y-110657D01*
X-27192Y-108979D01*
X-22808Y-108979D01*
X-18757Y-110657D01*
X-15657Y-113757D01*
X-13979Y-117808D01*
X-13979Y-122192D01*
X-15657Y-126243D01*
X-18757Y-129343D01*
X-22808Y-131021D01*
X-27192Y-131021D01*
G37*
%LPD*%
%LPC*%
G36*
X-121745Y-103771D02*
X-121745Y-103771D01*
X-124968Y-102435D01*
X-127435Y-99968D01*
X-128771Y-96745D01*
X-128771Y-93255D01*
X-127435Y-90032D01*
X-124968Y-87565D01*
X-121745Y-86229D01*
X-118255Y-86229D01*
X-115032Y-87565D01*
X-112565Y-90032D01*
X-111229Y-93255D01*
X-111229Y-96745D01*
X-112565Y-99968D01*
X-115032Y-102435D01*
X-118255Y-103771D01*
X-121745Y-103771D01*
G37*
%LPD*%
%LPC*%
G36*
X-161745Y-103771D02*
X-161745Y-103771D01*
X-164968Y-102435D01*
X-167435Y-99968D01*
X-168771Y-96745D01*
X-168771Y-93255D01*
X-167435Y-90032D01*
X-164968Y-87565D01*
X-161745Y-86229D01*
X-158255Y-86229D01*
X-155032Y-87565D01*
X-152565Y-90032D01*
X-151229Y-93255D01*
X-151229Y-96745D01*
X-152565Y-99968D01*
X-155032Y-102435D01*
X-158255Y-103771D01*
X-161745Y-103771D01*
G37*
%LPD*%
%LPC*%
G36*
X-251578Y86189D02*
X-251578Y86189D01*
X-253811Y88422D01*
X-253811Y90579D01*
X-253818Y90621D01*
X-253816Y90663D01*
X-253838Y90730D01*
X-253850Y90800D01*
X-253872Y90836D01*
X-253885Y90877D01*
X-253939Y90949D01*
X-253965Y90993D01*
X-253981Y91006D01*
X-253997Y91027D01*
X-263338Y100368D01*
X-263372Y100393D01*
X-263401Y100424D01*
X-263464Y100456D01*
X-263522Y100497D01*
X-263563Y100507D01*
X-263601Y100527D01*
X-263690Y100540D01*
X-263739Y100553D01*
X-263760Y100550D01*
X-263786Y100554D01*
X-264422Y100554D01*
X-267026Y103158D01*
X-267026Y106842D01*
X-264422Y109446D01*
X-260738Y109446D01*
X-258134Y106842D01*
X-258134Y106206D01*
X-258127Y106164D01*
X-258129Y106122D01*
X-258107Y106055D01*
X-258095Y105985D01*
X-258073Y105949D01*
X-258060Y105908D01*
X-258006Y105836D01*
X-257980Y105792D01*
X-257964Y105779D01*
X-257948Y105758D01*
X-246189Y93998D01*
X-246189Y88422D01*
X-248422Y86189D01*
X-251578Y86189D01*
G37*
%LPD*%
%LPC*%
G36*
X-381595Y181979D02*
X-381595Y181979D01*
X-384543Y183200D01*
X-386800Y185457D01*
X-388021Y188405D01*
X-388021Y191595D01*
X-386800Y194543D01*
X-384543Y196800D01*
X-381595Y198021D01*
X-378405Y198021D01*
X-375457Y196800D01*
X-373200Y194543D01*
X-371979Y191595D01*
X-371979Y188405D01*
X-373200Y185457D01*
X-375457Y183200D01*
X-378405Y181979D01*
X-381595Y181979D01*
G37*
%LPD*%
%LPC*%
G36*
X378405Y181979D02*
X378405Y181979D01*
X375457Y183200D01*
X373200Y185457D01*
X371979Y188405D01*
X371979Y191595D01*
X373200Y194543D01*
X375457Y196800D01*
X378405Y198021D01*
X381595Y198021D01*
X384543Y196800D01*
X386800Y194543D01*
X388021Y191595D01*
X388021Y188405D01*
X386800Y185457D01*
X384543Y183200D01*
X381595Y181979D01*
X378405Y181979D01*
G37*
%LPD*%
%LPC*%
G36*
X-381595Y-18021D02*
X-381595Y-18021D01*
X-384543Y-16800D01*
X-386800Y-14543D01*
X-388021Y-11595D01*
X-388021Y-8405D01*
X-386800Y-5457D01*
X-384543Y-3200D01*
X-381595Y-1979D01*
X-378405Y-1979D01*
X-375457Y-3200D01*
X-373200Y-5457D01*
X-371979Y-8405D01*
X-371979Y-11595D01*
X-373200Y-14543D01*
X-375457Y-16800D01*
X-378405Y-18021D01*
X-381595Y-18021D01*
G37*
%LPD*%
%LPC*%
G36*
X378405Y-18021D02*
X378405Y-18021D01*
X375457Y-16800D01*
X373200Y-14543D01*
X371979Y-11595D01*
X371979Y-8405D01*
X373200Y-5457D01*
X375457Y-3200D01*
X378405Y-1979D01*
X381595Y-1979D01*
X384543Y-3200D01*
X386800Y-5457D01*
X388021Y-8405D01*
X388021Y-11595D01*
X386800Y-14543D01*
X384543Y-16800D01*
X381595Y-18021D01*
X378405Y-18021D01*
G37*
%LPD*%
%LPC*%
G36*
X-381595Y1979D02*
X-381595Y1979D01*
X-384543Y3200D01*
X-386800Y5457D01*
X-388021Y8405D01*
X-388021Y11595D01*
X-386800Y14543D01*
X-384543Y16800D01*
X-381595Y18021D01*
X-378405Y18021D01*
X-375457Y16800D01*
X-373200Y14543D01*
X-371979Y11595D01*
X-371979Y8405D01*
X-373200Y5457D01*
X-375457Y3200D01*
X-378405Y1979D01*
X-381595Y1979D01*
G37*
%LPD*%
%LPC*%
G36*
X378405Y1979D02*
X378405Y1979D01*
X375457Y3200D01*
X373200Y5457D01*
X371979Y8405D01*
X371979Y11595D01*
X373200Y14543D01*
X375457Y16800D01*
X378405Y18021D01*
X381595Y18021D01*
X384543Y16800D01*
X386800Y14543D01*
X388021Y11595D01*
X388021Y8405D01*
X386800Y5457D01*
X384543Y3200D01*
X381595Y1979D01*
X378405Y1979D01*
G37*
%LPD*%
%LPC*%
G36*
X-381595Y21979D02*
X-381595Y21979D01*
X-384543Y23200D01*
X-386800Y25457D01*
X-388021Y28405D01*
X-388021Y31595D01*
X-386800Y34543D01*
X-384543Y36800D01*
X-381595Y38021D01*
X-378405Y38021D01*
X-375457Y36800D01*
X-373200Y34543D01*
X-371979Y31595D01*
X-371979Y28405D01*
X-373200Y25457D01*
X-375457Y23200D01*
X-378405Y21979D01*
X-381595Y21979D01*
G37*
%LPD*%
%LPC*%
G36*
X378405Y161979D02*
X378405Y161979D01*
X375457Y163200D01*
X373200Y165457D01*
X371979Y168405D01*
X371979Y171595D01*
X373200Y174543D01*
X375457Y176800D01*
X378405Y178021D01*
X381595Y178021D01*
X384543Y176800D01*
X386800Y174543D01*
X388021Y171595D01*
X388021Y168405D01*
X386800Y165457D01*
X384543Y163200D01*
X381595Y161979D01*
X378405Y161979D01*
G37*
%LPD*%
%LPC*%
G36*
X378405Y121979D02*
X378405Y121979D01*
X375457Y123200D01*
X373200Y125457D01*
X371979Y128405D01*
X371979Y131595D01*
X373200Y134543D01*
X375457Y136800D01*
X378405Y138021D01*
X381595Y138021D01*
X384543Y136800D01*
X386800Y134543D01*
X388021Y131595D01*
X388021Y128405D01*
X386800Y125457D01*
X384543Y123200D01*
X381595Y121979D01*
X378405Y121979D01*
G37*
%LPD*%
%LPC*%
G36*
X-381595Y41979D02*
X-381595Y41979D01*
X-384543Y43200D01*
X-386800Y45457D01*
X-388021Y48405D01*
X-388021Y51595D01*
X-386800Y54543D01*
X-384543Y56800D01*
X-381595Y58021D01*
X-378405Y58021D01*
X-375457Y56800D01*
X-373200Y54543D01*
X-371979Y51595D01*
X-371979Y48405D01*
X-373200Y45457D01*
X-375457Y43200D01*
X-378405Y41979D01*
X-381595Y41979D01*
G37*
%LPD*%
%LPC*%
G36*
X378405Y41979D02*
X378405Y41979D01*
X375457Y43200D01*
X373200Y45457D01*
X371979Y48405D01*
X371979Y51595D01*
X373200Y54543D01*
X375457Y56800D01*
X378405Y58021D01*
X381595Y58021D01*
X384543Y56800D01*
X386800Y54543D01*
X388021Y51595D01*
X388021Y48405D01*
X386800Y45457D01*
X384543Y43200D01*
X381595Y41979D01*
X378405Y41979D01*
G37*
%LPD*%
%LPC*%
G36*
X-381595Y61979D02*
X-381595Y61979D01*
X-384543Y63200D01*
X-386800Y65457D01*
X-388021Y68405D01*
X-388021Y71595D01*
X-386800Y74543D01*
X-384543Y76800D01*
X-381595Y78021D01*
X-378405Y78021D01*
X-375457Y76800D01*
X-373200Y74543D01*
X-371979Y71595D01*
X-371979Y68405D01*
X-373200Y65457D01*
X-375457Y63200D01*
X-378405Y61979D01*
X-381595Y61979D01*
G37*
%LPD*%
%LPC*%
G36*
X378405Y61979D02*
X378405Y61979D01*
X375457Y63200D01*
X373200Y65457D01*
X371979Y68405D01*
X371979Y71595D01*
X373200Y74543D01*
X375457Y76800D01*
X378405Y78021D01*
X381595Y78021D01*
X384543Y76800D01*
X386800Y74543D01*
X388021Y71595D01*
X388021Y68405D01*
X386800Y65457D01*
X384543Y63200D01*
X381595Y61979D01*
X378405Y61979D01*
G37*
%LPD*%
%LPC*%
G36*
X-381595Y81979D02*
X-381595Y81979D01*
X-384543Y83200D01*
X-386800Y85457D01*
X-388021Y88405D01*
X-388021Y91595D01*
X-386800Y94543D01*
X-384543Y96800D01*
X-381595Y98021D01*
X-378405Y98021D01*
X-375457Y96800D01*
X-373200Y94543D01*
X-371979Y91595D01*
X-371979Y88405D01*
X-373200Y85457D01*
X-375457Y83200D01*
X-378405Y81979D01*
X-381595Y81979D01*
G37*
%LPD*%
%LPC*%
G36*
X378405Y201979D02*
X378405Y201979D01*
X375457Y203200D01*
X373200Y205457D01*
X371979Y208405D01*
X371979Y211595D01*
X373200Y214543D01*
X375457Y216800D01*
X378405Y218021D01*
X381595Y218021D01*
X384543Y216800D01*
X386800Y214543D01*
X388021Y211595D01*
X388021Y208405D01*
X386800Y205457D01*
X384543Y203200D01*
X381595Y201979D01*
X378405Y201979D01*
G37*
%LPD*%
%LPC*%
G36*
X378405Y101979D02*
X378405Y101979D01*
X375457Y103200D01*
X373200Y105457D01*
X371979Y108405D01*
X371979Y111595D01*
X373200Y114543D01*
X375457Y116800D01*
X378405Y118021D01*
X381595Y118021D01*
X384543Y116800D01*
X386800Y114543D01*
X388021Y111595D01*
X388021Y108405D01*
X386800Y105457D01*
X384543Y103200D01*
X381595Y101979D01*
X378405Y101979D01*
G37*
%LPD*%
%LPC*%
G36*
X-381595Y201979D02*
X-381595Y201979D01*
X-384543Y203200D01*
X-386800Y205457D01*
X-388021Y208405D01*
X-388021Y211595D01*
X-386800Y214543D01*
X-384543Y216800D01*
X-381595Y218021D01*
X-378405Y218021D01*
X-375457Y216800D01*
X-373200Y214543D01*
X-371979Y211595D01*
X-371979Y208405D01*
X-373200Y205457D01*
X-375457Y203200D01*
X-378405Y201979D01*
X-381595Y201979D01*
G37*
%LPD*%
%LPC*%
G36*
X-381595Y141979D02*
X-381595Y141979D01*
X-384543Y143200D01*
X-386800Y145457D01*
X-388021Y148405D01*
X-388021Y151595D01*
X-386800Y154543D01*
X-384543Y156800D01*
X-381595Y158021D01*
X-378405Y158021D01*
X-375457Y156800D01*
X-373200Y154543D01*
X-371979Y151595D01*
X-371979Y148405D01*
X-373200Y145457D01*
X-375457Y143200D01*
X-378405Y141979D01*
X-381595Y141979D01*
G37*
%LPD*%
%LPC*%
G36*
X378405Y141979D02*
X378405Y141979D01*
X375457Y143200D01*
X373200Y145457D01*
X371979Y148405D01*
X371979Y151595D01*
X373200Y154543D01*
X375457Y156800D01*
X378405Y158021D01*
X381595Y158021D01*
X384543Y156800D01*
X386800Y154543D01*
X388021Y151595D01*
X388021Y148405D01*
X386800Y145457D01*
X384543Y143200D01*
X381595Y141979D01*
X378405Y141979D01*
G37*
%LPD*%
%LPC*%
G36*
X-381595Y121979D02*
X-381595Y121979D01*
X-384543Y123200D01*
X-386800Y125457D01*
X-388021Y128405D01*
X-388021Y131595D01*
X-386800Y134543D01*
X-384543Y136800D01*
X-381595Y138021D01*
X-378405Y138021D01*
X-375457Y136800D01*
X-373200Y134543D01*
X-371979Y131595D01*
X-371979Y128405D01*
X-373200Y125457D01*
X-375457Y123200D01*
X-378405Y121979D01*
X-381595Y121979D01*
G37*
%LPD*%
%LPC*%
G36*
X171033Y113959D02*
X171033Y113959D01*
X168959Y116033D01*
X168959Y118967D01*
X170794Y120801D01*
X170832Y120856D01*
X170877Y120903D01*
X170895Y120947D01*
X170922Y120986D01*
X170939Y121049D01*
X170964Y121110D01*
X170966Y121157D01*
X170978Y121203D01*
X170971Y121268D01*
X170974Y121334D01*
X170960Y121379D01*
X170955Y121426D01*
X170926Y121485D01*
X170906Y121548D01*
X170873Y121592D01*
X170856Y121627D01*
X170827Y121654D01*
X170794Y121698D01*
X168959Y123533D01*
X168959Y126467D01*
X170369Y127877D01*
X170420Y127950D01*
X170476Y128019D01*
X170484Y128041D01*
X170497Y128061D01*
X170519Y128147D01*
X170548Y128231D01*
X170547Y128255D01*
X170553Y128278D01*
X170544Y128367D01*
X170541Y128456D01*
X170532Y128478D01*
X170530Y128501D01*
X170490Y128581D01*
X170457Y128663D01*
X170441Y128681D01*
X170431Y128702D01*
X170366Y128763D01*
X170306Y128829D01*
X170285Y128840D01*
X170267Y128856D01*
X170185Y128891D01*
X170106Y128932D01*
X170080Y128935D01*
X170061Y128944D01*
X170010Y128946D01*
X169921Y128959D01*
X168693Y128959D01*
X166619Y131033D01*
X166619Y133967D01*
X168693Y136041D01*
X171627Y136041D01*
X173701Y133967D01*
X173701Y131033D01*
X172291Y129623D01*
X172240Y129550D01*
X172184Y129481D01*
X172176Y129459D01*
X172163Y129439D01*
X172141Y129353D01*
X172112Y129269D01*
X172113Y129245D01*
X172107Y129222D01*
X172116Y129133D01*
X172119Y129044D01*
X172128Y129022D01*
X172130Y128999D01*
X172170Y128919D01*
X172203Y128837D01*
X172219Y128819D01*
X172229Y128798D01*
X172294Y128737D01*
X172354Y128671D01*
X172375Y128660D01*
X172393Y128644D01*
X172475Y128609D01*
X172554Y128568D01*
X172580Y128565D01*
X172599Y128556D01*
X172650Y128554D01*
X172739Y128541D01*
X173967Y128541D01*
X176041Y126467D01*
X176041Y123533D01*
X174206Y121698D01*
X174168Y121644D01*
X174123Y121597D01*
X174105Y121553D01*
X174078Y121514D01*
X174061Y121451D01*
X174036Y121390D01*
X174034Y121343D01*
X174022Y121297D01*
X174029Y121232D01*
X174026Y121166D01*
X174040Y121121D01*
X174045Y121074D01*
X174074Y121015D01*
X174094Y120952D01*
X174127Y120908D01*
X174144Y120873D01*
X174173Y120846D01*
X174206Y120801D01*
X176041Y118967D01*
X176041Y116033D01*
X173967Y113959D01*
X171033Y113959D01*
G37*
%LPD*%
%LPC*%
G36*
X191033Y33959D02*
X191033Y33959D01*
X188959Y36033D01*
X188959Y38967D01*
X191033Y41041D01*
X193325Y41041D01*
X193390Y41052D01*
X193456Y41054D01*
X193499Y41072D01*
X193546Y41080D01*
X193603Y41114D01*
X193663Y41139D01*
X193698Y41170D01*
X193739Y41195D01*
X193781Y41246D01*
X193829Y41290D01*
X193851Y41332D01*
X193880Y41369D01*
X193901Y41431D01*
X193932Y41490D01*
X193940Y41544D01*
X193952Y41581D01*
X193951Y41621D01*
X193959Y41675D01*
X193959Y43967D01*
X196033Y46041D01*
X198325Y46041D01*
X198390Y46052D01*
X198456Y46054D01*
X198499Y46072D01*
X198546Y46080D01*
X198603Y46114D01*
X198663Y46139D01*
X198698Y46170D01*
X198739Y46195D01*
X198781Y46246D01*
X198829Y46290D01*
X198851Y46332D01*
X198880Y46369D01*
X198901Y46431D01*
X198932Y46490D01*
X198940Y46544D01*
X198952Y46581D01*
X198951Y46621D01*
X198959Y46675D01*
X198959Y48967D01*
X201033Y51041D01*
X203967Y51041D01*
X206041Y48967D01*
X206041Y46033D01*
X203967Y43959D01*
X201675Y43959D01*
X201610Y43948D01*
X201544Y43946D01*
X201501Y43928D01*
X201454Y43920D01*
X201397Y43886D01*
X201337Y43861D01*
X201302Y43830D01*
X201261Y43805D01*
X201219Y43754D01*
X201171Y43710D01*
X201149Y43668D01*
X201120Y43631D01*
X201099Y43569D01*
X201068Y43510D01*
X201060Y43456D01*
X201048Y43419D01*
X201049Y43379D01*
X201041Y43325D01*
X201041Y41033D01*
X198967Y38959D01*
X196675Y38959D01*
X196610Y38948D01*
X196544Y38946D01*
X196501Y38928D01*
X196454Y38920D01*
X196397Y38886D01*
X196337Y38861D01*
X196302Y38830D01*
X196261Y38805D01*
X196219Y38754D01*
X196171Y38710D01*
X196149Y38668D01*
X196120Y38631D01*
X196099Y38569D01*
X196068Y38510D01*
X196060Y38456D01*
X196048Y38419D01*
X196049Y38379D01*
X196041Y38325D01*
X196041Y36033D01*
X193967Y33959D01*
X191033Y33959D01*
G37*
%LPD*%
%LPC*%
G36*
X-2878Y-276988D02*
X-2878Y-276988D01*
X-4718Y-276390D01*
X-6442Y-275512D01*
X-8007Y-274375D01*
X-9375Y-273007D01*
X-10512Y-271442D01*
X-11390Y-269718D01*
X-11988Y-267878D01*
X-12243Y-266269D01*
X-1269Y-266269D01*
X-1269Y-277243D01*
X-2878Y-276988D01*
G37*
%LPD*%
%LPC*%
G36*
X26269Y-121269D02*
X26269Y-121269D01*
X37243Y-121269D01*
X36988Y-122878D01*
X36390Y-124718D01*
X35512Y-126442D01*
X34375Y-128007D01*
X33007Y-129375D01*
X31442Y-130512D01*
X29718Y-131390D01*
X27878Y-131988D01*
X26269Y-132243D01*
X26269Y-121269D01*
G37*
%LPD*%
%LPC*%
G36*
X1269Y-266269D02*
X1269Y-266269D01*
X12243Y-266269D01*
X11988Y-267878D01*
X11390Y-269718D01*
X10512Y-271442D01*
X9375Y-273007D01*
X8007Y-274375D01*
X6442Y-275512D01*
X4718Y-276390D01*
X2878Y-276988D01*
X1269Y-277243D01*
X1269Y-266269D01*
G37*
%LPD*%
%LPC*%
G36*
X1269Y-263731D02*
X1269Y-263731D01*
X1269Y-252757D01*
X2878Y-253012D01*
X4718Y-253610D01*
X6442Y-254488D01*
X8007Y-255625D01*
X9375Y-256993D01*
X10512Y-258558D01*
X11390Y-260282D01*
X11988Y-262122D01*
X12243Y-263731D01*
X1269Y-263731D01*
G37*
%LPD*%
%LPC*%
G36*
X-12243Y-263731D02*
X-12243Y-263731D01*
X-11988Y-262122D01*
X-11390Y-260282D01*
X-10512Y-258558D01*
X-9375Y-256993D01*
X-8007Y-255625D01*
X-6442Y-254488D01*
X-4718Y-253610D01*
X-2878Y-253012D01*
X-1269Y-252757D01*
X-1269Y-263731D01*
X-12243Y-263731D01*
G37*
%LPD*%
%LPC*%
G36*
X22122Y-131988D02*
X22122Y-131988D01*
X20282Y-131390D01*
X18558Y-130512D01*
X16993Y-129375D01*
X15625Y-128007D01*
X14488Y-126442D01*
X13610Y-124718D01*
X13012Y-122878D01*
X12757Y-121269D01*
X23731Y-121269D01*
X23731Y-132243D01*
X22122Y-131988D01*
G37*
%LPD*%
%LPC*%
G36*
X26269Y-118731D02*
X26269Y-118731D01*
X26269Y-107757D01*
X27878Y-108012D01*
X29718Y-108610D01*
X31442Y-109488D01*
X33007Y-110625D01*
X34375Y-111993D01*
X35512Y-113558D01*
X36390Y-115282D01*
X36988Y-117122D01*
X37243Y-118731D01*
X26269Y-118731D01*
G37*
%LPD*%
%LPC*%
G36*
X12757Y-118731D02*
X12757Y-118731D01*
X13012Y-117122D01*
X13610Y-115282D01*
X14488Y-113558D01*
X15625Y-111993D01*
X16993Y-110625D01*
X18558Y-109488D01*
X20282Y-108610D01*
X22122Y-108012D01*
X23731Y-107757D01*
X23731Y-118731D01*
X12757Y-118731D01*
G37*
%LPD*%
%LPC*%
G36*
X-236467Y-36041D02*
X-236467Y-36041D01*
X-238541Y-33967D01*
X-238541Y-31265D01*
X-238556Y-31178D01*
X-238566Y-31089D01*
X-238576Y-31068D01*
X-238580Y-31044D01*
X-238626Y-30968D01*
X-238665Y-30888D01*
X-238682Y-30872D01*
X-238695Y-30851D01*
X-238764Y-30795D01*
X-238828Y-30734D01*
X-238850Y-30725D01*
X-238869Y-30710D01*
X-238953Y-30681D01*
X-239035Y-30647D01*
X-239059Y-30646D01*
X-239081Y-30638D01*
X-239170Y-30641D01*
X-239259Y-30637D01*
X-239282Y-30644D01*
X-239306Y-30645D01*
X-239388Y-30678D01*
X-239473Y-30705D01*
X-239494Y-30721D01*
X-239513Y-30729D01*
X-239551Y-30763D01*
X-239623Y-30817D01*
X-239847Y-31041D01*
X-242781Y-31041D01*
X-244855Y-28967D01*
X-244855Y-26033D01*
X-242781Y-23959D01*
X-239847Y-23959D01*
X-237773Y-26033D01*
X-237773Y-28735D01*
X-237758Y-28822D01*
X-237748Y-28911D01*
X-237738Y-28932D01*
X-237734Y-28956D01*
X-237688Y-29032D01*
X-237649Y-29112D01*
X-237632Y-29128D01*
X-237619Y-29149D01*
X-237550Y-29205D01*
X-237486Y-29266D01*
X-237464Y-29275D01*
X-237445Y-29290D01*
X-237361Y-29319D01*
X-237279Y-29353D01*
X-237255Y-29354D01*
X-237233Y-29362D01*
X-237144Y-29359D01*
X-237055Y-29363D01*
X-237032Y-29356D01*
X-237008Y-29355D01*
X-236926Y-29322D01*
X-236841Y-29295D01*
X-236820Y-29279D01*
X-236801Y-29271D01*
X-236763Y-29237D01*
X-236691Y-29183D01*
X-236467Y-28959D01*
X-233533Y-28959D01*
X-231459Y-31033D01*
X-231459Y-33967D01*
X-233533Y-36041D01*
X-236467Y-36041D01*
G37*
%LPD*%
%LPC*%
G36*
X-241256Y96967D02*
X-241256Y96967D01*
X-243033Y98744D01*
X-243033Y101256D01*
X-241347Y102942D01*
X-241309Y102996D01*
X-241264Y103044D01*
X-241246Y103088D01*
X-241219Y103127D01*
X-241202Y103190D01*
X-241176Y103251D01*
X-241174Y103298D01*
X-241163Y103344D01*
X-241169Y103409D01*
X-241166Y103475D01*
X-241181Y103520D01*
X-241186Y103567D01*
X-241215Y103626D01*
X-241235Y103689D01*
X-241268Y103733D01*
X-241285Y103768D01*
X-241314Y103795D01*
X-241347Y103839D01*
X-243541Y106033D01*
X-243541Y108967D01*
X-241467Y111041D01*
X-238533Y111041D01*
X-236459Y108967D01*
X-236459Y106033D01*
X-238653Y103839D01*
X-238691Y103785D01*
X-238736Y103737D01*
X-238754Y103694D01*
X-238781Y103655D01*
X-238798Y103591D01*
X-238824Y103531D01*
X-238826Y103484D01*
X-238837Y103438D01*
X-238831Y103372D01*
X-238834Y103307D01*
X-238819Y103262D01*
X-238814Y103215D01*
X-238785Y103156D01*
X-238765Y103093D01*
X-238732Y103049D01*
X-238715Y103014D01*
X-238686Y102986D01*
X-238653Y102942D01*
X-236967Y101256D01*
X-236967Y98744D01*
X-238744Y96967D01*
X-241256Y96967D01*
G37*
%LPD*%
%LPC*%
G36*
X-238396Y75054D02*
X-238396Y75054D01*
X-241000Y77658D01*
X-241000Y81342D01*
X-238396Y83946D01*
X-234712Y83946D01*
X-232108Y81342D01*
X-232108Y77658D01*
X-234712Y75054D01*
X-238396Y75054D01*
G37*
%LPD*%
%LPC*%
G36*
X-386287Y-169446D02*
X-386287Y-169446D01*
X-388891Y-166842D01*
X-388891Y-163158D01*
X-386287Y-160554D01*
X-382603Y-160554D01*
X-379999Y-163158D01*
X-379999Y-166842D01*
X-382603Y-169446D01*
X-386287Y-169446D01*
G37*
%LPD*%
%LPC*%
G36*
X-285288Y75054D02*
X-285288Y75054D01*
X-287892Y77658D01*
X-287892Y81342D01*
X-285288Y83946D01*
X-281604Y83946D01*
X-279000Y81342D01*
X-279000Y77658D01*
X-281604Y75054D01*
X-285288Y75054D01*
G37*
%LPD*%
%LPC*%
G36*
X-231842Y119109D02*
X-231842Y119109D01*
X-234446Y121713D01*
X-234446Y125397D01*
X-231842Y128001D01*
X-228158Y128001D01*
X-225554Y125397D01*
X-225554Y121713D01*
X-228158Y119109D01*
X-231842Y119109D01*
G37*
%LPD*%
%LPC*%
G36*
X-337397Y-194446D02*
X-337397Y-194446D01*
X-340001Y-191842D01*
X-340001Y-188158D01*
X-337397Y-185554D01*
X-333713Y-185554D01*
X-331109Y-188158D01*
X-331109Y-191842D01*
X-333713Y-194446D01*
X-337397Y-194446D01*
G37*
%LPD*%
%LPC*%
G36*
X286158Y214359D02*
X286158Y214359D01*
X283554Y216963D01*
X283554Y220647D01*
X286158Y223251D01*
X289842Y223251D01*
X292446Y220647D01*
X292446Y216963D01*
X289842Y214359D01*
X286158Y214359D01*
G37*
%LPD*%
%LPC*%
G36*
X-386287Y-194446D02*
X-386287Y-194446D01*
X-388891Y-191842D01*
X-388891Y-188158D01*
X-386287Y-185554D01*
X-382603Y-185554D01*
X-379999Y-188158D01*
X-379999Y-191842D01*
X-382603Y-194446D01*
X-386287Y-194446D01*
G37*
%LPD*%
%LPC*%
G36*
X-316842Y-66431D02*
X-316842Y-66431D01*
X-319446Y-63827D01*
X-319446Y-60143D01*
X-316842Y-57539D01*
X-313158Y-57539D01*
X-310554Y-60143D01*
X-310554Y-63827D01*
X-313158Y-66431D01*
X-316842Y-66431D01*
G37*
%LPD*%
%LPC*%
G36*
X-331842Y-84286D02*
X-331842Y-84286D01*
X-334446Y-81682D01*
X-334446Y-77999D01*
X-331842Y-75395D01*
X-328158Y-75395D01*
X-325554Y-77999D01*
X-325554Y-81682D01*
X-328158Y-84286D01*
X-331842Y-84286D01*
G37*
%LPD*%
%LPC*%
G36*
X-314787Y-227196D02*
X-314787Y-227196D01*
X-317391Y-224592D01*
X-317391Y-220908D01*
X-314787Y-218304D01*
X-311103Y-218304D01*
X-308499Y-220908D01*
X-308499Y-224592D01*
X-311103Y-227196D01*
X-314787Y-227196D01*
G37*
%LPD*%
%LPC*%
G36*
X-396842Y-106946D02*
X-396842Y-106946D01*
X-399446Y-104342D01*
X-399446Y-100658D01*
X-396842Y-98054D01*
X-393158Y-98054D01*
X-390554Y-100658D01*
X-390554Y-104342D01*
X-393158Y-106946D01*
X-396842Y-106946D01*
G37*
%LPD*%
%LPC*%
G36*
X-202351Y-104794D02*
X-202351Y-104794D01*
X-203854Y-104305D01*
X-205262Y-103588D01*
X-206541Y-102659D01*
X-207659Y-101541D01*
X-208588Y-100262D01*
X-209305Y-98854D01*
X-209794Y-97351D01*
X-209965Y-96269D01*
X-201269Y-96269D01*
X-201269Y-104965D01*
X-202351Y-104794D01*
G37*
%LPD*%
%LPC*%
G36*
X-198731Y-96269D02*
X-198731Y-96269D01*
X-190035Y-96269D01*
X-190206Y-97351D01*
X-190695Y-98854D01*
X-191412Y-100262D01*
X-192341Y-101541D01*
X-193459Y-102659D01*
X-194738Y-103588D01*
X-196146Y-104305D01*
X-197649Y-104794D01*
X-198731Y-104965D01*
X-198731Y-96269D01*
G37*
%LPD*%
%LPC*%
G36*
X-209965Y-93731D02*
X-209965Y-93731D01*
X-209794Y-92649D01*
X-209305Y-91146D01*
X-208588Y-89738D01*
X-207659Y-88459D01*
X-206541Y-87341D01*
X-205262Y-86412D01*
X-203854Y-85695D01*
X-202351Y-85206D01*
X-201269Y-85035D01*
X-201269Y-93731D01*
X-209965Y-93731D01*
G37*
%LPD*%
%LPC*%
G36*
X-198731Y-93731D02*
X-198731Y-93731D01*
X-198731Y-85035D01*
X-197649Y-85206D01*
X-196146Y-85695D01*
X-194738Y-86412D01*
X-193459Y-87341D01*
X-192341Y-88459D01*
X-191412Y-89738D01*
X-190695Y-91146D01*
X-190206Y-92649D01*
X-190035Y-93731D01*
X-198731Y-93731D01*
G37*
%LPD*%
%LPC*%
G36*
X381269Y91269D02*
X381269Y91269D01*
X381269Y99220D01*
X382710Y98934D01*
X384401Y98233D01*
X385923Y97217D01*
X387217Y95923D01*
X388233Y94401D01*
X388934Y92710D01*
X389220Y91269D01*
X381269Y91269D01*
G37*
%LPD*%
%LPC*%
G36*
X-389220Y111269D02*
X-389220Y111269D01*
X-388934Y112710D01*
X-388233Y114401D01*
X-387217Y115923D01*
X-385923Y117217D01*
X-384401Y118233D01*
X-382710Y118934D01*
X-381269Y119220D01*
X-381269Y111269D01*
X-389220Y111269D01*
G37*
%LPD*%
%LPC*%
G36*
X381269Y31269D02*
X381269Y31269D01*
X381269Y39220D01*
X382710Y38934D01*
X384401Y38233D01*
X385923Y37217D01*
X387217Y35923D01*
X388233Y34401D01*
X388934Y32710D01*
X389220Y31269D01*
X381269Y31269D01*
G37*
%LPD*%
%LPC*%
G36*
X-389220Y171269D02*
X-389220Y171269D01*
X-388934Y172710D01*
X-388233Y174401D01*
X-387217Y175923D01*
X-385923Y177217D01*
X-384401Y178233D01*
X-382710Y178934D01*
X-381269Y179220D01*
X-381269Y171269D01*
X-389220Y171269D01*
G37*
%LPD*%
%LPC*%
G36*
X-378731Y111269D02*
X-378731Y111269D01*
X-378731Y119220D01*
X-377290Y118934D01*
X-375599Y118233D01*
X-374077Y117217D01*
X-372783Y115923D01*
X-371767Y114401D01*
X-371066Y112710D01*
X-370780Y111269D01*
X-378731Y111269D01*
G37*
%LPD*%
%LPC*%
G36*
X-378731Y171269D02*
X-378731Y171269D01*
X-378731Y179220D01*
X-377290Y178934D01*
X-375599Y178233D01*
X-374077Y177217D01*
X-372783Y175923D01*
X-371767Y174401D01*
X-371066Y172710D01*
X-370780Y171269D01*
X-378731Y171269D01*
G37*
%LPD*%
%LPC*%
G36*
X370780Y91269D02*
X370780Y91269D01*
X371066Y92710D01*
X371767Y94401D01*
X372783Y95923D01*
X374077Y97217D01*
X375599Y98233D01*
X377290Y98934D01*
X378731Y99220D01*
X378731Y91269D01*
X370780Y91269D01*
G37*
%LPD*%
%LPC*%
G36*
X-382710Y101066D02*
X-382710Y101066D01*
X-384401Y101767D01*
X-385923Y102783D01*
X-387217Y104077D01*
X-388233Y105599D01*
X-388934Y107290D01*
X-389220Y108731D01*
X-381269Y108731D01*
X-381269Y100780D01*
X-382710Y101066D01*
G37*
%LPD*%
%LPC*%
G36*
X381269Y28731D02*
X381269Y28731D01*
X389220Y28731D01*
X388934Y27290D01*
X388233Y25599D01*
X387217Y24077D01*
X385923Y22783D01*
X384401Y21767D01*
X382710Y21066D01*
X381269Y20780D01*
X381269Y28731D01*
G37*
%LPD*%
%LPC*%
G36*
X370780Y31269D02*
X370780Y31269D01*
X371066Y32710D01*
X371767Y34401D01*
X372783Y35923D01*
X374077Y37217D01*
X375599Y38233D01*
X377290Y38934D01*
X378731Y39220D01*
X378731Y31269D01*
X370780Y31269D01*
G37*
%LPD*%
%LPC*%
G36*
X-382710Y161066D02*
X-382710Y161066D01*
X-384401Y161767D01*
X-385923Y162783D01*
X-387217Y164077D01*
X-388233Y165599D01*
X-388934Y167290D01*
X-389220Y168731D01*
X-381269Y168731D01*
X-381269Y160780D01*
X-382710Y161066D01*
G37*
%LPD*%
%LPC*%
G36*
X381269Y88731D02*
X381269Y88731D01*
X389220Y88731D01*
X388934Y87290D01*
X388233Y85599D01*
X387217Y84077D01*
X385923Y82783D01*
X384401Y81767D01*
X382710Y81066D01*
X381269Y80780D01*
X381269Y88731D01*
G37*
%LPD*%
%LPC*%
G36*
X377290Y81066D02*
X377290Y81066D01*
X375599Y81767D01*
X374077Y82783D01*
X372783Y84077D01*
X371767Y85599D01*
X371066Y87290D01*
X370780Y88731D01*
X378731Y88731D01*
X378731Y80780D01*
X377290Y81066D01*
G37*
%LPD*%
%LPC*%
G36*
X-378731Y108731D02*
X-378731Y108731D01*
X-370780Y108731D01*
X-371066Y107290D01*
X-371767Y105599D01*
X-372783Y104077D01*
X-374077Y102783D01*
X-375599Y101767D01*
X-377290Y101066D01*
X-378731Y100780D01*
X-378731Y108731D01*
G37*
%LPD*%
%LPC*%
G36*
X-378731Y168731D02*
X-378731Y168731D01*
X-370780Y168731D01*
X-371066Y167290D01*
X-371767Y165599D01*
X-372783Y164077D01*
X-374077Y162783D01*
X-375599Y161767D01*
X-377290Y161066D01*
X-378731Y160780D01*
X-378731Y168731D01*
G37*
%LPD*%
%LPC*%
G36*
X377290Y21066D02*
X377290Y21066D01*
X375599Y21767D01*
X374077Y22783D01*
X372783Y24077D01*
X371767Y25599D01*
X371066Y27290D01*
X370780Y28731D01*
X378731Y28731D01*
X378731Y20780D01*
X377290Y21066D01*
G37*
%LPD*%
%LPC*%
G36*
X-106467Y78959D02*
X-106467Y78959D01*
X-108541Y81033D01*
X-108541Y83967D01*
X-106467Y86041D01*
X-103533Y86041D01*
X-101459Y83967D01*
X-101459Y81033D01*
X-103533Y78959D01*
X-106467Y78959D01*
G37*
%LPD*%
%LPC*%
G36*
X43533Y133959D02*
X43533Y133959D01*
X41459Y136033D01*
X41459Y138967D01*
X43533Y141041D01*
X46467Y141041D01*
X48541Y138967D01*
X48541Y136033D01*
X46467Y133959D01*
X43533Y133959D01*
G37*
%LPD*%
%LPC*%
G36*
X76033Y81299D02*
X76033Y81299D01*
X73959Y83373D01*
X73959Y86307D01*
X76033Y88381D01*
X78967Y88381D01*
X81041Y86307D01*
X81041Y83373D01*
X78967Y81299D01*
X76033Y81299D01*
G37*
%LPD*%
%LPC*%
G36*
X318650Y74209D02*
X318650Y74209D01*
X316576Y76283D01*
X316576Y79217D01*
X318650Y81291D01*
X321583Y81291D01*
X323657Y79217D01*
X323657Y76283D01*
X321583Y74209D01*
X318650Y74209D01*
G37*
%LPD*%
%LPC*%
G36*
X126033Y81299D02*
X126033Y81299D01*
X123959Y83373D01*
X123959Y86307D01*
X126033Y88381D01*
X128967Y88381D01*
X131041Y86307D01*
X131041Y83373D01*
X128967Y81299D01*
X126033Y81299D01*
G37*
%LPD*%
%LPC*%
G36*
X177384Y81459D02*
X177384Y81459D01*
X175310Y83533D01*
X175310Y86467D01*
X177384Y88541D01*
X180317Y88541D01*
X182391Y86467D01*
X182391Y83533D01*
X180317Y81459D01*
X177384Y81459D01*
G37*
%LPD*%
%LPC*%
G36*
X196033Y68959D02*
X196033Y68959D01*
X193959Y71033D01*
X193959Y73967D01*
X196033Y76041D01*
X198967Y76041D01*
X201041Y73967D01*
X201041Y71033D01*
X198967Y68959D01*
X196033Y68959D01*
G37*
%LPD*%
%LPC*%
G36*
X186033Y66459D02*
X186033Y66459D01*
X183959Y68533D01*
X183959Y71467D01*
X186033Y73541D01*
X188967Y73541D01*
X191041Y71467D01*
X191041Y68533D01*
X188967Y66459D01*
X186033Y66459D01*
G37*
%LPD*%
%LPC*%
G36*
X216033Y58959D02*
X216033Y58959D01*
X213959Y61033D01*
X213959Y63967D01*
X216033Y66041D01*
X218967Y66041D01*
X221041Y63967D01*
X221041Y61033D01*
X218967Y58959D01*
X216033Y58959D01*
G37*
%LPD*%
%LPC*%
G36*
X281033Y58959D02*
X281033Y58959D01*
X278959Y61033D01*
X278959Y63967D01*
X281033Y66041D01*
X283967Y66041D01*
X286041Y63967D01*
X286041Y61033D01*
X283967Y58959D01*
X281033Y58959D01*
G37*
%LPD*%
%LPC*%
G36*
X181033Y53959D02*
X181033Y53959D01*
X178959Y56033D01*
X178959Y58967D01*
X181033Y61041D01*
X183967Y61041D01*
X186041Y58967D01*
X186041Y56033D01*
X183967Y53959D01*
X181033Y53959D01*
G37*
%LPD*%
%LPC*%
G36*
X263533Y131459D02*
X263533Y131459D01*
X261459Y133533D01*
X261459Y136467D01*
X263533Y138541D01*
X266467Y138541D01*
X268541Y136467D01*
X268541Y133533D01*
X266467Y131459D01*
X263533Y131459D01*
G37*
%LPD*%
%LPC*%
G36*
X301033Y168959D02*
X301033Y168959D01*
X298959Y171033D01*
X298959Y173967D01*
X301033Y176041D01*
X303967Y176041D01*
X306041Y173967D01*
X306041Y171033D01*
X303967Y168959D01*
X301033Y168959D01*
G37*
%LPD*%
%LPC*%
G36*
X333533Y50310D02*
X333533Y50310D01*
X331459Y52384D01*
X331459Y55317D01*
X333533Y57391D01*
X336467Y57391D01*
X338541Y55317D01*
X338541Y52384D01*
X336467Y50310D01*
X333533Y50310D01*
G37*
%LPD*%
%LPC*%
G36*
X223533Y170310D02*
X223533Y170310D01*
X221459Y172384D01*
X221459Y175317D01*
X223533Y177391D01*
X226467Y177391D01*
X228541Y175317D01*
X228541Y172384D01*
X226467Y170310D01*
X223533Y170310D01*
G37*
%LPD*%
%LPC*%
G36*
X326033Y41459D02*
X326033Y41459D01*
X323959Y43533D01*
X323959Y46467D01*
X326033Y48541D01*
X328967Y48541D01*
X331041Y46467D01*
X331041Y43533D01*
X328967Y41459D01*
X326033Y41459D01*
G37*
%LPD*%
%LPC*%
G36*
X276033Y33959D02*
X276033Y33959D01*
X273959Y36033D01*
X273959Y38967D01*
X276033Y41041D01*
X278967Y41041D01*
X281041Y38967D01*
X281041Y36033D01*
X278967Y33959D01*
X276033Y33959D01*
G37*
%LPD*%
%LPC*%
G36*
X-278967Y223959D02*
X-278967Y223959D01*
X-281041Y226033D01*
X-281041Y228967D01*
X-278967Y231041D01*
X-276033Y231041D01*
X-273959Y228967D01*
X-273959Y226033D01*
X-276033Y223959D01*
X-278967Y223959D01*
G37*
%LPD*%
%LPC*%
G36*
X341033Y131459D02*
X341033Y131459D01*
X338959Y133533D01*
X338959Y136467D01*
X341033Y138541D01*
X343967Y138541D01*
X346041Y136467D01*
X346041Y133533D01*
X343967Y131459D01*
X341033Y131459D01*
G37*
%LPD*%
%LPC*%
G36*
X291033Y171459D02*
X291033Y171459D01*
X288959Y173533D01*
X288959Y176467D01*
X291033Y178541D01*
X293967Y178541D01*
X296041Y176467D01*
X296041Y173533D01*
X293967Y171459D01*
X291033Y171459D01*
G37*
%LPD*%
%LPC*%
G36*
X136033Y26459D02*
X136033Y26459D01*
X133959Y28533D01*
X133959Y31467D01*
X136033Y33541D01*
X138967Y33541D01*
X141041Y31467D01*
X141041Y28533D01*
X138967Y26459D01*
X136033Y26459D01*
G37*
%LPD*%
%LPC*%
G36*
X351033Y131459D02*
X351033Y131459D01*
X348959Y133533D01*
X348959Y136467D01*
X351033Y138541D01*
X353967Y138541D01*
X356041Y136467D01*
X356041Y133533D01*
X353967Y131459D01*
X351033Y131459D01*
G37*
%LPD*%
%LPC*%
G36*
X76033Y138959D02*
X76033Y138959D01*
X73959Y141033D01*
X73959Y143967D01*
X76033Y146041D01*
X78967Y146041D01*
X81041Y143967D01*
X81041Y141033D01*
X78967Y138959D01*
X76033Y138959D01*
G37*
%LPD*%
%LPC*%
G36*
X48373Y148959D02*
X48373Y148959D01*
X46299Y151033D01*
X46299Y153967D01*
X48373Y156041D01*
X51307Y156041D01*
X53381Y153967D01*
X53381Y151033D01*
X51307Y148959D01*
X48373Y148959D01*
G37*
%LPD*%
%LPC*%
G36*
X330618Y123709D02*
X330618Y123709D01*
X328544Y125783D01*
X328544Y128717D01*
X330618Y130791D01*
X333552Y130791D01*
X335626Y128717D01*
X335626Y125783D01*
X333552Y123709D01*
X330618Y123709D01*
G37*
%LPD*%
%LPC*%
G36*
X-228767Y222199D02*
X-228767Y222199D01*
X-230841Y224273D01*
X-230841Y227207D01*
X-228767Y229281D01*
X-225833Y229281D01*
X-223759Y227207D01*
X-223759Y224273D01*
X-225833Y222199D01*
X-228767Y222199D01*
G37*
%LPD*%
%LPC*%
G36*
X-48967Y173959D02*
X-48967Y173959D01*
X-51041Y176033D01*
X-51041Y178967D01*
X-48967Y181041D01*
X-46033Y181041D01*
X-43959Y178967D01*
X-43959Y176033D01*
X-46033Y173959D01*
X-48967Y173959D01*
G37*
%LPD*%
%LPC*%
G36*
X-261467Y173959D02*
X-261467Y173959D01*
X-263541Y176033D01*
X-263541Y178967D01*
X-261467Y181041D01*
X-258533Y181041D01*
X-256459Y178967D01*
X-256459Y176033D01*
X-258533Y173959D01*
X-261467Y173959D01*
G37*
%LPD*%
%LPC*%
G36*
X-256467Y-11041D02*
X-256467Y-11041D01*
X-258541Y-8967D01*
X-258541Y-6033D01*
X-256467Y-3959D01*
X-253533Y-3959D01*
X-251459Y-6033D01*
X-251459Y-8967D01*
X-253533Y-11041D01*
X-256467Y-11041D01*
G37*
%LPD*%
%LPC*%
G36*
X331033Y-18541D02*
X331033Y-18541D01*
X328959Y-16467D01*
X328959Y-13533D01*
X331033Y-11459D01*
X333967Y-11459D01*
X336041Y-13533D01*
X336041Y-16467D01*
X333967Y-18541D01*
X331033Y-18541D01*
G37*
%LPD*%
%LPC*%
G36*
X343533Y-18541D02*
X343533Y-18541D01*
X341459Y-16467D01*
X341459Y-13533D01*
X343533Y-11459D01*
X346467Y-11459D01*
X348541Y-13533D01*
X348541Y-16467D01*
X346467Y-18541D01*
X343533Y-18541D01*
G37*
%LPD*%
%LPC*%
G36*
X163533Y-18541D02*
X163533Y-18541D01*
X161459Y-16467D01*
X161459Y-13533D01*
X163533Y-11459D01*
X166467Y-11459D01*
X168541Y-13533D01*
X168541Y-16467D01*
X166467Y-18541D01*
X163533Y-18541D01*
G37*
%LPD*%
%LPC*%
G36*
X-241467Y-18541D02*
X-241467Y-18541D01*
X-243541Y-16467D01*
X-243541Y-13533D01*
X-241467Y-11459D01*
X-238533Y-11459D01*
X-236459Y-13533D01*
X-236459Y-16467D01*
X-238533Y-18541D01*
X-241467Y-18541D01*
G37*
%LPD*%
%LPC*%
G36*
X28533Y216459D02*
X28533Y216459D01*
X26459Y218533D01*
X26459Y221467D01*
X28533Y223541D01*
X31467Y223541D01*
X33541Y221467D01*
X33541Y218533D01*
X31467Y216459D01*
X28533Y216459D01*
G37*
%LPD*%
%LPC*%
G36*
X236448Y175709D02*
X236448Y175709D01*
X234374Y177783D01*
X234374Y180717D01*
X236448Y182791D01*
X239382Y182791D01*
X241456Y180717D01*
X241456Y177783D01*
X239382Y175709D01*
X236448Y175709D01*
G37*
%LPD*%
%LPC*%
G36*
X-308967Y181459D02*
X-308967Y181459D01*
X-311041Y183533D01*
X-311041Y186467D01*
X-308967Y188541D01*
X-306033Y188541D01*
X-303959Y186467D01*
X-303959Y183533D01*
X-306033Y181459D01*
X-308967Y181459D01*
G37*
%LPD*%
%LPC*%
G36*
X-256467Y-51041D02*
X-256467Y-51041D01*
X-258541Y-48967D01*
X-258541Y-46033D01*
X-256467Y-43959D01*
X-253533Y-43959D01*
X-251459Y-46033D01*
X-251459Y-48967D01*
X-253533Y-51041D01*
X-256467Y-51041D01*
G37*
%LPD*%
%LPC*%
G36*
X-202781Y-56041D02*
X-202781Y-56041D01*
X-204855Y-53967D01*
X-204855Y-51033D01*
X-202781Y-48959D01*
X-199847Y-48959D01*
X-197773Y-51033D01*
X-197773Y-53967D01*
X-199847Y-56041D01*
X-202781Y-56041D01*
G37*
%LPD*%
%LPC*%
G36*
X339993Y-168541D02*
X339993Y-168541D01*
X337919Y-166467D01*
X337919Y-163533D01*
X339993Y-161459D01*
X342927Y-161459D01*
X345001Y-163533D01*
X345001Y-166467D01*
X342927Y-168541D01*
X339993Y-168541D01*
G37*
%LPD*%
%LPC*%
G36*
X-16467Y181459D02*
X-16467Y181459D01*
X-18541Y183533D01*
X-18541Y186467D01*
X-16467Y188541D01*
X-13533Y188541D01*
X-11459Y186467D01*
X-11459Y183533D01*
X-13533Y181459D01*
X-16467Y181459D01*
G37*
%LPD*%
%LPC*%
G36*
X322219Y-66041D02*
X322219Y-66041D01*
X320145Y-63967D01*
X320145Y-61033D01*
X322219Y-58959D01*
X325153Y-58959D01*
X327227Y-61033D01*
X327227Y-63967D01*
X325153Y-66041D01*
X322219Y-66041D01*
G37*
%LPD*%
%LPC*%
G36*
X91033Y-66041D02*
X91033Y-66041D01*
X88959Y-63967D01*
X88959Y-61033D01*
X91033Y-58959D01*
X93967Y-58959D01*
X96041Y-61033D01*
X96041Y-63967D01*
X93967Y-66041D01*
X91033Y-66041D01*
G37*
%LPD*%
%LPC*%
G36*
X-273967Y-66041D02*
X-273967Y-66041D01*
X-276041Y-63967D01*
X-276041Y-61033D01*
X-273967Y-58959D01*
X-271033Y-58959D01*
X-268959Y-61033D01*
X-268959Y-63967D01*
X-271033Y-66041D01*
X-273967Y-66041D01*
G37*
%LPD*%
%LPC*%
G36*
X329678Y-71041D02*
X329678Y-71041D01*
X327603Y-68967D01*
X327603Y-66033D01*
X329678Y-63959D01*
X332611Y-63959D01*
X334685Y-66033D01*
X334685Y-68967D01*
X332611Y-71041D01*
X329678Y-71041D01*
G37*
%LPD*%
%LPC*%
G36*
X101033Y-78541D02*
X101033Y-78541D01*
X98959Y-76467D01*
X98959Y-73533D01*
X101033Y-71459D01*
X103967Y-71459D01*
X106041Y-73533D01*
X106041Y-76467D01*
X103967Y-78541D01*
X101033Y-78541D01*
G37*
%LPD*%
%LPC*%
G36*
X11033Y151459D02*
X11033Y151459D01*
X8959Y153533D01*
X8959Y156467D01*
X11033Y158541D01*
X13967Y158541D01*
X16041Y156467D01*
X16041Y153533D01*
X13967Y151459D01*
X11033Y151459D01*
G37*
%LPD*%
%LPC*%
G36*
X91033Y-83541D02*
X91033Y-83541D01*
X88959Y-81467D01*
X88959Y-78533D01*
X91033Y-76459D01*
X93967Y-76459D01*
X96041Y-78533D01*
X96041Y-81467D01*
X93967Y-83541D01*
X91033Y-83541D01*
G37*
%LPD*%
%LPC*%
G36*
X-289427Y-166291D02*
X-289427Y-166291D01*
X-291501Y-164217D01*
X-291501Y-161283D01*
X-289427Y-159209D01*
X-286493Y-159209D01*
X-284419Y-161283D01*
X-284419Y-164217D01*
X-286493Y-166291D01*
X-289427Y-166291D01*
G37*
%LPD*%
%LPC*%
G36*
X-251467Y-141041D02*
X-251467Y-141041D01*
X-253541Y-138967D01*
X-253541Y-136033D01*
X-251467Y-133959D01*
X-248533Y-133959D01*
X-246459Y-136033D01*
X-246459Y-138967D01*
X-248533Y-141041D01*
X-251467Y-141041D01*
G37*
%LPD*%
%LPC*%
G36*
X-28967Y158959D02*
X-28967Y158959D01*
X-31041Y161033D01*
X-31041Y163967D01*
X-28967Y166041D01*
X-26033Y166041D01*
X-23959Y163967D01*
X-23959Y161033D01*
X-26033Y158959D01*
X-28967Y158959D01*
G37*
%LPD*%
%LPC*%
G36*
X246033Y196459D02*
X246033Y196459D01*
X243959Y198533D01*
X243959Y201467D01*
X246033Y203541D01*
X248967Y203541D01*
X251041Y201467D01*
X251041Y198533D01*
X248967Y196459D01*
X246033Y196459D01*
G37*
%LPD*%
%LPC*%
G36*
X18533Y206459D02*
X18533Y206459D01*
X16459Y208533D01*
X16459Y211467D01*
X18533Y213541D01*
X21467Y213541D01*
X23541Y211467D01*
X23541Y208533D01*
X21467Y206459D01*
X18533Y206459D01*
G37*
%LPD*%
%LPC*%
G36*
X-261467Y-101041D02*
X-261467Y-101041D01*
X-263541Y-98967D01*
X-263541Y-96033D01*
X-261467Y-93959D01*
X-258533Y-93959D01*
X-256459Y-96033D01*
X-256459Y-98967D01*
X-258533Y-101041D01*
X-261467Y-101041D01*
G37*
%LPD*%
%LPC*%
G36*
X168693Y153959D02*
X168693Y153959D01*
X166619Y156033D01*
X166619Y158967D01*
X168693Y161041D01*
X171627Y161041D01*
X173701Y158967D01*
X173701Y156033D01*
X171627Y153959D01*
X168693Y153959D01*
G37*
%LPD*%
%LPC*%
G36*
X39683Y106459D02*
X39683Y106459D01*
X37609Y108533D01*
X37609Y111467D01*
X39683Y113541D01*
X42616Y113541D01*
X44690Y111467D01*
X44690Y108533D01*
X42616Y106459D01*
X39683Y106459D01*
G37*
%LPD*%
%LPC*%
G36*
X-313967Y-121041D02*
X-313967Y-121041D01*
X-316041Y-118967D01*
X-316041Y-116033D01*
X-313967Y-113959D01*
X-311033Y-113959D01*
X-308959Y-116033D01*
X-308959Y-118967D01*
X-311033Y-121041D01*
X-313967Y-121041D01*
G37*
%LPD*%
%LPC*%
G36*
X-231467Y-121041D02*
X-231467Y-121041D01*
X-233541Y-118967D01*
X-233541Y-116033D01*
X-231467Y-113959D01*
X-228533Y-113959D01*
X-226459Y-116033D01*
X-226459Y-118967D01*
X-228533Y-121041D01*
X-231467Y-121041D01*
G37*
%LPD*%
%LPC*%
G36*
X-106467Y98959D02*
X-106467Y98959D01*
X-108541Y101033D01*
X-108541Y103967D01*
X-106467Y106041D01*
X-103533Y106041D01*
X-101459Y103967D01*
X-101459Y101033D01*
X-103533Y98959D01*
X-106467Y98959D01*
G37*
%LPD*%
%LPC*%
G36*
X6033Y158959D02*
X6033Y158959D01*
X3959Y161033D01*
X3959Y163967D01*
X6033Y166041D01*
X8967Y166041D01*
X11041Y163967D01*
X11041Y161033D01*
X8967Y158959D01*
X6033Y158959D01*
G37*
%LPD*%
%LPC*%
G36*
X-323967Y-116041D02*
X-323967Y-116041D01*
X-326041Y-113967D01*
X-326041Y-111033D01*
X-323967Y-108959D01*
X-321033Y-108959D01*
X-318959Y-111033D01*
X-318959Y-113967D01*
X-321033Y-116041D01*
X-323967Y-116041D01*
G37*
%LPD*%
%LPC*%
G36*
X-3967Y-88541D02*
X-3967Y-88541D01*
X-6041Y-86467D01*
X-6041Y-83533D01*
X-3967Y-81459D01*
X-1033Y-81459D01*
X1041Y-83533D01*
X1041Y-86467D01*
X-1033Y-88541D01*
X-3967Y-88541D01*
G37*
%LPD*%
%LPC*%
G36*
X-3967Y143959D02*
X-3967Y143959D01*
X-6041Y146033D01*
X-6041Y148967D01*
X-3967Y151041D01*
X-1033Y151041D01*
X1041Y148967D01*
X1041Y146033D01*
X-1033Y143959D01*
X-3967Y143959D01*
G37*
%LPD*%
%LPC*%
G36*
X-291256Y96967D02*
X-291256Y96967D01*
X-293033Y98744D01*
X-293033Y101256D01*
X-291256Y103033D01*
X-288744Y103033D01*
X-286967Y101256D01*
X-286967Y98744D01*
X-288744Y96967D01*
X-291256Y96967D01*
G37*
%LPD*%
%LPC*%
G36*
X153744Y271967D02*
X153744Y271967D01*
X151967Y273744D01*
X151967Y276256D01*
X153744Y278033D01*
X156256Y278033D01*
X158033Y276256D01*
X158033Y273744D01*
X156256Y271967D01*
X153744Y271967D01*
G37*
%LPD*%
%LPC*%
G36*
X-231256Y96967D02*
X-231256Y96967D01*
X-233033Y98744D01*
X-233033Y101256D01*
X-231256Y103033D01*
X-228744Y103033D01*
X-226967Y101256D01*
X-226967Y98744D01*
X-228744Y96967D01*
X-231256Y96967D01*
G37*
%LPD*%
%LPC*%
G36*
X-311256Y86967D02*
X-311256Y86967D01*
X-313033Y88744D01*
X-313033Y91256D01*
X-311256Y93033D01*
X-308744Y93033D01*
X-306967Y91256D01*
X-306967Y88744D01*
X-308744Y86967D01*
X-311256Y86967D01*
G37*
%LPD*%
%LPC*%
G36*
X-231256Y86967D02*
X-231256Y86967D01*
X-233033Y88744D01*
X-233033Y91256D01*
X-231256Y93033D01*
X-228744Y93033D01*
X-226967Y91256D01*
X-226967Y88744D01*
X-228744Y86967D01*
X-231256Y86967D01*
G37*
%LPD*%
%LPC*%
G36*
X-301256Y96967D02*
X-301256Y96967D01*
X-303033Y98744D01*
X-303033Y101256D01*
X-301256Y103033D01*
X-298744Y103033D01*
X-296967Y101256D01*
X-296967Y98744D01*
X-298744Y96967D01*
X-301256Y96967D01*
G37*
%LPD*%
%LPC*%
G36*
X-241256Y86967D02*
X-241256Y86967D01*
X-243033Y88744D01*
X-243033Y91256D01*
X-241256Y93033D01*
X-238744Y93033D01*
X-236967Y91256D01*
X-236967Y88744D01*
X-238744Y86967D01*
X-241256Y86967D01*
G37*
%LPD*%
%LPC*%
G36*
X-211256Y86967D02*
X-211256Y86967D01*
X-213033Y88744D01*
X-213033Y91256D01*
X-211256Y93033D01*
X-208744Y93033D01*
X-206967Y91256D01*
X-206967Y88744D01*
X-208744Y86967D01*
X-211256Y86967D01*
G37*
%LPD*%
%LPC*%
G36*
X-221256Y86967D02*
X-221256Y86967D01*
X-223033Y88744D01*
X-223033Y91256D01*
X-221256Y93033D01*
X-218744Y93033D01*
X-216967Y91256D01*
X-216967Y88744D01*
X-218744Y86967D01*
X-221256Y86967D01*
G37*
%LPD*%
%LPC*%
G36*
X-291256Y86967D02*
X-291256Y86967D01*
X-293033Y88744D01*
X-293033Y91256D01*
X-291256Y93033D01*
X-288744Y93033D01*
X-286967Y91256D01*
X-286967Y88744D01*
X-288744Y86967D01*
X-291256Y86967D01*
G37*
%LPD*%
%LPC*%
G36*
X-271256Y86967D02*
X-271256Y86967D01*
X-273033Y88744D01*
X-273033Y91256D01*
X-271256Y93033D01*
X-268744Y93033D01*
X-266967Y91256D01*
X-266967Y88744D01*
X-268744Y86967D01*
X-271256Y86967D01*
G37*
%LPD*%
%LPC*%
G36*
X-281256Y86967D02*
X-281256Y86967D01*
X-283033Y88744D01*
X-283033Y91256D01*
X-281256Y93033D01*
X-278744Y93033D01*
X-276967Y91256D01*
X-276967Y88744D01*
X-278744Y86967D01*
X-281256Y86967D01*
G37*
%LPD*%
%LPC*%
G36*
X-301256Y86967D02*
X-301256Y86967D01*
X-303033Y88744D01*
X-303033Y91256D01*
X-301256Y93033D01*
X-298744Y93033D01*
X-296967Y91256D01*
X-296967Y88744D01*
X-298744Y86967D01*
X-301256Y86967D01*
G37*
%LPD*%
%LPC*%
G36*
X-380001Y109999D02*
X-380001Y109999D01*
X-380001Y110001D01*
X-379999Y110001D01*
X-379999Y109999D01*
X-380001Y109999D01*
G37*
%LPD*%
%LPC*%
G36*
X-200001Y-95001D02*
X-200001Y-95001D01*
X-200001Y-94999D01*
X-199999Y-94999D01*
X-199999Y-95001D01*
X-200001Y-95001D01*
G37*
%LPD*%
%LPC*%
G36*
X379999Y89999D02*
X379999Y89999D01*
X379999Y90001D01*
X380001Y90001D01*
X380001Y89999D01*
X379999Y89999D01*
G37*
%LPD*%
%LPC*%
G36*
X24999Y-120001D02*
X24999Y-120001D01*
X24999Y-119999D01*
X25001Y-119999D01*
X25001Y-120001D01*
X24999Y-120001D01*
G37*
%LPD*%
%LPC*%
G36*
X-380001Y169999D02*
X-380001Y169999D01*
X-380001Y170001D01*
X-379999Y170001D01*
X-379999Y169999D01*
X-380001Y169999D01*
G37*
%LPD*%
%LPC*%
G36*
X379999Y29999D02*
X379999Y29999D01*
X379999Y30001D01*
X380001Y30001D01*
X380001Y29999D01*
X379999Y29999D01*
G37*
%LPD*%
%LPC*%
G36*
X-1Y-265001D02*
X-1Y-265001D01*
X-1Y-264999D01*
X1Y-264999D01*
X1Y-265001D01*
X-1Y-265001D01*
G37*
%LPD*%
D10*
X-290000Y90000D03*
X-290000Y100000D03*
X-230000Y90000D03*
X-230000Y50000D03*
X-300000Y50000D03*
X-260000Y50000D03*
X-270000Y90000D03*
X-310000Y90000D03*
X-280000Y90000D03*
X-300000Y100000D03*
X-300000Y90000D03*
X-230000Y100000D03*
X-220000Y90000D03*
X-210000Y90000D03*
X-250000Y90000D03*
X-240000Y100000D03*
X-240000Y90000D03*
X-290000Y50000D03*
X-245000Y50000D03*
X-270000Y50000D03*
X-280000Y50000D03*
X-255000Y50000D03*
D11*
X-380000Y210000D03*
X-380000Y30000D03*
X-380000Y10000D03*
X-380000Y-10000D03*
X-380000Y170000D03*
X-380000Y150000D03*
X-380000Y110000D03*
X-380000Y90000D03*
X-380000Y70000D03*
X-380000Y50000D03*
X-380000Y130000D03*
X-380000Y190000D03*
X380000Y-10000D03*
X380000Y170000D03*
X380000Y190000D03*
X380000Y210000D03*
X380000Y30000D03*
X380000Y50000D03*
X380000Y90000D03*
X380000Y110000D03*
X380000Y130000D03*
X380000Y150000D03*
X380000Y70000D03*
X380000Y10000D03*
D12*
X-160000Y-95000D03*
X-240000Y-95000D03*
X-120000Y-95000D03*
D13*
X-25000Y-265000D03*
X25000Y-265000D03*
X-25000Y-120000D03*
X25000Y-120000D03*
X0Y-265000D03*
D10*
X165000Y275000D03*
X155000Y275000D03*
D14*
X-114388Y-527282D02*
X-114388Y-539022D01*
X-114389Y-539022D02*
X-114387Y-539155D01*
X-114381Y-539287D01*
X-114371Y-539419D01*
X-114358Y-539551D01*
X-114340Y-539683D01*
X-114319Y-539813D01*
X-114294Y-539944D01*
X-114265Y-540073D01*
X-114232Y-540201D01*
X-114196Y-540329D01*
X-114156Y-540455D01*
X-114112Y-540580D01*
X-114064Y-540704D01*
X-114013Y-540826D01*
X-113958Y-540947D01*
X-113900Y-541066D01*
X-113838Y-541184D01*
X-113773Y-541299D01*
X-113704Y-541413D01*
X-113633Y-541524D01*
X-113557Y-541633D01*
X-113479Y-541740D01*
X-113398Y-541845D01*
X-113313Y-541947D01*
X-113226Y-542047D01*
X-113136Y-542144D01*
X-113043Y-542239D01*
X-112947Y-542330D01*
X-112849Y-542419D01*
X-112748Y-542505D01*
X-112644Y-542588D01*
X-112538Y-542668D01*
X-112430Y-542744D01*
X-112320Y-542818D01*
X-112207Y-542888D01*
X-112093Y-542955D01*
X-111976Y-543018D01*
X-111858Y-543078D01*
X-111738Y-543135D01*
X-111616Y-543188D01*
X-111493Y-543237D01*
X-111369Y-543283D01*
X-111243Y-543325D01*
X-111116Y-543363D01*
X-110988Y-543398D01*
X-110859Y-543429D01*
X-110730Y-543456D01*
X-110599Y-543479D01*
X-110468Y-543499D01*
X-110336Y-543514D01*
X-110204Y-543526D01*
X-110072Y-543534D01*
X-109939Y-543538D01*
X-109807Y-543538D01*
X-109674Y-543534D01*
X-109542Y-543526D01*
X-109410Y-543514D01*
X-109278Y-543499D01*
X-109147Y-543479D01*
X-109016Y-543456D01*
X-108887Y-543429D01*
X-108758Y-543398D01*
X-108630Y-543363D01*
X-108503Y-543325D01*
X-108377Y-543283D01*
X-108253Y-543237D01*
X-108130Y-543188D01*
X-108008Y-543135D01*
X-107888Y-543078D01*
X-107770Y-543018D01*
X-107653Y-542955D01*
X-107539Y-542888D01*
X-107426Y-542818D01*
X-107316Y-542744D01*
X-107208Y-542668D01*
X-107102Y-542588D01*
X-106998Y-542505D01*
X-106897Y-542419D01*
X-106799Y-542330D01*
X-106703Y-542239D01*
X-106610Y-542144D01*
X-106520Y-542047D01*
X-106433Y-541947D01*
X-106348Y-541845D01*
X-106267Y-541740D01*
X-106189Y-541633D01*
X-106113Y-541524D01*
X-106042Y-541413D01*
X-105973Y-541299D01*
X-105908Y-541184D01*
X-105846Y-541066D01*
X-105788Y-540947D01*
X-105733Y-540826D01*
X-105682Y-540704D01*
X-105634Y-540580D01*
X-105590Y-540455D01*
X-105550Y-540329D01*
X-105514Y-540201D01*
X-105481Y-540073D01*
X-105452Y-539944D01*
X-105427Y-539813D01*
X-105406Y-539683D01*
X-105388Y-539551D01*
X-105375Y-539419D01*
X-105365Y-539287D01*
X-105359Y-539155D01*
X-105357Y-539022D01*
X-105357Y-527282D01*
X-97780Y-532701D02*
X-97780Y-548957D01*
X-97780Y-532701D02*
X-93265Y-532701D01*
X-93161Y-532703D01*
X-93058Y-532709D01*
X-92954Y-532719D01*
X-92851Y-532733D01*
X-92749Y-532751D01*
X-92648Y-532772D01*
X-92547Y-532798D01*
X-92448Y-532827D01*
X-92349Y-532860D01*
X-92252Y-532897D01*
X-92157Y-532938D01*
X-92063Y-532982D01*
X-91971Y-533030D01*
X-91881Y-533081D01*
X-91792Y-533136D01*
X-91706Y-533194D01*
X-91623Y-533256D01*
X-91541Y-533320D01*
X-91463Y-533388D01*
X-91387Y-533458D01*
X-91313Y-533531D01*
X-91243Y-533608D01*
X-91175Y-533686D01*
X-91111Y-533768D01*
X-91049Y-533851D01*
X-90991Y-533937D01*
X-90936Y-534026D01*
X-90885Y-534116D01*
X-90837Y-534208D01*
X-90793Y-534302D01*
X-90752Y-534397D01*
X-90715Y-534494D01*
X-90682Y-534593D01*
X-90653Y-534692D01*
X-90627Y-534793D01*
X-90606Y-534894D01*
X-90588Y-534996D01*
X-90574Y-535099D01*
X-90564Y-535203D01*
X-90558Y-535306D01*
X-90556Y-535410D01*
X-90556Y-540829D01*
X-90558Y-540930D01*
X-90564Y-541031D01*
X-90573Y-541132D01*
X-90586Y-541233D01*
X-90603Y-541333D01*
X-90624Y-541432D01*
X-90648Y-541530D01*
X-90676Y-541627D01*
X-90708Y-541724D01*
X-90743Y-541819D01*
X-90782Y-541912D01*
X-90824Y-542004D01*
X-90870Y-542095D01*
X-90919Y-542184D01*
X-90971Y-542270D01*
X-91027Y-542355D01*
X-91085Y-542438D01*
X-91147Y-542518D01*
X-91212Y-542596D01*
X-91279Y-542672D01*
X-91349Y-542745D01*
X-91422Y-542815D01*
X-91498Y-542882D01*
X-91576Y-542947D01*
X-91656Y-543009D01*
X-91739Y-543067D01*
X-91824Y-543123D01*
X-91911Y-543175D01*
X-91999Y-543224D01*
X-92090Y-543270D01*
X-92182Y-543312D01*
X-92275Y-543351D01*
X-92370Y-543386D01*
X-92467Y-543418D01*
X-92564Y-543446D01*
X-92662Y-543470D01*
X-92761Y-543491D01*
X-92861Y-543508D01*
X-92962Y-543521D01*
X-93063Y-543530D01*
X-93164Y-543536D01*
X-93265Y-543538D01*
X-97780Y-543538D01*
X-83712Y-548957D02*
X-83712Y-532701D01*
X-79197Y-532701D01*
X-79093Y-532703D01*
X-78990Y-532709D01*
X-78886Y-532719D01*
X-78783Y-532733D01*
X-78681Y-532751D01*
X-78580Y-532772D01*
X-78479Y-532798D01*
X-78380Y-532827D01*
X-78281Y-532860D01*
X-78184Y-532897D01*
X-78089Y-532938D01*
X-77995Y-532982D01*
X-77903Y-533030D01*
X-77813Y-533081D01*
X-77724Y-533136D01*
X-77638Y-533194D01*
X-77555Y-533256D01*
X-77473Y-533320D01*
X-77395Y-533388D01*
X-77319Y-533458D01*
X-77245Y-533531D01*
X-77175Y-533608D01*
X-77107Y-533686D01*
X-77043Y-533768D01*
X-76981Y-533851D01*
X-76923Y-533937D01*
X-76868Y-534026D01*
X-76817Y-534116D01*
X-76769Y-534208D01*
X-76725Y-534302D01*
X-76684Y-534397D01*
X-76647Y-534494D01*
X-76614Y-534593D01*
X-76585Y-534692D01*
X-76559Y-534793D01*
X-76538Y-534894D01*
X-76520Y-534996D01*
X-76506Y-535099D01*
X-76496Y-535203D01*
X-76490Y-535306D01*
X-76488Y-535410D01*
X-76487Y-535410D02*
X-76487Y-540829D01*
X-76488Y-540829D02*
X-76490Y-540930D01*
X-76496Y-541031D01*
X-76505Y-541132D01*
X-76518Y-541233D01*
X-76535Y-541333D01*
X-76556Y-541432D01*
X-76580Y-541530D01*
X-76608Y-541627D01*
X-76640Y-541724D01*
X-76675Y-541819D01*
X-76714Y-541912D01*
X-76756Y-542004D01*
X-76802Y-542095D01*
X-76851Y-542184D01*
X-76903Y-542270D01*
X-76959Y-542355D01*
X-77017Y-542438D01*
X-77079Y-542518D01*
X-77144Y-542596D01*
X-77211Y-542672D01*
X-77281Y-542745D01*
X-77354Y-542815D01*
X-77430Y-542882D01*
X-77508Y-542947D01*
X-77588Y-543009D01*
X-77671Y-543067D01*
X-77756Y-543123D01*
X-77843Y-543175D01*
X-77931Y-543224D01*
X-78022Y-543270D01*
X-78114Y-543312D01*
X-78207Y-543351D01*
X-78302Y-543386D01*
X-78399Y-543418D01*
X-78496Y-543446D01*
X-78594Y-543470D01*
X-78693Y-543491D01*
X-78793Y-543508D01*
X-78894Y-543521D01*
X-78995Y-543530D01*
X-79096Y-543536D01*
X-79197Y-543538D01*
X-83712Y-543538D01*
X-67529Y-543538D02*
X-63014Y-543538D01*
X-67529Y-543538D02*
X-67630Y-543536D01*
X-67731Y-543530D01*
X-67832Y-543521D01*
X-67933Y-543508D01*
X-68033Y-543491D01*
X-68132Y-543470D01*
X-68230Y-543446D01*
X-68327Y-543418D01*
X-68424Y-543386D01*
X-68519Y-543351D01*
X-68612Y-543312D01*
X-68704Y-543270D01*
X-68795Y-543224D01*
X-68884Y-543175D01*
X-68970Y-543123D01*
X-69055Y-543067D01*
X-69138Y-543009D01*
X-69218Y-542947D01*
X-69296Y-542882D01*
X-69372Y-542815D01*
X-69445Y-542745D01*
X-69515Y-542672D01*
X-69582Y-542596D01*
X-69647Y-542518D01*
X-69709Y-542438D01*
X-69767Y-542355D01*
X-69823Y-542270D01*
X-69875Y-542184D01*
X-69924Y-542095D01*
X-69970Y-542004D01*
X-70012Y-541912D01*
X-70051Y-541819D01*
X-70086Y-541724D01*
X-70118Y-541627D01*
X-70146Y-541530D01*
X-70170Y-541432D01*
X-70191Y-541333D01*
X-70208Y-541233D01*
X-70221Y-541132D01*
X-70230Y-541031D01*
X-70236Y-540930D01*
X-70238Y-540829D01*
X-70239Y-540829D02*
X-70239Y-536313D01*
X-70238Y-536313D02*
X-70236Y-536194D01*
X-70230Y-536074D01*
X-70220Y-535955D01*
X-70206Y-535837D01*
X-70189Y-535718D01*
X-70167Y-535601D01*
X-70142Y-535484D01*
X-70112Y-535369D01*
X-70079Y-535254D01*
X-70042Y-535140D01*
X-70002Y-535028D01*
X-69957Y-534917D01*
X-69909Y-534808D01*
X-69858Y-534700D01*
X-69803Y-534594D01*
X-69744Y-534490D01*
X-69682Y-534388D01*
X-69617Y-534288D01*
X-69548Y-534190D01*
X-69476Y-534094D01*
X-69401Y-534001D01*
X-69324Y-533911D01*
X-69243Y-533823D01*
X-69159Y-533738D01*
X-69072Y-533656D01*
X-68983Y-533576D01*
X-68891Y-533500D01*
X-68797Y-533426D01*
X-68700Y-533356D01*
X-68602Y-533289D01*
X-68501Y-533225D01*
X-68397Y-533165D01*
X-68292Y-533108D01*
X-68185Y-533055D01*
X-68077Y-533005D01*
X-67967Y-532959D01*
X-67855Y-532917D01*
X-67742Y-532878D01*
X-67628Y-532843D01*
X-67513Y-532812D01*
X-67396Y-532784D01*
X-67279Y-532761D01*
X-67162Y-532741D01*
X-67043Y-532725D01*
X-66924Y-532713D01*
X-66805Y-532705D01*
X-66686Y-532701D01*
X-66566Y-532701D01*
X-66447Y-532705D01*
X-66328Y-532713D01*
X-66209Y-532725D01*
X-66090Y-532741D01*
X-65973Y-532761D01*
X-65856Y-532784D01*
X-65739Y-532812D01*
X-65624Y-532843D01*
X-65510Y-532878D01*
X-65397Y-532917D01*
X-65285Y-532959D01*
X-65175Y-533005D01*
X-65067Y-533055D01*
X-64960Y-533108D01*
X-64855Y-533165D01*
X-64751Y-533225D01*
X-64650Y-533289D01*
X-64552Y-533356D01*
X-64455Y-533426D01*
X-64361Y-533500D01*
X-64269Y-533576D01*
X-64180Y-533656D01*
X-64093Y-533738D01*
X-64009Y-533823D01*
X-63928Y-533911D01*
X-63851Y-534001D01*
X-63776Y-534094D01*
X-63704Y-534190D01*
X-63635Y-534288D01*
X-63570Y-534388D01*
X-63508Y-534490D01*
X-63449Y-534594D01*
X-63394Y-534700D01*
X-63343Y-534808D01*
X-63295Y-534917D01*
X-63250Y-535028D01*
X-63210Y-535140D01*
X-63173Y-535254D01*
X-63140Y-535369D01*
X-63110Y-535484D01*
X-63085Y-535601D01*
X-63063Y-535718D01*
X-63046Y-535837D01*
X-63032Y-535955D01*
X-63022Y-536074D01*
X-63016Y-536194D01*
X-63014Y-536313D01*
X-63014Y-538119D01*
X-70239Y-538119D01*
X-56086Y-543538D02*
X-56086Y-532701D01*
X-50667Y-532701D01*
X-50667Y-534507D01*
X-35885Y-527282D02*
X-35885Y-543538D01*
X-37691Y-543538D02*
X-34079Y-543538D01*
X-34079Y-527282D02*
X-37691Y-527282D01*
X-27513Y-532701D02*
X-27513Y-543538D01*
X-27513Y-532701D02*
X-22998Y-532701D01*
X-22894Y-532703D01*
X-22791Y-532709D01*
X-22687Y-532719D01*
X-22584Y-532733D01*
X-22482Y-532751D01*
X-22381Y-532772D01*
X-22280Y-532798D01*
X-22181Y-532827D01*
X-22082Y-532860D01*
X-21985Y-532897D01*
X-21890Y-532938D01*
X-21796Y-532982D01*
X-21704Y-533030D01*
X-21614Y-533081D01*
X-21525Y-533136D01*
X-21439Y-533194D01*
X-21356Y-533256D01*
X-21274Y-533320D01*
X-21196Y-533388D01*
X-21120Y-533458D01*
X-21046Y-533531D01*
X-20976Y-533608D01*
X-20908Y-533686D01*
X-20844Y-533768D01*
X-20782Y-533851D01*
X-20724Y-533937D01*
X-20669Y-534026D01*
X-20618Y-534116D01*
X-20570Y-534208D01*
X-20526Y-534302D01*
X-20485Y-534397D01*
X-20448Y-534494D01*
X-20415Y-534593D01*
X-20386Y-534692D01*
X-20360Y-534793D01*
X-20339Y-534894D01*
X-20321Y-534996D01*
X-20307Y-535099D01*
X-20297Y-535203D01*
X-20291Y-535306D01*
X-20289Y-535410D01*
X-20288Y-535410D02*
X-20288Y-543538D01*
X-12924Y-543538D02*
X-12924Y-532701D01*
X-8409Y-532701D01*
X-8305Y-532703D01*
X-8202Y-532709D01*
X-8098Y-532719D01*
X-7995Y-532733D01*
X-7893Y-532751D01*
X-7792Y-532772D01*
X-7691Y-532798D01*
X-7592Y-532827D01*
X-7493Y-532860D01*
X-7396Y-532897D01*
X-7301Y-532938D01*
X-7207Y-532982D01*
X-7115Y-533030D01*
X-7025Y-533081D01*
X-6936Y-533136D01*
X-6850Y-533194D01*
X-6767Y-533256D01*
X-6685Y-533320D01*
X-6607Y-533388D01*
X-6531Y-533458D01*
X-6457Y-533531D01*
X-6387Y-533608D01*
X-6319Y-533686D01*
X-6255Y-533768D01*
X-6193Y-533851D01*
X-6135Y-533937D01*
X-6080Y-534026D01*
X-6029Y-534116D01*
X-5981Y-534208D01*
X-5937Y-534302D01*
X-5896Y-534397D01*
X-5859Y-534494D01*
X-5826Y-534593D01*
X-5797Y-534692D01*
X-5771Y-534793D01*
X-5750Y-534894D01*
X-5732Y-534996D01*
X-5718Y-535099D01*
X-5708Y-535203D01*
X-5702Y-535306D01*
X-5700Y-535410D01*
X-5699Y-535410D02*
X-5699Y-543538D01*
X3853Y-543538D02*
X8369Y-543538D01*
X3853Y-543538D02*
X3752Y-543536D01*
X3651Y-543530D01*
X3550Y-543521D01*
X3449Y-543508D01*
X3349Y-543491D01*
X3250Y-543470D01*
X3152Y-543446D01*
X3055Y-543418D01*
X2958Y-543386D01*
X2863Y-543351D01*
X2770Y-543312D01*
X2678Y-543270D01*
X2587Y-543224D01*
X2499Y-543175D01*
X2412Y-543123D01*
X2327Y-543067D01*
X2244Y-543009D01*
X2164Y-542947D01*
X2086Y-542882D01*
X2010Y-542815D01*
X1937Y-542745D01*
X1867Y-542672D01*
X1800Y-542596D01*
X1735Y-542518D01*
X1673Y-542438D01*
X1615Y-542355D01*
X1559Y-542270D01*
X1507Y-542184D01*
X1458Y-542095D01*
X1412Y-542004D01*
X1370Y-541912D01*
X1331Y-541819D01*
X1296Y-541724D01*
X1264Y-541627D01*
X1236Y-541530D01*
X1212Y-541432D01*
X1191Y-541333D01*
X1174Y-541233D01*
X1161Y-541132D01*
X1152Y-541031D01*
X1146Y-540930D01*
X1144Y-540829D01*
X1144Y-536313D01*
X1146Y-536194D01*
X1152Y-536074D01*
X1162Y-535955D01*
X1176Y-535837D01*
X1193Y-535718D01*
X1215Y-535601D01*
X1240Y-535484D01*
X1270Y-535369D01*
X1303Y-535254D01*
X1340Y-535140D01*
X1380Y-535028D01*
X1425Y-534917D01*
X1473Y-534808D01*
X1524Y-534700D01*
X1579Y-534594D01*
X1638Y-534490D01*
X1700Y-534388D01*
X1765Y-534288D01*
X1834Y-534190D01*
X1906Y-534094D01*
X1981Y-534001D01*
X2058Y-533911D01*
X2139Y-533823D01*
X2223Y-533738D01*
X2310Y-533656D01*
X2399Y-533576D01*
X2491Y-533500D01*
X2585Y-533426D01*
X2682Y-533356D01*
X2780Y-533289D01*
X2881Y-533225D01*
X2985Y-533165D01*
X3090Y-533108D01*
X3197Y-533055D01*
X3305Y-533005D01*
X3415Y-532959D01*
X3527Y-532917D01*
X3640Y-532878D01*
X3754Y-532843D01*
X3869Y-532812D01*
X3986Y-532784D01*
X4103Y-532761D01*
X4220Y-532741D01*
X4339Y-532725D01*
X4458Y-532713D01*
X4577Y-532705D01*
X4696Y-532701D01*
X4816Y-532701D01*
X4935Y-532705D01*
X5054Y-532713D01*
X5173Y-532725D01*
X5292Y-532741D01*
X5409Y-532761D01*
X5526Y-532784D01*
X5643Y-532812D01*
X5758Y-532843D01*
X5872Y-532878D01*
X5985Y-532917D01*
X6097Y-532959D01*
X6207Y-533005D01*
X6315Y-533055D01*
X6422Y-533108D01*
X6527Y-533165D01*
X6631Y-533225D01*
X6732Y-533289D01*
X6830Y-533356D01*
X6927Y-533426D01*
X7021Y-533500D01*
X7113Y-533576D01*
X7202Y-533656D01*
X7289Y-533738D01*
X7373Y-533823D01*
X7454Y-533911D01*
X7531Y-534001D01*
X7606Y-534094D01*
X7678Y-534190D01*
X7747Y-534288D01*
X7812Y-534388D01*
X7874Y-534490D01*
X7933Y-534594D01*
X7988Y-534700D01*
X8039Y-534808D01*
X8087Y-534917D01*
X8132Y-535028D01*
X8172Y-535140D01*
X8209Y-535254D01*
X8242Y-535369D01*
X8272Y-535484D01*
X8297Y-535601D01*
X8319Y-535718D01*
X8336Y-535837D01*
X8350Y-535955D01*
X8360Y-536074D01*
X8366Y-536194D01*
X8368Y-536313D01*
X8369Y-536313D02*
X8369Y-538119D01*
X1144Y-538119D01*
X15297Y-543538D02*
X15297Y-532701D01*
X20716Y-532701D01*
X20716Y-534507D01*
X34768Y-527282D02*
X34768Y-543538D01*
X40187Y-536313D02*
X34768Y-527282D01*
X40187Y-536313D02*
X45606Y-527282D01*
X45606Y-543538D01*
X55436Y-543538D02*
X59952Y-543538D01*
X55436Y-543538D02*
X55335Y-543536D01*
X55234Y-543530D01*
X55133Y-543521D01*
X55032Y-543508D01*
X54932Y-543491D01*
X54833Y-543470D01*
X54735Y-543446D01*
X54638Y-543418D01*
X54541Y-543386D01*
X54446Y-543351D01*
X54353Y-543312D01*
X54261Y-543270D01*
X54170Y-543224D01*
X54082Y-543175D01*
X53995Y-543123D01*
X53910Y-543067D01*
X53827Y-543009D01*
X53747Y-542947D01*
X53669Y-542882D01*
X53593Y-542815D01*
X53520Y-542745D01*
X53450Y-542672D01*
X53383Y-542596D01*
X53318Y-542518D01*
X53256Y-542438D01*
X53198Y-542355D01*
X53142Y-542270D01*
X53090Y-542184D01*
X53041Y-542095D01*
X52995Y-542004D01*
X52953Y-541912D01*
X52914Y-541819D01*
X52879Y-541724D01*
X52847Y-541627D01*
X52819Y-541530D01*
X52795Y-541432D01*
X52774Y-541333D01*
X52757Y-541233D01*
X52744Y-541132D01*
X52735Y-541031D01*
X52729Y-540930D01*
X52727Y-540829D01*
X52727Y-536313D01*
X52729Y-536194D01*
X52735Y-536074D01*
X52745Y-535955D01*
X52759Y-535837D01*
X52776Y-535718D01*
X52798Y-535601D01*
X52823Y-535484D01*
X52853Y-535369D01*
X52886Y-535254D01*
X52923Y-535140D01*
X52963Y-535028D01*
X53008Y-534917D01*
X53056Y-534808D01*
X53107Y-534700D01*
X53162Y-534594D01*
X53221Y-534490D01*
X53283Y-534388D01*
X53348Y-534288D01*
X53417Y-534190D01*
X53489Y-534094D01*
X53564Y-534001D01*
X53641Y-533911D01*
X53722Y-533823D01*
X53806Y-533738D01*
X53893Y-533656D01*
X53982Y-533576D01*
X54074Y-533500D01*
X54168Y-533426D01*
X54265Y-533356D01*
X54363Y-533289D01*
X54464Y-533225D01*
X54568Y-533165D01*
X54673Y-533108D01*
X54780Y-533055D01*
X54888Y-533005D01*
X54998Y-532959D01*
X55110Y-532917D01*
X55223Y-532878D01*
X55337Y-532843D01*
X55452Y-532812D01*
X55569Y-532784D01*
X55686Y-532761D01*
X55803Y-532741D01*
X55922Y-532725D01*
X56041Y-532713D01*
X56160Y-532705D01*
X56279Y-532701D01*
X56399Y-532701D01*
X56518Y-532705D01*
X56637Y-532713D01*
X56756Y-532725D01*
X56875Y-532741D01*
X56992Y-532761D01*
X57109Y-532784D01*
X57226Y-532812D01*
X57341Y-532843D01*
X57455Y-532878D01*
X57568Y-532917D01*
X57680Y-532959D01*
X57790Y-533005D01*
X57898Y-533055D01*
X58005Y-533108D01*
X58110Y-533165D01*
X58214Y-533225D01*
X58315Y-533289D01*
X58413Y-533356D01*
X58510Y-533426D01*
X58604Y-533500D01*
X58696Y-533576D01*
X58785Y-533656D01*
X58872Y-533738D01*
X58956Y-533823D01*
X59037Y-533911D01*
X59114Y-534001D01*
X59189Y-534094D01*
X59261Y-534190D01*
X59330Y-534288D01*
X59395Y-534388D01*
X59457Y-534490D01*
X59516Y-534594D01*
X59571Y-534700D01*
X59622Y-534808D01*
X59670Y-534917D01*
X59715Y-535028D01*
X59755Y-535140D01*
X59792Y-535254D01*
X59825Y-535369D01*
X59855Y-535484D01*
X59880Y-535601D01*
X59902Y-535718D01*
X59919Y-535837D01*
X59933Y-535955D01*
X59943Y-536074D01*
X59949Y-536194D01*
X59951Y-536313D01*
X59952Y-536313D02*
X59952Y-538119D01*
X52727Y-538119D01*
X64977Y-532701D02*
X70395Y-532701D01*
X66783Y-527282D02*
X66783Y-540829D01*
X66785Y-540930D01*
X66791Y-541031D01*
X66800Y-541132D01*
X66813Y-541233D01*
X66830Y-541333D01*
X66851Y-541432D01*
X66875Y-541530D01*
X66903Y-541627D01*
X66935Y-541724D01*
X66970Y-541819D01*
X67009Y-541912D01*
X67051Y-542004D01*
X67097Y-542095D01*
X67146Y-542184D01*
X67198Y-542270D01*
X67254Y-542355D01*
X67312Y-542438D01*
X67374Y-542518D01*
X67439Y-542596D01*
X67506Y-542672D01*
X67576Y-542745D01*
X67649Y-542815D01*
X67725Y-542882D01*
X67803Y-542947D01*
X67883Y-543009D01*
X67966Y-543067D01*
X68051Y-543123D01*
X68138Y-543175D01*
X68226Y-543224D01*
X68317Y-543270D01*
X68409Y-543312D01*
X68502Y-543351D01*
X68597Y-543386D01*
X68694Y-543418D01*
X68791Y-543446D01*
X68889Y-543470D01*
X68988Y-543491D01*
X69088Y-543508D01*
X69189Y-543521D01*
X69290Y-543530D01*
X69391Y-543536D01*
X69492Y-543538D01*
X70395Y-543538D01*
X79261Y-537216D02*
X83325Y-537216D01*
X79261Y-537216D02*
X79149Y-537218D01*
X79038Y-537224D01*
X78927Y-537234D01*
X78816Y-537247D01*
X78706Y-537265D01*
X78597Y-537287D01*
X78488Y-537312D01*
X78380Y-537341D01*
X78274Y-537374D01*
X78168Y-537411D01*
X78064Y-537451D01*
X77962Y-537495D01*
X77861Y-537543D01*
X77762Y-537594D01*
X77664Y-537649D01*
X77569Y-537707D01*
X77476Y-537768D01*
X77385Y-537833D01*
X77296Y-537901D01*
X77210Y-537972D01*
X77127Y-538045D01*
X77046Y-538122D01*
X76967Y-538202D01*
X76892Y-538284D01*
X76820Y-538369D01*
X76750Y-538456D01*
X76684Y-538546D01*
X76621Y-538638D01*
X76561Y-538733D01*
X76505Y-538829D01*
X76452Y-538927D01*
X76403Y-539027D01*
X76357Y-539129D01*
X76315Y-539232D01*
X76276Y-539337D01*
X76241Y-539443D01*
X76210Y-539550D01*
X76183Y-539658D01*
X76159Y-539767D01*
X76140Y-539877D01*
X76124Y-539987D01*
X76112Y-540098D01*
X76104Y-540210D01*
X76100Y-540321D01*
X76100Y-540433D01*
X76104Y-540544D01*
X76112Y-540656D01*
X76124Y-540767D01*
X76140Y-540877D01*
X76159Y-540987D01*
X76183Y-541096D01*
X76210Y-541204D01*
X76241Y-541311D01*
X76276Y-541417D01*
X76315Y-541522D01*
X76357Y-541625D01*
X76403Y-541727D01*
X76452Y-541827D01*
X76505Y-541925D01*
X76561Y-542021D01*
X76621Y-542116D01*
X76684Y-542208D01*
X76750Y-542298D01*
X76820Y-542385D01*
X76892Y-542470D01*
X76967Y-542552D01*
X77046Y-542632D01*
X77127Y-542709D01*
X77210Y-542782D01*
X77296Y-542853D01*
X77385Y-542921D01*
X77476Y-542986D01*
X77569Y-543047D01*
X77664Y-543105D01*
X77762Y-543160D01*
X77861Y-543211D01*
X77962Y-543259D01*
X78064Y-543303D01*
X78168Y-543343D01*
X78274Y-543380D01*
X78380Y-543413D01*
X78488Y-543442D01*
X78597Y-543467D01*
X78706Y-543489D01*
X78816Y-543507D01*
X78927Y-543520D01*
X79038Y-543530D01*
X79149Y-543536D01*
X79261Y-543538D01*
X83325Y-543538D01*
X83325Y-535410D01*
X83323Y-535309D01*
X83317Y-535208D01*
X83308Y-535107D01*
X83295Y-535006D01*
X83278Y-534906D01*
X83257Y-534807D01*
X83233Y-534709D01*
X83205Y-534612D01*
X83173Y-534515D01*
X83138Y-534420D01*
X83099Y-534327D01*
X83057Y-534235D01*
X83011Y-534144D01*
X82962Y-534056D01*
X82910Y-533969D01*
X82854Y-533884D01*
X82796Y-533801D01*
X82734Y-533721D01*
X82669Y-533643D01*
X82602Y-533567D01*
X82532Y-533494D01*
X82459Y-533424D01*
X82383Y-533357D01*
X82305Y-533292D01*
X82225Y-533230D01*
X82142Y-533172D01*
X82057Y-533116D01*
X81971Y-533064D01*
X81882Y-533015D01*
X81791Y-532969D01*
X81699Y-532927D01*
X81606Y-532888D01*
X81511Y-532853D01*
X81414Y-532821D01*
X81317Y-532793D01*
X81219Y-532769D01*
X81120Y-532748D01*
X81020Y-532731D01*
X80919Y-532718D01*
X80818Y-532709D01*
X80717Y-532703D01*
X80616Y-532701D01*
X77004Y-532701D01*
X90479Y-527282D02*
X90479Y-540829D01*
X90481Y-540930D01*
X90487Y-541031D01*
X90496Y-541132D01*
X90509Y-541233D01*
X90526Y-541333D01*
X90547Y-541432D01*
X90571Y-541530D01*
X90599Y-541627D01*
X90631Y-541724D01*
X90666Y-541819D01*
X90705Y-541912D01*
X90747Y-542004D01*
X90793Y-542095D01*
X90842Y-542184D01*
X90894Y-542270D01*
X90950Y-542355D01*
X91008Y-542438D01*
X91070Y-542518D01*
X91135Y-542596D01*
X91202Y-542672D01*
X91272Y-542745D01*
X91345Y-542815D01*
X91421Y-542882D01*
X91499Y-542947D01*
X91579Y-543009D01*
X91662Y-543067D01*
X91747Y-543123D01*
X91834Y-543175D01*
X91922Y-543224D01*
X92013Y-543270D01*
X92105Y-543312D01*
X92198Y-543351D01*
X92293Y-543386D01*
X92390Y-543418D01*
X92487Y-543446D01*
X92585Y-543470D01*
X92684Y-543491D01*
X92784Y-543508D01*
X92885Y-543521D01*
X92986Y-543530D01*
X93087Y-543536D01*
X93188Y-543538D01*
D12*
X-200000Y-95000D03*
D15*
X-176500Y186960D03*
X72540Y167500D03*
X72540Y147500D03*
X147460Y167500D03*
X132500Y107540D03*
X82500Y107540D03*
X258965Y120750D03*
X265160Y127250D03*
X258965Y153250D03*
X258965Y172750D03*
X311035Y146750D03*
X113460Y-154000D03*
X113460Y-226000D03*
X-210000Y161540D03*
X-188000Y178460D03*
X-252000Y178460D03*
X313000Y243710D03*
X287000Y243710D03*
X263000Y243710D03*
X237000Y243710D03*
X155540Y-135000D03*
X204460Y-135000D03*
X-56960Y22700D03*
X-56960Y-53500D03*
X-160400Y-36110D03*
X155540Y-275000D03*
X204460Y-275000D03*
X155540Y-205000D03*
X204460Y-205000D03*
X364540Y-215000D03*
X-226540Y-154000D03*
X-226540Y-226000D03*
X253460Y-154000D03*
X253460Y-226000D03*
X80000Y253253D03*
X-154460Y-225000D03*
X-105540Y-225000D03*
X-256539Y70000D03*
X-154460Y-125000D03*
X-105540Y-125000D03*
X56960Y-2700D03*
X56960Y73500D03*
X262683Y32250D03*
X296314Y-52500D03*
X288856Y-57500D03*
X8851Y110000D03*
X211150Y85000D03*
X335000Y86150D03*
X-228686Y-67500D03*
X-342140Y171940D03*
X225000Y206150D03*
X-295000Y86150D03*
X-225000Y86150D03*
X-268686Y-52500D03*
X-276144Y-57500D03*
X225000Y126150D03*
X8851Y170000D03*
X-287960Y-237250D03*
X211150Y195000D03*
X156150Y250000D03*
X-268686Y-22500D03*
X187500Y70000D03*
X207500Y-15000D03*
X110000Y112500D03*
X247500Y200000D03*
X150000Y-5000D03*
D16*
X-15000Y17500D02*
X155000Y187500D01*
D15*
X155000Y187500D03*
X-15000Y17500D03*
X-240000Y107500D03*
X172500Y182500D03*
X225000Y173851D03*
X341460Y-165000D03*
X-201314Y-52500D03*
X237915Y179250D03*
X332085Y127250D03*
X335000Y53851D03*
X49840Y152500D03*
X170160Y157500D03*
X170160Y132500D03*
X127500Y84840D03*
X77500Y84840D03*
X-241314Y-27500D03*
X178851Y85000D03*
X41150Y110000D03*
X-287960Y-162750D03*
X323686Y-62500D03*
X331144Y-67500D03*
X320117Y77750D03*
X-227300Y225740D03*
X-235000Y-47500D03*
X-235000Y-32500D03*
X77500Y142500D03*
X-27500Y162500D03*
X-230000Y-117500D03*
D16*
X92500Y110000D02*
X97500Y105000D01*
X97500Y100000D01*
X150000Y47500D01*
X150000Y2500D01*
X145000Y-2500D01*
X145000Y-25000D01*
D15*
X92500Y110000D03*
X145000Y-25000D03*
X295000Y-15000D03*
X87500Y175000D03*
X27500Y92500D03*
X-102500Y67500D03*
D16*
X-17500Y-37500D02*
X97500Y77500D01*
X-17500Y-37500D02*
X-117500Y-37500D01*
D15*
X97500Y77500D03*
X-117500Y-37500D03*
D16*
X40000Y85000D02*
X40000Y87500D01*
X40000Y85000D02*
X-72500Y-27500D01*
X-105000Y-27500D01*
D15*
X40000Y87500D03*
X-105000Y-27500D03*
X290000Y70000D03*
X282500Y62500D03*
X342500Y135000D03*
X352500Y135000D03*
D17*
X-236554Y79500D03*
X-384445Y-190000D03*
X-230000Y123555D03*
X-395000Y-102500D03*
X-262580Y105000D03*
D18*
X-250000Y92420D01*
X-250000Y90000D01*
D15*
X302500Y172500D03*
X292500Y175000D03*
D16*
X285000Y-60000D02*
X285000Y-62500D01*
X285000Y-60000D02*
X282500Y-57500D01*
X282500Y-52500D01*
X285000Y-50000D01*
X285000Y-20000D01*
X242500Y22500D01*
X242500Y97500D01*
D15*
X285000Y-62500D03*
X242500Y97500D03*
X-240000Y-62500D03*
X-240000Y-15000D03*
X332500Y-15000D03*
X327500Y45000D03*
X197500Y72500D03*
X277500Y37500D03*
D16*
X-32500Y50000D02*
X-105000Y50000D01*
X-32500Y50000D02*
X87500Y170000D01*
X92500Y170000D01*
X120000Y197500D01*
X157500Y197500D01*
X167500Y187500D01*
X182500Y187500D01*
X295000Y75000D01*
D15*
X-105000Y50000D03*
X295000Y75000D03*
X192500Y37500D03*
X20000Y210000D03*
X-307500Y185000D03*
X160000Y0D03*
X142500Y17500D03*
X-277500Y227500D03*
X202500Y47500D03*
X30000Y220000D03*
X-260000Y177500D03*
X217500Y62500D03*
X-105000Y102500D03*
X182500Y57500D03*
X197500Y42500D03*
D17*
X-335555Y-190000D03*
X-312945Y-222750D03*
X-283446Y79500D03*
X288000Y218805D03*
X-235000Y-85000D03*
X-200000Y-70200D03*
D18*
X-229930Y-79930D02*
X-235000Y-85000D01*
X-229930Y-79930D02*
X-223537Y-79930D01*
X-213807Y-70200D02*
X-200000Y-70200D01*
X-213807Y-70200D02*
X-223537Y-79930D01*
D15*
X137500Y30000D03*
X102500Y-75000D03*
X145000Y25000D03*
X165000Y-15000D03*
X12500Y155000D03*
X-2500Y147500D03*
X-2500Y-85000D03*
D16*
X102500Y100000D02*
X102500Y110000D01*
X102500Y100000D02*
X155000Y47500D01*
X155000Y-15000D01*
D15*
X102500Y110000D03*
X155000Y-15000D03*
X45000Y137500D03*
X92500Y-80000D03*
X172500Y117500D03*
X215000Y-15000D03*
D16*
X142500Y65000D02*
X142500Y115000D01*
X142500Y65000D02*
X222500Y-15000D01*
D15*
X142500Y115000D03*
X222500Y-15000D03*
X172500Y125000D03*
X287500Y-15000D03*
X92500Y-62500D03*
X-105000Y82500D03*
D16*
X310000Y-72500D02*
X310000Y-77500D01*
X310000Y-72500D02*
X290000Y-52500D01*
X290000Y-27500D01*
X300000Y-17500D01*
X300000Y-12500D01*
X247500Y40000D01*
X247500Y100000D01*
X227500Y120000D01*
X225000Y120000D01*
X160000Y185000D01*
X160000Y190000D01*
X157500Y192500D01*
X120000Y192500D01*
X85000Y157500D01*
D15*
X310000Y-77500D03*
X85000Y157500D03*
X-250000Y-87500D03*
X-260000Y-97500D03*
X-255000Y-47500D03*
X-312500Y-117500D03*
X-255000Y-82500D03*
X-250000Y-137500D03*
X-272500Y-62500D03*
X-322500Y-112500D03*
X345000Y-15000D03*
X265000Y135000D03*
D16*
X-300000Y-115000D02*
X-300000Y-145000D01*
X-300000Y-115000D02*
X-237500Y-52500D01*
X-230000Y-52500D01*
X-187500Y-10000D01*
X-170000Y-10000D01*
X-145000Y15000D01*
X-145000Y32500D01*
X2500Y180000D01*
X15000Y180000D01*
D15*
X-300000Y-145000D03*
X15000Y180000D03*
X-15000Y185000D03*
X7500Y162500D03*
X-47500Y177500D03*
X25000Y100000D03*
D16*
X-122500Y-35000D02*
X-122500Y-42500D01*
X-122500Y-35000D02*
X-120000Y-32500D01*
X-72500Y-32500D01*
X90000Y130000D01*
D15*
X-122500Y-42500D03*
X90000Y130000D03*
X-255000Y-7500D03*
D17*
X-384445Y-165000D03*
X-330000Y-79841D03*
X-315000Y-61985D03*
X-200000Y-62580D03*
M02*
