G04 EAGLE Gerber RS-274X export*
G75*
%MOMM*%
%FSLAX34Y34*%
%LPD*%
%INBottom Inner Metal*%
%IPPOS*%
%AMOC8*
5,1,8,0,0,1.08239X$1,22.5*%
G01*
%ADD10C,1.500000*%
%ADD11C,0.635000*%
%ADD12C,0.454000*%


D10*
X-100000Y230000D03*
X-50000Y230000D03*
X0Y230000D03*
X50000Y230000D03*
X0Y-30000D03*
X110000Y230000D03*
D11*
X12946Y-80000D03*
X74055Y-124250D03*
X40000Y-6554D03*
X90000Y-6554D03*
X-47055Y-80000D03*
X-90000Y-6554D03*
X-40000Y-6554D03*
X14055Y-124250D03*
X13000Y-158805D03*
X57055Y20000D03*
X-105945Y-124250D03*
X-45945Y-124250D03*
X-72946Y20000D03*
X7500Y5409D03*
X2500Y-4152D03*
X-2500Y5409D03*
X-7500Y-4152D03*
X107055Y20000D03*
X-62500Y50555D03*
X-12500Y50555D03*
X37500Y50555D03*
X87500Y50555D03*
X-62500Y149445D03*
X-12500Y149445D03*
X37500Y149445D03*
X87500Y149445D03*
X-22946Y20000D03*
D12*
X-40000Y5000D03*
X-77500Y-32500D03*
D11*
X-14055Y-115750D03*
X-13000Y-158805D03*
X-74055Y-115750D03*
X45945Y-115750D03*
X-49500Y-53446D03*
X-99500Y-53446D03*
X-12946Y-80000D03*
X80500Y-53446D03*
X30500Y-53446D03*
X105945Y-115750D03*
X47055Y-80000D03*
M02*
