M48
;GenerationSoftware,Autodesk,EAGLE,9.3.0*%
;CreationDate,2019-05-20T19:58:36Z*%
FMAT,2
ICI,OFF
METRIC,TZ,000.000
T4C0.200
T3C0.381
T2C1.000
T1C3.200
%
G90
M71
T1
X7500Y26000
X2500Y26000
X-2500Y26000
X-7500Y26000
X7500Y19000
X2500Y19000
X-7500Y19000
X-2500Y19000
T2
X11000Y23000
X0Y-3000
X5000Y23000
X0Y23000
X-5000Y23000
X-10000Y23000
T3
X250Y-415
X-250Y541
X-750Y-415
X10705Y2000
X-6250Y5056
X-1250Y5056
X3750Y5056
X8750Y5056
X-6250Y14944
X-1250Y14944
X3750Y14944
X8750Y14944
X-2295Y2000
X1295Y-8000
X7405Y-12425
X-1405Y-11575
X-1300Y-15880
X-7405Y-11575
X4595Y-11575
X-4950Y-5345
X-9950Y-5345
X-1295Y-8000
X8050Y-5345
X3050Y-5345
X10595Y-11575
X4705Y-8000
X750Y541
X-7295Y2000
X-4595Y-12425
X-10595Y-12425
X5705Y2000
X1300Y-15880
X1405Y-12425
X-4000Y-655
X-9000Y-655
X-4705Y-8000
X9000Y-655
X4000Y-655
T4
X-7750Y-3250
X-4000Y500
M30