G04 EAGLE Gerber RS-274X export*
G75*
%MOMM*%
%FSLAX34Y34*%
%LPD*%
%INComponent side*%
%IPPOS*%
%AMOC8*
5,1,8,0,0,1.08239X$1,22.5*%
G01*
%ADD10R,1.008800X1.015300*%
%ADD11R,0.850000X0.650000*%
%ADD12R,0.550000X1.200000*%
%ADD13R,0.339100X0.790000*%
%ADD14R,0.400000X1.350000*%
%ADD15R,1.900000X1.900000*%
%ADD16R,1.800000X1.900000*%
%ADD17R,2.100000X1.600000*%
%ADD18R,1.200000X1.800000*%
%ADD19R,1.500000X1.800000*%
%ADD20C,1.500000*%
%ADD21C,1.500000*%
%ADD22C,0.508000*%
%ADD23C,0.635000*%
%ADD24C,0.127000*%
%ADD25C,0.454000*%

G36*
X-102170Y1917D02*
X-102170Y1917D01*
X-102104Y1919D01*
X-102061Y1937D01*
X-102014Y1945D01*
X-101957Y1979D01*
X-101897Y2004D01*
X-101862Y2035D01*
X-101821Y2060D01*
X-101779Y2111D01*
X-101731Y2155D01*
X-101709Y2197D01*
X-101680Y2234D01*
X-101659Y2296D01*
X-101628Y2355D01*
X-101620Y2409D01*
X-101608Y2446D01*
X-101609Y2486D01*
X-101601Y2540D01*
X-101601Y13019D01*
X-101612Y13083D01*
X-101614Y13149D01*
X-101632Y13193D01*
X-101640Y13239D01*
X-101674Y13296D01*
X-101699Y13357D01*
X-101730Y13392D01*
X-101755Y13433D01*
X-101806Y13474D01*
X-101850Y13523D01*
X-101892Y13544D01*
X-101929Y13574D01*
X-101991Y13595D01*
X-102050Y13625D01*
X-102104Y13633D01*
X-102141Y13646D01*
X-102181Y13645D01*
X-102235Y13653D01*
X-103103Y13653D01*
X-103848Y14397D01*
X-103848Y25603D01*
X-103103Y26347D01*
X-98050Y26347D01*
X-98008Y26355D01*
X-97965Y26353D01*
X-97898Y26374D01*
X-97829Y26387D01*
X-97792Y26408D01*
X-97752Y26421D01*
X-97679Y26475D01*
X-97636Y26501D01*
X-97622Y26517D01*
X-97601Y26533D01*
X-91627Y32508D01*
X-91602Y32542D01*
X-91571Y32571D01*
X-91539Y32634D01*
X-91498Y32692D01*
X-91488Y32733D01*
X-91468Y32771D01*
X-91455Y32860D01*
X-91442Y32909D01*
X-91445Y32930D01*
X-91441Y32956D01*
X-91441Y53095D01*
X-91452Y53160D01*
X-91454Y53226D01*
X-91472Y53269D01*
X-91480Y53316D01*
X-91514Y53373D01*
X-91539Y53433D01*
X-91570Y53468D01*
X-91595Y53509D01*
X-91646Y53551D01*
X-91690Y53599D01*
X-91732Y53621D01*
X-91769Y53650D01*
X-91831Y53671D01*
X-91890Y53702D01*
X-91944Y53710D01*
X-91981Y53722D01*
X-92021Y53721D01*
X-92075Y53729D01*
X-94026Y53729D01*
X-94771Y54474D01*
X-94771Y73526D01*
X-94026Y74271D01*
X-91440Y74271D01*
X-91375Y74282D01*
X-91309Y74284D01*
X-91266Y74302D01*
X-91219Y74310D01*
X-91162Y74344D01*
X-91102Y74369D01*
X-91067Y74400D01*
X-91026Y74425D01*
X-90984Y74476D01*
X-90936Y74520D01*
X-90914Y74562D01*
X-90885Y74599D01*
X-90864Y74661D01*
X-90833Y74720D01*
X-90825Y74774D01*
X-90813Y74811D01*
X-90814Y74851D01*
X-90806Y74905D01*
X-90806Y125095D01*
X-90817Y125160D01*
X-90819Y125226D01*
X-90837Y125269D01*
X-90845Y125316D01*
X-90879Y125373D01*
X-90904Y125433D01*
X-90935Y125468D01*
X-90960Y125509D01*
X-91011Y125551D01*
X-91055Y125599D01*
X-91097Y125621D01*
X-91134Y125650D01*
X-91196Y125671D01*
X-91255Y125702D01*
X-91309Y125710D01*
X-91346Y125722D01*
X-91386Y125721D01*
X-91440Y125729D01*
X-95526Y125729D01*
X-96271Y126474D01*
X-96271Y140784D01*
X-96278Y140826D01*
X-96276Y140868D01*
X-96298Y140935D01*
X-96310Y141005D01*
X-96332Y141041D01*
X-96345Y141082D01*
X-96399Y141154D01*
X-96425Y141198D01*
X-96441Y141211D01*
X-96457Y141232D01*
X-103506Y148282D01*
X-103506Y221535D01*
X-103515Y221588D01*
X-103515Y221642D01*
X-103535Y221698D01*
X-103545Y221756D01*
X-103573Y221802D01*
X-103591Y221853D01*
X-103630Y221898D01*
X-103660Y221949D01*
X-103702Y221983D01*
X-103737Y222024D01*
X-103798Y222061D01*
X-103834Y222090D01*
X-103863Y222100D01*
X-103897Y222121D01*
X-104968Y222565D01*
X-107435Y225032D01*
X-108771Y228255D01*
X-108771Y231745D01*
X-107435Y234968D01*
X-104968Y237435D01*
X-101745Y238771D01*
X-98255Y238771D01*
X-95032Y237435D01*
X-92565Y234968D01*
X-91229Y231745D01*
X-91229Y228255D01*
X-92565Y225032D01*
X-95032Y222565D01*
X-95493Y222374D01*
X-95538Y222344D01*
X-95588Y222324D01*
X-95632Y222284D01*
X-95682Y222252D01*
X-95714Y222209D01*
X-95754Y222173D01*
X-95781Y222120D01*
X-95816Y222073D01*
X-95832Y222021D01*
X-95857Y221973D01*
X-95867Y221903D01*
X-95880Y221858D01*
X-95878Y221827D01*
X-95884Y221788D01*
X-95884Y151701D01*
X-95877Y151659D01*
X-95879Y151617D01*
X-95857Y151550D01*
X-95845Y151480D01*
X-95823Y151444D01*
X-95810Y151403D01*
X-95756Y151331D01*
X-95730Y151287D01*
X-95714Y151274D01*
X-95698Y151253D01*
X-90902Y146457D01*
X-90868Y146432D01*
X-90839Y146401D01*
X-90776Y146369D01*
X-90718Y146328D01*
X-90677Y146318D01*
X-90639Y146298D01*
X-90550Y146285D01*
X-90501Y146272D01*
X-90480Y146275D01*
X-90454Y146271D01*
X-79474Y146271D01*
X-78729Y145526D01*
X-78729Y126474D01*
X-79474Y125729D01*
X-82550Y125729D01*
X-82615Y125718D01*
X-82681Y125716D01*
X-82724Y125698D01*
X-82771Y125690D01*
X-82828Y125656D01*
X-82888Y125631D01*
X-82923Y125600D01*
X-82964Y125575D01*
X-83006Y125524D01*
X-83054Y125480D01*
X-83076Y125438D01*
X-83105Y125401D01*
X-83126Y125339D01*
X-83157Y125280D01*
X-83165Y125226D01*
X-83177Y125189D01*
X-83176Y125149D01*
X-83184Y125095D01*
X-83184Y74905D01*
X-83173Y74840D01*
X-83171Y74774D01*
X-83153Y74731D01*
X-83145Y74684D01*
X-83111Y74627D01*
X-83086Y74567D01*
X-83055Y74532D01*
X-83030Y74491D01*
X-82979Y74449D01*
X-82935Y74401D01*
X-82893Y74379D01*
X-82856Y74350D01*
X-82794Y74329D01*
X-82735Y74298D01*
X-82681Y74290D01*
X-82644Y74278D01*
X-82604Y74279D01*
X-82550Y74271D01*
X-80974Y74271D01*
X-80229Y73526D01*
X-80229Y54474D01*
X-80974Y53729D01*
X-83185Y53729D01*
X-83250Y53718D01*
X-83316Y53716D01*
X-83359Y53698D01*
X-83406Y53690D01*
X-83463Y53656D01*
X-83523Y53631D01*
X-83558Y53600D01*
X-83599Y53575D01*
X-83641Y53524D01*
X-83689Y53480D01*
X-83711Y53438D01*
X-83740Y53401D01*
X-83761Y53339D01*
X-83792Y53280D01*
X-83800Y53226D01*
X-83812Y53189D01*
X-83811Y53149D01*
X-83819Y53095D01*
X-83819Y29537D01*
X-84656Y28700D01*
X-84707Y28627D01*
X-84763Y28558D01*
X-84770Y28535D01*
X-84784Y28516D01*
X-84806Y28430D01*
X-84835Y28345D01*
X-84834Y28321D01*
X-84840Y28298D01*
X-84831Y28210D01*
X-84828Y28121D01*
X-84819Y28099D01*
X-84817Y28075D01*
X-84777Y27995D01*
X-84744Y27913D01*
X-84728Y27896D01*
X-84717Y27874D01*
X-84652Y27813D01*
X-84592Y27747D01*
X-84571Y27737D01*
X-84554Y27720D01*
X-84472Y27686D01*
X-84393Y27645D01*
X-84367Y27641D01*
X-84347Y27633D01*
X-84297Y27631D01*
X-84207Y27617D01*
X-83736Y27617D01*
X-83736Y20635D01*
X-83725Y20570D01*
X-83723Y20505D01*
X-83705Y20461D01*
X-83696Y20414D01*
X-83663Y20358D01*
X-83638Y20297D01*
X-83606Y20262D01*
X-83582Y20221D01*
X-83531Y20180D01*
X-83487Y20131D01*
X-83445Y20109D01*
X-83408Y20080D01*
X-83346Y20059D01*
X-83287Y20029D01*
X-83233Y20020D01*
X-83196Y20008D01*
X-83156Y20009D01*
X-83102Y20001D01*
X-82466Y20001D01*
X-82466Y19999D01*
X-83102Y19999D01*
X-83167Y19987D01*
X-83232Y19986D01*
X-83276Y19968D01*
X-83323Y19959D01*
X-83380Y19926D01*
X-83440Y19901D01*
X-83475Y19869D01*
X-83516Y19845D01*
X-83557Y19794D01*
X-83606Y19750D01*
X-83628Y19708D01*
X-83657Y19671D01*
X-83678Y19609D01*
X-83708Y19550D01*
X-83717Y19496D01*
X-83729Y19459D01*
X-83728Y19419D01*
X-83736Y19365D01*
X-83736Y12383D01*
X-87846Y12383D01*
X-88492Y12556D01*
X-89071Y12890D01*
X-89544Y13363D01*
X-89879Y13943D01*
X-89973Y14297D01*
X-89976Y14302D01*
X-89977Y14309D01*
X-90023Y14402D01*
X-90069Y14500D01*
X-90073Y14504D01*
X-90076Y14510D01*
X-90153Y14582D01*
X-90229Y14657D01*
X-90235Y14659D01*
X-90239Y14664D01*
X-90337Y14705D01*
X-90434Y14748D01*
X-90440Y14749D01*
X-90446Y14751D01*
X-90552Y14756D01*
X-90658Y14763D01*
X-90664Y14761D01*
X-90670Y14761D01*
X-90771Y14729D01*
X-90873Y14698D01*
X-90878Y14694D01*
X-90884Y14692D01*
X-91035Y14581D01*
X-91963Y13653D01*
X-93345Y13653D01*
X-93410Y13641D01*
X-93476Y13639D01*
X-93519Y13621D01*
X-93566Y13613D01*
X-93623Y13580D01*
X-93683Y13555D01*
X-93718Y13523D01*
X-93759Y13499D01*
X-93801Y13448D01*
X-93849Y13403D01*
X-93871Y13361D01*
X-93900Y13325D01*
X-93921Y13263D01*
X-93952Y13204D01*
X-93960Y13149D01*
X-93972Y13112D01*
X-93971Y13073D01*
X-93979Y13019D01*
X-93979Y2540D01*
X-93968Y2475D01*
X-93966Y2409D01*
X-93948Y2366D01*
X-93940Y2319D01*
X-93906Y2262D01*
X-93881Y2202D01*
X-93850Y2167D01*
X-93825Y2126D01*
X-93774Y2084D01*
X-93730Y2036D01*
X-93688Y2014D01*
X-93651Y1985D01*
X-93589Y1964D01*
X-93530Y1933D01*
X-93476Y1925D01*
X-93439Y1913D01*
X-93399Y1914D01*
X-93345Y1906D01*
X-60040Y1906D01*
X-59975Y1917D01*
X-59909Y1919D01*
X-59866Y1937D01*
X-59819Y1945D01*
X-59762Y1979D01*
X-59702Y2004D01*
X-59667Y2035D01*
X-59626Y2060D01*
X-59584Y2111D01*
X-59536Y2155D01*
X-59514Y2197D01*
X-59485Y2234D01*
X-59464Y2296D01*
X-59433Y2355D01*
X-59425Y2409D01*
X-59413Y2446D01*
X-59414Y2486D01*
X-59406Y2540D01*
X-59406Y11448D01*
X-59413Y11490D01*
X-59411Y11532D01*
X-59433Y11599D01*
X-59445Y11669D01*
X-59467Y11705D01*
X-59480Y11746D01*
X-59534Y11818D01*
X-59560Y11862D01*
X-59576Y11875D01*
X-59592Y11896D01*
X-73859Y26164D01*
X-73908Y26198D01*
X-73950Y26239D01*
X-73999Y26261D01*
X-74043Y26292D01*
X-74101Y26306D01*
X-74155Y26331D01*
X-74208Y26334D01*
X-74260Y26348D01*
X-74319Y26341D01*
X-74379Y26345D01*
X-74430Y26330D01*
X-74483Y26324D01*
X-74537Y26298D01*
X-74594Y26281D01*
X-74636Y26249D01*
X-74684Y26225D01*
X-74725Y26181D01*
X-74773Y26146D01*
X-74802Y26100D01*
X-74838Y26062D01*
X-74861Y26007D01*
X-74894Y25956D01*
X-74905Y25904D01*
X-74926Y25855D01*
X-74928Y25795D01*
X-74941Y25737D01*
X-74934Y25674D01*
X-74936Y25631D01*
X-74925Y25598D01*
X-74920Y25551D01*
X-74882Y25411D01*
X-74882Y21269D01*
X-81198Y21269D01*
X-81198Y27617D01*
X-77088Y27617D01*
X-76442Y27444D01*
X-75863Y27110D01*
X-75488Y26735D01*
X-75415Y26684D01*
X-75346Y26628D01*
X-75324Y26621D01*
X-75304Y26607D01*
X-75218Y26585D01*
X-75134Y26556D01*
X-75110Y26557D01*
X-75087Y26551D01*
X-74998Y26560D01*
X-74909Y26563D01*
X-74888Y26572D01*
X-74864Y26574D01*
X-74784Y26614D01*
X-74702Y26647D01*
X-74684Y26663D01*
X-74663Y26674D01*
X-74602Y26739D01*
X-74536Y26799D01*
X-74525Y26820D01*
X-74509Y26837D01*
X-74474Y26919D01*
X-74433Y26998D01*
X-74430Y27024D01*
X-74421Y27044D01*
X-74419Y27094D01*
X-74406Y27184D01*
X-74406Y148289D01*
X-57092Y165604D01*
X-57067Y165638D01*
X-57036Y165667D01*
X-57004Y165730D01*
X-56963Y165788D01*
X-56953Y165829D01*
X-56933Y165867D01*
X-56920Y165956D01*
X-56907Y166005D01*
X-56910Y166026D01*
X-56906Y166052D01*
X-56906Y183457D01*
X-56924Y183556D01*
X-56938Y183655D01*
X-56943Y183666D01*
X-56945Y183678D01*
X-56996Y183764D01*
X-57044Y183853D01*
X-57053Y183861D01*
X-57060Y183871D01*
X-57137Y183934D01*
X-57213Y184000D01*
X-57225Y184005D01*
X-57234Y184012D01*
X-57329Y184044D01*
X-57423Y184080D01*
X-57435Y184080D01*
X-57446Y184084D01*
X-57546Y184081D01*
X-57647Y184082D01*
X-57659Y184078D01*
X-57671Y184077D01*
X-57763Y184040D01*
X-57858Y184005D01*
X-57867Y183998D01*
X-57878Y183993D01*
X-57953Y183925D01*
X-58029Y183860D01*
X-58036Y183849D01*
X-58044Y183842D01*
X-58065Y183801D01*
X-58126Y183699D01*
X-59740Y179803D01*
X-64803Y174740D01*
X-71419Y171999D01*
X-78581Y171999D01*
X-85197Y174740D01*
X-90260Y179803D01*
X-93001Y186419D01*
X-93001Y193581D01*
X-90260Y200197D01*
X-85197Y205260D01*
X-78581Y208001D01*
X-71419Y208001D01*
X-64803Y205260D01*
X-62988Y203445D01*
X-62915Y203394D01*
X-62846Y203338D01*
X-62824Y203331D01*
X-62804Y203317D01*
X-62718Y203295D01*
X-62634Y203267D01*
X-62610Y203267D01*
X-62587Y203261D01*
X-62498Y203271D01*
X-62409Y203273D01*
X-62387Y203282D01*
X-62364Y203285D01*
X-62284Y203324D01*
X-62202Y203357D01*
X-62184Y203373D01*
X-62163Y203384D01*
X-62102Y203449D01*
X-62036Y203509D01*
X-62025Y203530D01*
X-62009Y203547D01*
X-61974Y203629D01*
X-61933Y203708D01*
X-61930Y203735D01*
X-61921Y203754D01*
X-61919Y203804D01*
X-61906Y203894D01*
X-61906Y240789D01*
X-60789Y241906D01*
X-44211Y241906D01*
X-38094Y235789D01*
X-38094Y224211D01*
X-42908Y219396D01*
X-42933Y219362D01*
X-42964Y219333D01*
X-42996Y219270D01*
X-43037Y219212D01*
X-43047Y219171D01*
X-43067Y219133D01*
X-43080Y219044D01*
X-43093Y218995D01*
X-43090Y218974D01*
X-43094Y218948D01*
X-43094Y196543D01*
X-43076Y196444D01*
X-43062Y196345D01*
X-43057Y196334D01*
X-43055Y196322D01*
X-43004Y196236D01*
X-42956Y196147D01*
X-42947Y196139D01*
X-42940Y196129D01*
X-42863Y196066D01*
X-42787Y196000D01*
X-42775Y195995D01*
X-42766Y195988D01*
X-42671Y195956D01*
X-42577Y195920D01*
X-42565Y195920D01*
X-42554Y195916D01*
X-42454Y195919D01*
X-42353Y195918D01*
X-42341Y195922D01*
X-42329Y195923D01*
X-42237Y195960D01*
X-42142Y195995D01*
X-42133Y196002D01*
X-42122Y196007D01*
X-42047Y196075D01*
X-41971Y196140D01*
X-41964Y196151D01*
X-41956Y196158D01*
X-41935Y196199D01*
X-41874Y196301D01*
X-40260Y200197D01*
X-35197Y205260D01*
X-28581Y208001D01*
X-21419Y208001D01*
X-14803Y205260D01*
X-9740Y200197D01*
X-6999Y193581D01*
X-6999Y186419D01*
X-9740Y179803D01*
X-14803Y174740D01*
X-21419Y171999D01*
X-28581Y171999D01*
X-31138Y173058D01*
X-31236Y173080D01*
X-31333Y173105D01*
X-31345Y173104D01*
X-31357Y173106D01*
X-31457Y173092D01*
X-31557Y173082D01*
X-31567Y173077D01*
X-31579Y173075D01*
X-31668Y173027D01*
X-31758Y172982D01*
X-31766Y172974D01*
X-31776Y172968D01*
X-31843Y172892D01*
X-31912Y172819D01*
X-31916Y172808D01*
X-31924Y172799D01*
X-31960Y172705D01*
X-31999Y172612D01*
X-32000Y172601D01*
X-32004Y172589D01*
X-32005Y172489D01*
X-32009Y172388D01*
X-32005Y172377D01*
X-32006Y172365D01*
X-31971Y172270D01*
X-31940Y172175D01*
X-31933Y172164D01*
X-31929Y172154D01*
X-31899Y172119D01*
X-31829Y172024D01*
X-25594Y165789D01*
X-25594Y131052D01*
X-25587Y131010D01*
X-25589Y130968D01*
X-25567Y130901D01*
X-25555Y130831D01*
X-25533Y130795D01*
X-25520Y130754D01*
X-25466Y130681D01*
X-25440Y130638D01*
X-25424Y130625D01*
X-25409Y130604D01*
X-23623Y128819D01*
X-23550Y128768D01*
X-23481Y128712D01*
X-23459Y128704D01*
X-23439Y128690D01*
X-23353Y128668D01*
X-23269Y128640D01*
X-23245Y128640D01*
X-23222Y128635D01*
X-23133Y128644D01*
X-23044Y128646D01*
X-23022Y128655D01*
X-22999Y128658D01*
X-22919Y128697D01*
X-22837Y128731D01*
X-22819Y128747D01*
X-22798Y128757D01*
X-22737Y128822D01*
X-22671Y128882D01*
X-22660Y128903D01*
X-22644Y128920D01*
X-22609Y129002D01*
X-22568Y129082D01*
X-22565Y129108D01*
X-22556Y129127D01*
X-22554Y129177D01*
X-22541Y129267D01*
X-22541Y134731D01*
X-13769Y134731D01*
X-13769Y124459D01*
X-17733Y124459D01*
X-17821Y124443D01*
X-17909Y124434D01*
X-17930Y124424D01*
X-17954Y124420D01*
X-18030Y124374D01*
X-18110Y124335D01*
X-18127Y124318D01*
X-18147Y124305D01*
X-18203Y124236D01*
X-18264Y124172D01*
X-18273Y124150D01*
X-18288Y124131D01*
X-18317Y124047D01*
X-18352Y123965D01*
X-18353Y123941D01*
X-18360Y123919D01*
X-18358Y123830D01*
X-18362Y123741D01*
X-18354Y123718D01*
X-18354Y123694D01*
X-18320Y123612D01*
X-18293Y123527D01*
X-18277Y123506D01*
X-18269Y123487D01*
X-18235Y123449D01*
X-18181Y123377D01*
X-594Y105789D01*
X-594Y32051D01*
X-583Y31986D01*
X-581Y31920D01*
X-563Y31877D01*
X-555Y31830D01*
X-521Y31773D01*
X-496Y31713D01*
X-465Y31678D01*
X-441Y31637D01*
X-389Y31595D01*
X-345Y31547D01*
X-303Y31525D01*
X-266Y31496D01*
X-204Y31475D01*
X-145Y31444D01*
X-91Y31436D01*
X-54Y31424D01*
X-14Y31425D01*
X40Y31417D01*
X4862Y31417D01*
X4908Y31415D01*
X4953Y31403D01*
X5019Y31410D01*
X5085Y31407D01*
X5115Y31417D01*
X9722Y31417D01*
X10466Y30672D01*
X10466Y27540D01*
X10478Y27475D01*
X10480Y27409D01*
X10498Y27366D01*
X10506Y27319D01*
X10539Y27262D01*
X10564Y27202D01*
X10596Y27167D01*
X10620Y27126D01*
X10671Y27084D01*
X10716Y27036D01*
X10758Y27014D01*
X10794Y26985D01*
X10856Y26964D01*
X10915Y26933D01*
X10970Y26925D01*
X11007Y26913D01*
X11046Y26914D01*
X11100Y26906D01*
X18244Y26906D01*
X18332Y26922D01*
X18420Y26931D01*
X18441Y26941D01*
X18465Y26945D01*
X18541Y26991D01*
X18621Y27030D01*
X18637Y27047D01*
X18658Y27060D01*
X18714Y27129D01*
X18775Y27193D01*
X18784Y27215D01*
X18799Y27234D01*
X18828Y27318D01*
X18863Y27400D01*
X18864Y27424D01*
X18871Y27446D01*
X18869Y27535D01*
X18873Y27624D01*
X18865Y27647D01*
X18865Y27671D01*
X18831Y27753D01*
X18804Y27838D01*
X18788Y27859D01*
X18780Y27878D01*
X18746Y27916D01*
X18692Y27988D01*
X8889Y37792D01*
X8889Y53095D01*
X8878Y53160D01*
X8876Y53226D01*
X8858Y53269D01*
X8850Y53316D01*
X8816Y53373D01*
X8791Y53433D01*
X8760Y53468D01*
X8735Y53509D01*
X8684Y53551D01*
X8640Y53599D01*
X8598Y53621D01*
X8561Y53650D01*
X8499Y53671D01*
X8440Y53702D01*
X8386Y53710D01*
X8349Y53722D01*
X8309Y53721D01*
X8255Y53729D01*
X5974Y53729D01*
X5229Y54474D01*
X5229Y73526D01*
X5974Y74271D01*
X8255Y74271D01*
X8320Y74282D01*
X8386Y74284D01*
X8429Y74302D01*
X8476Y74310D01*
X8533Y74344D01*
X8593Y74369D01*
X8628Y74400D01*
X8669Y74425D01*
X8711Y74476D01*
X8759Y74520D01*
X8781Y74562D01*
X8810Y74599D01*
X8831Y74661D01*
X8862Y74720D01*
X8870Y74774D01*
X8882Y74811D01*
X8881Y74851D01*
X8889Y74905D01*
X8889Y125095D01*
X8878Y125160D01*
X8876Y125226D01*
X8858Y125269D01*
X8850Y125316D01*
X8816Y125373D01*
X8791Y125433D01*
X8760Y125468D01*
X8735Y125509D01*
X8684Y125551D01*
X8640Y125599D01*
X8598Y125621D01*
X8561Y125650D01*
X8499Y125671D01*
X8440Y125702D01*
X8386Y125710D01*
X8349Y125722D01*
X8309Y125721D01*
X8255Y125729D01*
X4474Y125729D01*
X3729Y126474D01*
X3729Y139209D01*
X3722Y139251D01*
X3724Y139293D01*
X3702Y139360D01*
X3690Y139430D01*
X3668Y139466D01*
X3655Y139507D01*
X3601Y139579D01*
X3575Y139623D01*
X3559Y139636D01*
X3543Y139657D01*
X-1377Y144577D01*
X-1450Y144628D01*
X-1519Y144684D01*
X-1541Y144692D01*
X-1561Y144705D01*
X-1647Y144728D01*
X-1731Y144756D01*
X-1755Y144755D01*
X-1778Y144761D01*
X-1867Y144752D01*
X-1956Y144750D01*
X-1978Y144741D01*
X-2001Y144738D01*
X-2081Y144699D01*
X-2163Y144665D01*
X-2181Y144649D01*
X-2202Y144639D01*
X-2263Y144574D01*
X-2329Y144514D01*
X-2340Y144493D01*
X-2356Y144475D01*
X-2391Y144394D01*
X-2432Y144314D01*
X-2435Y144288D01*
X-2444Y144269D01*
X-2446Y144218D01*
X-2459Y144129D01*
X-2459Y137269D01*
X-11231Y137269D01*
X-11231Y147541D01*
X-4665Y147541D01*
X-4609Y147526D01*
X-4573Y147523D01*
X-4539Y147511D01*
X-4462Y147513D01*
X-4386Y147507D01*
X-4351Y147517D01*
X-4314Y147518D01*
X-4244Y147546D01*
X-4169Y147567D01*
X-4140Y147588D01*
X-4107Y147602D01*
X-4050Y147654D01*
X-3988Y147699D01*
X-3968Y147729D01*
X-3941Y147753D01*
X-3906Y147822D01*
X-3863Y147885D01*
X-3855Y147921D01*
X-3838Y147953D01*
X-3823Y148055D01*
X-3812Y148104D01*
X-3814Y148119D01*
X-3811Y148138D01*
X-3811Y221661D01*
X-3820Y221715D01*
X-3820Y221769D01*
X-3840Y221824D01*
X-3850Y221882D01*
X-3878Y221929D01*
X-3896Y221980D01*
X-3935Y222025D01*
X-3965Y222075D01*
X-4007Y222109D01*
X-4042Y222151D01*
X-4103Y222187D01*
X-4139Y222217D01*
X-4168Y222227D01*
X-4202Y222247D01*
X-4968Y222565D01*
X-7435Y225032D01*
X-8771Y228255D01*
X-8771Y231745D01*
X-7435Y234968D01*
X-4968Y237435D01*
X-1745Y238771D01*
X1745Y238771D01*
X4968Y237435D01*
X7435Y234968D01*
X8771Y231745D01*
X8771Y228255D01*
X7435Y225032D01*
X4968Y222565D01*
X4202Y222247D01*
X4157Y222218D01*
X4107Y222198D01*
X4063Y222158D01*
X4013Y222126D01*
X3981Y222083D01*
X3941Y222046D01*
X3914Y221994D01*
X3879Y221947D01*
X3863Y221895D01*
X3838Y221847D01*
X3828Y221776D01*
X3815Y221732D01*
X3817Y221701D01*
X3811Y221661D01*
X3811Y150431D01*
X3818Y150389D01*
X3816Y150347D01*
X3838Y150280D01*
X3850Y150210D01*
X3872Y150174D01*
X3885Y150133D01*
X3939Y150060D01*
X3965Y150017D01*
X3981Y150004D01*
X3996Y149983D01*
X7523Y146457D01*
X7558Y146432D01*
X7586Y146401D01*
X7649Y146369D01*
X7707Y146328D01*
X7748Y146318D01*
X7786Y146298D01*
X7875Y146285D01*
X7924Y146272D01*
X7945Y146275D01*
X7971Y146271D01*
X20526Y146271D01*
X21271Y145526D01*
X21271Y126474D01*
X20526Y125729D01*
X17145Y125729D01*
X17080Y125718D01*
X17014Y125716D01*
X16971Y125698D01*
X16924Y125690D01*
X16867Y125656D01*
X16807Y125631D01*
X16772Y125600D01*
X16731Y125575D01*
X16689Y125524D01*
X16641Y125480D01*
X16619Y125438D01*
X16590Y125401D01*
X16569Y125339D01*
X16538Y125280D01*
X16530Y125226D01*
X16518Y125189D01*
X16519Y125149D01*
X16511Y125095D01*
X16511Y74905D01*
X16522Y74840D01*
X16524Y74774D01*
X16542Y74731D01*
X16550Y74684D01*
X16584Y74627D01*
X16609Y74567D01*
X16640Y74532D01*
X16665Y74491D01*
X16716Y74449D01*
X16760Y74401D01*
X16802Y74379D01*
X16839Y74350D01*
X16901Y74329D01*
X16960Y74298D01*
X17014Y74290D01*
X17051Y74278D01*
X17091Y74279D01*
X17145Y74271D01*
X19026Y74271D01*
X19771Y73526D01*
X19771Y54474D01*
X19026Y53729D01*
X17145Y53729D01*
X17080Y53718D01*
X17014Y53716D01*
X16971Y53698D01*
X16924Y53690D01*
X16867Y53656D01*
X16807Y53631D01*
X16772Y53600D01*
X16731Y53575D01*
X16689Y53524D01*
X16641Y53480D01*
X16619Y53438D01*
X16590Y53401D01*
X16569Y53339D01*
X16538Y53280D01*
X16530Y53226D01*
X16518Y53189D01*
X16519Y53149D01*
X16511Y53095D01*
X16511Y41211D01*
X16518Y41169D01*
X16516Y41127D01*
X16538Y41060D01*
X16550Y40990D01*
X16572Y40954D01*
X16585Y40913D01*
X16639Y40841D01*
X16665Y40797D01*
X16681Y40784D01*
X16697Y40763D01*
X30926Y26533D01*
X30961Y26509D01*
X30990Y26477D01*
X31053Y26445D01*
X31110Y26405D01*
X31151Y26394D01*
X31189Y26375D01*
X31279Y26362D01*
X31328Y26349D01*
X31348Y26351D01*
X31375Y26347D01*
X36926Y26347D01*
X37014Y26363D01*
X37103Y26372D01*
X37124Y26383D01*
X37147Y26387D01*
X37224Y26432D01*
X37304Y26472D01*
X37320Y26489D01*
X37340Y26501D01*
X37397Y26570D01*
X37458Y26635D01*
X37467Y26657D01*
X37482Y26675D01*
X37510Y26759D01*
X37545Y26842D01*
X37546Y26865D01*
X37554Y26888D01*
X37551Y26977D01*
X37555Y27066D01*
X37548Y27088D01*
X37547Y27112D01*
X37514Y27194D01*
X37486Y27279D01*
X37471Y27301D01*
X37463Y27320D01*
X37429Y27357D01*
X37375Y27430D01*
X25594Y39211D01*
X25594Y148289D01*
X42908Y165604D01*
X42933Y165638D01*
X42964Y165667D01*
X42996Y165730D01*
X43037Y165788D01*
X43047Y165829D01*
X43067Y165867D01*
X43080Y165956D01*
X43093Y166005D01*
X43090Y166026D01*
X43094Y166052D01*
X43094Y183457D01*
X43076Y183556D01*
X43062Y183655D01*
X43057Y183666D01*
X43055Y183678D01*
X43004Y183764D01*
X42956Y183853D01*
X42947Y183861D01*
X42940Y183871D01*
X42863Y183934D01*
X42787Y184000D01*
X42775Y184005D01*
X42766Y184012D01*
X42671Y184044D01*
X42577Y184080D01*
X42565Y184080D01*
X42554Y184084D01*
X42454Y184081D01*
X42353Y184082D01*
X42341Y184078D01*
X42329Y184077D01*
X42237Y184040D01*
X42142Y184005D01*
X42133Y183998D01*
X42122Y183993D01*
X42047Y183925D01*
X41971Y183860D01*
X41964Y183849D01*
X41956Y183842D01*
X41935Y183801D01*
X41874Y183699D01*
X40260Y179803D01*
X35197Y174740D01*
X28581Y171999D01*
X21419Y171999D01*
X14803Y174740D01*
X9740Y179803D01*
X6999Y186419D01*
X6999Y193581D01*
X9740Y200197D01*
X14803Y205260D01*
X21419Y208001D01*
X28581Y208001D01*
X35197Y205260D01*
X37012Y203445D01*
X37085Y203394D01*
X37154Y203338D01*
X37176Y203331D01*
X37196Y203317D01*
X37282Y203295D01*
X37366Y203267D01*
X37390Y203267D01*
X37413Y203261D01*
X37502Y203271D01*
X37591Y203273D01*
X37613Y203282D01*
X37636Y203285D01*
X37716Y203324D01*
X37798Y203357D01*
X37816Y203373D01*
X37837Y203384D01*
X37898Y203449D01*
X37964Y203509D01*
X37975Y203530D01*
X37991Y203547D01*
X38026Y203629D01*
X38067Y203708D01*
X38070Y203735D01*
X38079Y203754D01*
X38081Y203804D01*
X38094Y203894D01*
X38094Y240789D01*
X39211Y241906D01*
X55789Y241906D01*
X114406Y183289D01*
X114406Y2540D01*
X114417Y2475D01*
X114419Y2409D01*
X114437Y2366D01*
X114445Y2319D01*
X114479Y2262D01*
X114504Y2202D01*
X114535Y2167D01*
X114560Y2126D01*
X114611Y2084D01*
X114655Y2036D01*
X114697Y2014D01*
X114734Y1985D01*
X114796Y1964D01*
X114855Y1933D01*
X114909Y1925D01*
X114946Y1913D01*
X114986Y1914D01*
X115040Y1906D01*
X127315Y1906D01*
X127380Y1917D01*
X127446Y1919D01*
X127489Y1937D01*
X127536Y1945D01*
X127593Y1979D01*
X127653Y2004D01*
X127688Y2035D01*
X127729Y2060D01*
X127771Y2111D01*
X127819Y2155D01*
X127841Y2197D01*
X127870Y2234D01*
X127891Y2296D01*
X127922Y2355D01*
X127930Y2409D01*
X127942Y2446D01*
X127941Y2486D01*
X127949Y2540D01*
X127949Y280000D01*
X127945Y280022D01*
X127947Y280050D01*
X127734Y282758D01*
X127721Y282807D01*
X127705Y282905D01*
X126031Y288057D01*
X126028Y288062D01*
X126027Y288067D01*
X125941Y288234D01*
X122757Y292616D01*
X122753Y292620D01*
X122750Y292625D01*
X122616Y292757D01*
X118234Y295941D01*
X118229Y295943D01*
X118225Y295947D01*
X118057Y296031D01*
X112905Y297705D01*
X112855Y297712D01*
X112758Y297734D01*
X110050Y297947D01*
X110028Y297945D01*
X110000Y297949D01*
X-110000Y297949D01*
X-110022Y297945D01*
X-110050Y297947D01*
X-112758Y297734D01*
X-112807Y297721D01*
X-112905Y297705D01*
X-118057Y296031D01*
X-118062Y296028D01*
X-118067Y296027D01*
X-118234Y295941D01*
X-122616Y292757D01*
X-122620Y292753D01*
X-122625Y292750D01*
X-122757Y292616D01*
X-125941Y288234D01*
X-125943Y288229D01*
X-125947Y288225D01*
X-125965Y288190D01*
X-125983Y288167D01*
X-125998Y288123D01*
X-126031Y288057D01*
X-127705Y282905D01*
X-127712Y282855D01*
X-127734Y282758D01*
X-127947Y280050D01*
X-127945Y280028D01*
X-127949Y280000D01*
X-127949Y2540D01*
X-127938Y2475D01*
X-127936Y2409D01*
X-127918Y2366D01*
X-127910Y2319D01*
X-127876Y2262D01*
X-127851Y2202D01*
X-127820Y2167D01*
X-127795Y2126D01*
X-127744Y2084D01*
X-127700Y2036D01*
X-127658Y2014D01*
X-127621Y1985D01*
X-127559Y1964D01*
X-127500Y1933D01*
X-127446Y1925D01*
X-127409Y1913D01*
X-127369Y1914D01*
X-127315Y1906D01*
X-102235Y1906D01*
X-102170Y1917D01*
G37*
G36*
X-43340Y-165623D02*
X-43340Y-165623D01*
X-43274Y-165621D01*
X-43231Y-165603D01*
X-43184Y-165595D01*
X-43127Y-165561D01*
X-43067Y-165536D01*
X-43032Y-165505D01*
X-42991Y-165480D01*
X-42949Y-165429D01*
X-42901Y-165385D01*
X-42879Y-165343D01*
X-42850Y-165306D01*
X-42829Y-165244D01*
X-42798Y-165185D01*
X-42790Y-165131D01*
X-42778Y-165094D01*
X-42779Y-165054D01*
X-42771Y-165000D01*
X-42771Y-162724D01*
X-42026Y-161979D01*
X-19974Y-161979D01*
X-19229Y-162724D01*
X-19229Y-165000D01*
X-19218Y-165065D01*
X-19216Y-165131D01*
X-19198Y-165174D01*
X-19190Y-165221D01*
X-19156Y-165278D01*
X-19131Y-165338D01*
X-19100Y-165373D01*
X-19075Y-165414D01*
X-19024Y-165456D01*
X-18980Y-165504D01*
X-18938Y-165526D01*
X-18901Y-165555D01*
X-18839Y-165576D01*
X-18780Y-165607D01*
X-18726Y-165615D01*
X-18689Y-165627D01*
X-18649Y-165626D01*
X-18595Y-165634D01*
X-18175Y-165634D01*
X-18110Y-165623D01*
X-18044Y-165621D01*
X-18001Y-165603D01*
X-17954Y-165595D01*
X-17897Y-165561D01*
X-17837Y-165536D01*
X-17802Y-165505D01*
X-17761Y-165480D01*
X-17719Y-165429D01*
X-17671Y-165385D01*
X-17649Y-165343D01*
X-17620Y-165306D01*
X-17599Y-165244D01*
X-17568Y-165185D01*
X-17560Y-165131D01*
X-17548Y-165094D01*
X-17549Y-165054D01*
X-17541Y-165000D01*
X-17541Y-162915D01*
X-17368Y-162269D01*
X-17033Y-161690D01*
X-16560Y-161217D01*
X-15981Y-160882D01*
X-15335Y-160709D01*
X-13999Y-160709D01*
X-13999Y-165000D01*
X-13988Y-165065D01*
X-13986Y-165131D01*
X-13968Y-165174D01*
X-13960Y-165221D01*
X-13926Y-165278D01*
X-13901Y-165338D01*
X-13870Y-165373D01*
X-13845Y-165414D01*
X-13794Y-165456D01*
X-13750Y-165504D01*
X-13708Y-165526D01*
X-13671Y-165555D01*
X-13609Y-165576D01*
X-13550Y-165607D01*
X-13496Y-165615D01*
X-13459Y-165627D01*
X-13419Y-165626D01*
X-13365Y-165634D01*
X-12635Y-165634D01*
X-12570Y-165623D01*
X-12504Y-165621D01*
X-12461Y-165603D01*
X-12414Y-165595D01*
X-12357Y-165561D01*
X-12296Y-165536D01*
X-12262Y-165505D01*
X-12221Y-165480D01*
X-12179Y-165429D01*
X-12131Y-165385D01*
X-12109Y-165343D01*
X-12080Y-165306D01*
X-12058Y-165244D01*
X-12028Y-165185D01*
X-12020Y-165131D01*
X-12008Y-165094D01*
X-12009Y-165054D01*
X-12001Y-165000D01*
X-12001Y-160709D01*
X-10665Y-160709D01*
X-10019Y-160882D01*
X-9440Y-161217D01*
X-8935Y-161722D01*
X-8903Y-161757D01*
X-8838Y-161834D01*
X-8827Y-161840D01*
X-8819Y-161849D01*
X-8730Y-161895D01*
X-8643Y-161944D01*
X-8630Y-161946D01*
X-8619Y-161952D01*
X-8434Y-161979D01*
X-3974Y-161979D01*
X-3699Y-162254D01*
X-3644Y-162292D01*
X-3597Y-162337D01*
X-3553Y-162356D01*
X-3514Y-162383D01*
X-3451Y-162399D01*
X-3390Y-162425D01*
X-3343Y-162427D01*
X-3297Y-162438D01*
X-3232Y-162432D01*
X-3166Y-162435D01*
X-3121Y-162420D01*
X-3074Y-162415D01*
X-3015Y-162386D01*
X-2952Y-162366D01*
X-2908Y-162333D01*
X-2873Y-162316D01*
X-2846Y-162287D01*
X-2802Y-162254D01*
X-2526Y-161979D01*
X2526Y-161979D01*
X2801Y-162254D01*
X2856Y-162292D01*
X2903Y-162337D01*
X2947Y-162356D01*
X2986Y-162383D01*
X3049Y-162399D01*
X3110Y-162425D01*
X3157Y-162427D01*
X3203Y-162438D01*
X3268Y-162432D01*
X3334Y-162435D01*
X3379Y-162420D01*
X3426Y-162415D01*
X3485Y-162386D01*
X3548Y-162366D01*
X3592Y-162333D01*
X3627Y-162316D01*
X3654Y-162287D01*
X3698Y-162254D01*
X3974Y-161979D01*
X8356Y-161979D01*
X8444Y-161964D01*
X8532Y-161954D01*
X8553Y-161944D01*
X8577Y-161940D01*
X8653Y-161894D01*
X8733Y-161855D01*
X8749Y-161838D01*
X8770Y-161825D01*
X8826Y-161756D01*
X8887Y-161692D01*
X8896Y-161670D01*
X8911Y-161651D01*
X8940Y-161567D01*
X8974Y-161485D01*
X8976Y-161461D01*
X8983Y-161439D01*
X8981Y-161350D01*
X8984Y-161261D01*
X8977Y-161238D01*
X8977Y-161214D01*
X8943Y-161132D01*
X8916Y-161047D01*
X8900Y-161026D01*
X8892Y-161007D01*
X8858Y-160969D01*
X8804Y-160897D01*
X8554Y-160646D01*
X8554Y-156963D01*
X11158Y-154359D01*
X14842Y-154359D01*
X17446Y-156963D01*
X17446Y-160646D01*
X16997Y-161096D01*
X16972Y-161131D01*
X16941Y-161159D01*
X16909Y-161222D01*
X16868Y-161280D01*
X16858Y-161321D01*
X16838Y-161359D01*
X16825Y-161448D01*
X16812Y-161497D01*
X16815Y-161518D01*
X16811Y-161544D01*
X16811Y-165000D01*
X16822Y-165065D01*
X16824Y-165131D01*
X16842Y-165174D01*
X16850Y-165221D01*
X16884Y-165278D01*
X16909Y-165338D01*
X16940Y-165373D01*
X16965Y-165414D01*
X17016Y-165456D01*
X17060Y-165504D01*
X17102Y-165526D01*
X17139Y-165555D01*
X17201Y-165576D01*
X17260Y-165607D01*
X17314Y-165615D01*
X17351Y-165627D01*
X17391Y-165626D01*
X17445Y-165634D01*
X18595Y-165634D01*
X18660Y-165623D01*
X18726Y-165621D01*
X18769Y-165603D01*
X18816Y-165595D01*
X18873Y-165561D01*
X18933Y-165536D01*
X18968Y-165505D01*
X19009Y-165480D01*
X19051Y-165429D01*
X19099Y-165385D01*
X19121Y-165343D01*
X19150Y-165306D01*
X19171Y-165244D01*
X19202Y-165185D01*
X19210Y-165131D01*
X19222Y-165094D01*
X19221Y-165054D01*
X19229Y-165000D01*
X19229Y-162724D01*
X19974Y-161979D01*
X42026Y-161979D01*
X42771Y-162724D01*
X42771Y-165000D01*
X42782Y-165065D01*
X42784Y-165131D01*
X42802Y-165174D01*
X42810Y-165221D01*
X42844Y-165278D01*
X42869Y-165338D01*
X42900Y-165373D01*
X42925Y-165414D01*
X42976Y-165456D01*
X43020Y-165504D01*
X43062Y-165526D01*
X43099Y-165555D01*
X43161Y-165576D01*
X43220Y-165607D01*
X43274Y-165615D01*
X43311Y-165627D01*
X43351Y-165626D01*
X43405Y-165634D01*
X60520Y-165634D01*
X60624Y-165616D01*
X60729Y-165599D01*
X60735Y-165596D01*
X60741Y-165595D01*
X60832Y-165541D01*
X60924Y-165489D01*
X60929Y-165484D01*
X60934Y-165480D01*
X61001Y-165398D01*
X61069Y-165318D01*
X61072Y-165311D01*
X61076Y-165306D01*
X61110Y-165206D01*
X61146Y-165107D01*
X61146Y-165100D01*
X61148Y-165094D01*
X61145Y-164988D01*
X61144Y-164882D01*
X61141Y-164875D01*
X61141Y-164869D01*
X61128Y-164836D01*
X61082Y-164705D01*
X60490Y-163577D01*
X60490Y-156423D01*
X63814Y-150090D01*
X69700Y-146026D01*
X76801Y-145164D01*
X83490Y-147701D01*
X88233Y-153055D01*
X89945Y-160000D01*
X88750Y-164848D01*
X88748Y-164878D01*
X88738Y-164906D01*
X88741Y-164989D01*
X88735Y-165072D01*
X88744Y-165101D01*
X88745Y-165131D01*
X88776Y-165207D01*
X88800Y-165287D01*
X88818Y-165311D01*
X88829Y-165338D01*
X88885Y-165400D01*
X88935Y-165466D01*
X88960Y-165482D01*
X88981Y-165504D01*
X89054Y-165542D01*
X89124Y-165587D01*
X89154Y-165593D01*
X89180Y-165607D01*
X89300Y-165625D01*
X89344Y-165634D01*
X89354Y-165632D01*
X89365Y-165634D01*
X100520Y-165634D01*
X100624Y-165616D01*
X100729Y-165599D01*
X100735Y-165596D01*
X100741Y-165595D01*
X100832Y-165541D01*
X100924Y-165489D01*
X100929Y-165484D01*
X100934Y-165480D01*
X101001Y-165398D01*
X101069Y-165318D01*
X101072Y-165311D01*
X101076Y-165306D01*
X101110Y-165206D01*
X101146Y-165107D01*
X101146Y-165100D01*
X101148Y-165094D01*
X101145Y-164988D01*
X101144Y-164882D01*
X101141Y-164875D01*
X101141Y-164869D01*
X101128Y-164836D01*
X101082Y-164705D01*
X100490Y-163577D01*
X100490Y-156423D01*
X103814Y-150090D01*
X109700Y-146026D01*
X116801Y-145164D01*
X123490Y-147701D01*
X126840Y-151483D01*
X126890Y-151523D01*
X126916Y-151551D01*
X126943Y-151564D01*
X127009Y-151618D01*
X127013Y-151619D01*
X127016Y-151622D01*
X127119Y-151655D01*
X127221Y-151690D01*
X127226Y-151690D01*
X127230Y-151691D01*
X127338Y-151686D01*
X127446Y-151683D01*
X127450Y-151681D01*
X127454Y-151681D01*
X127554Y-151639D01*
X127653Y-151599D01*
X127657Y-151596D01*
X127661Y-151594D01*
X127739Y-151520D01*
X127819Y-151447D01*
X127821Y-151443D01*
X127824Y-151440D01*
X127864Y-151361D01*
X127870Y-151353D01*
X127876Y-151337D01*
X127922Y-151248D01*
X127922Y-151243D01*
X127924Y-151239D01*
X127927Y-151212D01*
X127934Y-151165D01*
X127942Y-151140D01*
X127942Y-151114D01*
X127949Y-151062D01*
X127949Y0D01*
X127938Y65D01*
X127936Y131D01*
X127918Y174D01*
X127910Y221D01*
X127876Y278D01*
X127851Y338D01*
X127820Y373D01*
X127795Y414D01*
X127744Y456D01*
X127700Y504D01*
X127658Y526D01*
X127621Y555D01*
X127559Y576D01*
X127500Y607D01*
X127446Y615D01*
X127409Y627D01*
X127369Y626D01*
X127315Y634D01*
X115040Y634D01*
X114975Y623D01*
X114909Y621D01*
X114866Y603D01*
X114819Y595D01*
X114762Y561D01*
X114702Y536D01*
X114667Y505D01*
X114626Y480D01*
X114584Y429D01*
X114536Y385D01*
X114514Y343D01*
X114485Y306D01*
X114464Y244D01*
X114433Y185D01*
X114425Y131D01*
X114413Y94D01*
X114414Y54D01*
X114406Y0D01*
X114406Y-73289D01*
X113289Y-74406D01*
X101100Y-74406D01*
X101036Y-74417D01*
X100970Y-74419D01*
X100926Y-74437D01*
X100880Y-74445D01*
X100823Y-74479D01*
X100762Y-74504D01*
X100727Y-74535D01*
X100686Y-74560D01*
X100645Y-74611D01*
X100596Y-74655D01*
X100575Y-74697D01*
X100545Y-74734D01*
X100524Y-74796D01*
X100494Y-74855D01*
X100486Y-74909D01*
X100473Y-74946D01*
X100474Y-74986D01*
X100466Y-75040D01*
X100466Y-78280D01*
X99722Y-79025D01*
X98251Y-79025D01*
X98163Y-79040D01*
X98075Y-79050D01*
X98054Y-79060D01*
X98030Y-79064D01*
X97953Y-79110D01*
X97874Y-79149D01*
X97857Y-79166D01*
X97837Y-79179D01*
X97781Y-79248D01*
X97720Y-79312D01*
X97711Y-79334D01*
X97696Y-79353D01*
X97667Y-79437D01*
X97632Y-79519D01*
X97631Y-79543D01*
X97624Y-79565D01*
X97626Y-79654D01*
X97622Y-79743D01*
X97630Y-79766D01*
X97630Y-79790D01*
X97664Y-79872D01*
X97691Y-79957D01*
X97707Y-79978D01*
X97715Y-79997D01*
X97749Y-80035D01*
X97803Y-80107D01*
X98485Y-80790D01*
X98519Y-80814D01*
X98548Y-80845D01*
X98611Y-80877D01*
X98669Y-80918D01*
X98710Y-80928D01*
X98748Y-80948D01*
X98837Y-80961D01*
X98886Y-80974D01*
X98907Y-80971D01*
X98933Y-80975D01*
X99722Y-80975D01*
X100466Y-81720D01*
X100466Y-90672D01*
X99722Y-91417D01*
X98143Y-91417D01*
X98055Y-91433D01*
X97967Y-91442D01*
X97946Y-91452D01*
X97922Y-91456D01*
X97846Y-91502D01*
X97766Y-91541D01*
X97749Y-91558D01*
X97729Y-91571D01*
X97673Y-91640D01*
X97612Y-91704D01*
X97603Y-91726D01*
X97588Y-91745D01*
X97559Y-91829D01*
X97524Y-91911D01*
X97523Y-91935D01*
X97516Y-91957D01*
X97518Y-92046D01*
X97514Y-92135D01*
X97522Y-92158D01*
X97522Y-92182D01*
X97556Y-92264D01*
X97583Y-92349D01*
X97599Y-92370D01*
X97607Y-92389D01*
X97641Y-92427D01*
X97695Y-92499D01*
X113104Y-107908D01*
X114406Y-109211D01*
X114406Y-123289D01*
X98289Y-139406D01*
X36711Y-139406D01*
X35594Y-138289D01*
X35594Y-129405D01*
X35583Y-129340D01*
X35581Y-129274D01*
X35563Y-129231D01*
X35555Y-129184D01*
X35521Y-129127D01*
X35496Y-129067D01*
X35465Y-129032D01*
X35440Y-128991D01*
X35389Y-128949D01*
X35345Y-128901D01*
X35303Y-128879D01*
X35266Y-128850D01*
X35204Y-128829D01*
X35145Y-128798D01*
X35091Y-128790D01*
X35054Y-128778D01*
X35014Y-128779D01*
X34960Y-128771D01*
X32474Y-128771D01*
X31729Y-128026D01*
X31729Y-121566D01*
X31727Y-121554D01*
X31729Y-121541D01*
X31707Y-121443D01*
X31690Y-121345D01*
X31683Y-121334D01*
X31680Y-121322D01*
X31626Y-121238D01*
X31575Y-121152D01*
X31566Y-121144D01*
X31559Y-121133D01*
X31469Y-121063D01*
X30967Y-120560D01*
X30632Y-119981D01*
X30459Y-119335D01*
X30459Y-117019D01*
X36615Y-117019D01*
X36680Y-117008D01*
X36745Y-117006D01*
X36789Y-116988D01*
X36836Y-116979D01*
X36892Y-116946D01*
X36953Y-116921D01*
X36988Y-116889D01*
X37029Y-116865D01*
X37070Y-116814D01*
X37119Y-116770D01*
X37141Y-116728D01*
X37170Y-116691D01*
X37191Y-116629D01*
X37221Y-116570D01*
X37230Y-116516D01*
X37242Y-116479D01*
X37241Y-116439D01*
X37249Y-116385D01*
X37249Y-115749D01*
X37251Y-115749D01*
X37251Y-116385D01*
X37263Y-116450D01*
X37264Y-116515D01*
X37282Y-116559D01*
X37291Y-116606D01*
X37324Y-116663D01*
X37349Y-116723D01*
X37381Y-116758D01*
X37405Y-116799D01*
X37456Y-116840D01*
X37500Y-116889D01*
X37542Y-116911D01*
X37579Y-116940D01*
X37641Y-116961D01*
X37700Y-116991D01*
X37754Y-117000D01*
X37791Y-117012D01*
X37831Y-117011D01*
X37885Y-117019D01*
X44041Y-117019D01*
X44041Y-119335D01*
X43868Y-119981D01*
X43533Y-120560D01*
X43028Y-121065D01*
X42993Y-121097D01*
X42916Y-121162D01*
X42910Y-121173D01*
X42901Y-121181D01*
X42855Y-121270D01*
X42806Y-121357D01*
X42804Y-121370D01*
X42798Y-121381D01*
X42771Y-121566D01*
X42771Y-128026D01*
X42026Y-128771D01*
X40040Y-128771D01*
X39975Y-128782D01*
X39909Y-128784D01*
X39866Y-128802D01*
X39819Y-128810D01*
X39762Y-128844D01*
X39702Y-128869D01*
X39667Y-128900D01*
X39626Y-128925D01*
X39584Y-128976D01*
X39536Y-129020D01*
X39514Y-129062D01*
X39485Y-129099D01*
X39464Y-129161D01*
X39433Y-129220D01*
X39425Y-129274D01*
X39413Y-129311D01*
X39414Y-129351D01*
X39406Y-129405D01*
X39406Y-134960D01*
X39417Y-135025D01*
X39419Y-135091D01*
X39437Y-135134D01*
X39445Y-135181D01*
X39479Y-135238D01*
X39504Y-135298D01*
X39535Y-135333D01*
X39560Y-135374D01*
X39611Y-135416D01*
X39655Y-135464D01*
X39697Y-135486D01*
X39734Y-135515D01*
X39796Y-135536D01*
X39855Y-135567D01*
X39909Y-135575D01*
X39946Y-135587D01*
X39986Y-135586D01*
X40040Y-135594D01*
X73868Y-135594D01*
X73956Y-135579D01*
X74044Y-135569D01*
X74065Y-135559D01*
X74089Y-135555D01*
X74166Y-135509D01*
X74245Y-135470D01*
X74261Y-135453D01*
X74282Y-135440D01*
X74338Y-135371D01*
X74399Y-135307D01*
X74408Y-135285D01*
X74423Y-135266D01*
X74452Y-135182D01*
X74487Y-135100D01*
X74488Y-135076D01*
X74495Y-135054D01*
X74493Y-134965D01*
X74497Y-134876D01*
X74489Y-134853D01*
X74489Y-134829D01*
X74455Y-134747D01*
X74428Y-134662D01*
X74412Y-134641D01*
X74404Y-134622D01*
X74370Y-134584D01*
X74316Y-134512D01*
X72908Y-133104D01*
X65594Y-125789D01*
X65594Y-86711D01*
X66816Y-85488D01*
X66867Y-85415D01*
X66923Y-85346D01*
X66931Y-85324D01*
X66945Y-85304D01*
X66967Y-85218D01*
X66995Y-85134D01*
X66995Y-85110D01*
X67000Y-85087D01*
X66991Y-84998D01*
X66989Y-84909D01*
X66980Y-84887D01*
X66977Y-84864D01*
X66938Y-84784D01*
X66904Y-84702D01*
X66888Y-84684D01*
X66878Y-84663D01*
X66813Y-84602D01*
X66753Y-84536D01*
X66732Y-84525D01*
X66715Y-84509D01*
X66633Y-84474D01*
X66553Y-84433D01*
X66527Y-84430D01*
X66508Y-84421D01*
X66458Y-84419D01*
X66368Y-84406D01*
X55040Y-84406D01*
X54975Y-84417D01*
X54909Y-84419D01*
X54866Y-84437D01*
X54819Y-84445D01*
X54762Y-84479D01*
X54702Y-84504D01*
X54667Y-84535D01*
X54626Y-84560D01*
X54584Y-84611D01*
X54536Y-84655D01*
X54514Y-84697D01*
X54485Y-84734D01*
X54464Y-84796D01*
X54433Y-84855D01*
X54425Y-84909D01*
X54413Y-84946D01*
X54414Y-84986D01*
X54413Y-84989D01*
X54413Y-84991D01*
X54413Y-84993D01*
X54406Y-85040D01*
X54406Y-85789D01*
X30796Y-109399D01*
X30779Y-109423D01*
X30756Y-109443D01*
X30716Y-109515D01*
X30668Y-109583D01*
X30661Y-109612D01*
X30646Y-109638D01*
X30633Y-109720D01*
X30612Y-109800D01*
X30615Y-109830D01*
X30611Y-109860D01*
X30627Y-109941D01*
X30636Y-110023D01*
X30649Y-110050D01*
X30655Y-110080D01*
X30698Y-110150D01*
X30735Y-110224D01*
X30757Y-110245D01*
X30773Y-110271D01*
X30838Y-110322D01*
X30898Y-110378D01*
X30926Y-110390D01*
X30950Y-110409D01*
X31029Y-110434D01*
X31105Y-110466D01*
X31135Y-110467D01*
X31164Y-110476D01*
X31246Y-110472D01*
X31329Y-110476D01*
X31358Y-110467D01*
X31388Y-110465D01*
X31500Y-110421D01*
X31543Y-110407D01*
X31552Y-110401D01*
X31562Y-110396D01*
X32019Y-110132D01*
X32665Y-109959D01*
X35981Y-109959D01*
X35981Y-114481D01*
X30459Y-114481D01*
X30459Y-112165D01*
X30632Y-111519D01*
X30896Y-111062D01*
X30907Y-111034D01*
X30924Y-111009D01*
X30944Y-110929D01*
X30972Y-110851D01*
X30972Y-110821D01*
X30980Y-110792D01*
X30971Y-110710D01*
X30970Y-110627D01*
X30960Y-110599D01*
X30956Y-110569D01*
X30920Y-110495D01*
X30890Y-110417D01*
X30870Y-110394D01*
X30857Y-110368D01*
X30797Y-110311D01*
X30742Y-110249D01*
X30716Y-110234D01*
X30694Y-110214D01*
X30617Y-110181D01*
X30544Y-110142D01*
X30515Y-110138D01*
X30487Y-110126D01*
X30404Y-110123D01*
X30322Y-110111D01*
X30293Y-110118D01*
X30263Y-110116D01*
X30184Y-110142D01*
X30103Y-110159D01*
X30078Y-110176D01*
X30049Y-110185D01*
X29952Y-110257D01*
X29915Y-110281D01*
X29908Y-110290D01*
X29899Y-110296D01*
X28456Y-111739D01*
X28432Y-111773D01*
X28401Y-111802D01*
X28369Y-111865D01*
X28328Y-111923D01*
X28318Y-111964D01*
X28298Y-112002D01*
X28285Y-112091D01*
X28272Y-112140D01*
X28275Y-112161D01*
X28271Y-112187D01*
X28271Y-119526D01*
X28246Y-119552D01*
X28208Y-119606D01*
X28163Y-119653D01*
X28144Y-119697D01*
X28117Y-119736D01*
X28101Y-119799D01*
X28075Y-119860D01*
X28073Y-119907D01*
X28062Y-119953D01*
X28068Y-120018D01*
X28065Y-120084D01*
X28080Y-120129D01*
X28085Y-120176D01*
X28114Y-120235D01*
X28134Y-120298D01*
X28167Y-120342D01*
X28184Y-120377D01*
X28213Y-120404D01*
X28246Y-120449D01*
X28271Y-120474D01*
X28271Y-128026D01*
X27526Y-128771D01*
X17974Y-128771D01*
X17449Y-128247D01*
X17415Y-128222D01*
X17386Y-128191D01*
X17323Y-128159D01*
X17265Y-128118D01*
X17224Y-128108D01*
X17186Y-128088D01*
X17097Y-128075D01*
X17048Y-128062D01*
X17027Y-128065D01*
X17001Y-128061D01*
X16794Y-128061D01*
X16752Y-128068D01*
X16710Y-128066D01*
X16643Y-128088D01*
X16573Y-128100D01*
X16537Y-128122D01*
X16496Y-128135D01*
X16424Y-128189D01*
X16380Y-128215D01*
X16367Y-128231D01*
X16346Y-128247D01*
X15896Y-128696D01*
X12213Y-128696D01*
X9609Y-126092D01*
X9609Y-122408D01*
X12213Y-119804D01*
X15896Y-119804D01*
X16147Y-120054D01*
X16220Y-120105D01*
X16289Y-120161D01*
X16311Y-120169D01*
X16331Y-120182D01*
X16417Y-120205D01*
X16501Y-120233D01*
X16525Y-120232D01*
X16548Y-120238D01*
X16637Y-120229D01*
X16726Y-120227D01*
X16747Y-120218D01*
X16771Y-120215D01*
X16851Y-120176D01*
X16933Y-120142D01*
X16951Y-120126D01*
X16972Y-120116D01*
X17033Y-120051D01*
X17099Y-119991D01*
X17110Y-119970D01*
X17126Y-119952D01*
X17161Y-119870D01*
X17202Y-119791D01*
X17205Y-119765D01*
X17214Y-119746D01*
X17216Y-119695D01*
X17229Y-119606D01*
X17229Y-111974D01*
X17974Y-111229D01*
X23313Y-111229D01*
X23355Y-111222D01*
X23397Y-111224D01*
X23464Y-111202D01*
X23534Y-111190D01*
X23570Y-111168D01*
X23611Y-111155D01*
X23683Y-111101D01*
X23727Y-111075D01*
X23740Y-111059D01*
X23761Y-111043D01*
X50408Y-84396D01*
X50433Y-84362D01*
X50464Y-84333D01*
X50496Y-84270D01*
X50537Y-84212D01*
X50547Y-84171D01*
X50567Y-84133D01*
X50580Y-84044D01*
X50593Y-83995D01*
X50590Y-83974D01*
X50594Y-83948D01*
X50594Y-81711D01*
X51711Y-80594D01*
X76448Y-80594D01*
X76490Y-80587D01*
X76532Y-80589D01*
X76599Y-80567D01*
X76669Y-80555D01*
X76705Y-80533D01*
X76746Y-80520D01*
X76818Y-80466D01*
X76862Y-80440D01*
X76875Y-80424D01*
X76896Y-80408D01*
X77908Y-79396D01*
X77909Y-79396D01*
X79348Y-77957D01*
X79372Y-77922D01*
X79404Y-77893D01*
X79436Y-77831D01*
X79476Y-77773D01*
X79487Y-77732D01*
X79506Y-77694D01*
X79519Y-77604D01*
X79532Y-77555D01*
X79530Y-77535D01*
X79534Y-77508D01*
X79534Y-69328D01*
X80278Y-68583D01*
X84862Y-68583D01*
X84908Y-68585D01*
X84953Y-68597D01*
X84990Y-68593D01*
X84995Y-68594D01*
X85005Y-68594D01*
X85025Y-68590D01*
X85085Y-68593D01*
X85115Y-68583D01*
X85959Y-68583D01*
X86001Y-68576D01*
X86043Y-68578D01*
X86110Y-68556D01*
X86180Y-68544D01*
X86216Y-68522D01*
X86257Y-68509D01*
X86329Y-68455D01*
X86373Y-68429D01*
X86386Y-68413D01*
X86407Y-68397D01*
X103450Y-51354D01*
X103501Y-51281D01*
X103557Y-51212D01*
X103565Y-51190D01*
X103579Y-51170D01*
X103601Y-51084D01*
X103629Y-51000D01*
X103629Y-50976D01*
X103634Y-50953D01*
X103625Y-50864D01*
X103623Y-50775D01*
X103614Y-50753D01*
X103611Y-50730D01*
X103572Y-50650D01*
X103538Y-50568D01*
X103522Y-50550D01*
X103512Y-50529D01*
X103447Y-50468D01*
X103387Y-50402D01*
X103366Y-50391D01*
X103349Y-50375D01*
X103267Y-50340D01*
X103187Y-50299D01*
X103161Y-50296D01*
X103142Y-50287D01*
X103092Y-50285D01*
X103002Y-50272D01*
X96224Y-50272D01*
X95479Y-49527D01*
X95479Y-36475D01*
X96224Y-35730D01*
X97460Y-35730D01*
X97525Y-35719D01*
X97591Y-35717D01*
X97634Y-35699D01*
X97681Y-35691D01*
X97738Y-35657D01*
X97798Y-35632D01*
X97833Y-35601D01*
X97874Y-35576D01*
X97916Y-35525D01*
X97964Y-35481D01*
X97986Y-35439D01*
X98015Y-35402D01*
X98036Y-35340D01*
X98067Y-35281D01*
X98075Y-35227D01*
X98087Y-35190D01*
X98086Y-35150D01*
X98094Y-35096D01*
X98094Y-32540D01*
X98083Y-32475D01*
X98081Y-32409D01*
X98063Y-32366D01*
X98055Y-32319D01*
X98021Y-32262D01*
X97996Y-32202D01*
X97965Y-32167D01*
X97940Y-32126D01*
X97889Y-32084D01*
X97845Y-32036D01*
X97803Y-32014D01*
X97766Y-31985D01*
X97704Y-31964D01*
X97645Y-31933D01*
X97591Y-31925D01*
X97554Y-31913D01*
X97514Y-31914D01*
X97460Y-31906D01*
X26711Y-31906D01*
X25408Y-30604D01*
X17988Y-23184D01*
X17915Y-23133D01*
X17846Y-23077D01*
X17824Y-23069D01*
X17804Y-23055D01*
X17718Y-23033D01*
X17634Y-23005D01*
X17610Y-23005D01*
X17587Y-23000D01*
X17498Y-23009D01*
X17409Y-23011D01*
X17387Y-23020D01*
X17364Y-23023D01*
X17284Y-23062D01*
X17202Y-23096D01*
X17184Y-23112D01*
X17163Y-23122D01*
X17102Y-23187D01*
X17036Y-23247D01*
X17025Y-23268D01*
X17009Y-23285D01*
X16974Y-23367D01*
X16933Y-23447D01*
X16930Y-23473D01*
X16921Y-23492D01*
X16919Y-23542D01*
X16906Y-23632D01*
X16906Y-46448D01*
X16913Y-46490D01*
X16911Y-46532D01*
X16933Y-46599D01*
X16945Y-46669D01*
X16967Y-46705D01*
X16980Y-46746D01*
X17034Y-46818D01*
X17060Y-46862D01*
X17076Y-46875D01*
X17092Y-46896D01*
X28104Y-57908D01*
X28138Y-57933D01*
X28167Y-57964D01*
X28230Y-57996D01*
X28288Y-58037D01*
X28329Y-58047D01*
X28367Y-58067D01*
X28456Y-58080D01*
X28505Y-58093D01*
X28526Y-58090D01*
X28552Y-58094D01*
X47460Y-58094D01*
X47525Y-58083D01*
X47591Y-58081D01*
X47634Y-58063D01*
X47681Y-58055D01*
X47738Y-58021D01*
X47798Y-57996D01*
X47833Y-57965D01*
X47874Y-57940D01*
X47916Y-57889D01*
X47964Y-57845D01*
X47986Y-57803D01*
X48015Y-57766D01*
X48036Y-57704D01*
X48067Y-57645D01*
X48075Y-57591D01*
X48087Y-57554D01*
X48086Y-57514D01*
X48094Y-57460D01*
X48094Y-50906D01*
X48083Y-50841D01*
X48081Y-50775D01*
X48063Y-50732D01*
X48055Y-50685D01*
X48021Y-50628D01*
X47996Y-50568D01*
X47965Y-50533D01*
X47940Y-50492D01*
X47889Y-50450D01*
X47845Y-50402D01*
X47803Y-50380D01*
X47766Y-50351D01*
X47704Y-50330D01*
X47645Y-50299D01*
X47591Y-50291D01*
X47554Y-50279D01*
X47514Y-50280D01*
X47460Y-50272D01*
X46224Y-50272D01*
X45479Y-49527D01*
X45479Y-36475D01*
X46224Y-35730D01*
X52776Y-35730D01*
X53521Y-36475D01*
X53521Y-49527D01*
X52776Y-50272D01*
X52540Y-50272D01*
X52475Y-50283D01*
X52409Y-50285D01*
X52366Y-50303D01*
X52319Y-50311D01*
X52262Y-50345D01*
X52202Y-50370D01*
X52167Y-50401D01*
X52126Y-50426D01*
X52084Y-50477D01*
X52036Y-50521D01*
X52014Y-50563D01*
X51985Y-50600D01*
X51964Y-50662D01*
X51933Y-50721D01*
X51925Y-50775D01*
X51913Y-50812D01*
X51914Y-50852D01*
X51906Y-50906D01*
X51906Y-60789D01*
X50789Y-61906D01*
X26711Y-61906D01*
X13094Y-48289D01*
X13094Y0D01*
X13083Y65D01*
X13081Y131D01*
X13063Y174D01*
X13055Y221D01*
X13021Y278D01*
X12996Y338D01*
X12965Y373D01*
X12940Y414D01*
X12889Y456D01*
X12845Y504D01*
X12803Y526D01*
X12766Y555D01*
X12704Y576D01*
X12645Y607D01*
X12591Y615D01*
X12554Y627D01*
X12514Y626D01*
X12460Y634D01*
X6945Y634D01*
X6880Y623D01*
X6814Y621D01*
X6771Y603D01*
X6724Y595D01*
X6667Y561D01*
X6607Y536D01*
X6572Y505D01*
X6531Y480D01*
X6489Y429D01*
X6441Y385D01*
X6419Y343D01*
X6390Y306D01*
X6369Y244D01*
X6338Y185D01*
X6330Y131D01*
X6318Y94D01*
X6319Y54D01*
X6311Y0D01*
X6311Y-1412D01*
X6318Y-1454D01*
X6316Y-1497D01*
X6338Y-1564D01*
X6350Y-1633D01*
X6372Y-1670D01*
X6385Y-1710D01*
X6439Y-1783D01*
X6465Y-1827D01*
X6481Y-1840D01*
X6497Y-1861D01*
X6946Y-2310D01*
X6946Y-5993D01*
X4342Y-8597D01*
X659Y-8597D01*
X-2051Y-5887D01*
X-2106Y-5850D01*
X-2153Y-5805D01*
X-2197Y-5786D01*
X-2236Y-5759D01*
X-2299Y-5743D01*
X-2360Y-5717D01*
X-2407Y-5715D01*
X-2453Y-5703D01*
X-2518Y-5710D01*
X-2584Y-5707D01*
X-2629Y-5722D01*
X-2676Y-5727D01*
X-2735Y-5756D01*
X-2798Y-5776D01*
X-2842Y-5809D01*
X-2877Y-5826D01*
X-2904Y-5855D01*
X-2948Y-5887D01*
X-5658Y-8597D01*
X-9342Y-8597D01*
X-11946Y-5993D01*
X-11946Y-2310D01*
X-11497Y-1861D01*
X-11472Y-1826D01*
X-11441Y-1797D01*
X-11409Y-1735D01*
X-11368Y-1677D01*
X-11358Y-1636D01*
X-11338Y-1598D01*
X-11325Y-1508D01*
X-11312Y-1459D01*
X-11315Y-1439D01*
X-11311Y-1412D01*
X-11311Y0D01*
X-11322Y65D01*
X-11324Y131D01*
X-11342Y174D01*
X-11350Y221D01*
X-11384Y278D01*
X-11409Y338D01*
X-11440Y373D01*
X-11465Y414D01*
X-11516Y456D01*
X-11560Y504D01*
X-11602Y526D01*
X-11639Y555D01*
X-11701Y576D01*
X-11760Y607D01*
X-11814Y615D01*
X-11851Y627D01*
X-11891Y626D01*
X-11945Y634D01*
X-43180Y634D01*
X-43245Y623D01*
X-43311Y621D01*
X-43354Y603D01*
X-43401Y595D01*
X-43458Y561D01*
X-43518Y536D01*
X-43553Y505D01*
X-43594Y480D01*
X-43636Y429D01*
X-43684Y385D01*
X-43706Y343D01*
X-43735Y306D01*
X-43756Y244D01*
X-43787Y185D01*
X-43795Y131D01*
X-43807Y94D01*
X-43806Y54D01*
X-43814Y0D01*
X-43814Y-2550D01*
X-43799Y-2638D01*
X-43789Y-2726D01*
X-43779Y-2747D01*
X-43775Y-2771D01*
X-43729Y-2848D01*
X-43690Y-2927D01*
X-43673Y-2943D01*
X-43660Y-2964D01*
X-43591Y-3020D01*
X-43527Y-3081D01*
X-43505Y-3090D01*
X-43486Y-3105D01*
X-43402Y-3134D01*
X-43320Y-3168D01*
X-43296Y-3170D01*
X-43274Y-3177D01*
X-43185Y-3175D01*
X-43096Y-3178D01*
X-43073Y-3171D01*
X-43049Y-3171D01*
X-42967Y-3137D01*
X-42882Y-3110D01*
X-42861Y-3094D01*
X-42842Y-3086D01*
X-42804Y-3052D01*
X-42732Y-2998D01*
X-41841Y-2108D01*
X-38158Y-2108D01*
X-35554Y-4712D01*
X-35554Y-8395D01*
X-36003Y-8845D01*
X-36028Y-8880D01*
X-36059Y-8908D01*
X-36091Y-8971D01*
X-36132Y-9029D01*
X-36142Y-9070D01*
X-36162Y-9108D01*
X-36175Y-9197D01*
X-36188Y-9246D01*
X-36185Y-9267D01*
X-36189Y-9293D01*
X-36189Y-10000D01*
X-36182Y-10042D01*
X-36184Y-10084D01*
X-36162Y-10151D01*
X-36150Y-10221D01*
X-36128Y-10257D01*
X-36115Y-10298D01*
X-36061Y-10371D01*
X-36035Y-10414D01*
X-36019Y-10427D01*
X-36003Y-10448D01*
X-35979Y-10473D01*
X-35979Y-23525D01*
X-36724Y-24270D01*
X-43276Y-24270D01*
X-44021Y-23525D01*
X-44021Y-18678D01*
X-44035Y-18600D01*
X-44040Y-18521D01*
X-44054Y-18490D01*
X-44060Y-18457D01*
X-44101Y-18389D01*
X-44134Y-18317D01*
X-44157Y-18293D01*
X-44175Y-18264D01*
X-44236Y-18214D01*
X-44292Y-18158D01*
X-44323Y-18144D01*
X-44349Y-18123D01*
X-44424Y-18097D01*
X-44496Y-18064D01*
X-44529Y-18061D01*
X-44561Y-18051D01*
X-44640Y-18053D01*
X-44719Y-18047D01*
X-44752Y-18056D01*
X-44786Y-18057D01*
X-44859Y-18087D01*
X-44935Y-18109D01*
X-44962Y-18129D01*
X-44993Y-18142D01*
X-45052Y-18195D01*
X-45116Y-18242D01*
X-45134Y-18270D01*
X-45159Y-18293D01*
X-45195Y-18364D01*
X-45239Y-18430D01*
X-45247Y-18463D01*
X-45293Y-18516D01*
X-45349Y-18567D01*
X-45366Y-18600D01*
X-45390Y-18628D01*
X-45417Y-18699D01*
X-45452Y-18767D01*
X-45458Y-18808D01*
X-45469Y-18838D01*
X-45469Y-18884D01*
X-45479Y-18952D01*
X-45479Y-23525D01*
X-46224Y-24270D01*
X-52776Y-24270D01*
X-53521Y-23525D01*
X-53521Y-10473D01*
X-52776Y-9728D01*
X-52070Y-9728D01*
X-52005Y-9717D01*
X-51939Y-9715D01*
X-51896Y-9697D01*
X-51849Y-9689D01*
X-51792Y-9655D01*
X-51732Y-9630D01*
X-51697Y-9599D01*
X-51656Y-9574D01*
X-51614Y-9523D01*
X-51566Y-9479D01*
X-51544Y-9437D01*
X-51515Y-9400D01*
X-51494Y-9338D01*
X-51463Y-9279D01*
X-51455Y-9225D01*
X-51443Y-9188D01*
X-51444Y-9148D01*
X-51436Y-9094D01*
X-51436Y0D01*
X-51447Y65D01*
X-51449Y131D01*
X-51467Y174D01*
X-51475Y221D01*
X-51509Y278D01*
X-51534Y338D01*
X-51565Y373D01*
X-51590Y414D01*
X-51641Y456D01*
X-51685Y504D01*
X-51727Y526D01*
X-51764Y555D01*
X-51826Y576D01*
X-51885Y607D01*
X-51939Y615D01*
X-51976Y627D01*
X-52016Y626D01*
X-52070Y634D01*
X-54960Y634D01*
X-55025Y623D01*
X-55091Y621D01*
X-55134Y603D01*
X-55181Y595D01*
X-55238Y561D01*
X-55298Y536D01*
X-55333Y505D01*
X-55374Y480D01*
X-55416Y429D01*
X-55464Y385D01*
X-55486Y343D01*
X-55515Y306D01*
X-55536Y244D01*
X-55567Y185D01*
X-55575Y131D01*
X-55587Y94D01*
X-55586Y54D01*
X-55594Y0D01*
X-55594Y-23948D01*
X-55587Y-23990D01*
X-55589Y-24032D01*
X-55567Y-24099D01*
X-55555Y-24169D01*
X-55533Y-24205D01*
X-55520Y-24246D01*
X-55466Y-24318D01*
X-55440Y-24362D01*
X-55424Y-24375D01*
X-55408Y-24396D01*
X-51896Y-27908D01*
X-51862Y-27933D01*
X-51833Y-27964D01*
X-51770Y-27996D01*
X-51712Y-28037D01*
X-51671Y-28047D01*
X-51633Y-28067D01*
X-51544Y-28080D01*
X-51495Y-28093D01*
X-51474Y-28090D01*
X-51448Y-28094D01*
X-31132Y-28094D01*
X-31044Y-28079D01*
X-30956Y-28069D01*
X-30935Y-28059D01*
X-30911Y-28055D01*
X-30834Y-28009D01*
X-30755Y-27970D01*
X-30739Y-27953D01*
X-30718Y-27940D01*
X-30662Y-27871D01*
X-30601Y-27807D01*
X-30592Y-27785D01*
X-30577Y-27766D01*
X-30548Y-27682D01*
X-30513Y-27600D01*
X-30512Y-27576D01*
X-30505Y-27554D01*
X-30507Y-27465D01*
X-30503Y-27376D01*
X-30511Y-27353D01*
X-30511Y-27329D01*
X-30545Y-27247D01*
X-30572Y-27162D01*
X-30588Y-27141D01*
X-30596Y-27122D01*
X-30630Y-27084D01*
X-30684Y-27012D01*
X-31906Y-25789D01*
X-31906Y-24904D01*
X-31917Y-24839D01*
X-31919Y-24773D01*
X-31937Y-24730D01*
X-31945Y-24683D01*
X-31979Y-24626D01*
X-32004Y-24566D01*
X-32035Y-24531D01*
X-32060Y-24490D01*
X-32111Y-24448D01*
X-32155Y-24400D01*
X-32197Y-24378D01*
X-32234Y-24349D01*
X-32296Y-24328D01*
X-32355Y-24297D01*
X-32409Y-24289D01*
X-32446Y-24277D01*
X-32486Y-24278D01*
X-32540Y-24270D01*
X-33776Y-24270D01*
X-34521Y-23525D01*
X-34521Y-10473D01*
X-33776Y-9728D01*
X-27224Y-9728D01*
X-26479Y-10473D01*
X-26479Y-23525D01*
X-27181Y-24227D01*
X-27219Y-24281D01*
X-27264Y-24329D01*
X-27282Y-24372D01*
X-27309Y-24411D01*
X-27325Y-24475D01*
X-27351Y-24536D01*
X-27353Y-24583D01*
X-27365Y-24628D01*
X-27358Y-24694D01*
X-27361Y-24760D01*
X-27347Y-24805D01*
X-27342Y-24852D01*
X-27313Y-24911D01*
X-27292Y-24973D01*
X-27260Y-25017D01*
X-27242Y-25053D01*
X-27214Y-25080D01*
X-27181Y-25124D01*
X-5594Y-46711D01*
X-5594Y-138289D01*
X-6711Y-139406D01*
X-45789Y-139406D01*
X-59406Y-125789D01*
X-59406Y-121052D01*
X-59413Y-121010D01*
X-59411Y-120968D01*
X-59433Y-120901D01*
X-59445Y-120831D01*
X-59467Y-120795D01*
X-59480Y-120754D01*
X-59534Y-120682D01*
X-59560Y-120638D01*
X-59576Y-120625D01*
X-59592Y-120604D01*
X-64512Y-115684D01*
X-64539Y-115664D01*
X-64544Y-115659D01*
X-64556Y-115653D01*
X-64585Y-115633D01*
X-64654Y-115577D01*
X-64676Y-115569D01*
X-64696Y-115555D01*
X-64782Y-115533D01*
X-64866Y-115505D01*
X-64890Y-115505D01*
X-64913Y-115500D01*
X-65002Y-115509D01*
X-65091Y-115511D01*
X-65113Y-115520D01*
X-65136Y-115523D01*
X-65216Y-115562D01*
X-65298Y-115596D01*
X-65316Y-115612D01*
X-65337Y-115622D01*
X-65398Y-115687D01*
X-65464Y-115747D01*
X-65475Y-115768D01*
X-65491Y-115785D01*
X-65526Y-115867D01*
X-65567Y-115947D01*
X-65570Y-115973D01*
X-65579Y-115992D01*
X-65581Y-116042D01*
X-65583Y-116056D01*
X-65587Y-116069D01*
X-65587Y-116083D01*
X-65594Y-116132D01*
X-65594Y-123289D01*
X-66896Y-124591D01*
X-66896Y-124592D01*
X-80408Y-138104D01*
X-80409Y-138104D01*
X-81711Y-139406D01*
X-118289Y-139406D01*
X-119406Y-138289D01*
X-119406Y-41711D01*
X-103289Y-25594D01*
X-82540Y-25594D01*
X-82475Y-25583D01*
X-82409Y-25581D01*
X-82366Y-25563D01*
X-82319Y-25555D01*
X-82262Y-25521D01*
X-82202Y-25496D01*
X-82167Y-25465D01*
X-82126Y-25440D01*
X-82084Y-25389D01*
X-82036Y-25345D01*
X-82014Y-25303D01*
X-81985Y-25266D01*
X-81964Y-25204D01*
X-81933Y-25145D01*
X-81925Y-25091D01*
X-81913Y-25054D01*
X-81914Y-25014D01*
X-81906Y-24960D01*
X-81906Y-24904D01*
X-81917Y-24839D01*
X-81919Y-24773D01*
X-81937Y-24730D01*
X-81945Y-24683D01*
X-81979Y-24626D01*
X-82004Y-24566D01*
X-82035Y-24531D01*
X-82060Y-24490D01*
X-82111Y-24448D01*
X-82155Y-24400D01*
X-82197Y-24378D01*
X-82234Y-24349D01*
X-82296Y-24328D01*
X-82355Y-24297D01*
X-82409Y-24289D01*
X-82446Y-24277D01*
X-82486Y-24278D01*
X-82540Y-24270D01*
X-83776Y-24270D01*
X-84521Y-23525D01*
X-84521Y-10473D01*
X-83776Y-9728D01*
X-77224Y-9728D01*
X-76479Y-10473D01*
X-76479Y-23525D01*
X-77224Y-24270D01*
X-77460Y-24270D01*
X-77525Y-24281D01*
X-77591Y-24283D01*
X-77634Y-24301D01*
X-77681Y-24309D01*
X-77738Y-24343D01*
X-77798Y-24368D01*
X-77833Y-24399D01*
X-77874Y-24424D01*
X-77916Y-24475D01*
X-77964Y-24519D01*
X-77986Y-24561D01*
X-78015Y-24598D01*
X-78036Y-24660D01*
X-78067Y-24719D01*
X-78075Y-24773D01*
X-78087Y-24810D01*
X-78086Y-24850D01*
X-78094Y-24904D01*
X-78094Y-28325D01*
X-78083Y-28390D01*
X-78081Y-28456D01*
X-78063Y-28499D01*
X-78055Y-28546D01*
X-78021Y-28603D01*
X-77996Y-28663D01*
X-77965Y-28698D01*
X-77940Y-28739D01*
X-77889Y-28781D01*
X-77845Y-28829D01*
X-77803Y-28851D01*
X-77766Y-28880D01*
X-77704Y-28901D01*
X-77645Y-28932D01*
X-77591Y-28940D01*
X-77554Y-28952D01*
X-77514Y-28951D01*
X-77460Y-28959D01*
X-76033Y-28959D01*
X-73959Y-31033D01*
X-73959Y-33967D01*
X-76083Y-36091D01*
X-76123Y-36114D01*
X-76183Y-36139D01*
X-76218Y-36170D01*
X-76259Y-36195D01*
X-76301Y-36246D01*
X-76349Y-36290D01*
X-76371Y-36332D01*
X-76400Y-36369D01*
X-76421Y-36431D01*
X-76452Y-36490D01*
X-76460Y-36544D01*
X-76472Y-36581D01*
X-76471Y-36621D01*
X-76479Y-36675D01*
X-76479Y-49527D01*
X-77224Y-50272D01*
X-83776Y-50272D01*
X-84521Y-49527D01*
X-84521Y-36475D01*
X-83776Y-35730D01*
X-82540Y-35730D01*
X-82475Y-35719D01*
X-82409Y-35717D01*
X-82366Y-35699D01*
X-82319Y-35691D01*
X-82262Y-35657D01*
X-82202Y-35632D01*
X-82167Y-35601D01*
X-82126Y-35576D01*
X-82084Y-35525D01*
X-82036Y-35481D01*
X-82014Y-35439D01*
X-81985Y-35402D01*
X-81964Y-35340D01*
X-81933Y-35281D01*
X-81925Y-35227D01*
X-81913Y-35190D01*
X-81914Y-35150D01*
X-81906Y-35096D01*
X-81906Y-34211D01*
X-81227Y-33531D01*
X-81202Y-33497D01*
X-81171Y-33468D01*
X-81140Y-33407D01*
X-81120Y-33382D01*
X-81117Y-33373D01*
X-81098Y-33347D01*
X-81088Y-33306D01*
X-81068Y-33268D01*
X-81058Y-33202D01*
X-81048Y-33170D01*
X-81048Y-33152D01*
X-81042Y-33130D01*
X-81045Y-33109D01*
X-81041Y-33083D01*
X-81041Y-31033D01*
X-80496Y-30488D01*
X-80445Y-30415D01*
X-80389Y-30346D01*
X-80381Y-30324D01*
X-80368Y-30304D01*
X-80346Y-30218D01*
X-80317Y-30134D01*
X-80318Y-30110D01*
X-80312Y-30087D01*
X-80321Y-29998D01*
X-80324Y-29909D01*
X-80333Y-29887D01*
X-80335Y-29864D01*
X-80375Y-29784D01*
X-80408Y-29702D01*
X-80424Y-29684D01*
X-80434Y-29663D01*
X-80499Y-29602D01*
X-80559Y-29536D01*
X-80580Y-29525D01*
X-80598Y-29509D01*
X-80680Y-29474D01*
X-80759Y-29433D01*
X-80785Y-29430D01*
X-80804Y-29421D01*
X-80855Y-29419D01*
X-80944Y-29406D01*
X-101448Y-29406D01*
X-101490Y-29413D01*
X-101532Y-29411D01*
X-101599Y-29433D01*
X-101669Y-29445D01*
X-101705Y-29467D01*
X-101746Y-29480D01*
X-101818Y-29534D01*
X-101862Y-29560D01*
X-101875Y-29576D01*
X-101896Y-29592D01*
X-115408Y-43104D01*
X-115433Y-43138D01*
X-115464Y-43167D01*
X-115496Y-43230D01*
X-115537Y-43288D01*
X-115547Y-43329D01*
X-115567Y-43367D01*
X-115580Y-43456D01*
X-115593Y-43505D01*
X-115590Y-43526D01*
X-115594Y-43552D01*
X-115594Y-63868D01*
X-115579Y-63956D01*
X-115569Y-64044D01*
X-115559Y-64065D01*
X-115555Y-64089D01*
X-115509Y-64166D01*
X-115470Y-64245D01*
X-115453Y-64261D01*
X-115440Y-64282D01*
X-115371Y-64338D01*
X-115307Y-64399D01*
X-115285Y-64408D01*
X-115266Y-64423D01*
X-115182Y-64452D01*
X-115100Y-64487D01*
X-115076Y-64488D01*
X-115054Y-64495D01*
X-114965Y-64493D01*
X-114876Y-64497D01*
X-114853Y-64489D01*
X-114829Y-64489D01*
X-114747Y-64455D01*
X-114662Y-64428D01*
X-114641Y-64412D01*
X-114622Y-64404D01*
X-114584Y-64370D01*
X-114512Y-64316D01*
X-113289Y-63094D01*
X-96711Y-63094D01*
X-95408Y-64396D01*
X-91407Y-68397D01*
X-91373Y-68422D01*
X-91344Y-68453D01*
X-91281Y-68485D01*
X-91223Y-68526D01*
X-91182Y-68536D01*
X-91144Y-68556D01*
X-91055Y-68569D01*
X-91006Y-68582D01*
X-90985Y-68579D01*
X-90959Y-68583D01*
X-90138Y-68583D01*
X-90092Y-68585D01*
X-90047Y-68597D01*
X-90010Y-68593D01*
X-90005Y-68594D01*
X-89995Y-68594D01*
X-89975Y-68590D01*
X-89915Y-68593D01*
X-89885Y-68583D01*
X-89041Y-68583D01*
X-88999Y-68576D01*
X-88957Y-68578D01*
X-88890Y-68556D01*
X-88820Y-68544D01*
X-88784Y-68522D01*
X-88743Y-68509D01*
X-88671Y-68455D01*
X-88627Y-68429D01*
X-88614Y-68413D01*
X-88593Y-68397D01*
X-84592Y-64396D01*
X-83289Y-63094D01*
X-54211Y-63094D01*
X-53094Y-64211D01*
X-53094Y-91448D01*
X-53087Y-91490D01*
X-53089Y-91532D01*
X-53081Y-91557D01*
X-53081Y-91558D01*
X-53080Y-91560D01*
X-53067Y-91599D01*
X-53055Y-91669D01*
X-53033Y-91705D01*
X-53020Y-91746D01*
X-52966Y-91818D01*
X-52940Y-91862D01*
X-52924Y-91875D01*
X-52908Y-91896D01*
X-35594Y-109211D01*
X-35594Y-110595D01*
X-35583Y-110660D01*
X-35581Y-110726D01*
X-35563Y-110769D01*
X-35555Y-110816D01*
X-35521Y-110873D01*
X-35496Y-110933D01*
X-35465Y-110968D01*
X-35440Y-111009D01*
X-35389Y-111051D01*
X-35345Y-111099D01*
X-35303Y-111121D01*
X-35266Y-111150D01*
X-35204Y-111171D01*
X-35145Y-111202D01*
X-35091Y-111210D01*
X-35054Y-111222D01*
X-35014Y-111221D01*
X-34960Y-111229D01*
X-32474Y-111229D01*
X-31729Y-111974D01*
X-31729Y-119526D01*
X-31754Y-119552D01*
X-31792Y-119606D01*
X-31837Y-119653D01*
X-31856Y-119697D01*
X-31883Y-119736D01*
X-31899Y-119799D01*
X-31925Y-119860D01*
X-31927Y-119907D01*
X-31938Y-119953D01*
X-31932Y-120018D01*
X-31935Y-120084D01*
X-31920Y-120129D01*
X-31915Y-120176D01*
X-31886Y-120235D01*
X-31866Y-120298D01*
X-31833Y-120342D01*
X-31816Y-120377D01*
X-31787Y-120404D01*
X-31754Y-120449D01*
X-31729Y-120474D01*
X-31729Y-128026D01*
X-32474Y-128771D01*
X-42026Y-128771D01*
X-42551Y-128247D01*
X-42585Y-128222D01*
X-42614Y-128191D01*
X-42677Y-128159D01*
X-42735Y-128118D01*
X-42776Y-128108D01*
X-42814Y-128088D01*
X-42903Y-128075D01*
X-42952Y-128062D01*
X-42973Y-128065D01*
X-42999Y-128061D01*
X-43206Y-128061D01*
X-43248Y-128068D01*
X-43290Y-128066D01*
X-43357Y-128088D01*
X-43427Y-128100D01*
X-43463Y-128122D01*
X-43504Y-128135D01*
X-43576Y-128189D01*
X-43620Y-128215D01*
X-43633Y-128231D01*
X-43654Y-128247D01*
X-44104Y-128696D01*
X-44578Y-128696D01*
X-44666Y-128711D01*
X-44754Y-128721D01*
X-44775Y-128731D01*
X-44799Y-128735D01*
X-44876Y-128781D01*
X-44955Y-128820D01*
X-44972Y-128837D01*
X-44992Y-128850D01*
X-45048Y-128919D01*
X-45109Y-128983D01*
X-45118Y-129005D01*
X-45133Y-129024D01*
X-45162Y-129108D01*
X-45197Y-129190D01*
X-45198Y-129214D01*
X-45205Y-129236D01*
X-45203Y-129325D01*
X-45207Y-129414D01*
X-45199Y-129437D01*
X-45199Y-129461D01*
X-45165Y-129543D01*
X-45138Y-129628D01*
X-45122Y-129649D01*
X-45114Y-129668D01*
X-45080Y-129706D01*
X-45026Y-129778D01*
X-44396Y-130409D01*
X-44362Y-130433D01*
X-44333Y-130464D01*
X-44270Y-130496D01*
X-44212Y-130537D01*
X-44171Y-130547D01*
X-44133Y-130567D01*
X-44044Y-130580D01*
X-43995Y-130593D01*
X-43974Y-130590D01*
X-43948Y-130594D01*
X-27540Y-130594D01*
X-27475Y-130583D01*
X-27409Y-130581D01*
X-27366Y-130563D01*
X-27319Y-130555D01*
X-27262Y-130521D01*
X-27202Y-130496D01*
X-27167Y-130465D01*
X-27126Y-130440D01*
X-27084Y-130389D01*
X-27036Y-130345D01*
X-27014Y-130303D01*
X-26985Y-130266D01*
X-26964Y-130204D01*
X-26933Y-130145D01*
X-26925Y-130091D01*
X-26913Y-130054D01*
X-26914Y-130014D01*
X-26906Y-129960D01*
X-26906Y-129405D01*
X-26917Y-129340D01*
X-26919Y-129274D01*
X-26937Y-129231D01*
X-26945Y-129184D01*
X-26979Y-129127D01*
X-27004Y-129067D01*
X-27035Y-129032D01*
X-27060Y-128991D01*
X-27111Y-128949D01*
X-27155Y-128901D01*
X-27197Y-128879D01*
X-27234Y-128850D01*
X-27296Y-128829D01*
X-27355Y-128798D01*
X-27409Y-128790D01*
X-27446Y-128778D01*
X-27486Y-128779D01*
X-27524Y-128773D01*
X-28271Y-128026D01*
X-28271Y-121566D01*
X-28273Y-121554D01*
X-28271Y-121541D01*
X-28293Y-121444D01*
X-28310Y-121345D01*
X-28317Y-121335D01*
X-28320Y-121322D01*
X-28374Y-121238D01*
X-28425Y-121152D01*
X-28434Y-121144D01*
X-28441Y-121134D01*
X-28531Y-121063D01*
X-29033Y-120560D01*
X-29368Y-119981D01*
X-29541Y-119335D01*
X-29541Y-117019D01*
X-23385Y-117019D01*
X-23320Y-117008D01*
X-23255Y-117006D01*
X-23211Y-116988D01*
X-23164Y-116979D01*
X-23108Y-116946D01*
X-23047Y-116921D01*
X-23012Y-116889D01*
X-22971Y-116865D01*
X-22930Y-116814D01*
X-22881Y-116770D01*
X-22859Y-116728D01*
X-22830Y-116691D01*
X-22809Y-116629D01*
X-22779Y-116570D01*
X-22770Y-116516D01*
X-22758Y-116479D01*
X-22759Y-116439D01*
X-22751Y-116385D01*
X-22751Y-115749D01*
X-22749Y-115749D01*
X-22749Y-116385D01*
X-22737Y-116450D01*
X-22736Y-116515D01*
X-22718Y-116559D01*
X-22709Y-116606D01*
X-22676Y-116663D01*
X-22651Y-116723D01*
X-22619Y-116758D01*
X-22595Y-116799D01*
X-22544Y-116840D01*
X-22500Y-116889D01*
X-22458Y-116911D01*
X-22421Y-116940D01*
X-22359Y-116961D01*
X-22300Y-116991D01*
X-22246Y-117000D01*
X-22209Y-117012D01*
X-22169Y-117011D01*
X-22115Y-117019D01*
X-15959Y-117019D01*
X-15959Y-119335D01*
X-16132Y-119981D01*
X-16467Y-120560D01*
X-16972Y-121065D01*
X-17007Y-121097D01*
X-17084Y-121162D01*
X-17090Y-121173D01*
X-17099Y-121181D01*
X-17145Y-121270D01*
X-17194Y-121357D01*
X-17196Y-121370D01*
X-17202Y-121381D01*
X-17229Y-121566D01*
X-17229Y-128026D01*
X-17974Y-128771D01*
X-22460Y-128771D01*
X-22525Y-128782D01*
X-22591Y-128784D01*
X-22634Y-128802D01*
X-22681Y-128810D01*
X-22738Y-128844D01*
X-22798Y-128869D01*
X-22833Y-128900D01*
X-22874Y-128925D01*
X-22916Y-128976D01*
X-22964Y-129020D01*
X-22986Y-129062D01*
X-23015Y-129099D01*
X-23036Y-129161D01*
X-23067Y-129220D01*
X-23075Y-129274D01*
X-23087Y-129311D01*
X-23086Y-129351D01*
X-23094Y-129405D01*
X-23094Y-133289D01*
X-24316Y-134512D01*
X-24367Y-134585D01*
X-24423Y-134654D01*
X-24431Y-134676D01*
X-24445Y-134696D01*
X-24467Y-134782D01*
X-24495Y-134866D01*
X-24495Y-134890D01*
X-24500Y-134913D01*
X-24491Y-135002D01*
X-24489Y-135091D01*
X-24480Y-135113D01*
X-24477Y-135136D01*
X-24438Y-135216D01*
X-24404Y-135298D01*
X-24388Y-135316D01*
X-24378Y-135337D01*
X-24313Y-135398D01*
X-24253Y-135464D01*
X-24232Y-135475D01*
X-24215Y-135491D01*
X-24133Y-135526D01*
X-24053Y-135567D01*
X-24027Y-135570D01*
X-24008Y-135579D01*
X-23958Y-135581D01*
X-23868Y-135594D01*
X-10040Y-135594D01*
X-9975Y-135583D01*
X-9909Y-135581D01*
X-9866Y-135563D01*
X-9819Y-135555D01*
X-9762Y-135521D01*
X-9702Y-135496D01*
X-9667Y-135465D01*
X-9626Y-135440D01*
X-9584Y-135389D01*
X-9536Y-135345D01*
X-9514Y-135303D01*
X-9485Y-135266D01*
X-9464Y-135204D01*
X-9433Y-135145D01*
X-9425Y-135091D01*
X-9413Y-135054D01*
X-9414Y-135014D01*
X-9406Y-134960D01*
X-9406Y-48552D01*
X-9413Y-48510D01*
X-9411Y-48468D01*
X-9433Y-48401D01*
X-9445Y-48331D01*
X-9467Y-48295D01*
X-9480Y-48254D01*
X-9534Y-48182D01*
X-9560Y-48138D01*
X-9576Y-48125D01*
X-9592Y-48104D01*
X-27012Y-30684D01*
X-27085Y-30633D01*
X-27154Y-30577D01*
X-27176Y-30569D01*
X-27196Y-30555D01*
X-27282Y-30533D01*
X-27366Y-30505D01*
X-27390Y-30505D01*
X-27413Y-30500D01*
X-27502Y-30509D01*
X-27591Y-30511D01*
X-27613Y-30520D01*
X-27636Y-30523D01*
X-27716Y-30562D01*
X-27798Y-30596D01*
X-27816Y-30612D01*
X-27837Y-30622D01*
X-27898Y-30687D01*
X-27964Y-30747D01*
X-27975Y-30768D01*
X-27991Y-30785D01*
X-28026Y-30867D01*
X-28067Y-30947D01*
X-28070Y-30973D01*
X-28079Y-30992D01*
X-28081Y-31042D01*
X-28086Y-31075D01*
X-28087Y-31080D01*
X-28087Y-31084D01*
X-28094Y-31132D01*
X-28094Y-35096D01*
X-28083Y-35161D01*
X-28081Y-35227D01*
X-28063Y-35270D01*
X-28055Y-35317D01*
X-28021Y-35374D01*
X-27996Y-35434D01*
X-27965Y-35469D01*
X-27940Y-35510D01*
X-27889Y-35552D01*
X-27845Y-35600D01*
X-27803Y-35622D01*
X-27766Y-35651D01*
X-27704Y-35672D01*
X-27645Y-35703D01*
X-27591Y-35711D01*
X-27554Y-35723D01*
X-27514Y-35722D01*
X-27460Y-35730D01*
X-27224Y-35730D01*
X-26479Y-36475D01*
X-26479Y-49527D01*
X-27224Y-50272D01*
X-33776Y-50272D01*
X-34521Y-49527D01*
X-34521Y-36475D01*
X-33776Y-35730D01*
X-32540Y-35730D01*
X-32475Y-35719D01*
X-32409Y-35717D01*
X-32366Y-35699D01*
X-32319Y-35691D01*
X-32262Y-35657D01*
X-32202Y-35632D01*
X-32167Y-35601D01*
X-32126Y-35576D01*
X-32084Y-35525D01*
X-32036Y-35481D01*
X-32014Y-35439D01*
X-31985Y-35402D01*
X-31964Y-35340D01*
X-31933Y-35281D01*
X-31925Y-35227D01*
X-31913Y-35190D01*
X-31914Y-35150D01*
X-31906Y-35096D01*
X-31906Y-32540D01*
X-31917Y-32475D01*
X-31919Y-32409D01*
X-31937Y-32366D01*
X-31945Y-32319D01*
X-31979Y-32262D01*
X-32004Y-32202D01*
X-32035Y-32167D01*
X-32060Y-32126D01*
X-32111Y-32084D01*
X-32155Y-32036D01*
X-32197Y-32014D01*
X-32234Y-31985D01*
X-32296Y-31964D01*
X-32355Y-31933D01*
X-32409Y-31925D01*
X-32446Y-31913D01*
X-32486Y-31914D01*
X-32540Y-31906D01*
X-53289Y-31906D01*
X-59406Y-25789D01*
X-59406Y0D01*
X-59417Y65D01*
X-59419Y131D01*
X-59437Y174D01*
X-59445Y221D01*
X-59479Y278D01*
X-59504Y338D01*
X-59535Y373D01*
X-59560Y414D01*
X-59611Y456D01*
X-59655Y504D01*
X-59697Y526D01*
X-59734Y555D01*
X-59796Y576D01*
X-59855Y607D01*
X-59909Y615D01*
X-59946Y627D01*
X-59986Y626D01*
X-60040Y634D01*
X-93345Y634D01*
X-93410Y623D01*
X-93476Y621D01*
X-93519Y603D01*
X-93566Y595D01*
X-93623Y561D01*
X-93683Y536D01*
X-93718Y505D01*
X-93759Y480D01*
X-93801Y429D01*
X-93849Y385D01*
X-93871Y343D01*
X-93900Y306D01*
X-93921Y244D01*
X-93952Y185D01*
X-93960Y131D01*
X-93972Y94D01*
X-93971Y54D01*
X-93979Y0D01*
X-93979Y-2715D01*
X-93964Y-2803D01*
X-93954Y-2891D01*
X-93944Y-2912D01*
X-93940Y-2936D01*
X-93894Y-3013D01*
X-93855Y-3092D01*
X-93838Y-3108D01*
X-93825Y-3129D01*
X-93756Y-3185D01*
X-93692Y-3246D01*
X-93670Y-3255D01*
X-93651Y-3270D01*
X-93567Y-3299D01*
X-93485Y-3333D01*
X-93461Y-3335D01*
X-93439Y-3342D01*
X-93350Y-3340D01*
X-93261Y-3343D01*
X-93238Y-3336D01*
X-93214Y-3336D01*
X-93132Y-3302D01*
X-93047Y-3275D01*
X-93026Y-3259D01*
X-93007Y-3251D01*
X-92969Y-3217D01*
X-92897Y-3163D01*
X-91841Y-2108D01*
X-88158Y-2108D01*
X-85554Y-4712D01*
X-85554Y-8395D01*
X-86003Y-8845D01*
X-86028Y-8880D01*
X-86059Y-8908D01*
X-86091Y-8971D01*
X-86132Y-9029D01*
X-86142Y-9070D01*
X-86162Y-9108D01*
X-86175Y-9197D01*
X-86188Y-9246D01*
X-86185Y-9267D01*
X-86189Y-9293D01*
X-86189Y-10000D01*
X-86182Y-10042D01*
X-86184Y-10084D01*
X-86162Y-10151D01*
X-86150Y-10221D01*
X-86128Y-10257D01*
X-86115Y-10298D01*
X-86061Y-10370D01*
X-86035Y-10414D01*
X-86019Y-10427D01*
X-86003Y-10448D01*
X-85979Y-10473D01*
X-85979Y-23525D01*
X-86724Y-24270D01*
X-93276Y-24270D01*
X-94021Y-23525D01*
X-94021Y-18391D01*
X-94036Y-18303D01*
X-94046Y-18215D01*
X-94056Y-18194D01*
X-94060Y-18170D01*
X-94106Y-18094D01*
X-94145Y-18014D01*
X-94162Y-17997D01*
X-94175Y-17977D01*
X-94244Y-17921D01*
X-94308Y-17860D01*
X-94330Y-17851D01*
X-94349Y-17836D01*
X-94433Y-17807D01*
X-94515Y-17772D01*
X-94539Y-17771D01*
X-94561Y-17764D01*
X-94650Y-17766D01*
X-94739Y-17762D01*
X-94762Y-17770D01*
X-94786Y-17770D01*
X-94868Y-17804D01*
X-94953Y-17831D01*
X-94974Y-17847D01*
X-94993Y-17855D01*
X-95031Y-17889D01*
X-95104Y-17943D01*
X-95294Y-18133D01*
X-95318Y-18168D01*
X-95349Y-18196D01*
X-95381Y-18259D01*
X-95422Y-18317D01*
X-95432Y-18358D01*
X-95452Y-18396D01*
X-95465Y-18485D01*
X-95478Y-18534D01*
X-95475Y-18555D01*
X-95479Y-18581D01*
X-95479Y-23525D01*
X-96224Y-24270D01*
X-102776Y-24270D01*
X-103521Y-23525D01*
X-103521Y-10473D01*
X-102776Y-9728D01*
X-102235Y-9728D01*
X-102170Y-9717D01*
X-102104Y-9715D01*
X-102061Y-9697D01*
X-102014Y-9689D01*
X-101957Y-9655D01*
X-101897Y-9630D01*
X-101862Y-9599D01*
X-101821Y-9574D01*
X-101779Y-9523D01*
X-101731Y-9479D01*
X-101709Y-9437D01*
X-101680Y-9400D01*
X-101659Y-9338D01*
X-101628Y-9279D01*
X-101620Y-9225D01*
X-101608Y-9188D01*
X-101609Y-9148D01*
X-101601Y-9094D01*
X-101601Y0D01*
X-101612Y65D01*
X-101614Y131D01*
X-101632Y174D01*
X-101640Y221D01*
X-101674Y278D01*
X-101699Y338D01*
X-101730Y373D01*
X-101755Y414D01*
X-101806Y456D01*
X-101850Y504D01*
X-101892Y526D01*
X-101929Y555D01*
X-101991Y576D01*
X-102050Y607D01*
X-102104Y615D01*
X-102141Y627D01*
X-102181Y626D01*
X-102235Y634D01*
X-127315Y634D01*
X-127380Y623D01*
X-127446Y621D01*
X-127489Y603D01*
X-127536Y595D01*
X-127593Y561D01*
X-127653Y536D01*
X-127688Y505D01*
X-127729Y480D01*
X-127771Y429D01*
X-127819Y385D01*
X-127841Y343D01*
X-127870Y306D01*
X-127891Y244D01*
X-127922Y185D01*
X-127930Y131D01*
X-127942Y94D01*
X-127941Y54D01*
X-127949Y0D01*
X-127949Y-165000D01*
X-127938Y-165065D01*
X-127936Y-165131D01*
X-127918Y-165174D01*
X-127910Y-165221D01*
X-127876Y-165278D01*
X-127851Y-165338D01*
X-127820Y-165373D01*
X-127795Y-165414D01*
X-127744Y-165456D01*
X-127700Y-165504D01*
X-127658Y-165526D01*
X-127621Y-165555D01*
X-127559Y-165576D01*
X-127500Y-165607D01*
X-127446Y-165615D01*
X-127409Y-165627D01*
X-127369Y-165626D01*
X-127315Y-165634D01*
X-43405Y-165634D01*
X-43340Y-165623D01*
G37*
G36*
X-70582Y-217940D02*
X-70582Y-217940D01*
X-70528Y-217940D01*
X-70459Y-217918D01*
X-70413Y-217910D01*
X-70387Y-217894D01*
X-70350Y-217882D01*
X-61307Y-213361D01*
X-61300Y-213356D01*
X-61293Y-213353D01*
X-61142Y-213242D01*
X-60849Y-212949D01*
X-60634Y-212949D01*
X-60581Y-212940D01*
X-60528Y-212940D01*
X-60459Y-212918D01*
X-60413Y-212910D01*
X-60387Y-212894D01*
X-60350Y-212882D01*
X-60157Y-212786D01*
X-59765Y-212917D01*
X-59757Y-212918D01*
X-59750Y-212922D01*
X-59564Y-212949D01*
X59564Y-212949D01*
X59572Y-212948D01*
X59580Y-212949D01*
X59765Y-212917D01*
X60157Y-212786D01*
X60350Y-212882D01*
X60401Y-212897D01*
X60448Y-212922D01*
X60520Y-212932D01*
X60565Y-212946D01*
X60595Y-212943D01*
X60634Y-212949D01*
X60849Y-212949D01*
X61142Y-213242D01*
X61149Y-213246D01*
X61153Y-213253D01*
X61307Y-213361D01*
X70350Y-217882D01*
X70401Y-217897D01*
X70448Y-217922D01*
X70520Y-217932D01*
X70565Y-217946D01*
X70595Y-217943D01*
X70634Y-217949D01*
X110000Y-217949D01*
X110022Y-217945D01*
X110050Y-217947D01*
X112758Y-217734D01*
X112807Y-217721D01*
X112905Y-217705D01*
X118057Y-216031D01*
X118062Y-216028D01*
X118067Y-216027D01*
X118234Y-215941D01*
X119142Y-215281D01*
X119156Y-215266D01*
X119169Y-215258D01*
X119174Y-215253D01*
X119187Y-215245D01*
X119239Y-215180D01*
X119298Y-215119D01*
X119309Y-215092D01*
X119327Y-215070D01*
X119353Y-214990D01*
X119387Y-214913D01*
X119388Y-214884D01*
X119397Y-214857D01*
X119394Y-214773D01*
X119399Y-214689D01*
X119390Y-214661D01*
X119389Y-214633D01*
X119357Y-214555D01*
X119332Y-214475D01*
X119315Y-214452D01*
X119304Y-214425D01*
X119246Y-214364D01*
X119195Y-214297D01*
X119171Y-214282D01*
X119151Y-214261D01*
X119076Y-214223D01*
X119005Y-214178D01*
X118976Y-214173D01*
X118951Y-214160D01*
X118867Y-214150D01*
X118785Y-214134D01*
X118756Y-214138D01*
X118728Y-214135D01*
X118606Y-214161D01*
X118563Y-214168D01*
X118554Y-214172D01*
X118545Y-214175D01*
X116801Y-214836D01*
X109700Y-213974D01*
X103814Y-209910D01*
X100490Y-203577D01*
X100490Y-196423D01*
X103814Y-190090D01*
X109700Y-186026D01*
X116801Y-185164D01*
X123490Y-187701D01*
X126840Y-191483D01*
X126925Y-191550D01*
X127009Y-191618D01*
X127013Y-191619D01*
X127016Y-191622D01*
X127119Y-191655D01*
X127221Y-191690D01*
X127226Y-191690D01*
X127230Y-191691D01*
X127338Y-191686D01*
X127446Y-191683D01*
X127450Y-191681D01*
X127454Y-191681D01*
X127554Y-191639D01*
X127653Y-191599D01*
X127657Y-191596D01*
X127661Y-191594D01*
X127739Y-191520D01*
X127819Y-191447D01*
X127821Y-191443D01*
X127824Y-191440D01*
X127872Y-191345D01*
X127922Y-191248D01*
X127922Y-191243D01*
X127924Y-191239D01*
X127927Y-191212D01*
X127949Y-191062D01*
X127949Y-168938D01*
X127930Y-168831D01*
X127913Y-168725D01*
X127910Y-168721D01*
X127910Y-168717D01*
X127854Y-168623D01*
X127801Y-168530D01*
X127798Y-168527D01*
X127795Y-168524D01*
X127712Y-168456D01*
X127629Y-168386D01*
X127625Y-168385D01*
X127621Y-168382D01*
X127520Y-168348D01*
X127417Y-168312D01*
X127413Y-168312D01*
X127409Y-168310D01*
X127302Y-168313D01*
X127193Y-168315D01*
X127189Y-168317D01*
X127184Y-168317D01*
X127085Y-168357D01*
X126984Y-168397D01*
X126980Y-168400D01*
X126977Y-168401D01*
X126956Y-168420D01*
X126840Y-168517D01*
X123489Y-172299D01*
X116801Y-174836D01*
X109700Y-173974D01*
X103814Y-169910D01*
X102415Y-167245D01*
X102399Y-167225D01*
X102390Y-167202D01*
X102331Y-167137D01*
X102277Y-167068D01*
X102256Y-167055D01*
X102238Y-167036D01*
X102161Y-166996D01*
X102087Y-166950D01*
X102062Y-166945D01*
X102039Y-166933D01*
X101902Y-166913D01*
X101867Y-166906D01*
X101861Y-166907D01*
X101854Y-166906D01*
X88553Y-166906D01*
X88493Y-166917D01*
X88431Y-166918D01*
X88383Y-166936D01*
X88332Y-166945D01*
X88279Y-166977D01*
X88222Y-166999D01*
X88176Y-167038D01*
X88139Y-167060D01*
X88116Y-167088D01*
X88078Y-167119D01*
X83490Y-172299D01*
X76801Y-174836D01*
X69700Y-173974D01*
X63814Y-169910D01*
X62415Y-167245D01*
X62399Y-167225D01*
X62390Y-167202D01*
X62331Y-167137D01*
X62277Y-167068D01*
X62256Y-167055D01*
X62238Y-167036D01*
X62161Y-166996D01*
X62087Y-166950D01*
X62062Y-166945D01*
X62039Y-166933D01*
X61902Y-166913D01*
X61867Y-166906D01*
X61861Y-166907D01*
X61854Y-166906D01*
X44675Y-166906D01*
X44610Y-166917D01*
X44544Y-166919D01*
X44501Y-166937D01*
X44454Y-166945D01*
X44397Y-166979D01*
X44337Y-167004D01*
X44302Y-167035D01*
X44261Y-167060D01*
X44219Y-167111D01*
X44171Y-167155D01*
X44149Y-167197D01*
X44120Y-167234D01*
X44099Y-167296D01*
X44068Y-167355D01*
X44060Y-167409D01*
X44048Y-167446D01*
X44049Y-167486D01*
X44041Y-167540D01*
X44041Y-169981D01*
X31635Y-169981D01*
X31570Y-169992D01*
X31505Y-169994D01*
X31461Y-170012D01*
X31414Y-170020D01*
X31358Y-170054D01*
X31297Y-170079D01*
X31262Y-170111D01*
X31221Y-170135D01*
X31180Y-170186D01*
X31131Y-170230D01*
X31109Y-170272D01*
X31080Y-170309D01*
X31059Y-170371D01*
X31029Y-170430D01*
X31020Y-170484D01*
X31008Y-170521D01*
X31009Y-170561D01*
X31001Y-170615D01*
X31001Y-171251D01*
X30365Y-171251D01*
X30300Y-171263D01*
X30235Y-171264D01*
X30191Y-171282D01*
X30144Y-171291D01*
X30087Y-171324D01*
X30027Y-171349D01*
X29992Y-171381D01*
X29951Y-171405D01*
X29910Y-171456D01*
X29861Y-171500D01*
X29839Y-171542D01*
X29810Y-171579D01*
X29789Y-171641D01*
X29758Y-171700D01*
X29750Y-171754D01*
X29738Y-171791D01*
X29739Y-171831D01*
X29731Y-171885D01*
X29731Y-181791D01*
X20165Y-181791D01*
X19519Y-181618D01*
X18940Y-181283D01*
X18467Y-180810D01*
X18132Y-180231D01*
X17959Y-179585D01*
X17959Y-178915D01*
X17944Y-178827D01*
X17934Y-178739D01*
X17924Y-178718D01*
X17920Y-178694D01*
X17874Y-178617D01*
X17835Y-178538D01*
X17818Y-178521D01*
X17805Y-178501D01*
X17737Y-178445D01*
X17672Y-178384D01*
X17650Y-178375D01*
X17631Y-178360D01*
X17547Y-178331D01*
X17465Y-178296D01*
X17441Y-178295D01*
X17419Y-178288D01*
X17330Y-178290D01*
X17241Y-178286D01*
X17218Y-178294D01*
X17194Y-178294D01*
X17112Y-178328D01*
X17027Y-178355D01*
X17006Y-178371D01*
X16987Y-178379D01*
X16949Y-178413D01*
X16877Y-178467D01*
X16560Y-178783D01*
X15981Y-179118D01*
X15335Y-179291D01*
X13999Y-179291D01*
X13999Y-170365D01*
X13988Y-170300D01*
X13986Y-170235D01*
X13968Y-170191D01*
X13960Y-170144D01*
X13926Y-170088D01*
X13901Y-170027D01*
X13870Y-169992D01*
X13845Y-169951D01*
X13794Y-169910D01*
X13750Y-169861D01*
X13708Y-169840D01*
X13671Y-169810D01*
X13609Y-169789D01*
X13550Y-169759D01*
X13496Y-169751D01*
X13459Y-169738D01*
X13419Y-169739D01*
X13365Y-169731D01*
X12635Y-169731D01*
X12570Y-169743D01*
X12504Y-169745D01*
X12461Y-169762D01*
X12414Y-169771D01*
X12357Y-169804D01*
X12296Y-169829D01*
X12262Y-169861D01*
X12221Y-169885D01*
X12179Y-169936D01*
X12131Y-169980D01*
X12109Y-170022D01*
X12080Y-170059D01*
X12058Y-170121D01*
X12028Y-170180D01*
X12020Y-170234D01*
X12008Y-170271D01*
X12008Y-170286D01*
X12008Y-170287D01*
X12008Y-170313D01*
X12001Y-170365D01*
X12001Y-179291D01*
X10665Y-179291D01*
X10019Y-179118D01*
X9440Y-178783D01*
X8935Y-178278D01*
X8903Y-178243D01*
X8838Y-178166D01*
X8827Y-178160D01*
X8819Y-178151D01*
X8730Y-178105D01*
X8643Y-178056D01*
X8630Y-178054D01*
X8619Y-178048D01*
X8434Y-178021D01*
X3974Y-178021D01*
X3698Y-177746D01*
X3644Y-177708D01*
X3597Y-177663D01*
X3553Y-177644D01*
X3514Y-177617D01*
X3451Y-177601D01*
X3390Y-177575D01*
X3343Y-177573D01*
X3297Y-177562D01*
X3232Y-177568D01*
X3166Y-177565D01*
X3121Y-177580D01*
X3074Y-177585D01*
X3015Y-177614D01*
X2952Y-177634D01*
X2908Y-177667D01*
X2873Y-177684D01*
X2846Y-177713D01*
X2801Y-177746D01*
X2526Y-178021D01*
X-2526Y-178021D01*
X-2802Y-177746D01*
X-2856Y-177708D01*
X-2903Y-177663D01*
X-2947Y-177644D01*
X-2986Y-177617D01*
X-3049Y-177601D01*
X-3110Y-177575D01*
X-3157Y-177573D01*
X-3203Y-177562D01*
X-3268Y-177568D01*
X-3334Y-177565D01*
X-3379Y-177580D01*
X-3426Y-177585D01*
X-3485Y-177614D01*
X-3548Y-177634D01*
X-3592Y-177667D01*
X-3627Y-177684D01*
X-3654Y-177713D01*
X-3699Y-177746D01*
X-3974Y-178021D01*
X-9026Y-178021D01*
X-9301Y-177746D01*
X-9356Y-177708D01*
X-9403Y-177663D01*
X-9447Y-177644D01*
X-9486Y-177617D01*
X-9549Y-177601D01*
X-9610Y-177575D01*
X-9657Y-177573D01*
X-9703Y-177562D01*
X-9768Y-177568D01*
X-9834Y-177565D01*
X-9879Y-177580D01*
X-9926Y-177585D01*
X-9985Y-177614D01*
X-10048Y-177634D01*
X-10092Y-177667D01*
X-10127Y-177684D01*
X-10154Y-177713D01*
X-10198Y-177746D01*
X-10474Y-178021D01*
X-15526Y-178021D01*
X-16271Y-177276D01*
X-16271Y-172381D01*
X-16278Y-172339D01*
X-16276Y-172297D01*
X-16298Y-172230D01*
X-16310Y-172160D01*
X-16332Y-172124D01*
X-16345Y-172083D01*
X-16399Y-172011D01*
X-16425Y-171967D01*
X-16441Y-171954D01*
X-16456Y-171933D01*
X-16877Y-171513D01*
X-16950Y-171462D01*
X-17019Y-171406D01*
X-17041Y-171398D01*
X-17061Y-171385D01*
X-17147Y-171362D01*
X-17231Y-171334D01*
X-17255Y-171335D01*
X-17278Y-171329D01*
X-17367Y-171338D01*
X-17456Y-171340D01*
X-17477Y-171349D01*
X-17501Y-171352D01*
X-17581Y-171391D01*
X-17663Y-171425D01*
X-17681Y-171441D01*
X-17702Y-171451D01*
X-17763Y-171516D01*
X-17829Y-171576D01*
X-17840Y-171597D01*
X-17856Y-171615D01*
X-17891Y-171697D01*
X-17932Y-171776D01*
X-17935Y-171802D01*
X-17944Y-171821D01*
X-17946Y-171872D01*
X-17959Y-171961D01*
X-17959Y-179585D01*
X-18132Y-180231D01*
X-18467Y-180810D01*
X-18940Y-181283D01*
X-19519Y-181618D01*
X-20165Y-181791D01*
X-29731Y-181791D01*
X-29731Y-171885D01*
X-29742Y-171820D01*
X-29744Y-171755D01*
X-29762Y-171711D01*
X-29770Y-171664D01*
X-29804Y-171608D01*
X-29829Y-171547D01*
X-29861Y-171512D01*
X-29885Y-171471D01*
X-29936Y-171430D01*
X-29980Y-171381D01*
X-30022Y-171359D01*
X-30059Y-171330D01*
X-30121Y-171309D01*
X-30180Y-171279D01*
X-30234Y-171270D01*
X-30271Y-171258D01*
X-30311Y-171259D01*
X-30365Y-171251D01*
X-31001Y-171251D01*
X-31001Y-170615D01*
X-31013Y-170550D01*
X-31014Y-170485D01*
X-31032Y-170441D01*
X-31041Y-170394D01*
X-31074Y-170337D01*
X-31099Y-170277D01*
X-31131Y-170242D01*
X-31155Y-170201D01*
X-31206Y-170160D01*
X-31250Y-170111D01*
X-31292Y-170089D01*
X-31329Y-170060D01*
X-31391Y-170039D01*
X-31450Y-170008D01*
X-31504Y-170000D01*
X-31541Y-169988D01*
X-31581Y-169989D01*
X-31635Y-169981D01*
X-44041Y-169981D01*
X-44041Y-167540D01*
X-44052Y-167475D01*
X-44054Y-167409D01*
X-44072Y-167366D01*
X-44080Y-167319D01*
X-44114Y-167262D01*
X-44139Y-167202D01*
X-44170Y-167167D01*
X-44195Y-167126D01*
X-44246Y-167084D01*
X-44290Y-167036D01*
X-44332Y-167014D01*
X-44369Y-166985D01*
X-44431Y-166964D01*
X-44490Y-166933D01*
X-44544Y-166925D01*
X-44581Y-166913D01*
X-44621Y-166914D01*
X-44675Y-166906D01*
X-127315Y-166906D01*
X-127380Y-166917D01*
X-127446Y-166919D01*
X-127489Y-166937D01*
X-127536Y-166945D01*
X-127593Y-166979D01*
X-127653Y-167004D01*
X-127688Y-167035D01*
X-127729Y-167060D01*
X-127771Y-167111D01*
X-127819Y-167155D01*
X-127841Y-167197D01*
X-127870Y-167234D01*
X-127891Y-167296D01*
X-127922Y-167355D01*
X-127930Y-167409D01*
X-127942Y-167446D01*
X-127941Y-167486D01*
X-127949Y-167540D01*
X-127949Y-200000D01*
X-127945Y-200022D01*
X-127947Y-200050D01*
X-127734Y-202758D01*
X-127721Y-202807D01*
X-127717Y-202832D01*
X-127716Y-202858D01*
X-127710Y-202873D01*
X-127705Y-202905D01*
X-126031Y-208057D01*
X-126028Y-208062D01*
X-126027Y-208067D01*
X-125941Y-208234D01*
X-122757Y-212616D01*
X-122753Y-212620D01*
X-122750Y-212625D01*
X-122650Y-212724D01*
X-122630Y-212745D01*
X-122626Y-212747D01*
X-122616Y-212757D01*
X-118234Y-215941D01*
X-118229Y-215943D01*
X-118225Y-215947D01*
X-118057Y-216031D01*
X-112905Y-217705D01*
X-112855Y-217712D01*
X-112758Y-217734D01*
X-110050Y-217947D01*
X-110028Y-217945D01*
X-110000Y-217949D01*
X-70634Y-217949D01*
X-70582Y-217940D01*
G37*
G36*
X110025Y1917D02*
X110025Y1917D01*
X110091Y1919D01*
X110134Y1937D01*
X110181Y1945D01*
X110238Y1979D01*
X110298Y2004D01*
X110333Y2035D01*
X110374Y2060D01*
X110416Y2111D01*
X110464Y2155D01*
X110486Y2197D01*
X110515Y2234D01*
X110536Y2296D01*
X110567Y2355D01*
X110575Y2409D01*
X110587Y2446D01*
X110586Y2486D01*
X110594Y2540D01*
X110594Y181448D01*
X110587Y181490D01*
X110589Y181532D01*
X110567Y181599D01*
X110555Y181669D01*
X110533Y181705D01*
X110520Y181746D01*
X110466Y181818D01*
X110440Y181862D01*
X110424Y181875D01*
X110408Y181896D01*
X59760Y232545D01*
X59678Y232602D01*
X59597Y232663D01*
X59585Y232666D01*
X59576Y232673D01*
X59479Y232698D01*
X59382Y232727D01*
X59370Y232726D01*
X59358Y232729D01*
X59259Y232719D01*
X59158Y232712D01*
X59147Y232707D01*
X59135Y232706D01*
X59045Y232661D01*
X58953Y232620D01*
X58945Y232612D01*
X58934Y232606D01*
X58865Y232533D01*
X58793Y232462D01*
X58788Y232452D01*
X58780Y232443D01*
X58741Y232351D01*
X58698Y232259D01*
X58697Y232247D01*
X58693Y232236D01*
X58688Y232136D01*
X58680Y232036D01*
X58683Y232023D01*
X58683Y232012D01*
X58697Y231969D01*
X58726Y231854D01*
X58771Y231745D01*
X58771Y228255D01*
X57435Y225032D01*
X54968Y222565D01*
X54367Y222316D01*
X54322Y222286D01*
X54272Y222266D01*
X54228Y222226D01*
X54178Y222194D01*
X54146Y222151D01*
X54106Y222115D01*
X54079Y222062D01*
X54044Y222015D01*
X54028Y221963D01*
X54003Y221915D01*
X53993Y221845D01*
X53980Y221800D01*
X53982Y221769D01*
X53976Y221730D01*
X53976Y150431D01*
X53983Y150389D01*
X53981Y150347D01*
X54003Y150280D01*
X54015Y150210D01*
X54037Y150174D01*
X54050Y150133D01*
X54104Y150061D01*
X54130Y150017D01*
X54146Y150004D01*
X54162Y149983D01*
X57688Y146457D01*
X57722Y146432D01*
X57751Y146401D01*
X57814Y146369D01*
X57872Y146328D01*
X57913Y146318D01*
X57951Y146298D01*
X58040Y146285D01*
X58089Y146272D01*
X58110Y146275D01*
X58136Y146271D01*
X70526Y146271D01*
X71271Y145526D01*
X71271Y126474D01*
X70526Y125729D01*
X67310Y125729D01*
X67245Y125718D01*
X67179Y125716D01*
X67136Y125698D01*
X67089Y125690D01*
X67032Y125656D01*
X66972Y125631D01*
X66937Y125600D01*
X66896Y125575D01*
X66854Y125524D01*
X66806Y125480D01*
X66784Y125438D01*
X66755Y125401D01*
X66734Y125339D01*
X66703Y125280D01*
X66695Y125226D01*
X66683Y125189D01*
X66684Y125149D01*
X66676Y125095D01*
X66676Y74905D01*
X66687Y74840D01*
X66689Y74774D01*
X66707Y74731D01*
X66715Y74684D01*
X66749Y74627D01*
X66774Y74567D01*
X66805Y74532D01*
X66830Y74491D01*
X66881Y74449D01*
X66925Y74401D01*
X66967Y74379D01*
X67004Y74350D01*
X67066Y74329D01*
X67125Y74298D01*
X67179Y74290D01*
X67216Y74278D01*
X67256Y74279D01*
X67310Y74271D01*
X69026Y74271D01*
X69771Y73526D01*
X69771Y54474D01*
X69026Y53729D01*
X67310Y53729D01*
X67245Y53718D01*
X67179Y53716D01*
X67136Y53698D01*
X67089Y53690D01*
X67032Y53656D01*
X66972Y53631D01*
X66937Y53600D01*
X66896Y53575D01*
X66854Y53524D01*
X66806Y53480D01*
X66784Y53438D01*
X66755Y53401D01*
X66734Y53339D01*
X66703Y53280D01*
X66695Y53226D01*
X66683Y53189D01*
X66684Y53149D01*
X66676Y53095D01*
X66676Y42481D01*
X66683Y42439D01*
X66681Y42397D01*
X66703Y42330D01*
X66715Y42260D01*
X66737Y42224D01*
X66750Y42183D01*
X66804Y42111D01*
X66830Y42067D01*
X66846Y42054D01*
X66862Y42033D01*
X82361Y26533D01*
X82396Y26509D01*
X82425Y26477D01*
X82488Y26445D01*
X82545Y26405D01*
X82586Y26394D01*
X82624Y26375D01*
X82714Y26362D01*
X82763Y26349D01*
X82783Y26351D01*
X82810Y26347D01*
X88037Y26347D01*
X88965Y25419D01*
X88971Y25415D01*
X88974Y25410D01*
X89063Y25352D01*
X89150Y25291D01*
X89156Y25289D01*
X89161Y25286D01*
X89265Y25261D01*
X89367Y25235D01*
X89373Y25236D01*
X89379Y25234D01*
X89486Y25247D01*
X89590Y25258D01*
X89596Y25261D01*
X89602Y25262D01*
X89697Y25311D01*
X89791Y25358D01*
X89796Y25362D01*
X89801Y25365D01*
X89872Y25444D01*
X89945Y25521D01*
X89948Y25527D01*
X89952Y25531D01*
X90027Y25703D01*
X90121Y26057D01*
X90456Y26637D01*
X90929Y27110D01*
X91508Y27444D01*
X92154Y27617D01*
X96264Y27617D01*
X96264Y20635D01*
X96275Y20570D01*
X96277Y20505D01*
X96295Y20461D01*
X96303Y20414D01*
X96337Y20358D01*
X96362Y20297D01*
X96394Y20262D01*
X96418Y20221D01*
X96469Y20180D01*
X96513Y20131D01*
X96555Y20109D01*
X96592Y20080D01*
X96654Y20059D01*
X96713Y20029D01*
X96767Y20020D01*
X96804Y20008D01*
X96844Y20009D01*
X96898Y20001D01*
X97534Y20001D01*
X97534Y19999D01*
X96898Y19999D01*
X96833Y19987D01*
X96768Y19986D01*
X96724Y19968D01*
X96677Y19959D01*
X96620Y19926D01*
X96560Y19901D01*
X96525Y19869D01*
X96484Y19845D01*
X96443Y19794D01*
X96394Y19750D01*
X96372Y19708D01*
X96343Y19671D01*
X96322Y19609D01*
X96291Y19550D01*
X96283Y19496D01*
X96271Y19459D01*
X96272Y19419D01*
X96264Y19365D01*
X96264Y12383D01*
X92154Y12383D01*
X91508Y12556D01*
X90929Y12890D01*
X90456Y13363D01*
X90121Y13943D01*
X90027Y14297D01*
X90024Y14302D01*
X90023Y14309D01*
X89977Y14402D01*
X89931Y14500D01*
X89927Y14504D01*
X89924Y14510D01*
X89847Y14582D01*
X89771Y14657D01*
X89765Y14659D01*
X89761Y14664D01*
X89663Y14705D01*
X89566Y14748D01*
X89560Y14749D01*
X89554Y14751D01*
X89448Y14756D01*
X89342Y14763D01*
X89336Y14761D01*
X89330Y14761D01*
X89229Y14729D01*
X89127Y14698D01*
X89122Y14694D01*
X89116Y14692D01*
X88965Y14581D01*
X88037Y13653D01*
X86360Y13653D01*
X86295Y13641D01*
X86229Y13639D01*
X86186Y13621D01*
X86139Y13613D01*
X86082Y13580D01*
X86022Y13555D01*
X85987Y13523D01*
X85946Y13499D01*
X85904Y13448D01*
X85856Y13403D01*
X85834Y13361D01*
X85805Y13325D01*
X85784Y13263D01*
X85753Y13204D01*
X85745Y13149D01*
X85733Y13112D01*
X85734Y13073D01*
X85726Y13019D01*
X85726Y2540D01*
X85737Y2475D01*
X85739Y2409D01*
X85757Y2366D01*
X85765Y2319D01*
X85799Y2262D01*
X85824Y2202D01*
X85855Y2167D01*
X85880Y2126D01*
X85931Y2084D01*
X85975Y2036D01*
X86017Y2014D01*
X86054Y1985D01*
X86116Y1964D01*
X86175Y1933D01*
X86229Y1925D01*
X86266Y1913D01*
X86306Y1914D01*
X86360Y1906D01*
X109960Y1906D01*
X110025Y1917D01*
G37*
G36*
X77535Y1917D02*
X77535Y1917D01*
X77601Y1919D01*
X77644Y1937D01*
X77691Y1945D01*
X77748Y1979D01*
X77808Y2004D01*
X77843Y2035D01*
X77884Y2060D01*
X77926Y2111D01*
X77974Y2155D01*
X77996Y2197D01*
X78025Y2234D01*
X78046Y2296D01*
X78077Y2355D01*
X78085Y2409D01*
X78097Y2446D01*
X78096Y2486D01*
X78104Y2540D01*
X78104Y13019D01*
X78093Y13083D01*
X78091Y13149D01*
X78073Y13193D01*
X78065Y13239D01*
X78031Y13296D01*
X78006Y13357D01*
X77975Y13392D01*
X77950Y13433D01*
X77899Y13474D01*
X77855Y13523D01*
X77813Y13544D01*
X77776Y13574D01*
X77714Y13595D01*
X77655Y13625D01*
X77601Y13633D01*
X77564Y13646D01*
X77524Y13645D01*
X77470Y13653D01*
X76897Y13653D01*
X76152Y14397D01*
X76152Y21701D01*
X76145Y21743D01*
X76147Y21785D01*
X76125Y21852D01*
X76113Y21922D01*
X76091Y21958D01*
X76078Y21999D01*
X76024Y22071D01*
X75998Y22115D01*
X75982Y22128D01*
X75966Y22149D01*
X59054Y39062D01*
X59054Y53095D01*
X59043Y53160D01*
X59041Y53226D01*
X59023Y53269D01*
X59015Y53316D01*
X58981Y53373D01*
X58956Y53433D01*
X58925Y53468D01*
X58900Y53509D01*
X58849Y53551D01*
X58805Y53599D01*
X58763Y53621D01*
X58726Y53650D01*
X58664Y53671D01*
X58605Y53702D01*
X58551Y53710D01*
X58514Y53722D01*
X58474Y53721D01*
X58420Y53729D01*
X55974Y53729D01*
X55229Y54474D01*
X55229Y73526D01*
X55974Y74271D01*
X58420Y74271D01*
X58485Y74282D01*
X58551Y74284D01*
X58594Y74302D01*
X58641Y74310D01*
X58698Y74344D01*
X58758Y74369D01*
X58793Y74400D01*
X58834Y74425D01*
X58876Y74476D01*
X58924Y74520D01*
X58946Y74562D01*
X58975Y74599D01*
X58996Y74661D01*
X59027Y74720D01*
X59035Y74774D01*
X59047Y74811D01*
X59046Y74851D01*
X59054Y74905D01*
X59054Y125095D01*
X59043Y125160D01*
X59041Y125226D01*
X59023Y125269D01*
X59015Y125316D01*
X58981Y125373D01*
X58956Y125433D01*
X58925Y125468D01*
X58900Y125509D01*
X58849Y125551D01*
X58805Y125599D01*
X58763Y125621D01*
X58726Y125650D01*
X58664Y125671D01*
X58605Y125702D01*
X58551Y125710D01*
X58514Y125722D01*
X58474Y125721D01*
X58420Y125729D01*
X54474Y125729D01*
X53729Y126474D01*
X53729Y139374D01*
X53722Y139416D01*
X53724Y139458D01*
X53702Y139525D01*
X53690Y139595D01*
X53668Y139631D01*
X53655Y139672D01*
X53601Y139744D01*
X53575Y139788D01*
X53559Y139801D01*
X53543Y139822D01*
X48623Y144742D01*
X48550Y144793D01*
X48481Y144849D01*
X48459Y144857D01*
X48439Y144870D01*
X48353Y144893D01*
X48269Y144921D01*
X48245Y144920D01*
X48222Y144926D01*
X48133Y144917D01*
X48044Y144915D01*
X48022Y144906D01*
X47999Y144903D01*
X47919Y144864D01*
X47837Y144830D01*
X47819Y144814D01*
X47798Y144804D01*
X47737Y144739D01*
X47671Y144679D01*
X47660Y144658D01*
X47644Y144640D01*
X47609Y144559D01*
X47568Y144479D01*
X47565Y144453D01*
X47556Y144434D01*
X47554Y144383D01*
X47541Y144294D01*
X47541Y137269D01*
X38769Y137269D01*
X38769Y147541D01*
X45335Y147541D01*
X45556Y147481D01*
X45592Y147478D01*
X45626Y147467D01*
X45703Y147469D01*
X45779Y147463D01*
X45814Y147472D01*
X45851Y147473D01*
X45921Y147502D01*
X45996Y147523D01*
X46025Y147544D01*
X46058Y147558D01*
X46115Y147609D01*
X46177Y147654D01*
X46197Y147685D01*
X46224Y147709D01*
X46259Y147777D01*
X46302Y147841D01*
X46310Y147876D01*
X46327Y147909D01*
X46342Y148011D01*
X46353Y148059D01*
X46351Y148075D01*
X46354Y148094D01*
X46354Y162128D01*
X46338Y162216D01*
X46329Y162304D01*
X46319Y162325D01*
X46315Y162349D01*
X46269Y162425D01*
X46230Y162505D01*
X46213Y162522D01*
X46200Y162542D01*
X46131Y162598D01*
X46067Y162659D01*
X46045Y162668D01*
X46026Y162683D01*
X45942Y162712D01*
X45860Y162747D01*
X45836Y162748D01*
X45814Y162755D01*
X45725Y162753D01*
X45636Y162757D01*
X45613Y162749D01*
X45589Y162749D01*
X45507Y162715D01*
X45422Y162688D01*
X45401Y162672D01*
X45382Y162664D01*
X45344Y162630D01*
X45272Y162576D01*
X31319Y148623D01*
X31268Y148550D01*
X31212Y148481D01*
X31204Y148459D01*
X31190Y148439D01*
X31168Y148353D01*
X31140Y148269D01*
X31140Y148245D01*
X31135Y148222D01*
X31144Y148133D01*
X31146Y148044D01*
X31155Y148022D01*
X31158Y147999D01*
X31197Y147919D01*
X31231Y147837D01*
X31247Y147819D01*
X31257Y147798D01*
X31322Y147737D01*
X31382Y147671D01*
X31403Y147660D01*
X31420Y147644D01*
X31502Y147609D01*
X31582Y147568D01*
X31608Y147565D01*
X31627Y147556D01*
X31677Y147554D01*
X31767Y147541D01*
X36231Y147541D01*
X36231Y136635D01*
X36242Y136570D01*
X36244Y136505D01*
X36262Y136461D01*
X36270Y136414D01*
X36304Y136358D01*
X36329Y136297D01*
X36361Y136262D01*
X36385Y136221D01*
X36436Y136180D01*
X36480Y136131D01*
X36522Y136109D01*
X36559Y136080D01*
X36621Y136059D01*
X36680Y136029D01*
X36734Y136020D01*
X36771Y136008D01*
X36811Y136009D01*
X36865Y136001D01*
X37501Y136001D01*
X37501Y135999D01*
X36865Y135999D01*
X36800Y135987D01*
X36735Y135986D01*
X36691Y135968D01*
X36644Y135959D01*
X36587Y135926D01*
X36527Y135901D01*
X36492Y135869D01*
X36451Y135845D01*
X36410Y135794D01*
X36361Y135750D01*
X36339Y135708D01*
X36310Y135671D01*
X36289Y135609D01*
X36258Y135550D01*
X36250Y135496D01*
X36238Y135459D01*
X36239Y135425D01*
X36238Y135422D01*
X36238Y135413D01*
X36231Y135365D01*
X36231Y124459D01*
X30040Y124459D01*
X29975Y124448D01*
X29909Y124446D01*
X29866Y124428D01*
X29819Y124420D01*
X29762Y124386D01*
X29702Y124361D01*
X29667Y124330D01*
X29626Y124305D01*
X29584Y124254D01*
X29536Y124210D01*
X29514Y124168D01*
X29485Y124131D01*
X29464Y124069D01*
X29433Y124010D01*
X29425Y123956D01*
X29413Y123919D01*
X29414Y123879D01*
X29406Y123825D01*
X29406Y75823D01*
X29407Y75817D01*
X29406Y75811D01*
X29427Y75706D01*
X29445Y75602D01*
X29449Y75597D01*
X29450Y75591D01*
X29505Y75501D01*
X29560Y75409D01*
X29564Y75405D01*
X29568Y75400D01*
X29651Y75335D01*
X29734Y75268D01*
X29740Y75266D01*
X29745Y75262D01*
X29846Y75230D01*
X29946Y75196D01*
X29953Y75196D01*
X29959Y75194D01*
X30065Y75199D01*
X30171Y75203D01*
X30176Y75205D01*
X30183Y75205D01*
X30357Y75274D01*
X30519Y75368D01*
X31165Y75541D01*
X36231Y75541D01*
X36231Y64635D01*
X36242Y64570D01*
X36244Y64505D01*
X36262Y64461D01*
X36270Y64414D01*
X36304Y64358D01*
X36329Y64297D01*
X36361Y64262D01*
X36385Y64221D01*
X36436Y64180D01*
X36480Y64131D01*
X36522Y64109D01*
X36559Y64080D01*
X36621Y64059D01*
X36680Y64029D01*
X36734Y64020D01*
X36771Y64008D01*
X36811Y64009D01*
X36865Y64001D01*
X37501Y64001D01*
X37501Y63999D01*
X36865Y63999D01*
X36800Y63987D01*
X36735Y63986D01*
X36691Y63968D01*
X36644Y63959D01*
X36587Y63926D01*
X36527Y63901D01*
X36492Y63869D01*
X36451Y63845D01*
X36410Y63794D01*
X36361Y63750D01*
X36339Y63708D01*
X36310Y63671D01*
X36289Y63609D01*
X36258Y63550D01*
X36250Y63496D01*
X36238Y63459D01*
X36239Y63419D01*
X36231Y63365D01*
X36231Y52459D01*
X31165Y52459D01*
X30519Y52632D01*
X30357Y52726D01*
X30351Y52728D01*
X30346Y52732D01*
X30246Y52766D01*
X30146Y52802D01*
X30140Y52802D01*
X30134Y52804D01*
X30028Y52801D01*
X29922Y52800D01*
X29916Y52798D01*
X29909Y52797D01*
X29812Y52758D01*
X29712Y52720D01*
X29707Y52716D01*
X29702Y52713D01*
X29624Y52642D01*
X29544Y52572D01*
X29541Y52566D01*
X29536Y52562D01*
X29488Y52468D01*
X29437Y52374D01*
X29436Y52368D01*
X29433Y52362D01*
X29406Y52177D01*
X29406Y41052D01*
X29413Y41010D01*
X29411Y40968D01*
X29433Y40901D01*
X29445Y40831D01*
X29467Y40795D01*
X29480Y40754D01*
X29534Y40682D01*
X29560Y40638D01*
X29576Y40625D01*
X29592Y40604D01*
X41906Y28289D01*
X41906Y28251D01*
X41917Y28187D01*
X41919Y28121D01*
X41937Y28077D01*
X41945Y28031D01*
X41979Y27974D01*
X42004Y27913D01*
X42035Y27878D01*
X42060Y27837D01*
X42111Y27796D01*
X42155Y27747D01*
X42197Y27726D01*
X42234Y27696D01*
X42296Y27675D01*
X42355Y27645D01*
X42409Y27637D01*
X42446Y27624D01*
X42486Y27625D01*
X42540Y27617D01*
X46264Y27617D01*
X46264Y20635D01*
X46275Y20570D01*
X46277Y20505D01*
X46295Y20461D01*
X46303Y20414D01*
X46337Y20358D01*
X46362Y20297D01*
X46394Y20262D01*
X46418Y20221D01*
X46469Y20180D01*
X46513Y20131D01*
X46555Y20109D01*
X46592Y20080D01*
X46654Y20059D01*
X46713Y20029D01*
X46767Y20020D01*
X46804Y20008D01*
X46844Y20009D01*
X46898Y20001D01*
X47534Y20001D01*
X47534Y19999D01*
X46898Y19999D01*
X46833Y19987D01*
X46768Y19986D01*
X46724Y19968D01*
X46677Y19959D01*
X46620Y19926D01*
X46560Y19901D01*
X46525Y19869D01*
X46484Y19845D01*
X46443Y19794D01*
X46394Y19750D01*
X46372Y19708D01*
X46343Y19671D01*
X46322Y19609D01*
X46291Y19550D01*
X46283Y19496D01*
X46271Y19459D01*
X46272Y19419D01*
X46264Y19365D01*
X46264Y12383D01*
X42540Y12383D01*
X42475Y12371D01*
X42409Y12369D01*
X42366Y12351D01*
X42319Y12343D01*
X42262Y12310D01*
X42202Y12285D01*
X42167Y12253D01*
X42126Y12229D01*
X42084Y12178D01*
X42036Y12133D01*
X42014Y12091D01*
X41985Y12055D01*
X41964Y11993D01*
X41933Y11934D01*
X41925Y11879D01*
X41913Y11842D01*
X41914Y11803D01*
X41906Y11749D01*
X41906Y6052D01*
X41913Y6010D01*
X41911Y5968D01*
X41933Y5901D01*
X41945Y5831D01*
X41967Y5795D01*
X41980Y5754D01*
X42034Y5681D01*
X42060Y5638D01*
X42076Y5625D01*
X42091Y5604D01*
X45604Y2092D01*
X45638Y2067D01*
X45667Y2036D01*
X45730Y2004D01*
X45788Y1963D01*
X45829Y1953D01*
X45867Y1933D01*
X45956Y1920D01*
X46005Y1907D01*
X46026Y1910D01*
X46052Y1906D01*
X77470Y1906D01*
X77535Y1917D01*
G37*
G36*
X-52005Y1917D02*
X-52005Y1917D01*
X-51939Y1919D01*
X-51896Y1937D01*
X-51849Y1945D01*
X-51792Y1979D01*
X-51732Y2004D01*
X-51697Y2035D01*
X-51656Y2060D01*
X-51614Y2111D01*
X-51566Y2155D01*
X-51544Y2197D01*
X-51515Y2234D01*
X-51494Y2296D01*
X-51463Y2355D01*
X-51455Y2409D01*
X-51443Y2446D01*
X-51444Y2486D01*
X-51436Y2540D01*
X-51436Y13019D01*
X-51447Y13083D01*
X-51449Y13149D01*
X-51467Y13193D01*
X-51475Y13239D01*
X-51509Y13296D01*
X-51534Y13357D01*
X-51565Y13392D01*
X-51590Y13433D01*
X-51641Y13474D01*
X-51685Y13523D01*
X-51727Y13544D01*
X-51764Y13574D01*
X-51826Y13595D01*
X-51885Y13625D01*
X-51939Y13633D01*
X-51976Y13646D01*
X-52016Y13645D01*
X-52070Y13653D01*
X-53103Y13653D01*
X-53848Y14397D01*
X-53848Y25603D01*
X-53103Y26347D01*
X-47885Y26347D01*
X-47843Y26355D01*
X-47800Y26353D01*
X-47733Y26374D01*
X-47664Y26387D01*
X-47627Y26408D01*
X-47587Y26421D01*
X-47514Y26475D01*
X-47471Y26501D01*
X-47457Y26517D01*
X-47436Y26533D01*
X-42097Y31873D01*
X-42072Y31907D01*
X-42041Y31936D01*
X-42009Y31999D01*
X-41968Y32057D01*
X-41958Y32098D01*
X-41938Y32136D01*
X-41925Y32225D01*
X-41912Y32274D01*
X-41915Y32295D01*
X-41911Y32321D01*
X-41911Y53095D01*
X-41922Y53160D01*
X-41924Y53226D01*
X-41942Y53269D01*
X-41950Y53316D01*
X-41984Y53373D01*
X-42009Y53433D01*
X-42040Y53468D01*
X-42065Y53509D01*
X-42116Y53551D01*
X-42160Y53599D01*
X-42202Y53621D01*
X-42239Y53650D01*
X-42301Y53671D01*
X-42360Y53702D01*
X-42414Y53710D01*
X-42451Y53722D01*
X-42491Y53721D01*
X-42545Y53729D01*
X-44026Y53729D01*
X-44771Y54474D01*
X-44771Y73526D01*
X-44026Y74271D01*
X-41910Y74271D01*
X-41845Y74282D01*
X-41779Y74284D01*
X-41736Y74302D01*
X-41689Y74310D01*
X-41632Y74344D01*
X-41572Y74369D01*
X-41537Y74400D01*
X-41496Y74425D01*
X-41454Y74476D01*
X-41406Y74520D01*
X-41384Y74562D01*
X-41355Y74599D01*
X-41334Y74661D01*
X-41303Y74720D01*
X-41295Y74774D01*
X-41283Y74811D01*
X-41284Y74851D01*
X-41276Y74905D01*
X-41276Y125095D01*
X-41287Y125160D01*
X-41289Y125226D01*
X-41307Y125269D01*
X-41315Y125316D01*
X-41349Y125373D01*
X-41374Y125433D01*
X-41405Y125468D01*
X-41430Y125509D01*
X-41481Y125551D01*
X-41525Y125599D01*
X-41567Y125621D01*
X-41604Y125650D01*
X-41666Y125671D01*
X-41725Y125702D01*
X-41779Y125710D01*
X-41816Y125722D01*
X-41856Y125721D01*
X-41910Y125729D01*
X-45526Y125729D01*
X-46271Y126474D01*
X-46271Y139044D01*
X-46278Y139086D01*
X-46276Y139128D01*
X-46298Y139195D01*
X-46310Y139265D01*
X-46332Y139301D01*
X-46345Y139342D01*
X-46399Y139414D01*
X-46425Y139458D01*
X-46441Y139471D01*
X-46457Y139492D01*
X-51377Y144412D01*
X-51450Y144463D01*
X-51519Y144519D01*
X-51541Y144527D01*
X-51561Y144540D01*
X-51647Y144563D01*
X-51731Y144591D01*
X-51755Y144590D01*
X-51778Y144596D01*
X-51867Y144587D01*
X-51956Y144585D01*
X-51978Y144576D01*
X-52001Y144573D01*
X-52081Y144534D01*
X-52163Y144500D01*
X-52181Y144484D01*
X-52202Y144474D01*
X-52263Y144409D01*
X-52329Y144349D01*
X-52340Y144328D01*
X-52356Y144310D01*
X-52391Y144229D01*
X-52432Y144149D01*
X-52435Y144123D01*
X-52444Y144104D01*
X-52446Y144053D01*
X-52459Y143964D01*
X-52459Y137269D01*
X-61231Y137269D01*
X-61231Y147541D01*
X-54665Y147541D01*
X-54139Y147400D01*
X-54103Y147397D01*
X-54069Y147385D01*
X-54028Y147386D01*
X-53978Y147379D01*
X-53975Y147379D01*
X-53948Y147384D01*
X-53916Y147381D01*
X-53881Y147391D01*
X-53844Y147392D01*
X-53798Y147411D01*
X-53754Y147418D01*
X-53731Y147432D01*
X-53699Y147441D01*
X-53670Y147462D01*
X-53637Y147476D01*
X-53600Y147510D01*
X-53561Y147533D01*
X-53543Y147554D01*
X-53518Y147573D01*
X-53498Y147603D01*
X-53471Y147627D01*
X-53448Y147671D01*
X-53420Y147707D01*
X-53410Y147734D01*
X-53393Y147759D01*
X-53385Y147795D01*
X-53368Y147827D01*
X-53360Y147882D01*
X-53348Y147919D01*
X-53349Y147949D01*
X-53342Y147978D01*
X-53344Y147993D01*
X-53341Y148012D01*
X-53341Y162433D01*
X-53357Y162521D01*
X-53366Y162609D01*
X-53376Y162630D01*
X-53380Y162654D01*
X-53426Y162730D01*
X-53465Y162810D01*
X-53482Y162827D01*
X-53495Y162847D01*
X-53564Y162903D01*
X-53628Y162964D01*
X-53650Y162973D01*
X-53669Y162988D01*
X-53753Y163017D01*
X-53835Y163052D01*
X-53859Y163053D01*
X-53881Y163060D01*
X-53970Y163058D01*
X-54059Y163062D01*
X-54082Y163054D01*
X-54106Y163054D01*
X-54188Y163020D01*
X-54273Y162993D01*
X-54294Y162977D01*
X-54313Y162969D01*
X-54351Y162935D01*
X-54423Y162881D01*
X-68681Y148623D01*
X-68732Y148550D01*
X-68788Y148481D01*
X-68796Y148459D01*
X-68810Y148439D01*
X-68832Y148353D01*
X-68860Y148269D01*
X-68860Y148245D01*
X-68865Y148222D01*
X-68856Y148133D01*
X-68854Y148044D01*
X-68845Y148022D01*
X-68842Y147999D01*
X-68803Y147919D01*
X-68769Y147837D01*
X-68753Y147819D01*
X-68743Y147798D01*
X-68678Y147737D01*
X-68618Y147671D01*
X-68597Y147660D01*
X-68580Y147644D01*
X-68498Y147609D01*
X-68418Y147568D01*
X-68392Y147565D01*
X-68373Y147556D01*
X-68323Y147554D01*
X-68233Y147541D01*
X-63769Y147541D01*
X-63769Y136635D01*
X-63758Y136570D01*
X-63756Y136505D01*
X-63738Y136461D01*
X-63729Y136414D01*
X-63696Y136358D01*
X-63671Y136297D01*
X-63639Y136262D01*
X-63615Y136221D01*
X-63564Y136180D01*
X-63520Y136131D01*
X-63478Y136109D01*
X-63441Y136080D01*
X-63379Y136059D01*
X-63320Y136029D01*
X-63266Y136020D01*
X-63229Y136008D01*
X-63189Y136009D01*
X-63135Y136001D01*
X-62499Y136001D01*
X-62499Y135999D01*
X-63135Y135999D01*
X-63200Y135987D01*
X-63265Y135986D01*
X-63309Y135968D01*
X-63356Y135959D01*
X-63413Y135926D01*
X-63473Y135901D01*
X-63508Y135869D01*
X-63549Y135845D01*
X-63590Y135794D01*
X-63639Y135750D01*
X-63661Y135708D01*
X-63690Y135671D01*
X-63711Y135609D01*
X-63741Y135550D01*
X-63750Y135496D01*
X-63762Y135459D01*
X-63761Y135425D01*
X-63762Y135422D01*
X-63762Y135413D01*
X-63769Y135365D01*
X-63769Y124459D01*
X-69960Y124459D01*
X-70025Y124448D01*
X-70091Y124446D01*
X-70134Y124428D01*
X-70181Y124420D01*
X-70238Y124386D01*
X-70298Y124361D01*
X-70333Y124330D01*
X-70374Y124305D01*
X-70416Y124254D01*
X-70464Y124210D01*
X-70486Y124168D01*
X-70515Y124131D01*
X-70536Y124069D01*
X-70567Y124010D01*
X-70575Y123956D01*
X-70587Y123919D01*
X-70586Y123879D01*
X-70594Y123825D01*
X-70594Y75823D01*
X-70593Y75817D01*
X-70594Y75811D01*
X-70573Y75706D01*
X-70555Y75602D01*
X-70551Y75597D01*
X-70550Y75591D01*
X-70495Y75501D01*
X-70440Y75409D01*
X-70436Y75405D01*
X-70432Y75400D01*
X-70349Y75335D01*
X-70266Y75268D01*
X-70260Y75266D01*
X-70255Y75262D01*
X-70154Y75230D01*
X-70054Y75196D01*
X-70047Y75196D01*
X-70041Y75194D01*
X-69935Y75199D01*
X-69829Y75203D01*
X-69824Y75205D01*
X-69817Y75205D01*
X-69643Y75274D01*
X-69481Y75368D01*
X-68835Y75541D01*
X-63769Y75541D01*
X-63769Y64635D01*
X-63758Y64570D01*
X-63756Y64505D01*
X-63738Y64461D01*
X-63729Y64414D01*
X-63696Y64358D01*
X-63671Y64297D01*
X-63639Y64262D01*
X-63615Y64221D01*
X-63564Y64180D01*
X-63520Y64131D01*
X-63478Y64109D01*
X-63441Y64080D01*
X-63379Y64059D01*
X-63320Y64029D01*
X-63266Y64020D01*
X-63229Y64008D01*
X-63189Y64009D01*
X-63135Y64001D01*
X-62499Y64001D01*
X-62499Y63999D01*
X-63135Y63999D01*
X-63200Y63987D01*
X-63265Y63986D01*
X-63309Y63968D01*
X-63356Y63959D01*
X-63413Y63926D01*
X-63473Y63901D01*
X-63508Y63869D01*
X-63549Y63845D01*
X-63590Y63794D01*
X-63639Y63750D01*
X-63661Y63708D01*
X-63690Y63671D01*
X-63711Y63609D01*
X-63741Y63550D01*
X-63750Y63496D01*
X-63762Y63459D01*
X-63761Y63419D01*
X-63769Y63365D01*
X-63769Y52459D01*
X-68835Y52459D01*
X-69481Y52632D01*
X-69643Y52726D01*
X-69649Y52728D01*
X-69654Y52732D01*
X-69754Y52766D01*
X-69854Y52802D01*
X-69860Y52802D01*
X-69866Y52804D01*
X-69972Y52801D01*
X-70078Y52800D01*
X-70084Y52798D01*
X-70091Y52797D01*
X-70188Y52758D01*
X-70288Y52720D01*
X-70293Y52716D01*
X-70298Y52713D01*
X-70376Y52642D01*
X-70456Y52572D01*
X-70459Y52566D01*
X-70464Y52562D01*
X-70512Y52468D01*
X-70563Y52374D01*
X-70564Y52368D01*
X-70567Y52362D01*
X-70594Y52177D01*
X-70594Y28552D01*
X-70587Y28510D01*
X-70589Y28468D01*
X-70567Y28401D01*
X-70555Y28331D01*
X-70533Y28295D01*
X-70520Y28254D01*
X-70466Y28182D01*
X-70440Y28138D01*
X-70424Y28125D01*
X-70408Y28104D01*
X-55594Y13289D01*
X-55594Y2540D01*
X-55583Y2475D01*
X-55581Y2409D01*
X-55563Y2366D01*
X-55555Y2319D01*
X-55521Y2262D01*
X-55496Y2202D01*
X-55465Y2167D01*
X-55440Y2126D01*
X-55389Y2084D01*
X-55345Y2036D01*
X-55303Y2014D01*
X-55266Y1985D01*
X-55204Y1964D01*
X-55145Y1933D01*
X-55091Y1925D01*
X-55054Y1913D01*
X-55014Y1914D01*
X-54960Y1906D01*
X-52070Y1906D01*
X-52005Y1917D01*
G37*
G36*
X-28510Y6913D02*
X-28510Y6913D01*
X-28468Y6911D01*
X-28401Y6933D01*
X-28331Y6945D01*
X-28295Y6967D01*
X-28254Y6980D01*
X-28182Y7034D01*
X-28138Y7060D01*
X-28125Y7076D01*
X-28104Y7092D01*
X-10652Y24543D01*
X-10628Y24578D01*
X-10596Y24607D01*
X-10564Y24669D01*
X-10524Y24727D01*
X-10513Y24768D01*
X-10494Y24806D01*
X-10481Y24896D01*
X-10468Y24945D01*
X-10470Y24965D01*
X-10466Y24992D01*
X-10466Y30672D01*
X-9722Y31417D01*
X-5040Y31417D01*
X-4975Y31428D01*
X-4909Y31430D01*
X-4866Y31448D01*
X-4819Y31456D01*
X-4762Y31490D01*
X-4702Y31515D01*
X-4667Y31546D01*
X-4626Y31571D01*
X-4584Y31622D01*
X-4536Y31666D01*
X-4514Y31708D01*
X-4485Y31745D01*
X-4464Y31807D01*
X-4433Y31866D01*
X-4425Y31920D01*
X-4413Y31957D01*
X-4414Y31997D01*
X-4406Y32051D01*
X-4406Y52177D01*
X-4407Y52183D01*
X-4406Y52189D01*
X-4427Y52293D01*
X-4445Y52398D01*
X-4449Y52403D01*
X-4450Y52409D01*
X-4505Y52499D01*
X-4560Y52591D01*
X-4564Y52595D01*
X-4568Y52600D01*
X-4651Y52665D01*
X-4734Y52732D01*
X-4740Y52734D01*
X-4745Y52738D01*
X-4846Y52770D01*
X-4946Y52804D01*
X-4953Y52804D01*
X-4959Y52806D01*
X-5065Y52801D01*
X-5171Y52797D01*
X-5176Y52795D01*
X-5183Y52795D01*
X-5357Y52726D01*
X-5519Y52632D01*
X-6165Y52459D01*
X-11231Y52459D01*
X-11231Y63365D01*
X-11242Y63430D01*
X-11244Y63495D01*
X-11262Y63539D01*
X-11270Y63586D01*
X-11304Y63642D01*
X-11329Y63703D01*
X-11361Y63738D01*
X-11385Y63779D01*
X-11436Y63820D01*
X-11480Y63869D01*
X-11522Y63891D01*
X-11559Y63920D01*
X-11621Y63941D01*
X-11680Y63971D01*
X-11734Y63980D01*
X-11771Y63992D01*
X-11811Y63991D01*
X-11865Y63999D01*
X-12501Y63999D01*
X-12501Y64001D01*
X-11865Y64001D01*
X-11800Y64013D01*
X-11735Y64014D01*
X-11691Y64032D01*
X-11644Y64041D01*
X-11587Y64074D01*
X-11527Y64099D01*
X-11492Y64131D01*
X-11451Y64155D01*
X-11410Y64206D01*
X-11361Y64250D01*
X-11339Y64292D01*
X-11310Y64329D01*
X-11289Y64391D01*
X-11258Y64450D01*
X-11250Y64504D01*
X-11238Y64541D01*
X-11239Y64581D01*
X-11231Y64635D01*
X-11231Y75541D01*
X-6165Y75541D01*
X-5519Y75368D01*
X-5357Y75274D01*
X-5351Y75272D01*
X-5346Y75268D01*
X-5246Y75234D01*
X-5146Y75198D01*
X-5140Y75198D01*
X-5134Y75196D01*
X-5028Y75199D01*
X-4922Y75200D01*
X-4916Y75202D01*
X-4909Y75203D01*
X-4812Y75242D01*
X-4712Y75280D01*
X-4707Y75284D01*
X-4702Y75287D01*
X-4624Y75358D01*
X-4544Y75428D01*
X-4541Y75434D01*
X-4536Y75438D01*
X-4488Y75532D01*
X-4437Y75626D01*
X-4436Y75632D01*
X-4433Y75638D01*
X-4406Y75823D01*
X-4406Y103948D01*
X-4413Y103990D01*
X-4411Y104032D01*
X-4433Y104099D01*
X-4445Y104169D01*
X-4467Y104205D01*
X-4480Y104246D01*
X-4534Y104318D01*
X-4560Y104362D01*
X-4576Y104375D01*
X-4592Y104396D01*
X-27647Y127451D01*
X-27720Y127502D01*
X-27789Y127558D01*
X-27811Y127566D01*
X-27831Y127580D01*
X-27917Y127602D01*
X-28001Y127630D01*
X-28025Y127630D01*
X-28048Y127635D01*
X-28137Y127626D01*
X-28226Y127624D01*
X-28248Y127615D01*
X-28271Y127612D01*
X-28351Y127573D01*
X-28433Y127539D01*
X-28451Y127523D01*
X-28472Y127513D01*
X-28533Y127448D01*
X-28599Y127388D01*
X-28610Y127367D01*
X-28626Y127350D01*
X-28661Y127268D01*
X-28702Y127188D01*
X-28705Y127162D01*
X-28714Y127143D01*
X-28716Y127093D01*
X-28729Y127003D01*
X-28729Y126474D01*
X-29474Y125729D01*
X-33020Y125729D01*
X-33085Y125718D01*
X-33151Y125716D01*
X-33194Y125698D01*
X-33241Y125690D01*
X-33298Y125656D01*
X-33358Y125631D01*
X-33393Y125600D01*
X-33434Y125575D01*
X-33476Y125524D01*
X-33524Y125480D01*
X-33546Y125438D01*
X-33575Y125401D01*
X-33596Y125339D01*
X-33627Y125280D01*
X-33635Y125226D01*
X-33647Y125189D01*
X-33646Y125149D01*
X-33654Y125095D01*
X-33654Y74905D01*
X-33643Y74840D01*
X-33641Y74774D01*
X-33623Y74731D01*
X-33615Y74684D01*
X-33581Y74627D01*
X-33556Y74567D01*
X-33525Y74532D01*
X-33500Y74491D01*
X-33449Y74449D01*
X-33405Y74401D01*
X-33363Y74379D01*
X-33326Y74350D01*
X-33264Y74329D01*
X-33205Y74298D01*
X-33151Y74290D01*
X-33114Y74278D01*
X-33074Y74279D01*
X-33020Y74271D01*
X-30974Y74271D01*
X-30229Y73526D01*
X-30229Y54474D01*
X-30974Y53729D01*
X-33655Y53729D01*
X-33720Y53718D01*
X-33786Y53716D01*
X-33829Y53698D01*
X-33876Y53690D01*
X-33933Y53656D01*
X-33993Y53631D01*
X-34028Y53600D01*
X-34069Y53575D01*
X-34111Y53524D01*
X-34159Y53480D01*
X-34181Y53438D01*
X-34210Y53401D01*
X-34231Y53339D01*
X-34262Y53280D01*
X-34270Y53226D01*
X-34282Y53189D01*
X-34281Y53149D01*
X-34289Y53095D01*
X-34289Y28902D01*
X-34491Y28700D01*
X-34542Y28627D01*
X-34598Y28558D01*
X-34605Y28535D01*
X-34619Y28516D01*
X-34641Y28429D01*
X-34670Y28345D01*
X-34669Y28322D01*
X-34675Y28299D01*
X-34666Y28210D01*
X-34663Y28121D01*
X-34654Y28099D01*
X-34652Y28075D01*
X-34612Y27995D01*
X-34579Y27913D01*
X-34563Y27896D01*
X-34552Y27874D01*
X-34487Y27813D01*
X-34427Y27747D01*
X-34406Y27737D01*
X-34389Y27720D01*
X-34307Y27686D01*
X-34228Y27645D01*
X-34202Y27641D01*
X-34182Y27633D01*
X-34132Y27631D01*
X-34042Y27617D01*
X-33736Y27617D01*
X-33736Y20635D01*
X-33725Y20570D01*
X-33723Y20505D01*
X-33705Y20461D01*
X-33696Y20414D01*
X-33663Y20358D01*
X-33638Y20297D01*
X-33606Y20262D01*
X-33582Y20221D01*
X-33531Y20180D01*
X-33487Y20131D01*
X-33445Y20109D01*
X-33408Y20080D01*
X-33346Y20059D01*
X-33287Y20029D01*
X-33233Y20020D01*
X-33196Y20008D01*
X-33156Y20009D01*
X-33102Y20001D01*
X-32466Y20001D01*
X-32466Y19999D01*
X-33102Y19999D01*
X-33167Y19987D01*
X-33232Y19986D01*
X-33276Y19968D01*
X-33323Y19959D01*
X-33380Y19926D01*
X-33440Y19901D01*
X-33475Y19869D01*
X-33516Y19845D01*
X-33557Y19794D01*
X-33606Y19750D01*
X-33628Y19708D01*
X-33657Y19671D01*
X-33678Y19609D01*
X-33708Y19550D01*
X-33717Y19496D01*
X-33729Y19459D01*
X-33728Y19419D01*
X-33736Y19365D01*
X-33736Y12383D01*
X-37846Y12383D01*
X-38492Y12556D01*
X-39071Y12890D01*
X-39544Y13363D01*
X-39879Y13943D01*
X-39973Y14297D01*
X-39976Y14302D01*
X-39977Y14309D01*
X-40023Y14402D01*
X-40069Y14500D01*
X-40073Y14504D01*
X-40076Y14510D01*
X-40153Y14582D01*
X-40229Y14657D01*
X-40235Y14659D01*
X-40239Y14664D01*
X-40337Y14705D01*
X-40434Y14748D01*
X-40440Y14749D01*
X-40446Y14751D01*
X-40552Y14756D01*
X-40658Y14763D01*
X-40664Y14761D01*
X-40670Y14761D01*
X-40771Y14729D01*
X-40873Y14698D01*
X-40878Y14694D01*
X-40884Y14692D01*
X-41035Y14581D01*
X-41963Y13653D01*
X-43180Y13653D01*
X-43245Y13641D01*
X-43311Y13639D01*
X-43354Y13621D01*
X-43401Y13613D01*
X-43458Y13580D01*
X-43518Y13555D01*
X-43553Y13523D01*
X-43594Y13499D01*
X-43636Y13448D01*
X-43684Y13403D01*
X-43706Y13361D01*
X-43735Y13325D01*
X-43756Y13263D01*
X-43787Y13204D01*
X-43795Y13149D01*
X-43807Y13112D01*
X-43806Y13073D01*
X-43814Y13019D01*
X-43814Y7724D01*
X-43799Y7637D01*
X-43789Y7548D01*
X-43779Y7527D01*
X-43775Y7503D01*
X-43729Y7427D01*
X-43690Y7347D01*
X-43673Y7331D01*
X-43660Y7310D01*
X-43591Y7254D01*
X-43527Y7193D01*
X-43505Y7184D01*
X-43486Y7169D01*
X-43402Y7140D01*
X-43320Y7106D01*
X-43296Y7105D01*
X-43274Y7097D01*
X-43185Y7100D01*
X-43096Y7096D01*
X-43073Y7103D01*
X-43049Y7104D01*
X-42967Y7137D01*
X-42882Y7164D01*
X-42861Y7180D01*
X-42842Y7188D01*
X-42804Y7222D01*
X-42732Y7276D01*
X-41467Y8541D01*
X-38533Y8541D01*
X-37084Y7092D01*
X-37049Y7067D01*
X-37021Y7036D01*
X-36958Y7004D01*
X-36900Y6963D01*
X-36859Y6953D01*
X-36821Y6933D01*
X-36731Y6920D01*
X-36683Y6907D01*
X-36662Y6910D01*
X-36636Y6906D01*
X-28552Y6906D01*
X-28510Y6913D01*
G37*
%LPC*%
G36*
X-78581Y241999D02*
X-78581Y241999D01*
X-85197Y244740D01*
X-90260Y249803D01*
X-93001Y256419D01*
X-93001Y263581D01*
X-90260Y270197D01*
X-85197Y275260D01*
X-78581Y278001D01*
X-71419Y278001D01*
X-64803Y275260D01*
X-59740Y270197D01*
X-56999Y263581D01*
X-56999Y256419D01*
X-59740Y249803D01*
X-64803Y244740D01*
X-71419Y241999D01*
X-78581Y241999D01*
G37*
%LPD*%
%LPC*%
G36*
X71419Y171999D02*
X71419Y171999D01*
X64803Y174740D01*
X59740Y179803D01*
X56999Y186419D01*
X56999Y193581D01*
X59740Y200197D01*
X64803Y205260D01*
X71419Y208001D01*
X78581Y208001D01*
X85197Y205260D01*
X90260Y200197D01*
X93001Y193581D01*
X93001Y186419D01*
X90260Y179803D01*
X85197Y174740D01*
X78581Y171999D01*
X71419Y171999D01*
G37*
%LPD*%
%LPC*%
G36*
X-28581Y241999D02*
X-28581Y241999D01*
X-35197Y244740D01*
X-40260Y249803D01*
X-43001Y256419D01*
X-43001Y263581D01*
X-40260Y270197D01*
X-35197Y275260D01*
X-28581Y278001D01*
X-21419Y278001D01*
X-14803Y275260D01*
X-9740Y270197D01*
X-6999Y263581D01*
X-6999Y256419D01*
X-9740Y249803D01*
X-14803Y244740D01*
X-21419Y241999D01*
X-28581Y241999D01*
G37*
%LPD*%
%LPC*%
G36*
X21419Y241999D02*
X21419Y241999D01*
X14803Y244740D01*
X9740Y249803D01*
X6999Y256419D01*
X6999Y263581D01*
X9740Y270197D01*
X14803Y275260D01*
X21419Y278001D01*
X28581Y278001D01*
X35197Y275260D01*
X40260Y270197D01*
X43001Y263581D01*
X43001Y256419D01*
X40260Y249803D01*
X35197Y244740D01*
X28581Y241999D01*
X21419Y241999D01*
G37*
%LPD*%
%LPC*%
G36*
X71419Y241999D02*
X71419Y241999D01*
X64803Y244740D01*
X59740Y249803D01*
X56999Y256419D01*
X56999Y263581D01*
X59740Y270197D01*
X64803Y275260D01*
X71419Y278001D01*
X78581Y278001D01*
X85197Y275260D01*
X90260Y270197D01*
X93001Y263581D01*
X93001Y256419D01*
X90260Y249803D01*
X85197Y244740D01*
X78581Y241999D01*
X71419Y241999D01*
G37*
%LPD*%
G36*
X-87475Y-130583D02*
X-87475Y-130583D01*
X-87409Y-130581D01*
X-87366Y-130563D01*
X-87319Y-130555D01*
X-87262Y-130521D01*
X-87202Y-130496D01*
X-87167Y-130465D01*
X-87126Y-130440D01*
X-87084Y-130389D01*
X-87036Y-130345D01*
X-87014Y-130303D01*
X-86985Y-130266D01*
X-86964Y-130204D01*
X-86933Y-130145D01*
X-86925Y-130091D01*
X-86913Y-130054D01*
X-86914Y-130014D01*
X-86906Y-129960D01*
X-86906Y-129405D01*
X-86917Y-129340D01*
X-86919Y-129274D01*
X-86937Y-129231D01*
X-86945Y-129184D01*
X-86979Y-129127D01*
X-87004Y-129067D01*
X-87035Y-129032D01*
X-87060Y-128991D01*
X-87111Y-128949D01*
X-87155Y-128901D01*
X-87197Y-128879D01*
X-87234Y-128850D01*
X-87296Y-128829D01*
X-87355Y-128798D01*
X-87409Y-128790D01*
X-87446Y-128778D01*
X-87486Y-128779D01*
X-87524Y-128773D01*
X-88271Y-128026D01*
X-88271Y-121566D01*
X-88273Y-121554D01*
X-88271Y-121541D01*
X-88293Y-121444D01*
X-88310Y-121345D01*
X-88317Y-121335D01*
X-88320Y-121322D01*
X-88374Y-121238D01*
X-88425Y-121152D01*
X-88434Y-121144D01*
X-88441Y-121134D01*
X-88531Y-121063D01*
X-89033Y-120560D01*
X-89368Y-119981D01*
X-89541Y-119335D01*
X-89541Y-117019D01*
X-83385Y-117019D01*
X-83320Y-117008D01*
X-83255Y-117006D01*
X-83211Y-116988D01*
X-83164Y-116979D01*
X-83108Y-116946D01*
X-83047Y-116921D01*
X-83012Y-116889D01*
X-82971Y-116865D01*
X-82930Y-116814D01*
X-82881Y-116770D01*
X-82859Y-116728D01*
X-82830Y-116691D01*
X-82809Y-116629D01*
X-82779Y-116570D01*
X-82770Y-116516D01*
X-82758Y-116479D01*
X-82759Y-116439D01*
X-82751Y-116385D01*
X-82751Y-115749D01*
X-82749Y-115749D01*
X-82749Y-116385D01*
X-82737Y-116450D01*
X-82736Y-116515D01*
X-82718Y-116559D01*
X-82709Y-116606D01*
X-82676Y-116663D01*
X-82651Y-116723D01*
X-82619Y-116758D01*
X-82595Y-116799D01*
X-82544Y-116840D01*
X-82500Y-116889D01*
X-82458Y-116911D01*
X-82421Y-116940D01*
X-82359Y-116961D01*
X-82300Y-116991D01*
X-82246Y-117000D01*
X-82209Y-117012D01*
X-82169Y-117011D01*
X-82115Y-117019D01*
X-75959Y-117019D01*
X-75959Y-119335D01*
X-76132Y-119981D01*
X-76467Y-120560D01*
X-76972Y-121065D01*
X-77007Y-121097D01*
X-77084Y-121162D01*
X-77090Y-121173D01*
X-77099Y-121181D01*
X-77145Y-121270D01*
X-77194Y-121357D01*
X-77196Y-121370D01*
X-77202Y-121381D01*
X-77229Y-121566D01*
X-77229Y-128003D01*
X-77213Y-128091D01*
X-77204Y-128179D01*
X-77194Y-128200D01*
X-77190Y-128224D01*
X-77144Y-128300D01*
X-77105Y-128380D01*
X-77088Y-128397D01*
X-77075Y-128417D01*
X-77006Y-128473D01*
X-76942Y-128534D01*
X-76920Y-128543D01*
X-76901Y-128558D01*
X-76817Y-128587D01*
X-76735Y-128622D01*
X-76711Y-128623D01*
X-76689Y-128630D01*
X-76600Y-128628D01*
X-76511Y-128632D01*
X-76488Y-128624D01*
X-76464Y-128624D01*
X-76382Y-128590D01*
X-76297Y-128563D01*
X-76276Y-128547D01*
X-76257Y-128539D01*
X-76219Y-128505D01*
X-76147Y-128451D01*
X-69592Y-121896D01*
X-69567Y-121862D01*
X-69536Y-121833D01*
X-69504Y-121770D01*
X-69463Y-121712D01*
X-69453Y-121671D01*
X-69433Y-121633D01*
X-69420Y-121544D01*
X-69407Y-121495D01*
X-69410Y-121474D01*
X-69406Y-121448D01*
X-69406Y-116052D01*
X-69413Y-116010D01*
X-69411Y-115968D01*
X-69433Y-115901D01*
X-69445Y-115831D01*
X-69467Y-115795D01*
X-69480Y-115754D01*
X-69534Y-115682D01*
X-69560Y-115638D01*
X-69576Y-115625D01*
X-69592Y-115604D01*
X-93593Y-91603D01*
X-93625Y-91580D01*
X-93646Y-91557D01*
X-93648Y-91556D01*
X-93656Y-91547D01*
X-93719Y-91515D01*
X-93777Y-91474D01*
X-93818Y-91464D01*
X-93856Y-91444D01*
X-93945Y-91431D01*
X-93994Y-91418D01*
X-94015Y-91421D01*
X-94041Y-91417D01*
X-94862Y-91417D01*
X-94908Y-91415D01*
X-94953Y-91403D01*
X-95019Y-91410D01*
X-95085Y-91407D01*
X-95115Y-91417D01*
X-99722Y-91417D01*
X-100466Y-90672D01*
X-100466Y-81720D01*
X-99722Y-80975D01*
X-95136Y-80975D01*
X-95093Y-80977D01*
X-95048Y-80989D01*
X-94982Y-80982D01*
X-94916Y-80985D01*
X-94885Y-80975D01*
X-90138Y-80975D01*
X-90092Y-80977D01*
X-90047Y-80989D01*
X-89981Y-80982D01*
X-89915Y-80985D01*
X-89885Y-80975D01*
X-85136Y-80975D01*
X-85093Y-80977D01*
X-85048Y-80989D01*
X-84982Y-80982D01*
X-84916Y-80985D01*
X-84885Y-80975D01*
X-80278Y-80975D01*
X-79534Y-81720D01*
X-79534Y-84960D01*
X-79522Y-85025D01*
X-79520Y-85091D01*
X-79502Y-85134D01*
X-79494Y-85181D01*
X-79461Y-85238D01*
X-79436Y-85298D01*
X-79404Y-85333D01*
X-79380Y-85374D01*
X-79329Y-85416D01*
X-79284Y-85464D01*
X-79242Y-85486D01*
X-79206Y-85515D01*
X-79144Y-85536D01*
X-79085Y-85567D01*
X-79030Y-85575D01*
X-78993Y-85587D01*
X-78954Y-85586D01*
X-78900Y-85594D01*
X-64211Y-85594D01*
X-62988Y-86816D01*
X-62957Y-86838D01*
X-62940Y-86857D01*
X-62907Y-86874D01*
X-62846Y-86923D01*
X-62824Y-86931D01*
X-62804Y-86945D01*
X-62718Y-86967D01*
X-62634Y-86995D01*
X-62610Y-86995D01*
X-62587Y-87000D01*
X-62498Y-86991D01*
X-62409Y-86989D01*
X-62387Y-86980D01*
X-62364Y-86977D01*
X-62284Y-86938D01*
X-62202Y-86904D01*
X-62184Y-86888D01*
X-62163Y-86878D01*
X-62102Y-86813D01*
X-62036Y-86753D01*
X-62025Y-86732D01*
X-62009Y-86715D01*
X-61986Y-86661D01*
X-61985Y-86659D01*
X-61981Y-86649D01*
X-61974Y-86633D01*
X-61933Y-86553D01*
X-61930Y-86527D01*
X-61921Y-86508D01*
X-61920Y-86467D01*
X-61913Y-86447D01*
X-61913Y-86420D01*
X-61906Y-86368D01*
X-61906Y-77540D01*
X-61917Y-77475D01*
X-61919Y-77409D01*
X-61937Y-77366D01*
X-61945Y-77319D01*
X-61979Y-77262D01*
X-62004Y-77202D01*
X-62035Y-77167D01*
X-62060Y-77126D01*
X-62111Y-77084D01*
X-62155Y-77036D01*
X-62197Y-77014D01*
X-62234Y-76985D01*
X-62296Y-76964D01*
X-62355Y-76933D01*
X-62409Y-76925D01*
X-62446Y-76913D01*
X-62486Y-76914D01*
X-62540Y-76906D01*
X-78900Y-76906D01*
X-78964Y-76917D01*
X-79030Y-76919D01*
X-79074Y-76937D01*
X-79120Y-76945D01*
X-79177Y-76979D01*
X-79238Y-77004D01*
X-79273Y-77035D01*
X-79314Y-77060D01*
X-79355Y-77111D01*
X-79404Y-77155D01*
X-79425Y-77197D01*
X-79455Y-77234D01*
X-79476Y-77296D01*
X-79506Y-77355D01*
X-79514Y-77409D01*
X-79527Y-77446D01*
X-79526Y-77486D01*
X-79534Y-77540D01*
X-79534Y-78280D01*
X-80278Y-79025D01*
X-84864Y-79025D01*
X-84907Y-79023D01*
X-84952Y-79011D01*
X-85018Y-79018D01*
X-85084Y-79015D01*
X-85115Y-79025D01*
X-89864Y-79025D01*
X-89907Y-79023D01*
X-89952Y-79011D01*
X-90018Y-79018D01*
X-90084Y-79015D01*
X-90115Y-79025D01*
X-94864Y-79025D01*
X-94907Y-79023D01*
X-94952Y-79011D01*
X-95018Y-79018D01*
X-95084Y-79015D01*
X-95115Y-79025D01*
X-99722Y-79025D01*
X-100466Y-78280D01*
X-100466Y-77540D01*
X-100478Y-77475D01*
X-100480Y-77409D01*
X-100498Y-77366D01*
X-100506Y-77319D01*
X-100539Y-77262D01*
X-100564Y-77202D01*
X-100596Y-77167D01*
X-100620Y-77126D01*
X-100671Y-77084D01*
X-100716Y-77036D01*
X-100758Y-77014D01*
X-100794Y-76985D01*
X-100856Y-76964D01*
X-100915Y-76933D01*
X-100970Y-76925D01*
X-101007Y-76913D01*
X-101046Y-76914D01*
X-101100Y-76906D01*
X-102460Y-76906D01*
X-102525Y-76917D01*
X-102591Y-76919D01*
X-102634Y-76937D01*
X-102681Y-76945D01*
X-102738Y-76979D01*
X-102798Y-77004D01*
X-102833Y-77035D01*
X-102874Y-77060D01*
X-102916Y-77111D01*
X-102964Y-77155D01*
X-102986Y-77197D01*
X-103015Y-77234D01*
X-103036Y-77296D01*
X-103067Y-77355D01*
X-103075Y-77409D01*
X-103087Y-77446D01*
X-103086Y-77486D01*
X-103094Y-77540D01*
X-103094Y-101448D01*
X-103087Y-101490D01*
X-103089Y-101532D01*
X-103067Y-101599D01*
X-103055Y-101669D01*
X-103033Y-101705D01*
X-103020Y-101746D01*
X-102966Y-101818D01*
X-102940Y-101862D01*
X-102924Y-101875D01*
X-102908Y-101896D01*
X-95594Y-109211D01*
X-95594Y-110595D01*
X-95583Y-110660D01*
X-95581Y-110726D01*
X-95563Y-110769D01*
X-95555Y-110816D01*
X-95521Y-110873D01*
X-95496Y-110933D01*
X-95465Y-110968D01*
X-95440Y-111009D01*
X-95389Y-111051D01*
X-95345Y-111099D01*
X-95303Y-111121D01*
X-95266Y-111150D01*
X-95204Y-111171D01*
X-95145Y-111202D01*
X-95091Y-111210D01*
X-95054Y-111222D01*
X-95014Y-111221D01*
X-94960Y-111229D01*
X-92474Y-111229D01*
X-91729Y-111974D01*
X-91729Y-119526D01*
X-91754Y-119552D01*
X-91792Y-119606D01*
X-91837Y-119653D01*
X-91856Y-119697D01*
X-91883Y-119736D01*
X-91899Y-119799D01*
X-91925Y-119860D01*
X-91927Y-119907D01*
X-91938Y-119953D01*
X-91932Y-120018D01*
X-91935Y-120084D01*
X-91920Y-120129D01*
X-91915Y-120176D01*
X-91886Y-120235D01*
X-91866Y-120298D01*
X-91833Y-120342D01*
X-91816Y-120377D01*
X-91787Y-120404D01*
X-91754Y-120449D01*
X-91729Y-120474D01*
X-91729Y-128026D01*
X-92474Y-128771D01*
X-102026Y-128771D01*
X-102551Y-128247D01*
X-102585Y-128222D01*
X-102614Y-128191D01*
X-102677Y-128159D01*
X-102735Y-128118D01*
X-102776Y-128108D01*
X-102814Y-128088D01*
X-102903Y-128075D01*
X-102952Y-128062D01*
X-102973Y-128065D01*
X-102999Y-128061D01*
X-103206Y-128061D01*
X-103248Y-128068D01*
X-103290Y-128066D01*
X-103357Y-128088D01*
X-103427Y-128100D01*
X-103463Y-128122D01*
X-103504Y-128135D01*
X-103576Y-128189D01*
X-103620Y-128215D01*
X-103633Y-128231D01*
X-103654Y-128247D01*
X-104104Y-128696D01*
X-104578Y-128696D01*
X-104666Y-128711D01*
X-104754Y-128721D01*
X-104775Y-128731D01*
X-104799Y-128735D01*
X-104876Y-128781D01*
X-104955Y-128820D01*
X-104972Y-128837D01*
X-104992Y-128850D01*
X-105048Y-128919D01*
X-105109Y-128983D01*
X-105118Y-129005D01*
X-105133Y-129024D01*
X-105162Y-129108D01*
X-105197Y-129190D01*
X-105198Y-129214D01*
X-105205Y-129236D01*
X-105203Y-129325D01*
X-105207Y-129414D01*
X-105199Y-129437D01*
X-105199Y-129461D01*
X-105165Y-129543D01*
X-105138Y-129628D01*
X-105122Y-129649D01*
X-105114Y-129668D01*
X-105080Y-129706D01*
X-105026Y-129778D01*
X-104396Y-130409D01*
X-104362Y-130433D01*
X-104333Y-130464D01*
X-104270Y-130496D01*
X-104212Y-130537D01*
X-104171Y-130547D01*
X-104133Y-130567D01*
X-104044Y-130580D01*
X-103995Y-130593D01*
X-103974Y-130590D01*
X-103948Y-130594D01*
X-87540Y-130594D01*
X-87475Y-130583D01*
G37*
%LPC*%
G36*
X69700Y-213974D02*
X69700Y-213974D01*
X63814Y-209910D01*
X60490Y-203577D01*
X60490Y-196424D01*
X63814Y-190090D01*
X69701Y-186026D01*
X76801Y-185164D01*
X83490Y-187701D01*
X88233Y-193055D01*
X89945Y-200000D01*
X88233Y-206945D01*
X83490Y-212299D01*
X76801Y-214836D01*
X69700Y-213974D01*
G37*
%LPD*%
G36*
X92525Y-130583D02*
X92525Y-130583D01*
X92591Y-130581D01*
X92634Y-130563D01*
X92681Y-130555D01*
X92738Y-130521D01*
X92798Y-130496D01*
X92833Y-130465D01*
X92874Y-130440D01*
X92916Y-130389D01*
X92964Y-130345D01*
X92986Y-130303D01*
X93015Y-130266D01*
X93036Y-130204D01*
X93067Y-130145D01*
X93075Y-130091D01*
X93087Y-130054D01*
X93086Y-130014D01*
X93094Y-129960D01*
X93094Y-129405D01*
X93083Y-129340D01*
X93081Y-129274D01*
X93063Y-129231D01*
X93055Y-129184D01*
X93021Y-129127D01*
X92996Y-129067D01*
X92965Y-129032D01*
X92940Y-128991D01*
X92889Y-128949D01*
X92845Y-128901D01*
X92803Y-128879D01*
X92766Y-128850D01*
X92704Y-128829D01*
X92645Y-128798D01*
X92591Y-128790D01*
X92554Y-128778D01*
X92514Y-128779D01*
X92476Y-128773D01*
X91729Y-128026D01*
X91729Y-121566D01*
X91727Y-121554D01*
X91729Y-121541D01*
X91707Y-121444D01*
X91690Y-121345D01*
X91683Y-121335D01*
X91680Y-121322D01*
X91626Y-121238D01*
X91575Y-121152D01*
X91566Y-121144D01*
X91559Y-121134D01*
X91469Y-121063D01*
X90967Y-120560D01*
X90632Y-119981D01*
X90459Y-119335D01*
X90459Y-117019D01*
X96615Y-117019D01*
X96680Y-117008D01*
X96745Y-117006D01*
X96789Y-116988D01*
X96836Y-116979D01*
X96892Y-116946D01*
X96953Y-116921D01*
X96988Y-116889D01*
X97029Y-116865D01*
X97070Y-116814D01*
X97119Y-116770D01*
X97141Y-116728D01*
X97170Y-116691D01*
X97191Y-116629D01*
X97221Y-116570D01*
X97230Y-116516D01*
X97242Y-116479D01*
X97241Y-116439D01*
X97249Y-116385D01*
X97249Y-115749D01*
X97251Y-115749D01*
X97251Y-116385D01*
X97263Y-116450D01*
X97264Y-116515D01*
X97282Y-116559D01*
X97291Y-116606D01*
X97324Y-116663D01*
X97349Y-116723D01*
X97381Y-116758D01*
X97405Y-116799D01*
X97456Y-116840D01*
X97500Y-116889D01*
X97542Y-116911D01*
X97579Y-116940D01*
X97641Y-116961D01*
X97700Y-116991D01*
X97754Y-117000D01*
X97791Y-117012D01*
X97831Y-117011D01*
X97885Y-117019D01*
X104041Y-117019D01*
X104041Y-119335D01*
X103868Y-119981D01*
X103533Y-120560D01*
X103028Y-121065D01*
X102993Y-121097D01*
X102916Y-121162D01*
X102910Y-121173D01*
X102901Y-121181D01*
X102855Y-121270D01*
X102806Y-121357D01*
X102804Y-121370D01*
X102798Y-121381D01*
X102771Y-121566D01*
X102771Y-128003D01*
X102787Y-128091D01*
X102796Y-128179D01*
X102806Y-128200D01*
X102810Y-128224D01*
X102856Y-128300D01*
X102895Y-128380D01*
X102912Y-128397D01*
X102925Y-128417D01*
X102994Y-128473D01*
X103058Y-128534D01*
X103080Y-128543D01*
X103099Y-128558D01*
X103183Y-128587D01*
X103265Y-128622D01*
X103289Y-128623D01*
X103311Y-128630D01*
X103400Y-128628D01*
X103489Y-128632D01*
X103512Y-128624D01*
X103536Y-128624D01*
X103618Y-128590D01*
X103703Y-128563D01*
X103724Y-128547D01*
X103743Y-128539D01*
X103781Y-128505D01*
X103853Y-128451D01*
X110408Y-121896D01*
X110433Y-121862D01*
X110464Y-121833D01*
X110496Y-121770D01*
X110537Y-121712D01*
X110547Y-121671D01*
X110567Y-121633D01*
X110580Y-121544D01*
X110593Y-121495D01*
X110590Y-121474D01*
X110594Y-121448D01*
X110594Y-111052D01*
X110587Y-111010D01*
X110589Y-110968D01*
X110567Y-110901D01*
X110555Y-110831D01*
X110533Y-110795D01*
X110520Y-110754D01*
X110466Y-110682D01*
X110440Y-110638D01*
X110424Y-110625D01*
X110408Y-110604D01*
X91407Y-91603D01*
X91375Y-91580D01*
X91354Y-91557D01*
X91352Y-91556D01*
X91344Y-91547D01*
X91281Y-91515D01*
X91223Y-91474D01*
X91182Y-91464D01*
X91144Y-91444D01*
X91055Y-91431D01*
X91006Y-91418D01*
X90985Y-91421D01*
X90959Y-91417D01*
X90138Y-91417D01*
X90092Y-91415D01*
X90047Y-91403D01*
X89981Y-91410D01*
X89915Y-91407D01*
X89885Y-91417D01*
X89041Y-91417D01*
X88999Y-91424D01*
X88957Y-91422D01*
X88890Y-91444D01*
X88820Y-91456D01*
X88784Y-91478D01*
X88743Y-91491D01*
X88671Y-91545D01*
X88627Y-91571D01*
X88620Y-91579D01*
X88617Y-91581D01*
X88609Y-91590D01*
X88593Y-91603D01*
X87091Y-93104D01*
X87067Y-93138D01*
X87036Y-93167D01*
X87004Y-93230D01*
X86963Y-93288D01*
X86953Y-93329D01*
X86933Y-93367D01*
X86920Y-93456D01*
X86907Y-93505D01*
X86910Y-93526D01*
X86906Y-93552D01*
X86906Y-110595D01*
X86917Y-110660D01*
X86919Y-110726D01*
X86937Y-110769D01*
X86945Y-110816D01*
X86979Y-110873D01*
X87004Y-110933D01*
X87035Y-110968D01*
X87060Y-111009D01*
X87111Y-111051D01*
X87155Y-111099D01*
X87197Y-111121D01*
X87234Y-111150D01*
X87296Y-111171D01*
X87355Y-111202D01*
X87409Y-111210D01*
X87446Y-111222D01*
X87486Y-111221D01*
X87524Y-111227D01*
X88271Y-111974D01*
X88271Y-119526D01*
X88246Y-119552D01*
X88208Y-119606D01*
X88163Y-119653D01*
X88144Y-119697D01*
X88117Y-119736D01*
X88101Y-119799D01*
X88075Y-119860D01*
X88073Y-119907D01*
X88062Y-119953D01*
X88068Y-120018D01*
X88065Y-120084D01*
X88080Y-120129D01*
X88085Y-120176D01*
X88114Y-120235D01*
X88134Y-120298D01*
X88167Y-120342D01*
X88184Y-120377D01*
X88213Y-120404D01*
X88246Y-120449D01*
X88271Y-120474D01*
X88271Y-128026D01*
X87526Y-128771D01*
X77974Y-128771D01*
X77449Y-128247D01*
X77415Y-128222D01*
X77386Y-128191D01*
X77323Y-128159D01*
X77265Y-128118D01*
X77224Y-128108D01*
X77186Y-128088D01*
X77097Y-128075D01*
X77048Y-128062D01*
X77027Y-128065D01*
X77001Y-128061D01*
X76794Y-128061D01*
X76752Y-128068D01*
X76710Y-128066D01*
X76643Y-128088D01*
X76573Y-128100D01*
X76537Y-128122D01*
X76496Y-128135D01*
X76424Y-128189D01*
X76380Y-128215D01*
X76367Y-128231D01*
X76346Y-128247D01*
X75896Y-128696D01*
X75422Y-128696D01*
X75334Y-128711D01*
X75246Y-128721D01*
X75225Y-128731D01*
X75201Y-128735D01*
X75124Y-128781D01*
X75045Y-128820D01*
X75028Y-128837D01*
X75008Y-128850D01*
X74952Y-128919D01*
X74891Y-128983D01*
X74882Y-129005D01*
X74867Y-129024D01*
X74838Y-129108D01*
X74803Y-129190D01*
X74802Y-129214D01*
X74795Y-129236D01*
X74797Y-129325D01*
X74793Y-129414D01*
X74801Y-129437D01*
X74801Y-129461D01*
X74835Y-129543D01*
X74862Y-129628D01*
X74878Y-129649D01*
X74886Y-129668D01*
X74920Y-129706D01*
X74974Y-129778D01*
X75604Y-130409D01*
X75638Y-130433D01*
X75667Y-130464D01*
X75730Y-130496D01*
X75788Y-130537D01*
X75829Y-130547D01*
X75867Y-130567D01*
X75956Y-130580D01*
X76005Y-130593D01*
X76026Y-130590D01*
X76052Y-130594D01*
X92460Y-130594D01*
X92525Y-130583D01*
G37*
G36*
X12525Y1917D02*
X12525Y1917D01*
X12591Y1919D01*
X12634Y1937D01*
X12681Y1945D01*
X12738Y1979D01*
X12798Y2004D01*
X12833Y2035D01*
X12874Y2060D01*
X12916Y2111D01*
X12964Y2155D01*
X12986Y2197D01*
X13015Y2234D01*
X13036Y2296D01*
X13067Y2355D01*
X13075Y2409D01*
X13087Y2446D01*
X13086Y2486D01*
X13094Y2540D01*
X13094Y17460D01*
X13083Y17525D01*
X13081Y17591D01*
X13063Y17634D01*
X13055Y17681D01*
X13021Y17738D01*
X12996Y17798D01*
X12965Y17833D01*
X12940Y17874D01*
X12889Y17916D01*
X12845Y17964D01*
X12803Y17986D01*
X12766Y18015D01*
X12704Y18036D01*
X12645Y18067D01*
X12591Y18075D01*
X12554Y18087D01*
X12514Y18086D01*
X12460Y18094D01*
X12370Y18094D01*
X12306Y18083D01*
X12240Y18081D01*
X12196Y18063D01*
X12150Y18055D01*
X12093Y18021D01*
X12032Y17996D01*
X11997Y17965D01*
X11956Y17940D01*
X11915Y17889D01*
X11866Y17845D01*
X11845Y17803D01*
X11815Y17766D01*
X11794Y17704D01*
X11764Y17645D01*
X11756Y17591D01*
X11743Y17554D01*
X11744Y17514D01*
X11736Y17460D01*
X11736Y14651D01*
X7713Y14651D01*
X7648Y14639D01*
X7582Y14637D01*
X7539Y14620D01*
X7495Y14612D01*
X7472Y14623D01*
X7418Y14631D01*
X7381Y14644D01*
X7341Y14643D01*
X7287Y14651D01*
X2713Y14651D01*
X2648Y14639D01*
X2582Y14637D01*
X2539Y14620D01*
X2495Y14612D01*
X2472Y14623D01*
X2418Y14631D01*
X2381Y14644D01*
X2341Y14643D01*
X2287Y14651D01*
X-2287Y14651D01*
X-2352Y14639D01*
X-2418Y14637D01*
X-2461Y14620D01*
X-2505Y14612D01*
X-2528Y14623D01*
X-2582Y14631D01*
X-2619Y14644D01*
X-2659Y14643D01*
X-2713Y14651D01*
X-7287Y14651D01*
X-7352Y14639D01*
X-7418Y14637D01*
X-7461Y14620D01*
X-7505Y14612D01*
X-7528Y14623D01*
X-7582Y14631D01*
X-7619Y14644D01*
X-7659Y14643D01*
X-7713Y14651D01*
X-11736Y14651D01*
X-11736Y16537D01*
X-11752Y16625D01*
X-11761Y16714D01*
X-11772Y16735D01*
X-11776Y16758D01*
X-11821Y16835D01*
X-11861Y16915D01*
X-11878Y16931D01*
X-11890Y16951D01*
X-11959Y17008D01*
X-12024Y17069D01*
X-12046Y17078D01*
X-12064Y17093D01*
X-12148Y17121D01*
X-12231Y17156D01*
X-12254Y17157D01*
X-12277Y17165D01*
X-12366Y17162D01*
X-12455Y17166D01*
X-12477Y17159D01*
X-12501Y17158D01*
X-12583Y17125D01*
X-12668Y17097D01*
X-12690Y17082D01*
X-12709Y17074D01*
X-12746Y17040D01*
X-12819Y16986D01*
X-25408Y4396D01*
X-26816Y2988D01*
X-26867Y2915D01*
X-26923Y2846D01*
X-26931Y2824D01*
X-26945Y2804D01*
X-26967Y2718D01*
X-26995Y2634D01*
X-26995Y2610D01*
X-27000Y2587D01*
X-26991Y2498D01*
X-26989Y2409D01*
X-26980Y2387D01*
X-26977Y2364D01*
X-26938Y2284D01*
X-26904Y2202D01*
X-26888Y2184D01*
X-26878Y2163D01*
X-26813Y2102D01*
X-26753Y2036D01*
X-26732Y2025D01*
X-26715Y2009D01*
X-26633Y1974D01*
X-26553Y1933D01*
X-26527Y1930D01*
X-26508Y1921D01*
X-26458Y1919D01*
X-26368Y1906D01*
X12460Y1906D01*
X12525Y1917D01*
G37*
%LPC*%
G36*
X89059Y-189771D02*
X89059Y-189771D01*
X85229Y-185941D01*
X85229Y-174059D01*
X89059Y-170229D01*
X100941Y-170229D01*
X104771Y-174059D01*
X104771Y-185941D01*
X100941Y-189771D01*
X89059Y-189771D01*
G37*
%LPD*%
%LPC*%
G36*
X-27846Y-87617D02*
X-27846Y-87617D01*
X-28492Y-87444D01*
X-29071Y-87110D01*
X-29544Y-86637D01*
X-29879Y-86057D01*
X-29973Y-85703D01*
X-29976Y-85698D01*
X-29977Y-85691D01*
X-30023Y-85597D01*
X-30069Y-85500D01*
X-30073Y-85496D01*
X-30076Y-85490D01*
X-30152Y-85418D01*
X-30229Y-85343D01*
X-30235Y-85341D01*
X-30239Y-85336D01*
X-30337Y-85295D01*
X-30434Y-85252D01*
X-30440Y-85251D01*
X-30446Y-85249D01*
X-30552Y-85244D01*
X-30658Y-85237D01*
X-30664Y-85239D01*
X-30670Y-85239D01*
X-30771Y-85271D01*
X-30873Y-85302D01*
X-30878Y-85306D01*
X-30884Y-85308D01*
X-31035Y-85419D01*
X-31963Y-86347D01*
X-43103Y-86347D01*
X-43848Y-85603D01*
X-43848Y-84612D01*
X-43863Y-84524D01*
X-43873Y-84435D01*
X-43883Y-84414D01*
X-43887Y-84391D01*
X-43933Y-84314D01*
X-43972Y-84234D01*
X-43989Y-84218D01*
X-44002Y-84198D01*
X-44071Y-84142D01*
X-44135Y-84080D01*
X-44157Y-84071D01*
X-44176Y-84056D01*
X-44260Y-84028D01*
X-44342Y-83993D01*
X-44366Y-83992D01*
X-44388Y-83984D01*
X-44477Y-83987D01*
X-44566Y-83983D01*
X-44589Y-83990D01*
X-44613Y-83991D01*
X-44695Y-84024D01*
X-44780Y-84052D01*
X-44801Y-84067D01*
X-44820Y-84075D01*
X-44858Y-84109D01*
X-44930Y-84163D01*
X-45213Y-84446D01*
X-48896Y-84446D01*
X-51500Y-81842D01*
X-51500Y-78158D01*
X-48896Y-75554D01*
X-45213Y-75554D01*
X-44930Y-75837D01*
X-44857Y-75888D01*
X-44788Y-75944D01*
X-44766Y-75951D01*
X-44746Y-75965D01*
X-44660Y-75987D01*
X-44576Y-76016D01*
X-44552Y-76015D01*
X-44529Y-76021D01*
X-44440Y-76012D01*
X-44351Y-76009D01*
X-44330Y-76000D01*
X-44306Y-75998D01*
X-44226Y-75958D01*
X-44144Y-75925D01*
X-44126Y-75909D01*
X-44105Y-75898D01*
X-44044Y-75833D01*
X-43978Y-75773D01*
X-43967Y-75752D01*
X-43951Y-75735D01*
X-43916Y-75653D01*
X-43875Y-75574D01*
X-43872Y-75548D01*
X-43863Y-75528D01*
X-43861Y-75478D01*
X-43848Y-75388D01*
X-43848Y-74397D01*
X-43103Y-73653D01*
X-31963Y-73653D01*
X-31035Y-74581D01*
X-31029Y-74585D01*
X-31026Y-74590D01*
X-30937Y-74648D01*
X-30850Y-74709D01*
X-30844Y-74711D01*
X-30839Y-74714D01*
X-30735Y-74739D01*
X-30633Y-74765D01*
X-30627Y-74764D01*
X-30621Y-74766D01*
X-30514Y-74753D01*
X-30410Y-74742D01*
X-30404Y-74739D01*
X-30398Y-74738D01*
X-30303Y-74689D01*
X-30209Y-74642D01*
X-30204Y-74638D01*
X-30199Y-74635D01*
X-30128Y-74556D01*
X-30055Y-74479D01*
X-30052Y-74473D01*
X-30048Y-74469D01*
X-29973Y-74297D01*
X-29879Y-73943D01*
X-29544Y-73363D01*
X-29071Y-72890D01*
X-28492Y-72556D01*
X-27846Y-72383D01*
X-23736Y-72383D01*
X-23736Y-79365D01*
X-23725Y-79430D01*
X-23723Y-79495D01*
X-23705Y-79539D01*
X-23696Y-79586D01*
X-23663Y-79642D01*
X-23638Y-79703D01*
X-23606Y-79738D01*
X-23582Y-79779D01*
X-23531Y-79820D01*
X-23487Y-79869D01*
X-23445Y-79891D01*
X-23408Y-79920D01*
X-23346Y-79941D01*
X-23287Y-79971D01*
X-23233Y-79980D01*
X-23196Y-79992D01*
X-23156Y-79991D01*
X-23102Y-79999D01*
X-22466Y-79999D01*
X-22466Y-80001D01*
X-23102Y-80001D01*
X-23167Y-80013D01*
X-23232Y-80014D01*
X-23276Y-80032D01*
X-23323Y-80041D01*
X-23380Y-80074D01*
X-23440Y-80099D01*
X-23475Y-80131D01*
X-23516Y-80155D01*
X-23557Y-80206D01*
X-23606Y-80250D01*
X-23628Y-80292D01*
X-23657Y-80329D01*
X-23678Y-80391D01*
X-23708Y-80450D01*
X-23717Y-80504D01*
X-23729Y-80541D01*
X-23729Y-80550D01*
X-23729Y-80551D01*
X-23728Y-80582D01*
X-23736Y-80635D01*
X-23736Y-87617D01*
X-27846Y-87617D01*
G37*
%LPD*%
%LPC*%
G36*
X32154Y-87617D02*
X32154Y-87617D01*
X31508Y-87444D01*
X30929Y-87110D01*
X30456Y-86637D01*
X30121Y-86057D01*
X30027Y-85703D01*
X30024Y-85698D01*
X30023Y-85691D01*
X29977Y-85597D01*
X29931Y-85500D01*
X29927Y-85496D01*
X29924Y-85490D01*
X29848Y-85418D01*
X29771Y-85343D01*
X29765Y-85341D01*
X29761Y-85336D01*
X29663Y-85295D01*
X29566Y-85252D01*
X29560Y-85251D01*
X29554Y-85249D01*
X29448Y-85244D01*
X29342Y-85237D01*
X29336Y-85239D01*
X29330Y-85239D01*
X29229Y-85271D01*
X29127Y-85302D01*
X29122Y-85306D01*
X29116Y-85308D01*
X28965Y-85419D01*
X28037Y-86347D01*
X16897Y-86347D01*
X16152Y-85603D01*
X16152Y-84612D01*
X16137Y-84524D01*
X16127Y-84435D01*
X16117Y-84414D01*
X16113Y-84391D01*
X16067Y-84314D01*
X16028Y-84234D01*
X16011Y-84218D01*
X15998Y-84198D01*
X15929Y-84142D01*
X15865Y-84080D01*
X15843Y-84071D01*
X15824Y-84056D01*
X15740Y-84028D01*
X15658Y-83993D01*
X15634Y-83992D01*
X15612Y-83984D01*
X15523Y-83987D01*
X15434Y-83983D01*
X15411Y-83990D01*
X15387Y-83991D01*
X15305Y-84024D01*
X15220Y-84052D01*
X15199Y-84067D01*
X15180Y-84075D01*
X15142Y-84109D01*
X15070Y-84163D01*
X14787Y-84446D01*
X11104Y-84446D01*
X8500Y-81842D01*
X8500Y-78158D01*
X11104Y-75554D01*
X14787Y-75554D01*
X15070Y-75837D01*
X15143Y-75888D01*
X15212Y-75944D01*
X15234Y-75951D01*
X15254Y-75965D01*
X15340Y-75987D01*
X15424Y-76016D01*
X15448Y-76015D01*
X15471Y-76021D01*
X15560Y-76012D01*
X15649Y-76009D01*
X15670Y-76000D01*
X15694Y-75998D01*
X15774Y-75958D01*
X15856Y-75925D01*
X15874Y-75909D01*
X15895Y-75898D01*
X15956Y-75833D01*
X16022Y-75773D01*
X16033Y-75752D01*
X16049Y-75735D01*
X16084Y-75653D01*
X16125Y-75574D01*
X16128Y-75548D01*
X16137Y-75528D01*
X16139Y-75478D01*
X16152Y-75388D01*
X16152Y-74397D01*
X16897Y-73653D01*
X28037Y-73653D01*
X28965Y-74581D01*
X28971Y-74585D01*
X28974Y-74590D01*
X29063Y-74648D01*
X29150Y-74709D01*
X29156Y-74711D01*
X29161Y-74714D01*
X29265Y-74739D01*
X29367Y-74765D01*
X29373Y-74764D01*
X29379Y-74766D01*
X29486Y-74753D01*
X29590Y-74742D01*
X29596Y-74739D01*
X29602Y-74738D01*
X29697Y-74689D01*
X29791Y-74642D01*
X29796Y-74638D01*
X29801Y-74635D01*
X29872Y-74556D01*
X29945Y-74479D01*
X29948Y-74473D01*
X29952Y-74469D01*
X30027Y-74297D01*
X30121Y-73943D01*
X30456Y-73363D01*
X30929Y-72890D01*
X31508Y-72556D01*
X32154Y-72383D01*
X36264Y-72383D01*
X36264Y-79365D01*
X36275Y-79430D01*
X36277Y-79495D01*
X36295Y-79539D01*
X36303Y-79586D01*
X36337Y-79642D01*
X36362Y-79703D01*
X36394Y-79738D01*
X36418Y-79779D01*
X36469Y-79820D01*
X36513Y-79869D01*
X36555Y-79891D01*
X36592Y-79920D01*
X36654Y-79941D01*
X36713Y-79971D01*
X36767Y-79980D01*
X36804Y-79992D01*
X36844Y-79991D01*
X36898Y-79999D01*
X37534Y-79999D01*
X37534Y-80001D01*
X36898Y-80001D01*
X36833Y-80013D01*
X36768Y-80014D01*
X36724Y-80032D01*
X36677Y-80041D01*
X36620Y-80074D01*
X36560Y-80099D01*
X36525Y-80131D01*
X36484Y-80155D01*
X36443Y-80206D01*
X36394Y-80250D01*
X36372Y-80292D01*
X36343Y-80329D01*
X36322Y-80391D01*
X36291Y-80450D01*
X36283Y-80504D01*
X36271Y-80541D01*
X36271Y-80550D01*
X36271Y-80551D01*
X36272Y-80582D01*
X36264Y-80635D01*
X36264Y-87617D01*
X32154Y-87617D01*
G37*
%LPD*%
G36*
X100095Y-188486D02*
X100095Y-188486D01*
X100191Y-188481D01*
X100234Y-188466D01*
X100279Y-188459D01*
X100367Y-188420D01*
X100458Y-188388D01*
X100492Y-188363D01*
X100536Y-188343D01*
X100634Y-188260D01*
X100707Y-188207D01*
X103207Y-185707D01*
X103264Y-185630D01*
X103329Y-185558D01*
X103349Y-185517D01*
X103376Y-185481D01*
X103410Y-185391D01*
X103452Y-185305D01*
X103458Y-185263D01*
X103475Y-185217D01*
X103485Y-185090D01*
X103499Y-185000D01*
X103499Y-175000D01*
X103486Y-174905D01*
X103481Y-174809D01*
X103466Y-174766D01*
X103459Y-174721D01*
X103420Y-174633D01*
X103388Y-174542D01*
X103363Y-174508D01*
X103343Y-174464D01*
X103260Y-174367D01*
X103207Y-174293D01*
X100707Y-171793D01*
X100630Y-171736D01*
X100558Y-171671D01*
X100517Y-171651D01*
X100481Y-171624D01*
X100391Y-171590D01*
X100305Y-171548D01*
X100263Y-171542D01*
X100217Y-171525D01*
X100090Y-171515D01*
X100000Y-171501D01*
X90000Y-171501D01*
X89905Y-171514D01*
X89809Y-171519D01*
X89766Y-171534D01*
X89721Y-171541D01*
X89633Y-171580D01*
X89542Y-171612D01*
X89508Y-171637D01*
X89464Y-171657D01*
X89367Y-171740D01*
X89293Y-171793D01*
X86793Y-174293D01*
X86736Y-174370D01*
X86671Y-174442D01*
X86651Y-174483D01*
X86624Y-174519D01*
X86590Y-174609D01*
X86548Y-174695D01*
X86542Y-174737D01*
X86525Y-174783D01*
X86515Y-174911D01*
X86501Y-175000D01*
X86501Y-185000D01*
X86514Y-185095D01*
X86519Y-185191D01*
X86534Y-185234D01*
X86541Y-185279D01*
X86580Y-185367D01*
X86612Y-185458D01*
X86637Y-185492D01*
X86657Y-185536D01*
X86740Y-185634D01*
X86793Y-185707D01*
X89293Y-188207D01*
X89370Y-188264D01*
X89442Y-188329D01*
X89483Y-188349D01*
X89519Y-188376D01*
X89609Y-188410D01*
X89695Y-188452D01*
X89737Y-188458D01*
X89783Y-188475D01*
X89911Y-188485D01*
X90000Y-188499D01*
X100000Y-188499D01*
X100095Y-188486D01*
G37*
%LPC*%
G36*
X-10731Y-208791D02*
X-10731Y-208791D01*
X-10731Y-198019D01*
X10731Y-198019D01*
X10731Y-208791D01*
X2165Y-208791D01*
X1519Y-208618D01*
X940Y-208283D01*
X449Y-207792D01*
X394Y-207754D01*
X347Y-207709D01*
X303Y-207690D01*
X264Y-207664D01*
X201Y-207647D01*
X140Y-207621D01*
X93Y-207619D01*
X47Y-207608D01*
X-19Y-207614D01*
X-84Y-207611D01*
X-129Y-207626D01*
X-176Y-207631D01*
X-235Y-207660D01*
X-298Y-207680D01*
X-342Y-207713D01*
X-377Y-207730D01*
X-404Y-207759D01*
X-449Y-207792D01*
X-940Y-208283D01*
X-1519Y-208618D01*
X-2165Y-208791D01*
X-10731Y-208791D01*
G37*
%LPD*%
%LPC*%
G36*
X-10731Y-195481D02*
X-10731Y-195481D01*
X-10731Y-184709D01*
X-2165Y-184709D01*
X-1519Y-184882D01*
X-940Y-185217D01*
X-449Y-185708D01*
X-394Y-185746D01*
X-347Y-185791D01*
X-303Y-185810D01*
X-264Y-185836D01*
X-201Y-185853D01*
X-140Y-185879D01*
X-93Y-185881D01*
X-47Y-185892D01*
X19Y-185886D01*
X84Y-185889D01*
X129Y-185874D01*
X176Y-185869D01*
X235Y-185840D01*
X298Y-185820D01*
X342Y-185787D01*
X377Y-185770D01*
X404Y-185741D01*
X449Y-185708D01*
X940Y-185217D01*
X1519Y-184882D01*
X2165Y-184709D01*
X10731Y-184709D01*
X10731Y-195481D01*
X-10731Y-195481D01*
G37*
%LPD*%
%LPC*%
G36*
X-21835Y-208791D02*
X-21835Y-208791D01*
X-22481Y-208618D01*
X-23060Y-208283D01*
X-23533Y-207810D01*
X-23868Y-207231D01*
X-24041Y-206585D01*
X-24041Y-198019D01*
X-13269Y-198019D01*
X-13269Y-208791D01*
X-21835Y-208791D01*
G37*
%LPD*%
%LPC*%
G36*
X13269Y-208791D02*
X13269Y-208791D01*
X13269Y-198019D01*
X24041Y-198019D01*
X24041Y-206585D01*
X23868Y-207231D01*
X23533Y-207810D01*
X23060Y-208283D01*
X22481Y-208618D01*
X21835Y-208791D01*
X13269Y-208791D01*
G37*
%LPD*%
%LPC*%
G36*
X13269Y-195481D02*
X13269Y-195481D01*
X13269Y-184709D01*
X21835Y-184709D01*
X22481Y-184882D01*
X23060Y-185217D01*
X23533Y-185690D01*
X23868Y-186269D01*
X24041Y-186915D01*
X24041Y-195481D01*
X13269Y-195481D01*
G37*
%LPD*%
%LPC*%
G36*
X-24041Y-195481D02*
X-24041Y-195481D01*
X-24041Y-186915D01*
X-23868Y-186269D01*
X-23533Y-185690D01*
X-23060Y-185217D01*
X-22481Y-184882D01*
X-21835Y-184709D01*
X-13269Y-184709D01*
X-13269Y-195481D01*
X-24041Y-195481D01*
G37*
%LPD*%
%LPC*%
G36*
X-47335Y-208791D02*
X-47335Y-208791D01*
X-47981Y-208618D01*
X-48560Y-208283D01*
X-49033Y-207810D01*
X-49368Y-207231D01*
X-49541Y-206585D01*
X-49541Y-198019D01*
X-39269Y-198019D01*
X-39269Y-208791D01*
X-47335Y-208791D01*
G37*
%LPD*%
%LPC*%
G36*
X39269Y-208791D02*
X39269Y-208791D01*
X39269Y-198019D01*
X49541Y-198019D01*
X49541Y-206585D01*
X49368Y-207231D01*
X49033Y-207810D01*
X48560Y-208283D01*
X47981Y-208618D01*
X47335Y-208791D01*
X39269Y-208791D01*
G37*
%LPD*%
%LPC*%
G36*
X39269Y-195481D02*
X39269Y-195481D01*
X39269Y-184709D01*
X47335Y-184709D01*
X47981Y-184882D01*
X48560Y-185217D01*
X49033Y-185690D01*
X49368Y-186269D01*
X49541Y-186915D01*
X49541Y-195481D01*
X39269Y-195481D01*
G37*
%LPD*%
%LPC*%
G36*
X28665Y-208791D02*
X28665Y-208791D01*
X28019Y-208618D01*
X27440Y-208283D01*
X26967Y-207810D01*
X26632Y-207231D01*
X26459Y-206585D01*
X26459Y-198019D01*
X36731Y-198019D01*
X36731Y-208791D01*
X28665Y-208791D01*
G37*
%LPD*%
%LPC*%
G36*
X-36731Y-208791D02*
X-36731Y-208791D01*
X-36731Y-198019D01*
X-26459Y-198019D01*
X-26459Y-206585D01*
X-26632Y-207231D01*
X-26967Y-207810D01*
X-27440Y-208283D01*
X-28019Y-208618D01*
X-28665Y-208791D01*
X-36731Y-208791D01*
G37*
%LPD*%
%LPC*%
G36*
X-49541Y-195481D02*
X-49541Y-195481D01*
X-49541Y-186915D01*
X-49368Y-186269D01*
X-49033Y-185690D01*
X-48560Y-185217D01*
X-47981Y-184882D01*
X-47335Y-184709D01*
X-39269Y-184709D01*
X-39269Y-195481D01*
X-49541Y-195481D01*
G37*
%LPD*%
%LPC*%
G36*
X26459Y-195481D02*
X26459Y-195481D01*
X26459Y-186915D01*
X26632Y-186269D01*
X26967Y-185690D01*
X27440Y-185217D01*
X28019Y-184882D01*
X28665Y-184709D01*
X36731Y-184709D01*
X36731Y-195481D01*
X26459Y-195481D01*
G37*
%LPD*%
%LPC*%
G36*
X-36731Y-195481D02*
X-36731Y-195481D01*
X-36731Y-184709D01*
X-28665Y-184709D01*
X-28019Y-184882D01*
X-27440Y-185217D01*
X-26967Y-185690D01*
X-26632Y-186269D01*
X-26459Y-186915D01*
X-26459Y-195481D01*
X-36731Y-195481D01*
G37*
%LPD*%
%LPC*%
G36*
X32269Y-181791D02*
X32269Y-181791D01*
X32269Y-172519D01*
X44041Y-172519D01*
X44041Y-179585D01*
X43868Y-180231D01*
X43533Y-180810D01*
X43060Y-181283D01*
X42481Y-181618D01*
X41835Y-181791D01*
X32269Y-181791D01*
G37*
%LPD*%
%LPC*%
G36*
X-41835Y-181791D02*
X-41835Y-181791D01*
X-42481Y-181618D01*
X-43060Y-181283D01*
X-43533Y-180810D01*
X-43868Y-180231D01*
X-44041Y-179585D01*
X-44041Y-172519D01*
X-32269Y-172519D01*
X-32269Y-181791D01*
X-41835Y-181791D01*
G37*
%LPD*%
%LPC*%
G36*
X-22541Y137269D02*
X-22541Y137269D01*
X-22541Y145335D01*
X-22368Y145981D01*
X-22033Y146560D01*
X-21560Y147033D01*
X-20981Y147368D01*
X-20335Y147541D01*
X-13769Y147541D01*
X-13769Y137269D01*
X-22541Y137269D01*
G37*
%LPD*%
%LPC*%
G36*
X88769Y137269D02*
X88769Y137269D01*
X88769Y147541D01*
X95335Y147541D01*
X95981Y147368D01*
X96560Y147033D01*
X97033Y146560D01*
X97368Y145981D01*
X97541Y145335D01*
X97541Y137269D01*
X88769Y137269D01*
G37*
%LPD*%
%LPC*%
G36*
X77459Y137269D02*
X77459Y137269D01*
X77459Y145335D01*
X77632Y145981D01*
X77967Y146560D01*
X78440Y147033D01*
X79019Y147368D01*
X79665Y147541D01*
X86231Y147541D01*
X86231Y137269D01*
X77459Y137269D01*
G37*
%LPD*%
%LPC*%
G36*
X38769Y124459D02*
X38769Y124459D01*
X38769Y134731D01*
X47541Y134731D01*
X47541Y126665D01*
X47368Y126019D01*
X47033Y125440D01*
X46560Y124967D01*
X45981Y124632D01*
X45335Y124459D01*
X38769Y124459D01*
G37*
%LPD*%
%LPC*%
G36*
X88769Y124459D02*
X88769Y124459D01*
X88769Y134731D01*
X97541Y134731D01*
X97541Y126665D01*
X97368Y126019D01*
X97033Y125440D01*
X96560Y124967D01*
X95981Y124632D01*
X95335Y124459D01*
X88769Y124459D01*
G37*
%LPD*%
%LPC*%
G36*
X79665Y124459D02*
X79665Y124459D01*
X79019Y124632D01*
X78440Y124967D01*
X77967Y125440D01*
X77632Y126019D01*
X77459Y126665D01*
X77459Y134731D01*
X86231Y134731D01*
X86231Y124459D01*
X79665Y124459D01*
G37*
%LPD*%
%LPC*%
G36*
X-11231Y124459D02*
X-11231Y124459D01*
X-11231Y134731D01*
X-2459Y134731D01*
X-2459Y126665D01*
X-2632Y126019D01*
X-2967Y125440D01*
X-3440Y124967D01*
X-4019Y124632D01*
X-4665Y124459D01*
X-11231Y124459D01*
G37*
%LPD*%
%LPC*%
G36*
X-61231Y124459D02*
X-61231Y124459D01*
X-61231Y134731D01*
X-52459Y134731D01*
X-52459Y126665D01*
X-52632Y126019D01*
X-52967Y125440D01*
X-53440Y124967D01*
X-54019Y124632D01*
X-54665Y124459D01*
X-61231Y124459D01*
G37*
%LPD*%
%LPC*%
G36*
X-21041Y65269D02*
X-21041Y65269D01*
X-21041Y73335D01*
X-20868Y73981D01*
X-20533Y74560D01*
X-20060Y75033D01*
X-19481Y75368D01*
X-18835Y75541D01*
X-13769Y75541D01*
X-13769Y65269D01*
X-21041Y65269D01*
G37*
%LPD*%
%LPC*%
G36*
X88769Y65269D02*
X88769Y65269D01*
X88769Y75541D01*
X93835Y75541D01*
X94481Y75368D01*
X95060Y75033D01*
X95533Y74560D01*
X95868Y73981D01*
X96041Y73335D01*
X96041Y65269D01*
X88769Y65269D01*
G37*
%LPD*%
%LPC*%
G36*
X38769Y65269D02*
X38769Y65269D01*
X38769Y75541D01*
X43835Y75541D01*
X44481Y75368D01*
X45060Y75033D01*
X45533Y74560D01*
X45868Y73981D01*
X46041Y73335D01*
X46041Y65269D01*
X38769Y65269D01*
G37*
%LPD*%
%LPC*%
G36*
X78959Y65269D02*
X78959Y65269D01*
X78959Y73335D01*
X79132Y73981D01*
X79467Y74560D01*
X79940Y75033D01*
X80519Y75368D01*
X81165Y75541D01*
X86231Y75541D01*
X86231Y65269D01*
X78959Y65269D01*
G37*
%LPD*%
%LPC*%
G36*
X38769Y52459D02*
X38769Y52459D01*
X38769Y62731D01*
X46041Y62731D01*
X46041Y54665D01*
X45868Y54019D01*
X45533Y53440D01*
X45060Y52967D01*
X44481Y52632D01*
X43835Y52459D01*
X38769Y52459D01*
G37*
%LPD*%
%LPC*%
G36*
X-18835Y52459D02*
X-18835Y52459D01*
X-19481Y52632D01*
X-20060Y52967D01*
X-20533Y53440D01*
X-20868Y54019D01*
X-21041Y54665D01*
X-21041Y62731D01*
X-13769Y62731D01*
X-13769Y52459D01*
X-18835Y52459D01*
G37*
%LPD*%
%LPC*%
G36*
X88769Y52459D02*
X88769Y52459D01*
X88769Y62731D01*
X96041Y62731D01*
X96041Y54665D01*
X95868Y54019D01*
X95533Y53440D01*
X95060Y52967D01*
X94481Y52632D01*
X93835Y52459D01*
X88769Y52459D01*
G37*
%LPD*%
%LPC*%
G36*
X-61231Y65269D02*
X-61231Y65269D01*
X-61231Y75541D01*
X-56165Y75541D01*
X-55519Y75368D01*
X-54940Y75033D01*
X-54467Y74560D01*
X-54132Y73981D01*
X-53959Y73335D01*
X-53959Y65269D01*
X-61231Y65269D01*
G37*
%LPD*%
%LPC*%
G36*
X81165Y52459D02*
X81165Y52459D01*
X80519Y52632D01*
X79940Y52967D01*
X79467Y53440D01*
X79132Y54019D01*
X78959Y54665D01*
X78959Y62731D01*
X86231Y62731D01*
X86231Y52459D01*
X81165Y52459D01*
G37*
%LPD*%
%LPC*%
G36*
X-61231Y52459D02*
X-61231Y52459D01*
X-61231Y62731D01*
X-53959Y62731D01*
X-53959Y54665D01*
X-54132Y54019D01*
X-54467Y53440D01*
X-54940Y52967D01*
X-55519Y52632D01*
X-56165Y52459D01*
X-61231Y52459D01*
G37*
%LPD*%
%LPC*%
G36*
X1269Y-31269D02*
X1269Y-31269D01*
X9965Y-31269D01*
X9794Y-32351D01*
X9305Y-33854D01*
X8588Y-35262D01*
X7659Y-36541D01*
X6541Y-37659D01*
X5262Y-38588D01*
X3854Y-39305D01*
X2351Y-39794D01*
X1269Y-39965D01*
X1269Y-31269D01*
G37*
%LPD*%
%LPC*%
G36*
X-2351Y-39794D02*
X-2351Y-39794D01*
X-3854Y-39305D01*
X-5262Y-38588D01*
X-6541Y-37659D01*
X-7659Y-36541D01*
X-8588Y-35262D01*
X-9305Y-33854D01*
X-9794Y-32351D01*
X-9965Y-31269D01*
X-1269Y-31269D01*
X-1269Y-39965D01*
X-2351Y-39794D01*
G37*
%LPD*%
%LPC*%
G36*
X111269Y231269D02*
X111269Y231269D01*
X111269Y239965D01*
X112351Y239794D01*
X113854Y239305D01*
X115262Y238588D01*
X116541Y237659D01*
X117659Y236541D01*
X118588Y235262D01*
X119305Y233854D01*
X119794Y232351D01*
X119965Y231269D01*
X111269Y231269D01*
G37*
%LPD*%
%LPC*%
G36*
X-9965Y-28731D02*
X-9965Y-28731D01*
X-9794Y-27649D01*
X-9305Y-26146D01*
X-8588Y-24738D01*
X-7659Y-23459D01*
X-6541Y-22341D01*
X-5262Y-21412D01*
X-3854Y-20695D01*
X-2351Y-20206D01*
X-1269Y-20035D01*
X-1269Y-28731D01*
X-9965Y-28731D01*
G37*
%LPD*%
%LPC*%
G36*
X1269Y-28731D02*
X1269Y-28731D01*
X1269Y-20035D01*
X2351Y-20206D01*
X3854Y-20695D01*
X5262Y-21412D01*
X6541Y-22341D01*
X7659Y-23459D01*
X8588Y-24738D01*
X9305Y-26146D01*
X9794Y-27649D01*
X9965Y-28731D01*
X1269Y-28731D01*
G37*
%LPD*%
%LPC*%
G36*
X100035Y231269D02*
X100035Y231269D01*
X100206Y232351D01*
X100695Y233854D01*
X101412Y235262D01*
X102341Y236541D01*
X103459Y237659D01*
X104738Y238588D01*
X106146Y239305D01*
X107649Y239794D01*
X108731Y239965D01*
X108731Y231269D01*
X100035Y231269D01*
G37*
%LPD*%
%LPC*%
G36*
X111269Y228731D02*
X111269Y228731D01*
X119965Y228731D01*
X119794Y227649D01*
X119305Y226146D01*
X118588Y224738D01*
X117659Y223459D01*
X116541Y222341D01*
X115262Y221412D01*
X113854Y220695D01*
X112351Y220206D01*
X111269Y220035D01*
X111269Y228731D01*
G37*
%LPD*%
%LPC*%
G36*
X107649Y220206D02*
X107649Y220206D01*
X106146Y220695D01*
X104738Y221412D01*
X103459Y222341D01*
X102341Y223459D01*
X101412Y224738D01*
X100695Y226146D01*
X100206Y227649D01*
X100035Y228731D01*
X108731Y228731D01*
X108731Y220035D01*
X107649Y220206D01*
G37*
%LPD*%
%LPC*%
G36*
X98802Y21269D02*
X98802Y21269D01*
X98802Y27617D01*
X102912Y27617D01*
X103558Y27444D01*
X104137Y27110D01*
X104610Y26637D01*
X104945Y26057D01*
X105118Y25411D01*
X105118Y21269D01*
X98802Y21269D01*
G37*
%LPD*%
%LPC*%
G36*
X48802Y21269D02*
X48802Y21269D01*
X48802Y27617D01*
X52912Y27617D01*
X53558Y27444D01*
X54137Y27110D01*
X54610Y26637D01*
X54945Y26057D01*
X55118Y25411D01*
X55118Y21269D01*
X48802Y21269D01*
G37*
%LPD*%
%LPC*%
G36*
X38802Y-87617D02*
X38802Y-87617D01*
X38802Y-81269D01*
X45118Y-81269D01*
X45118Y-85411D01*
X44945Y-86057D01*
X44610Y-86637D01*
X44137Y-87110D01*
X43558Y-87444D01*
X42912Y-87617D01*
X38802Y-87617D01*
G37*
%LPD*%
%LPC*%
G36*
X98802Y12383D02*
X98802Y12383D01*
X98802Y18731D01*
X105118Y18731D01*
X105118Y14589D01*
X104945Y13943D01*
X104610Y13363D01*
X104137Y12890D01*
X103558Y12556D01*
X102912Y12383D01*
X98802Y12383D01*
G37*
%LPD*%
%LPC*%
G36*
X38802Y-78731D02*
X38802Y-78731D01*
X38802Y-72383D01*
X42912Y-72383D01*
X43558Y-72556D01*
X44137Y-72890D01*
X44610Y-73363D01*
X44945Y-73943D01*
X45118Y-74589D01*
X45118Y-78731D01*
X38802Y-78731D01*
G37*
%LPD*%
%LPC*%
G36*
X-21198Y-87617D02*
X-21198Y-87617D01*
X-21198Y-81269D01*
X-14882Y-81269D01*
X-14882Y-85411D01*
X-15055Y-86057D01*
X-15390Y-86637D01*
X-15863Y-87110D01*
X-16442Y-87444D01*
X-17088Y-87617D01*
X-21198Y-87617D01*
G37*
%LPD*%
%LPC*%
G36*
X-31198Y21269D02*
X-31198Y21269D01*
X-31198Y27617D01*
X-27088Y27617D01*
X-26442Y27444D01*
X-25863Y27110D01*
X-25390Y26637D01*
X-25055Y26057D01*
X-24882Y25411D01*
X-24882Y21269D01*
X-31198Y21269D01*
G37*
%LPD*%
%LPC*%
G36*
X48802Y12383D02*
X48802Y12383D01*
X48802Y18731D01*
X55118Y18731D01*
X55118Y14589D01*
X54945Y13943D01*
X54610Y13363D01*
X54137Y12890D01*
X53558Y12556D01*
X52912Y12383D01*
X48802Y12383D01*
G37*
%LPD*%
%LPC*%
G36*
X-81198Y12383D02*
X-81198Y12383D01*
X-81198Y18731D01*
X-74882Y18731D01*
X-74882Y14589D01*
X-75055Y13943D01*
X-75390Y13363D01*
X-75863Y12890D01*
X-76442Y12556D01*
X-77088Y12383D01*
X-81198Y12383D01*
G37*
%LPD*%
%LPC*%
G36*
X-21198Y-78731D02*
X-21198Y-78731D01*
X-21198Y-72383D01*
X-17088Y-72383D01*
X-16442Y-72556D01*
X-15863Y-72890D01*
X-15390Y-73363D01*
X-15055Y-73943D01*
X-14882Y-74589D01*
X-14882Y-78731D01*
X-21198Y-78731D01*
G37*
%LPD*%
%LPC*%
G36*
X-31198Y12383D02*
X-31198Y12383D01*
X-31198Y18731D01*
X-24882Y18731D01*
X-24882Y14589D01*
X-25055Y13943D01*
X-25390Y13363D01*
X-25863Y12890D01*
X-26442Y12556D01*
X-27088Y12383D01*
X-31198Y12383D01*
G37*
%LPD*%
%LPC*%
G36*
X-102585Y-51542D02*
X-102585Y-51542D01*
X-103231Y-51369D01*
X-103810Y-51034D01*
X-104283Y-50561D01*
X-104618Y-49982D01*
X-104791Y-49336D01*
X-104791Y-44270D01*
X-100769Y-44270D01*
X-100769Y-51542D01*
X-102585Y-51542D01*
G37*
%LPD*%
%LPC*%
G36*
X-52585Y-51542D02*
X-52585Y-51542D01*
X-53231Y-51369D01*
X-53810Y-51034D01*
X-54283Y-50561D01*
X-54618Y-49982D01*
X-54791Y-49336D01*
X-54791Y-44270D01*
X-50769Y-44270D01*
X-50769Y-51542D01*
X-52585Y-51542D01*
G37*
%LPD*%
%LPC*%
G36*
X31769Y-51542D02*
X31769Y-51542D01*
X31769Y-44270D01*
X35791Y-44270D01*
X35791Y-49336D01*
X35618Y-49982D01*
X35283Y-50561D01*
X34810Y-51034D01*
X34231Y-51369D01*
X33585Y-51542D01*
X31769Y-51542D01*
G37*
%LPD*%
%LPC*%
G36*
X81769Y-51542D02*
X81769Y-51542D01*
X81769Y-44270D01*
X85791Y-44270D01*
X85791Y-49336D01*
X85618Y-49982D01*
X85283Y-50561D01*
X84810Y-51034D01*
X84231Y-51369D01*
X83585Y-51542D01*
X81769Y-51542D01*
G37*
%LPD*%
%LPC*%
G36*
X31769Y-41732D02*
X31769Y-41732D01*
X31769Y-34460D01*
X33585Y-34460D01*
X34231Y-34633D01*
X34810Y-34968D01*
X35283Y-35441D01*
X35618Y-36020D01*
X35791Y-36666D01*
X35791Y-41732D01*
X31769Y-41732D01*
G37*
%LPD*%
%LPC*%
G36*
X81769Y-41732D02*
X81769Y-41732D01*
X81769Y-34460D01*
X83585Y-34460D01*
X84231Y-34633D01*
X84810Y-34968D01*
X85283Y-35441D01*
X85618Y-36020D01*
X85791Y-36666D01*
X85791Y-41732D01*
X81769Y-41732D01*
G37*
%LPD*%
%LPC*%
G36*
X77415Y-51542D02*
X77415Y-51542D01*
X76769Y-51369D01*
X76190Y-51034D01*
X75717Y-50561D01*
X75382Y-49982D01*
X75209Y-49336D01*
X75209Y-44270D01*
X79231Y-44270D01*
X79231Y-51542D01*
X77415Y-51542D01*
G37*
%LPD*%
%LPC*%
G36*
X-54791Y-41732D02*
X-54791Y-41732D01*
X-54791Y-36666D01*
X-54618Y-36020D01*
X-54283Y-35441D01*
X-53810Y-34968D01*
X-53231Y-34633D01*
X-52585Y-34460D01*
X-50769Y-34460D01*
X-50769Y-41732D01*
X-54791Y-41732D01*
G37*
%LPD*%
%LPC*%
G36*
X-104791Y-41732D02*
X-104791Y-41732D01*
X-104791Y-36666D01*
X-104618Y-36020D01*
X-104283Y-35441D01*
X-103810Y-34968D01*
X-103231Y-34633D01*
X-102585Y-34460D01*
X-100769Y-34460D01*
X-100769Y-41732D01*
X-104791Y-41732D01*
G37*
%LPD*%
%LPC*%
G36*
X27415Y-51542D02*
X27415Y-51542D01*
X26769Y-51369D01*
X26190Y-51034D01*
X25717Y-50561D01*
X25382Y-49982D01*
X25209Y-49336D01*
X25209Y-44270D01*
X29231Y-44270D01*
X29231Y-51542D01*
X27415Y-51542D01*
G37*
%LPD*%
%LPC*%
G36*
X-98231Y-51542D02*
X-98231Y-51542D01*
X-98231Y-44270D01*
X-94209Y-44270D01*
X-94209Y-49336D01*
X-94382Y-49982D01*
X-94717Y-50561D01*
X-95190Y-51034D01*
X-95769Y-51369D01*
X-96415Y-51542D01*
X-98231Y-51542D01*
G37*
%LPD*%
%LPC*%
G36*
X-48231Y-51542D02*
X-48231Y-51542D01*
X-48231Y-44270D01*
X-44209Y-44270D01*
X-44209Y-49336D01*
X-44382Y-49982D01*
X-44717Y-50561D01*
X-45190Y-51034D01*
X-45769Y-51369D01*
X-46415Y-51542D01*
X-48231Y-51542D01*
G37*
%LPD*%
%LPC*%
G36*
X-48231Y-41732D02*
X-48231Y-41732D01*
X-48231Y-34460D01*
X-46415Y-34460D01*
X-45769Y-34633D01*
X-45190Y-34968D01*
X-44717Y-35441D01*
X-44382Y-36020D01*
X-44209Y-36666D01*
X-44209Y-41732D01*
X-48231Y-41732D01*
G37*
%LPD*%
%LPC*%
G36*
X-98231Y-41732D02*
X-98231Y-41732D01*
X-98231Y-34460D01*
X-96415Y-34460D01*
X-95769Y-34633D01*
X-95190Y-34968D01*
X-94717Y-35441D01*
X-94382Y-36020D01*
X-94209Y-36666D01*
X-94209Y-41732D01*
X-98231Y-41732D01*
G37*
%LPD*%
%LPC*%
G36*
X25209Y-41732D02*
X25209Y-41732D01*
X25209Y-36666D01*
X25382Y-36020D01*
X25717Y-35441D01*
X26190Y-34968D01*
X26769Y-34633D01*
X27415Y-34460D01*
X29231Y-34460D01*
X29231Y-41732D01*
X25209Y-41732D01*
G37*
%LPD*%
%LPC*%
G36*
X75209Y-41732D02*
X75209Y-41732D01*
X75209Y-36666D01*
X75382Y-36020D01*
X75717Y-35441D01*
X76190Y-34968D01*
X76769Y-34633D01*
X77415Y-34460D01*
X79231Y-34460D01*
X79231Y-41732D01*
X75209Y-41732D01*
G37*
%LPD*%
%LPC*%
G36*
X38519Y-114481D02*
X38519Y-114481D01*
X38519Y-109959D01*
X41835Y-109959D01*
X42481Y-110132D01*
X43060Y-110467D01*
X43533Y-110940D01*
X43868Y-111519D01*
X44041Y-112165D01*
X44041Y-114481D01*
X38519Y-114481D01*
G37*
%LPD*%
%LPC*%
G36*
X98519Y-114481D02*
X98519Y-114481D01*
X98519Y-109959D01*
X101835Y-109959D01*
X102481Y-110132D01*
X103060Y-110467D01*
X103533Y-110940D01*
X103868Y-111519D01*
X104041Y-112165D01*
X104041Y-114481D01*
X98519Y-114481D01*
G37*
%LPD*%
%LPC*%
G36*
X-29541Y-114481D02*
X-29541Y-114481D01*
X-29541Y-112165D01*
X-29368Y-111519D01*
X-29033Y-110940D01*
X-28560Y-110467D01*
X-27981Y-110132D01*
X-27335Y-109959D01*
X-24019Y-109959D01*
X-24019Y-114481D01*
X-29541Y-114481D01*
G37*
%LPD*%
%LPC*%
G36*
X-89541Y-114481D02*
X-89541Y-114481D01*
X-89541Y-112165D01*
X-89368Y-111519D01*
X-89033Y-110940D01*
X-88560Y-110467D01*
X-87981Y-110132D01*
X-87335Y-109959D01*
X-84019Y-109959D01*
X-84019Y-114481D01*
X-89541Y-114481D01*
G37*
%LPD*%
%LPC*%
G36*
X-21481Y-114481D02*
X-21481Y-114481D01*
X-21481Y-109959D01*
X-18165Y-109959D01*
X-17519Y-110132D01*
X-16940Y-110467D01*
X-16467Y-110940D01*
X-16132Y-111519D01*
X-15959Y-112165D01*
X-15959Y-114481D01*
X-21481Y-114481D01*
G37*
%LPD*%
%LPC*%
G36*
X-81481Y-114481D02*
X-81481Y-114481D01*
X-81481Y-109959D01*
X-78165Y-109959D01*
X-77519Y-110132D01*
X-76940Y-110467D01*
X-76467Y-110940D01*
X-76132Y-111519D01*
X-75959Y-112165D01*
X-75959Y-114481D01*
X-81481Y-114481D01*
G37*
%LPD*%
%LPC*%
G36*
X90459Y-114481D02*
X90459Y-114481D01*
X90459Y-112165D01*
X90632Y-111519D01*
X90967Y-110940D01*
X91440Y-110467D01*
X92019Y-110132D01*
X92665Y-109959D01*
X95981Y-109959D01*
X95981Y-114481D01*
X90459Y-114481D01*
G37*
%LPD*%
%LPC*%
G36*
X-6653Y7313D02*
X-6653Y7313D01*
X-6653Y9125D01*
X-6661Y9169D01*
X-6666Y9211D01*
X-6667Y9243D01*
X-6670Y9252D01*
X-6675Y9289D01*
X-6736Y9519D01*
X-6736Y12957D01*
X-3264Y12957D01*
X-3264Y9519D01*
X-3325Y9289D01*
X-3329Y9245D01*
X-3331Y9233D01*
X-3340Y9206D01*
X-3339Y9178D01*
X-3347Y9125D01*
X-3347Y7313D01*
X-4530Y7313D01*
X-4836Y7395D01*
X-4907Y7401D01*
X-4978Y7416D01*
X-5025Y7411D01*
X-5059Y7414D01*
X-5101Y7402D01*
X-5164Y7395D01*
X-5470Y7313D01*
X-6653Y7313D01*
G37*
%LPD*%
%LPC*%
G36*
X3347Y7313D02*
X3347Y7313D01*
X3347Y9125D01*
X3339Y9169D01*
X3334Y9211D01*
X3333Y9243D01*
X3330Y9252D01*
X3325Y9289D01*
X3264Y9519D01*
X3264Y12957D01*
X6736Y12957D01*
X6736Y9519D01*
X6675Y9289D01*
X6671Y9245D01*
X6669Y9233D01*
X6660Y9206D01*
X6661Y9177D01*
X6653Y9125D01*
X6653Y7313D01*
X5470Y7313D01*
X5164Y7395D01*
X5093Y7401D01*
X5022Y7416D01*
X4975Y7411D01*
X4941Y7414D01*
X4899Y7402D01*
X4836Y7395D01*
X4530Y7313D01*
X3347Y7313D01*
G37*
%LPD*%
%LPC*%
G36*
X-1653Y7313D02*
X-1653Y7313D01*
X-1653Y9125D01*
X-1661Y9169D01*
X-1666Y9211D01*
X-1667Y9243D01*
X-1670Y9252D01*
X-1675Y9289D01*
X-1736Y9519D01*
X-1736Y12957D01*
X1736Y12957D01*
X1736Y9519D01*
X1675Y9289D01*
X1671Y9245D01*
X1669Y9233D01*
X1660Y9206D01*
X1661Y9177D01*
X1653Y9125D01*
X1653Y7313D01*
X470Y7313D01*
X164Y7395D01*
X93Y7401D01*
X22Y7416D01*
X-25Y7411D01*
X-59Y7414D01*
X-101Y7402D01*
X-164Y7395D01*
X-470Y7313D01*
X-1653Y7313D01*
G37*
%LPD*%
%LPC*%
G36*
X8347Y7313D02*
X8347Y7313D01*
X8347Y12957D01*
X11736Y12957D01*
X11736Y9519D01*
X11563Y8873D01*
X11229Y8294D01*
X10756Y7821D01*
X10176Y7486D01*
X9530Y7313D01*
X8347Y7313D01*
G37*
%LPD*%
%LPC*%
G36*
X-9530Y7313D02*
X-9530Y7313D01*
X-10176Y7486D01*
X-10756Y7821D01*
X-11229Y8294D01*
X-11563Y8873D01*
X-11736Y9519D01*
X-11736Y12957D01*
X-8347Y12957D01*
X-8347Y7313D01*
X-9530Y7313D01*
G37*
%LPD*%
%LPC*%
G36*
X109999Y229999D02*
X109999Y229999D01*
X109999Y230001D01*
X110001Y230001D01*
X110001Y229999D01*
X109999Y229999D01*
G37*
%LPD*%
%LPC*%
G36*
X-1Y-30001D02*
X-1Y-30001D01*
X-1Y-29999D01*
X1Y-29999D01*
X1Y-30001D01*
X-1Y-30001D01*
G37*
%LPD*%
%LPC*%
G36*
X80499Y-43002D02*
X80499Y-43002D01*
X80499Y-43000D01*
X80501Y-43000D01*
X80501Y-43002D01*
X80499Y-43002D01*
G37*
%LPD*%
%LPC*%
G36*
X37999Y-196751D02*
X37999Y-196751D01*
X37999Y-196749D01*
X38001Y-196749D01*
X38001Y-196751D01*
X37999Y-196751D01*
G37*
%LPD*%
%LPC*%
G36*
X11999Y-196751D02*
X11999Y-196751D01*
X11999Y-196749D01*
X12001Y-196749D01*
X12001Y-196751D01*
X11999Y-196751D01*
G37*
%LPD*%
%LPC*%
G36*
X-12001Y-196751D02*
X-12001Y-196751D01*
X-12001Y-196749D01*
X-11999Y-196749D01*
X-11999Y-196751D01*
X-12001Y-196751D01*
G37*
%LPD*%
%LPC*%
G36*
X30499Y-43002D02*
X30499Y-43002D01*
X30499Y-43000D01*
X30501Y-43000D01*
X30501Y-43002D01*
X30499Y-43002D01*
G37*
%LPD*%
%LPC*%
G36*
X-12501Y135999D02*
X-12501Y135999D01*
X-12501Y136001D01*
X-12499Y136001D01*
X-12499Y135999D01*
X-12501Y135999D01*
G37*
%LPD*%
%LPC*%
G36*
X-49501Y-43002D02*
X-49501Y-43002D01*
X-49501Y-43000D01*
X-49499Y-43000D01*
X-49499Y-43002D01*
X-49501Y-43002D01*
G37*
%LPD*%
%LPC*%
G36*
X87499Y135999D02*
X87499Y135999D01*
X87499Y136001D01*
X87501Y136001D01*
X87501Y135999D01*
X87499Y135999D01*
G37*
%LPD*%
%LPC*%
G36*
X-99501Y-43002D02*
X-99501Y-43002D01*
X-99501Y-43000D01*
X-99499Y-43000D01*
X-99499Y-43002D01*
X-99501Y-43002D01*
G37*
%LPD*%
%LPC*%
G36*
X87499Y63999D02*
X87499Y63999D01*
X87499Y64001D01*
X87501Y64001D01*
X87501Y63999D01*
X87499Y63999D01*
G37*
%LPD*%
%LPC*%
G36*
X-38001Y-196751D02*
X-38001Y-196751D01*
X-38001Y-196749D01*
X-37999Y-196749D01*
X-37999Y-196751D01*
X-38001Y-196751D01*
G37*
%LPD*%
D10*
X-97533Y20000D03*
X-82467Y20000D03*
D11*
X-82750Y-124250D03*
X-82750Y-115750D03*
X-97250Y-124250D03*
X-97250Y-115750D03*
D12*
X-80500Y-16999D03*
X-90000Y-16999D03*
X-99500Y-16999D03*
X-99500Y-43001D03*
X-80500Y-43001D03*
D13*
X-82500Y-73804D03*
X-87500Y-73804D03*
X-92500Y-73804D03*
X-97500Y-73804D03*
X-97500Y-86196D03*
X-92500Y-86196D03*
X-87500Y-86196D03*
X-82500Y-86196D03*
D12*
X-30500Y-16999D03*
X-40000Y-16999D03*
X-49500Y-16999D03*
X-49500Y-43001D03*
X-30500Y-43001D03*
D10*
X-47533Y20000D03*
X-32467Y20000D03*
D11*
X-22750Y-124250D03*
X-22750Y-115750D03*
X-37250Y-124250D03*
X-37250Y-115750D03*
D12*
X49500Y-16999D03*
X40000Y-16999D03*
X30500Y-16999D03*
X30500Y-43001D03*
X49500Y-43001D03*
D10*
X32467Y20000D03*
X47533Y20000D03*
D11*
X37250Y-124250D03*
X37250Y-115750D03*
X22750Y-124250D03*
X22750Y-115750D03*
D12*
X99500Y-16999D03*
X90000Y-16999D03*
X80500Y-16999D03*
X80500Y-43001D03*
X99500Y-43001D03*
D10*
X82467Y20000D03*
X97533Y20000D03*
D11*
X97250Y-124250D03*
X97250Y-115750D03*
X82750Y-124250D03*
X82750Y-115750D03*
D13*
X82500Y-86196D03*
X87500Y-86196D03*
X92500Y-86196D03*
X97500Y-86196D03*
X97500Y-73804D03*
X92500Y-73804D03*
X87500Y-73804D03*
X82500Y-73804D03*
X7500Y26196D03*
X2500Y26196D03*
X-2500Y26196D03*
X-7500Y26196D03*
X-7500Y13804D03*
X-2500Y13804D03*
X2500Y13804D03*
X7500Y13804D03*
D14*
X-13000Y-170000D03*
D15*
X-12000Y-196750D03*
D16*
X38000Y-196750D03*
D14*
X-6500Y-170000D03*
X0Y-170000D03*
X6500Y-170000D03*
X13000Y-170000D03*
D17*
X31000Y-171250D03*
X-31000Y-171250D03*
D16*
X-38000Y-196750D03*
D15*
X12000Y-196750D03*
D18*
X62500Y64000D03*
X87500Y64000D03*
D19*
X87500Y136000D03*
X62500Y136000D03*
D18*
X12500Y64000D03*
X37500Y64000D03*
D19*
X37500Y136000D03*
X12500Y136000D03*
D18*
X-37500Y64000D03*
X-12500Y64000D03*
D19*
X-12500Y136000D03*
X-37500Y136000D03*
D18*
X-87500Y64000D03*
X-62500Y64000D03*
D19*
X-62500Y136000D03*
X-87500Y136000D03*
D20*
X69410Y-160000D02*
X69412Y-159851D01*
X69418Y-159701D01*
X69428Y-159552D01*
X69442Y-159403D01*
X69460Y-159255D01*
X69482Y-159107D01*
X69508Y-158960D01*
X69537Y-158813D01*
X69571Y-158668D01*
X69609Y-158523D01*
X69650Y-158380D01*
X69695Y-158237D01*
X69744Y-158096D01*
X69797Y-157956D01*
X69854Y-157818D01*
X69914Y-157681D01*
X69978Y-157546D01*
X70045Y-157412D01*
X70116Y-157281D01*
X70190Y-157151D01*
X70268Y-157024D01*
X70349Y-156898D01*
X70434Y-156775D01*
X70522Y-156654D01*
X70613Y-156536D01*
X70707Y-156420D01*
X70804Y-156306D01*
X70905Y-156195D01*
X71008Y-156087D01*
X71114Y-155982D01*
X71223Y-155879D01*
X71334Y-155780D01*
X71448Y-155683D01*
X71565Y-155590D01*
X71684Y-155500D01*
X71806Y-155413D01*
X71929Y-155329D01*
X72055Y-155248D01*
X72183Y-155171D01*
X72314Y-155098D01*
X72446Y-155028D01*
X72579Y-154961D01*
X72715Y-154898D01*
X72852Y-154839D01*
X72991Y-154784D01*
X73131Y-154732D01*
X73273Y-154684D01*
X73415Y-154639D01*
X73559Y-154599D01*
X73704Y-154562D01*
X73850Y-154530D01*
X73997Y-154501D01*
X74144Y-154476D01*
X74292Y-154455D01*
X74440Y-154438D01*
X74589Y-154425D01*
X74739Y-154416D01*
X74888Y-154411D01*
X75037Y-154410D01*
X75187Y-154413D01*
X75336Y-154420D01*
X75485Y-154431D01*
X75634Y-154446D01*
X75782Y-154465D01*
X75930Y-154488D01*
X76077Y-154515D01*
X76223Y-154545D01*
X76368Y-154580D01*
X76513Y-154619D01*
X76656Y-154661D01*
X76798Y-154707D01*
X76939Y-154757D01*
X77079Y-154811D01*
X77217Y-154868D01*
X77353Y-154929D01*
X77488Y-154994D01*
X77621Y-155062D01*
X77752Y-155134D01*
X77881Y-155210D01*
X78008Y-155288D01*
X78133Y-155370D01*
X78255Y-155456D01*
X78376Y-155544D01*
X78494Y-155636D01*
X78609Y-155731D01*
X78722Y-155829D01*
X78832Y-155930D01*
X78939Y-156034D01*
X79044Y-156141D01*
X79146Y-156250D01*
X79245Y-156362D01*
X79340Y-156477D01*
X79433Y-156595D01*
X79522Y-156714D01*
X79609Y-156836D01*
X79692Y-156961D01*
X79771Y-157087D01*
X79847Y-157216D01*
X79920Y-157346D01*
X79989Y-157479D01*
X80055Y-157613D01*
X80117Y-157749D01*
X80175Y-157887D01*
X80230Y-158026D01*
X80281Y-158166D01*
X80328Y-158308D01*
X80371Y-158451D01*
X80411Y-158595D01*
X80446Y-158741D01*
X80478Y-158887D01*
X80506Y-159033D01*
X80530Y-159181D01*
X80550Y-159329D01*
X80566Y-159478D01*
X80578Y-159627D01*
X80586Y-159776D01*
X80590Y-159925D01*
X80590Y-160075D01*
X80586Y-160224D01*
X80578Y-160373D01*
X80566Y-160522D01*
X80550Y-160671D01*
X80530Y-160819D01*
X80506Y-160967D01*
X80478Y-161113D01*
X80446Y-161259D01*
X80411Y-161405D01*
X80371Y-161549D01*
X80328Y-161692D01*
X80281Y-161834D01*
X80230Y-161974D01*
X80175Y-162113D01*
X80117Y-162251D01*
X80055Y-162387D01*
X79989Y-162521D01*
X79920Y-162654D01*
X79847Y-162784D01*
X79771Y-162913D01*
X79692Y-163039D01*
X79609Y-163164D01*
X79522Y-163286D01*
X79433Y-163405D01*
X79340Y-163523D01*
X79245Y-163638D01*
X79146Y-163750D01*
X79044Y-163859D01*
X78939Y-163966D01*
X78832Y-164070D01*
X78722Y-164171D01*
X78609Y-164269D01*
X78494Y-164364D01*
X78376Y-164456D01*
X78255Y-164544D01*
X78133Y-164630D01*
X78008Y-164712D01*
X77881Y-164790D01*
X77752Y-164866D01*
X77621Y-164938D01*
X77488Y-165006D01*
X77353Y-165071D01*
X77217Y-165132D01*
X77079Y-165189D01*
X76939Y-165243D01*
X76798Y-165293D01*
X76656Y-165339D01*
X76513Y-165381D01*
X76368Y-165420D01*
X76223Y-165455D01*
X76077Y-165485D01*
X75930Y-165512D01*
X75782Y-165535D01*
X75634Y-165554D01*
X75485Y-165569D01*
X75336Y-165580D01*
X75187Y-165587D01*
X75037Y-165590D01*
X74888Y-165589D01*
X74739Y-165584D01*
X74589Y-165575D01*
X74440Y-165562D01*
X74292Y-165545D01*
X74144Y-165524D01*
X73997Y-165499D01*
X73850Y-165470D01*
X73704Y-165438D01*
X73559Y-165401D01*
X73415Y-165361D01*
X73273Y-165316D01*
X73131Y-165268D01*
X72991Y-165216D01*
X72852Y-165161D01*
X72715Y-165102D01*
X72579Y-165039D01*
X72446Y-164972D01*
X72314Y-164902D01*
X72183Y-164829D01*
X72055Y-164752D01*
X71929Y-164671D01*
X71806Y-164587D01*
X71684Y-164500D01*
X71565Y-164410D01*
X71448Y-164317D01*
X71334Y-164220D01*
X71223Y-164121D01*
X71114Y-164018D01*
X71008Y-163913D01*
X70905Y-163805D01*
X70804Y-163694D01*
X70707Y-163580D01*
X70613Y-163464D01*
X70522Y-163346D01*
X70434Y-163225D01*
X70349Y-163102D01*
X70268Y-162976D01*
X70190Y-162849D01*
X70116Y-162719D01*
X70045Y-162588D01*
X69978Y-162454D01*
X69914Y-162319D01*
X69854Y-162182D01*
X69797Y-162044D01*
X69744Y-161904D01*
X69695Y-161763D01*
X69650Y-161620D01*
X69609Y-161477D01*
X69571Y-161332D01*
X69537Y-161187D01*
X69508Y-161040D01*
X69482Y-160893D01*
X69460Y-160745D01*
X69442Y-160597D01*
X69428Y-160448D01*
X69418Y-160299D01*
X69412Y-160149D01*
X69410Y-160000D01*
X109410Y-160000D02*
X109412Y-159851D01*
X109418Y-159701D01*
X109428Y-159552D01*
X109442Y-159403D01*
X109460Y-159255D01*
X109482Y-159107D01*
X109508Y-158960D01*
X109537Y-158813D01*
X109571Y-158668D01*
X109609Y-158523D01*
X109650Y-158380D01*
X109695Y-158237D01*
X109744Y-158096D01*
X109797Y-157956D01*
X109854Y-157818D01*
X109914Y-157681D01*
X109978Y-157546D01*
X110045Y-157412D01*
X110116Y-157281D01*
X110190Y-157151D01*
X110268Y-157024D01*
X110349Y-156898D01*
X110434Y-156775D01*
X110522Y-156654D01*
X110613Y-156536D01*
X110707Y-156420D01*
X110804Y-156306D01*
X110905Y-156195D01*
X111008Y-156087D01*
X111114Y-155982D01*
X111223Y-155879D01*
X111334Y-155780D01*
X111448Y-155683D01*
X111565Y-155590D01*
X111684Y-155500D01*
X111806Y-155413D01*
X111929Y-155329D01*
X112055Y-155248D01*
X112183Y-155171D01*
X112314Y-155098D01*
X112446Y-155028D01*
X112579Y-154961D01*
X112715Y-154898D01*
X112852Y-154839D01*
X112991Y-154784D01*
X113131Y-154732D01*
X113273Y-154684D01*
X113415Y-154639D01*
X113559Y-154599D01*
X113704Y-154562D01*
X113850Y-154530D01*
X113997Y-154501D01*
X114144Y-154476D01*
X114292Y-154455D01*
X114440Y-154438D01*
X114589Y-154425D01*
X114739Y-154416D01*
X114888Y-154411D01*
X115037Y-154410D01*
X115187Y-154413D01*
X115336Y-154420D01*
X115485Y-154431D01*
X115634Y-154446D01*
X115782Y-154465D01*
X115930Y-154488D01*
X116077Y-154515D01*
X116223Y-154545D01*
X116368Y-154580D01*
X116513Y-154619D01*
X116656Y-154661D01*
X116798Y-154707D01*
X116939Y-154757D01*
X117079Y-154811D01*
X117217Y-154868D01*
X117353Y-154929D01*
X117488Y-154994D01*
X117621Y-155062D01*
X117752Y-155134D01*
X117881Y-155210D01*
X118008Y-155288D01*
X118133Y-155370D01*
X118255Y-155456D01*
X118376Y-155544D01*
X118494Y-155636D01*
X118609Y-155731D01*
X118722Y-155829D01*
X118832Y-155930D01*
X118939Y-156034D01*
X119044Y-156141D01*
X119146Y-156250D01*
X119245Y-156362D01*
X119340Y-156477D01*
X119433Y-156595D01*
X119522Y-156714D01*
X119609Y-156836D01*
X119692Y-156961D01*
X119771Y-157087D01*
X119847Y-157216D01*
X119920Y-157346D01*
X119989Y-157479D01*
X120055Y-157613D01*
X120117Y-157749D01*
X120175Y-157887D01*
X120230Y-158026D01*
X120281Y-158166D01*
X120328Y-158308D01*
X120371Y-158451D01*
X120411Y-158595D01*
X120446Y-158741D01*
X120478Y-158887D01*
X120506Y-159033D01*
X120530Y-159181D01*
X120550Y-159329D01*
X120566Y-159478D01*
X120578Y-159627D01*
X120586Y-159776D01*
X120590Y-159925D01*
X120590Y-160075D01*
X120586Y-160224D01*
X120578Y-160373D01*
X120566Y-160522D01*
X120550Y-160671D01*
X120530Y-160819D01*
X120506Y-160967D01*
X120478Y-161113D01*
X120446Y-161259D01*
X120411Y-161405D01*
X120371Y-161549D01*
X120328Y-161692D01*
X120281Y-161834D01*
X120230Y-161974D01*
X120175Y-162113D01*
X120117Y-162251D01*
X120055Y-162387D01*
X119989Y-162521D01*
X119920Y-162654D01*
X119847Y-162784D01*
X119771Y-162913D01*
X119692Y-163039D01*
X119609Y-163164D01*
X119522Y-163286D01*
X119433Y-163405D01*
X119340Y-163523D01*
X119245Y-163638D01*
X119146Y-163750D01*
X119044Y-163859D01*
X118939Y-163966D01*
X118832Y-164070D01*
X118722Y-164171D01*
X118609Y-164269D01*
X118494Y-164364D01*
X118376Y-164456D01*
X118255Y-164544D01*
X118133Y-164630D01*
X118008Y-164712D01*
X117881Y-164790D01*
X117752Y-164866D01*
X117621Y-164938D01*
X117488Y-165006D01*
X117353Y-165071D01*
X117217Y-165132D01*
X117079Y-165189D01*
X116939Y-165243D01*
X116798Y-165293D01*
X116656Y-165339D01*
X116513Y-165381D01*
X116368Y-165420D01*
X116223Y-165455D01*
X116077Y-165485D01*
X115930Y-165512D01*
X115782Y-165535D01*
X115634Y-165554D01*
X115485Y-165569D01*
X115336Y-165580D01*
X115187Y-165587D01*
X115037Y-165590D01*
X114888Y-165589D01*
X114739Y-165584D01*
X114589Y-165575D01*
X114440Y-165562D01*
X114292Y-165545D01*
X114144Y-165524D01*
X113997Y-165499D01*
X113850Y-165470D01*
X113704Y-165438D01*
X113559Y-165401D01*
X113415Y-165361D01*
X113273Y-165316D01*
X113131Y-165268D01*
X112991Y-165216D01*
X112852Y-165161D01*
X112715Y-165102D01*
X112579Y-165039D01*
X112446Y-164972D01*
X112314Y-164902D01*
X112183Y-164829D01*
X112055Y-164752D01*
X111929Y-164671D01*
X111806Y-164587D01*
X111684Y-164500D01*
X111565Y-164410D01*
X111448Y-164317D01*
X111334Y-164220D01*
X111223Y-164121D01*
X111114Y-164018D01*
X111008Y-163913D01*
X110905Y-163805D01*
X110804Y-163694D01*
X110707Y-163580D01*
X110613Y-163464D01*
X110522Y-163346D01*
X110434Y-163225D01*
X110349Y-163102D01*
X110268Y-162976D01*
X110190Y-162849D01*
X110116Y-162719D01*
X110045Y-162588D01*
X109978Y-162454D01*
X109914Y-162319D01*
X109854Y-162182D01*
X109797Y-162044D01*
X109744Y-161904D01*
X109695Y-161763D01*
X109650Y-161620D01*
X109609Y-161477D01*
X109571Y-161332D01*
X109537Y-161187D01*
X109508Y-161040D01*
X109482Y-160893D01*
X109460Y-160745D01*
X109442Y-160597D01*
X109428Y-160448D01*
X109418Y-160299D01*
X109412Y-160149D01*
X109410Y-160000D01*
X109410Y-200000D02*
X109412Y-199851D01*
X109418Y-199701D01*
X109428Y-199552D01*
X109442Y-199403D01*
X109460Y-199255D01*
X109482Y-199107D01*
X109508Y-198960D01*
X109537Y-198813D01*
X109571Y-198668D01*
X109609Y-198523D01*
X109650Y-198380D01*
X109695Y-198237D01*
X109744Y-198096D01*
X109797Y-197956D01*
X109854Y-197818D01*
X109914Y-197681D01*
X109978Y-197546D01*
X110045Y-197412D01*
X110116Y-197281D01*
X110190Y-197151D01*
X110268Y-197024D01*
X110349Y-196898D01*
X110434Y-196775D01*
X110522Y-196654D01*
X110613Y-196536D01*
X110707Y-196420D01*
X110804Y-196306D01*
X110905Y-196195D01*
X111008Y-196087D01*
X111114Y-195982D01*
X111223Y-195879D01*
X111334Y-195780D01*
X111448Y-195683D01*
X111565Y-195590D01*
X111684Y-195500D01*
X111806Y-195413D01*
X111929Y-195329D01*
X112055Y-195248D01*
X112183Y-195171D01*
X112314Y-195098D01*
X112446Y-195028D01*
X112579Y-194961D01*
X112715Y-194898D01*
X112852Y-194839D01*
X112991Y-194784D01*
X113131Y-194732D01*
X113273Y-194684D01*
X113415Y-194639D01*
X113559Y-194599D01*
X113704Y-194562D01*
X113850Y-194530D01*
X113997Y-194501D01*
X114144Y-194476D01*
X114292Y-194455D01*
X114440Y-194438D01*
X114589Y-194425D01*
X114739Y-194416D01*
X114888Y-194411D01*
X115037Y-194410D01*
X115187Y-194413D01*
X115336Y-194420D01*
X115485Y-194431D01*
X115634Y-194446D01*
X115782Y-194465D01*
X115930Y-194488D01*
X116077Y-194515D01*
X116223Y-194545D01*
X116368Y-194580D01*
X116513Y-194619D01*
X116656Y-194661D01*
X116798Y-194707D01*
X116939Y-194757D01*
X117079Y-194811D01*
X117217Y-194868D01*
X117353Y-194929D01*
X117488Y-194994D01*
X117621Y-195062D01*
X117752Y-195134D01*
X117881Y-195210D01*
X118008Y-195288D01*
X118133Y-195370D01*
X118255Y-195456D01*
X118376Y-195544D01*
X118494Y-195636D01*
X118609Y-195731D01*
X118722Y-195829D01*
X118832Y-195930D01*
X118939Y-196034D01*
X119044Y-196141D01*
X119146Y-196250D01*
X119245Y-196362D01*
X119340Y-196477D01*
X119433Y-196595D01*
X119522Y-196714D01*
X119609Y-196836D01*
X119692Y-196961D01*
X119771Y-197087D01*
X119847Y-197216D01*
X119920Y-197346D01*
X119989Y-197479D01*
X120055Y-197613D01*
X120117Y-197749D01*
X120175Y-197887D01*
X120230Y-198026D01*
X120281Y-198166D01*
X120328Y-198308D01*
X120371Y-198451D01*
X120411Y-198595D01*
X120446Y-198741D01*
X120478Y-198887D01*
X120506Y-199033D01*
X120530Y-199181D01*
X120550Y-199329D01*
X120566Y-199478D01*
X120578Y-199627D01*
X120586Y-199776D01*
X120590Y-199925D01*
X120590Y-200075D01*
X120586Y-200224D01*
X120578Y-200373D01*
X120566Y-200522D01*
X120550Y-200671D01*
X120530Y-200819D01*
X120506Y-200967D01*
X120478Y-201113D01*
X120446Y-201259D01*
X120411Y-201405D01*
X120371Y-201549D01*
X120328Y-201692D01*
X120281Y-201834D01*
X120230Y-201974D01*
X120175Y-202113D01*
X120117Y-202251D01*
X120055Y-202387D01*
X119989Y-202521D01*
X119920Y-202654D01*
X119847Y-202784D01*
X119771Y-202913D01*
X119692Y-203039D01*
X119609Y-203164D01*
X119522Y-203286D01*
X119433Y-203405D01*
X119340Y-203523D01*
X119245Y-203638D01*
X119146Y-203750D01*
X119044Y-203859D01*
X118939Y-203966D01*
X118832Y-204070D01*
X118722Y-204171D01*
X118609Y-204269D01*
X118494Y-204364D01*
X118376Y-204456D01*
X118255Y-204544D01*
X118133Y-204630D01*
X118008Y-204712D01*
X117881Y-204790D01*
X117752Y-204866D01*
X117621Y-204938D01*
X117488Y-205006D01*
X117353Y-205071D01*
X117217Y-205132D01*
X117079Y-205189D01*
X116939Y-205243D01*
X116798Y-205293D01*
X116656Y-205339D01*
X116513Y-205381D01*
X116368Y-205420D01*
X116223Y-205455D01*
X116077Y-205485D01*
X115930Y-205512D01*
X115782Y-205535D01*
X115634Y-205554D01*
X115485Y-205569D01*
X115336Y-205580D01*
X115187Y-205587D01*
X115037Y-205590D01*
X114888Y-205589D01*
X114739Y-205584D01*
X114589Y-205575D01*
X114440Y-205562D01*
X114292Y-205545D01*
X114144Y-205524D01*
X113997Y-205499D01*
X113850Y-205470D01*
X113704Y-205438D01*
X113559Y-205401D01*
X113415Y-205361D01*
X113273Y-205316D01*
X113131Y-205268D01*
X112991Y-205216D01*
X112852Y-205161D01*
X112715Y-205102D01*
X112579Y-205039D01*
X112446Y-204972D01*
X112314Y-204902D01*
X112183Y-204829D01*
X112055Y-204752D01*
X111929Y-204671D01*
X111806Y-204587D01*
X111684Y-204500D01*
X111565Y-204410D01*
X111448Y-204317D01*
X111334Y-204220D01*
X111223Y-204121D01*
X111114Y-204018D01*
X111008Y-203913D01*
X110905Y-203805D01*
X110804Y-203694D01*
X110707Y-203580D01*
X110613Y-203464D01*
X110522Y-203346D01*
X110434Y-203225D01*
X110349Y-203102D01*
X110268Y-202976D01*
X110190Y-202849D01*
X110116Y-202719D01*
X110045Y-202588D01*
X109978Y-202454D01*
X109914Y-202319D01*
X109854Y-202182D01*
X109797Y-202044D01*
X109744Y-201904D01*
X109695Y-201763D01*
X109650Y-201620D01*
X109609Y-201477D01*
X109571Y-201332D01*
X109537Y-201187D01*
X109508Y-201040D01*
X109482Y-200893D01*
X109460Y-200745D01*
X109442Y-200597D01*
X109428Y-200448D01*
X109418Y-200299D01*
X109412Y-200149D01*
X109410Y-200000D01*
X69410Y-200000D02*
X69412Y-199851D01*
X69418Y-199701D01*
X69428Y-199552D01*
X69442Y-199403D01*
X69460Y-199255D01*
X69482Y-199107D01*
X69508Y-198960D01*
X69537Y-198813D01*
X69571Y-198668D01*
X69609Y-198523D01*
X69650Y-198380D01*
X69695Y-198237D01*
X69744Y-198096D01*
X69797Y-197956D01*
X69854Y-197818D01*
X69914Y-197681D01*
X69978Y-197546D01*
X70045Y-197412D01*
X70116Y-197281D01*
X70190Y-197151D01*
X70268Y-197024D01*
X70349Y-196898D01*
X70434Y-196775D01*
X70522Y-196654D01*
X70613Y-196536D01*
X70707Y-196420D01*
X70804Y-196306D01*
X70905Y-196195D01*
X71008Y-196087D01*
X71114Y-195982D01*
X71223Y-195879D01*
X71334Y-195780D01*
X71448Y-195683D01*
X71565Y-195590D01*
X71684Y-195500D01*
X71806Y-195413D01*
X71929Y-195329D01*
X72055Y-195248D01*
X72183Y-195171D01*
X72314Y-195098D01*
X72446Y-195028D01*
X72579Y-194961D01*
X72715Y-194898D01*
X72852Y-194839D01*
X72991Y-194784D01*
X73131Y-194732D01*
X73273Y-194684D01*
X73415Y-194639D01*
X73559Y-194599D01*
X73704Y-194562D01*
X73850Y-194530D01*
X73997Y-194501D01*
X74144Y-194476D01*
X74292Y-194455D01*
X74440Y-194438D01*
X74589Y-194425D01*
X74739Y-194416D01*
X74888Y-194411D01*
X75037Y-194410D01*
X75187Y-194413D01*
X75336Y-194420D01*
X75485Y-194431D01*
X75634Y-194446D01*
X75782Y-194465D01*
X75930Y-194488D01*
X76077Y-194515D01*
X76223Y-194545D01*
X76368Y-194580D01*
X76513Y-194619D01*
X76656Y-194661D01*
X76798Y-194707D01*
X76939Y-194757D01*
X77079Y-194811D01*
X77217Y-194868D01*
X77353Y-194929D01*
X77488Y-194994D01*
X77621Y-195062D01*
X77752Y-195134D01*
X77881Y-195210D01*
X78008Y-195288D01*
X78133Y-195370D01*
X78255Y-195456D01*
X78376Y-195544D01*
X78494Y-195636D01*
X78609Y-195731D01*
X78722Y-195829D01*
X78832Y-195930D01*
X78939Y-196034D01*
X79044Y-196141D01*
X79146Y-196250D01*
X79245Y-196362D01*
X79340Y-196477D01*
X79433Y-196595D01*
X79522Y-196714D01*
X79609Y-196836D01*
X79692Y-196961D01*
X79771Y-197087D01*
X79847Y-197216D01*
X79920Y-197346D01*
X79989Y-197479D01*
X80055Y-197613D01*
X80117Y-197749D01*
X80175Y-197887D01*
X80230Y-198026D01*
X80281Y-198166D01*
X80328Y-198308D01*
X80371Y-198451D01*
X80411Y-198595D01*
X80446Y-198741D01*
X80478Y-198887D01*
X80506Y-199033D01*
X80530Y-199181D01*
X80550Y-199329D01*
X80566Y-199478D01*
X80578Y-199627D01*
X80586Y-199776D01*
X80590Y-199925D01*
X80590Y-200075D01*
X80586Y-200224D01*
X80578Y-200373D01*
X80566Y-200522D01*
X80550Y-200671D01*
X80530Y-200819D01*
X80506Y-200967D01*
X80478Y-201113D01*
X80446Y-201259D01*
X80411Y-201405D01*
X80371Y-201549D01*
X80328Y-201692D01*
X80281Y-201834D01*
X80230Y-201974D01*
X80175Y-202113D01*
X80117Y-202251D01*
X80055Y-202387D01*
X79989Y-202521D01*
X79920Y-202654D01*
X79847Y-202784D01*
X79771Y-202913D01*
X79692Y-203039D01*
X79609Y-203164D01*
X79522Y-203286D01*
X79433Y-203405D01*
X79340Y-203523D01*
X79245Y-203638D01*
X79146Y-203750D01*
X79044Y-203859D01*
X78939Y-203966D01*
X78832Y-204070D01*
X78722Y-204171D01*
X78609Y-204269D01*
X78494Y-204364D01*
X78376Y-204456D01*
X78255Y-204544D01*
X78133Y-204630D01*
X78008Y-204712D01*
X77881Y-204790D01*
X77752Y-204866D01*
X77621Y-204938D01*
X77488Y-205006D01*
X77353Y-205071D01*
X77217Y-205132D01*
X77079Y-205189D01*
X76939Y-205243D01*
X76798Y-205293D01*
X76656Y-205339D01*
X76513Y-205381D01*
X76368Y-205420D01*
X76223Y-205455D01*
X76077Y-205485D01*
X75930Y-205512D01*
X75782Y-205535D01*
X75634Y-205554D01*
X75485Y-205569D01*
X75336Y-205580D01*
X75187Y-205587D01*
X75037Y-205590D01*
X74888Y-205589D01*
X74739Y-205584D01*
X74589Y-205575D01*
X74440Y-205562D01*
X74292Y-205545D01*
X74144Y-205524D01*
X73997Y-205499D01*
X73850Y-205470D01*
X73704Y-205438D01*
X73559Y-205401D01*
X73415Y-205361D01*
X73273Y-205316D01*
X73131Y-205268D01*
X72991Y-205216D01*
X72852Y-205161D01*
X72715Y-205102D01*
X72579Y-205039D01*
X72446Y-204972D01*
X72314Y-204902D01*
X72183Y-204829D01*
X72055Y-204752D01*
X71929Y-204671D01*
X71806Y-204587D01*
X71684Y-204500D01*
X71565Y-204410D01*
X71448Y-204317D01*
X71334Y-204220D01*
X71223Y-204121D01*
X71114Y-204018D01*
X71008Y-203913D01*
X70905Y-203805D01*
X70804Y-203694D01*
X70707Y-203580D01*
X70613Y-203464D01*
X70522Y-203346D01*
X70434Y-203225D01*
X70349Y-203102D01*
X70268Y-202976D01*
X70190Y-202849D01*
X70116Y-202719D01*
X70045Y-202588D01*
X69978Y-202454D01*
X69914Y-202319D01*
X69854Y-202182D01*
X69797Y-202044D01*
X69744Y-201904D01*
X69695Y-201763D01*
X69650Y-201620D01*
X69609Y-201477D01*
X69571Y-201332D01*
X69537Y-201187D01*
X69508Y-201040D01*
X69482Y-200893D01*
X69460Y-200745D01*
X69442Y-200597D01*
X69428Y-200448D01*
X69418Y-200299D01*
X69412Y-200149D01*
X69410Y-200000D01*
D21*
X-100000Y230000D03*
X-50000Y230000D03*
X0Y230000D03*
X50000Y230000D03*
X0Y-30000D03*
X110000Y230000D03*
D10*
X-22467Y-80000D03*
X-37533Y-80000D03*
X37533Y-80000D03*
X22467Y-80000D03*
D22*
X12946Y-80000D01*
X74055Y-124250D02*
X82750Y-124250D01*
X40000Y-16999D02*
X40000Y-6554D01*
X90000Y-6554D02*
X90000Y-16999D01*
X-37533Y-80000D02*
X-47055Y-80000D01*
X-90000Y-16999D02*
X-90000Y-6554D01*
X-40000Y-6554D02*
X-40000Y-16999D01*
X14055Y-124250D02*
X22750Y-124250D01*
X13000Y-158805D02*
X13000Y-170000D01*
X47533Y20000D02*
X57055Y20000D01*
X-97250Y-124250D02*
X-105945Y-124250D01*
X-45945Y-124250D02*
X-37250Y-124250D01*
X-72946Y20000D02*
X-82467Y20000D01*
X7500Y13804D02*
X7500Y5409D01*
X2500Y13804D02*
X2500Y-4152D01*
X-2500Y5409D02*
X-2500Y13804D01*
X-7500Y13804D02*
X-7500Y-4152D01*
X97533Y20000D02*
X107055Y20000D01*
X-62500Y50555D02*
X-62500Y64000D01*
X-12500Y64000D02*
X-12500Y50555D01*
X37500Y50555D02*
X37500Y64000D01*
X87500Y64000D02*
X87500Y50555D01*
X-62500Y136000D02*
X-62500Y149445D01*
X-12500Y149445D02*
X-12500Y136000D01*
X37500Y136000D02*
X37500Y149445D01*
X87500Y149445D02*
X87500Y136000D01*
X-22946Y20000D02*
X-32467Y20000D01*
D23*
X12946Y-80000D03*
X74055Y-124250D03*
X40000Y-6554D03*
X90000Y-6554D03*
X-47055Y-80000D03*
X-90000Y-6554D03*
X-40000Y-6554D03*
X14055Y-124250D03*
X13000Y-158805D03*
X57055Y20000D03*
X-105945Y-124250D03*
X-45945Y-124250D03*
X-72946Y20000D03*
X7500Y5409D03*
X2500Y-4152D03*
X-2500Y5409D03*
X-7500Y-4152D03*
X107055Y20000D03*
X-62500Y50555D03*
X-12500Y50555D03*
X37500Y50555D03*
X87500Y50555D03*
X-62500Y149445D03*
X-12500Y149445D03*
X37500Y149445D03*
X87500Y149445D03*
X-22946Y20000D03*
D24*
X-92500Y-85000D02*
X-97500Y-85000D01*
X-97500Y-86196D01*
X-92500Y-86196D02*
X-92500Y-85000D01*
X-92500Y-86196D02*
X-92500Y-90000D01*
X-67500Y-115000D01*
X-67500Y-122500D01*
X-82500Y-137500D01*
X-117500Y-137500D01*
X-117500Y-42500D01*
X-102500Y-27500D01*
X-80000Y-27500D01*
X-80000Y-17500D01*
X-80500Y-16999D01*
X-27500Y5000D02*
X-7500Y25000D01*
X-27500Y5000D02*
X-40000Y5000D01*
X-77500Y-32500D02*
X-80000Y-35000D01*
X-80000Y-42500D01*
X-7500Y25000D02*
X-7500Y26196D01*
X-80000Y-42500D02*
X-80500Y-43001D01*
D25*
X-40000Y5000D03*
X-77500Y-32500D03*
D24*
X-92500Y-70000D02*
X-92500Y-73804D01*
X-92500Y-70000D02*
X-97500Y-65000D01*
X-112500Y-65000D01*
X-112500Y-125000D01*
X-105000Y-132500D01*
X-85000Y-132500D01*
X-85000Y-125000D01*
X-82750Y-124250D01*
X-97500Y-75000D02*
X-105000Y-75000D01*
X-105000Y-102500D01*
X-97500Y-110000D01*
X-97500Y-115000D01*
X-97500Y-75000D02*
X-97500Y-73804D01*
X-97500Y-115000D02*
X-97250Y-115750D01*
D22*
X-97790Y-15240D02*
X-97790Y19685D01*
X-97790Y-15240D02*
X-99060Y-16510D01*
X-97790Y19685D02*
X-97533Y20000D01*
X-99060Y-16510D02*
X-99500Y-16999D01*
X-87630Y31115D02*
X-87630Y63500D01*
X-87630Y31115D02*
X-96520Y22225D01*
X-87630Y63500D02*
X-87500Y64000D01*
X-96520Y22225D02*
X-97533Y20000D01*
X-86995Y66040D02*
X-86995Y135890D01*
X-87500Y136000D01*
X-86995Y66040D02*
X-87500Y64000D01*
X-99695Y149860D02*
X-99695Y229870D01*
X-99695Y149860D02*
X-88265Y138430D01*
X-99695Y229870D02*
X-100000Y230000D01*
X-88265Y138430D02*
X-87500Y136000D01*
D24*
X-87500Y-85000D02*
X-82500Y-85000D01*
X-87500Y-85000D02*
X-87500Y-86196D01*
X-82500Y-86196D02*
X-82500Y-85000D01*
X-82500Y-87500D02*
X-65000Y-87500D01*
X-65000Y-112500D01*
X-57500Y-120000D01*
X-57500Y-125000D01*
X-45000Y-137500D01*
X-7500Y-137500D01*
X-7500Y-47500D01*
X-30000Y-25000D01*
X-30000Y-17500D01*
X-82500Y-86196D02*
X-82500Y-87500D01*
X-30000Y-17500D02*
X-30500Y-16999D01*
X-2500Y26196D02*
X-2500Y105000D01*
X-27500Y130000D01*
X-27500Y165000D01*
X-45000Y182500D01*
X-45000Y220000D01*
X-40000Y225000D01*
X-40000Y235000D01*
X-45000Y240000D01*
X-60000Y240000D01*
X-60000Y202500D01*
X-55000Y197500D01*
X-55000Y165000D01*
X-72500Y147500D01*
X-72500Y27500D01*
X-57500Y12500D01*
X-57500Y-25000D01*
X-52500Y-30000D01*
X-30000Y-30000D01*
X-30000Y-42500D01*
X-30500Y-43001D01*
X-60000Y-75000D02*
X-82500Y-75000D01*
X-60000Y-75000D02*
X-60000Y-112500D01*
X-52500Y-120000D01*
X-52500Y-125000D01*
X-45000Y-132500D01*
X-25000Y-132500D01*
X-25000Y-125000D01*
X-82500Y-75000D02*
X-82500Y-73804D01*
X-25000Y-125000D02*
X-22750Y-124250D01*
X-87500Y-73804D02*
X-87500Y-70000D01*
X-82500Y-65000D01*
X-55000Y-65000D01*
X-55000Y-92500D01*
X-37500Y-110000D01*
X-37500Y-115000D01*
X-37250Y-115750D01*
D22*
X-47625Y-15240D02*
X-47625Y19685D01*
X-47625Y-15240D02*
X-48895Y-16510D01*
X-47625Y19685D02*
X-47533Y20000D01*
X-48895Y-16510D02*
X-49500Y-16999D01*
X-38100Y30480D02*
X-38100Y63500D01*
X-38100Y30480D02*
X-46355Y22225D01*
X-38100Y63500D02*
X-37500Y64000D01*
X-46355Y22225D02*
X-47533Y20000D01*
X-37465Y66040D02*
X-37465Y135890D01*
X-37500Y136000D01*
X-37465Y66040D02*
X-37500Y64000D01*
X-49530Y147955D02*
X-49530Y229870D01*
X-49530Y147955D02*
X-39370Y137795D01*
X-49530Y229870D02*
X-50000Y230000D01*
X-39370Y137795D02*
X-37500Y136000D01*
D24*
X92500Y-72500D02*
X97500Y-72500D01*
X92500Y-72500D02*
X92500Y-73804D01*
X97500Y-72500D02*
X112500Y-72500D01*
X112500Y182500D01*
X55000Y240000D01*
X40000Y240000D01*
X40000Y202500D01*
X45000Y197500D01*
X45000Y165000D01*
X27500Y147500D01*
X27500Y40000D01*
X40000Y27500D01*
X40000Y5000D01*
X50000Y-5000D01*
X50000Y-15000D01*
X97500Y-72500D02*
X97500Y-73804D01*
X49500Y-16999D02*
X50000Y-15000D01*
X2500Y22500D02*
X2500Y26196D01*
X2500Y22500D02*
X5000Y20000D01*
X15000Y20000D01*
X15000Y-47500D01*
X27500Y-60000D01*
X50000Y-60000D01*
X50000Y-45000D01*
X49500Y-43001D01*
X92500Y-86196D02*
X92500Y-90000D01*
X112500Y-110000D01*
X112500Y-122500D01*
X97500Y-137500D01*
X37500Y-137500D01*
X37500Y-125000D01*
X37250Y-124250D01*
X97500Y-86196D02*
X97500Y-82500D01*
X95000Y-80000D01*
X80000Y-80000D01*
X77500Y-82500D01*
X52500Y-82500D01*
X52500Y-85000D01*
X25000Y-112500D01*
X25000Y-115000D01*
X22750Y-115750D01*
D22*
X32385Y-15240D02*
X32385Y19685D01*
X32385Y-15240D02*
X31115Y-16510D01*
X32385Y19685D02*
X32467Y20000D01*
X31115Y-16510D02*
X30500Y-16999D01*
X12700Y39370D02*
X12700Y63500D01*
X12700Y39370D02*
X30480Y21590D01*
X12700Y63500D02*
X12500Y64000D01*
X30480Y21590D02*
X32467Y20000D01*
X12700Y66675D02*
X12700Y135890D01*
X12500Y136000D01*
X12700Y66675D02*
X12500Y64000D01*
X0Y148590D02*
X0Y230000D01*
X0Y148590D02*
X10795Y137795D01*
X12500Y136000D01*
D24*
X82500Y-72500D02*
X87500Y-72500D01*
X82500Y-72500D02*
X82500Y-73804D01*
X87500Y-72500D02*
X87500Y-70000D01*
X107500Y-50000D01*
X107500Y-32500D01*
X100000Y-25000D01*
X100000Y-17500D01*
X87500Y-72500D02*
X87500Y-73804D01*
X100000Y-17500D02*
X99500Y-16999D01*
X20000Y25000D02*
X7500Y25000D01*
X20000Y25000D02*
X20000Y-22500D01*
X27500Y-30000D01*
X100000Y-30000D01*
X100000Y-42500D01*
X7500Y25000D02*
X7500Y26196D01*
X99500Y-43001D02*
X100000Y-42500D01*
X82500Y-87500D02*
X67500Y-87500D01*
X67500Y-125000D01*
X75000Y-132500D01*
X95000Y-132500D01*
X95000Y-125000D01*
X82500Y-87500D02*
X82500Y-86196D01*
X95000Y-125000D02*
X97250Y-124250D01*
X87500Y-90000D02*
X87500Y-86196D01*
X87500Y-90000D02*
X85000Y-92500D01*
X85000Y-115000D01*
X82750Y-115750D01*
D22*
X81915Y-15240D02*
X81915Y19685D01*
X81915Y-15240D02*
X80645Y-16510D01*
X81915Y19685D02*
X82467Y20000D01*
X80645Y-16510D02*
X80500Y-16999D01*
X62865Y40640D02*
X62865Y63500D01*
X62865Y40640D02*
X81280Y22225D01*
X62865Y63500D02*
X62500Y64000D01*
X81280Y22225D02*
X82467Y20000D01*
X62865Y66040D02*
X62865Y135890D01*
X62500Y136000D01*
X62865Y66040D02*
X62500Y64000D01*
X50165Y148590D02*
X50165Y229870D01*
X50165Y148590D02*
X60960Y137795D01*
X50165Y229870D02*
X50000Y230000D01*
X60960Y137795D02*
X62500Y136000D01*
X-14055Y-115750D02*
X-22750Y-115750D01*
X-13000Y-158805D02*
X-13000Y-170000D01*
X-74055Y-115750D02*
X-82750Y-115750D01*
X37250Y-115750D02*
X45945Y-115750D01*
X-49500Y-53446D02*
X-49500Y-43001D01*
X-99500Y-43001D02*
X-99500Y-53446D01*
X-22467Y-80000D02*
X-12946Y-80000D01*
X80500Y-53446D02*
X80500Y-43001D01*
X30500Y-43001D02*
X30500Y-53446D01*
X97250Y-115750D02*
X105945Y-115750D01*
X47055Y-80000D02*
X37533Y-80000D01*
D23*
X-14055Y-115750D03*
X-13000Y-158805D03*
X-74055Y-115750D03*
X45945Y-115750D03*
X-49500Y-53446D03*
X-99500Y-53446D03*
X-12946Y-80000D03*
X80500Y-53446D03*
X30500Y-53446D03*
X105945Y-115750D03*
X47055Y-80000D03*
M02*
