G04 EAGLE Gerber RS-274X export*
G75*
%MOMM*%
%FSLAX34Y34*%
%LPD*%
%INSolder side*%
%IPPOS*%
%AMOC8*
5,1,8,0,0,1.08239X$1,22.5*%
G01*
%ADD10C,1.500000*%
%ADD11C,0.635000*%
%ADD12C,0.454000*%

G36*
X-43357Y1921D02*
X-43357Y1921D01*
X-43268Y1931D01*
X-43247Y1941D01*
X-43223Y1945D01*
X-43147Y1991D01*
X-43067Y2030D01*
X-43051Y2047D01*
X-43030Y2060D01*
X-42974Y2129D01*
X-42913Y2193D01*
X-42904Y2215D01*
X-42889Y2234D01*
X-42860Y2318D01*
X-42826Y2400D01*
X-42825Y2424D01*
X-42817Y2446D01*
X-42820Y2535D01*
X-42816Y2624D01*
X-42823Y2647D01*
X-42824Y2671D01*
X-42857Y2753D01*
X-42884Y2838D01*
X-42900Y2859D01*
X-42908Y2878D01*
X-42942Y2916D01*
X-42996Y2988D01*
X-43541Y3533D01*
X-43541Y6467D01*
X-41467Y8541D01*
X-38533Y8541D01*
X-36459Y6467D01*
X-36459Y3533D01*
X-37004Y2988D01*
X-37055Y2915D01*
X-37111Y2846D01*
X-37119Y2824D01*
X-37132Y2804D01*
X-37154Y2718D01*
X-37183Y2634D01*
X-37182Y2610D01*
X-37188Y2587D01*
X-37179Y2498D01*
X-37176Y2409D01*
X-37167Y2387D01*
X-37165Y2364D01*
X-37125Y2284D01*
X-37092Y2202D01*
X-37076Y2184D01*
X-37066Y2163D01*
X-37001Y2102D01*
X-36941Y2036D01*
X-36920Y2025D01*
X-36902Y2009D01*
X-36820Y1974D01*
X-36741Y1933D01*
X-36715Y1930D01*
X-36696Y1921D01*
X-36645Y1919D01*
X-36556Y1906D01*
X127315Y1906D01*
X127380Y1917D01*
X127446Y1919D01*
X127489Y1937D01*
X127536Y1945D01*
X127593Y1979D01*
X127653Y2004D01*
X127688Y2035D01*
X127729Y2060D01*
X127771Y2111D01*
X127819Y2155D01*
X127841Y2197D01*
X127870Y2234D01*
X127891Y2296D01*
X127922Y2355D01*
X127930Y2409D01*
X127942Y2446D01*
X127941Y2486D01*
X127949Y2540D01*
X127949Y280000D01*
X127945Y280022D01*
X127947Y280050D01*
X127734Y282758D01*
X127721Y282807D01*
X127705Y282905D01*
X126031Y288057D01*
X126028Y288062D01*
X126027Y288067D01*
X125941Y288234D01*
X122757Y292616D01*
X122753Y292620D01*
X122750Y292625D01*
X122616Y292757D01*
X118234Y295941D01*
X118229Y295943D01*
X118225Y295947D01*
X118057Y296031D01*
X112905Y297705D01*
X112855Y297712D01*
X112758Y297734D01*
X110050Y297947D01*
X110028Y297945D01*
X110000Y297949D01*
X-110000Y297949D01*
X-110022Y297945D01*
X-110050Y297947D01*
X-112758Y297734D01*
X-112807Y297721D01*
X-112905Y297705D01*
X-118057Y296031D01*
X-118062Y296028D01*
X-118067Y296027D01*
X-118234Y295941D01*
X-122616Y292757D01*
X-122620Y292753D01*
X-122625Y292750D01*
X-122757Y292616D01*
X-125941Y288234D01*
X-125943Y288229D01*
X-125947Y288225D01*
X-125965Y288190D01*
X-125983Y288167D01*
X-125998Y288123D01*
X-126031Y288057D01*
X-127705Y282905D01*
X-127712Y282855D01*
X-127734Y282758D01*
X-127947Y280050D01*
X-127945Y280028D01*
X-127949Y280000D01*
X-127949Y2540D01*
X-127938Y2475D01*
X-127936Y2409D01*
X-127918Y2366D01*
X-127910Y2319D01*
X-127876Y2262D01*
X-127851Y2202D01*
X-127820Y2167D01*
X-127795Y2126D01*
X-127744Y2084D01*
X-127700Y2036D01*
X-127658Y2014D01*
X-127621Y1985D01*
X-127559Y1964D01*
X-127500Y1933D01*
X-127446Y1925D01*
X-127409Y1913D01*
X-127369Y1914D01*
X-127315Y1906D01*
X-43444Y1906D01*
X-43357Y1921D01*
G37*
G36*
X127380Y-165623D02*
X127380Y-165623D01*
X127446Y-165621D01*
X127489Y-165603D01*
X127536Y-165595D01*
X127593Y-165561D01*
X127653Y-165536D01*
X127688Y-165505D01*
X127729Y-165480D01*
X127771Y-165429D01*
X127819Y-165385D01*
X127841Y-165343D01*
X127870Y-165306D01*
X127891Y-165244D01*
X127922Y-165185D01*
X127930Y-165131D01*
X127942Y-165094D01*
X127941Y-165054D01*
X127949Y-165000D01*
X127949Y0D01*
X127938Y65D01*
X127936Y131D01*
X127918Y174D01*
X127910Y221D01*
X127876Y278D01*
X127851Y338D01*
X127820Y373D01*
X127795Y414D01*
X127744Y456D01*
X127700Y504D01*
X127658Y526D01*
X127621Y555D01*
X127559Y576D01*
X127500Y607D01*
X127446Y615D01*
X127409Y627D01*
X127369Y626D01*
X127315Y634D01*
X5533Y634D01*
X5445Y618D01*
X5356Y609D01*
X5335Y599D01*
X5312Y595D01*
X5235Y549D01*
X5155Y510D01*
X5139Y493D01*
X5118Y480D01*
X5062Y411D01*
X5001Y347D01*
X4992Y325D01*
X4977Y306D01*
X4949Y222D01*
X4914Y140D01*
X4913Y116D01*
X4905Y94D01*
X4908Y5D01*
X4904Y-84D01*
X4911Y-107D01*
X4912Y-131D01*
X4945Y-213D01*
X4973Y-298D01*
X4988Y-319D01*
X4996Y-338D01*
X5030Y-376D01*
X5084Y-449D01*
X6946Y-2310D01*
X6946Y-5993D01*
X4342Y-8597D01*
X659Y-8597D01*
X-2052Y-5887D01*
X-2106Y-5850D01*
X-2153Y-5805D01*
X-2197Y-5786D01*
X-2236Y-5759D01*
X-2299Y-5743D01*
X-2360Y-5717D01*
X-2407Y-5715D01*
X-2453Y-5703D01*
X-2518Y-5710D01*
X-2584Y-5707D01*
X-2629Y-5722D01*
X-2676Y-5727D01*
X-2735Y-5756D01*
X-2798Y-5776D01*
X-2842Y-5809D01*
X-2877Y-5826D01*
X-2904Y-5855D01*
X-2949Y-5887D01*
X-5659Y-8597D01*
X-9342Y-8597D01*
X-11946Y-5993D01*
X-11946Y-2310D01*
X-10084Y-449D01*
X-10033Y-375D01*
X-9977Y-306D01*
X-9970Y-284D01*
X-9956Y-264D01*
X-9934Y-178D01*
X-9905Y-94D01*
X-9906Y-70D01*
X-9900Y-47D01*
X-9909Y42D01*
X-9912Y131D01*
X-9921Y153D01*
X-9923Y176D01*
X-9963Y256D01*
X-9996Y338D01*
X-10012Y356D01*
X-10023Y377D01*
X-10087Y438D01*
X-10148Y504D01*
X-10169Y515D01*
X-10186Y531D01*
X-10268Y566D01*
X-10347Y607D01*
X-10373Y610D01*
X-10393Y619D01*
X-10443Y621D01*
X-10533Y634D01*
X-127315Y634D01*
X-127380Y623D01*
X-127446Y621D01*
X-127489Y603D01*
X-127536Y595D01*
X-127593Y561D01*
X-127653Y536D01*
X-127688Y505D01*
X-127729Y480D01*
X-127771Y429D01*
X-127819Y385D01*
X-127841Y343D01*
X-127870Y306D01*
X-127891Y244D01*
X-127922Y185D01*
X-127930Y131D01*
X-127942Y94D01*
X-127941Y54D01*
X-127949Y0D01*
X-127949Y-165000D01*
X-127938Y-165065D01*
X-127936Y-165131D01*
X-127918Y-165174D01*
X-127910Y-165221D01*
X-127876Y-165278D01*
X-127851Y-165338D01*
X-127820Y-165373D01*
X-127795Y-165414D01*
X-127744Y-165456D01*
X-127700Y-165504D01*
X-127658Y-165526D01*
X-127621Y-165555D01*
X-127559Y-165576D01*
X-127500Y-165607D01*
X-127446Y-165615D01*
X-127409Y-165627D01*
X-127369Y-165626D01*
X-127315Y-165634D01*
X127315Y-165634D01*
X127380Y-165623D01*
G37*
%LPC*%
G36*
X-28581Y241999D02*
X-28581Y241999D01*
X-35197Y244740D01*
X-40260Y249803D01*
X-43001Y256419D01*
X-43001Y263581D01*
X-40260Y270197D01*
X-35197Y275260D01*
X-28581Y278001D01*
X-21419Y278001D01*
X-14803Y275260D01*
X-9740Y270197D01*
X-6999Y263581D01*
X-6999Y256419D01*
X-9740Y249803D01*
X-14803Y244740D01*
X-21419Y241999D01*
X-28581Y241999D01*
G37*
%LPD*%
%LPC*%
G36*
X21419Y241999D02*
X21419Y241999D01*
X14803Y244740D01*
X9740Y249803D01*
X6999Y256419D01*
X6999Y263581D01*
X9740Y270197D01*
X14803Y275260D01*
X21419Y278001D01*
X28581Y278001D01*
X35197Y275260D01*
X40260Y270197D01*
X43001Y263581D01*
X43001Y256419D01*
X40260Y249803D01*
X35197Y244740D01*
X28581Y241999D01*
X21419Y241999D01*
G37*
%LPD*%
%LPC*%
G36*
X71419Y241999D02*
X71419Y241999D01*
X64803Y244740D01*
X59740Y249803D01*
X56999Y256419D01*
X56999Y263581D01*
X59740Y270197D01*
X64803Y275260D01*
X71419Y278001D01*
X78581Y278001D01*
X85197Y275260D01*
X90260Y270197D01*
X93001Y263581D01*
X93001Y256419D01*
X90260Y249803D01*
X85197Y244740D01*
X78581Y241999D01*
X71419Y241999D01*
G37*
%LPD*%
%LPC*%
G36*
X-78581Y241999D02*
X-78581Y241999D01*
X-85197Y244740D01*
X-90260Y249803D01*
X-93001Y256419D01*
X-93001Y263581D01*
X-90260Y270197D01*
X-85197Y275260D01*
X-78581Y278001D01*
X-71419Y278001D01*
X-64803Y275260D01*
X-59740Y270197D01*
X-56999Y263581D01*
X-56999Y256419D01*
X-59740Y249803D01*
X-64803Y244740D01*
X-71419Y241999D01*
X-78581Y241999D01*
G37*
%LPD*%
%LPC*%
G36*
X71419Y171999D02*
X71419Y171999D01*
X64803Y174740D01*
X59740Y179803D01*
X56999Y186419D01*
X56999Y193581D01*
X59740Y200197D01*
X64803Y205260D01*
X71419Y208001D01*
X78581Y208001D01*
X85197Y205260D01*
X90260Y200197D01*
X93001Y193581D01*
X93001Y186419D01*
X90260Y179803D01*
X85197Y174740D01*
X78581Y171999D01*
X71419Y171999D01*
G37*
%LPD*%
%LPC*%
G36*
X-28581Y171999D02*
X-28581Y171999D01*
X-35197Y174740D01*
X-40260Y179803D01*
X-43001Y186419D01*
X-43001Y193581D01*
X-40260Y200197D01*
X-35197Y205260D01*
X-28581Y208001D01*
X-21419Y208001D01*
X-14803Y205260D01*
X-9740Y200197D01*
X-6999Y193581D01*
X-6999Y186419D01*
X-9740Y179803D01*
X-14803Y174740D01*
X-21419Y171999D01*
X-28581Y171999D01*
G37*
%LPD*%
%LPC*%
G36*
X-78581Y171999D02*
X-78581Y171999D01*
X-85197Y174740D01*
X-90260Y179803D01*
X-93001Y186419D01*
X-93001Y193581D01*
X-90260Y200197D01*
X-85197Y205260D01*
X-78581Y208001D01*
X-71419Y208001D01*
X-64803Y205260D01*
X-59740Y200197D01*
X-56999Y193581D01*
X-56999Y186419D01*
X-59740Y179803D01*
X-64803Y174740D01*
X-71419Y171999D01*
X-78581Y171999D01*
G37*
%LPD*%
%LPC*%
G36*
X21419Y171999D02*
X21419Y171999D01*
X14803Y174740D01*
X9740Y179803D01*
X6999Y186419D01*
X6999Y193581D01*
X9740Y200197D01*
X14803Y205260D01*
X21419Y208001D01*
X28581Y208001D01*
X35197Y205260D01*
X40260Y200197D01*
X43001Y193581D01*
X43001Y186419D01*
X40260Y179803D01*
X35197Y174740D01*
X28581Y171999D01*
X21419Y171999D01*
G37*
%LPD*%
%LPC*%
G36*
X48255Y221229D02*
X48255Y221229D01*
X45032Y222565D01*
X42565Y225032D01*
X41229Y228255D01*
X41229Y231745D01*
X42565Y234968D01*
X45032Y237435D01*
X48255Y238771D01*
X51745Y238771D01*
X54968Y237435D01*
X57435Y234968D01*
X58771Y231745D01*
X58771Y228255D01*
X57435Y225032D01*
X54968Y222565D01*
X51745Y221229D01*
X48255Y221229D01*
G37*
%LPD*%
%LPC*%
G36*
X-101745Y221229D02*
X-101745Y221229D01*
X-104968Y222565D01*
X-107435Y225032D01*
X-108771Y228255D01*
X-108771Y231745D01*
X-107435Y234968D01*
X-104968Y237435D01*
X-101745Y238771D01*
X-98255Y238771D01*
X-95032Y237435D01*
X-92565Y234968D01*
X-91229Y231745D01*
X-91229Y228255D01*
X-92565Y225032D01*
X-95032Y222565D01*
X-98255Y221229D01*
X-101745Y221229D01*
G37*
%LPD*%
%LPC*%
G36*
X-51745Y221229D02*
X-51745Y221229D01*
X-54968Y222565D01*
X-57435Y225032D01*
X-58771Y228255D01*
X-58771Y231745D01*
X-57435Y234968D01*
X-54968Y237435D01*
X-51745Y238771D01*
X-48255Y238771D01*
X-45032Y237435D01*
X-42565Y234968D01*
X-41229Y231745D01*
X-41229Y228255D01*
X-42565Y225032D01*
X-45032Y222565D01*
X-48255Y221229D01*
X-51745Y221229D01*
G37*
%LPD*%
%LPC*%
G36*
X-1745Y221229D02*
X-1745Y221229D01*
X-4968Y222565D01*
X-7435Y225032D01*
X-8771Y228255D01*
X-8771Y231745D01*
X-7435Y234968D01*
X-4968Y237435D01*
X-1745Y238771D01*
X1745Y238771D01*
X4968Y237435D01*
X7435Y234968D01*
X8771Y231745D01*
X8771Y228255D01*
X7435Y225032D01*
X4968Y222565D01*
X1745Y221229D01*
X-1745Y221229D01*
G37*
%LPD*%
%LPC*%
G36*
X-91842Y-11000D02*
X-91842Y-11000D01*
X-94446Y-8396D01*
X-94446Y-4712D01*
X-91842Y-2108D01*
X-88158Y-2108D01*
X-85554Y-4712D01*
X-85554Y-8396D01*
X-88158Y-11000D01*
X-91842Y-11000D01*
G37*
%LPD*%
%LPC*%
G36*
X11158Y-163251D02*
X11158Y-163251D01*
X8554Y-160647D01*
X8554Y-156963D01*
X11158Y-154359D01*
X14842Y-154359D01*
X17446Y-156963D01*
X17446Y-160647D01*
X14842Y-163251D01*
X11158Y-163251D01*
G37*
%LPD*%
%LPC*%
G36*
X72213Y-128696D02*
X72213Y-128696D01*
X69609Y-126092D01*
X69609Y-122408D01*
X72213Y-119804D01*
X75897Y-119804D01*
X78501Y-122408D01*
X78501Y-126092D01*
X75897Y-128696D01*
X72213Y-128696D01*
G37*
%LPD*%
%LPC*%
G36*
X11104Y-84446D02*
X11104Y-84446D01*
X8500Y-81842D01*
X8500Y-78158D01*
X11104Y-75554D01*
X14787Y-75554D01*
X17391Y-78158D01*
X17391Y-81842D01*
X14787Y-84446D01*
X11104Y-84446D01*
G37*
%LPD*%
%LPC*%
G36*
X-48896Y-84446D02*
X-48896Y-84446D01*
X-51500Y-81842D01*
X-51500Y-78158D01*
X-48896Y-75554D01*
X-45213Y-75554D01*
X-42609Y-78158D01*
X-42609Y-81842D01*
X-45213Y-84446D01*
X-48896Y-84446D01*
G37*
%LPD*%
%LPC*%
G36*
X-47787Y-128696D02*
X-47787Y-128696D01*
X-50391Y-126092D01*
X-50391Y-122408D01*
X-47787Y-119804D01*
X-44103Y-119804D01*
X-41499Y-122408D01*
X-41499Y-126092D01*
X-44103Y-128696D01*
X-47787Y-128696D01*
G37*
%LPD*%
%LPC*%
G36*
X-41842Y-11000D02*
X-41842Y-11000D01*
X-44446Y-8396D01*
X-44446Y-4712D01*
X-41842Y-2108D01*
X-38158Y-2108D01*
X-35554Y-4712D01*
X-35554Y-8396D01*
X-38158Y-11000D01*
X-41842Y-11000D01*
G37*
%LPD*%
%LPC*%
G36*
X38158Y-11000D02*
X38158Y-11000D01*
X35554Y-8396D01*
X35554Y-4712D01*
X38158Y-2108D01*
X41842Y-2108D01*
X44446Y-4712D01*
X44446Y-8396D01*
X41842Y-11000D01*
X38158Y-11000D01*
G37*
%LPD*%
%LPC*%
G36*
X88158Y-11000D02*
X88158Y-11000D01*
X85554Y-8396D01*
X85554Y-4712D01*
X88158Y-2108D01*
X91842Y-2108D01*
X94446Y-4712D01*
X94446Y-8396D01*
X91842Y-11000D01*
X88158Y-11000D01*
G37*
%LPD*%
%LPC*%
G36*
X-107787Y-128696D02*
X-107787Y-128696D01*
X-110391Y-126092D01*
X-110391Y-122408D01*
X-107787Y-119804D01*
X-104103Y-119804D01*
X-101499Y-122408D01*
X-101499Y-126092D01*
X-104103Y-128696D01*
X-107787Y-128696D01*
G37*
%LPD*%
%LPC*%
G36*
X12213Y-128696D02*
X12213Y-128696D01*
X9609Y-126092D01*
X9609Y-122408D01*
X12213Y-119804D01*
X15897Y-119804D01*
X18501Y-122408D01*
X18501Y-126092D01*
X15897Y-128696D01*
X12213Y-128696D01*
G37*
%LPD*%
%LPC*%
G36*
X1269Y-31269D02*
X1269Y-31269D01*
X9965Y-31269D01*
X9794Y-32351D01*
X9305Y-33854D01*
X8588Y-35262D01*
X7659Y-36541D01*
X6541Y-37659D01*
X5262Y-38588D01*
X3854Y-39305D01*
X2351Y-39794D01*
X1269Y-39965D01*
X1269Y-31269D01*
G37*
%LPD*%
%LPC*%
G36*
X111269Y231269D02*
X111269Y231269D01*
X111269Y239965D01*
X112351Y239794D01*
X113854Y239305D01*
X115262Y238588D01*
X116541Y237659D01*
X117659Y236541D01*
X118588Y235262D01*
X119305Y233854D01*
X119794Y232351D01*
X119965Y231269D01*
X111269Y231269D01*
G37*
%LPD*%
%LPC*%
G36*
X-2351Y-39794D02*
X-2351Y-39794D01*
X-3854Y-39305D01*
X-5262Y-38588D01*
X-6541Y-37659D01*
X-7659Y-36541D01*
X-8588Y-35262D01*
X-9305Y-33854D01*
X-9794Y-32351D01*
X-9965Y-31269D01*
X-1269Y-31269D01*
X-1269Y-39965D01*
X-2351Y-39794D01*
G37*
%LPD*%
%LPC*%
G36*
X1269Y-28731D02*
X1269Y-28731D01*
X1269Y-20035D01*
X2351Y-20206D01*
X3854Y-20695D01*
X5262Y-21412D01*
X6541Y-22341D01*
X7659Y-23459D01*
X8588Y-24738D01*
X9305Y-26146D01*
X9794Y-27649D01*
X9965Y-28731D01*
X1269Y-28731D01*
G37*
%LPD*%
%LPC*%
G36*
X111269Y228731D02*
X111269Y228731D01*
X119965Y228731D01*
X119794Y227649D01*
X119305Y226146D01*
X118588Y224738D01*
X117659Y223459D01*
X116541Y222341D01*
X115262Y221412D01*
X113854Y220695D01*
X112351Y220206D01*
X111269Y220035D01*
X111269Y228731D01*
G37*
%LPD*%
%LPC*%
G36*
X100035Y231269D02*
X100035Y231269D01*
X100206Y232351D01*
X100695Y233854D01*
X101412Y235262D01*
X102341Y236541D01*
X103459Y237659D01*
X104738Y238588D01*
X106146Y239305D01*
X107649Y239794D01*
X108731Y239965D01*
X108731Y231269D01*
X100035Y231269D01*
G37*
%LPD*%
%LPC*%
G36*
X-9965Y-28731D02*
X-9965Y-28731D01*
X-9794Y-27649D01*
X-9305Y-26146D01*
X-8588Y-24738D01*
X-7659Y-23459D01*
X-6541Y-22341D01*
X-5262Y-21412D01*
X-3854Y-20695D01*
X-2351Y-20206D01*
X-1269Y-20035D01*
X-1269Y-28731D01*
X-9965Y-28731D01*
G37*
%LPD*%
%LPC*%
G36*
X107649Y220206D02*
X107649Y220206D01*
X106146Y220695D01*
X104738Y221412D01*
X103459Y222341D01*
X102341Y223459D01*
X101412Y224738D01*
X100695Y226146D01*
X100206Y227649D01*
X100035Y228731D01*
X108731Y228731D01*
X108731Y220035D01*
X107649Y220206D01*
G37*
%LPD*%
%LPC*%
G36*
X-78967Y-36041D02*
X-78967Y-36041D01*
X-81041Y-33967D01*
X-81041Y-31033D01*
X-78967Y-28959D01*
X-76033Y-28959D01*
X-73959Y-31033D01*
X-73959Y-33967D01*
X-76033Y-36041D01*
X-78967Y-36041D01*
G37*
%LPD*%
%LPC*%
G36*
X109999Y229999D02*
X109999Y229999D01*
X109999Y230001D01*
X110001Y230001D01*
X110001Y229999D01*
X109999Y229999D01*
G37*
%LPD*%
%LPC*%
G36*
X-1Y-30001D02*
X-1Y-30001D01*
X-1Y-29999D01*
X1Y-29999D01*
X1Y-30001D01*
X-1Y-30001D01*
G37*
%LPD*%
D10*
X-100000Y230000D03*
X-50000Y230000D03*
X0Y230000D03*
X50000Y230000D03*
X0Y-30000D03*
X110000Y230000D03*
D11*
X12946Y-80000D03*
X74055Y-124250D03*
X40000Y-6554D03*
X90000Y-6554D03*
X-47055Y-80000D03*
X-90000Y-6554D03*
X-40000Y-6554D03*
X14055Y-124250D03*
X13000Y-158805D03*
X57055Y20000D03*
X-105945Y-124250D03*
X-45945Y-124250D03*
X-72946Y20000D03*
X7500Y5409D03*
X2500Y-4152D03*
X-2500Y5409D03*
X-7500Y-4152D03*
X107055Y20000D03*
X-62500Y50555D03*
X-12500Y50555D03*
X37500Y50555D03*
X87500Y50555D03*
X-62500Y149445D03*
X-12500Y149445D03*
X37500Y149445D03*
X87500Y149445D03*
X-22946Y20000D03*
D12*
X-40000Y5000D03*
X-77500Y-32500D03*
D11*
X-14055Y-115750D03*
X-13000Y-158805D03*
X-74055Y-115750D03*
X45945Y-115750D03*
X-49500Y-53446D03*
X-99500Y-53446D03*
X-12946Y-80000D03*
X80500Y-53446D03*
X30500Y-53446D03*
X105945Y-115750D03*
X47055Y-80000D03*
M02*
