G04 EAGLE Gerber RS-274X export*
G75*
%MOMM*%
%FSLAX34Y34*%
%LPD*%
%INSilk screen SOL*%
%IPPOS*%
%AMOC8*
5,1,8,0,0,1.08239X$1,22.5*%
G01*
%ADD10C,0.100000*%
%ADD11C,0.000000*%
%ADD12C,0.152400*%


D10*
X430000Y265000D02*
X430000Y-320000D01*
X-430000Y-320000D02*
X-430000Y265000D01*
X380000Y-370000D02*
X381208Y-369985D01*
X382416Y-369942D01*
X383622Y-369869D01*
X384826Y-369767D01*
X386027Y-369635D01*
X387224Y-369475D01*
X388418Y-369286D01*
X389606Y-369069D01*
X390789Y-368822D01*
X391966Y-368547D01*
X393135Y-368244D01*
X394297Y-367912D01*
X395451Y-367553D01*
X396595Y-367166D01*
X397730Y-366751D01*
X398855Y-366309D01*
X399968Y-365840D01*
X401070Y-365344D01*
X402160Y-364821D01*
X403236Y-364273D01*
X404299Y-363698D01*
X405348Y-363098D01*
X406382Y-362473D01*
X407401Y-361824D01*
X408403Y-361149D01*
X409389Y-360451D01*
X410358Y-359729D01*
X411309Y-358984D01*
X412242Y-358216D01*
X413156Y-357426D01*
X414051Y-356613D01*
X414926Y-355780D01*
X415780Y-354926D01*
X416613Y-354051D01*
X417426Y-353156D01*
X418216Y-352242D01*
X418984Y-351309D01*
X419729Y-350358D01*
X420451Y-349389D01*
X421149Y-348403D01*
X421824Y-347401D01*
X422473Y-346382D01*
X423098Y-345348D01*
X423698Y-344299D01*
X424273Y-343236D01*
X424821Y-342160D01*
X425344Y-341070D01*
X425840Y-339968D01*
X426309Y-338855D01*
X426751Y-337730D01*
X427166Y-336595D01*
X427553Y-335451D01*
X427912Y-334297D01*
X428244Y-333135D01*
X428547Y-331966D01*
X428822Y-330789D01*
X429069Y-329606D01*
X429286Y-328418D01*
X429475Y-327224D01*
X429635Y-326027D01*
X429767Y-324826D01*
X429869Y-323622D01*
X429942Y-322416D01*
X429985Y-321208D01*
X430000Y-320000D01*
X380000Y-370000D02*
X-380000Y-370000D01*
X-381208Y-369985D01*
X-382416Y-369942D01*
X-383622Y-369869D01*
X-384826Y-369767D01*
X-386027Y-369635D01*
X-387224Y-369475D01*
X-388418Y-369286D01*
X-389606Y-369069D01*
X-390789Y-368822D01*
X-391966Y-368547D01*
X-393135Y-368244D01*
X-394297Y-367912D01*
X-395451Y-367553D01*
X-396595Y-367166D01*
X-397730Y-366751D01*
X-398855Y-366309D01*
X-399968Y-365840D01*
X-401070Y-365344D01*
X-402160Y-364821D01*
X-403236Y-364273D01*
X-404299Y-363698D01*
X-405348Y-363098D01*
X-406382Y-362473D01*
X-407401Y-361824D01*
X-408403Y-361149D01*
X-409389Y-360451D01*
X-410358Y-359729D01*
X-411309Y-358984D01*
X-412242Y-358216D01*
X-413156Y-357426D01*
X-414051Y-356613D01*
X-414926Y-355780D01*
X-415780Y-354926D01*
X-416613Y-354051D01*
X-417426Y-353156D01*
X-418216Y-352242D01*
X-418984Y-351309D01*
X-419729Y-350358D01*
X-420451Y-349389D01*
X-421149Y-348403D01*
X-421824Y-347401D01*
X-422473Y-346382D01*
X-423098Y-345348D01*
X-423698Y-344299D01*
X-424273Y-343236D01*
X-424821Y-342160D01*
X-425344Y-341070D01*
X-425840Y-339968D01*
X-426309Y-338855D01*
X-426751Y-337730D01*
X-427166Y-336595D01*
X-427553Y-335451D01*
X-427912Y-334297D01*
X-428244Y-333135D01*
X-428547Y-331966D01*
X-428822Y-330789D01*
X-429069Y-329606D01*
X-429286Y-328418D01*
X-429475Y-327224D01*
X-429635Y-326027D01*
X-429767Y-324826D01*
X-429869Y-323622D01*
X-429942Y-322416D01*
X-429985Y-321208D01*
X-430000Y-320000D01*
X-31667Y310000D02*
X-31186Y310352D01*
X-30697Y310692D01*
X-30200Y311020D01*
X-29695Y311337D01*
X-29183Y311641D01*
X-28664Y311934D01*
X-28138Y312213D01*
X-27605Y312480D01*
X-27066Y312735D01*
X-26521Y312976D01*
X-25971Y313204D01*
X-25415Y313419D01*
X-24855Y313621D01*
X-24290Y313810D01*
X-23720Y313984D01*
X-23146Y314146D01*
X-22569Y314293D01*
X-21988Y314427D01*
X-21405Y314547D01*
X-20819Y314653D01*
X-20230Y314745D01*
X-19639Y314823D01*
X-19047Y314886D01*
X-18453Y314936D01*
X-17858Y314972D01*
X-17263Y314993D01*
X-16667Y315000D01*
X380000Y315000D01*
X-181667Y320000D02*
X-182629Y320704D01*
X-183607Y321384D01*
X-184601Y322041D01*
X-185611Y322674D01*
X-186635Y323283D01*
X-187674Y323867D01*
X-188726Y324426D01*
X-189791Y324961D01*
X-190869Y325469D01*
X-191958Y325952D01*
X-193059Y326408D01*
X-194170Y326839D01*
X-195291Y327242D01*
X-196422Y327619D01*
X-197561Y327969D01*
X-198708Y328292D01*
X-199863Y328587D01*
X-201024Y328854D01*
X-202191Y329094D01*
X-203364Y329306D01*
X-204541Y329490D01*
X-205723Y329645D01*
X-206908Y329773D01*
X-208095Y329872D01*
X-209285Y329943D01*
X-210475Y329986D01*
X-211667Y330000D01*
X-316667Y330000D01*
X-317263Y329993D01*
X-317858Y329972D01*
X-318453Y329936D01*
X-319047Y329886D01*
X-319639Y329823D01*
X-320230Y329745D01*
X-320819Y329653D01*
X-321405Y329547D01*
X-321988Y329427D01*
X-322569Y329293D01*
X-323146Y329146D01*
X-323720Y328984D01*
X-324290Y328810D01*
X-324855Y328621D01*
X-325415Y328419D01*
X-325971Y328204D01*
X-326521Y327976D01*
X-327066Y327735D01*
X-327605Y327480D01*
X-328138Y327213D01*
X-328664Y326934D01*
X-329183Y326641D01*
X-329695Y326337D01*
X-330200Y326020D01*
X-330697Y325692D01*
X-331186Y325352D01*
X-331667Y325000D01*
X-332629Y324296D01*
X-333607Y323616D01*
X-334601Y322959D01*
X-335611Y322326D01*
X-336635Y321717D01*
X-337674Y321133D01*
X-338726Y320574D01*
X-339791Y320039D01*
X-340869Y319531D01*
X-341958Y319048D01*
X-343059Y318592D01*
X-344170Y318161D01*
X-345291Y317758D01*
X-346422Y317381D01*
X-347561Y317031D01*
X-348708Y316708D01*
X-349863Y316413D01*
X-351024Y316146D01*
X-352191Y315906D01*
X-353364Y315694D01*
X-354541Y315510D01*
X-355723Y315355D01*
X-356908Y315227D01*
X-358095Y315128D01*
X-359285Y315057D01*
X-360475Y315014D01*
X-361667Y315000D01*
X-380000Y315000D01*
X-381208Y314985D01*
X-382416Y314942D01*
X-383622Y314869D01*
X-384826Y314767D01*
X-386027Y314635D01*
X-387224Y314475D01*
X-388418Y314286D01*
X-389606Y314069D01*
X-390789Y313822D01*
X-391966Y313547D01*
X-393135Y313244D01*
X-394297Y312912D01*
X-395451Y312553D01*
X-396595Y312166D01*
X-397730Y311751D01*
X-398855Y311309D01*
X-399968Y310840D01*
X-401070Y310344D01*
X-402160Y309821D01*
X-403236Y309273D01*
X-404299Y308698D01*
X-405348Y308098D01*
X-406382Y307473D01*
X-407401Y306824D01*
X-408403Y306149D01*
X-409389Y305451D01*
X-410358Y304729D01*
X-411309Y303984D01*
X-412242Y303216D01*
X-413156Y302426D01*
X-414051Y301613D01*
X-414926Y300780D01*
X-415780Y299926D01*
X-416613Y299051D01*
X-417426Y298156D01*
X-418216Y297242D01*
X-418984Y296309D01*
X-419729Y295358D01*
X-420451Y294389D01*
X-421149Y293403D01*
X-421824Y292401D01*
X-422473Y291382D01*
X-423098Y290348D01*
X-423698Y289299D01*
X-424273Y288236D01*
X-424821Y287160D01*
X-425344Y286070D01*
X-425840Y284968D01*
X-426309Y283855D01*
X-426751Y282730D01*
X-427166Y281595D01*
X-427553Y280451D01*
X-427912Y279297D01*
X-428244Y278135D01*
X-428547Y276966D01*
X-428822Y275789D01*
X-429069Y274606D01*
X-429286Y273418D01*
X-429475Y272224D01*
X-429635Y271027D01*
X-429767Y269826D01*
X-429869Y268622D01*
X-429942Y267416D01*
X-429985Y266208D01*
X-430000Y265000D01*
X380000Y315000D02*
X381208Y314985D01*
X382416Y314942D01*
X383622Y314869D01*
X384826Y314767D01*
X386027Y314635D01*
X387224Y314475D01*
X388418Y314286D01*
X389606Y314069D01*
X390789Y313822D01*
X391966Y313547D01*
X393135Y313244D01*
X394297Y312912D01*
X395451Y312553D01*
X396595Y312166D01*
X397730Y311751D01*
X398855Y311309D01*
X399968Y310840D01*
X401070Y310344D01*
X402160Y309821D01*
X403236Y309273D01*
X404299Y308698D01*
X405348Y308098D01*
X406382Y307473D01*
X407401Y306824D01*
X408403Y306149D01*
X409389Y305451D01*
X410358Y304729D01*
X411309Y303984D01*
X412242Y303216D01*
X413156Y302426D01*
X414051Y301613D01*
X414926Y300780D01*
X415780Y299926D01*
X416613Y299051D01*
X417426Y298156D01*
X418216Y297242D01*
X418984Y296309D01*
X419729Y295358D01*
X420451Y294389D01*
X421149Y293403D01*
X421824Y292401D01*
X422473Y291382D01*
X423098Y290348D01*
X423698Y289299D01*
X424273Y288236D01*
X424821Y287160D01*
X425344Y286070D01*
X425840Y284968D01*
X426309Y283855D01*
X426751Y282730D01*
X427166Y281595D01*
X427553Y280451D01*
X427912Y279297D01*
X428244Y278135D01*
X428547Y276966D01*
X428822Y275789D01*
X429069Y274606D01*
X429286Y273418D01*
X429475Y272224D01*
X429635Y271027D01*
X429767Y269826D01*
X429869Y268622D01*
X429942Y267416D01*
X429985Y266208D01*
X430000Y265000D01*
X-168333Y310000D02*
X-181667Y320000D01*
X-168333Y310000D02*
X-167371Y309296D01*
X-166393Y308616D01*
X-165399Y307959D01*
X-164389Y307326D01*
X-163365Y306717D01*
X-162326Y306133D01*
X-161274Y305574D01*
X-160209Y305039D01*
X-159131Y304531D01*
X-158042Y304048D01*
X-156941Y303592D01*
X-155830Y303161D01*
X-154709Y302758D01*
X-153578Y302381D01*
X-152439Y302031D01*
X-151292Y301708D01*
X-150137Y301413D01*
X-148976Y301146D01*
X-147809Y300906D01*
X-146636Y300694D01*
X-145459Y300510D01*
X-144277Y300355D01*
X-143092Y300227D01*
X-141905Y300128D01*
X-140715Y300057D01*
X-139525Y300014D01*
X-138333Y300000D01*
X-61667Y300000D01*
X-60475Y300014D01*
X-59285Y300057D01*
X-58095Y300128D01*
X-56908Y300227D01*
X-55723Y300355D01*
X-54541Y300510D01*
X-53364Y300694D01*
X-52191Y300906D01*
X-51024Y301146D01*
X-49863Y301413D01*
X-48708Y301708D01*
X-47561Y302031D01*
X-46422Y302381D01*
X-45291Y302758D01*
X-44170Y303161D01*
X-43059Y303592D01*
X-41958Y304048D01*
X-40869Y304531D01*
X-39791Y305039D01*
X-38726Y305574D01*
X-37674Y306133D01*
X-36635Y306717D01*
X-35611Y307326D01*
X-34601Y307959D01*
X-33607Y308616D01*
X-32629Y309296D01*
X-31667Y310000D01*
D11*
X-1116000Y-270000D02*
X-1115997Y-269730D01*
X-1115987Y-269460D01*
X-1115970Y-269191D01*
X-1115947Y-268922D01*
X-1115917Y-268653D01*
X-1115881Y-268386D01*
X-1115838Y-268119D01*
X-1115789Y-267854D01*
X-1115733Y-267590D01*
X-1115670Y-267327D01*
X-1115602Y-267066D01*
X-1115526Y-266807D01*
X-1115445Y-266550D01*
X-1115357Y-266294D01*
X-1115263Y-266041D01*
X-1115163Y-265790D01*
X-1115056Y-265542D01*
X-1114944Y-265297D01*
X-1114825Y-265054D01*
X-1114701Y-264815D01*
X-1114571Y-264578D01*
X-1114435Y-264345D01*
X-1114293Y-264115D01*
X-1114146Y-263889D01*
X-1113993Y-263666D01*
X-1113835Y-263447D01*
X-1113672Y-263232D01*
X-1113503Y-263022D01*
X-1113329Y-262815D01*
X-1113150Y-262613D01*
X-1112967Y-262415D01*
X-1112778Y-262222D01*
X-1112585Y-262033D01*
X-1112387Y-261850D01*
X-1112185Y-261671D01*
X-1111978Y-261497D01*
X-1111768Y-261328D01*
X-1111553Y-261165D01*
X-1111334Y-261007D01*
X-1111111Y-260854D01*
X-1110885Y-260707D01*
X-1110655Y-260565D01*
X-1110422Y-260429D01*
X-1110185Y-260299D01*
X-1109946Y-260175D01*
X-1109703Y-260056D01*
X-1109458Y-259944D01*
X-1109210Y-259837D01*
X-1108959Y-259737D01*
X-1108706Y-259643D01*
X-1108450Y-259555D01*
X-1108193Y-259474D01*
X-1107934Y-259398D01*
X-1107673Y-259330D01*
X-1107410Y-259267D01*
X-1107146Y-259211D01*
X-1106881Y-259162D01*
X-1106614Y-259119D01*
X-1106347Y-259083D01*
X-1106078Y-259053D01*
X-1105809Y-259030D01*
X-1105540Y-259013D01*
X-1105270Y-259003D01*
X-1105000Y-259000D01*
X-1104730Y-259003D01*
X-1104460Y-259013D01*
X-1104191Y-259030D01*
X-1103922Y-259053D01*
X-1103653Y-259083D01*
X-1103386Y-259119D01*
X-1103119Y-259162D01*
X-1102854Y-259211D01*
X-1102590Y-259267D01*
X-1102327Y-259330D01*
X-1102066Y-259398D01*
X-1101807Y-259474D01*
X-1101550Y-259555D01*
X-1101294Y-259643D01*
X-1101041Y-259737D01*
X-1100790Y-259837D01*
X-1100542Y-259944D01*
X-1100297Y-260056D01*
X-1100054Y-260175D01*
X-1099815Y-260299D01*
X-1099578Y-260429D01*
X-1099345Y-260565D01*
X-1099115Y-260707D01*
X-1098889Y-260854D01*
X-1098666Y-261007D01*
X-1098447Y-261165D01*
X-1098232Y-261328D01*
X-1098022Y-261497D01*
X-1097815Y-261671D01*
X-1097613Y-261850D01*
X-1097415Y-262033D01*
X-1097222Y-262222D01*
X-1097033Y-262415D01*
X-1096850Y-262613D01*
X-1096671Y-262815D01*
X-1096497Y-263022D01*
X-1096328Y-263232D01*
X-1096165Y-263447D01*
X-1096007Y-263666D01*
X-1095854Y-263889D01*
X-1095707Y-264115D01*
X-1095565Y-264345D01*
X-1095429Y-264578D01*
X-1095299Y-264815D01*
X-1095175Y-265054D01*
X-1095056Y-265297D01*
X-1094944Y-265542D01*
X-1094837Y-265790D01*
X-1094737Y-266041D01*
X-1094643Y-266294D01*
X-1094555Y-266550D01*
X-1094474Y-266807D01*
X-1094398Y-267066D01*
X-1094330Y-267327D01*
X-1094267Y-267590D01*
X-1094211Y-267854D01*
X-1094162Y-268119D01*
X-1094119Y-268386D01*
X-1094083Y-268653D01*
X-1094053Y-268922D01*
X-1094030Y-269191D01*
X-1094013Y-269460D01*
X-1094003Y-269730D01*
X-1094000Y-270000D01*
X-1094003Y-270270D01*
X-1094013Y-270540D01*
X-1094030Y-270809D01*
X-1094053Y-271078D01*
X-1094083Y-271347D01*
X-1094119Y-271614D01*
X-1094162Y-271881D01*
X-1094211Y-272146D01*
X-1094267Y-272410D01*
X-1094330Y-272673D01*
X-1094398Y-272934D01*
X-1094474Y-273193D01*
X-1094555Y-273450D01*
X-1094643Y-273706D01*
X-1094737Y-273959D01*
X-1094837Y-274210D01*
X-1094944Y-274458D01*
X-1095056Y-274703D01*
X-1095175Y-274946D01*
X-1095299Y-275185D01*
X-1095429Y-275422D01*
X-1095565Y-275655D01*
X-1095707Y-275885D01*
X-1095854Y-276111D01*
X-1096007Y-276334D01*
X-1096165Y-276553D01*
X-1096328Y-276768D01*
X-1096497Y-276978D01*
X-1096671Y-277185D01*
X-1096850Y-277387D01*
X-1097033Y-277585D01*
X-1097222Y-277778D01*
X-1097415Y-277967D01*
X-1097613Y-278150D01*
X-1097815Y-278329D01*
X-1098022Y-278503D01*
X-1098232Y-278672D01*
X-1098447Y-278835D01*
X-1098666Y-278993D01*
X-1098889Y-279146D01*
X-1099115Y-279293D01*
X-1099345Y-279435D01*
X-1099578Y-279571D01*
X-1099815Y-279701D01*
X-1100054Y-279825D01*
X-1100297Y-279944D01*
X-1100542Y-280056D01*
X-1100790Y-280163D01*
X-1101041Y-280263D01*
X-1101294Y-280357D01*
X-1101550Y-280445D01*
X-1101807Y-280526D01*
X-1102066Y-280602D01*
X-1102327Y-280670D01*
X-1102590Y-280733D01*
X-1102854Y-280789D01*
X-1103119Y-280838D01*
X-1103386Y-280881D01*
X-1103653Y-280917D01*
X-1103922Y-280947D01*
X-1104191Y-280970D01*
X-1104460Y-280987D01*
X-1104730Y-280997D01*
X-1105000Y-281000D01*
X-1105270Y-280997D01*
X-1105540Y-280987D01*
X-1105809Y-280970D01*
X-1106078Y-280947D01*
X-1106347Y-280917D01*
X-1106614Y-280881D01*
X-1106881Y-280838D01*
X-1107146Y-280789D01*
X-1107410Y-280733D01*
X-1107673Y-280670D01*
X-1107934Y-280602D01*
X-1108193Y-280526D01*
X-1108450Y-280445D01*
X-1108706Y-280357D01*
X-1108959Y-280263D01*
X-1109210Y-280163D01*
X-1109458Y-280056D01*
X-1109703Y-279944D01*
X-1109946Y-279825D01*
X-1110185Y-279701D01*
X-1110422Y-279571D01*
X-1110655Y-279435D01*
X-1110885Y-279293D01*
X-1111111Y-279146D01*
X-1111334Y-278993D01*
X-1111553Y-278835D01*
X-1111768Y-278672D01*
X-1111978Y-278503D01*
X-1112185Y-278329D01*
X-1112387Y-278150D01*
X-1112585Y-277967D01*
X-1112778Y-277778D01*
X-1112967Y-277585D01*
X-1113150Y-277387D01*
X-1113329Y-277185D01*
X-1113503Y-276978D01*
X-1113672Y-276768D01*
X-1113835Y-276553D01*
X-1113993Y-276334D01*
X-1114146Y-276111D01*
X-1114293Y-275885D01*
X-1114435Y-275655D01*
X-1114571Y-275422D01*
X-1114701Y-275185D01*
X-1114825Y-274946D01*
X-1114944Y-274703D01*
X-1115056Y-274458D01*
X-1115163Y-274210D01*
X-1115263Y-273959D01*
X-1115357Y-273706D01*
X-1115445Y-273450D01*
X-1115526Y-273193D01*
X-1115602Y-272934D01*
X-1115670Y-272673D01*
X-1115733Y-272410D01*
X-1115789Y-272146D01*
X-1115838Y-271881D01*
X-1115881Y-271614D01*
X-1115917Y-271347D01*
X-1115947Y-271078D01*
X-1115970Y-270809D01*
X-1115987Y-270540D01*
X-1115997Y-270270D01*
X-1116000Y-270000D01*
X-1116000Y270000D02*
X-1115997Y270270D01*
X-1115987Y270540D01*
X-1115970Y270809D01*
X-1115947Y271078D01*
X-1115917Y271347D01*
X-1115881Y271614D01*
X-1115838Y271881D01*
X-1115789Y272146D01*
X-1115733Y272410D01*
X-1115670Y272673D01*
X-1115602Y272934D01*
X-1115526Y273193D01*
X-1115445Y273450D01*
X-1115357Y273706D01*
X-1115263Y273959D01*
X-1115163Y274210D01*
X-1115056Y274458D01*
X-1114944Y274703D01*
X-1114825Y274946D01*
X-1114701Y275185D01*
X-1114571Y275422D01*
X-1114435Y275655D01*
X-1114293Y275885D01*
X-1114146Y276111D01*
X-1113993Y276334D01*
X-1113835Y276553D01*
X-1113672Y276768D01*
X-1113503Y276978D01*
X-1113329Y277185D01*
X-1113150Y277387D01*
X-1112967Y277585D01*
X-1112778Y277778D01*
X-1112585Y277967D01*
X-1112387Y278150D01*
X-1112185Y278329D01*
X-1111978Y278503D01*
X-1111768Y278672D01*
X-1111553Y278835D01*
X-1111334Y278993D01*
X-1111111Y279146D01*
X-1110885Y279293D01*
X-1110655Y279435D01*
X-1110422Y279571D01*
X-1110185Y279701D01*
X-1109946Y279825D01*
X-1109703Y279944D01*
X-1109458Y280056D01*
X-1109210Y280163D01*
X-1108959Y280263D01*
X-1108706Y280357D01*
X-1108450Y280445D01*
X-1108193Y280526D01*
X-1107934Y280602D01*
X-1107673Y280670D01*
X-1107410Y280733D01*
X-1107146Y280789D01*
X-1106881Y280838D01*
X-1106614Y280881D01*
X-1106347Y280917D01*
X-1106078Y280947D01*
X-1105809Y280970D01*
X-1105540Y280987D01*
X-1105270Y280997D01*
X-1105000Y281000D01*
X-1104730Y280997D01*
X-1104460Y280987D01*
X-1104191Y280970D01*
X-1103922Y280947D01*
X-1103653Y280917D01*
X-1103386Y280881D01*
X-1103119Y280838D01*
X-1102854Y280789D01*
X-1102590Y280733D01*
X-1102327Y280670D01*
X-1102066Y280602D01*
X-1101807Y280526D01*
X-1101550Y280445D01*
X-1101294Y280357D01*
X-1101041Y280263D01*
X-1100790Y280163D01*
X-1100542Y280056D01*
X-1100297Y279944D01*
X-1100054Y279825D01*
X-1099815Y279701D01*
X-1099578Y279571D01*
X-1099345Y279435D01*
X-1099115Y279293D01*
X-1098889Y279146D01*
X-1098666Y278993D01*
X-1098447Y278835D01*
X-1098232Y278672D01*
X-1098022Y278503D01*
X-1097815Y278329D01*
X-1097613Y278150D01*
X-1097415Y277967D01*
X-1097222Y277778D01*
X-1097033Y277585D01*
X-1096850Y277387D01*
X-1096671Y277185D01*
X-1096497Y276978D01*
X-1096328Y276768D01*
X-1096165Y276553D01*
X-1096007Y276334D01*
X-1095854Y276111D01*
X-1095707Y275885D01*
X-1095565Y275655D01*
X-1095429Y275422D01*
X-1095299Y275185D01*
X-1095175Y274946D01*
X-1095056Y274703D01*
X-1094944Y274458D01*
X-1094837Y274210D01*
X-1094737Y273959D01*
X-1094643Y273706D01*
X-1094555Y273450D01*
X-1094474Y273193D01*
X-1094398Y272934D01*
X-1094330Y272673D01*
X-1094267Y272410D01*
X-1094211Y272146D01*
X-1094162Y271881D01*
X-1094119Y271614D01*
X-1094083Y271347D01*
X-1094053Y271078D01*
X-1094030Y270809D01*
X-1094013Y270540D01*
X-1094003Y270270D01*
X-1094000Y270000D01*
X-1094003Y269730D01*
X-1094013Y269460D01*
X-1094030Y269191D01*
X-1094053Y268922D01*
X-1094083Y268653D01*
X-1094119Y268386D01*
X-1094162Y268119D01*
X-1094211Y267854D01*
X-1094267Y267590D01*
X-1094330Y267327D01*
X-1094398Y267066D01*
X-1094474Y266807D01*
X-1094555Y266550D01*
X-1094643Y266294D01*
X-1094737Y266041D01*
X-1094837Y265790D01*
X-1094944Y265542D01*
X-1095056Y265297D01*
X-1095175Y265054D01*
X-1095299Y264815D01*
X-1095429Y264578D01*
X-1095565Y264345D01*
X-1095707Y264115D01*
X-1095854Y263889D01*
X-1096007Y263666D01*
X-1096165Y263447D01*
X-1096328Y263232D01*
X-1096497Y263022D01*
X-1096671Y262815D01*
X-1096850Y262613D01*
X-1097033Y262415D01*
X-1097222Y262222D01*
X-1097415Y262033D01*
X-1097613Y261850D01*
X-1097815Y261671D01*
X-1098022Y261497D01*
X-1098232Y261328D01*
X-1098447Y261165D01*
X-1098666Y261007D01*
X-1098889Y260854D01*
X-1099115Y260707D01*
X-1099345Y260565D01*
X-1099578Y260429D01*
X-1099815Y260299D01*
X-1100054Y260175D01*
X-1100297Y260056D01*
X-1100542Y259944D01*
X-1100790Y259837D01*
X-1101041Y259737D01*
X-1101294Y259643D01*
X-1101550Y259555D01*
X-1101807Y259474D01*
X-1102066Y259398D01*
X-1102327Y259330D01*
X-1102590Y259267D01*
X-1102854Y259211D01*
X-1103119Y259162D01*
X-1103386Y259119D01*
X-1103653Y259083D01*
X-1103922Y259053D01*
X-1104191Y259030D01*
X-1104460Y259013D01*
X-1104730Y259003D01*
X-1105000Y259000D01*
X-1105270Y259003D01*
X-1105540Y259013D01*
X-1105809Y259030D01*
X-1106078Y259053D01*
X-1106347Y259083D01*
X-1106614Y259119D01*
X-1106881Y259162D01*
X-1107146Y259211D01*
X-1107410Y259267D01*
X-1107673Y259330D01*
X-1107934Y259398D01*
X-1108193Y259474D01*
X-1108450Y259555D01*
X-1108706Y259643D01*
X-1108959Y259737D01*
X-1109210Y259837D01*
X-1109458Y259944D01*
X-1109703Y260056D01*
X-1109946Y260175D01*
X-1110185Y260299D01*
X-1110422Y260429D01*
X-1110655Y260565D01*
X-1110885Y260707D01*
X-1111111Y260854D01*
X-1111334Y261007D01*
X-1111553Y261165D01*
X-1111768Y261328D01*
X-1111978Y261497D01*
X-1112185Y261671D01*
X-1112387Y261850D01*
X-1112585Y262033D01*
X-1112778Y262222D01*
X-1112967Y262415D01*
X-1113150Y262613D01*
X-1113329Y262815D01*
X-1113503Y263022D01*
X-1113672Y263232D01*
X-1113835Y263447D01*
X-1113993Y263666D01*
X-1114146Y263889D01*
X-1114293Y264115D01*
X-1114435Y264345D01*
X-1114571Y264578D01*
X-1114701Y264815D01*
X-1114825Y265054D01*
X-1114944Y265297D01*
X-1115056Y265542D01*
X-1115163Y265790D01*
X-1115263Y266041D01*
X-1115357Y266294D01*
X-1115445Y266550D01*
X-1115526Y266807D01*
X-1115602Y267066D01*
X-1115670Y267327D01*
X-1115733Y267590D01*
X-1115789Y267854D01*
X-1115838Y268119D01*
X-1115881Y268386D01*
X-1115917Y268653D01*
X-1115947Y268922D01*
X-1115970Y269191D01*
X-1115987Y269460D01*
X-1115997Y269730D01*
X-1116000Y270000D01*
X-1115997Y270270D01*
X-1115987Y270540D01*
X-1115970Y270809D01*
X-1115947Y271078D01*
X-1115917Y271347D01*
X-1115881Y271614D01*
X-1115838Y271881D01*
X-1115789Y272146D01*
X-1115733Y272410D01*
X-1115670Y272673D01*
X-1115602Y272934D01*
X-1115526Y273193D01*
X-1115445Y273450D01*
X-1115357Y273706D01*
X-1115263Y273959D01*
X-1115163Y274210D01*
X-1115056Y274458D01*
X-1114944Y274703D01*
X-1114825Y274946D01*
X-1114701Y275185D01*
X-1114571Y275422D01*
X-1114435Y275655D01*
X-1114293Y275885D01*
X-1114146Y276111D01*
X-1113993Y276334D01*
X-1113835Y276553D01*
X-1113672Y276768D01*
X-1113503Y276978D01*
X-1113329Y277185D01*
X-1113150Y277387D01*
X-1112967Y277585D01*
X-1112778Y277778D01*
X-1112585Y277967D01*
X-1112387Y278150D01*
X-1112185Y278329D01*
X-1111978Y278503D01*
X-1111768Y278672D01*
X-1111553Y278835D01*
X-1111334Y278993D01*
X-1111111Y279146D01*
X-1110885Y279293D01*
X-1110655Y279435D01*
X-1110422Y279571D01*
X-1110185Y279701D01*
X-1109946Y279825D01*
X-1109703Y279944D01*
X-1109458Y280056D01*
X-1109210Y280163D01*
X-1108959Y280263D01*
X-1108706Y280357D01*
X-1108450Y280445D01*
X-1108193Y280526D01*
X-1107934Y280602D01*
X-1107673Y280670D01*
X-1107410Y280733D01*
X-1107146Y280789D01*
X-1106881Y280838D01*
X-1106614Y280881D01*
X-1106347Y280917D01*
X-1106078Y280947D01*
X-1105809Y280970D01*
X-1105540Y280987D01*
X-1105270Y280997D01*
X-1105000Y281000D01*
X-1104730Y280997D01*
X-1104460Y280987D01*
X-1104191Y280970D01*
X-1103922Y280947D01*
X-1103653Y280917D01*
X-1103386Y280881D01*
X-1103119Y280838D01*
X-1102854Y280789D01*
X-1102590Y280733D01*
X-1102327Y280670D01*
X-1102066Y280602D01*
X-1101807Y280526D01*
X-1101550Y280445D01*
X-1101294Y280357D01*
X-1101041Y280263D01*
X-1100790Y280163D01*
X-1100542Y280056D01*
X-1100297Y279944D01*
X-1100054Y279825D01*
X-1099815Y279701D01*
X-1099578Y279571D01*
X-1099345Y279435D01*
X-1099115Y279293D01*
X-1098889Y279146D01*
X-1098666Y278993D01*
X-1098447Y278835D01*
X-1098232Y278672D01*
X-1098022Y278503D01*
X-1097815Y278329D01*
X-1097613Y278150D01*
X-1097415Y277967D01*
X-1097222Y277778D01*
X-1097033Y277585D01*
X-1096850Y277387D01*
X-1096671Y277185D01*
X-1096497Y276978D01*
X-1096328Y276768D01*
X-1096165Y276553D01*
X-1096007Y276334D01*
X-1095854Y276111D01*
X-1095707Y275885D01*
X-1095565Y275655D01*
X-1095429Y275422D01*
X-1095299Y275185D01*
X-1095175Y274946D01*
X-1095056Y274703D01*
X-1094944Y274458D01*
X-1094837Y274210D01*
X-1094737Y273959D01*
X-1094643Y273706D01*
X-1094555Y273450D01*
X-1094474Y273193D01*
X-1094398Y272934D01*
X-1094330Y272673D01*
X-1094267Y272410D01*
X-1094211Y272146D01*
X-1094162Y271881D01*
X-1094119Y271614D01*
X-1094083Y271347D01*
X-1094053Y271078D01*
X-1094030Y270809D01*
X-1094013Y270540D01*
X-1094003Y270270D01*
X-1094000Y270000D01*
X-1094003Y269730D01*
X-1094013Y269460D01*
X-1094030Y269191D01*
X-1094053Y268922D01*
X-1094083Y268653D01*
X-1094119Y268386D01*
X-1094162Y268119D01*
X-1094211Y267854D01*
X-1094267Y267590D01*
X-1094330Y267327D01*
X-1094398Y267066D01*
X-1094474Y266807D01*
X-1094555Y266550D01*
X-1094643Y266294D01*
X-1094737Y266041D01*
X-1094837Y265790D01*
X-1094944Y265542D01*
X-1095056Y265297D01*
X-1095175Y265054D01*
X-1095299Y264815D01*
X-1095429Y264578D01*
X-1095565Y264345D01*
X-1095707Y264115D01*
X-1095854Y263889D01*
X-1096007Y263666D01*
X-1096165Y263447D01*
X-1096328Y263232D01*
X-1096497Y263022D01*
X-1096671Y262815D01*
X-1096850Y262613D01*
X-1097033Y262415D01*
X-1097222Y262222D01*
X-1097415Y262033D01*
X-1097613Y261850D01*
X-1097815Y261671D01*
X-1098022Y261497D01*
X-1098232Y261328D01*
X-1098447Y261165D01*
X-1098666Y261007D01*
X-1098889Y260854D01*
X-1099115Y260707D01*
X-1099345Y260565D01*
X-1099578Y260429D01*
X-1099815Y260299D01*
X-1100054Y260175D01*
X-1100297Y260056D01*
X-1100542Y259944D01*
X-1100790Y259837D01*
X-1101041Y259737D01*
X-1101294Y259643D01*
X-1101550Y259555D01*
X-1101807Y259474D01*
X-1102066Y259398D01*
X-1102327Y259330D01*
X-1102590Y259267D01*
X-1102854Y259211D01*
X-1103119Y259162D01*
X-1103386Y259119D01*
X-1103653Y259083D01*
X-1103922Y259053D01*
X-1104191Y259030D01*
X-1104460Y259013D01*
X-1104730Y259003D01*
X-1105000Y259000D01*
X-1105270Y259003D01*
X-1105540Y259013D01*
X-1105809Y259030D01*
X-1106078Y259053D01*
X-1106347Y259083D01*
X-1106614Y259119D01*
X-1106881Y259162D01*
X-1107146Y259211D01*
X-1107410Y259267D01*
X-1107673Y259330D01*
X-1107934Y259398D01*
X-1108193Y259474D01*
X-1108450Y259555D01*
X-1108706Y259643D01*
X-1108959Y259737D01*
X-1109210Y259837D01*
X-1109458Y259944D01*
X-1109703Y260056D01*
X-1109946Y260175D01*
X-1110185Y260299D01*
X-1110422Y260429D01*
X-1110655Y260565D01*
X-1110885Y260707D01*
X-1111111Y260854D01*
X-1111334Y261007D01*
X-1111553Y261165D01*
X-1111768Y261328D01*
X-1111978Y261497D01*
X-1112185Y261671D01*
X-1112387Y261850D01*
X-1112585Y262033D01*
X-1112778Y262222D01*
X-1112967Y262415D01*
X-1113150Y262613D01*
X-1113329Y262815D01*
X-1113503Y263022D01*
X-1113672Y263232D01*
X-1113835Y263447D01*
X-1113993Y263666D01*
X-1114146Y263889D01*
X-1114293Y264115D01*
X-1114435Y264345D01*
X-1114571Y264578D01*
X-1114701Y264815D01*
X-1114825Y265054D01*
X-1114944Y265297D01*
X-1115056Y265542D01*
X-1115163Y265790D01*
X-1115263Y266041D01*
X-1115357Y266294D01*
X-1115445Y266550D01*
X-1115526Y266807D01*
X-1115602Y267066D01*
X-1115670Y267327D01*
X-1115733Y267590D01*
X-1115789Y267854D01*
X-1115838Y268119D01*
X-1115881Y268386D01*
X-1115917Y268653D01*
X-1115947Y268922D01*
X-1115970Y269191D01*
X-1115987Y269460D01*
X-1115997Y269730D01*
X-1116000Y270000D01*
X-576000Y-270000D02*
X-575997Y-269730D01*
X-575987Y-269460D01*
X-575970Y-269191D01*
X-575947Y-268922D01*
X-575917Y-268653D01*
X-575881Y-268386D01*
X-575838Y-268119D01*
X-575789Y-267854D01*
X-575733Y-267590D01*
X-575670Y-267327D01*
X-575602Y-267066D01*
X-575526Y-266807D01*
X-575445Y-266550D01*
X-575357Y-266294D01*
X-575263Y-266041D01*
X-575163Y-265790D01*
X-575056Y-265542D01*
X-574944Y-265297D01*
X-574825Y-265054D01*
X-574701Y-264815D01*
X-574571Y-264578D01*
X-574435Y-264345D01*
X-574293Y-264115D01*
X-574146Y-263889D01*
X-573993Y-263666D01*
X-573835Y-263447D01*
X-573672Y-263232D01*
X-573503Y-263022D01*
X-573329Y-262815D01*
X-573150Y-262613D01*
X-572967Y-262415D01*
X-572778Y-262222D01*
X-572585Y-262033D01*
X-572387Y-261850D01*
X-572185Y-261671D01*
X-571978Y-261497D01*
X-571768Y-261328D01*
X-571553Y-261165D01*
X-571334Y-261007D01*
X-571111Y-260854D01*
X-570885Y-260707D01*
X-570655Y-260565D01*
X-570422Y-260429D01*
X-570185Y-260299D01*
X-569946Y-260175D01*
X-569703Y-260056D01*
X-569458Y-259944D01*
X-569210Y-259837D01*
X-568959Y-259737D01*
X-568706Y-259643D01*
X-568450Y-259555D01*
X-568193Y-259474D01*
X-567934Y-259398D01*
X-567673Y-259330D01*
X-567410Y-259267D01*
X-567146Y-259211D01*
X-566881Y-259162D01*
X-566614Y-259119D01*
X-566347Y-259083D01*
X-566078Y-259053D01*
X-565809Y-259030D01*
X-565540Y-259013D01*
X-565270Y-259003D01*
X-565000Y-259000D01*
X-564730Y-259003D01*
X-564460Y-259013D01*
X-564191Y-259030D01*
X-563922Y-259053D01*
X-563653Y-259083D01*
X-563386Y-259119D01*
X-563119Y-259162D01*
X-562854Y-259211D01*
X-562590Y-259267D01*
X-562327Y-259330D01*
X-562066Y-259398D01*
X-561807Y-259474D01*
X-561550Y-259555D01*
X-561294Y-259643D01*
X-561041Y-259737D01*
X-560790Y-259837D01*
X-560542Y-259944D01*
X-560297Y-260056D01*
X-560054Y-260175D01*
X-559815Y-260299D01*
X-559578Y-260429D01*
X-559345Y-260565D01*
X-559115Y-260707D01*
X-558889Y-260854D01*
X-558666Y-261007D01*
X-558447Y-261165D01*
X-558232Y-261328D01*
X-558022Y-261497D01*
X-557815Y-261671D01*
X-557613Y-261850D01*
X-557415Y-262033D01*
X-557222Y-262222D01*
X-557033Y-262415D01*
X-556850Y-262613D01*
X-556671Y-262815D01*
X-556497Y-263022D01*
X-556328Y-263232D01*
X-556165Y-263447D01*
X-556007Y-263666D01*
X-555854Y-263889D01*
X-555707Y-264115D01*
X-555565Y-264345D01*
X-555429Y-264578D01*
X-555299Y-264815D01*
X-555175Y-265054D01*
X-555056Y-265297D01*
X-554944Y-265542D01*
X-554837Y-265790D01*
X-554737Y-266041D01*
X-554643Y-266294D01*
X-554555Y-266550D01*
X-554474Y-266807D01*
X-554398Y-267066D01*
X-554330Y-267327D01*
X-554267Y-267590D01*
X-554211Y-267854D01*
X-554162Y-268119D01*
X-554119Y-268386D01*
X-554083Y-268653D01*
X-554053Y-268922D01*
X-554030Y-269191D01*
X-554013Y-269460D01*
X-554003Y-269730D01*
X-554000Y-270000D01*
X-554003Y-270270D01*
X-554013Y-270540D01*
X-554030Y-270809D01*
X-554053Y-271078D01*
X-554083Y-271347D01*
X-554119Y-271614D01*
X-554162Y-271881D01*
X-554211Y-272146D01*
X-554267Y-272410D01*
X-554330Y-272673D01*
X-554398Y-272934D01*
X-554474Y-273193D01*
X-554555Y-273450D01*
X-554643Y-273706D01*
X-554737Y-273959D01*
X-554837Y-274210D01*
X-554944Y-274458D01*
X-555056Y-274703D01*
X-555175Y-274946D01*
X-555299Y-275185D01*
X-555429Y-275422D01*
X-555565Y-275655D01*
X-555707Y-275885D01*
X-555854Y-276111D01*
X-556007Y-276334D01*
X-556165Y-276553D01*
X-556328Y-276768D01*
X-556497Y-276978D01*
X-556671Y-277185D01*
X-556850Y-277387D01*
X-557033Y-277585D01*
X-557222Y-277778D01*
X-557415Y-277967D01*
X-557613Y-278150D01*
X-557815Y-278329D01*
X-558022Y-278503D01*
X-558232Y-278672D01*
X-558447Y-278835D01*
X-558666Y-278993D01*
X-558889Y-279146D01*
X-559115Y-279293D01*
X-559345Y-279435D01*
X-559578Y-279571D01*
X-559815Y-279701D01*
X-560054Y-279825D01*
X-560297Y-279944D01*
X-560542Y-280056D01*
X-560790Y-280163D01*
X-561041Y-280263D01*
X-561294Y-280357D01*
X-561550Y-280445D01*
X-561807Y-280526D01*
X-562066Y-280602D01*
X-562327Y-280670D01*
X-562590Y-280733D01*
X-562854Y-280789D01*
X-563119Y-280838D01*
X-563386Y-280881D01*
X-563653Y-280917D01*
X-563922Y-280947D01*
X-564191Y-280970D01*
X-564460Y-280987D01*
X-564730Y-280997D01*
X-565000Y-281000D01*
X-565270Y-280997D01*
X-565540Y-280987D01*
X-565809Y-280970D01*
X-566078Y-280947D01*
X-566347Y-280917D01*
X-566614Y-280881D01*
X-566881Y-280838D01*
X-567146Y-280789D01*
X-567410Y-280733D01*
X-567673Y-280670D01*
X-567934Y-280602D01*
X-568193Y-280526D01*
X-568450Y-280445D01*
X-568706Y-280357D01*
X-568959Y-280263D01*
X-569210Y-280163D01*
X-569458Y-280056D01*
X-569703Y-279944D01*
X-569946Y-279825D01*
X-570185Y-279701D01*
X-570422Y-279571D01*
X-570655Y-279435D01*
X-570885Y-279293D01*
X-571111Y-279146D01*
X-571334Y-278993D01*
X-571553Y-278835D01*
X-571768Y-278672D01*
X-571978Y-278503D01*
X-572185Y-278329D01*
X-572387Y-278150D01*
X-572585Y-277967D01*
X-572778Y-277778D01*
X-572967Y-277585D01*
X-573150Y-277387D01*
X-573329Y-277185D01*
X-573503Y-276978D01*
X-573672Y-276768D01*
X-573835Y-276553D01*
X-573993Y-276334D01*
X-574146Y-276111D01*
X-574293Y-275885D01*
X-574435Y-275655D01*
X-574571Y-275422D01*
X-574701Y-275185D01*
X-574825Y-274946D01*
X-574944Y-274703D01*
X-575056Y-274458D01*
X-575163Y-274210D01*
X-575263Y-273959D01*
X-575357Y-273706D01*
X-575445Y-273450D01*
X-575526Y-273193D01*
X-575602Y-272934D01*
X-575670Y-272673D01*
X-575733Y-272410D01*
X-575789Y-272146D01*
X-575838Y-271881D01*
X-575881Y-271614D01*
X-575917Y-271347D01*
X-575947Y-271078D01*
X-575970Y-270809D01*
X-575987Y-270540D01*
X-575997Y-270270D01*
X-576000Y-270000D01*
X-576000Y270000D02*
X-575997Y270270D01*
X-575987Y270540D01*
X-575970Y270809D01*
X-575947Y271078D01*
X-575917Y271347D01*
X-575881Y271614D01*
X-575838Y271881D01*
X-575789Y272146D01*
X-575733Y272410D01*
X-575670Y272673D01*
X-575602Y272934D01*
X-575526Y273193D01*
X-575445Y273450D01*
X-575357Y273706D01*
X-575263Y273959D01*
X-575163Y274210D01*
X-575056Y274458D01*
X-574944Y274703D01*
X-574825Y274946D01*
X-574701Y275185D01*
X-574571Y275422D01*
X-574435Y275655D01*
X-574293Y275885D01*
X-574146Y276111D01*
X-573993Y276334D01*
X-573835Y276553D01*
X-573672Y276768D01*
X-573503Y276978D01*
X-573329Y277185D01*
X-573150Y277387D01*
X-572967Y277585D01*
X-572778Y277778D01*
X-572585Y277967D01*
X-572387Y278150D01*
X-572185Y278329D01*
X-571978Y278503D01*
X-571768Y278672D01*
X-571553Y278835D01*
X-571334Y278993D01*
X-571111Y279146D01*
X-570885Y279293D01*
X-570655Y279435D01*
X-570422Y279571D01*
X-570185Y279701D01*
X-569946Y279825D01*
X-569703Y279944D01*
X-569458Y280056D01*
X-569210Y280163D01*
X-568959Y280263D01*
X-568706Y280357D01*
X-568450Y280445D01*
X-568193Y280526D01*
X-567934Y280602D01*
X-567673Y280670D01*
X-567410Y280733D01*
X-567146Y280789D01*
X-566881Y280838D01*
X-566614Y280881D01*
X-566347Y280917D01*
X-566078Y280947D01*
X-565809Y280970D01*
X-565540Y280987D01*
X-565270Y280997D01*
X-565000Y281000D01*
X-564730Y280997D01*
X-564460Y280987D01*
X-564191Y280970D01*
X-563922Y280947D01*
X-563653Y280917D01*
X-563386Y280881D01*
X-563119Y280838D01*
X-562854Y280789D01*
X-562590Y280733D01*
X-562327Y280670D01*
X-562066Y280602D01*
X-561807Y280526D01*
X-561550Y280445D01*
X-561294Y280357D01*
X-561041Y280263D01*
X-560790Y280163D01*
X-560542Y280056D01*
X-560297Y279944D01*
X-560054Y279825D01*
X-559815Y279701D01*
X-559578Y279571D01*
X-559345Y279435D01*
X-559115Y279293D01*
X-558889Y279146D01*
X-558666Y278993D01*
X-558447Y278835D01*
X-558232Y278672D01*
X-558022Y278503D01*
X-557815Y278329D01*
X-557613Y278150D01*
X-557415Y277967D01*
X-557222Y277778D01*
X-557033Y277585D01*
X-556850Y277387D01*
X-556671Y277185D01*
X-556497Y276978D01*
X-556328Y276768D01*
X-556165Y276553D01*
X-556007Y276334D01*
X-555854Y276111D01*
X-555707Y275885D01*
X-555565Y275655D01*
X-555429Y275422D01*
X-555299Y275185D01*
X-555175Y274946D01*
X-555056Y274703D01*
X-554944Y274458D01*
X-554837Y274210D01*
X-554737Y273959D01*
X-554643Y273706D01*
X-554555Y273450D01*
X-554474Y273193D01*
X-554398Y272934D01*
X-554330Y272673D01*
X-554267Y272410D01*
X-554211Y272146D01*
X-554162Y271881D01*
X-554119Y271614D01*
X-554083Y271347D01*
X-554053Y271078D01*
X-554030Y270809D01*
X-554013Y270540D01*
X-554003Y270270D01*
X-554000Y270000D01*
X-554003Y269730D01*
X-554013Y269460D01*
X-554030Y269191D01*
X-554053Y268922D01*
X-554083Y268653D01*
X-554119Y268386D01*
X-554162Y268119D01*
X-554211Y267854D01*
X-554267Y267590D01*
X-554330Y267327D01*
X-554398Y267066D01*
X-554474Y266807D01*
X-554555Y266550D01*
X-554643Y266294D01*
X-554737Y266041D01*
X-554837Y265790D01*
X-554944Y265542D01*
X-555056Y265297D01*
X-555175Y265054D01*
X-555299Y264815D01*
X-555429Y264578D01*
X-555565Y264345D01*
X-555707Y264115D01*
X-555854Y263889D01*
X-556007Y263666D01*
X-556165Y263447D01*
X-556328Y263232D01*
X-556497Y263022D01*
X-556671Y262815D01*
X-556850Y262613D01*
X-557033Y262415D01*
X-557222Y262222D01*
X-557415Y262033D01*
X-557613Y261850D01*
X-557815Y261671D01*
X-558022Y261497D01*
X-558232Y261328D01*
X-558447Y261165D01*
X-558666Y261007D01*
X-558889Y260854D01*
X-559115Y260707D01*
X-559345Y260565D01*
X-559578Y260429D01*
X-559815Y260299D01*
X-560054Y260175D01*
X-560297Y260056D01*
X-560542Y259944D01*
X-560790Y259837D01*
X-561041Y259737D01*
X-561294Y259643D01*
X-561550Y259555D01*
X-561807Y259474D01*
X-562066Y259398D01*
X-562327Y259330D01*
X-562590Y259267D01*
X-562854Y259211D01*
X-563119Y259162D01*
X-563386Y259119D01*
X-563653Y259083D01*
X-563922Y259053D01*
X-564191Y259030D01*
X-564460Y259013D01*
X-564730Y259003D01*
X-565000Y259000D01*
X-565270Y259003D01*
X-565540Y259013D01*
X-565809Y259030D01*
X-566078Y259053D01*
X-566347Y259083D01*
X-566614Y259119D01*
X-566881Y259162D01*
X-567146Y259211D01*
X-567410Y259267D01*
X-567673Y259330D01*
X-567934Y259398D01*
X-568193Y259474D01*
X-568450Y259555D01*
X-568706Y259643D01*
X-568959Y259737D01*
X-569210Y259837D01*
X-569458Y259944D01*
X-569703Y260056D01*
X-569946Y260175D01*
X-570185Y260299D01*
X-570422Y260429D01*
X-570655Y260565D01*
X-570885Y260707D01*
X-571111Y260854D01*
X-571334Y261007D01*
X-571553Y261165D01*
X-571768Y261328D01*
X-571978Y261497D01*
X-572185Y261671D01*
X-572387Y261850D01*
X-572585Y262033D01*
X-572778Y262222D01*
X-572967Y262415D01*
X-573150Y262613D01*
X-573329Y262815D01*
X-573503Y263022D01*
X-573672Y263232D01*
X-573835Y263447D01*
X-573993Y263666D01*
X-574146Y263889D01*
X-574293Y264115D01*
X-574435Y264345D01*
X-574571Y264578D01*
X-574701Y264815D01*
X-574825Y265054D01*
X-574944Y265297D01*
X-575056Y265542D01*
X-575163Y265790D01*
X-575263Y266041D01*
X-575357Y266294D01*
X-575445Y266550D01*
X-575526Y266807D01*
X-575602Y267066D01*
X-575670Y267327D01*
X-575733Y267590D01*
X-575789Y267854D01*
X-575838Y268119D01*
X-575881Y268386D01*
X-575917Y268653D01*
X-575947Y268922D01*
X-575970Y269191D01*
X-575987Y269460D01*
X-575997Y269730D01*
X-576000Y270000D01*
X1094000Y270000D02*
X1094003Y270270D01*
X1094013Y270540D01*
X1094030Y270809D01*
X1094053Y271078D01*
X1094083Y271347D01*
X1094119Y271614D01*
X1094162Y271881D01*
X1094211Y272146D01*
X1094267Y272410D01*
X1094330Y272673D01*
X1094398Y272934D01*
X1094474Y273193D01*
X1094555Y273450D01*
X1094643Y273706D01*
X1094737Y273959D01*
X1094837Y274210D01*
X1094944Y274458D01*
X1095056Y274703D01*
X1095175Y274946D01*
X1095299Y275185D01*
X1095429Y275422D01*
X1095565Y275655D01*
X1095707Y275885D01*
X1095854Y276111D01*
X1096007Y276334D01*
X1096165Y276553D01*
X1096328Y276768D01*
X1096497Y276978D01*
X1096671Y277185D01*
X1096850Y277387D01*
X1097033Y277585D01*
X1097222Y277778D01*
X1097415Y277967D01*
X1097613Y278150D01*
X1097815Y278329D01*
X1098022Y278503D01*
X1098232Y278672D01*
X1098447Y278835D01*
X1098666Y278993D01*
X1098889Y279146D01*
X1099115Y279293D01*
X1099345Y279435D01*
X1099578Y279571D01*
X1099815Y279701D01*
X1100054Y279825D01*
X1100297Y279944D01*
X1100542Y280056D01*
X1100790Y280163D01*
X1101041Y280263D01*
X1101294Y280357D01*
X1101550Y280445D01*
X1101807Y280526D01*
X1102066Y280602D01*
X1102327Y280670D01*
X1102590Y280733D01*
X1102854Y280789D01*
X1103119Y280838D01*
X1103386Y280881D01*
X1103653Y280917D01*
X1103922Y280947D01*
X1104191Y280970D01*
X1104460Y280987D01*
X1104730Y280997D01*
X1105000Y281000D01*
X1105270Y280997D01*
X1105540Y280987D01*
X1105809Y280970D01*
X1106078Y280947D01*
X1106347Y280917D01*
X1106614Y280881D01*
X1106881Y280838D01*
X1107146Y280789D01*
X1107410Y280733D01*
X1107673Y280670D01*
X1107934Y280602D01*
X1108193Y280526D01*
X1108450Y280445D01*
X1108706Y280357D01*
X1108959Y280263D01*
X1109210Y280163D01*
X1109458Y280056D01*
X1109703Y279944D01*
X1109946Y279825D01*
X1110185Y279701D01*
X1110422Y279571D01*
X1110655Y279435D01*
X1110885Y279293D01*
X1111111Y279146D01*
X1111334Y278993D01*
X1111553Y278835D01*
X1111768Y278672D01*
X1111978Y278503D01*
X1112185Y278329D01*
X1112387Y278150D01*
X1112585Y277967D01*
X1112778Y277778D01*
X1112967Y277585D01*
X1113150Y277387D01*
X1113329Y277185D01*
X1113503Y276978D01*
X1113672Y276768D01*
X1113835Y276553D01*
X1113993Y276334D01*
X1114146Y276111D01*
X1114293Y275885D01*
X1114435Y275655D01*
X1114571Y275422D01*
X1114701Y275185D01*
X1114825Y274946D01*
X1114944Y274703D01*
X1115056Y274458D01*
X1115163Y274210D01*
X1115263Y273959D01*
X1115357Y273706D01*
X1115445Y273450D01*
X1115526Y273193D01*
X1115602Y272934D01*
X1115670Y272673D01*
X1115733Y272410D01*
X1115789Y272146D01*
X1115838Y271881D01*
X1115881Y271614D01*
X1115917Y271347D01*
X1115947Y271078D01*
X1115970Y270809D01*
X1115987Y270540D01*
X1115997Y270270D01*
X1116000Y270000D01*
X1115997Y269730D01*
X1115987Y269460D01*
X1115970Y269191D01*
X1115947Y268922D01*
X1115917Y268653D01*
X1115881Y268386D01*
X1115838Y268119D01*
X1115789Y267854D01*
X1115733Y267590D01*
X1115670Y267327D01*
X1115602Y267066D01*
X1115526Y266807D01*
X1115445Y266550D01*
X1115357Y266294D01*
X1115263Y266041D01*
X1115163Y265790D01*
X1115056Y265542D01*
X1114944Y265297D01*
X1114825Y265054D01*
X1114701Y264815D01*
X1114571Y264578D01*
X1114435Y264345D01*
X1114293Y264115D01*
X1114146Y263889D01*
X1113993Y263666D01*
X1113835Y263447D01*
X1113672Y263232D01*
X1113503Y263022D01*
X1113329Y262815D01*
X1113150Y262613D01*
X1112967Y262415D01*
X1112778Y262222D01*
X1112585Y262033D01*
X1112387Y261850D01*
X1112185Y261671D01*
X1111978Y261497D01*
X1111768Y261328D01*
X1111553Y261165D01*
X1111334Y261007D01*
X1111111Y260854D01*
X1110885Y260707D01*
X1110655Y260565D01*
X1110422Y260429D01*
X1110185Y260299D01*
X1109946Y260175D01*
X1109703Y260056D01*
X1109458Y259944D01*
X1109210Y259837D01*
X1108959Y259737D01*
X1108706Y259643D01*
X1108450Y259555D01*
X1108193Y259474D01*
X1107934Y259398D01*
X1107673Y259330D01*
X1107410Y259267D01*
X1107146Y259211D01*
X1106881Y259162D01*
X1106614Y259119D01*
X1106347Y259083D01*
X1106078Y259053D01*
X1105809Y259030D01*
X1105540Y259013D01*
X1105270Y259003D01*
X1105000Y259000D01*
X1104730Y259003D01*
X1104460Y259013D01*
X1104191Y259030D01*
X1103922Y259053D01*
X1103653Y259083D01*
X1103386Y259119D01*
X1103119Y259162D01*
X1102854Y259211D01*
X1102590Y259267D01*
X1102327Y259330D01*
X1102066Y259398D01*
X1101807Y259474D01*
X1101550Y259555D01*
X1101294Y259643D01*
X1101041Y259737D01*
X1100790Y259837D01*
X1100542Y259944D01*
X1100297Y260056D01*
X1100054Y260175D01*
X1099815Y260299D01*
X1099578Y260429D01*
X1099345Y260565D01*
X1099115Y260707D01*
X1098889Y260854D01*
X1098666Y261007D01*
X1098447Y261165D01*
X1098232Y261328D01*
X1098022Y261497D01*
X1097815Y261671D01*
X1097613Y261850D01*
X1097415Y262033D01*
X1097222Y262222D01*
X1097033Y262415D01*
X1096850Y262613D01*
X1096671Y262815D01*
X1096497Y263022D01*
X1096328Y263232D01*
X1096165Y263447D01*
X1096007Y263666D01*
X1095854Y263889D01*
X1095707Y264115D01*
X1095565Y264345D01*
X1095429Y264578D01*
X1095299Y264815D01*
X1095175Y265054D01*
X1095056Y265297D01*
X1094944Y265542D01*
X1094837Y265790D01*
X1094737Y266041D01*
X1094643Y266294D01*
X1094555Y266550D01*
X1094474Y266807D01*
X1094398Y267066D01*
X1094330Y267327D01*
X1094267Y267590D01*
X1094211Y267854D01*
X1094162Y268119D01*
X1094119Y268386D01*
X1094083Y268653D01*
X1094053Y268922D01*
X1094030Y269191D01*
X1094013Y269460D01*
X1094003Y269730D01*
X1094000Y270000D01*
X1094000Y-270000D02*
X1094003Y-269730D01*
X1094013Y-269460D01*
X1094030Y-269191D01*
X1094053Y-268922D01*
X1094083Y-268653D01*
X1094119Y-268386D01*
X1094162Y-268119D01*
X1094211Y-267854D01*
X1094267Y-267590D01*
X1094330Y-267327D01*
X1094398Y-267066D01*
X1094474Y-266807D01*
X1094555Y-266550D01*
X1094643Y-266294D01*
X1094737Y-266041D01*
X1094837Y-265790D01*
X1094944Y-265542D01*
X1095056Y-265297D01*
X1095175Y-265054D01*
X1095299Y-264815D01*
X1095429Y-264578D01*
X1095565Y-264345D01*
X1095707Y-264115D01*
X1095854Y-263889D01*
X1096007Y-263666D01*
X1096165Y-263447D01*
X1096328Y-263232D01*
X1096497Y-263022D01*
X1096671Y-262815D01*
X1096850Y-262613D01*
X1097033Y-262415D01*
X1097222Y-262222D01*
X1097415Y-262033D01*
X1097613Y-261850D01*
X1097815Y-261671D01*
X1098022Y-261497D01*
X1098232Y-261328D01*
X1098447Y-261165D01*
X1098666Y-261007D01*
X1098889Y-260854D01*
X1099115Y-260707D01*
X1099345Y-260565D01*
X1099578Y-260429D01*
X1099815Y-260299D01*
X1100054Y-260175D01*
X1100297Y-260056D01*
X1100542Y-259944D01*
X1100790Y-259837D01*
X1101041Y-259737D01*
X1101294Y-259643D01*
X1101550Y-259555D01*
X1101807Y-259474D01*
X1102066Y-259398D01*
X1102327Y-259330D01*
X1102590Y-259267D01*
X1102854Y-259211D01*
X1103119Y-259162D01*
X1103386Y-259119D01*
X1103653Y-259083D01*
X1103922Y-259053D01*
X1104191Y-259030D01*
X1104460Y-259013D01*
X1104730Y-259003D01*
X1105000Y-259000D01*
X1105270Y-259003D01*
X1105540Y-259013D01*
X1105809Y-259030D01*
X1106078Y-259053D01*
X1106347Y-259083D01*
X1106614Y-259119D01*
X1106881Y-259162D01*
X1107146Y-259211D01*
X1107410Y-259267D01*
X1107673Y-259330D01*
X1107934Y-259398D01*
X1108193Y-259474D01*
X1108450Y-259555D01*
X1108706Y-259643D01*
X1108959Y-259737D01*
X1109210Y-259837D01*
X1109458Y-259944D01*
X1109703Y-260056D01*
X1109946Y-260175D01*
X1110185Y-260299D01*
X1110422Y-260429D01*
X1110655Y-260565D01*
X1110885Y-260707D01*
X1111111Y-260854D01*
X1111334Y-261007D01*
X1111553Y-261165D01*
X1111768Y-261328D01*
X1111978Y-261497D01*
X1112185Y-261671D01*
X1112387Y-261850D01*
X1112585Y-262033D01*
X1112778Y-262222D01*
X1112967Y-262415D01*
X1113150Y-262613D01*
X1113329Y-262815D01*
X1113503Y-263022D01*
X1113672Y-263232D01*
X1113835Y-263447D01*
X1113993Y-263666D01*
X1114146Y-263889D01*
X1114293Y-264115D01*
X1114435Y-264345D01*
X1114571Y-264578D01*
X1114701Y-264815D01*
X1114825Y-265054D01*
X1114944Y-265297D01*
X1115056Y-265542D01*
X1115163Y-265790D01*
X1115263Y-266041D01*
X1115357Y-266294D01*
X1115445Y-266550D01*
X1115526Y-266807D01*
X1115602Y-267066D01*
X1115670Y-267327D01*
X1115733Y-267590D01*
X1115789Y-267854D01*
X1115838Y-268119D01*
X1115881Y-268386D01*
X1115917Y-268653D01*
X1115947Y-268922D01*
X1115970Y-269191D01*
X1115987Y-269460D01*
X1115997Y-269730D01*
X1116000Y-270000D01*
X1115997Y-270270D01*
X1115987Y-270540D01*
X1115970Y-270809D01*
X1115947Y-271078D01*
X1115917Y-271347D01*
X1115881Y-271614D01*
X1115838Y-271881D01*
X1115789Y-272146D01*
X1115733Y-272410D01*
X1115670Y-272673D01*
X1115602Y-272934D01*
X1115526Y-273193D01*
X1115445Y-273450D01*
X1115357Y-273706D01*
X1115263Y-273959D01*
X1115163Y-274210D01*
X1115056Y-274458D01*
X1114944Y-274703D01*
X1114825Y-274946D01*
X1114701Y-275185D01*
X1114571Y-275422D01*
X1114435Y-275655D01*
X1114293Y-275885D01*
X1114146Y-276111D01*
X1113993Y-276334D01*
X1113835Y-276553D01*
X1113672Y-276768D01*
X1113503Y-276978D01*
X1113329Y-277185D01*
X1113150Y-277387D01*
X1112967Y-277585D01*
X1112778Y-277778D01*
X1112585Y-277967D01*
X1112387Y-278150D01*
X1112185Y-278329D01*
X1111978Y-278503D01*
X1111768Y-278672D01*
X1111553Y-278835D01*
X1111334Y-278993D01*
X1111111Y-279146D01*
X1110885Y-279293D01*
X1110655Y-279435D01*
X1110422Y-279571D01*
X1110185Y-279701D01*
X1109946Y-279825D01*
X1109703Y-279944D01*
X1109458Y-280056D01*
X1109210Y-280163D01*
X1108959Y-280263D01*
X1108706Y-280357D01*
X1108450Y-280445D01*
X1108193Y-280526D01*
X1107934Y-280602D01*
X1107673Y-280670D01*
X1107410Y-280733D01*
X1107146Y-280789D01*
X1106881Y-280838D01*
X1106614Y-280881D01*
X1106347Y-280917D01*
X1106078Y-280947D01*
X1105809Y-280970D01*
X1105540Y-280987D01*
X1105270Y-280997D01*
X1105000Y-281000D01*
X1104730Y-280997D01*
X1104460Y-280987D01*
X1104191Y-280970D01*
X1103922Y-280947D01*
X1103653Y-280917D01*
X1103386Y-280881D01*
X1103119Y-280838D01*
X1102854Y-280789D01*
X1102590Y-280733D01*
X1102327Y-280670D01*
X1102066Y-280602D01*
X1101807Y-280526D01*
X1101550Y-280445D01*
X1101294Y-280357D01*
X1101041Y-280263D01*
X1100790Y-280163D01*
X1100542Y-280056D01*
X1100297Y-279944D01*
X1100054Y-279825D01*
X1099815Y-279701D01*
X1099578Y-279571D01*
X1099345Y-279435D01*
X1099115Y-279293D01*
X1098889Y-279146D01*
X1098666Y-278993D01*
X1098447Y-278835D01*
X1098232Y-278672D01*
X1098022Y-278503D01*
X1097815Y-278329D01*
X1097613Y-278150D01*
X1097415Y-277967D01*
X1097222Y-277778D01*
X1097033Y-277585D01*
X1096850Y-277387D01*
X1096671Y-277185D01*
X1096497Y-276978D01*
X1096328Y-276768D01*
X1096165Y-276553D01*
X1096007Y-276334D01*
X1095854Y-276111D01*
X1095707Y-275885D01*
X1095565Y-275655D01*
X1095429Y-275422D01*
X1095299Y-275185D01*
X1095175Y-274946D01*
X1095056Y-274703D01*
X1094944Y-274458D01*
X1094837Y-274210D01*
X1094737Y-273959D01*
X1094643Y-273706D01*
X1094555Y-273450D01*
X1094474Y-273193D01*
X1094398Y-272934D01*
X1094330Y-272673D01*
X1094267Y-272410D01*
X1094211Y-272146D01*
X1094162Y-271881D01*
X1094119Y-271614D01*
X1094083Y-271347D01*
X1094053Y-271078D01*
X1094030Y-270809D01*
X1094013Y-270540D01*
X1094003Y-270270D01*
X1094000Y-270000D01*
X1094003Y-269730D01*
X1094013Y-269460D01*
X1094030Y-269191D01*
X1094053Y-268922D01*
X1094083Y-268653D01*
X1094119Y-268386D01*
X1094162Y-268119D01*
X1094211Y-267854D01*
X1094267Y-267590D01*
X1094330Y-267327D01*
X1094398Y-267066D01*
X1094474Y-266807D01*
X1094555Y-266550D01*
X1094643Y-266294D01*
X1094737Y-266041D01*
X1094837Y-265790D01*
X1094944Y-265542D01*
X1095056Y-265297D01*
X1095175Y-265054D01*
X1095299Y-264815D01*
X1095429Y-264578D01*
X1095565Y-264345D01*
X1095707Y-264115D01*
X1095854Y-263889D01*
X1096007Y-263666D01*
X1096165Y-263447D01*
X1096328Y-263232D01*
X1096497Y-263022D01*
X1096671Y-262815D01*
X1096850Y-262613D01*
X1097033Y-262415D01*
X1097222Y-262222D01*
X1097415Y-262033D01*
X1097613Y-261850D01*
X1097815Y-261671D01*
X1098022Y-261497D01*
X1098232Y-261328D01*
X1098447Y-261165D01*
X1098666Y-261007D01*
X1098889Y-260854D01*
X1099115Y-260707D01*
X1099345Y-260565D01*
X1099578Y-260429D01*
X1099815Y-260299D01*
X1100054Y-260175D01*
X1100297Y-260056D01*
X1100542Y-259944D01*
X1100790Y-259837D01*
X1101041Y-259737D01*
X1101294Y-259643D01*
X1101550Y-259555D01*
X1101807Y-259474D01*
X1102066Y-259398D01*
X1102327Y-259330D01*
X1102590Y-259267D01*
X1102854Y-259211D01*
X1103119Y-259162D01*
X1103386Y-259119D01*
X1103653Y-259083D01*
X1103922Y-259053D01*
X1104191Y-259030D01*
X1104460Y-259013D01*
X1104730Y-259003D01*
X1105000Y-259000D01*
X1105270Y-259003D01*
X1105540Y-259013D01*
X1105809Y-259030D01*
X1106078Y-259053D01*
X1106347Y-259083D01*
X1106614Y-259119D01*
X1106881Y-259162D01*
X1107146Y-259211D01*
X1107410Y-259267D01*
X1107673Y-259330D01*
X1107934Y-259398D01*
X1108193Y-259474D01*
X1108450Y-259555D01*
X1108706Y-259643D01*
X1108959Y-259737D01*
X1109210Y-259837D01*
X1109458Y-259944D01*
X1109703Y-260056D01*
X1109946Y-260175D01*
X1110185Y-260299D01*
X1110422Y-260429D01*
X1110655Y-260565D01*
X1110885Y-260707D01*
X1111111Y-260854D01*
X1111334Y-261007D01*
X1111553Y-261165D01*
X1111768Y-261328D01*
X1111978Y-261497D01*
X1112185Y-261671D01*
X1112387Y-261850D01*
X1112585Y-262033D01*
X1112778Y-262222D01*
X1112967Y-262415D01*
X1113150Y-262613D01*
X1113329Y-262815D01*
X1113503Y-263022D01*
X1113672Y-263232D01*
X1113835Y-263447D01*
X1113993Y-263666D01*
X1114146Y-263889D01*
X1114293Y-264115D01*
X1114435Y-264345D01*
X1114571Y-264578D01*
X1114701Y-264815D01*
X1114825Y-265054D01*
X1114944Y-265297D01*
X1115056Y-265542D01*
X1115163Y-265790D01*
X1115263Y-266041D01*
X1115357Y-266294D01*
X1115445Y-266550D01*
X1115526Y-266807D01*
X1115602Y-267066D01*
X1115670Y-267327D01*
X1115733Y-267590D01*
X1115789Y-267854D01*
X1115838Y-268119D01*
X1115881Y-268386D01*
X1115917Y-268653D01*
X1115947Y-268922D01*
X1115970Y-269191D01*
X1115987Y-269460D01*
X1115997Y-269730D01*
X1116000Y-270000D01*
X1115997Y-270270D01*
X1115987Y-270540D01*
X1115970Y-270809D01*
X1115947Y-271078D01*
X1115917Y-271347D01*
X1115881Y-271614D01*
X1115838Y-271881D01*
X1115789Y-272146D01*
X1115733Y-272410D01*
X1115670Y-272673D01*
X1115602Y-272934D01*
X1115526Y-273193D01*
X1115445Y-273450D01*
X1115357Y-273706D01*
X1115263Y-273959D01*
X1115163Y-274210D01*
X1115056Y-274458D01*
X1114944Y-274703D01*
X1114825Y-274946D01*
X1114701Y-275185D01*
X1114571Y-275422D01*
X1114435Y-275655D01*
X1114293Y-275885D01*
X1114146Y-276111D01*
X1113993Y-276334D01*
X1113835Y-276553D01*
X1113672Y-276768D01*
X1113503Y-276978D01*
X1113329Y-277185D01*
X1113150Y-277387D01*
X1112967Y-277585D01*
X1112778Y-277778D01*
X1112585Y-277967D01*
X1112387Y-278150D01*
X1112185Y-278329D01*
X1111978Y-278503D01*
X1111768Y-278672D01*
X1111553Y-278835D01*
X1111334Y-278993D01*
X1111111Y-279146D01*
X1110885Y-279293D01*
X1110655Y-279435D01*
X1110422Y-279571D01*
X1110185Y-279701D01*
X1109946Y-279825D01*
X1109703Y-279944D01*
X1109458Y-280056D01*
X1109210Y-280163D01*
X1108959Y-280263D01*
X1108706Y-280357D01*
X1108450Y-280445D01*
X1108193Y-280526D01*
X1107934Y-280602D01*
X1107673Y-280670D01*
X1107410Y-280733D01*
X1107146Y-280789D01*
X1106881Y-280838D01*
X1106614Y-280881D01*
X1106347Y-280917D01*
X1106078Y-280947D01*
X1105809Y-280970D01*
X1105540Y-280987D01*
X1105270Y-280997D01*
X1105000Y-281000D01*
X1104730Y-280997D01*
X1104460Y-280987D01*
X1104191Y-280970D01*
X1103922Y-280947D01*
X1103653Y-280917D01*
X1103386Y-280881D01*
X1103119Y-280838D01*
X1102854Y-280789D01*
X1102590Y-280733D01*
X1102327Y-280670D01*
X1102066Y-280602D01*
X1101807Y-280526D01*
X1101550Y-280445D01*
X1101294Y-280357D01*
X1101041Y-280263D01*
X1100790Y-280163D01*
X1100542Y-280056D01*
X1100297Y-279944D01*
X1100054Y-279825D01*
X1099815Y-279701D01*
X1099578Y-279571D01*
X1099345Y-279435D01*
X1099115Y-279293D01*
X1098889Y-279146D01*
X1098666Y-278993D01*
X1098447Y-278835D01*
X1098232Y-278672D01*
X1098022Y-278503D01*
X1097815Y-278329D01*
X1097613Y-278150D01*
X1097415Y-277967D01*
X1097222Y-277778D01*
X1097033Y-277585D01*
X1096850Y-277387D01*
X1096671Y-277185D01*
X1096497Y-276978D01*
X1096328Y-276768D01*
X1096165Y-276553D01*
X1096007Y-276334D01*
X1095854Y-276111D01*
X1095707Y-275885D01*
X1095565Y-275655D01*
X1095429Y-275422D01*
X1095299Y-275185D01*
X1095175Y-274946D01*
X1095056Y-274703D01*
X1094944Y-274458D01*
X1094837Y-274210D01*
X1094737Y-273959D01*
X1094643Y-273706D01*
X1094555Y-273450D01*
X1094474Y-273193D01*
X1094398Y-272934D01*
X1094330Y-272673D01*
X1094267Y-272410D01*
X1094211Y-272146D01*
X1094162Y-271881D01*
X1094119Y-271614D01*
X1094083Y-271347D01*
X1094053Y-271078D01*
X1094030Y-270809D01*
X1094013Y-270540D01*
X1094003Y-270270D01*
X1094000Y-270000D01*
X554000Y270000D02*
X554003Y270270D01*
X554013Y270540D01*
X554030Y270809D01*
X554053Y271078D01*
X554083Y271347D01*
X554119Y271614D01*
X554162Y271881D01*
X554211Y272146D01*
X554267Y272410D01*
X554330Y272673D01*
X554398Y272934D01*
X554474Y273193D01*
X554555Y273450D01*
X554643Y273706D01*
X554737Y273959D01*
X554837Y274210D01*
X554944Y274458D01*
X555056Y274703D01*
X555175Y274946D01*
X555299Y275185D01*
X555429Y275422D01*
X555565Y275655D01*
X555707Y275885D01*
X555854Y276111D01*
X556007Y276334D01*
X556165Y276553D01*
X556328Y276768D01*
X556497Y276978D01*
X556671Y277185D01*
X556850Y277387D01*
X557033Y277585D01*
X557222Y277778D01*
X557415Y277967D01*
X557613Y278150D01*
X557815Y278329D01*
X558022Y278503D01*
X558232Y278672D01*
X558447Y278835D01*
X558666Y278993D01*
X558889Y279146D01*
X559115Y279293D01*
X559345Y279435D01*
X559578Y279571D01*
X559815Y279701D01*
X560054Y279825D01*
X560297Y279944D01*
X560542Y280056D01*
X560790Y280163D01*
X561041Y280263D01*
X561294Y280357D01*
X561550Y280445D01*
X561807Y280526D01*
X562066Y280602D01*
X562327Y280670D01*
X562590Y280733D01*
X562854Y280789D01*
X563119Y280838D01*
X563386Y280881D01*
X563653Y280917D01*
X563922Y280947D01*
X564191Y280970D01*
X564460Y280987D01*
X564730Y280997D01*
X565000Y281000D01*
X565270Y280997D01*
X565540Y280987D01*
X565809Y280970D01*
X566078Y280947D01*
X566347Y280917D01*
X566614Y280881D01*
X566881Y280838D01*
X567146Y280789D01*
X567410Y280733D01*
X567673Y280670D01*
X567934Y280602D01*
X568193Y280526D01*
X568450Y280445D01*
X568706Y280357D01*
X568959Y280263D01*
X569210Y280163D01*
X569458Y280056D01*
X569703Y279944D01*
X569946Y279825D01*
X570185Y279701D01*
X570422Y279571D01*
X570655Y279435D01*
X570885Y279293D01*
X571111Y279146D01*
X571334Y278993D01*
X571553Y278835D01*
X571768Y278672D01*
X571978Y278503D01*
X572185Y278329D01*
X572387Y278150D01*
X572585Y277967D01*
X572778Y277778D01*
X572967Y277585D01*
X573150Y277387D01*
X573329Y277185D01*
X573503Y276978D01*
X573672Y276768D01*
X573835Y276553D01*
X573993Y276334D01*
X574146Y276111D01*
X574293Y275885D01*
X574435Y275655D01*
X574571Y275422D01*
X574701Y275185D01*
X574825Y274946D01*
X574944Y274703D01*
X575056Y274458D01*
X575163Y274210D01*
X575263Y273959D01*
X575357Y273706D01*
X575445Y273450D01*
X575526Y273193D01*
X575602Y272934D01*
X575670Y272673D01*
X575733Y272410D01*
X575789Y272146D01*
X575838Y271881D01*
X575881Y271614D01*
X575917Y271347D01*
X575947Y271078D01*
X575970Y270809D01*
X575987Y270540D01*
X575997Y270270D01*
X576000Y270000D01*
X575997Y269730D01*
X575987Y269460D01*
X575970Y269191D01*
X575947Y268922D01*
X575917Y268653D01*
X575881Y268386D01*
X575838Y268119D01*
X575789Y267854D01*
X575733Y267590D01*
X575670Y267327D01*
X575602Y267066D01*
X575526Y266807D01*
X575445Y266550D01*
X575357Y266294D01*
X575263Y266041D01*
X575163Y265790D01*
X575056Y265542D01*
X574944Y265297D01*
X574825Y265054D01*
X574701Y264815D01*
X574571Y264578D01*
X574435Y264345D01*
X574293Y264115D01*
X574146Y263889D01*
X573993Y263666D01*
X573835Y263447D01*
X573672Y263232D01*
X573503Y263022D01*
X573329Y262815D01*
X573150Y262613D01*
X572967Y262415D01*
X572778Y262222D01*
X572585Y262033D01*
X572387Y261850D01*
X572185Y261671D01*
X571978Y261497D01*
X571768Y261328D01*
X571553Y261165D01*
X571334Y261007D01*
X571111Y260854D01*
X570885Y260707D01*
X570655Y260565D01*
X570422Y260429D01*
X570185Y260299D01*
X569946Y260175D01*
X569703Y260056D01*
X569458Y259944D01*
X569210Y259837D01*
X568959Y259737D01*
X568706Y259643D01*
X568450Y259555D01*
X568193Y259474D01*
X567934Y259398D01*
X567673Y259330D01*
X567410Y259267D01*
X567146Y259211D01*
X566881Y259162D01*
X566614Y259119D01*
X566347Y259083D01*
X566078Y259053D01*
X565809Y259030D01*
X565540Y259013D01*
X565270Y259003D01*
X565000Y259000D01*
X564730Y259003D01*
X564460Y259013D01*
X564191Y259030D01*
X563922Y259053D01*
X563653Y259083D01*
X563386Y259119D01*
X563119Y259162D01*
X562854Y259211D01*
X562590Y259267D01*
X562327Y259330D01*
X562066Y259398D01*
X561807Y259474D01*
X561550Y259555D01*
X561294Y259643D01*
X561041Y259737D01*
X560790Y259837D01*
X560542Y259944D01*
X560297Y260056D01*
X560054Y260175D01*
X559815Y260299D01*
X559578Y260429D01*
X559345Y260565D01*
X559115Y260707D01*
X558889Y260854D01*
X558666Y261007D01*
X558447Y261165D01*
X558232Y261328D01*
X558022Y261497D01*
X557815Y261671D01*
X557613Y261850D01*
X557415Y262033D01*
X557222Y262222D01*
X557033Y262415D01*
X556850Y262613D01*
X556671Y262815D01*
X556497Y263022D01*
X556328Y263232D01*
X556165Y263447D01*
X556007Y263666D01*
X555854Y263889D01*
X555707Y264115D01*
X555565Y264345D01*
X555429Y264578D01*
X555299Y264815D01*
X555175Y265054D01*
X555056Y265297D01*
X554944Y265542D01*
X554837Y265790D01*
X554737Y266041D01*
X554643Y266294D01*
X554555Y266550D01*
X554474Y266807D01*
X554398Y267066D01*
X554330Y267327D01*
X554267Y267590D01*
X554211Y267854D01*
X554162Y268119D01*
X554119Y268386D01*
X554083Y268653D01*
X554053Y268922D01*
X554030Y269191D01*
X554013Y269460D01*
X554003Y269730D01*
X554000Y270000D01*
X554000Y-270000D02*
X554003Y-269730D01*
X554013Y-269460D01*
X554030Y-269191D01*
X554053Y-268922D01*
X554083Y-268653D01*
X554119Y-268386D01*
X554162Y-268119D01*
X554211Y-267854D01*
X554267Y-267590D01*
X554330Y-267327D01*
X554398Y-267066D01*
X554474Y-266807D01*
X554555Y-266550D01*
X554643Y-266294D01*
X554737Y-266041D01*
X554837Y-265790D01*
X554944Y-265542D01*
X555056Y-265297D01*
X555175Y-265054D01*
X555299Y-264815D01*
X555429Y-264578D01*
X555565Y-264345D01*
X555707Y-264115D01*
X555854Y-263889D01*
X556007Y-263666D01*
X556165Y-263447D01*
X556328Y-263232D01*
X556497Y-263022D01*
X556671Y-262815D01*
X556850Y-262613D01*
X557033Y-262415D01*
X557222Y-262222D01*
X557415Y-262033D01*
X557613Y-261850D01*
X557815Y-261671D01*
X558022Y-261497D01*
X558232Y-261328D01*
X558447Y-261165D01*
X558666Y-261007D01*
X558889Y-260854D01*
X559115Y-260707D01*
X559345Y-260565D01*
X559578Y-260429D01*
X559815Y-260299D01*
X560054Y-260175D01*
X560297Y-260056D01*
X560542Y-259944D01*
X560790Y-259837D01*
X561041Y-259737D01*
X561294Y-259643D01*
X561550Y-259555D01*
X561807Y-259474D01*
X562066Y-259398D01*
X562327Y-259330D01*
X562590Y-259267D01*
X562854Y-259211D01*
X563119Y-259162D01*
X563386Y-259119D01*
X563653Y-259083D01*
X563922Y-259053D01*
X564191Y-259030D01*
X564460Y-259013D01*
X564730Y-259003D01*
X565000Y-259000D01*
X565270Y-259003D01*
X565540Y-259013D01*
X565809Y-259030D01*
X566078Y-259053D01*
X566347Y-259083D01*
X566614Y-259119D01*
X566881Y-259162D01*
X567146Y-259211D01*
X567410Y-259267D01*
X567673Y-259330D01*
X567934Y-259398D01*
X568193Y-259474D01*
X568450Y-259555D01*
X568706Y-259643D01*
X568959Y-259737D01*
X569210Y-259837D01*
X569458Y-259944D01*
X569703Y-260056D01*
X569946Y-260175D01*
X570185Y-260299D01*
X570422Y-260429D01*
X570655Y-260565D01*
X570885Y-260707D01*
X571111Y-260854D01*
X571334Y-261007D01*
X571553Y-261165D01*
X571768Y-261328D01*
X571978Y-261497D01*
X572185Y-261671D01*
X572387Y-261850D01*
X572585Y-262033D01*
X572778Y-262222D01*
X572967Y-262415D01*
X573150Y-262613D01*
X573329Y-262815D01*
X573503Y-263022D01*
X573672Y-263232D01*
X573835Y-263447D01*
X573993Y-263666D01*
X574146Y-263889D01*
X574293Y-264115D01*
X574435Y-264345D01*
X574571Y-264578D01*
X574701Y-264815D01*
X574825Y-265054D01*
X574944Y-265297D01*
X575056Y-265542D01*
X575163Y-265790D01*
X575263Y-266041D01*
X575357Y-266294D01*
X575445Y-266550D01*
X575526Y-266807D01*
X575602Y-267066D01*
X575670Y-267327D01*
X575733Y-267590D01*
X575789Y-267854D01*
X575838Y-268119D01*
X575881Y-268386D01*
X575917Y-268653D01*
X575947Y-268922D01*
X575970Y-269191D01*
X575987Y-269460D01*
X575997Y-269730D01*
X576000Y-270000D01*
X575997Y-270270D01*
X575987Y-270540D01*
X575970Y-270809D01*
X575947Y-271078D01*
X575917Y-271347D01*
X575881Y-271614D01*
X575838Y-271881D01*
X575789Y-272146D01*
X575733Y-272410D01*
X575670Y-272673D01*
X575602Y-272934D01*
X575526Y-273193D01*
X575445Y-273450D01*
X575357Y-273706D01*
X575263Y-273959D01*
X575163Y-274210D01*
X575056Y-274458D01*
X574944Y-274703D01*
X574825Y-274946D01*
X574701Y-275185D01*
X574571Y-275422D01*
X574435Y-275655D01*
X574293Y-275885D01*
X574146Y-276111D01*
X573993Y-276334D01*
X573835Y-276553D01*
X573672Y-276768D01*
X573503Y-276978D01*
X573329Y-277185D01*
X573150Y-277387D01*
X572967Y-277585D01*
X572778Y-277778D01*
X572585Y-277967D01*
X572387Y-278150D01*
X572185Y-278329D01*
X571978Y-278503D01*
X571768Y-278672D01*
X571553Y-278835D01*
X571334Y-278993D01*
X571111Y-279146D01*
X570885Y-279293D01*
X570655Y-279435D01*
X570422Y-279571D01*
X570185Y-279701D01*
X569946Y-279825D01*
X569703Y-279944D01*
X569458Y-280056D01*
X569210Y-280163D01*
X568959Y-280263D01*
X568706Y-280357D01*
X568450Y-280445D01*
X568193Y-280526D01*
X567934Y-280602D01*
X567673Y-280670D01*
X567410Y-280733D01*
X567146Y-280789D01*
X566881Y-280838D01*
X566614Y-280881D01*
X566347Y-280917D01*
X566078Y-280947D01*
X565809Y-280970D01*
X565540Y-280987D01*
X565270Y-280997D01*
X565000Y-281000D01*
X564730Y-280997D01*
X564460Y-280987D01*
X564191Y-280970D01*
X563922Y-280947D01*
X563653Y-280917D01*
X563386Y-280881D01*
X563119Y-280838D01*
X562854Y-280789D01*
X562590Y-280733D01*
X562327Y-280670D01*
X562066Y-280602D01*
X561807Y-280526D01*
X561550Y-280445D01*
X561294Y-280357D01*
X561041Y-280263D01*
X560790Y-280163D01*
X560542Y-280056D01*
X560297Y-279944D01*
X560054Y-279825D01*
X559815Y-279701D01*
X559578Y-279571D01*
X559345Y-279435D01*
X559115Y-279293D01*
X558889Y-279146D01*
X558666Y-278993D01*
X558447Y-278835D01*
X558232Y-278672D01*
X558022Y-278503D01*
X557815Y-278329D01*
X557613Y-278150D01*
X557415Y-277967D01*
X557222Y-277778D01*
X557033Y-277585D01*
X556850Y-277387D01*
X556671Y-277185D01*
X556497Y-276978D01*
X556328Y-276768D01*
X556165Y-276553D01*
X556007Y-276334D01*
X555854Y-276111D01*
X555707Y-275885D01*
X555565Y-275655D01*
X555429Y-275422D01*
X555299Y-275185D01*
X555175Y-274946D01*
X555056Y-274703D01*
X554944Y-274458D01*
X554837Y-274210D01*
X554737Y-273959D01*
X554643Y-273706D01*
X554555Y-273450D01*
X554474Y-273193D01*
X554398Y-272934D01*
X554330Y-272673D01*
X554267Y-272410D01*
X554211Y-272146D01*
X554162Y-271881D01*
X554119Y-271614D01*
X554083Y-271347D01*
X554053Y-271078D01*
X554030Y-270809D01*
X554013Y-270540D01*
X554003Y-270270D01*
X554000Y-270000D01*
X-68000Y-250000D02*
X-67997Y-249730D01*
X-67987Y-249460D01*
X-67970Y-249191D01*
X-67947Y-248922D01*
X-67917Y-248653D01*
X-67881Y-248386D01*
X-67838Y-248119D01*
X-67789Y-247854D01*
X-67733Y-247590D01*
X-67670Y-247327D01*
X-67602Y-247066D01*
X-67526Y-246807D01*
X-67445Y-246550D01*
X-67357Y-246294D01*
X-67263Y-246041D01*
X-67163Y-245790D01*
X-67056Y-245542D01*
X-66944Y-245297D01*
X-66825Y-245054D01*
X-66701Y-244815D01*
X-66571Y-244578D01*
X-66435Y-244345D01*
X-66293Y-244115D01*
X-66146Y-243889D01*
X-65993Y-243666D01*
X-65835Y-243447D01*
X-65672Y-243232D01*
X-65503Y-243022D01*
X-65329Y-242815D01*
X-65150Y-242613D01*
X-64967Y-242415D01*
X-64778Y-242222D01*
X-64585Y-242033D01*
X-64387Y-241850D01*
X-64185Y-241671D01*
X-63978Y-241497D01*
X-63768Y-241328D01*
X-63553Y-241165D01*
X-63334Y-241007D01*
X-63111Y-240854D01*
X-62885Y-240707D01*
X-62655Y-240565D01*
X-62422Y-240429D01*
X-62185Y-240299D01*
X-61946Y-240175D01*
X-61703Y-240056D01*
X-61458Y-239944D01*
X-61210Y-239837D01*
X-60959Y-239737D01*
X-60706Y-239643D01*
X-60450Y-239555D01*
X-60193Y-239474D01*
X-59934Y-239398D01*
X-59673Y-239330D01*
X-59410Y-239267D01*
X-59146Y-239211D01*
X-58881Y-239162D01*
X-58614Y-239119D01*
X-58347Y-239083D01*
X-58078Y-239053D01*
X-57809Y-239030D01*
X-57540Y-239013D01*
X-57270Y-239003D01*
X-57000Y-239000D01*
X-56730Y-239003D01*
X-56460Y-239013D01*
X-56191Y-239030D01*
X-55922Y-239053D01*
X-55653Y-239083D01*
X-55386Y-239119D01*
X-55119Y-239162D01*
X-54854Y-239211D01*
X-54590Y-239267D01*
X-54327Y-239330D01*
X-54066Y-239398D01*
X-53807Y-239474D01*
X-53550Y-239555D01*
X-53294Y-239643D01*
X-53041Y-239737D01*
X-52790Y-239837D01*
X-52542Y-239944D01*
X-52297Y-240056D01*
X-52054Y-240175D01*
X-51815Y-240299D01*
X-51578Y-240429D01*
X-51345Y-240565D01*
X-51115Y-240707D01*
X-50889Y-240854D01*
X-50666Y-241007D01*
X-50447Y-241165D01*
X-50232Y-241328D01*
X-50022Y-241497D01*
X-49815Y-241671D01*
X-49613Y-241850D01*
X-49415Y-242033D01*
X-49222Y-242222D01*
X-49033Y-242415D01*
X-48850Y-242613D01*
X-48671Y-242815D01*
X-48497Y-243022D01*
X-48328Y-243232D01*
X-48165Y-243447D01*
X-48007Y-243666D01*
X-47854Y-243889D01*
X-47707Y-244115D01*
X-47565Y-244345D01*
X-47429Y-244578D01*
X-47299Y-244815D01*
X-47175Y-245054D01*
X-47056Y-245297D01*
X-46944Y-245542D01*
X-46837Y-245790D01*
X-46737Y-246041D01*
X-46643Y-246294D01*
X-46555Y-246550D01*
X-46474Y-246807D01*
X-46398Y-247066D01*
X-46330Y-247327D01*
X-46267Y-247590D01*
X-46211Y-247854D01*
X-46162Y-248119D01*
X-46119Y-248386D01*
X-46083Y-248653D01*
X-46053Y-248922D01*
X-46030Y-249191D01*
X-46013Y-249460D01*
X-46003Y-249730D01*
X-46000Y-250000D01*
X-46003Y-250270D01*
X-46013Y-250540D01*
X-46030Y-250809D01*
X-46053Y-251078D01*
X-46083Y-251347D01*
X-46119Y-251614D01*
X-46162Y-251881D01*
X-46211Y-252146D01*
X-46267Y-252410D01*
X-46330Y-252673D01*
X-46398Y-252934D01*
X-46474Y-253193D01*
X-46555Y-253450D01*
X-46643Y-253706D01*
X-46737Y-253959D01*
X-46837Y-254210D01*
X-46944Y-254458D01*
X-47056Y-254703D01*
X-47175Y-254946D01*
X-47299Y-255185D01*
X-47429Y-255422D01*
X-47565Y-255655D01*
X-47707Y-255885D01*
X-47854Y-256111D01*
X-48007Y-256334D01*
X-48165Y-256553D01*
X-48328Y-256768D01*
X-48497Y-256978D01*
X-48671Y-257185D01*
X-48850Y-257387D01*
X-49033Y-257585D01*
X-49222Y-257778D01*
X-49415Y-257967D01*
X-49613Y-258150D01*
X-49815Y-258329D01*
X-50022Y-258503D01*
X-50232Y-258672D01*
X-50447Y-258835D01*
X-50666Y-258993D01*
X-50889Y-259146D01*
X-51115Y-259293D01*
X-51345Y-259435D01*
X-51578Y-259571D01*
X-51815Y-259701D01*
X-52054Y-259825D01*
X-52297Y-259944D01*
X-52542Y-260056D01*
X-52790Y-260163D01*
X-53041Y-260263D01*
X-53294Y-260357D01*
X-53550Y-260445D01*
X-53807Y-260526D01*
X-54066Y-260602D01*
X-54327Y-260670D01*
X-54590Y-260733D01*
X-54854Y-260789D01*
X-55119Y-260838D01*
X-55386Y-260881D01*
X-55653Y-260917D01*
X-55922Y-260947D01*
X-56191Y-260970D01*
X-56460Y-260987D01*
X-56730Y-260997D01*
X-57000Y-261000D01*
X-57270Y-260997D01*
X-57540Y-260987D01*
X-57809Y-260970D01*
X-58078Y-260947D01*
X-58347Y-260917D01*
X-58614Y-260881D01*
X-58881Y-260838D01*
X-59146Y-260789D01*
X-59410Y-260733D01*
X-59673Y-260670D01*
X-59934Y-260602D01*
X-60193Y-260526D01*
X-60450Y-260445D01*
X-60706Y-260357D01*
X-60959Y-260263D01*
X-61210Y-260163D01*
X-61458Y-260056D01*
X-61703Y-259944D01*
X-61946Y-259825D01*
X-62185Y-259701D01*
X-62422Y-259571D01*
X-62655Y-259435D01*
X-62885Y-259293D01*
X-63111Y-259146D01*
X-63334Y-258993D01*
X-63553Y-258835D01*
X-63768Y-258672D01*
X-63978Y-258503D01*
X-64185Y-258329D01*
X-64387Y-258150D01*
X-64585Y-257967D01*
X-64778Y-257778D01*
X-64967Y-257585D01*
X-65150Y-257387D01*
X-65329Y-257185D01*
X-65503Y-256978D01*
X-65672Y-256768D01*
X-65835Y-256553D01*
X-65993Y-256334D01*
X-66146Y-256111D01*
X-66293Y-255885D01*
X-66435Y-255655D01*
X-66571Y-255422D01*
X-66701Y-255185D01*
X-66825Y-254946D01*
X-66944Y-254703D01*
X-67056Y-254458D01*
X-67163Y-254210D01*
X-67263Y-253959D01*
X-67357Y-253706D01*
X-67445Y-253450D01*
X-67526Y-253193D01*
X-67602Y-252934D01*
X-67670Y-252673D01*
X-67733Y-252410D01*
X-67789Y-252146D01*
X-67838Y-251881D01*
X-67881Y-251614D01*
X-67917Y-251347D01*
X-67947Y-251078D01*
X-67970Y-250809D01*
X-67987Y-250540D01*
X-67997Y-250270D01*
X-68000Y-250000D01*
X46000Y-250000D02*
X46003Y-249730D01*
X46013Y-249460D01*
X46030Y-249191D01*
X46053Y-248922D01*
X46083Y-248653D01*
X46119Y-248386D01*
X46162Y-248119D01*
X46211Y-247854D01*
X46267Y-247590D01*
X46330Y-247327D01*
X46398Y-247066D01*
X46474Y-246807D01*
X46555Y-246550D01*
X46643Y-246294D01*
X46737Y-246041D01*
X46837Y-245790D01*
X46944Y-245542D01*
X47056Y-245297D01*
X47175Y-245054D01*
X47299Y-244815D01*
X47429Y-244578D01*
X47565Y-244345D01*
X47707Y-244115D01*
X47854Y-243889D01*
X48007Y-243666D01*
X48165Y-243447D01*
X48328Y-243232D01*
X48497Y-243022D01*
X48671Y-242815D01*
X48850Y-242613D01*
X49033Y-242415D01*
X49222Y-242222D01*
X49415Y-242033D01*
X49613Y-241850D01*
X49815Y-241671D01*
X50022Y-241497D01*
X50232Y-241328D01*
X50447Y-241165D01*
X50666Y-241007D01*
X50889Y-240854D01*
X51115Y-240707D01*
X51345Y-240565D01*
X51578Y-240429D01*
X51815Y-240299D01*
X52054Y-240175D01*
X52297Y-240056D01*
X52542Y-239944D01*
X52790Y-239837D01*
X53041Y-239737D01*
X53294Y-239643D01*
X53550Y-239555D01*
X53807Y-239474D01*
X54066Y-239398D01*
X54327Y-239330D01*
X54590Y-239267D01*
X54854Y-239211D01*
X55119Y-239162D01*
X55386Y-239119D01*
X55653Y-239083D01*
X55922Y-239053D01*
X56191Y-239030D01*
X56460Y-239013D01*
X56730Y-239003D01*
X57000Y-239000D01*
X57270Y-239003D01*
X57540Y-239013D01*
X57809Y-239030D01*
X58078Y-239053D01*
X58347Y-239083D01*
X58614Y-239119D01*
X58881Y-239162D01*
X59146Y-239211D01*
X59410Y-239267D01*
X59673Y-239330D01*
X59934Y-239398D01*
X60193Y-239474D01*
X60450Y-239555D01*
X60706Y-239643D01*
X60959Y-239737D01*
X61210Y-239837D01*
X61458Y-239944D01*
X61703Y-240056D01*
X61946Y-240175D01*
X62185Y-240299D01*
X62422Y-240429D01*
X62655Y-240565D01*
X62885Y-240707D01*
X63111Y-240854D01*
X63334Y-241007D01*
X63553Y-241165D01*
X63768Y-241328D01*
X63978Y-241497D01*
X64185Y-241671D01*
X64387Y-241850D01*
X64585Y-242033D01*
X64778Y-242222D01*
X64967Y-242415D01*
X65150Y-242613D01*
X65329Y-242815D01*
X65503Y-243022D01*
X65672Y-243232D01*
X65835Y-243447D01*
X65993Y-243666D01*
X66146Y-243889D01*
X66293Y-244115D01*
X66435Y-244345D01*
X66571Y-244578D01*
X66701Y-244815D01*
X66825Y-245054D01*
X66944Y-245297D01*
X67056Y-245542D01*
X67163Y-245790D01*
X67263Y-246041D01*
X67357Y-246294D01*
X67445Y-246550D01*
X67526Y-246807D01*
X67602Y-247066D01*
X67670Y-247327D01*
X67733Y-247590D01*
X67789Y-247854D01*
X67838Y-248119D01*
X67881Y-248386D01*
X67917Y-248653D01*
X67947Y-248922D01*
X67970Y-249191D01*
X67987Y-249460D01*
X67997Y-249730D01*
X68000Y-250000D01*
X67997Y-250270D01*
X67987Y-250540D01*
X67970Y-250809D01*
X67947Y-251078D01*
X67917Y-251347D01*
X67881Y-251614D01*
X67838Y-251881D01*
X67789Y-252146D01*
X67733Y-252410D01*
X67670Y-252673D01*
X67602Y-252934D01*
X67526Y-253193D01*
X67445Y-253450D01*
X67357Y-253706D01*
X67263Y-253959D01*
X67163Y-254210D01*
X67056Y-254458D01*
X66944Y-254703D01*
X66825Y-254946D01*
X66701Y-255185D01*
X66571Y-255422D01*
X66435Y-255655D01*
X66293Y-255885D01*
X66146Y-256111D01*
X65993Y-256334D01*
X65835Y-256553D01*
X65672Y-256768D01*
X65503Y-256978D01*
X65329Y-257185D01*
X65150Y-257387D01*
X64967Y-257585D01*
X64778Y-257778D01*
X64585Y-257967D01*
X64387Y-258150D01*
X64185Y-258329D01*
X63978Y-258503D01*
X63768Y-258672D01*
X63553Y-258835D01*
X63334Y-258993D01*
X63111Y-259146D01*
X62885Y-259293D01*
X62655Y-259435D01*
X62422Y-259571D01*
X62185Y-259701D01*
X61946Y-259825D01*
X61703Y-259944D01*
X61458Y-260056D01*
X61210Y-260163D01*
X60959Y-260263D01*
X60706Y-260357D01*
X60450Y-260445D01*
X60193Y-260526D01*
X59934Y-260602D01*
X59673Y-260670D01*
X59410Y-260733D01*
X59146Y-260789D01*
X58881Y-260838D01*
X58614Y-260881D01*
X58347Y-260917D01*
X58078Y-260947D01*
X57809Y-260970D01*
X57540Y-260987D01*
X57270Y-260997D01*
X57000Y-261000D01*
X56730Y-260997D01*
X56460Y-260987D01*
X56191Y-260970D01*
X55922Y-260947D01*
X55653Y-260917D01*
X55386Y-260881D01*
X55119Y-260838D01*
X54854Y-260789D01*
X54590Y-260733D01*
X54327Y-260670D01*
X54066Y-260602D01*
X53807Y-260526D01*
X53550Y-260445D01*
X53294Y-260357D01*
X53041Y-260263D01*
X52790Y-260163D01*
X52542Y-260056D01*
X52297Y-259944D01*
X52054Y-259825D01*
X51815Y-259701D01*
X51578Y-259571D01*
X51345Y-259435D01*
X51115Y-259293D01*
X50889Y-259146D01*
X50666Y-258993D01*
X50447Y-258835D01*
X50232Y-258672D01*
X50022Y-258503D01*
X49815Y-258329D01*
X49613Y-258150D01*
X49415Y-257967D01*
X49222Y-257778D01*
X49033Y-257585D01*
X48850Y-257387D01*
X48671Y-257185D01*
X48497Y-256978D01*
X48328Y-256768D01*
X48165Y-256553D01*
X48007Y-256334D01*
X47854Y-256111D01*
X47707Y-255885D01*
X47565Y-255655D01*
X47429Y-255422D01*
X47299Y-255185D01*
X47175Y-254946D01*
X47056Y-254703D01*
X46944Y-254458D01*
X46837Y-254210D01*
X46737Y-253959D01*
X46643Y-253706D01*
X46555Y-253450D01*
X46474Y-253193D01*
X46398Y-252934D01*
X46330Y-252673D01*
X46267Y-252410D01*
X46211Y-252146D01*
X46162Y-251881D01*
X46119Y-251614D01*
X46083Y-251347D01*
X46053Y-251078D01*
X46030Y-250809D01*
X46013Y-250540D01*
X46003Y-250270D01*
X46000Y-250000D01*
X-386000Y-95000D02*
X-385997Y-94730D01*
X-385987Y-94460D01*
X-385970Y-94191D01*
X-385947Y-93922D01*
X-385917Y-93653D01*
X-385881Y-93386D01*
X-385838Y-93119D01*
X-385789Y-92854D01*
X-385733Y-92590D01*
X-385670Y-92327D01*
X-385602Y-92066D01*
X-385526Y-91807D01*
X-385445Y-91550D01*
X-385357Y-91294D01*
X-385263Y-91041D01*
X-385163Y-90790D01*
X-385056Y-90542D01*
X-384944Y-90297D01*
X-384825Y-90054D01*
X-384701Y-89815D01*
X-384571Y-89578D01*
X-384435Y-89345D01*
X-384293Y-89115D01*
X-384146Y-88889D01*
X-383993Y-88666D01*
X-383835Y-88447D01*
X-383672Y-88232D01*
X-383503Y-88022D01*
X-383329Y-87815D01*
X-383150Y-87613D01*
X-382967Y-87415D01*
X-382778Y-87222D01*
X-382585Y-87033D01*
X-382387Y-86850D01*
X-382185Y-86671D01*
X-381978Y-86497D01*
X-381768Y-86328D01*
X-381553Y-86165D01*
X-381334Y-86007D01*
X-381111Y-85854D01*
X-380885Y-85707D01*
X-380655Y-85565D01*
X-380422Y-85429D01*
X-380185Y-85299D01*
X-379946Y-85175D01*
X-379703Y-85056D01*
X-379458Y-84944D01*
X-379210Y-84837D01*
X-378959Y-84737D01*
X-378706Y-84643D01*
X-378450Y-84555D01*
X-378193Y-84474D01*
X-377934Y-84398D01*
X-377673Y-84330D01*
X-377410Y-84267D01*
X-377146Y-84211D01*
X-376881Y-84162D01*
X-376614Y-84119D01*
X-376347Y-84083D01*
X-376078Y-84053D01*
X-375809Y-84030D01*
X-375540Y-84013D01*
X-375270Y-84003D01*
X-375000Y-84000D01*
X-374730Y-84003D01*
X-374460Y-84013D01*
X-374191Y-84030D01*
X-373922Y-84053D01*
X-373653Y-84083D01*
X-373386Y-84119D01*
X-373119Y-84162D01*
X-372854Y-84211D01*
X-372590Y-84267D01*
X-372327Y-84330D01*
X-372066Y-84398D01*
X-371807Y-84474D01*
X-371550Y-84555D01*
X-371294Y-84643D01*
X-371041Y-84737D01*
X-370790Y-84837D01*
X-370542Y-84944D01*
X-370297Y-85056D01*
X-370054Y-85175D01*
X-369815Y-85299D01*
X-369578Y-85429D01*
X-369345Y-85565D01*
X-369115Y-85707D01*
X-368889Y-85854D01*
X-368666Y-86007D01*
X-368447Y-86165D01*
X-368232Y-86328D01*
X-368022Y-86497D01*
X-367815Y-86671D01*
X-367613Y-86850D01*
X-367415Y-87033D01*
X-367222Y-87222D01*
X-367033Y-87415D01*
X-366850Y-87613D01*
X-366671Y-87815D01*
X-366497Y-88022D01*
X-366328Y-88232D01*
X-366165Y-88447D01*
X-366007Y-88666D01*
X-365854Y-88889D01*
X-365707Y-89115D01*
X-365565Y-89345D01*
X-365429Y-89578D01*
X-365299Y-89815D01*
X-365175Y-90054D01*
X-365056Y-90297D01*
X-364944Y-90542D01*
X-364837Y-90790D01*
X-364737Y-91041D01*
X-364643Y-91294D01*
X-364555Y-91550D01*
X-364474Y-91807D01*
X-364398Y-92066D01*
X-364330Y-92327D01*
X-364267Y-92590D01*
X-364211Y-92854D01*
X-364162Y-93119D01*
X-364119Y-93386D01*
X-364083Y-93653D01*
X-364053Y-93922D01*
X-364030Y-94191D01*
X-364013Y-94460D01*
X-364003Y-94730D01*
X-364000Y-95000D01*
X-364003Y-95270D01*
X-364013Y-95540D01*
X-364030Y-95809D01*
X-364053Y-96078D01*
X-364083Y-96347D01*
X-364119Y-96614D01*
X-364162Y-96881D01*
X-364211Y-97146D01*
X-364267Y-97410D01*
X-364330Y-97673D01*
X-364398Y-97934D01*
X-364474Y-98193D01*
X-364555Y-98450D01*
X-364643Y-98706D01*
X-364737Y-98959D01*
X-364837Y-99210D01*
X-364944Y-99458D01*
X-365056Y-99703D01*
X-365175Y-99946D01*
X-365299Y-100185D01*
X-365429Y-100422D01*
X-365565Y-100655D01*
X-365707Y-100885D01*
X-365854Y-101111D01*
X-366007Y-101334D01*
X-366165Y-101553D01*
X-366328Y-101768D01*
X-366497Y-101978D01*
X-366671Y-102185D01*
X-366850Y-102387D01*
X-367033Y-102585D01*
X-367222Y-102778D01*
X-367415Y-102967D01*
X-367613Y-103150D01*
X-367815Y-103329D01*
X-368022Y-103503D01*
X-368232Y-103672D01*
X-368447Y-103835D01*
X-368666Y-103993D01*
X-368889Y-104146D01*
X-369115Y-104293D01*
X-369345Y-104435D01*
X-369578Y-104571D01*
X-369815Y-104701D01*
X-370054Y-104825D01*
X-370297Y-104944D01*
X-370542Y-105056D01*
X-370790Y-105163D01*
X-371041Y-105263D01*
X-371294Y-105357D01*
X-371550Y-105445D01*
X-371807Y-105526D01*
X-372066Y-105602D01*
X-372327Y-105670D01*
X-372590Y-105733D01*
X-372854Y-105789D01*
X-373119Y-105838D01*
X-373386Y-105881D01*
X-373653Y-105917D01*
X-373922Y-105947D01*
X-374191Y-105970D01*
X-374460Y-105987D01*
X-374730Y-105997D01*
X-375000Y-106000D01*
X-375270Y-105997D01*
X-375540Y-105987D01*
X-375809Y-105970D01*
X-376078Y-105947D01*
X-376347Y-105917D01*
X-376614Y-105881D01*
X-376881Y-105838D01*
X-377146Y-105789D01*
X-377410Y-105733D01*
X-377673Y-105670D01*
X-377934Y-105602D01*
X-378193Y-105526D01*
X-378450Y-105445D01*
X-378706Y-105357D01*
X-378959Y-105263D01*
X-379210Y-105163D01*
X-379458Y-105056D01*
X-379703Y-104944D01*
X-379946Y-104825D01*
X-380185Y-104701D01*
X-380422Y-104571D01*
X-380655Y-104435D01*
X-380885Y-104293D01*
X-381111Y-104146D01*
X-381334Y-103993D01*
X-381553Y-103835D01*
X-381768Y-103672D01*
X-381978Y-103503D01*
X-382185Y-103329D01*
X-382387Y-103150D01*
X-382585Y-102967D01*
X-382778Y-102778D01*
X-382967Y-102585D01*
X-383150Y-102387D01*
X-383329Y-102185D01*
X-383503Y-101978D01*
X-383672Y-101768D01*
X-383835Y-101553D01*
X-383993Y-101334D01*
X-384146Y-101111D01*
X-384293Y-100885D01*
X-384435Y-100655D01*
X-384571Y-100422D01*
X-384701Y-100185D01*
X-384825Y-99946D01*
X-384944Y-99703D01*
X-385056Y-99458D01*
X-385163Y-99210D01*
X-385263Y-98959D01*
X-385357Y-98706D01*
X-385445Y-98450D01*
X-385526Y-98193D01*
X-385602Y-97934D01*
X-385670Y-97673D01*
X-385733Y-97410D01*
X-385789Y-97146D01*
X-385838Y-96881D01*
X-385881Y-96614D01*
X-385917Y-96347D01*
X-385947Y-96078D01*
X-385970Y-95809D01*
X-385987Y-95540D01*
X-385997Y-95270D01*
X-386000Y-95000D01*
X-386000Y215000D02*
X-385997Y215270D01*
X-385987Y215540D01*
X-385970Y215809D01*
X-385947Y216078D01*
X-385917Y216347D01*
X-385881Y216614D01*
X-385838Y216881D01*
X-385789Y217146D01*
X-385733Y217410D01*
X-385670Y217673D01*
X-385602Y217934D01*
X-385526Y218193D01*
X-385445Y218450D01*
X-385357Y218706D01*
X-385263Y218959D01*
X-385163Y219210D01*
X-385056Y219458D01*
X-384944Y219703D01*
X-384825Y219946D01*
X-384701Y220185D01*
X-384571Y220422D01*
X-384435Y220655D01*
X-384293Y220885D01*
X-384146Y221111D01*
X-383993Y221334D01*
X-383835Y221553D01*
X-383672Y221768D01*
X-383503Y221978D01*
X-383329Y222185D01*
X-383150Y222387D01*
X-382967Y222585D01*
X-382778Y222778D01*
X-382585Y222967D01*
X-382387Y223150D01*
X-382185Y223329D01*
X-381978Y223503D01*
X-381768Y223672D01*
X-381553Y223835D01*
X-381334Y223993D01*
X-381111Y224146D01*
X-380885Y224293D01*
X-380655Y224435D01*
X-380422Y224571D01*
X-380185Y224701D01*
X-379946Y224825D01*
X-379703Y224944D01*
X-379458Y225056D01*
X-379210Y225163D01*
X-378959Y225263D01*
X-378706Y225357D01*
X-378450Y225445D01*
X-378193Y225526D01*
X-377934Y225602D01*
X-377673Y225670D01*
X-377410Y225733D01*
X-377146Y225789D01*
X-376881Y225838D01*
X-376614Y225881D01*
X-376347Y225917D01*
X-376078Y225947D01*
X-375809Y225970D01*
X-375540Y225987D01*
X-375270Y225997D01*
X-375000Y226000D01*
X-374730Y225997D01*
X-374460Y225987D01*
X-374191Y225970D01*
X-373922Y225947D01*
X-373653Y225917D01*
X-373386Y225881D01*
X-373119Y225838D01*
X-372854Y225789D01*
X-372590Y225733D01*
X-372327Y225670D01*
X-372066Y225602D01*
X-371807Y225526D01*
X-371550Y225445D01*
X-371294Y225357D01*
X-371041Y225263D01*
X-370790Y225163D01*
X-370542Y225056D01*
X-370297Y224944D01*
X-370054Y224825D01*
X-369815Y224701D01*
X-369578Y224571D01*
X-369345Y224435D01*
X-369115Y224293D01*
X-368889Y224146D01*
X-368666Y223993D01*
X-368447Y223835D01*
X-368232Y223672D01*
X-368022Y223503D01*
X-367815Y223329D01*
X-367613Y223150D01*
X-367415Y222967D01*
X-367222Y222778D01*
X-367033Y222585D01*
X-366850Y222387D01*
X-366671Y222185D01*
X-366497Y221978D01*
X-366328Y221768D01*
X-366165Y221553D01*
X-366007Y221334D01*
X-365854Y221111D01*
X-365707Y220885D01*
X-365565Y220655D01*
X-365429Y220422D01*
X-365299Y220185D01*
X-365175Y219946D01*
X-365056Y219703D01*
X-364944Y219458D01*
X-364837Y219210D01*
X-364737Y218959D01*
X-364643Y218706D01*
X-364555Y218450D01*
X-364474Y218193D01*
X-364398Y217934D01*
X-364330Y217673D01*
X-364267Y217410D01*
X-364211Y217146D01*
X-364162Y216881D01*
X-364119Y216614D01*
X-364083Y216347D01*
X-364053Y216078D01*
X-364030Y215809D01*
X-364013Y215540D01*
X-364003Y215270D01*
X-364000Y215000D01*
X-364003Y214730D01*
X-364013Y214460D01*
X-364030Y214191D01*
X-364053Y213922D01*
X-364083Y213653D01*
X-364119Y213386D01*
X-364162Y213119D01*
X-364211Y212854D01*
X-364267Y212590D01*
X-364330Y212327D01*
X-364398Y212066D01*
X-364474Y211807D01*
X-364555Y211550D01*
X-364643Y211294D01*
X-364737Y211041D01*
X-364837Y210790D01*
X-364944Y210542D01*
X-365056Y210297D01*
X-365175Y210054D01*
X-365299Y209815D01*
X-365429Y209578D01*
X-365565Y209345D01*
X-365707Y209115D01*
X-365854Y208889D01*
X-366007Y208666D01*
X-366165Y208447D01*
X-366328Y208232D01*
X-366497Y208022D01*
X-366671Y207815D01*
X-366850Y207613D01*
X-367033Y207415D01*
X-367222Y207222D01*
X-367415Y207033D01*
X-367613Y206850D01*
X-367815Y206671D01*
X-368022Y206497D01*
X-368232Y206328D01*
X-368447Y206165D01*
X-368666Y206007D01*
X-368889Y205854D01*
X-369115Y205707D01*
X-369345Y205565D01*
X-369578Y205429D01*
X-369815Y205299D01*
X-370054Y205175D01*
X-370297Y205056D01*
X-370542Y204944D01*
X-370790Y204837D01*
X-371041Y204737D01*
X-371294Y204643D01*
X-371550Y204555D01*
X-371807Y204474D01*
X-372066Y204398D01*
X-372327Y204330D01*
X-372590Y204267D01*
X-372854Y204211D01*
X-373119Y204162D01*
X-373386Y204119D01*
X-373653Y204083D01*
X-373922Y204053D01*
X-374191Y204030D01*
X-374460Y204013D01*
X-374730Y204003D01*
X-375000Y204000D01*
X-375270Y204003D01*
X-375540Y204013D01*
X-375809Y204030D01*
X-376078Y204053D01*
X-376347Y204083D01*
X-376614Y204119D01*
X-376881Y204162D01*
X-377146Y204211D01*
X-377410Y204267D01*
X-377673Y204330D01*
X-377934Y204398D01*
X-378193Y204474D01*
X-378450Y204555D01*
X-378706Y204643D01*
X-378959Y204737D01*
X-379210Y204837D01*
X-379458Y204944D01*
X-379703Y205056D01*
X-379946Y205175D01*
X-380185Y205299D01*
X-380422Y205429D01*
X-380655Y205565D01*
X-380885Y205707D01*
X-381111Y205854D01*
X-381334Y206007D01*
X-381553Y206165D01*
X-381768Y206328D01*
X-381978Y206497D01*
X-382185Y206671D01*
X-382387Y206850D01*
X-382585Y207033D01*
X-382778Y207222D01*
X-382967Y207415D01*
X-383150Y207613D01*
X-383329Y207815D01*
X-383503Y208022D01*
X-383672Y208232D01*
X-383835Y208447D01*
X-383993Y208666D01*
X-384146Y208889D01*
X-384293Y209115D01*
X-384435Y209345D01*
X-384571Y209578D01*
X-384701Y209815D01*
X-384825Y210054D01*
X-384944Y210297D01*
X-385056Y210542D01*
X-385163Y210790D01*
X-385263Y211041D01*
X-385357Y211294D01*
X-385445Y211550D01*
X-385526Y211807D01*
X-385602Y212066D01*
X-385670Y212327D01*
X-385733Y212590D01*
X-385789Y212854D01*
X-385838Y213119D01*
X-385881Y213386D01*
X-385917Y213653D01*
X-385947Y213922D01*
X-385970Y214191D01*
X-385987Y214460D01*
X-385997Y214730D01*
X-386000Y215000D01*
X364000Y-95000D02*
X364003Y-94730D01*
X364013Y-94460D01*
X364030Y-94191D01*
X364053Y-93922D01*
X364083Y-93653D01*
X364119Y-93386D01*
X364162Y-93119D01*
X364211Y-92854D01*
X364267Y-92590D01*
X364330Y-92327D01*
X364398Y-92066D01*
X364474Y-91807D01*
X364555Y-91550D01*
X364643Y-91294D01*
X364737Y-91041D01*
X364837Y-90790D01*
X364944Y-90542D01*
X365056Y-90297D01*
X365175Y-90054D01*
X365299Y-89815D01*
X365429Y-89578D01*
X365565Y-89345D01*
X365707Y-89115D01*
X365854Y-88889D01*
X366007Y-88666D01*
X366165Y-88447D01*
X366328Y-88232D01*
X366497Y-88022D01*
X366671Y-87815D01*
X366850Y-87613D01*
X367033Y-87415D01*
X367222Y-87222D01*
X367415Y-87033D01*
X367613Y-86850D01*
X367815Y-86671D01*
X368022Y-86497D01*
X368232Y-86328D01*
X368447Y-86165D01*
X368666Y-86007D01*
X368889Y-85854D01*
X369115Y-85707D01*
X369345Y-85565D01*
X369578Y-85429D01*
X369815Y-85299D01*
X370054Y-85175D01*
X370297Y-85056D01*
X370542Y-84944D01*
X370790Y-84837D01*
X371041Y-84737D01*
X371294Y-84643D01*
X371550Y-84555D01*
X371807Y-84474D01*
X372066Y-84398D01*
X372327Y-84330D01*
X372590Y-84267D01*
X372854Y-84211D01*
X373119Y-84162D01*
X373386Y-84119D01*
X373653Y-84083D01*
X373922Y-84053D01*
X374191Y-84030D01*
X374460Y-84013D01*
X374730Y-84003D01*
X375000Y-84000D01*
X375270Y-84003D01*
X375540Y-84013D01*
X375809Y-84030D01*
X376078Y-84053D01*
X376347Y-84083D01*
X376614Y-84119D01*
X376881Y-84162D01*
X377146Y-84211D01*
X377410Y-84267D01*
X377673Y-84330D01*
X377934Y-84398D01*
X378193Y-84474D01*
X378450Y-84555D01*
X378706Y-84643D01*
X378959Y-84737D01*
X379210Y-84837D01*
X379458Y-84944D01*
X379703Y-85056D01*
X379946Y-85175D01*
X380185Y-85299D01*
X380422Y-85429D01*
X380655Y-85565D01*
X380885Y-85707D01*
X381111Y-85854D01*
X381334Y-86007D01*
X381553Y-86165D01*
X381768Y-86328D01*
X381978Y-86497D01*
X382185Y-86671D01*
X382387Y-86850D01*
X382585Y-87033D01*
X382778Y-87222D01*
X382967Y-87415D01*
X383150Y-87613D01*
X383329Y-87815D01*
X383503Y-88022D01*
X383672Y-88232D01*
X383835Y-88447D01*
X383993Y-88666D01*
X384146Y-88889D01*
X384293Y-89115D01*
X384435Y-89345D01*
X384571Y-89578D01*
X384701Y-89815D01*
X384825Y-90054D01*
X384944Y-90297D01*
X385056Y-90542D01*
X385163Y-90790D01*
X385263Y-91041D01*
X385357Y-91294D01*
X385445Y-91550D01*
X385526Y-91807D01*
X385602Y-92066D01*
X385670Y-92327D01*
X385733Y-92590D01*
X385789Y-92854D01*
X385838Y-93119D01*
X385881Y-93386D01*
X385917Y-93653D01*
X385947Y-93922D01*
X385970Y-94191D01*
X385987Y-94460D01*
X385997Y-94730D01*
X386000Y-95000D01*
X385997Y-95270D01*
X385987Y-95540D01*
X385970Y-95809D01*
X385947Y-96078D01*
X385917Y-96347D01*
X385881Y-96614D01*
X385838Y-96881D01*
X385789Y-97146D01*
X385733Y-97410D01*
X385670Y-97673D01*
X385602Y-97934D01*
X385526Y-98193D01*
X385445Y-98450D01*
X385357Y-98706D01*
X385263Y-98959D01*
X385163Y-99210D01*
X385056Y-99458D01*
X384944Y-99703D01*
X384825Y-99946D01*
X384701Y-100185D01*
X384571Y-100422D01*
X384435Y-100655D01*
X384293Y-100885D01*
X384146Y-101111D01*
X383993Y-101334D01*
X383835Y-101553D01*
X383672Y-101768D01*
X383503Y-101978D01*
X383329Y-102185D01*
X383150Y-102387D01*
X382967Y-102585D01*
X382778Y-102778D01*
X382585Y-102967D01*
X382387Y-103150D01*
X382185Y-103329D01*
X381978Y-103503D01*
X381768Y-103672D01*
X381553Y-103835D01*
X381334Y-103993D01*
X381111Y-104146D01*
X380885Y-104293D01*
X380655Y-104435D01*
X380422Y-104571D01*
X380185Y-104701D01*
X379946Y-104825D01*
X379703Y-104944D01*
X379458Y-105056D01*
X379210Y-105163D01*
X378959Y-105263D01*
X378706Y-105357D01*
X378450Y-105445D01*
X378193Y-105526D01*
X377934Y-105602D01*
X377673Y-105670D01*
X377410Y-105733D01*
X377146Y-105789D01*
X376881Y-105838D01*
X376614Y-105881D01*
X376347Y-105917D01*
X376078Y-105947D01*
X375809Y-105970D01*
X375540Y-105987D01*
X375270Y-105997D01*
X375000Y-106000D01*
X374730Y-105997D01*
X374460Y-105987D01*
X374191Y-105970D01*
X373922Y-105947D01*
X373653Y-105917D01*
X373386Y-105881D01*
X373119Y-105838D01*
X372854Y-105789D01*
X372590Y-105733D01*
X372327Y-105670D01*
X372066Y-105602D01*
X371807Y-105526D01*
X371550Y-105445D01*
X371294Y-105357D01*
X371041Y-105263D01*
X370790Y-105163D01*
X370542Y-105056D01*
X370297Y-104944D01*
X370054Y-104825D01*
X369815Y-104701D01*
X369578Y-104571D01*
X369345Y-104435D01*
X369115Y-104293D01*
X368889Y-104146D01*
X368666Y-103993D01*
X368447Y-103835D01*
X368232Y-103672D01*
X368022Y-103503D01*
X367815Y-103329D01*
X367613Y-103150D01*
X367415Y-102967D01*
X367222Y-102778D01*
X367033Y-102585D01*
X366850Y-102387D01*
X366671Y-102185D01*
X366497Y-101978D01*
X366328Y-101768D01*
X366165Y-101553D01*
X366007Y-101334D01*
X365854Y-101111D01*
X365707Y-100885D01*
X365565Y-100655D01*
X365429Y-100422D01*
X365299Y-100185D01*
X365175Y-99946D01*
X365056Y-99703D01*
X364944Y-99458D01*
X364837Y-99210D01*
X364737Y-98959D01*
X364643Y-98706D01*
X364555Y-98450D01*
X364474Y-98193D01*
X364398Y-97934D01*
X364330Y-97673D01*
X364267Y-97410D01*
X364211Y-97146D01*
X364162Y-96881D01*
X364119Y-96614D01*
X364083Y-96347D01*
X364053Y-96078D01*
X364030Y-95809D01*
X364013Y-95540D01*
X364003Y-95270D01*
X364000Y-95000D01*
X364000Y215000D02*
X364003Y215270D01*
X364013Y215540D01*
X364030Y215809D01*
X364053Y216078D01*
X364083Y216347D01*
X364119Y216614D01*
X364162Y216881D01*
X364211Y217146D01*
X364267Y217410D01*
X364330Y217673D01*
X364398Y217934D01*
X364474Y218193D01*
X364555Y218450D01*
X364643Y218706D01*
X364737Y218959D01*
X364837Y219210D01*
X364944Y219458D01*
X365056Y219703D01*
X365175Y219946D01*
X365299Y220185D01*
X365429Y220422D01*
X365565Y220655D01*
X365707Y220885D01*
X365854Y221111D01*
X366007Y221334D01*
X366165Y221553D01*
X366328Y221768D01*
X366497Y221978D01*
X366671Y222185D01*
X366850Y222387D01*
X367033Y222585D01*
X367222Y222778D01*
X367415Y222967D01*
X367613Y223150D01*
X367815Y223329D01*
X368022Y223503D01*
X368232Y223672D01*
X368447Y223835D01*
X368666Y223993D01*
X368889Y224146D01*
X369115Y224293D01*
X369345Y224435D01*
X369578Y224571D01*
X369815Y224701D01*
X370054Y224825D01*
X370297Y224944D01*
X370542Y225056D01*
X370790Y225163D01*
X371041Y225263D01*
X371294Y225357D01*
X371550Y225445D01*
X371807Y225526D01*
X372066Y225602D01*
X372327Y225670D01*
X372590Y225733D01*
X372854Y225789D01*
X373119Y225838D01*
X373386Y225881D01*
X373653Y225917D01*
X373922Y225947D01*
X374191Y225970D01*
X374460Y225987D01*
X374730Y225997D01*
X375000Y226000D01*
X375270Y225997D01*
X375540Y225987D01*
X375809Y225970D01*
X376078Y225947D01*
X376347Y225917D01*
X376614Y225881D01*
X376881Y225838D01*
X377146Y225789D01*
X377410Y225733D01*
X377673Y225670D01*
X377934Y225602D01*
X378193Y225526D01*
X378450Y225445D01*
X378706Y225357D01*
X378959Y225263D01*
X379210Y225163D01*
X379458Y225056D01*
X379703Y224944D01*
X379946Y224825D01*
X380185Y224701D01*
X380422Y224571D01*
X380655Y224435D01*
X380885Y224293D01*
X381111Y224146D01*
X381334Y223993D01*
X381553Y223835D01*
X381768Y223672D01*
X381978Y223503D01*
X382185Y223329D01*
X382387Y223150D01*
X382585Y222967D01*
X382778Y222778D01*
X382967Y222585D01*
X383150Y222387D01*
X383329Y222185D01*
X383503Y221978D01*
X383672Y221768D01*
X383835Y221553D01*
X383993Y221334D01*
X384146Y221111D01*
X384293Y220885D01*
X384435Y220655D01*
X384571Y220422D01*
X384701Y220185D01*
X384825Y219946D01*
X384944Y219703D01*
X385056Y219458D01*
X385163Y219210D01*
X385263Y218959D01*
X385357Y218706D01*
X385445Y218450D01*
X385526Y218193D01*
X385602Y217934D01*
X385670Y217673D01*
X385733Y217410D01*
X385789Y217146D01*
X385838Y216881D01*
X385881Y216614D01*
X385917Y216347D01*
X385947Y216078D01*
X385970Y215809D01*
X385987Y215540D01*
X385997Y215270D01*
X386000Y215000D01*
X385997Y214730D01*
X385987Y214460D01*
X385970Y214191D01*
X385947Y213922D01*
X385917Y213653D01*
X385881Y213386D01*
X385838Y213119D01*
X385789Y212854D01*
X385733Y212590D01*
X385670Y212327D01*
X385602Y212066D01*
X385526Y211807D01*
X385445Y211550D01*
X385357Y211294D01*
X385263Y211041D01*
X385163Y210790D01*
X385056Y210542D01*
X384944Y210297D01*
X384825Y210054D01*
X384701Y209815D01*
X384571Y209578D01*
X384435Y209345D01*
X384293Y209115D01*
X384146Y208889D01*
X383993Y208666D01*
X383835Y208447D01*
X383672Y208232D01*
X383503Y208022D01*
X383329Y207815D01*
X383150Y207613D01*
X382967Y207415D01*
X382778Y207222D01*
X382585Y207033D01*
X382387Y206850D01*
X382185Y206671D01*
X381978Y206497D01*
X381768Y206328D01*
X381553Y206165D01*
X381334Y206007D01*
X381111Y205854D01*
X380885Y205707D01*
X380655Y205565D01*
X380422Y205429D01*
X380185Y205299D01*
X379946Y205175D01*
X379703Y205056D01*
X379458Y204944D01*
X379210Y204837D01*
X378959Y204737D01*
X378706Y204643D01*
X378450Y204555D01*
X378193Y204474D01*
X377934Y204398D01*
X377673Y204330D01*
X377410Y204267D01*
X377146Y204211D01*
X376881Y204162D01*
X376614Y204119D01*
X376347Y204083D01*
X376078Y204053D01*
X375809Y204030D01*
X375540Y204013D01*
X375270Y204003D01*
X375000Y204000D01*
X374730Y204003D01*
X374460Y204013D01*
X374191Y204030D01*
X373922Y204053D01*
X373653Y204083D01*
X373386Y204119D01*
X373119Y204162D01*
X372854Y204211D01*
X372590Y204267D01*
X372327Y204330D01*
X372066Y204398D01*
X371807Y204474D01*
X371550Y204555D01*
X371294Y204643D01*
X371041Y204737D01*
X370790Y204837D01*
X370542Y204944D01*
X370297Y205056D01*
X370054Y205175D01*
X369815Y205299D01*
X369578Y205429D01*
X369345Y205565D01*
X369115Y205707D01*
X368889Y205854D01*
X368666Y206007D01*
X368447Y206165D01*
X368232Y206328D01*
X368022Y206497D01*
X367815Y206671D01*
X367613Y206850D01*
X367415Y207033D01*
X367222Y207222D01*
X367033Y207415D01*
X366850Y207613D01*
X366671Y207815D01*
X366497Y208022D01*
X366328Y208232D01*
X366165Y208447D01*
X366007Y208666D01*
X365854Y208889D01*
X365707Y209115D01*
X365565Y209345D01*
X365429Y209578D01*
X365299Y209815D01*
X365175Y210054D01*
X365056Y210297D01*
X364944Y210542D01*
X364837Y210790D01*
X364737Y211041D01*
X364643Y211294D01*
X364555Y211550D01*
X364474Y211807D01*
X364398Y212066D01*
X364330Y212327D01*
X364267Y212590D01*
X364211Y212854D01*
X364162Y213119D01*
X364119Y213386D01*
X364083Y213653D01*
X364053Y213922D01*
X364030Y214191D01*
X364013Y214460D01*
X364003Y214730D01*
X364000Y215000D01*
D12*
X-108651Y-618807D02*
X-113167Y-618807D01*
X-108651Y-618806D02*
X-108518Y-618808D01*
X-108386Y-618814D01*
X-108254Y-618824D01*
X-108122Y-618837D01*
X-107990Y-618855D01*
X-107860Y-618876D01*
X-107729Y-618901D01*
X-107600Y-618930D01*
X-107472Y-618963D01*
X-107344Y-618999D01*
X-107218Y-619039D01*
X-107093Y-619083D01*
X-106969Y-619131D01*
X-106847Y-619182D01*
X-106726Y-619237D01*
X-106607Y-619295D01*
X-106489Y-619357D01*
X-106374Y-619422D01*
X-106260Y-619491D01*
X-106149Y-619562D01*
X-106040Y-619638D01*
X-105933Y-619716D01*
X-105828Y-619797D01*
X-105726Y-619882D01*
X-105626Y-619969D01*
X-105529Y-620059D01*
X-105434Y-620152D01*
X-105343Y-620248D01*
X-105254Y-620346D01*
X-105168Y-620447D01*
X-105085Y-620551D01*
X-105005Y-620657D01*
X-104929Y-620765D01*
X-104855Y-620875D01*
X-104785Y-620988D01*
X-104718Y-621102D01*
X-104655Y-621219D01*
X-104595Y-621337D01*
X-104538Y-621457D01*
X-104485Y-621579D01*
X-104436Y-621702D01*
X-104390Y-621826D01*
X-104348Y-621952D01*
X-104310Y-622079D01*
X-104275Y-622207D01*
X-104244Y-622336D01*
X-104217Y-622465D01*
X-104194Y-622596D01*
X-104174Y-622727D01*
X-104159Y-622859D01*
X-104147Y-622991D01*
X-104139Y-623123D01*
X-104135Y-623256D01*
X-104135Y-623388D01*
X-104139Y-623521D01*
X-104147Y-623653D01*
X-104159Y-623785D01*
X-104174Y-623917D01*
X-104194Y-624048D01*
X-104217Y-624179D01*
X-104244Y-624308D01*
X-104275Y-624437D01*
X-104310Y-624565D01*
X-104348Y-624692D01*
X-104390Y-624818D01*
X-104436Y-624942D01*
X-104485Y-625065D01*
X-104538Y-625187D01*
X-104595Y-625307D01*
X-104655Y-625425D01*
X-104718Y-625542D01*
X-104785Y-625656D01*
X-104855Y-625769D01*
X-104929Y-625879D01*
X-105005Y-625987D01*
X-105085Y-626093D01*
X-105168Y-626197D01*
X-105254Y-626298D01*
X-105343Y-626396D01*
X-105434Y-626492D01*
X-105529Y-626585D01*
X-105626Y-626675D01*
X-105726Y-626762D01*
X-105828Y-626847D01*
X-105933Y-626928D01*
X-106040Y-627006D01*
X-106149Y-627082D01*
X-106260Y-627153D01*
X-106374Y-627222D01*
X-106489Y-627287D01*
X-106607Y-627349D01*
X-106726Y-627407D01*
X-106847Y-627462D01*
X-106969Y-627513D01*
X-107093Y-627561D01*
X-107218Y-627605D01*
X-107344Y-627645D01*
X-107472Y-627681D01*
X-107600Y-627714D01*
X-107729Y-627743D01*
X-107860Y-627768D01*
X-107990Y-627789D01*
X-108122Y-627807D01*
X-108254Y-627820D01*
X-108386Y-627830D01*
X-108518Y-627836D01*
X-108651Y-627838D01*
X-113167Y-627838D01*
X-113167Y-611582D01*
X-108651Y-611582D01*
X-108532Y-611584D01*
X-108412Y-611590D01*
X-108293Y-611600D01*
X-108175Y-611614D01*
X-108056Y-611631D01*
X-107939Y-611653D01*
X-107822Y-611678D01*
X-107707Y-611708D01*
X-107592Y-611741D01*
X-107478Y-611778D01*
X-107366Y-611818D01*
X-107255Y-611863D01*
X-107146Y-611911D01*
X-107038Y-611962D01*
X-106932Y-612017D01*
X-106828Y-612076D01*
X-106726Y-612138D01*
X-106626Y-612203D01*
X-106528Y-612272D01*
X-106432Y-612344D01*
X-106339Y-612419D01*
X-106249Y-612496D01*
X-106161Y-612577D01*
X-106076Y-612661D01*
X-105994Y-612748D01*
X-105914Y-612837D01*
X-105838Y-612929D01*
X-105764Y-613023D01*
X-105694Y-613120D01*
X-105627Y-613218D01*
X-105563Y-613319D01*
X-105503Y-613423D01*
X-105446Y-613528D01*
X-105393Y-613635D01*
X-105343Y-613743D01*
X-105297Y-613853D01*
X-105255Y-613965D01*
X-105216Y-614078D01*
X-105181Y-614192D01*
X-105150Y-614307D01*
X-105122Y-614424D01*
X-105099Y-614541D01*
X-105079Y-614658D01*
X-105063Y-614777D01*
X-105051Y-614896D01*
X-105043Y-615015D01*
X-105039Y-615134D01*
X-105039Y-615254D01*
X-105043Y-615373D01*
X-105051Y-615492D01*
X-105063Y-615611D01*
X-105079Y-615730D01*
X-105099Y-615847D01*
X-105122Y-615964D01*
X-105150Y-616081D01*
X-105181Y-616196D01*
X-105216Y-616310D01*
X-105255Y-616423D01*
X-105297Y-616535D01*
X-105343Y-616645D01*
X-105393Y-616753D01*
X-105446Y-616860D01*
X-105503Y-616965D01*
X-105563Y-617069D01*
X-105627Y-617170D01*
X-105694Y-617268D01*
X-105764Y-617365D01*
X-105838Y-617459D01*
X-105914Y-617551D01*
X-105994Y-617640D01*
X-106076Y-617727D01*
X-106161Y-617811D01*
X-106249Y-617892D01*
X-106339Y-617969D01*
X-106432Y-618044D01*
X-106528Y-618116D01*
X-106626Y-618185D01*
X-106726Y-618250D01*
X-106828Y-618312D01*
X-106932Y-618371D01*
X-107038Y-618426D01*
X-107146Y-618477D01*
X-107255Y-618525D01*
X-107366Y-618570D01*
X-107478Y-618610D01*
X-107592Y-618647D01*
X-107707Y-618680D01*
X-107822Y-618710D01*
X-107939Y-618735D01*
X-108056Y-618757D01*
X-108175Y-618774D01*
X-108293Y-618788D01*
X-108412Y-618798D01*
X-108532Y-618804D01*
X-108651Y-618806D01*
X-98406Y-620613D02*
X-98406Y-624226D01*
X-98406Y-620613D02*
X-98404Y-620494D01*
X-98398Y-620374D01*
X-98388Y-620255D01*
X-98374Y-620137D01*
X-98357Y-620018D01*
X-98335Y-619901D01*
X-98310Y-619784D01*
X-98280Y-619669D01*
X-98247Y-619554D01*
X-98210Y-619440D01*
X-98170Y-619328D01*
X-98125Y-619217D01*
X-98077Y-619108D01*
X-98026Y-619000D01*
X-97971Y-618894D01*
X-97912Y-618790D01*
X-97850Y-618688D01*
X-97785Y-618588D01*
X-97716Y-618490D01*
X-97644Y-618394D01*
X-97569Y-618301D01*
X-97492Y-618211D01*
X-97411Y-618123D01*
X-97327Y-618038D01*
X-97240Y-617956D01*
X-97151Y-617876D01*
X-97059Y-617800D01*
X-96965Y-617726D01*
X-96868Y-617656D01*
X-96770Y-617589D01*
X-96669Y-617525D01*
X-96565Y-617465D01*
X-96460Y-617408D01*
X-96353Y-617355D01*
X-96245Y-617305D01*
X-96135Y-617259D01*
X-96023Y-617217D01*
X-95910Y-617178D01*
X-95796Y-617143D01*
X-95681Y-617112D01*
X-95564Y-617084D01*
X-95447Y-617061D01*
X-95330Y-617041D01*
X-95211Y-617025D01*
X-95092Y-617013D01*
X-94973Y-617005D01*
X-94854Y-617001D01*
X-94734Y-617001D01*
X-94615Y-617005D01*
X-94496Y-617013D01*
X-94377Y-617025D01*
X-94258Y-617041D01*
X-94141Y-617061D01*
X-94024Y-617084D01*
X-93907Y-617112D01*
X-93792Y-617143D01*
X-93678Y-617178D01*
X-93565Y-617217D01*
X-93453Y-617259D01*
X-93343Y-617305D01*
X-93235Y-617355D01*
X-93128Y-617408D01*
X-93023Y-617465D01*
X-92919Y-617525D01*
X-92818Y-617589D01*
X-92720Y-617656D01*
X-92623Y-617726D01*
X-92529Y-617800D01*
X-92437Y-617876D01*
X-92348Y-617956D01*
X-92261Y-618038D01*
X-92177Y-618123D01*
X-92096Y-618211D01*
X-92019Y-618301D01*
X-91944Y-618394D01*
X-91872Y-618490D01*
X-91803Y-618588D01*
X-91738Y-618688D01*
X-91676Y-618790D01*
X-91617Y-618894D01*
X-91562Y-619000D01*
X-91511Y-619108D01*
X-91463Y-619217D01*
X-91418Y-619328D01*
X-91378Y-619440D01*
X-91341Y-619554D01*
X-91308Y-619669D01*
X-91278Y-619784D01*
X-91253Y-619901D01*
X-91231Y-620018D01*
X-91214Y-620137D01*
X-91200Y-620255D01*
X-91190Y-620374D01*
X-91184Y-620494D01*
X-91182Y-620613D01*
X-91182Y-624226D01*
X-91184Y-624345D01*
X-91190Y-624465D01*
X-91200Y-624584D01*
X-91214Y-624702D01*
X-91231Y-624821D01*
X-91253Y-624938D01*
X-91278Y-625055D01*
X-91308Y-625170D01*
X-91341Y-625285D01*
X-91378Y-625399D01*
X-91418Y-625511D01*
X-91463Y-625622D01*
X-91511Y-625731D01*
X-91562Y-625839D01*
X-91617Y-625945D01*
X-91676Y-626049D01*
X-91738Y-626151D01*
X-91803Y-626251D01*
X-91872Y-626349D01*
X-91944Y-626445D01*
X-92019Y-626538D01*
X-92096Y-626628D01*
X-92177Y-626716D01*
X-92261Y-626801D01*
X-92348Y-626883D01*
X-92437Y-626963D01*
X-92529Y-627039D01*
X-92623Y-627113D01*
X-92720Y-627183D01*
X-92818Y-627250D01*
X-92919Y-627314D01*
X-93023Y-627374D01*
X-93128Y-627431D01*
X-93235Y-627484D01*
X-93343Y-627534D01*
X-93453Y-627580D01*
X-93565Y-627622D01*
X-93678Y-627661D01*
X-93792Y-627696D01*
X-93907Y-627727D01*
X-94024Y-627755D01*
X-94141Y-627778D01*
X-94258Y-627798D01*
X-94377Y-627814D01*
X-94496Y-627826D01*
X-94615Y-627834D01*
X-94734Y-627838D01*
X-94854Y-627838D01*
X-94973Y-627834D01*
X-95092Y-627826D01*
X-95211Y-627814D01*
X-95330Y-627798D01*
X-95447Y-627778D01*
X-95564Y-627755D01*
X-95681Y-627727D01*
X-95796Y-627696D01*
X-95910Y-627661D01*
X-96023Y-627622D01*
X-96135Y-627580D01*
X-96245Y-627534D01*
X-96353Y-627484D01*
X-96460Y-627431D01*
X-96565Y-627374D01*
X-96669Y-627314D01*
X-96770Y-627250D01*
X-96868Y-627183D01*
X-96965Y-627113D01*
X-97059Y-627039D01*
X-97151Y-626963D01*
X-97240Y-626883D01*
X-97327Y-626801D01*
X-97411Y-626716D01*
X-97492Y-626628D01*
X-97569Y-626538D01*
X-97644Y-626445D01*
X-97716Y-626349D01*
X-97785Y-626251D01*
X-97850Y-626151D01*
X-97912Y-626049D01*
X-97971Y-625945D01*
X-98026Y-625839D01*
X-98077Y-625731D01*
X-98125Y-625622D01*
X-98170Y-625511D01*
X-98210Y-625399D01*
X-98247Y-625285D01*
X-98280Y-625170D01*
X-98310Y-625055D01*
X-98335Y-624938D01*
X-98357Y-624821D01*
X-98374Y-624702D01*
X-98388Y-624584D01*
X-98398Y-624465D01*
X-98404Y-624345D01*
X-98406Y-624226D01*
X-86157Y-617001D02*
X-80738Y-617001D01*
X-84350Y-611582D02*
X-84350Y-625129D01*
X-84348Y-625230D01*
X-84342Y-625331D01*
X-84333Y-625432D01*
X-84320Y-625533D01*
X-84303Y-625633D01*
X-84282Y-625732D01*
X-84258Y-625830D01*
X-84230Y-625927D01*
X-84198Y-626024D01*
X-84163Y-626119D01*
X-84124Y-626212D01*
X-84082Y-626304D01*
X-84036Y-626395D01*
X-83987Y-626484D01*
X-83935Y-626570D01*
X-83879Y-626655D01*
X-83821Y-626738D01*
X-83759Y-626818D01*
X-83694Y-626896D01*
X-83627Y-626972D01*
X-83557Y-627045D01*
X-83484Y-627115D01*
X-83408Y-627182D01*
X-83330Y-627247D01*
X-83250Y-627309D01*
X-83167Y-627367D01*
X-83082Y-627423D01*
X-82996Y-627475D01*
X-82907Y-627524D01*
X-82816Y-627570D01*
X-82724Y-627612D01*
X-82631Y-627651D01*
X-82536Y-627686D01*
X-82439Y-627718D01*
X-82342Y-627746D01*
X-82244Y-627770D01*
X-82145Y-627791D01*
X-82045Y-627808D01*
X-81944Y-627821D01*
X-81843Y-627830D01*
X-81742Y-627836D01*
X-81641Y-627838D01*
X-80738Y-627838D01*
X-76257Y-617001D02*
X-70838Y-617001D01*
X-74451Y-611582D02*
X-74451Y-625129D01*
X-74450Y-625129D02*
X-74448Y-625230D01*
X-74442Y-625331D01*
X-74433Y-625432D01*
X-74420Y-625533D01*
X-74403Y-625633D01*
X-74382Y-625732D01*
X-74358Y-625830D01*
X-74330Y-625927D01*
X-74298Y-626024D01*
X-74263Y-626119D01*
X-74224Y-626212D01*
X-74182Y-626304D01*
X-74136Y-626395D01*
X-74087Y-626484D01*
X-74035Y-626570D01*
X-73979Y-626655D01*
X-73921Y-626738D01*
X-73859Y-626818D01*
X-73794Y-626896D01*
X-73727Y-626972D01*
X-73657Y-627045D01*
X-73584Y-627115D01*
X-73508Y-627182D01*
X-73430Y-627247D01*
X-73350Y-627309D01*
X-73267Y-627367D01*
X-73182Y-627423D01*
X-73096Y-627475D01*
X-73007Y-627524D01*
X-72916Y-627570D01*
X-72824Y-627612D01*
X-72731Y-627651D01*
X-72636Y-627686D01*
X-72539Y-627718D01*
X-72442Y-627746D01*
X-72344Y-627770D01*
X-72245Y-627791D01*
X-72145Y-627808D01*
X-72044Y-627821D01*
X-71943Y-627830D01*
X-71842Y-627836D01*
X-71741Y-627838D01*
X-70838Y-627838D01*
X-65060Y-624226D02*
X-65060Y-620613D01*
X-65059Y-620613D02*
X-65057Y-620494D01*
X-65051Y-620374D01*
X-65041Y-620255D01*
X-65027Y-620137D01*
X-65010Y-620018D01*
X-64988Y-619901D01*
X-64963Y-619784D01*
X-64933Y-619669D01*
X-64900Y-619554D01*
X-64863Y-619440D01*
X-64823Y-619328D01*
X-64778Y-619217D01*
X-64730Y-619108D01*
X-64679Y-619000D01*
X-64624Y-618894D01*
X-64565Y-618790D01*
X-64503Y-618688D01*
X-64438Y-618588D01*
X-64369Y-618490D01*
X-64297Y-618394D01*
X-64222Y-618301D01*
X-64145Y-618211D01*
X-64064Y-618123D01*
X-63980Y-618038D01*
X-63893Y-617956D01*
X-63804Y-617876D01*
X-63712Y-617800D01*
X-63618Y-617726D01*
X-63521Y-617656D01*
X-63423Y-617589D01*
X-63322Y-617525D01*
X-63218Y-617465D01*
X-63113Y-617408D01*
X-63006Y-617355D01*
X-62898Y-617305D01*
X-62788Y-617259D01*
X-62676Y-617217D01*
X-62563Y-617178D01*
X-62449Y-617143D01*
X-62334Y-617112D01*
X-62217Y-617084D01*
X-62100Y-617061D01*
X-61983Y-617041D01*
X-61864Y-617025D01*
X-61745Y-617013D01*
X-61626Y-617005D01*
X-61507Y-617001D01*
X-61387Y-617001D01*
X-61268Y-617005D01*
X-61149Y-617013D01*
X-61030Y-617025D01*
X-60911Y-617041D01*
X-60794Y-617061D01*
X-60677Y-617084D01*
X-60560Y-617112D01*
X-60445Y-617143D01*
X-60331Y-617178D01*
X-60218Y-617217D01*
X-60106Y-617259D01*
X-59996Y-617305D01*
X-59888Y-617355D01*
X-59781Y-617408D01*
X-59676Y-617465D01*
X-59572Y-617525D01*
X-59471Y-617589D01*
X-59373Y-617656D01*
X-59276Y-617726D01*
X-59182Y-617800D01*
X-59090Y-617876D01*
X-59001Y-617956D01*
X-58914Y-618038D01*
X-58830Y-618123D01*
X-58749Y-618211D01*
X-58672Y-618301D01*
X-58597Y-618394D01*
X-58525Y-618490D01*
X-58456Y-618588D01*
X-58391Y-618688D01*
X-58329Y-618790D01*
X-58270Y-618894D01*
X-58215Y-619000D01*
X-58164Y-619108D01*
X-58116Y-619217D01*
X-58071Y-619328D01*
X-58031Y-619440D01*
X-57994Y-619554D01*
X-57961Y-619669D01*
X-57931Y-619784D01*
X-57906Y-619901D01*
X-57884Y-620018D01*
X-57867Y-620137D01*
X-57853Y-620255D01*
X-57843Y-620374D01*
X-57837Y-620494D01*
X-57835Y-620613D01*
X-57835Y-624226D01*
X-57837Y-624345D01*
X-57843Y-624465D01*
X-57853Y-624584D01*
X-57867Y-624702D01*
X-57884Y-624821D01*
X-57906Y-624938D01*
X-57931Y-625055D01*
X-57961Y-625170D01*
X-57994Y-625285D01*
X-58031Y-625399D01*
X-58071Y-625511D01*
X-58116Y-625622D01*
X-58164Y-625731D01*
X-58215Y-625839D01*
X-58270Y-625945D01*
X-58329Y-626049D01*
X-58391Y-626151D01*
X-58456Y-626251D01*
X-58525Y-626349D01*
X-58597Y-626445D01*
X-58672Y-626538D01*
X-58749Y-626628D01*
X-58830Y-626716D01*
X-58914Y-626801D01*
X-59001Y-626883D01*
X-59090Y-626963D01*
X-59182Y-627039D01*
X-59276Y-627113D01*
X-59373Y-627183D01*
X-59471Y-627250D01*
X-59572Y-627314D01*
X-59676Y-627374D01*
X-59781Y-627431D01*
X-59888Y-627484D01*
X-59996Y-627534D01*
X-60106Y-627580D01*
X-60218Y-627622D01*
X-60331Y-627661D01*
X-60445Y-627696D01*
X-60560Y-627727D01*
X-60677Y-627755D01*
X-60794Y-627778D01*
X-60911Y-627798D01*
X-61030Y-627814D01*
X-61149Y-627826D01*
X-61268Y-627834D01*
X-61387Y-627838D01*
X-61507Y-627838D01*
X-61626Y-627834D01*
X-61745Y-627826D01*
X-61864Y-627814D01*
X-61983Y-627798D01*
X-62100Y-627778D01*
X-62217Y-627755D01*
X-62334Y-627727D01*
X-62449Y-627696D01*
X-62563Y-627661D01*
X-62676Y-627622D01*
X-62788Y-627580D01*
X-62898Y-627534D01*
X-63006Y-627484D01*
X-63113Y-627431D01*
X-63218Y-627374D01*
X-63322Y-627314D01*
X-63423Y-627250D01*
X-63521Y-627183D01*
X-63618Y-627113D01*
X-63712Y-627039D01*
X-63804Y-626963D01*
X-63893Y-626883D01*
X-63980Y-626801D01*
X-64064Y-626716D01*
X-64145Y-626628D01*
X-64222Y-626538D01*
X-64297Y-626445D01*
X-64369Y-626349D01*
X-64438Y-626251D01*
X-64503Y-626151D01*
X-64565Y-626049D01*
X-64624Y-625945D01*
X-64679Y-625839D01*
X-64730Y-625731D01*
X-64778Y-625622D01*
X-64823Y-625511D01*
X-64863Y-625399D01*
X-64900Y-625285D01*
X-64933Y-625170D01*
X-64963Y-625055D01*
X-64988Y-624938D01*
X-65010Y-624821D01*
X-65027Y-624702D01*
X-65041Y-624584D01*
X-65051Y-624465D01*
X-65057Y-624345D01*
X-65059Y-624226D01*
X-50714Y-627838D02*
X-50714Y-617001D01*
X-42586Y-617001D01*
X-42485Y-617003D01*
X-42384Y-617009D01*
X-42283Y-617018D01*
X-42182Y-617031D01*
X-42082Y-617048D01*
X-41983Y-617069D01*
X-41885Y-617093D01*
X-41788Y-617121D01*
X-41691Y-617153D01*
X-41596Y-617188D01*
X-41503Y-617227D01*
X-41411Y-617269D01*
X-41320Y-617315D01*
X-41232Y-617364D01*
X-41145Y-617416D01*
X-41060Y-617472D01*
X-40977Y-617530D01*
X-40897Y-617592D01*
X-40819Y-617657D01*
X-40743Y-617724D01*
X-40670Y-617794D01*
X-40600Y-617867D01*
X-40533Y-617943D01*
X-40468Y-618021D01*
X-40406Y-618101D01*
X-40348Y-618184D01*
X-40292Y-618269D01*
X-40240Y-618356D01*
X-40191Y-618444D01*
X-40145Y-618535D01*
X-40103Y-618627D01*
X-40064Y-618720D01*
X-40029Y-618815D01*
X-39997Y-618912D01*
X-39969Y-619009D01*
X-39945Y-619107D01*
X-39924Y-619206D01*
X-39907Y-619306D01*
X-39894Y-619407D01*
X-39885Y-619508D01*
X-39879Y-619609D01*
X-39877Y-619710D01*
X-39876Y-619710D02*
X-39876Y-627838D01*
X-45295Y-627838D02*
X-45295Y-617001D01*
X-19382Y-627838D02*
X-19264Y-627836D01*
X-19146Y-627830D01*
X-19028Y-627821D01*
X-18911Y-627807D01*
X-18794Y-627790D01*
X-18677Y-627769D01*
X-18562Y-627744D01*
X-18447Y-627715D01*
X-18333Y-627682D01*
X-18221Y-627646D01*
X-18110Y-627606D01*
X-18000Y-627563D01*
X-17891Y-627516D01*
X-17784Y-627466D01*
X-17679Y-627411D01*
X-17576Y-627354D01*
X-17475Y-627293D01*
X-17375Y-627229D01*
X-17278Y-627162D01*
X-17183Y-627092D01*
X-17091Y-627018D01*
X-17000Y-626942D01*
X-16913Y-626862D01*
X-16828Y-626780D01*
X-16746Y-626695D01*
X-16666Y-626608D01*
X-16590Y-626517D01*
X-16516Y-626425D01*
X-16446Y-626330D01*
X-16379Y-626233D01*
X-16315Y-626133D01*
X-16254Y-626032D01*
X-16197Y-625929D01*
X-16142Y-625824D01*
X-16092Y-625717D01*
X-16045Y-625608D01*
X-16002Y-625498D01*
X-15962Y-625387D01*
X-15926Y-625275D01*
X-15893Y-625161D01*
X-15864Y-625046D01*
X-15839Y-624931D01*
X-15818Y-624814D01*
X-15801Y-624697D01*
X-15787Y-624580D01*
X-15778Y-624462D01*
X-15772Y-624344D01*
X-15770Y-624226D01*
X-19382Y-627838D02*
X-19565Y-627836D01*
X-19747Y-627829D01*
X-19929Y-627818D01*
X-20111Y-627803D01*
X-20293Y-627783D01*
X-20474Y-627759D01*
X-20654Y-627731D01*
X-20834Y-627699D01*
X-21013Y-627662D01*
X-21190Y-627621D01*
X-21367Y-627575D01*
X-21543Y-627526D01*
X-21718Y-627472D01*
X-21891Y-627414D01*
X-22062Y-627352D01*
X-22233Y-627286D01*
X-22401Y-627215D01*
X-22568Y-627141D01*
X-22733Y-627063D01*
X-22896Y-626981D01*
X-23057Y-626895D01*
X-23216Y-626805D01*
X-23373Y-626711D01*
X-23527Y-626614D01*
X-23679Y-626513D01*
X-23829Y-626408D01*
X-23976Y-626300D01*
X-24120Y-626189D01*
X-24262Y-626074D01*
X-24401Y-625955D01*
X-24537Y-625833D01*
X-24670Y-625708D01*
X-24800Y-625580D01*
X-24350Y-615194D02*
X-24348Y-615076D01*
X-24342Y-614958D01*
X-24333Y-614840D01*
X-24319Y-614722D01*
X-24302Y-614605D01*
X-24281Y-614489D01*
X-24256Y-614374D01*
X-24227Y-614259D01*
X-24194Y-614145D01*
X-24158Y-614033D01*
X-24118Y-613921D01*
X-24075Y-613811D01*
X-24028Y-613703D01*
X-23977Y-613596D01*
X-23923Y-613491D01*
X-23866Y-613388D01*
X-23805Y-613286D01*
X-23741Y-613187D01*
X-23674Y-613090D01*
X-23603Y-612995D01*
X-23530Y-612902D01*
X-23453Y-612812D01*
X-23374Y-612724D01*
X-23292Y-612639D01*
X-23207Y-612557D01*
X-23119Y-612478D01*
X-23029Y-612401D01*
X-22936Y-612328D01*
X-22842Y-612257D01*
X-22744Y-612190D01*
X-22645Y-612126D01*
X-22544Y-612065D01*
X-22440Y-612008D01*
X-22335Y-611954D01*
X-22228Y-611903D01*
X-22120Y-611856D01*
X-22010Y-611813D01*
X-21898Y-611773D01*
X-21786Y-611737D01*
X-21672Y-611704D01*
X-21557Y-611675D01*
X-21442Y-611650D01*
X-21326Y-611629D01*
X-21209Y-611612D01*
X-21091Y-611598D01*
X-20973Y-611589D01*
X-20855Y-611583D01*
X-20737Y-611581D01*
X-20737Y-611582D02*
X-20576Y-611584D01*
X-20414Y-611590D01*
X-20253Y-611599D01*
X-20092Y-611613D01*
X-19932Y-611630D01*
X-19772Y-611651D01*
X-19612Y-611676D01*
X-19453Y-611705D01*
X-19295Y-611737D01*
X-19138Y-611773D01*
X-18982Y-611813D01*
X-18826Y-611857D01*
X-18672Y-611905D01*
X-18519Y-611956D01*
X-18367Y-612010D01*
X-18216Y-612069D01*
X-18067Y-612130D01*
X-17920Y-612196D01*
X-17774Y-612265D01*
X-17629Y-612337D01*
X-17487Y-612413D01*
X-17346Y-612492D01*
X-17207Y-612574D01*
X-17071Y-612660D01*
X-16936Y-612749D01*
X-16803Y-612841D01*
X-16673Y-612937D01*
X-22543Y-618355D02*
X-22644Y-618293D01*
X-22744Y-618228D01*
X-22841Y-618159D01*
X-22936Y-618087D01*
X-23029Y-618013D01*
X-23119Y-617935D01*
X-23207Y-617854D01*
X-23292Y-617771D01*
X-23374Y-617685D01*
X-23453Y-617596D01*
X-23530Y-617505D01*
X-23603Y-617411D01*
X-23674Y-617315D01*
X-23741Y-617217D01*
X-23805Y-617117D01*
X-23866Y-617014D01*
X-23923Y-616910D01*
X-23977Y-616804D01*
X-24027Y-616696D01*
X-24074Y-616587D01*
X-24118Y-616476D01*
X-24158Y-616364D01*
X-24194Y-616250D01*
X-24226Y-616136D01*
X-24255Y-616020D01*
X-24280Y-615904D01*
X-24301Y-615787D01*
X-24318Y-615669D01*
X-24332Y-615551D01*
X-24341Y-615432D01*
X-24347Y-615313D01*
X-24349Y-615194D01*
X-17575Y-621065D02*
X-17474Y-621127D01*
X-17374Y-621192D01*
X-17277Y-621261D01*
X-17182Y-621333D01*
X-17089Y-621407D01*
X-16999Y-621485D01*
X-16911Y-621566D01*
X-16826Y-621649D01*
X-16744Y-621735D01*
X-16665Y-621824D01*
X-16588Y-621915D01*
X-16515Y-622009D01*
X-16444Y-622105D01*
X-16377Y-622203D01*
X-16313Y-622303D01*
X-16252Y-622406D01*
X-16195Y-622510D01*
X-16141Y-622616D01*
X-16091Y-622724D01*
X-16044Y-622833D01*
X-16000Y-622944D01*
X-15960Y-623056D01*
X-15924Y-623170D01*
X-15892Y-623284D01*
X-15863Y-623400D01*
X-15838Y-623516D01*
X-15817Y-623633D01*
X-15800Y-623751D01*
X-15786Y-623869D01*
X-15777Y-623988D01*
X-15771Y-624107D01*
X-15769Y-624226D01*
X-17576Y-621065D02*
X-22543Y-618355D01*
X-9864Y-617001D02*
X-9864Y-627838D01*
X-10316Y-612485D02*
X-10316Y-611582D01*
X-9413Y-611582D01*
X-9413Y-612485D01*
X-10316Y-612485D01*
X-3340Y-611582D02*
X-3340Y-625129D01*
X-3338Y-625230D01*
X-3332Y-625331D01*
X-3323Y-625432D01*
X-3310Y-625533D01*
X-3293Y-625633D01*
X-3272Y-625732D01*
X-3248Y-625830D01*
X-3220Y-625927D01*
X-3188Y-626024D01*
X-3153Y-626119D01*
X-3114Y-626212D01*
X-3072Y-626304D01*
X-3026Y-626395D01*
X-2977Y-626484D01*
X-2925Y-626570D01*
X-2869Y-626655D01*
X-2811Y-626738D01*
X-2749Y-626818D01*
X-2684Y-626896D01*
X-2617Y-626972D01*
X-2547Y-627045D01*
X-2474Y-627115D01*
X-2398Y-627182D01*
X-2320Y-627247D01*
X-2240Y-627309D01*
X-2157Y-627367D01*
X-2072Y-627423D01*
X-1985Y-627475D01*
X-1897Y-627524D01*
X-1806Y-627570D01*
X-1714Y-627612D01*
X-1621Y-627651D01*
X-1526Y-627686D01*
X-1429Y-627718D01*
X-1332Y-627746D01*
X-1234Y-627770D01*
X-1135Y-627791D01*
X-1035Y-627808D01*
X-934Y-627821D01*
X-833Y-627830D01*
X-732Y-627836D01*
X-631Y-627838D01*
X5449Y-627838D02*
X5449Y-611582D01*
X12674Y-617001D02*
X5449Y-622419D01*
X8610Y-620162D02*
X12674Y-627838D01*
X19661Y-621516D02*
X24177Y-623322D01*
X19661Y-621516D02*
X19573Y-621479D01*
X19487Y-621438D01*
X19402Y-621394D01*
X19319Y-621346D01*
X19239Y-621295D01*
X19160Y-621241D01*
X19084Y-621183D01*
X19010Y-621123D01*
X18938Y-621059D01*
X18870Y-620993D01*
X18804Y-620923D01*
X18741Y-620852D01*
X18680Y-620777D01*
X18623Y-620701D01*
X18570Y-620622D01*
X18519Y-620541D01*
X18472Y-620458D01*
X18428Y-620373D01*
X18388Y-620286D01*
X18351Y-620198D01*
X18318Y-620108D01*
X18288Y-620017D01*
X18263Y-619925D01*
X18241Y-619832D01*
X18223Y-619738D01*
X18208Y-619644D01*
X18198Y-619549D01*
X18192Y-619453D01*
X18189Y-619358D01*
X18190Y-619262D01*
X18196Y-619167D01*
X18205Y-619071D01*
X18218Y-618977D01*
X18234Y-618883D01*
X18255Y-618789D01*
X18280Y-618697D01*
X18308Y-618606D01*
X18340Y-618516D01*
X18375Y-618427D01*
X18414Y-618340D01*
X18457Y-618254D01*
X18503Y-618170D01*
X18553Y-618089D01*
X18605Y-618009D01*
X18661Y-617931D01*
X18721Y-617856D01*
X18783Y-617784D01*
X18848Y-617714D01*
X18916Y-617646D01*
X18986Y-617582D01*
X19059Y-617520D01*
X19135Y-617462D01*
X19213Y-617406D01*
X19293Y-617354D01*
X19375Y-617305D01*
X19459Y-617260D01*
X19545Y-617218D01*
X19632Y-617179D01*
X19721Y-617144D01*
X19812Y-617113D01*
X19903Y-617086D01*
X19996Y-617062D01*
X20089Y-617042D01*
X20183Y-617026D01*
X20278Y-617014D01*
X20373Y-617005D01*
X20469Y-617001D01*
X20564Y-617000D01*
X20811Y-617007D01*
X21057Y-617019D01*
X21303Y-617037D01*
X21549Y-617062D01*
X21793Y-617092D01*
X22037Y-617128D01*
X22280Y-617170D01*
X22522Y-617217D01*
X22763Y-617271D01*
X23002Y-617330D01*
X23240Y-617395D01*
X23477Y-617466D01*
X23711Y-617542D01*
X23944Y-617624D01*
X24174Y-617712D01*
X24402Y-617805D01*
X24629Y-617903D01*
X24177Y-623323D02*
X24265Y-623360D01*
X24351Y-623401D01*
X24436Y-623445D01*
X24519Y-623493D01*
X24599Y-623544D01*
X24678Y-623598D01*
X24754Y-623656D01*
X24828Y-623716D01*
X24900Y-623780D01*
X24968Y-623846D01*
X25034Y-623916D01*
X25097Y-623987D01*
X25158Y-624062D01*
X25215Y-624138D01*
X25268Y-624217D01*
X25319Y-624298D01*
X25366Y-624381D01*
X25410Y-624466D01*
X25450Y-624553D01*
X25487Y-624641D01*
X25520Y-624731D01*
X25550Y-624822D01*
X25575Y-624914D01*
X25597Y-625007D01*
X25615Y-625101D01*
X25630Y-625195D01*
X25640Y-625290D01*
X25646Y-625386D01*
X25649Y-625481D01*
X25648Y-625577D01*
X25642Y-625672D01*
X25633Y-625768D01*
X25620Y-625862D01*
X25604Y-625956D01*
X25583Y-626050D01*
X25558Y-626142D01*
X25530Y-626233D01*
X25498Y-626323D01*
X25463Y-626412D01*
X25424Y-626499D01*
X25381Y-626585D01*
X25335Y-626669D01*
X25285Y-626750D01*
X25233Y-626830D01*
X25177Y-626908D01*
X25117Y-626983D01*
X25055Y-627055D01*
X24990Y-627125D01*
X24922Y-627193D01*
X24852Y-627257D01*
X24779Y-627319D01*
X24703Y-627377D01*
X24625Y-627433D01*
X24545Y-627485D01*
X24463Y-627534D01*
X24379Y-627579D01*
X24293Y-627621D01*
X24206Y-627660D01*
X24117Y-627695D01*
X24026Y-627726D01*
X23935Y-627753D01*
X23842Y-627777D01*
X23749Y-627797D01*
X23655Y-627813D01*
X23560Y-627825D01*
X23465Y-627834D01*
X23369Y-627838D01*
X23274Y-627839D01*
X23274Y-627838D02*
X22912Y-627829D01*
X22550Y-627811D01*
X22189Y-627784D01*
X21829Y-627749D01*
X21469Y-627706D01*
X21110Y-627654D01*
X20753Y-627593D01*
X20398Y-627524D01*
X20044Y-627447D01*
X19692Y-627361D01*
X19342Y-627267D01*
X18994Y-627164D01*
X18649Y-627054D01*
X18307Y-626935D01*
X34581Y-627838D02*
X38193Y-627838D01*
X34581Y-627838D02*
X34480Y-627836D01*
X34379Y-627830D01*
X34278Y-627821D01*
X34177Y-627808D01*
X34077Y-627791D01*
X33978Y-627770D01*
X33880Y-627746D01*
X33783Y-627718D01*
X33686Y-627686D01*
X33591Y-627651D01*
X33498Y-627612D01*
X33406Y-627570D01*
X33315Y-627524D01*
X33227Y-627475D01*
X33140Y-627423D01*
X33055Y-627367D01*
X32972Y-627309D01*
X32892Y-627247D01*
X32814Y-627182D01*
X32738Y-627115D01*
X32665Y-627045D01*
X32595Y-626972D01*
X32528Y-626896D01*
X32463Y-626818D01*
X32401Y-626738D01*
X32343Y-626655D01*
X32287Y-626570D01*
X32235Y-626484D01*
X32186Y-626395D01*
X32140Y-626304D01*
X32098Y-626212D01*
X32059Y-626119D01*
X32024Y-626024D01*
X31992Y-625927D01*
X31964Y-625830D01*
X31940Y-625732D01*
X31919Y-625633D01*
X31902Y-625533D01*
X31889Y-625432D01*
X31880Y-625331D01*
X31874Y-625230D01*
X31872Y-625129D01*
X31871Y-625129D02*
X31871Y-619710D01*
X31872Y-619710D02*
X31874Y-619609D01*
X31880Y-619508D01*
X31889Y-619407D01*
X31902Y-619306D01*
X31919Y-619206D01*
X31940Y-619107D01*
X31964Y-619009D01*
X31992Y-618912D01*
X32024Y-618815D01*
X32059Y-618720D01*
X32098Y-618627D01*
X32140Y-618535D01*
X32186Y-618444D01*
X32235Y-618356D01*
X32287Y-618269D01*
X32343Y-618184D01*
X32401Y-618101D01*
X32463Y-618021D01*
X32528Y-617943D01*
X32595Y-617867D01*
X32665Y-617794D01*
X32738Y-617724D01*
X32814Y-617657D01*
X32892Y-617592D01*
X32972Y-617530D01*
X33055Y-617472D01*
X33140Y-617416D01*
X33227Y-617364D01*
X33315Y-617315D01*
X33406Y-617269D01*
X33498Y-617227D01*
X33591Y-617188D01*
X33686Y-617153D01*
X33783Y-617121D01*
X33880Y-617093D01*
X33978Y-617069D01*
X34077Y-617048D01*
X34177Y-617031D01*
X34278Y-617018D01*
X34379Y-617009D01*
X34480Y-617003D01*
X34581Y-617001D01*
X38193Y-617001D01*
X44444Y-617001D02*
X44444Y-627838D01*
X44444Y-617001D02*
X49862Y-617001D01*
X49862Y-618807D01*
X57489Y-627838D02*
X62004Y-627838D01*
X57489Y-627838D02*
X57388Y-627836D01*
X57287Y-627830D01*
X57186Y-627821D01*
X57085Y-627808D01*
X56985Y-627791D01*
X56886Y-627770D01*
X56788Y-627746D01*
X56691Y-627718D01*
X56594Y-627686D01*
X56499Y-627651D01*
X56406Y-627612D01*
X56314Y-627570D01*
X56223Y-627524D01*
X56135Y-627475D01*
X56048Y-627423D01*
X55963Y-627367D01*
X55880Y-627309D01*
X55800Y-627247D01*
X55722Y-627182D01*
X55646Y-627115D01*
X55573Y-627045D01*
X55503Y-626972D01*
X55436Y-626896D01*
X55371Y-626818D01*
X55309Y-626738D01*
X55251Y-626655D01*
X55195Y-626570D01*
X55143Y-626484D01*
X55094Y-626395D01*
X55048Y-626304D01*
X55006Y-626212D01*
X54967Y-626119D01*
X54932Y-626024D01*
X54900Y-625927D01*
X54872Y-625830D01*
X54848Y-625732D01*
X54827Y-625633D01*
X54810Y-625533D01*
X54797Y-625432D01*
X54788Y-625331D01*
X54782Y-625230D01*
X54780Y-625129D01*
X54780Y-620613D01*
X54782Y-620494D01*
X54788Y-620374D01*
X54798Y-620255D01*
X54812Y-620137D01*
X54829Y-620018D01*
X54851Y-619901D01*
X54876Y-619784D01*
X54906Y-619669D01*
X54939Y-619554D01*
X54976Y-619440D01*
X55016Y-619328D01*
X55061Y-619217D01*
X55109Y-619108D01*
X55160Y-619000D01*
X55215Y-618894D01*
X55274Y-618790D01*
X55336Y-618688D01*
X55401Y-618588D01*
X55470Y-618490D01*
X55542Y-618394D01*
X55617Y-618301D01*
X55694Y-618211D01*
X55775Y-618123D01*
X55859Y-618038D01*
X55946Y-617956D01*
X56035Y-617876D01*
X56127Y-617800D01*
X56221Y-617726D01*
X56318Y-617656D01*
X56416Y-617589D01*
X56517Y-617525D01*
X56621Y-617465D01*
X56726Y-617408D01*
X56833Y-617355D01*
X56941Y-617305D01*
X57051Y-617259D01*
X57163Y-617217D01*
X57276Y-617178D01*
X57390Y-617143D01*
X57505Y-617112D01*
X57622Y-617084D01*
X57739Y-617061D01*
X57856Y-617041D01*
X57975Y-617025D01*
X58094Y-617013D01*
X58213Y-617005D01*
X58332Y-617001D01*
X58452Y-617001D01*
X58571Y-617005D01*
X58690Y-617013D01*
X58809Y-617025D01*
X58928Y-617041D01*
X59045Y-617061D01*
X59162Y-617084D01*
X59279Y-617112D01*
X59394Y-617143D01*
X59508Y-617178D01*
X59621Y-617217D01*
X59733Y-617259D01*
X59843Y-617305D01*
X59951Y-617355D01*
X60058Y-617408D01*
X60163Y-617465D01*
X60267Y-617525D01*
X60368Y-617589D01*
X60466Y-617656D01*
X60563Y-617726D01*
X60657Y-617800D01*
X60749Y-617876D01*
X60838Y-617956D01*
X60925Y-618038D01*
X61009Y-618123D01*
X61090Y-618211D01*
X61167Y-618301D01*
X61242Y-618394D01*
X61314Y-618490D01*
X61383Y-618588D01*
X61448Y-618688D01*
X61510Y-618790D01*
X61569Y-618894D01*
X61624Y-619000D01*
X61675Y-619108D01*
X61723Y-619217D01*
X61768Y-619328D01*
X61808Y-619440D01*
X61845Y-619554D01*
X61878Y-619669D01*
X61908Y-619784D01*
X61933Y-619901D01*
X61955Y-620018D01*
X61972Y-620137D01*
X61986Y-620255D01*
X61996Y-620374D01*
X62002Y-620494D01*
X62004Y-620613D01*
X62004Y-622419D01*
X54780Y-622419D01*
X71036Y-627838D02*
X75552Y-627838D01*
X71036Y-627838D02*
X70935Y-627836D01*
X70834Y-627830D01*
X70733Y-627821D01*
X70632Y-627808D01*
X70532Y-627791D01*
X70433Y-627770D01*
X70335Y-627746D01*
X70238Y-627718D01*
X70141Y-627686D01*
X70046Y-627651D01*
X69953Y-627612D01*
X69861Y-627570D01*
X69770Y-627524D01*
X69682Y-627475D01*
X69595Y-627423D01*
X69510Y-627367D01*
X69427Y-627309D01*
X69347Y-627247D01*
X69269Y-627182D01*
X69193Y-627115D01*
X69120Y-627045D01*
X69050Y-626972D01*
X68983Y-626896D01*
X68918Y-626818D01*
X68856Y-626738D01*
X68798Y-626655D01*
X68742Y-626570D01*
X68690Y-626484D01*
X68641Y-626395D01*
X68595Y-626304D01*
X68553Y-626212D01*
X68514Y-626119D01*
X68479Y-626024D01*
X68447Y-625927D01*
X68419Y-625830D01*
X68395Y-625732D01*
X68374Y-625633D01*
X68357Y-625533D01*
X68344Y-625432D01*
X68335Y-625331D01*
X68329Y-625230D01*
X68327Y-625129D01*
X68327Y-620613D01*
X68329Y-620494D01*
X68335Y-620374D01*
X68345Y-620255D01*
X68359Y-620137D01*
X68376Y-620018D01*
X68398Y-619901D01*
X68423Y-619784D01*
X68453Y-619669D01*
X68486Y-619554D01*
X68523Y-619440D01*
X68563Y-619328D01*
X68608Y-619217D01*
X68656Y-619108D01*
X68707Y-619000D01*
X68762Y-618894D01*
X68821Y-618790D01*
X68883Y-618688D01*
X68948Y-618588D01*
X69017Y-618490D01*
X69089Y-618394D01*
X69164Y-618301D01*
X69241Y-618211D01*
X69322Y-618123D01*
X69406Y-618038D01*
X69493Y-617956D01*
X69582Y-617876D01*
X69674Y-617800D01*
X69768Y-617726D01*
X69865Y-617656D01*
X69963Y-617589D01*
X70064Y-617525D01*
X70168Y-617465D01*
X70273Y-617408D01*
X70380Y-617355D01*
X70488Y-617305D01*
X70598Y-617259D01*
X70710Y-617217D01*
X70823Y-617178D01*
X70937Y-617143D01*
X71052Y-617112D01*
X71169Y-617084D01*
X71286Y-617061D01*
X71403Y-617041D01*
X71522Y-617025D01*
X71641Y-617013D01*
X71760Y-617005D01*
X71879Y-617001D01*
X71999Y-617001D01*
X72118Y-617005D01*
X72237Y-617013D01*
X72356Y-617025D01*
X72475Y-617041D01*
X72592Y-617061D01*
X72709Y-617084D01*
X72826Y-617112D01*
X72941Y-617143D01*
X73055Y-617178D01*
X73168Y-617217D01*
X73280Y-617259D01*
X73390Y-617305D01*
X73498Y-617355D01*
X73605Y-617408D01*
X73710Y-617465D01*
X73814Y-617525D01*
X73915Y-617589D01*
X74013Y-617656D01*
X74110Y-617726D01*
X74204Y-617800D01*
X74296Y-617876D01*
X74385Y-617956D01*
X74472Y-618038D01*
X74556Y-618123D01*
X74637Y-618211D01*
X74714Y-618301D01*
X74789Y-618394D01*
X74861Y-618490D01*
X74930Y-618588D01*
X74995Y-618688D01*
X75057Y-618790D01*
X75116Y-618894D01*
X75171Y-619000D01*
X75222Y-619108D01*
X75270Y-619217D01*
X75315Y-619328D01*
X75355Y-619440D01*
X75392Y-619554D01*
X75425Y-619669D01*
X75455Y-619784D01*
X75480Y-619901D01*
X75502Y-620018D01*
X75519Y-620137D01*
X75533Y-620255D01*
X75543Y-620374D01*
X75549Y-620494D01*
X75551Y-620613D01*
X75552Y-620613D02*
X75552Y-622419D01*
X68327Y-622419D01*
X84583Y-627838D02*
X89099Y-627838D01*
X84583Y-627838D02*
X84482Y-627836D01*
X84381Y-627830D01*
X84280Y-627821D01*
X84179Y-627808D01*
X84079Y-627791D01*
X83980Y-627770D01*
X83882Y-627746D01*
X83785Y-627718D01*
X83688Y-627686D01*
X83593Y-627651D01*
X83500Y-627612D01*
X83408Y-627570D01*
X83317Y-627524D01*
X83229Y-627475D01*
X83142Y-627423D01*
X83057Y-627367D01*
X82974Y-627309D01*
X82894Y-627247D01*
X82816Y-627182D01*
X82740Y-627115D01*
X82667Y-627045D01*
X82597Y-626972D01*
X82530Y-626896D01*
X82465Y-626818D01*
X82403Y-626738D01*
X82345Y-626655D01*
X82289Y-626570D01*
X82237Y-626484D01*
X82188Y-626395D01*
X82142Y-626304D01*
X82100Y-626212D01*
X82061Y-626119D01*
X82026Y-626024D01*
X81994Y-625927D01*
X81966Y-625830D01*
X81942Y-625732D01*
X81921Y-625633D01*
X81904Y-625533D01*
X81891Y-625432D01*
X81882Y-625331D01*
X81876Y-625230D01*
X81874Y-625129D01*
X81874Y-620613D01*
X81876Y-620494D01*
X81882Y-620374D01*
X81892Y-620255D01*
X81906Y-620137D01*
X81923Y-620018D01*
X81945Y-619901D01*
X81970Y-619784D01*
X82000Y-619669D01*
X82033Y-619554D01*
X82070Y-619440D01*
X82110Y-619328D01*
X82155Y-619217D01*
X82203Y-619108D01*
X82254Y-619000D01*
X82309Y-618894D01*
X82368Y-618790D01*
X82430Y-618688D01*
X82495Y-618588D01*
X82564Y-618490D01*
X82636Y-618394D01*
X82711Y-618301D01*
X82788Y-618211D01*
X82869Y-618123D01*
X82953Y-618038D01*
X83040Y-617956D01*
X83129Y-617876D01*
X83221Y-617800D01*
X83315Y-617726D01*
X83412Y-617656D01*
X83510Y-617589D01*
X83611Y-617525D01*
X83715Y-617465D01*
X83820Y-617408D01*
X83927Y-617355D01*
X84035Y-617305D01*
X84145Y-617259D01*
X84257Y-617217D01*
X84370Y-617178D01*
X84484Y-617143D01*
X84599Y-617112D01*
X84716Y-617084D01*
X84833Y-617061D01*
X84950Y-617041D01*
X85069Y-617025D01*
X85188Y-617013D01*
X85307Y-617005D01*
X85426Y-617001D01*
X85546Y-617001D01*
X85665Y-617005D01*
X85784Y-617013D01*
X85903Y-617025D01*
X86022Y-617041D01*
X86139Y-617061D01*
X86256Y-617084D01*
X86373Y-617112D01*
X86488Y-617143D01*
X86602Y-617178D01*
X86715Y-617217D01*
X86827Y-617259D01*
X86937Y-617305D01*
X87045Y-617355D01*
X87152Y-617408D01*
X87257Y-617465D01*
X87361Y-617525D01*
X87462Y-617589D01*
X87560Y-617656D01*
X87657Y-617726D01*
X87751Y-617800D01*
X87843Y-617876D01*
X87932Y-617956D01*
X88019Y-618038D01*
X88103Y-618123D01*
X88184Y-618211D01*
X88261Y-618301D01*
X88336Y-618394D01*
X88408Y-618490D01*
X88477Y-618588D01*
X88542Y-618688D01*
X88604Y-618790D01*
X88663Y-618894D01*
X88718Y-619000D01*
X88769Y-619108D01*
X88817Y-619217D01*
X88862Y-619328D01*
X88902Y-619440D01*
X88939Y-619554D01*
X88972Y-619669D01*
X89002Y-619784D01*
X89027Y-619901D01*
X89049Y-620018D01*
X89066Y-620137D01*
X89080Y-620255D01*
X89090Y-620374D01*
X89096Y-620494D01*
X89098Y-620613D01*
X89099Y-620613D02*
X89099Y-622419D01*
X81874Y-622419D01*
X95942Y-627838D02*
X95942Y-617001D01*
X100457Y-617001D01*
X100561Y-617003D01*
X100664Y-617009D01*
X100768Y-617019D01*
X100871Y-617033D01*
X100973Y-617051D01*
X101074Y-617072D01*
X101175Y-617098D01*
X101274Y-617127D01*
X101373Y-617160D01*
X101470Y-617197D01*
X101565Y-617238D01*
X101659Y-617282D01*
X101751Y-617330D01*
X101841Y-617381D01*
X101930Y-617436D01*
X102016Y-617494D01*
X102099Y-617556D01*
X102181Y-617620D01*
X102259Y-617688D01*
X102335Y-617758D01*
X102409Y-617831D01*
X102479Y-617908D01*
X102547Y-617986D01*
X102611Y-618068D01*
X102673Y-618151D01*
X102731Y-618237D01*
X102786Y-618326D01*
X102837Y-618416D01*
X102885Y-618508D01*
X102929Y-618602D01*
X102970Y-618697D01*
X103007Y-618794D01*
X103040Y-618893D01*
X103069Y-618992D01*
X103095Y-619093D01*
X103116Y-619194D01*
X103134Y-619296D01*
X103148Y-619399D01*
X103158Y-619503D01*
X103164Y-619606D01*
X103166Y-619710D01*
X103167Y-619710D02*
X103167Y-627838D01*
M02*
