G04 EAGLE Gerber RS-274X export*
G75*
%MOMM*%
%FSLAX34Y34*%
%LPD*%
%INSolder stop mask CMP*%
%IPPOS*%
%AMOC8*
5,1,8,0,0,1.08239X$1,22.5*%
G01*
%ADD10R,1.152400X0.502400*%
%ADD11R,1.152400X3.302400*%
%ADD12R,1.752400X1.552400*%
%ADD13R,1.552400X1.752400*%
%ADD14R,1.714400X0.432400*%
%ADD15R,0.432400X1.714400*%
%ADD16R,2.052400X1.252400*%
%ADD17C,2.352400*%
%ADD18R,1.752400X1.152400*%
%ADD19R,0.500400X1.549400*%
%ADD20R,0.702400X1.352400*%
%ADD21R,0.559200X1.724300*%
%ADD22R,0.552400X1.502400*%
%ADD23R,2.052400X2.052400*%
%ADD24R,1.952400X2.052400*%
%ADD25R,2.252400X1.752400*%
%ADD26R,1.502400X1.502400*%
%ADD27C,1.502400*%
%ADD28R,3.322400X1.172400*%
%ADD29C,1.652400*%
%ADD30C,2.102400*%
%ADD31R,2.102400X2.102400*%
%ADD32R,1.152400X1.652400*%
%ADD33R,0.787400X1.422400*%
%ADD34R,1.422400X1.422400*%
%ADD35C,0.152400*%
%ADD36R,1.172400X3.322400*%
%ADD37R,1.352400X1.952400*%
%ADD38R,1.652400X1.952400*%
%ADD39R,1.802400X1.802400*%
%ADD40C,1.802400*%

G36*
X-254905Y264014D02*
X-254905Y264014D01*
X-254809Y264019D01*
X-254766Y264034D01*
X-254721Y264041D01*
X-254633Y264080D01*
X-254542Y264112D01*
X-254508Y264137D01*
X-254464Y264157D01*
X-254367Y264240D01*
X-254293Y264293D01*
X-249293Y269293D01*
X-249275Y269318D01*
X-249253Y269336D01*
X-249219Y269389D01*
X-249171Y269442D01*
X-249151Y269483D01*
X-249124Y269519D01*
X-249111Y269554D01*
X-249099Y269572D01*
X-249083Y269623D01*
X-249048Y269695D01*
X-249042Y269737D01*
X-249025Y269783D01*
X-249021Y269827D01*
X-249016Y269842D01*
X-249016Y269898D01*
X-249015Y269911D01*
X-249001Y270000D01*
X-249001Y280000D01*
X-249010Y280063D01*
X-249009Y280117D01*
X-249017Y280145D01*
X-249019Y280191D01*
X-249034Y280234D01*
X-249041Y280279D01*
X-249075Y280355D01*
X-249084Y280388D01*
X-249092Y280401D01*
X-249112Y280458D01*
X-249137Y280492D01*
X-249157Y280536D01*
X-249223Y280614D01*
X-249232Y280628D01*
X-249244Y280639D01*
X-249293Y280707D01*
X-254293Y285707D01*
X-254370Y285764D01*
X-254442Y285829D01*
X-254483Y285849D01*
X-254519Y285876D01*
X-254609Y285910D01*
X-254695Y285952D01*
X-254737Y285958D01*
X-254783Y285975D01*
X-254911Y285985D01*
X-255000Y285999D01*
X-265000Y285999D01*
X-265095Y285986D01*
X-265191Y285981D01*
X-265234Y285966D01*
X-265279Y285959D01*
X-265367Y285920D01*
X-265458Y285888D01*
X-265492Y285863D01*
X-265536Y285843D01*
X-265634Y285760D01*
X-265707Y285707D01*
X-270707Y280707D01*
X-270750Y280649D01*
X-270753Y280645D01*
X-270764Y280630D01*
X-270829Y280558D01*
X-270849Y280517D01*
X-270876Y280481D01*
X-270897Y280424D01*
X-270905Y280413D01*
X-270914Y280382D01*
X-270952Y280305D01*
X-270958Y280263D01*
X-270975Y280217D01*
X-270979Y280170D01*
X-270987Y280143D01*
X-270988Y280070D01*
X-270999Y280000D01*
X-270999Y270000D01*
X-270987Y269912D01*
X-270987Y269868D01*
X-270983Y269853D01*
X-270981Y269809D01*
X-270966Y269766D01*
X-270959Y269721D01*
X-270926Y269647D01*
X-270912Y269597D01*
X-270901Y269578D01*
X-270888Y269542D01*
X-270863Y269508D01*
X-270843Y269464D01*
X-270796Y269409D01*
X-270764Y269357D01*
X-270731Y269327D01*
X-270707Y269293D01*
X-265707Y264293D01*
X-265630Y264236D01*
X-265558Y264171D01*
X-265517Y264151D01*
X-265481Y264124D01*
X-265391Y264090D01*
X-265305Y264048D01*
X-265263Y264042D01*
X-265217Y264025D01*
X-265090Y264015D01*
X-265000Y264001D01*
X-255000Y264001D01*
X-254905Y264014D01*
G37*
G36*
X274602Y50603D02*
X274602Y50603D01*
X274604Y50601D01*
X274995Y50632D01*
X274999Y50636D01*
X275002Y50633D01*
X275384Y50724D01*
X275388Y50729D01*
X275392Y50727D01*
X275754Y50877D01*
X275757Y50882D01*
X275761Y50880D01*
X276095Y51085D01*
X276097Y51090D01*
X276101Y51090D01*
X276400Y51345D01*
X276401Y51350D01*
X276405Y51350D01*
X276660Y51649D01*
X276661Y51655D01*
X276665Y51655D01*
X276870Y51989D01*
X276869Y51995D01*
X276874Y51996D01*
X277024Y52358D01*
X277023Y52360D01*
X277024Y52360D01*
X277022Y52363D01*
X277022Y52364D01*
X277026Y52366D01*
X277117Y52748D01*
X277115Y52753D01*
X277117Y52754D01*
X277118Y52755D01*
X277149Y53146D01*
X277147Y53149D01*
X277149Y53150D01*
X277118Y59341D01*
X277113Y59348D01*
X277117Y59352D01*
X277026Y59734D01*
X277021Y59738D01*
X277024Y59742D01*
X276874Y60104D01*
X276868Y60107D01*
X276870Y60111D01*
X276665Y60445D01*
X276660Y60447D01*
X276660Y60451D01*
X276405Y60750D01*
X276400Y60751D01*
X276400Y60755D01*
X276101Y61010D01*
X276095Y61011D01*
X276095Y61015D01*
X275761Y61220D01*
X275755Y61219D01*
X275754Y61224D01*
X275392Y61374D01*
X275386Y61372D01*
X275384Y61376D01*
X275002Y61467D01*
X274997Y61465D01*
X274995Y61468D01*
X274604Y61499D01*
X274601Y61497D01*
X274600Y61499D01*
X265400Y61499D01*
X265398Y61497D01*
X265396Y61499D01*
X265005Y61468D01*
X265001Y61464D01*
X264998Y61467D01*
X264616Y61376D01*
X264612Y61371D01*
X264608Y61374D01*
X264246Y61224D01*
X264243Y61218D01*
X264239Y61220D01*
X263905Y61015D01*
X263903Y61010D01*
X263899Y61010D01*
X263600Y60755D01*
X263599Y60750D01*
X263595Y60750D01*
X263340Y60451D01*
X263339Y60445D01*
X263335Y60445D01*
X263130Y60111D01*
X263131Y60105D01*
X263127Y60104D01*
X262977Y59742D01*
X262978Y59736D01*
X262974Y59734D01*
X262883Y59352D01*
X262885Y59347D01*
X262882Y59345D01*
X262851Y58954D01*
X262853Y58951D01*
X262851Y58950D01*
X262882Y52759D01*
X262887Y52752D01*
X262883Y52748D01*
X262974Y52366D01*
X262979Y52362D01*
X262977Y52358D01*
X263127Y51996D01*
X263132Y51993D01*
X263130Y51989D01*
X263335Y51655D01*
X263340Y51653D01*
X263340Y51649D01*
X263595Y51350D01*
X263600Y51349D01*
X263600Y51345D01*
X263899Y51090D01*
X263905Y51089D01*
X263905Y51085D01*
X264239Y50880D01*
X264245Y50881D01*
X264246Y50877D01*
X264608Y50727D01*
X264614Y50728D01*
X264616Y50724D01*
X264998Y50633D01*
X265003Y50635D01*
X265005Y50632D01*
X265396Y50601D01*
X265399Y50603D01*
X265400Y50601D01*
X274600Y50601D01*
X274602Y50603D01*
G37*
G36*
X309602Y50603D02*
X309602Y50603D01*
X309604Y50601D01*
X309995Y50632D01*
X309999Y50636D01*
X310002Y50633D01*
X310384Y50724D01*
X310388Y50729D01*
X310392Y50727D01*
X310754Y50877D01*
X310757Y50882D01*
X310761Y50880D01*
X311095Y51085D01*
X311097Y51090D01*
X311101Y51090D01*
X311400Y51345D01*
X311401Y51350D01*
X311405Y51350D01*
X311660Y51649D01*
X311661Y51655D01*
X311665Y51655D01*
X311870Y51989D01*
X311869Y51995D01*
X311874Y51996D01*
X312024Y52358D01*
X312023Y52360D01*
X312024Y52360D01*
X312022Y52363D01*
X312022Y52364D01*
X312026Y52366D01*
X312117Y52748D01*
X312115Y52753D01*
X312117Y52754D01*
X312118Y52755D01*
X312149Y53146D01*
X312147Y53149D01*
X312149Y53150D01*
X312118Y59341D01*
X312113Y59348D01*
X312117Y59352D01*
X312026Y59734D01*
X312021Y59738D01*
X312024Y59742D01*
X311874Y60104D01*
X311868Y60107D01*
X311870Y60111D01*
X311665Y60445D01*
X311660Y60447D01*
X311660Y60451D01*
X311405Y60750D01*
X311400Y60751D01*
X311400Y60755D01*
X311101Y61010D01*
X311095Y61011D01*
X311095Y61015D01*
X310761Y61220D01*
X310755Y61219D01*
X310754Y61224D01*
X310392Y61374D01*
X310386Y61372D01*
X310384Y61376D01*
X310002Y61467D01*
X309997Y61465D01*
X309995Y61468D01*
X309604Y61499D01*
X309601Y61497D01*
X309600Y61499D01*
X300400Y61499D01*
X300398Y61497D01*
X300396Y61499D01*
X300005Y61468D01*
X300001Y61464D01*
X299998Y61467D01*
X299616Y61376D01*
X299612Y61371D01*
X299608Y61374D01*
X299246Y61224D01*
X299243Y61218D01*
X299239Y61220D01*
X298905Y61015D01*
X298903Y61010D01*
X298899Y61010D01*
X298600Y60755D01*
X298599Y60750D01*
X298595Y60750D01*
X298340Y60451D01*
X298339Y60445D01*
X298335Y60445D01*
X298130Y60111D01*
X298131Y60105D01*
X298127Y60104D01*
X297977Y59742D01*
X297978Y59736D01*
X297974Y59734D01*
X297883Y59352D01*
X297885Y59347D01*
X297882Y59345D01*
X297851Y58954D01*
X297853Y58951D01*
X297851Y58950D01*
X297882Y52759D01*
X297887Y52752D01*
X297883Y52748D01*
X297974Y52366D01*
X297979Y52362D01*
X297977Y52358D01*
X298127Y51996D01*
X298132Y51993D01*
X298130Y51989D01*
X298335Y51655D01*
X298340Y51653D01*
X298340Y51649D01*
X298595Y51350D01*
X298600Y51349D01*
X298600Y51345D01*
X298899Y51090D01*
X298905Y51089D01*
X298905Y51085D01*
X299239Y50880D01*
X299245Y50881D01*
X299246Y50877D01*
X299608Y50727D01*
X299614Y50728D01*
X299616Y50724D01*
X299998Y50633D01*
X300003Y50635D01*
X300005Y50632D01*
X300396Y50601D01*
X300399Y50603D01*
X300400Y50601D01*
X309600Y50601D01*
X309602Y50603D01*
G37*
G36*
X-5398Y15603D02*
X-5398Y15603D01*
X-5396Y15601D01*
X-5005Y15632D01*
X-5001Y15636D01*
X-4998Y15633D01*
X-4616Y15724D01*
X-4612Y15729D01*
X-4608Y15727D01*
X-4246Y15877D01*
X-4243Y15882D01*
X-4239Y15880D01*
X-3905Y16085D01*
X-3903Y16090D01*
X-3899Y16090D01*
X-3600Y16345D01*
X-3599Y16350D01*
X-3595Y16350D01*
X-3340Y16649D01*
X-3339Y16655D01*
X-3335Y16655D01*
X-3130Y16989D01*
X-3131Y16995D01*
X-3127Y16996D01*
X-2977Y17358D01*
X-2977Y17360D01*
X-2976Y17360D01*
X-2978Y17363D01*
X-2978Y17364D01*
X-2974Y17366D01*
X-2883Y17748D01*
X-2885Y17753D01*
X-2883Y17754D01*
X-2882Y17755D01*
X-2851Y18146D01*
X-2853Y18149D01*
X-2851Y18150D01*
X-2882Y24341D01*
X-2887Y24348D01*
X-2883Y24352D01*
X-2974Y24734D01*
X-2979Y24738D01*
X-2977Y24742D01*
X-3127Y25104D01*
X-3132Y25107D01*
X-3130Y25111D01*
X-3335Y25445D01*
X-3340Y25447D01*
X-3340Y25451D01*
X-3595Y25750D01*
X-3600Y25751D01*
X-3600Y25755D01*
X-3899Y26010D01*
X-3905Y26011D01*
X-3905Y26015D01*
X-4239Y26220D01*
X-4245Y26219D01*
X-4246Y26224D01*
X-4608Y26374D01*
X-4614Y26372D01*
X-4616Y26376D01*
X-4998Y26467D01*
X-5003Y26465D01*
X-5005Y26468D01*
X-5396Y26499D01*
X-5399Y26497D01*
X-5400Y26499D01*
X-14600Y26499D01*
X-14602Y26497D01*
X-14604Y26499D01*
X-14995Y26468D01*
X-14999Y26464D01*
X-15002Y26467D01*
X-15384Y26376D01*
X-15388Y26371D01*
X-15392Y26374D01*
X-15754Y26224D01*
X-15757Y26218D01*
X-15761Y26220D01*
X-16095Y26015D01*
X-16097Y26010D01*
X-16101Y26010D01*
X-16400Y25755D01*
X-16401Y25750D01*
X-16405Y25750D01*
X-16660Y25451D01*
X-16661Y25445D01*
X-16665Y25445D01*
X-16870Y25111D01*
X-16869Y25105D01*
X-16874Y25104D01*
X-17024Y24742D01*
X-17022Y24736D01*
X-17026Y24734D01*
X-17117Y24352D01*
X-17115Y24347D01*
X-17118Y24345D01*
X-17149Y23954D01*
X-17147Y23951D01*
X-17149Y23950D01*
X-17118Y17759D01*
X-17113Y17752D01*
X-17117Y17748D01*
X-17026Y17366D01*
X-17021Y17362D01*
X-17024Y17358D01*
X-16874Y16996D01*
X-16868Y16993D01*
X-16870Y16989D01*
X-16665Y16655D01*
X-16660Y16653D01*
X-16660Y16649D01*
X-16405Y16350D01*
X-16400Y16349D01*
X-16400Y16345D01*
X-16101Y16090D01*
X-16095Y16089D01*
X-16095Y16085D01*
X-15761Y15880D01*
X-15755Y15881D01*
X-15754Y15877D01*
X-15392Y15727D01*
X-15386Y15728D01*
X-15384Y15724D01*
X-15002Y15633D01*
X-14997Y15635D01*
X-14995Y15632D01*
X-14604Y15601D01*
X-14601Y15603D01*
X-14600Y15601D01*
X-5400Y15601D01*
X-5398Y15603D01*
G37*
G36*
X244602Y270603D02*
X244602Y270603D01*
X244604Y270601D01*
X244995Y270632D01*
X244999Y270636D01*
X245002Y270633D01*
X245384Y270724D01*
X245388Y270729D01*
X245392Y270727D01*
X245754Y270877D01*
X245757Y270882D01*
X245761Y270880D01*
X246095Y271085D01*
X246097Y271090D01*
X246101Y271090D01*
X246400Y271345D01*
X246401Y271350D01*
X246405Y271350D01*
X246660Y271649D01*
X246661Y271655D01*
X246665Y271655D01*
X246870Y271989D01*
X246869Y271995D01*
X246874Y271996D01*
X247024Y272358D01*
X247023Y272360D01*
X247024Y272360D01*
X247022Y272363D01*
X247022Y272364D01*
X247026Y272366D01*
X247117Y272748D01*
X247115Y272753D01*
X247117Y272754D01*
X247118Y272755D01*
X247149Y273146D01*
X247147Y273149D01*
X247149Y273150D01*
X247118Y279341D01*
X247113Y279348D01*
X247117Y279352D01*
X247026Y279734D01*
X247021Y279738D01*
X247024Y279742D01*
X246874Y280104D01*
X246868Y280107D01*
X246870Y280111D01*
X246665Y280445D01*
X246660Y280447D01*
X246660Y280451D01*
X246405Y280750D01*
X246400Y280751D01*
X246400Y280755D01*
X246101Y281010D01*
X246095Y281011D01*
X246095Y281015D01*
X245761Y281220D01*
X245755Y281219D01*
X245754Y281224D01*
X245392Y281374D01*
X245386Y281372D01*
X245384Y281376D01*
X245002Y281467D01*
X244997Y281465D01*
X244995Y281468D01*
X244604Y281499D01*
X244601Y281497D01*
X244600Y281499D01*
X235400Y281499D01*
X235398Y281497D01*
X235396Y281499D01*
X235005Y281468D01*
X235001Y281464D01*
X234998Y281467D01*
X234616Y281376D01*
X234612Y281371D01*
X234608Y281374D01*
X234246Y281224D01*
X234243Y281218D01*
X234239Y281220D01*
X233905Y281015D01*
X233903Y281010D01*
X233899Y281010D01*
X233600Y280755D01*
X233599Y280750D01*
X233595Y280750D01*
X233340Y280451D01*
X233339Y280445D01*
X233335Y280445D01*
X233130Y280111D01*
X233131Y280105D01*
X233127Y280104D01*
X232977Y279742D01*
X232978Y279736D01*
X232974Y279734D01*
X232883Y279352D01*
X232885Y279347D01*
X232882Y279345D01*
X232851Y278954D01*
X232853Y278951D01*
X232851Y278950D01*
X232882Y272759D01*
X232887Y272752D01*
X232883Y272748D01*
X232974Y272366D01*
X232979Y272362D01*
X232977Y272358D01*
X233127Y271996D01*
X233132Y271993D01*
X233130Y271989D01*
X233335Y271655D01*
X233340Y271653D01*
X233340Y271649D01*
X233595Y271350D01*
X233600Y271349D01*
X233600Y271345D01*
X233899Y271090D01*
X233905Y271089D01*
X233905Y271085D01*
X234239Y270880D01*
X234245Y270881D01*
X234246Y270877D01*
X234608Y270727D01*
X234614Y270728D01*
X234616Y270724D01*
X234998Y270633D01*
X235003Y270635D01*
X235005Y270632D01*
X235396Y270601D01*
X235399Y270603D01*
X235400Y270601D01*
X244600Y270601D01*
X244602Y270603D01*
G37*
G36*
X344602Y238503D02*
X344602Y238503D01*
X344604Y238501D01*
X344995Y238532D01*
X344999Y238536D01*
X345002Y238533D01*
X345384Y238624D01*
X345388Y238629D01*
X345392Y238627D01*
X345754Y238777D01*
X345757Y238782D01*
X345761Y238780D01*
X346095Y238985D01*
X346097Y238990D01*
X346101Y238990D01*
X346400Y239245D01*
X346401Y239250D01*
X346405Y239250D01*
X346660Y239549D01*
X346661Y239555D01*
X346665Y239555D01*
X346870Y239889D01*
X346869Y239895D01*
X346874Y239896D01*
X347024Y240258D01*
X347023Y240260D01*
X347024Y240260D01*
X347022Y240263D01*
X347022Y240264D01*
X347026Y240266D01*
X347117Y240648D01*
X347115Y240653D01*
X347117Y240654D01*
X347118Y240655D01*
X347149Y241046D01*
X347147Y241049D01*
X347149Y241050D01*
X347118Y247241D01*
X347113Y247248D01*
X347117Y247252D01*
X347026Y247634D01*
X347021Y247638D01*
X347024Y247642D01*
X346874Y248004D01*
X346868Y248007D01*
X346870Y248011D01*
X346665Y248345D01*
X346660Y248347D01*
X346660Y248351D01*
X346405Y248650D01*
X346400Y248651D01*
X346400Y248655D01*
X346101Y248910D01*
X346095Y248911D01*
X346095Y248915D01*
X345761Y249120D01*
X345755Y249119D01*
X345754Y249124D01*
X345392Y249274D01*
X345386Y249272D01*
X345384Y249276D01*
X345002Y249367D01*
X344997Y249365D01*
X344995Y249368D01*
X344604Y249399D01*
X344601Y249397D01*
X344600Y249399D01*
X335400Y249399D01*
X335398Y249397D01*
X335396Y249399D01*
X335005Y249368D01*
X335001Y249364D01*
X334998Y249367D01*
X334616Y249276D01*
X334612Y249271D01*
X334608Y249274D01*
X334246Y249124D01*
X334243Y249118D01*
X334239Y249120D01*
X333905Y248915D01*
X333903Y248910D01*
X333899Y248910D01*
X333600Y248655D01*
X333599Y248650D01*
X333595Y248650D01*
X333340Y248351D01*
X333339Y248345D01*
X333335Y248345D01*
X333130Y248011D01*
X333131Y248005D01*
X333127Y248004D01*
X332977Y247642D01*
X332978Y247636D01*
X332974Y247634D01*
X332883Y247252D01*
X332885Y247247D01*
X332882Y247245D01*
X332851Y246854D01*
X332853Y246851D01*
X332851Y246850D01*
X332882Y240659D01*
X332887Y240652D01*
X332883Y240648D01*
X332974Y240266D01*
X332979Y240262D01*
X332977Y240258D01*
X333127Y239896D01*
X333132Y239893D01*
X333130Y239889D01*
X333335Y239555D01*
X333340Y239553D01*
X333340Y239549D01*
X333595Y239250D01*
X333600Y239249D01*
X333600Y239245D01*
X333899Y238990D01*
X333905Y238989D01*
X333905Y238985D01*
X334239Y238780D01*
X334245Y238781D01*
X334246Y238777D01*
X334608Y238627D01*
X334614Y238628D01*
X334616Y238624D01*
X334998Y238533D01*
X335003Y238535D01*
X335005Y238532D01*
X335396Y238501D01*
X335399Y238503D01*
X335400Y238501D01*
X344600Y238501D01*
X344602Y238503D01*
G37*
G36*
X244602Y238503D02*
X244602Y238503D01*
X244604Y238501D01*
X244995Y238532D01*
X244999Y238536D01*
X245002Y238533D01*
X245384Y238624D01*
X245388Y238629D01*
X245392Y238627D01*
X245754Y238777D01*
X245757Y238782D01*
X245761Y238780D01*
X246095Y238985D01*
X246097Y238990D01*
X246101Y238990D01*
X246400Y239245D01*
X246401Y239250D01*
X246405Y239250D01*
X246660Y239549D01*
X246661Y239555D01*
X246665Y239555D01*
X246870Y239889D01*
X246869Y239895D01*
X246874Y239896D01*
X247024Y240258D01*
X247023Y240260D01*
X247024Y240260D01*
X247022Y240263D01*
X247022Y240264D01*
X247026Y240266D01*
X247117Y240648D01*
X247115Y240653D01*
X247117Y240654D01*
X247118Y240655D01*
X247149Y241046D01*
X247147Y241049D01*
X247149Y241050D01*
X247118Y247241D01*
X247113Y247248D01*
X247117Y247252D01*
X247026Y247634D01*
X247021Y247638D01*
X247024Y247642D01*
X246874Y248004D01*
X246868Y248007D01*
X246870Y248011D01*
X246665Y248345D01*
X246660Y248347D01*
X246660Y248351D01*
X246405Y248650D01*
X246400Y248651D01*
X246400Y248655D01*
X246101Y248910D01*
X246095Y248911D01*
X246095Y248915D01*
X245761Y249120D01*
X245755Y249119D01*
X245754Y249124D01*
X245392Y249274D01*
X245386Y249272D01*
X245384Y249276D01*
X245002Y249367D01*
X244997Y249365D01*
X244995Y249368D01*
X244604Y249399D01*
X244601Y249397D01*
X244600Y249399D01*
X235400Y249399D01*
X235398Y249397D01*
X235396Y249399D01*
X235005Y249368D01*
X235001Y249364D01*
X234998Y249367D01*
X234616Y249276D01*
X234612Y249271D01*
X234608Y249274D01*
X234246Y249124D01*
X234243Y249118D01*
X234239Y249120D01*
X233905Y248915D01*
X233903Y248910D01*
X233899Y248910D01*
X233600Y248655D01*
X233599Y248650D01*
X233595Y248650D01*
X233340Y248351D01*
X233339Y248345D01*
X233335Y248345D01*
X233130Y248011D01*
X233131Y248005D01*
X233127Y248004D01*
X232977Y247642D01*
X232978Y247636D01*
X232974Y247634D01*
X232883Y247252D01*
X232885Y247247D01*
X232882Y247245D01*
X232851Y246854D01*
X232853Y246851D01*
X232851Y246850D01*
X232882Y240659D01*
X232887Y240652D01*
X232883Y240648D01*
X232974Y240266D01*
X232979Y240262D01*
X232977Y240258D01*
X233127Y239896D01*
X233132Y239893D01*
X233130Y239889D01*
X233335Y239555D01*
X233340Y239553D01*
X233340Y239549D01*
X233595Y239250D01*
X233600Y239249D01*
X233600Y239245D01*
X233899Y238990D01*
X233905Y238989D01*
X233905Y238985D01*
X234239Y238780D01*
X234245Y238781D01*
X234246Y238777D01*
X234608Y238627D01*
X234614Y238628D01*
X234616Y238624D01*
X234998Y238533D01*
X235003Y238535D01*
X235005Y238532D01*
X235396Y238501D01*
X235399Y238503D01*
X235400Y238501D01*
X244600Y238501D01*
X244602Y238503D01*
G37*
G36*
X244602Y220603D02*
X244602Y220603D01*
X244604Y220601D01*
X244995Y220632D01*
X244999Y220636D01*
X245002Y220633D01*
X245384Y220724D01*
X245388Y220729D01*
X245392Y220727D01*
X245754Y220877D01*
X245757Y220882D01*
X245761Y220880D01*
X246095Y221085D01*
X246097Y221090D01*
X246101Y221090D01*
X246400Y221345D01*
X246401Y221350D01*
X246405Y221350D01*
X246660Y221649D01*
X246661Y221655D01*
X246665Y221655D01*
X246870Y221989D01*
X246869Y221995D01*
X246874Y221996D01*
X247024Y222358D01*
X247023Y222360D01*
X247024Y222360D01*
X247022Y222363D01*
X247022Y222364D01*
X247026Y222366D01*
X247117Y222748D01*
X247115Y222753D01*
X247117Y222754D01*
X247118Y222755D01*
X247149Y223146D01*
X247147Y223149D01*
X247149Y223150D01*
X247118Y229341D01*
X247113Y229348D01*
X247117Y229352D01*
X247026Y229734D01*
X247021Y229738D01*
X247024Y229742D01*
X246874Y230104D01*
X246868Y230107D01*
X246870Y230111D01*
X246665Y230445D01*
X246660Y230447D01*
X246660Y230451D01*
X246405Y230750D01*
X246400Y230751D01*
X246400Y230755D01*
X246101Y231010D01*
X246095Y231011D01*
X246095Y231015D01*
X245761Y231220D01*
X245755Y231219D01*
X245754Y231224D01*
X245392Y231374D01*
X245386Y231372D01*
X245384Y231376D01*
X245002Y231467D01*
X244997Y231465D01*
X244995Y231468D01*
X244604Y231499D01*
X244601Y231497D01*
X244600Y231499D01*
X235400Y231499D01*
X235398Y231497D01*
X235396Y231499D01*
X235005Y231468D01*
X235001Y231464D01*
X234998Y231467D01*
X234616Y231376D01*
X234612Y231371D01*
X234608Y231374D01*
X234246Y231224D01*
X234243Y231218D01*
X234239Y231220D01*
X233905Y231015D01*
X233903Y231010D01*
X233899Y231010D01*
X233600Y230755D01*
X233599Y230750D01*
X233595Y230750D01*
X233340Y230451D01*
X233339Y230445D01*
X233335Y230445D01*
X233130Y230111D01*
X233131Y230105D01*
X233127Y230104D01*
X232977Y229742D01*
X232978Y229736D01*
X232974Y229734D01*
X232883Y229352D01*
X232885Y229347D01*
X232882Y229345D01*
X232851Y228954D01*
X232853Y228951D01*
X232851Y228950D01*
X232882Y222759D01*
X232887Y222752D01*
X232883Y222748D01*
X232974Y222366D01*
X232979Y222362D01*
X232977Y222358D01*
X233127Y221996D01*
X233132Y221993D01*
X233130Y221989D01*
X233335Y221655D01*
X233340Y221653D01*
X233340Y221649D01*
X233595Y221350D01*
X233600Y221349D01*
X233600Y221345D01*
X233899Y221090D01*
X233905Y221089D01*
X233905Y221085D01*
X234239Y220880D01*
X234245Y220881D01*
X234246Y220877D01*
X234608Y220727D01*
X234614Y220728D01*
X234616Y220724D01*
X234998Y220633D01*
X235003Y220635D01*
X235005Y220632D01*
X235396Y220601D01*
X235399Y220603D01*
X235400Y220601D01*
X244600Y220601D01*
X244602Y220603D01*
G37*
G36*
X344602Y220603D02*
X344602Y220603D01*
X344604Y220601D01*
X344995Y220632D01*
X344999Y220636D01*
X345002Y220633D01*
X345384Y220724D01*
X345388Y220729D01*
X345392Y220727D01*
X345754Y220877D01*
X345757Y220882D01*
X345761Y220880D01*
X346095Y221085D01*
X346097Y221090D01*
X346101Y221090D01*
X346400Y221345D01*
X346401Y221350D01*
X346405Y221350D01*
X346660Y221649D01*
X346661Y221655D01*
X346665Y221655D01*
X346870Y221989D01*
X346869Y221995D01*
X346874Y221996D01*
X347024Y222358D01*
X347023Y222360D01*
X347024Y222360D01*
X347022Y222363D01*
X347022Y222364D01*
X347026Y222366D01*
X347117Y222748D01*
X347115Y222753D01*
X347117Y222754D01*
X347118Y222755D01*
X347149Y223146D01*
X347147Y223149D01*
X347149Y223150D01*
X347118Y229341D01*
X347113Y229348D01*
X347117Y229352D01*
X347026Y229734D01*
X347021Y229738D01*
X347024Y229742D01*
X346874Y230104D01*
X346868Y230107D01*
X346870Y230111D01*
X346665Y230445D01*
X346660Y230447D01*
X346660Y230451D01*
X346405Y230750D01*
X346400Y230751D01*
X346400Y230755D01*
X346101Y231010D01*
X346095Y231011D01*
X346095Y231015D01*
X345761Y231220D01*
X345755Y231219D01*
X345754Y231224D01*
X345392Y231374D01*
X345386Y231372D01*
X345384Y231376D01*
X345002Y231467D01*
X344997Y231465D01*
X344995Y231468D01*
X344604Y231499D01*
X344601Y231497D01*
X344600Y231499D01*
X335400Y231499D01*
X335398Y231497D01*
X335396Y231499D01*
X335005Y231468D01*
X335001Y231464D01*
X334998Y231467D01*
X334616Y231376D01*
X334612Y231371D01*
X334608Y231374D01*
X334246Y231224D01*
X334243Y231218D01*
X334239Y231220D01*
X333905Y231015D01*
X333903Y231010D01*
X333899Y231010D01*
X333600Y230755D01*
X333599Y230750D01*
X333595Y230750D01*
X333340Y230451D01*
X333339Y230445D01*
X333335Y230445D01*
X333130Y230111D01*
X333131Y230105D01*
X333127Y230104D01*
X332977Y229742D01*
X332978Y229736D01*
X332974Y229734D01*
X332883Y229352D01*
X332885Y229347D01*
X332882Y229345D01*
X332851Y228954D01*
X332853Y228951D01*
X332851Y228950D01*
X332882Y222759D01*
X332887Y222752D01*
X332883Y222748D01*
X332974Y222366D01*
X332979Y222362D01*
X332977Y222358D01*
X333127Y221996D01*
X333132Y221993D01*
X333130Y221989D01*
X333335Y221655D01*
X333340Y221653D01*
X333340Y221649D01*
X333595Y221350D01*
X333600Y221349D01*
X333600Y221345D01*
X333899Y221090D01*
X333905Y221089D01*
X333905Y221085D01*
X334239Y220880D01*
X334245Y220881D01*
X334246Y220877D01*
X334608Y220727D01*
X334614Y220728D01*
X334616Y220724D01*
X334998Y220633D01*
X335003Y220635D01*
X335005Y220632D01*
X335396Y220601D01*
X335399Y220603D01*
X335400Y220601D01*
X344600Y220601D01*
X344602Y220603D01*
G37*
G36*
X189341Y205382D02*
X189341Y205382D01*
X189348Y205387D01*
X189352Y205383D01*
X189734Y205474D01*
X189738Y205479D01*
X189742Y205477D01*
X190104Y205627D01*
X190107Y205632D01*
X190111Y205630D01*
X190445Y205835D01*
X190447Y205840D01*
X190451Y205840D01*
X190750Y206095D01*
X190751Y206100D01*
X190755Y206100D01*
X191010Y206399D01*
X191011Y206405D01*
X191015Y206405D01*
X191220Y206739D01*
X191219Y206745D01*
X191224Y206746D01*
X191374Y207108D01*
X191373Y207110D01*
X191374Y207110D01*
X191372Y207113D01*
X191372Y207114D01*
X191376Y207116D01*
X191467Y207498D01*
X191465Y207503D01*
X191467Y207504D01*
X191468Y207505D01*
X191499Y207896D01*
X191497Y207899D01*
X191499Y207900D01*
X191499Y217100D01*
X191497Y217102D01*
X191499Y217104D01*
X191468Y217495D01*
X191464Y217499D01*
X191467Y217502D01*
X191376Y217884D01*
X191371Y217888D01*
X191374Y217892D01*
X191224Y218254D01*
X191218Y218257D01*
X191220Y218261D01*
X191015Y218595D01*
X191010Y218597D01*
X191010Y218601D01*
X190755Y218900D01*
X190750Y218901D01*
X190750Y218905D01*
X190451Y219160D01*
X190445Y219161D01*
X190445Y219165D01*
X190111Y219370D01*
X190105Y219369D01*
X190104Y219374D01*
X189742Y219524D01*
X189736Y219522D01*
X189734Y219526D01*
X189352Y219617D01*
X189347Y219615D01*
X189345Y219618D01*
X188954Y219649D01*
X188951Y219647D01*
X188950Y219649D01*
X182759Y219618D01*
X182752Y219613D01*
X182748Y219617D01*
X182366Y219526D01*
X182362Y219521D01*
X182358Y219524D01*
X181996Y219374D01*
X181993Y219368D01*
X181989Y219370D01*
X181655Y219165D01*
X181653Y219160D01*
X181649Y219160D01*
X181350Y218905D01*
X181349Y218900D01*
X181345Y218900D01*
X181090Y218601D01*
X181089Y218595D01*
X181085Y218595D01*
X180880Y218261D01*
X180881Y218255D01*
X180877Y218254D01*
X180727Y217892D01*
X180728Y217886D01*
X180724Y217884D01*
X180633Y217502D01*
X180635Y217497D01*
X180632Y217495D01*
X180601Y217104D01*
X180603Y217101D01*
X180601Y217100D01*
X180601Y207900D01*
X180603Y207898D01*
X180601Y207896D01*
X180632Y207505D01*
X180636Y207501D01*
X180633Y207498D01*
X180724Y207116D01*
X180729Y207112D01*
X180727Y207108D01*
X180877Y206746D01*
X180882Y206743D01*
X180880Y206739D01*
X181085Y206405D01*
X181090Y206403D01*
X181090Y206399D01*
X181345Y206100D01*
X181350Y206099D01*
X181350Y206095D01*
X181649Y205840D01*
X181655Y205839D01*
X181655Y205835D01*
X181989Y205630D01*
X181995Y205631D01*
X181996Y205627D01*
X182358Y205477D01*
X182364Y205478D01*
X182366Y205474D01*
X182748Y205383D01*
X182753Y205385D01*
X182755Y205382D01*
X183146Y205351D01*
X183149Y205353D01*
X183150Y205351D01*
X189341Y205382D01*
G37*
G36*
X207241Y205382D02*
X207241Y205382D01*
X207248Y205387D01*
X207252Y205383D01*
X207634Y205474D01*
X207638Y205479D01*
X207642Y205477D01*
X208004Y205627D01*
X208007Y205632D01*
X208011Y205630D01*
X208345Y205835D01*
X208347Y205840D01*
X208351Y205840D01*
X208650Y206095D01*
X208651Y206100D01*
X208655Y206100D01*
X208910Y206399D01*
X208911Y206405D01*
X208915Y206405D01*
X209120Y206739D01*
X209119Y206745D01*
X209124Y206746D01*
X209274Y207108D01*
X209273Y207110D01*
X209274Y207110D01*
X209272Y207113D01*
X209272Y207114D01*
X209276Y207116D01*
X209367Y207498D01*
X209365Y207503D01*
X209367Y207504D01*
X209368Y207505D01*
X209399Y207896D01*
X209397Y207899D01*
X209399Y207900D01*
X209399Y217100D01*
X209397Y217102D01*
X209399Y217104D01*
X209368Y217495D01*
X209364Y217499D01*
X209367Y217502D01*
X209276Y217884D01*
X209271Y217888D01*
X209274Y217892D01*
X209124Y218254D01*
X209118Y218257D01*
X209120Y218261D01*
X208915Y218595D01*
X208910Y218597D01*
X208910Y218601D01*
X208655Y218900D01*
X208650Y218901D01*
X208650Y218905D01*
X208351Y219160D01*
X208345Y219161D01*
X208345Y219165D01*
X208011Y219370D01*
X208005Y219369D01*
X208004Y219374D01*
X207642Y219524D01*
X207636Y219522D01*
X207634Y219526D01*
X207252Y219617D01*
X207247Y219615D01*
X207245Y219618D01*
X206854Y219649D01*
X206851Y219647D01*
X206850Y219649D01*
X200659Y219618D01*
X200652Y219613D01*
X200648Y219617D01*
X200266Y219526D01*
X200262Y219521D01*
X200258Y219524D01*
X199896Y219374D01*
X199893Y219368D01*
X199889Y219370D01*
X199555Y219165D01*
X199553Y219160D01*
X199549Y219160D01*
X199250Y218905D01*
X199249Y218900D01*
X199245Y218900D01*
X198990Y218601D01*
X198989Y218595D01*
X198985Y218595D01*
X198780Y218261D01*
X198781Y218255D01*
X198777Y218254D01*
X198627Y217892D01*
X198628Y217886D01*
X198624Y217884D01*
X198533Y217502D01*
X198535Y217497D01*
X198532Y217495D01*
X198501Y217104D01*
X198503Y217101D01*
X198501Y217100D01*
X198501Y207900D01*
X198503Y207898D01*
X198501Y207896D01*
X198532Y207505D01*
X198536Y207501D01*
X198533Y207498D01*
X198624Y207116D01*
X198629Y207112D01*
X198627Y207108D01*
X198777Y206746D01*
X198782Y206743D01*
X198780Y206739D01*
X198985Y206405D01*
X198990Y206403D01*
X198990Y206399D01*
X199245Y206100D01*
X199250Y206099D01*
X199250Y206095D01*
X199549Y205840D01*
X199555Y205839D01*
X199555Y205835D01*
X199889Y205630D01*
X199895Y205631D01*
X199896Y205627D01*
X200258Y205477D01*
X200264Y205478D01*
X200266Y205474D01*
X200648Y205383D01*
X200653Y205385D01*
X200655Y205382D01*
X201046Y205351D01*
X201049Y205353D01*
X201050Y205351D01*
X207241Y205382D01*
G37*
G36*
X177241Y172882D02*
X177241Y172882D01*
X177248Y172887D01*
X177252Y172883D01*
X177634Y172974D01*
X177638Y172979D01*
X177642Y172977D01*
X178004Y173127D01*
X178007Y173132D01*
X178011Y173130D01*
X178345Y173335D01*
X178347Y173340D01*
X178351Y173340D01*
X178650Y173595D01*
X178651Y173600D01*
X178655Y173600D01*
X178910Y173899D01*
X178911Y173905D01*
X178915Y173905D01*
X179120Y174239D01*
X179119Y174245D01*
X179124Y174246D01*
X179274Y174608D01*
X179273Y174610D01*
X179274Y174610D01*
X179272Y174613D01*
X179272Y174614D01*
X179276Y174616D01*
X179367Y174998D01*
X179365Y175003D01*
X179367Y175004D01*
X179368Y175005D01*
X179399Y175396D01*
X179397Y175399D01*
X179399Y175400D01*
X179399Y184600D01*
X179397Y184602D01*
X179399Y184604D01*
X179368Y184995D01*
X179364Y184999D01*
X179367Y185002D01*
X179276Y185384D01*
X179271Y185388D01*
X179274Y185392D01*
X179124Y185754D01*
X179118Y185757D01*
X179120Y185761D01*
X178915Y186095D01*
X178910Y186097D01*
X178910Y186101D01*
X178655Y186400D01*
X178650Y186401D01*
X178650Y186405D01*
X178351Y186660D01*
X178345Y186661D01*
X178345Y186665D01*
X178011Y186870D01*
X178005Y186869D01*
X178004Y186874D01*
X177642Y187024D01*
X177636Y187022D01*
X177634Y187026D01*
X177252Y187117D01*
X177247Y187115D01*
X177245Y187118D01*
X176854Y187149D01*
X176851Y187147D01*
X176850Y187149D01*
X170659Y187118D01*
X170652Y187113D01*
X170648Y187117D01*
X170266Y187026D01*
X170262Y187021D01*
X170258Y187024D01*
X169896Y186874D01*
X169893Y186868D01*
X169889Y186870D01*
X169555Y186665D01*
X169553Y186660D01*
X169549Y186660D01*
X169250Y186405D01*
X169249Y186400D01*
X169245Y186400D01*
X168990Y186101D01*
X168989Y186095D01*
X168985Y186095D01*
X168780Y185761D01*
X168781Y185755D01*
X168777Y185754D01*
X168627Y185392D01*
X168628Y185386D01*
X168624Y185384D01*
X168533Y185002D01*
X168535Y184997D01*
X168532Y184995D01*
X168501Y184604D01*
X168503Y184601D01*
X168501Y184600D01*
X168501Y175400D01*
X168503Y175398D01*
X168501Y175396D01*
X168532Y175005D01*
X168536Y175001D01*
X168533Y174998D01*
X168624Y174616D01*
X168629Y174612D01*
X168627Y174608D01*
X168777Y174246D01*
X168782Y174243D01*
X168780Y174239D01*
X168985Y173905D01*
X168990Y173903D01*
X168990Y173899D01*
X169245Y173600D01*
X169250Y173599D01*
X169250Y173595D01*
X169549Y173340D01*
X169555Y173339D01*
X169555Y173335D01*
X169889Y173130D01*
X169895Y173131D01*
X169896Y173127D01*
X170258Y172977D01*
X170264Y172978D01*
X170266Y172974D01*
X170648Y172883D01*
X170653Y172885D01*
X170655Y172882D01*
X171046Y172851D01*
X171049Y172853D01*
X171050Y172851D01*
X177241Y172882D01*
G37*
G36*
X159341Y172882D02*
X159341Y172882D01*
X159348Y172887D01*
X159352Y172883D01*
X159734Y172974D01*
X159738Y172979D01*
X159742Y172977D01*
X160104Y173127D01*
X160107Y173132D01*
X160111Y173130D01*
X160445Y173335D01*
X160447Y173340D01*
X160451Y173340D01*
X160750Y173595D01*
X160751Y173600D01*
X160755Y173600D01*
X161010Y173899D01*
X161011Y173905D01*
X161015Y173905D01*
X161220Y174239D01*
X161219Y174245D01*
X161224Y174246D01*
X161374Y174608D01*
X161373Y174610D01*
X161374Y174610D01*
X161372Y174613D01*
X161372Y174614D01*
X161376Y174616D01*
X161467Y174998D01*
X161465Y175003D01*
X161467Y175004D01*
X161468Y175005D01*
X161499Y175396D01*
X161497Y175399D01*
X161499Y175400D01*
X161499Y184600D01*
X161497Y184602D01*
X161499Y184604D01*
X161468Y184995D01*
X161464Y184999D01*
X161467Y185002D01*
X161376Y185384D01*
X161371Y185388D01*
X161374Y185392D01*
X161224Y185754D01*
X161218Y185757D01*
X161220Y185761D01*
X161015Y186095D01*
X161010Y186097D01*
X161010Y186101D01*
X160755Y186400D01*
X160750Y186401D01*
X160750Y186405D01*
X160451Y186660D01*
X160445Y186661D01*
X160445Y186665D01*
X160111Y186870D01*
X160105Y186869D01*
X160104Y186874D01*
X159742Y187024D01*
X159736Y187022D01*
X159734Y187026D01*
X159352Y187117D01*
X159347Y187115D01*
X159345Y187118D01*
X158954Y187149D01*
X158951Y187147D01*
X158950Y187149D01*
X152759Y187118D01*
X152752Y187113D01*
X152748Y187117D01*
X152366Y187026D01*
X152362Y187021D01*
X152358Y187024D01*
X151996Y186874D01*
X151993Y186868D01*
X151989Y186870D01*
X151655Y186665D01*
X151653Y186660D01*
X151649Y186660D01*
X151350Y186405D01*
X151349Y186400D01*
X151345Y186400D01*
X151090Y186101D01*
X151089Y186095D01*
X151085Y186095D01*
X150880Y185761D01*
X150881Y185755D01*
X150877Y185754D01*
X150727Y185392D01*
X150728Y185386D01*
X150724Y185384D01*
X150633Y185002D01*
X150635Y184997D01*
X150632Y184995D01*
X150601Y184604D01*
X150603Y184601D01*
X150601Y184600D01*
X150601Y175400D01*
X150603Y175398D01*
X150601Y175396D01*
X150632Y175005D01*
X150636Y175001D01*
X150633Y174998D01*
X150724Y174616D01*
X150729Y174612D01*
X150727Y174608D01*
X150877Y174246D01*
X150882Y174243D01*
X150880Y174239D01*
X151085Y173905D01*
X151090Y173903D01*
X151090Y173899D01*
X151345Y173600D01*
X151350Y173599D01*
X151350Y173595D01*
X151649Y173340D01*
X151655Y173339D01*
X151655Y173335D01*
X151989Y173130D01*
X151995Y173131D01*
X151996Y173127D01*
X152358Y172977D01*
X152364Y172978D01*
X152366Y172974D01*
X152748Y172883D01*
X152753Y172885D01*
X152755Y172882D01*
X153146Y172851D01*
X153149Y172853D01*
X153150Y172851D01*
X159341Y172882D01*
G37*
G36*
X-60398Y173503D02*
X-60398Y173503D01*
X-60396Y173501D01*
X-60005Y173532D01*
X-60001Y173536D01*
X-59998Y173533D01*
X-59616Y173624D01*
X-59612Y173629D01*
X-59608Y173627D01*
X-59246Y173777D01*
X-59243Y173782D01*
X-59239Y173780D01*
X-58905Y173985D01*
X-58903Y173990D01*
X-58899Y173990D01*
X-58600Y174245D01*
X-58599Y174250D01*
X-58595Y174250D01*
X-58340Y174549D01*
X-58339Y174555D01*
X-58335Y174555D01*
X-58130Y174889D01*
X-58131Y174895D01*
X-58127Y174896D01*
X-57977Y175258D01*
X-57977Y175260D01*
X-57976Y175260D01*
X-57978Y175263D01*
X-57978Y175264D01*
X-57974Y175266D01*
X-57883Y175648D01*
X-57885Y175653D01*
X-57883Y175654D01*
X-57882Y175655D01*
X-57851Y176046D01*
X-57853Y176049D01*
X-57851Y176050D01*
X-57882Y182241D01*
X-57887Y182248D01*
X-57883Y182252D01*
X-57974Y182634D01*
X-57979Y182638D01*
X-57977Y182642D01*
X-58127Y183004D01*
X-58132Y183007D01*
X-58130Y183011D01*
X-58335Y183345D01*
X-58340Y183347D01*
X-58340Y183351D01*
X-58595Y183650D01*
X-58600Y183651D01*
X-58600Y183655D01*
X-58899Y183910D01*
X-58905Y183911D01*
X-58905Y183915D01*
X-59239Y184120D01*
X-59245Y184119D01*
X-59246Y184124D01*
X-59608Y184274D01*
X-59614Y184272D01*
X-59616Y184276D01*
X-59998Y184367D01*
X-60003Y184365D01*
X-60005Y184368D01*
X-60396Y184399D01*
X-60399Y184397D01*
X-60400Y184399D01*
X-69600Y184399D01*
X-69602Y184397D01*
X-69604Y184399D01*
X-69995Y184368D01*
X-69999Y184364D01*
X-70002Y184367D01*
X-70384Y184276D01*
X-70388Y184271D01*
X-70392Y184274D01*
X-70754Y184124D01*
X-70757Y184118D01*
X-70761Y184120D01*
X-71095Y183915D01*
X-71097Y183910D01*
X-71101Y183910D01*
X-71400Y183655D01*
X-71401Y183650D01*
X-71405Y183650D01*
X-71660Y183351D01*
X-71661Y183345D01*
X-71665Y183345D01*
X-71870Y183011D01*
X-71869Y183005D01*
X-71874Y183004D01*
X-72024Y182642D01*
X-72022Y182636D01*
X-72026Y182634D01*
X-72117Y182252D01*
X-72115Y182247D01*
X-72118Y182245D01*
X-72149Y181854D01*
X-72147Y181851D01*
X-72149Y181850D01*
X-72118Y175659D01*
X-72113Y175652D01*
X-72117Y175648D01*
X-72026Y175266D01*
X-72021Y175262D01*
X-72024Y175258D01*
X-71874Y174896D01*
X-71868Y174893D01*
X-71870Y174889D01*
X-71665Y174555D01*
X-71660Y174553D01*
X-71660Y174549D01*
X-71405Y174250D01*
X-71400Y174249D01*
X-71400Y174245D01*
X-71101Y173990D01*
X-71095Y173989D01*
X-71095Y173985D01*
X-70761Y173780D01*
X-70755Y173781D01*
X-70754Y173777D01*
X-70392Y173627D01*
X-70386Y173628D01*
X-70384Y173624D01*
X-70002Y173533D01*
X-69997Y173535D01*
X-69995Y173532D01*
X-69604Y173501D01*
X-69601Y173503D01*
X-69600Y173501D01*
X-60400Y173501D01*
X-60398Y173503D01*
G37*
G36*
X9602Y173503D02*
X9602Y173503D01*
X9604Y173501D01*
X9995Y173532D01*
X9999Y173536D01*
X10002Y173533D01*
X10384Y173624D01*
X10388Y173629D01*
X10392Y173627D01*
X10754Y173777D01*
X10757Y173782D01*
X10761Y173780D01*
X11095Y173985D01*
X11097Y173990D01*
X11101Y173990D01*
X11400Y174245D01*
X11401Y174250D01*
X11405Y174250D01*
X11660Y174549D01*
X11661Y174555D01*
X11665Y174555D01*
X11870Y174889D01*
X11869Y174895D01*
X11874Y174896D01*
X12024Y175258D01*
X12023Y175260D01*
X12024Y175260D01*
X12022Y175263D01*
X12022Y175264D01*
X12026Y175266D01*
X12117Y175648D01*
X12115Y175653D01*
X12117Y175654D01*
X12118Y175655D01*
X12149Y176046D01*
X12147Y176049D01*
X12149Y176050D01*
X12118Y182241D01*
X12113Y182248D01*
X12117Y182252D01*
X12026Y182634D01*
X12021Y182638D01*
X12024Y182642D01*
X11874Y183004D01*
X11868Y183007D01*
X11870Y183011D01*
X11665Y183345D01*
X11660Y183347D01*
X11660Y183351D01*
X11405Y183650D01*
X11400Y183651D01*
X11400Y183655D01*
X11101Y183910D01*
X11095Y183911D01*
X11095Y183915D01*
X10761Y184120D01*
X10755Y184119D01*
X10754Y184124D01*
X10392Y184274D01*
X10386Y184272D01*
X10384Y184276D01*
X10002Y184367D01*
X9997Y184365D01*
X9995Y184368D01*
X9604Y184399D01*
X9601Y184397D01*
X9600Y184399D01*
X400Y184399D01*
X398Y184397D01*
X396Y184399D01*
X5Y184368D01*
X1Y184364D01*
X-2Y184367D01*
X-384Y184276D01*
X-388Y184271D01*
X-392Y184274D01*
X-754Y184124D01*
X-757Y184118D01*
X-761Y184120D01*
X-1095Y183915D01*
X-1097Y183910D01*
X-1101Y183910D01*
X-1400Y183655D01*
X-1401Y183650D01*
X-1405Y183650D01*
X-1660Y183351D01*
X-1661Y183345D01*
X-1665Y183345D01*
X-1870Y183011D01*
X-1869Y183005D01*
X-1874Y183004D01*
X-2024Y182642D01*
X-2022Y182636D01*
X-2026Y182634D01*
X-2117Y182252D01*
X-2115Y182247D01*
X-2118Y182245D01*
X-2149Y181854D01*
X-2147Y181851D01*
X-2149Y181850D01*
X-2118Y175659D01*
X-2113Y175652D01*
X-2117Y175648D01*
X-2026Y175266D01*
X-2021Y175262D01*
X-2024Y175258D01*
X-1874Y174896D01*
X-1868Y174893D01*
X-1870Y174889D01*
X-1665Y174555D01*
X-1660Y174553D01*
X-1660Y174549D01*
X-1405Y174250D01*
X-1400Y174249D01*
X-1400Y174245D01*
X-1101Y173990D01*
X-1095Y173989D01*
X-1095Y173985D01*
X-761Y173780D01*
X-755Y173781D01*
X-754Y173777D01*
X-392Y173627D01*
X-386Y173628D01*
X-384Y173624D01*
X-2Y173533D01*
X3Y173535D01*
X5Y173532D01*
X396Y173501D01*
X399Y173503D01*
X400Y173501D01*
X9600Y173501D01*
X9602Y173503D01*
G37*
G36*
X344602Y288503D02*
X344602Y288503D01*
X344604Y288501D01*
X344995Y288532D01*
X344999Y288536D01*
X345002Y288533D01*
X345384Y288624D01*
X345388Y288629D01*
X345392Y288627D01*
X345754Y288777D01*
X345757Y288782D01*
X345761Y288780D01*
X346095Y288985D01*
X346097Y288990D01*
X346101Y288990D01*
X346400Y289245D01*
X346401Y289250D01*
X346405Y289250D01*
X346660Y289549D01*
X346661Y289555D01*
X346665Y289555D01*
X346870Y289889D01*
X346869Y289895D01*
X346874Y289896D01*
X347024Y290258D01*
X347023Y290260D01*
X347024Y290260D01*
X347022Y290263D01*
X347022Y290264D01*
X347026Y290266D01*
X347117Y290648D01*
X347115Y290653D01*
X347117Y290654D01*
X347118Y290655D01*
X347149Y291046D01*
X347147Y291049D01*
X347149Y291050D01*
X347118Y297241D01*
X347113Y297248D01*
X347117Y297252D01*
X347026Y297634D01*
X347021Y297638D01*
X347024Y297642D01*
X346874Y298004D01*
X346868Y298007D01*
X346870Y298011D01*
X346665Y298345D01*
X346660Y298347D01*
X346660Y298351D01*
X346405Y298650D01*
X346400Y298651D01*
X346400Y298655D01*
X346101Y298910D01*
X346095Y298911D01*
X346095Y298915D01*
X345761Y299120D01*
X345755Y299119D01*
X345754Y299124D01*
X345392Y299274D01*
X345386Y299272D01*
X345384Y299276D01*
X345002Y299367D01*
X344997Y299365D01*
X344995Y299368D01*
X344604Y299399D01*
X344601Y299397D01*
X344600Y299399D01*
X335400Y299399D01*
X335398Y299397D01*
X335396Y299399D01*
X335005Y299368D01*
X335001Y299364D01*
X334998Y299367D01*
X334616Y299276D01*
X334612Y299271D01*
X334608Y299274D01*
X334246Y299124D01*
X334243Y299118D01*
X334239Y299120D01*
X333905Y298915D01*
X333903Y298910D01*
X333899Y298910D01*
X333600Y298655D01*
X333599Y298650D01*
X333595Y298650D01*
X333340Y298351D01*
X333339Y298345D01*
X333335Y298345D01*
X333130Y298011D01*
X333131Y298005D01*
X333127Y298004D01*
X332977Y297642D01*
X332978Y297636D01*
X332974Y297634D01*
X332883Y297252D01*
X332885Y297247D01*
X332882Y297245D01*
X332851Y296854D01*
X332853Y296851D01*
X332851Y296850D01*
X332882Y290659D01*
X332887Y290652D01*
X332883Y290648D01*
X332974Y290266D01*
X332979Y290262D01*
X332977Y290258D01*
X333127Y289896D01*
X333132Y289893D01*
X333130Y289889D01*
X333335Y289555D01*
X333340Y289553D01*
X333340Y289549D01*
X333595Y289250D01*
X333600Y289249D01*
X333600Y289245D01*
X333899Y288990D01*
X333905Y288989D01*
X333905Y288985D01*
X334239Y288780D01*
X334245Y288781D01*
X334246Y288777D01*
X334608Y288627D01*
X334614Y288628D01*
X334616Y288624D01*
X334998Y288533D01*
X335003Y288535D01*
X335005Y288532D01*
X335396Y288501D01*
X335399Y288503D01*
X335400Y288501D01*
X344600Y288501D01*
X344602Y288503D01*
G37*
G36*
X9602Y155603D02*
X9602Y155603D01*
X9604Y155601D01*
X9995Y155632D01*
X9999Y155636D01*
X10002Y155633D01*
X10384Y155724D01*
X10388Y155729D01*
X10392Y155727D01*
X10754Y155877D01*
X10757Y155882D01*
X10761Y155880D01*
X11095Y156085D01*
X11097Y156090D01*
X11101Y156090D01*
X11400Y156345D01*
X11401Y156350D01*
X11405Y156350D01*
X11660Y156649D01*
X11661Y156655D01*
X11665Y156655D01*
X11870Y156989D01*
X11869Y156995D01*
X11874Y156996D01*
X12024Y157358D01*
X12023Y157360D01*
X12024Y157360D01*
X12022Y157363D01*
X12022Y157364D01*
X12026Y157366D01*
X12117Y157748D01*
X12115Y157753D01*
X12117Y157754D01*
X12118Y157755D01*
X12149Y158146D01*
X12147Y158149D01*
X12149Y158150D01*
X12118Y164341D01*
X12113Y164348D01*
X12117Y164352D01*
X12026Y164734D01*
X12021Y164738D01*
X12024Y164742D01*
X11874Y165104D01*
X11868Y165107D01*
X11870Y165111D01*
X11665Y165445D01*
X11660Y165447D01*
X11660Y165451D01*
X11405Y165750D01*
X11400Y165751D01*
X11400Y165755D01*
X11101Y166010D01*
X11095Y166011D01*
X11095Y166015D01*
X10761Y166220D01*
X10755Y166219D01*
X10754Y166224D01*
X10392Y166374D01*
X10386Y166372D01*
X10384Y166376D01*
X10002Y166467D01*
X9997Y166465D01*
X9995Y166468D01*
X9604Y166499D01*
X9601Y166497D01*
X9600Y166499D01*
X400Y166499D01*
X398Y166497D01*
X396Y166499D01*
X5Y166468D01*
X1Y166464D01*
X-2Y166467D01*
X-384Y166376D01*
X-388Y166371D01*
X-392Y166374D01*
X-754Y166224D01*
X-757Y166218D01*
X-761Y166220D01*
X-1095Y166015D01*
X-1097Y166010D01*
X-1101Y166010D01*
X-1400Y165755D01*
X-1401Y165750D01*
X-1405Y165750D01*
X-1660Y165451D01*
X-1661Y165445D01*
X-1665Y165445D01*
X-1870Y165111D01*
X-1869Y165105D01*
X-1874Y165104D01*
X-2024Y164742D01*
X-2022Y164736D01*
X-2026Y164734D01*
X-2117Y164352D01*
X-2115Y164347D01*
X-2118Y164345D01*
X-2149Y163954D01*
X-2147Y163951D01*
X-2149Y163950D01*
X-2118Y157759D01*
X-2113Y157752D01*
X-2117Y157748D01*
X-2026Y157366D01*
X-2021Y157362D01*
X-2024Y157358D01*
X-1874Y156996D01*
X-1868Y156993D01*
X-1870Y156989D01*
X-1665Y156655D01*
X-1660Y156653D01*
X-1660Y156649D01*
X-1405Y156350D01*
X-1400Y156349D01*
X-1400Y156345D01*
X-1101Y156090D01*
X-1095Y156089D01*
X-1095Y156085D01*
X-761Y155880D01*
X-755Y155881D01*
X-754Y155877D01*
X-392Y155727D01*
X-386Y155728D01*
X-384Y155724D01*
X-2Y155633D01*
X3Y155635D01*
X5Y155632D01*
X396Y155601D01*
X399Y155603D01*
X400Y155601D01*
X9600Y155601D01*
X9602Y155603D01*
G37*
G36*
X-60398Y155603D02*
X-60398Y155603D01*
X-60396Y155601D01*
X-60005Y155632D01*
X-60001Y155636D01*
X-59998Y155633D01*
X-59616Y155724D01*
X-59612Y155729D01*
X-59608Y155727D01*
X-59246Y155877D01*
X-59243Y155882D01*
X-59239Y155880D01*
X-58905Y156085D01*
X-58903Y156090D01*
X-58899Y156090D01*
X-58600Y156345D01*
X-58599Y156350D01*
X-58595Y156350D01*
X-58340Y156649D01*
X-58339Y156655D01*
X-58335Y156655D01*
X-58130Y156989D01*
X-58131Y156995D01*
X-58127Y156996D01*
X-57977Y157358D01*
X-57977Y157360D01*
X-57976Y157360D01*
X-57978Y157363D01*
X-57978Y157364D01*
X-57974Y157366D01*
X-57883Y157748D01*
X-57885Y157753D01*
X-57883Y157754D01*
X-57882Y157755D01*
X-57851Y158146D01*
X-57853Y158149D01*
X-57851Y158150D01*
X-57882Y164341D01*
X-57887Y164348D01*
X-57883Y164352D01*
X-57974Y164734D01*
X-57979Y164738D01*
X-57977Y164742D01*
X-58127Y165104D01*
X-58132Y165107D01*
X-58130Y165111D01*
X-58335Y165445D01*
X-58340Y165447D01*
X-58340Y165451D01*
X-58595Y165750D01*
X-58600Y165751D01*
X-58600Y165755D01*
X-58899Y166010D01*
X-58905Y166011D01*
X-58905Y166015D01*
X-59239Y166220D01*
X-59245Y166219D01*
X-59246Y166224D01*
X-59608Y166374D01*
X-59614Y166372D01*
X-59616Y166376D01*
X-59998Y166467D01*
X-60003Y166465D01*
X-60005Y166468D01*
X-60396Y166499D01*
X-60399Y166497D01*
X-60400Y166499D01*
X-69600Y166499D01*
X-69602Y166497D01*
X-69604Y166499D01*
X-69995Y166468D01*
X-69999Y166464D01*
X-70002Y166467D01*
X-70384Y166376D01*
X-70388Y166371D01*
X-70392Y166374D01*
X-70754Y166224D01*
X-70757Y166218D01*
X-70761Y166220D01*
X-71095Y166015D01*
X-71097Y166010D01*
X-71101Y166010D01*
X-71400Y165755D01*
X-71401Y165750D01*
X-71405Y165750D01*
X-71660Y165451D01*
X-71661Y165445D01*
X-71665Y165445D01*
X-71870Y165111D01*
X-71869Y165105D01*
X-71874Y165104D01*
X-72024Y164742D01*
X-72022Y164736D01*
X-72026Y164734D01*
X-72117Y164352D01*
X-72115Y164347D01*
X-72118Y164345D01*
X-72149Y163954D01*
X-72147Y163951D01*
X-72149Y163950D01*
X-72118Y157759D01*
X-72113Y157752D01*
X-72117Y157748D01*
X-72026Y157366D01*
X-72021Y157362D01*
X-72024Y157358D01*
X-71874Y156996D01*
X-71868Y156993D01*
X-71870Y156989D01*
X-71665Y156655D01*
X-71660Y156653D01*
X-71660Y156649D01*
X-71405Y156350D01*
X-71400Y156349D01*
X-71400Y156345D01*
X-71101Y156090D01*
X-71095Y156089D01*
X-71095Y156085D01*
X-70761Y155880D01*
X-70755Y155881D01*
X-70754Y155877D01*
X-70392Y155727D01*
X-70386Y155728D01*
X-70384Y155724D01*
X-70002Y155633D01*
X-69997Y155635D01*
X-69995Y155632D01*
X-69604Y155601D01*
X-69601Y155603D01*
X-69600Y155601D01*
X-60400Y155601D01*
X-60398Y155603D01*
G37*
G36*
X-25398Y155603D02*
X-25398Y155603D01*
X-25396Y155601D01*
X-25005Y155632D01*
X-25001Y155636D01*
X-24998Y155633D01*
X-24616Y155724D01*
X-24612Y155729D01*
X-24608Y155727D01*
X-24246Y155877D01*
X-24243Y155882D01*
X-24239Y155880D01*
X-23905Y156085D01*
X-23903Y156090D01*
X-23899Y156090D01*
X-23600Y156345D01*
X-23599Y156350D01*
X-23595Y156350D01*
X-23340Y156649D01*
X-23339Y156655D01*
X-23335Y156655D01*
X-23130Y156989D01*
X-23131Y156995D01*
X-23127Y156996D01*
X-22977Y157358D01*
X-22977Y157360D01*
X-22976Y157360D01*
X-22978Y157363D01*
X-22978Y157364D01*
X-22974Y157366D01*
X-22883Y157748D01*
X-22885Y157753D01*
X-22883Y157754D01*
X-22882Y157755D01*
X-22851Y158146D01*
X-22853Y158149D01*
X-22851Y158150D01*
X-22882Y164341D01*
X-22887Y164348D01*
X-22883Y164352D01*
X-22974Y164734D01*
X-22979Y164738D01*
X-22977Y164742D01*
X-23127Y165104D01*
X-23132Y165107D01*
X-23130Y165111D01*
X-23335Y165445D01*
X-23340Y165447D01*
X-23340Y165451D01*
X-23595Y165750D01*
X-23600Y165751D01*
X-23600Y165755D01*
X-23899Y166010D01*
X-23905Y166011D01*
X-23905Y166015D01*
X-24239Y166220D01*
X-24245Y166219D01*
X-24246Y166224D01*
X-24608Y166374D01*
X-24614Y166372D01*
X-24616Y166376D01*
X-24998Y166467D01*
X-25003Y166465D01*
X-25005Y166468D01*
X-25396Y166499D01*
X-25399Y166497D01*
X-25400Y166499D01*
X-34600Y166499D01*
X-34602Y166497D01*
X-34604Y166499D01*
X-34995Y166468D01*
X-34999Y166464D01*
X-35002Y166467D01*
X-35384Y166376D01*
X-35388Y166371D01*
X-35392Y166374D01*
X-35754Y166224D01*
X-35757Y166218D01*
X-35761Y166220D01*
X-36095Y166015D01*
X-36097Y166010D01*
X-36101Y166010D01*
X-36400Y165755D01*
X-36401Y165750D01*
X-36405Y165750D01*
X-36660Y165451D01*
X-36661Y165445D01*
X-36665Y165445D01*
X-36870Y165111D01*
X-36869Y165105D01*
X-36874Y165104D01*
X-37024Y164742D01*
X-37022Y164736D01*
X-37026Y164734D01*
X-37117Y164352D01*
X-37115Y164347D01*
X-37118Y164345D01*
X-37149Y163954D01*
X-37147Y163951D01*
X-37149Y163950D01*
X-37118Y157759D01*
X-37113Y157752D01*
X-37117Y157748D01*
X-37026Y157366D01*
X-37021Y157362D01*
X-37024Y157358D01*
X-36874Y156996D01*
X-36868Y156993D01*
X-36870Y156989D01*
X-36665Y156655D01*
X-36660Y156653D01*
X-36660Y156649D01*
X-36405Y156350D01*
X-36400Y156349D01*
X-36400Y156345D01*
X-36101Y156090D01*
X-36095Y156089D01*
X-36095Y156085D01*
X-35761Y155880D01*
X-35755Y155881D01*
X-35754Y155877D01*
X-35392Y155727D01*
X-35386Y155728D01*
X-35384Y155724D01*
X-35002Y155633D01*
X-34997Y155635D01*
X-34995Y155632D01*
X-34604Y155601D01*
X-34601Y155603D01*
X-34600Y155601D01*
X-25400Y155601D01*
X-25398Y155603D01*
G37*
G36*
X-290398Y153503D02*
X-290398Y153503D01*
X-290396Y153501D01*
X-290005Y153532D01*
X-290001Y153536D01*
X-289998Y153533D01*
X-289616Y153624D01*
X-289612Y153629D01*
X-289608Y153627D01*
X-289246Y153777D01*
X-289243Y153782D01*
X-289239Y153780D01*
X-288905Y153985D01*
X-288903Y153990D01*
X-288899Y153990D01*
X-288600Y154245D01*
X-288599Y154250D01*
X-288595Y154250D01*
X-288340Y154549D01*
X-288339Y154555D01*
X-288335Y154555D01*
X-288130Y154889D01*
X-288131Y154895D01*
X-288127Y154896D01*
X-287977Y155258D01*
X-287977Y155260D01*
X-287976Y155260D01*
X-287978Y155263D01*
X-287978Y155264D01*
X-287974Y155266D01*
X-287883Y155648D01*
X-287885Y155653D01*
X-287883Y155654D01*
X-287882Y155655D01*
X-287851Y156046D01*
X-287853Y156049D01*
X-287851Y156050D01*
X-287882Y162241D01*
X-287887Y162248D01*
X-287883Y162252D01*
X-287974Y162634D01*
X-287979Y162638D01*
X-287977Y162642D01*
X-288127Y163004D01*
X-288132Y163007D01*
X-288130Y163011D01*
X-288335Y163345D01*
X-288340Y163347D01*
X-288340Y163351D01*
X-288595Y163650D01*
X-288600Y163651D01*
X-288600Y163655D01*
X-288899Y163910D01*
X-288905Y163911D01*
X-288905Y163915D01*
X-289239Y164120D01*
X-289245Y164119D01*
X-289246Y164124D01*
X-289608Y164274D01*
X-289614Y164272D01*
X-289616Y164276D01*
X-289998Y164367D01*
X-290003Y164365D01*
X-290005Y164368D01*
X-290396Y164399D01*
X-290399Y164397D01*
X-290400Y164399D01*
X-299600Y164399D01*
X-299602Y164397D01*
X-299604Y164399D01*
X-299995Y164368D01*
X-299999Y164364D01*
X-300002Y164367D01*
X-300384Y164276D01*
X-300388Y164271D01*
X-300392Y164274D01*
X-300754Y164124D01*
X-300757Y164118D01*
X-300761Y164120D01*
X-301095Y163915D01*
X-301097Y163910D01*
X-301101Y163910D01*
X-301400Y163655D01*
X-301401Y163650D01*
X-301405Y163650D01*
X-301660Y163351D01*
X-301661Y163345D01*
X-301665Y163345D01*
X-301870Y163011D01*
X-301869Y163005D01*
X-301874Y163004D01*
X-302024Y162642D01*
X-302022Y162636D01*
X-302026Y162634D01*
X-302117Y162252D01*
X-302115Y162247D01*
X-302118Y162245D01*
X-302149Y161854D01*
X-302147Y161851D01*
X-302149Y161850D01*
X-302118Y155659D01*
X-302113Y155652D01*
X-302117Y155648D01*
X-302026Y155266D01*
X-302021Y155262D01*
X-302024Y155258D01*
X-301874Y154896D01*
X-301868Y154893D01*
X-301870Y154889D01*
X-301665Y154555D01*
X-301660Y154553D01*
X-301660Y154549D01*
X-301405Y154250D01*
X-301400Y154249D01*
X-301400Y154245D01*
X-301101Y153990D01*
X-301095Y153989D01*
X-301095Y153985D01*
X-300761Y153780D01*
X-300755Y153781D01*
X-300754Y153777D01*
X-300392Y153627D01*
X-300386Y153628D01*
X-300384Y153624D01*
X-300002Y153533D01*
X-299997Y153535D01*
X-299995Y153532D01*
X-299604Y153501D01*
X-299601Y153503D01*
X-299600Y153501D01*
X-290400Y153501D01*
X-290398Y153503D01*
G37*
G36*
X-355398Y-164397D02*
X-355398Y-164397D01*
X-355396Y-164399D01*
X-355005Y-164368D01*
X-355001Y-164364D01*
X-354998Y-164367D01*
X-354616Y-164276D01*
X-354612Y-164271D01*
X-354608Y-164274D01*
X-354246Y-164124D01*
X-354243Y-164118D01*
X-354239Y-164120D01*
X-353905Y-163915D01*
X-353903Y-163910D01*
X-353899Y-163910D01*
X-353600Y-163655D01*
X-353599Y-163650D01*
X-353595Y-163650D01*
X-353340Y-163351D01*
X-353339Y-163345D01*
X-353335Y-163345D01*
X-353130Y-163011D01*
X-353131Y-163005D01*
X-353127Y-163004D01*
X-352977Y-162642D01*
X-352977Y-162640D01*
X-352976Y-162640D01*
X-352978Y-162637D01*
X-352978Y-162636D01*
X-352974Y-162634D01*
X-352883Y-162252D01*
X-352885Y-162247D01*
X-352883Y-162246D01*
X-352882Y-162245D01*
X-352851Y-161854D01*
X-352853Y-161851D01*
X-352851Y-161850D01*
X-352882Y-155659D01*
X-352887Y-155652D01*
X-352883Y-155648D01*
X-352974Y-155266D01*
X-352979Y-155262D01*
X-352977Y-155258D01*
X-353127Y-154896D01*
X-353132Y-154893D01*
X-353130Y-154889D01*
X-353335Y-154555D01*
X-353340Y-154553D01*
X-353340Y-154549D01*
X-353595Y-154250D01*
X-353600Y-154249D01*
X-353600Y-154245D01*
X-353899Y-153990D01*
X-353905Y-153989D01*
X-353905Y-153985D01*
X-354239Y-153780D01*
X-354245Y-153781D01*
X-354246Y-153777D01*
X-354608Y-153627D01*
X-354614Y-153628D01*
X-354616Y-153624D01*
X-354998Y-153533D01*
X-355003Y-153535D01*
X-355005Y-153532D01*
X-355396Y-153501D01*
X-355399Y-153503D01*
X-355400Y-153501D01*
X-364600Y-153501D01*
X-364602Y-153503D01*
X-364604Y-153501D01*
X-364995Y-153532D01*
X-364999Y-153536D01*
X-365002Y-153533D01*
X-365384Y-153624D01*
X-365388Y-153629D01*
X-365392Y-153627D01*
X-365754Y-153777D01*
X-365757Y-153782D01*
X-365761Y-153780D01*
X-366095Y-153985D01*
X-366097Y-153990D01*
X-366101Y-153990D01*
X-366400Y-154245D01*
X-366401Y-154250D01*
X-366405Y-154250D01*
X-366660Y-154549D01*
X-366661Y-154555D01*
X-366665Y-154555D01*
X-366870Y-154889D01*
X-366869Y-154895D01*
X-366874Y-154896D01*
X-367024Y-155258D01*
X-367022Y-155264D01*
X-367026Y-155266D01*
X-367117Y-155648D01*
X-367115Y-155653D01*
X-367118Y-155655D01*
X-367149Y-156046D01*
X-367147Y-156049D01*
X-367149Y-156050D01*
X-367118Y-162241D01*
X-367113Y-162248D01*
X-367117Y-162252D01*
X-367026Y-162634D01*
X-367021Y-162638D01*
X-367024Y-162642D01*
X-366874Y-163004D01*
X-366868Y-163007D01*
X-366870Y-163011D01*
X-366665Y-163345D01*
X-366660Y-163347D01*
X-366660Y-163351D01*
X-366405Y-163650D01*
X-366400Y-163651D01*
X-366400Y-163655D01*
X-366101Y-163910D01*
X-366095Y-163911D01*
X-366095Y-163915D01*
X-365761Y-164120D01*
X-365755Y-164119D01*
X-365754Y-164124D01*
X-365392Y-164274D01*
X-365386Y-164272D01*
X-365384Y-164276D01*
X-365002Y-164367D01*
X-364997Y-164365D01*
X-364995Y-164368D01*
X-364604Y-164399D01*
X-364601Y-164397D01*
X-364600Y-164399D01*
X-355400Y-164399D01*
X-355398Y-164397D01*
G37*
G36*
X-290398Y135603D02*
X-290398Y135603D01*
X-290396Y135601D01*
X-290005Y135632D01*
X-290001Y135636D01*
X-289998Y135633D01*
X-289616Y135724D01*
X-289612Y135729D01*
X-289608Y135727D01*
X-289246Y135877D01*
X-289243Y135882D01*
X-289239Y135880D01*
X-288905Y136085D01*
X-288903Y136090D01*
X-288899Y136090D01*
X-288600Y136345D01*
X-288599Y136350D01*
X-288595Y136350D01*
X-288340Y136649D01*
X-288339Y136655D01*
X-288335Y136655D01*
X-288130Y136989D01*
X-288131Y136995D01*
X-288127Y136996D01*
X-287977Y137358D01*
X-287977Y137360D01*
X-287976Y137360D01*
X-287978Y137363D01*
X-287978Y137364D01*
X-287974Y137366D01*
X-287883Y137748D01*
X-287885Y137753D01*
X-287883Y137754D01*
X-287882Y137755D01*
X-287851Y138146D01*
X-287853Y138149D01*
X-287851Y138150D01*
X-287882Y144341D01*
X-287887Y144348D01*
X-287883Y144352D01*
X-287974Y144734D01*
X-287979Y144738D01*
X-287977Y144742D01*
X-288127Y145104D01*
X-288132Y145107D01*
X-288130Y145111D01*
X-288335Y145445D01*
X-288340Y145447D01*
X-288340Y145451D01*
X-288595Y145750D01*
X-288600Y145751D01*
X-288600Y145755D01*
X-288899Y146010D01*
X-288905Y146011D01*
X-288905Y146015D01*
X-289239Y146220D01*
X-289245Y146219D01*
X-289246Y146224D01*
X-289608Y146374D01*
X-289614Y146372D01*
X-289616Y146376D01*
X-289998Y146467D01*
X-290003Y146465D01*
X-290005Y146468D01*
X-290396Y146499D01*
X-290399Y146497D01*
X-290400Y146499D01*
X-299600Y146499D01*
X-299602Y146497D01*
X-299604Y146499D01*
X-299995Y146468D01*
X-299999Y146464D01*
X-300002Y146467D01*
X-300384Y146376D01*
X-300388Y146371D01*
X-300392Y146374D01*
X-300754Y146224D01*
X-300757Y146218D01*
X-300761Y146220D01*
X-301095Y146015D01*
X-301097Y146010D01*
X-301101Y146010D01*
X-301400Y145755D01*
X-301401Y145750D01*
X-301405Y145750D01*
X-301660Y145451D01*
X-301661Y145445D01*
X-301665Y145445D01*
X-301870Y145111D01*
X-301869Y145105D01*
X-301874Y145104D01*
X-302024Y144742D01*
X-302022Y144736D01*
X-302026Y144734D01*
X-302117Y144352D01*
X-302115Y144347D01*
X-302118Y144345D01*
X-302149Y143954D01*
X-302147Y143951D01*
X-302149Y143950D01*
X-302118Y137759D01*
X-302113Y137752D01*
X-302117Y137748D01*
X-302026Y137366D01*
X-302021Y137362D01*
X-302024Y137358D01*
X-301874Y136996D01*
X-301868Y136993D01*
X-301870Y136989D01*
X-301665Y136655D01*
X-301660Y136653D01*
X-301660Y136649D01*
X-301405Y136350D01*
X-301400Y136349D01*
X-301400Y136345D01*
X-301101Y136090D01*
X-301095Y136089D01*
X-301095Y136085D01*
X-300761Y135880D01*
X-300755Y135881D01*
X-300754Y135877D01*
X-300392Y135727D01*
X-300386Y135728D01*
X-300384Y135724D01*
X-300002Y135633D01*
X-299997Y135635D01*
X-299995Y135632D01*
X-299604Y135601D01*
X-299601Y135603D01*
X-299600Y135601D01*
X-290400Y135601D01*
X-290398Y135603D01*
G37*
G36*
X-355398Y-146497D02*
X-355398Y-146497D01*
X-355396Y-146499D01*
X-355005Y-146468D01*
X-355001Y-146464D01*
X-354998Y-146467D01*
X-354616Y-146376D01*
X-354612Y-146371D01*
X-354608Y-146374D01*
X-354246Y-146224D01*
X-354243Y-146218D01*
X-354239Y-146220D01*
X-353905Y-146015D01*
X-353903Y-146010D01*
X-353899Y-146010D01*
X-353600Y-145755D01*
X-353599Y-145750D01*
X-353595Y-145750D01*
X-353340Y-145451D01*
X-353339Y-145445D01*
X-353335Y-145445D01*
X-353130Y-145111D01*
X-353131Y-145105D01*
X-353127Y-145104D01*
X-352977Y-144742D01*
X-352977Y-144740D01*
X-352976Y-144740D01*
X-352978Y-144737D01*
X-352978Y-144736D01*
X-352974Y-144734D01*
X-352883Y-144352D01*
X-352885Y-144347D01*
X-352883Y-144346D01*
X-352882Y-144345D01*
X-352851Y-143954D01*
X-352853Y-143951D01*
X-352851Y-143950D01*
X-352882Y-137759D01*
X-352887Y-137752D01*
X-352883Y-137748D01*
X-352974Y-137366D01*
X-352979Y-137362D01*
X-352977Y-137358D01*
X-353127Y-136996D01*
X-353132Y-136993D01*
X-353130Y-136989D01*
X-353335Y-136655D01*
X-353340Y-136653D01*
X-353340Y-136649D01*
X-353595Y-136350D01*
X-353600Y-136349D01*
X-353600Y-136345D01*
X-353899Y-136090D01*
X-353905Y-136089D01*
X-353905Y-136085D01*
X-354239Y-135880D01*
X-354245Y-135881D01*
X-354246Y-135877D01*
X-354608Y-135727D01*
X-354614Y-135728D01*
X-354616Y-135724D01*
X-354998Y-135633D01*
X-355003Y-135635D01*
X-355005Y-135632D01*
X-355396Y-135601D01*
X-355399Y-135603D01*
X-355400Y-135601D01*
X-364600Y-135601D01*
X-364602Y-135603D01*
X-364604Y-135601D01*
X-364995Y-135632D01*
X-364999Y-135636D01*
X-365002Y-135633D01*
X-365384Y-135724D01*
X-365388Y-135729D01*
X-365392Y-135727D01*
X-365754Y-135877D01*
X-365757Y-135882D01*
X-365761Y-135880D01*
X-366095Y-136085D01*
X-366097Y-136090D01*
X-366101Y-136090D01*
X-366400Y-136345D01*
X-366401Y-136350D01*
X-366405Y-136350D01*
X-366660Y-136649D01*
X-366661Y-136655D01*
X-366665Y-136655D01*
X-366870Y-136989D01*
X-366869Y-136995D01*
X-366874Y-136996D01*
X-367024Y-137358D01*
X-367022Y-137364D01*
X-367026Y-137366D01*
X-367117Y-137748D01*
X-367115Y-137753D01*
X-367118Y-137755D01*
X-367149Y-138146D01*
X-367147Y-138149D01*
X-367149Y-138150D01*
X-367118Y-144341D01*
X-367113Y-144348D01*
X-367117Y-144352D01*
X-367026Y-144734D01*
X-367021Y-144738D01*
X-367024Y-144742D01*
X-366874Y-145104D01*
X-366868Y-145107D01*
X-366870Y-145111D01*
X-366665Y-145445D01*
X-366660Y-145447D01*
X-366660Y-145451D01*
X-366405Y-145750D01*
X-366400Y-145751D01*
X-366400Y-145755D01*
X-366101Y-146010D01*
X-366095Y-146011D01*
X-366095Y-146015D01*
X-365761Y-146220D01*
X-365755Y-146219D01*
X-365754Y-146224D01*
X-365392Y-146374D01*
X-365386Y-146372D01*
X-365384Y-146376D01*
X-365002Y-146467D01*
X-364997Y-146465D01*
X-364995Y-146468D01*
X-364604Y-146499D01*
X-364601Y-146497D01*
X-364600Y-146499D01*
X-355400Y-146499D01*
X-355398Y-146497D01*
G37*
G36*
X344602Y270603D02*
X344602Y270603D01*
X344604Y270601D01*
X344995Y270632D01*
X344999Y270636D01*
X345002Y270633D01*
X345384Y270724D01*
X345388Y270729D01*
X345392Y270727D01*
X345754Y270877D01*
X345757Y270882D01*
X345761Y270880D01*
X346095Y271085D01*
X346097Y271090D01*
X346101Y271090D01*
X346400Y271345D01*
X346401Y271350D01*
X346405Y271350D01*
X346660Y271649D01*
X346661Y271655D01*
X346665Y271655D01*
X346870Y271989D01*
X346869Y271995D01*
X346874Y271996D01*
X347024Y272358D01*
X347023Y272360D01*
X347024Y272360D01*
X347022Y272363D01*
X347022Y272364D01*
X347026Y272366D01*
X347117Y272748D01*
X347115Y272753D01*
X347117Y272754D01*
X347118Y272755D01*
X347149Y273146D01*
X347147Y273149D01*
X347149Y273150D01*
X347118Y279341D01*
X347113Y279348D01*
X347117Y279352D01*
X347026Y279734D01*
X347021Y279738D01*
X347024Y279742D01*
X346874Y280104D01*
X346868Y280107D01*
X346870Y280111D01*
X346665Y280445D01*
X346660Y280447D01*
X346660Y280451D01*
X346405Y280750D01*
X346400Y280751D01*
X346400Y280755D01*
X346101Y281010D01*
X346095Y281011D01*
X346095Y281015D01*
X345761Y281220D01*
X345755Y281219D01*
X345754Y281224D01*
X345392Y281374D01*
X345386Y281372D01*
X345384Y281376D01*
X345002Y281467D01*
X344997Y281465D01*
X344995Y281468D01*
X344604Y281499D01*
X344601Y281497D01*
X344600Y281499D01*
X335400Y281499D01*
X335398Y281497D01*
X335396Y281499D01*
X335005Y281468D01*
X335001Y281464D01*
X334998Y281467D01*
X334616Y281376D01*
X334612Y281371D01*
X334608Y281374D01*
X334246Y281224D01*
X334243Y281218D01*
X334239Y281220D01*
X333905Y281015D01*
X333903Y281010D01*
X333899Y281010D01*
X333600Y280755D01*
X333599Y280750D01*
X333595Y280750D01*
X333340Y280451D01*
X333339Y280445D01*
X333335Y280445D01*
X333130Y280111D01*
X333131Y280105D01*
X333127Y280104D01*
X332977Y279742D01*
X332978Y279736D01*
X332974Y279734D01*
X332883Y279352D01*
X332885Y279347D01*
X332882Y279345D01*
X332851Y278954D01*
X332853Y278951D01*
X332851Y278950D01*
X332882Y272759D01*
X332887Y272752D01*
X332883Y272748D01*
X332974Y272366D01*
X332979Y272362D01*
X332977Y272358D01*
X333127Y271996D01*
X333132Y271993D01*
X333130Y271989D01*
X333335Y271655D01*
X333340Y271653D01*
X333340Y271649D01*
X333595Y271350D01*
X333600Y271349D01*
X333600Y271345D01*
X333899Y271090D01*
X333905Y271089D01*
X333905Y271085D01*
X334239Y270880D01*
X334245Y270881D01*
X334246Y270877D01*
X334608Y270727D01*
X334614Y270728D01*
X334616Y270724D01*
X334998Y270633D01*
X335003Y270635D01*
X335005Y270632D01*
X335396Y270601D01*
X335399Y270603D01*
X335400Y270601D01*
X344600Y270601D01*
X344602Y270603D01*
G37*
G36*
X-5398Y33503D02*
X-5398Y33503D01*
X-5396Y33501D01*
X-5005Y33532D01*
X-5001Y33536D01*
X-4998Y33533D01*
X-4616Y33624D01*
X-4612Y33629D01*
X-4608Y33627D01*
X-4246Y33777D01*
X-4243Y33782D01*
X-4239Y33780D01*
X-3905Y33985D01*
X-3903Y33990D01*
X-3899Y33990D01*
X-3600Y34245D01*
X-3599Y34250D01*
X-3595Y34250D01*
X-3340Y34549D01*
X-3339Y34555D01*
X-3335Y34555D01*
X-3130Y34889D01*
X-3131Y34895D01*
X-3127Y34896D01*
X-2977Y35258D01*
X-2977Y35260D01*
X-2976Y35260D01*
X-2978Y35263D01*
X-2978Y35264D01*
X-2974Y35266D01*
X-2883Y35648D01*
X-2885Y35653D01*
X-2883Y35654D01*
X-2882Y35655D01*
X-2851Y36046D01*
X-2853Y36049D01*
X-2851Y36050D01*
X-2882Y42241D01*
X-2887Y42248D01*
X-2883Y42252D01*
X-2974Y42634D01*
X-2979Y42638D01*
X-2977Y42642D01*
X-3127Y43004D01*
X-3132Y43007D01*
X-3130Y43011D01*
X-3335Y43345D01*
X-3340Y43347D01*
X-3340Y43351D01*
X-3595Y43650D01*
X-3600Y43651D01*
X-3600Y43655D01*
X-3899Y43910D01*
X-3905Y43911D01*
X-3905Y43915D01*
X-4239Y44120D01*
X-4245Y44119D01*
X-4246Y44124D01*
X-4608Y44274D01*
X-4614Y44272D01*
X-4616Y44276D01*
X-4998Y44367D01*
X-5003Y44365D01*
X-5005Y44368D01*
X-5396Y44399D01*
X-5399Y44397D01*
X-5400Y44399D01*
X-14600Y44399D01*
X-14602Y44397D01*
X-14604Y44399D01*
X-14995Y44368D01*
X-14999Y44364D01*
X-15002Y44367D01*
X-15384Y44276D01*
X-15388Y44271D01*
X-15392Y44274D01*
X-15754Y44124D01*
X-15757Y44118D01*
X-15761Y44120D01*
X-16095Y43915D01*
X-16097Y43910D01*
X-16101Y43910D01*
X-16400Y43655D01*
X-16401Y43650D01*
X-16405Y43650D01*
X-16660Y43351D01*
X-16661Y43345D01*
X-16665Y43345D01*
X-16870Y43011D01*
X-16869Y43005D01*
X-16874Y43004D01*
X-17024Y42642D01*
X-17022Y42636D01*
X-17026Y42634D01*
X-17117Y42252D01*
X-17115Y42247D01*
X-17118Y42245D01*
X-17149Y41854D01*
X-17147Y41851D01*
X-17149Y41850D01*
X-17118Y35659D01*
X-17113Y35652D01*
X-17117Y35648D01*
X-17026Y35266D01*
X-17021Y35262D01*
X-17024Y35258D01*
X-16874Y34896D01*
X-16868Y34893D01*
X-16870Y34889D01*
X-16665Y34555D01*
X-16660Y34553D01*
X-16660Y34549D01*
X-16405Y34250D01*
X-16400Y34249D01*
X-16400Y34245D01*
X-16101Y33990D01*
X-16095Y33989D01*
X-16095Y33985D01*
X-15761Y33780D01*
X-15755Y33781D01*
X-15754Y33777D01*
X-15392Y33627D01*
X-15386Y33628D01*
X-15384Y33624D01*
X-15002Y33533D01*
X-14997Y33535D01*
X-14995Y33532D01*
X-14604Y33501D01*
X-14601Y33503D01*
X-14600Y33501D01*
X-5400Y33501D01*
X-5398Y33503D01*
G37*
G36*
X-290398Y35603D02*
X-290398Y35603D01*
X-290396Y35601D01*
X-290005Y35632D01*
X-290001Y35636D01*
X-289998Y35633D01*
X-289616Y35724D01*
X-289612Y35729D01*
X-289608Y35727D01*
X-289246Y35877D01*
X-289243Y35882D01*
X-289239Y35880D01*
X-288905Y36085D01*
X-288903Y36090D01*
X-288899Y36090D01*
X-288600Y36345D01*
X-288599Y36350D01*
X-288595Y36350D01*
X-288340Y36649D01*
X-288339Y36655D01*
X-288335Y36655D01*
X-288130Y36989D01*
X-288131Y36995D01*
X-288127Y36996D01*
X-287977Y37358D01*
X-287977Y37360D01*
X-287976Y37360D01*
X-287978Y37363D01*
X-287978Y37364D01*
X-287974Y37366D01*
X-287883Y37748D01*
X-287885Y37753D01*
X-287883Y37754D01*
X-287882Y37755D01*
X-287851Y38146D01*
X-287853Y38149D01*
X-287851Y38150D01*
X-287882Y44341D01*
X-287887Y44348D01*
X-287883Y44352D01*
X-287974Y44734D01*
X-287979Y44738D01*
X-287977Y44742D01*
X-288127Y45104D01*
X-288132Y45107D01*
X-288130Y45111D01*
X-288335Y45445D01*
X-288340Y45447D01*
X-288340Y45451D01*
X-288595Y45750D01*
X-288600Y45751D01*
X-288600Y45755D01*
X-288899Y46010D01*
X-288905Y46011D01*
X-288905Y46015D01*
X-289239Y46220D01*
X-289245Y46219D01*
X-289246Y46224D01*
X-289608Y46374D01*
X-289614Y46372D01*
X-289616Y46376D01*
X-289998Y46467D01*
X-290003Y46465D01*
X-290005Y46468D01*
X-290396Y46499D01*
X-290399Y46497D01*
X-290400Y46499D01*
X-299600Y46499D01*
X-299602Y46497D01*
X-299604Y46499D01*
X-299995Y46468D01*
X-299999Y46464D01*
X-300002Y46467D01*
X-300384Y46376D01*
X-300388Y46371D01*
X-300392Y46374D01*
X-300754Y46224D01*
X-300757Y46218D01*
X-300761Y46220D01*
X-301095Y46015D01*
X-301097Y46010D01*
X-301101Y46010D01*
X-301400Y45755D01*
X-301401Y45750D01*
X-301405Y45750D01*
X-301660Y45451D01*
X-301661Y45445D01*
X-301665Y45445D01*
X-301870Y45111D01*
X-301869Y45105D01*
X-301874Y45104D01*
X-302024Y44742D01*
X-302022Y44736D01*
X-302026Y44734D01*
X-302117Y44352D01*
X-302115Y44347D01*
X-302118Y44345D01*
X-302149Y43954D01*
X-302147Y43951D01*
X-302149Y43950D01*
X-302118Y37759D01*
X-302113Y37752D01*
X-302117Y37748D01*
X-302026Y37366D01*
X-302021Y37362D01*
X-302024Y37358D01*
X-301874Y36996D01*
X-301868Y36993D01*
X-301870Y36989D01*
X-301665Y36655D01*
X-301660Y36653D01*
X-301660Y36649D01*
X-301405Y36350D01*
X-301400Y36349D01*
X-301400Y36345D01*
X-301101Y36090D01*
X-301095Y36089D01*
X-301095Y36085D01*
X-300761Y35880D01*
X-300755Y35881D01*
X-300754Y35877D01*
X-300392Y35727D01*
X-300386Y35728D01*
X-300384Y35724D01*
X-300002Y35633D01*
X-299997Y35635D01*
X-299995Y35632D01*
X-299604Y35601D01*
X-299601Y35603D01*
X-299600Y35601D01*
X-290400Y35601D01*
X-290398Y35603D01*
G37*
G36*
X309602Y68503D02*
X309602Y68503D01*
X309604Y68501D01*
X309995Y68532D01*
X309999Y68536D01*
X310002Y68533D01*
X310384Y68624D01*
X310388Y68629D01*
X310392Y68627D01*
X310754Y68777D01*
X310757Y68782D01*
X310761Y68780D01*
X311095Y68985D01*
X311097Y68990D01*
X311101Y68990D01*
X311400Y69245D01*
X311401Y69250D01*
X311405Y69250D01*
X311660Y69549D01*
X311661Y69555D01*
X311665Y69555D01*
X311870Y69889D01*
X311869Y69895D01*
X311874Y69896D01*
X312024Y70258D01*
X312023Y70260D01*
X312024Y70260D01*
X312022Y70263D01*
X312022Y70264D01*
X312026Y70266D01*
X312117Y70648D01*
X312115Y70653D01*
X312117Y70654D01*
X312118Y70655D01*
X312149Y71046D01*
X312147Y71049D01*
X312149Y71050D01*
X312118Y77241D01*
X312113Y77248D01*
X312117Y77252D01*
X312026Y77634D01*
X312021Y77638D01*
X312024Y77642D01*
X311874Y78004D01*
X311868Y78007D01*
X311870Y78011D01*
X311665Y78345D01*
X311660Y78347D01*
X311660Y78351D01*
X311405Y78650D01*
X311400Y78651D01*
X311400Y78655D01*
X311101Y78910D01*
X311095Y78911D01*
X311095Y78915D01*
X310761Y79120D01*
X310755Y79119D01*
X310754Y79124D01*
X310392Y79274D01*
X310386Y79272D01*
X310384Y79276D01*
X310002Y79367D01*
X309997Y79365D01*
X309995Y79368D01*
X309604Y79399D01*
X309601Y79397D01*
X309600Y79399D01*
X300400Y79399D01*
X300398Y79397D01*
X300396Y79399D01*
X300005Y79368D01*
X300001Y79364D01*
X299998Y79367D01*
X299616Y79276D01*
X299612Y79271D01*
X299608Y79274D01*
X299246Y79124D01*
X299243Y79118D01*
X299239Y79120D01*
X298905Y78915D01*
X298903Y78910D01*
X298899Y78910D01*
X298600Y78655D01*
X298599Y78650D01*
X298595Y78650D01*
X298340Y78351D01*
X298339Y78345D01*
X298335Y78345D01*
X298130Y78011D01*
X298131Y78005D01*
X298127Y78004D01*
X297977Y77642D01*
X297978Y77636D01*
X297974Y77634D01*
X297883Y77252D01*
X297885Y77247D01*
X297882Y77245D01*
X297851Y76854D01*
X297853Y76851D01*
X297851Y76850D01*
X297882Y70659D01*
X297887Y70652D01*
X297883Y70648D01*
X297974Y70266D01*
X297979Y70262D01*
X297977Y70258D01*
X298127Y69896D01*
X298132Y69893D01*
X298130Y69889D01*
X298335Y69555D01*
X298340Y69553D01*
X298340Y69549D01*
X298595Y69250D01*
X298600Y69249D01*
X298600Y69245D01*
X298899Y68990D01*
X298905Y68989D01*
X298905Y68985D01*
X299239Y68780D01*
X299245Y68781D01*
X299246Y68777D01*
X299608Y68627D01*
X299614Y68628D01*
X299616Y68624D01*
X299998Y68533D01*
X300003Y68535D01*
X300005Y68532D01*
X300396Y68501D01*
X300399Y68503D01*
X300400Y68501D01*
X309600Y68501D01*
X309602Y68503D01*
G37*
G36*
X274602Y68503D02*
X274602Y68503D01*
X274604Y68501D01*
X274995Y68532D01*
X274999Y68536D01*
X275002Y68533D01*
X275384Y68624D01*
X275388Y68629D01*
X275392Y68627D01*
X275754Y68777D01*
X275757Y68782D01*
X275761Y68780D01*
X276095Y68985D01*
X276097Y68990D01*
X276101Y68990D01*
X276400Y69245D01*
X276401Y69250D01*
X276405Y69250D01*
X276660Y69549D01*
X276661Y69555D01*
X276665Y69555D01*
X276870Y69889D01*
X276869Y69895D01*
X276874Y69896D01*
X277024Y70258D01*
X277023Y70260D01*
X277024Y70260D01*
X277022Y70263D01*
X277022Y70264D01*
X277026Y70266D01*
X277117Y70648D01*
X277115Y70653D01*
X277117Y70654D01*
X277118Y70655D01*
X277149Y71046D01*
X277147Y71049D01*
X277149Y71050D01*
X277118Y77241D01*
X277113Y77248D01*
X277117Y77252D01*
X277026Y77634D01*
X277021Y77638D01*
X277024Y77642D01*
X276874Y78004D01*
X276868Y78007D01*
X276870Y78011D01*
X276665Y78345D01*
X276660Y78347D01*
X276660Y78351D01*
X276405Y78650D01*
X276400Y78651D01*
X276400Y78655D01*
X276101Y78910D01*
X276095Y78911D01*
X276095Y78915D01*
X275761Y79120D01*
X275755Y79119D01*
X275754Y79124D01*
X275392Y79274D01*
X275386Y79272D01*
X275384Y79276D01*
X275002Y79367D01*
X274997Y79365D01*
X274995Y79368D01*
X274604Y79399D01*
X274601Y79397D01*
X274600Y79399D01*
X265400Y79399D01*
X265398Y79397D01*
X265396Y79399D01*
X265005Y79368D01*
X265001Y79364D01*
X264998Y79367D01*
X264616Y79276D01*
X264612Y79271D01*
X264608Y79274D01*
X264246Y79124D01*
X264243Y79118D01*
X264239Y79120D01*
X263905Y78915D01*
X263903Y78910D01*
X263899Y78910D01*
X263600Y78655D01*
X263599Y78650D01*
X263595Y78650D01*
X263340Y78351D01*
X263339Y78345D01*
X263335Y78345D01*
X263130Y78011D01*
X263131Y78005D01*
X263127Y78004D01*
X262977Y77642D01*
X262978Y77636D01*
X262974Y77634D01*
X262883Y77252D01*
X262885Y77247D01*
X262882Y77245D01*
X262851Y76854D01*
X262853Y76851D01*
X262851Y76850D01*
X262882Y70659D01*
X262887Y70652D01*
X262883Y70648D01*
X262974Y70266D01*
X262979Y70262D01*
X262977Y70258D01*
X263127Y69896D01*
X263132Y69893D01*
X263130Y69889D01*
X263335Y69555D01*
X263340Y69553D01*
X263340Y69549D01*
X263595Y69250D01*
X263600Y69249D01*
X263600Y69245D01*
X263899Y68990D01*
X263905Y68989D01*
X263905Y68985D01*
X264239Y68780D01*
X264245Y68781D01*
X264246Y68777D01*
X264608Y68627D01*
X264614Y68628D01*
X264616Y68624D01*
X264998Y68533D01*
X265003Y68535D01*
X265005Y68532D01*
X265396Y68501D01*
X265399Y68503D01*
X265400Y68501D01*
X274600Y68501D01*
X274602Y68503D01*
G37*
G36*
X244602Y288503D02*
X244602Y288503D01*
X244604Y288501D01*
X244995Y288532D01*
X244999Y288536D01*
X245002Y288533D01*
X245384Y288624D01*
X245388Y288629D01*
X245392Y288627D01*
X245754Y288777D01*
X245757Y288782D01*
X245761Y288780D01*
X246095Y288985D01*
X246097Y288990D01*
X246101Y288990D01*
X246400Y289245D01*
X246401Y289250D01*
X246405Y289250D01*
X246660Y289549D01*
X246661Y289555D01*
X246665Y289555D01*
X246870Y289889D01*
X246869Y289895D01*
X246874Y289896D01*
X247024Y290258D01*
X247023Y290260D01*
X247024Y290260D01*
X247022Y290263D01*
X247022Y290264D01*
X247026Y290266D01*
X247117Y290648D01*
X247115Y290653D01*
X247117Y290654D01*
X247118Y290655D01*
X247149Y291046D01*
X247147Y291049D01*
X247149Y291050D01*
X247118Y297241D01*
X247113Y297248D01*
X247117Y297252D01*
X247026Y297634D01*
X247021Y297638D01*
X247024Y297642D01*
X246874Y298004D01*
X246868Y298007D01*
X246870Y298011D01*
X246665Y298345D01*
X246660Y298347D01*
X246660Y298351D01*
X246405Y298650D01*
X246400Y298651D01*
X246400Y298655D01*
X246101Y298910D01*
X246095Y298911D01*
X246095Y298915D01*
X245761Y299120D01*
X245755Y299119D01*
X245754Y299124D01*
X245392Y299274D01*
X245386Y299272D01*
X245384Y299276D01*
X245002Y299367D01*
X244997Y299365D01*
X244995Y299368D01*
X244604Y299399D01*
X244601Y299397D01*
X244600Y299399D01*
X235400Y299399D01*
X235398Y299397D01*
X235396Y299399D01*
X235005Y299368D01*
X235001Y299364D01*
X234998Y299367D01*
X234616Y299276D01*
X234612Y299271D01*
X234608Y299274D01*
X234246Y299124D01*
X234243Y299118D01*
X234239Y299120D01*
X233905Y298915D01*
X233903Y298910D01*
X233899Y298910D01*
X233600Y298655D01*
X233599Y298650D01*
X233595Y298650D01*
X233340Y298351D01*
X233339Y298345D01*
X233335Y298345D01*
X233130Y298011D01*
X233131Y298005D01*
X233127Y298004D01*
X232977Y297642D01*
X232978Y297636D01*
X232974Y297634D01*
X232883Y297252D01*
X232885Y297247D01*
X232882Y297245D01*
X232851Y296854D01*
X232853Y296851D01*
X232851Y296850D01*
X232882Y290659D01*
X232887Y290652D01*
X232883Y290648D01*
X232974Y290266D01*
X232979Y290262D01*
X232977Y290258D01*
X233127Y289896D01*
X233132Y289893D01*
X233130Y289889D01*
X233335Y289555D01*
X233340Y289553D01*
X233340Y289549D01*
X233595Y289250D01*
X233600Y289249D01*
X233600Y289245D01*
X233899Y288990D01*
X233905Y288989D01*
X233905Y288985D01*
X234239Y288780D01*
X234245Y288781D01*
X234246Y288777D01*
X234608Y288627D01*
X234614Y288628D01*
X234616Y288624D01*
X234998Y288533D01*
X235003Y288535D01*
X235005Y288532D01*
X235396Y288501D01*
X235399Y288503D01*
X235400Y288501D01*
X244600Y288501D01*
X244602Y288503D01*
G37*
G36*
X-290398Y53503D02*
X-290398Y53503D01*
X-290396Y53501D01*
X-290005Y53532D01*
X-290001Y53536D01*
X-289998Y53533D01*
X-289616Y53624D01*
X-289612Y53629D01*
X-289608Y53627D01*
X-289246Y53777D01*
X-289243Y53782D01*
X-289239Y53780D01*
X-288905Y53985D01*
X-288903Y53990D01*
X-288899Y53990D01*
X-288600Y54245D01*
X-288599Y54250D01*
X-288595Y54250D01*
X-288340Y54549D01*
X-288339Y54555D01*
X-288335Y54555D01*
X-288130Y54889D01*
X-288131Y54895D01*
X-288127Y54896D01*
X-287977Y55258D01*
X-287977Y55260D01*
X-287976Y55260D01*
X-287978Y55263D01*
X-287978Y55264D01*
X-287974Y55266D01*
X-287883Y55648D01*
X-287885Y55653D01*
X-287883Y55654D01*
X-287882Y55655D01*
X-287851Y56046D01*
X-287853Y56049D01*
X-287851Y56050D01*
X-287882Y62241D01*
X-287887Y62248D01*
X-287883Y62252D01*
X-287974Y62634D01*
X-287979Y62638D01*
X-287977Y62642D01*
X-288127Y63004D01*
X-288132Y63007D01*
X-288130Y63011D01*
X-288335Y63345D01*
X-288340Y63347D01*
X-288340Y63351D01*
X-288595Y63650D01*
X-288600Y63651D01*
X-288600Y63655D01*
X-288899Y63910D01*
X-288905Y63911D01*
X-288905Y63915D01*
X-289239Y64120D01*
X-289245Y64119D01*
X-289246Y64124D01*
X-289608Y64274D01*
X-289614Y64272D01*
X-289616Y64276D01*
X-289998Y64367D01*
X-290003Y64365D01*
X-290005Y64368D01*
X-290396Y64399D01*
X-290399Y64397D01*
X-290400Y64399D01*
X-299600Y64399D01*
X-299602Y64397D01*
X-299604Y64399D01*
X-299995Y64368D01*
X-299999Y64364D01*
X-300002Y64367D01*
X-300384Y64276D01*
X-300388Y64271D01*
X-300392Y64274D01*
X-300754Y64124D01*
X-300757Y64118D01*
X-300761Y64120D01*
X-301095Y63915D01*
X-301097Y63910D01*
X-301101Y63910D01*
X-301400Y63655D01*
X-301401Y63650D01*
X-301405Y63650D01*
X-301660Y63351D01*
X-301661Y63345D01*
X-301665Y63345D01*
X-301870Y63011D01*
X-301869Y63005D01*
X-301874Y63004D01*
X-302024Y62642D01*
X-302022Y62636D01*
X-302026Y62634D01*
X-302117Y62252D01*
X-302115Y62247D01*
X-302118Y62245D01*
X-302149Y61854D01*
X-302147Y61851D01*
X-302149Y61850D01*
X-302118Y55659D01*
X-302113Y55652D01*
X-302117Y55648D01*
X-302026Y55266D01*
X-302021Y55262D01*
X-302024Y55258D01*
X-301874Y54896D01*
X-301868Y54893D01*
X-301870Y54889D01*
X-301665Y54555D01*
X-301660Y54553D01*
X-301660Y54549D01*
X-301405Y54250D01*
X-301400Y54249D01*
X-301400Y54245D01*
X-301101Y53990D01*
X-301095Y53989D01*
X-301095Y53985D01*
X-300761Y53780D01*
X-300755Y53781D01*
X-300754Y53777D01*
X-300392Y53627D01*
X-300386Y53628D01*
X-300384Y53624D01*
X-300002Y53533D01*
X-299997Y53535D01*
X-299995Y53532D01*
X-299604Y53501D01*
X-299601Y53503D01*
X-299600Y53501D01*
X-290400Y53501D01*
X-290398Y53503D01*
G37*
G36*
X-25398Y173503D02*
X-25398Y173503D01*
X-25396Y173501D01*
X-25005Y173532D01*
X-25001Y173536D01*
X-24998Y173533D01*
X-24616Y173624D01*
X-24612Y173629D01*
X-24608Y173627D01*
X-24246Y173777D01*
X-24243Y173782D01*
X-24239Y173780D01*
X-23905Y173985D01*
X-23903Y173990D01*
X-23899Y173990D01*
X-23600Y174245D01*
X-23599Y174250D01*
X-23595Y174250D01*
X-23340Y174549D01*
X-23339Y174555D01*
X-23335Y174555D01*
X-23130Y174889D01*
X-23131Y174895D01*
X-23127Y174896D01*
X-22977Y175258D01*
X-22977Y175260D01*
X-22976Y175260D01*
X-22978Y175263D01*
X-22978Y175264D01*
X-22974Y175266D01*
X-22883Y175648D01*
X-22885Y175653D01*
X-22883Y175654D01*
X-22882Y175655D01*
X-22851Y176046D01*
X-22853Y176049D01*
X-22851Y176050D01*
X-22882Y182241D01*
X-22887Y182248D01*
X-22883Y182252D01*
X-22974Y182634D01*
X-22979Y182638D01*
X-22977Y182642D01*
X-23127Y183004D01*
X-23132Y183007D01*
X-23130Y183011D01*
X-23335Y183345D01*
X-23340Y183347D01*
X-23340Y183351D01*
X-23595Y183650D01*
X-23600Y183651D01*
X-23600Y183655D01*
X-23899Y183910D01*
X-23905Y183911D01*
X-23905Y183915D01*
X-24239Y184120D01*
X-24245Y184119D01*
X-24246Y184124D01*
X-24608Y184274D01*
X-24614Y184272D01*
X-24616Y184276D01*
X-24998Y184367D01*
X-25003Y184365D01*
X-25005Y184368D01*
X-25396Y184399D01*
X-25399Y184397D01*
X-25400Y184399D01*
X-34600Y184399D01*
X-34602Y184397D01*
X-34604Y184399D01*
X-34995Y184368D01*
X-34999Y184364D01*
X-35002Y184367D01*
X-35384Y184276D01*
X-35388Y184271D01*
X-35392Y184274D01*
X-35754Y184124D01*
X-35757Y184118D01*
X-35761Y184120D01*
X-36095Y183915D01*
X-36097Y183910D01*
X-36101Y183910D01*
X-36400Y183655D01*
X-36401Y183650D01*
X-36405Y183650D01*
X-36660Y183351D01*
X-36661Y183345D01*
X-36665Y183345D01*
X-36870Y183011D01*
X-36869Y183005D01*
X-36874Y183004D01*
X-37024Y182642D01*
X-37022Y182636D01*
X-37026Y182634D01*
X-37117Y182252D01*
X-37115Y182247D01*
X-37118Y182245D01*
X-37149Y181854D01*
X-37147Y181851D01*
X-37149Y181850D01*
X-37118Y175659D01*
X-37113Y175652D01*
X-37117Y175648D01*
X-37026Y175266D01*
X-37021Y175262D01*
X-37024Y175258D01*
X-36874Y174896D01*
X-36868Y174893D01*
X-36870Y174889D01*
X-36665Y174555D01*
X-36660Y174553D01*
X-36660Y174549D01*
X-36405Y174250D01*
X-36400Y174249D01*
X-36400Y174245D01*
X-36101Y173990D01*
X-36095Y173989D01*
X-36095Y173985D01*
X-35761Y173780D01*
X-35755Y173781D01*
X-35754Y173777D01*
X-35392Y173627D01*
X-35386Y173628D01*
X-35384Y173624D01*
X-35002Y173533D01*
X-34997Y173535D01*
X-34995Y173532D01*
X-34604Y173501D01*
X-34601Y173503D01*
X-34600Y173501D01*
X-25400Y173501D01*
X-25398Y173503D01*
G37*
G36*
X-155398Y-164197D02*
X-155398Y-164197D01*
X-155396Y-164199D01*
X-155036Y-164171D01*
X-155032Y-164167D01*
X-155028Y-164170D01*
X-154677Y-164085D01*
X-154674Y-164080D01*
X-154670Y-164083D01*
X-154337Y-163945D01*
X-154334Y-163940D01*
X-154330Y-163941D01*
X-154022Y-163753D01*
X-154020Y-163747D01*
X-154016Y-163748D01*
X-153742Y-163513D01*
X-153741Y-163508D01*
X-153737Y-163508D01*
X-153502Y-163234D01*
X-153501Y-163228D01*
X-153497Y-163228D01*
X-153309Y-162920D01*
X-153310Y-162914D01*
X-153306Y-162913D01*
X-153168Y-162580D01*
X-153169Y-162574D01*
X-153165Y-162573D01*
X-153080Y-162222D01*
X-153083Y-162216D01*
X-153079Y-162214D01*
X-153051Y-161854D01*
X-153053Y-161851D01*
X-153051Y-161850D01*
X-153079Y-156890D01*
X-153084Y-156883D01*
X-153080Y-156878D01*
X-153165Y-156527D01*
X-153170Y-156524D01*
X-153168Y-156520D01*
X-153306Y-156187D01*
X-153311Y-156184D01*
X-153309Y-156180D01*
X-153497Y-155872D01*
X-153503Y-155870D01*
X-153502Y-155866D01*
X-153737Y-155592D01*
X-153742Y-155591D01*
X-153742Y-155587D01*
X-154016Y-155352D01*
X-154022Y-155351D01*
X-154022Y-155347D01*
X-154330Y-155159D01*
X-154336Y-155160D01*
X-154337Y-155156D01*
X-154670Y-155018D01*
X-154676Y-155019D01*
X-154677Y-155015D01*
X-155028Y-154930D01*
X-155034Y-154933D01*
X-155036Y-154929D01*
X-155396Y-154901D01*
X-155399Y-154903D01*
X-155400Y-154901D01*
X-164600Y-154901D01*
X-164602Y-154903D01*
X-164604Y-154901D01*
X-164964Y-154929D01*
X-164968Y-154933D01*
X-164972Y-154930D01*
X-165323Y-155015D01*
X-165326Y-155020D01*
X-165330Y-155018D01*
X-165663Y-155156D01*
X-165666Y-155161D01*
X-165670Y-155159D01*
X-165978Y-155347D01*
X-165980Y-155353D01*
X-165984Y-155352D01*
X-166258Y-155587D01*
X-166259Y-155592D01*
X-166263Y-155592D01*
X-166498Y-155866D01*
X-166499Y-155872D01*
X-166503Y-155872D01*
X-166691Y-156180D01*
X-166690Y-156186D01*
X-166695Y-156187D01*
X-166833Y-156520D01*
X-166831Y-156526D01*
X-166835Y-156527D01*
X-166920Y-156878D01*
X-166918Y-156884D01*
X-166921Y-156886D01*
X-166949Y-157246D01*
X-166947Y-157249D01*
X-166949Y-157250D01*
X-166921Y-162210D01*
X-166916Y-162217D01*
X-166920Y-162222D01*
X-166835Y-162573D01*
X-166830Y-162576D01*
X-166833Y-162580D01*
X-166695Y-162913D01*
X-166690Y-162916D01*
X-166691Y-162920D01*
X-166503Y-163228D01*
X-166497Y-163230D01*
X-166498Y-163234D01*
X-166263Y-163508D01*
X-166258Y-163509D01*
X-166258Y-163513D01*
X-165984Y-163748D01*
X-165978Y-163749D01*
X-165978Y-163753D01*
X-165670Y-163941D01*
X-165664Y-163940D01*
X-165663Y-163945D01*
X-165330Y-164083D01*
X-165324Y-164081D01*
X-165323Y-164085D01*
X-164972Y-164170D01*
X-164966Y-164168D01*
X-164964Y-164171D01*
X-164604Y-164199D01*
X-164601Y-164198D01*
X-164600Y-164199D01*
X-155400Y-164199D01*
X-155398Y-164197D01*
G37*
G36*
X384602Y-145097D02*
X384602Y-145097D01*
X384604Y-145099D01*
X384964Y-145071D01*
X384968Y-145067D01*
X384972Y-145070D01*
X385323Y-144985D01*
X385326Y-144980D01*
X385330Y-144983D01*
X385663Y-144845D01*
X385666Y-144840D01*
X385670Y-144841D01*
X385978Y-144653D01*
X385980Y-144647D01*
X385984Y-144648D01*
X386258Y-144413D01*
X386259Y-144408D01*
X386263Y-144408D01*
X386498Y-144134D01*
X386499Y-144128D01*
X386503Y-144128D01*
X386691Y-143820D01*
X386690Y-143814D01*
X386695Y-143813D01*
X386833Y-143480D01*
X386831Y-143474D01*
X386835Y-143473D01*
X386920Y-143122D01*
X386918Y-143116D01*
X386921Y-143114D01*
X386949Y-142754D01*
X386947Y-142751D01*
X386949Y-142750D01*
X386921Y-137790D01*
X386916Y-137783D01*
X386920Y-137778D01*
X386835Y-137427D01*
X386830Y-137424D01*
X386833Y-137420D01*
X386695Y-137087D01*
X386690Y-137084D01*
X386691Y-137080D01*
X386503Y-136772D01*
X386497Y-136770D01*
X386498Y-136766D01*
X386263Y-136492D01*
X386258Y-136491D01*
X386258Y-136487D01*
X385984Y-136252D01*
X385978Y-136251D01*
X385978Y-136247D01*
X385670Y-136059D01*
X385664Y-136060D01*
X385663Y-136056D01*
X385330Y-135918D01*
X385324Y-135919D01*
X385323Y-135915D01*
X384972Y-135830D01*
X384966Y-135833D01*
X384964Y-135829D01*
X384604Y-135801D01*
X384601Y-135803D01*
X384600Y-135801D01*
X375400Y-135801D01*
X375398Y-135803D01*
X375396Y-135801D01*
X375036Y-135829D01*
X375032Y-135833D01*
X375028Y-135830D01*
X374677Y-135915D01*
X374674Y-135920D01*
X374670Y-135918D01*
X374337Y-136056D01*
X374334Y-136061D01*
X374330Y-136059D01*
X374022Y-136247D01*
X374020Y-136253D01*
X374016Y-136252D01*
X373742Y-136487D01*
X373741Y-136492D01*
X373737Y-136492D01*
X373502Y-136766D01*
X373501Y-136772D01*
X373497Y-136772D01*
X373309Y-137080D01*
X373310Y-137086D01*
X373306Y-137087D01*
X373168Y-137420D01*
X373169Y-137426D01*
X373165Y-137427D01*
X373080Y-137778D01*
X373083Y-137784D01*
X373079Y-137786D01*
X373051Y-138146D01*
X373053Y-138149D01*
X373051Y-138150D01*
X373079Y-143110D01*
X373084Y-143117D01*
X373080Y-143122D01*
X373165Y-143473D01*
X373170Y-143476D01*
X373168Y-143480D01*
X373306Y-143813D01*
X373311Y-143816D01*
X373309Y-143820D01*
X373497Y-144128D01*
X373503Y-144130D01*
X373502Y-144134D01*
X373737Y-144408D01*
X373742Y-144409D01*
X373742Y-144413D01*
X374016Y-144648D01*
X374022Y-144649D01*
X374022Y-144653D01*
X374330Y-144841D01*
X374336Y-144840D01*
X374337Y-144845D01*
X374670Y-144983D01*
X374676Y-144981D01*
X374677Y-144985D01*
X375028Y-145070D01*
X375034Y-145068D01*
X375036Y-145071D01*
X375396Y-145099D01*
X375399Y-145098D01*
X375400Y-145099D01*
X384600Y-145099D01*
X384602Y-145097D01*
G37*
G36*
X-315398Y-164197D02*
X-315398Y-164197D01*
X-315396Y-164199D01*
X-315036Y-164171D01*
X-315032Y-164167D01*
X-315028Y-164170D01*
X-314677Y-164085D01*
X-314674Y-164080D01*
X-314670Y-164083D01*
X-314337Y-163945D01*
X-314334Y-163940D01*
X-314330Y-163941D01*
X-314022Y-163753D01*
X-314020Y-163747D01*
X-314016Y-163748D01*
X-313742Y-163513D01*
X-313741Y-163508D01*
X-313737Y-163508D01*
X-313502Y-163234D01*
X-313501Y-163228D01*
X-313497Y-163228D01*
X-313309Y-162920D01*
X-313310Y-162914D01*
X-313306Y-162913D01*
X-313168Y-162580D01*
X-313169Y-162574D01*
X-313165Y-162573D01*
X-313080Y-162222D01*
X-313083Y-162216D01*
X-313079Y-162214D01*
X-313051Y-161854D01*
X-313053Y-161851D01*
X-313051Y-161850D01*
X-313079Y-156890D01*
X-313084Y-156883D01*
X-313080Y-156878D01*
X-313165Y-156527D01*
X-313170Y-156524D01*
X-313168Y-156520D01*
X-313306Y-156187D01*
X-313311Y-156184D01*
X-313309Y-156180D01*
X-313497Y-155872D01*
X-313503Y-155870D01*
X-313502Y-155866D01*
X-313737Y-155592D01*
X-313742Y-155591D01*
X-313742Y-155587D01*
X-314016Y-155352D01*
X-314022Y-155351D01*
X-314022Y-155347D01*
X-314330Y-155159D01*
X-314336Y-155160D01*
X-314337Y-155156D01*
X-314670Y-155018D01*
X-314676Y-155019D01*
X-314677Y-155015D01*
X-315028Y-154930D01*
X-315034Y-154933D01*
X-315036Y-154929D01*
X-315396Y-154901D01*
X-315399Y-154903D01*
X-315400Y-154901D01*
X-324600Y-154901D01*
X-324602Y-154903D01*
X-324604Y-154901D01*
X-324964Y-154929D01*
X-324968Y-154933D01*
X-324972Y-154930D01*
X-325323Y-155015D01*
X-325326Y-155020D01*
X-325330Y-155018D01*
X-325663Y-155156D01*
X-325666Y-155161D01*
X-325670Y-155159D01*
X-325978Y-155347D01*
X-325980Y-155353D01*
X-325984Y-155352D01*
X-326258Y-155587D01*
X-326259Y-155592D01*
X-326263Y-155592D01*
X-326498Y-155866D01*
X-326499Y-155872D01*
X-326503Y-155872D01*
X-326691Y-156180D01*
X-326690Y-156186D01*
X-326695Y-156187D01*
X-326833Y-156520D01*
X-326831Y-156526D01*
X-326835Y-156527D01*
X-326920Y-156878D01*
X-326918Y-156884D01*
X-326921Y-156886D01*
X-326949Y-157246D01*
X-326947Y-157249D01*
X-326949Y-157250D01*
X-326921Y-162210D01*
X-326916Y-162217D01*
X-326920Y-162222D01*
X-326835Y-162573D01*
X-326830Y-162576D01*
X-326833Y-162580D01*
X-326695Y-162913D01*
X-326690Y-162916D01*
X-326691Y-162920D01*
X-326503Y-163228D01*
X-326497Y-163230D01*
X-326498Y-163234D01*
X-326263Y-163508D01*
X-326258Y-163509D01*
X-326258Y-163513D01*
X-325984Y-163748D01*
X-325978Y-163749D01*
X-325978Y-163753D01*
X-325670Y-163941D01*
X-325664Y-163940D01*
X-325663Y-163945D01*
X-325330Y-164083D01*
X-325324Y-164081D01*
X-325323Y-164085D01*
X-324972Y-164170D01*
X-324966Y-164168D01*
X-324964Y-164171D01*
X-324604Y-164199D01*
X-324601Y-164198D01*
X-324600Y-164199D01*
X-315400Y-164199D01*
X-315398Y-164197D01*
G37*
G36*
X264602Y-164197D02*
X264602Y-164197D01*
X264604Y-164199D01*
X264964Y-164171D01*
X264968Y-164167D01*
X264972Y-164170D01*
X265323Y-164085D01*
X265326Y-164080D01*
X265330Y-164083D01*
X265663Y-163945D01*
X265666Y-163940D01*
X265670Y-163941D01*
X265978Y-163753D01*
X265980Y-163747D01*
X265984Y-163748D01*
X266258Y-163513D01*
X266259Y-163508D01*
X266263Y-163508D01*
X266498Y-163234D01*
X266499Y-163228D01*
X266503Y-163228D01*
X266691Y-162920D01*
X266690Y-162914D01*
X266695Y-162913D01*
X266833Y-162580D01*
X266831Y-162574D01*
X266835Y-162573D01*
X266920Y-162222D01*
X266918Y-162216D01*
X266921Y-162214D01*
X266949Y-161854D01*
X266947Y-161851D01*
X266949Y-161850D01*
X266921Y-156890D01*
X266916Y-156883D01*
X266920Y-156878D01*
X266835Y-156527D01*
X266830Y-156524D01*
X266833Y-156520D01*
X266695Y-156187D01*
X266690Y-156184D01*
X266691Y-156180D01*
X266503Y-155872D01*
X266497Y-155870D01*
X266498Y-155866D01*
X266263Y-155592D01*
X266258Y-155591D01*
X266258Y-155587D01*
X265984Y-155352D01*
X265978Y-155351D01*
X265978Y-155347D01*
X265670Y-155159D01*
X265664Y-155160D01*
X265663Y-155156D01*
X265330Y-155018D01*
X265324Y-155019D01*
X265323Y-155015D01*
X264972Y-154930D01*
X264966Y-154933D01*
X264964Y-154929D01*
X264604Y-154901D01*
X264601Y-154903D01*
X264600Y-154901D01*
X255400Y-154901D01*
X255398Y-154903D01*
X255396Y-154901D01*
X255036Y-154929D01*
X255032Y-154933D01*
X255028Y-154930D01*
X254677Y-155015D01*
X254674Y-155020D01*
X254670Y-155018D01*
X254337Y-155156D01*
X254334Y-155161D01*
X254330Y-155159D01*
X254022Y-155347D01*
X254020Y-155353D01*
X254016Y-155352D01*
X253742Y-155587D01*
X253741Y-155592D01*
X253737Y-155592D01*
X253502Y-155866D01*
X253501Y-155872D01*
X253497Y-155872D01*
X253309Y-156180D01*
X253310Y-156186D01*
X253306Y-156187D01*
X253168Y-156520D01*
X253169Y-156526D01*
X253165Y-156527D01*
X253080Y-156878D01*
X253083Y-156884D01*
X253079Y-156886D01*
X253051Y-157246D01*
X253053Y-157249D01*
X253051Y-157250D01*
X253079Y-162210D01*
X253084Y-162217D01*
X253080Y-162222D01*
X253165Y-162573D01*
X253170Y-162576D01*
X253168Y-162580D01*
X253306Y-162913D01*
X253311Y-162916D01*
X253309Y-162920D01*
X253497Y-163228D01*
X253503Y-163230D01*
X253502Y-163234D01*
X253737Y-163508D01*
X253742Y-163509D01*
X253742Y-163513D01*
X254016Y-163748D01*
X254022Y-163749D01*
X254022Y-163753D01*
X254330Y-163941D01*
X254336Y-163940D01*
X254337Y-163945D01*
X254670Y-164083D01*
X254676Y-164081D01*
X254677Y-164085D01*
X255028Y-164170D01*
X255034Y-164168D01*
X255036Y-164171D01*
X255396Y-164199D01*
X255399Y-164198D01*
X255400Y-164199D01*
X264600Y-164199D01*
X264602Y-164197D01*
G37*
G36*
X-330398Y135803D02*
X-330398Y135803D01*
X-330396Y135801D01*
X-330036Y135829D01*
X-330032Y135833D01*
X-330028Y135830D01*
X-329677Y135915D01*
X-329674Y135920D01*
X-329670Y135918D01*
X-329337Y136056D01*
X-329334Y136061D01*
X-329330Y136059D01*
X-329022Y136247D01*
X-329020Y136253D01*
X-329016Y136252D01*
X-328742Y136487D01*
X-328741Y136492D01*
X-328737Y136492D01*
X-328502Y136766D01*
X-328501Y136772D01*
X-328497Y136772D01*
X-328309Y137080D01*
X-328310Y137086D01*
X-328306Y137087D01*
X-328168Y137420D01*
X-328169Y137426D01*
X-328165Y137427D01*
X-328080Y137778D01*
X-328083Y137784D01*
X-328079Y137786D01*
X-328051Y138146D01*
X-328053Y138149D01*
X-328051Y138150D01*
X-328079Y143110D01*
X-328084Y143117D01*
X-328080Y143122D01*
X-328165Y143473D01*
X-328170Y143476D01*
X-328168Y143480D01*
X-328306Y143813D01*
X-328311Y143816D01*
X-328309Y143820D01*
X-328497Y144128D01*
X-328503Y144130D01*
X-328502Y144134D01*
X-328737Y144408D01*
X-328742Y144409D01*
X-328742Y144413D01*
X-329016Y144648D01*
X-329022Y144649D01*
X-329022Y144653D01*
X-329330Y144841D01*
X-329336Y144840D01*
X-329337Y144845D01*
X-329670Y144983D01*
X-329676Y144981D01*
X-329677Y144985D01*
X-330028Y145070D01*
X-330034Y145068D01*
X-330036Y145071D01*
X-330396Y145099D01*
X-330399Y145098D01*
X-330400Y145099D01*
X-339600Y145099D01*
X-339602Y145097D01*
X-339604Y145099D01*
X-339964Y145071D01*
X-339968Y145067D01*
X-339972Y145070D01*
X-340323Y144985D01*
X-340326Y144980D01*
X-340330Y144983D01*
X-340663Y144845D01*
X-340666Y144840D01*
X-340670Y144841D01*
X-340978Y144653D01*
X-340980Y144647D01*
X-340984Y144648D01*
X-341258Y144413D01*
X-341259Y144408D01*
X-341263Y144408D01*
X-341498Y144134D01*
X-341499Y144128D01*
X-341503Y144128D01*
X-341691Y143820D01*
X-341690Y143814D01*
X-341695Y143813D01*
X-341833Y143480D01*
X-341831Y143474D01*
X-341835Y143473D01*
X-341920Y143122D01*
X-341918Y143116D01*
X-341921Y143114D01*
X-341949Y142754D01*
X-341947Y142751D01*
X-341949Y142750D01*
X-341921Y137790D01*
X-341916Y137783D01*
X-341920Y137778D01*
X-341835Y137427D01*
X-341830Y137424D01*
X-341833Y137420D01*
X-341695Y137087D01*
X-341690Y137084D01*
X-341691Y137080D01*
X-341503Y136772D01*
X-341497Y136770D01*
X-341498Y136766D01*
X-341263Y136492D01*
X-341258Y136491D01*
X-341258Y136487D01*
X-340984Y136252D01*
X-340978Y136251D01*
X-340978Y136247D01*
X-340670Y136059D01*
X-340664Y136060D01*
X-340663Y136056D01*
X-340330Y135918D01*
X-340324Y135919D01*
X-340323Y135915D01*
X-339972Y135830D01*
X-339966Y135833D01*
X-339964Y135829D01*
X-339604Y135801D01*
X-339601Y135803D01*
X-339600Y135801D01*
X-330400Y135801D01*
X-330398Y135803D01*
G37*
G36*
X-155398Y-145097D02*
X-155398Y-145097D01*
X-155396Y-145099D01*
X-155036Y-145071D01*
X-155032Y-145067D01*
X-155028Y-145070D01*
X-154677Y-144985D01*
X-154674Y-144980D01*
X-154670Y-144983D01*
X-154337Y-144845D01*
X-154334Y-144840D01*
X-154330Y-144841D01*
X-154022Y-144653D01*
X-154020Y-144647D01*
X-154016Y-144648D01*
X-153742Y-144413D01*
X-153741Y-144408D01*
X-153737Y-144408D01*
X-153502Y-144134D01*
X-153501Y-144128D01*
X-153497Y-144128D01*
X-153309Y-143820D01*
X-153310Y-143814D01*
X-153306Y-143813D01*
X-153168Y-143480D01*
X-153169Y-143474D01*
X-153165Y-143473D01*
X-153080Y-143122D01*
X-153083Y-143116D01*
X-153079Y-143114D01*
X-153051Y-142754D01*
X-153053Y-142751D01*
X-153051Y-142750D01*
X-153079Y-137790D01*
X-153084Y-137783D01*
X-153080Y-137778D01*
X-153165Y-137427D01*
X-153170Y-137424D01*
X-153168Y-137420D01*
X-153306Y-137087D01*
X-153311Y-137084D01*
X-153309Y-137080D01*
X-153497Y-136772D01*
X-153503Y-136770D01*
X-153502Y-136766D01*
X-153737Y-136492D01*
X-153742Y-136491D01*
X-153742Y-136487D01*
X-154016Y-136252D01*
X-154022Y-136251D01*
X-154022Y-136247D01*
X-154330Y-136059D01*
X-154336Y-136060D01*
X-154337Y-136056D01*
X-154670Y-135918D01*
X-154676Y-135919D01*
X-154677Y-135915D01*
X-155028Y-135830D01*
X-155034Y-135833D01*
X-155036Y-135829D01*
X-155396Y-135801D01*
X-155399Y-135803D01*
X-155400Y-135801D01*
X-164600Y-135801D01*
X-164602Y-135803D01*
X-164604Y-135801D01*
X-164964Y-135829D01*
X-164968Y-135833D01*
X-164972Y-135830D01*
X-165323Y-135915D01*
X-165326Y-135920D01*
X-165330Y-135918D01*
X-165663Y-136056D01*
X-165666Y-136061D01*
X-165670Y-136059D01*
X-165978Y-136247D01*
X-165980Y-136253D01*
X-165984Y-136252D01*
X-166258Y-136487D01*
X-166259Y-136492D01*
X-166263Y-136492D01*
X-166498Y-136766D01*
X-166499Y-136772D01*
X-166503Y-136772D01*
X-166691Y-137080D01*
X-166690Y-137086D01*
X-166695Y-137087D01*
X-166833Y-137420D01*
X-166831Y-137426D01*
X-166835Y-137427D01*
X-166920Y-137778D01*
X-166918Y-137784D01*
X-166921Y-137786D01*
X-166949Y-138146D01*
X-166947Y-138149D01*
X-166949Y-138150D01*
X-166921Y-143110D01*
X-166916Y-143117D01*
X-166920Y-143122D01*
X-166835Y-143473D01*
X-166830Y-143476D01*
X-166833Y-143480D01*
X-166695Y-143813D01*
X-166690Y-143816D01*
X-166691Y-143820D01*
X-166503Y-144128D01*
X-166497Y-144130D01*
X-166498Y-144134D01*
X-166263Y-144408D01*
X-166258Y-144409D01*
X-166258Y-144413D01*
X-165984Y-144648D01*
X-165978Y-144649D01*
X-165978Y-144653D01*
X-165670Y-144841D01*
X-165664Y-144840D01*
X-165663Y-144845D01*
X-165330Y-144983D01*
X-165324Y-144981D01*
X-165323Y-144985D01*
X-164972Y-145070D01*
X-164966Y-145068D01*
X-164964Y-145071D01*
X-164604Y-145099D01*
X-164601Y-145098D01*
X-164600Y-145099D01*
X-155400Y-145099D01*
X-155398Y-145097D01*
G37*
G36*
X-395398Y-145097D02*
X-395398Y-145097D01*
X-395396Y-145099D01*
X-395036Y-145071D01*
X-395032Y-145067D01*
X-395028Y-145070D01*
X-394677Y-144985D01*
X-394674Y-144980D01*
X-394670Y-144983D01*
X-394337Y-144845D01*
X-394334Y-144840D01*
X-394330Y-144841D01*
X-394022Y-144653D01*
X-394020Y-144647D01*
X-394016Y-144648D01*
X-393742Y-144413D01*
X-393741Y-144408D01*
X-393737Y-144408D01*
X-393502Y-144134D01*
X-393501Y-144128D01*
X-393497Y-144128D01*
X-393309Y-143820D01*
X-393310Y-143814D01*
X-393306Y-143813D01*
X-393168Y-143480D01*
X-393169Y-143474D01*
X-393165Y-143473D01*
X-393080Y-143122D01*
X-393083Y-143116D01*
X-393079Y-143114D01*
X-393051Y-142754D01*
X-393053Y-142751D01*
X-393051Y-142750D01*
X-393079Y-137790D01*
X-393084Y-137783D01*
X-393080Y-137778D01*
X-393165Y-137427D01*
X-393170Y-137424D01*
X-393168Y-137420D01*
X-393306Y-137087D01*
X-393311Y-137084D01*
X-393309Y-137080D01*
X-393497Y-136772D01*
X-393503Y-136770D01*
X-393502Y-136766D01*
X-393737Y-136492D01*
X-393742Y-136491D01*
X-393742Y-136487D01*
X-394016Y-136252D01*
X-394022Y-136251D01*
X-394022Y-136247D01*
X-394330Y-136059D01*
X-394336Y-136060D01*
X-394337Y-136056D01*
X-394670Y-135918D01*
X-394676Y-135919D01*
X-394677Y-135915D01*
X-395028Y-135830D01*
X-395034Y-135833D01*
X-395036Y-135829D01*
X-395396Y-135801D01*
X-395399Y-135803D01*
X-395400Y-135801D01*
X-404600Y-135801D01*
X-404602Y-135803D01*
X-404604Y-135801D01*
X-404964Y-135829D01*
X-404968Y-135833D01*
X-404972Y-135830D01*
X-405323Y-135915D01*
X-405326Y-135920D01*
X-405330Y-135918D01*
X-405663Y-136056D01*
X-405666Y-136061D01*
X-405670Y-136059D01*
X-405978Y-136247D01*
X-405980Y-136253D01*
X-405984Y-136252D01*
X-406258Y-136487D01*
X-406259Y-136492D01*
X-406263Y-136492D01*
X-406498Y-136766D01*
X-406499Y-136772D01*
X-406503Y-136772D01*
X-406691Y-137080D01*
X-406690Y-137086D01*
X-406695Y-137087D01*
X-406833Y-137420D01*
X-406831Y-137426D01*
X-406835Y-137427D01*
X-406920Y-137778D01*
X-406918Y-137784D01*
X-406921Y-137786D01*
X-406949Y-138146D01*
X-406947Y-138149D01*
X-406949Y-138150D01*
X-406921Y-143110D01*
X-406916Y-143117D01*
X-406920Y-143122D01*
X-406835Y-143473D01*
X-406830Y-143476D01*
X-406833Y-143480D01*
X-406695Y-143813D01*
X-406690Y-143816D01*
X-406691Y-143820D01*
X-406503Y-144128D01*
X-406497Y-144130D01*
X-406498Y-144134D01*
X-406263Y-144408D01*
X-406258Y-144409D01*
X-406258Y-144413D01*
X-405984Y-144648D01*
X-405978Y-144649D01*
X-405978Y-144653D01*
X-405670Y-144841D01*
X-405664Y-144840D01*
X-405663Y-144845D01*
X-405330Y-144983D01*
X-405324Y-144981D01*
X-405323Y-144985D01*
X-404972Y-145070D01*
X-404966Y-145068D01*
X-404964Y-145071D01*
X-404604Y-145099D01*
X-404601Y-145098D01*
X-404600Y-145099D01*
X-395400Y-145099D01*
X-395398Y-145097D01*
G37*
G36*
X264602Y-145097D02*
X264602Y-145097D01*
X264604Y-145099D01*
X264964Y-145071D01*
X264968Y-145067D01*
X264972Y-145070D01*
X265323Y-144985D01*
X265326Y-144980D01*
X265330Y-144983D01*
X265663Y-144845D01*
X265666Y-144840D01*
X265670Y-144841D01*
X265978Y-144653D01*
X265980Y-144647D01*
X265984Y-144648D01*
X266258Y-144413D01*
X266259Y-144408D01*
X266263Y-144408D01*
X266498Y-144134D01*
X266499Y-144128D01*
X266503Y-144128D01*
X266691Y-143820D01*
X266690Y-143814D01*
X266695Y-143813D01*
X266833Y-143480D01*
X266831Y-143474D01*
X266835Y-143473D01*
X266920Y-143122D01*
X266918Y-143116D01*
X266921Y-143114D01*
X266949Y-142754D01*
X266947Y-142751D01*
X266949Y-142750D01*
X266921Y-137790D01*
X266916Y-137783D01*
X266920Y-137778D01*
X266835Y-137427D01*
X266830Y-137424D01*
X266833Y-137420D01*
X266695Y-137087D01*
X266690Y-137084D01*
X266691Y-137080D01*
X266503Y-136772D01*
X266497Y-136770D01*
X266498Y-136766D01*
X266263Y-136492D01*
X266258Y-136491D01*
X266258Y-136487D01*
X265984Y-136252D01*
X265978Y-136251D01*
X265978Y-136247D01*
X265670Y-136059D01*
X265664Y-136060D01*
X265663Y-136056D01*
X265330Y-135918D01*
X265324Y-135919D01*
X265323Y-135915D01*
X264972Y-135830D01*
X264966Y-135833D01*
X264964Y-135829D01*
X264604Y-135801D01*
X264601Y-135803D01*
X264600Y-135801D01*
X255400Y-135801D01*
X255398Y-135803D01*
X255396Y-135801D01*
X255036Y-135829D01*
X255032Y-135833D01*
X255028Y-135830D01*
X254677Y-135915D01*
X254674Y-135920D01*
X254670Y-135918D01*
X254337Y-136056D01*
X254334Y-136061D01*
X254330Y-136059D01*
X254022Y-136247D01*
X254020Y-136253D01*
X254016Y-136252D01*
X253742Y-136487D01*
X253741Y-136492D01*
X253737Y-136492D01*
X253502Y-136766D01*
X253501Y-136772D01*
X253497Y-136772D01*
X253309Y-137080D01*
X253310Y-137086D01*
X253306Y-137087D01*
X253168Y-137420D01*
X253169Y-137426D01*
X253165Y-137427D01*
X253080Y-137778D01*
X253083Y-137784D01*
X253079Y-137786D01*
X253051Y-138146D01*
X253053Y-138149D01*
X253051Y-138150D01*
X253079Y-143110D01*
X253084Y-143117D01*
X253080Y-143122D01*
X253165Y-143473D01*
X253170Y-143476D01*
X253168Y-143480D01*
X253306Y-143813D01*
X253311Y-143816D01*
X253309Y-143820D01*
X253497Y-144128D01*
X253503Y-144130D01*
X253502Y-144134D01*
X253737Y-144408D01*
X253742Y-144409D01*
X253742Y-144413D01*
X254016Y-144648D01*
X254022Y-144649D01*
X254022Y-144653D01*
X254330Y-144841D01*
X254336Y-144840D01*
X254337Y-144845D01*
X254670Y-144983D01*
X254676Y-144981D01*
X254677Y-144985D01*
X255028Y-145070D01*
X255034Y-145068D01*
X255036Y-145071D01*
X255396Y-145099D01*
X255399Y-145098D01*
X255400Y-145099D01*
X264600Y-145099D01*
X264602Y-145097D01*
G37*
G36*
X-275398Y-145097D02*
X-275398Y-145097D01*
X-275396Y-145099D01*
X-275036Y-145071D01*
X-275032Y-145067D01*
X-275028Y-145070D01*
X-274677Y-144985D01*
X-274674Y-144980D01*
X-274670Y-144983D01*
X-274337Y-144845D01*
X-274334Y-144840D01*
X-274330Y-144841D01*
X-274022Y-144653D01*
X-274020Y-144647D01*
X-274016Y-144648D01*
X-273742Y-144413D01*
X-273741Y-144408D01*
X-273737Y-144408D01*
X-273502Y-144134D01*
X-273501Y-144128D01*
X-273497Y-144128D01*
X-273309Y-143820D01*
X-273310Y-143814D01*
X-273306Y-143813D01*
X-273168Y-143480D01*
X-273169Y-143474D01*
X-273165Y-143473D01*
X-273080Y-143122D01*
X-273083Y-143116D01*
X-273079Y-143114D01*
X-273051Y-142754D01*
X-273053Y-142751D01*
X-273051Y-142750D01*
X-273079Y-137790D01*
X-273084Y-137783D01*
X-273080Y-137778D01*
X-273165Y-137427D01*
X-273170Y-137424D01*
X-273168Y-137420D01*
X-273306Y-137087D01*
X-273311Y-137084D01*
X-273309Y-137080D01*
X-273497Y-136772D01*
X-273503Y-136770D01*
X-273502Y-136766D01*
X-273737Y-136492D01*
X-273742Y-136491D01*
X-273742Y-136487D01*
X-274016Y-136252D01*
X-274022Y-136251D01*
X-274022Y-136247D01*
X-274330Y-136059D01*
X-274336Y-136060D01*
X-274337Y-136056D01*
X-274670Y-135918D01*
X-274676Y-135919D01*
X-274677Y-135915D01*
X-275028Y-135830D01*
X-275034Y-135833D01*
X-275036Y-135829D01*
X-275396Y-135801D01*
X-275399Y-135803D01*
X-275400Y-135801D01*
X-284600Y-135801D01*
X-284602Y-135803D01*
X-284604Y-135801D01*
X-284964Y-135829D01*
X-284968Y-135833D01*
X-284972Y-135830D01*
X-285323Y-135915D01*
X-285326Y-135920D01*
X-285330Y-135918D01*
X-285663Y-136056D01*
X-285666Y-136061D01*
X-285670Y-136059D01*
X-285978Y-136247D01*
X-285980Y-136253D01*
X-285984Y-136252D01*
X-286258Y-136487D01*
X-286259Y-136492D01*
X-286263Y-136492D01*
X-286498Y-136766D01*
X-286499Y-136772D01*
X-286503Y-136772D01*
X-286691Y-137080D01*
X-286690Y-137086D01*
X-286695Y-137087D01*
X-286833Y-137420D01*
X-286831Y-137426D01*
X-286835Y-137427D01*
X-286920Y-137778D01*
X-286918Y-137784D01*
X-286921Y-137786D01*
X-286949Y-138146D01*
X-286947Y-138149D01*
X-286949Y-138150D01*
X-286921Y-143110D01*
X-286916Y-143117D01*
X-286920Y-143122D01*
X-286835Y-143473D01*
X-286830Y-143476D01*
X-286833Y-143480D01*
X-286695Y-143813D01*
X-286690Y-143816D01*
X-286691Y-143820D01*
X-286503Y-144128D01*
X-286497Y-144130D01*
X-286498Y-144134D01*
X-286263Y-144408D01*
X-286258Y-144409D01*
X-286258Y-144413D01*
X-285984Y-144648D01*
X-285978Y-144649D01*
X-285978Y-144653D01*
X-285670Y-144841D01*
X-285664Y-144840D01*
X-285663Y-144845D01*
X-285330Y-144983D01*
X-285324Y-144981D01*
X-285323Y-144985D01*
X-284972Y-145070D01*
X-284966Y-145068D01*
X-284964Y-145071D01*
X-284604Y-145099D01*
X-284601Y-145098D01*
X-284600Y-145099D01*
X-275400Y-145099D01*
X-275398Y-145097D01*
G37*
G36*
X-315398Y-145097D02*
X-315398Y-145097D01*
X-315396Y-145099D01*
X-315036Y-145071D01*
X-315032Y-145067D01*
X-315028Y-145070D01*
X-314677Y-144985D01*
X-314674Y-144980D01*
X-314670Y-144983D01*
X-314337Y-144845D01*
X-314334Y-144840D01*
X-314330Y-144841D01*
X-314022Y-144653D01*
X-314020Y-144647D01*
X-314016Y-144648D01*
X-313742Y-144413D01*
X-313741Y-144408D01*
X-313737Y-144408D01*
X-313502Y-144134D01*
X-313501Y-144128D01*
X-313497Y-144128D01*
X-313309Y-143820D01*
X-313310Y-143814D01*
X-313306Y-143813D01*
X-313168Y-143480D01*
X-313169Y-143474D01*
X-313165Y-143473D01*
X-313080Y-143122D01*
X-313083Y-143116D01*
X-313079Y-143114D01*
X-313051Y-142754D01*
X-313053Y-142751D01*
X-313051Y-142750D01*
X-313079Y-137790D01*
X-313084Y-137783D01*
X-313080Y-137778D01*
X-313165Y-137427D01*
X-313170Y-137424D01*
X-313168Y-137420D01*
X-313306Y-137087D01*
X-313311Y-137084D01*
X-313309Y-137080D01*
X-313497Y-136772D01*
X-313503Y-136770D01*
X-313502Y-136766D01*
X-313737Y-136492D01*
X-313742Y-136491D01*
X-313742Y-136487D01*
X-314016Y-136252D01*
X-314022Y-136251D01*
X-314022Y-136247D01*
X-314330Y-136059D01*
X-314336Y-136060D01*
X-314337Y-136056D01*
X-314670Y-135918D01*
X-314676Y-135919D01*
X-314677Y-135915D01*
X-315028Y-135830D01*
X-315034Y-135833D01*
X-315036Y-135829D01*
X-315396Y-135801D01*
X-315399Y-135803D01*
X-315400Y-135801D01*
X-324600Y-135801D01*
X-324602Y-135803D01*
X-324604Y-135801D01*
X-324964Y-135829D01*
X-324968Y-135833D01*
X-324972Y-135830D01*
X-325323Y-135915D01*
X-325326Y-135920D01*
X-325330Y-135918D01*
X-325663Y-136056D01*
X-325666Y-136061D01*
X-325670Y-136059D01*
X-325978Y-136247D01*
X-325980Y-136253D01*
X-325984Y-136252D01*
X-326258Y-136487D01*
X-326259Y-136492D01*
X-326263Y-136492D01*
X-326498Y-136766D01*
X-326499Y-136772D01*
X-326503Y-136772D01*
X-326691Y-137080D01*
X-326690Y-137086D01*
X-326695Y-137087D01*
X-326833Y-137420D01*
X-326831Y-137426D01*
X-326835Y-137427D01*
X-326920Y-137778D01*
X-326918Y-137784D01*
X-326921Y-137786D01*
X-326949Y-138146D01*
X-326947Y-138149D01*
X-326949Y-138150D01*
X-326921Y-143110D01*
X-326916Y-143117D01*
X-326920Y-143122D01*
X-326835Y-143473D01*
X-326830Y-143476D01*
X-326833Y-143480D01*
X-326695Y-143813D01*
X-326690Y-143816D01*
X-326691Y-143820D01*
X-326503Y-144128D01*
X-326497Y-144130D01*
X-326498Y-144134D01*
X-326263Y-144408D01*
X-326258Y-144409D01*
X-326258Y-144413D01*
X-325984Y-144648D01*
X-325978Y-144649D01*
X-325978Y-144653D01*
X-325670Y-144841D01*
X-325664Y-144840D01*
X-325663Y-144845D01*
X-325330Y-144983D01*
X-325324Y-144981D01*
X-325323Y-144985D01*
X-324972Y-145070D01*
X-324966Y-145068D01*
X-324964Y-145071D01*
X-324604Y-145099D01*
X-324601Y-145098D01*
X-324600Y-145099D01*
X-315400Y-145099D01*
X-315398Y-145097D01*
G37*
G36*
X-235398Y-145097D02*
X-235398Y-145097D01*
X-235396Y-145099D01*
X-235036Y-145071D01*
X-235032Y-145067D01*
X-235028Y-145070D01*
X-234677Y-144985D01*
X-234674Y-144980D01*
X-234670Y-144983D01*
X-234337Y-144845D01*
X-234334Y-144840D01*
X-234330Y-144841D01*
X-234022Y-144653D01*
X-234020Y-144647D01*
X-234016Y-144648D01*
X-233742Y-144413D01*
X-233741Y-144408D01*
X-233737Y-144408D01*
X-233502Y-144134D01*
X-233501Y-144128D01*
X-233497Y-144128D01*
X-233309Y-143820D01*
X-233310Y-143814D01*
X-233306Y-143813D01*
X-233168Y-143480D01*
X-233169Y-143474D01*
X-233165Y-143473D01*
X-233080Y-143122D01*
X-233083Y-143116D01*
X-233079Y-143114D01*
X-233051Y-142754D01*
X-233053Y-142751D01*
X-233051Y-142750D01*
X-233079Y-137790D01*
X-233084Y-137783D01*
X-233080Y-137778D01*
X-233165Y-137427D01*
X-233170Y-137424D01*
X-233168Y-137420D01*
X-233306Y-137087D01*
X-233311Y-137084D01*
X-233309Y-137080D01*
X-233497Y-136772D01*
X-233503Y-136770D01*
X-233502Y-136766D01*
X-233737Y-136492D01*
X-233742Y-136491D01*
X-233742Y-136487D01*
X-234016Y-136252D01*
X-234022Y-136251D01*
X-234022Y-136247D01*
X-234330Y-136059D01*
X-234336Y-136060D01*
X-234337Y-136056D01*
X-234670Y-135918D01*
X-234676Y-135919D01*
X-234677Y-135915D01*
X-235028Y-135830D01*
X-235034Y-135833D01*
X-235036Y-135829D01*
X-235396Y-135801D01*
X-235399Y-135803D01*
X-235400Y-135801D01*
X-244600Y-135801D01*
X-244602Y-135803D01*
X-244604Y-135801D01*
X-244964Y-135829D01*
X-244968Y-135833D01*
X-244972Y-135830D01*
X-245323Y-135915D01*
X-245326Y-135920D01*
X-245330Y-135918D01*
X-245663Y-136056D01*
X-245666Y-136061D01*
X-245670Y-136059D01*
X-245978Y-136247D01*
X-245980Y-136253D01*
X-245984Y-136252D01*
X-246258Y-136487D01*
X-246259Y-136492D01*
X-246263Y-136492D01*
X-246498Y-136766D01*
X-246499Y-136772D01*
X-246503Y-136772D01*
X-246691Y-137080D01*
X-246690Y-137086D01*
X-246695Y-137087D01*
X-246833Y-137420D01*
X-246831Y-137426D01*
X-246835Y-137427D01*
X-246920Y-137778D01*
X-246918Y-137784D01*
X-246921Y-137786D01*
X-246949Y-138146D01*
X-246947Y-138149D01*
X-246949Y-138150D01*
X-246921Y-143110D01*
X-246916Y-143117D01*
X-246920Y-143122D01*
X-246835Y-143473D01*
X-246830Y-143476D01*
X-246833Y-143480D01*
X-246695Y-143813D01*
X-246690Y-143816D01*
X-246691Y-143820D01*
X-246503Y-144128D01*
X-246497Y-144130D01*
X-246498Y-144134D01*
X-246263Y-144408D01*
X-246258Y-144409D01*
X-246258Y-144413D01*
X-245984Y-144648D01*
X-245978Y-144649D01*
X-245978Y-144653D01*
X-245670Y-144841D01*
X-245664Y-144840D01*
X-245663Y-144845D01*
X-245330Y-144983D01*
X-245324Y-144981D01*
X-245323Y-144985D01*
X-244972Y-145070D01*
X-244966Y-145068D01*
X-244964Y-145071D01*
X-244604Y-145099D01*
X-244601Y-145098D01*
X-244600Y-145099D01*
X-235400Y-145099D01*
X-235398Y-145097D01*
G37*
G36*
X304602Y-145097D02*
X304602Y-145097D01*
X304604Y-145099D01*
X304964Y-145071D01*
X304968Y-145067D01*
X304972Y-145070D01*
X305323Y-144985D01*
X305326Y-144980D01*
X305330Y-144983D01*
X305663Y-144845D01*
X305666Y-144840D01*
X305670Y-144841D01*
X305978Y-144653D01*
X305980Y-144647D01*
X305984Y-144648D01*
X306258Y-144413D01*
X306259Y-144408D01*
X306263Y-144408D01*
X306498Y-144134D01*
X306499Y-144128D01*
X306503Y-144128D01*
X306691Y-143820D01*
X306690Y-143814D01*
X306695Y-143813D01*
X306833Y-143480D01*
X306831Y-143474D01*
X306835Y-143473D01*
X306920Y-143122D01*
X306918Y-143116D01*
X306921Y-143114D01*
X306949Y-142754D01*
X306947Y-142751D01*
X306949Y-142750D01*
X306921Y-137790D01*
X306916Y-137783D01*
X306920Y-137778D01*
X306835Y-137427D01*
X306830Y-137424D01*
X306833Y-137420D01*
X306695Y-137087D01*
X306690Y-137084D01*
X306691Y-137080D01*
X306503Y-136772D01*
X306497Y-136770D01*
X306498Y-136766D01*
X306263Y-136492D01*
X306258Y-136491D01*
X306258Y-136487D01*
X305984Y-136252D01*
X305978Y-136251D01*
X305978Y-136247D01*
X305670Y-136059D01*
X305664Y-136060D01*
X305663Y-136056D01*
X305330Y-135918D01*
X305324Y-135919D01*
X305323Y-135915D01*
X304972Y-135830D01*
X304966Y-135833D01*
X304964Y-135829D01*
X304604Y-135801D01*
X304601Y-135803D01*
X304600Y-135801D01*
X295400Y-135801D01*
X295398Y-135803D01*
X295396Y-135801D01*
X295036Y-135829D01*
X295032Y-135833D01*
X295028Y-135830D01*
X294677Y-135915D01*
X294674Y-135920D01*
X294670Y-135918D01*
X294337Y-136056D01*
X294334Y-136061D01*
X294330Y-136059D01*
X294022Y-136247D01*
X294020Y-136253D01*
X294016Y-136252D01*
X293742Y-136487D01*
X293741Y-136492D01*
X293737Y-136492D01*
X293502Y-136766D01*
X293501Y-136772D01*
X293497Y-136772D01*
X293309Y-137080D01*
X293310Y-137086D01*
X293306Y-137087D01*
X293168Y-137420D01*
X293169Y-137426D01*
X293165Y-137427D01*
X293080Y-137778D01*
X293083Y-137784D01*
X293079Y-137786D01*
X293051Y-138146D01*
X293053Y-138149D01*
X293051Y-138150D01*
X293079Y-143110D01*
X293084Y-143117D01*
X293080Y-143122D01*
X293165Y-143473D01*
X293170Y-143476D01*
X293168Y-143480D01*
X293306Y-143813D01*
X293311Y-143816D01*
X293309Y-143820D01*
X293497Y-144128D01*
X293503Y-144130D01*
X293502Y-144134D01*
X293737Y-144408D01*
X293742Y-144409D01*
X293742Y-144413D01*
X294016Y-144648D01*
X294022Y-144649D01*
X294022Y-144653D01*
X294330Y-144841D01*
X294336Y-144840D01*
X294337Y-144845D01*
X294670Y-144983D01*
X294676Y-144981D01*
X294677Y-144985D01*
X295028Y-145070D01*
X295034Y-145068D01*
X295036Y-145071D01*
X295396Y-145099D01*
X295399Y-145098D01*
X295400Y-145099D01*
X304600Y-145099D01*
X304602Y-145097D01*
G37*
G36*
X344602Y-145097D02*
X344602Y-145097D01*
X344604Y-145099D01*
X344964Y-145071D01*
X344968Y-145067D01*
X344972Y-145070D01*
X345323Y-144985D01*
X345326Y-144980D01*
X345330Y-144983D01*
X345663Y-144845D01*
X345666Y-144840D01*
X345670Y-144841D01*
X345978Y-144653D01*
X345980Y-144647D01*
X345984Y-144648D01*
X346258Y-144413D01*
X346259Y-144408D01*
X346263Y-144408D01*
X346498Y-144134D01*
X346499Y-144128D01*
X346503Y-144128D01*
X346691Y-143820D01*
X346690Y-143814D01*
X346695Y-143813D01*
X346833Y-143480D01*
X346831Y-143474D01*
X346835Y-143473D01*
X346920Y-143122D01*
X346918Y-143116D01*
X346921Y-143114D01*
X346949Y-142754D01*
X346947Y-142751D01*
X346949Y-142750D01*
X346921Y-137790D01*
X346916Y-137783D01*
X346920Y-137778D01*
X346835Y-137427D01*
X346830Y-137424D01*
X346833Y-137420D01*
X346695Y-137087D01*
X346690Y-137084D01*
X346691Y-137080D01*
X346503Y-136772D01*
X346497Y-136770D01*
X346498Y-136766D01*
X346263Y-136492D01*
X346258Y-136491D01*
X346258Y-136487D01*
X345984Y-136252D01*
X345978Y-136251D01*
X345978Y-136247D01*
X345670Y-136059D01*
X345664Y-136060D01*
X345663Y-136056D01*
X345330Y-135918D01*
X345324Y-135919D01*
X345323Y-135915D01*
X344972Y-135830D01*
X344966Y-135833D01*
X344964Y-135829D01*
X344604Y-135801D01*
X344601Y-135803D01*
X344600Y-135801D01*
X335400Y-135801D01*
X335398Y-135803D01*
X335396Y-135801D01*
X335036Y-135829D01*
X335032Y-135833D01*
X335028Y-135830D01*
X334677Y-135915D01*
X334674Y-135920D01*
X334670Y-135918D01*
X334337Y-136056D01*
X334334Y-136061D01*
X334330Y-136059D01*
X334022Y-136247D01*
X334020Y-136253D01*
X334016Y-136252D01*
X333742Y-136487D01*
X333741Y-136492D01*
X333737Y-136492D01*
X333502Y-136766D01*
X333501Y-136772D01*
X333497Y-136772D01*
X333309Y-137080D01*
X333310Y-137086D01*
X333306Y-137087D01*
X333168Y-137420D01*
X333169Y-137426D01*
X333165Y-137427D01*
X333080Y-137778D01*
X333083Y-137784D01*
X333079Y-137786D01*
X333051Y-138146D01*
X333053Y-138149D01*
X333051Y-138150D01*
X333079Y-143110D01*
X333084Y-143117D01*
X333080Y-143122D01*
X333165Y-143473D01*
X333170Y-143476D01*
X333168Y-143480D01*
X333306Y-143813D01*
X333311Y-143816D01*
X333309Y-143820D01*
X333497Y-144128D01*
X333503Y-144130D01*
X333502Y-144134D01*
X333737Y-144408D01*
X333742Y-144409D01*
X333742Y-144413D01*
X334016Y-144648D01*
X334022Y-144649D01*
X334022Y-144653D01*
X334330Y-144841D01*
X334336Y-144840D01*
X334337Y-144845D01*
X334670Y-144983D01*
X334676Y-144981D01*
X334677Y-144985D01*
X335028Y-145070D01*
X335034Y-145068D01*
X335036Y-145071D01*
X335396Y-145099D01*
X335399Y-145098D01*
X335400Y-145099D01*
X344600Y-145099D01*
X344602Y-145097D01*
G37*
G36*
X-195398Y-164197D02*
X-195398Y-164197D01*
X-195396Y-164199D01*
X-195036Y-164171D01*
X-195032Y-164167D01*
X-195028Y-164170D01*
X-194677Y-164085D01*
X-194674Y-164080D01*
X-194670Y-164083D01*
X-194337Y-163945D01*
X-194334Y-163940D01*
X-194330Y-163941D01*
X-194022Y-163753D01*
X-194020Y-163747D01*
X-194016Y-163748D01*
X-193742Y-163513D01*
X-193741Y-163508D01*
X-193737Y-163508D01*
X-193502Y-163234D01*
X-193501Y-163228D01*
X-193497Y-163228D01*
X-193309Y-162920D01*
X-193310Y-162914D01*
X-193306Y-162913D01*
X-193168Y-162580D01*
X-193169Y-162574D01*
X-193165Y-162573D01*
X-193080Y-162222D01*
X-193083Y-162216D01*
X-193079Y-162214D01*
X-193051Y-161854D01*
X-193053Y-161851D01*
X-193051Y-161850D01*
X-193079Y-156890D01*
X-193084Y-156883D01*
X-193080Y-156878D01*
X-193165Y-156527D01*
X-193170Y-156524D01*
X-193168Y-156520D01*
X-193306Y-156187D01*
X-193311Y-156184D01*
X-193309Y-156180D01*
X-193497Y-155872D01*
X-193503Y-155870D01*
X-193502Y-155866D01*
X-193737Y-155592D01*
X-193742Y-155591D01*
X-193742Y-155587D01*
X-194016Y-155352D01*
X-194022Y-155351D01*
X-194022Y-155347D01*
X-194330Y-155159D01*
X-194336Y-155160D01*
X-194337Y-155156D01*
X-194670Y-155018D01*
X-194676Y-155019D01*
X-194677Y-155015D01*
X-195028Y-154930D01*
X-195034Y-154933D01*
X-195036Y-154929D01*
X-195396Y-154901D01*
X-195399Y-154903D01*
X-195400Y-154901D01*
X-204600Y-154901D01*
X-204602Y-154903D01*
X-204604Y-154901D01*
X-204964Y-154929D01*
X-204968Y-154933D01*
X-204972Y-154930D01*
X-205323Y-155015D01*
X-205326Y-155020D01*
X-205330Y-155018D01*
X-205663Y-155156D01*
X-205666Y-155161D01*
X-205670Y-155159D01*
X-205978Y-155347D01*
X-205980Y-155353D01*
X-205984Y-155352D01*
X-206258Y-155587D01*
X-206259Y-155592D01*
X-206263Y-155592D01*
X-206498Y-155866D01*
X-206499Y-155872D01*
X-206503Y-155872D01*
X-206691Y-156180D01*
X-206690Y-156186D01*
X-206695Y-156187D01*
X-206833Y-156520D01*
X-206831Y-156526D01*
X-206835Y-156527D01*
X-206920Y-156878D01*
X-206918Y-156884D01*
X-206921Y-156886D01*
X-206949Y-157246D01*
X-206947Y-157249D01*
X-206949Y-157250D01*
X-206921Y-162210D01*
X-206916Y-162217D01*
X-206920Y-162222D01*
X-206835Y-162573D01*
X-206830Y-162576D01*
X-206833Y-162580D01*
X-206695Y-162913D01*
X-206690Y-162916D01*
X-206691Y-162920D01*
X-206503Y-163228D01*
X-206497Y-163230D01*
X-206498Y-163234D01*
X-206263Y-163508D01*
X-206258Y-163509D01*
X-206258Y-163513D01*
X-205984Y-163748D01*
X-205978Y-163749D01*
X-205978Y-163753D01*
X-205670Y-163941D01*
X-205664Y-163940D01*
X-205663Y-163945D01*
X-205330Y-164083D01*
X-205324Y-164081D01*
X-205323Y-164085D01*
X-204972Y-164170D01*
X-204966Y-164168D01*
X-204964Y-164171D01*
X-204604Y-164199D01*
X-204601Y-164198D01*
X-204600Y-164199D01*
X-195400Y-164199D01*
X-195398Y-164197D01*
G37*
G36*
X-195398Y-145097D02*
X-195398Y-145097D01*
X-195396Y-145099D01*
X-195036Y-145071D01*
X-195032Y-145067D01*
X-195028Y-145070D01*
X-194677Y-144985D01*
X-194674Y-144980D01*
X-194670Y-144983D01*
X-194337Y-144845D01*
X-194334Y-144840D01*
X-194330Y-144841D01*
X-194022Y-144653D01*
X-194020Y-144647D01*
X-194016Y-144648D01*
X-193742Y-144413D01*
X-193741Y-144408D01*
X-193737Y-144408D01*
X-193502Y-144134D01*
X-193501Y-144128D01*
X-193497Y-144128D01*
X-193309Y-143820D01*
X-193310Y-143814D01*
X-193306Y-143813D01*
X-193168Y-143480D01*
X-193169Y-143474D01*
X-193165Y-143473D01*
X-193080Y-143122D01*
X-193083Y-143116D01*
X-193079Y-143114D01*
X-193051Y-142754D01*
X-193053Y-142751D01*
X-193051Y-142750D01*
X-193079Y-137790D01*
X-193084Y-137783D01*
X-193080Y-137778D01*
X-193165Y-137427D01*
X-193170Y-137424D01*
X-193168Y-137420D01*
X-193306Y-137087D01*
X-193311Y-137084D01*
X-193309Y-137080D01*
X-193497Y-136772D01*
X-193503Y-136770D01*
X-193502Y-136766D01*
X-193737Y-136492D01*
X-193742Y-136491D01*
X-193742Y-136487D01*
X-194016Y-136252D01*
X-194022Y-136251D01*
X-194022Y-136247D01*
X-194330Y-136059D01*
X-194336Y-136060D01*
X-194337Y-136056D01*
X-194670Y-135918D01*
X-194676Y-135919D01*
X-194677Y-135915D01*
X-195028Y-135830D01*
X-195034Y-135833D01*
X-195036Y-135829D01*
X-195396Y-135801D01*
X-195399Y-135803D01*
X-195400Y-135801D01*
X-204600Y-135801D01*
X-204602Y-135803D01*
X-204604Y-135801D01*
X-204964Y-135829D01*
X-204968Y-135833D01*
X-204972Y-135830D01*
X-205323Y-135915D01*
X-205326Y-135920D01*
X-205330Y-135918D01*
X-205663Y-136056D01*
X-205666Y-136061D01*
X-205670Y-136059D01*
X-205978Y-136247D01*
X-205980Y-136253D01*
X-205984Y-136252D01*
X-206258Y-136487D01*
X-206259Y-136492D01*
X-206263Y-136492D01*
X-206498Y-136766D01*
X-206499Y-136772D01*
X-206503Y-136772D01*
X-206691Y-137080D01*
X-206690Y-137086D01*
X-206695Y-137087D01*
X-206833Y-137420D01*
X-206831Y-137426D01*
X-206835Y-137427D01*
X-206920Y-137778D01*
X-206918Y-137784D01*
X-206921Y-137786D01*
X-206949Y-138146D01*
X-206947Y-138149D01*
X-206949Y-138150D01*
X-206921Y-143110D01*
X-206916Y-143117D01*
X-206920Y-143122D01*
X-206835Y-143473D01*
X-206830Y-143476D01*
X-206833Y-143480D01*
X-206695Y-143813D01*
X-206690Y-143816D01*
X-206691Y-143820D01*
X-206503Y-144128D01*
X-206497Y-144130D01*
X-206498Y-144134D01*
X-206263Y-144408D01*
X-206258Y-144409D01*
X-206258Y-144413D01*
X-205984Y-144648D01*
X-205978Y-144649D01*
X-205978Y-144653D01*
X-205670Y-144841D01*
X-205664Y-144840D01*
X-205663Y-144845D01*
X-205330Y-144983D01*
X-205324Y-144981D01*
X-205323Y-144985D01*
X-204972Y-145070D01*
X-204966Y-145068D01*
X-204964Y-145071D01*
X-204604Y-145099D01*
X-204601Y-145098D01*
X-204600Y-145099D01*
X-195400Y-145099D01*
X-195398Y-145097D01*
G37*
G36*
X-330398Y154903D02*
X-330398Y154903D01*
X-330396Y154901D01*
X-330036Y154929D01*
X-330032Y154933D01*
X-330028Y154930D01*
X-329677Y155015D01*
X-329674Y155020D01*
X-329670Y155018D01*
X-329337Y155156D01*
X-329334Y155161D01*
X-329330Y155159D01*
X-329022Y155347D01*
X-329020Y155353D01*
X-329016Y155352D01*
X-328742Y155587D01*
X-328741Y155592D01*
X-328737Y155592D01*
X-328502Y155866D01*
X-328501Y155872D01*
X-328497Y155872D01*
X-328309Y156180D01*
X-328310Y156186D01*
X-328306Y156187D01*
X-328168Y156520D01*
X-328169Y156526D01*
X-328165Y156527D01*
X-328080Y156878D01*
X-328083Y156884D01*
X-328079Y156886D01*
X-328051Y157246D01*
X-328053Y157249D01*
X-328051Y157250D01*
X-328079Y162210D01*
X-328084Y162217D01*
X-328080Y162222D01*
X-328165Y162573D01*
X-328170Y162576D01*
X-328168Y162580D01*
X-328306Y162913D01*
X-328311Y162916D01*
X-328309Y162920D01*
X-328497Y163228D01*
X-328503Y163230D01*
X-328502Y163234D01*
X-328737Y163508D01*
X-328742Y163509D01*
X-328742Y163513D01*
X-329016Y163748D01*
X-329022Y163749D01*
X-329022Y163753D01*
X-329330Y163941D01*
X-329336Y163940D01*
X-329337Y163945D01*
X-329670Y164083D01*
X-329676Y164081D01*
X-329677Y164085D01*
X-330028Y164170D01*
X-330034Y164168D01*
X-330036Y164171D01*
X-330396Y164199D01*
X-330399Y164198D01*
X-330400Y164199D01*
X-339600Y164199D01*
X-339602Y164197D01*
X-339604Y164199D01*
X-339964Y164171D01*
X-339968Y164167D01*
X-339972Y164170D01*
X-340323Y164085D01*
X-340326Y164080D01*
X-340330Y164083D01*
X-340663Y163945D01*
X-340666Y163940D01*
X-340670Y163941D01*
X-340978Y163753D01*
X-340980Y163747D01*
X-340984Y163748D01*
X-341258Y163513D01*
X-341259Y163508D01*
X-341263Y163508D01*
X-341498Y163234D01*
X-341499Y163228D01*
X-341503Y163228D01*
X-341691Y162920D01*
X-341690Y162914D01*
X-341695Y162913D01*
X-341833Y162580D01*
X-341831Y162574D01*
X-341835Y162573D01*
X-341920Y162222D01*
X-341918Y162216D01*
X-341921Y162214D01*
X-341949Y161854D01*
X-341947Y161851D01*
X-341949Y161850D01*
X-341921Y156890D01*
X-341916Y156883D01*
X-341920Y156878D01*
X-341835Y156527D01*
X-341830Y156524D01*
X-341833Y156520D01*
X-341695Y156187D01*
X-341690Y156184D01*
X-341691Y156180D01*
X-341503Y155872D01*
X-341497Y155870D01*
X-341498Y155866D01*
X-341263Y155592D01*
X-341258Y155591D01*
X-341258Y155587D01*
X-340984Y155352D01*
X-340978Y155351D01*
X-340978Y155347D01*
X-340670Y155159D01*
X-340664Y155160D01*
X-340663Y155156D01*
X-340330Y155018D01*
X-340324Y155019D01*
X-340323Y155015D01*
X-339972Y154930D01*
X-339966Y154933D01*
X-339964Y154929D01*
X-339604Y154901D01*
X-339601Y154903D01*
X-339600Y154901D01*
X-330400Y154901D01*
X-330398Y154903D01*
G37*
G36*
X-275398Y-164197D02*
X-275398Y-164197D01*
X-275396Y-164199D01*
X-275036Y-164171D01*
X-275032Y-164167D01*
X-275028Y-164170D01*
X-274677Y-164085D01*
X-274674Y-164080D01*
X-274670Y-164083D01*
X-274337Y-163945D01*
X-274334Y-163940D01*
X-274330Y-163941D01*
X-274022Y-163753D01*
X-274020Y-163747D01*
X-274016Y-163748D01*
X-273742Y-163513D01*
X-273741Y-163508D01*
X-273737Y-163508D01*
X-273502Y-163234D01*
X-273501Y-163228D01*
X-273497Y-163228D01*
X-273309Y-162920D01*
X-273310Y-162914D01*
X-273306Y-162913D01*
X-273168Y-162580D01*
X-273169Y-162574D01*
X-273165Y-162573D01*
X-273080Y-162222D01*
X-273083Y-162216D01*
X-273079Y-162214D01*
X-273051Y-161854D01*
X-273053Y-161851D01*
X-273051Y-161850D01*
X-273079Y-156890D01*
X-273084Y-156883D01*
X-273080Y-156878D01*
X-273165Y-156527D01*
X-273170Y-156524D01*
X-273168Y-156520D01*
X-273306Y-156187D01*
X-273311Y-156184D01*
X-273309Y-156180D01*
X-273497Y-155872D01*
X-273503Y-155870D01*
X-273502Y-155866D01*
X-273737Y-155592D01*
X-273742Y-155591D01*
X-273742Y-155587D01*
X-274016Y-155352D01*
X-274022Y-155351D01*
X-274022Y-155347D01*
X-274330Y-155159D01*
X-274336Y-155160D01*
X-274337Y-155156D01*
X-274670Y-155018D01*
X-274676Y-155019D01*
X-274677Y-155015D01*
X-275028Y-154930D01*
X-275034Y-154933D01*
X-275036Y-154929D01*
X-275396Y-154901D01*
X-275399Y-154903D01*
X-275400Y-154901D01*
X-284600Y-154901D01*
X-284602Y-154903D01*
X-284604Y-154901D01*
X-284964Y-154929D01*
X-284968Y-154933D01*
X-284972Y-154930D01*
X-285323Y-155015D01*
X-285326Y-155020D01*
X-285330Y-155018D01*
X-285663Y-155156D01*
X-285666Y-155161D01*
X-285670Y-155159D01*
X-285978Y-155347D01*
X-285980Y-155353D01*
X-285984Y-155352D01*
X-286258Y-155587D01*
X-286259Y-155592D01*
X-286263Y-155592D01*
X-286498Y-155866D01*
X-286499Y-155872D01*
X-286503Y-155872D01*
X-286691Y-156180D01*
X-286690Y-156186D01*
X-286695Y-156187D01*
X-286833Y-156520D01*
X-286831Y-156526D01*
X-286835Y-156527D01*
X-286920Y-156878D01*
X-286918Y-156884D01*
X-286921Y-156886D01*
X-286949Y-157246D01*
X-286947Y-157249D01*
X-286949Y-157250D01*
X-286921Y-162210D01*
X-286916Y-162217D01*
X-286920Y-162222D01*
X-286835Y-162573D01*
X-286830Y-162576D01*
X-286833Y-162580D01*
X-286695Y-162913D01*
X-286690Y-162916D01*
X-286691Y-162920D01*
X-286503Y-163228D01*
X-286497Y-163230D01*
X-286498Y-163234D01*
X-286263Y-163508D01*
X-286258Y-163509D01*
X-286258Y-163513D01*
X-285984Y-163748D01*
X-285978Y-163749D01*
X-285978Y-163753D01*
X-285670Y-163941D01*
X-285664Y-163940D01*
X-285663Y-163945D01*
X-285330Y-164083D01*
X-285324Y-164081D01*
X-285323Y-164085D01*
X-284972Y-164170D01*
X-284966Y-164168D01*
X-284964Y-164171D01*
X-284604Y-164199D01*
X-284601Y-164198D01*
X-284600Y-164199D01*
X-275400Y-164199D01*
X-275398Y-164197D01*
G37*
G36*
X344602Y-164197D02*
X344602Y-164197D01*
X344604Y-164199D01*
X344964Y-164171D01*
X344968Y-164167D01*
X344972Y-164170D01*
X345323Y-164085D01*
X345326Y-164080D01*
X345330Y-164083D01*
X345663Y-163945D01*
X345666Y-163940D01*
X345670Y-163941D01*
X345978Y-163753D01*
X345980Y-163747D01*
X345984Y-163748D01*
X346258Y-163513D01*
X346259Y-163508D01*
X346263Y-163508D01*
X346498Y-163234D01*
X346499Y-163228D01*
X346503Y-163228D01*
X346691Y-162920D01*
X346690Y-162914D01*
X346695Y-162913D01*
X346833Y-162580D01*
X346831Y-162574D01*
X346835Y-162573D01*
X346920Y-162222D01*
X346918Y-162216D01*
X346921Y-162214D01*
X346949Y-161854D01*
X346947Y-161851D01*
X346949Y-161850D01*
X346921Y-156890D01*
X346916Y-156883D01*
X346920Y-156878D01*
X346835Y-156527D01*
X346830Y-156524D01*
X346833Y-156520D01*
X346695Y-156187D01*
X346690Y-156184D01*
X346691Y-156180D01*
X346503Y-155872D01*
X346497Y-155870D01*
X346498Y-155866D01*
X346263Y-155592D01*
X346258Y-155591D01*
X346258Y-155587D01*
X345984Y-155352D01*
X345978Y-155351D01*
X345978Y-155347D01*
X345670Y-155159D01*
X345664Y-155160D01*
X345663Y-155156D01*
X345330Y-155018D01*
X345324Y-155019D01*
X345323Y-155015D01*
X344972Y-154930D01*
X344966Y-154933D01*
X344964Y-154929D01*
X344604Y-154901D01*
X344601Y-154903D01*
X344600Y-154901D01*
X335400Y-154901D01*
X335398Y-154903D01*
X335396Y-154901D01*
X335036Y-154929D01*
X335032Y-154933D01*
X335028Y-154930D01*
X334677Y-155015D01*
X334674Y-155020D01*
X334670Y-155018D01*
X334337Y-155156D01*
X334334Y-155161D01*
X334330Y-155159D01*
X334022Y-155347D01*
X334020Y-155353D01*
X334016Y-155352D01*
X333742Y-155587D01*
X333741Y-155592D01*
X333737Y-155592D01*
X333502Y-155866D01*
X333501Y-155872D01*
X333497Y-155872D01*
X333309Y-156180D01*
X333310Y-156186D01*
X333306Y-156187D01*
X333168Y-156520D01*
X333169Y-156526D01*
X333165Y-156527D01*
X333080Y-156878D01*
X333083Y-156884D01*
X333079Y-156886D01*
X333051Y-157246D01*
X333053Y-157249D01*
X333051Y-157250D01*
X333079Y-162210D01*
X333084Y-162217D01*
X333080Y-162222D01*
X333165Y-162573D01*
X333170Y-162576D01*
X333168Y-162580D01*
X333306Y-162913D01*
X333311Y-162916D01*
X333309Y-162920D01*
X333497Y-163228D01*
X333503Y-163230D01*
X333502Y-163234D01*
X333737Y-163508D01*
X333742Y-163509D01*
X333742Y-163513D01*
X334016Y-163748D01*
X334022Y-163749D01*
X334022Y-163753D01*
X334330Y-163941D01*
X334336Y-163940D01*
X334337Y-163945D01*
X334670Y-164083D01*
X334676Y-164081D01*
X334677Y-164085D01*
X335028Y-164170D01*
X335034Y-164168D01*
X335036Y-164171D01*
X335396Y-164199D01*
X335399Y-164198D01*
X335400Y-164199D01*
X344600Y-164199D01*
X344602Y-164197D01*
G37*
G36*
X-395398Y-164197D02*
X-395398Y-164197D01*
X-395396Y-164199D01*
X-395036Y-164171D01*
X-395032Y-164167D01*
X-395028Y-164170D01*
X-394677Y-164085D01*
X-394674Y-164080D01*
X-394670Y-164083D01*
X-394337Y-163945D01*
X-394334Y-163940D01*
X-394330Y-163941D01*
X-394022Y-163753D01*
X-394020Y-163747D01*
X-394016Y-163748D01*
X-393742Y-163513D01*
X-393741Y-163508D01*
X-393737Y-163508D01*
X-393502Y-163234D01*
X-393501Y-163228D01*
X-393497Y-163228D01*
X-393309Y-162920D01*
X-393310Y-162914D01*
X-393306Y-162913D01*
X-393168Y-162580D01*
X-393169Y-162574D01*
X-393165Y-162573D01*
X-393080Y-162222D01*
X-393083Y-162216D01*
X-393079Y-162214D01*
X-393051Y-161854D01*
X-393053Y-161851D01*
X-393051Y-161850D01*
X-393079Y-156890D01*
X-393084Y-156883D01*
X-393080Y-156878D01*
X-393165Y-156527D01*
X-393170Y-156524D01*
X-393168Y-156520D01*
X-393306Y-156187D01*
X-393311Y-156184D01*
X-393309Y-156180D01*
X-393497Y-155872D01*
X-393503Y-155870D01*
X-393502Y-155866D01*
X-393737Y-155592D01*
X-393742Y-155591D01*
X-393742Y-155587D01*
X-394016Y-155352D01*
X-394022Y-155351D01*
X-394022Y-155347D01*
X-394330Y-155159D01*
X-394336Y-155160D01*
X-394337Y-155156D01*
X-394670Y-155018D01*
X-394676Y-155019D01*
X-394677Y-155015D01*
X-395028Y-154930D01*
X-395034Y-154933D01*
X-395036Y-154929D01*
X-395396Y-154901D01*
X-395399Y-154903D01*
X-395400Y-154901D01*
X-404600Y-154901D01*
X-404602Y-154903D01*
X-404604Y-154901D01*
X-404964Y-154929D01*
X-404968Y-154933D01*
X-404972Y-154930D01*
X-405323Y-155015D01*
X-405326Y-155020D01*
X-405330Y-155018D01*
X-405663Y-155156D01*
X-405666Y-155161D01*
X-405670Y-155159D01*
X-405978Y-155347D01*
X-405980Y-155353D01*
X-405984Y-155352D01*
X-406258Y-155587D01*
X-406259Y-155592D01*
X-406263Y-155592D01*
X-406498Y-155866D01*
X-406499Y-155872D01*
X-406503Y-155872D01*
X-406691Y-156180D01*
X-406690Y-156186D01*
X-406695Y-156187D01*
X-406833Y-156520D01*
X-406831Y-156526D01*
X-406835Y-156527D01*
X-406920Y-156878D01*
X-406918Y-156884D01*
X-406921Y-156886D01*
X-406949Y-157246D01*
X-406947Y-157249D01*
X-406949Y-157250D01*
X-406921Y-162210D01*
X-406916Y-162217D01*
X-406920Y-162222D01*
X-406835Y-162573D01*
X-406830Y-162576D01*
X-406833Y-162580D01*
X-406695Y-162913D01*
X-406690Y-162916D01*
X-406691Y-162920D01*
X-406503Y-163228D01*
X-406497Y-163230D01*
X-406498Y-163234D01*
X-406263Y-163508D01*
X-406258Y-163509D01*
X-406258Y-163513D01*
X-405984Y-163748D01*
X-405978Y-163749D01*
X-405978Y-163753D01*
X-405670Y-163941D01*
X-405664Y-163940D01*
X-405663Y-163945D01*
X-405330Y-164083D01*
X-405324Y-164081D01*
X-405323Y-164085D01*
X-404972Y-164170D01*
X-404966Y-164168D01*
X-404964Y-164171D01*
X-404604Y-164199D01*
X-404601Y-164198D01*
X-404600Y-164199D01*
X-395400Y-164199D01*
X-395398Y-164197D01*
G37*
G36*
X-235398Y-164197D02*
X-235398Y-164197D01*
X-235396Y-164199D01*
X-235036Y-164171D01*
X-235032Y-164167D01*
X-235028Y-164170D01*
X-234677Y-164085D01*
X-234674Y-164080D01*
X-234670Y-164083D01*
X-234337Y-163945D01*
X-234334Y-163940D01*
X-234330Y-163941D01*
X-234022Y-163753D01*
X-234020Y-163747D01*
X-234016Y-163748D01*
X-233742Y-163513D01*
X-233741Y-163508D01*
X-233737Y-163508D01*
X-233502Y-163234D01*
X-233501Y-163228D01*
X-233497Y-163228D01*
X-233309Y-162920D01*
X-233310Y-162914D01*
X-233306Y-162913D01*
X-233168Y-162580D01*
X-233169Y-162574D01*
X-233165Y-162573D01*
X-233080Y-162222D01*
X-233083Y-162216D01*
X-233079Y-162214D01*
X-233051Y-161854D01*
X-233053Y-161851D01*
X-233051Y-161850D01*
X-233079Y-156890D01*
X-233084Y-156883D01*
X-233080Y-156878D01*
X-233165Y-156527D01*
X-233170Y-156524D01*
X-233168Y-156520D01*
X-233306Y-156187D01*
X-233311Y-156184D01*
X-233309Y-156180D01*
X-233497Y-155872D01*
X-233503Y-155870D01*
X-233502Y-155866D01*
X-233737Y-155592D01*
X-233742Y-155591D01*
X-233742Y-155587D01*
X-234016Y-155352D01*
X-234022Y-155351D01*
X-234022Y-155347D01*
X-234330Y-155159D01*
X-234336Y-155160D01*
X-234337Y-155156D01*
X-234670Y-155018D01*
X-234676Y-155019D01*
X-234677Y-155015D01*
X-235028Y-154930D01*
X-235034Y-154933D01*
X-235036Y-154929D01*
X-235396Y-154901D01*
X-235399Y-154903D01*
X-235400Y-154901D01*
X-244600Y-154901D01*
X-244602Y-154903D01*
X-244604Y-154901D01*
X-244964Y-154929D01*
X-244968Y-154933D01*
X-244972Y-154930D01*
X-245323Y-155015D01*
X-245326Y-155020D01*
X-245330Y-155018D01*
X-245663Y-155156D01*
X-245666Y-155161D01*
X-245670Y-155159D01*
X-245978Y-155347D01*
X-245980Y-155353D01*
X-245984Y-155352D01*
X-246258Y-155587D01*
X-246259Y-155592D01*
X-246263Y-155592D01*
X-246498Y-155866D01*
X-246499Y-155872D01*
X-246503Y-155872D01*
X-246691Y-156180D01*
X-246690Y-156186D01*
X-246695Y-156187D01*
X-246833Y-156520D01*
X-246831Y-156526D01*
X-246835Y-156527D01*
X-246920Y-156878D01*
X-246918Y-156884D01*
X-246921Y-156886D01*
X-246949Y-157246D01*
X-246947Y-157249D01*
X-246949Y-157250D01*
X-246921Y-162210D01*
X-246916Y-162217D01*
X-246920Y-162222D01*
X-246835Y-162573D01*
X-246830Y-162576D01*
X-246833Y-162580D01*
X-246695Y-162913D01*
X-246690Y-162916D01*
X-246691Y-162920D01*
X-246503Y-163228D01*
X-246497Y-163230D01*
X-246498Y-163234D01*
X-246263Y-163508D01*
X-246258Y-163509D01*
X-246258Y-163513D01*
X-245984Y-163748D01*
X-245978Y-163749D01*
X-245978Y-163753D01*
X-245670Y-163941D01*
X-245664Y-163940D01*
X-245663Y-163945D01*
X-245330Y-164083D01*
X-245324Y-164081D01*
X-245323Y-164085D01*
X-244972Y-164170D01*
X-244966Y-164168D01*
X-244964Y-164171D01*
X-244604Y-164199D01*
X-244601Y-164198D01*
X-244600Y-164199D01*
X-235400Y-164199D01*
X-235398Y-164197D01*
G37*
G36*
X304602Y-164197D02*
X304602Y-164197D01*
X304604Y-164199D01*
X304964Y-164171D01*
X304968Y-164167D01*
X304972Y-164170D01*
X305323Y-164085D01*
X305326Y-164080D01*
X305330Y-164083D01*
X305663Y-163945D01*
X305666Y-163940D01*
X305670Y-163941D01*
X305978Y-163753D01*
X305980Y-163747D01*
X305984Y-163748D01*
X306258Y-163513D01*
X306259Y-163508D01*
X306263Y-163508D01*
X306498Y-163234D01*
X306499Y-163228D01*
X306503Y-163228D01*
X306691Y-162920D01*
X306690Y-162914D01*
X306695Y-162913D01*
X306833Y-162580D01*
X306831Y-162574D01*
X306835Y-162573D01*
X306920Y-162222D01*
X306918Y-162216D01*
X306921Y-162214D01*
X306949Y-161854D01*
X306947Y-161851D01*
X306949Y-161850D01*
X306921Y-156890D01*
X306916Y-156883D01*
X306920Y-156878D01*
X306835Y-156527D01*
X306830Y-156524D01*
X306833Y-156520D01*
X306695Y-156187D01*
X306690Y-156184D01*
X306691Y-156180D01*
X306503Y-155872D01*
X306497Y-155870D01*
X306498Y-155866D01*
X306263Y-155592D01*
X306258Y-155591D01*
X306258Y-155587D01*
X305984Y-155352D01*
X305978Y-155351D01*
X305978Y-155347D01*
X305670Y-155159D01*
X305664Y-155160D01*
X305663Y-155156D01*
X305330Y-155018D01*
X305324Y-155019D01*
X305323Y-155015D01*
X304972Y-154930D01*
X304966Y-154933D01*
X304964Y-154929D01*
X304604Y-154901D01*
X304601Y-154903D01*
X304600Y-154901D01*
X295400Y-154901D01*
X295398Y-154903D01*
X295396Y-154901D01*
X295036Y-154929D01*
X295032Y-154933D01*
X295028Y-154930D01*
X294677Y-155015D01*
X294674Y-155020D01*
X294670Y-155018D01*
X294337Y-155156D01*
X294334Y-155161D01*
X294330Y-155159D01*
X294022Y-155347D01*
X294020Y-155353D01*
X294016Y-155352D01*
X293742Y-155587D01*
X293741Y-155592D01*
X293737Y-155592D01*
X293502Y-155866D01*
X293501Y-155872D01*
X293497Y-155872D01*
X293309Y-156180D01*
X293310Y-156186D01*
X293306Y-156187D01*
X293168Y-156520D01*
X293169Y-156526D01*
X293165Y-156527D01*
X293080Y-156878D01*
X293083Y-156884D01*
X293079Y-156886D01*
X293051Y-157246D01*
X293053Y-157249D01*
X293051Y-157250D01*
X293079Y-162210D01*
X293084Y-162217D01*
X293080Y-162222D01*
X293165Y-162573D01*
X293170Y-162576D01*
X293168Y-162580D01*
X293306Y-162913D01*
X293311Y-162916D01*
X293309Y-162920D01*
X293497Y-163228D01*
X293503Y-163230D01*
X293502Y-163234D01*
X293737Y-163508D01*
X293742Y-163509D01*
X293742Y-163513D01*
X294016Y-163748D01*
X294022Y-163749D01*
X294022Y-163753D01*
X294330Y-163941D01*
X294336Y-163940D01*
X294337Y-163945D01*
X294670Y-164083D01*
X294676Y-164081D01*
X294677Y-164085D01*
X295028Y-164170D01*
X295034Y-164168D01*
X295036Y-164171D01*
X295396Y-164199D01*
X295399Y-164198D01*
X295400Y-164199D01*
X304600Y-164199D01*
X304602Y-164197D01*
G37*
G36*
X384602Y-164197D02*
X384602Y-164197D01*
X384604Y-164199D01*
X384964Y-164171D01*
X384968Y-164167D01*
X384972Y-164170D01*
X385323Y-164085D01*
X385326Y-164080D01*
X385330Y-164083D01*
X385663Y-163945D01*
X385666Y-163940D01*
X385670Y-163941D01*
X385978Y-163753D01*
X385980Y-163747D01*
X385984Y-163748D01*
X386258Y-163513D01*
X386259Y-163508D01*
X386263Y-163508D01*
X386498Y-163234D01*
X386499Y-163228D01*
X386503Y-163228D01*
X386691Y-162920D01*
X386690Y-162914D01*
X386695Y-162913D01*
X386833Y-162580D01*
X386831Y-162574D01*
X386835Y-162573D01*
X386920Y-162222D01*
X386918Y-162216D01*
X386921Y-162214D01*
X386949Y-161854D01*
X386947Y-161851D01*
X386949Y-161850D01*
X386921Y-156890D01*
X386916Y-156883D01*
X386920Y-156878D01*
X386835Y-156527D01*
X386830Y-156524D01*
X386833Y-156520D01*
X386695Y-156187D01*
X386690Y-156184D01*
X386691Y-156180D01*
X386503Y-155872D01*
X386497Y-155870D01*
X386498Y-155866D01*
X386263Y-155592D01*
X386258Y-155591D01*
X386258Y-155587D01*
X385984Y-155352D01*
X385978Y-155351D01*
X385978Y-155347D01*
X385670Y-155159D01*
X385664Y-155160D01*
X385663Y-155156D01*
X385330Y-155018D01*
X385324Y-155019D01*
X385323Y-155015D01*
X384972Y-154930D01*
X384966Y-154933D01*
X384964Y-154929D01*
X384604Y-154901D01*
X384601Y-154903D01*
X384600Y-154901D01*
X375400Y-154901D01*
X375398Y-154903D01*
X375396Y-154901D01*
X375036Y-154929D01*
X375032Y-154933D01*
X375028Y-154930D01*
X374677Y-155015D01*
X374674Y-155020D01*
X374670Y-155018D01*
X374337Y-155156D01*
X374334Y-155161D01*
X374330Y-155159D01*
X374022Y-155347D01*
X374020Y-155353D01*
X374016Y-155352D01*
X373742Y-155587D01*
X373741Y-155592D01*
X373737Y-155592D01*
X373502Y-155866D01*
X373501Y-155872D01*
X373497Y-155872D01*
X373309Y-156180D01*
X373310Y-156186D01*
X373306Y-156187D01*
X373168Y-156520D01*
X373169Y-156526D01*
X373165Y-156527D01*
X373080Y-156878D01*
X373083Y-156884D01*
X373079Y-156886D01*
X373051Y-157246D01*
X373053Y-157249D01*
X373051Y-157250D01*
X373079Y-162210D01*
X373084Y-162217D01*
X373080Y-162222D01*
X373165Y-162573D01*
X373170Y-162576D01*
X373168Y-162580D01*
X373306Y-162913D01*
X373311Y-162916D01*
X373309Y-162920D01*
X373497Y-163228D01*
X373503Y-163230D01*
X373502Y-163234D01*
X373737Y-163508D01*
X373742Y-163509D01*
X373742Y-163513D01*
X374016Y-163748D01*
X374022Y-163749D01*
X374022Y-163753D01*
X374330Y-163941D01*
X374336Y-163940D01*
X374337Y-163945D01*
X374670Y-164083D01*
X374676Y-164081D01*
X374677Y-164085D01*
X375028Y-164170D01*
X375034Y-164168D01*
X375036Y-164171D01*
X375396Y-164199D01*
X375399Y-164198D01*
X375400Y-164199D01*
X384600Y-164199D01*
X384602Y-164197D01*
G37*
G36*
X-232687Y90376D02*
X-232687Y90376D01*
X-232680Y90381D01*
X-232676Y90377D01*
X-232371Y90450D01*
X-232367Y90455D01*
X-232363Y90453D01*
X-232073Y90573D01*
X-232070Y90578D01*
X-232066Y90576D01*
X-231798Y90740D01*
X-231796Y90746D01*
X-231792Y90745D01*
X-231554Y90949D01*
X-231553Y90954D01*
X-231549Y90954D01*
X-231345Y91192D01*
X-231344Y91198D01*
X-231340Y91198D01*
X-231176Y91466D01*
X-231176Y91470D01*
X-231176Y91471D01*
X-231177Y91472D01*
X-231173Y91473D01*
X-231053Y91763D01*
X-231053Y91765D01*
X-231052Y91766D01*
X-231054Y91768D01*
X-231054Y91769D01*
X-231050Y91771D01*
X-230977Y92076D01*
X-230979Y92081D01*
X-230976Y92083D01*
X-230951Y92396D01*
X-230953Y92399D01*
X-230951Y92400D01*
X-230951Y100900D01*
X-230953Y100902D01*
X-230951Y100904D01*
X-230976Y101217D01*
X-230980Y101221D01*
X-230977Y101224D01*
X-231050Y101529D01*
X-231055Y101533D01*
X-231053Y101537D01*
X-231173Y101827D01*
X-231178Y101830D01*
X-231176Y101834D01*
X-231340Y102102D01*
X-231346Y102104D01*
X-231345Y102108D01*
X-231549Y102346D01*
X-231554Y102347D01*
X-231554Y102351D01*
X-231792Y102555D01*
X-231798Y102556D01*
X-231798Y102560D01*
X-232066Y102724D01*
X-232072Y102723D01*
X-232073Y102728D01*
X-232363Y102848D01*
X-232369Y102846D01*
X-232371Y102850D01*
X-232676Y102923D01*
X-232681Y102921D01*
X-232683Y102924D01*
X-232996Y102949D01*
X-232999Y102947D01*
X-233000Y102949D01*
X-237313Y102924D01*
X-237320Y102919D01*
X-237324Y102923D01*
X-237629Y102850D01*
X-237633Y102845D01*
X-237637Y102848D01*
X-237927Y102728D01*
X-237930Y102722D01*
X-237934Y102724D01*
X-238202Y102560D01*
X-238204Y102555D01*
X-238208Y102555D01*
X-238446Y102351D01*
X-238447Y102346D01*
X-238451Y102346D01*
X-238655Y102108D01*
X-238656Y102102D01*
X-238660Y102102D01*
X-238824Y101834D01*
X-238823Y101828D01*
X-238828Y101827D01*
X-238948Y101537D01*
X-238946Y101531D01*
X-238950Y101529D01*
X-239023Y101224D01*
X-239021Y101219D01*
X-239024Y101217D01*
X-239049Y100904D01*
X-239047Y100901D01*
X-239049Y100900D01*
X-239049Y92400D01*
X-239047Y92398D01*
X-239049Y92396D01*
X-239024Y92083D01*
X-239020Y92079D01*
X-239023Y92076D01*
X-238950Y91771D01*
X-238945Y91767D01*
X-238948Y91763D01*
X-238828Y91473D01*
X-238822Y91470D01*
X-238824Y91466D01*
X-238660Y91198D01*
X-238655Y91196D01*
X-238655Y91192D01*
X-238451Y90954D01*
X-238446Y90953D01*
X-238446Y90949D01*
X-238208Y90745D01*
X-238202Y90744D01*
X-238202Y90740D01*
X-237934Y90576D01*
X-237928Y90577D01*
X-237927Y90573D01*
X-237637Y90453D01*
X-237631Y90454D01*
X-237629Y90450D01*
X-237324Y90377D01*
X-237319Y90379D01*
X-237317Y90376D01*
X-237004Y90351D01*
X-237001Y90353D01*
X-237000Y90351D01*
X-232687Y90376D01*
G37*
G36*
X-262687Y125376D02*
X-262687Y125376D01*
X-262680Y125381D01*
X-262676Y125377D01*
X-262371Y125450D01*
X-262367Y125455D01*
X-262363Y125453D01*
X-262073Y125573D01*
X-262070Y125578D01*
X-262066Y125576D01*
X-261798Y125740D01*
X-261796Y125746D01*
X-261792Y125745D01*
X-261554Y125949D01*
X-261553Y125954D01*
X-261549Y125954D01*
X-261345Y126192D01*
X-261344Y126198D01*
X-261340Y126198D01*
X-261176Y126466D01*
X-261176Y126470D01*
X-261176Y126471D01*
X-261177Y126472D01*
X-261173Y126473D01*
X-261053Y126763D01*
X-261053Y126765D01*
X-261052Y126766D01*
X-261054Y126768D01*
X-261054Y126769D01*
X-261050Y126771D01*
X-260977Y127076D01*
X-260979Y127081D01*
X-260976Y127083D01*
X-260951Y127396D01*
X-260953Y127399D01*
X-260951Y127400D01*
X-260951Y135900D01*
X-260953Y135902D01*
X-260951Y135904D01*
X-260976Y136217D01*
X-260980Y136221D01*
X-260977Y136224D01*
X-261050Y136529D01*
X-261055Y136533D01*
X-261053Y136537D01*
X-261173Y136827D01*
X-261178Y136830D01*
X-261176Y136834D01*
X-261340Y137102D01*
X-261346Y137104D01*
X-261345Y137108D01*
X-261549Y137346D01*
X-261554Y137347D01*
X-261554Y137351D01*
X-261792Y137555D01*
X-261798Y137556D01*
X-261798Y137560D01*
X-262066Y137724D01*
X-262072Y137723D01*
X-262073Y137728D01*
X-262363Y137848D01*
X-262369Y137846D01*
X-262371Y137850D01*
X-262676Y137923D01*
X-262681Y137921D01*
X-262683Y137924D01*
X-262996Y137949D01*
X-262999Y137947D01*
X-263000Y137949D01*
X-267313Y137924D01*
X-267320Y137919D01*
X-267324Y137923D01*
X-267629Y137850D01*
X-267633Y137845D01*
X-267637Y137848D01*
X-267927Y137728D01*
X-267930Y137722D01*
X-267934Y137724D01*
X-268202Y137560D01*
X-268204Y137555D01*
X-268208Y137555D01*
X-268446Y137351D01*
X-268447Y137346D01*
X-268451Y137346D01*
X-268655Y137108D01*
X-268656Y137102D01*
X-268660Y137102D01*
X-268824Y136834D01*
X-268823Y136828D01*
X-268828Y136827D01*
X-268948Y136537D01*
X-268946Y136531D01*
X-268950Y136529D01*
X-269023Y136224D01*
X-269021Y136219D01*
X-269024Y136217D01*
X-269049Y135904D01*
X-269047Y135901D01*
X-269049Y135900D01*
X-269049Y127400D01*
X-269047Y127398D01*
X-269049Y127396D01*
X-269024Y127083D01*
X-269020Y127079D01*
X-269023Y127076D01*
X-268950Y126771D01*
X-268945Y126767D01*
X-268948Y126763D01*
X-268828Y126473D01*
X-268822Y126470D01*
X-268824Y126466D01*
X-268660Y126198D01*
X-268655Y126196D01*
X-268655Y126192D01*
X-268451Y125954D01*
X-268446Y125953D01*
X-268446Y125949D01*
X-268208Y125745D01*
X-268202Y125744D01*
X-268202Y125740D01*
X-267934Y125576D01*
X-267928Y125577D01*
X-267927Y125573D01*
X-267637Y125453D01*
X-267631Y125454D01*
X-267629Y125450D01*
X-267324Y125377D01*
X-267319Y125379D01*
X-267317Y125376D01*
X-267004Y125351D01*
X-267001Y125353D01*
X-267000Y125351D01*
X-262687Y125376D01*
G37*
G36*
X-262687Y92076D02*
X-262687Y92076D01*
X-262680Y92081D01*
X-262676Y92077D01*
X-262371Y92150D01*
X-262367Y92155D01*
X-262363Y92153D01*
X-262073Y92273D01*
X-262070Y92278D01*
X-262066Y92276D01*
X-261798Y92440D01*
X-261796Y92446D01*
X-261792Y92445D01*
X-261554Y92649D01*
X-261553Y92654D01*
X-261549Y92654D01*
X-261345Y92892D01*
X-261344Y92898D01*
X-261340Y92898D01*
X-261176Y93166D01*
X-261176Y93170D01*
X-261176Y93171D01*
X-261177Y93172D01*
X-261173Y93173D01*
X-261053Y93463D01*
X-261053Y93465D01*
X-261052Y93466D01*
X-261054Y93468D01*
X-261054Y93469D01*
X-261050Y93471D01*
X-260977Y93776D01*
X-260979Y93781D01*
X-260976Y93783D01*
X-260951Y94096D01*
X-260953Y94099D01*
X-260951Y94100D01*
X-260951Y102600D01*
X-260953Y102602D01*
X-260951Y102604D01*
X-260976Y102917D01*
X-260980Y102921D01*
X-260977Y102924D01*
X-261050Y103229D01*
X-261055Y103233D01*
X-261053Y103237D01*
X-261173Y103527D01*
X-261178Y103530D01*
X-261176Y103534D01*
X-261340Y103802D01*
X-261346Y103804D01*
X-261345Y103808D01*
X-261549Y104046D01*
X-261554Y104047D01*
X-261554Y104051D01*
X-261792Y104255D01*
X-261798Y104256D01*
X-261798Y104260D01*
X-262066Y104424D01*
X-262072Y104423D01*
X-262073Y104428D01*
X-262363Y104548D01*
X-262369Y104546D01*
X-262371Y104550D01*
X-262676Y104623D01*
X-262681Y104621D01*
X-262683Y104624D01*
X-262996Y104649D01*
X-262999Y104647D01*
X-263000Y104649D01*
X-267313Y104624D01*
X-267320Y104619D01*
X-267324Y104623D01*
X-267629Y104550D01*
X-267633Y104545D01*
X-267637Y104548D01*
X-267927Y104428D01*
X-267930Y104422D01*
X-267934Y104424D01*
X-268202Y104260D01*
X-268204Y104255D01*
X-268208Y104255D01*
X-268446Y104051D01*
X-268447Y104046D01*
X-268451Y104046D01*
X-268655Y103808D01*
X-268656Y103802D01*
X-268660Y103802D01*
X-268824Y103534D01*
X-268823Y103528D01*
X-268828Y103527D01*
X-268948Y103237D01*
X-268946Y103231D01*
X-268950Y103229D01*
X-269023Y102924D01*
X-269021Y102919D01*
X-269024Y102917D01*
X-269049Y102604D01*
X-269047Y102601D01*
X-269049Y102600D01*
X-269049Y94100D01*
X-269047Y94098D01*
X-269049Y94096D01*
X-269024Y93783D01*
X-269020Y93779D01*
X-269023Y93776D01*
X-268950Y93471D01*
X-268945Y93467D01*
X-268948Y93463D01*
X-268828Y93173D01*
X-268822Y93170D01*
X-268824Y93166D01*
X-268660Y92898D01*
X-268655Y92896D01*
X-268655Y92892D01*
X-268451Y92654D01*
X-268446Y92653D01*
X-268446Y92649D01*
X-268208Y92445D01*
X-268202Y92444D01*
X-268202Y92440D01*
X-267934Y92276D01*
X-267928Y92277D01*
X-267927Y92273D01*
X-267637Y92153D01*
X-267631Y92154D01*
X-267629Y92150D01*
X-267324Y92077D01*
X-267319Y92079D01*
X-267317Y92076D01*
X-267004Y92051D01*
X-267001Y92053D01*
X-267000Y92051D01*
X-262687Y92076D01*
G37*
G36*
X-232687Y57076D02*
X-232687Y57076D01*
X-232680Y57081D01*
X-232676Y57077D01*
X-232371Y57150D01*
X-232367Y57155D01*
X-232363Y57153D01*
X-232073Y57273D01*
X-232070Y57278D01*
X-232066Y57276D01*
X-231798Y57440D01*
X-231796Y57446D01*
X-231792Y57445D01*
X-231554Y57649D01*
X-231553Y57654D01*
X-231549Y57654D01*
X-231345Y57892D01*
X-231344Y57898D01*
X-231340Y57898D01*
X-231176Y58166D01*
X-231176Y58170D01*
X-231176Y58171D01*
X-231177Y58172D01*
X-231173Y58173D01*
X-231053Y58463D01*
X-231053Y58465D01*
X-231052Y58466D01*
X-231054Y58468D01*
X-231054Y58469D01*
X-231050Y58471D01*
X-230977Y58776D01*
X-230979Y58781D01*
X-230976Y58783D01*
X-230951Y59096D01*
X-230953Y59099D01*
X-230951Y59100D01*
X-230951Y67600D01*
X-230953Y67602D01*
X-230951Y67604D01*
X-230976Y67917D01*
X-230980Y67921D01*
X-230977Y67924D01*
X-231050Y68229D01*
X-231055Y68233D01*
X-231053Y68237D01*
X-231173Y68527D01*
X-231178Y68530D01*
X-231176Y68534D01*
X-231340Y68802D01*
X-231346Y68804D01*
X-231345Y68808D01*
X-231549Y69046D01*
X-231554Y69047D01*
X-231554Y69051D01*
X-231792Y69255D01*
X-231798Y69256D01*
X-231798Y69260D01*
X-232066Y69424D01*
X-232072Y69423D01*
X-232073Y69428D01*
X-232363Y69548D01*
X-232369Y69546D01*
X-232371Y69550D01*
X-232676Y69623D01*
X-232681Y69621D01*
X-232683Y69624D01*
X-232996Y69649D01*
X-232999Y69647D01*
X-233000Y69649D01*
X-237313Y69624D01*
X-237320Y69619D01*
X-237324Y69623D01*
X-237629Y69550D01*
X-237633Y69545D01*
X-237637Y69548D01*
X-237927Y69428D01*
X-237930Y69422D01*
X-237934Y69424D01*
X-238202Y69260D01*
X-238204Y69255D01*
X-238208Y69255D01*
X-238446Y69051D01*
X-238447Y69046D01*
X-238451Y69046D01*
X-238655Y68808D01*
X-238656Y68802D01*
X-238660Y68802D01*
X-238824Y68534D01*
X-238823Y68528D01*
X-238828Y68527D01*
X-238948Y68237D01*
X-238946Y68231D01*
X-238950Y68229D01*
X-239023Y67924D01*
X-239021Y67919D01*
X-239024Y67917D01*
X-239049Y67604D01*
X-239047Y67601D01*
X-239049Y67600D01*
X-239049Y59100D01*
X-239047Y59098D01*
X-239049Y59096D01*
X-239024Y58783D01*
X-239020Y58779D01*
X-239023Y58776D01*
X-238950Y58471D01*
X-238945Y58467D01*
X-238948Y58463D01*
X-238828Y58173D01*
X-238822Y58170D01*
X-238824Y58166D01*
X-238660Y57898D01*
X-238655Y57896D01*
X-238655Y57892D01*
X-238451Y57654D01*
X-238446Y57653D01*
X-238446Y57649D01*
X-238208Y57445D01*
X-238202Y57444D01*
X-238202Y57440D01*
X-237934Y57276D01*
X-237928Y57277D01*
X-237927Y57273D01*
X-237637Y57153D01*
X-237631Y57154D01*
X-237629Y57150D01*
X-237324Y57077D01*
X-237319Y57079D01*
X-237317Y57076D01*
X-237004Y57051D01*
X-237001Y57053D01*
X-237000Y57051D01*
X-232687Y57076D01*
G37*
D10*
X197000Y186500D03*
X197000Y180000D03*
X197000Y173500D03*
X213000Y173500D03*
X213000Y180000D03*
X213000Y186500D03*
D11*
X139600Y69600D03*
X139600Y120400D03*
X165000Y69600D03*
X165000Y120400D03*
X190400Y69600D03*
X190400Y120400D03*
D12*
X-104000Y-285000D03*
X-176000Y-285000D03*
X-104000Y-315000D03*
X-176000Y-315000D03*
X-104000Y-185000D03*
X-176000Y-185000D03*
X-104000Y-215000D03*
X-176000Y-215000D03*
D13*
X-305000Y-286000D03*
X-305000Y-214000D03*
X-335000Y-286000D03*
X-335000Y-214000D03*
D14*
X251190Y187500D03*
X251190Y142500D03*
X251190Y137500D03*
X251190Y132500D03*
X251190Y127500D03*
X251190Y122500D03*
X251190Y117500D03*
X251190Y112500D03*
D15*
X262500Y101190D03*
X267500Y101190D03*
X272500Y101190D03*
D14*
X251190Y182500D03*
D15*
X277500Y101190D03*
X282500Y101190D03*
X287500Y101190D03*
X292500Y101190D03*
X297500Y101190D03*
X302500Y101190D03*
X307500Y101190D03*
X312500Y101190D03*
X317500Y101190D03*
X322500Y101190D03*
D14*
X251190Y177500D03*
D15*
X327500Y101190D03*
X332500Y101190D03*
X337500Y101190D03*
D14*
X348810Y112500D03*
X348810Y117500D03*
X348810Y122500D03*
X348810Y127500D03*
X348810Y132500D03*
X348810Y137500D03*
X348810Y142500D03*
X251190Y172500D03*
X348810Y147500D03*
X348810Y152500D03*
X348810Y157500D03*
X348810Y162500D03*
X348810Y167500D03*
X348810Y172500D03*
X348810Y177500D03*
X348810Y182500D03*
X348810Y187500D03*
D15*
X337500Y198810D03*
D14*
X251190Y167500D03*
D15*
X332500Y198810D03*
X327500Y198810D03*
X322500Y198810D03*
X317500Y198810D03*
X312500Y198810D03*
X307500Y198810D03*
X302500Y198810D03*
X297500Y198810D03*
X292500Y198810D03*
X287500Y198810D03*
D14*
X251190Y162500D03*
D15*
X282500Y198810D03*
X277500Y198810D03*
X272500Y198810D03*
X267500Y198810D03*
X262500Y198810D03*
D14*
X251190Y157500D03*
X251190Y152500D03*
X251190Y147500D03*
D16*
X308500Y251500D03*
X271500Y251500D03*
X271500Y228500D03*
X308500Y228500D03*
D17*
X-1105000Y-270000D03*
X-1105000Y270000D03*
X-1105000Y270000D03*
X-565000Y-270000D03*
X-565000Y270000D03*
X1105000Y270000D03*
X1105000Y-270000D03*
X1105000Y-270000D03*
X565000Y270000D03*
X565000Y-270000D03*
D18*
X-378000Y-275000D03*
X-402000Y-250000D03*
X-378000Y-225000D03*
D19*
X-92250Y63440D03*
X-33750Y63440D03*
X-27250Y63440D03*
X-20750Y63440D03*
X-14250Y63440D03*
X-7750Y63440D03*
X-7750Y136560D03*
X-14250Y136560D03*
X-20750Y136560D03*
X-27250Y136560D03*
X-33750Y136560D03*
X-85750Y63440D03*
X-40250Y136560D03*
X-46750Y136560D03*
X-53250Y136560D03*
X-59750Y136560D03*
X-66250Y136560D03*
X-72750Y136560D03*
X-79250Y136560D03*
X-85750Y136560D03*
X-92250Y136560D03*
X-79250Y63440D03*
X-72750Y63440D03*
X-66250Y63440D03*
X-59750Y63440D03*
X-53250Y63440D03*
X-46750Y63440D03*
X-40250Y63440D03*
D20*
X-304500Y86999D03*
X-295000Y86999D03*
X-285500Y86999D03*
X-285500Y113001D03*
X-304500Y113001D03*
D21*
X92750Y128717D03*
X53750Y71283D03*
X60250Y71283D03*
X66750Y71283D03*
X73250Y71283D03*
X79750Y71283D03*
X86250Y71283D03*
X92750Y71283D03*
X86250Y128717D03*
X79750Y128717D03*
X73250Y128717D03*
X66750Y128717D03*
X60250Y128717D03*
X53750Y128717D03*
X47250Y128717D03*
X47250Y71283D03*
D18*
X378000Y-225000D03*
X402000Y-250000D03*
X378000Y-275000D03*
D22*
X-87000Y260000D03*
D23*
X-88000Y286750D03*
D24*
X-138000Y286750D03*
D22*
X-93500Y260000D03*
X-100000Y260000D03*
X-106500Y260000D03*
X-113000Y260000D03*
D25*
X-131000Y261250D03*
X-69000Y261250D03*
D24*
X-62000Y286750D03*
D23*
X-112000Y286750D03*
D26*
X-400000Y169500D03*
D27*
X-400000Y-10500D03*
X-400000Y-30500D03*
X-400000Y-50500D03*
X-400000Y129500D03*
X-400000Y109500D03*
X-400000Y69500D03*
X-400000Y49500D03*
X-400000Y29500D03*
X-400000Y9500D03*
X-400000Y89500D03*
X-400000Y149500D03*
D26*
X400000Y-50000D03*
D27*
X400000Y130000D03*
X400000Y150000D03*
X400000Y170000D03*
X400000Y-10000D03*
X400000Y10000D03*
X400000Y50000D03*
X400000Y70000D03*
X400000Y90000D03*
X400000Y110000D03*
X400000Y30000D03*
X400000Y-30000D03*
D28*
X-66350Y-103500D03*
X-66350Y-78100D03*
X-66350Y-52700D03*
X-66350Y-27300D03*
X-66350Y-1900D03*
X-66350Y23500D03*
X66350Y23500D03*
X66350Y-1900D03*
X66350Y-27300D03*
X66350Y-52700D03*
X66350Y-78100D03*
X66350Y-103500D03*
D29*
X-20000Y-140000D03*
X60000Y-140000D03*
X-60000Y-140000D03*
X20000Y-140000D03*
D12*
X226000Y-235000D03*
X154000Y-235000D03*
X226000Y-265000D03*
X154000Y-265000D03*
D13*
X275000Y-286000D03*
X275000Y-214000D03*
X245000Y-286000D03*
X245000Y-214000D03*
X135000Y-286000D03*
X135000Y-214000D03*
X105000Y-286000D03*
X105000Y-214000D03*
D12*
X226000Y-295000D03*
X154000Y-295000D03*
X226000Y-325000D03*
X154000Y-325000D03*
X226000Y-175000D03*
X154000Y-175000D03*
X226000Y-205000D03*
X154000Y-205000D03*
D17*
X-57000Y-250000D03*
X57000Y-250000D03*
D30*
X-25000Y-325000D03*
X25000Y-325000D03*
D31*
X-25000Y-180000D03*
D30*
X25000Y-180000D03*
X0Y-325000D03*
D32*
X337000Y-192500D03*
X323000Y-192500D03*
X337000Y-227500D03*
X323000Y-227500D03*
X337000Y-272500D03*
X323000Y-272500D03*
X337000Y-307500D03*
X323000Y-307500D03*
X-233000Y-272500D03*
X-247000Y-272500D03*
X-233000Y-307500D03*
X-247000Y-307500D03*
X-233000Y-192500D03*
X-247000Y-192500D03*
X-233000Y-227500D03*
X-247000Y-227500D03*
D17*
X-375000Y-95000D03*
X-375000Y215000D03*
X375000Y-95000D03*
X375000Y215000D03*
D33*
X-148600Y236363D03*
X-123200Y203363D03*
X-97800Y236363D03*
X-72400Y203363D03*
X-47000Y236363D03*
X-21600Y203363D03*
X3800Y236363D03*
X29200Y203363D03*
X54600Y236363D03*
X80000Y203363D03*
D34*
X9953Y301686D03*
D35*
X-92712Y-456482D02*
X-92712Y-472738D01*
X-97228Y-456482D02*
X-88197Y-456482D01*
X-82778Y-465513D02*
X-82778Y-469126D01*
X-82777Y-465513D02*
X-82775Y-465394D01*
X-82769Y-465274D01*
X-82759Y-465155D01*
X-82745Y-465037D01*
X-82728Y-464918D01*
X-82706Y-464801D01*
X-82681Y-464684D01*
X-82651Y-464569D01*
X-82618Y-464454D01*
X-82581Y-464340D01*
X-82541Y-464228D01*
X-82496Y-464117D01*
X-82448Y-464008D01*
X-82397Y-463900D01*
X-82342Y-463794D01*
X-82283Y-463690D01*
X-82221Y-463588D01*
X-82156Y-463488D01*
X-82087Y-463390D01*
X-82015Y-463294D01*
X-81940Y-463201D01*
X-81863Y-463111D01*
X-81782Y-463023D01*
X-81698Y-462938D01*
X-81611Y-462856D01*
X-81522Y-462776D01*
X-81430Y-462700D01*
X-81336Y-462626D01*
X-81239Y-462556D01*
X-81141Y-462489D01*
X-81040Y-462425D01*
X-80936Y-462365D01*
X-80831Y-462308D01*
X-80724Y-462255D01*
X-80616Y-462205D01*
X-80506Y-462159D01*
X-80394Y-462117D01*
X-80281Y-462078D01*
X-80167Y-462043D01*
X-80052Y-462012D01*
X-79935Y-461984D01*
X-79818Y-461961D01*
X-79701Y-461941D01*
X-79582Y-461925D01*
X-79463Y-461913D01*
X-79344Y-461905D01*
X-79225Y-461901D01*
X-79105Y-461901D01*
X-78986Y-461905D01*
X-78867Y-461913D01*
X-78748Y-461925D01*
X-78629Y-461941D01*
X-78512Y-461961D01*
X-78395Y-461984D01*
X-78278Y-462012D01*
X-78163Y-462043D01*
X-78049Y-462078D01*
X-77936Y-462117D01*
X-77824Y-462159D01*
X-77714Y-462205D01*
X-77606Y-462255D01*
X-77499Y-462308D01*
X-77394Y-462365D01*
X-77290Y-462425D01*
X-77189Y-462489D01*
X-77091Y-462556D01*
X-76994Y-462626D01*
X-76900Y-462700D01*
X-76808Y-462776D01*
X-76719Y-462856D01*
X-76632Y-462938D01*
X-76548Y-463023D01*
X-76467Y-463111D01*
X-76390Y-463201D01*
X-76315Y-463294D01*
X-76243Y-463390D01*
X-76174Y-463488D01*
X-76109Y-463588D01*
X-76047Y-463690D01*
X-75988Y-463794D01*
X-75933Y-463900D01*
X-75882Y-464008D01*
X-75834Y-464117D01*
X-75789Y-464228D01*
X-75749Y-464340D01*
X-75712Y-464454D01*
X-75679Y-464569D01*
X-75649Y-464684D01*
X-75624Y-464801D01*
X-75602Y-464918D01*
X-75585Y-465037D01*
X-75571Y-465155D01*
X-75561Y-465274D01*
X-75555Y-465394D01*
X-75553Y-465513D01*
X-75553Y-469126D01*
X-75555Y-469245D01*
X-75561Y-469365D01*
X-75571Y-469484D01*
X-75585Y-469602D01*
X-75602Y-469721D01*
X-75624Y-469838D01*
X-75649Y-469955D01*
X-75679Y-470070D01*
X-75712Y-470185D01*
X-75749Y-470299D01*
X-75789Y-470411D01*
X-75834Y-470522D01*
X-75882Y-470631D01*
X-75933Y-470739D01*
X-75988Y-470845D01*
X-76047Y-470949D01*
X-76109Y-471051D01*
X-76174Y-471151D01*
X-76243Y-471249D01*
X-76315Y-471345D01*
X-76390Y-471438D01*
X-76467Y-471528D01*
X-76548Y-471616D01*
X-76632Y-471701D01*
X-76719Y-471783D01*
X-76808Y-471863D01*
X-76900Y-471939D01*
X-76994Y-472013D01*
X-77091Y-472083D01*
X-77189Y-472150D01*
X-77290Y-472214D01*
X-77394Y-472274D01*
X-77499Y-472331D01*
X-77606Y-472384D01*
X-77714Y-472434D01*
X-77824Y-472480D01*
X-77936Y-472522D01*
X-78049Y-472561D01*
X-78163Y-472596D01*
X-78278Y-472627D01*
X-78395Y-472655D01*
X-78512Y-472678D01*
X-78629Y-472698D01*
X-78748Y-472714D01*
X-78867Y-472726D01*
X-78986Y-472734D01*
X-79105Y-472738D01*
X-79225Y-472738D01*
X-79344Y-472734D01*
X-79463Y-472726D01*
X-79582Y-472714D01*
X-79701Y-472698D01*
X-79818Y-472678D01*
X-79935Y-472655D01*
X-80052Y-472627D01*
X-80167Y-472596D01*
X-80281Y-472561D01*
X-80394Y-472522D01*
X-80506Y-472480D01*
X-80616Y-472434D01*
X-80724Y-472384D01*
X-80831Y-472331D01*
X-80936Y-472274D01*
X-81040Y-472214D01*
X-81141Y-472150D01*
X-81239Y-472083D01*
X-81336Y-472013D01*
X-81430Y-471939D01*
X-81522Y-471863D01*
X-81611Y-471783D01*
X-81698Y-471701D01*
X-81782Y-471616D01*
X-81863Y-471528D01*
X-81940Y-471438D01*
X-82015Y-471345D01*
X-82087Y-471249D01*
X-82156Y-471151D01*
X-82221Y-471051D01*
X-82283Y-470949D01*
X-82342Y-470845D01*
X-82397Y-470739D01*
X-82448Y-470631D01*
X-82496Y-470522D01*
X-82541Y-470411D01*
X-82581Y-470299D01*
X-82618Y-470185D01*
X-82651Y-470070D01*
X-82681Y-469955D01*
X-82706Y-469838D01*
X-82728Y-469721D01*
X-82745Y-469602D01*
X-82759Y-469484D01*
X-82769Y-469365D01*
X-82775Y-469245D01*
X-82777Y-469126D01*
X-68636Y-461901D02*
X-68636Y-478157D01*
X-68636Y-461901D02*
X-64121Y-461901D01*
X-64017Y-461903D01*
X-63914Y-461909D01*
X-63810Y-461919D01*
X-63707Y-461933D01*
X-63605Y-461951D01*
X-63504Y-461972D01*
X-63403Y-461998D01*
X-63304Y-462027D01*
X-63205Y-462060D01*
X-63108Y-462097D01*
X-63013Y-462138D01*
X-62919Y-462182D01*
X-62827Y-462230D01*
X-62737Y-462281D01*
X-62648Y-462336D01*
X-62562Y-462394D01*
X-62479Y-462456D01*
X-62397Y-462520D01*
X-62319Y-462588D01*
X-62243Y-462658D01*
X-62169Y-462731D01*
X-62099Y-462808D01*
X-62031Y-462886D01*
X-61967Y-462968D01*
X-61905Y-463051D01*
X-61847Y-463137D01*
X-61792Y-463226D01*
X-61741Y-463316D01*
X-61693Y-463408D01*
X-61649Y-463502D01*
X-61608Y-463597D01*
X-61571Y-463694D01*
X-61538Y-463793D01*
X-61509Y-463892D01*
X-61483Y-463993D01*
X-61462Y-464094D01*
X-61444Y-464196D01*
X-61430Y-464299D01*
X-61420Y-464403D01*
X-61414Y-464506D01*
X-61412Y-464610D01*
X-61411Y-464610D02*
X-61411Y-470029D01*
X-61412Y-470029D02*
X-61414Y-470130D01*
X-61420Y-470231D01*
X-61429Y-470332D01*
X-61442Y-470433D01*
X-61459Y-470533D01*
X-61480Y-470632D01*
X-61504Y-470730D01*
X-61532Y-470827D01*
X-61564Y-470924D01*
X-61599Y-471019D01*
X-61638Y-471112D01*
X-61680Y-471204D01*
X-61726Y-471295D01*
X-61775Y-471384D01*
X-61827Y-471470D01*
X-61883Y-471555D01*
X-61941Y-471638D01*
X-62003Y-471718D01*
X-62068Y-471796D01*
X-62135Y-471872D01*
X-62205Y-471945D01*
X-62278Y-472015D01*
X-62354Y-472082D01*
X-62432Y-472147D01*
X-62512Y-472209D01*
X-62595Y-472267D01*
X-62680Y-472323D01*
X-62767Y-472375D01*
X-62855Y-472424D01*
X-62946Y-472470D01*
X-63038Y-472512D01*
X-63131Y-472551D01*
X-63226Y-472586D01*
X-63323Y-472618D01*
X-63420Y-472646D01*
X-63518Y-472670D01*
X-63617Y-472691D01*
X-63717Y-472708D01*
X-63818Y-472721D01*
X-63919Y-472730D01*
X-64020Y-472736D01*
X-64121Y-472738D01*
X-68636Y-472738D01*
X-41789Y-472738D02*
X-41671Y-472736D01*
X-41553Y-472730D01*
X-41435Y-472721D01*
X-41318Y-472707D01*
X-41201Y-472690D01*
X-41084Y-472669D01*
X-40969Y-472644D01*
X-40854Y-472615D01*
X-40740Y-472582D01*
X-40628Y-472546D01*
X-40517Y-472506D01*
X-40407Y-472463D01*
X-40298Y-472416D01*
X-40191Y-472366D01*
X-40086Y-472311D01*
X-39983Y-472254D01*
X-39882Y-472193D01*
X-39782Y-472129D01*
X-39685Y-472062D01*
X-39590Y-471992D01*
X-39498Y-471918D01*
X-39407Y-471842D01*
X-39320Y-471762D01*
X-39235Y-471680D01*
X-39153Y-471595D01*
X-39073Y-471508D01*
X-38997Y-471417D01*
X-38923Y-471325D01*
X-38853Y-471230D01*
X-38786Y-471133D01*
X-38722Y-471033D01*
X-38661Y-470932D01*
X-38604Y-470829D01*
X-38549Y-470724D01*
X-38499Y-470617D01*
X-38452Y-470508D01*
X-38409Y-470398D01*
X-38369Y-470287D01*
X-38333Y-470175D01*
X-38300Y-470061D01*
X-38271Y-469946D01*
X-38246Y-469831D01*
X-38225Y-469714D01*
X-38208Y-469597D01*
X-38194Y-469480D01*
X-38185Y-469362D01*
X-38179Y-469244D01*
X-38177Y-469126D01*
X-41789Y-472738D02*
X-41972Y-472736D01*
X-42154Y-472729D01*
X-42336Y-472718D01*
X-42518Y-472703D01*
X-42700Y-472683D01*
X-42881Y-472659D01*
X-43061Y-472631D01*
X-43241Y-472599D01*
X-43420Y-472562D01*
X-43597Y-472521D01*
X-43774Y-472475D01*
X-43950Y-472426D01*
X-44125Y-472372D01*
X-44298Y-472314D01*
X-44469Y-472252D01*
X-44640Y-472186D01*
X-44808Y-472115D01*
X-44975Y-472041D01*
X-45140Y-471963D01*
X-45303Y-471881D01*
X-45464Y-471795D01*
X-45623Y-471705D01*
X-45780Y-471611D01*
X-45934Y-471514D01*
X-46086Y-471413D01*
X-46236Y-471308D01*
X-46383Y-471200D01*
X-46527Y-471089D01*
X-46669Y-470974D01*
X-46808Y-470855D01*
X-46944Y-470733D01*
X-47077Y-470608D01*
X-47207Y-470480D01*
X-46757Y-460094D02*
X-46755Y-459976D01*
X-46749Y-459858D01*
X-46740Y-459740D01*
X-46726Y-459622D01*
X-46709Y-459505D01*
X-46688Y-459389D01*
X-46663Y-459274D01*
X-46634Y-459159D01*
X-46601Y-459045D01*
X-46565Y-458933D01*
X-46525Y-458821D01*
X-46482Y-458711D01*
X-46435Y-458603D01*
X-46384Y-458496D01*
X-46330Y-458391D01*
X-46273Y-458288D01*
X-46212Y-458186D01*
X-46148Y-458087D01*
X-46081Y-457990D01*
X-46010Y-457895D01*
X-45937Y-457802D01*
X-45860Y-457712D01*
X-45781Y-457624D01*
X-45699Y-457539D01*
X-45614Y-457457D01*
X-45526Y-457378D01*
X-45436Y-457301D01*
X-45343Y-457228D01*
X-45249Y-457157D01*
X-45151Y-457090D01*
X-45052Y-457026D01*
X-44951Y-456965D01*
X-44847Y-456908D01*
X-44742Y-456854D01*
X-44635Y-456803D01*
X-44527Y-456756D01*
X-44417Y-456713D01*
X-44305Y-456673D01*
X-44193Y-456637D01*
X-44079Y-456604D01*
X-43964Y-456575D01*
X-43849Y-456550D01*
X-43733Y-456529D01*
X-43616Y-456512D01*
X-43498Y-456498D01*
X-43380Y-456489D01*
X-43262Y-456483D01*
X-43144Y-456481D01*
X-43144Y-456482D02*
X-42983Y-456484D01*
X-42821Y-456490D01*
X-42660Y-456499D01*
X-42499Y-456513D01*
X-42339Y-456530D01*
X-42179Y-456551D01*
X-42019Y-456576D01*
X-41860Y-456605D01*
X-41702Y-456637D01*
X-41545Y-456673D01*
X-41389Y-456713D01*
X-41233Y-456757D01*
X-41079Y-456805D01*
X-40926Y-456856D01*
X-40774Y-456910D01*
X-40623Y-456969D01*
X-40474Y-457030D01*
X-40327Y-457096D01*
X-40181Y-457165D01*
X-40036Y-457237D01*
X-39894Y-457313D01*
X-39753Y-457392D01*
X-39614Y-457474D01*
X-39478Y-457560D01*
X-39343Y-457649D01*
X-39210Y-457741D01*
X-39080Y-457837D01*
X-44951Y-463255D02*
X-45052Y-463193D01*
X-45152Y-463128D01*
X-45249Y-463059D01*
X-45344Y-462987D01*
X-45437Y-462913D01*
X-45527Y-462835D01*
X-45615Y-462754D01*
X-45700Y-462671D01*
X-45782Y-462585D01*
X-45861Y-462496D01*
X-45938Y-462405D01*
X-46011Y-462311D01*
X-46082Y-462215D01*
X-46149Y-462117D01*
X-46213Y-462017D01*
X-46274Y-461914D01*
X-46331Y-461810D01*
X-46385Y-461704D01*
X-46435Y-461596D01*
X-46482Y-461487D01*
X-46526Y-461376D01*
X-46566Y-461264D01*
X-46602Y-461150D01*
X-46634Y-461036D01*
X-46663Y-460920D01*
X-46688Y-460804D01*
X-46709Y-460687D01*
X-46726Y-460569D01*
X-46740Y-460451D01*
X-46749Y-460332D01*
X-46755Y-460213D01*
X-46757Y-460094D01*
X-39983Y-465965D02*
X-39882Y-466027D01*
X-39782Y-466092D01*
X-39685Y-466161D01*
X-39590Y-466233D01*
X-39497Y-466307D01*
X-39407Y-466385D01*
X-39319Y-466466D01*
X-39234Y-466549D01*
X-39152Y-466635D01*
X-39073Y-466724D01*
X-38996Y-466815D01*
X-38923Y-466909D01*
X-38852Y-467005D01*
X-38785Y-467103D01*
X-38721Y-467203D01*
X-38660Y-467306D01*
X-38603Y-467410D01*
X-38549Y-467516D01*
X-38499Y-467624D01*
X-38452Y-467733D01*
X-38408Y-467844D01*
X-38368Y-467956D01*
X-38332Y-468070D01*
X-38300Y-468184D01*
X-38271Y-468300D01*
X-38246Y-468416D01*
X-38225Y-468533D01*
X-38208Y-468651D01*
X-38194Y-468769D01*
X-38185Y-468888D01*
X-38179Y-469007D01*
X-38177Y-469126D01*
X-39983Y-465965D02*
X-44950Y-463255D01*
X-32237Y-465513D02*
X-32237Y-469126D01*
X-32236Y-465513D02*
X-32234Y-465394D01*
X-32228Y-465274D01*
X-32218Y-465155D01*
X-32204Y-465037D01*
X-32187Y-464918D01*
X-32165Y-464801D01*
X-32140Y-464684D01*
X-32110Y-464569D01*
X-32077Y-464454D01*
X-32040Y-464340D01*
X-32000Y-464228D01*
X-31955Y-464117D01*
X-31907Y-464008D01*
X-31856Y-463900D01*
X-31801Y-463794D01*
X-31742Y-463690D01*
X-31680Y-463588D01*
X-31615Y-463488D01*
X-31546Y-463390D01*
X-31474Y-463294D01*
X-31399Y-463201D01*
X-31322Y-463111D01*
X-31241Y-463023D01*
X-31157Y-462938D01*
X-31070Y-462856D01*
X-30981Y-462776D01*
X-30889Y-462700D01*
X-30795Y-462626D01*
X-30698Y-462556D01*
X-30600Y-462489D01*
X-30499Y-462425D01*
X-30395Y-462365D01*
X-30290Y-462308D01*
X-30183Y-462255D01*
X-30075Y-462205D01*
X-29965Y-462159D01*
X-29853Y-462117D01*
X-29740Y-462078D01*
X-29626Y-462043D01*
X-29511Y-462012D01*
X-29394Y-461984D01*
X-29277Y-461961D01*
X-29160Y-461941D01*
X-29041Y-461925D01*
X-28922Y-461913D01*
X-28803Y-461905D01*
X-28684Y-461901D01*
X-28564Y-461901D01*
X-28445Y-461905D01*
X-28326Y-461913D01*
X-28207Y-461925D01*
X-28088Y-461941D01*
X-27971Y-461961D01*
X-27854Y-461984D01*
X-27737Y-462012D01*
X-27622Y-462043D01*
X-27508Y-462078D01*
X-27395Y-462117D01*
X-27283Y-462159D01*
X-27173Y-462205D01*
X-27065Y-462255D01*
X-26958Y-462308D01*
X-26853Y-462365D01*
X-26749Y-462425D01*
X-26648Y-462489D01*
X-26550Y-462556D01*
X-26453Y-462626D01*
X-26359Y-462700D01*
X-26267Y-462776D01*
X-26178Y-462856D01*
X-26091Y-462938D01*
X-26007Y-463023D01*
X-25926Y-463111D01*
X-25849Y-463201D01*
X-25774Y-463294D01*
X-25702Y-463390D01*
X-25633Y-463488D01*
X-25568Y-463588D01*
X-25506Y-463690D01*
X-25447Y-463794D01*
X-25392Y-463900D01*
X-25341Y-464008D01*
X-25293Y-464117D01*
X-25248Y-464228D01*
X-25208Y-464340D01*
X-25171Y-464454D01*
X-25138Y-464569D01*
X-25108Y-464684D01*
X-25083Y-464801D01*
X-25061Y-464918D01*
X-25044Y-465037D01*
X-25030Y-465155D01*
X-25020Y-465274D01*
X-25014Y-465394D01*
X-25012Y-465513D01*
X-25012Y-469126D01*
X-25014Y-469245D01*
X-25020Y-469365D01*
X-25030Y-469484D01*
X-25044Y-469602D01*
X-25061Y-469721D01*
X-25083Y-469838D01*
X-25108Y-469955D01*
X-25138Y-470070D01*
X-25171Y-470185D01*
X-25208Y-470299D01*
X-25248Y-470411D01*
X-25293Y-470522D01*
X-25341Y-470631D01*
X-25392Y-470739D01*
X-25447Y-470845D01*
X-25506Y-470949D01*
X-25568Y-471051D01*
X-25633Y-471151D01*
X-25702Y-471249D01*
X-25774Y-471345D01*
X-25849Y-471438D01*
X-25926Y-471528D01*
X-26007Y-471616D01*
X-26091Y-471701D01*
X-26178Y-471783D01*
X-26267Y-471863D01*
X-26359Y-471939D01*
X-26453Y-472013D01*
X-26550Y-472083D01*
X-26648Y-472150D01*
X-26749Y-472214D01*
X-26853Y-472274D01*
X-26958Y-472331D01*
X-27065Y-472384D01*
X-27173Y-472434D01*
X-27283Y-472480D01*
X-27395Y-472522D01*
X-27508Y-472561D01*
X-27622Y-472596D01*
X-27737Y-472627D01*
X-27854Y-472655D01*
X-27971Y-472678D01*
X-28088Y-472698D01*
X-28207Y-472714D01*
X-28326Y-472726D01*
X-28445Y-472734D01*
X-28564Y-472738D01*
X-28684Y-472738D01*
X-28803Y-472734D01*
X-28922Y-472726D01*
X-29041Y-472714D01*
X-29160Y-472698D01*
X-29277Y-472678D01*
X-29394Y-472655D01*
X-29511Y-472627D01*
X-29626Y-472596D01*
X-29740Y-472561D01*
X-29853Y-472522D01*
X-29965Y-472480D01*
X-30075Y-472434D01*
X-30183Y-472384D01*
X-30290Y-472331D01*
X-30395Y-472274D01*
X-30499Y-472214D01*
X-30600Y-472150D01*
X-30698Y-472083D01*
X-30795Y-472013D01*
X-30889Y-471939D01*
X-30981Y-471863D01*
X-31070Y-471783D01*
X-31157Y-471701D01*
X-31241Y-471616D01*
X-31322Y-471528D01*
X-31399Y-471438D01*
X-31474Y-471345D01*
X-31546Y-471249D01*
X-31615Y-471151D01*
X-31680Y-471051D01*
X-31742Y-470949D01*
X-31801Y-470845D01*
X-31856Y-470739D01*
X-31907Y-470631D01*
X-31955Y-470522D01*
X-32000Y-470411D01*
X-32040Y-470299D01*
X-32077Y-470185D01*
X-32110Y-470070D01*
X-32140Y-469955D01*
X-32165Y-469838D01*
X-32187Y-469721D01*
X-32204Y-469602D01*
X-32218Y-469484D01*
X-32228Y-469365D01*
X-32234Y-469245D01*
X-32236Y-469126D01*
X-18453Y-470029D02*
X-18453Y-456482D01*
X-18453Y-470029D02*
X-18451Y-470130D01*
X-18445Y-470231D01*
X-18436Y-470332D01*
X-18423Y-470433D01*
X-18406Y-470533D01*
X-18385Y-470632D01*
X-18361Y-470730D01*
X-18333Y-470827D01*
X-18301Y-470924D01*
X-18266Y-471019D01*
X-18227Y-471112D01*
X-18185Y-471204D01*
X-18139Y-471295D01*
X-18090Y-471384D01*
X-18038Y-471470D01*
X-17982Y-471555D01*
X-17924Y-471638D01*
X-17862Y-471718D01*
X-17797Y-471796D01*
X-17730Y-471872D01*
X-17660Y-471945D01*
X-17587Y-472015D01*
X-17511Y-472082D01*
X-17433Y-472147D01*
X-17353Y-472209D01*
X-17270Y-472267D01*
X-17185Y-472323D01*
X-17098Y-472375D01*
X-17010Y-472424D01*
X-16919Y-472470D01*
X-16827Y-472512D01*
X-16734Y-472551D01*
X-16639Y-472586D01*
X-16542Y-472618D01*
X-16445Y-472646D01*
X-16347Y-472670D01*
X-16248Y-472691D01*
X-16148Y-472708D01*
X-16047Y-472721D01*
X-15946Y-472730D01*
X-15845Y-472736D01*
X-15744Y-472738D01*
X-3201Y-472738D02*
X-3201Y-456482D01*
X-3201Y-472738D02*
X-7717Y-472738D01*
X-7818Y-472736D01*
X-7919Y-472730D01*
X-8020Y-472721D01*
X-8121Y-472708D01*
X-8221Y-472691D01*
X-8320Y-472670D01*
X-8418Y-472646D01*
X-8515Y-472618D01*
X-8612Y-472586D01*
X-8707Y-472551D01*
X-8800Y-472512D01*
X-8892Y-472470D01*
X-8983Y-472424D01*
X-9071Y-472375D01*
X-9158Y-472323D01*
X-9243Y-472267D01*
X-9326Y-472209D01*
X-9406Y-472147D01*
X-9484Y-472082D01*
X-9560Y-472015D01*
X-9633Y-471945D01*
X-9703Y-471872D01*
X-9770Y-471796D01*
X-9835Y-471718D01*
X-9897Y-471638D01*
X-9955Y-471555D01*
X-10011Y-471470D01*
X-10063Y-471384D01*
X-10112Y-471295D01*
X-10158Y-471204D01*
X-10200Y-471112D01*
X-10239Y-471019D01*
X-10274Y-470924D01*
X-10306Y-470827D01*
X-10334Y-470730D01*
X-10358Y-470632D01*
X-10379Y-470533D01*
X-10396Y-470433D01*
X-10409Y-470332D01*
X-10418Y-470231D01*
X-10424Y-470130D01*
X-10426Y-470029D01*
X-10426Y-464610D01*
X-10424Y-464509D01*
X-10418Y-464408D01*
X-10409Y-464307D01*
X-10396Y-464206D01*
X-10379Y-464106D01*
X-10358Y-464007D01*
X-10334Y-463909D01*
X-10306Y-463812D01*
X-10274Y-463715D01*
X-10239Y-463620D01*
X-10200Y-463527D01*
X-10158Y-463435D01*
X-10112Y-463344D01*
X-10063Y-463256D01*
X-10011Y-463169D01*
X-9955Y-463084D01*
X-9897Y-463001D01*
X-9835Y-462921D01*
X-9770Y-462843D01*
X-9703Y-462767D01*
X-9633Y-462694D01*
X-9560Y-462624D01*
X-9484Y-462557D01*
X-9406Y-462492D01*
X-9326Y-462430D01*
X-9243Y-462372D01*
X-9158Y-462316D01*
X-9071Y-462264D01*
X-8983Y-462215D01*
X-8892Y-462169D01*
X-8800Y-462127D01*
X-8707Y-462088D01*
X-8612Y-462053D01*
X-8515Y-462021D01*
X-8418Y-461993D01*
X-8320Y-461969D01*
X-8221Y-461948D01*
X-8121Y-461931D01*
X-8020Y-461918D01*
X-7919Y-461909D01*
X-7818Y-461903D01*
X-7717Y-461901D01*
X-3201Y-461901D01*
X6424Y-472738D02*
X10940Y-472738D01*
X6424Y-472738D02*
X6323Y-472736D01*
X6222Y-472730D01*
X6121Y-472721D01*
X6020Y-472708D01*
X5920Y-472691D01*
X5821Y-472670D01*
X5723Y-472646D01*
X5626Y-472618D01*
X5529Y-472586D01*
X5434Y-472551D01*
X5341Y-472512D01*
X5249Y-472470D01*
X5158Y-472424D01*
X5070Y-472375D01*
X4983Y-472323D01*
X4898Y-472267D01*
X4815Y-472209D01*
X4735Y-472147D01*
X4657Y-472082D01*
X4581Y-472015D01*
X4508Y-471945D01*
X4438Y-471872D01*
X4371Y-471796D01*
X4306Y-471718D01*
X4244Y-471638D01*
X4186Y-471555D01*
X4130Y-471470D01*
X4078Y-471384D01*
X4029Y-471295D01*
X3983Y-471204D01*
X3941Y-471112D01*
X3902Y-471019D01*
X3867Y-470924D01*
X3835Y-470827D01*
X3807Y-470730D01*
X3783Y-470632D01*
X3762Y-470533D01*
X3745Y-470433D01*
X3732Y-470332D01*
X3723Y-470231D01*
X3717Y-470130D01*
X3715Y-470029D01*
X3715Y-465513D01*
X3717Y-465394D01*
X3723Y-465274D01*
X3733Y-465155D01*
X3747Y-465037D01*
X3764Y-464918D01*
X3786Y-464801D01*
X3811Y-464684D01*
X3841Y-464569D01*
X3874Y-464454D01*
X3911Y-464340D01*
X3951Y-464228D01*
X3996Y-464117D01*
X4044Y-464008D01*
X4095Y-463900D01*
X4150Y-463794D01*
X4209Y-463690D01*
X4271Y-463588D01*
X4336Y-463488D01*
X4405Y-463390D01*
X4477Y-463294D01*
X4552Y-463201D01*
X4629Y-463111D01*
X4710Y-463023D01*
X4794Y-462938D01*
X4881Y-462856D01*
X4970Y-462776D01*
X5062Y-462700D01*
X5156Y-462626D01*
X5253Y-462556D01*
X5351Y-462489D01*
X5452Y-462425D01*
X5556Y-462365D01*
X5661Y-462308D01*
X5768Y-462255D01*
X5876Y-462205D01*
X5986Y-462159D01*
X6098Y-462117D01*
X6211Y-462078D01*
X6325Y-462043D01*
X6440Y-462012D01*
X6557Y-461984D01*
X6674Y-461961D01*
X6791Y-461941D01*
X6910Y-461925D01*
X7029Y-461913D01*
X7148Y-461905D01*
X7267Y-461901D01*
X7387Y-461901D01*
X7506Y-461905D01*
X7625Y-461913D01*
X7744Y-461925D01*
X7863Y-461941D01*
X7980Y-461961D01*
X8097Y-461984D01*
X8214Y-462012D01*
X8329Y-462043D01*
X8443Y-462078D01*
X8556Y-462117D01*
X8668Y-462159D01*
X8778Y-462205D01*
X8886Y-462255D01*
X8993Y-462308D01*
X9098Y-462365D01*
X9202Y-462425D01*
X9303Y-462489D01*
X9401Y-462556D01*
X9498Y-462626D01*
X9592Y-462700D01*
X9684Y-462776D01*
X9773Y-462856D01*
X9860Y-462938D01*
X9944Y-463023D01*
X10025Y-463111D01*
X10102Y-463201D01*
X10177Y-463294D01*
X10249Y-463390D01*
X10318Y-463488D01*
X10383Y-463588D01*
X10445Y-463690D01*
X10504Y-463794D01*
X10559Y-463900D01*
X10610Y-464008D01*
X10658Y-464117D01*
X10703Y-464228D01*
X10743Y-464340D01*
X10780Y-464454D01*
X10813Y-464569D01*
X10843Y-464684D01*
X10868Y-464801D01*
X10890Y-464918D01*
X10907Y-465037D01*
X10921Y-465155D01*
X10931Y-465274D01*
X10937Y-465394D01*
X10939Y-465513D01*
X10940Y-465513D02*
X10940Y-467319D01*
X3715Y-467319D01*
X17868Y-472738D02*
X17868Y-461901D01*
X23287Y-461901D01*
X23287Y-463707D01*
X37340Y-456482D02*
X37340Y-472738D01*
X42758Y-465513D02*
X37340Y-456482D01*
X42758Y-465513D02*
X48177Y-456482D01*
X48177Y-472738D01*
X58386Y-466416D02*
X62450Y-466416D01*
X58386Y-466416D02*
X58274Y-466418D01*
X58163Y-466424D01*
X58052Y-466434D01*
X57941Y-466447D01*
X57831Y-466465D01*
X57722Y-466487D01*
X57613Y-466512D01*
X57505Y-466541D01*
X57399Y-466574D01*
X57293Y-466611D01*
X57189Y-466651D01*
X57087Y-466695D01*
X56986Y-466743D01*
X56887Y-466794D01*
X56789Y-466849D01*
X56694Y-466907D01*
X56601Y-466968D01*
X56510Y-467033D01*
X56421Y-467101D01*
X56335Y-467172D01*
X56252Y-467245D01*
X56171Y-467322D01*
X56092Y-467402D01*
X56017Y-467484D01*
X55945Y-467569D01*
X55875Y-467656D01*
X55809Y-467746D01*
X55746Y-467838D01*
X55686Y-467933D01*
X55630Y-468029D01*
X55577Y-468127D01*
X55528Y-468227D01*
X55482Y-468329D01*
X55440Y-468432D01*
X55401Y-468537D01*
X55366Y-468643D01*
X55335Y-468750D01*
X55308Y-468858D01*
X55284Y-468967D01*
X55265Y-469077D01*
X55249Y-469187D01*
X55237Y-469298D01*
X55229Y-469410D01*
X55225Y-469521D01*
X55225Y-469633D01*
X55229Y-469744D01*
X55237Y-469856D01*
X55249Y-469967D01*
X55265Y-470077D01*
X55284Y-470187D01*
X55308Y-470296D01*
X55335Y-470404D01*
X55366Y-470511D01*
X55401Y-470617D01*
X55440Y-470722D01*
X55482Y-470825D01*
X55528Y-470927D01*
X55577Y-471027D01*
X55630Y-471125D01*
X55686Y-471221D01*
X55746Y-471316D01*
X55809Y-471408D01*
X55875Y-471498D01*
X55945Y-471585D01*
X56017Y-471670D01*
X56092Y-471752D01*
X56171Y-471832D01*
X56252Y-471909D01*
X56335Y-471982D01*
X56421Y-472053D01*
X56510Y-472121D01*
X56601Y-472186D01*
X56694Y-472247D01*
X56789Y-472305D01*
X56887Y-472360D01*
X56986Y-472411D01*
X57087Y-472459D01*
X57189Y-472503D01*
X57293Y-472543D01*
X57399Y-472580D01*
X57505Y-472613D01*
X57613Y-472642D01*
X57722Y-472667D01*
X57831Y-472689D01*
X57941Y-472707D01*
X58052Y-472720D01*
X58163Y-472730D01*
X58274Y-472736D01*
X58386Y-472738D01*
X62450Y-472738D01*
X62450Y-464610D01*
X62449Y-464610D02*
X62447Y-464509D01*
X62441Y-464408D01*
X62432Y-464307D01*
X62419Y-464206D01*
X62402Y-464106D01*
X62381Y-464007D01*
X62357Y-463909D01*
X62329Y-463812D01*
X62297Y-463715D01*
X62262Y-463620D01*
X62223Y-463527D01*
X62181Y-463435D01*
X62135Y-463344D01*
X62086Y-463256D01*
X62034Y-463169D01*
X61978Y-463084D01*
X61920Y-463001D01*
X61858Y-462921D01*
X61793Y-462843D01*
X61726Y-462767D01*
X61656Y-462694D01*
X61583Y-462624D01*
X61507Y-462557D01*
X61429Y-462492D01*
X61349Y-462430D01*
X61266Y-462372D01*
X61181Y-462316D01*
X61095Y-462264D01*
X61006Y-462215D01*
X60915Y-462169D01*
X60823Y-462127D01*
X60730Y-462088D01*
X60635Y-462053D01*
X60538Y-462021D01*
X60441Y-461993D01*
X60343Y-461969D01*
X60244Y-461948D01*
X60144Y-461931D01*
X60043Y-461918D01*
X59942Y-461909D01*
X59841Y-461903D01*
X59740Y-461901D01*
X56128Y-461901D01*
X70721Y-466416D02*
X75236Y-468222D01*
X70720Y-466416D02*
X70632Y-466379D01*
X70546Y-466338D01*
X70461Y-466294D01*
X70378Y-466246D01*
X70298Y-466195D01*
X70219Y-466141D01*
X70143Y-466083D01*
X70069Y-466023D01*
X69997Y-465959D01*
X69929Y-465893D01*
X69863Y-465823D01*
X69800Y-465752D01*
X69739Y-465677D01*
X69682Y-465601D01*
X69629Y-465522D01*
X69578Y-465441D01*
X69531Y-465358D01*
X69487Y-465273D01*
X69447Y-465186D01*
X69410Y-465098D01*
X69377Y-465008D01*
X69347Y-464917D01*
X69322Y-464825D01*
X69300Y-464732D01*
X69282Y-464638D01*
X69267Y-464544D01*
X69257Y-464449D01*
X69251Y-464353D01*
X69248Y-464258D01*
X69249Y-464162D01*
X69255Y-464067D01*
X69264Y-463971D01*
X69277Y-463877D01*
X69293Y-463783D01*
X69314Y-463689D01*
X69339Y-463597D01*
X69367Y-463506D01*
X69399Y-463416D01*
X69434Y-463327D01*
X69473Y-463240D01*
X69516Y-463154D01*
X69562Y-463070D01*
X69612Y-462989D01*
X69664Y-462909D01*
X69720Y-462831D01*
X69780Y-462756D01*
X69842Y-462684D01*
X69907Y-462614D01*
X69975Y-462546D01*
X70045Y-462482D01*
X70118Y-462420D01*
X70194Y-462362D01*
X70272Y-462306D01*
X70352Y-462254D01*
X70434Y-462205D01*
X70518Y-462160D01*
X70604Y-462118D01*
X70691Y-462079D01*
X70780Y-462044D01*
X70871Y-462013D01*
X70962Y-461986D01*
X71055Y-461962D01*
X71148Y-461942D01*
X71242Y-461926D01*
X71337Y-461914D01*
X71432Y-461905D01*
X71528Y-461901D01*
X71623Y-461900D01*
X71870Y-461907D01*
X72116Y-461919D01*
X72362Y-461937D01*
X72608Y-461962D01*
X72852Y-461992D01*
X73096Y-462028D01*
X73339Y-462070D01*
X73581Y-462117D01*
X73822Y-462171D01*
X74061Y-462230D01*
X74299Y-462295D01*
X74536Y-462366D01*
X74770Y-462442D01*
X75003Y-462524D01*
X75233Y-462612D01*
X75461Y-462705D01*
X75688Y-462803D01*
X75237Y-468223D02*
X75325Y-468260D01*
X75411Y-468301D01*
X75496Y-468345D01*
X75579Y-468393D01*
X75659Y-468444D01*
X75738Y-468498D01*
X75814Y-468556D01*
X75888Y-468616D01*
X75960Y-468680D01*
X76028Y-468746D01*
X76094Y-468816D01*
X76157Y-468887D01*
X76218Y-468962D01*
X76275Y-469038D01*
X76328Y-469117D01*
X76379Y-469198D01*
X76426Y-469281D01*
X76470Y-469366D01*
X76510Y-469453D01*
X76547Y-469541D01*
X76580Y-469631D01*
X76610Y-469722D01*
X76635Y-469814D01*
X76657Y-469907D01*
X76675Y-470001D01*
X76690Y-470095D01*
X76700Y-470190D01*
X76706Y-470286D01*
X76709Y-470381D01*
X76708Y-470477D01*
X76702Y-470572D01*
X76693Y-470668D01*
X76680Y-470762D01*
X76664Y-470856D01*
X76643Y-470950D01*
X76618Y-471042D01*
X76590Y-471133D01*
X76558Y-471223D01*
X76523Y-471312D01*
X76484Y-471399D01*
X76441Y-471485D01*
X76395Y-471569D01*
X76345Y-471650D01*
X76293Y-471730D01*
X76237Y-471808D01*
X76177Y-471883D01*
X76115Y-471955D01*
X76050Y-472025D01*
X75982Y-472093D01*
X75912Y-472157D01*
X75839Y-472219D01*
X75763Y-472277D01*
X75685Y-472333D01*
X75605Y-472385D01*
X75523Y-472434D01*
X75439Y-472479D01*
X75353Y-472521D01*
X75266Y-472560D01*
X75177Y-472595D01*
X75086Y-472626D01*
X74995Y-472653D01*
X74902Y-472677D01*
X74809Y-472697D01*
X74715Y-472713D01*
X74620Y-472725D01*
X74525Y-472734D01*
X74429Y-472738D01*
X74334Y-472739D01*
X74333Y-472738D02*
X73971Y-472729D01*
X73609Y-472711D01*
X73248Y-472684D01*
X72888Y-472649D01*
X72528Y-472606D01*
X72169Y-472554D01*
X71812Y-472493D01*
X71457Y-472424D01*
X71103Y-472347D01*
X70751Y-472261D01*
X70401Y-472167D01*
X70053Y-472064D01*
X69708Y-471954D01*
X69366Y-471835D01*
X83603Y-472738D02*
X83603Y-456482D01*
X90828Y-461901D02*
X83603Y-467319D01*
X86764Y-465062D02*
X90828Y-472738D01*
D36*
X-323500Y201350D03*
X-298100Y201350D03*
X-272700Y201350D03*
X-247300Y201350D03*
X-221900Y201350D03*
X-196500Y201350D03*
D37*
X-157500Y146000D03*
X-182500Y146000D03*
D38*
X-182500Y74000D03*
X-157500Y74000D03*
D39*
X-157300Y110000D03*
D40*
X-182700Y110000D03*
M02*
