G04 EAGLE Gerber RS-274X export*
G75*
%MOMM*%
%FSLAX34Y34*%
%LPD*%
%INTop Inner Metal*%
%IPPOS*%
%AMOC8*
5,1,8,0,0,1.08239X$1,22.5*%
G01*
%ADD10C,0.352400*%
%ADD11C,1.350000*%
%ADD12C,1.500000*%
%ADD13C,1.950000*%
%ADD14C,0.152400*%
%ADD15C,1.650000*%
%ADD16C,0.604000*%
%ADD17C,0.454000*%
%ADD18C,0.127000*%
%ADD19C,0.457200*%
%ADD20C,0.254000*%

G36*
X380018Y-367496D02*
X380018Y-367496D01*
X380042Y-367498D01*
X386159Y-367097D01*
X386205Y-367085D01*
X386281Y-367077D01*
X398099Y-363910D01*
X398139Y-363891D01*
X398252Y-363847D01*
X408847Y-357730D01*
X408881Y-357701D01*
X408978Y-357629D01*
X417629Y-348978D01*
X417654Y-348941D01*
X417730Y-348847D01*
X423847Y-338252D01*
X423862Y-338209D01*
X423910Y-338099D01*
X427077Y-326281D01*
X427081Y-326233D01*
X427097Y-326159D01*
X427498Y-320041D01*
X427496Y-320023D01*
X427499Y-320000D01*
X427499Y265000D01*
X427496Y265018D01*
X427498Y265041D01*
X427097Y271159D01*
X427085Y271205D01*
X427077Y271281D01*
X423910Y283099D01*
X423891Y283139D01*
X423847Y283252D01*
X417730Y293847D01*
X417701Y293881D01*
X417629Y293978D01*
X408978Y302629D01*
X408941Y302654D01*
X408847Y302730D01*
X398252Y308847D01*
X398209Y308862D01*
X398099Y308910D01*
X386281Y312077D01*
X386233Y312081D01*
X386159Y312097D01*
X380041Y312498D01*
X380023Y312496D01*
X380000Y312499D01*
X210000Y312499D01*
X209935Y312488D01*
X209869Y312486D01*
X209826Y312468D01*
X209779Y312460D01*
X209722Y312426D01*
X209662Y312401D01*
X209627Y312370D01*
X209586Y312345D01*
X209545Y312294D01*
X209496Y312250D01*
X209474Y312208D01*
X209445Y312171D01*
X209424Y312109D01*
X209393Y312050D01*
X209385Y311996D01*
X209373Y311959D01*
X209374Y311919D01*
X209366Y311865D01*
X209366Y225634D01*
X110263Y225634D01*
X90448Y245448D01*
X90414Y245473D01*
X90385Y245504D01*
X90322Y245536D01*
X90264Y245577D01*
X90223Y245587D01*
X90185Y245607D01*
X90096Y245620D01*
X90047Y245633D01*
X90026Y245630D01*
X90000Y245634D01*
X-34366Y245634D01*
X-34366Y303768D01*
X-34381Y303855D01*
X-34391Y303944D01*
X-34401Y303965D01*
X-34405Y303989D01*
X-34451Y304065D01*
X-34490Y304145D01*
X-34507Y304161D01*
X-34520Y304182D01*
X-34589Y304238D01*
X-34653Y304299D01*
X-34675Y304308D01*
X-34694Y304323D01*
X-34778Y304352D01*
X-34860Y304386D01*
X-34884Y304387D01*
X-34906Y304395D01*
X-34995Y304393D01*
X-35084Y304397D01*
X-35109Y304389D01*
X-35131Y304389D01*
X-35177Y304370D01*
X-35264Y304345D01*
X-44969Y299906D01*
X-56014Y297499D01*
X-143986Y297499D01*
X-155032Y299906D01*
X-165312Y304608D01*
X-168795Y307220D01*
X-182128Y317220D01*
X-182402Y317426D01*
X-182403Y317426D01*
X-183167Y318000D01*
X-183181Y318006D01*
X-183195Y318019D01*
X-187370Y320814D01*
X-187408Y320830D01*
X-187459Y320863D01*
X-196583Y325037D01*
X-196631Y325049D01*
X-196693Y325073D01*
X-196696Y325074D01*
X-196697Y325074D01*
X-196712Y325080D01*
X-206515Y327215D01*
X-206557Y327217D01*
X-206616Y327229D01*
X-211633Y327498D01*
X-211648Y327496D01*
X-211667Y327499D01*
X-316667Y327499D01*
X-316689Y327495D01*
X-316718Y327497D01*
X-320220Y327215D01*
X-320268Y327202D01*
X-320370Y327184D01*
X-327015Y324969D01*
X-327058Y324946D01*
X-327153Y324904D01*
X-330124Y323028D01*
X-330141Y323013D01*
X-330166Y322999D01*
X-330277Y322916D01*
X-331202Y322223D01*
X-331205Y322221D01*
X-331205Y322220D01*
X-334688Y319608D01*
X-344968Y314906D01*
X-356014Y312499D01*
X-380000Y312499D01*
X-380018Y312496D01*
X-380041Y312498D01*
X-386159Y312097D01*
X-386205Y312085D01*
X-386281Y312077D01*
X-398099Y308910D01*
X-398139Y308891D01*
X-398252Y308847D01*
X-408847Y302730D01*
X-408881Y302701D01*
X-408978Y302629D01*
X-417629Y293978D01*
X-417654Y293941D01*
X-417730Y293847D01*
X-423847Y283252D01*
X-423862Y283209D01*
X-423910Y283099D01*
X-427077Y271281D01*
X-427081Y271233D01*
X-427097Y271159D01*
X-427498Y265041D01*
X-427496Y265023D01*
X-427499Y265000D01*
X-427499Y-320000D01*
X-427496Y-320018D01*
X-427498Y-320041D01*
X-427097Y-326159D01*
X-427085Y-326205D01*
X-427077Y-326281D01*
X-423910Y-338099D01*
X-423891Y-338139D01*
X-423847Y-338252D01*
X-417730Y-348847D01*
X-417701Y-348881D01*
X-417629Y-348978D01*
X-408978Y-357629D01*
X-408941Y-357654D01*
X-408847Y-357730D01*
X-398252Y-363847D01*
X-398209Y-363862D01*
X-398099Y-363910D01*
X-386281Y-367077D01*
X-386233Y-367081D01*
X-386159Y-367097D01*
X-380041Y-367498D01*
X-380023Y-367496D01*
X-380000Y-367499D01*
X380000Y-367499D01*
X380018Y-367496D01*
G37*
%LPC*%
G36*
X73533Y-146041D02*
X73533Y-146041D01*
X71459Y-143967D01*
X71459Y-141033D01*
X72908Y-139584D01*
X72933Y-139549D01*
X72964Y-139521D01*
X72996Y-139458D01*
X73037Y-139400D01*
X73047Y-139359D01*
X73067Y-139321D01*
X73080Y-139231D01*
X73093Y-139183D01*
X73090Y-139162D01*
X73094Y-139136D01*
X73094Y-126711D01*
X74396Y-125408D01*
X305408Y105604D01*
X305433Y105638D01*
X305464Y105667D01*
X305496Y105730D01*
X305537Y105788D01*
X305547Y105829D01*
X305567Y105867D01*
X305580Y105956D01*
X305593Y106005D01*
X305590Y106026D01*
X305594Y106052D01*
X305594Y111636D01*
X305587Y111677D01*
X305589Y111720D01*
X305567Y111787D01*
X305555Y111856D01*
X305533Y111893D01*
X305520Y111933D01*
X305466Y112006D01*
X305440Y112050D01*
X305424Y112063D01*
X305408Y112084D01*
X303959Y113533D01*
X303959Y116467D01*
X306033Y118541D01*
X308325Y118541D01*
X308390Y118552D01*
X308456Y118554D01*
X308499Y118572D01*
X308546Y118580D01*
X308603Y118614D01*
X308663Y118639D01*
X308698Y118670D01*
X308739Y118695D01*
X308781Y118746D01*
X308829Y118790D01*
X308851Y118832D01*
X308880Y118869D01*
X308901Y118931D01*
X308932Y118990D01*
X308940Y119044D01*
X308952Y119081D01*
X308951Y119121D01*
X308959Y119175D01*
X308959Y121467D01*
X311033Y123541D01*
X313967Y123541D01*
X316041Y121467D01*
X316041Y119175D01*
X316052Y119110D01*
X316054Y119044D01*
X316072Y119001D01*
X316080Y118954D01*
X316114Y118897D01*
X316139Y118837D01*
X316170Y118802D01*
X316195Y118761D01*
X316246Y118719D01*
X316290Y118671D01*
X316332Y118649D01*
X316369Y118620D01*
X316431Y118599D01*
X316490Y118568D01*
X316544Y118560D01*
X316581Y118548D01*
X316621Y118549D01*
X316675Y118541D01*
X318967Y118541D01*
X319512Y117996D01*
X319585Y117945D01*
X319654Y117889D01*
X319676Y117881D01*
X319696Y117868D01*
X319782Y117846D01*
X319866Y117817D01*
X319890Y117818D01*
X319913Y117812D01*
X320002Y117821D01*
X320091Y117824D01*
X320113Y117833D01*
X320136Y117835D01*
X320216Y117875D01*
X320298Y117908D01*
X320316Y117924D01*
X320337Y117934D01*
X320398Y117999D01*
X320464Y118059D01*
X320475Y118080D01*
X320491Y118098D01*
X320526Y118180D01*
X320567Y118259D01*
X320570Y118285D01*
X320579Y118304D01*
X320581Y118355D01*
X320594Y118444D01*
X320594Y138289D01*
X327908Y145604D01*
X327933Y145638D01*
X327964Y145667D01*
X327996Y145730D01*
X328037Y145788D01*
X328047Y145829D01*
X328067Y145867D01*
X328080Y145956D01*
X328093Y146005D01*
X328090Y146026D01*
X328094Y146052D01*
X328094Y161636D01*
X328087Y161677D01*
X328089Y161720D01*
X328067Y161787D01*
X328055Y161856D01*
X328033Y161893D01*
X328020Y161933D01*
X327966Y162006D01*
X327940Y162050D01*
X327924Y162063D01*
X327908Y162084D01*
X326459Y163533D01*
X326459Y166467D01*
X328533Y168541D01*
X331467Y168541D01*
X333541Y166467D01*
X333541Y163533D01*
X332092Y162084D01*
X332067Y162049D01*
X332036Y162021D01*
X332004Y161958D01*
X331963Y161900D01*
X331953Y161859D01*
X331933Y161821D01*
X331920Y161731D01*
X331907Y161683D01*
X331910Y161662D01*
X331906Y161636D01*
X331906Y144211D01*
X329819Y142123D01*
X329768Y142050D01*
X329712Y141981D01*
X329704Y141959D01*
X329690Y141939D01*
X329668Y141853D01*
X329640Y141769D01*
X329640Y141745D01*
X329635Y141722D01*
X329644Y141633D01*
X329646Y141544D01*
X329655Y141522D01*
X329658Y141499D01*
X329697Y141419D01*
X329731Y141337D01*
X329747Y141319D01*
X329757Y141298D01*
X329822Y141237D01*
X329882Y141171D01*
X329903Y141160D01*
X329920Y141144D01*
X330002Y141109D01*
X330082Y141068D01*
X330108Y141065D01*
X330127Y141056D01*
X330177Y141054D01*
X330267Y141041D01*
X331467Y141041D01*
X333541Y138967D01*
X333541Y136033D01*
X331467Y133959D01*
X328533Y133959D01*
X326459Y136033D01*
X326459Y137233D01*
X326444Y137321D01*
X326434Y137409D01*
X326424Y137430D01*
X326420Y137454D01*
X326374Y137531D01*
X326335Y137610D01*
X326318Y137626D01*
X326305Y137647D01*
X326236Y137703D01*
X326172Y137764D01*
X326150Y137773D01*
X326131Y137788D01*
X326047Y137817D01*
X325965Y137852D01*
X325941Y137853D01*
X325919Y137860D01*
X325830Y137858D01*
X325741Y137862D01*
X325718Y137854D01*
X325694Y137854D01*
X325612Y137820D01*
X325527Y137793D01*
X325506Y137777D01*
X325487Y137769D01*
X325449Y137735D01*
X325377Y137681D01*
X324591Y136896D01*
X324567Y136862D01*
X324536Y136833D01*
X324504Y136770D01*
X324463Y136712D01*
X324453Y136671D01*
X324433Y136633D01*
X324420Y136544D01*
X324407Y136495D01*
X324410Y136474D01*
X324406Y136448D01*
X324406Y49211D01*
X312319Y37123D01*
X312268Y37050D01*
X312212Y36981D01*
X312204Y36959D01*
X312190Y36939D01*
X312168Y36853D01*
X312140Y36769D01*
X312140Y36745D01*
X312135Y36722D01*
X312144Y36633D01*
X312146Y36544D01*
X312155Y36522D01*
X312158Y36499D01*
X312197Y36419D01*
X312231Y36337D01*
X312247Y36319D01*
X312257Y36298D01*
X312322Y36237D01*
X312382Y36171D01*
X312403Y36160D01*
X312420Y36144D01*
X312502Y36109D01*
X312582Y36068D01*
X312608Y36065D01*
X312627Y36056D01*
X312677Y36054D01*
X312767Y36041D01*
X313967Y36041D01*
X316041Y33967D01*
X316041Y31033D01*
X313967Y28959D01*
X311033Y28959D01*
X308959Y31033D01*
X308959Y32233D01*
X308943Y32321D01*
X308934Y32409D01*
X308924Y32430D01*
X308920Y32454D01*
X308874Y32530D01*
X308835Y32610D01*
X308818Y32627D01*
X308805Y32647D01*
X308736Y32703D01*
X308672Y32764D01*
X308650Y32773D01*
X308631Y32788D01*
X308547Y32817D01*
X308465Y32852D01*
X308441Y32853D01*
X308419Y32860D01*
X308330Y32858D01*
X308241Y32862D01*
X308218Y32854D01*
X308194Y32854D01*
X308112Y32820D01*
X308027Y32793D01*
X308006Y32777D01*
X307987Y32769D01*
X307949Y32735D01*
X307877Y32681D01*
X282319Y7123D01*
X282268Y7050D01*
X282212Y6981D01*
X282204Y6959D01*
X282190Y6939D01*
X282168Y6853D01*
X282140Y6769D01*
X282140Y6745D01*
X282135Y6722D01*
X282144Y6633D01*
X282146Y6544D01*
X282155Y6522D01*
X282158Y6499D01*
X282197Y6419D01*
X282231Y6337D01*
X282247Y6319D01*
X282257Y6298D01*
X282322Y6237D01*
X282382Y6171D01*
X282403Y6160D01*
X282420Y6144D01*
X282502Y6109D01*
X282582Y6068D01*
X282608Y6065D01*
X282627Y6056D01*
X282677Y6054D01*
X282767Y6041D01*
X283967Y6041D01*
X285802Y4206D01*
X285856Y4168D01*
X285903Y4123D01*
X285947Y4105D01*
X285986Y4078D01*
X286049Y4061D01*
X286110Y4036D01*
X286157Y4034D01*
X286203Y4022D01*
X286268Y4029D01*
X286334Y4026D01*
X286379Y4040D01*
X286426Y4045D01*
X286485Y4074D01*
X286548Y4094D01*
X286592Y4127D01*
X286627Y4144D01*
X286654Y4173D01*
X286699Y4206D01*
X288533Y6041D01*
X291467Y6041D01*
X293541Y3967D01*
X293541Y1033D01*
X291467Y-1041D01*
X288533Y-1041D01*
X286698Y794D01*
X286645Y832D01*
X286597Y877D01*
X286553Y895D01*
X286514Y922D01*
X286451Y939D01*
X286390Y964D01*
X286343Y966D01*
X286297Y978D01*
X286232Y971D01*
X286166Y974D01*
X286121Y960D01*
X286074Y955D01*
X286015Y926D01*
X285952Y906D01*
X285908Y873D01*
X285873Y856D01*
X285846Y827D01*
X285802Y794D01*
X283967Y-1041D01*
X281675Y-1041D01*
X281610Y-1052D01*
X281544Y-1054D01*
X281501Y-1072D01*
X281454Y-1080D01*
X281397Y-1114D01*
X281337Y-1139D01*
X281302Y-1170D01*
X281261Y-1195D01*
X281219Y-1246D01*
X281171Y-1290D01*
X281149Y-1332D01*
X281120Y-1369D01*
X281099Y-1431D01*
X281068Y-1490D01*
X281060Y-1544D01*
X281048Y-1581D01*
X281049Y-1621D01*
X281041Y-1675D01*
X281041Y-3967D01*
X278967Y-6041D01*
X276675Y-6041D01*
X276610Y-6052D01*
X276544Y-6054D01*
X276501Y-6072D01*
X276454Y-6080D01*
X276397Y-6114D01*
X276337Y-6139D01*
X276302Y-6170D01*
X276261Y-6195D01*
X276219Y-6246D01*
X276171Y-6290D01*
X276149Y-6332D01*
X276120Y-6369D01*
X276099Y-6431D01*
X276068Y-6490D01*
X276060Y-6544D01*
X276048Y-6581D01*
X276049Y-6621D01*
X276041Y-6675D01*
X276041Y-8967D01*
X273967Y-11041D01*
X271675Y-11041D01*
X271610Y-11052D01*
X271544Y-11054D01*
X271501Y-11072D01*
X271454Y-11080D01*
X271397Y-11114D01*
X271337Y-11139D01*
X271302Y-11170D01*
X271261Y-11195D01*
X271219Y-11246D01*
X271171Y-11290D01*
X271149Y-11332D01*
X271120Y-11369D01*
X271099Y-11431D01*
X271068Y-11490D01*
X271060Y-11544D01*
X271048Y-11581D01*
X271048Y-11590D01*
X271048Y-11591D01*
X271049Y-11622D01*
X271041Y-11675D01*
X271041Y-13967D01*
X268967Y-16041D01*
X266033Y-16041D01*
X263959Y-13967D01*
X263959Y-11033D01*
X266033Y-8959D01*
X268325Y-8959D01*
X268390Y-8948D01*
X268456Y-8946D01*
X268499Y-8928D01*
X268546Y-8920D01*
X268603Y-8886D01*
X268663Y-8861D01*
X268698Y-8830D01*
X268739Y-8805D01*
X268781Y-8754D01*
X268829Y-8710D01*
X268851Y-8668D01*
X268880Y-8631D01*
X268901Y-8569D01*
X268932Y-8510D01*
X268940Y-8456D01*
X268952Y-8419D01*
X268951Y-8379D01*
X268959Y-8325D01*
X268959Y-6033D01*
X271033Y-3959D01*
X273325Y-3959D01*
X273390Y-3948D01*
X273456Y-3946D01*
X273499Y-3928D01*
X273546Y-3920D01*
X273603Y-3886D01*
X273663Y-3861D01*
X273698Y-3830D01*
X273739Y-3805D01*
X273781Y-3754D01*
X273829Y-3710D01*
X273851Y-3668D01*
X273880Y-3631D01*
X273901Y-3569D01*
X273932Y-3510D01*
X273940Y-3456D01*
X273952Y-3419D01*
X273951Y-3379D01*
X273959Y-3325D01*
X273959Y-1033D01*
X275408Y416D01*
X275433Y451D01*
X275464Y479D01*
X275496Y542D01*
X275537Y600D01*
X275547Y641D01*
X275567Y679D01*
X275580Y769D01*
X275593Y817D01*
X275590Y838D01*
X275594Y864D01*
X275594Y5789D01*
X320408Y50604D01*
X320433Y50638D01*
X320464Y50667D01*
X320496Y50730D01*
X320537Y50788D01*
X320547Y50829D01*
X320567Y50867D01*
X320580Y50956D01*
X320593Y51005D01*
X320590Y51026D01*
X320594Y51052D01*
X320594Y76556D01*
X320579Y76643D01*
X320569Y76732D01*
X320559Y76753D01*
X320555Y76777D01*
X320509Y76853D01*
X320470Y76933D01*
X320453Y76949D01*
X320440Y76970D01*
X320371Y77026D01*
X320307Y77087D01*
X320285Y77096D01*
X320266Y77111D01*
X320182Y77140D01*
X320100Y77174D01*
X320076Y77175D01*
X320054Y77183D01*
X319965Y77180D01*
X319876Y77184D01*
X319853Y77177D01*
X319829Y77176D01*
X319747Y77143D01*
X319662Y77116D01*
X319641Y77100D01*
X319622Y77092D01*
X319584Y77058D01*
X319512Y77004D01*
X318967Y76459D01*
X316033Y76459D01*
X313959Y78533D01*
X313959Y81467D01*
X315794Y83302D01*
X315832Y83356D01*
X315877Y83403D01*
X315895Y83447D01*
X315922Y83486D01*
X315939Y83549D01*
X315964Y83610D01*
X315966Y83657D01*
X315978Y83703D01*
X315971Y83768D01*
X315974Y83834D01*
X315960Y83879D01*
X315955Y83926D01*
X315926Y83985D01*
X315906Y84048D01*
X315873Y84092D01*
X315856Y84127D01*
X315827Y84154D01*
X315794Y84199D01*
X313959Y86033D01*
X313959Y88967D01*
X316033Y91041D01*
X318967Y91041D01*
X319512Y90496D01*
X319585Y90445D01*
X319654Y90389D01*
X319676Y90381D01*
X319696Y90368D01*
X319782Y90346D01*
X319866Y90317D01*
X319890Y90318D01*
X319913Y90312D01*
X320002Y90321D01*
X320091Y90324D01*
X320113Y90333D01*
X320136Y90335D01*
X320216Y90375D01*
X320298Y90408D01*
X320316Y90424D01*
X320337Y90434D01*
X320398Y90499D01*
X320464Y90559D01*
X320475Y90580D01*
X320491Y90598D01*
X320526Y90680D01*
X320567Y90759D01*
X320570Y90785D01*
X320579Y90804D01*
X320581Y90855D01*
X320594Y90944D01*
X320594Y111556D01*
X320579Y111643D01*
X320569Y111732D01*
X320559Y111753D01*
X320555Y111777D01*
X320509Y111853D01*
X320470Y111933D01*
X320453Y111949D01*
X320440Y111970D01*
X320371Y112026D01*
X320307Y112087D01*
X320285Y112096D01*
X320266Y112111D01*
X320182Y112140D01*
X320100Y112174D01*
X320076Y112175D01*
X320054Y112183D01*
X319965Y112180D01*
X319876Y112184D01*
X319853Y112177D01*
X319829Y112176D01*
X319747Y112143D01*
X319662Y112116D01*
X319641Y112100D01*
X319622Y112092D01*
X319584Y112058D01*
X319512Y112004D01*
X318967Y111459D01*
X316033Y111459D01*
X313959Y113533D01*
X313959Y115825D01*
X313948Y115890D01*
X313946Y115956D01*
X313928Y115999D01*
X313920Y116046D01*
X313886Y116103D01*
X313861Y116163D01*
X313830Y116198D01*
X313805Y116239D01*
X313754Y116281D01*
X313710Y116329D01*
X313668Y116351D01*
X313631Y116380D01*
X313569Y116401D01*
X313510Y116432D01*
X313456Y116440D01*
X313419Y116452D01*
X313379Y116451D01*
X313325Y116459D01*
X311675Y116459D01*
X311610Y116448D01*
X311544Y116446D01*
X311501Y116428D01*
X311454Y116420D01*
X311397Y116386D01*
X311337Y116361D01*
X311302Y116330D01*
X311261Y116305D01*
X311219Y116254D01*
X311171Y116210D01*
X311149Y116168D01*
X311120Y116131D01*
X311099Y116069D01*
X311068Y116010D01*
X311060Y115956D01*
X311048Y115919D01*
X311048Y115895D01*
X311048Y115893D01*
X311048Y115875D01*
X311041Y115825D01*
X311041Y113533D01*
X309592Y112084D01*
X309567Y112049D01*
X309536Y112021D01*
X309504Y111958D01*
X309463Y111900D01*
X309453Y111859D01*
X309433Y111821D01*
X309420Y111731D01*
X309407Y111683D01*
X309410Y111662D01*
X309406Y111636D01*
X309406Y104211D01*
X297319Y92123D01*
X297268Y92050D01*
X297212Y91981D01*
X297204Y91959D01*
X297190Y91939D01*
X297168Y91853D01*
X297140Y91769D01*
X297140Y91745D01*
X297135Y91722D01*
X297144Y91633D01*
X297146Y91544D01*
X297155Y91522D01*
X297158Y91499D01*
X297197Y91419D01*
X297231Y91337D01*
X297247Y91319D01*
X297257Y91298D01*
X297322Y91237D01*
X297382Y91171D01*
X297403Y91160D01*
X297420Y91144D01*
X297502Y91109D01*
X297582Y91068D01*
X297608Y91065D01*
X297627Y91056D01*
X297677Y91054D01*
X297767Y91041D01*
X298967Y91041D01*
X301044Y88964D01*
X301056Y88892D01*
X301066Y88804D01*
X301076Y88783D01*
X301080Y88759D01*
X301126Y88682D01*
X301165Y88603D01*
X301182Y88586D01*
X301195Y88566D01*
X301264Y88510D01*
X301328Y88449D01*
X301350Y88440D01*
X301369Y88425D01*
X301453Y88396D01*
X301535Y88361D01*
X301559Y88360D01*
X301581Y88353D01*
X301670Y88355D01*
X301759Y88351D01*
X301782Y88359D01*
X301806Y88359D01*
X301888Y88393D01*
X301973Y88420D01*
X301994Y88436D01*
X302013Y88444D01*
X302051Y88478D01*
X302123Y88531D01*
X303223Y89631D01*
X306777Y89631D01*
X309291Y87117D01*
X309291Y83563D01*
X306777Y81049D01*
X303223Y81049D01*
X300709Y83563D01*
X300709Y84171D01*
X300694Y84258D01*
X300684Y84347D01*
X300674Y84368D01*
X300670Y84392D01*
X300624Y84468D01*
X300585Y84548D01*
X300568Y84564D01*
X300555Y84585D01*
X300486Y84641D01*
X300422Y84702D01*
X300400Y84711D01*
X300381Y84726D01*
X300297Y84755D01*
X300215Y84789D01*
X300191Y84790D01*
X300169Y84798D01*
X300080Y84795D01*
X299991Y84799D01*
X299968Y84792D01*
X299944Y84791D01*
X299862Y84758D01*
X299777Y84731D01*
X299756Y84715D01*
X299737Y84707D01*
X299699Y84673D01*
X299627Y84619D01*
X298967Y83959D01*
X296033Y83959D01*
X293959Y86033D01*
X293959Y87233D01*
X293943Y87321D01*
X293934Y87409D01*
X293924Y87430D01*
X293920Y87454D01*
X293874Y87530D01*
X293835Y87610D01*
X293818Y87627D01*
X293805Y87647D01*
X293736Y87703D01*
X293672Y87764D01*
X293650Y87773D01*
X293631Y87788D01*
X293547Y87817D01*
X293465Y87852D01*
X293441Y87853D01*
X293419Y87860D01*
X293330Y87858D01*
X293241Y87862D01*
X293218Y87854D01*
X293194Y87854D01*
X293112Y87820D01*
X293027Y87793D01*
X293006Y87777D01*
X292987Y87769D01*
X292949Y87735D01*
X292877Y87681D01*
X77092Y-128104D01*
X77067Y-128138D01*
X77036Y-128167D01*
X77004Y-128230D01*
X76963Y-128288D01*
X76953Y-128329D01*
X76933Y-128367D01*
X76920Y-128456D01*
X76907Y-128505D01*
X76910Y-128526D01*
X76906Y-128552D01*
X76906Y-139136D01*
X76913Y-139177D01*
X76911Y-139220D01*
X76933Y-139287D01*
X76945Y-139356D01*
X76967Y-139393D01*
X76980Y-139433D01*
X77034Y-139506D01*
X77060Y-139550D01*
X77076Y-139563D01*
X77092Y-139584D01*
X78541Y-141033D01*
X78541Y-143967D01*
X76467Y-146041D01*
X73533Y-146041D01*
G37*
%LPD*%
%LPC*%
G36*
X28533Y-38541D02*
X28533Y-38541D01*
X26459Y-36467D01*
X26459Y-33533D01*
X27908Y-32084D01*
X27933Y-32049D01*
X27964Y-32021D01*
X27996Y-31958D01*
X28037Y-31900D01*
X28047Y-31859D01*
X28067Y-31821D01*
X28080Y-31731D01*
X28093Y-31683D01*
X28090Y-31662D01*
X28094Y-31636D01*
X28094Y48289D01*
X63773Y83969D01*
X63798Y84003D01*
X63829Y84032D01*
X63861Y84095D01*
X63902Y84153D01*
X63912Y84194D01*
X63932Y84232D01*
X63945Y84321D01*
X63958Y84370D01*
X63955Y84391D01*
X63959Y84417D01*
X63959Y86467D01*
X66033Y88541D01*
X68967Y88541D01*
X71041Y86467D01*
X71041Y83533D01*
X68967Y81459D01*
X66917Y81459D01*
X66875Y81452D01*
X66833Y81454D01*
X66766Y81432D01*
X66696Y81420D01*
X66660Y81398D01*
X66619Y81385D01*
X66547Y81331D01*
X66503Y81305D01*
X66490Y81289D01*
X66469Y81273D01*
X32092Y46896D01*
X32067Y46862D01*
X32036Y46833D01*
X32004Y46770D01*
X31963Y46712D01*
X31953Y46671D01*
X31933Y46633D01*
X31920Y46544D01*
X31907Y46495D01*
X31910Y46474D01*
X31906Y46448D01*
X31906Y-26556D01*
X31921Y-26643D01*
X31931Y-26732D01*
X31941Y-26753D01*
X31945Y-26777D01*
X31991Y-26853D01*
X32030Y-26933D01*
X32047Y-26949D01*
X32060Y-26970D01*
X32129Y-27026D01*
X32193Y-27087D01*
X32215Y-27096D01*
X32234Y-27111D01*
X32318Y-27140D01*
X32400Y-27174D01*
X32424Y-27175D01*
X32446Y-27183D01*
X32535Y-27180D01*
X32624Y-27184D01*
X32647Y-27177D01*
X32671Y-27176D01*
X32753Y-27143D01*
X32838Y-27116D01*
X32859Y-27100D01*
X32878Y-27092D01*
X32916Y-27058D01*
X32988Y-27004D01*
X33533Y-26459D01*
X35583Y-26459D01*
X35625Y-26452D01*
X35667Y-26454D01*
X35734Y-26432D01*
X35804Y-26420D01*
X35840Y-26398D01*
X35881Y-26385D01*
X35953Y-26331D01*
X35997Y-26305D01*
X36010Y-26289D01*
X36031Y-26273D01*
X159211Y96906D01*
X163948Y96906D01*
X163990Y96913D01*
X164032Y96911D01*
X164099Y96933D01*
X164169Y96945D01*
X164205Y96967D01*
X164246Y96980D01*
X164318Y97034D01*
X164362Y97060D01*
X164375Y97076D01*
X164396Y97092D01*
X213652Y146347D01*
X213652Y146348D01*
X231152Y163848D01*
X231153Y163848D01*
X240408Y173104D01*
X240433Y173138D01*
X240464Y173167D01*
X240496Y173230D01*
X240537Y173288D01*
X240547Y173329D01*
X240567Y173367D01*
X240580Y173456D01*
X240593Y173505D01*
X240590Y173526D01*
X240594Y173552D01*
X240594Y189136D01*
X240587Y189177D01*
X240589Y189220D01*
X240567Y189287D01*
X240555Y189356D01*
X240533Y189393D01*
X240520Y189433D01*
X240466Y189506D01*
X240440Y189550D01*
X240424Y189563D01*
X240408Y189584D01*
X238959Y191033D01*
X238959Y193967D01*
X241033Y196041D01*
X243967Y196041D01*
X246041Y193967D01*
X246041Y191033D01*
X244592Y189584D01*
X244567Y189549D01*
X244536Y189521D01*
X244504Y189458D01*
X244463Y189400D01*
X244453Y189359D01*
X244433Y189321D01*
X244420Y189231D01*
X244407Y189183D01*
X244410Y189162D01*
X244406Y189136D01*
X244406Y173632D01*
X244422Y173544D01*
X244431Y173456D01*
X244441Y173435D01*
X244445Y173411D01*
X244491Y173335D01*
X244530Y173255D01*
X244547Y173238D01*
X244560Y173218D01*
X244629Y173162D01*
X244693Y173101D01*
X244715Y173092D01*
X244734Y173077D01*
X244818Y173048D01*
X244900Y173013D01*
X244924Y173012D01*
X244946Y173005D01*
X245035Y173007D01*
X245124Y173003D01*
X245147Y173011D01*
X245171Y173011D01*
X245253Y173045D01*
X245338Y173072D01*
X245359Y173088D01*
X245378Y173096D01*
X245416Y173130D01*
X245488Y173184D01*
X255408Y183104D01*
X255433Y183138D01*
X255464Y183167D01*
X255496Y183230D01*
X255537Y183288D01*
X255547Y183329D01*
X255567Y183367D01*
X255580Y183456D01*
X255593Y183505D01*
X255590Y183526D01*
X255594Y183552D01*
X255594Y189136D01*
X255587Y189177D01*
X255589Y189220D01*
X255567Y189287D01*
X255555Y189356D01*
X255533Y189393D01*
X255520Y189433D01*
X255466Y189506D01*
X255440Y189550D01*
X255424Y189563D01*
X255408Y189584D01*
X253959Y191033D01*
X253959Y193967D01*
X256033Y196041D01*
X258967Y196041D01*
X261041Y193967D01*
X261041Y191033D01*
X259592Y189584D01*
X259567Y189549D01*
X259536Y189521D01*
X259504Y189458D01*
X259463Y189400D01*
X259453Y189359D01*
X259433Y189321D01*
X259420Y189231D01*
X259407Y189183D01*
X259410Y189162D01*
X259406Y189136D01*
X259406Y181711D01*
X165784Y88088D01*
X165780Y88089D01*
X165713Y88067D01*
X165644Y88055D01*
X165607Y88033D01*
X165567Y88020D01*
X165494Y87966D01*
X165450Y87940D01*
X165437Y87924D01*
X165416Y87908D01*
X163967Y86459D01*
X161033Y86459D01*
X158959Y88533D01*
X158959Y89733D01*
X158943Y89821D01*
X158934Y89909D01*
X158924Y89930D01*
X158920Y89954D01*
X158874Y90030D01*
X158835Y90110D01*
X158818Y90127D01*
X158805Y90147D01*
X158736Y90203D01*
X158672Y90264D01*
X158650Y90273D01*
X158631Y90288D01*
X158547Y90317D01*
X158465Y90352D01*
X158441Y90353D01*
X158419Y90360D01*
X158330Y90358D01*
X158241Y90362D01*
X158218Y90354D01*
X158194Y90354D01*
X158112Y90320D01*
X158027Y90293D01*
X158006Y90277D01*
X157987Y90269D01*
X157949Y90235D01*
X157877Y90181D01*
X38727Y-28969D01*
X38702Y-29003D01*
X38671Y-29032D01*
X38639Y-29095D01*
X38598Y-29153D01*
X38588Y-29194D01*
X38568Y-29232D01*
X38555Y-29321D01*
X38542Y-29370D01*
X38545Y-29391D01*
X38541Y-29417D01*
X38541Y-31467D01*
X36467Y-33541D01*
X34175Y-33541D01*
X34110Y-33552D01*
X34044Y-33554D01*
X34001Y-33572D01*
X33954Y-33580D01*
X33897Y-33614D01*
X33837Y-33639D01*
X33802Y-33670D01*
X33761Y-33695D01*
X33719Y-33746D01*
X33671Y-33790D01*
X33649Y-33832D01*
X33620Y-33869D01*
X33599Y-33931D01*
X33568Y-33990D01*
X33560Y-34044D01*
X33548Y-34081D01*
X33549Y-34121D01*
X33541Y-34175D01*
X33541Y-36467D01*
X31467Y-38541D01*
X28533Y-38541D01*
G37*
%LPD*%
%LPC*%
G36*
X-377586Y201999D02*
X-377586Y201999D01*
X-382364Y203979D01*
X-386021Y207636D01*
X-388001Y212414D01*
X-388001Y217586D01*
X-386021Y222364D01*
X-382364Y226021D01*
X-377586Y228001D01*
X-372414Y228001D01*
X-367636Y226021D01*
X-363979Y222364D01*
X-361999Y217586D01*
X-361999Y212414D01*
X-363979Y207636D01*
X-367636Y203979D01*
X-372414Y201999D01*
X-377586Y201999D01*
G37*
%LPD*%
%LPC*%
G36*
X372414Y201999D02*
X372414Y201999D01*
X367636Y203979D01*
X363979Y207636D01*
X361999Y212414D01*
X361999Y217586D01*
X363979Y222364D01*
X367636Y226021D01*
X372414Y228001D01*
X377586Y228001D01*
X382364Y226021D01*
X386021Y222364D01*
X388001Y217586D01*
X388001Y212414D01*
X386021Y207636D01*
X382364Y203979D01*
X377586Y201999D01*
X372414Y201999D01*
G37*
%LPD*%
%LPC*%
G36*
X-59586Y-263001D02*
X-59586Y-263001D01*
X-64364Y-261021D01*
X-68021Y-257364D01*
X-70001Y-252586D01*
X-70001Y-247414D01*
X-68021Y-242636D01*
X-64364Y-238979D01*
X-59586Y-236999D01*
X-54414Y-236999D01*
X-49636Y-238979D01*
X-45979Y-242636D01*
X-43999Y-247414D01*
X-43999Y-252586D01*
X-45979Y-257364D01*
X-49636Y-261021D01*
X-54414Y-263001D01*
X-59586Y-263001D01*
G37*
%LPD*%
%LPC*%
G36*
X54414Y-263001D02*
X54414Y-263001D01*
X49636Y-261021D01*
X45979Y-257364D01*
X43999Y-252586D01*
X43999Y-247414D01*
X45979Y-242636D01*
X49636Y-238979D01*
X54414Y-236999D01*
X59586Y-236999D01*
X64364Y-238979D01*
X68021Y-242636D01*
X70001Y-247414D01*
X70001Y-252586D01*
X68021Y-257364D01*
X64364Y-261021D01*
X59586Y-263001D01*
X54414Y-263001D01*
G37*
%LPD*%
%LPC*%
G36*
X-377586Y-108001D02*
X-377586Y-108001D01*
X-382364Y-106021D01*
X-386021Y-102364D01*
X-388001Y-97586D01*
X-388001Y-92414D01*
X-386021Y-87636D01*
X-382364Y-83979D01*
X-377586Y-81999D01*
X-372414Y-81999D01*
X-367636Y-83979D01*
X-363979Y-87636D01*
X-361999Y-92414D01*
X-361999Y-97586D01*
X-363979Y-102364D01*
X-367636Y-106021D01*
X-372414Y-108001D01*
X-377586Y-108001D01*
G37*
%LPD*%
%LPC*%
G36*
X372414Y-108001D02*
X372414Y-108001D01*
X367636Y-106021D01*
X363979Y-102364D01*
X361999Y-97586D01*
X361999Y-92414D01*
X363979Y-87636D01*
X367636Y-83979D01*
X372414Y-81999D01*
X377586Y-81999D01*
X382364Y-83979D01*
X386021Y-87636D01*
X388001Y-92414D01*
X388001Y-97586D01*
X386021Y-102364D01*
X382364Y-106021D01*
X377586Y-108001D01*
X372414Y-108001D01*
G37*
%LPD*%
%LPC*%
G36*
X-27192Y-191021D02*
X-27192Y-191021D01*
X-31243Y-189343D01*
X-34343Y-186243D01*
X-36021Y-182192D01*
X-36021Y-177808D01*
X-34343Y-173757D01*
X-31243Y-170657D01*
X-27192Y-168979D01*
X-22808Y-168979D01*
X-18757Y-170657D01*
X-15657Y-173757D01*
X-13979Y-177808D01*
X-13979Y-182192D01*
X-15657Y-186243D01*
X-18757Y-189343D01*
X-22808Y-191021D01*
X-27192Y-191021D01*
G37*
%LPD*%
%LPC*%
G36*
X22808Y-336021D02*
X22808Y-336021D01*
X18757Y-334343D01*
X15657Y-331243D01*
X13979Y-327192D01*
X13979Y-322808D01*
X15657Y-318757D01*
X18757Y-315657D01*
X22808Y-313979D01*
X27192Y-313979D01*
X31243Y-315657D01*
X34343Y-318757D01*
X36021Y-322808D01*
X36021Y-327192D01*
X34343Y-331243D01*
X31243Y-334343D01*
X27192Y-336021D01*
X22808Y-336021D01*
G37*
%LPD*%
%LPC*%
G36*
X-27192Y-336021D02*
X-27192Y-336021D01*
X-31243Y-334343D01*
X-34343Y-331243D01*
X-36021Y-327192D01*
X-36021Y-322808D01*
X-34343Y-318757D01*
X-31243Y-315657D01*
X-27192Y-313979D01*
X-22808Y-313979D01*
X-18757Y-315657D01*
X-15657Y-318757D01*
X-13979Y-322808D01*
X-13979Y-327192D01*
X-15657Y-331243D01*
X-18757Y-334343D01*
X-22808Y-336021D01*
X-27192Y-336021D01*
G37*
%LPD*%
%LPC*%
G36*
X-236777Y48519D02*
X-236777Y48519D01*
X-239291Y51033D01*
X-239291Y54587D01*
X-236777Y57101D01*
X-234565Y57101D01*
X-234523Y57108D01*
X-234481Y57106D01*
X-234414Y57128D01*
X-234344Y57140D01*
X-234308Y57162D01*
X-234267Y57175D01*
X-234195Y57229D01*
X-234151Y57255D01*
X-234138Y57271D01*
X-234117Y57287D01*
X-214862Y76541D01*
X-199580Y76541D01*
X-199538Y76548D01*
X-199496Y76546D01*
X-199429Y76568D01*
X-199359Y76580D01*
X-199323Y76602D01*
X-199282Y76615D01*
X-199209Y76669D01*
X-199166Y76695D01*
X-199153Y76711D01*
X-199132Y76727D01*
X-197567Y78291D01*
X-194013Y78291D01*
X-191499Y75777D01*
X-191499Y72223D01*
X-194013Y69709D01*
X-197567Y69709D01*
X-199132Y71273D01*
X-199166Y71298D01*
X-199195Y71329D01*
X-199258Y71361D01*
X-199316Y71402D01*
X-199357Y71412D01*
X-199395Y71432D01*
X-199484Y71445D01*
X-199533Y71458D01*
X-199554Y71455D01*
X-199580Y71459D01*
X-212495Y71459D01*
X-212537Y71452D01*
X-212579Y71454D01*
X-212646Y71432D01*
X-212716Y71420D01*
X-212752Y71398D01*
X-212793Y71385D01*
X-212865Y71331D01*
X-212909Y71305D01*
X-212922Y71289D01*
X-212943Y71273D01*
X-230523Y53693D01*
X-230548Y53659D01*
X-230579Y53630D01*
X-230611Y53567D01*
X-230652Y53509D01*
X-230662Y53468D01*
X-230682Y53430D01*
X-230695Y53341D01*
X-230708Y53292D01*
X-230705Y53271D01*
X-230709Y53245D01*
X-230709Y51033D01*
X-233223Y48519D01*
X-236777Y48519D01*
G37*
%LPD*%
%LPC*%
G36*
X-184594Y100479D02*
X-184594Y100479D01*
X-188093Y101929D01*
X-190771Y104607D01*
X-192221Y108106D01*
X-192221Y111894D01*
X-190771Y115393D01*
X-188093Y118071D01*
X-184594Y119521D01*
X-180806Y119521D01*
X-177307Y118071D01*
X-174629Y115393D01*
X-173179Y111894D01*
X-173179Y108106D01*
X-174629Y104607D01*
X-177307Y101929D01*
X-180806Y100479D01*
X-184594Y100479D01*
G37*
%LPD*%
%LPC*%
G36*
X-21745Y-148771D02*
X-21745Y-148771D01*
X-24968Y-147435D01*
X-27435Y-144968D01*
X-28771Y-141745D01*
X-28771Y-138255D01*
X-27435Y-135032D01*
X-24968Y-132565D01*
X-21745Y-131229D01*
X-18255Y-131229D01*
X-15032Y-132565D01*
X-12565Y-135032D01*
X-11229Y-138255D01*
X-11229Y-141745D01*
X-12565Y-144968D01*
X-15032Y-147435D01*
X-18255Y-148771D01*
X-21745Y-148771D01*
G37*
%LPD*%
%LPC*%
G36*
X-61745Y-148771D02*
X-61745Y-148771D01*
X-64968Y-147435D01*
X-67435Y-144968D01*
X-68771Y-141745D01*
X-68771Y-138255D01*
X-67435Y-135032D01*
X-64968Y-132565D01*
X-61745Y-131229D01*
X-58255Y-131229D01*
X-55032Y-132565D01*
X-52565Y-135032D01*
X-51229Y-138255D01*
X-51229Y-141745D01*
X-52565Y-144968D01*
X-55032Y-147435D01*
X-58255Y-148771D01*
X-61745Y-148771D01*
G37*
%LPD*%
%LPC*%
G36*
X58255Y-148771D02*
X58255Y-148771D01*
X55032Y-147435D01*
X52565Y-144968D01*
X51229Y-141745D01*
X51229Y-138255D01*
X52565Y-135032D01*
X55032Y-132565D01*
X58255Y-131229D01*
X61745Y-131229D01*
X64968Y-132565D01*
X67435Y-135032D01*
X68771Y-138255D01*
X68771Y-141745D01*
X67435Y-144968D01*
X64968Y-147435D01*
X61745Y-148771D01*
X58255Y-148771D01*
G37*
%LPD*%
%LPC*%
G36*
X-401595Y161479D02*
X-401595Y161479D01*
X-404543Y162700D01*
X-406800Y164957D01*
X-408021Y167905D01*
X-408021Y171095D01*
X-406800Y174043D01*
X-404543Y176300D01*
X-401595Y177521D01*
X-398405Y177521D01*
X-395457Y176300D01*
X-393200Y174043D01*
X-391979Y171095D01*
X-391979Y167905D01*
X-393200Y164957D01*
X-395457Y162700D01*
X-398405Y161479D01*
X-401595Y161479D01*
G37*
%LPD*%
%LPC*%
G36*
X398405Y-58021D02*
X398405Y-58021D01*
X395457Y-56800D01*
X393200Y-54543D01*
X391979Y-51595D01*
X391979Y-48405D01*
X393200Y-45457D01*
X395457Y-43200D01*
X398405Y-41979D01*
X401595Y-41979D01*
X404543Y-43200D01*
X406800Y-45457D01*
X408021Y-48405D01*
X408021Y-51595D01*
X406800Y-54543D01*
X404543Y-56800D01*
X401595Y-58021D01*
X398405Y-58021D01*
G37*
%LPD*%
%LPC*%
G36*
X398405Y161979D02*
X398405Y161979D01*
X395457Y163200D01*
X393200Y165457D01*
X391979Y168405D01*
X391979Y171595D01*
X393200Y174543D01*
X395457Y176800D01*
X398405Y178021D01*
X401595Y178021D01*
X404543Y176800D01*
X406800Y174543D01*
X408021Y171595D01*
X408021Y168405D01*
X406800Y165457D01*
X404543Y163200D01*
X401595Y161979D01*
X398405Y161979D01*
G37*
%LPD*%
%LPC*%
G36*
X398405Y-38021D02*
X398405Y-38021D01*
X395457Y-36800D01*
X393200Y-34543D01*
X391979Y-31595D01*
X391979Y-28405D01*
X393200Y-25457D01*
X395457Y-23200D01*
X398405Y-21979D01*
X401595Y-21979D01*
X404543Y-23200D01*
X406800Y-25457D01*
X408021Y-28405D01*
X408021Y-31595D01*
X406800Y-34543D01*
X404543Y-36800D01*
X401595Y-38021D01*
X398405Y-38021D01*
G37*
%LPD*%
%LPC*%
G36*
X398405Y141979D02*
X398405Y141979D01*
X395457Y143200D01*
X393200Y145457D01*
X391979Y148405D01*
X391979Y151595D01*
X393200Y154543D01*
X395457Y156800D01*
X398405Y158021D01*
X401595Y158021D01*
X404543Y156800D01*
X406800Y154543D01*
X408021Y151595D01*
X408021Y148405D01*
X406800Y145457D01*
X404543Y143200D01*
X401595Y141979D01*
X398405Y141979D01*
G37*
%LPD*%
%LPC*%
G36*
X-401595Y141479D02*
X-401595Y141479D01*
X-404543Y142700D01*
X-406800Y144957D01*
X-408021Y147905D01*
X-408021Y151095D01*
X-406800Y154043D01*
X-404543Y156300D01*
X-401595Y157521D01*
X-398405Y157521D01*
X-395457Y156300D01*
X-393200Y154043D01*
X-391979Y151095D01*
X-391979Y147905D01*
X-393200Y144957D01*
X-395457Y142700D01*
X-398405Y141479D01*
X-401595Y141479D01*
G37*
%LPD*%
%LPC*%
G36*
X-401595Y-38521D02*
X-401595Y-38521D01*
X-404543Y-37300D01*
X-406800Y-35043D01*
X-408021Y-32095D01*
X-408021Y-28905D01*
X-406800Y-25957D01*
X-404543Y-23700D01*
X-401595Y-22479D01*
X-398405Y-22479D01*
X-395457Y-23700D01*
X-393200Y-25957D01*
X-391979Y-28905D01*
X-391979Y-32095D01*
X-393200Y-35043D01*
X-395457Y-37300D01*
X-398405Y-38521D01*
X-401595Y-38521D01*
G37*
%LPD*%
%LPC*%
G36*
X-401595Y-18521D02*
X-401595Y-18521D01*
X-404543Y-17300D01*
X-406800Y-15043D01*
X-408021Y-12095D01*
X-408021Y-8905D01*
X-406800Y-5957D01*
X-404543Y-3700D01*
X-401595Y-2479D01*
X-398405Y-2479D01*
X-395457Y-3700D01*
X-393200Y-5957D01*
X-391979Y-8905D01*
X-391979Y-12095D01*
X-393200Y-15043D01*
X-395457Y-17300D01*
X-398405Y-18521D01*
X-401595Y-18521D01*
G37*
%LPD*%
%LPC*%
G36*
X-401595Y1479D02*
X-401595Y1479D01*
X-404543Y2700D01*
X-406800Y4957D01*
X-408021Y7905D01*
X-408021Y11095D01*
X-406800Y14043D01*
X-404543Y16300D01*
X-401595Y17521D01*
X-398405Y17521D01*
X-395457Y16300D01*
X-393200Y14043D01*
X-391979Y11095D01*
X-391979Y7905D01*
X-393200Y4957D01*
X-395457Y2700D01*
X-398405Y1479D01*
X-401595Y1479D01*
G37*
%LPD*%
%LPC*%
G36*
X398405Y1979D02*
X398405Y1979D01*
X395457Y3200D01*
X393200Y5457D01*
X391979Y8405D01*
X391979Y11595D01*
X393200Y14543D01*
X395457Y16800D01*
X398405Y18021D01*
X401595Y18021D01*
X404543Y16800D01*
X406800Y14543D01*
X408021Y11595D01*
X408021Y8405D01*
X406800Y5457D01*
X404543Y3200D01*
X401595Y1979D01*
X398405Y1979D01*
G37*
%LPD*%
%LPC*%
G36*
X398405Y101979D02*
X398405Y101979D01*
X395457Y103200D01*
X393200Y105457D01*
X391979Y108405D01*
X391979Y111595D01*
X393200Y114543D01*
X395457Y116800D01*
X398405Y118021D01*
X401595Y118021D01*
X404543Y116800D01*
X406800Y114543D01*
X408021Y111595D01*
X408021Y108405D01*
X406800Y105457D01*
X404543Y103200D01*
X401595Y101979D01*
X398405Y101979D01*
G37*
%LPD*%
%LPC*%
G36*
X-401595Y21479D02*
X-401595Y21479D01*
X-404543Y22700D01*
X-406800Y24957D01*
X-408021Y27905D01*
X-408021Y31095D01*
X-406800Y34043D01*
X-404543Y36300D01*
X-401595Y37521D01*
X-398405Y37521D01*
X-395457Y36300D01*
X-393200Y34043D01*
X-391979Y31095D01*
X-391979Y27905D01*
X-393200Y24957D01*
X-395457Y22700D01*
X-398405Y21479D01*
X-401595Y21479D01*
G37*
%LPD*%
%LPC*%
G36*
X398405Y21979D02*
X398405Y21979D01*
X395457Y23200D01*
X393200Y25457D01*
X391979Y28405D01*
X391979Y31595D01*
X393200Y34543D01*
X395457Y36800D01*
X398405Y38021D01*
X401595Y38021D01*
X404543Y36800D01*
X406800Y34543D01*
X408021Y31595D01*
X408021Y28405D01*
X406800Y25457D01*
X404543Y23200D01*
X401595Y21979D01*
X398405Y21979D01*
G37*
%LPD*%
%LPC*%
G36*
X-401595Y41479D02*
X-401595Y41479D01*
X-404543Y42700D01*
X-406800Y44957D01*
X-408021Y47905D01*
X-408021Y51095D01*
X-406800Y54043D01*
X-404543Y56300D01*
X-401595Y57521D01*
X-398405Y57521D01*
X-395457Y56300D01*
X-393200Y54043D01*
X-391979Y51095D01*
X-391979Y47905D01*
X-393200Y44957D01*
X-395457Y42700D01*
X-398405Y41479D01*
X-401595Y41479D01*
G37*
%LPD*%
%LPC*%
G36*
X398405Y61979D02*
X398405Y61979D01*
X395457Y63200D01*
X393200Y65457D01*
X391979Y68405D01*
X391979Y71595D01*
X393200Y74543D01*
X395457Y76800D01*
X398405Y78021D01*
X401595Y78021D01*
X404543Y76800D01*
X406800Y74543D01*
X408021Y71595D01*
X408021Y68405D01*
X406800Y65457D01*
X404543Y63200D01*
X401595Y61979D01*
X398405Y61979D01*
G37*
%LPD*%
%LPC*%
G36*
X-401595Y-58521D02*
X-401595Y-58521D01*
X-404543Y-57300D01*
X-406800Y-55043D01*
X-408021Y-52095D01*
X-408021Y-48905D01*
X-406800Y-45957D01*
X-404543Y-43700D01*
X-401595Y-42479D01*
X-398405Y-42479D01*
X-395457Y-43700D01*
X-393200Y-45957D01*
X-391979Y-48905D01*
X-391979Y-52095D01*
X-393200Y-55043D01*
X-395457Y-57300D01*
X-398405Y-58521D01*
X-401595Y-58521D01*
G37*
%LPD*%
%LPC*%
G36*
X-401595Y81479D02*
X-401595Y81479D01*
X-404543Y82700D01*
X-406800Y84957D01*
X-408021Y87905D01*
X-408021Y91095D01*
X-406800Y94043D01*
X-404543Y96300D01*
X-401595Y97521D01*
X-398405Y97521D01*
X-395457Y96300D01*
X-393200Y94043D01*
X-391979Y91095D01*
X-391979Y87905D01*
X-393200Y84957D01*
X-395457Y82700D01*
X-398405Y81479D01*
X-401595Y81479D01*
G37*
%LPD*%
%LPC*%
G36*
X398405Y121979D02*
X398405Y121979D01*
X395457Y123200D01*
X393200Y125457D01*
X391979Y128405D01*
X391979Y131595D01*
X393200Y134543D01*
X395457Y136800D01*
X398405Y138021D01*
X401595Y138021D01*
X404543Y136800D01*
X406800Y134543D01*
X408021Y131595D01*
X408021Y128405D01*
X406800Y125457D01*
X404543Y123200D01*
X401595Y121979D01*
X398405Y121979D01*
G37*
%LPD*%
%LPC*%
G36*
X398405Y81979D02*
X398405Y81979D01*
X395457Y83200D01*
X393200Y85457D01*
X391979Y88405D01*
X391979Y91595D01*
X393200Y94543D01*
X395457Y96800D01*
X398405Y98021D01*
X401595Y98021D01*
X404543Y96800D01*
X406800Y94543D01*
X408021Y91595D01*
X408021Y88405D01*
X406800Y85457D01*
X404543Y83200D01*
X401595Y81979D01*
X398405Y81979D01*
G37*
%LPD*%
%LPC*%
G36*
X-401595Y101479D02*
X-401595Y101479D01*
X-404543Y102700D01*
X-406800Y104957D01*
X-408021Y107905D01*
X-408021Y111095D01*
X-406800Y114043D01*
X-404543Y116300D01*
X-401595Y117521D01*
X-398405Y117521D01*
X-395457Y116300D01*
X-393200Y114043D01*
X-391979Y111095D01*
X-391979Y107905D01*
X-393200Y104957D01*
X-395457Y102700D01*
X-398405Y101479D01*
X-401595Y101479D01*
G37*
%LPD*%
%LPC*%
G36*
X366033Y138959D02*
X366033Y138959D01*
X363959Y141033D01*
X363959Y143325D01*
X363948Y143390D01*
X363946Y143456D01*
X363928Y143499D01*
X363920Y143546D01*
X363886Y143603D01*
X363861Y143663D01*
X363830Y143698D01*
X363805Y143739D01*
X363754Y143781D01*
X363710Y143829D01*
X363668Y143851D01*
X363631Y143880D01*
X363569Y143901D01*
X363510Y143932D01*
X363456Y143940D01*
X363419Y143952D01*
X363379Y143951D01*
X363325Y143959D01*
X361033Y143959D01*
X358959Y146033D01*
X358959Y148967D01*
X361033Y151041D01*
X363325Y151041D01*
X363390Y151052D01*
X363456Y151054D01*
X363499Y151072D01*
X363546Y151080D01*
X363603Y151114D01*
X363663Y151139D01*
X363698Y151170D01*
X363739Y151195D01*
X363781Y151246D01*
X363829Y151290D01*
X363851Y151332D01*
X363880Y151369D01*
X363901Y151431D01*
X363932Y151490D01*
X363940Y151544D01*
X363952Y151581D01*
X363951Y151621D01*
X363959Y151675D01*
X363959Y153967D01*
X366033Y156041D01*
X368967Y156041D01*
X371041Y153967D01*
X371041Y151033D01*
X368967Y148959D01*
X366675Y148959D01*
X366610Y148948D01*
X366544Y148946D01*
X366501Y148928D01*
X366454Y148920D01*
X366397Y148886D01*
X366337Y148861D01*
X366302Y148830D01*
X366261Y148805D01*
X366219Y148754D01*
X366171Y148710D01*
X366149Y148668D01*
X366120Y148631D01*
X366099Y148569D01*
X366068Y148510D01*
X366060Y148456D01*
X366048Y148419D01*
X366049Y148379D01*
X366041Y148325D01*
X366041Y146675D01*
X366052Y146610D01*
X366054Y146544D01*
X366072Y146501D01*
X366080Y146454D01*
X366114Y146397D01*
X366139Y146337D01*
X366170Y146302D01*
X366195Y146261D01*
X366246Y146219D01*
X366290Y146171D01*
X366332Y146149D01*
X366369Y146120D01*
X366431Y146099D01*
X366490Y146068D01*
X366544Y146060D01*
X366581Y146048D01*
X366621Y146049D01*
X366675Y146041D01*
X368967Y146041D01*
X371041Y143967D01*
X371041Y141033D01*
X368967Y138959D01*
X366033Y138959D01*
G37*
%LPD*%
%LPC*%
G36*
X-306467Y18959D02*
X-306467Y18959D01*
X-308541Y21033D01*
X-308541Y23967D01*
X-307092Y25416D01*
X-307067Y25451D01*
X-307036Y25479D01*
X-307004Y25542D01*
X-306963Y25600D01*
X-306953Y25641D01*
X-306933Y25679D01*
X-306920Y25769D01*
X-306907Y25817D01*
X-306910Y25838D01*
X-306906Y25864D01*
X-306906Y29136D01*
X-306913Y29177D01*
X-306911Y29220D01*
X-306933Y29287D01*
X-306945Y29356D01*
X-306967Y29393D01*
X-306980Y29433D01*
X-307034Y29506D01*
X-307060Y29550D01*
X-307076Y29563D01*
X-307092Y29584D01*
X-308541Y31033D01*
X-308541Y33967D01*
X-306467Y36041D01*
X-303533Y36041D01*
X-301459Y33967D01*
X-301459Y31033D01*
X-302908Y29584D01*
X-302933Y29549D01*
X-302964Y29521D01*
X-302996Y29458D01*
X-303037Y29400D01*
X-303047Y29359D01*
X-303067Y29321D01*
X-303080Y29231D01*
X-303093Y29183D01*
X-303090Y29162D01*
X-303094Y29136D01*
X-303094Y25864D01*
X-303087Y25823D01*
X-303089Y25780D01*
X-303067Y25713D01*
X-303055Y25644D01*
X-303033Y25607D01*
X-303020Y25567D01*
X-302966Y25494D01*
X-302940Y25450D01*
X-302924Y25437D01*
X-302908Y25416D01*
X-301459Y23967D01*
X-301459Y21033D01*
X-303533Y18959D01*
X-306467Y18959D01*
G37*
%LPD*%
%LPC*%
G36*
X-2878Y-336988D02*
X-2878Y-336988D01*
X-4718Y-336390D01*
X-6442Y-335512D01*
X-8007Y-334375D01*
X-9375Y-333007D01*
X-10512Y-331442D01*
X-11390Y-329718D01*
X-11988Y-327878D01*
X-12243Y-326269D01*
X-1269Y-326269D01*
X-1269Y-337243D01*
X-2878Y-336988D01*
G37*
%LPD*%
%LPC*%
G36*
X26269Y-181269D02*
X26269Y-181269D01*
X37243Y-181269D01*
X36988Y-182878D01*
X36390Y-184718D01*
X35512Y-186442D01*
X34375Y-188007D01*
X33007Y-189375D01*
X31442Y-190512D01*
X29718Y-191390D01*
X27878Y-191988D01*
X26269Y-192243D01*
X26269Y-181269D01*
G37*
%LPD*%
%LPC*%
G36*
X1269Y-326269D02*
X1269Y-326269D01*
X12243Y-326269D01*
X11988Y-327878D01*
X11390Y-329718D01*
X10512Y-331442D01*
X9375Y-333007D01*
X8007Y-334375D01*
X6442Y-335512D01*
X4718Y-336390D01*
X2878Y-336988D01*
X1269Y-337243D01*
X1269Y-326269D01*
G37*
%LPD*%
%LPC*%
G36*
X26269Y-178731D02*
X26269Y-178731D01*
X26269Y-167757D01*
X27878Y-168012D01*
X29718Y-168610D01*
X31442Y-169488D01*
X33007Y-170625D01*
X34375Y-171993D01*
X35512Y-173558D01*
X36390Y-175282D01*
X36988Y-177122D01*
X37243Y-178731D01*
X26269Y-178731D01*
G37*
%LPD*%
%LPC*%
G36*
X22122Y-191988D02*
X22122Y-191988D01*
X20282Y-191390D01*
X18558Y-190512D01*
X16993Y-189375D01*
X15625Y-188007D01*
X14488Y-186442D01*
X13610Y-184718D01*
X13012Y-182878D01*
X12757Y-181269D01*
X23731Y-181269D01*
X23731Y-192243D01*
X22122Y-191988D01*
G37*
%LPD*%
%LPC*%
G36*
X-12243Y-323731D02*
X-12243Y-323731D01*
X-11988Y-322122D01*
X-11390Y-320282D01*
X-10512Y-318558D01*
X-9375Y-316993D01*
X-8007Y-315625D01*
X-6442Y-314488D01*
X-4718Y-313610D01*
X-2878Y-313012D01*
X-1269Y-312757D01*
X-1269Y-323731D01*
X-12243Y-323731D01*
G37*
%LPD*%
%LPC*%
G36*
X1269Y-323731D02*
X1269Y-323731D01*
X1269Y-312757D01*
X2878Y-313012D01*
X4718Y-313610D01*
X6442Y-314488D01*
X8007Y-315625D01*
X9375Y-316993D01*
X10512Y-318558D01*
X11390Y-320282D01*
X11988Y-322122D01*
X12243Y-323731D01*
X1269Y-323731D01*
G37*
%LPD*%
%LPC*%
G36*
X12757Y-178731D02*
X12757Y-178731D01*
X13012Y-177122D01*
X13610Y-175282D01*
X14488Y-173558D01*
X15625Y-171993D01*
X16993Y-170625D01*
X18558Y-169488D01*
X20282Y-168610D01*
X22122Y-168012D01*
X23731Y-167757D01*
X23731Y-178731D01*
X12757Y-178731D01*
G37*
%LPD*%
%LPC*%
G36*
X-188967Y178959D02*
X-188967Y178959D01*
X-191041Y181033D01*
X-191041Y183967D01*
X-189206Y185802D01*
X-189168Y185856D01*
X-189123Y185903D01*
X-189105Y185947D01*
X-189078Y185986D01*
X-189061Y186049D01*
X-189036Y186110D01*
X-189034Y186157D01*
X-189022Y186203D01*
X-189029Y186268D01*
X-189026Y186334D01*
X-189040Y186379D01*
X-189045Y186426D01*
X-189074Y186485D01*
X-189094Y186548D01*
X-189127Y186592D01*
X-189144Y186627D01*
X-189173Y186654D01*
X-189206Y186699D01*
X-191041Y188533D01*
X-191041Y191467D01*
X-188967Y193541D01*
X-186033Y193541D01*
X-183959Y191467D01*
X-183959Y188533D01*
X-185794Y186699D01*
X-185832Y186644D01*
X-185877Y186597D01*
X-185895Y186553D01*
X-185922Y186514D01*
X-185939Y186451D01*
X-185964Y186390D01*
X-185966Y186343D01*
X-185978Y186297D01*
X-185971Y186232D01*
X-185974Y186166D01*
X-185960Y186121D01*
X-185955Y186074D01*
X-185926Y186015D01*
X-185906Y185952D01*
X-185873Y185908D01*
X-185856Y185873D01*
X-185827Y185846D01*
X-185794Y185802D01*
X-183959Y183967D01*
X-183959Y181033D01*
X-186033Y178959D01*
X-188967Y178959D01*
G37*
%LPD*%
%LPC*%
G36*
X326033Y181459D02*
X326033Y181459D01*
X323959Y183533D01*
X323959Y186467D01*
X326033Y188541D01*
X328967Y188541D01*
X330802Y186706D01*
X330856Y186668D01*
X330903Y186623D01*
X330947Y186605D01*
X330986Y186578D01*
X331049Y186561D01*
X331110Y186536D01*
X331157Y186534D01*
X331203Y186522D01*
X331268Y186529D01*
X331334Y186526D01*
X331379Y186540D01*
X331426Y186545D01*
X331485Y186574D01*
X331548Y186594D01*
X331592Y186627D01*
X331627Y186644D01*
X331654Y186673D01*
X331699Y186706D01*
X333533Y188541D01*
X336467Y188541D01*
X338541Y186467D01*
X338541Y183533D01*
X336467Y181459D01*
X333533Y181459D01*
X331699Y183294D01*
X331644Y183332D01*
X331597Y183377D01*
X331553Y183395D01*
X331514Y183422D01*
X331451Y183439D01*
X331390Y183464D01*
X331343Y183466D01*
X331297Y183478D01*
X331232Y183471D01*
X331166Y183474D01*
X331121Y183460D01*
X331074Y183455D01*
X331015Y183426D01*
X330952Y183406D01*
X330908Y183373D01*
X330873Y183356D01*
X330846Y183327D01*
X330802Y183294D01*
X328967Y181459D01*
X326033Y181459D01*
G37*
%LPD*%
%LPC*%
G36*
X231033Y48959D02*
X231033Y48959D01*
X228959Y51033D01*
X228959Y53967D01*
X231033Y56041D01*
X233967Y56041D01*
X235802Y54206D01*
X235856Y54168D01*
X235903Y54123D01*
X235947Y54105D01*
X235986Y54078D01*
X236049Y54061D01*
X236110Y54036D01*
X236157Y54034D01*
X236203Y54022D01*
X236268Y54029D01*
X236334Y54026D01*
X236379Y54040D01*
X236426Y54045D01*
X236485Y54074D01*
X236548Y54094D01*
X236592Y54127D01*
X236627Y54144D01*
X236654Y54173D01*
X236699Y54206D01*
X238533Y56041D01*
X241467Y56041D01*
X243541Y53967D01*
X243541Y51033D01*
X241467Y48959D01*
X238533Y48959D01*
X236699Y50794D01*
X236644Y50832D01*
X236597Y50877D01*
X236553Y50895D01*
X236514Y50922D01*
X236451Y50939D01*
X236390Y50964D01*
X236343Y50966D01*
X236297Y50978D01*
X236232Y50971D01*
X236166Y50974D01*
X236121Y50960D01*
X236074Y50955D01*
X236015Y50926D01*
X235952Y50906D01*
X235908Y50873D01*
X235873Y50856D01*
X235846Y50827D01*
X235802Y50794D01*
X233967Y48959D01*
X231033Y48959D01*
G37*
%LPD*%
%LPC*%
G36*
X-56467Y83959D02*
X-56467Y83959D01*
X-58541Y86033D01*
X-58541Y88967D01*
X-56467Y91041D01*
X-53533Y91041D01*
X-51698Y89206D01*
X-51644Y89168D01*
X-51597Y89123D01*
X-51553Y89105D01*
X-51514Y89078D01*
X-51451Y89061D01*
X-51390Y89036D01*
X-51343Y89034D01*
X-51297Y89022D01*
X-51232Y89029D01*
X-51166Y89026D01*
X-51121Y89040D01*
X-51074Y89045D01*
X-51015Y89074D01*
X-50952Y89094D01*
X-50908Y89127D01*
X-50873Y89144D01*
X-50846Y89173D01*
X-50801Y89206D01*
X-48967Y91041D01*
X-46033Y91041D01*
X-43959Y88967D01*
X-43959Y86033D01*
X-46033Y83959D01*
X-48967Y83959D01*
X-50801Y85794D01*
X-50856Y85832D01*
X-50903Y85877D01*
X-50947Y85895D01*
X-50986Y85922D01*
X-51049Y85939D01*
X-51110Y85964D01*
X-51157Y85966D01*
X-51203Y85978D01*
X-51268Y85971D01*
X-51334Y85974D01*
X-51379Y85960D01*
X-51426Y85955D01*
X-51485Y85926D01*
X-51548Y85906D01*
X-51592Y85873D01*
X-51627Y85856D01*
X-51654Y85827D01*
X-51698Y85794D01*
X-53533Y83959D01*
X-56467Y83959D01*
G37*
%LPD*%
%LPC*%
G36*
X418533Y181459D02*
X418533Y181459D01*
X416459Y183533D01*
X416459Y186467D01*
X418294Y188301D01*
X418332Y188356D01*
X418377Y188403D01*
X418389Y188431D01*
X418389Y188432D01*
X418390Y188435D01*
X418395Y188447D01*
X418422Y188486D01*
X418439Y188549D01*
X418464Y188610D01*
X418466Y188657D01*
X418478Y188703D01*
X418471Y188768D01*
X418474Y188834D01*
X418460Y188879D01*
X418455Y188926D01*
X418426Y188985D01*
X418406Y189048D01*
X418373Y189092D01*
X418356Y189127D01*
X418327Y189154D01*
X418294Y189198D01*
X416459Y191033D01*
X416459Y193967D01*
X418533Y196041D01*
X421467Y196041D01*
X423541Y193967D01*
X423541Y191033D01*
X421706Y189198D01*
X421668Y189144D01*
X421623Y189097D01*
X421605Y189053D01*
X421578Y189014D01*
X421561Y188951D01*
X421536Y188890D01*
X421534Y188843D01*
X421522Y188797D01*
X421529Y188732D01*
X421526Y188666D01*
X421540Y188621D01*
X421545Y188574D01*
X421574Y188515D01*
X421594Y188452D01*
X421626Y188410D01*
X421630Y188400D01*
X421633Y188397D01*
X421644Y188373D01*
X421673Y188346D01*
X421706Y188301D01*
X423541Y186467D01*
X423541Y183533D01*
X421467Y181459D01*
X418533Y181459D01*
G37*
%LPD*%
%LPC*%
G36*
X-226467Y-103541D02*
X-226467Y-103541D01*
X-228541Y-101467D01*
X-228541Y-99175D01*
X-228552Y-99110D01*
X-228554Y-99044D01*
X-228572Y-99001D01*
X-228580Y-98954D01*
X-228614Y-98897D01*
X-228639Y-98837D01*
X-228670Y-98802D01*
X-228695Y-98761D01*
X-228746Y-98719D01*
X-228790Y-98671D01*
X-228832Y-98649D01*
X-228869Y-98620D01*
X-228931Y-98599D01*
X-228990Y-98568D01*
X-229044Y-98560D01*
X-229081Y-98548D01*
X-229121Y-98549D01*
X-229175Y-98541D01*
X-231467Y-98541D01*
X-233541Y-96467D01*
X-233541Y-93533D01*
X-231467Y-91459D01*
X-228533Y-91459D01*
X-226459Y-93533D01*
X-226459Y-95825D01*
X-226448Y-95890D01*
X-226446Y-95956D01*
X-226428Y-95999D01*
X-226420Y-96046D01*
X-226386Y-96103D01*
X-226361Y-96163D01*
X-226330Y-96198D01*
X-226305Y-96239D01*
X-226254Y-96281D01*
X-226210Y-96329D01*
X-226168Y-96351D01*
X-226131Y-96380D01*
X-226069Y-96401D01*
X-226010Y-96432D01*
X-225956Y-96440D01*
X-225919Y-96452D01*
X-225879Y-96451D01*
X-225825Y-96459D01*
X-223533Y-96459D01*
X-221459Y-98533D01*
X-221459Y-101467D01*
X-223533Y-103541D01*
X-226467Y-103541D01*
G37*
%LPD*%
%LPC*%
G36*
X-323967Y-183541D02*
X-323967Y-183541D01*
X-326041Y-181467D01*
X-326041Y-178533D01*
X-323967Y-176459D01*
X-321675Y-176459D01*
X-321610Y-176448D01*
X-321544Y-176446D01*
X-321501Y-176428D01*
X-321454Y-176420D01*
X-321397Y-176386D01*
X-321337Y-176361D01*
X-321302Y-176330D01*
X-321261Y-176305D01*
X-321219Y-176254D01*
X-321171Y-176210D01*
X-321149Y-176168D01*
X-321120Y-176131D01*
X-321099Y-176069D01*
X-321068Y-176010D01*
X-321060Y-175956D01*
X-321048Y-175919D01*
X-321049Y-175879D01*
X-321041Y-175825D01*
X-321041Y-173533D01*
X-318967Y-171459D01*
X-316033Y-171459D01*
X-313959Y-173533D01*
X-313959Y-176467D01*
X-316033Y-178541D01*
X-318325Y-178541D01*
X-318390Y-178552D01*
X-318456Y-178554D01*
X-318499Y-178572D01*
X-318546Y-178580D01*
X-318603Y-178614D01*
X-318663Y-178639D01*
X-318698Y-178670D01*
X-318739Y-178695D01*
X-318781Y-178746D01*
X-318829Y-178790D01*
X-318851Y-178832D01*
X-318880Y-178869D01*
X-318901Y-178931D01*
X-318932Y-178990D01*
X-318940Y-179044D01*
X-318952Y-179081D01*
X-318951Y-179121D01*
X-318959Y-179175D01*
X-318959Y-181467D01*
X-321033Y-183541D01*
X-323967Y-183541D01*
G37*
%LPD*%
%LPC*%
G36*
X-168024Y111269D02*
X-168024Y111269D01*
X-167825Y112527D01*
X-167300Y114142D01*
X-166529Y115656D01*
X-165531Y117030D01*
X-164330Y118231D01*
X-162956Y119229D01*
X-161442Y120000D01*
X-159827Y120525D01*
X-158569Y120724D01*
X-158569Y111269D01*
X-168024Y111269D01*
G37*
%LPD*%
%LPC*%
G36*
X-159827Y99475D02*
X-159827Y99475D01*
X-161442Y100000D01*
X-162956Y100771D01*
X-164330Y101769D01*
X-165531Y102970D01*
X-166529Y104344D01*
X-167300Y105858D01*
X-167825Y107473D01*
X-168024Y108731D01*
X-158569Y108731D01*
X-158569Y99276D01*
X-159827Y99475D01*
G37*
%LPD*%
%LPC*%
G36*
X-156031Y111269D02*
X-156031Y111269D01*
X-156031Y120724D01*
X-154773Y120525D01*
X-153158Y120000D01*
X-151644Y119229D01*
X-150270Y118231D01*
X-149069Y117030D01*
X-148071Y115656D01*
X-147300Y114142D01*
X-146775Y112527D01*
X-146576Y111269D01*
X-156031Y111269D01*
G37*
%LPD*%
%LPC*%
G36*
X-156031Y108731D02*
X-156031Y108731D01*
X-146576Y108731D01*
X-146775Y107473D01*
X-147300Y105858D01*
X-148071Y104344D01*
X-149069Y102970D01*
X-150270Y101769D01*
X-151644Y100771D01*
X-153158Y100000D01*
X-154773Y99475D01*
X-156031Y99276D01*
X-156031Y108731D01*
G37*
%LPD*%
%LPC*%
G36*
X-197567Y141709D02*
X-197567Y141709D01*
X-200081Y144223D01*
X-200081Y147777D01*
X-197567Y150291D01*
X-194013Y150291D01*
X-191499Y147777D01*
X-191499Y144223D01*
X-194013Y141709D01*
X-197567Y141709D01*
G37*
%LPD*%
%LPC*%
G36*
X378223Y-133551D02*
X378223Y-133551D01*
X375709Y-131037D01*
X375709Y-127483D01*
X378223Y-124969D01*
X381777Y-124969D01*
X384291Y-127483D01*
X384291Y-131037D01*
X381777Y-133551D01*
X378223Y-133551D01*
G37*
%LPD*%
%LPC*%
G36*
X338223Y251049D02*
X338223Y251049D01*
X335709Y253563D01*
X335709Y257117D01*
X338223Y259631D01*
X341777Y259631D01*
X344291Y257117D01*
X344291Y253563D01*
X341777Y251049D01*
X338223Y251049D01*
G37*
%LPD*%
%LPC*%
G36*
X-260567Y-196791D02*
X-260567Y-196791D01*
X-263081Y-194277D01*
X-263081Y-190723D01*
X-260567Y-188209D01*
X-257013Y-188209D01*
X-254499Y-190723D01*
X-254499Y-194277D01*
X-257013Y-196791D01*
X-260567Y-196791D01*
G37*
%LPD*%
%LPC*%
G36*
X363933Y-229291D02*
X363933Y-229291D01*
X361419Y-226777D01*
X361419Y-223223D01*
X363933Y-220709D01*
X367487Y-220709D01*
X370001Y-223223D01*
X370001Y-226777D01*
X367487Y-229291D01*
X363933Y-229291D01*
G37*
%LPD*%
%LPC*%
G36*
X137823Y136149D02*
X137823Y136149D01*
X135309Y138663D01*
X135309Y142217D01*
X137823Y144731D01*
X141377Y144731D01*
X143891Y142217D01*
X143891Y138663D01*
X141377Y136149D01*
X137823Y136149D01*
G37*
%LPD*%
%LPC*%
G36*
X3223Y145369D02*
X3223Y145369D01*
X709Y147883D01*
X709Y151437D01*
X3223Y153951D01*
X6777Y153951D01*
X9291Y151437D01*
X9291Y147883D01*
X6777Y145369D01*
X3223Y145369D01*
G37*
%LPD*%
%LPC*%
G36*
X-11777Y5369D02*
X-11777Y5369D01*
X-14291Y7883D01*
X-14291Y11437D01*
X-11777Y13951D01*
X-8223Y13951D01*
X-5709Y11437D01*
X-5709Y7883D01*
X-8223Y5369D01*
X-11777Y5369D01*
G37*
%LPD*%
%LPC*%
G36*
X-401777Y-133551D02*
X-401777Y-133551D01*
X-404291Y-131037D01*
X-404291Y-127483D01*
X-401777Y-124969D01*
X-398223Y-124969D01*
X-395709Y-127483D01*
X-395709Y-131037D01*
X-398223Y-133551D01*
X-401777Y-133551D01*
G37*
%LPD*%
%LPC*%
G36*
X-161777Y-133551D02*
X-161777Y-133551D01*
X-164291Y-131037D01*
X-164291Y-127483D01*
X-161777Y-124969D01*
X-158223Y-124969D01*
X-155709Y-127483D01*
X-155709Y-131037D01*
X-158223Y-133551D01*
X-161777Y-133551D01*
G37*
%LPD*%
%LPC*%
G36*
X338223Y-133551D02*
X338223Y-133551D01*
X335709Y-131037D01*
X335709Y-127483D01*
X338223Y-124969D01*
X341777Y-124969D01*
X344291Y-127483D01*
X344291Y-131037D01*
X341777Y-133551D01*
X338223Y-133551D01*
G37*
%LPD*%
%LPC*%
G36*
X90973Y54843D02*
X90973Y54843D01*
X88459Y57356D01*
X88459Y60911D01*
X90973Y63424D01*
X94527Y63424D01*
X97041Y60911D01*
X97041Y57356D01*
X94527Y54843D01*
X90973Y54843D01*
G37*
%LPD*%
%LPC*%
G36*
X-74527Y47874D02*
X-74527Y47874D01*
X-77041Y50388D01*
X-77041Y53942D01*
X-74527Y56456D01*
X-70973Y56456D01*
X-68459Y53942D01*
X-68459Y50388D01*
X-70973Y47874D01*
X-74527Y47874D01*
G37*
%LPD*%
%LPC*%
G36*
X-274477Y217199D02*
X-274477Y217199D01*
X-276991Y219713D01*
X-276991Y223267D01*
X-274477Y225781D01*
X-270923Y225781D01*
X-268409Y223267D01*
X-268409Y219713D01*
X-270923Y217199D01*
X-274477Y217199D01*
G37*
%LPD*%
%LPC*%
G36*
X-11777Y145709D02*
X-11777Y145709D01*
X-14291Y148223D01*
X-14291Y151777D01*
X-11777Y154291D01*
X-8223Y154291D01*
X-5709Y151777D01*
X-5709Y148223D01*
X-8223Y145709D01*
X-11777Y145709D01*
G37*
%LPD*%
%LPC*%
G36*
X21269Y-141269D02*
X21269Y-141269D01*
X29965Y-141269D01*
X29794Y-142351D01*
X29305Y-143854D01*
X28588Y-145262D01*
X27659Y-146541D01*
X26541Y-147659D01*
X25262Y-148588D01*
X23854Y-149305D01*
X22351Y-149794D01*
X21269Y-149965D01*
X21269Y-141269D01*
G37*
%LPD*%
%LPC*%
G36*
X17649Y-149794D02*
X17649Y-149794D01*
X16146Y-149305D01*
X14738Y-148588D01*
X13459Y-147659D01*
X12341Y-146541D01*
X11412Y-145262D01*
X10695Y-143854D01*
X10206Y-142351D01*
X10035Y-141269D01*
X18731Y-141269D01*
X18731Y-149965D01*
X17649Y-149794D01*
G37*
%LPD*%
%LPC*%
G36*
X21269Y-138731D02*
X21269Y-138731D01*
X21269Y-130035D01*
X22351Y-130206D01*
X23854Y-130695D01*
X25262Y-131412D01*
X26541Y-132341D01*
X27659Y-133459D01*
X28588Y-134738D01*
X29305Y-136146D01*
X29794Y-137649D01*
X29965Y-138731D01*
X21269Y-138731D01*
G37*
%LPD*%
%LPC*%
G36*
X10035Y-138731D02*
X10035Y-138731D01*
X10206Y-137649D01*
X10695Y-136146D01*
X11412Y-134738D01*
X12341Y-133459D01*
X13459Y-132341D01*
X14738Y-131412D01*
X16146Y-130695D01*
X17649Y-130206D01*
X18731Y-130035D01*
X18731Y-138731D01*
X10035Y-138731D01*
G37*
%LPD*%
%LPC*%
G36*
X-409220Y70769D02*
X-409220Y70769D01*
X-408934Y72210D01*
X-408233Y73901D01*
X-407217Y75423D01*
X-405923Y76717D01*
X-404401Y77733D01*
X-402710Y78434D01*
X-401269Y78720D01*
X-401269Y70769D01*
X-409220Y70769D01*
G37*
%LPD*%
%LPC*%
G36*
X401269Y51269D02*
X401269Y51269D01*
X401269Y59220D01*
X402710Y58934D01*
X404401Y58233D01*
X405923Y57217D01*
X407217Y55923D01*
X408233Y54401D01*
X408934Y52710D01*
X409220Y51269D01*
X401269Y51269D01*
G37*
%LPD*%
%LPC*%
G36*
X-409220Y130769D02*
X-409220Y130769D01*
X-408934Y132210D01*
X-408233Y133901D01*
X-407217Y135423D01*
X-405923Y136717D01*
X-404401Y137733D01*
X-402710Y138434D01*
X-401269Y138720D01*
X-401269Y130769D01*
X-409220Y130769D01*
G37*
%LPD*%
%LPC*%
G36*
X401269Y-11269D02*
X401269Y-11269D01*
X409220Y-11269D01*
X408934Y-12710D01*
X408233Y-14401D01*
X407217Y-15923D01*
X405923Y-17217D01*
X404401Y-18233D01*
X402710Y-18934D01*
X401269Y-19220D01*
X401269Y-11269D01*
G37*
%LPD*%
%LPC*%
G36*
X-402710Y120566D02*
X-402710Y120566D01*
X-404401Y121267D01*
X-405923Y122283D01*
X-407217Y123577D01*
X-408233Y125099D01*
X-408934Y126790D01*
X-409220Y128231D01*
X-401269Y128231D01*
X-401269Y120280D01*
X-402710Y120566D01*
G37*
%LPD*%
%LPC*%
G36*
X397290Y-18934D02*
X397290Y-18934D01*
X395599Y-18233D01*
X394077Y-17217D01*
X392783Y-15923D01*
X391767Y-14401D01*
X391066Y-12710D01*
X390780Y-11269D01*
X398731Y-11269D01*
X398731Y-19220D01*
X397290Y-18934D01*
G37*
%LPD*%
%LPC*%
G36*
X401269Y-8731D02*
X401269Y-8731D01*
X401269Y-780D01*
X402710Y-1066D01*
X404401Y-1767D01*
X405923Y-2783D01*
X407217Y-4077D01*
X408233Y-5599D01*
X408934Y-7290D01*
X409220Y-8731D01*
X401269Y-8731D01*
G37*
%LPD*%
%LPC*%
G36*
X401269Y48731D02*
X401269Y48731D01*
X409220Y48731D01*
X408934Y47290D01*
X408233Y45599D01*
X407217Y44077D01*
X405923Y42783D01*
X404401Y41767D01*
X402710Y41066D01*
X401269Y40780D01*
X401269Y48731D01*
G37*
%LPD*%
%LPC*%
G36*
X-402710Y60566D02*
X-402710Y60566D01*
X-404401Y61267D01*
X-405923Y62283D01*
X-407217Y63577D01*
X-408233Y65099D01*
X-408934Y66790D01*
X-409220Y68231D01*
X-401269Y68231D01*
X-401269Y60280D01*
X-402710Y60566D01*
G37*
%LPD*%
%LPC*%
G36*
X-398731Y130769D02*
X-398731Y130769D01*
X-398731Y138720D01*
X-397290Y138434D01*
X-395599Y137733D01*
X-394077Y136717D01*
X-392783Y135423D01*
X-391767Y133901D01*
X-391066Y132210D01*
X-390780Y130769D01*
X-398731Y130769D01*
G37*
%LPD*%
%LPC*%
G36*
X-398731Y70769D02*
X-398731Y70769D01*
X-398731Y78720D01*
X-397290Y78434D01*
X-395599Y77733D01*
X-394077Y76717D01*
X-392783Y75423D01*
X-391767Y73901D01*
X-391066Y72210D01*
X-390780Y70769D01*
X-398731Y70769D01*
G37*
%LPD*%
%LPC*%
G36*
X390780Y51269D02*
X390780Y51269D01*
X391066Y52710D01*
X391767Y54401D01*
X392783Y55923D01*
X394077Y57217D01*
X395599Y58233D01*
X397290Y58934D01*
X398731Y59220D01*
X398731Y51269D01*
X390780Y51269D01*
G37*
%LPD*%
%LPC*%
G36*
X-398731Y68231D02*
X-398731Y68231D01*
X-390780Y68231D01*
X-391066Y66790D01*
X-391767Y65099D01*
X-392783Y63577D01*
X-394077Y62283D01*
X-395599Y61267D01*
X-397290Y60566D01*
X-398731Y60280D01*
X-398731Y68231D01*
G37*
%LPD*%
%LPC*%
G36*
X-398731Y128231D02*
X-398731Y128231D01*
X-390780Y128231D01*
X-391066Y126790D01*
X-391767Y125099D01*
X-392783Y123577D01*
X-394077Y122283D01*
X-395599Y121267D01*
X-397290Y120566D01*
X-398731Y120280D01*
X-398731Y128231D01*
G37*
%LPD*%
%LPC*%
G36*
X397290Y41066D02*
X397290Y41066D01*
X395599Y41767D01*
X394077Y42783D01*
X392783Y44077D01*
X391767Y45599D01*
X391066Y47290D01*
X390780Y48731D01*
X398731Y48731D01*
X398731Y40780D01*
X397290Y41066D01*
G37*
%LPD*%
%LPC*%
G36*
X390780Y-8731D02*
X390780Y-8731D01*
X391066Y-7290D01*
X391767Y-5599D01*
X392783Y-4077D01*
X394077Y-2783D01*
X395599Y-1767D01*
X397290Y-1066D01*
X398731Y-780D01*
X398731Y-8731D01*
X390780Y-8731D01*
G37*
%LPD*%
%LPC*%
G36*
X286027Y208943D02*
X286027Y208943D01*
X283943Y211027D01*
X283943Y213973D01*
X286027Y216057D01*
X288973Y216057D01*
X291057Y213973D01*
X291057Y211027D01*
X288973Y208943D01*
X286027Y208943D01*
G37*
%LPD*%
%LPC*%
G36*
X333527Y113943D02*
X333527Y113943D01*
X331443Y116027D01*
X331443Y118973D01*
X333527Y121057D01*
X336473Y121057D01*
X338557Y118973D01*
X338557Y116027D01*
X336473Y113943D01*
X333527Y113943D01*
G37*
%LPD*%
%LPC*%
G36*
X-146467Y21459D02*
X-146467Y21459D01*
X-148541Y23533D01*
X-148541Y26467D01*
X-146467Y28541D01*
X-143533Y28541D01*
X-141459Y26467D01*
X-141459Y23533D01*
X-143533Y21459D01*
X-146467Y21459D01*
G37*
%LPD*%
%LPC*%
G36*
X181033Y83959D02*
X181033Y83959D01*
X178959Y86033D01*
X178959Y88967D01*
X181033Y91041D01*
X183967Y91041D01*
X186041Y88967D01*
X186041Y86033D01*
X183967Y83959D01*
X181033Y83959D01*
G37*
%LPD*%
%LPC*%
G36*
X-81467Y28959D02*
X-81467Y28959D01*
X-83541Y31033D01*
X-83541Y33967D01*
X-81467Y36041D01*
X-78533Y36041D01*
X-76459Y33967D01*
X-76459Y31033D01*
X-78533Y28959D01*
X-81467Y28959D01*
G37*
%LPD*%
%LPC*%
G36*
X38533Y118959D02*
X38533Y118959D01*
X36459Y121033D01*
X36459Y123967D01*
X38533Y126041D01*
X41467Y126041D01*
X43541Y123967D01*
X43541Y121033D01*
X41467Y118959D01*
X38533Y118959D01*
G37*
%LPD*%
%LPC*%
G36*
X373533Y3959D02*
X373533Y3959D01*
X371459Y6033D01*
X371459Y8967D01*
X373533Y11041D01*
X376467Y11041D01*
X378541Y8967D01*
X378541Y6033D01*
X376467Y3959D01*
X373533Y3959D01*
G37*
%LPD*%
%LPC*%
G36*
X66033Y138959D02*
X66033Y138959D01*
X63959Y141033D01*
X63959Y143967D01*
X66033Y146041D01*
X68967Y146041D01*
X71041Y143967D01*
X71041Y141033D01*
X68967Y138959D01*
X66033Y138959D01*
G37*
%LPD*%
%LPC*%
G36*
X331033Y28959D02*
X331033Y28959D01*
X328959Y31033D01*
X328959Y33967D01*
X331033Y36041D01*
X333967Y36041D01*
X336041Y33967D01*
X336041Y31033D01*
X333967Y28959D01*
X331033Y28959D01*
G37*
%LPD*%
%LPC*%
G36*
X376033Y138959D02*
X376033Y138959D01*
X373959Y141033D01*
X373959Y143967D01*
X376033Y146041D01*
X378967Y146041D01*
X381041Y143967D01*
X381041Y141033D01*
X378967Y138959D01*
X376033Y138959D01*
G37*
%LPD*%
%LPC*%
G36*
X76033Y51459D02*
X76033Y51459D01*
X73959Y53533D01*
X73959Y56467D01*
X76033Y58541D01*
X78967Y58541D01*
X81041Y56467D01*
X81041Y53533D01*
X78967Y51459D01*
X76033Y51459D01*
G37*
%LPD*%
%LPC*%
G36*
X373533Y121459D02*
X373533Y121459D01*
X371459Y123533D01*
X371459Y126467D01*
X373533Y128541D01*
X376467Y128541D01*
X378541Y126467D01*
X378541Y123533D01*
X376467Y121459D01*
X373533Y121459D01*
G37*
%LPD*%
%LPC*%
G36*
X-221467Y-266041D02*
X-221467Y-266041D01*
X-223541Y-263967D01*
X-223541Y-261033D01*
X-221467Y-258959D01*
X-218533Y-258959D01*
X-216459Y-261033D01*
X-216459Y-263967D01*
X-218533Y-266041D01*
X-221467Y-266041D01*
G37*
%LPD*%
%LPC*%
G36*
X-283967Y-261041D02*
X-283967Y-261041D01*
X-286041Y-258967D01*
X-286041Y-256033D01*
X-283967Y-253959D01*
X-281033Y-253959D01*
X-278959Y-256033D01*
X-278959Y-258967D01*
X-281033Y-261041D01*
X-283967Y-261041D01*
G37*
%LPD*%
%LPC*%
G36*
X-206467Y-251041D02*
X-206467Y-251041D01*
X-208541Y-248967D01*
X-208541Y-246033D01*
X-206467Y-243959D01*
X-203533Y-243959D01*
X-201459Y-246033D01*
X-201459Y-248967D01*
X-203533Y-251041D01*
X-206467Y-251041D01*
G37*
%LPD*%
%LPC*%
G36*
X-13967Y-38541D02*
X-13967Y-38541D01*
X-16041Y-36467D01*
X-16041Y-33533D01*
X-13967Y-31459D01*
X-11033Y-31459D01*
X-8959Y-33533D01*
X-8959Y-36467D01*
X-11033Y-38541D01*
X-13967Y-38541D01*
G37*
%LPD*%
%LPC*%
G36*
X-233967Y191459D02*
X-233967Y191459D01*
X-236041Y193533D01*
X-236041Y196467D01*
X-233967Y198541D01*
X-231033Y198541D01*
X-228959Y196467D01*
X-228959Y193533D01*
X-231033Y191459D01*
X-233967Y191459D01*
G37*
%LPD*%
%LPC*%
G36*
X-201467Y173959D02*
X-201467Y173959D01*
X-203541Y176033D01*
X-203541Y178967D01*
X-201467Y181041D01*
X-198533Y181041D01*
X-196459Y178967D01*
X-196459Y176033D01*
X-198533Y173959D01*
X-201467Y173959D01*
G37*
%LPD*%
%LPC*%
G36*
X273533Y178959D02*
X273533Y178959D01*
X271459Y181033D01*
X271459Y183967D01*
X273533Y186041D01*
X276467Y186041D01*
X278541Y183967D01*
X278541Y181033D01*
X276467Y178959D01*
X273533Y178959D01*
G37*
%LPD*%
%LPC*%
G36*
X48533Y178959D02*
X48533Y178959D01*
X46459Y181033D01*
X46459Y183967D01*
X48533Y186041D01*
X51467Y186041D01*
X53541Y183967D01*
X53541Y181033D01*
X51467Y178959D01*
X48533Y178959D01*
G37*
%LPD*%
%LPC*%
G36*
X-246467Y-93541D02*
X-246467Y-93541D01*
X-248541Y-91467D01*
X-248541Y-88533D01*
X-246467Y-86459D01*
X-243533Y-86459D01*
X-241459Y-88533D01*
X-241459Y-91467D01*
X-243533Y-93541D01*
X-246467Y-93541D01*
G37*
%LPD*%
%LPC*%
G36*
X223533Y123959D02*
X223533Y123959D01*
X221459Y126033D01*
X221459Y128967D01*
X223533Y131041D01*
X226467Y131041D01*
X228541Y128967D01*
X228541Y126033D01*
X226467Y123959D01*
X223533Y123959D01*
G37*
%LPD*%
%LPC*%
G36*
X46033Y-121041D02*
X46033Y-121041D01*
X43959Y-118967D01*
X43959Y-116033D01*
X46033Y-113959D01*
X48967Y-113959D01*
X51041Y-116033D01*
X51041Y-118967D01*
X48967Y-121041D01*
X46033Y-121041D01*
G37*
%LPD*%
%LPC*%
G36*
X-316467Y-191041D02*
X-316467Y-191041D01*
X-318541Y-188967D01*
X-318541Y-186033D01*
X-316467Y-183959D01*
X-313533Y-183959D01*
X-311459Y-186033D01*
X-311459Y-188967D01*
X-313533Y-191041D01*
X-316467Y-191041D01*
G37*
%LPD*%
%LPC*%
G36*
X-71467Y71459D02*
X-71467Y71459D01*
X-73541Y73533D01*
X-73541Y76467D01*
X-71467Y78541D01*
X-68533Y78541D01*
X-66459Y76467D01*
X-66459Y73533D01*
X-68533Y71459D01*
X-71467Y71459D01*
G37*
%LPD*%
%LPC*%
G36*
X-61467Y71459D02*
X-61467Y71459D01*
X-63541Y73533D01*
X-63541Y76467D01*
X-61467Y78541D01*
X-58533Y78541D01*
X-56459Y76467D01*
X-56459Y73533D01*
X-58533Y71459D01*
X-61467Y71459D01*
G37*
%LPD*%
%LPC*%
G36*
X233533Y108959D02*
X233533Y108959D01*
X231459Y111033D01*
X231459Y113967D01*
X233533Y116041D01*
X236467Y116041D01*
X238541Y113967D01*
X238541Y111033D01*
X236467Y108959D01*
X233533Y108959D01*
G37*
%LPD*%
%LPC*%
G36*
X-123967Y103959D02*
X-123967Y103959D01*
X-126041Y106033D01*
X-126041Y108967D01*
X-123967Y111041D01*
X-121033Y111041D01*
X-118959Y108967D01*
X-118959Y106033D01*
X-121033Y103959D01*
X-123967Y103959D01*
G37*
%LPD*%
%LPC*%
G36*
X-26467Y98959D02*
X-26467Y98959D01*
X-28541Y101033D01*
X-28541Y103967D01*
X-26467Y106041D01*
X-23533Y106041D01*
X-21459Y103967D01*
X-21459Y101033D01*
X-23533Y98959D01*
X-26467Y98959D01*
G37*
%LPD*%
%LPC*%
G36*
X373533Y83959D02*
X373533Y83959D01*
X371459Y86033D01*
X371459Y88967D01*
X373533Y91041D01*
X376467Y91041D01*
X378541Y88967D01*
X378541Y86033D01*
X376467Y83959D01*
X373533Y83959D01*
G37*
%LPD*%
%LPC*%
G36*
X13533Y183959D02*
X13533Y183959D01*
X11459Y186033D01*
X11459Y188967D01*
X13533Y191041D01*
X16467Y191041D01*
X18541Y188967D01*
X18541Y186033D01*
X16467Y183959D01*
X13533Y183959D01*
G37*
%LPD*%
%LPC*%
G36*
X358533Y98959D02*
X358533Y98959D01*
X356459Y101033D01*
X356459Y103967D01*
X358533Y106041D01*
X361467Y106041D01*
X363541Y103967D01*
X363541Y101033D01*
X361467Y98959D01*
X358533Y98959D01*
G37*
%LPD*%
%LPC*%
G36*
X216033Y-143541D02*
X216033Y-143541D01*
X213959Y-141467D01*
X213959Y-138533D01*
X216033Y-136459D01*
X218967Y-136459D01*
X221041Y-138533D01*
X221041Y-141467D01*
X218967Y-143541D01*
X216033Y-143541D01*
G37*
%LPD*%
%LPC*%
G36*
X-186467Y-168541D02*
X-186467Y-168541D01*
X-188541Y-166467D01*
X-188541Y-163533D01*
X-186467Y-161459D01*
X-183533Y-161459D01*
X-181459Y-163533D01*
X-181459Y-166467D01*
X-183533Y-168541D01*
X-186467Y-168541D01*
G37*
%LPD*%
%LPC*%
G36*
X256033Y38959D02*
X256033Y38959D01*
X253959Y41033D01*
X253959Y43967D01*
X256033Y46041D01*
X258967Y46041D01*
X261041Y43967D01*
X261041Y41033D01*
X258967Y38959D01*
X256033Y38959D01*
G37*
%LPD*%
%LPC*%
G36*
X366033Y128959D02*
X366033Y128959D01*
X363959Y131033D01*
X363959Y133967D01*
X366033Y136041D01*
X368967Y136041D01*
X371041Y133967D01*
X371041Y131033D01*
X368967Y128959D01*
X366033Y128959D01*
G37*
%LPD*%
%LPC*%
G36*
X-279756Y133467D02*
X-279756Y133467D01*
X-281533Y135244D01*
X-281533Y137756D01*
X-279756Y139533D01*
X-277244Y139533D01*
X-275467Y137756D01*
X-275467Y135244D01*
X-277244Y133467D01*
X-279756Y133467D01*
G37*
%LPD*%
%LPC*%
G36*
X-251256Y91967D02*
X-251256Y91967D01*
X-253033Y93744D01*
X-253033Y96256D01*
X-251256Y98033D01*
X-248744Y98033D01*
X-246967Y96256D01*
X-246967Y93744D01*
X-248744Y91967D01*
X-251256Y91967D01*
G37*
%LPD*%
%LPC*%
G36*
X-259756Y53467D02*
X-259756Y53467D01*
X-261533Y55244D01*
X-261533Y57756D01*
X-259756Y59533D01*
X-257244Y59533D01*
X-255467Y57756D01*
X-255467Y55244D01*
X-257244Y53467D01*
X-259756Y53467D01*
G37*
%LPD*%
%LPC*%
G36*
X-259756Y73467D02*
X-259756Y73467D01*
X-261533Y75244D01*
X-261533Y77756D01*
X-259756Y79533D01*
X-257244Y79533D01*
X-255467Y77756D01*
X-255467Y75244D01*
X-257244Y73467D01*
X-259756Y73467D01*
G37*
%LPD*%
%LPC*%
G36*
X-279756Y113467D02*
X-279756Y113467D01*
X-281533Y115244D01*
X-281533Y117756D01*
X-279756Y119533D01*
X-277244Y119533D01*
X-275467Y117756D01*
X-275467Y115244D01*
X-277244Y113467D01*
X-279756Y113467D01*
G37*
%LPD*%
%LPC*%
G36*
X-239756Y113467D02*
X-239756Y113467D01*
X-241533Y115244D01*
X-241533Y117756D01*
X-239756Y119533D01*
X-237244Y119533D01*
X-235467Y117756D01*
X-235467Y115244D01*
X-237244Y113467D01*
X-239756Y113467D01*
G37*
%LPD*%
%LPC*%
G36*
X-279756Y73467D02*
X-279756Y73467D01*
X-281533Y75244D01*
X-281533Y77756D01*
X-279756Y79533D01*
X-277244Y79533D01*
X-275467Y77756D01*
X-275467Y75244D01*
X-277244Y73467D01*
X-279756Y73467D01*
G37*
%LPD*%
%LPC*%
G36*
X-239756Y33467D02*
X-239756Y33467D01*
X-241533Y35244D01*
X-241533Y37756D01*
X-239756Y39533D01*
X-237244Y39533D01*
X-235467Y37756D01*
X-235467Y35244D01*
X-237244Y33467D01*
X-239756Y33467D01*
G37*
%LPD*%
%LPC*%
G36*
X-239756Y133467D02*
X-239756Y133467D01*
X-241533Y135244D01*
X-241533Y137756D01*
X-239756Y139533D01*
X-237244Y139533D01*
X-235467Y137756D01*
X-235467Y135244D01*
X-237244Y133467D01*
X-239756Y133467D01*
G37*
%LPD*%
%LPC*%
G36*
X-279756Y33467D02*
X-279756Y33467D01*
X-281533Y35244D01*
X-281533Y37756D01*
X-279756Y39533D01*
X-277244Y39533D01*
X-275467Y37756D01*
X-275467Y35244D01*
X-277244Y33467D01*
X-279756Y33467D01*
G37*
%LPD*%
%LPC*%
G36*
X-259756Y33467D02*
X-259756Y33467D01*
X-261533Y35244D01*
X-261533Y37756D01*
X-259756Y39533D01*
X-257244Y39533D01*
X-255467Y37756D01*
X-255467Y35244D01*
X-257244Y33467D01*
X-259756Y33467D01*
G37*
%LPD*%
%LPC*%
G36*
X-279756Y153467D02*
X-279756Y153467D01*
X-281533Y155244D01*
X-281533Y157756D01*
X-279756Y159533D01*
X-277244Y159533D01*
X-275467Y157756D01*
X-275467Y155244D01*
X-277244Y153467D01*
X-279756Y153467D01*
G37*
%LPD*%
%LPC*%
G36*
X-279756Y53467D02*
X-279756Y53467D01*
X-281533Y55244D01*
X-281533Y57756D01*
X-279756Y59533D01*
X-277244Y59533D01*
X-275467Y57756D01*
X-275467Y55244D01*
X-277244Y53467D01*
X-279756Y53467D01*
G37*
%LPD*%
%LPC*%
G36*
X-259756Y153467D02*
X-259756Y153467D01*
X-261533Y155244D01*
X-261533Y157756D01*
X-259756Y159533D01*
X-257244Y159533D01*
X-255467Y157756D01*
X-255467Y155244D01*
X-257244Y153467D01*
X-259756Y153467D01*
G37*
%LPD*%
%LPC*%
G36*
X-239756Y153467D02*
X-239756Y153467D01*
X-241533Y155244D01*
X-241533Y157756D01*
X-239756Y159533D01*
X-237244Y159533D01*
X-235467Y157756D01*
X-235467Y155244D01*
X-237244Y153467D01*
X-239756Y153467D01*
G37*
%LPD*%
%LPC*%
G36*
X-400001Y129499D02*
X-400001Y129499D01*
X-400001Y129501D01*
X-399999Y129501D01*
X-399999Y129499D01*
X-400001Y129499D01*
G37*
%LPD*%
%LPC*%
G36*
X-400001Y69499D02*
X-400001Y69499D01*
X-400001Y69501D01*
X-399999Y69501D01*
X-399999Y69499D01*
X-400001Y69499D01*
G37*
%LPD*%
%LPC*%
G36*
X24999Y-180001D02*
X24999Y-180001D01*
X24999Y-179999D01*
X25001Y-179999D01*
X25001Y-180001D01*
X24999Y-180001D01*
G37*
%LPD*%
%LPC*%
G36*
X-157301Y109999D02*
X-157301Y109999D01*
X-157301Y110001D01*
X-157299Y110001D01*
X-157299Y109999D01*
X-157301Y109999D01*
G37*
%LPD*%
%LPC*%
G36*
X399999Y-10001D02*
X399999Y-10001D01*
X399999Y-9999D01*
X400001Y-9999D01*
X400001Y-10001D01*
X399999Y-10001D01*
G37*
%LPD*%
%LPC*%
G36*
X399999Y49999D02*
X399999Y49999D01*
X399999Y50001D01*
X400001Y50001D01*
X400001Y49999D01*
X399999Y49999D01*
G37*
%LPD*%
%LPC*%
G36*
X19999Y-140001D02*
X19999Y-140001D01*
X19999Y-139999D01*
X20001Y-139999D01*
X20001Y-140001D01*
X19999Y-140001D01*
G37*
%LPD*%
%LPC*%
G36*
X-1Y-325001D02*
X-1Y-325001D01*
X-1Y-324999D01*
X1Y-324999D01*
X1Y-325001D01*
X-1Y-325001D01*
G37*
%LPD*%
D10*
X-278500Y156500D03*
X-238500Y156500D03*
X-278500Y56500D03*
X-346000Y66500D03*
X-346000Y106500D03*
X-326000Y126500D03*
X-278500Y116500D03*
X-238500Y116500D03*
X-278500Y136500D03*
X-258500Y156500D03*
X-238500Y136500D03*
X-258500Y56500D03*
X-278500Y36500D03*
X-258500Y36500D03*
X-238500Y36500D03*
X-258500Y76500D03*
X-278500Y76500D03*
X-326000Y86500D03*
X-326000Y106500D03*
X-346000Y86500D03*
X-346000Y126500D03*
X-326000Y66500D03*
D11*
X-400000Y169500D03*
X-400000Y-10500D03*
X-400000Y-30500D03*
X-400000Y-50500D03*
X-400000Y129500D03*
X-400000Y109500D03*
X-400000Y69500D03*
X-400000Y49500D03*
X-400000Y29500D03*
X-400000Y9500D03*
X-400000Y89500D03*
X-400000Y149500D03*
X400000Y-50000D03*
X400000Y130000D03*
X400000Y150000D03*
X400000Y170000D03*
X400000Y-10000D03*
X400000Y10000D03*
X400000Y50000D03*
X400000Y70000D03*
X400000Y90000D03*
X400000Y110000D03*
X400000Y30000D03*
X400000Y-30000D03*
D12*
X-20000Y-140000D03*
X60000Y-140000D03*
X-60000Y-140000D03*
X20000Y-140000D03*
D13*
X-25000Y-325000D03*
X25000Y-325000D03*
X-25000Y-180000D03*
X25000Y-180000D03*
X0Y-325000D03*
D14*
X-109388Y-507282D02*
X-109388Y-519022D01*
X-109389Y-519022D02*
X-109387Y-519155D01*
X-109381Y-519287D01*
X-109371Y-519419D01*
X-109358Y-519551D01*
X-109340Y-519683D01*
X-109319Y-519813D01*
X-109294Y-519944D01*
X-109265Y-520073D01*
X-109232Y-520201D01*
X-109196Y-520329D01*
X-109156Y-520455D01*
X-109112Y-520580D01*
X-109064Y-520704D01*
X-109013Y-520826D01*
X-108958Y-520947D01*
X-108900Y-521066D01*
X-108838Y-521184D01*
X-108773Y-521299D01*
X-108704Y-521413D01*
X-108633Y-521524D01*
X-108557Y-521633D01*
X-108479Y-521740D01*
X-108398Y-521845D01*
X-108313Y-521947D01*
X-108226Y-522047D01*
X-108136Y-522144D01*
X-108043Y-522239D01*
X-107947Y-522330D01*
X-107849Y-522419D01*
X-107748Y-522505D01*
X-107644Y-522588D01*
X-107538Y-522668D01*
X-107430Y-522744D01*
X-107320Y-522818D01*
X-107207Y-522888D01*
X-107093Y-522955D01*
X-106976Y-523018D01*
X-106858Y-523078D01*
X-106738Y-523135D01*
X-106616Y-523188D01*
X-106493Y-523237D01*
X-106369Y-523283D01*
X-106243Y-523325D01*
X-106116Y-523363D01*
X-105988Y-523398D01*
X-105859Y-523429D01*
X-105730Y-523456D01*
X-105599Y-523479D01*
X-105468Y-523499D01*
X-105336Y-523514D01*
X-105204Y-523526D01*
X-105072Y-523534D01*
X-104939Y-523538D01*
X-104807Y-523538D01*
X-104674Y-523534D01*
X-104542Y-523526D01*
X-104410Y-523514D01*
X-104278Y-523499D01*
X-104147Y-523479D01*
X-104016Y-523456D01*
X-103887Y-523429D01*
X-103758Y-523398D01*
X-103630Y-523363D01*
X-103503Y-523325D01*
X-103377Y-523283D01*
X-103253Y-523237D01*
X-103130Y-523188D01*
X-103008Y-523135D01*
X-102888Y-523078D01*
X-102770Y-523018D01*
X-102653Y-522955D01*
X-102539Y-522888D01*
X-102426Y-522818D01*
X-102316Y-522744D01*
X-102208Y-522668D01*
X-102102Y-522588D01*
X-101998Y-522505D01*
X-101897Y-522419D01*
X-101799Y-522330D01*
X-101703Y-522239D01*
X-101610Y-522144D01*
X-101520Y-522047D01*
X-101433Y-521947D01*
X-101348Y-521845D01*
X-101267Y-521740D01*
X-101189Y-521633D01*
X-101113Y-521524D01*
X-101042Y-521413D01*
X-100973Y-521299D01*
X-100908Y-521184D01*
X-100846Y-521066D01*
X-100788Y-520947D01*
X-100733Y-520826D01*
X-100682Y-520704D01*
X-100634Y-520580D01*
X-100590Y-520455D01*
X-100550Y-520329D01*
X-100514Y-520201D01*
X-100481Y-520073D01*
X-100452Y-519944D01*
X-100427Y-519813D01*
X-100406Y-519683D01*
X-100388Y-519551D01*
X-100375Y-519419D01*
X-100365Y-519287D01*
X-100359Y-519155D01*
X-100357Y-519022D01*
X-100357Y-507282D01*
X-92780Y-512701D02*
X-92780Y-528957D01*
X-92780Y-512701D02*
X-88265Y-512701D01*
X-88161Y-512703D01*
X-88058Y-512709D01*
X-87954Y-512719D01*
X-87851Y-512733D01*
X-87749Y-512751D01*
X-87648Y-512772D01*
X-87547Y-512798D01*
X-87448Y-512827D01*
X-87349Y-512860D01*
X-87252Y-512897D01*
X-87157Y-512938D01*
X-87063Y-512982D01*
X-86971Y-513030D01*
X-86881Y-513081D01*
X-86792Y-513136D01*
X-86706Y-513194D01*
X-86623Y-513256D01*
X-86541Y-513320D01*
X-86463Y-513388D01*
X-86387Y-513458D01*
X-86313Y-513531D01*
X-86243Y-513608D01*
X-86175Y-513686D01*
X-86111Y-513768D01*
X-86049Y-513851D01*
X-85991Y-513937D01*
X-85936Y-514026D01*
X-85885Y-514116D01*
X-85837Y-514208D01*
X-85793Y-514302D01*
X-85752Y-514397D01*
X-85715Y-514494D01*
X-85682Y-514593D01*
X-85653Y-514692D01*
X-85627Y-514793D01*
X-85606Y-514894D01*
X-85588Y-514996D01*
X-85574Y-515099D01*
X-85564Y-515203D01*
X-85558Y-515306D01*
X-85556Y-515410D01*
X-85556Y-520829D01*
X-85558Y-520930D01*
X-85564Y-521031D01*
X-85573Y-521132D01*
X-85586Y-521233D01*
X-85603Y-521333D01*
X-85624Y-521432D01*
X-85648Y-521530D01*
X-85676Y-521627D01*
X-85708Y-521724D01*
X-85743Y-521819D01*
X-85782Y-521912D01*
X-85824Y-522004D01*
X-85870Y-522095D01*
X-85919Y-522184D01*
X-85971Y-522270D01*
X-86027Y-522355D01*
X-86085Y-522438D01*
X-86147Y-522518D01*
X-86212Y-522596D01*
X-86279Y-522672D01*
X-86349Y-522745D01*
X-86422Y-522815D01*
X-86498Y-522882D01*
X-86576Y-522947D01*
X-86656Y-523009D01*
X-86739Y-523067D01*
X-86824Y-523123D01*
X-86911Y-523175D01*
X-86999Y-523224D01*
X-87090Y-523270D01*
X-87182Y-523312D01*
X-87275Y-523351D01*
X-87370Y-523386D01*
X-87467Y-523418D01*
X-87564Y-523446D01*
X-87662Y-523470D01*
X-87761Y-523491D01*
X-87861Y-523508D01*
X-87962Y-523521D01*
X-88063Y-523530D01*
X-88164Y-523536D01*
X-88265Y-523538D01*
X-92780Y-523538D01*
X-78712Y-528957D02*
X-78712Y-512701D01*
X-74197Y-512701D01*
X-74093Y-512703D01*
X-73990Y-512709D01*
X-73886Y-512719D01*
X-73783Y-512733D01*
X-73681Y-512751D01*
X-73580Y-512772D01*
X-73479Y-512798D01*
X-73380Y-512827D01*
X-73281Y-512860D01*
X-73184Y-512897D01*
X-73089Y-512938D01*
X-72995Y-512982D01*
X-72903Y-513030D01*
X-72813Y-513081D01*
X-72724Y-513136D01*
X-72638Y-513194D01*
X-72555Y-513256D01*
X-72473Y-513320D01*
X-72395Y-513388D01*
X-72319Y-513458D01*
X-72245Y-513531D01*
X-72175Y-513608D01*
X-72107Y-513686D01*
X-72043Y-513768D01*
X-71981Y-513851D01*
X-71923Y-513937D01*
X-71868Y-514026D01*
X-71817Y-514116D01*
X-71769Y-514208D01*
X-71725Y-514302D01*
X-71684Y-514397D01*
X-71647Y-514494D01*
X-71614Y-514593D01*
X-71585Y-514692D01*
X-71559Y-514793D01*
X-71538Y-514894D01*
X-71520Y-514996D01*
X-71506Y-515099D01*
X-71496Y-515203D01*
X-71490Y-515306D01*
X-71488Y-515410D01*
X-71487Y-515410D02*
X-71487Y-520829D01*
X-71488Y-520829D02*
X-71490Y-520930D01*
X-71496Y-521031D01*
X-71505Y-521132D01*
X-71518Y-521233D01*
X-71535Y-521333D01*
X-71556Y-521432D01*
X-71580Y-521530D01*
X-71608Y-521627D01*
X-71640Y-521724D01*
X-71675Y-521819D01*
X-71714Y-521912D01*
X-71756Y-522004D01*
X-71802Y-522095D01*
X-71851Y-522184D01*
X-71903Y-522270D01*
X-71959Y-522355D01*
X-72017Y-522438D01*
X-72079Y-522518D01*
X-72144Y-522596D01*
X-72211Y-522672D01*
X-72281Y-522745D01*
X-72354Y-522815D01*
X-72430Y-522882D01*
X-72508Y-522947D01*
X-72588Y-523009D01*
X-72671Y-523067D01*
X-72756Y-523123D01*
X-72843Y-523175D01*
X-72931Y-523224D01*
X-73022Y-523270D01*
X-73114Y-523312D01*
X-73207Y-523351D01*
X-73302Y-523386D01*
X-73399Y-523418D01*
X-73496Y-523446D01*
X-73594Y-523470D01*
X-73693Y-523491D01*
X-73793Y-523508D01*
X-73894Y-523521D01*
X-73995Y-523530D01*
X-74096Y-523536D01*
X-74197Y-523538D01*
X-78712Y-523538D01*
X-62529Y-523538D02*
X-58014Y-523538D01*
X-62529Y-523538D02*
X-62630Y-523536D01*
X-62731Y-523530D01*
X-62832Y-523521D01*
X-62933Y-523508D01*
X-63033Y-523491D01*
X-63132Y-523470D01*
X-63230Y-523446D01*
X-63327Y-523418D01*
X-63424Y-523386D01*
X-63519Y-523351D01*
X-63612Y-523312D01*
X-63704Y-523270D01*
X-63795Y-523224D01*
X-63884Y-523175D01*
X-63970Y-523123D01*
X-64055Y-523067D01*
X-64138Y-523009D01*
X-64218Y-522947D01*
X-64296Y-522882D01*
X-64372Y-522815D01*
X-64445Y-522745D01*
X-64515Y-522672D01*
X-64582Y-522596D01*
X-64647Y-522518D01*
X-64709Y-522438D01*
X-64767Y-522355D01*
X-64823Y-522270D01*
X-64875Y-522184D01*
X-64924Y-522095D01*
X-64970Y-522004D01*
X-65012Y-521912D01*
X-65051Y-521819D01*
X-65086Y-521724D01*
X-65118Y-521627D01*
X-65146Y-521530D01*
X-65170Y-521432D01*
X-65191Y-521333D01*
X-65208Y-521233D01*
X-65221Y-521132D01*
X-65230Y-521031D01*
X-65236Y-520930D01*
X-65238Y-520829D01*
X-65239Y-520829D02*
X-65239Y-516313D01*
X-65238Y-516313D02*
X-65236Y-516194D01*
X-65230Y-516074D01*
X-65220Y-515955D01*
X-65206Y-515837D01*
X-65189Y-515718D01*
X-65167Y-515601D01*
X-65142Y-515484D01*
X-65112Y-515369D01*
X-65079Y-515254D01*
X-65042Y-515140D01*
X-65002Y-515028D01*
X-64957Y-514917D01*
X-64909Y-514808D01*
X-64858Y-514700D01*
X-64803Y-514594D01*
X-64744Y-514490D01*
X-64682Y-514388D01*
X-64617Y-514288D01*
X-64548Y-514190D01*
X-64476Y-514094D01*
X-64401Y-514001D01*
X-64324Y-513911D01*
X-64243Y-513823D01*
X-64159Y-513738D01*
X-64072Y-513656D01*
X-63983Y-513576D01*
X-63891Y-513500D01*
X-63797Y-513426D01*
X-63700Y-513356D01*
X-63602Y-513289D01*
X-63501Y-513225D01*
X-63397Y-513165D01*
X-63292Y-513108D01*
X-63185Y-513055D01*
X-63077Y-513005D01*
X-62967Y-512959D01*
X-62855Y-512917D01*
X-62742Y-512878D01*
X-62628Y-512843D01*
X-62513Y-512812D01*
X-62396Y-512784D01*
X-62279Y-512761D01*
X-62162Y-512741D01*
X-62043Y-512725D01*
X-61924Y-512713D01*
X-61805Y-512705D01*
X-61686Y-512701D01*
X-61566Y-512701D01*
X-61447Y-512705D01*
X-61328Y-512713D01*
X-61209Y-512725D01*
X-61090Y-512741D01*
X-60973Y-512761D01*
X-60856Y-512784D01*
X-60739Y-512812D01*
X-60624Y-512843D01*
X-60510Y-512878D01*
X-60397Y-512917D01*
X-60285Y-512959D01*
X-60175Y-513005D01*
X-60067Y-513055D01*
X-59960Y-513108D01*
X-59855Y-513165D01*
X-59751Y-513225D01*
X-59650Y-513289D01*
X-59552Y-513356D01*
X-59455Y-513426D01*
X-59361Y-513500D01*
X-59269Y-513576D01*
X-59180Y-513656D01*
X-59093Y-513738D01*
X-59009Y-513823D01*
X-58928Y-513911D01*
X-58851Y-514001D01*
X-58776Y-514094D01*
X-58704Y-514190D01*
X-58635Y-514288D01*
X-58570Y-514388D01*
X-58508Y-514490D01*
X-58449Y-514594D01*
X-58394Y-514700D01*
X-58343Y-514808D01*
X-58295Y-514917D01*
X-58250Y-515028D01*
X-58210Y-515140D01*
X-58173Y-515254D01*
X-58140Y-515369D01*
X-58110Y-515484D01*
X-58085Y-515601D01*
X-58063Y-515718D01*
X-58046Y-515837D01*
X-58032Y-515955D01*
X-58022Y-516074D01*
X-58016Y-516194D01*
X-58014Y-516313D01*
X-58014Y-518119D01*
X-65239Y-518119D01*
X-51086Y-523538D02*
X-51086Y-512701D01*
X-45667Y-512701D01*
X-45667Y-514507D01*
X-30885Y-507282D02*
X-30885Y-523538D01*
X-32691Y-523538D02*
X-29079Y-523538D01*
X-29079Y-507282D02*
X-32691Y-507282D01*
X-22513Y-512701D02*
X-22513Y-523538D01*
X-22513Y-512701D02*
X-17998Y-512701D01*
X-17894Y-512703D01*
X-17791Y-512709D01*
X-17687Y-512719D01*
X-17584Y-512733D01*
X-17482Y-512751D01*
X-17381Y-512772D01*
X-17280Y-512798D01*
X-17181Y-512827D01*
X-17082Y-512860D01*
X-16985Y-512897D01*
X-16890Y-512938D01*
X-16796Y-512982D01*
X-16704Y-513030D01*
X-16614Y-513081D01*
X-16525Y-513136D01*
X-16439Y-513194D01*
X-16356Y-513256D01*
X-16274Y-513320D01*
X-16196Y-513388D01*
X-16120Y-513458D01*
X-16046Y-513531D01*
X-15976Y-513608D01*
X-15908Y-513686D01*
X-15844Y-513768D01*
X-15782Y-513851D01*
X-15724Y-513937D01*
X-15669Y-514026D01*
X-15618Y-514116D01*
X-15570Y-514208D01*
X-15526Y-514302D01*
X-15485Y-514397D01*
X-15448Y-514494D01*
X-15415Y-514593D01*
X-15386Y-514692D01*
X-15360Y-514793D01*
X-15339Y-514894D01*
X-15321Y-514996D01*
X-15307Y-515099D01*
X-15297Y-515203D01*
X-15291Y-515306D01*
X-15289Y-515410D01*
X-15288Y-515410D02*
X-15288Y-523538D01*
X-7924Y-523538D02*
X-7924Y-512701D01*
X-3409Y-512701D01*
X-3305Y-512703D01*
X-3202Y-512709D01*
X-3098Y-512719D01*
X-2995Y-512733D01*
X-2893Y-512751D01*
X-2792Y-512772D01*
X-2691Y-512798D01*
X-2592Y-512827D01*
X-2493Y-512860D01*
X-2396Y-512897D01*
X-2301Y-512938D01*
X-2207Y-512982D01*
X-2115Y-513030D01*
X-2025Y-513081D01*
X-1936Y-513136D01*
X-1850Y-513194D01*
X-1767Y-513256D01*
X-1685Y-513320D01*
X-1607Y-513388D01*
X-1531Y-513458D01*
X-1457Y-513531D01*
X-1387Y-513608D01*
X-1319Y-513686D01*
X-1255Y-513768D01*
X-1193Y-513851D01*
X-1135Y-513937D01*
X-1080Y-514026D01*
X-1029Y-514116D01*
X-981Y-514208D01*
X-937Y-514302D01*
X-896Y-514397D01*
X-859Y-514494D01*
X-826Y-514593D01*
X-797Y-514692D01*
X-771Y-514793D01*
X-750Y-514894D01*
X-732Y-514996D01*
X-718Y-515099D01*
X-708Y-515203D01*
X-702Y-515306D01*
X-700Y-515410D01*
X-699Y-515410D02*
X-699Y-523538D01*
X8853Y-523538D02*
X13369Y-523538D01*
X8853Y-523538D02*
X8752Y-523536D01*
X8651Y-523530D01*
X8550Y-523521D01*
X8449Y-523508D01*
X8349Y-523491D01*
X8250Y-523470D01*
X8152Y-523446D01*
X8055Y-523418D01*
X7958Y-523386D01*
X7863Y-523351D01*
X7770Y-523312D01*
X7678Y-523270D01*
X7587Y-523224D01*
X7499Y-523175D01*
X7412Y-523123D01*
X7327Y-523067D01*
X7244Y-523009D01*
X7164Y-522947D01*
X7086Y-522882D01*
X7010Y-522815D01*
X6937Y-522745D01*
X6867Y-522672D01*
X6800Y-522596D01*
X6735Y-522518D01*
X6673Y-522438D01*
X6615Y-522355D01*
X6559Y-522270D01*
X6507Y-522184D01*
X6458Y-522095D01*
X6412Y-522004D01*
X6370Y-521912D01*
X6331Y-521819D01*
X6296Y-521724D01*
X6264Y-521627D01*
X6236Y-521530D01*
X6212Y-521432D01*
X6191Y-521333D01*
X6174Y-521233D01*
X6161Y-521132D01*
X6152Y-521031D01*
X6146Y-520930D01*
X6144Y-520829D01*
X6144Y-516313D01*
X6146Y-516194D01*
X6152Y-516074D01*
X6162Y-515955D01*
X6176Y-515837D01*
X6193Y-515718D01*
X6215Y-515601D01*
X6240Y-515484D01*
X6270Y-515369D01*
X6303Y-515254D01*
X6340Y-515140D01*
X6380Y-515028D01*
X6425Y-514917D01*
X6473Y-514808D01*
X6524Y-514700D01*
X6579Y-514594D01*
X6638Y-514490D01*
X6700Y-514388D01*
X6765Y-514288D01*
X6834Y-514190D01*
X6906Y-514094D01*
X6981Y-514001D01*
X7058Y-513911D01*
X7139Y-513823D01*
X7223Y-513738D01*
X7310Y-513656D01*
X7399Y-513576D01*
X7491Y-513500D01*
X7585Y-513426D01*
X7682Y-513356D01*
X7780Y-513289D01*
X7881Y-513225D01*
X7985Y-513165D01*
X8090Y-513108D01*
X8197Y-513055D01*
X8305Y-513005D01*
X8415Y-512959D01*
X8527Y-512917D01*
X8640Y-512878D01*
X8754Y-512843D01*
X8869Y-512812D01*
X8986Y-512784D01*
X9103Y-512761D01*
X9220Y-512741D01*
X9339Y-512725D01*
X9458Y-512713D01*
X9577Y-512705D01*
X9696Y-512701D01*
X9816Y-512701D01*
X9935Y-512705D01*
X10054Y-512713D01*
X10173Y-512725D01*
X10292Y-512741D01*
X10409Y-512761D01*
X10526Y-512784D01*
X10643Y-512812D01*
X10758Y-512843D01*
X10872Y-512878D01*
X10985Y-512917D01*
X11097Y-512959D01*
X11207Y-513005D01*
X11315Y-513055D01*
X11422Y-513108D01*
X11527Y-513165D01*
X11631Y-513225D01*
X11732Y-513289D01*
X11830Y-513356D01*
X11927Y-513426D01*
X12021Y-513500D01*
X12113Y-513576D01*
X12202Y-513656D01*
X12289Y-513738D01*
X12373Y-513823D01*
X12454Y-513911D01*
X12531Y-514001D01*
X12606Y-514094D01*
X12678Y-514190D01*
X12747Y-514288D01*
X12812Y-514388D01*
X12874Y-514490D01*
X12933Y-514594D01*
X12988Y-514700D01*
X13039Y-514808D01*
X13087Y-514917D01*
X13132Y-515028D01*
X13172Y-515140D01*
X13209Y-515254D01*
X13242Y-515369D01*
X13272Y-515484D01*
X13297Y-515601D01*
X13319Y-515718D01*
X13336Y-515837D01*
X13350Y-515955D01*
X13360Y-516074D01*
X13366Y-516194D01*
X13368Y-516313D01*
X13369Y-516313D02*
X13369Y-518119D01*
X6144Y-518119D01*
X20297Y-523538D02*
X20297Y-512701D01*
X25716Y-512701D01*
X25716Y-514507D01*
X39768Y-507282D02*
X39768Y-523538D01*
X45187Y-516313D02*
X39768Y-507282D01*
X45187Y-516313D02*
X50606Y-507282D01*
X50606Y-523538D01*
X60436Y-523538D02*
X64952Y-523538D01*
X60436Y-523538D02*
X60335Y-523536D01*
X60234Y-523530D01*
X60133Y-523521D01*
X60032Y-523508D01*
X59932Y-523491D01*
X59833Y-523470D01*
X59735Y-523446D01*
X59638Y-523418D01*
X59541Y-523386D01*
X59446Y-523351D01*
X59353Y-523312D01*
X59261Y-523270D01*
X59170Y-523224D01*
X59082Y-523175D01*
X58995Y-523123D01*
X58910Y-523067D01*
X58827Y-523009D01*
X58747Y-522947D01*
X58669Y-522882D01*
X58593Y-522815D01*
X58520Y-522745D01*
X58450Y-522672D01*
X58383Y-522596D01*
X58318Y-522518D01*
X58256Y-522438D01*
X58198Y-522355D01*
X58142Y-522270D01*
X58090Y-522184D01*
X58041Y-522095D01*
X57995Y-522004D01*
X57953Y-521912D01*
X57914Y-521819D01*
X57879Y-521724D01*
X57847Y-521627D01*
X57819Y-521530D01*
X57795Y-521432D01*
X57774Y-521333D01*
X57757Y-521233D01*
X57744Y-521132D01*
X57735Y-521031D01*
X57729Y-520930D01*
X57727Y-520829D01*
X57727Y-516313D01*
X57729Y-516194D01*
X57735Y-516074D01*
X57745Y-515955D01*
X57759Y-515837D01*
X57776Y-515718D01*
X57798Y-515601D01*
X57823Y-515484D01*
X57853Y-515369D01*
X57886Y-515254D01*
X57923Y-515140D01*
X57963Y-515028D01*
X58008Y-514917D01*
X58056Y-514808D01*
X58107Y-514700D01*
X58162Y-514594D01*
X58221Y-514490D01*
X58283Y-514388D01*
X58348Y-514288D01*
X58417Y-514190D01*
X58489Y-514094D01*
X58564Y-514001D01*
X58641Y-513911D01*
X58722Y-513823D01*
X58806Y-513738D01*
X58893Y-513656D01*
X58982Y-513576D01*
X59074Y-513500D01*
X59168Y-513426D01*
X59265Y-513356D01*
X59363Y-513289D01*
X59464Y-513225D01*
X59568Y-513165D01*
X59673Y-513108D01*
X59780Y-513055D01*
X59888Y-513005D01*
X59998Y-512959D01*
X60110Y-512917D01*
X60223Y-512878D01*
X60337Y-512843D01*
X60452Y-512812D01*
X60569Y-512784D01*
X60686Y-512761D01*
X60803Y-512741D01*
X60922Y-512725D01*
X61041Y-512713D01*
X61160Y-512705D01*
X61279Y-512701D01*
X61399Y-512701D01*
X61518Y-512705D01*
X61637Y-512713D01*
X61756Y-512725D01*
X61875Y-512741D01*
X61992Y-512761D01*
X62109Y-512784D01*
X62226Y-512812D01*
X62341Y-512843D01*
X62455Y-512878D01*
X62568Y-512917D01*
X62680Y-512959D01*
X62790Y-513005D01*
X62898Y-513055D01*
X63005Y-513108D01*
X63110Y-513165D01*
X63214Y-513225D01*
X63315Y-513289D01*
X63413Y-513356D01*
X63510Y-513426D01*
X63604Y-513500D01*
X63696Y-513576D01*
X63785Y-513656D01*
X63872Y-513738D01*
X63956Y-513823D01*
X64037Y-513911D01*
X64114Y-514001D01*
X64189Y-514094D01*
X64261Y-514190D01*
X64330Y-514288D01*
X64395Y-514388D01*
X64457Y-514490D01*
X64516Y-514594D01*
X64571Y-514700D01*
X64622Y-514808D01*
X64670Y-514917D01*
X64715Y-515028D01*
X64755Y-515140D01*
X64792Y-515254D01*
X64825Y-515369D01*
X64855Y-515484D01*
X64880Y-515601D01*
X64902Y-515718D01*
X64919Y-515837D01*
X64933Y-515955D01*
X64943Y-516074D01*
X64949Y-516194D01*
X64951Y-516313D01*
X64952Y-516313D02*
X64952Y-518119D01*
X57727Y-518119D01*
X69977Y-512701D02*
X75395Y-512701D01*
X71783Y-507282D02*
X71783Y-520829D01*
X71785Y-520930D01*
X71791Y-521031D01*
X71800Y-521132D01*
X71813Y-521233D01*
X71830Y-521333D01*
X71851Y-521432D01*
X71875Y-521530D01*
X71903Y-521627D01*
X71935Y-521724D01*
X71970Y-521819D01*
X72009Y-521912D01*
X72051Y-522004D01*
X72097Y-522095D01*
X72146Y-522184D01*
X72198Y-522270D01*
X72254Y-522355D01*
X72312Y-522438D01*
X72374Y-522518D01*
X72439Y-522596D01*
X72506Y-522672D01*
X72576Y-522745D01*
X72649Y-522815D01*
X72725Y-522882D01*
X72803Y-522947D01*
X72883Y-523009D01*
X72966Y-523067D01*
X73051Y-523123D01*
X73138Y-523175D01*
X73226Y-523224D01*
X73317Y-523270D01*
X73409Y-523312D01*
X73502Y-523351D01*
X73597Y-523386D01*
X73694Y-523418D01*
X73791Y-523446D01*
X73889Y-523470D01*
X73988Y-523491D01*
X74088Y-523508D01*
X74189Y-523521D01*
X74290Y-523530D01*
X74391Y-523536D01*
X74492Y-523538D01*
X75395Y-523538D01*
X84261Y-517216D02*
X88325Y-517216D01*
X84261Y-517216D02*
X84149Y-517218D01*
X84038Y-517224D01*
X83927Y-517234D01*
X83816Y-517247D01*
X83706Y-517265D01*
X83597Y-517287D01*
X83488Y-517312D01*
X83380Y-517341D01*
X83274Y-517374D01*
X83168Y-517411D01*
X83064Y-517451D01*
X82962Y-517495D01*
X82861Y-517543D01*
X82762Y-517594D01*
X82664Y-517649D01*
X82569Y-517707D01*
X82476Y-517768D01*
X82385Y-517833D01*
X82296Y-517901D01*
X82210Y-517972D01*
X82127Y-518045D01*
X82046Y-518122D01*
X81967Y-518202D01*
X81892Y-518284D01*
X81820Y-518369D01*
X81750Y-518456D01*
X81684Y-518546D01*
X81621Y-518638D01*
X81561Y-518733D01*
X81505Y-518829D01*
X81452Y-518927D01*
X81403Y-519027D01*
X81357Y-519129D01*
X81315Y-519232D01*
X81276Y-519337D01*
X81241Y-519443D01*
X81210Y-519550D01*
X81183Y-519658D01*
X81159Y-519767D01*
X81140Y-519877D01*
X81124Y-519987D01*
X81112Y-520098D01*
X81104Y-520210D01*
X81100Y-520321D01*
X81100Y-520433D01*
X81104Y-520544D01*
X81112Y-520656D01*
X81124Y-520767D01*
X81140Y-520877D01*
X81159Y-520987D01*
X81183Y-521096D01*
X81210Y-521204D01*
X81241Y-521311D01*
X81276Y-521417D01*
X81315Y-521522D01*
X81357Y-521625D01*
X81403Y-521727D01*
X81452Y-521827D01*
X81505Y-521925D01*
X81561Y-522021D01*
X81621Y-522116D01*
X81684Y-522208D01*
X81750Y-522298D01*
X81820Y-522385D01*
X81892Y-522470D01*
X81967Y-522552D01*
X82046Y-522632D01*
X82127Y-522709D01*
X82210Y-522782D01*
X82296Y-522853D01*
X82385Y-522921D01*
X82476Y-522986D01*
X82569Y-523047D01*
X82664Y-523105D01*
X82762Y-523160D01*
X82861Y-523211D01*
X82962Y-523259D01*
X83064Y-523303D01*
X83168Y-523343D01*
X83274Y-523380D01*
X83380Y-523413D01*
X83488Y-523442D01*
X83597Y-523467D01*
X83706Y-523489D01*
X83816Y-523507D01*
X83927Y-523520D01*
X84038Y-523530D01*
X84149Y-523536D01*
X84261Y-523538D01*
X88325Y-523538D01*
X88325Y-515410D01*
X88323Y-515309D01*
X88317Y-515208D01*
X88308Y-515107D01*
X88295Y-515006D01*
X88278Y-514906D01*
X88257Y-514807D01*
X88233Y-514709D01*
X88205Y-514612D01*
X88173Y-514515D01*
X88138Y-514420D01*
X88099Y-514327D01*
X88057Y-514235D01*
X88011Y-514144D01*
X87962Y-514056D01*
X87910Y-513969D01*
X87854Y-513884D01*
X87796Y-513801D01*
X87734Y-513721D01*
X87669Y-513643D01*
X87602Y-513567D01*
X87532Y-513494D01*
X87459Y-513424D01*
X87383Y-513357D01*
X87305Y-513292D01*
X87225Y-513230D01*
X87142Y-513172D01*
X87057Y-513116D01*
X86971Y-513064D01*
X86882Y-513015D01*
X86791Y-512969D01*
X86699Y-512927D01*
X86606Y-512888D01*
X86511Y-512853D01*
X86414Y-512821D01*
X86317Y-512793D01*
X86219Y-512769D01*
X86120Y-512748D01*
X86020Y-512731D01*
X85919Y-512718D01*
X85818Y-512709D01*
X85717Y-512703D01*
X85616Y-512701D01*
X82004Y-512701D01*
X95479Y-507282D02*
X95479Y-520829D01*
X95481Y-520930D01*
X95487Y-521031D01*
X95496Y-521132D01*
X95509Y-521233D01*
X95526Y-521333D01*
X95547Y-521432D01*
X95571Y-521530D01*
X95599Y-521627D01*
X95631Y-521724D01*
X95666Y-521819D01*
X95705Y-521912D01*
X95747Y-522004D01*
X95793Y-522095D01*
X95842Y-522184D01*
X95894Y-522270D01*
X95950Y-522355D01*
X96008Y-522438D01*
X96070Y-522518D01*
X96135Y-522596D01*
X96202Y-522672D01*
X96272Y-522745D01*
X96345Y-522815D01*
X96421Y-522882D01*
X96499Y-522947D01*
X96579Y-523009D01*
X96662Y-523067D01*
X96747Y-523123D01*
X96834Y-523175D01*
X96922Y-523224D01*
X97013Y-523270D01*
X97105Y-523312D01*
X97198Y-523351D01*
X97293Y-523386D01*
X97390Y-523418D01*
X97487Y-523446D01*
X97585Y-523470D01*
X97684Y-523491D01*
X97784Y-523508D01*
X97885Y-523521D01*
X97986Y-523530D01*
X98087Y-523536D01*
X98188Y-523538D01*
D10*
X155000Y215000D03*
X-250000Y95000D03*
D15*
X-157300Y110000D03*
X-182700Y110000D03*
D16*
X305000Y44660D03*
X365710Y-275000D03*
X-188290Y-285000D03*
X-91710Y-285000D03*
X-280000Y-129260D03*
X-53250Y52165D03*
X-79250Y147835D03*
X-46750Y147835D03*
X240000Y214660D03*
X141710Y-325000D03*
X238290Y-325000D03*
X80000Y192723D03*
X-188290Y-185000D03*
X-91710Y-185000D03*
X260000Y-129260D03*
X-10000Y50340D03*
X-347290Y-286000D03*
X-347290Y-214000D03*
X-144210Y146000D03*
X-144210Y74000D03*
X300000Y-129260D03*
X-295000Y70340D03*
X47250Y140867D03*
X5000Y190340D03*
X-221210Y-307500D03*
X190400Y140440D03*
X270000Y44660D03*
X-86490Y-52700D03*
X-86490Y23500D03*
X-30000Y190340D03*
X340000Y305340D03*
X240000Y305340D03*
X-335000Y170740D03*
X-295000Y76709D03*
X-113000Y248960D03*
X-323500Y221490D03*
X-240000Y-129260D03*
X238290Y-205000D03*
X232710Y-214000D03*
X-295000Y129660D03*
X86490Y-27300D03*
X86490Y-103500D03*
X141710Y-265000D03*
X238290Y-265000D03*
X340000Y214660D03*
X-65000Y190340D03*
X92710Y-286000D03*
X92710Y-214000D03*
X290000Y175000D03*
D17*
X335000Y185000D03*
X420000Y185000D03*
X275000Y182500D03*
X375000Y7500D03*
D18*
X257500Y182500D02*
X257500Y192500D01*
X257500Y182500D02*
X165000Y90000D01*
X162500Y90000D01*
D17*
X257500Y192500D03*
X162500Y90000D03*
X-122500Y107500D03*
D18*
X242500Y172500D02*
X242500Y192500D01*
X242500Y172500D02*
X165000Y95000D01*
X160000Y95000D01*
X35000Y-30000D01*
D17*
X242500Y192500D03*
X35000Y-30000D03*
X-225000Y-100000D03*
D16*
X-72750Y52165D03*
X365710Y-225000D03*
X340000Y255340D03*
X5000Y149660D03*
X-272700Y221490D03*
X305000Y85340D03*
X139600Y140440D03*
X380000Y-129260D03*
X92750Y59134D03*
X-160000Y-129260D03*
X-258790Y-192500D03*
X-400000Y-129260D03*
X340000Y-129260D03*
X-10000Y9660D03*
D19*
X287500Y212500D03*
X335000Y117500D03*
D16*
X-10000Y150000D03*
D17*
X-322500Y-180000D03*
X-315000Y-187500D03*
X182500Y87500D03*
X317500Y115000D03*
X272500Y-7500D03*
X282500Y2500D03*
X232500Y52500D03*
X367500Y142500D03*
X377500Y142500D03*
X330000Y137500D03*
X225000Y127500D03*
X367500Y132500D03*
X375000Y125000D03*
D16*
X-235000Y52810D03*
X-195790Y146000D03*
X-195790Y74000D03*
D20*
X-213810Y74000D02*
X-235000Y52810D01*
X-213810Y74000D02*
X-195790Y74000D01*
D17*
X-70000Y75000D03*
X-60000Y75000D03*
X-25000Y102500D03*
X217500Y-140000D03*
D18*
X-305000Y22500D02*
X-305000Y32500D01*
D17*
X-305000Y32500D03*
X-305000Y22500D03*
X-230000Y-95000D03*
D18*
X30000Y-35000D02*
X30000Y47500D01*
X67500Y85000D01*
D17*
X30000Y-35000D03*
X67500Y85000D03*
X375000Y87500D03*
X360000Y102500D03*
X-145000Y25000D03*
X77500Y55000D03*
X-47500Y87500D03*
X-187500Y190000D03*
X-55000Y87500D03*
X-187500Y182500D03*
X40000Y122500D03*
X-232500Y195000D03*
X67500Y142500D03*
X-200000Y177500D03*
X312500Y32500D03*
X257500Y42500D03*
X362500Y147500D03*
X367500Y152500D03*
X312500Y120000D03*
X297500Y87500D03*
X47500Y-117500D03*
D18*
X307500Y105000D02*
X307500Y115000D01*
X307500Y105000D02*
X75000Y-127500D01*
X75000Y-142500D01*
D17*
X307500Y115000D03*
X75000Y-142500D03*
X327500Y185000D03*
X420000Y192500D03*
X332500Y32500D03*
X267500Y-12500D03*
D18*
X330000Y145000D02*
X330000Y165000D01*
X330000Y145000D02*
X322500Y137500D01*
X322500Y50000D01*
X277500Y5000D01*
X277500Y-2500D01*
D17*
X330000Y165000D03*
X277500Y-2500D03*
X-245000Y-90000D03*
X290000Y2500D03*
X240000Y52500D03*
X-205000Y-247500D03*
X-220000Y-262500D03*
X-317500Y-175000D03*
X-282500Y-257500D03*
X-80000Y32500D03*
X-12500Y-35000D03*
X-185000Y-165000D03*
X235000Y112500D03*
X15000Y187500D03*
X317500Y87500D03*
X50000Y182500D03*
X317500Y80000D03*
M02*
