M48
;GenerationSoftware,Autodesk,EAGLE,9.3.0*%
;CreationDate,2019-03-02T03:48:50Z*%
FMAT,2
ICI,OFF
METRIC,TZ,000.000
T10C0.200
T9C0.350
T8C0.900
T7C1.000
T6C1.016
T5C1.020
T4C1.100
T3C1.300
T2C2.200
T1C2.261
%
G90
M71
T1
X-37500Y-12475
X-37500Y18525
X37500Y18525
X37500Y-12475
T2
X-110500Y-27000
X-110500Y27000
X-110500Y27000
X-56500Y-27000
X-56500Y27000
X110500Y27000
X110500Y-27000
X110500Y-27000
X56500Y27000
X56500Y-27000
X-5700Y-24000
X5700Y-24000
X-37500Y-12500
X-37500Y18500
X37500Y-12500
X37500Y18500
T3
X0Y-31500
X2500Y-17000
X-2500Y-17000
X2500Y-31500
X-2500Y-31500
T4
X-13000Y10270
X-13000Y7730
T5
X-2160Y19000
X-12320Y19000
X-9780Y19000
X-14860Y19000
X-4700Y19000
X5460Y19000
X8000Y19000
X2920Y19000
X380Y19000
X-7240Y19000
T6
X-21350Y23000
X-8650Y23000
X-9000Y-2620
X-9000Y-80
X-9000Y5000
X-9000Y-7700
X9000Y2460
X9000Y-5160
X9000Y5000
X9000Y-80
X9000Y-2620
X9000Y-7700
X-11190Y23000
X-13730Y23000
X-9000Y2460
X-9000Y-5160
X-16270Y23000
X-18810Y23000
T7
X-6000Y-13000
X-14000Y-13000
X-33000Y16000
X-10000Y-13000
T8
X40000Y-2000
X-40000Y13950
X-40000Y-4050
X40000Y-4000
X-40000Y-6050
X-40000Y-8050
X-40000Y9950
X-40000Y7950
X-40000Y3950
X-40000Y1950
X-40000Y-50
X-40000Y-2050
X-40000Y5950
X40000Y-8000
X-18400Y29000
X-11600Y29000
X-30600Y-31500
X-37400Y-31500
X40000Y2000
X40000Y4000
X40000Y6000
X40000Y8000
X40000Y0
X40000Y-6000
X40000Y10000
X40000Y12000
X40000Y14000
X-40000Y11950
T9
X12000Y6966
X18460Y-4456
X-4784Y9975
X-28671Y8050
X-25000Y16719
X-21000Y16719
X39000Y-20926
X-7000Y11034
X-35572Y-26000
X39000Y-15926
X-34000Y-27071
X-35000Y11034
X4784Y4775
X5680Y7375
X4784Y11275
X29000Y966
X5680Y5425
X-5680Y8675
X-23000Y-3966
X4087Y-2725
X-41929Y23300
X-7000Y6966
X-25000Y-13034
X-12500Y24571
X24250Y2909
X-32300Y25896
X35000Y3966
X29000Y17034
X-19829Y-17500
X-10171Y-17500
X-19000Y6966
X7000Y11034
X15171Y-31500
X24829Y-31500
X-4784Y6075
X-5680Y6725
X-4784Y11275
X-27000Y11034
X-16984Y18936
X-25329Y9950
X-25000Y11281
X-36071Y24700
X4784Y8675
X-24000Y-15926
X21250Y2909
X12000Y15034
X-38829Y-19500
X-29171Y-19500
X-24000Y-20926
X4784Y6725
X-19829Y-27500
X-10171Y-27500
X14909Y8250
X35000Y14034
X27091Y6250
X-27000Y6966
X-27000Y1034
X14966Y18000
X-31000Y-8034
X10271Y-27600
X10271Y-20400
X23540Y-4456
X14909Y11250
X-7000Y15034
X-20671Y9000
X34000Y-15926
X15171Y-25500
X24829Y-25500
X-4784Y8025
X-29000Y-13034
X14909Y5750
X34000Y-20926
X-29300Y-8500
X-36700Y27200
X19750Y2909
X-25400Y27100
X27091Y12750
X-4087Y-7275
X-33329Y8050
X-23000Y-8034
X29000Y5034
X14909Y9750
X27091Y10250
X12000Y11034
X-25879Y-27250
X-13500Y-3926
X-19016Y18936
X-18000Y-3926
X-35000Y6966
X0Y-15074
X-17500Y24571
X-31000Y-3966
X-27000Y-3034
X-25000Y22074
X17750Y2909
X22750Y2909
X27091Y7750
T10
X-6500Y21125
X-28650Y10650
X-28650Y14650
X-18650Y14650
X-18650Y3900
X-28150Y3900
X-28150Y5900
X-7125Y20500
X-26000Y19625
X-31375Y13375
X17375Y5375
X19375Y-10000
X17500Y-10750
X-24650Y10650
X-24650Y14650
X-26650Y12650
X-28650Y12650
X-26650Y14650
X-18650Y12650
X-16650Y10650
X-16650Y12650
X-16650Y14650
X-20650Y14650
X-20650Y10650
X-20650Y5900
X-26150Y5900
X-26150Y3900
X24500Y12500
X-34500Y0
X-16650Y5900
X-18650Y5900
X-37500Y-10748
X-36281Y-11256
X-35773Y-12475
X-36281Y-13694
X-37500Y-14202
X-38719Y-13694
X-39227Y-12475
X-38719Y-11256
X-37500Y20252
X-36281Y19744
X-35773Y18525
X-36281Y17306
X-37500Y16798
X-38719Y17306
X-39227Y18525
X-38719Y19744
X37500Y20252
X38719Y19744
X39227Y18525
X38719Y17306
X37500Y16798
X36281Y17306
X35773Y18525
X36281Y19744
X37500Y-10748
X38719Y-11256
X39227Y-12475
X38719Y-13694
X37500Y-14202
X36281Y-13694
X35773Y-12475
X36281Y-11256
X4125Y3250
X35000Y-10000
X27875Y625
X23750Y12625
X26250Y-10000
X26375Y-625
X24375Y9250
X11250Y6125
X13500Y4875
X18250Y5375
X13125Y8000
X26000Y14500
X-35375Y20750
X-34375Y19750
X-35375Y22750
X19375Y-8000
X24375Y8625
X35500Y-14750
X-4500Y-9250
X-32750Y-26000
X27500Y-10000
X27375Y-625
X26875Y-10000
X24625Y6625
X28250Y-6875
X4125Y3875
X14125Y7250
X14000Y8250
X-9750Y14000
X25375Y14500
X7500Y4000
X18000Y-9000
X17000Y-9000
X17875Y5875
X21625Y2000
X1375Y-2750
X1000Y-5750
X0Y-7500
X0Y-4500
X-18625Y17000
X-4125Y-750
X-1000Y-1750
X0Y-5500
X-18500Y18500
X-1375Y-7250
X-1000Y-4250
X1000Y2750
X-9500Y21500
X-33000Y19875
X-31125Y15500
X4625Y-4375
X18875Y-19750
X6125Y4375
X-29875Y7375
X-34375Y21750
M30