G04 EAGLE Gerber RS-274X export*
G75*
%MOMM*%
%FSLAX34Y34*%
%LPD*%
%INTop Inner Metal*%
%IPPOS*%
%AMOC8*
5,1,8,0,0,1.08239X$1,22.5*%
G01*
%ADD10C,0.352400*%
%ADD11C,1.524000*%
%ADD12C,1.650000*%
%ADD13C,1.350000*%
%ADD14C,1.500000*%
%ADD15C,1.950000*%
%ADD16C,1.530000*%
%ADD17C,0.152400*%
%ADD18C,0.604000*%
%ADD19C,0.454000*%
%ADD20C,0.127000*%

G36*
X380063Y-337358D02*
X380063Y-337358D01*
X380107Y-337361D01*
X385197Y-337075D01*
X385430Y-337038D01*
X385514Y-337031D01*
X395438Y-334765D01*
X395807Y-334640D01*
X395826Y-334629D01*
X395841Y-334625D01*
X405012Y-330208D01*
X405344Y-330004D01*
X405360Y-329989D01*
X405373Y-329981D01*
X413332Y-323634D01*
X413474Y-323495D01*
X413549Y-323429D01*
X413574Y-323397D01*
X413611Y-323361D01*
X413622Y-323343D01*
X413634Y-323332D01*
X419981Y-315373D01*
X420191Y-315045D01*
X420199Y-315025D01*
X420208Y-315012D01*
X424625Y-305841D01*
X424677Y-305695D01*
X424709Y-305628D01*
X424725Y-305563D01*
X424757Y-305474D01*
X424760Y-305453D01*
X424765Y-305438D01*
X427031Y-295514D01*
X427059Y-295280D01*
X427075Y-295197D01*
X427361Y-290107D01*
X427358Y-290044D01*
X427364Y-290000D01*
X427364Y220000D01*
X427357Y220066D01*
X427360Y220133D01*
X427338Y220260D01*
X427324Y220388D01*
X427304Y220451D01*
X427293Y220517D01*
X427245Y220636D01*
X427206Y220759D01*
X427174Y220817D01*
X427149Y220879D01*
X427078Y220986D01*
X427015Y221099D01*
X426971Y221149D01*
X426935Y221205D01*
X426844Y221296D01*
X426759Y221393D01*
X426706Y221433D01*
X426659Y221480D01*
X426551Y221550D01*
X426448Y221628D01*
X426388Y221656D01*
X426332Y221693D01*
X426212Y221740D01*
X426096Y221795D01*
X426031Y221811D01*
X425969Y221835D01*
X425883Y221847D01*
X425717Y221887D01*
X425547Y221892D01*
X425460Y221904D01*
X81904Y221904D01*
X81904Y310460D01*
X81897Y310526D01*
X81900Y310593D01*
X81878Y310720D01*
X81864Y310848D01*
X81844Y310911D01*
X81833Y310977D01*
X81785Y311096D01*
X81746Y311219D01*
X81714Y311277D01*
X81689Y311339D01*
X81618Y311446D01*
X81555Y311559D01*
X81511Y311609D01*
X81475Y311665D01*
X81384Y311756D01*
X81299Y311853D01*
X81246Y311893D01*
X81199Y311940D01*
X81091Y312010D01*
X80988Y312088D01*
X80928Y312116D01*
X80872Y312153D01*
X80752Y312200D01*
X80636Y312255D01*
X80571Y312271D01*
X80509Y312295D01*
X80423Y312307D01*
X80257Y312347D01*
X80087Y312352D01*
X80000Y312364D01*
X-380000Y312364D01*
X-380063Y312358D01*
X-380107Y312361D01*
X-385197Y312075D01*
X-385430Y312038D01*
X-385514Y312031D01*
X-395438Y309765D01*
X-395807Y309640D01*
X-395826Y309629D01*
X-395841Y309625D01*
X-405012Y305208D01*
X-405344Y305004D01*
X-405360Y304989D01*
X-405373Y304981D01*
X-413332Y298634D01*
X-413611Y298361D01*
X-413622Y298343D01*
X-413634Y298332D01*
X-419981Y290373D01*
X-420127Y290146D01*
X-420145Y290122D01*
X-420153Y290105D01*
X-420191Y290045D01*
X-420199Y290025D01*
X-420208Y290012D01*
X-424625Y280841D01*
X-424757Y280474D01*
X-424760Y280453D01*
X-424765Y280438D01*
X-427031Y270514D01*
X-427041Y270430D01*
X-427061Y270349D01*
X-427064Y270257D01*
X-427075Y270197D01*
X-427361Y265107D01*
X-427358Y265044D01*
X-427364Y265000D01*
X-427364Y-290000D01*
X-427358Y-290063D01*
X-427361Y-290107D01*
X-427075Y-295197D01*
X-427038Y-295430D01*
X-427031Y-295514D01*
X-424765Y-305438D01*
X-424753Y-305476D01*
X-424747Y-305509D01*
X-424710Y-305602D01*
X-424640Y-305807D01*
X-424629Y-305826D01*
X-424625Y-305841D01*
X-420208Y-315012D01*
X-420004Y-315344D01*
X-419989Y-315360D01*
X-419981Y-315373D01*
X-413634Y-323332D01*
X-413632Y-323334D01*
X-413632Y-323335D01*
X-413620Y-323346D01*
X-413361Y-323611D01*
X-413343Y-323622D01*
X-413332Y-323634D01*
X-405373Y-329981D01*
X-405045Y-330191D01*
X-405025Y-330199D01*
X-405012Y-330208D01*
X-395841Y-334625D01*
X-395474Y-334757D01*
X-395453Y-334760D01*
X-395438Y-334765D01*
X-385514Y-337031D01*
X-385280Y-337059D01*
X-385197Y-337075D01*
X-380107Y-337361D01*
X-380044Y-337358D01*
X-380000Y-337364D01*
X380000Y-337364D01*
X380063Y-337358D01*
G37*
%LPC*%
G36*
X8533Y-61041D02*
X8533Y-61041D01*
X6459Y-58967D01*
X6459Y-58145D01*
X6456Y-58112D01*
X6458Y-58079D01*
X6436Y-57919D01*
X6419Y-57758D01*
X6409Y-57726D01*
X6405Y-57693D01*
X6350Y-57540D01*
X6301Y-57386D01*
X6285Y-57357D01*
X6274Y-57326D01*
X6190Y-57188D01*
X6110Y-57046D01*
X6088Y-57021D01*
X6071Y-56993D01*
X5960Y-56875D01*
X5854Y-56753D01*
X5827Y-56733D01*
X5805Y-56708D01*
X5672Y-56615D01*
X5543Y-56517D01*
X5513Y-56503D01*
X5486Y-56484D01*
X5337Y-56420D01*
X5191Y-56350D01*
X5159Y-56343D01*
X5128Y-56329D01*
X4969Y-56297D01*
X4812Y-56259D01*
X4779Y-56257D01*
X4746Y-56251D01*
X4584Y-56251D01*
X4422Y-56246D01*
X4390Y-56251D01*
X4356Y-56251D01*
X4198Y-56285D01*
X4038Y-56312D01*
X4008Y-56325D01*
X3975Y-56332D01*
X3826Y-56397D01*
X3676Y-56456D01*
X3648Y-56474D01*
X3618Y-56488D01*
X3551Y-56538D01*
X3351Y-56670D01*
X3267Y-56755D01*
X3208Y-56799D01*
X1467Y-58541D01*
X-1467Y-58541D01*
X-3541Y-56467D01*
X-3541Y-53533D01*
X-3323Y-53315D01*
X-3281Y-53264D01*
X-3232Y-53218D01*
X-3158Y-53113D01*
X-3077Y-53013D01*
X-3046Y-52954D01*
X-3008Y-52900D01*
X-2957Y-52782D01*
X-2898Y-52667D01*
X-2880Y-52603D01*
X-2853Y-52542D01*
X-2827Y-52416D01*
X-2793Y-52292D01*
X-2788Y-52225D01*
X-2775Y-52160D01*
X-2775Y-52031D01*
X-2766Y-51903D01*
X-2775Y-51837D01*
X-2775Y-51770D01*
X-2802Y-51644D01*
X-2820Y-51516D01*
X-2842Y-51454D01*
X-2855Y-51389D01*
X-2907Y-51271D01*
X-2950Y-51149D01*
X-2985Y-51093D01*
X-3012Y-51032D01*
X-3065Y-50962D01*
X-3153Y-50817D01*
X-3270Y-50692D01*
X-3323Y-50622D01*
X-5232Y-48713D01*
X-7347Y-46598D01*
X-7424Y-46536D01*
X-7494Y-46465D01*
X-7575Y-46413D01*
X-7649Y-46353D01*
X-7737Y-46307D01*
X-7821Y-46252D01*
X-7910Y-46217D01*
X-7995Y-46173D01*
X-8091Y-46146D01*
X-8184Y-46110D01*
X-8256Y-46100D01*
X-8371Y-46068D01*
X-8611Y-46052D01*
X-8693Y-46041D01*
X-11467Y-46041D01*
X-13541Y-43967D01*
X-13541Y-41033D01*
X-11467Y-38959D01*
X-8810Y-38959D01*
X-8744Y-38952D01*
X-8677Y-38955D01*
X-8550Y-38933D01*
X-8422Y-38919D01*
X-8359Y-38899D01*
X-8293Y-38888D01*
X-8174Y-38840D01*
X-8051Y-38801D01*
X-7993Y-38769D01*
X-7931Y-38744D01*
X-7824Y-38673D01*
X-7711Y-38610D01*
X-7661Y-38566D01*
X-7605Y-38530D01*
X-7514Y-38439D01*
X-7417Y-38354D01*
X-7377Y-38301D01*
X-7330Y-38254D01*
X-7260Y-38146D01*
X-7182Y-38043D01*
X-7154Y-37983D01*
X-7117Y-37927D01*
X-7070Y-37807D01*
X-7015Y-37691D01*
X-6999Y-37626D01*
X-6975Y-37564D01*
X-6963Y-37478D01*
X-6923Y-37312D01*
X-6918Y-37142D01*
X-6906Y-37055D01*
X-6906Y-22945D01*
X-6913Y-22879D01*
X-6910Y-22812D01*
X-6932Y-22685D01*
X-6946Y-22557D01*
X-6966Y-22494D01*
X-6977Y-22428D01*
X-7025Y-22309D01*
X-7064Y-22186D01*
X-7096Y-22128D01*
X-7121Y-22066D01*
X-7192Y-21959D01*
X-7255Y-21846D01*
X-7299Y-21796D01*
X-7335Y-21740D01*
X-7426Y-21649D01*
X-7511Y-21552D01*
X-7564Y-21512D01*
X-7611Y-21465D01*
X-7719Y-21395D01*
X-7822Y-21317D01*
X-7882Y-21289D01*
X-7938Y-21252D01*
X-8058Y-21205D01*
X-8174Y-21150D01*
X-8239Y-21134D01*
X-8301Y-21110D01*
X-8387Y-21098D01*
X-8553Y-21058D01*
X-8723Y-21053D01*
X-8810Y-21041D01*
X-11467Y-21041D01*
X-13541Y-18967D01*
X-13541Y-16033D01*
X-11467Y-13959D01*
X-8810Y-13959D01*
X-8744Y-13952D01*
X-8677Y-13955D01*
X-8550Y-13933D01*
X-8422Y-13919D01*
X-8359Y-13899D01*
X-8293Y-13888D01*
X-8174Y-13840D01*
X-8051Y-13801D01*
X-7993Y-13769D01*
X-7931Y-13744D01*
X-7824Y-13673D01*
X-7711Y-13610D01*
X-7661Y-13566D01*
X-7605Y-13530D01*
X-7514Y-13439D01*
X-7417Y-13354D01*
X-7377Y-13301D01*
X-7330Y-13254D01*
X-7260Y-13146D01*
X-7182Y-13043D01*
X-7154Y-12983D01*
X-7117Y-12927D01*
X-7070Y-12807D01*
X-7015Y-12691D01*
X-6999Y-12626D01*
X-6975Y-12564D01*
X-6963Y-12478D01*
X-6923Y-12312D01*
X-6918Y-12142D01*
X-6906Y-12055D01*
X-6906Y-7828D01*
X-6916Y-7729D01*
X-6916Y-7630D01*
X-6936Y-7536D01*
X-6946Y-7440D01*
X-6976Y-7346D01*
X-6996Y-7248D01*
X-7035Y-7160D01*
X-7064Y-7069D01*
X-7113Y-6982D01*
X-7152Y-6891D01*
X-7197Y-6833D01*
X-7255Y-6729D01*
X-7413Y-6548D01*
X-7463Y-6482D01*
X-117229Y103283D01*
X-117254Y103304D01*
X-117276Y103329D01*
X-117405Y103427D01*
X-117531Y103529D01*
X-117560Y103545D01*
X-117587Y103565D01*
X-117733Y103634D01*
X-117877Y103709D01*
X-117909Y103718D01*
X-117939Y103732D01*
X-118096Y103770D01*
X-118252Y103814D01*
X-118286Y103816D01*
X-118318Y103824D01*
X-118480Y103829D01*
X-118641Y103840D01*
X-118674Y103835D01*
X-118708Y103837D01*
X-118867Y103809D01*
X-119027Y103787D01*
X-119059Y103775D01*
X-119092Y103770D01*
X-119242Y103710D01*
X-119395Y103656D01*
X-119423Y103638D01*
X-119454Y103626D01*
X-119589Y103537D01*
X-119727Y103453D01*
X-119752Y103430D01*
X-119780Y103412D01*
X-119894Y103297D01*
X-120012Y103186D01*
X-120031Y103159D01*
X-120055Y103136D01*
X-120143Y103000D01*
X-120236Y102868D01*
X-120249Y102837D01*
X-120268Y102809D01*
X-120327Y102658D01*
X-120391Y102510D01*
X-120398Y102477D01*
X-120410Y102446D01*
X-120421Y102364D01*
X-120470Y102128D01*
X-120469Y102009D01*
X-120479Y101937D01*
X-120479Y100806D01*
X-121929Y97307D01*
X-124607Y94629D01*
X-128106Y93179D01*
X-131894Y93179D01*
X-135393Y94629D01*
X-138071Y97307D01*
X-139521Y100806D01*
X-139521Y104594D01*
X-138071Y108093D01*
X-135393Y110771D01*
X-131894Y112221D01*
X-128106Y112221D01*
X-124607Y110771D01*
X-123907Y110071D01*
X-123881Y110050D01*
X-123859Y110025D01*
X-123730Y109927D01*
X-123604Y109825D01*
X-123575Y109810D01*
X-123548Y109789D01*
X-123402Y109720D01*
X-123258Y109646D01*
X-123226Y109637D01*
X-123196Y109622D01*
X-123039Y109584D01*
X-122883Y109541D01*
X-122849Y109538D01*
X-122817Y109531D01*
X-122655Y109525D01*
X-122494Y109514D01*
X-122461Y109519D01*
X-122427Y109518D01*
X-122268Y109545D01*
X-122108Y109568D01*
X-122076Y109579D01*
X-122043Y109584D01*
X-121893Y109644D01*
X-121740Y109698D01*
X-121712Y109716D01*
X-121681Y109728D01*
X-121546Y109817D01*
X-121408Y109901D01*
X-121383Y109924D01*
X-121355Y109942D01*
X-121241Y110057D01*
X-121123Y110168D01*
X-121104Y110195D01*
X-121080Y110219D01*
X-120992Y110354D01*
X-120899Y110487D01*
X-120885Y110517D01*
X-120867Y110545D01*
X-120808Y110696D01*
X-120744Y110844D01*
X-120737Y110877D01*
X-120725Y110908D01*
X-120714Y110990D01*
X-120665Y111226D01*
X-120666Y111345D01*
X-120656Y111417D01*
X-120656Y112172D01*
X-120666Y112271D01*
X-120666Y112370D01*
X-120686Y112464D01*
X-120696Y112560D01*
X-120726Y112654D01*
X-120746Y112752D01*
X-120785Y112840D01*
X-120814Y112931D01*
X-120863Y113018D01*
X-120902Y113109D01*
X-120947Y113167D01*
X-121005Y113271D01*
X-121163Y113452D01*
X-121213Y113518D01*
X-179459Y171763D01*
X-179484Y171784D01*
X-179506Y171809D01*
X-179635Y171907D01*
X-179761Y172009D01*
X-179790Y172025D01*
X-179817Y172045D01*
X-179963Y172114D01*
X-180107Y172189D01*
X-180139Y172198D01*
X-180169Y172212D01*
X-180326Y172250D01*
X-180482Y172294D01*
X-180516Y172296D01*
X-180548Y172304D01*
X-180710Y172309D01*
X-180871Y172320D01*
X-180904Y172315D01*
X-180938Y172317D01*
X-181097Y172289D01*
X-181257Y172267D01*
X-181289Y172255D01*
X-181322Y172250D01*
X-181472Y172190D01*
X-181625Y172136D01*
X-181653Y172118D01*
X-181684Y172106D01*
X-181819Y172017D01*
X-181957Y171933D01*
X-181982Y171910D01*
X-182010Y171892D01*
X-182124Y171777D01*
X-182242Y171666D01*
X-182261Y171639D01*
X-182285Y171616D01*
X-182373Y171480D01*
X-182466Y171348D01*
X-182479Y171317D01*
X-182498Y171289D01*
X-182557Y171138D01*
X-182621Y170990D01*
X-182628Y170957D01*
X-182640Y170926D01*
X-182651Y170844D01*
X-182700Y170608D01*
X-182699Y170489D01*
X-182709Y170417D01*
X-182709Y168533D01*
X-184783Y166459D01*
X-187717Y166459D01*
X-189791Y168533D01*
X-189791Y171467D01*
X-187664Y173593D01*
X-187643Y173619D01*
X-187618Y173641D01*
X-187520Y173770D01*
X-187418Y173896D01*
X-187403Y173925D01*
X-187382Y173952D01*
X-187313Y174098D01*
X-187239Y174242D01*
X-187230Y174274D01*
X-187215Y174304D01*
X-187177Y174461D01*
X-187134Y174617D01*
X-187131Y174651D01*
X-187124Y174683D01*
X-187118Y174845D01*
X-187107Y175006D01*
X-187112Y175039D01*
X-187111Y175073D01*
X-187138Y175232D01*
X-187161Y175392D01*
X-187172Y175424D01*
X-187177Y175457D01*
X-187237Y175607D01*
X-187291Y175760D01*
X-187309Y175788D01*
X-187321Y175819D01*
X-187410Y175954D01*
X-187494Y176092D01*
X-187517Y176117D01*
X-187535Y176145D01*
X-187650Y176259D01*
X-187761Y176377D01*
X-187788Y176396D01*
X-187812Y176420D01*
X-187947Y176508D01*
X-188080Y176601D01*
X-188110Y176614D01*
X-188138Y176633D01*
X-188289Y176692D01*
X-188437Y176756D01*
X-188470Y176763D01*
X-188501Y176775D01*
X-188583Y176786D01*
X-188819Y176835D01*
X-188938Y176834D01*
X-189010Y176844D01*
X-195789Y176844D01*
X-206906Y187961D01*
X-206906Y217172D01*
X-206916Y217271D01*
X-206916Y217370D01*
X-206936Y217464D01*
X-206946Y217560D01*
X-206976Y217654D01*
X-206996Y217752D01*
X-207035Y217840D01*
X-207064Y217931D01*
X-207113Y218018D01*
X-207152Y218109D01*
X-207197Y218167D01*
X-207255Y218271D01*
X-207413Y218452D01*
X-207463Y218518D01*
X-209646Y220701D01*
X-209710Y220753D01*
X-209768Y220813D01*
X-209861Y220876D01*
X-209948Y220947D01*
X-210022Y220985D01*
X-210091Y221032D01*
X-210195Y221074D01*
X-210294Y221126D01*
X-210374Y221148D01*
X-210451Y221180D01*
X-210562Y221201D01*
X-210670Y221231D01*
X-210753Y221237D01*
X-210834Y221252D01*
X-210947Y221250D01*
X-211059Y221257D01*
X-211141Y221246D01*
X-211224Y221244D01*
X-211303Y221224D01*
X-211445Y221204D01*
X-211635Y221136D01*
X-211721Y221114D01*
X-211732Y221109D01*
X-215269Y221109D01*
X-218536Y222463D01*
X-221037Y224964D01*
X-222391Y228231D01*
X-222391Y231769D01*
X-221037Y235036D01*
X-218536Y237537D01*
X-215269Y238891D01*
X-211731Y238891D01*
X-208464Y237537D01*
X-205963Y235036D01*
X-204609Y231769D01*
X-204609Y228231D01*
X-205968Y224951D01*
X-205985Y224935D01*
X-206059Y224830D01*
X-206140Y224730D01*
X-206171Y224671D01*
X-206209Y224617D01*
X-206260Y224498D01*
X-206319Y224384D01*
X-206337Y224320D01*
X-206364Y224259D01*
X-206390Y224132D01*
X-206424Y224008D01*
X-206429Y223942D01*
X-206442Y223877D01*
X-206442Y223748D01*
X-206451Y223620D01*
X-206442Y223554D01*
X-206442Y223487D01*
X-206415Y223361D01*
X-206397Y223233D01*
X-206375Y223171D01*
X-206361Y223106D01*
X-206310Y222988D01*
X-206267Y222866D01*
X-206232Y222810D01*
X-206205Y222749D01*
X-206152Y222679D01*
X-206064Y222533D01*
X-205947Y222409D01*
X-205894Y222339D01*
X-203094Y219539D01*
X-203094Y190328D01*
X-203084Y190229D01*
X-203084Y190130D01*
X-203064Y190036D01*
X-203054Y189940D01*
X-203024Y189846D01*
X-203004Y189748D01*
X-202965Y189660D01*
X-202936Y189569D01*
X-202887Y189482D01*
X-202848Y189391D01*
X-202803Y189333D01*
X-202745Y189229D01*
X-202587Y189048D01*
X-202537Y188982D01*
X-194768Y181213D01*
X-194691Y181151D01*
X-194621Y181080D01*
X-194540Y181028D01*
X-194466Y180968D01*
X-194378Y180922D01*
X-194294Y180867D01*
X-194205Y180832D01*
X-194120Y180788D01*
X-194024Y180761D01*
X-193931Y180725D01*
X-193859Y180715D01*
X-193744Y180683D01*
X-193504Y180667D01*
X-193422Y180656D01*
X-190260Y180656D01*
X-190227Y180659D01*
X-190194Y180657D01*
X-190033Y180679D01*
X-189873Y180696D01*
X-189841Y180706D01*
X-189808Y180710D01*
X-189655Y180765D01*
X-189501Y180814D01*
X-189472Y180830D01*
X-189441Y180841D01*
X-189302Y180926D01*
X-189161Y181005D01*
X-189136Y181027D01*
X-189108Y181044D01*
X-188990Y181155D01*
X-188868Y181261D01*
X-188848Y181288D01*
X-188823Y181311D01*
X-188730Y181443D01*
X-188632Y181572D01*
X-188618Y181602D01*
X-188599Y181629D01*
X-188535Y181778D01*
X-188465Y181924D01*
X-188458Y181956D01*
X-188444Y181987D01*
X-188412Y182146D01*
X-188374Y182303D01*
X-188372Y182336D01*
X-188366Y182369D01*
X-188366Y182531D01*
X-188361Y182693D01*
X-188366Y182725D01*
X-188366Y182759D01*
X-188400Y182917D01*
X-188427Y183077D01*
X-188440Y183108D01*
X-188447Y183140D01*
X-188511Y183288D01*
X-188568Y183432D01*
X-188581Y183553D01*
X-188601Y183616D01*
X-188612Y183682D01*
X-188660Y183801D01*
X-188699Y183924D01*
X-188731Y183982D01*
X-188756Y184044D01*
X-188827Y184151D01*
X-188890Y184264D01*
X-188934Y184314D01*
X-188970Y184370D01*
X-189061Y184461D01*
X-189146Y184558D01*
X-189199Y184598D01*
X-189246Y184645D01*
X-189354Y184715D01*
X-189457Y184793D01*
X-189517Y184821D01*
X-189573Y184858D01*
X-189693Y184905D01*
X-189809Y184960D01*
X-189874Y184976D01*
X-189936Y185000D01*
X-190022Y185012D01*
X-190188Y185052D01*
X-190358Y185057D01*
X-190445Y185069D01*
X-191013Y185069D01*
X-192591Y185723D01*
X-193797Y186929D01*
X-194451Y188507D01*
X-194451Y190213D01*
X-193797Y191791D01*
X-192591Y192997D01*
X-191013Y193651D01*
X-189307Y193651D01*
X-187729Y192997D01*
X-186523Y191791D01*
X-185838Y190137D01*
X-185829Y190057D01*
X-185809Y189994D01*
X-185798Y189928D01*
X-185750Y189809D01*
X-185711Y189686D01*
X-185679Y189628D01*
X-185654Y189566D01*
X-185583Y189459D01*
X-185520Y189346D01*
X-185476Y189296D01*
X-185440Y189240D01*
X-185349Y189149D01*
X-185264Y189052D01*
X-185211Y189012D01*
X-185164Y188965D01*
X-185056Y188895D01*
X-184953Y188817D01*
X-184893Y188789D01*
X-184837Y188752D01*
X-184717Y188705D01*
X-184601Y188650D01*
X-184536Y188634D01*
X-184474Y188610D01*
X-184388Y188598D01*
X-184222Y188558D01*
X-184052Y188553D01*
X-183965Y188541D01*
X-183810Y188541D01*
X-183744Y188548D01*
X-183677Y188545D01*
X-183550Y188567D01*
X-183422Y188581D01*
X-183359Y188601D01*
X-183293Y188612D01*
X-183174Y188660D01*
X-183051Y188699D01*
X-182993Y188731D01*
X-182931Y188756D01*
X-182824Y188827D01*
X-182711Y188890D01*
X-182661Y188934D01*
X-182605Y188970D01*
X-182514Y189061D01*
X-182417Y189146D01*
X-182377Y189199D01*
X-182330Y189246D01*
X-182260Y189354D01*
X-182182Y189457D01*
X-182154Y189517D01*
X-182117Y189573D01*
X-182070Y189693D01*
X-182015Y189809D01*
X-181999Y189874D01*
X-181975Y189936D01*
X-181963Y190022D01*
X-181923Y190188D01*
X-181918Y190358D01*
X-181906Y190445D01*
X-181906Y210789D01*
X-170331Y222364D01*
X-170289Y222416D01*
X-170240Y222461D01*
X-170166Y222567D01*
X-170085Y222667D01*
X-170054Y222726D01*
X-170016Y222780D01*
X-169965Y222898D01*
X-169906Y223013D01*
X-169888Y223077D01*
X-169861Y223138D01*
X-169835Y223264D01*
X-169801Y223388D01*
X-169796Y223455D01*
X-169783Y223520D01*
X-169783Y223649D01*
X-169774Y223777D01*
X-169783Y223843D01*
X-169783Y223909D01*
X-169810Y224036D01*
X-169828Y224163D01*
X-169850Y224226D01*
X-169864Y224291D01*
X-169915Y224409D01*
X-169958Y224530D01*
X-169993Y224587D01*
X-170020Y224648D01*
X-170073Y224718D01*
X-170161Y224863D01*
X-170223Y224929D01*
X-171591Y228231D01*
X-171591Y231769D01*
X-170237Y235036D01*
X-167736Y237537D01*
X-164469Y238891D01*
X-160931Y238891D01*
X-157664Y237537D01*
X-155163Y235036D01*
X-153809Y231769D01*
X-153809Y228231D01*
X-155163Y224964D01*
X-157664Y222463D01*
X-160931Y221109D01*
X-164468Y221109D01*
X-164514Y221128D01*
X-164594Y221152D01*
X-164670Y221185D01*
X-164780Y221208D01*
X-164888Y221240D01*
X-164970Y221247D01*
X-165052Y221264D01*
X-165164Y221263D01*
X-165276Y221273D01*
X-165358Y221263D01*
X-165442Y221263D01*
X-165552Y221240D01*
X-165663Y221226D01*
X-165742Y221200D01*
X-165823Y221183D01*
X-165926Y221138D01*
X-166032Y221102D01*
X-166104Y221060D01*
X-166180Y221027D01*
X-166245Y220977D01*
X-166369Y220905D01*
X-166518Y220769D01*
X-166589Y220715D01*
X-177537Y209768D01*
X-177599Y209691D01*
X-177670Y209621D01*
X-177722Y209540D01*
X-177782Y209466D01*
X-177828Y209378D01*
X-177883Y209294D01*
X-177918Y209205D01*
X-177962Y209120D01*
X-177989Y209024D01*
X-178025Y208931D01*
X-178035Y208859D01*
X-178067Y208744D01*
X-178083Y208504D01*
X-178094Y208422D01*
X-178094Y185328D01*
X-178084Y185229D01*
X-178084Y185130D01*
X-178064Y185036D01*
X-178054Y184940D01*
X-178024Y184846D01*
X-178004Y184748D01*
X-177965Y184660D01*
X-177936Y184569D01*
X-177887Y184482D01*
X-177848Y184391D01*
X-177803Y184333D01*
X-177745Y184229D01*
X-177587Y184048D01*
X-177537Y183982D01*
X-113094Y119539D01*
X-113094Y109078D01*
X-113084Y108979D01*
X-113084Y108880D01*
X-113064Y108786D01*
X-113054Y108690D01*
X-113024Y108596D01*
X-113004Y108498D01*
X-112965Y108410D01*
X-112936Y108319D01*
X-112887Y108232D01*
X-112848Y108141D01*
X-112803Y108083D01*
X-112745Y107979D01*
X-112587Y107798D01*
X-112537Y107732D01*
X-67656Y62852D01*
X-67631Y62831D01*
X-67609Y62806D01*
X-67480Y62708D01*
X-67354Y62606D01*
X-67325Y62590D01*
X-67298Y62570D01*
X-67152Y62501D01*
X-67008Y62426D01*
X-66976Y62417D01*
X-66946Y62403D01*
X-66789Y62365D01*
X-66633Y62321D01*
X-66599Y62319D01*
X-66567Y62311D01*
X-66405Y62306D01*
X-66244Y62295D01*
X-66211Y62300D01*
X-66177Y62298D01*
X-66018Y62326D01*
X-65858Y62348D01*
X-65826Y62360D01*
X-65793Y62365D01*
X-65643Y62425D01*
X-65490Y62479D01*
X-65462Y62497D01*
X-65431Y62509D01*
X-65296Y62598D01*
X-65158Y62682D01*
X-65133Y62705D01*
X-65105Y62723D01*
X-64991Y62838D01*
X-64873Y62949D01*
X-64854Y62976D01*
X-64830Y62999D01*
X-64742Y63135D01*
X-64649Y63267D01*
X-64636Y63298D01*
X-64617Y63326D01*
X-64558Y63477D01*
X-64494Y63625D01*
X-64487Y63658D01*
X-64475Y63689D01*
X-64464Y63771D01*
X-64415Y64007D01*
X-64416Y64126D01*
X-64406Y64198D01*
X-64406Y77039D01*
X-60127Y81319D01*
X-60085Y81370D01*
X-60036Y81416D01*
X-59962Y81521D01*
X-59881Y81621D01*
X-59850Y81680D01*
X-59812Y81734D01*
X-59761Y81853D01*
X-59701Y81967D01*
X-59683Y82031D01*
X-59657Y82092D01*
X-59631Y82218D01*
X-59596Y82342D01*
X-59592Y82409D01*
X-59578Y82474D01*
X-59579Y82603D01*
X-59570Y82731D01*
X-59579Y82797D01*
X-59579Y82864D01*
X-59606Y82990D01*
X-59623Y83118D01*
X-59646Y83180D01*
X-59659Y83245D01*
X-59711Y83363D01*
X-59754Y83485D01*
X-59789Y83541D01*
X-59815Y83602D01*
X-59869Y83672D01*
X-59957Y83817D01*
X-60074Y83942D01*
X-60127Y84012D01*
X-60434Y84319D01*
X-61088Y85897D01*
X-61088Y87603D01*
X-60434Y89181D01*
X-59227Y90387D01*
X-57650Y91041D01*
X-55943Y91041D01*
X-54366Y90387D01*
X-53159Y89181D01*
X-52506Y87603D01*
X-52506Y85809D01*
X-52501Y85760D01*
X-52504Y85710D01*
X-52481Y85566D01*
X-52466Y85422D01*
X-52451Y85374D01*
X-52444Y85325D01*
X-52392Y85189D01*
X-52348Y85050D01*
X-52324Y85007D01*
X-52306Y84960D01*
X-52228Y84837D01*
X-52157Y84710D01*
X-52124Y84673D01*
X-52098Y84631D01*
X-51996Y84526D01*
X-51901Y84417D01*
X-51861Y84387D01*
X-51826Y84351D01*
X-51706Y84269D01*
X-51590Y84181D01*
X-51545Y84160D01*
X-51504Y84132D01*
X-51369Y84077D01*
X-51238Y84014D01*
X-51190Y84003D01*
X-51143Y83984D01*
X-51000Y83957D01*
X-50859Y83922D01*
X-50809Y83921D01*
X-50760Y83912D01*
X-50615Y83914D01*
X-50469Y83910D01*
X-50420Y83918D01*
X-50370Y83919D01*
X-50284Y83942D01*
X-50085Y83976D01*
X-49952Y84029D01*
X-49873Y84050D01*
X-48688Y84541D01*
X-46982Y84541D01*
X-45404Y83887D01*
X-44198Y82681D01*
X-43544Y81103D01*
X-43544Y79397D01*
X-44198Y77819D01*
X-45404Y76613D01*
X-46982Y75959D01*
X-48688Y75959D01*
X-50266Y76613D01*
X-51472Y77819D01*
X-52127Y79400D01*
X-52149Y79559D01*
X-52166Y79720D01*
X-52176Y79751D01*
X-52180Y79784D01*
X-52235Y79937D01*
X-52284Y80091D01*
X-52300Y80120D01*
X-52311Y80151D01*
X-52395Y80290D01*
X-52475Y80431D01*
X-52497Y80456D01*
X-52514Y80484D01*
X-52625Y80603D01*
X-52731Y80724D01*
X-52758Y80744D01*
X-52780Y80769D01*
X-52913Y80862D01*
X-53042Y80960D01*
X-53072Y80974D01*
X-53099Y80993D01*
X-53248Y81057D01*
X-53394Y81127D01*
X-53426Y81135D01*
X-53457Y81148D01*
X-53616Y81181D01*
X-53773Y81219D01*
X-53806Y81220D01*
X-53839Y81227D01*
X-54001Y81226D01*
X-54163Y81232D01*
X-54195Y81226D01*
X-54229Y81226D01*
X-54387Y81192D01*
X-54547Y81165D01*
X-54577Y81152D01*
X-54610Y81146D01*
X-54759Y81081D01*
X-54909Y81021D01*
X-54937Y81003D01*
X-54967Y80990D01*
X-55034Y80939D01*
X-55234Y80807D01*
X-55318Y80723D01*
X-55376Y80678D01*
X-60037Y76018D01*
X-60099Y75941D01*
X-60170Y75871D01*
X-60222Y75790D01*
X-60282Y75716D01*
X-60328Y75628D01*
X-60383Y75544D01*
X-60418Y75455D01*
X-60462Y75370D01*
X-60489Y75274D01*
X-60525Y75181D01*
X-60535Y75109D01*
X-60567Y74994D01*
X-60583Y74754D01*
X-60594Y74672D01*
X-60594Y66578D01*
X-60584Y66479D01*
X-60584Y66380D01*
X-60564Y66286D01*
X-60554Y66190D01*
X-60524Y66096D01*
X-60504Y65998D01*
X-60465Y65910D01*
X-60436Y65819D01*
X-60387Y65732D01*
X-60348Y65641D01*
X-60303Y65583D01*
X-60245Y65479D01*
X-60087Y65298D01*
X-60037Y65232D01*
X44847Y-39652D01*
X44924Y-39714D01*
X44994Y-39785D01*
X45075Y-39837D01*
X45149Y-39897D01*
X45237Y-39943D01*
X45321Y-39998D01*
X45410Y-40033D01*
X45495Y-40077D01*
X45591Y-40104D01*
X45684Y-40140D01*
X45756Y-40150D01*
X45871Y-40182D01*
X46111Y-40198D01*
X46193Y-40209D01*
X47717Y-40209D01*
X49791Y-42283D01*
X49791Y-45217D01*
X47717Y-47291D01*
X44783Y-47291D01*
X42709Y-45217D01*
X42709Y-43693D01*
X42699Y-43594D01*
X42699Y-43495D01*
X42679Y-43401D01*
X42669Y-43305D01*
X42639Y-43211D01*
X42619Y-43113D01*
X42580Y-43025D01*
X42551Y-42934D01*
X42502Y-42847D01*
X42463Y-42756D01*
X42418Y-42698D01*
X42360Y-42594D01*
X42202Y-42413D01*
X42152Y-42347D01*
X5156Y-5352D01*
X5131Y-5331D01*
X5109Y-5306D01*
X4980Y-5208D01*
X4854Y-5106D01*
X4825Y-5090D01*
X4798Y-5070D01*
X4652Y-5001D01*
X4508Y-4926D01*
X4476Y-4917D01*
X4446Y-4903D01*
X4289Y-4865D01*
X4133Y-4821D01*
X4099Y-4819D01*
X4067Y-4811D01*
X3905Y-4806D01*
X3744Y-4795D01*
X3711Y-4800D01*
X3677Y-4798D01*
X3518Y-4826D01*
X3358Y-4848D01*
X3326Y-4860D01*
X3293Y-4865D01*
X3143Y-4925D01*
X2990Y-4979D01*
X2962Y-4997D01*
X2931Y-5009D01*
X2796Y-5098D01*
X2658Y-5182D01*
X2633Y-5205D01*
X2605Y-5223D01*
X2491Y-5338D01*
X2373Y-5449D01*
X2354Y-5476D01*
X2330Y-5499D01*
X2242Y-5635D01*
X2149Y-5767D01*
X2136Y-5798D01*
X2117Y-5826D01*
X2058Y-5977D01*
X1994Y-6125D01*
X1987Y-6158D01*
X1975Y-6189D01*
X1964Y-6271D01*
X1915Y-6507D01*
X1916Y-6626D01*
X1906Y-6698D01*
X1906Y-41110D01*
X1916Y-41209D01*
X1916Y-41308D01*
X1936Y-41402D01*
X1946Y-41497D01*
X1976Y-41592D01*
X1996Y-41690D01*
X2035Y-41777D01*
X2064Y-41869D01*
X2113Y-41956D01*
X2152Y-42047D01*
X2197Y-42105D01*
X2255Y-42209D01*
X2413Y-42390D01*
X2463Y-42456D01*
X3541Y-43533D01*
X3541Y-46467D01*
X2073Y-47935D01*
X2031Y-47986D01*
X1982Y-48032D01*
X1908Y-48137D01*
X1827Y-48237D01*
X1796Y-48296D01*
X1758Y-48350D01*
X1707Y-48469D01*
X1648Y-48583D01*
X1630Y-48647D01*
X1603Y-48708D01*
X1577Y-48834D01*
X1543Y-48958D01*
X1538Y-49025D01*
X1525Y-49090D01*
X1525Y-49219D01*
X1516Y-49347D01*
X1525Y-49413D01*
X1525Y-49480D01*
X1552Y-49606D01*
X1570Y-49734D01*
X1592Y-49796D01*
X1606Y-49861D01*
X1657Y-49979D01*
X1700Y-50101D01*
X1735Y-50157D01*
X1762Y-50218D01*
X1815Y-50288D01*
X1903Y-50434D01*
X1906Y-50436D01*
X1906Y-51110D01*
X1916Y-51209D01*
X1916Y-51308D01*
X1936Y-51402D01*
X1946Y-51497D01*
X1976Y-51592D01*
X1996Y-51690D01*
X2035Y-51777D01*
X2064Y-51869D01*
X2113Y-51956D01*
X2152Y-52047D01*
X2197Y-52105D01*
X2255Y-52209D01*
X2413Y-52390D01*
X2463Y-52456D01*
X3541Y-53533D01*
X3541Y-54355D01*
X3544Y-54388D01*
X3542Y-54421D01*
X3564Y-54581D01*
X3581Y-54742D01*
X3591Y-54774D01*
X3595Y-54807D01*
X3650Y-54960D01*
X3699Y-55114D01*
X3715Y-55143D01*
X3726Y-55174D01*
X3810Y-55312D01*
X3890Y-55454D01*
X3912Y-55479D01*
X3929Y-55507D01*
X4040Y-55625D01*
X4146Y-55747D01*
X4173Y-55767D01*
X4195Y-55792D01*
X4328Y-55885D01*
X4457Y-55983D01*
X4487Y-55997D01*
X4514Y-56016D01*
X4663Y-56080D01*
X4809Y-56150D01*
X4841Y-56157D01*
X4872Y-56171D01*
X5031Y-56203D01*
X5188Y-56241D01*
X5221Y-56243D01*
X5254Y-56249D01*
X5416Y-56249D01*
X5578Y-56254D01*
X5610Y-56249D01*
X5644Y-56249D01*
X5802Y-56215D01*
X5962Y-56188D01*
X5992Y-56175D01*
X6025Y-56168D01*
X6174Y-56103D01*
X6324Y-56044D01*
X6352Y-56026D01*
X6382Y-56012D01*
X6449Y-55962D01*
X6649Y-55830D01*
X6733Y-55745D01*
X6792Y-55701D01*
X8533Y-53959D01*
X11467Y-53959D01*
X13541Y-56033D01*
X13541Y-58967D01*
X11467Y-61041D01*
X8533Y-61041D01*
G37*
%LPD*%
%LPC*%
G36*
X173533Y-111041D02*
X173533Y-111041D01*
X171459Y-108967D01*
X171459Y-106033D01*
X172537Y-104956D01*
X172599Y-104879D01*
X172670Y-104808D01*
X172722Y-104728D01*
X172782Y-104654D01*
X172828Y-104565D01*
X172883Y-104482D01*
X172918Y-104393D01*
X172962Y-104308D01*
X172989Y-104212D01*
X173025Y-104119D01*
X173035Y-104047D01*
X173067Y-103932D01*
X173083Y-103692D01*
X173094Y-103610D01*
X173094Y-95445D01*
X173089Y-95398D01*
X173090Y-95392D01*
X173088Y-95380D01*
X173087Y-95379D01*
X173090Y-95312D01*
X173068Y-95185D01*
X173054Y-95057D01*
X173034Y-94994D01*
X173023Y-94928D01*
X172975Y-94809D01*
X172936Y-94686D01*
X172904Y-94628D01*
X172879Y-94566D01*
X172808Y-94459D01*
X172745Y-94346D01*
X172701Y-94296D01*
X172665Y-94240D01*
X172574Y-94149D01*
X172489Y-94052D01*
X172436Y-94012D01*
X172389Y-93965D01*
X172281Y-93895D01*
X172178Y-93817D01*
X172118Y-93789D01*
X172062Y-93752D01*
X171942Y-93705D01*
X171826Y-93650D01*
X171761Y-93634D01*
X171699Y-93610D01*
X171613Y-93598D01*
X171447Y-93558D01*
X171277Y-93553D01*
X171190Y-93541D01*
X168533Y-93541D01*
X166459Y-91467D01*
X166459Y-88533D01*
X168787Y-86206D01*
X168849Y-86129D01*
X168920Y-86058D01*
X168972Y-85978D01*
X169032Y-85904D01*
X169078Y-85815D01*
X169133Y-85732D01*
X169168Y-85643D01*
X169212Y-85558D01*
X169239Y-85462D01*
X169275Y-85369D01*
X169285Y-85297D01*
X169317Y-85182D01*
X169333Y-84942D01*
X169344Y-84860D01*
X169344Y-81578D01*
X169334Y-81479D01*
X169334Y-81380D01*
X169314Y-81286D01*
X169304Y-81190D01*
X169274Y-81096D01*
X169254Y-80998D01*
X169215Y-80910D01*
X169186Y-80819D01*
X169137Y-80732D01*
X169098Y-80641D01*
X169053Y-80583D01*
X168995Y-80479D01*
X168837Y-80298D01*
X168787Y-80232D01*
X159344Y-70789D01*
X159344Y48289D01*
X171711Y60656D01*
X174860Y60656D01*
X174959Y60666D01*
X175058Y60666D01*
X175152Y60686D01*
X175247Y60696D01*
X175342Y60726D01*
X175440Y60746D01*
X175527Y60785D01*
X175619Y60814D01*
X175706Y60863D01*
X175797Y60902D01*
X175855Y60947D01*
X175959Y61005D01*
X176140Y61163D01*
X176206Y61213D01*
X177283Y62291D01*
X180217Y62291D01*
X182291Y60217D01*
X182291Y57283D01*
X180217Y55209D01*
X179195Y55209D01*
X179129Y55202D01*
X179062Y55205D01*
X178935Y55183D01*
X178807Y55169D01*
X178744Y55149D01*
X178678Y55138D01*
X178559Y55090D01*
X178436Y55051D01*
X178378Y55019D01*
X178316Y54994D01*
X178209Y54923D01*
X178096Y54860D01*
X178046Y54816D01*
X177990Y54780D01*
X177899Y54689D01*
X177802Y54604D01*
X177762Y54551D01*
X177715Y54504D01*
X177645Y54396D01*
X177567Y54293D01*
X177539Y54233D01*
X177502Y54177D01*
X177455Y54057D01*
X177400Y53941D01*
X177384Y53876D01*
X177360Y53814D01*
X177348Y53728D01*
X177308Y53562D01*
X177303Y53392D01*
X177291Y53305D01*
X177291Y52283D01*
X176213Y51206D01*
X176151Y51129D01*
X176080Y51058D01*
X176028Y50978D01*
X175968Y50904D01*
X175922Y50815D01*
X175867Y50732D01*
X175832Y50643D01*
X175788Y50558D01*
X175761Y50462D01*
X175725Y50369D01*
X175715Y50297D01*
X175683Y50182D01*
X175667Y49942D01*
X175656Y49860D01*
X175656Y39211D01*
X168713Y32268D01*
X168651Y32191D01*
X168580Y32121D01*
X168528Y32040D01*
X168468Y31966D01*
X168422Y31878D01*
X168367Y31794D01*
X168332Y31705D01*
X168288Y31620D01*
X168261Y31524D01*
X168225Y31431D01*
X168215Y31359D01*
X168183Y31244D01*
X168167Y31004D01*
X168156Y30922D01*
X168156Y-69672D01*
X168166Y-69771D01*
X168166Y-69870D01*
X168186Y-69964D01*
X168196Y-70060D01*
X168226Y-70154D01*
X168246Y-70252D01*
X168285Y-70340D01*
X168314Y-70431D01*
X168363Y-70518D01*
X168402Y-70609D01*
X168447Y-70667D01*
X168505Y-70771D01*
X168663Y-70952D01*
X168713Y-71018D01*
X176906Y-79211D01*
X176906Y-83302D01*
X176909Y-83335D01*
X176907Y-83368D01*
X176929Y-83529D01*
X176946Y-83690D01*
X176956Y-83721D01*
X176960Y-83754D01*
X177015Y-83907D01*
X177064Y-84061D01*
X177080Y-84090D01*
X177091Y-84121D01*
X177175Y-84259D01*
X177255Y-84401D01*
X177277Y-84426D01*
X177294Y-84454D01*
X177405Y-84572D01*
X177511Y-84694D01*
X177538Y-84714D01*
X177560Y-84739D01*
X177693Y-84832D01*
X177822Y-84930D01*
X177852Y-84944D01*
X177879Y-84963D01*
X178028Y-85027D01*
X178174Y-85097D01*
X178206Y-85105D01*
X178237Y-85118D01*
X178396Y-85151D01*
X178553Y-85189D01*
X178586Y-85190D01*
X178619Y-85197D01*
X178781Y-85196D01*
X178943Y-85202D01*
X178975Y-85196D01*
X179009Y-85196D01*
X179167Y-85162D01*
X179327Y-85135D01*
X179357Y-85122D01*
X179390Y-85116D01*
X179539Y-85051D01*
X179689Y-84991D01*
X179717Y-84973D01*
X179747Y-84960D01*
X179814Y-84909D01*
X180014Y-84777D01*
X180098Y-84693D01*
X180156Y-84648D01*
X205037Y-59768D01*
X205099Y-59691D01*
X205170Y-59621D01*
X205222Y-59540D01*
X205282Y-59466D01*
X205328Y-59378D01*
X205383Y-59294D01*
X205418Y-59205D01*
X205462Y-59120D01*
X205489Y-59024D01*
X205525Y-58931D01*
X205535Y-58859D01*
X205567Y-58744D01*
X205583Y-58504D01*
X205594Y-58422D01*
X205594Y15922D01*
X205584Y16021D01*
X205584Y16120D01*
X205564Y16214D01*
X205554Y16310D01*
X205524Y16404D01*
X205504Y16502D01*
X205465Y16590D01*
X205436Y16681D01*
X205387Y16768D01*
X205348Y16859D01*
X205303Y16917D01*
X205245Y17021D01*
X205087Y17202D01*
X205037Y17268D01*
X203094Y19211D01*
X203094Y22039D01*
X207652Y26597D01*
X207714Y26674D01*
X207785Y26744D01*
X207837Y26825D01*
X207897Y26899D01*
X207943Y26987D01*
X207998Y27071D01*
X208033Y27160D01*
X208077Y27245D01*
X208104Y27341D01*
X208140Y27434D01*
X208150Y27506D01*
X208182Y27621D01*
X208198Y27861D01*
X208209Y27943D01*
X208209Y29943D01*
X208863Y31521D01*
X210069Y32727D01*
X211647Y33381D01*
X213353Y33381D01*
X214931Y32727D01*
X216137Y31521D01*
X216791Y29943D01*
X216791Y28237D01*
X216112Y26598D01*
X216024Y26489D01*
X216008Y26460D01*
X215988Y26433D01*
X215919Y26287D01*
X215844Y26143D01*
X215835Y26111D01*
X215821Y26081D01*
X215783Y25924D01*
X215739Y25768D01*
X215737Y25734D01*
X215729Y25702D01*
X215724Y25540D01*
X215713Y25379D01*
X215717Y25346D01*
X215716Y25312D01*
X215744Y25153D01*
X215766Y24993D01*
X215777Y24961D01*
X215783Y24928D01*
X215843Y24778D01*
X215897Y24626D01*
X215914Y24597D01*
X215927Y24566D01*
X216015Y24431D01*
X216100Y24293D01*
X216123Y24268D01*
X216141Y24240D01*
X216256Y24126D01*
X216366Y24008D01*
X216394Y23989D01*
X216417Y23965D01*
X216553Y23877D01*
X216685Y23784D01*
X216716Y23771D01*
X216744Y23752D01*
X216894Y23693D01*
X217043Y23629D01*
X217076Y23622D01*
X217107Y23610D01*
X217189Y23599D01*
X217425Y23550D01*
X217544Y23551D01*
X217616Y23541D01*
X217717Y23541D01*
X219791Y21467D01*
X219791Y18533D01*
X217717Y16459D01*
X214783Y16459D01*
X212657Y18586D01*
X212631Y18607D01*
X212609Y18632D01*
X212480Y18730D01*
X212354Y18832D01*
X212325Y18847D01*
X212298Y18868D01*
X212152Y18937D01*
X212008Y19011D01*
X211976Y19020D01*
X211946Y19035D01*
X211789Y19073D01*
X211633Y19116D01*
X211599Y19119D01*
X211567Y19126D01*
X211405Y19132D01*
X211244Y19143D01*
X211211Y19138D01*
X211177Y19139D01*
X211018Y19112D01*
X210858Y19089D01*
X210826Y19078D01*
X210793Y19073D01*
X210643Y19013D01*
X210490Y18959D01*
X210462Y18941D01*
X210431Y18929D01*
X210296Y18840D01*
X210158Y18756D01*
X210133Y18733D01*
X210105Y18715D01*
X209991Y18600D01*
X209873Y18489D01*
X209854Y18462D01*
X209830Y18438D01*
X209742Y18303D01*
X209649Y18170D01*
X209636Y18140D01*
X209617Y18112D01*
X209558Y17961D01*
X209494Y17813D01*
X209487Y17780D01*
X209475Y17749D01*
X209464Y17667D01*
X209415Y17431D01*
X209416Y17312D01*
X209406Y17240D01*
X209406Y-60789D01*
X195823Y-74372D01*
X195781Y-74424D01*
X195732Y-74469D01*
X195658Y-74575D01*
X195577Y-74675D01*
X195546Y-74734D01*
X195508Y-74788D01*
X195457Y-74906D01*
X195398Y-75021D01*
X195380Y-75085D01*
X195353Y-75146D01*
X195327Y-75272D01*
X195293Y-75396D01*
X195288Y-75463D01*
X195275Y-75528D01*
X195275Y-75657D01*
X195266Y-75785D01*
X195275Y-75851D01*
X195275Y-75918D01*
X195302Y-76044D01*
X195320Y-76171D01*
X195342Y-76234D01*
X195355Y-76299D01*
X195407Y-76417D01*
X195450Y-76538D01*
X195485Y-76595D01*
X195512Y-76656D01*
X195565Y-76726D01*
X195653Y-76871D01*
X195770Y-76996D01*
X195823Y-77065D01*
X197291Y-78533D01*
X197291Y-81467D01*
X195217Y-83541D01*
X192283Y-83541D01*
X190815Y-82073D01*
X190764Y-82031D01*
X190718Y-81982D01*
X190613Y-81908D01*
X190513Y-81827D01*
X190454Y-81796D01*
X190400Y-81758D01*
X190281Y-81707D01*
X190167Y-81648D01*
X190103Y-81630D01*
X190042Y-81603D01*
X189916Y-81577D01*
X189792Y-81543D01*
X189725Y-81538D01*
X189660Y-81525D01*
X189531Y-81525D01*
X189403Y-81516D01*
X189337Y-81525D01*
X189270Y-81525D01*
X189144Y-81552D01*
X189016Y-81570D01*
X188954Y-81592D01*
X188889Y-81605D01*
X188771Y-81657D01*
X188649Y-81700D01*
X188593Y-81735D01*
X188532Y-81762D01*
X188462Y-81815D01*
X188316Y-81903D01*
X188192Y-82020D01*
X188122Y-82073D01*
X183948Y-86247D01*
X183906Y-86299D01*
X183857Y-86345D01*
X183783Y-86450D01*
X183702Y-86550D01*
X183671Y-86609D01*
X183633Y-86663D01*
X183582Y-86782D01*
X183523Y-86896D01*
X183505Y-86960D01*
X183478Y-87021D01*
X183452Y-87147D01*
X183418Y-87271D01*
X183413Y-87338D01*
X183400Y-87403D01*
X183400Y-87532D01*
X183391Y-87660D01*
X183400Y-87726D01*
X183400Y-87793D01*
X183427Y-87919D01*
X183445Y-88046D01*
X183467Y-88109D01*
X183481Y-88174D01*
X183532Y-88292D01*
X183541Y-88316D01*
X183541Y-91467D01*
X181467Y-93541D01*
X178810Y-93541D01*
X178744Y-93548D01*
X178677Y-93545D01*
X178550Y-93567D01*
X178422Y-93581D01*
X178359Y-93601D01*
X178293Y-93612D01*
X178174Y-93660D01*
X178051Y-93699D01*
X177993Y-93731D01*
X177931Y-93756D01*
X177824Y-93827D01*
X177711Y-93890D01*
X177661Y-93934D01*
X177605Y-93970D01*
X177514Y-94061D01*
X177417Y-94146D01*
X177377Y-94199D01*
X177330Y-94246D01*
X177260Y-94354D01*
X177182Y-94457D01*
X177154Y-94517D01*
X177117Y-94573D01*
X177070Y-94693D01*
X177015Y-94809D01*
X176999Y-94874D01*
X176975Y-94936D01*
X176963Y-95022D01*
X176923Y-95188D01*
X176918Y-95358D01*
X176906Y-95445D01*
X176906Y-103610D01*
X176916Y-103709D01*
X176916Y-103808D01*
X176936Y-103902D01*
X176946Y-103997D01*
X176976Y-104092D01*
X176996Y-104190D01*
X177035Y-104277D01*
X177064Y-104369D01*
X177113Y-104456D01*
X177152Y-104547D01*
X177197Y-104605D01*
X177255Y-104709D01*
X177413Y-104890D01*
X177463Y-104956D01*
X178541Y-106033D01*
X178541Y-108967D01*
X176467Y-111041D01*
X173533Y-111041D01*
G37*
%LPD*%
%LPC*%
G36*
X39783Y28959D02*
X39783Y28959D01*
X37709Y31033D01*
X37709Y33967D01*
X38021Y34279D01*
X38063Y34330D01*
X38112Y34376D01*
X38186Y34481D01*
X38267Y34581D01*
X38298Y34640D01*
X38336Y34694D01*
X38387Y34813D01*
X38446Y34927D01*
X38464Y34991D01*
X38491Y35052D01*
X38517Y35178D01*
X38551Y35302D01*
X38556Y35369D01*
X38569Y35434D01*
X38569Y35563D01*
X38578Y35691D01*
X38569Y35757D01*
X38569Y35824D01*
X38542Y35950D01*
X38524Y36077D01*
X38502Y36140D01*
X38488Y36205D01*
X38437Y36323D01*
X38393Y36445D01*
X38359Y36501D01*
X38332Y36562D01*
X38279Y36632D01*
X38191Y36777D01*
X38074Y36902D01*
X38021Y36972D01*
X37709Y37283D01*
X37709Y40217D01*
X39783Y42291D01*
X42629Y42291D01*
X42662Y42294D01*
X42696Y42292D01*
X42856Y42314D01*
X43017Y42331D01*
X43049Y42341D01*
X43082Y42345D01*
X43234Y42400D01*
X43388Y42449D01*
X43418Y42465D01*
X43449Y42476D01*
X43587Y42561D01*
X43728Y42640D01*
X43753Y42662D01*
X43782Y42679D01*
X43900Y42790D01*
X44022Y42896D01*
X44042Y42923D01*
X44066Y42946D01*
X44159Y43078D01*
X44257Y43207D01*
X44271Y43237D01*
X44291Y43265D01*
X44355Y43413D01*
X44424Y43559D01*
X44432Y43592D01*
X44445Y43623D01*
X44478Y43781D01*
X44516Y43938D01*
X44517Y43971D01*
X44524Y44004D01*
X44523Y44166D01*
X44529Y44328D01*
X44523Y44361D01*
X44523Y44394D01*
X44489Y44553D01*
X44462Y44712D01*
X44450Y44743D01*
X44443Y44776D01*
X44378Y44924D01*
X44318Y45074D01*
X44300Y45102D01*
X44286Y45133D01*
X44261Y45166D01*
X43544Y46897D01*
X43544Y48603D01*
X44198Y50181D01*
X45404Y51387D01*
X46982Y52041D01*
X48688Y52041D01*
X49873Y51550D01*
X49921Y51536D01*
X49966Y51514D01*
X50107Y51480D01*
X50247Y51438D01*
X50296Y51434D01*
X50345Y51422D01*
X50490Y51418D01*
X50635Y51405D01*
X50685Y51411D01*
X50734Y51410D01*
X50878Y51435D01*
X51022Y51452D01*
X51069Y51468D01*
X51119Y51476D01*
X51254Y51530D01*
X51391Y51576D01*
X51435Y51602D01*
X51481Y51620D01*
X51602Y51700D01*
X51728Y51774D01*
X51765Y51807D01*
X51806Y51834D01*
X51909Y51937D01*
X52017Y52035D01*
X52046Y52075D01*
X52082Y52111D01*
X52161Y52233D01*
X52247Y52350D01*
X52267Y52395D01*
X52295Y52437D01*
X52348Y52572D01*
X52408Y52705D01*
X52419Y52753D01*
X52437Y52800D01*
X52449Y52888D01*
X52493Y53085D01*
X52495Y53228D01*
X52506Y53309D01*
X52506Y55103D01*
X53159Y56681D01*
X54366Y57887D01*
X55943Y58541D01*
X57650Y58541D01*
X59227Y57887D01*
X60434Y56681D01*
X61088Y55103D01*
X61088Y53397D01*
X60434Y51820D01*
X59156Y50542D01*
X59137Y50517D01*
X59114Y50497D01*
X59113Y50496D01*
X59110Y50494D01*
X59013Y50365D01*
X58910Y50239D01*
X58895Y50210D01*
X58875Y50183D01*
X58806Y50037D01*
X58731Y49893D01*
X58722Y49861D01*
X58708Y49831D01*
X58670Y49674D01*
X58626Y49518D01*
X58624Y49484D01*
X58616Y49452D01*
X58611Y49290D01*
X58600Y49129D01*
X58604Y49096D01*
X58603Y49062D01*
X58631Y48903D01*
X58653Y48743D01*
X58664Y48711D01*
X58670Y48678D01*
X58730Y48528D01*
X58784Y48375D01*
X58801Y48347D01*
X58814Y48316D01*
X58902Y48181D01*
X58987Y48043D01*
X59010Y48018D01*
X59028Y47990D01*
X59143Y47876D01*
X59253Y47758D01*
X59281Y47739D01*
X59304Y47715D01*
X59440Y47627D01*
X59572Y47534D01*
X59603Y47520D01*
X59631Y47502D01*
X59781Y47443D01*
X59930Y47379D01*
X59963Y47372D01*
X59994Y47360D01*
X60076Y47349D01*
X60312Y47300D01*
X60431Y47301D01*
X60503Y47291D01*
X62440Y47291D01*
X62506Y47298D01*
X62573Y47295D01*
X62700Y47317D01*
X62828Y47331D01*
X62891Y47351D01*
X62957Y47362D01*
X63076Y47410D01*
X63199Y47449D01*
X63257Y47481D01*
X63319Y47506D01*
X63426Y47577D01*
X63539Y47640D01*
X63589Y47684D01*
X63645Y47720D01*
X63736Y47811D01*
X63833Y47896D01*
X63873Y47949D01*
X63920Y47996D01*
X63990Y48104D01*
X64068Y48207D01*
X64096Y48267D01*
X64133Y48323D01*
X64180Y48443D01*
X64235Y48559D01*
X64251Y48624D01*
X64275Y48686D01*
X64287Y48772D01*
X64327Y48938D01*
X64332Y49108D01*
X64344Y49195D01*
X64344Y50789D01*
X81711Y68156D01*
X89672Y68156D01*
X89771Y68166D01*
X89870Y68166D01*
X89964Y68186D01*
X90060Y68196D01*
X90154Y68226D01*
X90252Y68246D01*
X90340Y68285D01*
X90431Y68314D01*
X90518Y68363D01*
X90609Y68402D01*
X90667Y68447D01*
X90771Y68505D01*
X90952Y68663D01*
X91018Y68713D01*
X141711Y119406D01*
X234740Y119406D01*
X234773Y119409D01*
X234806Y119407D01*
X234966Y119429D01*
X235127Y119446D01*
X235159Y119456D01*
X235192Y119460D01*
X235345Y119515D01*
X235499Y119564D01*
X235528Y119580D01*
X235559Y119591D01*
X235697Y119675D01*
X235839Y119755D01*
X235864Y119777D01*
X235892Y119794D01*
X236010Y119905D01*
X236132Y120011D01*
X236152Y120038D01*
X236177Y120060D01*
X236270Y120193D01*
X236368Y120322D01*
X236382Y120352D01*
X236401Y120379D01*
X236465Y120528D01*
X236535Y120674D01*
X236542Y120706D01*
X236556Y120737D01*
X236588Y120896D01*
X236626Y121053D01*
X236628Y121086D01*
X236634Y121119D01*
X236634Y121281D01*
X236639Y121443D01*
X236634Y121475D01*
X236634Y121509D01*
X236600Y121667D01*
X236573Y121827D01*
X236560Y121857D01*
X236553Y121890D01*
X236488Y122039D01*
X236429Y122189D01*
X236411Y122217D01*
X236397Y122247D01*
X236347Y122314D01*
X236215Y122514D01*
X236130Y122598D01*
X236086Y122657D01*
X233959Y124783D01*
X233959Y127717D01*
X236033Y129791D01*
X238967Y129791D01*
X240528Y128229D01*
X240580Y128187D01*
X240625Y128138D01*
X240731Y128064D01*
X240831Y127983D01*
X240890Y127952D01*
X240944Y127914D01*
X241062Y127863D01*
X241177Y127804D01*
X241241Y127786D01*
X241302Y127759D01*
X241428Y127733D01*
X241552Y127699D01*
X241619Y127694D01*
X241684Y127681D01*
X241813Y127681D01*
X241941Y127672D01*
X242007Y127681D01*
X242074Y127681D01*
X242200Y127708D01*
X242327Y127726D01*
X242390Y127748D01*
X242455Y127762D01*
X242573Y127813D01*
X242695Y127857D01*
X242751Y127891D01*
X242812Y127918D01*
X242882Y127971D01*
X243027Y128059D01*
X243152Y128176D01*
X243221Y128229D01*
X243533Y128541D01*
X246467Y128541D01*
X248541Y126467D01*
X248541Y123533D01*
X247664Y122657D01*
X247643Y122631D01*
X247618Y122609D01*
X247520Y122480D01*
X247418Y122354D01*
X247403Y122325D01*
X247382Y122298D01*
X247313Y122152D01*
X247239Y122008D01*
X247230Y121976D01*
X247215Y121946D01*
X247177Y121789D01*
X247134Y121633D01*
X247131Y121599D01*
X247124Y121567D01*
X247118Y121405D01*
X247107Y121244D01*
X247112Y121211D01*
X247111Y121177D01*
X247138Y121018D01*
X247161Y120858D01*
X247172Y120826D01*
X247177Y120793D01*
X247237Y120643D01*
X247291Y120490D01*
X247309Y120462D01*
X247321Y120431D01*
X247410Y120296D01*
X247494Y120158D01*
X247517Y120133D01*
X247535Y120105D01*
X247650Y119991D01*
X247761Y119873D01*
X247788Y119854D01*
X247812Y119830D01*
X247947Y119742D01*
X248080Y119649D01*
X248110Y119635D01*
X248138Y119617D01*
X248289Y119558D01*
X248437Y119494D01*
X248470Y119487D01*
X248501Y119475D01*
X248583Y119464D01*
X248819Y119415D01*
X248938Y119416D01*
X249010Y119406D01*
X258422Y119406D01*
X258521Y119416D01*
X258620Y119416D01*
X258714Y119436D01*
X258810Y119446D01*
X258904Y119476D01*
X259002Y119496D01*
X259090Y119535D01*
X259181Y119564D01*
X259268Y119613D01*
X259359Y119652D01*
X259417Y119697D01*
X259521Y119755D01*
X259702Y119913D01*
X259768Y119963D01*
X266062Y126257D01*
X266124Y126334D01*
X266195Y126404D01*
X266247Y126485D01*
X266307Y126559D01*
X266353Y126647D01*
X266408Y126731D01*
X266443Y126820D01*
X266487Y126905D01*
X266514Y127001D01*
X266550Y127094D01*
X266560Y127166D01*
X266592Y127281D01*
X266608Y127521D01*
X266619Y127603D01*
X266619Y128353D01*
X267273Y129931D01*
X268479Y131137D01*
X270057Y131791D01*
X271763Y131791D01*
X273341Y131137D01*
X274547Y129931D01*
X275201Y128353D01*
X275201Y126647D01*
X274547Y125069D01*
X273341Y123863D01*
X271763Y123209D01*
X270054Y123209D01*
X269984Y123230D01*
X269908Y123263D01*
X269798Y123286D01*
X269690Y123318D01*
X269608Y123325D01*
X269526Y123342D01*
X269414Y123341D01*
X269302Y123351D01*
X269220Y123341D01*
X269136Y123341D01*
X269026Y123318D01*
X268915Y123304D01*
X268836Y123278D01*
X268755Y123261D01*
X268652Y123216D01*
X268546Y123180D01*
X268474Y123138D01*
X268398Y123105D01*
X268333Y123055D01*
X268209Y122983D01*
X268060Y122847D01*
X267989Y122793D01*
X262463Y117268D01*
X260789Y115594D01*
X144078Y115594D01*
X143979Y115584D01*
X143880Y115584D01*
X143786Y115564D01*
X143690Y115554D01*
X143596Y115524D01*
X143498Y115504D01*
X143410Y115465D01*
X143319Y115436D01*
X143232Y115387D01*
X143141Y115348D01*
X143083Y115303D01*
X142979Y115245D01*
X142798Y115087D01*
X142732Y115037D01*
X92039Y64344D01*
X84078Y64344D01*
X83979Y64334D01*
X83880Y64334D01*
X83786Y64314D01*
X83690Y64304D01*
X83596Y64274D01*
X83498Y64254D01*
X83410Y64215D01*
X83319Y64186D01*
X83232Y64137D01*
X83141Y64098D01*
X83083Y64053D01*
X82979Y63995D01*
X82798Y63837D01*
X82732Y63787D01*
X68713Y49768D01*
X68651Y49691D01*
X68580Y49621D01*
X68528Y49540D01*
X68468Y49466D01*
X68422Y49378D01*
X68367Y49294D01*
X68332Y49205D01*
X68288Y49120D01*
X68261Y49024D01*
X68225Y48931D01*
X68215Y48859D01*
X68183Y48744D01*
X68167Y48504D01*
X68156Y48422D01*
X68156Y42760D01*
X68159Y42727D01*
X68157Y42694D01*
X68179Y42534D01*
X68196Y42373D01*
X68206Y42341D01*
X68210Y42308D01*
X68265Y42155D01*
X68314Y42001D01*
X68330Y41972D01*
X68341Y41941D01*
X68365Y41901D01*
X68351Y41892D01*
X68267Y41808D01*
X68209Y41763D01*
X58713Y32268D01*
X57039Y30594D01*
X45140Y30594D01*
X45041Y30584D01*
X44942Y30584D01*
X44848Y30564D01*
X44753Y30554D01*
X44658Y30524D01*
X44560Y30504D01*
X44473Y30465D01*
X44381Y30436D01*
X44294Y30387D01*
X44203Y30348D01*
X44145Y30303D01*
X44041Y30245D01*
X43860Y30087D01*
X43794Y30037D01*
X42717Y28959D01*
X39783Y28959D01*
G37*
%LPD*%
%LPC*%
G36*
X8533Y23959D02*
X8533Y23959D01*
X6459Y26033D01*
X6459Y28967D01*
X7537Y30044D01*
X7599Y30121D01*
X7670Y30192D01*
X7722Y30272D01*
X7782Y30346D01*
X7828Y30435D01*
X7883Y30518D01*
X7918Y30607D01*
X7962Y30692D01*
X7989Y30788D01*
X8025Y30881D01*
X8035Y30953D01*
X8067Y31068D01*
X8083Y31308D01*
X8094Y31390D01*
X8094Y79672D01*
X8088Y79737D01*
X8090Y79799D01*
X8084Y79832D01*
X8084Y79870D01*
X8064Y79964D01*
X8054Y80060D01*
X8032Y80129D01*
X8023Y80183D01*
X8013Y80208D01*
X8004Y80252D01*
X7965Y80340D01*
X7936Y80431D01*
X7897Y80502D01*
X7879Y80545D01*
X7868Y80563D01*
X7848Y80609D01*
X7803Y80667D01*
X7745Y80771D01*
X7687Y80837D01*
X7665Y80871D01*
X7609Y80927D01*
X7587Y80952D01*
X7537Y81018D01*
X-86906Y175461D01*
X-86906Y182039D01*
X-84963Y183982D01*
X-84901Y184059D01*
X-84830Y184129D01*
X-84778Y184210D01*
X-84718Y184284D01*
X-84672Y184372D01*
X-84617Y184456D01*
X-84582Y184545D01*
X-84538Y184630D01*
X-84511Y184726D01*
X-84475Y184819D01*
X-84465Y184891D01*
X-84433Y185006D01*
X-84417Y185246D01*
X-84406Y185328D01*
X-84406Y194672D01*
X-84416Y194771D01*
X-84416Y194870D01*
X-84436Y194964D01*
X-84446Y195060D01*
X-84476Y195154D01*
X-84496Y195252D01*
X-84535Y195340D01*
X-84564Y195431D01*
X-84613Y195518D01*
X-84652Y195609D01*
X-84697Y195667D01*
X-84755Y195771D01*
X-84913Y195952D01*
X-84963Y196018D01*
X-96906Y207961D01*
X-96906Y211110D01*
X-96911Y211164D01*
X-96910Y211192D01*
X-96916Y211224D01*
X-96916Y211308D01*
X-96936Y211402D01*
X-96946Y211497D01*
X-96976Y211592D01*
X-96996Y211690D01*
X-97035Y211777D01*
X-97064Y211869D01*
X-97113Y211956D01*
X-97152Y212047D01*
X-97197Y212105D01*
X-97255Y212209D01*
X-97413Y212390D01*
X-97463Y212456D01*
X-98541Y213533D01*
X-98541Y216467D01*
X-96467Y218541D01*
X-93875Y218541D01*
X-93694Y218559D01*
X-93512Y218576D01*
X-93499Y218579D01*
X-93487Y218581D01*
X-93314Y218636D01*
X-93139Y218689D01*
X-93128Y218695D01*
X-93116Y218699D01*
X-93007Y218760D01*
X-93007Y218751D01*
X-93006Y218614D01*
X-92994Y218557D01*
X-92991Y218499D01*
X-92954Y218367D01*
X-92926Y218233D01*
X-92903Y218179D01*
X-92887Y218123D01*
X-92825Y218001D01*
X-92770Y217876D01*
X-92741Y217838D01*
X-92710Y217776D01*
X-92465Y217473D01*
X-92461Y217469D01*
X-92459Y217466D01*
X-91459Y216467D01*
X-91459Y213533D01*
X-92537Y212456D01*
X-92599Y212379D01*
X-92670Y212308D01*
X-92722Y212228D01*
X-92782Y212154D01*
X-92828Y212065D01*
X-92883Y211982D01*
X-92918Y211893D01*
X-92962Y211808D01*
X-92989Y211712D01*
X-93025Y211619D01*
X-93035Y211547D01*
X-93067Y211432D01*
X-93074Y211330D01*
X-93077Y211317D01*
X-93079Y211252D01*
X-93083Y211192D01*
X-93094Y211110D01*
X-93094Y210328D01*
X-93084Y210229D01*
X-93084Y210130D01*
X-93064Y210036D01*
X-93054Y209940D01*
X-93024Y209846D01*
X-93004Y209748D01*
X-92965Y209660D01*
X-92936Y209569D01*
X-92887Y209482D01*
X-92848Y209391D01*
X-92803Y209333D01*
X-92745Y209229D01*
X-92587Y209048D01*
X-92537Y208982D01*
X-80632Y197077D01*
X-80580Y197035D01*
X-80535Y196987D01*
X-80429Y196912D01*
X-80329Y196831D01*
X-80270Y196800D01*
X-80216Y196762D01*
X-80098Y196711D01*
X-79983Y196652D01*
X-79919Y196634D01*
X-79858Y196607D01*
X-79732Y196582D01*
X-79608Y196547D01*
X-79542Y196542D01*
X-79476Y196529D01*
X-79348Y196529D01*
X-79219Y196520D01*
X-79153Y196529D01*
X-79087Y196530D01*
X-78960Y196556D01*
X-78833Y196574D01*
X-78770Y196596D01*
X-78705Y196610D01*
X-78587Y196661D01*
X-78466Y196705D01*
X-78409Y196739D01*
X-78348Y196766D01*
X-78278Y196819D01*
X-78133Y196908D01*
X-78009Y197024D01*
X-77939Y197077D01*
X-77453Y197563D01*
X-73982Y199001D01*
X-73938Y199024D01*
X-73891Y199041D01*
X-73766Y199117D01*
X-73639Y199186D01*
X-73600Y199218D01*
X-73558Y199244D01*
X-73452Y199343D01*
X-73341Y199437D01*
X-73310Y199476D01*
X-73273Y199510D01*
X-73190Y199629D01*
X-73100Y199744D01*
X-73078Y199788D01*
X-73049Y199829D01*
X-72991Y199963D01*
X-72927Y200093D01*
X-72914Y200141D01*
X-72894Y200187D01*
X-72865Y200329D01*
X-72828Y200470D01*
X-72826Y200520D01*
X-72816Y200569D01*
X-72816Y200714D01*
X-72809Y200859D01*
X-72816Y200909D01*
X-72816Y200959D01*
X-72846Y201101D01*
X-72869Y201244D01*
X-72886Y201291D01*
X-72897Y201340D01*
X-72955Y201473D01*
X-73006Y201609D01*
X-73033Y201651D01*
X-73053Y201697D01*
X-73107Y201768D01*
X-73215Y201939D01*
X-73314Y202041D01*
X-73364Y202106D01*
X-74791Y203533D01*
X-74791Y206467D01*
X-72717Y208541D01*
X-70445Y208541D01*
X-70379Y208548D01*
X-70312Y208545D01*
X-70185Y208567D01*
X-70057Y208581D01*
X-69994Y208601D01*
X-69928Y208612D01*
X-69809Y208660D01*
X-69686Y208699D01*
X-69628Y208731D01*
X-69566Y208756D01*
X-69459Y208827D01*
X-69346Y208890D01*
X-69296Y208934D01*
X-69240Y208970D01*
X-69149Y209061D01*
X-69052Y209146D01*
X-69012Y209199D01*
X-68965Y209246D01*
X-68895Y209354D01*
X-68817Y209457D01*
X-68789Y209517D01*
X-68752Y209573D01*
X-68705Y209693D01*
X-68650Y209809D01*
X-68634Y209874D01*
X-68610Y209936D01*
X-68598Y210022D01*
X-68558Y210188D01*
X-68553Y210358D01*
X-68541Y210445D01*
X-68541Y212717D01*
X-66467Y214791D01*
X-63533Y214791D01*
X-61459Y212717D01*
X-61459Y209783D01*
X-63533Y207709D01*
X-65805Y207709D01*
X-65871Y207702D01*
X-65938Y207705D01*
X-66065Y207683D01*
X-66193Y207669D01*
X-66256Y207649D01*
X-66322Y207638D01*
X-66441Y207590D01*
X-66564Y207551D01*
X-66622Y207519D01*
X-66684Y207494D01*
X-66791Y207423D01*
X-66904Y207360D01*
X-66954Y207316D01*
X-67010Y207280D01*
X-67101Y207189D01*
X-67198Y207104D01*
X-67238Y207051D01*
X-67285Y207004D01*
X-67355Y206896D01*
X-67433Y206793D01*
X-67461Y206733D01*
X-67498Y206677D01*
X-67545Y206557D01*
X-67600Y206441D01*
X-67616Y206376D01*
X-67640Y206314D01*
X-67652Y206228D01*
X-67692Y206062D01*
X-67697Y205892D01*
X-67709Y205805D01*
X-67709Y203533D01*
X-69810Y201433D01*
X-69841Y201394D01*
X-69878Y201361D01*
X-69964Y201243D01*
X-70056Y201130D01*
X-70079Y201086D01*
X-70108Y201046D01*
X-70168Y200913D01*
X-70235Y200784D01*
X-70249Y200736D01*
X-70269Y200691D01*
X-70301Y200549D01*
X-70340Y200409D01*
X-70343Y200359D01*
X-70354Y200310D01*
X-70357Y200165D01*
X-70366Y200020D01*
X-70360Y199971D01*
X-70360Y199921D01*
X-70333Y199778D01*
X-70313Y199634D01*
X-70296Y199587D01*
X-70287Y199538D01*
X-70231Y199404D01*
X-70182Y199267D01*
X-70156Y199224D01*
X-70137Y199178D01*
X-70055Y199058D01*
X-69979Y198934D01*
X-69945Y198897D01*
X-69917Y198856D01*
X-69812Y198755D01*
X-69713Y198649D01*
X-69672Y198621D01*
X-69636Y198586D01*
X-69559Y198541D01*
X-69394Y198425D01*
X-69263Y198368D01*
X-69192Y198327D01*
X-67347Y197563D01*
X-64837Y195053D01*
X-63479Y191774D01*
X-63479Y188226D01*
X-64837Y184947D01*
X-67347Y182437D01*
X-70626Y181079D01*
X-74174Y181079D01*
X-77453Y182437D01*
X-77939Y182923D01*
X-77990Y182965D01*
X-78036Y183013D01*
X-78141Y183088D01*
X-78241Y183169D01*
X-78300Y183200D01*
X-78355Y183238D01*
X-78473Y183289D01*
X-78587Y183348D01*
X-78651Y183366D01*
X-78712Y183393D01*
X-78838Y183418D01*
X-78963Y183453D01*
X-79029Y183458D01*
X-79094Y183471D01*
X-79223Y183471D01*
X-79352Y183480D01*
X-79417Y183471D01*
X-79484Y183470D01*
X-79610Y183444D01*
X-79738Y183426D01*
X-79800Y183404D01*
X-79865Y183390D01*
X-79983Y183339D01*
X-80105Y183295D01*
X-80162Y183261D01*
X-80223Y183234D01*
X-80292Y183181D01*
X-80438Y183092D01*
X-80562Y182976D01*
X-80632Y182923D01*
X-82537Y181018D01*
X-82599Y180941D01*
X-82670Y180871D01*
X-82722Y180790D01*
X-82782Y180716D01*
X-82828Y180628D01*
X-82883Y180544D01*
X-82918Y180455D01*
X-82962Y180370D01*
X-82989Y180274D01*
X-83025Y180181D01*
X-83035Y180109D01*
X-83067Y179994D01*
X-83083Y179754D01*
X-83094Y179672D01*
X-83094Y177828D01*
X-83084Y177729D01*
X-83084Y177630D01*
X-83064Y177536D01*
X-83054Y177440D01*
X-83024Y177346D01*
X-83004Y177248D01*
X-82965Y177160D01*
X-82936Y177069D01*
X-82887Y176982D01*
X-82848Y176891D01*
X-82803Y176833D01*
X-82745Y176729D01*
X-82587Y176548D01*
X-82537Y176482D01*
X10232Y83713D01*
X11906Y82039D01*
X11906Y31390D01*
X11916Y31291D01*
X11916Y31192D01*
X11936Y31098D01*
X11946Y31003D01*
X11976Y30908D01*
X11996Y30810D01*
X12035Y30722D01*
X12064Y30631D01*
X12113Y30544D01*
X12152Y30453D01*
X12197Y30395D01*
X12255Y30291D01*
X12413Y30110D01*
X12463Y30044D01*
X13541Y28967D01*
X13541Y26033D01*
X11467Y23959D01*
X8533Y23959D01*
G37*
%LPD*%
%LPC*%
G36*
X-288263Y-75636D02*
X-288263Y-75636D01*
X-288636Y-75263D01*
X-288636Y-43737D01*
X-288263Y-43364D01*
X-251737Y-43364D01*
X-251364Y-43737D01*
X-251364Y-75263D01*
X-251737Y-75636D01*
X-288263Y-75636D01*
G37*
%LPD*%
%LPC*%
G36*
X261033Y-103541D02*
X261033Y-103541D01*
X258959Y-101467D01*
X258959Y-98533D01*
X261033Y-96459D01*
X264141Y-96459D01*
X264242Y-96511D01*
X264274Y-96520D01*
X264304Y-96535D01*
X264461Y-96573D01*
X264617Y-96616D01*
X264651Y-96619D01*
X264683Y-96626D01*
X264845Y-96632D01*
X265006Y-96643D01*
X265039Y-96638D01*
X265073Y-96639D01*
X265232Y-96612D01*
X265392Y-96589D01*
X265424Y-96578D01*
X265457Y-96573D01*
X265607Y-96513D01*
X265759Y-96459D01*
X265788Y-96441D01*
X265819Y-96429D01*
X265954Y-96340D01*
X266092Y-96256D01*
X266117Y-96233D01*
X266145Y-96215D01*
X266259Y-96100D01*
X266377Y-95989D01*
X266396Y-95962D01*
X266420Y-95938D01*
X266508Y-95803D01*
X266601Y-95671D01*
X266615Y-95640D01*
X266633Y-95612D01*
X266692Y-95462D01*
X266756Y-95313D01*
X266763Y-95280D01*
X266775Y-95249D01*
X266786Y-95167D01*
X266835Y-94931D01*
X266834Y-94812D01*
X266844Y-94740D01*
X266844Y-11695D01*
X266839Y-11639D01*
X266840Y-11605D01*
X266838Y-11598D01*
X266840Y-11562D01*
X266818Y-11435D01*
X266804Y-11307D01*
X266784Y-11244D01*
X266773Y-11178D01*
X266725Y-11059D01*
X266686Y-10936D01*
X266654Y-10878D01*
X266629Y-10816D01*
X266558Y-10709D01*
X266495Y-10596D01*
X266451Y-10546D01*
X266415Y-10490D01*
X266324Y-10399D01*
X266239Y-10302D01*
X266186Y-10262D01*
X266139Y-10215D01*
X266031Y-10145D01*
X265928Y-10067D01*
X265868Y-10039D01*
X265812Y-10002D01*
X265692Y-9955D01*
X265576Y-9900D01*
X265511Y-9884D01*
X265449Y-9860D01*
X265363Y-9848D01*
X265197Y-9808D01*
X265027Y-9803D01*
X264940Y-9791D01*
X262283Y-9791D01*
X260209Y-7717D01*
X260209Y-4783D01*
X262283Y-2709D01*
X264940Y-2709D01*
X265006Y-2702D01*
X265073Y-2705D01*
X265200Y-2683D01*
X265328Y-2669D01*
X265391Y-2649D01*
X265457Y-2638D01*
X265576Y-2590D01*
X265699Y-2551D01*
X265757Y-2519D01*
X265819Y-2494D01*
X265926Y-2423D01*
X266039Y-2360D01*
X266089Y-2316D01*
X266145Y-2280D01*
X266236Y-2189D01*
X266333Y-2104D01*
X266373Y-2051D01*
X266420Y-2004D01*
X266490Y-1896D01*
X266568Y-1793D01*
X266596Y-1733D01*
X266633Y-1677D01*
X266680Y-1558D01*
X266735Y-1441D01*
X266751Y-1376D01*
X266775Y-1314D01*
X266787Y-1228D01*
X266827Y-1062D01*
X266832Y-892D01*
X266844Y-805D01*
X266844Y42172D01*
X266834Y42271D01*
X266834Y42370D01*
X266814Y42464D01*
X266804Y42560D01*
X266774Y42654D01*
X266754Y42752D01*
X266715Y42840D01*
X266686Y42931D01*
X266637Y43018D01*
X266598Y43109D01*
X266553Y43167D01*
X266495Y43271D01*
X266337Y43452D01*
X266287Y43518D01*
X247653Y62152D01*
X247576Y62214D01*
X247506Y62285D01*
X247425Y62337D01*
X247351Y62397D01*
X247263Y62443D01*
X247179Y62498D01*
X247090Y62533D01*
X247005Y62577D01*
X246909Y62604D01*
X246816Y62640D01*
X246744Y62650D01*
X246629Y62682D01*
X246389Y62698D01*
X246307Y62709D01*
X244783Y62709D01*
X242709Y64783D01*
X242709Y67717D01*
X244783Y69791D01*
X247717Y69791D01*
X249791Y67717D01*
X249791Y66193D01*
X249801Y66094D01*
X249801Y65995D01*
X249821Y65901D01*
X249831Y65805D01*
X249861Y65711D01*
X249881Y65613D01*
X249920Y65525D01*
X249949Y65434D01*
X249998Y65347D01*
X250037Y65256D01*
X250082Y65198D01*
X250140Y65094D01*
X250298Y64913D01*
X250348Y64847D01*
X270656Y44539D01*
X270656Y-805D01*
X270663Y-871D01*
X270660Y-938D01*
X270682Y-1065D01*
X270696Y-1193D01*
X270716Y-1256D01*
X270727Y-1322D01*
X270775Y-1441D01*
X270814Y-1564D01*
X270846Y-1622D01*
X270871Y-1684D01*
X270942Y-1792D01*
X271005Y-1904D01*
X271049Y-1954D01*
X271085Y-2010D01*
X271176Y-2101D01*
X271261Y-2198D01*
X271314Y-2238D01*
X271361Y-2285D01*
X271469Y-2355D01*
X271572Y-2433D01*
X271632Y-2461D01*
X271688Y-2498D01*
X271808Y-2545D01*
X271924Y-2600D01*
X271989Y-2616D01*
X272051Y-2640D01*
X272137Y-2652D01*
X272303Y-2692D01*
X272473Y-2697D01*
X272560Y-2709D01*
X275217Y-2709D01*
X277291Y-4783D01*
X277291Y-7717D01*
X275217Y-9791D01*
X272560Y-9791D01*
X272494Y-9798D01*
X272427Y-9795D01*
X272300Y-9817D01*
X272172Y-9831D01*
X272109Y-9851D01*
X272043Y-9862D01*
X271924Y-9910D01*
X271801Y-9949D01*
X271743Y-9981D01*
X271681Y-10006D01*
X271574Y-10077D01*
X271461Y-10140D01*
X271411Y-10184D01*
X271355Y-10220D01*
X271264Y-10311D01*
X271167Y-10396D01*
X271127Y-10449D01*
X271080Y-10496D01*
X271010Y-10604D01*
X270932Y-10707D01*
X270904Y-10767D01*
X270867Y-10823D01*
X270820Y-10943D01*
X270765Y-11059D01*
X270749Y-11124D01*
X270725Y-11186D01*
X270713Y-11272D01*
X270673Y-11438D01*
X270668Y-11608D01*
X270656Y-11695D01*
X270656Y-94740D01*
X270659Y-94773D01*
X270657Y-94806D01*
X270679Y-94967D01*
X270696Y-95127D01*
X270706Y-95159D01*
X270710Y-95192D01*
X270765Y-95345D01*
X270814Y-95499D01*
X270830Y-95528D01*
X270841Y-95559D01*
X270926Y-95698D01*
X271005Y-95839D01*
X271027Y-95864D01*
X271044Y-95892D01*
X271155Y-96010D01*
X271261Y-96132D01*
X271288Y-96152D01*
X271311Y-96177D01*
X271443Y-96270D01*
X271572Y-96368D01*
X271602Y-96382D01*
X271629Y-96401D01*
X271778Y-96465D01*
X271924Y-96535D01*
X271956Y-96542D01*
X271987Y-96556D01*
X272146Y-96588D01*
X272303Y-96626D01*
X272336Y-96628D01*
X272369Y-96634D01*
X272531Y-96634D01*
X272693Y-96639D01*
X272725Y-96634D01*
X272759Y-96634D01*
X272917Y-96600D01*
X273077Y-96573D01*
X273108Y-96560D01*
X273140Y-96553D01*
X273289Y-96488D01*
X273362Y-96459D01*
X276467Y-96459D01*
X278541Y-98533D01*
X278541Y-101467D01*
X276467Y-103541D01*
X273533Y-103541D01*
X273221Y-103229D01*
X273170Y-103187D01*
X273124Y-103138D01*
X273019Y-103064D01*
X272919Y-102983D01*
X272860Y-102952D01*
X272806Y-102914D01*
X272687Y-102863D01*
X272573Y-102804D01*
X272509Y-102786D01*
X272448Y-102759D01*
X272322Y-102733D01*
X272198Y-102699D01*
X272131Y-102694D01*
X272066Y-102681D01*
X271937Y-102681D01*
X271809Y-102672D01*
X271743Y-102681D01*
X271676Y-102681D01*
X271550Y-102708D01*
X271423Y-102726D01*
X271360Y-102748D01*
X271295Y-102762D01*
X271177Y-102813D01*
X271055Y-102857D01*
X270999Y-102891D01*
X270938Y-102918D01*
X270868Y-102971D01*
X270723Y-103059D01*
X270598Y-103176D01*
X270528Y-103229D01*
X270217Y-103541D01*
X267283Y-103541D01*
X266971Y-103229D01*
X266920Y-103187D01*
X266874Y-103138D01*
X266769Y-103064D01*
X266669Y-102983D01*
X266610Y-102952D01*
X266556Y-102914D01*
X266437Y-102863D01*
X266323Y-102804D01*
X266259Y-102786D01*
X266198Y-102759D01*
X266072Y-102733D01*
X265948Y-102699D01*
X265881Y-102694D01*
X265816Y-102681D01*
X265687Y-102681D01*
X265559Y-102672D01*
X265493Y-102681D01*
X265426Y-102681D01*
X265300Y-102708D01*
X265173Y-102726D01*
X265110Y-102748D01*
X265045Y-102762D01*
X264927Y-102813D01*
X264805Y-102857D01*
X264749Y-102891D01*
X264688Y-102918D01*
X264618Y-102971D01*
X264473Y-103059D01*
X264348Y-103176D01*
X264278Y-103229D01*
X263967Y-103541D01*
X261033Y-103541D01*
G37*
%LPD*%
%LPC*%
G36*
X372354Y171946D02*
X372354Y171946D01*
X367464Y173972D01*
X363722Y177714D01*
X361696Y182604D01*
X361696Y187896D01*
X363722Y192786D01*
X367464Y196528D01*
X372354Y198554D01*
X377646Y198554D01*
X382536Y196528D01*
X386278Y192786D01*
X388304Y187896D01*
X388304Y182604D01*
X386278Y177714D01*
X382536Y173972D01*
X377646Y171946D01*
X372354Y171946D01*
G37*
%LPD*%
%LPC*%
G36*
X372354Y-138054D02*
X372354Y-138054D01*
X367464Y-136028D01*
X363722Y-132286D01*
X361696Y-127396D01*
X361696Y-122104D01*
X363722Y-117214D01*
X367464Y-113472D01*
X372354Y-111446D01*
X377646Y-111446D01*
X382536Y-113472D01*
X386278Y-117214D01*
X388304Y-122104D01*
X388304Y-127396D01*
X386278Y-132286D01*
X382536Y-136028D01*
X377646Y-138054D01*
X372354Y-138054D01*
G37*
%LPD*%
%LPC*%
G36*
X-377646Y171946D02*
X-377646Y171946D01*
X-382536Y173972D01*
X-386278Y177714D01*
X-388304Y182604D01*
X-388304Y187896D01*
X-386278Y192786D01*
X-382536Y196528D01*
X-377646Y198554D01*
X-372354Y198554D01*
X-367464Y196528D01*
X-363722Y192786D01*
X-361696Y187896D01*
X-361696Y182604D01*
X-363722Y177714D01*
X-367464Y173972D01*
X-372354Y171946D01*
X-377646Y171946D01*
G37*
%LPD*%
%LPC*%
G36*
X-377646Y-138054D02*
X-377646Y-138054D01*
X-382536Y-136028D01*
X-386278Y-132286D01*
X-388304Y-127396D01*
X-388304Y-122104D01*
X-386278Y-117214D01*
X-382536Y-113472D01*
X-377646Y-111446D01*
X-372354Y-111446D01*
X-367464Y-113472D01*
X-363722Y-117214D01*
X-361696Y-122104D01*
X-361696Y-127396D01*
X-363722Y-132286D01*
X-367464Y-136028D01*
X-372354Y-138054D01*
X-377646Y-138054D01*
G37*
%LPD*%
%LPC*%
G36*
X-4718Y-326390D02*
X-4718Y-326390D01*
X-6442Y-325512D01*
X-8007Y-324375D01*
X-9375Y-323007D01*
X-10512Y-321442D01*
X-11390Y-319718D01*
X-11393Y-319709D01*
X-11437Y-319610D01*
X-11471Y-319508D01*
X-11516Y-319433D01*
X-11551Y-319353D01*
X-11614Y-319265D01*
X-11669Y-319171D01*
X-11727Y-319107D01*
X-11778Y-319036D01*
X-11857Y-318962D01*
X-11930Y-318882D01*
X-12000Y-318831D01*
X-12065Y-318772D01*
X-12158Y-318716D01*
X-12245Y-318652D01*
X-12324Y-318616D01*
X-12399Y-318572D01*
X-12501Y-318536D01*
X-12600Y-318492D01*
X-12685Y-318472D01*
X-12767Y-318444D01*
X-12875Y-318430D01*
X-12980Y-318406D01*
X-13067Y-318405D01*
X-13154Y-318394D01*
X-13262Y-318402D01*
X-13370Y-318400D01*
X-13456Y-318417D01*
X-13543Y-318423D01*
X-13647Y-318453D01*
X-13753Y-318474D01*
X-13833Y-318507D01*
X-13917Y-318531D01*
X-14013Y-318582D01*
X-14113Y-318624D01*
X-14185Y-318673D01*
X-14262Y-318714D01*
X-14345Y-318783D01*
X-14434Y-318844D01*
X-14495Y-318907D01*
X-14562Y-318962D01*
X-14630Y-319047D01*
X-14705Y-319124D01*
X-14739Y-319183D01*
X-14806Y-319267D01*
X-14926Y-319504D01*
X-14964Y-319569D01*
X-15657Y-321243D01*
X-18757Y-324343D01*
X-22808Y-326021D01*
X-27192Y-326021D01*
X-31243Y-324343D01*
X-34343Y-321243D01*
X-36021Y-317192D01*
X-36021Y-312808D01*
X-34343Y-308757D01*
X-31243Y-305657D01*
X-27192Y-303979D01*
X-22808Y-303979D01*
X-18757Y-305657D01*
X-15657Y-308757D01*
X-14964Y-310431D01*
X-14912Y-310527D01*
X-14870Y-310626D01*
X-14820Y-310697D01*
X-14778Y-310774D01*
X-14709Y-310857D01*
X-14647Y-310946D01*
X-14583Y-311006D01*
X-14527Y-311072D01*
X-14442Y-311139D01*
X-14364Y-311213D01*
X-14289Y-311259D01*
X-14221Y-311313D01*
X-14124Y-311361D01*
X-14032Y-311418D01*
X-13949Y-311448D01*
X-13871Y-311486D01*
X-13767Y-311514D01*
X-13665Y-311550D01*
X-13579Y-311563D01*
X-13494Y-311585D01*
X-13386Y-311590D01*
X-13279Y-311606D01*
X-13192Y-311600D01*
X-13105Y-311604D01*
X-12998Y-311588D01*
X-12890Y-311581D01*
X-12806Y-311558D01*
X-12720Y-311544D01*
X-12619Y-311506D01*
X-12514Y-311478D01*
X-12437Y-311438D01*
X-12355Y-311407D01*
X-12264Y-311349D01*
X-12167Y-311300D01*
X-12099Y-311245D01*
X-12026Y-311198D01*
X-11948Y-311123D01*
X-11864Y-311055D01*
X-11808Y-310988D01*
X-11746Y-310927D01*
X-11685Y-310837D01*
X-11617Y-310754D01*
X-11587Y-310693D01*
X-11527Y-310604D01*
X-11426Y-310358D01*
X-11393Y-310291D01*
X-11390Y-310282D01*
X-10512Y-308558D01*
X-9375Y-306993D01*
X-8007Y-305625D01*
X-6442Y-304488D01*
X-4718Y-303610D01*
X-3249Y-303133D01*
X-3249Y-313655D01*
X-3242Y-313721D01*
X-3245Y-313787D01*
X-3223Y-313914D01*
X-3209Y-314043D01*
X-3189Y-314106D01*
X-3178Y-314171D01*
X-3130Y-314291D01*
X-3091Y-314414D01*
X-3059Y-314472D01*
X-3034Y-314534D01*
X-2963Y-314641D01*
X-2900Y-314754D01*
X-2856Y-314804D01*
X-2820Y-314859D01*
X-2729Y-314950D01*
X-2685Y-315000D01*
X-2738Y-315046D01*
X-2778Y-315099D01*
X-2825Y-315146D01*
X-2895Y-315254D01*
X-2973Y-315357D01*
X-3001Y-315417D01*
X-3038Y-315473D01*
X-3085Y-315593D01*
X-3140Y-315709D01*
X-3156Y-315774D01*
X-3180Y-315836D01*
X-3192Y-315923D01*
X-3232Y-316088D01*
X-3237Y-316258D01*
X-3249Y-316345D01*
X-3249Y-326867D01*
X-4718Y-326390D01*
G37*
%LPD*%
%LPC*%
G36*
X3249Y-316345D02*
X3249Y-316345D01*
X3244Y-316297D01*
X3245Y-316285D01*
X3243Y-316273D01*
X3245Y-316213D01*
X3223Y-316086D01*
X3209Y-315957D01*
X3189Y-315894D01*
X3178Y-315829D01*
X3130Y-315709D01*
X3091Y-315586D01*
X3059Y-315528D01*
X3034Y-315466D01*
X2963Y-315359D01*
X2900Y-315246D01*
X2856Y-315196D01*
X2820Y-315141D01*
X2729Y-315050D01*
X2685Y-315000D01*
X2738Y-314954D01*
X2778Y-314901D01*
X2825Y-314854D01*
X2895Y-314746D01*
X2973Y-314643D01*
X3001Y-314583D01*
X3038Y-314527D01*
X3085Y-314407D01*
X3140Y-314291D01*
X3156Y-314226D01*
X3180Y-314164D01*
X3192Y-314077D01*
X3232Y-313912D01*
X3237Y-313742D01*
X3249Y-313655D01*
X3249Y-303133D01*
X4718Y-303610D01*
X6442Y-304488D01*
X8007Y-305625D01*
X9375Y-306993D01*
X10512Y-308558D01*
X11390Y-310282D01*
X11393Y-310291D01*
X11437Y-310390D01*
X11471Y-310492D01*
X11516Y-310568D01*
X11551Y-310647D01*
X11614Y-310735D01*
X11669Y-310829D01*
X11727Y-310893D01*
X11778Y-310964D01*
X11857Y-311038D01*
X11930Y-311118D01*
X12000Y-311169D01*
X12065Y-311228D01*
X12157Y-311284D01*
X12245Y-311348D01*
X12324Y-311384D01*
X12399Y-311428D01*
X12501Y-311464D01*
X12600Y-311509D01*
X12685Y-311528D01*
X12767Y-311556D01*
X12875Y-311570D01*
X12980Y-311594D01*
X13067Y-311595D01*
X13154Y-311606D01*
X13262Y-311598D01*
X13370Y-311600D01*
X13455Y-311583D01*
X13543Y-311577D01*
X13647Y-311547D01*
X13753Y-311526D01*
X13833Y-311493D01*
X13917Y-311469D01*
X14013Y-311418D01*
X14113Y-311376D01*
X14184Y-311327D01*
X14262Y-311286D01*
X14345Y-311217D01*
X14434Y-311156D01*
X14495Y-311094D01*
X14562Y-311038D01*
X14630Y-310953D01*
X14705Y-310876D01*
X14739Y-310817D01*
X14805Y-310734D01*
X14926Y-310496D01*
X14964Y-310431D01*
X15657Y-308757D01*
X18757Y-305657D01*
X22808Y-303979D01*
X27192Y-303979D01*
X31243Y-305657D01*
X34343Y-308757D01*
X36021Y-312808D01*
X36021Y-317192D01*
X34343Y-321243D01*
X31243Y-324343D01*
X27192Y-326021D01*
X22808Y-326021D01*
X18757Y-324343D01*
X15657Y-321243D01*
X14964Y-319569D01*
X14912Y-319473D01*
X14870Y-319374D01*
X14820Y-319303D01*
X14778Y-319226D01*
X14709Y-319143D01*
X14647Y-319054D01*
X14583Y-318994D01*
X14527Y-318928D01*
X14442Y-318861D01*
X14364Y-318787D01*
X14289Y-318741D01*
X14221Y-318687D01*
X14124Y-318639D01*
X14032Y-318582D01*
X13949Y-318552D01*
X13871Y-318514D01*
X13767Y-318486D01*
X13665Y-318450D01*
X13579Y-318437D01*
X13494Y-318415D01*
X13386Y-318410D01*
X13279Y-318394D01*
X13192Y-318400D01*
X13105Y-318396D01*
X12998Y-318412D01*
X12890Y-318419D01*
X12806Y-318442D01*
X12720Y-318456D01*
X12619Y-318494D01*
X12514Y-318522D01*
X12437Y-318562D01*
X12355Y-318593D01*
X12264Y-318651D01*
X12167Y-318700D01*
X12099Y-318755D01*
X12026Y-318802D01*
X11948Y-318877D01*
X11864Y-318945D01*
X11808Y-319012D01*
X11746Y-319073D01*
X11685Y-319163D01*
X11617Y-319246D01*
X11587Y-319307D01*
X11527Y-319396D01*
X11426Y-319642D01*
X11393Y-319709D01*
X11390Y-319718D01*
X10512Y-321442D01*
X9375Y-323007D01*
X8007Y-324375D01*
X6442Y-325512D01*
X4718Y-326390D01*
X3249Y-326867D01*
X3249Y-316345D01*
G37*
%LPD*%
%LPC*%
G36*
X-59586Y-253001D02*
X-59586Y-253001D01*
X-64364Y-251021D01*
X-68021Y-247364D01*
X-70001Y-242586D01*
X-70001Y-237414D01*
X-68021Y-232636D01*
X-64364Y-228979D01*
X-59586Y-226999D01*
X-54414Y-226999D01*
X-49636Y-228979D01*
X-45979Y-232636D01*
X-43999Y-237414D01*
X-43999Y-242586D01*
X-45979Y-247364D01*
X-49636Y-251021D01*
X-54414Y-253001D01*
X-59586Y-253001D01*
G37*
%LPD*%
%LPC*%
G36*
X54414Y-253001D02*
X54414Y-253001D01*
X49636Y-251021D01*
X45979Y-247364D01*
X43999Y-242586D01*
X43999Y-237414D01*
X45979Y-232636D01*
X49636Y-228979D01*
X54414Y-226999D01*
X59586Y-226999D01*
X64364Y-228979D01*
X68021Y-232636D01*
X70001Y-237414D01*
X70001Y-242586D01*
X68021Y-247364D01*
X64364Y-251021D01*
X59586Y-253001D01*
X54414Y-253001D01*
G37*
%LPD*%
%LPC*%
G36*
X-27192Y-181021D02*
X-27192Y-181021D01*
X-31243Y-179343D01*
X-34343Y-176243D01*
X-36021Y-172192D01*
X-36021Y-167808D01*
X-34343Y-163757D01*
X-31243Y-160657D01*
X-27192Y-158979D01*
X-22808Y-158979D01*
X-18757Y-160657D01*
X-15657Y-163757D01*
X-13979Y-167808D01*
X-13979Y-172192D01*
X-15657Y-176243D01*
X-18757Y-179343D01*
X-22808Y-181021D01*
X-27192Y-181021D01*
G37*
%LPD*%
%LPC*%
G36*
X-400088Y41732D02*
X-400088Y41732D01*
X-400258Y41737D01*
X-400345Y41749D01*
X-409038Y41749D01*
X-408610Y43066D01*
X-407946Y44369D01*
X-407087Y45553D01*
X-406053Y46587D01*
X-404869Y47446D01*
X-403566Y48110D01*
X-402813Y48355D01*
X-402714Y48399D01*
X-402611Y48433D01*
X-402536Y48477D01*
X-402456Y48513D01*
X-402368Y48576D01*
X-402275Y48630D01*
X-402210Y48689D01*
X-402139Y48740D01*
X-402066Y48819D01*
X-401986Y48892D01*
X-401934Y48962D01*
X-401875Y49027D01*
X-401820Y49119D01*
X-401756Y49207D01*
X-401720Y49286D01*
X-401675Y49361D01*
X-401640Y49463D01*
X-401595Y49562D01*
X-401576Y49647D01*
X-401548Y49729D01*
X-401534Y49836D01*
X-401510Y49942D01*
X-401509Y50029D01*
X-401497Y50116D01*
X-401506Y50224D01*
X-401504Y50332D01*
X-401520Y50417D01*
X-401527Y50505D01*
X-401557Y50608D01*
X-401577Y50714D01*
X-401611Y50795D01*
X-401635Y50879D01*
X-401686Y50974D01*
X-401727Y51074D01*
X-401777Y51147D01*
X-401818Y51224D01*
X-401886Y51307D01*
X-401947Y51396D01*
X-402010Y51457D01*
X-402066Y51524D01*
X-402150Y51591D01*
X-402228Y51666D01*
X-402287Y51701D01*
X-402371Y51767D01*
X-402607Y51887D01*
X-402672Y51925D01*
X-404543Y52700D01*
X-406800Y54957D01*
X-408021Y57905D01*
X-408021Y61095D01*
X-406800Y64043D01*
X-404543Y66300D01*
X-401595Y67521D01*
X-398405Y67521D01*
X-395457Y66300D01*
X-393200Y64043D01*
X-391979Y61095D01*
X-391979Y57905D01*
X-393200Y54957D01*
X-395457Y52700D01*
X-397328Y51925D01*
X-397423Y51874D01*
X-397522Y51832D01*
X-397594Y51782D01*
X-397671Y51740D01*
X-397753Y51670D01*
X-397842Y51609D01*
X-397902Y51545D01*
X-397969Y51489D01*
X-398036Y51404D01*
X-398110Y51325D01*
X-398155Y51251D01*
X-398209Y51182D01*
X-398257Y51085D01*
X-398314Y50994D01*
X-398344Y50911D01*
X-398383Y50833D01*
X-398410Y50729D01*
X-398447Y50627D01*
X-398459Y50540D01*
X-398481Y50456D01*
X-398486Y50348D01*
X-398502Y50241D01*
X-398496Y50154D01*
X-398501Y50067D01*
X-398484Y49960D01*
X-398477Y49852D01*
X-398454Y49768D01*
X-398441Y49681D01*
X-398403Y49580D01*
X-398374Y49476D01*
X-398334Y49398D01*
X-398303Y49317D01*
X-398245Y49225D01*
X-398196Y49129D01*
X-398141Y49061D01*
X-398095Y48987D01*
X-398020Y48910D01*
X-397952Y48826D01*
X-397884Y48770D01*
X-397823Y48708D01*
X-397734Y48647D01*
X-397650Y48578D01*
X-397589Y48549D01*
X-397501Y48489D01*
X-397255Y48388D01*
X-397187Y48355D01*
X-396434Y48110D01*
X-395131Y47446D01*
X-393947Y46587D01*
X-392913Y45553D01*
X-392054Y44369D01*
X-391390Y43066D01*
X-390962Y41749D01*
X-399655Y41749D01*
X-399721Y41742D01*
X-399787Y41745D01*
X-399914Y41723D01*
X-400010Y41713D01*
X-400088Y41732D01*
G37*
%LPD*%
%LPC*%
G36*
X-400088Y101732D02*
X-400088Y101732D01*
X-400258Y101737D01*
X-400345Y101749D01*
X-409038Y101749D01*
X-408610Y103066D01*
X-407946Y104369D01*
X-407087Y105553D01*
X-406053Y106587D01*
X-404869Y107446D01*
X-403566Y108110D01*
X-402813Y108355D01*
X-402714Y108399D01*
X-402611Y108433D01*
X-402536Y108477D01*
X-402456Y108513D01*
X-402368Y108576D01*
X-402275Y108630D01*
X-402210Y108689D01*
X-402139Y108740D01*
X-402066Y108819D01*
X-401986Y108892D01*
X-401934Y108962D01*
X-401875Y109027D01*
X-401820Y109119D01*
X-401756Y109207D01*
X-401720Y109286D01*
X-401675Y109361D01*
X-401640Y109463D01*
X-401595Y109562D01*
X-401576Y109647D01*
X-401548Y109729D01*
X-401534Y109836D01*
X-401510Y109942D01*
X-401509Y110029D01*
X-401497Y110116D01*
X-401506Y110224D01*
X-401504Y110332D01*
X-401520Y110417D01*
X-401527Y110505D01*
X-401557Y110608D01*
X-401577Y110714D01*
X-401611Y110795D01*
X-401635Y110879D01*
X-401686Y110975D01*
X-401727Y111074D01*
X-401777Y111147D01*
X-401818Y111224D01*
X-401886Y111307D01*
X-401947Y111396D01*
X-402010Y111457D01*
X-402066Y111524D01*
X-402150Y111591D01*
X-402228Y111666D01*
X-402287Y111701D01*
X-402371Y111767D01*
X-402607Y111887D01*
X-402672Y111925D01*
X-404543Y112700D01*
X-406800Y114957D01*
X-408021Y117905D01*
X-408021Y121095D01*
X-406800Y124043D01*
X-404543Y126300D01*
X-401595Y127521D01*
X-398405Y127521D01*
X-395457Y126300D01*
X-393200Y124043D01*
X-391979Y121095D01*
X-391979Y117905D01*
X-393200Y114957D01*
X-395457Y112700D01*
X-397328Y111925D01*
X-397423Y111874D01*
X-397522Y111832D01*
X-397594Y111782D01*
X-397671Y111740D01*
X-397753Y111670D01*
X-397842Y111609D01*
X-397902Y111545D01*
X-397969Y111489D01*
X-398036Y111404D01*
X-398110Y111325D01*
X-398155Y111251D01*
X-398209Y111182D01*
X-398257Y111085D01*
X-398314Y110994D01*
X-398344Y110911D01*
X-398383Y110833D01*
X-398410Y110729D01*
X-398447Y110627D01*
X-398459Y110540D01*
X-398481Y110456D01*
X-398486Y110348D01*
X-398502Y110241D01*
X-398496Y110154D01*
X-398501Y110067D01*
X-398484Y109960D01*
X-398477Y109852D01*
X-398454Y109768D01*
X-398441Y109681D01*
X-398403Y109580D01*
X-398374Y109476D01*
X-398334Y109398D01*
X-398303Y109317D01*
X-398245Y109225D01*
X-398196Y109129D01*
X-398141Y109061D01*
X-398095Y108987D01*
X-398020Y108910D01*
X-397952Y108826D01*
X-397884Y108770D01*
X-397823Y108708D01*
X-397734Y108647D01*
X-397650Y108578D01*
X-397589Y108549D01*
X-397501Y108489D01*
X-397255Y108388D01*
X-397187Y108355D01*
X-396434Y108110D01*
X-395131Y107446D01*
X-393947Y106587D01*
X-392913Y105553D01*
X-392054Y104369D01*
X-391390Y103066D01*
X-390962Y101749D01*
X-399655Y101749D01*
X-399721Y101742D01*
X-399787Y101745D01*
X-399914Y101723D01*
X-400010Y101713D01*
X-400088Y101732D01*
G37*
%LPD*%
%LPC*%
G36*
X399912Y22232D02*
X399912Y22232D01*
X399742Y22237D01*
X399655Y22249D01*
X390962Y22249D01*
X391390Y23566D01*
X392054Y24869D01*
X392913Y26053D01*
X393947Y27087D01*
X395131Y27946D01*
X396434Y28610D01*
X397187Y28855D01*
X397286Y28899D01*
X397389Y28933D01*
X397464Y28977D01*
X397544Y29013D01*
X397632Y29076D01*
X397725Y29130D01*
X397790Y29189D01*
X397861Y29240D01*
X397934Y29319D01*
X398014Y29392D01*
X398066Y29462D01*
X398125Y29527D01*
X398180Y29619D01*
X398244Y29707D01*
X398280Y29786D01*
X398325Y29861D01*
X398360Y29963D01*
X398405Y30062D01*
X398424Y30147D01*
X398452Y30229D01*
X398466Y30336D01*
X398490Y30442D01*
X398491Y30529D01*
X398503Y30616D01*
X398494Y30724D01*
X398496Y30832D01*
X398480Y30917D01*
X398473Y31005D01*
X398443Y31108D01*
X398423Y31214D01*
X398389Y31295D01*
X398365Y31379D01*
X398314Y31475D01*
X398273Y31574D01*
X398223Y31647D01*
X398182Y31724D01*
X398114Y31807D01*
X398053Y31896D01*
X397990Y31957D01*
X397934Y32024D01*
X397850Y32091D01*
X397772Y32166D01*
X397713Y32201D01*
X397629Y32267D01*
X397393Y32387D01*
X397328Y32425D01*
X395457Y33200D01*
X393200Y35457D01*
X391979Y38405D01*
X391979Y41595D01*
X393200Y44543D01*
X395457Y46800D01*
X398405Y48021D01*
X401595Y48021D01*
X404543Y46800D01*
X406800Y44543D01*
X408021Y41595D01*
X408021Y38405D01*
X406800Y35457D01*
X404543Y33200D01*
X402672Y32425D01*
X402577Y32374D01*
X402478Y32332D01*
X402406Y32282D01*
X402329Y32240D01*
X402247Y32170D01*
X402158Y32109D01*
X402098Y32045D01*
X402031Y31989D01*
X401964Y31904D01*
X401890Y31825D01*
X401845Y31751D01*
X401791Y31682D01*
X401743Y31585D01*
X401686Y31494D01*
X401656Y31411D01*
X401617Y31333D01*
X401590Y31229D01*
X401553Y31127D01*
X401541Y31040D01*
X401519Y30956D01*
X401514Y30848D01*
X401498Y30741D01*
X401504Y30654D01*
X401499Y30567D01*
X401516Y30460D01*
X401523Y30352D01*
X401546Y30268D01*
X401559Y30181D01*
X401597Y30080D01*
X401626Y29976D01*
X401666Y29898D01*
X401697Y29817D01*
X401755Y29725D01*
X401804Y29629D01*
X401859Y29561D01*
X401905Y29487D01*
X401980Y29410D01*
X402048Y29326D01*
X402116Y29270D01*
X402177Y29208D01*
X402266Y29147D01*
X402350Y29078D01*
X402411Y29049D01*
X402499Y28989D01*
X402745Y28888D01*
X402813Y28855D01*
X403566Y28610D01*
X404869Y27946D01*
X406053Y27087D01*
X407087Y26053D01*
X407946Y24869D01*
X408610Y23566D01*
X409038Y22249D01*
X400345Y22249D01*
X400279Y22242D01*
X400213Y22245D01*
X400086Y22223D01*
X399990Y22213D01*
X399912Y22232D01*
G37*
%LPD*%
%LPC*%
G36*
X398405Y-68021D02*
X398405Y-68021D01*
X395457Y-66800D01*
X393200Y-64543D01*
X391979Y-61595D01*
X391979Y-58405D01*
X393200Y-55457D01*
X395457Y-53200D01*
X397328Y-52425D01*
X397423Y-52374D01*
X397522Y-52332D01*
X397594Y-52282D01*
X397671Y-52240D01*
X397753Y-52170D01*
X397842Y-52109D01*
X397902Y-52045D01*
X397969Y-51989D01*
X398036Y-51904D01*
X398110Y-51825D01*
X398155Y-51751D01*
X398209Y-51682D01*
X398257Y-51585D01*
X398314Y-51494D01*
X398344Y-51411D01*
X398383Y-51333D01*
X398410Y-51229D01*
X398447Y-51127D01*
X398459Y-51040D01*
X398481Y-50956D01*
X398486Y-50848D01*
X398502Y-50741D01*
X398496Y-50654D01*
X398501Y-50567D01*
X398484Y-50460D01*
X398477Y-50352D01*
X398454Y-50268D01*
X398441Y-50181D01*
X398403Y-50080D01*
X398374Y-49976D01*
X398334Y-49898D01*
X398303Y-49817D01*
X398245Y-49725D01*
X398196Y-49629D01*
X398141Y-49561D01*
X398095Y-49487D01*
X398020Y-49410D01*
X397952Y-49326D01*
X397884Y-49270D01*
X397823Y-49208D01*
X397734Y-49147D01*
X397650Y-49078D01*
X397589Y-49049D01*
X397501Y-48989D01*
X397255Y-48888D01*
X397187Y-48855D01*
X396434Y-48610D01*
X395131Y-47946D01*
X393947Y-47087D01*
X392913Y-46053D01*
X392054Y-44869D01*
X391390Y-43566D01*
X390962Y-42249D01*
X399655Y-42249D01*
X399721Y-42242D01*
X399787Y-42245D01*
X399914Y-42223D01*
X400010Y-42213D01*
X400088Y-42232D01*
X400258Y-42237D01*
X400345Y-42249D01*
X409038Y-42249D01*
X408610Y-43566D01*
X407946Y-44869D01*
X407087Y-46053D01*
X406053Y-47087D01*
X404869Y-47946D01*
X403566Y-48610D01*
X402813Y-48855D01*
X402714Y-48899D01*
X402611Y-48933D01*
X402536Y-48977D01*
X402456Y-49013D01*
X402368Y-49076D01*
X402275Y-49130D01*
X402210Y-49189D01*
X402139Y-49240D01*
X402066Y-49319D01*
X401986Y-49392D01*
X401934Y-49462D01*
X401875Y-49527D01*
X401820Y-49619D01*
X401756Y-49707D01*
X401720Y-49786D01*
X401675Y-49861D01*
X401640Y-49963D01*
X401595Y-50062D01*
X401576Y-50147D01*
X401548Y-50229D01*
X401534Y-50336D01*
X401510Y-50442D01*
X401509Y-50529D01*
X401497Y-50616D01*
X401506Y-50724D01*
X401504Y-50832D01*
X401520Y-50917D01*
X401527Y-51005D01*
X401557Y-51108D01*
X401577Y-51214D01*
X401611Y-51295D01*
X401635Y-51379D01*
X401686Y-51475D01*
X401727Y-51574D01*
X401777Y-51647D01*
X401818Y-51724D01*
X401886Y-51807D01*
X401947Y-51896D01*
X402010Y-51957D01*
X402066Y-52024D01*
X402150Y-52091D01*
X402228Y-52166D01*
X402287Y-52201D01*
X402371Y-52267D01*
X402607Y-52387D01*
X402672Y-52425D01*
X404543Y-53200D01*
X406800Y-55457D01*
X408021Y-58405D01*
X408021Y-61595D01*
X406800Y-64543D01*
X404543Y-66800D01*
X401595Y-68021D01*
X398405Y-68021D01*
G37*
%LPD*%
%LPC*%
G36*
X399912Y-37768D02*
X399912Y-37768D01*
X399742Y-37763D01*
X399655Y-37751D01*
X390962Y-37751D01*
X391390Y-36434D01*
X392054Y-35131D01*
X392913Y-33947D01*
X393947Y-32913D01*
X395131Y-32054D01*
X396434Y-31390D01*
X397187Y-31145D01*
X397286Y-31101D01*
X397389Y-31067D01*
X397464Y-31023D01*
X397544Y-30987D01*
X397632Y-30924D01*
X397725Y-30870D01*
X397790Y-30811D01*
X397861Y-30760D01*
X397934Y-30681D01*
X398014Y-30608D01*
X398066Y-30538D01*
X398125Y-30473D01*
X398180Y-30381D01*
X398244Y-30293D01*
X398280Y-30214D01*
X398325Y-30139D01*
X398360Y-30037D01*
X398405Y-29938D01*
X398424Y-29853D01*
X398452Y-29771D01*
X398466Y-29664D01*
X398490Y-29558D01*
X398491Y-29471D01*
X398503Y-29384D01*
X398494Y-29276D01*
X398496Y-29168D01*
X398480Y-29083D01*
X398473Y-28995D01*
X398443Y-28892D01*
X398423Y-28786D01*
X398389Y-28705D01*
X398365Y-28621D01*
X398314Y-28525D01*
X398273Y-28426D01*
X398223Y-28353D01*
X398182Y-28276D01*
X398114Y-28193D01*
X398053Y-28104D01*
X397990Y-28043D01*
X397934Y-27976D01*
X397850Y-27909D01*
X397772Y-27834D01*
X397713Y-27799D01*
X397629Y-27733D01*
X397393Y-27613D01*
X397328Y-27575D01*
X395457Y-26800D01*
X393200Y-24543D01*
X391979Y-21595D01*
X391979Y-18405D01*
X393200Y-15457D01*
X395457Y-13200D01*
X398405Y-11979D01*
X401595Y-11979D01*
X404543Y-13200D01*
X406800Y-15457D01*
X408021Y-18405D01*
X408021Y-21595D01*
X406800Y-24543D01*
X404543Y-26800D01*
X402672Y-27575D01*
X402577Y-27626D01*
X402478Y-27668D01*
X402406Y-27718D01*
X402329Y-27760D01*
X402247Y-27830D01*
X402158Y-27891D01*
X402098Y-27955D01*
X402031Y-28011D01*
X401964Y-28096D01*
X401890Y-28175D01*
X401845Y-28249D01*
X401791Y-28318D01*
X401743Y-28415D01*
X401686Y-28506D01*
X401656Y-28589D01*
X401617Y-28667D01*
X401590Y-28771D01*
X401553Y-28873D01*
X401541Y-28960D01*
X401519Y-29044D01*
X401514Y-29152D01*
X401498Y-29259D01*
X401504Y-29346D01*
X401499Y-29433D01*
X401516Y-29540D01*
X401523Y-29648D01*
X401546Y-29732D01*
X401559Y-29819D01*
X401597Y-29920D01*
X401626Y-30024D01*
X401666Y-30102D01*
X401697Y-30183D01*
X401755Y-30275D01*
X401804Y-30371D01*
X401859Y-30439D01*
X401905Y-30513D01*
X401980Y-30590D01*
X402048Y-30674D01*
X402116Y-30730D01*
X402177Y-30792D01*
X402266Y-30853D01*
X402350Y-30922D01*
X402411Y-30951D01*
X402499Y-31011D01*
X402745Y-31112D01*
X402813Y-31145D01*
X403566Y-31390D01*
X404869Y-32054D01*
X406053Y-32913D01*
X407087Y-33947D01*
X407946Y-35131D01*
X408610Y-36434D01*
X409038Y-37751D01*
X400345Y-37751D01*
X400279Y-37758D01*
X400213Y-37755D01*
X400086Y-37777D01*
X399990Y-37787D01*
X399912Y-37768D01*
G37*
%LPD*%
%LPC*%
G36*
X-401595Y11479D02*
X-401595Y11479D01*
X-404543Y12700D01*
X-406800Y14957D01*
X-408021Y17905D01*
X-408021Y21095D01*
X-406800Y24043D01*
X-404543Y26300D01*
X-402672Y27075D01*
X-402577Y27126D01*
X-402478Y27168D01*
X-402406Y27218D01*
X-402329Y27260D01*
X-402247Y27330D01*
X-402158Y27391D01*
X-402098Y27455D01*
X-402031Y27511D01*
X-401964Y27596D01*
X-401890Y27675D01*
X-401845Y27749D01*
X-401791Y27818D01*
X-401743Y27915D01*
X-401686Y28006D01*
X-401656Y28089D01*
X-401617Y28167D01*
X-401590Y28271D01*
X-401553Y28373D01*
X-401541Y28460D01*
X-401519Y28544D01*
X-401514Y28652D01*
X-401498Y28759D01*
X-401504Y28846D01*
X-401499Y28933D01*
X-401516Y29040D01*
X-401523Y29148D01*
X-401546Y29232D01*
X-401559Y29319D01*
X-401597Y29420D01*
X-401626Y29524D01*
X-401666Y29602D01*
X-401697Y29683D01*
X-401755Y29775D01*
X-401804Y29871D01*
X-401859Y29939D01*
X-401905Y30013D01*
X-401980Y30090D01*
X-402048Y30174D01*
X-402116Y30230D01*
X-402177Y30292D01*
X-402266Y30353D01*
X-402350Y30422D01*
X-402411Y30451D01*
X-402499Y30511D01*
X-402745Y30612D01*
X-402813Y30645D01*
X-403566Y30890D01*
X-404869Y31554D01*
X-406053Y32413D01*
X-407087Y33447D01*
X-407946Y34631D01*
X-408610Y35934D01*
X-409038Y37251D01*
X-400345Y37251D01*
X-400279Y37258D01*
X-400213Y37255D01*
X-400086Y37277D01*
X-399990Y37287D01*
X-399912Y37268D01*
X-399742Y37263D01*
X-399655Y37251D01*
X-390962Y37251D01*
X-391390Y35934D01*
X-392054Y34631D01*
X-392913Y33447D01*
X-393947Y32413D01*
X-395131Y31554D01*
X-396434Y30890D01*
X-397187Y30645D01*
X-397286Y30601D01*
X-397389Y30567D01*
X-397464Y30523D01*
X-397544Y30487D01*
X-397632Y30424D01*
X-397725Y30370D01*
X-397790Y30311D01*
X-397861Y30260D01*
X-397934Y30181D01*
X-398014Y30108D01*
X-398066Y30038D01*
X-398125Y29973D01*
X-398180Y29881D01*
X-398244Y29793D01*
X-398280Y29714D01*
X-398325Y29639D01*
X-398360Y29537D01*
X-398405Y29438D01*
X-398424Y29353D01*
X-398452Y29271D01*
X-398466Y29163D01*
X-398490Y29058D01*
X-398491Y28971D01*
X-398503Y28884D01*
X-398494Y28776D01*
X-398496Y28668D01*
X-398480Y28583D01*
X-398473Y28495D01*
X-398443Y28392D01*
X-398423Y28286D01*
X-398389Y28205D01*
X-398365Y28121D01*
X-398314Y28025D01*
X-398273Y27926D01*
X-398223Y27853D01*
X-398182Y27776D01*
X-398114Y27693D01*
X-398053Y27604D01*
X-397990Y27543D01*
X-397934Y27476D01*
X-397850Y27409D01*
X-397772Y27334D01*
X-397713Y27299D01*
X-397629Y27233D01*
X-397393Y27113D01*
X-397328Y27075D01*
X-395457Y26300D01*
X-393200Y24043D01*
X-391979Y21095D01*
X-391979Y17905D01*
X-393200Y14957D01*
X-395457Y12700D01*
X-398405Y11479D01*
X-401595Y11479D01*
G37*
%LPD*%
%LPC*%
G36*
X-401595Y71479D02*
X-401595Y71479D01*
X-404543Y72700D01*
X-406800Y74957D01*
X-408021Y77905D01*
X-408021Y81095D01*
X-406800Y84043D01*
X-404543Y86300D01*
X-402672Y87075D01*
X-402577Y87126D01*
X-402478Y87168D01*
X-402406Y87218D01*
X-402329Y87260D01*
X-402247Y87330D01*
X-402158Y87391D01*
X-402098Y87455D01*
X-402031Y87511D01*
X-401964Y87596D01*
X-401890Y87675D01*
X-401845Y87749D01*
X-401791Y87818D01*
X-401743Y87915D01*
X-401686Y88006D01*
X-401656Y88089D01*
X-401617Y88167D01*
X-401590Y88271D01*
X-401553Y88373D01*
X-401541Y88460D01*
X-401519Y88544D01*
X-401514Y88652D01*
X-401498Y88759D01*
X-401504Y88846D01*
X-401499Y88933D01*
X-401516Y89040D01*
X-401523Y89148D01*
X-401546Y89232D01*
X-401559Y89319D01*
X-401597Y89420D01*
X-401626Y89524D01*
X-401666Y89602D01*
X-401697Y89683D01*
X-401755Y89775D01*
X-401804Y89871D01*
X-401859Y89939D01*
X-401905Y90013D01*
X-401980Y90090D01*
X-402048Y90174D01*
X-402116Y90230D01*
X-402177Y90292D01*
X-402266Y90353D01*
X-402350Y90422D01*
X-402411Y90451D01*
X-402499Y90511D01*
X-402745Y90612D01*
X-402813Y90645D01*
X-403566Y90890D01*
X-404869Y91554D01*
X-406053Y92413D01*
X-407087Y93447D01*
X-407946Y94631D01*
X-408610Y95934D01*
X-409038Y97251D01*
X-400345Y97251D01*
X-400279Y97258D01*
X-400213Y97255D01*
X-400086Y97277D01*
X-399990Y97287D01*
X-399912Y97268D01*
X-399742Y97263D01*
X-399655Y97251D01*
X-390962Y97251D01*
X-391390Y95934D01*
X-392054Y94631D01*
X-392913Y93447D01*
X-393947Y92413D01*
X-395131Y91554D01*
X-396434Y90890D01*
X-397187Y90645D01*
X-397286Y90601D01*
X-397389Y90567D01*
X-397464Y90523D01*
X-397544Y90487D01*
X-397632Y90424D01*
X-397725Y90370D01*
X-397790Y90311D01*
X-397861Y90260D01*
X-397934Y90181D01*
X-398014Y90108D01*
X-398066Y90038D01*
X-398125Y89973D01*
X-398180Y89881D01*
X-398244Y89793D01*
X-398280Y89714D01*
X-398325Y89639D01*
X-398360Y89537D01*
X-398405Y89438D01*
X-398424Y89353D01*
X-398452Y89271D01*
X-398466Y89164D01*
X-398490Y89058D01*
X-398491Y88971D01*
X-398503Y88884D01*
X-398494Y88776D01*
X-398496Y88668D01*
X-398480Y88583D01*
X-398473Y88495D01*
X-398443Y88392D01*
X-398423Y88286D01*
X-398389Y88205D01*
X-398365Y88121D01*
X-398314Y88025D01*
X-398273Y87926D01*
X-398223Y87853D01*
X-398182Y87776D01*
X-398114Y87693D01*
X-398053Y87604D01*
X-397990Y87543D01*
X-397934Y87476D01*
X-397850Y87409D01*
X-397772Y87334D01*
X-397713Y87299D01*
X-397629Y87233D01*
X-397393Y87113D01*
X-397328Y87075D01*
X-395457Y86300D01*
X-393200Y84043D01*
X-391979Y81095D01*
X-391979Y77905D01*
X-393200Y74957D01*
X-395457Y72700D01*
X-398405Y71479D01*
X-401595Y71479D01*
G37*
%LPD*%
%LPC*%
G36*
X398405Y-8021D02*
X398405Y-8021D01*
X395457Y-6800D01*
X393200Y-4543D01*
X391979Y-1595D01*
X391979Y1595D01*
X393200Y4543D01*
X395457Y6800D01*
X397328Y7575D01*
X397423Y7626D01*
X397522Y7668D01*
X397594Y7718D01*
X397671Y7760D01*
X397753Y7830D01*
X397842Y7891D01*
X397902Y7955D01*
X397969Y8011D01*
X398036Y8096D01*
X398110Y8175D01*
X398155Y8249D01*
X398209Y8318D01*
X398257Y8415D01*
X398314Y8506D01*
X398344Y8589D01*
X398383Y8667D01*
X398410Y8771D01*
X398447Y8873D01*
X398459Y8960D01*
X398481Y9044D01*
X398486Y9152D01*
X398502Y9259D01*
X398496Y9346D01*
X398501Y9433D01*
X398484Y9540D01*
X398477Y9648D01*
X398454Y9732D01*
X398441Y9819D01*
X398403Y9920D01*
X398374Y10024D01*
X398334Y10102D01*
X398303Y10183D01*
X398245Y10275D01*
X398196Y10371D01*
X398141Y10439D01*
X398095Y10513D01*
X398020Y10590D01*
X397952Y10674D01*
X397884Y10730D01*
X397823Y10792D01*
X397734Y10853D01*
X397650Y10922D01*
X397589Y10951D01*
X397501Y11011D01*
X397255Y11112D01*
X397187Y11145D01*
X396434Y11390D01*
X395131Y12054D01*
X393947Y12913D01*
X392913Y13947D01*
X392054Y15131D01*
X391390Y16434D01*
X390962Y17751D01*
X399655Y17751D01*
X399721Y17758D01*
X399787Y17755D01*
X399914Y17777D01*
X400010Y17787D01*
X400088Y17768D01*
X400258Y17763D01*
X400345Y17751D01*
X409038Y17751D01*
X408610Y16434D01*
X407946Y15131D01*
X407087Y13947D01*
X406053Y12913D01*
X404869Y12054D01*
X403566Y11390D01*
X402813Y11145D01*
X402714Y11101D01*
X402611Y11067D01*
X402536Y11023D01*
X402456Y10987D01*
X402368Y10924D01*
X402275Y10870D01*
X402210Y10811D01*
X402139Y10760D01*
X402066Y10681D01*
X401986Y10608D01*
X401934Y10538D01*
X401875Y10473D01*
X401820Y10381D01*
X401756Y10293D01*
X401720Y10214D01*
X401675Y10139D01*
X401640Y10037D01*
X401595Y9938D01*
X401576Y9853D01*
X401548Y9771D01*
X401534Y9664D01*
X401510Y9558D01*
X401509Y9471D01*
X401497Y9384D01*
X401506Y9276D01*
X401504Y9168D01*
X401520Y9083D01*
X401527Y8995D01*
X401557Y8892D01*
X401577Y8786D01*
X401611Y8705D01*
X401635Y8621D01*
X401686Y8525D01*
X401727Y8426D01*
X401777Y8353D01*
X401818Y8276D01*
X401886Y8193D01*
X401947Y8104D01*
X402010Y8043D01*
X402066Y7976D01*
X402150Y7909D01*
X402228Y7834D01*
X402287Y7799D01*
X402371Y7733D01*
X402607Y7613D01*
X402672Y7575D01*
X404543Y6800D01*
X406800Y4543D01*
X408021Y1595D01*
X408021Y-1595D01*
X406800Y-4543D01*
X404543Y-6800D01*
X401595Y-8021D01*
X398405Y-8021D01*
G37*
%LPD*%
%LPC*%
G36*
X-124974Y181079D02*
X-124974Y181079D01*
X-128253Y182437D01*
X-130763Y184947D01*
X-132121Y188226D01*
X-132121Y191774D01*
X-130763Y195053D01*
X-128253Y197563D01*
X-124974Y198921D01*
X-121426Y198921D01*
X-118147Y197563D01*
X-115637Y195053D01*
X-114279Y191774D01*
X-114279Y188226D01*
X-115637Y184947D01*
X-118147Y182437D01*
X-121426Y181079D01*
X-124974Y181079D01*
G37*
%LPD*%
%LPC*%
G36*
X27426Y181079D02*
X27426Y181079D01*
X24147Y182437D01*
X21637Y184947D01*
X20279Y188226D01*
X20279Y191774D01*
X21637Y195053D01*
X24147Y197563D01*
X27426Y198921D01*
X30974Y198921D01*
X34253Y197563D01*
X36763Y195053D01*
X38121Y191774D01*
X38121Y188226D01*
X36763Y184947D01*
X34253Y182437D01*
X30974Y181079D01*
X27426Y181079D01*
G37*
%LPD*%
%LPC*%
G36*
X-23374Y181079D02*
X-23374Y181079D01*
X-26653Y182437D01*
X-29163Y184947D01*
X-30521Y188226D01*
X-30521Y191774D01*
X-29163Y195053D01*
X-26653Y197563D01*
X-23374Y198921D01*
X-19826Y198921D01*
X-16547Y197563D01*
X-14037Y195053D01*
X-12679Y191774D01*
X-12679Y188226D01*
X-14037Y184947D01*
X-16547Y182437D01*
X-19826Y181079D01*
X-23374Y181079D01*
G37*
%LPD*%
%LPC*%
G36*
X-48774Y181079D02*
X-48774Y181079D01*
X-52053Y182437D01*
X-54563Y184947D01*
X-55921Y188226D01*
X-55921Y191774D01*
X-54563Y195053D01*
X-52053Y197563D01*
X-48774Y198921D01*
X-45226Y198921D01*
X-41947Y197563D01*
X-39437Y195053D01*
X-38079Y191774D01*
X-38079Y188226D01*
X-39437Y184947D01*
X-41947Y182437D01*
X-45226Y181079D01*
X-48774Y181079D01*
G37*
%LPD*%
%LPC*%
G36*
X-99574Y181079D02*
X-99574Y181079D01*
X-102853Y182437D01*
X-105363Y184947D01*
X-106721Y188226D01*
X-106721Y191774D01*
X-105363Y195053D01*
X-102853Y197563D01*
X-99574Y198921D01*
X-96026Y198921D01*
X-92747Y197563D01*
X-90237Y195053D01*
X-88879Y191774D01*
X-88879Y188226D01*
X-90237Y184947D01*
X-92747Y182437D01*
X-96026Y181079D01*
X-99574Y181079D01*
G37*
%LPD*%
%LPC*%
G36*
X-150374Y181079D02*
X-150374Y181079D01*
X-153653Y182437D01*
X-156163Y184947D01*
X-157521Y188226D01*
X-157521Y191774D01*
X-156163Y195053D01*
X-153653Y197563D01*
X-150374Y198921D01*
X-146826Y198921D01*
X-143547Y197563D01*
X-141037Y195053D01*
X-139679Y191774D01*
X-139679Y188226D01*
X-141037Y184947D01*
X-143547Y182437D01*
X-146826Y181079D01*
X-150374Y181079D01*
G37*
%LPD*%
%LPC*%
G36*
X52826Y181079D02*
X52826Y181079D01*
X49547Y182437D01*
X47037Y184947D01*
X45679Y188226D01*
X45679Y191774D01*
X47037Y195053D01*
X49547Y197563D01*
X52826Y198921D01*
X56374Y198921D01*
X59653Y197563D01*
X62163Y195053D01*
X63521Y191774D01*
X63521Y188226D01*
X62163Y184947D01*
X59653Y182437D01*
X56374Y181079D01*
X52826Y181079D01*
G37*
%LPD*%
%LPC*%
G36*
X2026Y181079D02*
X2026Y181079D01*
X-1253Y182437D01*
X-3763Y184947D01*
X-5121Y188226D01*
X-5121Y191774D01*
X-3763Y195053D01*
X-1253Y197563D01*
X2026Y198921D01*
X5574Y198921D01*
X8853Y197563D01*
X11363Y195053D01*
X12721Y191774D01*
X12721Y188226D01*
X11363Y184947D01*
X8853Y182437D01*
X5574Y181079D01*
X2026Y181079D01*
G37*
%LPD*%
%LPC*%
G36*
X88231Y-60491D02*
X88231Y-60491D01*
X84964Y-59137D01*
X82463Y-56636D01*
X81109Y-53369D01*
X81109Y-49831D01*
X82463Y-46564D01*
X84964Y-44063D01*
X88231Y-42709D01*
X91769Y-42709D01*
X95036Y-44063D01*
X97537Y-46564D01*
X98891Y-49831D01*
X98891Y-53369D01*
X97537Y-56636D01*
X95036Y-59137D01*
X91769Y-60491D01*
X88231Y-60491D01*
G37*
%LPD*%
%LPC*%
G36*
X-91769Y41109D02*
X-91769Y41109D01*
X-95036Y42463D01*
X-97537Y44964D01*
X-98891Y48231D01*
X-98891Y51769D01*
X-97537Y55036D01*
X-95036Y57537D01*
X-91769Y58891D01*
X-88231Y58891D01*
X-84964Y57537D01*
X-82463Y55036D01*
X-81109Y51769D01*
X-81109Y48231D01*
X-82463Y44964D01*
X-84964Y42463D01*
X-88231Y41109D01*
X-91769Y41109D01*
G37*
%LPD*%
%LPC*%
G36*
X-91769Y-60491D02*
X-91769Y-60491D01*
X-95036Y-59137D01*
X-97537Y-56636D01*
X-98891Y-53369D01*
X-98891Y-49831D01*
X-97537Y-46564D01*
X-95036Y-44063D01*
X-91769Y-42709D01*
X-88231Y-42709D01*
X-84964Y-44063D01*
X-82463Y-46564D01*
X-81109Y-49831D01*
X-81109Y-53369D01*
X-82463Y-56636D01*
X-84964Y-59137D01*
X-88231Y-60491D01*
X-91769Y-60491D01*
G37*
%LPD*%
%LPC*%
G36*
X88231Y-85891D02*
X88231Y-85891D01*
X84964Y-84537D01*
X82463Y-82036D01*
X81109Y-78769D01*
X81109Y-75231D01*
X82463Y-71964D01*
X84964Y-69463D01*
X88231Y-68109D01*
X91769Y-68109D01*
X95036Y-69463D01*
X97537Y-71964D01*
X98891Y-75231D01*
X98891Y-78769D01*
X97537Y-82036D01*
X95036Y-84537D01*
X91769Y-85891D01*
X88231Y-85891D01*
G37*
%LPD*%
%LPC*%
G36*
X-91769Y15709D02*
X-91769Y15709D01*
X-95036Y17063D01*
X-97537Y19564D01*
X-98891Y22831D01*
X-98891Y26369D01*
X-97537Y29636D01*
X-95036Y32137D01*
X-91769Y33491D01*
X-88231Y33491D01*
X-84964Y32137D01*
X-82463Y29636D01*
X-81109Y26369D01*
X-81109Y22831D01*
X-82463Y19564D01*
X-84964Y17063D01*
X-88231Y15709D01*
X-91769Y15709D01*
G37*
%LPD*%
%LPC*%
G36*
X-189869Y221109D02*
X-189869Y221109D01*
X-193136Y222463D01*
X-195637Y224964D01*
X-196991Y228231D01*
X-196991Y231769D01*
X-195637Y235036D01*
X-193136Y237537D01*
X-189869Y238891D01*
X-186331Y238891D01*
X-183064Y237537D01*
X-180563Y235036D01*
X-179209Y231769D01*
X-179209Y228231D01*
X-180563Y224964D01*
X-183064Y222463D01*
X-186331Y221109D01*
X-189869Y221109D01*
G37*
%LPD*%
%LPC*%
G36*
X88231Y15709D02*
X88231Y15709D01*
X84964Y17063D01*
X82463Y19564D01*
X81109Y22831D01*
X81109Y26369D01*
X82463Y29636D01*
X84964Y32137D01*
X88231Y33491D01*
X91769Y33491D01*
X95036Y32137D01*
X97537Y29636D01*
X98891Y26369D01*
X98891Y22831D01*
X97537Y19564D01*
X95036Y17063D01*
X91769Y15709D01*
X88231Y15709D01*
G37*
%LPD*%
%LPC*%
G36*
X-91769Y-35091D02*
X-91769Y-35091D01*
X-95036Y-33737D01*
X-97537Y-31236D01*
X-98891Y-27969D01*
X-98891Y-24431D01*
X-97537Y-21164D01*
X-95036Y-18663D01*
X-91769Y-17309D01*
X-88231Y-17309D01*
X-84964Y-18663D01*
X-82463Y-21164D01*
X-81109Y-24431D01*
X-81109Y-27969D01*
X-82463Y-31236D01*
X-84964Y-33737D01*
X-88231Y-35091D01*
X-91769Y-35091D01*
G37*
%LPD*%
%LPC*%
G36*
X-139069Y221109D02*
X-139069Y221109D01*
X-142336Y222463D01*
X-144837Y224964D01*
X-146191Y228231D01*
X-146191Y231769D01*
X-144837Y235036D01*
X-142336Y237537D01*
X-139069Y238891D01*
X-135531Y238891D01*
X-132264Y237537D01*
X-129763Y235036D01*
X-128409Y231769D01*
X-128409Y228231D01*
X-129763Y224964D01*
X-132264Y222463D01*
X-135531Y221109D01*
X-139069Y221109D01*
G37*
%LPD*%
%LPC*%
G36*
X-113669Y221109D02*
X-113669Y221109D01*
X-116936Y222463D01*
X-119437Y224964D01*
X-120791Y228231D01*
X-120791Y231769D01*
X-119437Y235036D01*
X-116936Y237537D01*
X-113669Y238891D01*
X-110131Y238891D01*
X-106864Y237537D01*
X-104363Y235036D01*
X-103009Y231769D01*
X-103009Y228231D01*
X-104363Y224964D01*
X-106864Y222463D01*
X-110131Y221109D01*
X-113669Y221109D01*
G37*
%LPD*%
%LPC*%
G36*
X88231Y-9691D02*
X88231Y-9691D01*
X84964Y-8337D01*
X82463Y-5836D01*
X81109Y-2569D01*
X81109Y969D01*
X82463Y4236D01*
X84964Y6737D01*
X88231Y8091D01*
X91769Y8091D01*
X95036Y6737D01*
X97537Y4236D01*
X98891Y969D01*
X98891Y-2569D01*
X97537Y-5836D01*
X95036Y-8337D01*
X91769Y-9691D01*
X88231Y-9691D01*
G37*
%LPD*%
%LPC*%
G36*
X-331745Y151229D02*
X-331745Y151229D01*
X-334968Y152565D01*
X-337435Y155032D01*
X-338771Y158255D01*
X-338771Y161745D01*
X-337435Y164968D01*
X-334968Y167435D01*
X-331745Y168771D01*
X-328255Y168771D01*
X-325032Y167435D01*
X-322565Y164968D01*
X-321229Y161745D01*
X-321229Y158255D01*
X-322565Y155032D01*
X-325032Y152565D01*
X-328255Y151229D01*
X-331745Y151229D01*
G37*
%LPD*%
%LPC*%
G36*
X-141745Y-138771D02*
X-141745Y-138771D01*
X-144968Y-137435D01*
X-147435Y-134968D01*
X-148771Y-131745D01*
X-148771Y-128255D01*
X-147435Y-125032D01*
X-144968Y-122565D01*
X-141745Y-121229D01*
X-138255Y-121229D01*
X-135032Y-122565D01*
X-132565Y-125032D01*
X-131229Y-128255D01*
X-131229Y-131745D01*
X-132565Y-134968D01*
X-135032Y-137435D01*
X-138255Y-138771D01*
X-141745Y-138771D01*
G37*
%LPD*%
%LPC*%
G36*
X-101745Y-138771D02*
X-101745Y-138771D01*
X-104968Y-137435D01*
X-107435Y-134968D01*
X-108771Y-131745D01*
X-108771Y-128255D01*
X-107435Y-125032D01*
X-104968Y-122565D01*
X-101745Y-121229D01*
X-98255Y-121229D01*
X-95032Y-122565D01*
X-92565Y-125032D01*
X-91229Y-128255D01*
X-91229Y-131745D01*
X-92565Y-134968D01*
X-95032Y-137435D01*
X-98255Y-138771D01*
X-101745Y-138771D01*
G37*
%LPD*%
%LPC*%
G36*
X398405Y91979D02*
X398405Y91979D01*
X395457Y93200D01*
X393200Y95457D01*
X391979Y98405D01*
X391979Y101595D01*
X393200Y104543D01*
X395457Y106800D01*
X398405Y108021D01*
X401595Y108021D01*
X404543Y106800D01*
X406800Y104543D01*
X408021Y101595D01*
X408021Y98405D01*
X406800Y95457D01*
X404543Y93200D01*
X401595Y91979D01*
X398405Y91979D01*
G37*
%LPD*%
%LPC*%
G36*
X398405Y131979D02*
X398405Y131979D01*
X395457Y133200D01*
X393200Y135457D01*
X391979Y138405D01*
X391979Y141595D01*
X393200Y144543D01*
X395457Y146800D01*
X398405Y148021D01*
X401595Y148021D01*
X404543Y146800D01*
X406800Y144543D01*
X408021Y141595D01*
X408021Y138405D01*
X406800Y135457D01*
X404543Y133200D01*
X401595Y131979D01*
X398405Y131979D01*
G37*
%LPD*%
%LPC*%
G36*
X-401595Y131479D02*
X-401595Y131479D01*
X-404543Y132700D01*
X-406800Y134957D01*
X-408021Y137905D01*
X-408021Y141095D01*
X-406800Y144043D01*
X-404543Y146300D01*
X-401595Y147521D01*
X-398405Y147521D01*
X-395457Y146300D01*
X-393200Y144043D01*
X-391979Y141095D01*
X-391979Y137905D01*
X-393200Y134957D01*
X-395457Y132700D01*
X-398405Y131479D01*
X-401595Y131479D01*
G37*
%LPD*%
%LPC*%
G36*
X398405Y71979D02*
X398405Y71979D01*
X395457Y73200D01*
X393200Y75457D01*
X391979Y78405D01*
X391979Y81595D01*
X393200Y84543D01*
X395457Y86800D01*
X398405Y88021D01*
X401595Y88021D01*
X404543Y86800D01*
X406800Y84543D01*
X408021Y81595D01*
X408021Y78405D01*
X406800Y75457D01*
X404543Y73200D01*
X401595Y71979D01*
X398405Y71979D01*
G37*
%LPD*%
%LPC*%
G36*
X-401595Y-28521D02*
X-401595Y-28521D01*
X-404543Y-27300D01*
X-406800Y-25043D01*
X-408021Y-22095D01*
X-408021Y-18905D01*
X-406800Y-15957D01*
X-404543Y-13700D01*
X-401595Y-12479D01*
X-398405Y-12479D01*
X-395457Y-13700D01*
X-393200Y-15957D01*
X-391979Y-18905D01*
X-391979Y-22095D01*
X-393200Y-25043D01*
X-395457Y-27300D01*
X-398405Y-28521D01*
X-401595Y-28521D01*
G37*
%LPD*%
%LPC*%
G36*
X-401595Y-48521D02*
X-401595Y-48521D01*
X-404543Y-47300D01*
X-406800Y-45043D01*
X-408021Y-42095D01*
X-408021Y-38905D01*
X-406800Y-35957D01*
X-404543Y-33700D01*
X-401595Y-32479D01*
X-398405Y-32479D01*
X-395457Y-33700D01*
X-393200Y-35957D01*
X-391979Y-38905D01*
X-391979Y-42095D01*
X-393200Y-45043D01*
X-395457Y-47300D01*
X-398405Y-48521D01*
X-401595Y-48521D01*
G37*
%LPD*%
%LPC*%
G36*
X398405Y51979D02*
X398405Y51979D01*
X395457Y53200D01*
X393200Y55457D01*
X391979Y58405D01*
X391979Y61595D01*
X393200Y64543D01*
X395457Y66800D01*
X398405Y68021D01*
X401595Y68021D01*
X404543Y66800D01*
X406800Y64543D01*
X408021Y61595D01*
X408021Y58405D01*
X406800Y55457D01*
X404543Y53200D01*
X401595Y51979D01*
X398405Y51979D01*
G37*
%LPD*%
%LPC*%
G36*
X-401595Y-68521D02*
X-401595Y-68521D01*
X-404543Y-67300D01*
X-406800Y-65043D01*
X-408021Y-62095D01*
X-408021Y-58905D01*
X-406800Y-55957D01*
X-404543Y-53700D01*
X-401595Y-52479D01*
X-398405Y-52479D01*
X-395457Y-53700D01*
X-393200Y-55957D01*
X-391979Y-58905D01*
X-391979Y-62095D01*
X-393200Y-65043D01*
X-395457Y-67300D01*
X-398405Y-68521D01*
X-401595Y-68521D01*
G37*
%LPD*%
%LPC*%
G36*
X-401595Y-88521D02*
X-401595Y-88521D01*
X-404543Y-87300D01*
X-406800Y-85043D01*
X-408021Y-82095D01*
X-408021Y-78905D01*
X-406800Y-75957D01*
X-404543Y-73700D01*
X-401595Y-72479D01*
X-398405Y-72479D01*
X-395457Y-73700D01*
X-393200Y-75957D01*
X-391979Y-78905D01*
X-391979Y-82095D01*
X-393200Y-85043D01*
X-395457Y-87300D01*
X-398405Y-88521D01*
X-401595Y-88521D01*
G37*
%LPD*%
%LPC*%
G36*
X398405Y-88021D02*
X398405Y-88021D01*
X395457Y-86800D01*
X393200Y-84543D01*
X391979Y-81595D01*
X391979Y-78405D01*
X393200Y-75457D01*
X395457Y-73200D01*
X398405Y-71979D01*
X401595Y-71979D01*
X404543Y-73200D01*
X406800Y-75457D01*
X408021Y-78405D01*
X408021Y-81595D01*
X406800Y-84543D01*
X404543Y-86800D01*
X401595Y-88021D01*
X398405Y-88021D01*
G37*
%LPD*%
%LPC*%
G36*
X398405Y111979D02*
X398405Y111979D01*
X395457Y113200D01*
X393200Y115457D01*
X391979Y118405D01*
X391979Y121595D01*
X393200Y124543D01*
X395457Y126800D01*
X398405Y128021D01*
X401595Y128021D01*
X404543Y126800D01*
X406800Y124543D01*
X408021Y121595D01*
X408021Y118405D01*
X406800Y115457D01*
X404543Y113200D01*
X401595Y111979D01*
X398405Y111979D01*
G37*
%LPD*%
%LPC*%
G36*
X-401595Y-8521D02*
X-401595Y-8521D01*
X-404543Y-7300D01*
X-406800Y-5043D01*
X-408021Y-2095D01*
X-408021Y1095D01*
X-406800Y4043D01*
X-404543Y6300D01*
X-401595Y7521D01*
X-398405Y7521D01*
X-395457Y6300D01*
X-393200Y4043D01*
X-391979Y1095D01*
X-391979Y-2095D01*
X-393200Y-5043D01*
X-395457Y-7300D01*
X-398405Y-8521D01*
X-401595Y-8521D01*
G37*
%LPD*%
%LPC*%
G36*
X139783Y68959D02*
X139783Y68959D01*
X137709Y71033D01*
X137709Y73967D01*
X139451Y75708D01*
X139472Y75734D01*
X139497Y75756D01*
X139595Y75885D01*
X139697Y76011D01*
X139712Y76040D01*
X139733Y76067D01*
X139802Y76213D01*
X139876Y76357D01*
X139885Y76389D01*
X139900Y76419D01*
X139938Y76576D01*
X139981Y76732D01*
X139984Y76766D01*
X139991Y76798D01*
X139997Y76960D01*
X140008Y77121D01*
X140003Y77154D01*
X140004Y77188D01*
X139977Y77347D01*
X139954Y77507D01*
X139943Y77539D01*
X139938Y77572D01*
X139878Y77722D01*
X139824Y77875D01*
X139806Y77903D01*
X139794Y77934D01*
X139705Y78069D01*
X139621Y78207D01*
X139598Y78232D01*
X139580Y78260D01*
X139465Y78374D01*
X139354Y78492D01*
X139327Y78511D01*
X139303Y78535D01*
X139168Y78623D01*
X139035Y78716D01*
X139005Y78729D01*
X138977Y78748D01*
X138826Y78807D01*
X138678Y78871D01*
X138645Y78878D01*
X138614Y78890D01*
X138601Y78892D01*
X138042Y79451D01*
X138016Y79472D01*
X137994Y79497D01*
X137865Y79595D01*
X137739Y79697D01*
X137710Y79712D01*
X137683Y79733D01*
X137537Y79802D01*
X137393Y79876D01*
X137361Y79885D01*
X137331Y79900D01*
X137174Y79938D01*
X137018Y79981D01*
X136984Y79984D01*
X136952Y79991D01*
X136790Y79997D01*
X136629Y80008D01*
X136596Y80003D01*
X136562Y80004D01*
X136403Y79977D01*
X136243Y79954D01*
X136211Y79943D01*
X136178Y79938D01*
X136028Y79878D01*
X135875Y79824D01*
X135847Y79806D01*
X135816Y79794D01*
X135681Y79705D01*
X135543Y79621D01*
X135518Y79598D01*
X135490Y79580D01*
X135376Y79465D01*
X135258Y79354D01*
X135239Y79327D01*
X135215Y79303D01*
X135127Y79167D01*
X135034Y79035D01*
X135020Y79005D01*
X135002Y78977D01*
X134943Y78826D01*
X134879Y78678D01*
X134872Y78645D01*
X134860Y78614D01*
X134858Y78601D01*
X132717Y76459D01*
X129783Y76459D01*
X127709Y78533D01*
X127709Y81467D01*
X129783Y83541D01*
X132717Y83541D01*
X133208Y83049D01*
X133234Y83028D01*
X133256Y83003D01*
X133385Y82905D01*
X133511Y82803D01*
X133540Y82788D01*
X133567Y82767D01*
X133713Y82698D01*
X133857Y82624D01*
X133889Y82615D01*
X133919Y82600D01*
X134076Y82562D01*
X134232Y82519D01*
X134266Y82516D01*
X134298Y82509D01*
X134460Y82503D01*
X134621Y82492D01*
X134654Y82497D01*
X134688Y82496D01*
X134847Y82523D01*
X135007Y82546D01*
X135039Y82557D01*
X135072Y82562D01*
X135222Y82622D01*
X135375Y82676D01*
X135403Y82694D01*
X135434Y82706D01*
X135569Y82795D01*
X135707Y82879D01*
X135732Y82902D01*
X135760Y82920D01*
X135874Y83035D01*
X135992Y83146D01*
X136011Y83173D01*
X136035Y83197D01*
X136123Y83332D01*
X136216Y83465D01*
X136230Y83495D01*
X136248Y83523D01*
X136307Y83674D01*
X136371Y83822D01*
X136378Y83855D01*
X136390Y83886D01*
X136392Y83899D01*
X138533Y86041D01*
X141467Y86041D01*
X142668Y84839D01*
X142720Y84797D01*
X142765Y84749D01*
X142870Y84675D01*
X142971Y84593D01*
X143030Y84563D01*
X143084Y84524D01*
X143202Y84473D01*
X143317Y84414D01*
X143381Y84396D01*
X143442Y84370D01*
X143568Y84344D01*
X143692Y84309D01*
X143758Y84304D01*
X143823Y84291D01*
X143952Y84291D01*
X144081Y84283D01*
X144147Y84292D01*
X144213Y84292D01*
X144340Y84318D01*
X144467Y84336D01*
X144530Y84358D01*
X144595Y84372D01*
X144713Y84424D01*
X144834Y84467D01*
X144891Y84501D01*
X144952Y84528D01*
X145022Y84581D01*
X145167Y84670D01*
X145291Y84786D01*
X145361Y84839D01*
X146660Y86138D01*
X148237Y86791D01*
X149943Y86791D01*
X151521Y86137D01*
X152727Y84931D01*
X153381Y83353D01*
X153381Y81647D01*
X152727Y80069D01*
X151521Y78863D01*
X149943Y78209D01*
X148237Y78209D01*
X146660Y78862D01*
X145361Y80161D01*
X145310Y80203D01*
X145264Y80251D01*
X145159Y80326D01*
X145059Y80407D01*
X145000Y80437D01*
X144945Y80476D01*
X144827Y80527D01*
X144713Y80586D01*
X144649Y80604D01*
X144588Y80630D01*
X144461Y80656D01*
X144337Y80691D01*
X144271Y80696D01*
X144206Y80709D01*
X144077Y80709D01*
X143948Y80717D01*
X143883Y80708D01*
X143816Y80708D01*
X143690Y80682D01*
X143562Y80664D01*
X143500Y80642D01*
X143435Y80628D01*
X143316Y80576D01*
X143195Y80533D01*
X143138Y80499D01*
X143077Y80472D01*
X143008Y80419D01*
X142862Y80330D01*
X142738Y80214D01*
X142668Y80161D01*
X141799Y79291D01*
X141778Y79266D01*
X141753Y79244D01*
X141655Y79115D01*
X141553Y78989D01*
X141538Y78960D01*
X141517Y78933D01*
X141448Y78786D01*
X141374Y78643D01*
X141365Y78611D01*
X141350Y78581D01*
X141312Y78424D01*
X141269Y78268D01*
X141266Y78234D01*
X141259Y78202D01*
X141253Y78040D01*
X141242Y77879D01*
X141247Y77846D01*
X141246Y77812D01*
X141273Y77653D01*
X141296Y77493D01*
X141307Y77461D01*
X141312Y77428D01*
X141372Y77278D01*
X141426Y77125D01*
X141444Y77097D01*
X141456Y77066D01*
X141545Y76931D01*
X141629Y76793D01*
X141652Y76768D01*
X141670Y76740D01*
X141785Y76626D01*
X141896Y76508D01*
X141923Y76489D01*
X141947Y76465D01*
X142082Y76377D01*
X142215Y76284D01*
X142245Y76271D01*
X142273Y76252D01*
X142424Y76193D01*
X142572Y76129D01*
X142605Y76122D01*
X142636Y76110D01*
X142649Y76108D01*
X144791Y73967D01*
X144791Y71033D01*
X142717Y68959D01*
X139783Y68959D01*
G37*
%LPD*%
%LPC*%
G36*
X-254144Y95209D02*
X-254144Y95209D01*
X-255722Y95863D01*
X-256928Y97069D01*
X-257582Y98647D01*
X-257582Y100353D01*
X-256928Y101931D01*
X-255722Y103137D01*
X-254144Y103791D01*
X-252438Y103791D01*
X-252166Y103678D01*
X-252118Y103664D01*
X-252073Y103642D01*
X-251932Y103608D01*
X-251792Y103567D01*
X-251742Y103562D01*
X-251694Y103551D01*
X-251549Y103546D01*
X-251404Y103533D01*
X-251354Y103539D01*
X-251304Y103538D01*
X-251161Y103563D01*
X-251017Y103580D01*
X-250970Y103596D01*
X-250920Y103605D01*
X-250785Y103658D01*
X-250648Y103705D01*
X-250604Y103730D01*
X-250558Y103748D01*
X-250437Y103828D01*
X-250311Y103902D01*
X-250274Y103935D01*
X-250232Y103963D01*
X-250130Y104066D01*
X-250022Y104163D01*
X-249993Y104203D01*
X-249957Y104239D01*
X-249878Y104361D01*
X-249792Y104478D01*
X-249772Y104523D01*
X-249744Y104565D01*
X-249691Y104701D01*
X-249631Y104833D01*
X-249620Y104882D01*
X-249602Y104928D01*
X-249590Y105017D01*
X-249546Y105213D01*
X-249544Y105356D01*
X-249533Y105437D01*
X-249533Y106700D01*
X-249541Y106782D01*
X-249540Y106865D01*
X-249561Y106976D01*
X-249573Y107088D01*
X-249598Y107167D01*
X-249613Y107248D01*
X-249657Y107352D01*
X-249691Y107459D01*
X-249731Y107531D01*
X-249763Y107608D01*
X-249827Y107701D01*
X-249882Y107799D01*
X-249936Y107861D01*
X-249983Y107930D01*
X-250064Y108008D01*
X-250138Y108092D01*
X-250204Y108142D01*
X-250264Y108200D01*
X-250335Y108241D01*
X-250449Y108328D01*
X-250631Y108414D01*
X-250708Y108459D01*
X-252431Y109173D01*
X-253637Y110379D01*
X-254291Y111957D01*
X-254291Y113663D01*
X-253637Y115241D01*
X-252431Y116447D01*
X-250853Y117101D01*
X-249147Y117101D01*
X-247569Y116447D01*
X-246363Y115241D01*
X-245709Y113663D01*
X-245709Y111957D01*
X-245796Y111747D01*
X-245820Y111668D01*
X-245853Y111592D01*
X-245875Y111482D01*
X-245907Y111374D01*
X-245915Y111291D01*
X-245931Y111210D01*
X-245931Y111097D01*
X-245941Y110985D01*
X-245931Y110903D01*
X-245931Y110820D01*
X-245907Y110710D01*
X-245894Y110598D01*
X-245867Y110520D01*
X-245850Y110438D01*
X-245805Y110336D01*
X-245770Y110229D01*
X-245728Y110157D01*
X-245694Y110081D01*
X-245645Y110016D01*
X-245572Y109893D01*
X-245437Y109743D01*
X-245383Y109672D01*
X-243467Y107756D01*
X-243467Y105244D01*
X-245244Y103467D01*
X-247440Y103467D01*
X-247490Y103462D01*
X-247540Y103465D01*
X-247683Y103442D01*
X-247828Y103427D01*
X-247875Y103412D01*
X-247925Y103405D01*
X-248061Y103353D01*
X-248199Y103309D01*
X-248243Y103285D01*
X-248290Y103267D01*
X-248412Y103189D01*
X-248539Y103118D01*
X-248577Y103085D01*
X-248619Y103059D01*
X-248723Y102957D01*
X-248833Y102862D01*
X-248863Y102822D01*
X-248899Y102787D01*
X-248980Y102667D01*
X-249068Y102551D01*
X-249089Y102506D01*
X-249117Y102465D01*
X-249173Y102330D01*
X-249235Y102199D01*
X-249247Y102150D01*
X-249266Y102104D01*
X-249293Y101961D01*
X-249327Y101820D01*
X-249329Y101770D01*
X-249338Y101721D01*
X-249335Y101575D01*
X-249340Y101430D01*
X-249331Y101381D01*
X-249330Y101331D01*
X-249307Y101245D01*
X-249273Y101046D01*
X-249220Y100913D01*
X-249199Y100834D01*
X-249000Y100353D01*
X-249000Y98647D01*
X-249654Y97069D01*
X-250860Y95863D01*
X-252438Y95209D01*
X-254144Y95209D01*
G37*
%LPD*%
%LPC*%
G36*
X-117293Y283499D02*
X-117293Y283499D01*
X-119682Y284489D01*
X-121511Y286318D01*
X-122501Y288707D01*
X-122501Y291293D01*
X-121511Y293682D01*
X-119682Y295511D01*
X-117293Y296501D01*
X-114707Y296501D01*
X-112318Y295511D01*
X-110489Y293682D01*
X-109499Y291293D01*
X-109499Y288707D01*
X-110489Y286318D01*
X-112318Y284489D01*
X-114707Y283499D01*
X-117293Y283499D01*
G37*
%LPD*%
%LPC*%
G36*
X-185293Y283499D02*
X-185293Y283499D01*
X-187682Y284489D01*
X-189511Y286318D01*
X-190501Y288707D01*
X-190501Y291293D01*
X-189511Y293682D01*
X-187682Y295511D01*
X-185293Y296501D01*
X-182707Y296501D01*
X-180318Y295511D01*
X-178489Y293682D01*
X-177499Y291293D01*
X-177499Y288707D01*
X-178489Y286318D01*
X-180318Y284489D01*
X-182707Y283499D01*
X-185293Y283499D01*
G37*
%LPD*%
%LPC*%
G36*
X-307293Y-321501D02*
X-307293Y-321501D01*
X-309682Y-320511D01*
X-311511Y-318682D01*
X-312501Y-316293D01*
X-312501Y-313707D01*
X-311511Y-311318D01*
X-309682Y-309489D01*
X-307293Y-308499D01*
X-304707Y-308499D01*
X-302318Y-309489D01*
X-300489Y-311318D01*
X-299499Y-313707D01*
X-299499Y-316293D01*
X-300489Y-318682D01*
X-302318Y-320511D01*
X-304707Y-321501D01*
X-307293Y-321501D01*
G37*
%LPD*%
%LPC*%
G36*
X-375293Y-321501D02*
X-375293Y-321501D01*
X-377682Y-320511D01*
X-379511Y-318682D01*
X-380501Y-316293D01*
X-380501Y-313707D01*
X-379511Y-311318D01*
X-377682Y-309489D01*
X-375293Y-308499D01*
X-372707Y-308499D01*
X-370318Y-309489D01*
X-368489Y-311318D01*
X-367499Y-313707D01*
X-367499Y-316293D01*
X-368489Y-318682D01*
X-370318Y-320511D01*
X-372707Y-321501D01*
X-375293Y-321501D01*
G37*
%LPD*%
%LPC*%
G36*
X46982Y62959D02*
X46982Y62959D01*
X45404Y63613D01*
X44198Y64819D01*
X43544Y66397D01*
X43544Y68103D01*
X44198Y69681D01*
X45404Y70887D01*
X46982Y71541D01*
X48688Y71541D01*
X49873Y71050D01*
X49921Y71036D01*
X49966Y71014D01*
X50107Y70980D01*
X50247Y70938D01*
X50296Y70934D01*
X50345Y70922D01*
X50490Y70918D01*
X50635Y70905D01*
X50685Y70911D01*
X50734Y70910D01*
X50878Y70935D01*
X51022Y70952D01*
X51069Y70968D01*
X51119Y70976D01*
X51254Y71030D01*
X51391Y71076D01*
X51435Y71102D01*
X51481Y71120D01*
X51602Y71200D01*
X51728Y71273D01*
X51765Y71307D01*
X51806Y71334D01*
X51909Y71437D01*
X52017Y71535D01*
X52046Y71575D01*
X52082Y71611D01*
X52161Y71732D01*
X52247Y71850D01*
X52267Y71895D01*
X52295Y71937D01*
X52348Y72072D01*
X52408Y72205D01*
X52419Y72253D01*
X52437Y72300D01*
X52449Y72388D01*
X52493Y72585D01*
X52495Y72728D01*
X52506Y72809D01*
X52506Y74603D01*
X53159Y76181D01*
X54366Y77387D01*
X55943Y78041D01*
X57650Y78041D01*
X59227Y77387D01*
X60434Y76181D01*
X61088Y74603D01*
X61088Y72897D01*
X60434Y71319D01*
X59227Y70113D01*
X57650Y69459D01*
X55943Y69459D01*
X54759Y69950D01*
X54711Y69964D01*
X54666Y69986D01*
X54525Y70020D01*
X54385Y70062D01*
X54336Y70066D01*
X54287Y70078D01*
X54142Y70082D01*
X53997Y70095D01*
X53947Y70089D01*
X53897Y70090D01*
X53754Y70065D01*
X53610Y70048D01*
X53563Y70032D01*
X53513Y70024D01*
X53378Y69970D01*
X53240Y69924D01*
X53197Y69898D01*
X53151Y69880D01*
X53030Y69800D01*
X52904Y69727D01*
X52867Y69693D01*
X52825Y69666D01*
X52723Y69563D01*
X52615Y69465D01*
X52586Y69425D01*
X52550Y69389D01*
X52471Y69268D01*
X52385Y69150D01*
X52365Y69105D01*
X52337Y69063D01*
X52284Y68928D01*
X52224Y68795D01*
X52213Y68747D01*
X52195Y68700D01*
X52183Y68612D01*
X52139Y68415D01*
X52137Y68272D01*
X52126Y68191D01*
X52126Y66397D01*
X51472Y64819D01*
X50266Y63613D01*
X48688Y62959D01*
X46982Y62959D01*
G37*
%LPD*%
%LPC*%
G36*
X242283Y82709D02*
X242283Y82709D01*
X240209Y84783D01*
X240209Y87717D01*
X240521Y88029D01*
X240563Y88080D01*
X240612Y88126D01*
X240686Y88231D01*
X240767Y88331D01*
X240798Y88390D01*
X240836Y88444D01*
X240887Y88563D01*
X240946Y88677D01*
X240964Y88741D01*
X240991Y88802D01*
X241017Y88928D01*
X241051Y89052D01*
X241056Y89119D01*
X241069Y89184D01*
X241069Y89313D01*
X241078Y89441D01*
X241069Y89507D01*
X241069Y89574D01*
X241042Y89700D01*
X241024Y89827D01*
X241002Y89890D01*
X240988Y89955D01*
X240937Y90073D01*
X240893Y90195D01*
X240859Y90251D01*
X240832Y90312D01*
X240779Y90382D01*
X240691Y90527D01*
X240574Y90652D01*
X240521Y90722D01*
X240209Y91033D01*
X240209Y93967D01*
X242283Y96041D01*
X245217Y96041D01*
X247291Y93967D01*
X247291Y91033D01*
X246979Y90722D01*
X246937Y90670D01*
X246888Y90625D01*
X246814Y90519D01*
X246733Y90419D01*
X246702Y90360D01*
X246664Y90306D01*
X246613Y90188D01*
X246554Y90073D01*
X246536Y90009D01*
X246509Y89948D01*
X246483Y89822D01*
X246449Y89698D01*
X246444Y89631D01*
X246431Y89566D01*
X246431Y89437D01*
X246422Y89309D01*
X246431Y89243D01*
X246431Y89176D01*
X246458Y89050D01*
X246476Y88923D01*
X246498Y88860D01*
X246512Y88795D01*
X246563Y88677D01*
X246606Y88555D01*
X246641Y88499D01*
X246668Y88438D01*
X246721Y88368D01*
X246809Y88223D01*
X246926Y88098D01*
X246979Y88029D01*
X247291Y87717D01*
X247291Y84783D01*
X245217Y82709D01*
X242283Y82709D01*
G37*
%LPD*%
%LPC*%
G36*
X252283Y141459D02*
X252283Y141459D01*
X250209Y143533D01*
X250209Y146467D01*
X252283Y148541D01*
X255217Y148541D01*
X255528Y148229D01*
X255580Y148187D01*
X255625Y148138D01*
X255731Y148064D01*
X255831Y147983D01*
X255890Y147952D01*
X255944Y147914D01*
X256062Y147863D01*
X256177Y147804D01*
X256241Y147786D01*
X256302Y147759D01*
X256428Y147733D01*
X256552Y147699D01*
X256619Y147694D01*
X256684Y147681D01*
X256813Y147681D01*
X256941Y147672D01*
X257007Y147681D01*
X257074Y147681D01*
X257200Y147708D01*
X257327Y147726D01*
X257390Y147748D01*
X257455Y147762D01*
X257573Y147813D01*
X257695Y147856D01*
X257751Y147891D01*
X257812Y147918D01*
X257882Y147971D01*
X258027Y148059D01*
X258152Y148176D01*
X258221Y148229D01*
X258533Y148541D01*
X261467Y148541D01*
X263541Y146467D01*
X263541Y143533D01*
X261467Y141459D01*
X258533Y141459D01*
X258221Y141771D01*
X258170Y141813D01*
X258124Y141862D01*
X258019Y141936D01*
X257919Y142017D01*
X257860Y142048D01*
X257806Y142086D01*
X257687Y142137D01*
X257573Y142196D01*
X257509Y142214D01*
X257448Y142241D01*
X257322Y142267D01*
X257198Y142301D01*
X257131Y142306D01*
X257066Y142319D01*
X256937Y142319D01*
X256809Y142328D01*
X256743Y142319D01*
X256676Y142319D01*
X256550Y142292D01*
X256423Y142274D01*
X256360Y142252D01*
X256295Y142238D01*
X256177Y142187D01*
X256055Y142143D01*
X255999Y142109D01*
X255938Y142082D01*
X255868Y142029D01*
X255723Y141941D01*
X255598Y141824D01*
X255528Y141771D01*
X255217Y141459D01*
X252283Y141459D01*
G37*
%LPD*%
%LPC*%
G36*
X270057Y98209D02*
X270057Y98209D01*
X268479Y98863D01*
X267273Y100069D01*
X266619Y101647D01*
X266619Y103353D01*
X267273Y104931D01*
X268479Y106137D01*
X270057Y106791D01*
X271763Y106791D01*
X273341Y106137D01*
X274547Y104931D01*
X275201Y103353D01*
X275201Y101647D01*
X274547Y100069D01*
X273341Y98863D01*
X271763Y98209D01*
X270057Y98209D01*
G37*
%LPD*%
%LPC*%
G36*
X-48688Y95459D02*
X-48688Y95459D01*
X-50266Y96113D01*
X-51472Y97319D01*
X-52126Y98897D01*
X-52126Y100603D01*
X-51472Y102181D01*
X-50266Y103387D01*
X-48688Y104041D01*
X-46982Y104041D01*
X-45404Y103387D01*
X-44198Y102181D01*
X-43544Y100603D01*
X-43544Y98897D01*
X-44198Y97319D01*
X-45404Y96113D01*
X-46982Y95459D01*
X-48688Y95459D01*
G37*
%LPD*%
%LPC*%
G36*
X148237Y93209D02*
X148237Y93209D01*
X146659Y93863D01*
X145453Y95069D01*
X144799Y96647D01*
X144799Y98353D01*
X145453Y99931D01*
X146659Y101137D01*
X148237Y101791D01*
X149943Y101791D01*
X151521Y101137D01*
X152727Y99931D01*
X153381Y98353D01*
X153381Y96647D01*
X152727Y95069D01*
X151521Y93863D01*
X149943Y93209D01*
X148237Y93209D01*
G37*
%LPD*%
%LPC*%
G36*
X-175853Y241419D02*
X-175853Y241419D01*
X-177431Y242073D01*
X-178637Y243279D01*
X-179291Y244857D01*
X-179291Y246563D01*
X-178637Y248141D01*
X-177431Y249347D01*
X-175853Y250001D01*
X-174147Y250001D01*
X-172569Y249347D01*
X-171363Y248141D01*
X-170709Y246563D01*
X-170709Y244857D01*
X-171363Y243279D01*
X-172569Y242073D01*
X-174147Y241419D01*
X-175853Y241419D01*
G37*
%LPD*%
%LPC*%
G36*
X-259643Y-276791D02*
X-259643Y-276791D01*
X-261221Y-276137D01*
X-262427Y-274931D01*
X-263081Y-273353D01*
X-263081Y-271647D01*
X-262427Y-270069D01*
X-261221Y-268863D01*
X-259643Y-268209D01*
X-257937Y-268209D01*
X-256359Y-268863D01*
X-255153Y-270069D01*
X-254499Y-271647D01*
X-254499Y-273353D01*
X-255153Y-274931D01*
X-256359Y-276137D01*
X-257937Y-276791D01*
X-259643Y-276791D01*
G37*
%LPD*%
%LPC*%
G36*
X-340853Y-275001D02*
X-340853Y-275001D01*
X-342431Y-274347D01*
X-343637Y-273141D01*
X-344291Y-271563D01*
X-344291Y-269857D01*
X-343637Y-268279D01*
X-342431Y-267073D01*
X-340853Y-266419D01*
X-339147Y-266419D01*
X-337569Y-267073D01*
X-336363Y-268279D01*
X-335709Y-269857D01*
X-335709Y-271563D01*
X-336363Y-273141D01*
X-337569Y-274347D01*
X-339147Y-275001D01*
X-340853Y-275001D01*
G37*
%LPD*%
%LPC*%
G36*
X-356573Y-264291D02*
X-356573Y-264291D01*
X-358151Y-263637D01*
X-359357Y-262431D01*
X-360011Y-260853D01*
X-360011Y-259147D01*
X-359357Y-257569D01*
X-358151Y-256363D01*
X-356573Y-255709D01*
X-354867Y-255709D01*
X-353289Y-256363D01*
X-352083Y-257569D01*
X-351429Y-259147D01*
X-351429Y-260853D01*
X-352083Y-262431D01*
X-353289Y-263637D01*
X-354867Y-264291D01*
X-356573Y-264291D01*
G37*
%LPD*%
%LPC*%
G36*
X389147Y-213551D02*
X389147Y-213551D01*
X387569Y-212897D01*
X386363Y-211691D01*
X385709Y-210113D01*
X385709Y-208407D01*
X386363Y-206829D01*
X387569Y-205623D01*
X389147Y-204969D01*
X390853Y-204969D01*
X392431Y-205623D01*
X393637Y-206829D01*
X394291Y-208407D01*
X394291Y-210113D01*
X393637Y-211691D01*
X392431Y-212897D01*
X390853Y-213551D01*
X389147Y-213551D01*
G37*
%LPD*%
%LPC*%
G36*
X-70853Y106049D02*
X-70853Y106049D01*
X-72431Y106703D01*
X-73637Y107909D01*
X-74291Y109487D01*
X-74291Y111193D01*
X-73637Y112771D01*
X-72431Y113977D01*
X-70853Y114631D01*
X-69147Y114631D01*
X-67569Y113977D01*
X-66363Y112771D01*
X-65709Y111193D01*
X-65709Y109487D01*
X-66363Y107909D01*
X-67569Y106703D01*
X-69147Y106049D01*
X-70853Y106049D01*
G37*
%LPD*%
%LPC*%
G36*
X-287563Y76209D02*
X-287563Y76209D01*
X-289141Y76863D01*
X-290347Y78069D01*
X-291001Y79647D01*
X-291001Y81353D01*
X-290347Y82931D01*
X-289141Y84137D01*
X-287563Y84791D01*
X-285857Y84791D01*
X-284279Y84137D01*
X-283073Y82931D01*
X-282419Y81353D01*
X-282419Y79647D01*
X-283073Y78069D01*
X-284279Y76863D01*
X-285857Y76209D01*
X-287563Y76209D01*
G37*
%LPD*%
%LPC*%
G36*
X-334143Y76209D02*
X-334143Y76209D01*
X-335721Y76863D01*
X-336927Y78069D01*
X-337581Y79647D01*
X-337581Y81353D01*
X-336927Y82931D01*
X-335721Y84137D01*
X-334143Y84791D01*
X-332437Y84791D01*
X-330859Y84137D01*
X-329653Y82931D01*
X-328999Y81353D01*
X-328999Y79647D01*
X-329653Y78069D01*
X-330859Y76863D01*
X-332437Y76209D01*
X-334143Y76209D01*
G37*
%LPD*%
%LPC*%
G36*
X270057Y73209D02*
X270057Y73209D01*
X268479Y73863D01*
X267273Y75069D01*
X266619Y76647D01*
X266619Y78353D01*
X267273Y79931D01*
X268479Y81137D01*
X270057Y81791D01*
X271763Y81791D01*
X273341Y81137D01*
X274547Y79931D01*
X275201Y78353D01*
X275201Y76647D01*
X274547Y75069D01*
X273341Y73863D01*
X271763Y73209D01*
X270057Y73209D01*
G37*
%LPD*%
%LPC*%
G36*
X119147Y106049D02*
X119147Y106049D01*
X117569Y106703D01*
X116363Y107909D01*
X115709Y109487D01*
X115709Y111193D01*
X116363Y112771D01*
X117569Y113977D01*
X119147Y114631D01*
X120853Y114631D01*
X122431Y113977D01*
X123637Y112771D01*
X124291Y111193D01*
X124291Y109487D01*
X123637Y107909D01*
X122431Y106703D01*
X120853Y106049D01*
X119147Y106049D01*
G37*
%LPD*%
%LPC*%
G36*
X389147Y-163551D02*
X389147Y-163551D01*
X387569Y-162897D01*
X386363Y-161691D01*
X385709Y-160113D01*
X385709Y-158407D01*
X386363Y-156829D01*
X387569Y-155623D01*
X389147Y-154969D01*
X390853Y-154969D01*
X392431Y-155623D01*
X393637Y-156829D01*
X394291Y-158407D01*
X394291Y-160113D01*
X393637Y-161691D01*
X392431Y-162897D01*
X390853Y-163551D01*
X389147Y-163551D01*
G37*
%LPD*%
%LPC*%
G36*
X-250853Y216449D02*
X-250853Y216449D01*
X-252431Y217103D01*
X-253637Y218309D01*
X-254291Y219887D01*
X-254291Y221593D01*
X-253637Y223171D01*
X-252431Y224377D01*
X-250853Y225031D01*
X-249147Y225031D01*
X-247569Y224377D01*
X-246363Y223171D01*
X-245709Y221593D01*
X-245709Y219887D01*
X-246363Y218309D01*
X-247569Y217103D01*
X-249147Y216449D01*
X-250853Y216449D01*
G37*
%LPD*%
%LPC*%
G36*
X-230853Y-84631D02*
X-230853Y-84631D01*
X-232431Y-83977D01*
X-233637Y-82771D01*
X-234291Y-81193D01*
X-234291Y-79487D01*
X-233637Y-77909D01*
X-232431Y-76703D01*
X-230853Y-76049D01*
X-229147Y-76049D01*
X-227569Y-76703D01*
X-226363Y-77909D01*
X-225709Y-79487D01*
X-225709Y-81193D01*
X-226363Y-82771D01*
X-227569Y-83977D01*
X-229147Y-84631D01*
X-230853Y-84631D01*
G37*
%LPD*%
%LPC*%
G36*
X-350853Y65369D02*
X-350853Y65369D01*
X-352431Y66023D01*
X-353637Y67229D01*
X-354291Y68807D01*
X-354291Y70513D01*
X-353637Y72091D01*
X-352431Y73297D01*
X-350853Y73951D01*
X-349147Y73951D01*
X-347569Y73297D01*
X-346363Y72091D01*
X-345709Y70513D01*
X-345709Y68807D01*
X-346363Y67229D01*
X-347569Y66023D01*
X-349147Y65369D01*
X-350853Y65369D01*
G37*
%LPD*%
%LPC*%
G36*
X-270853Y106049D02*
X-270853Y106049D01*
X-272431Y106703D01*
X-273637Y107909D01*
X-274291Y109487D01*
X-274291Y111193D01*
X-273637Y112771D01*
X-272431Y113977D01*
X-270853Y114631D01*
X-269147Y114631D01*
X-267569Y113977D01*
X-266363Y112771D01*
X-265709Y111193D01*
X-265709Y109487D01*
X-266363Y107909D01*
X-267569Y106703D01*
X-269147Y106049D01*
X-270853Y106049D01*
G37*
%LPD*%
%LPC*%
G36*
X46982Y108459D02*
X46982Y108459D01*
X45404Y109113D01*
X44198Y110319D01*
X43544Y111897D01*
X43544Y113603D01*
X44198Y115181D01*
X45404Y116387D01*
X46982Y117041D01*
X48688Y117041D01*
X50266Y116387D01*
X51472Y115181D01*
X52126Y113603D01*
X52126Y111897D01*
X51472Y110319D01*
X50266Y109113D01*
X48688Y108459D01*
X46982Y108459D01*
G37*
%LPD*%
%LPC*%
G36*
X-41720Y-77041D02*
X-41720Y-77041D01*
X-43297Y-76387D01*
X-44504Y-75181D01*
X-45157Y-73603D01*
X-45157Y-71897D01*
X-44504Y-70319D01*
X-43297Y-69113D01*
X-41720Y-68459D01*
X-40013Y-68459D01*
X-38436Y-69113D01*
X-37229Y-70319D01*
X-36576Y-71897D01*
X-36576Y-73603D01*
X-37229Y-75181D01*
X-38436Y-76387D01*
X-40013Y-77041D01*
X-41720Y-77041D01*
G37*
%LPD*%
%LPC*%
G36*
X270057Y58209D02*
X270057Y58209D01*
X268479Y58863D01*
X267273Y60069D01*
X266619Y61647D01*
X266619Y63353D01*
X267273Y64931D01*
X268479Y66137D01*
X270057Y66791D01*
X271763Y66791D01*
X273341Y66137D01*
X274547Y64931D01*
X275201Y63353D01*
X275201Y61647D01*
X274547Y60069D01*
X273341Y58863D01*
X271763Y58209D01*
X270057Y58209D01*
G37*
%LPD*%
%LPC*%
G36*
X-170693Y185069D02*
X-170693Y185069D01*
X-172271Y185723D01*
X-173477Y186929D01*
X-174131Y188507D01*
X-174131Y190213D01*
X-173477Y191791D01*
X-172271Y192997D01*
X-170693Y193651D01*
X-168987Y193651D01*
X-167409Y192997D01*
X-166203Y191791D01*
X-165549Y190213D01*
X-165549Y188507D01*
X-166203Y186929D01*
X-167409Y185723D01*
X-168987Y185069D01*
X-170693Y185069D01*
G37*
%LPD*%
%LPC*%
G36*
X-210853Y162899D02*
X-210853Y162899D01*
X-212431Y163553D01*
X-213637Y164759D01*
X-214291Y166337D01*
X-214291Y168043D01*
X-213637Y169621D01*
X-212431Y170827D01*
X-210853Y171481D01*
X-209147Y171481D01*
X-207569Y170827D01*
X-206363Y169621D01*
X-205709Y168043D01*
X-205709Y166337D01*
X-206363Y164759D01*
X-207569Y163553D01*
X-209147Y162899D01*
X-210853Y162899D01*
G37*
%LPD*%
%LPC*%
G36*
X148237Y53209D02*
X148237Y53209D01*
X146659Y53863D01*
X145453Y55069D01*
X144799Y56647D01*
X144799Y58353D01*
X145453Y59931D01*
X146659Y61137D01*
X148237Y61791D01*
X149943Y61791D01*
X151521Y61137D01*
X152727Y59931D01*
X153381Y58353D01*
X153381Y56647D01*
X152727Y55069D01*
X151521Y53863D01*
X149943Y53209D01*
X148237Y53209D01*
G37*
%LPD*%
%LPC*%
G36*
X-361563Y242709D02*
X-361563Y242709D01*
X-363141Y243363D01*
X-364347Y244569D01*
X-365001Y246147D01*
X-365001Y247853D01*
X-364347Y249431D01*
X-363141Y250637D01*
X-361563Y251291D01*
X-359857Y251291D01*
X-358279Y250637D01*
X-357073Y249431D01*
X-356419Y247853D01*
X-356419Y246147D01*
X-357073Y244569D01*
X-358279Y243363D01*
X-359857Y242709D01*
X-361563Y242709D01*
G37*
%LPD*%
%LPC*%
G36*
X183747Y-48851D02*
X183747Y-48851D01*
X182169Y-48197D01*
X180963Y-46991D01*
X180309Y-45413D01*
X180309Y-43707D01*
X180963Y-42129D01*
X182169Y-40923D01*
X183747Y-40269D01*
X185453Y-40269D01*
X187031Y-40923D01*
X188237Y-42129D01*
X188891Y-43707D01*
X188891Y-45413D01*
X188237Y-46991D01*
X187031Y-48197D01*
X185453Y-48851D01*
X183747Y-48851D01*
G37*
%LPD*%
%LPC*%
G36*
X-310853Y-43951D02*
X-310853Y-43951D01*
X-312431Y-43297D01*
X-313637Y-42091D01*
X-314291Y-40513D01*
X-314291Y-38807D01*
X-313637Y-37229D01*
X-312431Y-36023D01*
X-310853Y-35369D01*
X-309147Y-35369D01*
X-307569Y-36023D01*
X-306363Y-37229D01*
X-305709Y-38807D01*
X-305709Y-40513D01*
X-306363Y-42091D01*
X-307569Y-43297D01*
X-309147Y-43951D01*
X-310853Y-43951D01*
G37*
%LPD*%
%LPC*%
G36*
X289147Y46049D02*
X289147Y46049D01*
X287569Y46703D01*
X286363Y47909D01*
X285709Y49487D01*
X285709Y51193D01*
X286363Y52771D01*
X287569Y53977D01*
X289147Y54631D01*
X290853Y54631D01*
X292431Y53977D01*
X293637Y52771D01*
X294291Y51193D01*
X294291Y49487D01*
X293637Y47909D01*
X292431Y46703D01*
X290853Y46049D01*
X289147Y46049D01*
G37*
%LPD*%
%LPC*%
G36*
X-180853Y-43551D02*
X-180853Y-43551D01*
X-182431Y-42897D01*
X-183637Y-41691D01*
X-184291Y-40113D01*
X-184291Y-38407D01*
X-183637Y-36829D01*
X-182431Y-35623D01*
X-180853Y-34969D01*
X-179147Y-34969D01*
X-177569Y-35623D01*
X-176363Y-36829D01*
X-175709Y-38407D01*
X-175709Y-40113D01*
X-176363Y-41691D01*
X-177569Y-42897D01*
X-179147Y-43551D01*
X-180853Y-43551D01*
G37*
%LPD*%
%LPC*%
G36*
X-135853Y-43551D02*
X-135853Y-43551D01*
X-137431Y-42897D01*
X-138637Y-41691D01*
X-139291Y-40113D01*
X-139291Y-38407D01*
X-138637Y-36829D01*
X-137431Y-35623D01*
X-135853Y-34969D01*
X-134147Y-34969D01*
X-132569Y-35623D01*
X-131363Y-36829D01*
X-130709Y-38407D01*
X-130709Y-40113D01*
X-131363Y-41691D01*
X-132569Y-42897D01*
X-134147Y-43551D01*
X-135853Y-43551D01*
G37*
%LPD*%
%LPC*%
G36*
X-250853Y162899D02*
X-250853Y162899D01*
X-252431Y163553D01*
X-253637Y164759D01*
X-254291Y166337D01*
X-254291Y168043D01*
X-253637Y169621D01*
X-252431Y170827D01*
X-250853Y171481D01*
X-249147Y171481D01*
X-247569Y170827D01*
X-246363Y169621D01*
X-245709Y168043D01*
X-245709Y166337D01*
X-246363Y164759D01*
X-247569Y163553D01*
X-249147Y162899D01*
X-250853Y162899D01*
G37*
%LPD*%
%LPC*%
G36*
X-270853Y-34631D02*
X-270853Y-34631D01*
X-272431Y-33977D01*
X-273637Y-32771D01*
X-274291Y-31193D01*
X-274291Y-29487D01*
X-273637Y-27909D01*
X-272431Y-26703D01*
X-270853Y-26049D01*
X-269147Y-26049D01*
X-267569Y-26703D01*
X-266363Y-27909D01*
X-265709Y-29487D01*
X-265709Y-31193D01*
X-266363Y-32771D01*
X-267569Y-33977D01*
X-269147Y-34631D01*
X-270853Y-34631D01*
G37*
%LPD*%
%LPC*%
G36*
X176647Y24799D02*
X176647Y24799D01*
X175069Y25453D01*
X173863Y26659D01*
X173209Y28237D01*
X173209Y29943D01*
X173863Y31521D01*
X175069Y32727D01*
X176647Y33381D01*
X178353Y33381D01*
X179931Y32727D01*
X181137Y31521D01*
X181791Y29943D01*
X181791Y28237D01*
X181137Y26659D01*
X179931Y25453D01*
X178353Y24799D01*
X176647Y24799D01*
G37*
%LPD*%
%LPC*%
G36*
X196647Y24799D02*
X196647Y24799D01*
X195069Y25453D01*
X193863Y26659D01*
X193209Y28237D01*
X193209Y29943D01*
X193863Y31521D01*
X195069Y32727D01*
X196647Y33381D01*
X198353Y33381D01*
X199931Y32727D01*
X201137Y31521D01*
X201791Y29943D01*
X201791Y28237D01*
X201137Y26659D01*
X199931Y25453D01*
X198353Y24799D01*
X196647Y24799D01*
G37*
%LPD*%
%LPC*%
G36*
X226647Y24799D02*
X226647Y24799D01*
X225069Y25453D01*
X223863Y26659D01*
X223209Y28237D01*
X223209Y29943D01*
X223863Y31521D01*
X225069Y32727D01*
X226647Y33381D01*
X228353Y33381D01*
X229931Y32727D01*
X231137Y31521D01*
X231791Y29943D01*
X231791Y28237D01*
X231137Y26659D01*
X229931Y25453D01*
X228353Y24799D01*
X226647Y24799D01*
G37*
%LPD*%
%LPC*%
G36*
X241647Y24799D02*
X241647Y24799D01*
X240069Y25453D01*
X238863Y26659D01*
X238209Y28237D01*
X238209Y29943D01*
X238863Y31521D01*
X240069Y32727D01*
X241647Y33381D01*
X243353Y33381D01*
X244931Y32727D01*
X246137Y31521D01*
X246791Y29943D01*
X246791Y28237D01*
X246137Y26659D01*
X244931Y25453D01*
X243353Y24799D01*
X241647Y24799D01*
G37*
%LPD*%
%LPC*%
G36*
X-853Y-155031D02*
X-853Y-155031D01*
X-2431Y-154377D01*
X-3637Y-153171D01*
X-4291Y-151593D01*
X-4291Y-149887D01*
X-3637Y-148309D01*
X-2431Y-147103D01*
X-853Y-146449D01*
X853Y-146449D01*
X2431Y-147103D01*
X3637Y-148309D01*
X4291Y-149887D01*
X4291Y-151593D01*
X3637Y-153171D01*
X2431Y-154377D01*
X853Y-155031D01*
X-853Y-155031D01*
G37*
%LPD*%
%LPC*%
G36*
X28249Y-173249D02*
X28249Y-173249D01*
X36867Y-173249D01*
X36390Y-174718D01*
X35512Y-176442D01*
X34375Y-178007D01*
X33007Y-179375D01*
X31442Y-180512D01*
X29718Y-181390D01*
X28249Y-181867D01*
X28249Y-173249D01*
G37*
%LPD*%
%LPC*%
G36*
X28249Y-166751D02*
X28249Y-166751D01*
X28249Y-158133D01*
X29718Y-158610D01*
X31442Y-159488D01*
X33007Y-160625D01*
X34375Y-161993D01*
X35512Y-163558D01*
X36390Y-165282D01*
X36867Y-166751D01*
X28249Y-166751D01*
G37*
%LPD*%
%LPC*%
G36*
X20282Y-181390D02*
X20282Y-181390D01*
X18558Y-180512D01*
X16993Y-179375D01*
X15625Y-178007D01*
X14488Y-176442D01*
X13610Y-174718D01*
X13133Y-173249D01*
X21751Y-173249D01*
X21751Y-181867D01*
X20282Y-181390D01*
G37*
%LPD*%
%LPC*%
G36*
X13133Y-166751D02*
X13133Y-166751D01*
X13610Y-165282D01*
X14488Y-163558D01*
X15625Y-161993D01*
X16993Y-160625D01*
X18558Y-159488D01*
X20282Y-158610D01*
X21751Y-158133D01*
X21751Y-166751D01*
X13133Y-166751D01*
G37*
%LPD*%
%LPC*%
G36*
X73533Y36459D02*
X73533Y36459D01*
X71459Y38533D01*
X71459Y40417D01*
X71456Y40450D01*
X71458Y40483D01*
X71436Y40644D01*
X71419Y40805D01*
X71409Y40836D01*
X71405Y40869D01*
X71350Y41022D01*
X71301Y41176D01*
X71285Y41205D01*
X71274Y41236D01*
X71250Y41276D01*
X71264Y41285D01*
X71348Y41370D01*
X71407Y41414D01*
X73533Y43541D01*
X76467Y43541D01*
X78541Y41467D01*
X78541Y38533D01*
X76467Y36459D01*
X73533Y36459D01*
G37*
%LPD*%
%LPC*%
G36*
X-328967Y-263541D02*
X-328967Y-263541D01*
X-331041Y-261467D01*
X-331041Y-258533D01*
X-328967Y-256459D01*
X-326033Y-256459D01*
X-323959Y-258533D01*
X-323959Y-261467D01*
X-326033Y-263541D01*
X-328967Y-263541D01*
G37*
%LPD*%
%LPC*%
G36*
X-46467Y-96041D02*
X-46467Y-96041D01*
X-48541Y-93967D01*
X-48541Y-91033D01*
X-46467Y-88959D01*
X-43533Y-88959D01*
X-41459Y-91033D01*
X-41459Y-93967D01*
X-43533Y-96041D01*
X-46467Y-96041D01*
G37*
%LPD*%
%LPC*%
G36*
X-355217Y223959D02*
X-355217Y223959D01*
X-357291Y226033D01*
X-357291Y228967D01*
X-355217Y231041D01*
X-352283Y231041D01*
X-350209Y228967D01*
X-350209Y226033D01*
X-352283Y223959D01*
X-355217Y223959D01*
G37*
%LPD*%
%LPC*%
G36*
X-345217Y193959D02*
X-345217Y193959D01*
X-347291Y196033D01*
X-347291Y198967D01*
X-345217Y201041D01*
X-342283Y201041D01*
X-340209Y198967D01*
X-340209Y196033D01*
X-342283Y193959D01*
X-345217Y193959D01*
G37*
%LPD*%
%LPC*%
G36*
X111033Y57709D02*
X111033Y57709D01*
X108959Y59783D01*
X108959Y62717D01*
X111033Y64791D01*
X113967Y64791D01*
X116041Y62717D01*
X116041Y59783D01*
X113967Y57709D01*
X111033Y57709D01*
G37*
%LPD*%
%LPC*%
G36*
X187283Y-201041D02*
X187283Y-201041D01*
X185209Y-198967D01*
X185209Y-196033D01*
X187283Y-193959D01*
X190217Y-193959D01*
X192291Y-196033D01*
X192291Y-198967D01*
X190217Y-201041D01*
X187283Y-201041D01*
G37*
%LPD*%
%LPC*%
G36*
X-261467Y192709D02*
X-261467Y192709D01*
X-263541Y194783D01*
X-263541Y197717D01*
X-261467Y199791D01*
X-258533Y199791D01*
X-256459Y197717D01*
X-256459Y194783D01*
X-258533Y192709D01*
X-261467Y192709D01*
G37*
%LPD*%
%LPC*%
G36*
X-42717Y-11041D02*
X-42717Y-11041D01*
X-44791Y-8967D01*
X-44791Y-6033D01*
X-42717Y-3959D01*
X-39783Y-3959D01*
X-37709Y-6033D01*
X-37709Y-8967D01*
X-39783Y-11041D01*
X-42717Y-11041D01*
G37*
%LPD*%
%LPC*%
G36*
X277283Y2709D02*
X277283Y2709D01*
X275209Y4783D01*
X275209Y7717D01*
X277283Y9791D01*
X280217Y9791D01*
X282291Y7717D01*
X282291Y4783D01*
X280217Y2709D01*
X277283Y2709D01*
G37*
%LPD*%
%LPC*%
G36*
X192283Y-103541D02*
X192283Y-103541D01*
X190209Y-101467D01*
X190209Y-98533D01*
X192283Y-96459D01*
X195217Y-96459D01*
X197291Y-98533D01*
X197291Y-101467D01*
X195217Y-103541D01*
X192283Y-103541D01*
G37*
%LPD*%
%LPC*%
G36*
X348533Y-103541D02*
X348533Y-103541D01*
X346459Y-101467D01*
X346459Y-98533D01*
X348533Y-96459D01*
X351467Y-96459D01*
X353541Y-98533D01*
X353541Y-101467D01*
X351467Y-103541D01*
X348533Y-103541D01*
G37*
%LPD*%
%LPC*%
G36*
X-315217Y130209D02*
X-315217Y130209D01*
X-317291Y132283D01*
X-317291Y135217D01*
X-315217Y137291D01*
X-312283Y137291D01*
X-310209Y135217D01*
X-310209Y132283D01*
X-312283Y130209D01*
X-315217Y130209D01*
G37*
%LPD*%
%LPC*%
G36*
X-312717Y151459D02*
X-312717Y151459D01*
X-314791Y153533D01*
X-314791Y156467D01*
X-312717Y158541D01*
X-309783Y158541D01*
X-307709Y156467D01*
X-307709Y153533D01*
X-309783Y151459D01*
X-312717Y151459D01*
G37*
%LPD*%
%LPC*%
G36*
X12283Y-31041D02*
X12283Y-31041D01*
X10209Y-28967D01*
X10209Y-26033D01*
X12283Y-23959D01*
X15217Y-23959D01*
X17291Y-26033D01*
X17291Y-28967D01*
X15217Y-31041D01*
X12283Y-31041D01*
G37*
%LPD*%
%LPC*%
G36*
X-98967Y136459D02*
X-98967Y136459D01*
X-101041Y138533D01*
X-101041Y141467D01*
X-98967Y143541D01*
X-96033Y143541D01*
X-93959Y141467D01*
X-93959Y138533D01*
X-96033Y136459D01*
X-98967Y136459D01*
G37*
%LPD*%
%LPC*%
G36*
X-331467Y195209D02*
X-331467Y195209D01*
X-333541Y197283D01*
X-333541Y200217D01*
X-331467Y202291D01*
X-328533Y202291D01*
X-326459Y200217D01*
X-326459Y197283D01*
X-328533Y195209D01*
X-331467Y195209D01*
G37*
%LPD*%
%LPC*%
G36*
X-300217Y70209D02*
X-300217Y70209D01*
X-302291Y72283D01*
X-302291Y75217D01*
X-300217Y77291D01*
X-297283Y77291D01*
X-295209Y75217D01*
X-295209Y72283D01*
X-297283Y70209D01*
X-300217Y70209D01*
G37*
%LPD*%
%LPC*%
G36*
X-15217Y-76041D02*
X-15217Y-76041D01*
X-17291Y-73967D01*
X-17291Y-71033D01*
X-15217Y-68959D01*
X-12283Y-68959D01*
X-10209Y-71033D01*
X-10209Y-73967D01*
X-12283Y-76041D01*
X-15217Y-76041D01*
G37*
%LPD*%
%LPC*%
G36*
X353533Y-151041D02*
X353533Y-151041D01*
X351459Y-148967D01*
X351459Y-146033D01*
X353533Y-143959D01*
X356467Y-143959D01*
X358541Y-146033D01*
X358541Y-148967D01*
X356467Y-151041D01*
X353533Y-151041D01*
G37*
%LPD*%
%LPC*%
G36*
X133533Y45209D02*
X133533Y45209D01*
X131459Y47283D01*
X131459Y50217D01*
X133533Y52291D01*
X136467Y52291D01*
X138541Y50217D01*
X138541Y47283D01*
X136467Y45209D01*
X133533Y45209D01*
G37*
%LPD*%
%LPC*%
G36*
X-355217Y203959D02*
X-355217Y203959D01*
X-357291Y206033D01*
X-357291Y208967D01*
X-355217Y211041D01*
X-352283Y211041D01*
X-350209Y208967D01*
X-350209Y206033D01*
X-352283Y203959D01*
X-355217Y203959D01*
G37*
%LPD*%
%LPC*%
G36*
X281033Y-72291D02*
X281033Y-72291D01*
X278959Y-70217D01*
X278959Y-67283D01*
X281033Y-65209D01*
X283967Y-65209D01*
X286041Y-67283D01*
X286041Y-70217D01*
X283967Y-72291D01*
X281033Y-72291D01*
G37*
%LPD*%
%LPC*%
G36*
X-345217Y213959D02*
X-345217Y213959D01*
X-347291Y216033D01*
X-347291Y218967D01*
X-345217Y221041D01*
X-342283Y221041D01*
X-340209Y218967D01*
X-340209Y216033D01*
X-342283Y213959D01*
X-345217Y213959D01*
G37*
%LPD*%
%LPC*%
G36*
X-1467Y-78541D02*
X-1467Y-78541D01*
X-3541Y-76467D01*
X-3541Y-73533D01*
X-1467Y-71459D01*
X1467Y-71459D01*
X3541Y-73533D01*
X3541Y-76467D01*
X1467Y-78541D01*
X-1467Y-78541D01*
G37*
%LPD*%
%LPC*%
G36*
X-346467Y-3541D02*
X-346467Y-3541D01*
X-348541Y-1467D01*
X-348541Y1467D01*
X-346467Y3541D01*
X-343533Y3541D01*
X-341459Y1467D01*
X-341459Y-1467D01*
X-343533Y-3541D01*
X-346467Y-3541D01*
G37*
%LPD*%
%LPC*%
G36*
X-140453Y80049D02*
X-140453Y80049D01*
X-140000Y81442D01*
X-139229Y82956D01*
X-138231Y84330D01*
X-137030Y85531D01*
X-135656Y86529D01*
X-134142Y87300D01*
X-132749Y87753D01*
X-132749Y80049D01*
X-140453Y80049D01*
G37*
%LPD*%
%LPC*%
G36*
X-134142Y67300D02*
X-134142Y67300D01*
X-135656Y68071D01*
X-137030Y69069D01*
X-138231Y70270D01*
X-139229Y71644D01*
X-140000Y73158D01*
X-140453Y74551D01*
X-132749Y74551D01*
X-132749Y66847D01*
X-134142Y67300D01*
G37*
%LPD*%
%LPC*%
G36*
X-127251Y80049D02*
X-127251Y80049D01*
X-127251Y87753D01*
X-125858Y87300D01*
X-124344Y86529D01*
X-122970Y85531D01*
X-121769Y84330D01*
X-120771Y82956D01*
X-120000Y81442D01*
X-119547Y80049D01*
X-127251Y80049D01*
G37*
%LPD*%
%LPC*%
G36*
X-127251Y74551D02*
X-127251Y74551D01*
X-119547Y74551D01*
X-120000Y73158D01*
X-120771Y71644D01*
X-121769Y70270D01*
X-122970Y69069D01*
X-124344Y68071D01*
X-125858Y67300D01*
X-127251Y66847D01*
X-127251Y74551D01*
G37*
%LPD*%
%LPC*%
G36*
X-90524Y220624D02*
X-90524Y220624D01*
X-90658Y220653D01*
X-90790Y220690D01*
X-90848Y220693D01*
X-90905Y220706D01*
X-91042Y220707D01*
X-91179Y220716D01*
X-91237Y220708D01*
X-91295Y220708D01*
X-91429Y220681D01*
X-91565Y220663D01*
X-91620Y220643D01*
X-91677Y220631D01*
X-91803Y220578D01*
X-91932Y220532D01*
X-91976Y220505D01*
X-91974Y220553D01*
X-91976Y220565D01*
X-91975Y220578D01*
X-92006Y220756D01*
X-92035Y220937D01*
X-92040Y220949D01*
X-92042Y220962D01*
X-92109Y221130D01*
X-92174Y221302D01*
X-92181Y221312D01*
X-92186Y221324D01*
X-92285Y221476D01*
X-92384Y221630D01*
X-92392Y221637D01*
X-92400Y221649D01*
X-92676Y221925D01*
X-92726Y221957D01*
X-92756Y221986D01*
X-93119Y222250D01*
X-94250Y223381D01*
X-95190Y224675D01*
X-95916Y226100D01*
X-96359Y227461D01*
X-89039Y227461D01*
X-89039Y220141D01*
X-90524Y220624D01*
G37*
%LPD*%
%LPC*%
G36*
X82549Y192549D02*
X82549Y192549D01*
X82549Y199887D01*
X83912Y199444D01*
X85341Y198716D01*
X86639Y197773D01*
X87773Y196639D01*
X88716Y195341D01*
X89444Y193912D01*
X89887Y192549D01*
X82549Y192549D01*
G37*
%LPD*%
%LPC*%
G36*
X82549Y187451D02*
X82549Y187451D01*
X89887Y187451D01*
X89444Y186088D01*
X88716Y184659D01*
X87773Y183361D01*
X86639Y182227D01*
X85341Y181284D01*
X83912Y180556D01*
X82549Y180113D01*
X82549Y187451D01*
G37*
%LPD*%
%LPC*%
G36*
X70113Y192549D02*
X70113Y192549D01*
X70556Y193912D01*
X71284Y195341D01*
X72227Y196639D01*
X73361Y197773D01*
X74659Y198716D01*
X76088Y199444D01*
X77451Y199887D01*
X77451Y192549D01*
X70113Y192549D01*
G37*
%LPD*%
%LPC*%
G36*
X76088Y180556D02*
X76088Y180556D01*
X74659Y181284D01*
X73361Y182227D01*
X72227Y183361D01*
X71284Y184659D01*
X70556Y186088D01*
X70113Y187451D01*
X77451Y187451D01*
X77451Y180113D01*
X76088Y180556D01*
G37*
%LPD*%
%LPC*%
G36*
X-93900Y-10216D02*
X-93900Y-10216D01*
X-95325Y-9490D01*
X-96619Y-8550D01*
X-97750Y-7419D01*
X-98690Y-6125D01*
X-99416Y-4700D01*
X-99859Y-3339D01*
X-92539Y-3339D01*
X-92539Y-10659D01*
X-93900Y-10216D01*
G37*
%LPD*%
%LPC*%
G36*
X92539Y-28739D02*
X92539Y-28739D01*
X99859Y-28739D01*
X99416Y-30100D01*
X98690Y-31525D01*
X97750Y-32819D01*
X96619Y-33950D01*
X95325Y-34890D01*
X93900Y-35616D01*
X92539Y-36059D01*
X92539Y-28739D01*
G37*
%LPD*%
%LPC*%
G36*
X92539Y52539D02*
X92539Y52539D01*
X92539Y59859D01*
X93900Y59416D01*
X95325Y58690D01*
X96619Y57750D01*
X97750Y56619D01*
X98690Y55325D01*
X99416Y53900D01*
X99859Y52539D01*
X92539Y52539D01*
G37*
%LPD*%
%LPC*%
G36*
X-93900Y-86416D02*
X-93900Y-86416D01*
X-95325Y-85690D01*
X-96619Y-84750D01*
X-97750Y-83619D01*
X-98690Y-82325D01*
X-99416Y-80900D01*
X-99859Y-79539D01*
X-92539Y-79539D01*
X-92539Y-86859D01*
X-93900Y-86416D01*
G37*
%LPD*%
%LPC*%
G36*
X-96359Y232539D02*
X-96359Y232539D01*
X-95916Y233900D01*
X-95190Y235325D01*
X-94250Y236619D01*
X-93119Y237750D01*
X-91825Y238690D01*
X-90400Y239416D01*
X-89039Y239859D01*
X-89039Y232539D01*
X-96359Y232539D01*
G37*
%LPD*%
%LPC*%
G36*
X-87461Y-79539D02*
X-87461Y-79539D01*
X-80141Y-79539D01*
X-80584Y-80900D01*
X-81310Y-82325D01*
X-82250Y-83619D01*
X-83381Y-84750D01*
X-84675Y-85690D01*
X-86100Y-86416D01*
X-87461Y-86859D01*
X-87461Y-79539D01*
G37*
%LPD*%
%LPC*%
G36*
X80141Y52539D02*
X80141Y52539D01*
X80584Y53900D01*
X81310Y55325D01*
X82250Y56619D01*
X83381Y57750D01*
X84675Y58690D01*
X86100Y59416D01*
X87461Y59859D01*
X87461Y52539D01*
X80141Y52539D01*
G37*
%LPD*%
%LPC*%
G36*
X-83961Y232539D02*
X-83961Y232539D01*
X-83961Y239859D01*
X-82600Y239416D01*
X-81175Y238690D01*
X-79881Y237750D01*
X-78750Y236619D01*
X-77810Y235325D01*
X-77084Y233900D01*
X-76641Y232539D01*
X-83961Y232539D01*
G37*
%LPD*%
%LPC*%
G36*
X-87461Y-3339D02*
X-87461Y-3339D01*
X-80141Y-3339D01*
X-80584Y-4700D01*
X-81310Y-6125D01*
X-82250Y-7419D01*
X-83381Y-8550D01*
X-84675Y-9490D01*
X-86100Y-10216D01*
X-87461Y-10659D01*
X-87461Y-3339D01*
G37*
%LPD*%
%LPC*%
G36*
X-99859Y-74461D02*
X-99859Y-74461D01*
X-99416Y-73100D01*
X-98690Y-71675D01*
X-97750Y-70381D01*
X-96619Y-69250D01*
X-95325Y-68310D01*
X-93900Y-67584D01*
X-92539Y-67141D01*
X-92539Y-74461D01*
X-99859Y-74461D01*
G37*
%LPD*%
%LPC*%
G36*
X92539Y-23661D02*
X92539Y-23661D01*
X92539Y-16341D01*
X93900Y-16784D01*
X95325Y-17510D01*
X96619Y-18450D01*
X97750Y-19581D01*
X98690Y-20875D01*
X99416Y-22300D01*
X99859Y-23661D01*
X92539Y-23661D01*
G37*
%LPD*%
%LPC*%
G36*
X86100Y-35616D02*
X86100Y-35616D01*
X84675Y-34890D01*
X83381Y-33950D01*
X82250Y-32819D01*
X81310Y-31525D01*
X80584Y-30100D01*
X80141Y-28739D01*
X87461Y-28739D01*
X87461Y-36059D01*
X86100Y-35616D01*
G37*
%LPD*%
%LPC*%
G36*
X92539Y47461D02*
X92539Y47461D01*
X99859Y47461D01*
X99416Y46100D01*
X98690Y44675D01*
X97750Y43381D01*
X96619Y42250D01*
X95325Y41310D01*
X93900Y40584D01*
X92539Y40141D01*
X92539Y47461D01*
G37*
%LPD*%
%LPC*%
G36*
X80141Y-23661D02*
X80141Y-23661D01*
X80584Y-22300D01*
X81310Y-20875D01*
X82250Y-19581D01*
X83381Y-18450D01*
X84675Y-17510D01*
X86100Y-16784D01*
X87461Y-16341D01*
X87461Y-23661D01*
X80141Y-23661D01*
G37*
%LPD*%
%LPC*%
G36*
X-87461Y-74461D02*
X-87461Y-74461D01*
X-87461Y-67141D01*
X-86100Y-67584D01*
X-84675Y-68310D01*
X-83381Y-69250D01*
X-82250Y-70381D01*
X-81310Y-71675D01*
X-80584Y-73100D01*
X-80141Y-74461D01*
X-87461Y-74461D01*
G37*
%LPD*%
%LPC*%
G36*
X-83961Y227461D02*
X-83961Y227461D01*
X-76641Y227461D01*
X-77084Y226100D01*
X-77810Y224675D01*
X-78750Y223381D01*
X-79881Y222250D01*
X-81175Y221310D01*
X-82600Y220584D01*
X-83961Y220141D01*
X-83961Y227461D01*
G37*
%LPD*%
%LPC*%
G36*
X86100Y40584D02*
X86100Y40584D01*
X84675Y41310D01*
X83381Y42250D01*
X82250Y43381D01*
X81310Y44675D01*
X80584Y46100D01*
X80141Y47461D01*
X87461Y47461D01*
X87461Y40141D01*
X86100Y40584D01*
G37*
%LPD*%
%LPC*%
G36*
X-99859Y1739D02*
X-99859Y1739D01*
X-99416Y3100D01*
X-98690Y4525D01*
X-97750Y5819D01*
X-96619Y6950D01*
X-95325Y7890D01*
X-93900Y8616D01*
X-92539Y9059D01*
X-92539Y1739D01*
X-99859Y1739D01*
G37*
%LPD*%
%LPC*%
G36*
X-87461Y1739D02*
X-87461Y1739D01*
X-87461Y9059D01*
X-86100Y8616D01*
X-84675Y7890D01*
X-83381Y6950D01*
X-82250Y5819D01*
X-81310Y4525D01*
X-80584Y3100D01*
X-80141Y1739D01*
X-87461Y1739D01*
G37*
%LPD*%
%LPC*%
G36*
X-63854Y-139305D02*
X-63854Y-139305D01*
X-65263Y-138588D01*
X-66541Y-137659D01*
X-67659Y-136541D01*
X-68588Y-135263D01*
X-69305Y-133854D01*
X-69745Y-132499D01*
X-62499Y-132499D01*
X-62499Y-139745D01*
X-63854Y-139305D01*
G37*
%LPD*%
%LPC*%
G36*
X-69745Y-127501D02*
X-69745Y-127501D01*
X-69305Y-126146D01*
X-68588Y-124737D01*
X-67659Y-123459D01*
X-66541Y-122341D01*
X-65263Y-121412D01*
X-63854Y-120695D01*
X-62499Y-120255D01*
X-62499Y-127501D01*
X-69745Y-127501D01*
G37*
%LPD*%
%LPC*%
G36*
X-57501Y-132499D02*
X-57501Y-132499D01*
X-50255Y-132499D01*
X-50695Y-133854D01*
X-51412Y-135263D01*
X-52341Y-136541D01*
X-53459Y-137659D01*
X-54737Y-138588D01*
X-56146Y-139305D01*
X-57501Y-139745D01*
X-57501Y-132499D01*
G37*
%LPD*%
%LPC*%
G36*
X-57501Y-127501D02*
X-57501Y-127501D01*
X-57501Y-120255D01*
X-56146Y-120695D01*
X-54737Y-121412D01*
X-53459Y-122341D01*
X-52341Y-123459D01*
X-51412Y-124737D01*
X-50695Y-126146D01*
X-50255Y-127501D01*
X-57501Y-127501D01*
G37*
%LPD*%
%LPC*%
G36*
X-187756Y143467D02*
X-187756Y143467D01*
X-189533Y145244D01*
X-189533Y147756D01*
X-187756Y149533D01*
X-185244Y149533D01*
X-183467Y147756D01*
X-183467Y145244D01*
X-185244Y143467D01*
X-187756Y143467D01*
G37*
%LPD*%
%LPC*%
G36*
X-167756Y143467D02*
X-167756Y143467D01*
X-169533Y145244D01*
X-169533Y147756D01*
X-167756Y149533D01*
X-165244Y149533D01*
X-163467Y147756D01*
X-163467Y145244D01*
X-165244Y143467D01*
X-167756Y143467D01*
G37*
%LPD*%
%LPC*%
G36*
X-287756Y143467D02*
X-287756Y143467D01*
X-289533Y145244D01*
X-289533Y147756D01*
X-287756Y149533D01*
X-285244Y149533D01*
X-283467Y147756D01*
X-283467Y145244D01*
X-285244Y143467D01*
X-287756Y143467D01*
G37*
%LPD*%
%LPC*%
G36*
X-287756Y123467D02*
X-287756Y123467D01*
X-289533Y125244D01*
X-289533Y127756D01*
X-287756Y129533D01*
X-285244Y129533D01*
X-283467Y127756D01*
X-283467Y125244D01*
X-285244Y123467D01*
X-287756Y123467D01*
G37*
%LPD*%
%LPC*%
G36*
X-207756Y143467D02*
X-207756Y143467D01*
X-209533Y145244D01*
X-209533Y147756D01*
X-207756Y149533D01*
X-205244Y149533D01*
X-203467Y147756D01*
X-203467Y145244D01*
X-205244Y143467D01*
X-207756Y143467D01*
G37*
%LPD*%
%LPC*%
G36*
X-267756Y123467D02*
X-267756Y123467D01*
X-269533Y125244D01*
X-269533Y127756D01*
X-267756Y129533D01*
X-265244Y129533D01*
X-263467Y127756D01*
X-263467Y125244D01*
X-265244Y123467D01*
X-267756Y123467D01*
G37*
%LPD*%
%LPC*%
G36*
X-167756Y123467D02*
X-167756Y123467D01*
X-169533Y125244D01*
X-169533Y127756D01*
X-167756Y129533D01*
X-165244Y129533D01*
X-163467Y127756D01*
X-163467Y125244D01*
X-165244Y123467D01*
X-167756Y123467D01*
G37*
%LPD*%
%LPC*%
G36*
X-287756Y103467D02*
X-287756Y103467D01*
X-289533Y105244D01*
X-289533Y107756D01*
X-287756Y109533D01*
X-285244Y109533D01*
X-283467Y107756D01*
X-283467Y105244D01*
X-285244Y103467D01*
X-287756Y103467D01*
G37*
%LPD*%
%LPC*%
G36*
X-207756Y103467D02*
X-207756Y103467D01*
X-209533Y105244D01*
X-209533Y107756D01*
X-207756Y109533D01*
X-205244Y109533D01*
X-203467Y107756D01*
X-203467Y105244D01*
X-205244Y103467D01*
X-207756Y103467D01*
G37*
%LPD*%
%LPC*%
G36*
X-247756Y143467D02*
X-247756Y143467D01*
X-249533Y145244D01*
X-249533Y147756D01*
X-247756Y149533D01*
X-245244Y149533D01*
X-243467Y147756D01*
X-243467Y145244D01*
X-245244Y143467D01*
X-247756Y143467D01*
G37*
%LPD*%
%LPC*%
G36*
X-187756Y123467D02*
X-187756Y123467D01*
X-189533Y125244D01*
X-189533Y127756D01*
X-187756Y129533D01*
X-185244Y129533D01*
X-183467Y127756D01*
X-183467Y125244D01*
X-185244Y123467D01*
X-187756Y123467D01*
G37*
%LPD*%
%LPC*%
G36*
X-167756Y103467D02*
X-167756Y103467D01*
X-169533Y105244D01*
X-169533Y107756D01*
X-167756Y109533D01*
X-165244Y109533D01*
X-163467Y107756D01*
X-163467Y105244D01*
X-165244Y103467D01*
X-167756Y103467D01*
G37*
%LPD*%
%LPC*%
G36*
X-267756Y143467D02*
X-267756Y143467D01*
X-269533Y145244D01*
X-269533Y147756D01*
X-267756Y149533D01*
X-265244Y149533D01*
X-263467Y147756D01*
X-263467Y145244D01*
X-265244Y143467D01*
X-267756Y143467D01*
G37*
%LPD*%
D10*
X-286500Y106500D03*
X-286500Y146500D03*
X-186500Y146500D03*
X-186500Y39000D03*
X-281500Y39000D03*
X-281500Y59000D03*
D11*
X-86500Y230000D03*
X-111900Y230000D03*
X-137300Y230000D03*
X-162700Y230000D03*
X-188100Y230000D03*
X-213500Y230000D03*
D10*
X-246500Y106500D03*
X-246500Y146500D03*
X-266500Y126500D03*
X-286500Y126500D03*
X-266500Y146500D03*
X-186500Y126500D03*
X-166500Y106500D03*
X-166500Y126500D03*
X-166500Y146500D03*
X-206500Y146500D03*
X-206500Y106500D03*
X-206500Y59000D03*
X-261500Y59000D03*
X-261500Y39000D03*
D12*
X-130000Y102700D03*
X-130000Y77300D03*
D10*
X-166500Y59000D03*
X-186500Y59000D03*
X-375000Y-107478D03*
X-362808Y-112558D03*
X-357728Y-124750D03*
X-362808Y-136942D03*
X-375000Y-142022D03*
X-387192Y-136942D03*
X-392272Y-124750D03*
X-387192Y-112558D03*
X-375000Y202522D03*
X-362808Y197442D03*
X-357728Y185250D03*
X-362808Y173058D03*
X-375000Y167978D03*
X-387192Y173058D03*
X-392272Y185250D03*
X-387192Y197442D03*
X375000Y202522D03*
X387192Y197442D03*
X392272Y185250D03*
X387192Y173058D03*
X375000Y167978D03*
X362808Y173058D03*
X357728Y185250D03*
X362808Y197442D03*
X375000Y-107478D03*
X387192Y-112558D03*
X392272Y-124750D03*
X387192Y-136942D03*
X375000Y-142022D03*
X362808Y-136942D03*
X357728Y-124750D03*
X362808Y-112558D03*
D13*
X-400000Y139500D03*
X-400000Y-40500D03*
X-400000Y-60500D03*
X-400000Y-80500D03*
X-400000Y99500D03*
X-400000Y79500D03*
X-400000Y39500D03*
X-400000Y19500D03*
X-400000Y-500D03*
X-400000Y-20500D03*
X-400000Y59500D03*
X-400000Y119500D03*
X400000Y-80000D03*
X400000Y100000D03*
X400000Y120000D03*
X400000Y140000D03*
X400000Y-40000D03*
X400000Y-20000D03*
X400000Y20000D03*
X400000Y40000D03*
X400000Y60000D03*
X400000Y80000D03*
X400000Y0D03*
X400000Y-60000D03*
D11*
X-90000Y50000D03*
X-90000Y-800D03*
X-90000Y-26200D03*
X-90000Y-77000D03*
X-90000Y24600D03*
X-90000Y-51600D03*
X90000Y-77000D03*
X90000Y-26200D03*
X90000Y-800D03*
X90000Y50000D03*
X90000Y-51600D03*
X90000Y24600D03*
D14*
X-100000Y-130000D03*
X-330000Y160000D03*
X-140000Y-130000D03*
X-60000Y-130000D03*
D15*
X-25000Y-315000D03*
X25000Y-315000D03*
X-25000Y-170000D03*
X25000Y-170000D03*
X0Y-315000D03*
D16*
X-72400Y190000D03*
X3800Y190000D03*
X29200Y190000D03*
X80000Y190000D03*
X54600Y190000D03*
X-47000Y190000D03*
X-148600Y190000D03*
X-97800Y190000D03*
X-123200Y190000D03*
X-21600Y190000D03*
D17*
X-109388Y-477282D02*
X-109388Y-489022D01*
X-109389Y-489022D02*
X-109387Y-489155D01*
X-109381Y-489287D01*
X-109371Y-489419D01*
X-109358Y-489551D01*
X-109340Y-489683D01*
X-109319Y-489813D01*
X-109294Y-489944D01*
X-109265Y-490073D01*
X-109232Y-490201D01*
X-109196Y-490329D01*
X-109156Y-490455D01*
X-109112Y-490580D01*
X-109064Y-490704D01*
X-109013Y-490826D01*
X-108958Y-490947D01*
X-108900Y-491066D01*
X-108838Y-491184D01*
X-108773Y-491299D01*
X-108704Y-491413D01*
X-108633Y-491524D01*
X-108557Y-491633D01*
X-108479Y-491740D01*
X-108398Y-491845D01*
X-108313Y-491947D01*
X-108226Y-492047D01*
X-108136Y-492144D01*
X-108043Y-492239D01*
X-107947Y-492330D01*
X-107849Y-492419D01*
X-107748Y-492505D01*
X-107644Y-492588D01*
X-107538Y-492668D01*
X-107430Y-492744D01*
X-107320Y-492818D01*
X-107207Y-492888D01*
X-107093Y-492955D01*
X-106976Y-493018D01*
X-106858Y-493078D01*
X-106738Y-493135D01*
X-106616Y-493188D01*
X-106493Y-493237D01*
X-106369Y-493283D01*
X-106243Y-493325D01*
X-106116Y-493363D01*
X-105988Y-493398D01*
X-105859Y-493429D01*
X-105730Y-493456D01*
X-105599Y-493479D01*
X-105468Y-493499D01*
X-105336Y-493514D01*
X-105204Y-493526D01*
X-105072Y-493534D01*
X-104939Y-493538D01*
X-104807Y-493538D01*
X-104674Y-493534D01*
X-104542Y-493526D01*
X-104410Y-493514D01*
X-104278Y-493499D01*
X-104147Y-493479D01*
X-104016Y-493456D01*
X-103887Y-493429D01*
X-103758Y-493398D01*
X-103630Y-493363D01*
X-103503Y-493325D01*
X-103377Y-493283D01*
X-103253Y-493237D01*
X-103130Y-493188D01*
X-103008Y-493135D01*
X-102888Y-493078D01*
X-102770Y-493018D01*
X-102653Y-492955D01*
X-102539Y-492888D01*
X-102426Y-492818D01*
X-102316Y-492744D01*
X-102208Y-492668D01*
X-102102Y-492588D01*
X-101998Y-492505D01*
X-101897Y-492419D01*
X-101799Y-492330D01*
X-101703Y-492239D01*
X-101610Y-492144D01*
X-101520Y-492047D01*
X-101433Y-491947D01*
X-101348Y-491845D01*
X-101267Y-491740D01*
X-101189Y-491633D01*
X-101113Y-491524D01*
X-101042Y-491413D01*
X-100973Y-491299D01*
X-100908Y-491184D01*
X-100846Y-491066D01*
X-100788Y-490947D01*
X-100733Y-490826D01*
X-100682Y-490704D01*
X-100634Y-490580D01*
X-100590Y-490455D01*
X-100550Y-490329D01*
X-100514Y-490201D01*
X-100481Y-490073D01*
X-100452Y-489944D01*
X-100427Y-489813D01*
X-100406Y-489683D01*
X-100388Y-489551D01*
X-100375Y-489419D01*
X-100365Y-489287D01*
X-100359Y-489155D01*
X-100357Y-489022D01*
X-100357Y-477282D01*
X-92780Y-482701D02*
X-92780Y-498957D01*
X-92780Y-482701D02*
X-88265Y-482701D01*
X-88161Y-482703D01*
X-88058Y-482709D01*
X-87954Y-482719D01*
X-87851Y-482733D01*
X-87749Y-482751D01*
X-87648Y-482772D01*
X-87547Y-482798D01*
X-87448Y-482827D01*
X-87349Y-482860D01*
X-87252Y-482897D01*
X-87157Y-482938D01*
X-87063Y-482982D01*
X-86971Y-483030D01*
X-86881Y-483081D01*
X-86792Y-483136D01*
X-86706Y-483194D01*
X-86623Y-483256D01*
X-86541Y-483320D01*
X-86463Y-483388D01*
X-86387Y-483458D01*
X-86313Y-483531D01*
X-86243Y-483608D01*
X-86175Y-483686D01*
X-86111Y-483768D01*
X-86049Y-483851D01*
X-85991Y-483937D01*
X-85936Y-484026D01*
X-85885Y-484116D01*
X-85837Y-484208D01*
X-85793Y-484302D01*
X-85752Y-484397D01*
X-85715Y-484494D01*
X-85682Y-484593D01*
X-85653Y-484692D01*
X-85627Y-484793D01*
X-85606Y-484894D01*
X-85588Y-484996D01*
X-85574Y-485099D01*
X-85564Y-485203D01*
X-85558Y-485306D01*
X-85556Y-485410D01*
X-85556Y-490829D01*
X-85558Y-490930D01*
X-85564Y-491031D01*
X-85573Y-491132D01*
X-85586Y-491233D01*
X-85603Y-491333D01*
X-85624Y-491432D01*
X-85648Y-491530D01*
X-85676Y-491627D01*
X-85708Y-491724D01*
X-85743Y-491819D01*
X-85782Y-491912D01*
X-85824Y-492004D01*
X-85870Y-492095D01*
X-85919Y-492184D01*
X-85971Y-492270D01*
X-86027Y-492355D01*
X-86085Y-492438D01*
X-86147Y-492518D01*
X-86212Y-492596D01*
X-86279Y-492672D01*
X-86349Y-492745D01*
X-86422Y-492815D01*
X-86498Y-492882D01*
X-86576Y-492947D01*
X-86656Y-493009D01*
X-86739Y-493067D01*
X-86824Y-493123D01*
X-86911Y-493175D01*
X-86999Y-493224D01*
X-87090Y-493270D01*
X-87182Y-493312D01*
X-87275Y-493351D01*
X-87370Y-493386D01*
X-87467Y-493418D01*
X-87564Y-493446D01*
X-87662Y-493470D01*
X-87761Y-493491D01*
X-87861Y-493508D01*
X-87962Y-493521D01*
X-88063Y-493530D01*
X-88164Y-493536D01*
X-88265Y-493538D01*
X-92780Y-493538D01*
X-78712Y-498957D02*
X-78712Y-482701D01*
X-74197Y-482701D01*
X-74093Y-482703D01*
X-73990Y-482709D01*
X-73886Y-482719D01*
X-73783Y-482733D01*
X-73681Y-482751D01*
X-73580Y-482772D01*
X-73479Y-482798D01*
X-73380Y-482827D01*
X-73281Y-482860D01*
X-73184Y-482897D01*
X-73089Y-482938D01*
X-72995Y-482982D01*
X-72903Y-483030D01*
X-72813Y-483081D01*
X-72724Y-483136D01*
X-72638Y-483194D01*
X-72555Y-483256D01*
X-72473Y-483320D01*
X-72395Y-483388D01*
X-72319Y-483458D01*
X-72245Y-483531D01*
X-72175Y-483608D01*
X-72107Y-483686D01*
X-72043Y-483768D01*
X-71981Y-483851D01*
X-71923Y-483937D01*
X-71868Y-484026D01*
X-71817Y-484116D01*
X-71769Y-484208D01*
X-71725Y-484302D01*
X-71684Y-484397D01*
X-71647Y-484494D01*
X-71614Y-484593D01*
X-71585Y-484692D01*
X-71559Y-484793D01*
X-71538Y-484894D01*
X-71520Y-484996D01*
X-71506Y-485099D01*
X-71496Y-485203D01*
X-71490Y-485306D01*
X-71488Y-485410D01*
X-71487Y-485410D02*
X-71487Y-490829D01*
X-71488Y-490829D02*
X-71490Y-490930D01*
X-71496Y-491031D01*
X-71505Y-491132D01*
X-71518Y-491233D01*
X-71535Y-491333D01*
X-71556Y-491432D01*
X-71580Y-491530D01*
X-71608Y-491627D01*
X-71640Y-491724D01*
X-71675Y-491819D01*
X-71714Y-491912D01*
X-71756Y-492004D01*
X-71802Y-492095D01*
X-71851Y-492184D01*
X-71903Y-492270D01*
X-71959Y-492355D01*
X-72017Y-492438D01*
X-72079Y-492518D01*
X-72144Y-492596D01*
X-72211Y-492672D01*
X-72281Y-492745D01*
X-72354Y-492815D01*
X-72430Y-492882D01*
X-72508Y-492947D01*
X-72588Y-493009D01*
X-72671Y-493067D01*
X-72756Y-493123D01*
X-72843Y-493175D01*
X-72931Y-493224D01*
X-73022Y-493270D01*
X-73114Y-493312D01*
X-73207Y-493351D01*
X-73302Y-493386D01*
X-73399Y-493418D01*
X-73496Y-493446D01*
X-73594Y-493470D01*
X-73693Y-493491D01*
X-73793Y-493508D01*
X-73894Y-493521D01*
X-73995Y-493530D01*
X-74096Y-493536D01*
X-74197Y-493538D01*
X-78712Y-493538D01*
X-62529Y-493538D02*
X-58014Y-493538D01*
X-62529Y-493538D02*
X-62630Y-493536D01*
X-62731Y-493530D01*
X-62832Y-493521D01*
X-62933Y-493508D01*
X-63033Y-493491D01*
X-63132Y-493470D01*
X-63230Y-493446D01*
X-63327Y-493418D01*
X-63424Y-493386D01*
X-63519Y-493351D01*
X-63612Y-493312D01*
X-63704Y-493270D01*
X-63795Y-493224D01*
X-63884Y-493175D01*
X-63970Y-493123D01*
X-64055Y-493067D01*
X-64138Y-493009D01*
X-64218Y-492947D01*
X-64296Y-492882D01*
X-64372Y-492815D01*
X-64445Y-492745D01*
X-64515Y-492672D01*
X-64582Y-492596D01*
X-64647Y-492518D01*
X-64709Y-492438D01*
X-64767Y-492355D01*
X-64823Y-492270D01*
X-64875Y-492184D01*
X-64924Y-492095D01*
X-64970Y-492004D01*
X-65012Y-491912D01*
X-65051Y-491819D01*
X-65086Y-491724D01*
X-65118Y-491627D01*
X-65146Y-491530D01*
X-65170Y-491432D01*
X-65191Y-491333D01*
X-65208Y-491233D01*
X-65221Y-491132D01*
X-65230Y-491031D01*
X-65236Y-490930D01*
X-65238Y-490829D01*
X-65239Y-490829D02*
X-65239Y-486313D01*
X-65238Y-486313D02*
X-65236Y-486194D01*
X-65230Y-486074D01*
X-65220Y-485955D01*
X-65206Y-485837D01*
X-65189Y-485718D01*
X-65167Y-485601D01*
X-65142Y-485484D01*
X-65112Y-485369D01*
X-65079Y-485254D01*
X-65042Y-485140D01*
X-65002Y-485028D01*
X-64957Y-484917D01*
X-64909Y-484808D01*
X-64858Y-484700D01*
X-64803Y-484594D01*
X-64744Y-484490D01*
X-64682Y-484388D01*
X-64617Y-484288D01*
X-64548Y-484190D01*
X-64476Y-484094D01*
X-64401Y-484001D01*
X-64324Y-483911D01*
X-64243Y-483823D01*
X-64159Y-483738D01*
X-64072Y-483656D01*
X-63983Y-483576D01*
X-63891Y-483500D01*
X-63797Y-483426D01*
X-63700Y-483356D01*
X-63602Y-483289D01*
X-63501Y-483225D01*
X-63397Y-483165D01*
X-63292Y-483108D01*
X-63185Y-483055D01*
X-63077Y-483005D01*
X-62967Y-482959D01*
X-62855Y-482917D01*
X-62742Y-482878D01*
X-62628Y-482843D01*
X-62513Y-482812D01*
X-62396Y-482784D01*
X-62279Y-482761D01*
X-62162Y-482741D01*
X-62043Y-482725D01*
X-61924Y-482713D01*
X-61805Y-482705D01*
X-61686Y-482701D01*
X-61566Y-482701D01*
X-61447Y-482705D01*
X-61328Y-482713D01*
X-61209Y-482725D01*
X-61090Y-482741D01*
X-60973Y-482761D01*
X-60856Y-482784D01*
X-60739Y-482812D01*
X-60624Y-482843D01*
X-60510Y-482878D01*
X-60397Y-482917D01*
X-60285Y-482959D01*
X-60175Y-483005D01*
X-60067Y-483055D01*
X-59960Y-483108D01*
X-59855Y-483165D01*
X-59751Y-483225D01*
X-59650Y-483289D01*
X-59552Y-483356D01*
X-59455Y-483426D01*
X-59361Y-483500D01*
X-59269Y-483576D01*
X-59180Y-483656D01*
X-59093Y-483738D01*
X-59009Y-483823D01*
X-58928Y-483911D01*
X-58851Y-484001D01*
X-58776Y-484094D01*
X-58704Y-484190D01*
X-58635Y-484288D01*
X-58570Y-484388D01*
X-58508Y-484490D01*
X-58449Y-484594D01*
X-58394Y-484700D01*
X-58343Y-484808D01*
X-58295Y-484917D01*
X-58250Y-485028D01*
X-58210Y-485140D01*
X-58173Y-485254D01*
X-58140Y-485369D01*
X-58110Y-485484D01*
X-58085Y-485601D01*
X-58063Y-485718D01*
X-58046Y-485837D01*
X-58032Y-485955D01*
X-58022Y-486074D01*
X-58016Y-486194D01*
X-58014Y-486313D01*
X-58014Y-488119D01*
X-65239Y-488119D01*
X-51086Y-493538D02*
X-51086Y-482701D01*
X-45667Y-482701D01*
X-45667Y-484507D01*
X-30885Y-477282D02*
X-30885Y-493538D01*
X-32691Y-493538D02*
X-29079Y-493538D01*
X-29079Y-477282D02*
X-32691Y-477282D01*
X-22513Y-482701D02*
X-22513Y-493538D01*
X-22513Y-482701D02*
X-17998Y-482701D01*
X-17894Y-482703D01*
X-17791Y-482709D01*
X-17687Y-482719D01*
X-17584Y-482733D01*
X-17482Y-482751D01*
X-17381Y-482772D01*
X-17280Y-482798D01*
X-17181Y-482827D01*
X-17082Y-482860D01*
X-16985Y-482897D01*
X-16890Y-482938D01*
X-16796Y-482982D01*
X-16704Y-483030D01*
X-16614Y-483081D01*
X-16525Y-483136D01*
X-16439Y-483194D01*
X-16356Y-483256D01*
X-16274Y-483320D01*
X-16196Y-483388D01*
X-16120Y-483458D01*
X-16046Y-483531D01*
X-15976Y-483608D01*
X-15908Y-483686D01*
X-15844Y-483768D01*
X-15782Y-483851D01*
X-15724Y-483937D01*
X-15669Y-484026D01*
X-15618Y-484116D01*
X-15570Y-484208D01*
X-15526Y-484302D01*
X-15485Y-484397D01*
X-15448Y-484494D01*
X-15415Y-484593D01*
X-15386Y-484692D01*
X-15360Y-484793D01*
X-15339Y-484894D01*
X-15321Y-484996D01*
X-15307Y-485099D01*
X-15297Y-485203D01*
X-15291Y-485306D01*
X-15289Y-485410D01*
X-15288Y-485410D02*
X-15288Y-493538D01*
X-7924Y-493538D02*
X-7924Y-482701D01*
X-3409Y-482701D01*
X-3305Y-482703D01*
X-3202Y-482709D01*
X-3098Y-482719D01*
X-2995Y-482733D01*
X-2893Y-482751D01*
X-2792Y-482772D01*
X-2691Y-482798D01*
X-2592Y-482827D01*
X-2493Y-482860D01*
X-2396Y-482897D01*
X-2301Y-482938D01*
X-2207Y-482982D01*
X-2115Y-483030D01*
X-2025Y-483081D01*
X-1936Y-483136D01*
X-1850Y-483194D01*
X-1767Y-483256D01*
X-1685Y-483320D01*
X-1607Y-483388D01*
X-1531Y-483458D01*
X-1457Y-483531D01*
X-1387Y-483608D01*
X-1319Y-483686D01*
X-1255Y-483768D01*
X-1193Y-483851D01*
X-1135Y-483937D01*
X-1080Y-484026D01*
X-1029Y-484116D01*
X-981Y-484208D01*
X-937Y-484302D01*
X-896Y-484397D01*
X-859Y-484494D01*
X-826Y-484593D01*
X-797Y-484692D01*
X-771Y-484793D01*
X-750Y-484894D01*
X-732Y-484996D01*
X-718Y-485099D01*
X-708Y-485203D01*
X-702Y-485306D01*
X-700Y-485410D01*
X-699Y-485410D02*
X-699Y-493538D01*
X8853Y-493538D02*
X13369Y-493538D01*
X8853Y-493538D02*
X8752Y-493536D01*
X8651Y-493530D01*
X8550Y-493521D01*
X8449Y-493508D01*
X8349Y-493491D01*
X8250Y-493470D01*
X8152Y-493446D01*
X8055Y-493418D01*
X7958Y-493386D01*
X7863Y-493351D01*
X7770Y-493312D01*
X7678Y-493270D01*
X7587Y-493224D01*
X7499Y-493175D01*
X7412Y-493123D01*
X7327Y-493067D01*
X7244Y-493009D01*
X7164Y-492947D01*
X7086Y-492882D01*
X7010Y-492815D01*
X6937Y-492745D01*
X6867Y-492672D01*
X6800Y-492596D01*
X6735Y-492518D01*
X6673Y-492438D01*
X6615Y-492355D01*
X6559Y-492270D01*
X6507Y-492184D01*
X6458Y-492095D01*
X6412Y-492004D01*
X6370Y-491912D01*
X6331Y-491819D01*
X6296Y-491724D01*
X6264Y-491627D01*
X6236Y-491530D01*
X6212Y-491432D01*
X6191Y-491333D01*
X6174Y-491233D01*
X6161Y-491132D01*
X6152Y-491031D01*
X6146Y-490930D01*
X6144Y-490829D01*
X6144Y-486313D01*
X6146Y-486194D01*
X6152Y-486074D01*
X6162Y-485955D01*
X6176Y-485837D01*
X6193Y-485718D01*
X6215Y-485601D01*
X6240Y-485484D01*
X6270Y-485369D01*
X6303Y-485254D01*
X6340Y-485140D01*
X6380Y-485028D01*
X6425Y-484917D01*
X6473Y-484808D01*
X6524Y-484700D01*
X6579Y-484594D01*
X6638Y-484490D01*
X6700Y-484388D01*
X6765Y-484288D01*
X6834Y-484190D01*
X6906Y-484094D01*
X6981Y-484001D01*
X7058Y-483911D01*
X7139Y-483823D01*
X7223Y-483738D01*
X7310Y-483656D01*
X7399Y-483576D01*
X7491Y-483500D01*
X7585Y-483426D01*
X7682Y-483356D01*
X7780Y-483289D01*
X7881Y-483225D01*
X7985Y-483165D01*
X8090Y-483108D01*
X8197Y-483055D01*
X8305Y-483005D01*
X8415Y-482959D01*
X8527Y-482917D01*
X8640Y-482878D01*
X8754Y-482843D01*
X8869Y-482812D01*
X8986Y-482784D01*
X9103Y-482761D01*
X9220Y-482741D01*
X9339Y-482725D01*
X9458Y-482713D01*
X9577Y-482705D01*
X9696Y-482701D01*
X9816Y-482701D01*
X9935Y-482705D01*
X10054Y-482713D01*
X10173Y-482725D01*
X10292Y-482741D01*
X10409Y-482761D01*
X10526Y-482784D01*
X10643Y-482812D01*
X10758Y-482843D01*
X10872Y-482878D01*
X10985Y-482917D01*
X11097Y-482959D01*
X11207Y-483005D01*
X11315Y-483055D01*
X11422Y-483108D01*
X11527Y-483165D01*
X11631Y-483225D01*
X11732Y-483289D01*
X11830Y-483356D01*
X11927Y-483426D01*
X12021Y-483500D01*
X12113Y-483576D01*
X12202Y-483656D01*
X12289Y-483738D01*
X12373Y-483823D01*
X12454Y-483911D01*
X12531Y-484001D01*
X12606Y-484094D01*
X12678Y-484190D01*
X12747Y-484288D01*
X12812Y-484388D01*
X12874Y-484490D01*
X12933Y-484594D01*
X12988Y-484700D01*
X13039Y-484808D01*
X13087Y-484917D01*
X13132Y-485028D01*
X13172Y-485140D01*
X13209Y-485254D01*
X13242Y-485369D01*
X13272Y-485484D01*
X13297Y-485601D01*
X13319Y-485718D01*
X13336Y-485837D01*
X13350Y-485955D01*
X13360Y-486074D01*
X13366Y-486194D01*
X13368Y-486313D01*
X13369Y-486313D02*
X13369Y-488119D01*
X6144Y-488119D01*
X20297Y-493538D02*
X20297Y-482701D01*
X25716Y-482701D01*
X25716Y-484507D01*
X39768Y-477282D02*
X39768Y-493538D01*
X45187Y-486313D02*
X39768Y-477282D01*
X45187Y-486313D02*
X50606Y-477282D01*
X50606Y-493538D01*
X60436Y-493538D02*
X64952Y-493538D01*
X60436Y-493538D02*
X60335Y-493536D01*
X60234Y-493530D01*
X60133Y-493521D01*
X60032Y-493508D01*
X59932Y-493491D01*
X59833Y-493470D01*
X59735Y-493446D01*
X59638Y-493418D01*
X59541Y-493386D01*
X59446Y-493351D01*
X59353Y-493312D01*
X59261Y-493270D01*
X59170Y-493224D01*
X59082Y-493175D01*
X58995Y-493123D01*
X58910Y-493067D01*
X58827Y-493009D01*
X58747Y-492947D01*
X58669Y-492882D01*
X58593Y-492815D01*
X58520Y-492745D01*
X58450Y-492672D01*
X58383Y-492596D01*
X58318Y-492518D01*
X58256Y-492438D01*
X58198Y-492355D01*
X58142Y-492270D01*
X58090Y-492184D01*
X58041Y-492095D01*
X57995Y-492004D01*
X57953Y-491912D01*
X57914Y-491819D01*
X57879Y-491724D01*
X57847Y-491627D01*
X57819Y-491530D01*
X57795Y-491432D01*
X57774Y-491333D01*
X57757Y-491233D01*
X57744Y-491132D01*
X57735Y-491031D01*
X57729Y-490930D01*
X57727Y-490829D01*
X57727Y-486313D01*
X57729Y-486194D01*
X57735Y-486074D01*
X57745Y-485955D01*
X57759Y-485837D01*
X57776Y-485718D01*
X57798Y-485601D01*
X57823Y-485484D01*
X57853Y-485369D01*
X57886Y-485254D01*
X57923Y-485140D01*
X57963Y-485028D01*
X58008Y-484917D01*
X58056Y-484808D01*
X58107Y-484700D01*
X58162Y-484594D01*
X58221Y-484490D01*
X58283Y-484388D01*
X58348Y-484288D01*
X58417Y-484190D01*
X58489Y-484094D01*
X58564Y-484001D01*
X58641Y-483911D01*
X58722Y-483823D01*
X58806Y-483738D01*
X58893Y-483656D01*
X58982Y-483576D01*
X59074Y-483500D01*
X59168Y-483426D01*
X59265Y-483356D01*
X59363Y-483289D01*
X59464Y-483225D01*
X59568Y-483165D01*
X59673Y-483108D01*
X59780Y-483055D01*
X59888Y-483005D01*
X59998Y-482959D01*
X60110Y-482917D01*
X60223Y-482878D01*
X60337Y-482843D01*
X60452Y-482812D01*
X60569Y-482784D01*
X60686Y-482761D01*
X60803Y-482741D01*
X60922Y-482725D01*
X61041Y-482713D01*
X61160Y-482705D01*
X61279Y-482701D01*
X61399Y-482701D01*
X61518Y-482705D01*
X61637Y-482713D01*
X61756Y-482725D01*
X61875Y-482741D01*
X61992Y-482761D01*
X62109Y-482784D01*
X62226Y-482812D01*
X62341Y-482843D01*
X62455Y-482878D01*
X62568Y-482917D01*
X62680Y-482959D01*
X62790Y-483005D01*
X62898Y-483055D01*
X63005Y-483108D01*
X63110Y-483165D01*
X63214Y-483225D01*
X63315Y-483289D01*
X63413Y-483356D01*
X63510Y-483426D01*
X63604Y-483500D01*
X63696Y-483576D01*
X63785Y-483656D01*
X63872Y-483738D01*
X63956Y-483823D01*
X64037Y-483911D01*
X64114Y-484001D01*
X64189Y-484094D01*
X64261Y-484190D01*
X64330Y-484288D01*
X64395Y-484388D01*
X64457Y-484490D01*
X64516Y-484594D01*
X64571Y-484700D01*
X64622Y-484808D01*
X64670Y-484917D01*
X64715Y-485028D01*
X64755Y-485140D01*
X64792Y-485254D01*
X64825Y-485369D01*
X64855Y-485484D01*
X64880Y-485601D01*
X64902Y-485718D01*
X64919Y-485837D01*
X64933Y-485955D01*
X64943Y-486074D01*
X64949Y-486194D01*
X64951Y-486313D01*
X64952Y-486313D02*
X64952Y-488119D01*
X57727Y-488119D01*
X69977Y-482701D02*
X75395Y-482701D01*
X71783Y-477282D02*
X71783Y-490829D01*
X71785Y-490930D01*
X71791Y-491031D01*
X71800Y-491132D01*
X71813Y-491233D01*
X71830Y-491333D01*
X71851Y-491432D01*
X71875Y-491530D01*
X71903Y-491627D01*
X71935Y-491724D01*
X71970Y-491819D01*
X72009Y-491912D01*
X72051Y-492004D01*
X72097Y-492095D01*
X72146Y-492184D01*
X72198Y-492270D01*
X72254Y-492355D01*
X72312Y-492438D01*
X72374Y-492518D01*
X72439Y-492596D01*
X72506Y-492672D01*
X72576Y-492745D01*
X72649Y-492815D01*
X72725Y-492882D01*
X72803Y-492947D01*
X72883Y-493009D01*
X72966Y-493067D01*
X73051Y-493123D01*
X73138Y-493175D01*
X73226Y-493224D01*
X73317Y-493270D01*
X73409Y-493312D01*
X73502Y-493351D01*
X73597Y-493386D01*
X73694Y-493418D01*
X73791Y-493446D01*
X73889Y-493470D01*
X73988Y-493491D01*
X74088Y-493508D01*
X74189Y-493521D01*
X74290Y-493530D01*
X74391Y-493536D01*
X74492Y-493538D01*
X75395Y-493538D01*
X84261Y-487216D02*
X88325Y-487216D01*
X84261Y-487216D02*
X84149Y-487218D01*
X84038Y-487224D01*
X83927Y-487234D01*
X83816Y-487247D01*
X83706Y-487265D01*
X83597Y-487287D01*
X83488Y-487312D01*
X83380Y-487341D01*
X83274Y-487374D01*
X83168Y-487411D01*
X83064Y-487451D01*
X82962Y-487495D01*
X82861Y-487543D01*
X82762Y-487594D01*
X82664Y-487649D01*
X82569Y-487707D01*
X82476Y-487768D01*
X82385Y-487833D01*
X82296Y-487901D01*
X82210Y-487972D01*
X82127Y-488045D01*
X82046Y-488122D01*
X81967Y-488202D01*
X81892Y-488284D01*
X81820Y-488369D01*
X81750Y-488456D01*
X81684Y-488546D01*
X81621Y-488638D01*
X81561Y-488733D01*
X81505Y-488829D01*
X81452Y-488927D01*
X81403Y-489027D01*
X81357Y-489129D01*
X81315Y-489232D01*
X81276Y-489337D01*
X81241Y-489443D01*
X81210Y-489550D01*
X81183Y-489658D01*
X81159Y-489767D01*
X81140Y-489877D01*
X81124Y-489987D01*
X81112Y-490098D01*
X81104Y-490210D01*
X81100Y-490321D01*
X81100Y-490433D01*
X81104Y-490544D01*
X81112Y-490656D01*
X81124Y-490767D01*
X81140Y-490877D01*
X81159Y-490987D01*
X81183Y-491096D01*
X81210Y-491204D01*
X81241Y-491311D01*
X81276Y-491417D01*
X81315Y-491522D01*
X81357Y-491625D01*
X81403Y-491727D01*
X81452Y-491827D01*
X81505Y-491925D01*
X81561Y-492021D01*
X81621Y-492116D01*
X81684Y-492208D01*
X81750Y-492298D01*
X81820Y-492385D01*
X81892Y-492470D01*
X81967Y-492552D01*
X82046Y-492632D01*
X82127Y-492709D01*
X82210Y-492782D01*
X82296Y-492853D01*
X82385Y-492921D01*
X82476Y-492986D01*
X82569Y-493047D01*
X82664Y-493105D01*
X82762Y-493160D01*
X82861Y-493211D01*
X82962Y-493259D01*
X83064Y-493303D01*
X83168Y-493343D01*
X83274Y-493380D01*
X83380Y-493413D01*
X83488Y-493442D01*
X83597Y-493467D01*
X83706Y-493489D01*
X83816Y-493507D01*
X83927Y-493520D01*
X84038Y-493530D01*
X84149Y-493536D01*
X84261Y-493538D01*
X88325Y-493538D01*
X88325Y-485410D01*
X88323Y-485309D01*
X88317Y-485208D01*
X88308Y-485107D01*
X88295Y-485006D01*
X88278Y-484906D01*
X88257Y-484807D01*
X88233Y-484709D01*
X88205Y-484612D01*
X88173Y-484515D01*
X88138Y-484420D01*
X88099Y-484327D01*
X88057Y-484235D01*
X88011Y-484144D01*
X87962Y-484056D01*
X87910Y-483969D01*
X87854Y-483884D01*
X87796Y-483801D01*
X87734Y-483721D01*
X87669Y-483643D01*
X87602Y-483567D01*
X87532Y-483494D01*
X87459Y-483424D01*
X87383Y-483357D01*
X87305Y-483292D01*
X87225Y-483230D01*
X87142Y-483172D01*
X87057Y-483116D01*
X86971Y-483064D01*
X86882Y-483015D01*
X86791Y-482969D01*
X86699Y-482927D01*
X86606Y-482888D01*
X86511Y-482853D01*
X86414Y-482821D01*
X86317Y-482793D01*
X86219Y-482769D01*
X86120Y-482748D01*
X86020Y-482731D01*
X85919Y-482718D01*
X85818Y-482709D01*
X85717Y-482703D01*
X85616Y-482701D01*
X82004Y-482701D01*
X95479Y-477282D02*
X95479Y-490829D01*
X95481Y-490930D01*
X95487Y-491031D01*
X95496Y-491132D01*
X95509Y-491233D01*
X95526Y-491333D01*
X95547Y-491432D01*
X95571Y-491530D01*
X95599Y-491627D01*
X95631Y-491724D01*
X95666Y-491819D01*
X95705Y-491912D01*
X95747Y-492004D01*
X95793Y-492095D01*
X95842Y-492184D01*
X95894Y-492270D01*
X95950Y-492355D01*
X96008Y-492438D01*
X96070Y-492518D01*
X96135Y-492596D01*
X96202Y-492672D01*
X96272Y-492745D01*
X96345Y-492815D01*
X96421Y-492882D01*
X96499Y-492947D01*
X96579Y-493009D01*
X96662Y-493067D01*
X96747Y-493123D01*
X96834Y-493175D01*
X96922Y-493224D01*
X97013Y-493270D01*
X97105Y-493312D01*
X97198Y-493351D01*
X97293Y-493386D01*
X97390Y-493418D01*
X97487Y-493446D01*
X97585Y-493470D01*
X97684Y-493491D01*
X97784Y-493508D01*
X97885Y-493521D01*
X97986Y-493530D01*
X98087Y-493536D01*
X98188Y-493538D01*
D18*
X120000Y69660D03*
X-350000Y110340D03*
X290000Y9660D03*
X-230000Y-39660D03*
X40867Y-27250D03*
X-419290Y233000D03*
X-70000Y69660D03*
X-250000Y-130340D03*
X-125000Y245710D03*
X-323000Y258960D03*
X350000Y39660D03*
X290000Y170340D03*
X-198290Y-175000D03*
X-101710Y-175000D03*
X-190000Y69660D03*
X70000Y110340D03*
X151710Y-315000D03*
X248290Y-315000D03*
X-47835Y60750D03*
X-56797Y67250D03*
X-47835Y112750D03*
X47835Y86750D03*
X-240000Y-159260D03*
X120000Y150340D03*
X-388290Y-195000D03*
X-291710Y-195000D03*
X-240000Y-209260D03*
X-198290Y-275000D03*
X-101710Y-275000D03*
X350000Y140340D03*
X-270000Y69660D03*
X-270000Y10340D03*
X149660Y180000D03*
X-310000Y-80340D03*
X102710Y-276000D03*
X102710Y-204000D03*
X235400Y-44560D03*
X149090Y112500D03*
X-70000Y150340D03*
X-206709Y90000D03*
X340000Y-159260D03*
X151710Y-255000D03*
X248290Y-255000D03*
X-290000Y-130340D03*
X340000Y-209260D03*
D19*
X182500Y53750D03*
D18*
X-293000Y-85000D03*
X-367000Y272000D03*
X-254000Y271000D03*
D19*
X263750Y-6250D03*
X262500Y-100000D03*
X237500Y126250D03*
X278750Y6250D03*
D18*
X270910Y127500D03*
D20*
X270000Y127500D02*
X260000Y117500D01*
X142500Y117500D01*
X91250Y66250D01*
X82500Y66250D01*
X66250Y50000D01*
X66250Y42500D01*
X56250Y32500D01*
X41250Y32500D01*
X270000Y127500D02*
X270910Y127500D01*
D19*
X41250Y32500D03*
X-345000Y0D03*
X245000Y125000D03*
D18*
X-40867Y-72750D03*
X184600Y-44560D03*
X-333290Y80500D03*
X-230000Y-80340D03*
X290000Y50340D03*
X149090Y97500D03*
X270910Y102500D03*
X270910Y77500D03*
X227500Y29090D03*
X177500Y29090D03*
X-250000Y220740D03*
X-270000Y-30340D03*
X-310000Y-39660D03*
X-175000Y245710D03*
X0Y-150740D03*
X-350000Y69660D03*
X-180000Y-39260D03*
X-190160Y189360D03*
X-135000Y-39260D03*
X-258790Y-272500D03*
X120000Y110340D03*
D19*
X-65000Y211250D03*
X-71250Y205000D03*
X-260000Y196250D03*
X-313750Y133750D03*
D20*
X173750Y53750D02*
X173750Y40000D01*
X166250Y32500D01*
X166250Y-71250D01*
X175000Y-80000D01*
X175000Y-107500D01*
D19*
X173750Y53750D03*
X175000Y-107500D03*
X350000Y-100000D03*
X243750Y92500D03*
D18*
X197500Y29090D03*
D19*
X193750Y-80000D03*
X193750Y-100000D03*
D18*
X-47835Y99750D03*
X-286710Y80500D03*
X-250000Y167190D03*
X-210000Y167190D03*
X390000Y-209260D03*
X-70000Y110340D03*
X-355720Y-260000D03*
X390000Y-159260D03*
X-340000Y-270710D03*
D19*
X-298750Y73750D03*
D18*
X47835Y47750D03*
X56797Y73750D03*
X47835Y112750D03*
D19*
X61250Y43750D03*
D18*
X56797Y54250D03*
X-56797Y86750D03*
D20*
X-62500Y65000D02*
X46250Y-43750D01*
X-62500Y65000D02*
X-62500Y76250D01*
X-55000Y83750D01*
X-57500Y86250D01*
X-56797Y86750D01*
D19*
X188750Y-197500D03*
X46250Y-43750D03*
X-311250Y155000D03*
X-330000Y198750D03*
D20*
X-95000Y208750D02*
X-95000Y215000D01*
X-95000Y208750D02*
X-82500Y196250D01*
X-82500Y183750D01*
X-85000Y181250D01*
X-85000Y176250D01*
X10000Y81250D01*
X10000Y27500D01*
D19*
X-95000Y215000D03*
X10000Y27500D03*
D18*
X242500Y29090D03*
D19*
X-10000Y-42500D03*
X-13750Y-72500D03*
X-185000Y185000D03*
D20*
X0Y-51250D02*
X0Y-55000D01*
X0Y-51250D02*
X-5000Y-46250D01*
X-5000Y-6250D01*
X-118750Y107500D01*
X-118750Y113750D01*
X-183750Y178750D01*
X-195000Y178750D01*
X-205000Y188750D01*
X-205000Y218750D01*
X-212500Y226250D01*
X-212500Y230000D01*
X-213500Y230000D01*
D19*
X0Y-55000D03*
X-10000Y-17500D03*
X-41250Y-7500D03*
X-186250Y170000D03*
D20*
X0Y-7500D02*
X0Y-45000D01*
X0Y-7500D02*
X-115000Y107500D01*
X-115000Y118750D01*
X-180000Y183750D01*
X-180000Y210000D01*
X-163750Y226250D01*
X-163750Y230000D01*
X-162700Y230000D01*
D19*
X0Y-45000D03*
X0Y-75000D03*
X10000Y-57500D03*
X13750Y-27500D03*
X216250Y20000D03*
D18*
X-270000Y110340D03*
X-169840Y189360D03*
X-253291Y99500D03*
X-250000Y112810D03*
X-360710Y247000D03*
D20*
X172500Y58750D02*
X178750Y58750D01*
X172500Y58750D02*
X161250Y47500D01*
X161250Y-70000D01*
X171250Y-80000D01*
X171250Y-88750D01*
X170000Y-90000D01*
D19*
X178750Y58750D03*
X170000Y-90000D03*
D18*
X212500Y29090D03*
D20*
X212500Y28750D02*
X205000Y21250D01*
X205000Y20000D01*
X207500Y17500D01*
X207500Y-60000D01*
X180000Y-87500D01*
X180000Y-90000D01*
X212500Y28750D02*
X212500Y29090D01*
D19*
X180000Y-90000D03*
X75000Y40000D03*
X253750Y145000D03*
X-97500Y140000D03*
D18*
X47835Y67250D03*
D19*
X140000Y82500D03*
X141250Y72500D03*
D18*
X149090Y82500D03*
D19*
X41250Y38750D03*
D18*
X270910Y62500D03*
D19*
X282500Y-68750D03*
D20*
X268750Y43750D02*
X246250Y66250D01*
X268750Y43750D02*
X268750Y-100000D01*
D19*
X246250Y66250D03*
X268750Y-100000D03*
X273750Y-6250D03*
X275000Y-100000D03*
X-327500Y-260000D03*
X-45000Y-92500D03*
X355000Y-147500D03*
X243750Y86250D03*
X-343750Y217500D03*
X-353750Y227500D03*
X-343750Y197500D03*
X-353750Y207500D03*
D18*
X-47835Y80250D03*
D19*
X260000Y145000D03*
D18*
X149090Y57500D03*
D19*
X131250Y80000D03*
X135000Y48750D03*
X112500Y61250D03*
M02*
