G04 EAGLE Gerber RS-274X export*
G75*
%MOMM*%
%FSLAX34Y34*%
%LPD*%
%INSolder stop mask SOL*%
%IPPOS*%
%AMOC8*
5,1,8,0,0,1.08239X$1,22.5*%
G01*
%ADD10C,2.352400*%
%ADD11C,1.052400*%
%ADD12C,1.676400*%
%ADD13R,1.802400X1.802400*%
%ADD14C,1.802400*%
%ADD15C,1.028700*%
%ADD16C,2.413000*%
%ADD17C,0.504800*%
%ADD18R,1.502400X1.502400*%
%ADD19C,1.502400*%
%ADD20R,1.422400X0.787400*%
%ADD21C,1.652400*%
%ADD22R,0.787400X1.422400*%
%ADD23C,2.102400*%
%ADD24R,2.102400X2.102400*%
%ADD25C,1.682400*%
%ADD26C,0.152400*%

G36*
X-8665Y-32528D02*
X-8665Y-32528D01*
X-8599Y-32526D01*
X-8556Y-32508D01*
X-8509Y-32500D01*
X-8452Y-32466D01*
X-8392Y-32441D01*
X-8357Y-32410D01*
X-8316Y-32385D01*
X-8275Y-32334D01*
X-8226Y-32290D01*
X-8204Y-32248D01*
X-8175Y-32211D01*
X-8154Y-32149D01*
X-8123Y-32090D01*
X-8115Y-32036D01*
X-8103Y-31999D01*
X-8104Y-31959D01*
X-8096Y-31905D01*
X-8096Y-28095D01*
X-8107Y-28030D01*
X-8109Y-27964D01*
X-8127Y-27921D01*
X-8135Y-27874D01*
X-8169Y-27817D01*
X-8194Y-27757D01*
X-8225Y-27722D01*
X-8250Y-27681D01*
X-8301Y-27640D01*
X-8345Y-27591D01*
X-8387Y-27569D01*
X-8424Y-27540D01*
X-8486Y-27519D01*
X-8545Y-27488D01*
X-8599Y-27480D01*
X-8636Y-27468D01*
X-8676Y-27469D01*
X-8730Y-27461D01*
X-11270Y-27461D01*
X-11335Y-27472D01*
X-11401Y-27474D01*
X-11444Y-27492D01*
X-11491Y-27500D01*
X-11548Y-27534D01*
X-11608Y-27559D01*
X-11643Y-27590D01*
X-11684Y-27615D01*
X-11726Y-27666D01*
X-11774Y-27710D01*
X-11796Y-27752D01*
X-11825Y-27789D01*
X-11846Y-27851D01*
X-11877Y-27910D01*
X-11885Y-27964D01*
X-11897Y-28001D01*
X-11897Y-28005D01*
X-11897Y-28006D01*
X-11896Y-28041D01*
X-11904Y-28095D01*
X-11904Y-31905D01*
X-11893Y-31970D01*
X-11891Y-32036D01*
X-11873Y-32079D01*
X-11865Y-32126D01*
X-11831Y-32183D01*
X-11806Y-32243D01*
X-11775Y-32278D01*
X-11750Y-32319D01*
X-11699Y-32361D01*
X-11655Y-32409D01*
X-11613Y-32431D01*
X-11576Y-32460D01*
X-11514Y-32481D01*
X-11455Y-32512D01*
X-11401Y-32520D01*
X-11364Y-32532D01*
X-11324Y-32531D01*
X-11270Y-32539D01*
X-8730Y-32539D01*
X-8665Y-32528D01*
G37*
G36*
X11335Y-42528D02*
X11335Y-42528D01*
X11401Y-42526D01*
X11444Y-42508D01*
X11491Y-42500D01*
X11548Y-42466D01*
X11608Y-42441D01*
X11643Y-42410D01*
X11684Y-42385D01*
X11726Y-42334D01*
X11774Y-42290D01*
X11796Y-42248D01*
X11825Y-42211D01*
X11846Y-42149D01*
X11877Y-42090D01*
X11885Y-42036D01*
X11897Y-41999D01*
X11896Y-41959D01*
X11904Y-41905D01*
X11904Y-38095D01*
X11893Y-38030D01*
X11891Y-37964D01*
X11873Y-37921D01*
X11865Y-37874D01*
X11831Y-37817D01*
X11806Y-37757D01*
X11775Y-37722D01*
X11750Y-37681D01*
X11699Y-37640D01*
X11655Y-37591D01*
X11613Y-37569D01*
X11576Y-37540D01*
X11514Y-37519D01*
X11455Y-37488D01*
X11401Y-37480D01*
X11364Y-37468D01*
X11324Y-37469D01*
X11270Y-37461D01*
X8730Y-37461D01*
X8665Y-37472D01*
X8599Y-37474D01*
X8556Y-37492D01*
X8509Y-37500D01*
X8452Y-37534D01*
X8392Y-37559D01*
X8357Y-37590D01*
X8316Y-37615D01*
X8275Y-37666D01*
X8226Y-37710D01*
X8204Y-37752D01*
X8175Y-37789D01*
X8154Y-37851D01*
X8123Y-37910D01*
X8115Y-37964D01*
X8103Y-38001D01*
X8103Y-38005D01*
X8103Y-38006D01*
X8104Y-38041D01*
X8096Y-38095D01*
X8096Y-41905D01*
X8107Y-41970D01*
X8109Y-42036D01*
X8127Y-42079D01*
X8135Y-42126D01*
X8169Y-42183D01*
X8194Y-42243D01*
X8225Y-42278D01*
X8250Y-42319D01*
X8301Y-42361D01*
X8345Y-42409D01*
X8387Y-42431D01*
X8424Y-42460D01*
X8486Y-42481D01*
X8545Y-42512D01*
X8599Y-42520D01*
X8636Y-42532D01*
X8676Y-42531D01*
X8730Y-42539D01*
X11270Y-42539D01*
X11335Y-42528D01*
G37*
G36*
X-8665Y-62528D02*
X-8665Y-62528D01*
X-8599Y-62526D01*
X-8556Y-62508D01*
X-8509Y-62500D01*
X-8452Y-62466D01*
X-8392Y-62441D01*
X-8357Y-62410D01*
X-8316Y-62385D01*
X-8275Y-62334D01*
X-8226Y-62290D01*
X-8204Y-62248D01*
X-8175Y-62211D01*
X-8154Y-62149D01*
X-8123Y-62090D01*
X-8115Y-62036D01*
X-8103Y-61999D01*
X-8104Y-61959D01*
X-8096Y-61905D01*
X-8096Y-58095D01*
X-8107Y-58030D01*
X-8109Y-57964D01*
X-8127Y-57921D01*
X-8135Y-57874D01*
X-8169Y-57817D01*
X-8194Y-57757D01*
X-8225Y-57722D01*
X-8250Y-57681D01*
X-8301Y-57640D01*
X-8345Y-57591D01*
X-8387Y-57569D01*
X-8424Y-57540D01*
X-8486Y-57519D01*
X-8545Y-57488D01*
X-8599Y-57480D01*
X-8636Y-57468D01*
X-8676Y-57469D01*
X-8730Y-57461D01*
X-11270Y-57461D01*
X-11335Y-57472D01*
X-11401Y-57474D01*
X-11444Y-57492D01*
X-11491Y-57500D01*
X-11548Y-57534D01*
X-11608Y-57559D01*
X-11643Y-57590D01*
X-11684Y-57615D01*
X-11726Y-57666D01*
X-11774Y-57710D01*
X-11796Y-57752D01*
X-11825Y-57789D01*
X-11846Y-57851D01*
X-11877Y-57910D01*
X-11885Y-57964D01*
X-11897Y-58001D01*
X-11897Y-58005D01*
X-11897Y-58006D01*
X-11896Y-58041D01*
X-11904Y-58095D01*
X-11904Y-61905D01*
X-11893Y-61970D01*
X-11891Y-62036D01*
X-11873Y-62079D01*
X-11865Y-62126D01*
X-11831Y-62183D01*
X-11806Y-62243D01*
X-11775Y-62278D01*
X-11750Y-62319D01*
X-11699Y-62361D01*
X-11655Y-62409D01*
X-11613Y-62431D01*
X-11576Y-62460D01*
X-11514Y-62481D01*
X-11455Y-62512D01*
X-11401Y-62520D01*
X-11364Y-62532D01*
X-11324Y-62531D01*
X-11270Y-62539D01*
X-8730Y-62539D01*
X-8665Y-62528D01*
G37*
G36*
X11335Y-72528D02*
X11335Y-72528D01*
X11401Y-72526D01*
X11444Y-72508D01*
X11491Y-72500D01*
X11548Y-72466D01*
X11608Y-72441D01*
X11643Y-72410D01*
X11684Y-72385D01*
X11726Y-72334D01*
X11774Y-72290D01*
X11796Y-72248D01*
X11825Y-72211D01*
X11846Y-72149D01*
X11877Y-72090D01*
X11885Y-72036D01*
X11897Y-71999D01*
X11896Y-71959D01*
X11904Y-71905D01*
X11904Y-68095D01*
X11893Y-68030D01*
X11891Y-67964D01*
X11873Y-67921D01*
X11865Y-67874D01*
X11831Y-67817D01*
X11806Y-67757D01*
X11775Y-67722D01*
X11750Y-67681D01*
X11699Y-67640D01*
X11655Y-67591D01*
X11613Y-67569D01*
X11576Y-67540D01*
X11514Y-67519D01*
X11455Y-67488D01*
X11401Y-67480D01*
X11364Y-67468D01*
X11324Y-67469D01*
X11270Y-67461D01*
X8730Y-67461D01*
X8665Y-67472D01*
X8599Y-67474D01*
X8556Y-67492D01*
X8509Y-67500D01*
X8452Y-67534D01*
X8392Y-67559D01*
X8357Y-67590D01*
X8316Y-67615D01*
X8275Y-67666D01*
X8226Y-67710D01*
X8204Y-67752D01*
X8175Y-67789D01*
X8154Y-67851D01*
X8123Y-67910D01*
X8115Y-67964D01*
X8103Y-68001D01*
X8103Y-68005D01*
X8103Y-68006D01*
X8104Y-68041D01*
X8096Y-68095D01*
X8096Y-71905D01*
X8107Y-71970D01*
X8109Y-72036D01*
X8127Y-72079D01*
X8135Y-72126D01*
X8169Y-72183D01*
X8194Y-72243D01*
X8225Y-72278D01*
X8250Y-72319D01*
X8301Y-72361D01*
X8345Y-72409D01*
X8387Y-72431D01*
X8424Y-72460D01*
X8486Y-72481D01*
X8545Y-72512D01*
X8599Y-72520D01*
X8636Y-72532D01*
X8676Y-72531D01*
X8730Y-72539D01*
X11270Y-72539D01*
X11335Y-72528D01*
G37*
G36*
X-172950Y198107D02*
X-172950Y198107D01*
X-172884Y198109D01*
X-172841Y198127D01*
X-172794Y198135D01*
X-172737Y198169D01*
X-172677Y198194D01*
X-172642Y198225D01*
X-172601Y198250D01*
X-172560Y198301D01*
X-172511Y198345D01*
X-172489Y198387D01*
X-172460Y198424D01*
X-172439Y198486D01*
X-172408Y198545D01*
X-172400Y198599D01*
X-172388Y198636D01*
X-172389Y198676D01*
X-172381Y198730D01*
X-172381Y201270D01*
X-172392Y201335D01*
X-172394Y201401D01*
X-172412Y201444D01*
X-172420Y201491D01*
X-172454Y201548D01*
X-172479Y201608D01*
X-172510Y201643D01*
X-172535Y201684D01*
X-172586Y201726D01*
X-172630Y201774D01*
X-172672Y201796D01*
X-172709Y201825D01*
X-172771Y201846D01*
X-172830Y201877D01*
X-172884Y201885D01*
X-172921Y201897D01*
X-172961Y201896D01*
X-173015Y201904D01*
X-176825Y201904D01*
X-176890Y201893D01*
X-176956Y201891D01*
X-176999Y201873D01*
X-177046Y201865D01*
X-177103Y201831D01*
X-177163Y201806D01*
X-177198Y201775D01*
X-177239Y201750D01*
X-177281Y201699D01*
X-177329Y201655D01*
X-177351Y201613D01*
X-177380Y201576D01*
X-177401Y201514D01*
X-177432Y201455D01*
X-177440Y201401D01*
X-177452Y201364D01*
X-177452Y201361D01*
X-177451Y201324D01*
X-177459Y201270D01*
X-177459Y198730D01*
X-177448Y198665D01*
X-177446Y198599D01*
X-177428Y198556D01*
X-177420Y198509D01*
X-177386Y198452D01*
X-177361Y198392D01*
X-177330Y198357D01*
X-177305Y198316D01*
X-177254Y198275D01*
X-177210Y198226D01*
X-177168Y198204D01*
X-177131Y198175D01*
X-177069Y198154D01*
X-177010Y198123D01*
X-176956Y198115D01*
X-176919Y198103D01*
X-176879Y198104D01*
X-176825Y198096D01*
X-173015Y198096D01*
X-172950Y198107D01*
G37*
G36*
X-338030Y-261893D02*
X-338030Y-261893D01*
X-337964Y-261891D01*
X-337921Y-261873D01*
X-337874Y-261865D01*
X-337817Y-261831D01*
X-337757Y-261806D01*
X-337722Y-261775D01*
X-337681Y-261750D01*
X-337640Y-261699D01*
X-337591Y-261655D01*
X-337569Y-261613D01*
X-337540Y-261576D01*
X-337519Y-261514D01*
X-337488Y-261455D01*
X-337480Y-261401D01*
X-337468Y-261364D01*
X-337469Y-261324D01*
X-337461Y-261270D01*
X-337461Y-258730D01*
X-337472Y-258665D01*
X-337474Y-258599D01*
X-337492Y-258556D01*
X-337500Y-258509D01*
X-337534Y-258452D01*
X-337559Y-258392D01*
X-337590Y-258357D01*
X-337615Y-258316D01*
X-337666Y-258275D01*
X-337710Y-258226D01*
X-337752Y-258204D01*
X-337789Y-258175D01*
X-337851Y-258154D01*
X-337910Y-258123D01*
X-337964Y-258115D01*
X-338001Y-258103D01*
X-338041Y-258104D01*
X-338095Y-258096D01*
X-341905Y-258096D01*
X-341970Y-258107D01*
X-342036Y-258109D01*
X-342079Y-258127D01*
X-342126Y-258135D01*
X-342183Y-258169D01*
X-342243Y-258194D01*
X-342278Y-258225D01*
X-342319Y-258250D01*
X-342361Y-258301D01*
X-342409Y-258345D01*
X-342431Y-258387D01*
X-342460Y-258424D01*
X-342481Y-258486D01*
X-342512Y-258545D01*
X-342520Y-258599D01*
X-342532Y-258636D01*
X-342532Y-258639D01*
X-342531Y-258676D01*
X-342539Y-258730D01*
X-342539Y-261270D01*
X-342528Y-261335D01*
X-342526Y-261401D01*
X-342508Y-261444D01*
X-342500Y-261491D01*
X-342466Y-261548D01*
X-342441Y-261608D01*
X-342410Y-261643D01*
X-342385Y-261684D01*
X-342334Y-261726D01*
X-342290Y-261774D01*
X-342248Y-261796D01*
X-342211Y-261825D01*
X-342149Y-261846D01*
X-342090Y-261877D01*
X-342036Y-261885D01*
X-341999Y-261897D01*
X-341959Y-261896D01*
X-341905Y-261904D01*
X-338095Y-261904D01*
X-338030Y-261893D01*
G37*
D10*
X-1105000Y-270000D03*
X-1105000Y270000D03*
X-1105000Y270000D03*
X-565000Y-270000D03*
X-565000Y270000D03*
X1105000Y270000D03*
X1105000Y-270000D03*
X1105000Y-270000D03*
X565000Y270000D03*
X565000Y-270000D03*
D11*
X-374000Y-315000D03*
X-306000Y-315000D03*
D12*
X-86500Y230000D03*
X-111900Y230000D03*
X-137300Y230000D03*
X-162700Y230000D03*
X-188100Y230000D03*
X-213500Y230000D03*
D11*
X-116000Y290000D03*
X-184000Y290000D03*
D13*
X-130000Y102700D03*
D14*
X-130000Y77300D03*
D15*
X-392780Y-124750D02*
X-392775Y-124314D01*
X-392759Y-123878D01*
X-392732Y-123442D01*
X-392694Y-123007D01*
X-392646Y-122574D01*
X-392588Y-122141D01*
X-392518Y-121710D01*
X-392438Y-121281D01*
X-392348Y-120854D01*
X-392247Y-120430D01*
X-392136Y-120008D01*
X-392014Y-119589D01*
X-391883Y-119173D01*
X-391741Y-118760D01*
X-391589Y-118351D01*
X-391427Y-117946D01*
X-391255Y-117545D01*
X-391073Y-117148D01*
X-390882Y-116756D01*
X-390681Y-116369D01*
X-390470Y-115986D01*
X-390250Y-115609D01*
X-390021Y-115238D01*
X-389784Y-114872D01*
X-389537Y-114512D01*
X-389281Y-114158D01*
X-389017Y-113811D01*
X-388744Y-113470D01*
X-388463Y-113137D01*
X-388174Y-112810D01*
X-387877Y-112490D01*
X-387572Y-112178D01*
X-387260Y-111873D01*
X-386940Y-111576D01*
X-386613Y-111287D01*
X-386280Y-111006D01*
X-385939Y-110733D01*
X-385592Y-110469D01*
X-385238Y-110213D01*
X-384878Y-109966D01*
X-384512Y-109729D01*
X-384141Y-109500D01*
X-383764Y-109280D01*
X-383381Y-109069D01*
X-382994Y-108868D01*
X-382602Y-108677D01*
X-382205Y-108495D01*
X-381804Y-108323D01*
X-381399Y-108161D01*
X-380990Y-108009D01*
X-380577Y-107867D01*
X-380161Y-107736D01*
X-379742Y-107614D01*
X-379320Y-107503D01*
X-378896Y-107402D01*
X-378469Y-107312D01*
X-378040Y-107232D01*
X-377609Y-107162D01*
X-377176Y-107104D01*
X-376743Y-107056D01*
X-376308Y-107018D01*
X-375872Y-106991D01*
X-375436Y-106975D01*
X-375000Y-106970D01*
X-374564Y-106975D01*
X-374128Y-106991D01*
X-373692Y-107018D01*
X-373257Y-107056D01*
X-372824Y-107104D01*
X-372391Y-107162D01*
X-371960Y-107232D01*
X-371531Y-107312D01*
X-371104Y-107402D01*
X-370680Y-107503D01*
X-370258Y-107614D01*
X-369839Y-107736D01*
X-369423Y-107867D01*
X-369010Y-108009D01*
X-368601Y-108161D01*
X-368196Y-108323D01*
X-367795Y-108495D01*
X-367398Y-108677D01*
X-367006Y-108868D01*
X-366619Y-109069D01*
X-366236Y-109280D01*
X-365859Y-109500D01*
X-365488Y-109729D01*
X-365122Y-109966D01*
X-364762Y-110213D01*
X-364408Y-110469D01*
X-364061Y-110733D01*
X-363720Y-111006D01*
X-363387Y-111287D01*
X-363060Y-111576D01*
X-362740Y-111873D01*
X-362428Y-112178D01*
X-362123Y-112490D01*
X-361826Y-112810D01*
X-361537Y-113137D01*
X-361256Y-113470D01*
X-360983Y-113811D01*
X-360719Y-114158D01*
X-360463Y-114512D01*
X-360216Y-114872D01*
X-359979Y-115238D01*
X-359750Y-115609D01*
X-359530Y-115986D01*
X-359319Y-116369D01*
X-359118Y-116756D01*
X-358927Y-117148D01*
X-358745Y-117545D01*
X-358573Y-117946D01*
X-358411Y-118351D01*
X-358259Y-118760D01*
X-358117Y-119173D01*
X-357986Y-119589D01*
X-357864Y-120008D01*
X-357753Y-120430D01*
X-357652Y-120854D01*
X-357562Y-121281D01*
X-357482Y-121710D01*
X-357412Y-122141D01*
X-357354Y-122574D01*
X-357306Y-123007D01*
X-357268Y-123442D01*
X-357241Y-123878D01*
X-357225Y-124314D01*
X-357220Y-124750D01*
X-357225Y-125186D01*
X-357241Y-125622D01*
X-357268Y-126058D01*
X-357306Y-126493D01*
X-357354Y-126926D01*
X-357412Y-127359D01*
X-357482Y-127790D01*
X-357562Y-128219D01*
X-357652Y-128646D01*
X-357753Y-129070D01*
X-357864Y-129492D01*
X-357986Y-129911D01*
X-358117Y-130327D01*
X-358259Y-130740D01*
X-358411Y-131149D01*
X-358573Y-131554D01*
X-358745Y-131955D01*
X-358927Y-132352D01*
X-359118Y-132744D01*
X-359319Y-133131D01*
X-359530Y-133514D01*
X-359750Y-133891D01*
X-359979Y-134262D01*
X-360216Y-134628D01*
X-360463Y-134988D01*
X-360719Y-135342D01*
X-360983Y-135689D01*
X-361256Y-136030D01*
X-361537Y-136363D01*
X-361826Y-136690D01*
X-362123Y-137010D01*
X-362428Y-137322D01*
X-362740Y-137627D01*
X-363060Y-137924D01*
X-363387Y-138213D01*
X-363720Y-138494D01*
X-364061Y-138767D01*
X-364408Y-139031D01*
X-364762Y-139287D01*
X-365122Y-139534D01*
X-365488Y-139771D01*
X-365859Y-140000D01*
X-366236Y-140220D01*
X-366619Y-140431D01*
X-367006Y-140632D01*
X-367398Y-140823D01*
X-367795Y-141005D01*
X-368196Y-141177D01*
X-368601Y-141339D01*
X-369010Y-141491D01*
X-369423Y-141633D01*
X-369839Y-141764D01*
X-370258Y-141886D01*
X-370680Y-141997D01*
X-371104Y-142098D01*
X-371531Y-142188D01*
X-371960Y-142268D01*
X-372391Y-142338D01*
X-372824Y-142396D01*
X-373257Y-142444D01*
X-373692Y-142482D01*
X-374128Y-142509D01*
X-374564Y-142525D01*
X-375000Y-142530D01*
X-375436Y-142525D01*
X-375872Y-142509D01*
X-376308Y-142482D01*
X-376743Y-142444D01*
X-377176Y-142396D01*
X-377609Y-142338D01*
X-378040Y-142268D01*
X-378469Y-142188D01*
X-378896Y-142098D01*
X-379320Y-141997D01*
X-379742Y-141886D01*
X-380161Y-141764D01*
X-380577Y-141633D01*
X-380990Y-141491D01*
X-381399Y-141339D01*
X-381804Y-141177D01*
X-382205Y-141005D01*
X-382602Y-140823D01*
X-382994Y-140632D01*
X-383381Y-140431D01*
X-383764Y-140220D01*
X-384141Y-140000D01*
X-384512Y-139771D01*
X-384878Y-139534D01*
X-385238Y-139287D01*
X-385592Y-139031D01*
X-385939Y-138767D01*
X-386280Y-138494D01*
X-386613Y-138213D01*
X-386940Y-137924D01*
X-387260Y-137627D01*
X-387572Y-137322D01*
X-387877Y-137010D01*
X-388174Y-136690D01*
X-388463Y-136363D01*
X-388744Y-136030D01*
X-389017Y-135689D01*
X-389281Y-135342D01*
X-389537Y-134988D01*
X-389784Y-134628D01*
X-390021Y-134262D01*
X-390250Y-133891D01*
X-390470Y-133514D01*
X-390681Y-133131D01*
X-390882Y-132744D01*
X-391073Y-132352D01*
X-391255Y-131955D01*
X-391427Y-131554D01*
X-391589Y-131149D01*
X-391741Y-130740D01*
X-391883Y-130327D01*
X-392014Y-129911D01*
X-392136Y-129492D01*
X-392247Y-129070D01*
X-392348Y-128646D01*
X-392438Y-128219D01*
X-392518Y-127790D01*
X-392588Y-127359D01*
X-392646Y-126926D01*
X-392694Y-126493D01*
X-392732Y-126058D01*
X-392759Y-125622D01*
X-392775Y-125186D01*
X-392780Y-124750D01*
D16*
X-375000Y-124750D03*
D17*
X-375000Y-107478D03*
X-362808Y-112558D03*
X-357728Y-124750D03*
X-362808Y-136942D03*
X-375000Y-142022D03*
X-387192Y-136942D03*
X-392272Y-124750D03*
X-387192Y-112558D03*
D15*
X-392780Y185250D02*
X-392775Y185686D01*
X-392759Y186122D01*
X-392732Y186558D01*
X-392694Y186993D01*
X-392646Y187426D01*
X-392588Y187859D01*
X-392518Y188290D01*
X-392438Y188719D01*
X-392348Y189146D01*
X-392247Y189570D01*
X-392136Y189992D01*
X-392014Y190411D01*
X-391883Y190827D01*
X-391741Y191240D01*
X-391589Y191649D01*
X-391427Y192054D01*
X-391255Y192455D01*
X-391073Y192852D01*
X-390882Y193244D01*
X-390681Y193631D01*
X-390470Y194014D01*
X-390250Y194391D01*
X-390021Y194762D01*
X-389784Y195128D01*
X-389537Y195488D01*
X-389281Y195842D01*
X-389017Y196189D01*
X-388744Y196530D01*
X-388463Y196863D01*
X-388174Y197190D01*
X-387877Y197510D01*
X-387572Y197822D01*
X-387260Y198127D01*
X-386940Y198424D01*
X-386613Y198713D01*
X-386280Y198994D01*
X-385939Y199267D01*
X-385592Y199531D01*
X-385238Y199787D01*
X-384878Y200034D01*
X-384512Y200271D01*
X-384141Y200500D01*
X-383764Y200720D01*
X-383381Y200931D01*
X-382994Y201132D01*
X-382602Y201323D01*
X-382205Y201505D01*
X-381804Y201677D01*
X-381399Y201839D01*
X-380990Y201991D01*
X-380577Y202133D01*
X-380161Y202264D01*
X-379742Y202386D01*
X-379320Y202497D01*
X-378896Y202598D01*
X-378469Y202688D01*
X-378040Y202768D01*
X-377609Y202838D01*
X-377176Y202896D01*
X-376743Y202944D01*
X-376308Y202982D01*
X-375872Y203009D01*
X-375436Y203025D01*
X-375000Y203030D01*
X-374564Y203025D01*
X-374128Y203009D01*
X-373692Y202982D01*
X-373257Y202944D01*
X-372824Y202896D01*
X-372391Y202838D01*
X-371960Y202768D01*
X-371531Y202688D01*
X-371104Y202598D01*
X-370680Y202497D01*
X-370258Y202386D01*
X-369839Y202264D01*
X-369423Y202133D01*
X-369010Y201991D01*
X-368601Y201839D01*
X-368196Y201677D01*
X-367795Y201505D01*
X-367398Y201323D01*
X-367006Y201132D01*
X-366619Y200931D01*
X-366236Y200720D01*
X-365859Y200500D01*
X-365488Y200271D01*
X-365122Y200034D01*
X-364762Y199787D01*
X-364408Y199531D01*
X-364061Y199267D01*
X-363720Y198994D01*
X-363387Y198713D01*
X-363060Y198424D01*
X-362740Y198127D01*
X-362428Y197822D01*
X-362123Y197510D01*
X-361826Y197190D01*
X-361537Y196863D01*
X-361256Y196530D01*
X-360983Y196189D01*
X-360719Y195842D01*
X-360463Y195488D01*
X-360216Y195128D01*
X-359979Y194762D01*
X-359750Y194391D01*
X-359530Y194014D01*
X-359319Y193631D01*
X-359118Y193244D01*
X-358927Y192852D01*
X-358745Y192455D01*
X-358573Y192054D01*
X-358411Y191649D01*
X-358259Y191240D01*
X-358117Y190827D01*
X-357986Y190411D01*
X-357864Y189992D01*
X-357753Y189570D01*
X-357652Y189146D01*
X-357562Y188719D01*
X-357482Y188290D01*
X-357412Y187859D01*
X-357354Y187426D01*
X-357306Y186993D01*
X-357268Y186558D01*
X-357241Y186122D01*
X-357225Y185686D01*
X-357220Y185250D01*
X-357225Y184814D01*
X-357241Y184378D01*
X-357268Y183942D01*
X-357306Y183507D01*
X-357354Y183074D01*
X-357412Y182641D01*
X-357482Y182210D01*
X-357562Y181781D01*
X-357652Y181354D01*
X-357753Y180930D01*
X-357864Y180508D01*
X-357986Y180089D01*
X-358117Y179673D01*
X-358259Y179260D01*
X-358411Y178851D01*
X-358573Y178446D01*
X-358745Y178045D01*
X-358927Y177648D01*
X-359118Y177256D01*
X-359319Y176869D01*
X-359530Y176486D01*
X-359750Y176109D01*
X-359979Y175738D01*
X-360216Y175372D01*
X-360463Y175012D01*
X-360719Y174658D01*
X-360983Y174311D01*
X-361256Y173970D01*
X-361537Y173637D01*
X-361826Y173310D01*
X-362123Y172990D01*
X-362428Y172678D01*
X-362740Y172373D01*
X-363060Y172076D01*
X-363387Y171787D01*
X-363720Y171506D01*
X-364061Y171233D01*
X-364408Y170969D01*
X-364762Y170713D01*
X-365122Y170466D01*
X-365488Y170229D01*
X-365859Y170000D01*
X-366236Y169780D01*
X-366619Y169569D01*
X-367006Y169368D01*
X-367398Y169177D01*
X-367795Y168995D01*
X-368196Y168823D01*
X-368601Y168661D01*
X-369010Y168509D01*
X-369423Y168367D01*
X-369839Y168236D01*
X-370258Y168114D01*
X-370680Y168003D01*
X-371104Y167902D01*
X-371531Y167812D01*
X-371960Y167732D01*
X-372391Y167662D01*
X-372824Y167604D01*
X-373257Y167556D01*
X-373692Y167518D01*
X-374128Y167491D01*
X-374564Y167475D01*
X-375000Y167470D01*
X-375436Y167475D01*
X-375872Y167491D01*
X-376308Y167518D01*
X-376743Y167556D01*
X-377176Y167604D01*
X-377609Y167662D01*
X-378040Y167732D01*
X-378469Y167812D01*
X-378896Y167902D01*
X-379320Y168003D01*
X-379742Y168114D01*
X-380161Y168236D01*
X-380577Y168367D01*
X-380990Y168509D01*
X-381399Y168661D01*
X-381804Y168823D01*
X-382205Y168995D01*
X-382602Y169177D01*
X-382994Y169368D01*
X-383381Y169569D01*
X-383764Y169780D01*
X-384141Y170000D01*
X-384512Y170229D01*
X-384878Y170466D01*
X-385238Y170713D01*
X-385592Y170969D01*
X-385939Y171233D01*
X-386280Y171506D01*
X-386613Y171787D01*
X-386940Y172076D01*
X-387260Y172373D01*
X-387572Y172678D01*
X-387877Y172990D01*
X-388174Y173310D01*
X-388463Y173637D01*
X-388744Y173970D01*
X-389017Y174311D01*
X-389281Y174658D01*
X-389537Y175012D01*
X-389784Y175372D01*
X-390021Y175738D01*
X-390250Y176109D01*
X-390470Y176486D01*
X-390681Y176869D01*
X-390882Y177256D01*
X-391073Y177648D01*
X-391255Y178045D01*
X-391427Y178446D01*
X-391589Y178851D01*
X-391741Y179260D01*
X-391883Y179673D01*
X-392014Y180089D01*
X-392136Y180508D01*
X-392247Y180930D01*
X-392348Y181354D01*
X-392438Y181781D01*
X-392518Y182210D01*
X-392588Y182641D01*
X-392646Y183074D01*
X-392694Y183507D01*
X-392732Y183942D01*
X-392759Y184378D01*
X-392775Y184814D01*
X-392780Y185250D01*
D16*
X-375000Y185250D03*
D17*
X-375000Y202522D03*
X-362808Y197442D03*
X-357728Y185250D03*
X-362808Y173058D03*
X-375000Y167978D03*
X-387192Y173058D03*
X-392272Y185250D03*
X-387192Y197442D03*
D15*
X357220Y185250D02*
X357225Y185686D01*
X357241Y186122D01*
X357268Y186558D01*
X357306Y186993D01*
X357354Y187426D01*
X357412Y187859D01*
X357482Y188290D01*
X357562Y188719D01*
X357652Y189146D01*
X357753Y189570D01*
X357864Y189992D01*
X357986Y190411D01*
X358117Y190827D01*
X358259Y191240D01*
X358411Y191649D01*
X358573Y192054D01*
X358745Y192455D01*
X358927Y192852D01*
X359118Y193244D01*
X359319Y193631D01*
X359530Y194014D01*
X359750Y194391D01*
X359979Y194762D01*
X360216Y195128D01*
X360463Y195488D01*
X360719Y195842D01*
X360983Y196189D01*
X361256Y196530D01*
X361537Y196863D01*
X361826Y197190D01*
X362123Y197510D01*
X362428Y197822D01*
X362740Y198127D01*
X363060Y198424D01*
X363387Y198713D01*
X363720Y198994D01*
X364061Y199267D01*
X364408Y199531D01*
X364762Y199787D01*
X365122Y200034D01*
X365488Y200271D01*
X365859Y200500D01*
X366236Y200720D01*
X366619Y200931D01*
X367006Y201132D01*
X367398Y201323D01*
X367795Y201505D01*
X368196Y201677D01*
X368601Y201839D01*
X369010Y201991D01*
X369423Y202133D01*
X369839Y202264D01*
X370258Y202386D01*
X370680Y202497D01*
X371104Y202598D01*
X371531Y202688D01*
X371960Y202768D01*
X372391Y202838D01*
X372824Y202896D01*
X373257Y202944D01*
X373692Y202982D01*
X374128Y203009D01*
X374564Y203025D01*
X375000Y203030D01*
X375436Y203025D01*
X375872Y203009D01*
X376308Y202982D01*
X376743Y202944D01*
X377176Y202896D01*
X377609Y202838D01*
X378040Y202768D01*
X378469Y202688D01*
X378896Y202598D01*
X379320Y202497D01*
X379742Y202386D01*
X380161Y202264D01*
X380577Y202133D01*
X380990Y201991D01*
X381399Y201839D01*
X381804Y201677D01*
X382205Y201505D01*
X382602Y201323D01*
X382994Y201132D01*
X383381Y200931D01*
X383764Y200720D01*
X384141Y200500D01*
X384512Y200271D01*
X384878Y200034D01*
X385238Y199787D01*
X385592Y199531D01*
X385939Y199267D01*
X386280Y198994D01*
X386613Y198713D01*
X386940Y198424D01*
X387260Y198127D01*
X387572Y197822D01*
X387877Y197510D01*
X388174Y197190D01*
X388463Y196863D01*
X388744Y196530D01*
X389017Y196189D01*
X389281Y195842D01*
X389537Y195488D01*
X389784Y195128D01*
X390021Y194762D01*
X390250Y194391D01*
X390470Y194014D01*
X390681Y193631D01*
X390882Y193244D01*
X391073Y192852D01*
X391255Y192455D01*
X391427Y192054D01*
X391589Y191649D01*
X391741Y191240D01*
X391883Y190827D01*
X392014Y190411D01*
X392136Y189992D01*
X392247Y189570D01*
X392348Y189146D01*
X392438Y188719D01*
X392518Y188290D01*
X392588Y187859D01*
X392646Y187426D01*
X392694Y186993D01*
X392732Y186558D01*
X392759Y186122D01*
X392775Y185686D01*
X392780Y185250D01*
X392775Y184814D01*
X392759Y184378D01*
X392732Y183942D01*
X392694Y183507D01*
X392646Y183074D01*
X392588Y182641D01*
X392518Y182210D01*
X392438Y181781D01*
X392348Y181354D01*
X392247Y180930D01*
X392136Y180508D01*
X392014Y180089D01*
X391883Y179673D01*
X391741Y179260D01*
X391589Y178851D01*
X391427Y178446D01*
X391255Y178045D01*
X391073Y177648D01*
X390882Y177256D01*
X390681Y176869D01*
X390470Y176486D01*
X390250Y176109D01*
X390021Y175738D01*
X389784Y175372D01*
X389537Y175012D01*
X389281Y174658D01*
X389017Y174311D01*
X388744Y173970D01*
X388463Y173637D01*
X388174Y173310D01*
X387877Y172990D01*
X387572Y172678D01*
X387260Y172373D01*
X386940Y172076D01*
X386613Y171787D01*
X386280Y171506D01*
X385939Y171233D01*
X385592Y170969D01*
X385238Y170713D01*
X384878Y170466D01*
X384512Y170229D01*
X384141Y170000D01*
X383764Y169780D01*
X383381Y169569D01*
X382994Y169368D01*
X382602Y169177D01*
X382205Y168995D01*
X381804Y168823D01*
X381399Y168661D01*
X380990Y168509D01*
X380577Y168367D01*
X380161Y168236D01*
X379742Y168114D01*
X379320Y168003D01*
X378896Y167902D01*
X378469Y167812D01*
X378040Y167732D01*
X377609Y167662D01*
X377176Y167604D01*
X376743Y167556D01*
X376308Y167518D01*
X375872Y167491D01*
X375436Y167475D01*
X375000Y167470D01*
X374564Y167475D01*
X374128Y167491D01*
X373692Y167518D01*
X373257Y167556D01*
X372824Y167604D01*
X372391Y167662D01*
X371960Y167732D01*
X371531Y167812D01*
X371104Y167902D01*
X370680Y168003D01*
X370258Y168114D01*
X369839Y168236D01*
X369423Y168367D01*
X369010Y168509D01*
X368601Y168661D01*
X368196Y168823D01*
X367795Y168995D01*
X367398Y169177D01*
X367006Y169368D01*
X366619Y169569D01*
X366236Y169780D01*
X365859Y170000D01*
X365488Y170229D01*
X365122Y170466D01*
X364762Y170713D01*
X364408Y170969D01*
X364061Y171233D01*
X363720Y171506D01*
X363387Y171787D01*
X363060Y172076D01*
X362740Y172373D01*
X362428Y172678D01*
X362123Y172990D01*
X361826Y173310D01*
X361537Y173637D01*
X361256Y173970D01*
X360983Y174311D01*
X360719Y174658D01*
X360463Y175012D01*
X360216Y175372D01*
X359979Y175738D01*
X359750Y176109D01*
X359530Y176486D01*
X359319Y176869D01*
X359118Y177256D01*
X358927Y177648D01*
X358745Y178045D01*
X358573Y178446D01*
X358411Y178851D01*
X358259Y179260D01*
X358117Y179673D01*
X357986Y180089D01*
X357864Y180508D01*
X357753Y180930D01*
X357652Y181354D01*
X357562Y181781D01*
X357482Y182210D01*
X357412Y182641D01*
X357354Y183074D01*
X357306Y183507D01*
X357268Y183942D01*
X357241Y184378D01*
X357225Y184814D01*
X357220Y185250D01*
D16*
X375000Y185250D03*
D17*
X375000Y202522D03*
X387192Y197442D03*
X392272Y185250D03*
X387192Y173058D03*
X375000Y167978D03*
X362808Y173058D03*
X357728Y185250D03*
X362808Y197442D03*
D15*
X357220Y-124750D02*
X357225Y-124314D01*
X357241Y-123878D01*
X357268Y-123442D01*
X357306Y-123007D01*
X357354Y-122574D01*
X357412Y-122141D01*
X357482Y-121710D01*
X357562Y-121281D01*
X357652Y-120854D01*
X357753Y-120430D01*
X357864Y-120008D01*
X357986Y-119589D01*
X358117Y-119173D01*
X358259Y-118760D01*
X358411Y-118351D01*
X358573Y-117946D01*
X358745Y-117545D01*
X358927Y-117148D01*
X359118Y-116756D01*
X359319Y-116369D01*
X359530Y-115986D01*
X359750Y-115609D01*
X359979Y-115238D01*
X360216Y-114872D01*
X360463Y-114512D01*
X360719Y-114158D01*
X360983Y-113811D01*
X361256Y-113470D01*
X361537Y-113137D01*
X361826Y-112810D01*
X362123Y-112490D01*
X362428Y-112178D01*
X362740Y-111873D01*
X363060Y-111576D01*
X363387Y-111287D01*
X363720Y-111006D01*
X364061Y-110733D01*
X364408Y-110469D01*
X364762Y-110213D01*
X365122Y-109966D01*
X365488Y-109729D01*
X365859Y-109500D01*
X366236Y-109280D01*
X366619Y-109069D01*
X367006Y-108868D01*
X367398Y-108677D01*
X367795Y-108495D01*
X368196Y-108323D01*
X368601Y-108161D01*
X369010Y-108009D01*
X369423Y-107867D01*
X369839Y-107736D01*
X370258Y-107614D01*
X370680Y-107503D01*
X371104Y-107402D01*
X371531Y-107312D01*
X371960Y-107232D01*
X372391Y-107162D01*
X372824Y-107104D01*
X373257Y-107056D01*
X373692Y-107018D01*
X374128Y-106991D01*
X374564Y-106975D01*
X375000Y-106970D01*
X375436Y-106975D01*
X375872Y-106991D01*
X376308Y-107018D01*
X376743Y-107056D01*
X377176Y-107104D01*
X377609Y-107162D01*
X378040Y-107232D01*
X378469Y-107312D01*
X378896Y-107402D01*
X379320Y-107503D01*
X379742Y-107614D01*
X380161Y-107736D01*
X380577Y-107867D01*
X380990Y-108009D01*
X381399Y-108161D01*
X381804Y-108323D01*
X382205Y-108495D01*
X382602Y-108677D01*
X382994Y-108868D01*
X383381Y-109069D01*
X383764Y-109280D01*
X384141Y-109500D01*
X384512Y-109729D01*
X384878Y-109966D01*
X385238Y-110213D01*
X385592Y-110469D01*
X385939Y-110733D01*
X386280Y-111006D01*
X386613Y-111287D01*
X386940Y-111576D01*
X387260Y-111873D01*
X387572Y-112178D01*
X387877Y-112490D01*
X388174Y-112810D01*
X388463Y-113137D01*
X388744Y-113470D01*
X389017Y-113811D01*
X389281Y-114158D01*
X389537Y-114512D01*
X389784Y-114872D01*
X390021Y-115238D01*
X390250Y-115609D01*
X390470Y-115986D01*
X390681Y-116369D01*
X390882Y-116756D01*
X391073Y-117148D01*
X391255Y-117545D01*
X391427Y-117946D01*
X391589Y-118351D01*
X391741Y-118760D01*
X391883Y-119173D01*
X392014Y-119589D01*
X392136Y-120008D01*
X392247Y-120430D01*
X392348Y-120854D01*
X392438Y-121281D01*
X392518Y-121710D01*
X392588Y-122141D01*
X392646Y-122574D01*
X392694Y-123007D01*
X392732Y-123442D01*
X392759Y-123878D01*
X392775Y-124314D01*
X392780Y-124750D01*
X392775Y-125186D01*
X392759Y-125622D01*
X392732Y-126058D01*
X392694Y-126493D01*
X392646Y-126926D01*
X392588Y-127359D01*
X392518Y-127790D01*
X392438Y-128219D01*
X392348Y-128646D01*
X392247Y-129070D01*
X392136Y-129492D01*
X392014Y-129911D01*
X391883Y-130327D01*
X391741Y-130740D01*
X391589Y-131149D01*
X391427Y-131554D01*
X391255Y-131955D01*
X391073Y-132352D01*
X390882Y-132744D01*
X390681Y-133131D01*
X390470Y-133514D01*
X390250Y-133891D01*
X390021Y-134262D01*
X389784Y-134628D01*
X389537Y-134988D01*
X389281Y-135342D01*
X389017Y-135689D01*
X388744Y-136030D01*
X388463Y-136363D01*
X388174Y-136690D01*
X387877Y-137010D01*
X387572Y-137322D01*
X387260Y-137627D01*
X386940Y-137924D01*
X386613Y-138213D01*
X386280Y-138494D01*
X385939Y-138767D01*
X385592Y-139031D01*
X385238Y-139287D01*
X384878Y-139534D01*
X384512Y-139771D01*
X384141Y-140000D01*
X383764Y-140220D01*
X383381Y-140431D01*
X382994Y-140632D01*
X382602Y-140823D01*
X382205Y-141005D01*
X381804Y-141177D01*
X381399Y-141339D01*
X380990Y-141491D01*
X380577Y-141633D01*
X380161Y-141764D01*
X379742Y-141886D01*
X379320Y-141997D01*
X378896Y-142098D01*
X378469Y-142188D01*
X378040Y-142268D01*
X377609Y-142338D01*
X377176Y-142396D01*
X376743Y-142444D01*
X376308Y-142482D01*
X375872Y-142509D01*
X375436Y-142525D01*
X375000Y-142530D01*
X374564Y-142525D01*
X374128Y-142509D01*
X373692Y-142482D01*
X373257Y-142444D01*
X372824Y-142396D01*
X372391Y-142338D01*
X371960Y-142268D01*
X371531Y-142188D01*
X371104Y-142098D01*
X370680Y-141997D01*
X370258Y-141886D01*
X369839Y-141764D01*
X369423Y-141633D01*
X369010Y-141491D01*
X368601Y-141339D01*
X368196Y-141177D01*
X367795Y-141005D01*
X367398Y-140823D01*
X367006Y-140632D01*
X366619Y-140431D01*
X366236Y-140220D01*
X365859Y-140000D01*
X365488Y-139771D01*
X365122Y-139534D01*
X364762Y-139287D01*
X364408Y-139031D01*
X364061Y-138767D01*
X363720Y-138494D01*
X363387Y-138213D01*
X363060Y-137924D01*
X362740Y-137627D01*
X362428Y-137322D01*
X362123Y-137010D01*
X361826Y-136690D01*
X361537Y-136363D01*
X361256Y-136030D01*
X360983Y-135689D01*
X360719Y-135342D01*
X360463Y-134988D01*
X360216Y-134628D01*
X359979Y-134262D01*
X359750Y-133891D01*
X359530Y-133514D01*
X359319Y-133131D01*
X359118Y-132744D01*
X358927Y-132352D01*
X358745Y-131955D01*
X358573Y-131554D01*
X358411Y-131149D01*
X358259Y-130740D01*
X358117Y-130327D01*
X357986Y-129911D01*
X357864Y-129492D01*
X357753Y-129070D01*
X357652Y-128646D01*
X357562Y-128219D01*
X357482Y-127790D01*
X357412Y-127359D01*
X357354Y-126926D01*
X357306Y-126493D01*
X357268Y-126058D01*
X357241Y-125622D01*
X357225Y-125186D01*
X357220Y-124750D01*
D16*
X375000Y-124750D03*
D17*
X375000Y-107478D03*
X387192Y-112558D03*
X392272Y-124750D03*
X387192Y-136942D03*
X375000Y-142022D03*
X362808Y-136942D03*
X357728Y-124750D03*
X362808Y-112558D03*
D18*
X-400000Y139500D03*
D19*
X-400000Y-40500D03*
X-400000Y-60500D03*
X-400000Y-80500D03*
X-400000Y99500D03*
X-400000Y79500D03*
X-400000Y39500D03*
X-400000Y19500D03*
X-400000Y-500D03*
X-400000Y-20500D03*
X-400000Y59500D03*
X-400000Y119500D03*
D18*
X400000Y-80000D03*
D19*
X400000Y100000D03*
X400000Y120000D03*
X400000Y140000D03*
X400000Y-40000D03*
X400000Y-20000D03*
X400000Y20000D03*
X400000Y40000D03*
X400000Y60000D03*
X400000Y80000D03*
X400000Y0D03*
X400000Y-60000D03*
D12*
X-90000Y50000D03*
X-90000Y-800D03*
X-90000Y-26200D03*
X-90000Y-77000D03*
X-90000Y24600D03*
X-90000Y-51600D03*
X90000Y-77000D03*
X90000Y-26200D03*
X90000Y-800D03*
X90000Y50000D03*
X90000Y-51600D03*
X90000Y24600D03*
D20*
X10000Y-75080D03*
X10000Y-64920D03*
X-10000Y-24920D03*
X-10000Y-35080D03*
X10000Y-45080D03*
X10000Y-34920D03*
X-10000Y-54920D03*
X-10000Y-65080D03*
D21*
X-100000Y-130000D03*
X-330000Y160000D03*
X-140000Y-130000D03*
X-60000Y-130000D03*
D22*
X-190160Y200000D03*
X-180000Y200000D03*
X-169840Y200000D03*
D10*
X-57000Y-240000D03*
X57000Y-240000D03*
D23*
X-25000Y-315000D03*
X25000Y-315000D03*
D24*
X-25000Y-170000D03*
D23*
X25000Y-170000D03*
X0Y-315000D03*
D22*
X-345080Y-260000D03*
X-334920Y-260000D03*
D10*
X-375000Y-125000D03*
X-375000Y185000D03*
X375000Y-125000D03*
X375000Y185000D03*
D25*
X-72400Y190000D03*
X3800Y190000D03*
X29200Y190000D03*
X80000Y190000D03*
X54600Y190000D03*
X-47000Y190000D03*
X-148600Y190000D03*
X-97800Y190000D03*
X-123200Y190000D03*
X-21600Y190000D03*
D26*
X-113685Y-563407D02*
X-118201Y-563407D01*
X-113685Y-563406D02*
X-113552Y-563408D01*
X-113420Y-563414D01*
X-113288Y-563424D01*
X-113156Y-563437D01*
X-113024Y-563455D01*
X-112894Y-563476D01*
X-112763Y-563501D01*
X-112634Y-563530D01*
X-112506Y-563563D01*
X-112378Y-563599D01*
X-112252Y-563639D01*
X-112127Y-563683D01*
X-112003Y-563731D01*
X-111881Y-563782D01*
X-111760Y-563837D01*
X-111641Y-563895D01*
X-111523Y-563957D01*
X-111408Y-564022D01*
X-111294Y-564091D01*
X-111183Y-564162D01*
X-111074Y-564238D01*
X-110967Y-564316D01*
X-110862Y-564397D01*
X-110760Y-564482D01*
X-110660Y-564569D01*
X-110563Y-564659D01*
X-110468Y-564752D01*
X-110377Y-564848D01*
X-110288Y-564946D01*
X-110202Y-565047D01*
X-110119Y-565151D01*
X-110039Y-565257D01*
X-109963Y-565365D01*
X-109889Y-565475D01*
X-109819Y-565588D01*
X-109752Y-565702D01*
X-109689Y-565819D01*
X-109629Y-565937D01*
X-109572Y-566057D01*
X-109519Y-566179D01*
X-109470Y-566302D01*
X-109424Y-566426D01*
X-109382Y-566552D01*
X-109344Y-566679D01*
X-109309Y-566807D01*
X-109278Y-566936D01*
X-109251Y-567065D01*
X-109228Y-567196D01*
X-109208Y-567327D01*
X-109193Y-567459D01*
X-109181Y-567591D01*
X-109173Y-567723D01*
X-109169Y-567856D01*
X-109169Y-567988D01*
X-109173Y-568121D01*
X-109181Y-568253D01*
X-109193Y-568385D01*
X-109208Y-568517D01*
X-109228Y-568648D01*
X-109251Y-568779D01*
X-109278Y-568908D01*
X-109309Y-569037D01*
X-109344Y-569165D01*
X-109382Y-569292D01*
X-109424Y-569418D01*
X-109470Y-569542D01*
X-109519Y-569665D01*
X-109572Y-569787D01*
X-109629Y-569907D01*
X-109689Y-570025D01*
X-109752Y-570142D01*
X-109819Y-570256D01*
X-109889Y-570369D01*
X-109963Y-570479D01*
X-110039Y-570587D01*
X-110119Y-570693D01*
X-110202Y-570797D01*
X-110288Y-570898D01*
X-110377Y-570996D01*
X-110468Y-571092D01*
X-110563Y-571185D01*
X-110660Y-571275D01*
X-110760Y-571362D01*
X-110862Y-571447D01*
X-110967Y-571528D01*
X-111074Y-571606D01*
X-111183Y-571682D01*
X-111294Y-571753D01*
X-111408Y-571822D01*
X-111523Y-571887D01*
X-111641Y-571949D01*
X-111760Y-572007D01*
X-111881Y-572062D01*
X-112003Y-572113D01*
X-112127Y-572161D01*
X-112252Y-572205D01*
X-112378Y-572245D01*
X-112506Y-572281D01*
X-112634Y-572314D01*
X-112763Y-572343D01*
X-112894Y-572368D01*
X-113024Y-572389D01*
X-113156Y-572407D01*
X-113288Y-572420D01*
X-113420Y-572430D01*
X-113552Y-572436D01*
X-113685Y-572438D01*
X-118201Y-572438D01*
X-118201Y-556182D01*
X-113685Y-556182D01*
X-113566Y-556184D01*
X-113446Y-556190D01*
X-113327Y-556200D01*
X-113209Y-556214D01*
X-113090Y-556231D01*
X-112973Y-556253D01*
X-112856Y-556278D01*
X-112741Y-556308D01*
X-112626Y-556341D01*
X-112512Y-556378D01*
X-112400Y-556418D01*
X-112289Y-556463D01*
X-112180Y-556511D01*
X-112072Y-556562D01*
X-111966Y-556617D01*
X-111862Y-556676D01*
X-111760Y-556738D01*
X-111660Y-556803D01*
X-111562Y-556872D01*
X-111466Y-556944D01*
X-111373Y-557019D01*
X-111283Y-557096D01*
X-111195Y-557177D01*
X-111110Y-557261D01*
X-111028Y-557348D01*
X-110948Y-557437D01*
X-110872Y-557529D01*
X-110798Y-557623D01*
X-110728Y-557720D01*
X-110661Y-557818D01*
X-110597Y-557919D01*
X-110537Y-558023D01*
X-110480Y-558128D01*
X-110427Y-558235D01*
X-110377Y-558343D01*
X-110331Y-558453D01*
X-110289Y-558565D01*
X-110250Y-558678D01*
X-110215Y-558792D01*
X-110184Y-558907D01*
X-110156Y-559024D01*
X-110133Y-559141D01*
X-110113Y-559258D01*
X-110097Y-559377D01*
X-110085Y-559496D01*
X-110077Y-559615D01*
X-110073Y-559734D01*
X-110073Y-559854D01*
X-110077Y-559973D01*
X-110085Y-560092D01*
X-110097Y-560211D01*
X-110113Y-560330D01*
X-110133Y-560447D01*
X-110156Y-560564D01*
X-110184Y-560681D01*
X-110215Y-560796D01*
X-110250Y-560910D01*
X-110289Y-561023D01*
X-110331Y-561135D01*
X-110377Y-561245D01*
X-110427Y-561353D01*
X-110480Y-561460D01*
X-110537Y-561565D01*
X-110597Y-561669D01*
X-110661Y-561770D01*
X-110728Y-561868D01*
X-110798Y-561965D01*
X-110872Y-562059D01*
X-110948Y-562151D01*
X-111028Y-562240D01*
X-111110Y-562327D01*
X-111195Y-562411D01*
X-111283Y-562492D01*
X-111373Y-562569D01*
X-111466Y-562644D01*
X-111562Y-562716D01*
X-111660Y-562785D01*
X-111760Y-562850D01*
X-111862Y-562912D01*
X-111966Y-562971D01*
X-112072Y-563026D01*
X-112180Y-563077D01*
X-112289Y-563125D01*
X-112400Y-563170D01*
X-112512Y-563210D01*
X-112626Y-563247D01*
X-112741Y-563280D01*
X-112856Y-563310D01*
X-112973Y-563335D01*
X-113090Y-563357D01*
X-113209Y-563374D01*
X-113327Y-563388D01*
X-113446Y-563398D01*
X-113566Y-563404D01*
X-113685Y-563406D01*
X-103441Y-565213D02*
X-103441Y-568826D01*
X-103440Y-565213D02*
X-103438Y-565094D01*
X-103432Y-564974D01*
X-103422Y-564855D01*
X-103408Y-564737D01*
X-103391Y-564618D01*
X-103369Y-564501D01*
X-103344Y-564384D01*
X-103314Y-564269D01*
X-103281Y-564154D01*
X-103244Y-564040D01*
X-103204Y-563928D01*
X-103159Y-563817D01*
X-103111Y-563708D01*
X-103060Y-563600D01*
X-103005Y-563494D01*
X-102946Y-563390D01*
X-102884Y-563288D01*
X-102819Y-563188D01*
X-102750Y-563090D01*
X-102678Y-562994D01*
X-102603Y-562901D01*
X-102526Y-562811D01*
X-102445Y-562723D01*
X-102361Y-562638D01*
X-102274Y-562556D01*
X-102185Y-562476D01*
X-102093Y-562400D01*
X-101999Y-562326D01*
X-101902Y-562256D01*
X-101804Y-562189D01*
X-101703Y-562125D01*
X-101599Y-562065D01*
X-101494Y-562008D01*
X-101387Y-561955D01*
X-101279Y-561905D01*
X-101169Y-561859D01*
X-101057Y-561817D01*
X-100944Y-561778D01*
X-100830Y-561743D01*
X-100715Y-561712D01*
X-100598Y-561684D01*
X-100481Y-561661D01*
X-100364Y-561641D01*
X-100245Y-561625D01*
X-100126Y-561613D01*
X-100007Y-561605D01*
X-99888Y-561601D01*
X-99768Y-561601D01*
X-99649Y-561605D01*
X-99530Y-561613D01*
X-99411Y-561625D01*
X-99292Y-561641D01*
X-99175Y-561661D01*
X-99058Y-561684D01*
X-98941Y-561712D01*
X-98826Y-561743D01*
X-98712Y-561778D01*
X-98599Y-561817D01*
X-98487Y-561859D01*
X-98377Y-561905D01*
X-98269Y-561955D01*
X-98162Y-562008D01*
X-98057Y-562065D01*
X-97953Y-562125D01*
X-97852Y-562189D01*
X-97754Y-562256D01*
X-97657Y-562326D01*
X-97563Y-562400D01*
X-97471Y-562476D01*
X-97382Y-562556D01*
X-97295Y-562638D01*
X-97211Y-562723D01*
X-97130Y-562811D01*
X-97053Y-562901D01*
X-96978Y-562994D01*
X-96906Y-563090D01*
X-96837Y-563188D01*
X-96772Y-563288D01*
X-96710Y-563390D01*
X-96651Y-563494D01*
X-96596Y-563600D01*
X-96545Y-563708D01*
X-96497Y-563817D01*
X-96452Y-563928D01*
X-96412Y-564040D01*
X-96375Y-564154D01*
X-96342Y-564269D01*
X-96312Y-564384D01*
X-96287Y-564501D01*
X-96265Y-564618D01*
X-96248Y-564737D01*
X-96234Y-564855D01*
X-96224Y-564974D01*
X-96218Y-565094D01*
X-96216Y-565213D01*
X-96216Y-568826D01*
X-96218Y-568945D01*
X-96224Y-569065D01*
X-96234Y-569184D01*
X-96248Y-569302D01*
X-96265Y-569421D01*
X-96287Y-569538D01*
X-96312Y-569655D01*
X-96342Y-569770D01*
X-96375Y-569885D01*
X-96412Y-569999D01*
X-96452Y-570111D01*
X-96497Y-570222D01*
X-96545Y-570331D01*
X-96596Y-570439D01*
X-96651Y-570545D01*
X-96710Y-570649D01*
X-96772Y-570751D01*
X-96837Y-570851D01*
X-96906Y-570949D01*
X-96978Y-571045D01*
X-97053Y-571138D01*
X-97130Y-571228D01*
X-97211Y-571316D01*
X-97295Y-571401D01*
X-97382Y-571483D01*
X-97471Y-571563D01*
X-97563Y-571639D01*
X-97657Y-571713D01*
X-97754Y-571783D01*
X-97852Y-571850D01*
X-97953Y-571914D01*
X-98057Y-571974D01*
X-98162Y-572031D01*
X-98269Y-572084D01*
X-98377Y-572134D01*
X-98487Y-572180D01*
X-98599Y-572222D01*
X-98712Y-572261D01*
X-98826Y-572296D01*
X-98941Y-572327D01*
X-99058Y-572355D01*
X-99175Y-572378D01*
X-99292Y-572398D01*
X-99411Y-572414D01*
X-99530Y-572426D01*
X-99649Y-572434D01*
X-99768Y-572438D01*
X-99888Y-572438D01*
X-100007Y-572434D01*
X-100126Y-572426D01*
X-100245Y-572414D01*
X-100364Y-572398D01*
X-100481Y-572378D01*
X-100598Y-572355D01*
X-100715Y-572327D01*
X-100830Y-572296D01*
X-100944Y-572261D01*
X-101057Y-572222D01*
X-101169Y-572180D01*
X-101279Y-572134D01*
X-101387Y-572084D01*
X-101494Y-572031D01*
X-101599Y-571974D01*
X-101703Y-571914D01*
X-101804Y-571850D01*
X-101902Y-571783D01*
X-101999Y-571713D01*
X-102093Y-571639D01*
X-102185Y-571563D01*
X-102274Y-571483D01*
X-102361Y-571401D01*
X-102445Y-571316D01*
X-102526Y-571228D01*
X-102603Y-571138D01*
X-102678Y-571045D01*
X-102750Y-570949D01*
X-102819Y-570851D01*
X-102884Y-570751D01*
X-102946Y-570649D01*
X-103005Y-570545D01*
X-103060Y-570439D01*
X-103111Y-570331D01*
X-103159Y-570222D01*
X-103204Y-570111D01*
X-103244Y-569999D01*
X-103281Y-569885D01*
X-103314Y-569770D01*
X-103344Y-569655D01*
X-103369Y-569538D01*
X-103391Y-569421D01*
X-103408Y-569302D01*
X-103422Y-569184D01*
X-103432Y-569065D01*
X-103438Y-568945D01*
X-103440Y-568826D01*
X-91191Y-561601D02*
X-85772Y-561601D01*
X-89385Y-556182D02*
X-89385Y-569729D01*
X-89384Y-569729D02*
X-89382Y-569830D01*
X-89376Y-569931D01*
X-89367Y-570032D01*
X-89354Y-570133D01*
X-89337Y-570233D01*
X-89316Y-570332D01*
X-89292Y-570430D01*
X-89264Y-570527D01*
X-89232Y-570624D01*
X-89197Y-570719D01*
X-89158Y-570812D01*
X-89116Y-570904D01*
X-89070Y-570995D01*
X-89021Y-571084D01*
X-88969Y-571170D01*
X-88913Y-571255D01*
X-88855Y-571338D01*
X-88793Y-571418D01*
X-88728Y-571496D01*
X-88661Y-571572D01*
X-88591Y-571645D01*
X-88518Y-571715D01*
X-88442Y-571782D01*
X-88364Y-571847D01*
X-88284Y-571909D01*
X-88201Y-571967D01*
X-88116Y-572023D01*
X-88030Y-572075D01*
X-87941Y-572124D01*
X-87850Y-572170D01*
X-87758Y-572212D01*
X-87665Y-572251D01*
X-87570Y-572286D01*
X-87473Y-572318D01*
X-87376Y-572346D01*
X-87278Y-572370D01*
X-87179Y-572391D01*
X-87079Y-572408D01*
X-86978Y-572421D01*
X-86877Y-572430D01*
X-86776Y-572436D01*
X-86675Y-572438D01*
X-85772Y-572438D01*
X-81291Y-561601D02*
X-75872Y-561601D01*
X-79485Y-556182D02*
X-79485Y-569729D01*
X-79483Y-569830D01*
X-79477Y-569931D01*
X-79468Y-570032D01*
X-79455Y-570133D01*
X-79438Y-570233D01*
X-79417Y-570332D01*
X-79393Y-570430D01*
X-79365Y-570527D01*
X-79333Y-570624D01*
X-79298Y-570719D01*
X-79259Y-570812D01*
X-79217Y-570904D01*
X-79171Y-570995D01*
X-79122Y-571084D01*
X-79070Y-571170D01*
X-79014Y-571255D01*
X-78956Y-571338D01*
X-78894Y-571418D01*
X-78829Y-571496D01*
X-78762Y-571572D01*
X-78692Y-571645D01*
X-78619Y-571715D01*
X-78543Y-571782D01*
X-78465Y-571847D01*
X-78385Y-571909D01*
X-78302Y-571967D01*
X-78217Y-572023D01*
X-78131Y-572075D01*
X-78042Y-572124D01*
X-77951Y-572170D01*
X-77859Y-572212D01*
X-77766Y-572251D01*
X-77671Y-572286D01*
X-77574Y-572318D01*
X-77477Y-572346D01*
X-77379Y-572370D01*
X-77280Y-572391D01*
X-77180Y-572408D01*
X-77079Y-572421D01*
X-76978Y-572430D01*
X-76877Y-572436D01*
X-76776Y-572438D01*
X-75872Y-572438D01*
X-70094Y-568826D02*
X-70094Y-565213D01*
X-70092Y-565094D01*
X-70086Y-564974D01*
X-70076Y-564855D01*
X-70062Y-564737D01*
X-70045Y-564618D01*
X-70023Y-564501D01*
X-69998Y-564384D01*
X-69968Y-564269D01*
X-69935Y-564154D01*
X-69898Y-564040D01*
X-69858Y-563928D01*
X-69813Y-563817D01*
X-69765Y-563708D01*
X-69714Y-563600D01*
X-69659Y-563494D01*
X-69600Y-563390D01*
X-69538Y-563288D01*
X-69473Y-563188D01*
X-69404Y-563090D01*
X-69332Y-562994D01*
X-69257Y-562901D01*
X-69180Y-562811D01*
X-69099Y-562723D01*
X-69015Y-562638D01*
X-68928Y-562556D01*
X-68839Y-562476D01*
X-68747Y-562400D01*
X-68653Y-562326D01*
X-68556Y-562256D01*
X-68458Y-562189D01*
X-68357Y-562125D01*
X-68253Y-562065D01*
X-68148Y-562008D01*
X-68041Y-561955D01*
X-67933Y-561905D01*
X-67823Y-561859D01*
X-67711Y-561817D01*
X-67598Y-561778D01*
X-67484Y-561743D01*
X-67369Y-561712D01*
X-67252Y-561684D01*
X-67135Y-561661D01*
X-67018Y-561641D01*
X-66899Y-561625D01*
X-66780Y-561613D01*
X-66661Y-561605D01*
X-66542Y-561601D01*
X-66422Y-561601D01*
X-66303Y-561605D01*
X-66184Y-561613D01*
X-66065Y-561625D01*
X-65946Y-561641D01*
X-65829Y-561661D01*
X-65712Y-561684D01*
X-65595Y-561712D01*
X-65480Y-561743D01*
X-65366Y-561778D01*
X-65253Y-561817D01*
X-65141Y-561859D01*
X-65031Y-561905D01*
X-64923Y-561955D01*
X-64816Y-562008D01*
X-64711Y-562065D01*
X-64607Y-562125D01*
X-64506Y-562189D01*
X-64408Y-562256D01*
X-64311Y-562326D01*
X-64217Y-562400D01*
X-64125Y-562476D01*
X-64036Y-562556D01*
X-63949Y-562638D01*
X-63865Y-562723D01*
X-63784Y-562811D01*
X-63707Y-562901D01*
X-63632Y-562994D01*
X-63560Y-563090D01*
X-63491Y-563188D01*
X-63426Y-563288D01*
X-63364Y-563390D01*
X-63305Y-563494D01*
X-63250Y-563600D01*
X-63199Y-563708D01*
X-63151Y-563817D01*
X-63106Y-563928D01*
X-63066Y-564040D01*
X-63029Y-564154D01*
X-62996Y-564269D01*
X-62966Y-564384D01*
X-62941Y-564501D01*
X-62919Y-564618D01*
X-62902Y-564737D01*
X-62888Y-564855D01*
X-62878Y-564974D01*
X-62872Y-565094D01*
X-62870Y-565213D01*
X-62869Y-565213D02*
X-62869Y-568826D01*
X-62870Y-568826D02*
X-62872Y-568945D01*
X-62878Y-569065D01*
X-62888Y-569184D01*
X-62902Y-569302D01*
X-62919Y-569421D01*
X-62941Y-569538D01*
X-62966Y-569655D01*
X-62996Y-569770D01*
X-63029Y-569885D01*
X-63066Y-569999D01*
X-63106Y-570111D01*
X-63151Y-570222D01*
X-63199Y-570331D01*
X-63250Y-570439D01*
X-63305Y-570545D01*
X-63364Y-570649D01*
X-63426Y-570751D01*
X-63491Y-570851D01*
X-63560Y-570949D01*
X-63632Y-571045D01*
X-63707Y-571138D01*
X-63784Y-571228D01*
X-63865Y-571316D01*
X-63949Y-571401D01*
X-64036Y-571483D01*
X-64125Y-571563D01*
X-64217Y-571639D01*
X-64311Y-571713D01*
X-64408Y-571783D01*
X-64506Y-571850D01*
X-64607Y-571914D01*
X-64711Y-571974D01*
X-64816Y-572031D01*
X-64923Y-572084D01*
X-65031Y-572134D01*
X-65141Y-572180D01*
X-65253Y-572222D01*
X-65366Y-572261D01*
X-65480Y-572296D01*
X-65595Y-572327D01*
X-65712Y-572355D01*
X-65829Y-572378D01*
X-65946Y-572398D01*
X-66065Y-572414D01*
X-66184Y-572426D01*
X-66303Y-572434D01*
X-66422Y-572438D01*
X-66542Y-572438D01*
X-66661Y-572434D01*
X-66780Y-572426D01*
X-66899Y-572414D01*
X-67018Y-572398D01*
X-67135Y-572378D01*
X-67252Y-572355D01*
X-67369Y-572327D01*
X-67484Y-572296D01*
X-67598Y-572261D01*
X-67711Y-572222D01*
X-67823Y-572180D01*
X-67933Y-572134D01*
X-68041Y-572084D01*
X-68148Y-572031D01*
X-68253Y-571974D01*
X-68357Y-571914D01*
X-68458Y-571850D01*
X-68556Y-571783D01*
X-68653Y-571713D01*
X-68747Y-571639D01*
X-68839Y-571563D01*
X-68928Y-571483D01*
X-69015Y-571401D01*
X-69099Y-571316D01*
X-69180Y-571228D01*
X-69257Y-571138D01*
X-69332Y-571045D01*
X-69404Y-570949D01*
X-69473Y-570851D01*
X-69538Y-570751D01*
X-69600Y-570649D01*
X-69659Y-570545D01*
X-69714Y-570439D01*
X-69765Y-570331D01*
X-69813Y-570222D01*
X-69858Y-570111D01*
X-69898Y-569999D01*
X-69935Y-569885D01*
X-69968Y-569770D01*
X-69998Y-569655D01*
X-70023Y-569538D01*
X-70045Y-569421D01*
X-70062Y-569302D01*
X-70076Y-569184D01*
X-70086Y-569065D01*
X-70092Y-568945D01*
X-70094Y-568826D01*
X-55748Y-572438D02*
X-55748Y-561601D01*
X-47620Y-561601D01*
X-47519Y-561603D01*
X-47418Y-561609D01*
X-47317Y-561618D01*
X-47216Y-561631D01*
X-47116Y-561648D01*
X-47017Y-561669D01*
X-46919Y-561693D01*
X-46822Y-561721D01*
X-46725Y-561753D01*
X-46630Y-561788D01*
X-46537Y-561827D01*
X-46445Y-561869D01*
X-46354Y-561915D01*
X-46266Y-561964D01*
X-46179Y-562016D01*
X-46094Y-562072D01*
X-46011Y-562130D01*
X-45931Y-562192D01*
X-45853Y-562257D01*
X-45777Y-562324D01*
X-45704Y-562394D01*
X-45634Y-562467D01*
X-45567Y-562543D01*
X-45502Y-562621D01*
X-45440Y-562701D01*
X-45382Y-562784D01*
X-45326Y-562869D01*
X-45274Y-562956D01*
X-45225Y-563044D01*
X-45179Y-563135D01*
X-45137Y-563227D01*
X-45098Y-563320D01*
X-45063Y-563415D01*
X-45031Y-563512D01*
X-45003Y-563609D01*
X-44979Y-563707D01*
X-44958Y-563806D01*
X-44941Y-563906D01*
X-44928Y-564007D01*
X-44919Y-564108D01*
X-44913Y-564209D01*
X-44911Y-564310D01*
X-44911Y-572438D01*
X-50329Y-572438D02*
X-50329Y-561601D01*
X-24416Y-572438D02*
X-24298Y-572436D01*
X-24180Y-572430D01*
X-24062Y-572421D01*
X-23945Y-572407D01*
X-23828Y-572390D01*
X-23711Y-572369D01*
X-23596Y-572344D01*
X-23481Y-572315D01*
X-23367Y-572282D01*
X-23255Y-572246D01*
X-23144Y-572206D01*
X-23034Y-572163D01*
X-22925Y-572116D01*
X-22818Y-572066D01*
X-22713Y-572011D01*
X-22610Y-571954D01*
X-22509Y-571893D01*
X-22409Y-571829D01*
X-22312Y-571762D01*
X-22217Y-571692D01*
X-22125Y-571618D01*
X-22034Y-571542D01*
X-21947Y-571462D01*
X-21862Y-571380D01*
X-21780Y-571295D01*
X-21700Y-571208D01*
X-21624Y-571117D01*
X-21550Y-571025D01*
X-21480Y-570930D01*
X-21413Y-570833D01*
X-21349Y-570733D01*
X-21288Y-570632D01*
X-21231Y-570529D01*
X-21176Y-570424D01*
X-21126Y-570317D01*
X-21079Y-570208D01*
X-21036Y-570098D01*
X-20996Y-569987D01*
X-20960Y-569875D01*
X-20927Y-569761D01*
X-20898Y-569646D01*
X-20873Y-569531D01*
X-20852Y-569414D01*
X-20835Y-569297D01*
X-20821Y-569180D01*
X-20812Y-569062D01*
X-20806Y-568944D01*
X-20804Y-568826D01*
X-24416Y-572438D02*
X-24599Y-572436D01*
X-24781Y-572429D01*
X-24963Y-572418D01*
X-25145Y-572403D01*
X-25327Y-572383D01*
X-25508Y-572359D01*
X-25688Y-572331D01*
X-25868Y-572299D01*
X-26047Y-572262D01*
X-26224Y-572221D01*
X-26401Y-572175D01*
X-26577Y-572126D01*
X-26752Y-572072D01*
X-26925Y-572014D01*
X-27096Y-571952D01*
X-27267Y-571886D01*
X-27435Y-571815D01*
X-27602Y-571741D01*
X-27767Y-571663D01*
X-27930Y-571581D01*
X-28091Y-571495D01*
X-28250Y-571405D01*
X-28407Y-571311D01*
X-28561Y-571214D01*
X-28713Y-571113D01*
X-28863Y-571008D01*
X-29010Y-570900D01*
X-29154Y-570789D01*
X-29296Y-570674D01*
X-29435Y-570555D01*
X-29571Y-570433D01*
X-29704Y-570308D01*
X-29834Y-570180D01*
X-29384Y-559794D02*
X-29382Y-559676D01*
X-29376Y-559558D01*
X-29367Y-559440D01*
X-29353Y-559322D01*
X-29336Y-559205D01*
X-29315Y-559089D01*
X-29290Y-558974D01*
X-29261Y-558859D01*
X-29228Y-558745D01*
X-29192Y-558633D01*
X-29152Y-558521D01*
X-29109Y-558411D01*
X-29062Y-558303D01*
X-29011Y-558196D01*
X-28957Y-558091D01*
X-28900Y-557988D01*
X-28839Y-557886D01*
X-28775Y-557787D01*
X-28708Y-557690D01*
X-28637Y-557595D01*
X-28564Y-557502D01*
X-28487Y-557412D01*
X-28408Y-557324D01*
X-28326Y-557239D01*
X-28241Y-557157D01*
X-28153Y-557078D01*
X-28063Y-557001D01*
X-27970Y-556928D01*
X-27876Y-556857D01*
X-27778Y-556790D01*
X-27679Y-556726D01*
X-27578Y-556665D01*
X-27474Y-556608D01*
X-27369Y-556554D01*
X-27262Y-556503D01*
X-27154Y-556456D01*
X-27044Y-556413D01*
X-26932Y-556373D01*
X-26820Y-556337D01*
X-26706Y-556304D01*
X-26591Y-556275D01*
X-26476Y-556250D01*
X-26360Y-556229D01*
X-26243Y-556212D01*
X-26125Y-556198D01*
X-26007Y-556189D01*
X-25889Y-556183D01*
X-25771Y-556181D01*
X-25771Y-556182D02*
X-25610Y-556184D01*
X-25448Y-556190D01*
X-25287Y-556199D01*
X-25126Y-556213D01*
X-24966Y-556230D01*
X-24806Y-556251D01*
X-24646Y-556276D01*
X-24487Y-556305D01*
X-24329Y-556337D01*
X-24172Y-556373D01*
X-24016Y-556413D01*
X-23860Y-556457D01*
X-23706Y-556505D01*
X-23553Y-556556D01*
X-23401Y-556610D01*
X-23250Y-556669D01*
X-23101Y-556730D01*
X-22954Y-556796D01*
X-22808Y-556865D01*
X-22663Y-556937D01*
X-22521Y-557013D01*
X-22380Y-557092D01*
X-22241Y-557174D01*
X-22105Y-557260D01*
X-21970Y-557349D01*
X-21837Y-557441D01*
X-21707Y-557537D01*
X-27578Y-562955D02*
X-27679Y-562893D01*
X-27779Y-562828D01*
X-27876Y-562759D01*
X-27971Y-562687D01*
X-28064Y-562613D01*
X-28154Y-562535D01*
X-28242Y-562454D01*
X-28327Y-562371D01*
X-28409Y-562285D01*
X-28488Y-562196D01*
X-28565Y-562105D01*
X-28638Y-562011D01*
X-28709Y-561915D01*
X-28776Y-561817D01*
X-28840Y-561717D01*
X-28901Y-561614D01*
X-28958Y-561510D01*
X-29012Y-561404D01*
X-29062Y-561296D01*
X-29109Y-561187D01*
X-29153Y-561076D01*
X-29193Y-560964D01*
X-29229Y-560850D01*
X-29261Y-560736D01*
X-29290Y-560620D01*
X-29315Y-560504D01*
X-29336Y-560387D01*
X-29353Y-560269D01*
X-29367Y-560151D01*
X-29376Y-560032D01*
X-29382Y-559913D01*
X-29384Y-559794D01*
X-22610Y-565665D02*
X-22509Y-565727D01*
X-22409Y-565792D01*
X-22312Y-565861D01*
X-22217Y-565933D01*
X-22124Y-566007D01*
X-22034Y-566085D01*
X-21946Y-566166D01*
X-21861Y-566249D01*
X-21779Y-566335D01*
X-21700Y-566424D01*
X-21623Y-566515D01*
X-21550Y-566609D01*
X-21479Y-566705D01*
X-21412Y-566803D01*
X-21348Y-566903D01*
X-21287Y-567006D01*
X-21230Y-567110D01*
X-21176Y-567216D01*
X-21126Y-567324D01*
X-21079Y-567433D01*
X-21035Y-567544D01*
X-20995Y-567656D01*
X-20959Y-567770D01*
X-20927Y-567884D01*
X-20898Y-568000D01*
X-20873Y-568116D01*
X-20852Y-568233D01*
X-20835Y-568351D01*
X-20821Y-568469D01*
X-20812Y-568588D01*
X-20806Y-568707D01*
X-20804Y-568826D01*
X-22610Y-565665D02*
X-27577Y-562955D01*
X-14864Y-565213D02*
X-14864Y-568826D01*
X-14863Y-565213D02*
X-14861Y-565094D01*
X-14855Y-564974D01*
X-14845Y-564855D01*
X-14831Y-564737D01*
X-14814Y-564618D01*
X-14792Y-564501D01*
X-14767Y-564384D01*
X-14737Y-564269D01*
X-14704Y-564154D01*
X-14667Y-564040D01*
X-14627Y-563928D01*
X-14582Y-563817D01*
X-14534Y-563708D01*
X-14483Y-563600D01*
X-14428Y-563494D01*
X-14369Y-563390D01*
X-14307Y-563288D01*
X-14242Y-563188D01*
X-14173Y-563090D01*
X-14101Y-562994D01*
X-14026Y-562901D01*
X-13949Y-562811D01*
X-13868Y-562723D01*
X-13784Y-562638D01*
X-13697Y-562556D01*
X-13608Y-562476D01*
X-13516Y-562400D01*
X-13422Y-562326D01*
X-13325Y-562256D01*
X-13227Y-562189D01*
X-13126Y-562125D01*
X-13022Y-562065D01*
X-12917Y-562008D01*
X-12810Y-561955D01*
X-12702Y-561905D01*
X-12592Y-561859D01*
X-12480Y-561817D01*
X-12367Y-561778D01*
X-12253Y-561743D01*
X-12138Y-561712D01*
X-12021Y-561684D01*
X-11904Y-561661D01*
X-11787Y-561641D01*
X-11668Y-561625D01*
X-11549Y-561613D01*
X-11430Y-561605D01*
X-11311Y-561601D01*
X-11191Y-561601D01*
X-11072Y-561605D01*
X-10953Y-561613D01*
X-10834Y-561625D01*
X-10715Y-561641D01*
X-10598Y-561661D01*
X-10481Y-561684D01*
X-10364Y-561712D01*
X-10249Y-561743D01*
X-10135Y-561778D01*
X-10022Y-561817D01*
X-9910Y-561859D01*
X-9800Y-561905D01*
X-9692Y-561955D01*
X-9585Y-562008D01*
X-9480Y-562065D01*
X-9376Y-562125D01*
X-9275Y-562189D01*
X-9177Y-562256D01*
X-9080Y-562326D01*
X-8986Y-562400D01*
X-8894Y-562476D01*
X-8805Y-562556D01*
X-8718Y-562638D01*
X-8634Y-562723D01*
X-8553Y-562811D01*
X-8476Y-562901D01*
X-8401Y-562994D01*
X-8329Y-563090D01*
X-8260Y-563188D01*
X-8195Y-563288D01*
X-8133Y-563390D01*
X-8074Y-563494D01*
X-8019Y-563600D01*
X-7968Y-563708D01*
X-7920Y-563817D01*
X-7875Y-563928D01*
X-7835Y-564040D01*
X-7798Y-564154D01*
X-7765Y-564269D01*
X-7735Y-564384D01*
X-7710Y-564501D01*
X-7688Y-564618D01*
X-7671Y-564737D01*
X-7657Y-564855D01*
X-7647Y-564974D01*
X-7641Y-565094D01*
X-7639Y-565213D01*
X-7639Y-568826D01*
X-7641Y-568945D01*
X-7647Y-569065D01*
X-7657Y-569184D01*
X-7671Y-569302D01*
X-7688Y-569421D01*
X-7710Y-569538D01*
X-7735Y-569655D01*
X-7765Y-569770D01*
X-7798Y-569885D01*
X-7835Y-569999D01*
X-7875Y-570111D01*
X-7920Y-570222D01*
X-7968Y-570331D01*
X-8019Y-570439D01*
X-8074Y-570545D01*
X-8133Y-570649D01*
X-8195Y-570751D01*
X-8260Y-570851D01*
X-8329Y-570949D01*
X-8401Y-571045D01*
X-8476Y-571138D01*
X-8553Y-571228D01*
X-8634Y-571316D01*
X-8718Y-571401D01*
X-8805Y-571483D01*
X-8894Y-571563D01*
X-8986Y-571639D01*
X-9080Y-571713D01*
X-9177Y-571783D01*
X-9275Y-571850D01*
X-9376Y-571914D01*
X-9480Y-571974D01*
X-9585Y-572031D01*
X-9692Y-572084D01*
X-9800Y-572134D01*
X-9910Y-572180D01*
X-10022Y-572222D01*
X-10135Y-572261D01*
X-10249Y-572296D01*
X-10364Y-572327D01*
X-10481Y-572355D01*
X-10598Y-572378D01*
X-10715Y-572398D01*
X-10834Y-572414D01*
X-10953Y-572426D01*
X-11072Y-572434D01*
X-11191Y-572438D01*
X-11311Y-572438D01*
X-11430Y-572434D01*
X-11549Y-572426D01*
X-11668Y-572414D01*
X-11787Y-572398D01*
X-11904Y-572378D01*
X-12021Y-572355D01*
X-12138Y-572327D01*
X-12253Y-572296D01*
X-12367Y-572261D01*
X-12480Y-572222D01*
X-12592Y-572180D01*
X-12702Y-572134D01*
X-12810Y-572084D01*
X-12917Y-572031D01*
X-13022Y-571974D01*
X-13126Y-571914D01*
X-13227Y-571850D01*
X-13325Y-571783D01*
X-13422Y-571713D01*
X-13516Y-571639D01*
X-13608Y-571563D01*
X-13697Y-571483D01*
X-13784Y-571401D01*
X-13868Y-571316D01*
X-13949Y-571228D01*
X-14026Y-571138D01*
X-14101Y-571045D01*
X-14173Y-570949D01*
X-14242Y-570851D01*
X-14307Y-570751D01*
X-14369Y-570649D01*
X-14428Y-570545D01*
X-14483Y-570439D01*
X-14534Y-570331D01*
X-14582Y-570222D01*
X-14627Y-570111D01*
X-14667Y-569999D01*
X-14704Y-569885D01*
X-14737Y-569770D01*
X-14767Y-569655D01*
X-14792Y-569538D01*
X-14814Y-569421D01*
X-14831Y-569302D01*
X-14845Y-569184D01*
X-14855Y-569065D01*
X-14861Y-568945D01*
X-14863Y-568826D01*
X-1080Y-569729D02*
X-1080Y-556182D01*
X-1079Y-569729D02*
X-1077Y-569830D01*
X-1071Y-569931D01*
X-1062Y-570032D01*
X-1049Y-570133D01*
X-1032Y-570233D01*
X-1011Y-570332D01*
X-987Y-570430D01*
X-959Y-570527D01*
X-927Y-570624D01*
X-892Y-570719D01*
X-853Y-570812D01*
X-811Y-570904D01*
X-765Y-570995D01*
X-716Y-571084D01*
X-664Y-571170D01*
X-608Y-571255D01*
X-550Y-571338D01*
X-488Y-571418D01*
X-423Y-571496D01*
X-356Y-571572D01*
X-286Y-571645D01*
X-213Y-571715D01*
X-137Y-571782D01*
X-59Y-571847D01*
X21Y-571909D01*
X104Y-571967D01*
X189Y-572023D01*
X276Y-572075D01*
X364Y-572124D01*
X455Y-572170D01*
X547Y-572212D01*
X640Y-572251D01*
X735Y-572286D01*
X832Y-572318D01*
X929Y-572346D01*
X1027Y-572370D01*
X1126Y-572391D01*
X1226Y-572408D01*
X1327Y-572421D01*
X1428Y-572430D01*
X1529Y-572436D01*
X1630Y-572438D01*
X14172Y-572438D02*
X14172Y-556182D01*
X14172Y-572438D02*
X9656Y-572438D01*
X9555Y-572436D01*
X9454Y-572430D01*
X9353Y-572421D01*
X9252Y-572408D01*
X9152Y-572391D01*
X9053Y-572370D01*
X8955Y-572346D01*
X8858Y-572318D01*
X8761Y-572286D01*
X8666Y-572251D01*
X8573Y-572212D01*
X8481Y-572170D01*
X8390Y-572124D01*
X8302Y-572075D01*
X8215Y-572023D01*
X8130Y-571967D01*
X8047Y-571909D01*
X7967Y-571847D01*
X7889Y-571782D01*
X7813Y-571715D01*
X7740Y-571645D01*
X7670Y-571572D01*
X7603Y-571496D01*
X7538Y-571418D01*
X7476Y-571338D01*
X7418Y-571255D01*
X7362Y-571170D01*
X7310Y-571084D01*
X7261Y-570995D01*
X7215Y-570904D01*
X7173Y-570812D01*
X7134Y-570719D01*
X7099Y-570624D01*
X7067Y-570527D01*
X7039Y-570430D01*
X7015Y-570332D01*
X6994Y-570233D01*
X6977Y-570133D01*
X6964Y-570032D01*
X6955Y-569931D01*
X6949Y-569830D01*
X6947Y-569729D01*
X6947Y-564310D01*
X6949Y-564209D01*
X6955Y-564108D01*
X6964Y-564007D01*
X6977Y-563906D01*
X6994Y-563806D01*
X7015Y-563707D01*
X7039Y-563609D01*
X7067Y-563512D01*
X7099Y-563415D01*
X7134Y-563320D01*
X7173Y-563227D01*
X7215Y-563135D01*
X7261Y-563044D01*
X7310Y-562956D01*
X7362Y-562869D01*
X7418Y-562784D01*
X7476Y-562701D01*
X7538Y-562621D01*
X7603Y-562543D01*
X7670Y-562467D01*
X7740Y-562394D01*
X7813Y-562324D01*
X7889Y-562257D01*
X7967Y-562192D01*
X8047Y-562130D01*
X8130Y-562072D01*
X8215Y-562016D01*
X8302Y-561964D01*
X8390Y-561915D01*
X8481Y-561869D01*
X8573Y-561827D01*
X8666Y-561788D01*
X8761Y-561753D01*
X8858Y-561721D01*
X8955Y-561693D01*
X9053Y-561669D01*
X9152Y-561648D01*
X9252Y-561631D01*
X9353Y-561618D01*
X9454Y-561609D01*
X9555Y-561603D01*
X9656Y-561601D01*
X14172Y-561601D01*
X23797Y-572438D02*
X28313Y-572438D01*
X23797Y-572438D02*
X23696Y-572436D01*
X23595Y-572430D01*
X23494Y-572421D01*
X23393Y-572408D01*
X23293Y-572391D01*
X23194Y-572370D01*
X23096Y-572346D01*
X22999Y-572318D01*
X22902Y-572286D01*
X22807Y-572251D01*
X22714Y-572212D01*
X22622Y-572170D01*
X22531Y-572124D01*
X22443Y-572075D01*
X22356Y-572023D01*
X22271Y-571967D01*
X22188Y-571909D01*
X22108Y-571847D01*
X22030Y-571782D01*
X21954Y-571715D01*
X21881Y-571645D01*
X21811Y-571572D01*
X21744Y-571496D01*
X21679Y-571418D01*
X21617Y-571338D01*
X21559Y-571255D01*
X21503Y-571170D01*
X21451Y-571084D01*
X21402Y-570995D01*
X21356Y-570904D01*
X21314Y-570812D01*
X21275Y-570719D01*
X21240Y-570624D01*
X21208Y-570527D01*
X21180Y-570430D01*
X21156Y-570332D01*
X21135Y-570233D01*
X21118Y-570133D01*
X21105Y-570032D01*
X21096Y-569931D01*
X21090Y-569830D01*
X21088Y-569729D01*
X21088Y-565213D01*
X21089Y-565213D02*
X21091Y-565094D01*
X21097Y-564974D01*
X21107Y-564855D01*
X21121Y-564737D01*
X21138Y-564618D01*
X21160Y-564501D01*
X21185Y-564384D01*
X21215Y-564269D01*
X21248Y-564154D01*
X21285Y-564040D01*
X21325Y-563928D01*
X21370Y-563817D01*
X21418Y-563708D01*
X21469Y-563600D01*
X21524Y-563494D01*
X21583Y-563390D01*
X21645Y-563288D01*
X21710Y-563188D01*
X21779Y-563090D01*
X21851Y-562994D01*
X21926Y-562901D01*
X22003Y-562811D01*
X22084Y-562723D01*
X22168Y-562638D01*
X22255Y-562556D01*
X22344Y-562476D01*
X22436Y-562400D01*
X22530Y-562326D01*
X22627Y-562256D01*
X22725Y-562189D01*
X22826Y-562125D01*
X22930Y-562065D01*
X23035Y-562008D01*
X23142Y-561955D01*
X23250Y-561905D01*
X23360Y-561859D01*
X23472Y-561817D01*
X23585Y-561778D01*
X23699Y-561743D01*
X23814Y-561712D01*
X23931Y-561684D01*
X24048Y-561661D01*
X24165Y-561641D01*
X24284Y-561625D01*
X24403Y-561613D01*
X24522Y-561605D01*
X24641Y-561601D01*
X24761Y-561601D01*
X24880Y-561605D01*
X24999Y-561613D01*
X25118Y-561625D01*
X25237Y-561641D01*
X25354Y-561661D01*
X25471Y-561684D01*
X25588Y-561712D01*
X25703Y-561743D01*
X25817Y-561778D01*
X25930Y-561817D01*
X26042Y-561859D01*
X26152Y-561905D01*
X26260Y-561955D01*
X26367Y-562008D01*
X26472Y-562065D01*
X26576Y-562125D01*
X26677Y-562189D01*
X26775Y-562256D01*
X26872Y-562326D01*
X26966Y-562400D01*
X27058Y-562476D01*
X27147Y-562556D01*
X27234Y-562638D01*
X27318Y-562723D01*
X27399Y-562811D01*
X27476Y-562901D01*
X27551Y-562994D01*
X27623Y-563090D01*
X27692Y-563188D01*
X27757Y-563288D01*
X27819Y-563390D01*
X27878Y-563494D01*
X27933Y-563600D01*
X27984Y-563708D01*
X28032Y-563817D01*
X28077Y-563928D01*
X28117Y-564040D01*
X28154Y-564154D01*
X28187Y-564269D01*
X28217Y-564384D01*
X28242Y-564501D01*
X28264Y-564618D01*
X28281Y-564737D01*
X28295Y-564855D01*
X28305Y-564974D01*
X28311Y-565094D01*
X28313Y-565213D01*
X28313Y-567019D01*
X21088Y-567019D01*
X35241Y-572438D02*
X35241Y-561601D01*
X40660Y-561601D01*
X40660Y-563407D01*
X54713Y-556182D02*
X54713Y-572438D01*
X60131Y-565213D02*
X54713Y-556182D01*
X60131Y-565213D02*
X65550Y-556182D01*
X65550Y-572438D01*
X75759Y-566116D02*
X79823Y-566116D01*
X75759Y-566116D02*
X75647Y-566118D01*
X75536Y-566124D01*
X75425Y-566134D01*
X75314Y-566147D01*
X75204Y-566165D01*
X75095Y-566187D01*
X74986Y-566212D01*
X74878Y-566241D01*
X74772Y-566274D01*
X74666Y-566311D01*
X74562Y-566351D01*
X74460Y-566395D01*
X74359Y-566443D01*
X74260Y-566494D01*
X74162Y-566549D01*
X74067Y-566607D01*
X73974Y-566668D01*
X73883Y-566733D01*
X73794Y-566801D01*
X73708Y-566872D01*
X73625Y-566945D01*
X73544Y-567022D01*
X73465Y-567102D01*
X73390Y-567184D01*
X73318Y-567269D01*
X73248Y-567356D01*
X73182Y-567446D01*
X73119Y-567538D01*
X73059Y-567633D01*
X73003Y-567729D01*
X72950Y-567827D01*
X72901Y-567927D01*
X72855Y-568029D01*
X72813Y-568132D01*
X72774Y-568237D01*
X72739Y-568343D01*
X72708Y-568450D01*
X72681Y-568558D01*
X72657Y-568667D01*
X72638Y-568777D01*
X72622Y-568887D01*
X72610Y-568998D01*
X72602Y-569110D01*
X72598Y-569221D01*
X72598Y-569333D01*
X72602Y-569444D01*
X72610Y-569556D01*
X72622Y-569667D01*
X72638Y-569777D01*
X72657Y-569887D01*
X72681Y-569996D01*
X72708Y-570104D01*
X72739Y-570211D01*
X72774Y-570317D01*
X72813Y-570422D01*
X72855Y-570525D01*
X72901Y-570627D01*
X72950Y-570727D01*
X73003Y-570825D01*
X73059Y-570921D01*
X73119Y-571016D01*
X73182Y-571108D01*
X73248Y-571198D01*
X73318Y-571285D01*
X73390Y-571370D01*
X73465Y-571452D01*
X73544Y-571532D01*
X73625Y-571609D01*
X73708Y-571682D01*
X73794Y-571753D01*
X73883Y-571821D01*
X73974Y-571886D01*
X74067Y-571947D01*
X74162Y-572005D01*
X74260Y-572060D01*
X74359Y-572111D01*
X74460Y-572159D01*
X74562Y-572203D01*
X74666Y-572243D01*
X74772Y-572280D01*
X74878Y-572313D01*
X74986Y-572342D01*
X75095Y-572367D01*
X75204Y-572389D01*
X75314Y-572407D01*
X75425Y-572420D01*
X75536Y-572430D01*
X75647Y-572436D01*
X75759Y-572438D01*
X79823Y-572438D01*
X79823Y-564310D01*
X79822Y-564310D02*
X79820Y-564209D01*
X79814Y-564108D01*
X79805Y-564007D01*
X79792Y-563906D01*
X79775Y-563806D01*
X79754Y-563707D01*
X79730Y-563609D01*
X79702Y-563512D01*
X79670Y-563415D01*
X79635Y-563320D01*
X79596Y-563227D01*
X79554Y-563135D01*
X79508Y-563044D01*
X79459Y-562956D01*
X79407Y-562869D01*
X79351Y-562784D01*
X79293Y-562701D01*
X79231Y-562621D01*
X79166Y-562543D01*
X79099Y-562467D01*
X79029Y-562394D01*
X78956Y-562324D01*
X78880Y-562257D01*
X78802Y-562192D01*
X78722Y-562130D01*
X78639Y-562072D01*
X78554Y-562016D01*
X78468Y-561964D01*
X78379Y-561915D01*
X78288Y-561869D01*
X78196Y-561827D01*
X78103Y-561788D01*
X78008Y-561753D01*
X77911Y-561721D01*
X77814Y-561693D01*
X77716Y-561669D01*
X77617Y-561648D01*
X77517Y-561631D01*
X77416Y-561618D01*
X77315Y-561609D01*
X77214Y-561603D01*
X77113Y-561601D01*
X73501Y-561601D01*
X88094Y-566116D02*
X92609Y-567922D01*
X88094Y-566116D02*
X88006Y-566079D01*
X87920Y-566038D01*
X87835Y-565994D01*
X87752Y-565946D01*
X87672Y-565895D01*
X87593Y-565841D01*
X87517Y-565783D01*
X87443Y-565723D01*
X87371Y-565659D01*
X87303Y-565593D01*
X87237Y-565523D01*
X87174Y-565452D01*
X87113Y-565377D01*
X87056Y-565301D01*
X87003Y-565222D01*
X86952Y-565141D01*
X86905Y-565058D01*
X86861Y-564973D01*
X86821Y-564886D01*
X86784Y-564798D01*
X86751Y-564708D01*
X86721Y-564617D01*
X86696Y-564525D01*
X86674Y-564432D01*
X86656Y-564338D01*
X86641Y-564244D01*
X86631Y-564149D01*
X86625Y-564053D01*
X86622Y-563958D01*
X86623Y-563862D01*
X86629Y-563767D01*
X86638Y-563671D01*
X86651Y-563577D01*
X86667Y-563483D01*
X86688Y-563389D01*
X86713Y-563297D01*
X86741Y-563206D01*
X86773Y-563116D01*
X86808Y-563027D01*
X86847Y-562940D01*
X86890Y-562854D01*
X86936Y-562770D01*
X86986Y-562689D01*
X87038Y-562609D01*
X87094Y-562531D01*
X87154Y-562456D01*
X87216Y-562384D01*
X87281Y-562314D01*
X87349Y-562246D01*
X87419Y-562182D01*
X87492Y-562120D01*
X87568Y-562062D01*
X87646Y-562006D01*
X87726Y-561954D01*
X87808Y-561905D01*
X87892Y-561860D01*
X87978Y-561818D01*
X88065Y-561779D01*
X88154Y-561744D01*
X88245Y-561713D01*
X88336Y-561686D01*
X88429Y-561662D01*
X88522Y-561642D01*
X88616Y-561626D01*
X88711Y-561614D01*
X88806Y-561605D01*
X88902Y-561601D01*
X88997Y-561600D01*
X89244Y-561607D01*
X89490Y-561619D01*
X89736Y-561637D01*
X89982Y-561662D01*
X90226Y-561692D01*
X90470Y-561728D01*
X90713Y-561770D01*
X90955Y-561817D01*
X91196Y-561871D01*
X91435Y-561930D01*
X91673Y-561995D01*
X91910Y-562066D01*
X92144Y-562142D01*
X92377Y-562224D01*
X92607Y-562312D01*
X92835Y-562405D01*
X93062Y-562503D01*
X92610Y-567923D02*
X92698Y-567960D01*
X92784Y-568001D01*
X92869Y-568045D01*
X92952Y-568093D01*
X93032Y-568144D01*
X93111Y-568198D01*
X93187Y-568256D01*
X93261Y-568316D01*
X93333Y-568380D01*
X93401Y-568446D01*
X93467Y-568516D01*
X93530Y-568587D01*
X93591Y-568662D01*
X93648Y-568738D01*
X93701Y-568817D01*
X93752Y-568898D01*
X93799Y-568981D01*
X93843Y-569066D01*
X93883Y-569153D01*
X93920Y-569241D01*
X93953Y-569331D01*
X93983Y-569422D01*
X94008Y-569514D01*
X94030Y-569607D01*
X94048Y-569701D01*
X94063Y-569795D01*
X94073Y-569890D01*
X94079Y-569986D01*
X94082Y-570081D01*
X94081Y-570177D01*
X94075Y-570272D01*
X94066Y-570368D01*
X94053Y-570462D01*
X94037Y-570556D01*
X94016Y-570650D01*
X93991Y-570742D01*
X93963Y-570833D01*
X93931Y-570923D01*
X93896Y-571012D01*
X93857Y-571099D01*
X93814Y-571185D01*
X93768Y-571269D01*
X93718Y-571350D01*
X93666Y-571430D01*
X93610Y-571508D01*
X93550Y-571583D01*
X93488Y-571655D01*
X93423Y-571725D01*
X93355Y-571793D01*
X93285Y-571857D01*
X93212Y-571919D01*
X93136Y-571977D01*
X93058Y-572033D01*
X92978Y-572085D01*
X92896Y-572134D01*
X92812Y-572179D01*
X92726Y-572221D01*
X92639Y-572260D01*
X92550Y-572295D01*
X92459Y-572326D01*
X92368Y-572353D01*
X92275Y-572377D01*
X92182Y-572397D01*
X92088Y-572413D01*
X91993Y-572425D01*
X91898Y-572434D01*
X91802Y-572438D01*
X91707Y-572439D01*
X91706Y-572438D02*
X91344Y-572429D01*
X90982Y-572411D01*
X90621Y-572384D01*
X90261Y-572349D01*
X89901Y-572306D01*
X89542Y-572254D01*
X89185Y-572193D01*
X88830Y-572124D01*
X88476Y-572047D01*
X88124Y-571961D01*
X87774Y-571867D01*
X87426Y-571764D01*
X87081Y-571654D01*
X86739Y-571535D01*
X100976Y-572438D02*
X100976Y-556182D01*
X108201Y-561601D02*
X100976Y-567019D01*
X104137Y-564762D02*
X108201Y-572438D01*
M02*
