M48
;GenerationSoftware,Autodesk,EAGLE,9.3.0*%
;CreationDate,2019-05-15T02:55:11Z*%
FMAT,2
ICI,OFF
METRIC,TZ,000.000
T9C0.200
T8C0.203
T7C0.381
T6C0.900
T5C1.000
T4C1.100
T3C1.300
T2C2.200
T1C3.200
%
G90
M71
T1
X-6000Y13000
X1000Y13000
T2
X-110500Y-27000
X-110500Y27000
X-110500Y27000
X-56500Y-27000
X-56500Y27000
X110500Y27000
X110500Y-27000
X110500Y-27000
X56500Y27000
X56500Y-27000
X-5700Y-28000
X5700Y-28000
X-37500Y-11500
X-37500Y19500
X37500Y-11500
X37500Y19500
T3
X-2500Y-35500
X2500Y-35500
X0Y-35500
X2500Y-21000
X-2500Y-21000
T4
X-16000Y11730
X-16000Y14270
T5
X-2000Y-17000
X6000Y-17000
X-6000Y-17000
X2000Y-17000
T6
X-40000Y10950
X-40000Y8950
X-40000Y4950
X-40000Y-7050
X-40000Y-5050
X-40000Y-3050
X-40000Y2950
X-40000Y950
X-40000Y-1050
X-40000Y6950
X-40000Y14950
X40000Y-5000
X40000Y1000
X-40000Y12950
X40000Y-7000
X40000Y11000
X40000Y13000
X40000Y15000
X40000Y-3000
X40000Y-1000
X40000Y3000
X40000Y5000
X40000Y7000
X40000Y9000
T7
X-40200Y-29244
X6000Y19000
X-23500Y8735
X-26000Y11265
X-20945Y11750
X-36556Y-30500
X-23500Y3265
X-25894Y-30250
X-29500Y17050
X-8700Y25380
X-28550Y12345
X7000Y6950
X7000Y6049
X-11055Y11750
T8
X18710Y6725
X-2275Y-2987
X30500Y1539
X36644Y-25500
X-27270Y22076
X21000Y6039
X-25806Y-22250
X7000Y12039
X4471Y7540
X34000Y-15999
X30500Y5461
X-16000Y-15999
X-40000Y-15999
X38000Y-15999
X27750Y5500
X29250Y8750
X9290Y11925
X-32350Y22076
X-9244Y-21500
X-18756Y-21500
X-33500Y17001
X9576Y-13350
X9576Y-5730
X-22194Y-33750
X9344Y-24400
X9344Y-31600
X2275Y-11013
X33500Y18539
X23500Y18539
X7000Y2039
X23500Y27461
X27000Y1539
X26000Y-15999
X33500Y27461
X-29500Y13039
X-29500Y7744
X-9244Y-31500
X-18756Y-31500
X-34656Y-24400
X-34656Y-31600
X23756Y-35500
X14244Y-35500
X23756Y-29500
X14244Y-29500
X-24000Y-15999
X-9576Y-650
X-9576Y-8270
X-28000Y-15999
X30000Y-15999
X-29500Y6961
X36644Y-30500
X-11300Y25469
X-11144Y14250
X-20856Y14250
X18710Y8675
X9290Y9325
X8666Y6725
X9290Y6075
X7000Y10961
X21000Y9961
X29250Y18018
X27750Y18018
X26250Y18018
X28250Y5982
X26250Y5982
X34518Y8250
X34518Y9250
X34518Y14250
X7000Y15961
X4471Y2460
X33500Y22461
T9
X27250Y8500
X11000Y-7750
X2750Y-16000
X28000Y1500
X7000Y-18500
X35500Y18000
X41500Y17750
X32000Y14750
X29500Y-23250
X31500Y14250
X29000Y-22750
X11000Y-7000
X9500Y-7000
X4250Y-7750
X29000Y-7500
X29000Y-6000
X-19750Y-27000
X-22000Y-29250
X-29500Y-27250
X-29500Y-28750
X11000Y1750
X11000Y-8750
X-19000Y-20250
X23000Y5000
X19750Y10250
X31500Y9750
X12000Y15000
X32750Y7750
X28500Y3500
X42000Y9000
X35000Y12250
X23500Y-5000
X23500Y2250
X30000Y8750
X4250Y-5000
X35000Y14750
X-22750Y17750
X-3750Y-2500
X-2500Y13500
X-3500Y12500
X-18500Y18250
X2250Y-5500
X-15000Y18250
X-500Y-2250
X-2250Y-6250
X-5750Y-9750
X2750Y-6000
X35500Y13500
X2000Y-7250
X-27850Y15650
X-23850Y15650
X-27850Y5650
X-34600Y6650
X-34600Y10650
X-32600Y12650
X-27850Y11650
X-23850Y11650
X-27850Y13650
X-25850Y13650
X-23850Y13650
X-25850Y5650
X-27850Y3650
X-25850Y3650
X-26850Y8650
X-25850Y7650
X-27850Y7650
X-32600Y8650
X-32600Y10650
X-34600Y8650
X-34600Y12650
X-32600Y6650
X12250Y-11750
X12000Y-7500
X11500Y5250
X1500Y-2750
X10250Y3250
X1500Y-2000
X9250Y4250
X2250Y-2750
X9750Y3750
X3250Y-3750
X10750Y2750
X-250Y7250
X34750Y10250
X6000Y7250
X25000Y9000
X-250Y8000
X31500Y11250
X28250Y-6000
X28250Y-7500
X32500Y-5750
X31750Y2750
X5750Y-7250
X4250Y-4250
X11000Y1000
X-8000Y-9500
X-5750Y-11750
X25500Y9500
X-35000Y2250
X3750Y-8250
X24250Y3750
X11000Y-4000
X9500Y-4000
X9500Y-10000
X14500Y22500
X-23500Y6000
X16000Y-7500
X32000Y15500
X22000Y30000
X21000Y30000
M30