G04 EAGLE Gerber RS-274X export*
G75*
%MOMM*%
%FSLAX34Y34*%
%LPD*%
%INSolder stop mask SOL*%
%IPPOS*%
%AMOC8*
5,1,8,0,0,1.08239X$1,22.5*%
G01*
%ADD10C,3.352400*%
%ADD11C,2.352400*%
%ADD12R,1.502400X1.502400*%
%ADD13C,1.502400*%
%ADD14C,1.652400*%
%ADD15C,2.102400*%
%ADD16R,2.102400X2.102400*%
%ADD17C,0.152400*%
%ADD18R,1.802400X1.802400*%
%ADD19C,1.802400*%


D10*
X-60000Y130000D03*
X10000Y130000D03*
D11*
X-1105000Y-270000D03*
X-1105000Y270000D03*
X-1105000Y270000D03*
X-565000Y-270000D03*
X-565000Y270000D03*
X1105000Y270000D03*
X1105000Y-270000D03*
X1105000Y-270000D03*
X565000Y270000D03*
X565000Y-270000D03*
D12*
X-400000Y149500D03*
D13*
X-400000Y-30500D03*
X-400000Y-50500D03*
X-400000Y-70500D03*
X-400000Y109500D03*
X-400000Y89500D03*
X-400000Y49500D03*
X-400000Y29500D03*
X-400000Y9500D03*
X-400000Y-10500D03*
X-400000Y69500D03*
X-400000Y129500D03*
D12*
X400000Y-70000D03*
D13*
X400000Y110000D03*
X400000Y130000D03*
X400000Y150000D03*
X400000Y-30000D03*
X400000Y-10000D03*
X400000Y30000D03*
X400000Y50000D03*
X400000Y70000D03*
X400000Y90000D03*
X400000Y10000D03*
X400000Y-50000D03*
D14*
X-20000Y-170000D03*
X60000Y-170000D03*
X-60000Y-170000D03*
X20000Y-170000D03*
D11*
X-57000Y-280000D03*
X57000Y-280000D03*
D15*
X-25000Y-355000D03*
X25000Y-355000D03*
D16*
X-25000Y-210000D03*
D15*
X25000Y-210000D03*
X0Y-355000D03*
D11*
X-375000Y-115000D03*
X-375000Y195000D03*
X375000Y-115000D03*
X375000Y195000D03*
D17*
X-113685Y-623407D02*
X-118201Y-623407D01*
X-113685Y-623406D02*
X-113552Y-623408D01*
X-113420Y-623414D01*
X-113288Y-623424D01*
X-113156Y-623437D01*
X-113024Y-623455D01*
X-112894Y-623476D01*
X-112763Y-623501D01*
X-112634Y-623530D01*
X-112506Y-623563D01*
X-112378Y-623599D01*
X-112252Y-623639D01*
X-112127Y-623683D01*
X-112003Y-623731D01*
X-111881Y-623782D01*
X-111760Y-623837D01*
X-111641Y-623895D01*
X-111523Y-623957D01*
X-111408Y-624022D01*
X-111294Y-624091D01*
X-111183Y-624162D01*
X-111074Y-624238D01*
X-110967Y-624316D01*
X-110862Y-624397D01*
X-110760Y-624482D01*
X-110660Y-624569D01*
X-110563Y-624659D01*
X-110468Y-624752D01*
X-110377Y-624848D01*
X-110288Y-624946D01*
X-110202Y-625047D01*
X-110119Y-625151D01*
X-110039Y-625257D01*
X-109963Y-625365D01*
X-109889Y-625475D01*
X-109819Y-625588D01*
X-109752Y-625702D01*
X-109689Y-625819D01*
X-109629Y-625937D01*
X-109572Y-626057D01*
X-109519Y-626179D01*
X-109470Y-626302D01*
X-109424Y-626426D01*
X-109382Y-626552D01*
X-109344Y-626679D01*
X-109309Y-626807D01*
X-109278Y-626936D01*
X-109251Y-627065D01*
X-109228Y-627196D01*
X-109208Y-627327D01*
X-109193Y-627459D01*
X-109181Y-627591D01*
X-109173Y-627723D01*
X-109169Y-627856D01*
X-109169Y-627988D01*
X-109173Y-628121D01*
X-109181Y-628253D01*
X-109193Y-628385D01*
X-109208Y-628517D01*
X-109228Y-628648D01*
X-109251Y-628779D01*
X-109278Y-628908D01*
X-109309Y-629037D01*
X-109344Y-629165D01*
X-109382Y-629292D01*
X-109424Y-629418D01*
X-109470Y-629542D01*
X-109519Y-629665D01*
X-109572Y-629787D01*
X-109629Y-629907D01*
X-109689Y-630025D01*
X-109752Y-630142D01*
X-109819Y-630256D01*
X-109889Y-630369D01*
X-109963Y-630479D01*
X-110039Y-630587D01*
X-110119Y-630693D01*
X-110202Y-630797D01*
X-110288Y-630898D01*
X-110377Y-630996D01*
X-110468Y-631092D01*
X-110563Y-631185D01*
X-110660Y-631275D01*
X-110760Y-631362D01*
X-110862Y-631447D01*
X-110967Y-631528D01*
X-111074Y-631606D01*
X-111183Y-631682D01*
X-111294Y-631753D01*
X-111408Y-631822D01*
X-111523Y-631887D01*
X-111641Y-631949D01*
X-111760Y-632007D01*
X-111881Y-632062D01*
X-112003Y-632113D01*
X-112127Y-632161D01*
X-112252Y-632205D01*
X-112378Y-632245D01*
X-112506Y-632281D01*
X-112634Y-632314D01*
X-112763Y-632343D01*
X-112894Y-632368D01*
X-113024Y-632389D01*
X-113156Y-632407D01*
X-113288Y-632420D01*
X-113420Y-632430D01*
X-113552Y-632436D01*
X-113685Y-632438D01*
X-118201Y-632438D01*
X-118201Y-616182D01*
X-113685Y-616182D01*
X-113566Y-616184D01*
X-113446Y-616190D01*
X-113327Y-616200D01*
X-113209Y-616214D01*
X-113090Y-616231D01*
X-112973Y-616253D01*
X-112856Y-616278D01*
X-112741Y-616308D01*
X-112626Y-616341D01*
X-112512Y-616378D01*
X-112400Y-616418D01*
X-112289Y-616463D01*
X-112180Y-616511D01*
X-112072Y-616562D01*
X-111966Y-616617D01*
X-111862Y-616676D01*
X-111760Y-616738D01*
X-111660Y-616803D01*
X-111562Y-616872D01*
X-111466Y-616944D01*
X-111373Y-617019D01*
X-111283Y-617096D01*
X-111195Y-617177D01*
X-111110Y-617261D01*
X-111028Y-617348D01*
X-110948Y-617437D01*
X-110872Y-617529D01*
X-110798Y-617623D01*
X-110728Y-617720D01*
X-110661Y-617818D01*
X-110597Y-617919D01*
X-110537Y-618023D01*
X-110480Y-618128D01*
X-110427Y-618235D01*
X-110377Y-618343D01*
X-110331Y-618453D01*
X-110289Y-618565D01*
X-110250Y-618678D01*
X-110215Y-618792D01*
X-110184Y-618907D01*
X-110156Y-619024D01*
X-110133Y-619141D01*
X-110113Y-619258D01*
X-110097Y-619377D01*
X-110085Y-619496D01*
X-110077Y-619615D01*
X-110073Y-619734D01*
X-110073Y-619854D01*
X-110077Y-619973D01*
X-110085Y-620092D01*
X-110097Y-620211D01*
X-110113Y-620330D01*
X-110133Y-620447D01*
X-110156Y-620564D01*
X-110184Y-620681D01*
X-110215Y-620796D01*
X-110250Y-620910D01*
X-110289Y-621023D01*
X-110331Y-621135D01*
X-110377Y-621245D01*
X-110427Y-621353D01*
X-110480Y-621460D01*
X-110537Y-621565D01*
X-110597Y-621669D01*
X-110661Y-621770D01*
X-110728Y-621868D01*
X-110798Y-621965D01*
X-110872Y-622059D01*
X-110948Y-622151D01*
X-111028Y-622240D01*
X-111110Y-622327D01*
X-111195Y-622411D01*
X-111283Y-622492D01*
X-111373Y-622569D01*
X-111466Y-622644D01*
X-111562Y-622716D01*
X-111660Y-622785D01*
X-111760Y-622850D01*
X-111862Y-622912D01*
X-111966Y-622971D01*
X-112072Y-623026D01*
X-112180Y-623077D01*
X-112289Y-623125D01*
X-112400Y-623170D01*
X-112512Y-623210D01*
X-112626Y-623247D01*
X-112741Y-623280D01*
X-112856Y-623310D01*
X-112973Y-623335D01*
X-113090Y-623357D01*
X-113209Y-623374D01*
X-113327Y-623388D01*
X-113446Y-623398D01*
X-113566Y-623404D01*
X-113685Y-623406D01*
X-103441Y-625213D02*
X-103441Y-628826D01*
X-103440Y-625213D02*
X-103438Y-625094D01*
X-103432Y-624974D01*
X-103422Y-624855D01*
X-103408Y-624737D01*
X-103391Y-624618D01*
X-103369Y-624501D01*
X-103344Y-624384D01*
X-103314Y-624269D01*
X-103281Y-624154D01*
X-103244Y-624040D01*
X-103204Y-623928D01*
X-103159Y-623817D01*
X-103111Y-623708D01*
X-103060Y-623600D01*
X-103005Y-623494D01*
X-102946Y-623390D01*
X-102884Y-623288D01*
X-102819Y-623188D01*
X-102750Y-623090D01*
X-102678Y-622994D01*
X-102603Y-622901D01*
X-102526Y-622811D01*
X-102445Y-622723D01*
X-102361Y-622638D01*
X-102274Y-622556D01*
X-102185Y-622476D01*
X-102093Y-622400D01*
X-101999Y-622326D01*
X-101902Y-622256D01*
X-101804Y-622189D01*
X-101703Y-622125D01*
X-101599Y-622065D01*
X-101494Y-622008D01*
X-101387Y-621955D01*
X-101279Y-621905D01*
X-101169Y-621859D01*
X-101057Y-621817D01*
X-100944Y-621778D01*
X-100830Y-621743D01*
X-100715Y-621712D01*
X-100598Y-621684D01*
X-100481Y-621661D01*
X-100364Y-621641D01*
X-100245Y-621625D01*
X-100126Y-621613D01*
X-100007Y-621605D01*
X-99888Y-621601D01*
X-99768Y-621601D01*
X-99649Y-621605D01*
X-99530Y-621613D01*
X-99411Y-621625D01*
X-99292Y-621641D01*
X-99175Y-621661D01*
X-99058Y-621684D01*
X-98941Y-621712D01*
X-98826Y-621743D01*
X-98712Y-621778D01*
X-98599Y-621817D01*
X-98487Y-621859D01*
X-98377Y-621905D01*
X-98269Y-621955D01*
X-98162Y-622008D01*
X-98057Y-622065D01*
X-97953Y-622125D01*
X-97852Y-622189D01*
X-97754Y-622256D01*
X-97657Y-622326D01*
X-97563Y-622400D01*
X-97471Y-622476D01*
X-97382Y-622556D01*
X-97295Y-622638D01*
X-97211Y-622723D01*
X-97130Y-622811D01*
X-97053Y-622901D01*
X-96978Y-622994D01*
X-96906Y-623090D01*
X-96837Y-623188D01*
X-96772Y-623288D01*
X-96710Y-623390D01*
X-96651Y-623494D01*
X-96596Y-623600D01*
X-96545Y-623708D01*
X-96497Y-623817D01*
X-96452Y-623928D01*
X-96412Y-624040D01*
X-96375Y-624154D01*
X-96342Y-624269D01*
X-96312Y-624384D01*
X-96287Y-624501D01*
X-96265Y-624618D01*
X-96248Y-624737D01*
X-96234Y-624855D01*
X-96224Y-624974D01*
X-96218Y-625094D01*
X-96216Y-625213D01*
X-96216Y-628826D01*
X-96218Y-628945D01*
X-96224Y-629065D01*
X-96234Y-629184D01*
X-96248Y-629302D01*
X-96265Y-629421D01*
X-96287Y-629538D01*
X-96312Y-629655D01*
X-96342Y-629770D01*
X-96375Y-629885D01*
X-96412Y-629999D01*
X-96452Y-630111D01*
X-96497Y-630222D01*
X-96545Y-630331D01*
X-96596Y-630439D01*
X-96651Y-630545D01*
X-96710Y-630649D01*
X-96772Y-630751D01*
X-96837Y-630851D01*
X-96906Y-630949D01*
X-96978Y-631045D01*
X-97053Y-631138D01*
X-97130Y-631228D01*
X-97211Y-631316D01*
X-97295Y-631401D01*
X-97382Y-631483D01*
X-97471Y-631563D01*
X-97563Y-631639D01*
X-97657Y-631713D01*
X-97754Y-631783D01*
X-97852Y-631850D01*
X-97953Y-631914D01*
X-98057Y-631974D01*
X-98162Y-632031D01*
X-98269Y-632084D01*
X-98377Y-632134D01*
X-98487Y-632180D01*
X-98599Y-632222D01*
X-98712Y-632261D01*
X-98826Y-632296D01*
X-98941Y-632327D01*
X-99058Y-632355D01*
X-99175Y-632378D01*
X-99292Y-632398D01*
X-99411Y-632414D01*
X-99530Y-632426D01*
X-99649Y-632434D01*
X-99768Y-632438D01*
X-99888Y-632438D01*
X-100007Y-632434D01*
X-100126Y-632426D01*
X-100245Y-632414D01*
X-100364Y-632398D01*
X-100481Y-632378D01*
X-100598Y-632355D01*
X-100715Y-632327D01*
X-100830Y-632296D01*
X-100944Y-632261D01*
X-101057Y-632222D01*
X-101169Y-632180D01*
X-101279Y-632134D01*
X-101387Y-632084D01*
X-101494Y-632031D01*
X-101599Y-631974D01*
X-101703Y-631914D01*
X-101804Y-631850D01*
X-101902Y-631783D01*
X-101999Y-631713D01*
X-102093Y-631639D01*
X-102185Y-631563D01*
X-102274Y-631483D01*
X-102361Y-631401D01*
X-102445Y-631316D01*
X-102526Y-631228D01*
X-102603Y-631138D01*
X-102678Y-631045D01*
X-102750Y-630949D01*
X-102819Y-630851D01*
X-102884Y-630751D01*
X-102946Y-630649D01*
X-103005Y-630545D01*
X-103060Y-630439D01*
X-103111Y-630331D01*
X-103159Y-630222D01*
X-103204Y-630111D01*
X-103244Y-629999D01*
X-103281Y-629885D01*
X-103314Y-629770D01*
X-103344Y-629655D01*
X-103369Y-629538D01*
X-103391Y-629421D01*
X-103408Y-629302D01*
X-103422Y-629184D01*
X-103432Y-629065D01*
X-103438Y-628945D01*
X-103440Y-628826D01*
X-91191Y-621601D02*
X-85772Y-621601D01*
X-89385Y-616182D02*
X-89385Y-629729D01*
X-89384Y-629729D02*
X-89382Y-629830D01*
X-89376Y-629931D01*
X-89367Y-630032D01*
X-89354Y-630133D01*
X-89337Y-630233D01*
X-89316Y-630332D01*
X-89292Y-630430D01*
X-89264Y-630527D01*
X-89232Y-630624D01*
X-89197Y-630719D01*
X-89158Y-630812D01*
X-89116Y-630904D01*
X-89070Y-630995D01*
X-89021Y-631084D01*
X-88969Y-631170D01*
X-88913Y-631255D01*
X-88855Y-631338D01*
X-88793Y-631418D01*
X-88728Y-631496D01*
X-88661Y-631572D01*
X-88591Y-631645D01*
X-88518Y-631715D01*
X-88442Y-631782D01*
X-88364Y-631847D01*
X-88284Y-631909D01*
X-88201Y-631967D01*
X-88116Y-632023D01*
X-88030Y-632075D01*
X-87941Y-632124D01*
X-87850Y-632170D01*
X-87758Y-632212D01*
X-87665Y-632251D01*
X-87570Y-632286D01*
X-87473Y-632318D01*
X-87376Y-632346D01*
X-87278Y-632370D01*
X-87179Y-632391D01*
X-87079Y-632408D01*
X-86978Y-632421D01*
X-86877Y-632430D01*
X-86776Y-632436D01*
X-86675Y-632438D01*
X-85772Y-632438D01*
X-81291Y-621601D02*
X-75872Y-621601D01*
X-79485Y-616182D02*
X-79485Y-629729D01*
X-79483Y-629830D01*
X-79477Y-629931D01*
X-79468Y-630032D01*
X-79455Y-630133D01*
X-79438Y-630233D01*
X-79417Y-630332D01*
X-79393Y-630430D01*
X-79365Y-630527D01*
X-79333Y-630624D01*
X-79298Y-630719D01*
X-79259Y-630812D01*
X-79217Y-630904D01*
X-79171Y-630995D01*
X-79122Y-631084D01*
X-79070Y-631170D01*
X-79014Y-631255D01*
X-78956Y-631338D01*
X-78894Y-631418D01*
X-78829Y-631496D01*
X-78762Y-631572D01*
X-78692Y-631645D01*
X-78619Y-631715D01*
X-78543Y-631782D01*
X-78465Y-631847D01*
X-78385Y-631909D01*
X-78302Y-631967D01*
X-78217Y-632023D01*
X-78131Y-632075D01*
X-78042Y-632124D01*
X-77951Y-632170D01*
X-77859Y-632212D01*
X-77766Y-632251D01*
X-77671Y-632286D01*
X-77574Y-632318D01*
X-77477Y-632346D01*
X-77379Y-632370D01*
X-77280Y-632391D01*
X-77180Y-632408D01*
X-77079Y-632421D01*
X-76978Y-632430D01*
X-76877Y-632436D01*
X-76776Y-632438D01*
X-75872Y-632438D01*
X-70094Y-628826D02*
X-70094Y-625213D01*
X-70092Y-625094D01*
X-70086Y-624974D01*
X-70076Y-624855D01*
X-70062Y-624737D01*
X-70045Y-624618D01*
X-70023Y-624501D01*
X-69998Y-624384D01*
X-69968Y-624269D01*
X-69935Y-624154D01*
X-69898Y-624040D01*
X-69858Y-623928D01*
X-69813Y-623817D01*
X-69765Y-623708D01*
X-69714Y-623600D01*
X-69659Y-623494D01*
X-69600Y-623390D01*
X-69538Y-623288D01*
X-69473Y-623188D01*
X-69404Y-623090D01*
X-69332Y-622994D01*
X-69257Y-622901D01*
X-69180Y-622811D01*
X-69099Y-622723D01*
X-69015Y-622638D01*
X-68928Y-622556D01*
X-68839Y-622476D01*
X-68747Y-622400D01*
X-68653Y-622326D01*
X-68556Y-622256D01*
X-68458Y-622189D01*
X-68357Y-622125D01*
X-68253Y-622065D01*
X-68148Y-622008D01*
X-68041Y-621955D01*
X-67933Y-621905D01*
X-67823Y-621859D01*
X-67711Y-621817D01*
X-67598Y-621778D01*
X-67484Y-621743D01*
X-67369Y-621712D01*
X-67252Y-621684D01*
X-67135Y-621661D01*
X-67018Y-621641D01*
X-66899Y-621625D01*
X-66780Y-621613D01*
X-66661Y-621605D01*
X-66542Y-621601D01*
X-66422Y-621601D01*
X-66303Y-621605D01*
X-66184Y-621613D01*
X-66065Y-621625D01*
X-65946Y-621641D01*
X-65829Y-621661D01*
X-65712Y-621684D01*
X-65595Y-621712D01*
X-65480Y-621743D01*
X-65366Y-621778D01*
X-65253Y-621817D01*
X-65141Y-621859D01*
X-65031Y-621905D01*
X-64923Y-621955D01*
X-64816Y-622008D01*
X-64711Y-622065D01*
X-64607Y-622125D01*
X-64506Y-622189D01*
X-64408Y-622256D01*
X-64311Y-622326D01*
X-64217Y-622400D01*
X-64125Y-622476D01*
X-64036Y-622556D01*
X-63949Y-622638D01*
X-63865Y-622723D01*
X-63784Y-622811D01*
X-63707Y-622901D01*
X-63632Y-622994D01*
X-63560Y-623090D01*
X-63491Y-623188D01*
X-63426Y-623288D01*
X-63364Y-623390D01*
X-63305Y-623494D01*
X-63250Y-623600D01*
X-63199Y-623708D01*
X-63151Y-623817D01*
X-63106Y-623928D01*
X-63066Y-624040D01*
X-63029Y-624154D01*
X-62996Y-624269D01*
X-62966Y-624384D01*
X-62941Y-624501D01*
X-62919Y-624618D01*
X-62902Y-624737D01*
X-62888Y-624855D01*
X-62878Y-624974D01*
X-62872Y-625094D01*
X-62870Y-625213D01*
X-62869Y-625213D02*
X-62869Y-628826D01*
X-62870Y-628826D02*
X-62872Y-628945D01*
X-62878Y-629065D01*
X-62888Y-629184D01*
X-62902Y-629302D01*
X-62919Y-629421D01*
X-62941Y-629538D01*
X-62966Y-629655D01*
X-62996Y-629770D01*
X-63029Y-629885D01*
X-63066Y-629999D01*
X-63106Y-630111D01*
X-63151Y-630222D01*
X-63199Y-630331D01*
X-63250Y-630439D01*
X-63305Y-630545D01*
X-63364Y-630649D01*
X-63426Y-630751D01*
X-63491Y-630851D01*
X-63560Y-630949D01*
X-63632Y-631045D01*
X-63707Y-631138D01*
X-63784Y-631228D01*
X-63865Y-631316D01*
X-63949Y-631401D01*
X-64036Y-631483D01*
X-64125Y-631563D01*
X-64217Y-631639D01*
X-64311Y-631713D01*
X-64408Y-631783D01*
X-64506Y-631850D01*
X-64607Y-631914D01*
X-64711Y-631974D01*
X-64816Y-632031D01*
X-64923Y-632084D01*
X-65031Y-632134D01*
X-65141Y-632180D01*
X-65253Y-632222D01*
X-65366Y-632261D01*
X-65480Y-632296D01*
X-65595Y-632327D01*
X-65712Y-632355D01*
X-65829Y-632378D01*
X-65946Y-632398D01*
X-66065Y-632414D01*
X-66184Y-632426D01*
X-66303Y-632434D01*
X-66422Y-632438D01*
X-66542Y-632438D01*
X-66661Y-632434D01*
X-66780Y-632426D01*
X-66899Y-632414D01*
X-67018Y-632398D01*
X-67135Y-632378D01*
X-67252Y-632355D01*
X-67369Y-632327D01*
X-67484Y-632296D01*
X-67598Y-632261D01*
X-67711Y-632222D01*
X-67823Y-632180D01*
X-67933Y-632134D01*
X-68041Y-632084D01*
X-68148Y-632031D01*
X-68253Y-631974D01*
X-68357Y-631914D01*
X-68458Y-631850D01*
X-68556Y-631783D01*
X-68653Y-631713D01*
X-68747Y-631639D01*
X-68839Y-631563D01*
X-68928Y-631483D01*
X-69015Y-631401D01*
X-69099Y-631316D01*
X-69180Y-631228D01*
X-69257Y-631138D01*
X-69332Y-631045D01*
X-69404Y-630949D01*
X-69473Y-630851D01*
X-69538Y-630751D01*
X-69600Y-630649D01*
X-69659Y-630545D01*
X-69714Y-630439D01*
X-69765Y-630331D01*
X-69813Y-630222D01*
X-69858Y-630111D01*
X-69898Y-629999D01*
X-69935Y-629885D01*
X-69968Y-629770D01*
X-69998Y-629655D01*
X-70023Y-629538D01*
X-70045Y-629421D01*
X-70062Y-629302D01*
X-70076Y-629184D01*
X-70086Y-629065D01*
X-70092Y-628945D01*
X-70094Y-628826D01*
X-55748Y-632438D02*
X-55748Y-621601D01*
X-47620Y-621601D01*
X-47519Y-621603D01*
X-47418Y-621609D01*
X-47317Y-621618D01*
X-47216Y-621631D01*
X-47116Y-621648D01*
X-47017Y-621669D01*
X-46919Y-621693D01*
X-46822Y-621721D01*
X-46725Y-621753D01*
X-46630Y-621788D01*
X-46537Y-621827D01*
X-46445Y-621869D01*
X-46354Y-621915D01*
X-46266Y-621964D01*
X-46179Y-622016D01*
X-46094Y-622072D01*
X-46011Y-622130D01*
X-45931Y-622192D01*
X-45853Y-622257D01*
X-45777Y-622324D01*
X-45704Y-622394D01*
X-45634Y-622467D01*
X-45567Y-622543D01*
X-45502Y-622621D01*
X-45440Y-622701D01*
X-45382Y-622784D01*
X-45326Y-622869D01*
X-45274Y-622956D01*
X-45225Y-623044D01*
X-45179Y-623135D01*
X-45137Y-623227D01*
X-45098Y-623320D01*
X-45063Y-623415D01*
X-45031Y-623512D01*
X-45003Y-623609D01*
X-44979Y-623707D01*
X-44958Y-623806D01*
X-44941Y-623906D01*
X-44928Y-624007D01*
X-44919Y-624108D01*
X-44913Y-624209D01*
X-44911Y-624310D01*
X-44911Y-632438D01*
X-50329Y-632438D02*
X-50329Y-621601D01*
X-24416Y-632438D02*
X-24298Y-632436D01*
X-24180Y-632430D01*
X-24062Y-632421D01*
X-23945Y-632407D01*
X-23828Y-632390D01*
X-23711Y-632369D01*
X-23596Y-632344D01*
X-23481Y-632315D01*
X-23367Y-632282D01*
X-23255Y-632246D01*
X-23144Y-632206D01*
X-23034Y-632163D01*
X-22925Y-632116D01*
X-22818Y-632066D01*
X-22713Y-632011D01*
X-22610Y-631954D01*
X-22509Y-631893D01*
X-22409Y-631829D01*
X-22312Y-631762D01*
X-22217Y-631692D01*
X-22125Y-631618D01*
X-22034Y-631542D01*
X-21947Y-631462D01*
X-21862Y-631380D01*
X-21780Y-631295D01*
X-21700Y-631208D01*
X-21624Y-631117D01*
X-21550Y-631025D01*
X-21480Y-630930D01*
X-21413Y-630833D01*
X-21349Y-630733D01*
X-21288Y-630632D01*
X-21231Y-630529D01*
X-21176Y-630424D01*
X-21126Y-630317D01*
X-21079Y-630208D01*
X-21036Y-630098D01*
X-20996Y-629987D01*
X-20960Y-629875D01*
X-20927Y-629761D01*
X-20898Y-629646D01*
X-20873Y-629531D01*
X-20852Y-629414D01*
X-20835Y-629297D01*
X-20821Y-629180D01*
X-20812Y-629062D01*
X-20806Y-628944D01*
X-20804Y-628826D01*
X-24416Y-632438D02*
X-24599Y-632436D01*
X-24781Y-632429D01*
X-24963Y-632418D01*
X-25145Y-632403D01*
X-25327Y-632383D01*
X-25508Y-632359D01*
X-25688Y-632331D01*
X-25868Y-632299D01*
X-26047Y-632262D01*
X-26224Y-632221D01*
X-26401Y-632175D01*
X-26577Y-632126D01*
X-26752Y-632072D01*
X-26925Y-632014D01*
X-27096Y-631952D01*
X-27267Y-631886D01*
X-27435Y-631815D01*
X-27602Y-631741D01*
X-27767Y-631663D01*
X-27930Y-631581D01*
X-28091Y-631495D01*
X-28250Y-631405D01*
X-28407Y-631311D01*
X-28561Y-631214D01*
X-28713Y-631113D01*
X-28863Y-631008D01*
X-29010Y-630900D01*
X-29154Y-630789D01*
X-29296Y-630674D01*
X-29435Y-630555D01*
X-29571Y-630433D01*
X-29704Y-630308D01*
X-29834Y-630180D01*
X-29384Y-619794D02*
X-29382Y-619676D01*
X-29376Y-619558D01*
X-29367Y-619440D01*
X-29353Y-619322D01*
X-29336Y-619205D01*
X-29315Y-619089D01*
X-29290Y-618974D01*
X-29261Y-618859D01*
X-29228Y-618745D01*
X-29192Y-618633D01*
X-29152Y-618521D01*
X-29109Y-618411D01*
X-29062Y-618303D01*
X-29011Y-618196D01*
X-28957Y-618091D01*
X-28900Y-617988D01*
X-28839Y-617886D01*
X-28775Y-617787D01*
X-28708Y-617690D01*
X-28637Y-617595D01*
X-28564Y-617502D01*
X-28487Y-617412D01*
X-28408Y-617324D01*
X-28326Y-617239D01*
X-28241Y-617157D01*
X-28153Y-617078D01*
X-28063Y-617001D01*
X-27970Y-616928D01*
X-27876Y-616857D01*
X-27778Y-616790D01*
X-27679Y-616726D01*
X-27578Y-616665D01*
X-27474Y-616608D01*
X-27369Y-616554D01*
X-27262Y-616503D01*
X-27154Y-616456D01*
X-27044Y-616413D01*
X-26932Y-616373D01*
X-26820Y-616337D01*
X-26706Y-616304D01*
X-26591Y-616275D01*
X-26476Y-616250D01*
X-26360Y-616229D01*
X-26243Y-616212D01*
X-26125Y-616198D01*
X-26007Y-616189D01*
X-25889Y-616183D01*
X-25771Y-616181D01*
X-25771Y-616182D02*
X-25610Y-616184D01*
X-25448Y-616190D01*
X-25287Y-616199D01*
X-25126Y-616213D01*
X-24966Y-616230D01*
X-24806Y-616251D01*
X-24646Y-616276D01*
X-24487Y-616305D01*
X-24329Y-616337D01*
X-24172Y-616373D01*
X-24016Y-616413D01*
X-23860Y-616457D01*
X-23706Y-616505D01*
X-23553Y-616556D01*
X-23401Y-616610D01*
X-23250Y-616669D01*
X-23101Y-616730D01*
X-22954Y-616796D01*
X-22808Y-616865D01*
X-22663Y-616937D01*
X-22521Y-617013D01*
X-22380Y-617092D01*
X-22241Y-617174D01*
X-22105Y-617260D01*
X-21970Y-617349D01*
X-21837Y-617441D01*
X-21707Y-617537D01*
X-27578Y-622955D02*
X-27679Y-622893D01*
X-27779Y-622828D01*
X-27876Y-622759D01*
X-27971Y-622687D01*
X-28064Y-622613D01*
X-28154Y-622535D01*
X-28242Y-622454D01*
X-28327Y-622371D01*
X-28409Y-622285D01*
X-28488Y-622196D01*
X-28565Y-622105D01*
X-28638Y-622011D01*
X-28709Y-621915D01*
X-28776Y-621817D01*
X-28840Y-621717D01*
X-28901Y-621614D01*
X-28958Y-621510D01*
X-29012Y-621404D01*
X-29062Y-621296D01*
X-29109Y-621187D01*
X-29153Y-621076D01*
X-29193Y-620964D01*
X-29229Y-620850D01*
X-29261Y-620736D01*
X-29290Y-620620D01*
X-29315Y-620504D01*
X-29336Y-620387D01*
X-29353Y-620269D01*
X-29367Y-620151D01*
X-29376Y-620032D01*
X-29382Y-619913D01*
X-29384Y-619794D01*
X-22610Y-625665D02*
X-22509Y-625727D01*
X-22409Y-625792D01*
X-22312Y-625861D01*
X-22217Y-625933D01*
X-22124Y-626007D01*
X-22034Y-626085D01*
X-21946Y-626166D01*
X-21861Y-626249D01*
X-21779Y-626335D01*
X-21700Y-626424D01*
X-21623Y-626515D01*
X-21550Y-626609D01*
X-21479Y-626705D01*
X-21412Y-626803D01*
X-21348Y-626903D01*
X-21287Y-627006D01*
X-21230Y-627110D01*
X-21176Y-627216D01*
X-21126Y-627324D01*
X-21079Y-627433D01*
X-21035Y-627544D01*
X-20995Y-627656D01*
X-20959Y-627770D01*
X-20927Y-627884D01*
X-20898Y-628000D01*
X-20873Y-628116D01*
X-20852Y-628233D01*
X-20835Y-628351D01*
X-20821Y-628469D01*
X-20812Y-628588D01*
X-20806Y-628707D01*
X-20804Y-628826D01*
X-22610Y-625665D02*
X-27577Y-622955D01*
X-14864Y-625213D02*
X-14864Y-628826D01*
X-14863Y-625213D02*
X-14861Y-625094D01*
X-14855Y-624974D01*
X-14845Y-624855D01*
X-14831Y-624737D01*
X-14814Y-624618D01*
X-14792Y-624501D01*
X-14767Y-624384D01*
X-14737Y-624269D01*
X-14704Y-624154D01*
X-14667Y-624040D01*
X-14627Y-623928D01*
X-14582Y-623817D01*
X-14534Y-623708D01*
X-14483Y-623600D01*
X-14428Y-623494D01*
X-14369Y-623390D01*
X-14307Y-623288D01*
X-14242Y-623188D01*
X-14173Y-623090D01*
X-14101Y-622994D01*
X-14026Y-622901D01*
X-13949Y-622811D01*
X-13868Y-622723D01*
X-13784Y-622638D01*
X-13697Y-622556D01*
X-13608Y-622476D01*
X-13516Y-622400D01*
X-13422Y-622326D01*
X-13325Y-622256D01*
X-13227Y-622189D01*
X-13126Y-622125D01*
X-13022Y-622065D01*
X-12917Y-622008D01*
X-12810Y-621955D01*
X-12702Y-621905D01*
X-12592Y-621859D01*
X-12480Y-621817D01*
X-12367Y-621778D01*
X-12253Y-621743D01*
X-12138Y-621712D01*
X-12021Y-621684D01*
X-11904Y-621661D01*
X-11787Y-621641D01*
X-11668Y-621625D01*
X-11549Y-621613D01*
X-11430Y-621605D01*
X-11311Y-621601D01*
X-11191Y-621601D01*
X-11072Y-621605D01*
X-10953Y-621613D01*
X-10834Y-621625D01*
X-10715Y-621641D01*
X-10598Y-621661D01*
X-10481Y-621684D01*
X-10364Y-621712D01*
X-10249Y-621743D01*
X-10135Y-621778D01*
X-10022Y-621817D01*
X-9910Y-621859D01*
X-9800Y-621905D01*
X-9692Y-621955D01*
X-9585Y-622008D01*
X-9480Y-622065D01*
X-9376Y-622125D01*
X-9275Y-622189D01*
X-9177Y-622256D01*
X-9080Y-622326D01*
X-8986Y-622400D01*
X-8894Y-622476D01*
X-8805Y-622556D01*
X-8718Y-622638D01*
X-8634Y-622723D01*
X-8553Y-622811D01*
X-8476Y-622901D01*
X-8401Y-622994D01*
X-8329Y-623090D01*
X-8260Y-623188D01*
X-8195Y-623288D01*
X-8133Y-623390D01*
X-8074Y-623494D01*
X-8019Y-623600D01*
X-7968Y-623708D01*
X-7920Y-623817D01*
X-7875Y-623928D01*
X-7835Y-624040D01*
X-7798Y-624154D01*
X-7765Y-624269D01*
X-7735Y-624384D01*
X-7710Y-624501D01*
X-7688Y-624618D01*
X-7671Y-624737D01*
X-7657Y-624855D01*
X-7647Y-624974D01*
X-7641Y-625094D01*
X-7639Y-625213D01*
X-7639Y-628826D01*
X-7641Y-628945D01*
X-7647Y-629065D01*
X-7657Y-629184D01*
X-7671Y-629302D01*
X-7688Y-629421D01*
X-7710Y-629538D01*
X-7735Y-629655D01*
X-7765Y-629770D01*
X-7798Y-629885D01*
X-7835Y-629999D01*
X-7875Y-630111D01*
X-7920Y-630222D01*
X-7968Y-630331D01*
X-8019Y-630439D01*
X-8074Y-630545D01*
X-8133Y-630649D01*
X-8195Y-630751D01*
X-8260Y-630851D01*
X-8329Y-630949D01*
X-8401Y-631045D01*
X-8476Y-631138D01*
X-8553Y-631228D01*
X-8634Y-631316D01*
X-8718Y-631401D01*
X-8805Y-631483D01*
X-8894Y-631563D01*
X-8986Y-631639D01*
X-9080Y-631713D01*
X-9177Y-631783D01*
X-9275Y-631850D01*
X-9376Y-631914D01*
X-9480Y-631974D01*
X-9585Y-632031D01*
X-9692Y-632084D01*
X-9800Y-632134D01*
X-9910Y-632180D01*
X-10022Y-632222D01*
X-10135Y-632261D01*
X-10249Y-632296D01*
X-10364Y-632327D01*
X-10481Y-632355D01*
X-10598Y-632378D01*
X-10715Y-632398D01*
X-10834Y-632414D01*
X-10953Y-632426D01*
X-11072Y-632434D01*
X-11191Y-632438D01*
X-11311Y-632438D01*
X-11430Y-632434D01*
X-11549Y-632426D01*
X-11668Y-632414D01*
X-11787Y-632398D01*
X-11904Y-632378D01*
X-12021Y-632355D01*
X-12138Y-632327D01*
X-12253Y-632296D01*
X-12367Y-632261D01*
X-12480Y-632222D01*
X-12592Y-632180D01*
X-12702Y-632134D01*
X-12810Y-632084D01*
X-12917Y-632031D01*
X-13022Y-631974D01*
X-13126Y-631914D01*
X-13227Y-631850D01*
X-13325Y-631783D01*
X-13422Y-631713D01*
X-13516Y-631639D01*
X-13608Y-631563D01*
X-13697Y-631483D01*
X-13784Y-631401D01*
X-13868Y-631316D01*
X-13949Y-631228D01*
X-14026Y-631138D01*
X-14101Y-631045D01*
X-14173Y-630949D01*
X-14242Y-630851D01*
X-14307Y-630751D01*
X-14369Y-630649D01*
X-14428Y-630545D01*
X-14483Y-630439D01*
X-14534Y-630331D01*
X-14582Y-630222D01*
X-14627Y-630111D01*
X-14667Y-629999D01*
X-14704Y-629885D01*
X-14737Y-629770D01*
X-14767Y-629655D01*
X-14792Y-629538D01*
X-14814Y-629421D01*
X-14831Y-629302D01*
X-14845Y-629184D01*
X-14855Y-629065D01*
X-14861Y-628945D01*
X-14863Y-628826D01*
X-1080Y-629729D02*
X-1080Y-616182D01*
X-1079Y-629729D02*
X-1077Y-629830D01*
X-1071Y-629931D01*
X-1062Y-630032D01*
X-1049Y-630133D01*
X-1032Y-630233D01*
X-1011Y-630332D01*
X-987Y-630430D01*
X-959Y-630527D01*
X-927Y-630624D01*
X-892Y-630719D01*
X-853Y-630812D01*
X-811Y-630904D01*
X-765Y-630995D01*
X-716Y-631084D01*
X-664Y-631170D01*
X-608Y-631255D01*
X-550Y-631338D01*
X-488Y-631418D01*
X-423Y-631496D01*
X-356Y-631572D01*
X-286Y-631645D01*
X-213Y-631715D01*
X-137Y-631782D01*
X-59Y-631847D01*
X21Y-631909D01*
X104Y-631967D01*
X189Y-632023D01*
X276Y-632075D01*
X364Y-632124D01*
X455Y-632170D01*
X547Y-632212D01*
X640Y-632251D01*
X735Y-632286D01*
X832Y-632318D01*
X929Y-632346D01*
X1027Y-632370D01*
X1126Y-632391D01*
X1226Y-632408D01*
X1327Y-632421D01*
X1428Y-632430D01*
X1529Y-632436D01*
X1630Y-632438D01*
X14172Y-632438D02*
X14172Y-616182D01*
X14172Y-632438D02*
X9656Y-632438D01*
X9555Y-632436D01*
X9454Y-632430D01*
X9353Y-632421D01*
X9252Y-632408D01*
X9152Y-632391D01*
X9053Y-632370D01*
X8955Y-632346D01*
X8858Y-632318D01*
X8761Y-632286D01*
X8666Y-632251D01*
X8573Y-632212D01*
X8481Y-632170D01*
X8390Y-632124D01*
X8302Y-632075D01*
X8215Y-632023D01*
X8130Y-631967D01*
X8047Y-631909D01*
X7967Y-631847D01*
X7889Y-631782D01*
X7813Y-631715D01*
X7740Y-631645D01*
X7670Y-631572D01*
X7603Y-631496D01*
X7538Y-631418D01*
X7476Y-631338D01*
X7418Y-631255D01*
X7362Y-631170D01*
X7310Y-631084D01*
X7261Y-630995D01*
X7215Y-630904D01*
X7173Y-630812D01*
X7134Y-630719D01*
X7099Y-630624D01*
X7067Y-630527D01*
X7039Y-630430D01*
X7015Y-630332D01*
X6994Y-630233D01*
X6977Y-630133D01*
X6964Y-630032D01*
X6955Y-629931D01*
X6949Y-629830D01*
X6947Y-629729D01*
X6947Y-624310D01*
X6949Y-624209D01*
X6955Y-624108D01*
X6964Y-624007D01*
X6977Y-623906D01*
X6994Y-623806D01*
X7015Y-623707D01*
X7039Y-623609D01*
X7067Y-623512D01*
X7099Y-623415D01*
X7134Y-623320D01*
X7173Y-623227D01*
X7215Y-623135D01*
X7261Y-623044D01*
X7310Y-622956D01*
X7362Y-622869D01*
X7418Y-622784D01*
X7476Y-622701D01*
X7538Y-622621D01*
X7603Y-622543D01*
X7670Y-622467D01*
X7740Y-622394D01*
X7813Y-622324D01*
X7889Y-622257D01*
X7967Y-622192D01*
X8047Y-622130D01*
X8130Y-622072D01*
X8215Y-622016D01*
X8302Y-621964D01*
X8390Y-621915D01*
X8481Y-621869D01*
X8573Y-621827D01*
X8666Y-621788D01*
X8761Y-621753D01*
X8858Y-621721D01*
X8955Y-621693D01*
X9053Y-621669D01*
X9152Y-621648D01*
X9252Y-621631D01*
X9353Y-621618D01*
X9454Y-621609D01*
X9555Y-621603D01*
X9656Y-621601D01*
X14172Y-621601D01*
X23797Y-632438D02*
X28313Y-632438D01*
X23797Y-632438D02*
X23696Y-632436D01*
X23595Y-632430D01*
X23494Y-632421D01*
X23393Y-632408D01*
X23293Y-632391D01*
X23194Y-632370D01*
X23096Y-632346D01*
X22999Y-632318D01*
X22902Y-632286D01*
X22807Y-632251D01*
X22714Y-632212D01*
X22622Y-632170D01*
X22531Y-632124D01*
X22443Y-632075D01*
X22356Y-632023D01*
X22271Y-631967D01*
X22188Y-631909D01*
X22108Y-631847D01*
X22030Y-631782D01*
X21954Y-631715D01*
X21881Y-631645D01*
X21811Y-631572D01*
X21744Y-631496D01*
X21679Y-631418D01*
X21617Y-631338D01*
X21559Y-631255D01*
X21503Y-631170D01*
X21451Y-631084D01*
X21402Y-630995D01*
X21356Y-630904D01*
X21314Y-630812D01*
X21275Y-630719D01*
X21240Y-630624D01*
X21208Y-630527D01*
X21180Y-630430D01*
X21156Y-630332D01*
X21135Y-630233D01*
X21118Y-630133D01*
X21105Y-630032D01*
X21096Y-629931D01*
X21090Y-629830D01*
X21088Y-629729D01*
X21088Y-625213D01*
X21089Y-625213D02*
X21091Y-625094D01*
X21097Y-624974D01*
X21107Y-624855D01*
X21121Y-624737D01*
X21138Y-624618D01*
X21160Y-624501D01*
X21185Y-624384D01*
X21215Y-624269D01*
X21248Y-624154D01*
X21285Y-624040D01*
X21325Y-623928D01*
X21370Y-623817D01*
X21418Y-623708D01*
X21469Y-623600D01*
X21524Y-623494D01*
X21583Y-623390D01*
X21645Y-623288D01*
X21710Y-623188D01*
X21779Y-623090D01*
X21851Y-622994D01*
X21926Y-622901D01*
X22003Y-622811D01*
X22084Y-622723D01*
X22168Y-622638D01*
X22255Y-622556D01*
X22344Y-622476D01*
X22436Y-622400D01*
X22530Y-622326D01*
X22627Y-622256D01*
X22725Y-622189D01*
X22826Y-622125D01*
X22930Y-622065D01*
X23035Y-622008D01*
X23142Y-621955D01*
X23250Y-621905D01*
X23360Y-621859D01*
X23472Y-621817D01*
X23585Y-621778D01*
X23699Y-621743D01*
X23814Y-621712D01*
X23931Y-621684D01*
X24048Y-621661D01*
X24165Y-621641D01*
X24284Y-621625D01*
X24403Y-621613D01*
X24522Y-621605D01*
X24641Y-621601D01*
X24761Y-621601D01*
X24880Y-621605D01*
X24999Y-621613D01*
X25118Y-621625D01*
X25237Y-621641D01*
X25354Y-621661D01*
X25471Y-621684D01*
X25588Y-621712D01*
X25703Y-621743D01*
X25817Y-621778D01*
X25930Y-621817D01*
X26042Y-621859D01*
X26152Y-621905D01*
X26260Y-621955D01*
X26367Y-622008D01*
X26472Y-622065D01*
X26576Y-622125D01*
X26677Y-622189D01*
X26775Y-622256D01*
X26872Y-622326D01*
X26966Y-622400D01*
X27058Y-622476D01*
X27147Y-622556D01*
X27234Y-622638D01*
X27318Y-622723D01*
X27399Y-622811D01*
X27476Y-622901D01*
X27551Y-622994D01*
X27623Y-623090D01*
X27692Y-623188D01*
X27757Y-623288D01*
X27819Y-623390D01*
X27878Y-623494D01*
X27933Y-623600D01*
X27984Y-623708D01*
X28032Y-623817D01*
X28077Y-623928D01*
X28117Y-624040D01*
X28154Y-624154D01*
X28187Y-624269D01*
X28217Y-624384D01*
X28242Y-624501D01*
X28264Y-624618D01*
X28281Y-624737D01*
X28295Y-624855D01*
X28305Y-624974D01*
X28311Y-625094D01*
X28313Y-625213D01*
X28313Y-627019D01*
X21088Y-627019D01*
X35241Y-632438D02*
X35241Y-621601D01*
X40660Y-621601D01*
X40660Y-623407D01*
X54713Y-616182D02*
X54713Y-632438D01*
X60131Y-625213D02*
X54713Y-616182D01*
X60131Y-625213D02*
X65550Y-616182D01*
X65550Y-632438D01*
X75759Y-626116D02*
X79823Y-626116D01*
X75759Y-626116D02*
X75647Y-626118D01*
X75536Y-626124D01*
X75425Y-626134D01*
X75314Y-626147D01*
X75204Y-626165D01*
X75095Y-626187D01*
X74986Y-626212D01*
X74878Y-626241D01*
X74772Y-626274D01*
X74666Y-626311D01*
X74562Y-626351D01*
X74460Y-626395D01*
X74359Y-626443D01*
X74260Y-626494D01*
X74162Y-626549D01*
X74067Y-626607D01*
X73974Y-626668D01*
X73883Y-626733D01*
X73794Y-626801D01*
X73708Y-626872D01*
X73625Y-626945D01*
X73544Y-627022D01*
X73465Y-627102D01*
X73390Y-627184D01*
X73318Y-627269D01*
X73248Y-627356D01*
X73182Y-627446D01*
X73119Y-627538D01*
X73059Y-627633D01*
X73003Y-627729D01*
X72950Y-627827D01*
X72901Y-627927D01*
X72855Y-628029D01*
X72813Y-628132D01*
X72774Y-628237D01*
X72739Y-628343D01*
X72708Y-628450D01*
X72681Y-628558D01*
X72657Y-628667D01*
X72638Y-628777D01*
X72622Y-628887D01*
X72610Y-628998D01*
X72602Y-629110D01*
X72598Y-629221D01*
X72598Y-629333D01*
X72602Y-629444D01*
X72610Y-629556D01*
X72622Y-629667D01*
X72638Y-629777D01*
X72657Y-629887D01*
X72681Y-629996D01*
X72708Y-630104D01*
X72739Y-630211D01*
X72774Y-630317D01*
X72813Y-630422D01*
X72855Y-630525D01*
X72901Y-630627D01*
X72950Y-630727D01*
X73003Y-630825D01*
X73059Y-630921D01*
X73119Y-631016D01*
X73182Y-631108D01*
X73248Y-631198D01*
X73318Y-631285D01*
X73390Y-631370D01*
X73465Y-631452D01*
X73544Y-631532D01*
X73625Y-631609D01*
X73708Y-631682D01*
X73794Y-631753D01*
X73883Y-631821D01*
X73974Y-631886D01*
X74067Y-631947D01*
X74162Y-632005D01*
X74260Y-632060D01*
X74359Y-632111D01*
X74460Y-632159D01*
X74562Y-632203D01*
X74666Y-632243D01*
X74772Y-632280D01*
X74878Y-632313D01*
X74986Y-632342D01*
X75095Y-632367D01*
X75204Y-632389D01*
X75314Y-632407D01*
X75425Y-632420D01*
X75536Y-632430D01*
X75647Y-632436D01*
X75759Y-632438D01*
X79823Y-632438D01*
X79823Y-624310D01*
X79822Y-624310D02*
X79820Y-624209D01*
X79814Y-624108D01*
X79805Y-624007D01*
X79792Y-623906D01*
X79775Y-623806D01*
X79754Y-623707D01*
X79730Y-623609D01*
X79702Y-623512D01*
X79670Y-623415D01*
X79635Y-623320D01*
X79596Y-623227D01*
X79554Y-623135D01*
X79508Y-623044D01*
X79459Y-622956D01*
X79407Y-622869D01*
X79351Y-622784D01*
X79293Y-622701D01*
X79231Y-622621D01*
X79166Y-622543D01*
X79099Y-622467D01*
X79029Y-622394D01*
X78956Y-622324D01*
X78880Y-622257D01*
X78802Y-622192D01*
X78722Y-622130D01*
X78639Y-622072D01*
X78554Y-622016D01*
X78468Y-621964D01*
X78379Y-621915D01*
X78288Y-621869D01*
X78196Y-621827D01*
X78103Y-621788D01*
X78008Y-621753D01*
X77911Y-621721D01*
X77814Y-621693D01*
X77716Y-621669D01*
X77617Y-621648D01*
X77517Y-621631D01*
X77416Y-621618D01*
X77315Y-621609D01*
X77214Y-621603D01*
X77113Y-621601D01*
X73501Y-621601D01*
X88094Y-626116D02*
X92609Y-627922D01*
X88094Y-626116D02*
X88006Y-626079D01*
X87920Y-626038D01*
X87835Y-625994D01*
X87752Y-625946D01*
X87672Y-625895D01*
X87593Y-625841D01*
X87517Y-625783D01*
X87443Y-625723D01*
X87371Y-625659D01*
X87303Y-625593D01*
X87237Y-625523D01*
X87174Y-625452D01*
X87113Y-625377D01*
X87056Y-625301D01*
X87003Y-625222D01*
X86952Y-625141D01*
X86905Y-625058D01*
X86861Y-624973D01*
X86821Y-624886D01*
X86784Y-624798D01*
X86751Y-624708D01*
X86721Y-624617D01*
X86696Y-624525D01*
X86674Y-624432D01*
X86656Y-624338D01*
X86641Y-624244D01*
X86631Y-624149D01*
X86625Y-624053D01*
X86622Y-623958D01*
X86623Y-623862D01*
X86629Y-623767D01*
X86638Y-623671D01*
X86651Y-623577D01*
X86667Y-623483D01*
X86688Y-623389D01*
X86713Y-623297D01*
X86741Y-623206D01*
X86773Y-623116D01*
X86808Y-623027D01*
X86847Y-622940D01*
X86890Y-622854D01*
X86936Y-622770D01*
X86986Y-622689D01*
X87038Y-622609D01*
X87094Y-622531D01*
X87154Y-622456D01*
X87216Y-622384D01*
X87281Y-622314D01*
X87349Y-622246D01*
X87419Y-622182D01*
X87492Y-622120D01*
X87568Y-622062D01*
X87646Y-622006D01*
X87726Y-621954D01*
X87808Y-621905D01*
X87892Y-621860D01*
X87978Y-621818D01*
X88065Y-621779D01*
X88154Y-621744D01*
X88245Y-621713D01*
X88336Y-621686D01*
X88429Y-621662D01*
X88522Y-621642D01*
X88616Y-621626D01*
X88711Y-621614D01*
X88806Y-621605D01*
X88902Y-621601D01*
X88997Y-621600D01*
X89244Y-621607D01*
X89490Y-621619D01*
X89736Y-621637D01*
X89982Y-621662D01*
X90226Y-621692D01*
X90470Y-621728D01*
X90713Y-621770D01*
X90955Y-621817D01*
X91196Y-621871D01*
X91435Y-621930D01*
X91673Y-621995D01*
X91910Y-622066D01*
X92144Y-622142D01*
X92377Y-622224D01*
X92607Y-622312D01*
X92835Y-622405D01*
X93062Y-622503D01*
X92610Y-627923D02*
X92698Y-627960D01*
X92784Y-628001D01*
X92869Y-628045D01*
X92952Y-628093D01*
X93032Y-628144D01*
X93111Y-628198D01*
X93187Y-628256D01*
X93261Y-628316D01*
X93333Y-628380D01*
X93401Y-628446D01*
X93467Y-628516D01*
X93530Y-628587D01*
X93591Y-628662D01*
X93648Y-628738D01*
X93701Y-628817D01*
X93752Y-628898D01*
X93799Y-628981D01*
X93843Y-629066D01*
X93883Y-629153D01*
X93920Y-629241D01*
X93953Y-629331D01*
X93983Y-629422D01*
X94008Y-629514D01*
X94030Y-629607D01*
X94048Y-629701D01*
X94063Y-629795D01*
X94073Y-629890D01*
X94079Y-629986D01*
X94082Y-630081D01*
X94081Y-630177D01*
X94075Y-630272D01*
X94066Y-630368D01*
X94053Y-630462D01*
X94037Y-630556D01*
X94016Y-630650D01*
X93991Y-630742D01*
X93963Y-630833D01*
X93931Y-630923D01*
X93896Y-631012D01*
X93857Y-631099D01*
X93814Y-631185D01*
X93768Y-631269D01*
X93718Y-631350D01*
X93666Y-631430D01*
X93610Y-631508D01*
X93550Y-631583D01*
X93488Y-631655D01*
X93423Y-631725D01*
X93355Y-631793D01*
X93285Y-631857D01*
X93212Y-631919D01*
X93136Y-631977D01*
X93058Y-632033D01*
X92978Y-632085D01*
X92896Y-632134D01*
X92812Y-632179D01*
X92726Y-632221D01*
X92639Y-632260D01*
X92550Y-632295D01*
X92459Y-632326D01*
X92368Y-632353D01*
X92275Y-632377D01*
X92182Y-632397D01*
X92088Y-632413D01*
X91993Y-632425D01*
X91898Y-632434D01*
X91802Y-632438D01*
X91707Y-632439D01*
X91706Y-632438D02*
X91344Y-632429D01*
X90982Y-632411D01*
X90621Y-632384D01*
X90261Y-632349D01*
X89901Y-632306D01*
X89542Y-632254D01*
X89185Y-632193D01*
X88830Y-632124D01*
X88476Y-632047D01*
X88124Y-631961D01*
X87774Y-631867D01*
X87426Y-631764D01*
X87081Y-631654D01*
X86739Y-631535D01*
X100976Y-632438D02*
X100976Y-616182D01*
X108201Y-621601D02*
X100976Y-627019D01*
X104137Y-624762D02*
X108201Y-632438D01*
D18*
X-160000Y142700D03*
D19*
X-160000Y117300D03*
M02*
