G04 EAGLE Gerber RS-274X export*
G75*
%MOMM*%
%FSLAX34Y34*%
%LPD*%
%INSilk screen SOL*%
%IPPOS*%
%AMOC8*
5,1,8,0,0,1.08239X$1,22.5*%
G01*
%ADD10C,0.100000*%
%ADD11C,0.000000*%
%ADD12C,0.152400*%


D10*
X430000Y265000D02*
X430000Y-350000D01*
X-430000Y-350000D02*
X-430000Y265000D01*
X380000Y-400000D02*
X381208Y-399985D01*
X382416Y-399942D01*
X383622Y-399869D01*
X384826Y-399767D01*
X386027Y-399635D01*
X387224Y-399475D01*
X388418Y-399286D01*
X389606Y-399069D01*
X390789Y-398822D01*
X391966Y-398547D01*
X393135Y-398244D01*
X394297Y-397912D01*
X395451Y-397553D01*
X396595Y-397166D01*
X397730Y-396751D01*
X398855Y-396309D01*
X399968Y-395840D01*
X401070Y-395344D01*
X402160Y-394821D01*
X403236Y-394273D01*
X404299Y-393698D01*
X405348Y-393098D01*
X406382Y-392473D01*
X407401Y-391824D01*
X408403Y-391149D01*
X409389Y-390451D01*
X410358Y-389729D01*
X411309Y-388984D01*
X412242Y-388216D01*
X413156Y-387426D01*
X414051Y-386613D01*
X414926Y-385780D01*
X415780Y-384926D01*
X416613Y-384051D01*
X417426Y-383156D01*
X418216Y-382242D01*
X418984Y-381309D01*
X419729Y-380358D01*
X420451Y-379389D01*
X421149Y-378403D01*
X421824Y-377401D01*
X422473Y-376382D01*
X423098Y-375348D01*
X423698Y-374299D01*
X424273Y-373236D01*
X424821Y-372160D01*
X425344Y-371070D01*
X425840Y-369968D01*
X426309Y-368855D01*
X426751Y-367730D01*
X427166Y-366595D01*
X427553Y-365451D01*
X427912Y-364297D01*
X428244Y-363135D01*
X428547Y-361966D01*
X428822Y-360789D01*
X429069Y-359606D01*
X429286Y-358418D01*
X429475Y-357224D01*
X429635Y-356027D01*
X429767Y-354826D01*
X429869Y-353622D01*
X429942Y-352416D01*
X429985Y-351208D01*
X430000Y-350000D01*
X380000Y-400000D02*
X-380000Y-400000D01*
X-381208Y-399985D01*
X-382416Y-399942D01*
X-383622Y-399869D01*
X-384826Y-399767D01*
X-386027Y-399635D01*
X-387224Y-399475D01*
X-388418Y-399286D01*
X-389606Y-399069D01*
X-390789Y-398822D01*
X-391966Y-398547D01*
X-393135Y-398244D01*
X-394297Y-397912D01*
X-395451Y-397553D01*
X-396595Y-397166D01*
X-397730Y-396751D01*
X-398855Y-396309D01*
X-399968Y-395840D01*
X-401070Y-395344D01*
X-402160Y-394821D01*
X-403236Y-394273D01*
X-404299Y-393698D01*
X-405348Y-393098D01*
X-406382Y-392473D01*
X-407401Y-391824D01*
X-408403Y-391149D01*
X-409389Y-390451D01*
X-410358Y-389729D01*
X-411309Y-388984D01*
X-412242Y-388216D01*
X-413156Y-387426D01*
X-414051Y-386613D01*
X-414926Y-385780D01*
X-415780Y-384926D01*
X-416613Y-384051D01*
X-417426Y-383156D01*
X-418216Y-382242D01*
X-418984Y-381309D01*
X-419729Y-380358D01*
X-420451Y-379389D01*
X-421149Y-378403D01*
X-421824Y-377401D01*
X-422473Y-376382D01*
X-423098Y-375348D01*
X-423698Y-374299D01*
X-424273Y-373236D01*
X-424821Y-372160D01*
X-425344Y-371070D01*
X-425840Y-369968D01*
X-426309Y-368855D01*
X-426751Y-367730D01*
X-427166Y-366595D01*
X-427553Y-365451D01*
X-427912Y-364297D01*
X-428244Y-363135D01*
X-428547Y-361966D01*
X-428822Y-360789D01*
X-429069Y-359606D01*
X-429286Y-358418D01*
X-429475Y-357224D01*
X-429635Y-356027D01*
X-429767Y-354826D01*
X-429869Y-353622D01*
X-429942Y-352416D01*
X-429985Y-351208D01*
X-430000Y-350000D01*
X-45000Y315000D02*
X380000Y315000D01*
X-380000Y315000D02*
X-381208Y314985D01*
X-382416Y314942D01*
X-383622Y314869D01*
X-384826Y314767D01*
X-386027Y314635D01*
X-387224Y314475D01*
X-388418Y314286D01*
X-389606Y314069D01*
X-390789Y313822D01*
X-391966Y313547D01*
X-393135Y313244D01*
X-394297Y312912D01*
X-395451Y312553D01*
X-396595Y312166D01*
X-397730Y311751D01*
X-398855Y311309D01*
X-399968Y310840D01*
X-401070Y310344D01*
X-402160Y309821D01*
X-403236Y309273D01*
X-404299Y308698D01*
X-405348Y308098D01*
X-406382Y307473D01*
X-407401Y306824D01*
X-408403Y306149D01*
X-409389Y305451D01*
X-410358Y304729D01*
X-411309Y303984D01*
X-412242Y303216D01*
X-413156Y302426D01*
X-414051Y301613D01*
X-414926Y300780D01*
X-415780Y299926D01*
X-416613Y299051D01*
X-417426Y298156D01*
X-418216Y297242D01*
X-418984Y296309D01*
X-419729Y295358D01*
X-420451Y294389D01*
X-421149Y293403D01*
X-421824Y292401D01*
X-422473Y291382D01*
X-423098Y290348D01*
X-423698Y289299D01*
X-424273Y288236D01*
X-424821Y287160D01*
X-425344Y286070D01*
X-425840Y284968D01*
X-426309Y283855D01*
X-426751Y282730D01*
X-427166Y281595D01*
X-427553Y280451D01*
X-427912Y279297D01*
X-428244Y278135D01*
X-428547Y276966D01*
X-428822Y275789D01*
X-429069Y274606D01*
X-429286Y273418D01*
X-429475Y272224D01*
X-429635Y271027D01*
X-429767Y269826D01*
X-429869Y268622D01*
X-429942Y267416D01*
X-429985Y266208D01*
X-430000Y265000D01*
X380000Y315000D02*
X381208Y314985D01*
X382416Y314942D01*
X383622Y314869D01*
X384826Y314767D01*
X386027Y314635D01*
X387224Y314475D01*
X388418Y314286D01*
X389606Y314069D01*
X390789Y313822D01*
X391966Y313547D01*
X393135Y313244D01*
X394297Y312912D01*
X395451Y312553D01*
X396595Y312166D01*
X397730Y311751D01*
X398855Y311309D01*
X399968Y310840D01*
X401070Y310344D01*
X402160Y309821D01*
X403236Y309273D01*
X404299Y308698D01*
X405348Y308098D01*
X406382Y307473D01*
X407401Y306824D01*
X408403Y306149D01*
X409389Y305451D01*
X410358Y304729D01*
X411309Y303984D01*
X412242Y303216D01*
X413156Y302426D01*
X414051Y301613D01*
X414926Y300780D01*
X415780Y299926D01*
X416613Y299051D01*
X417426Y298156D01*
X418216Y297242D01*
X418984Y296309D01*
X419729Y295358D01*
X420451Y294389D01*
X421149Y293403D01*
X421824Y292401D01*
X422473Y291382D01*
X423098Y290348D01*
X423698Y289299D01*
X424273Y288236D01*
X424821Y287160D01*
X425344Y286070D01*
X425840Y284968D01*
X426309Y283855D01*
X426751Y282730D01*
X427166Y281595D01*
X427553Y280451D01*
X427912Y279297D01*
X428244Y278135D01*
X428547Y276966D01*
X428822Y275789D01*
X429069Y274606D01*
X429286Y273418D01*
X429475Y272224D01*
X429635Y271027D01*
X429767Y269826D01*
X429869Y268622D01*
X429942Y267416D01*
X429985Y266208D01*
X430000Y265000D01*
X-60000Y305000D02*
X-140000Y305000D01*
X-155000Y315000D02*
X-380000Y315000D01*
X-155000Y315000D02*
X-140000Y305000D01*
X-60000Y305000D02*
X-45000Y315000D01*
D11*
X-76000Y130000D02*
X-75995Y130393D01*
X-75981Y130785D01*
X-75957Y131177D01*
X-75923Y131568D01*
X-75880Y131959D01*
X-75827Y132348D01*
X-75764Y132735D01*
X-75693Y133121D01*
X-75611Y133506D01*
X-75521Y133888D01*
X-75420Y134267D01*
X-75311Y134645D01*
X-75192Y135019D01*
X-75065Y135390D01*
X-74928Y135758D01*
X-74782Y136123D01*
X-74627Y136484D01*
X-74464Y136841D01*
X-74292Y137194D01*
X-74111Y137542D01*
X-73921Y137886D01*
X-73724Y138226D01*
X-73518Y138560D01*
X-73304Y138889D01*
X-73081Y139213D01*
X-72851Y139531D01*
X-72614Y139844D01*
X-72368Y140150D01*
X-72115Y140451D01*
X-71855Y140745D01*
X-71588Y141033D01*
X-71314Y141314D01*
X-71033Y141588D01*
X-70745Y141855D01*
X-70451Y142115D01*
X-70150Y142368D01*
X-69844Y142614D01*
X-69531Y142851D01*
X-69213Y143081D01*
X-68889Y143304D01*
X-68560Y143518D01*
X-68226Y143724D01*
X-67886Y143921D01*
X-67542Y144111D01*
X-67194Y144292D01*
X-66841Y144464D01*
X-66484Y144627D01*
X-66123Y144782D01*
X-65758Y144928D01*
X-65390Y145065D01*
X-65019Y145192D01*
X-64645Y145311D01*
X-64267Y145420D01*
X-63888Y145521D01*
X-63506Y145611D01*
X-63121Y145693D01*
X-62735Y145764D01*
X-62348Y145827D01*
X-61959Y145880D01*
X-61568Y145923D01*
X-61177Y145957D01*
X-60785Y145981D01*
X-60393Y145995D01*
X-60000Y146000D01*
X-59607Y145995D01*
X-59215Y145981D01*
X-58823Y145957D01*
X-58432Y145923D01*
X-58041Y145880D01*
X-57652Y145827D01*
X-57265Y145764D01*
X-56879Y145693D01*
X-56494Y145611D01*
X-56112Y145521D01*
X-55733Y145420D01*
X-55355Y145311D01*
X-54981Y145192D01*
X-54610Y145065D01*
X-54242Y144928D01*
X-53877Y144782D01*
X-53516Y144627D01*
X-53159Y144464D01*
X-52806Y144292D01*
X-52458Y144111D01*
X-52114Y143921D01*
X-51774Y143724D01*
X-51440Y143518D01*
X-51111Y143304D01*
X-50787Y143081D01*
X-50469Y142851D01*
X-50156Y142614D01*
X-49850Y142368D01*
X-49549Y142115D01*
X-49255Y141855D01*
X-48967Y141588D01*
X-48686Y141314D01*
X-48412Y141033D01*
X-48145Y140745D01*
X-47885Y140451D01*
X-47632Y140150D01*
X-47386Y139844D01*
X-47149Y139531D01*
X-46919Y139213D01*
X-46696Y138889D01*
X-46482Y138560D01*
X-46276Y138226D01*
X-46079Y137886D01*
X-45889Y137542D01*
X-45708Y137194D01*
X-45536Y136841D01*
X-45373Y136484D01*
X-45218Y136123D01*
X-45072Y135758D01*
X-44935Y135390D01*
X-44808Y135019D01*
X-44689Y134645D01*
X-44580Y134267D01*
X-44479Y133888D01*
X-44389Y133506D01*
X-44307Y133121D01*
X-44236Y132735D01*
X-44173Y132348D01*
X-44120Y131959D01*
X-44077Y131568D01*
X-44043Y131177D01*
X-44019Y130785D01*
X-44005Y130393D01*
X-44000Y130000D01*
X-44005Y129607D01*
X-44019Y129215D01*
X-44043Y128823D01*
X-44077Y128432D01*
X-44120Y128041D01*
X-44173Y127652D01*
X-44236Y127265D01*
X-44307Y126879D01*
X-44389Y126494D01*
X-44479Y126112D01*
X-44580Y125733D01*
X-44689Y125355D01*
X-44808Y124981D01*
X-44935Y124610D01*
X-45072Y124242D01*
X-45218Y123877D01*
X-45373Y123516D01*
X-45536Y123159D01*
X-45708Y122806D01*
X-45889Y122458D01*
X-46079Y122114D01*
X-46276Y121774D01*
X-46482Y121440D01*
X-46696Y121111D01*
X-46919Y120787D01*
X-47149Y120469D01*
X-47386Y120156D01*
X-47632Y119850D01*
X-47885Y119549D01*
X-48145Y119255D01*
X-48412Y118967D01*
X-48686Y118686D01*
X-48967Y118412D01*
X-49255Y118145D01*
X-49549Y117885D01*
X-49850Y117632D01*
X-50156Y117386D01*
X-50469Y117149D01*
X-50787Y116919D01*
X-51111Y116696D01*
X-51440Y116482D01*
X-51774Y116276D01*
X-52114Y116079D01*
X-52458Y115889D01*
X-52806Y115708D01*
X-53159Y115536D01*
X-53516Y115373D01*
X-53877Y115218D01*
X-54242Y115072D01*
X-54610Y114935D01*
X-54981Y114808D01*
X-55355Y114689D01*
X-55733Y114580D01*
X-56112Y114479D01*
X-56494Y114389D01*
X-56879Y114307D01*
X-57265Y114236D01*
X-57652Y114173D01*
X-58041Y114120D01*
X-58432Y114077D01*
X-58823Y114043D01*
X-59215Y114019D01*
X-59607Y114005D01*
X-60000Y114000D01*
X-60393Y114005D01*
X-60785Y114019D01*
X-61177Y114043D01*
X-61568Y114077D01*
X-61959Y114120D01*
X-62348Y114173D01*
X-62735Y114236D01*
X-63121Y114307D01*
X-63506Y114389D01*
X-63888Y114479D01*
X-64267Y114580D01*
X-64645Y114689D01*
X-65019Y114808D01*
X-65390Y114935D01*
X-65758Y115072D01*
X-66123Y115218D01*
X-66484Y115373D01*
X-66841Y115536D01*
X-67194Y115708D01*
X-67542Y115889D01*
X-67886Y116079D01*
X-68226Y116276D01*
X-68560Y116482D01*
X-68889Y116696D01*
X-69213Y116919D01*
X-69531Y117149D01*
X-69844Y117386D01*
X-70150Y117632D01*
X-70451Y117885D01*
X-70745Y118145D01*
X-71033Y118412D01*
X-71314Y118686D01*
X-71588Y118967D01*
X-71855Y119255D01*
X-72115Y119549D01*
X-72368Y119850D01*
X-72614Y120156D01*
X-72851Y120469D01*
X-73081Y120787D01*
X-73304Y121111D01*
X-73518Y121440D01*
X-73724Y121774D01*
X-73921Y122114D01*
X-74111Y122458D01*
X-74292Y122806D01*
X-74464Y123159D01*
X-74627Y123516D01*
X-74782Y123877D01*
X-74928Y124242D01*
X-75065Y124610D01*
X-75192Y124981D01*
X-75311Y125355D01*
X-75420Y125733D01*
X-75521Y126112D01*
X-75611Y126494D01*
X-75693Y126879D01*
X-75764Y127265D01*
X-75827Y127652D01*
X-75880Y128041D01*
X-75923Y128432D01*
X-75957Y128823D01*
X-75981Y129215D01*
X-75995Y129607D01*
X-76000Y130000D01*
X-6000Y130000D02*
X-5995Y130393D01*
X-5981Y130785D01*
X-5957Y131177D01*
X-5923Y131568D01*
X-5880Y131959D01*
X-5827Y132348D01*
X-5764Y132735D01*
X-5693Y133121D01*
X-5611Y133506D01*
X-5521Y133888D01*
X-5420Y134267D01*
X-5311Y134645D01*
X-5192Y135019D01*
X-5065Y135390D01*
X-4928Y135758D01*
X-4782Y136123D01*
X-4627Y136484D01*
X-4464Y136841D01*
X-4292Y137194D01*
X-4111Y137542D01*
X-3921Y137886D01*
X-3724Y138226D01*
X-3518Y138560D01*
X-3304Y138889D01*
X-3081Y139213D01*
X-2851Y139531D01*
X-2614Y139844D01*
X-2368Y140150D01*
X-2115Y140451D01*
X-1855Y140745D01*
X-1588Y141033D01*
X-1314Y141314D01*
X-1033Y141588D01*
X-745Y141855D01*
X-451Y142115D01*
X-150Y142368D01*
X156Y142614D01*
X469Y142851D01*
X787Y143081D01*
X1111Y143304D01*
X1440Y143518D01*
X1774Y143724D01*
X2114Y143921D01*
X2458Y144111D01*
X2806Y144292D01*
X3159Y144464D01*
X3516Y144627D01*
X3877Y144782D01*
X4242Y144928D01*
X4610Y145065D01*
X4981Y145192D01*
X5355Y145311D01*
X5733Y145420D01*
X6112Y145521D01*
X6494Y145611D01*
X6879Y145693D01*
X7265Y145764D01*
X7652Y145827D01*
X8041Y145880D01*
X8432Y145923D01*
X8823Y145957D01*
X9215Y145981D01*
X9607Y145995D01*
X10000Y146000D01*
X10393Y145995D01*
X10785Y145981D01*
X11177Y145957D01*
X11568Y145923D01*
X11959Y145880D01*
X12348Y145827D01*
X12735Y145764D01*
X13121Y145693D01*
X13506Y145611D01*
X13888Y145521D01*
X14267Y145420D01*
X14645Y145311D01*
X15019Y145192D01*
X15390Y145065D01*
X15758Y144928D01*
X16123Y144782D01*
X16484Y144627D01*
X16841Y144464D01*
X17194Y144292D01*
X17542Y144111D01*
X17886Y143921D01*
X18226Y143724D01*
X18560Y143518D01*
X18889Y143304D01*
X19213Y143081D01*
X19531Y142851D01*
X19844Y142614D01*
X20150Y142368D01*
X20451Y142115D01*
X20745Y141855D01*
X21033Y141588D01*
X21314Y141314D01*
X21588Y141033D01*
X21855Y140745D01*
X22115Y140451D01*
X22368Y140150D01*
X22614Y139844D01*
X22851Y139531D01*
X23081Y139213D01*
X23304Y138889D01*
X23518Y138560D01*
X23724Y138226D01*
X23921Y137886D01*
X24111Y137542D01*
X24292Y137194D01*
X24464Y136841D01*
X24627Y136484D01*
X24782Y136123D01*
X24928Y135758D01*
X25065Y135390D01*
X25192Y135019D01*
X25311Y134645D01*
X25420Y134267D01*
X25521Y133888D01*
X25611Y133506D01*
X25693Y133121D01*
X25764Y132735D01*
X25827Y132348D01*
X25880Y131959D01*
X25923Y131568D01*
X25957Y131177D01*
X25981Y130785D01*
X25995Y130393D01*
X26000Y130000D01*
X25995Y129607D01*
X25981Y129215D01*
X25957Y128823D01*
X25923Y128432D01*
X25880Y128041D01*
X25827Y127652D01*
X25764Y127265D01*
X25693Y126879D01*
X25611Y126494D01*
X25521Y126112D01*
X25420Y125733D01*
X25311Y125355D01*
X25192Y124981D01*
X25065Y124610D01*
X24928Y124242D01*
X24782Y123877D01*
X24627Y123516D01*
X24464Y123159D01*
X24292Y122806D01*
X24111Y122458D01*
X23921Y122114D01*
X23724Y121774D01*
X23518Y121440D01*
X23304Y121111D01*
X23081Y120787D01*
X22851Y120469D01*
X22614Y120156D01*
X22368Y119850D01*
X22115Y119549D01*
X21855Y119255D01*
X21588Y118967D01*
X21314Y118686D01*
X21033Y118412D01*
X20745Y118145D01*
X20451Y117885D01*
X20150Y117632D01*
X19844Y117386D01*
X19531Y117149D01*
X19213Y116919D01*
X18889Y116696D01*
X18560Y116482D01*
X18226Y116276D01*
X17886Y116079D01*
X17542Y115889D01*
X17194Y115708D01*
X16841Y115536D01*
X16484Y115373D01*
X16123Y115218D01*
X15758Y115072D01*
X15390Y114935D01*
X15019Y114808D01*
X14645Y114689D01*
X14267Y114580D01*
X13888Y114479D01*
X13506Y114389D01*
X13121Y114307D01*
X12735Y114236D01*
X12348Y114173D01*
X11959Y114120D01*
X11568Y114077D01*
X11177Y114043D01*
X10785Y114019D01*
X10393Y114005D01*
X10000Y114000D01*
X9607Y114005D01*
X9215Y114019D01*
X8823Y114043D01*
X8432Y114077D01*
X8041Y114120D01*
X7652Y114173D01*
X7265Y114236D01*
X6879Y114307D01*
X6494Y114389D01*
X6112Y114479D01*
X5733Y114580D01*
X5355Y114689D01*
X4981Y114808D01*
X4610Y114935D01*
X4242Y115072D01*
X3877Y115218D01*
X3516Y115373D01*
X3159Y115536D01*
X2806Y115708D01*
X2458Y115889D01*
X2114Y116079D01*
X1774Y116276D01*
X1440Y116482D01*
X1111Y116696D01*
X787Y116919D01*
X469Y117149D01*
X156Y117386D01*
X-150Y117632D01*
X-451Y117885D01*
X-745Y118145D01*
X-1033Y118412D01*
X-1314Y118686D01*
X-1588Y118967D01*
X-1855Y119255D01*
X-2115Y119549D01*
X-2368Y119850D01*
X-2614Y120156D01*
X-2851Y120469D01*
X-3081Y120787D01*
X-3304Y121111D01*
X-3518Y121440D01*
X-3724Y121774D01*
X-3921Y122114D01*
X-4111Y122458D01*
X-4292Y122806D01*
X-4464Y123159D01*
X-4627Y123516D01*
X-4782Y123877D01*
X-4928Y124242D01*
X-5065Y124610D01*
X-5192Y124981D01*
X-5311Y125355D01*
X-5420Y125733D01*
X-5521Y126112D01*
X-5611Y126494D01*
X-5693Y126879D01*
X-5764Y127265D01*
X-5827Y127652D01*
X-5880Y128041D01*
X-5923Y128432D01*
X-5957Y128823D01*
X-5981Y129215D01*
X-5995Y129607D01*
X-6000Y130000D01*
X-1116000Y-270000D02*
X-1115997Y-269730D01*
X-1115987Y-269460D01*
X-1115970Y-269191D01*
X-1115947Y-268922D01*
X-1115917Y-268653D01*
X-1115881Y-268386D01*
X-1115838Y-268119D01*
X-1115789Y-267854D01*
X-1115733Y-267590D01*
X-1115670Y-267327D01*
X-1115602Y-267066D01*
X-1115526Y-266807D01*
X-1115445Y-266550D01*
X-1115357Y-266294D01*
X-1115263Y-266041D01*
X-1115163Y-265790D01*
X-1115056Y-265542D01*
X-1114944Y-265297D01*
X-1114825Y-265054D01*
X-1114701Y-264815D01*
X-1114571Y-264578D01*
X-1114435Y-264345D01*
X-1114293Y-264115D01*
X-1114146Y-263889D01*
X-1113993Y-263666D01*
X-1113835Y-263447D01*
X-1113672Y-263232D01*
X-1113503Y-263022D01*
X-1113329Y-262815D01*
X-1113150Y-262613D01*
X-1112967Y-262415D01*
X-1112778Y-262222D01*
X-1112585Y-262033D01*
X-1112387Y-261850D01*
X-1112185Y-261671D01*
X-1111978Y-261497D01*
X-1111768Y-261328D01*
X-1111553Y-261165D01*
X-1111334Y-261007D01*
X-1111111Y-260854D01*
X-1110885Y-260707D01*
X-1110655Y-260565D01*
X-1110422Y-260429D01*
X-1110185Y-260299D01*
X-1109946Y-260175D01*
X-1109703Y-260056D01*
X-1109458Y-259944D01*
X-1109210Y-259837D01*
X-1108959Y-259737D01*
X-1108706Y-259643D01*
X-1108450Y-259555D01*
X-1108193Y-259474D01*
X-1107934Y-259398D01*
X-1107673Y-259330D01*
X-1107410Y-259267D01*
X-1107146Y-259211D01*
X-1106881Y-259162D01*
X-1106614Y-259119D01*
X-1106347Y-259083D01*
X-1106078Y-259053D01*
X-1105809Y-259030D01*
X-1105540Y-259013D01*
X-1105270Y-259003D01*
X-1105000Y-259000D01*
X-1104730Y-259003D01*
X-1104460Y-259013D01*
X-1104191Y-259030D01*
X-1103922Y-259053D01*
X-1103653Y-259083D01*
X-1103386Y-259119D01*
X-1103119Y-259162D01*
X-1102854Y-259211D01*
X-1102590Y-259267D01*
X-1102327Y-259330D01*
X-1102066Y-259398D01*
X-1101807Y-259474D01*
X-1101550Y-259555D01*
X-1101294Y-259643D01*
X-1101041Y-259737D01*
X-1100790Y-259837D01*
X-1100542Y-259944D01*
X-1100297Y-260056D01*
X-1100054Y-260175D01*
X-1099815Y-260299D01*
X-1099578Y-260429D01*
X-1099345Y-260565D01*
X-1099115Y-260707D01*
X-1098889Y-260854D01*
X-1098666Y-261007D01*
X-1098447Y-261165D01*
X-1098232Y-261328D01*
X-1098022Y-261497D01*
X-1097815Y-261671D01*
X-1097613Y-261850D01*
X-1097415Y-262033D01*
X-1097222Y-262222D01*
X-1097033Y-262415D01*
X-1096850Y-262613D01*
X-1096671Y-262815D01*
X-1096497Y-263022D01*
X-1096328Y-263232D01*
X-1096165Y-263447D01*
X-1096007Y-263666D01*
X-1095854Y-263889D01*
X-1095707Y-264115D01*
X-1095565Y-264345D01*
X-1095429Y-264578D01*
X-1095299Y-264815D01*
X-1095175Y-265054D01*
X-1095056Y-265297D01*
X-1094944Y-265542D01*
X-1094837Y-265790D01*
X-1094737Y-266041D01*
X-1094643Y-266294D01*
X-1094555Y-266550D01*
X-1094474Y-266807D01*
X-1094398Y-267066D01*
X-1094330Y-267327D01*
X-1094267Y-267590D01*
X-1094211Y-267854D01*
X-1094162Y-268119D01*
X-1094119Y-268386D01*
X-1094083Y-268653D01*
X-1094053Y-268922D01*
X-1094030Y-269191D01*
X-1094013Y-269460D01*
X-1094003Y-269730D01*
X-1094000Y-270000D01*
X-1094003Y-270270D01*
X-1094013Y-270540D01*
X-1094030Y-270809D01*
X-1094053Y-271078D01*
X-1094083Y-271347D01*
X-1094119Y-271614D01*
X-1094162Y-271881D01*
X-1094211Y-272146D01*
X-1094267Y-272410D01*
X-1094330Y-272673D01*
X-1094398Y-272934D01*
X-1094474Y-273193D01*
X-1094555Y-273450D01*
X-1094643Y-273706D01*
X-1094737Y-273959D01*
X-1094837Y-274210D01*
X-1094944Y-274458D01*
X-1095056Y-274703D01*
X-1095175Y-274946D01*
X-1095299Y-275185D01*
X-1095429Y-275422D01*
X-1095565Y-275655D01*
X-1095707Y-275885D01*
X-1095854Y-276111D01*
X-1096007Y-276334D01*
X-1096165Y-276553D01*
X-1096328Y-276768D01*
X-1096497Y-276978D01*
X-1096671Y-277185D01*
X-1096850Y-277387D01*
X-1097033Y-277585D01*
X-1097222Y-277778D01*
X-1097415Y-277967D01*
X-1097613Y-278150D01*
X-1097815Y-278329D01*
X-1098022Y-278503D01*
X-1098232Y-278672D01*
X-1098447Y-278835D01*
X-1098666Y-278993D01*
X-1098889Y-279146D01*
X-1099115Y-279293D01*
X-1099345Y-279435D01*
X-1099578Y-279571D01*
X-1099815Y-279701D01*
X-1100054Y-279825D01*
X-1100297Y-279944D01*
X-1100542Y-280056D01*
X-1100790Y-280163D01*
X-1101041Y-280263D01*
X-1101294Y-280357D01*
X-1101550Y-280445D01*
X-1101807Y-280526D01*
X-1102066Y-280602D01*
X-1102327Y-280670D01*
X-1102590Y-280733D01*
X-1102854Y-280789D01*
X-1103119Y-280838D01*
X-1103386Y-280881D01*
X-1103653Y-280917D01*
X-1103922Y-280947D01*
X-1104191Y-280970D01*
X-1104460Y-280987D01*
X-1104730Y-280997D01*
X-1105000Y-281000D01*
X-1105270Y-280997D01*
X-1105540Y-280987D01*
X-1105809Y-280970D01*
X-1106078Y-280947D01*
X-1106347Y-280917D01*
X-1106614Y-280881D01*
X-1106881Y-280838D01*
X-1107146Y-280789D01*
X-1107410Y-280733D01*
X-1107673Y-280670D01*
X-1107934Y-280602D01*
X-1108193Y-280526D01*
X-1108450Y-280445D01*
X-1108706Y-280357D01*
X-1108959Y-280263D01*
X-1109210Y-280163D01*
X-1109458Y-280056D01*
X-1109703Y-279944D01*
X-1109946Y-279825D01*
X-1110185Y-279701D01*
X-1110422Y-279571D01*
X-1110655Y-279435D01*
X-1110885Y-279293D01*
X-1111111Y-279146D01*
X-1111334Y-278993D01*
X-1111553Y-278835D01*
X-1111768Y-278672D01*
X-1111978Y-278503D01*
X-1112185Y-278329D01*
X-1112387Y-278150D01*
X-1112585Y-277967D01*
X-1112778Y-277778D01*
X-1112967Y-277585D01*
X-1113150Y-277387D01*
X-1113329Y-277185D01*
X-1113503Y-276978D01*
X-1113672Y-276768D01*
X-1113835Y-276553D01*
X-1113993Y-276334D01*
X-1114146Y-276111D01*
X-1114293Y-275885D01*
X-1114435Y-275655D01*
X-1114571Y-275422D01*
X-1114701Y-275185D01*
X-1114825Y-274946D01*
X-1114944Y-274703D01*
X-1115056Y-274458D01*
X-1115163Y-274210D01*
X-1115263Y-273959D01*
X-1115357Y-273706D01*
X-1115445Y-273450D01*
X-1115526Y-273193D01*
X-1115602Y-272934D01*
X-1115670Y-272673D01*
X-1115733Y-272410D01*
X-1115789Y-272146D01*
X-1115838Y-271881D01*
X-1115881Y-271614D01*
X-1115917Y-271347D01*
X-1115947Y-271078D01*
X-1115970Y-270809D01*
X-1115987Y-270540D01*
X-1115997Y-270270D01*
X-1116000Y-270000D01*
X-1116000Y270000D02*
X-1115997Y270270D01*
X-1115987Y270540D01*
X-1115970Y270809D01*
X-1115947Y271078D01*
X-1115917Y271347D01*
X-1115881Y271614D01*
X-1115838Y271881D01*
X-1115789Y272146D01*
X-1115733Y272410D01*
X-1115670Y272673D01*
X-1115602Y272934D01*
X-1115526Y273193D01*
X-1115445Y273450D01*
X-1115357Y273706D01*
X-1115263Y273959D01*
X-1115163Y274210D01*
X-1115056Y274458D01*
X-1114944Y274703D01*
X-1114825Y274946D01*
X-1114701Y275185D01*
X-1114571Y275422D01*
X-1114435Y275655D01*
X-1114293Y275885D01*
X-1114146Y276111D01*
X-1113993Y276334D01*
X-1113835Y276553D01*
X-1113672Y276768D01*
X-1113503Y276978D01*
X-1113329Y277185D01*
X-1113150Y277387D01*
X-1112967Y277585D01*
X-1112778Y277778D01*
X-1112585Y277967D01*
X-1112387Y278150D01*
X-1112185Y278329D01*
X-1111978Y278503D01*
X-1111768Y278672D01*
X-1111553Y278835D01*
X-1111334Y278993D01*
X-1111111Y279146D01*
X-1110885Y279293D01*
X-1110655Y279435D01*
X-1110422Y279571D01*
X-1110185Y279701D01*
X-1109946Y279825D01*
X-1109703Y279944D01*
X-1109458Y280056D01*
X-1109210Y280163D01*
X-1108959Y280263D01*
X-1108706Y280357D01*
X-1108450Y280445D01*
X-1108193Y280526D01*
X-1107934Y280602D01*
X-1107673Y280670D01*
X-1107410Y280733D01*
X-1107146Y280789D01*
X-1106881Y280838D01*
X-1106614Y280881D01*
X-1106347Y280917D01*
X-1106078Y280947D01*
X-1105809Y280970D01*
X-1105540Y280987D01*
X-1105270Y280997D01*
X-1105000Y281000D01*
X-1104730Y280997D01*
X-1104460Y280987D01*
X-1104191Y280970D01*
X-1103922Y280947D01*
X-1103653Y280917D01*
X-1103386Y280881D01*
X-1103119Y280838D01*
X-1102854Y280789D01*
X-1102590Y280733D01*
X-1102327Y280670D01*
X-1102066Y280602D01*
X-1101807Y280526D01*
X-1101550Y280445D01*
X-1101294Y280357D01*
X-1101041Y280263D01*
X-1100790Y280163D01*
X-1100542Y280056D01*
X-1100297Y279944D01*
X-1100054Y279825D01*
X-1099815Y279701D01*
X-1099578Y279571D01*
X-1099345Y279435D01*
X-1099115Y279293D01*
X-1098889Y279146D01*
X-1098666Y278993D01*
X-1098447Y278835D01*
X-1098232Y278672D01*
X-1098022Y278503D01*
X-1097815Y278329D01*
X-1097613Y278150D01*
X-1097415Y277967D01*
X-1097222Y277778D01*
X-1097033Y277585D01*
X-1096850Y277387D01*
X-1096671Y277185D01*
X-1096497Y276978D01*
X-1096328Y276768D01*
X-1096165Y276553D01*
X-1096007Y276334D01*
X-1095854Y276111D01*
X-1095707Y275885D01*
X-1095565Y275655D01*
X-1095429Y275422D01*
X-1095299Y275185D01*
X-1095175Y274946D01*
X-1095056Y274703D01*
X-1094944Y274458D01*
X-1094837Y274210D01*
X-1094737Y273959D01*
X-1094643Y273706D01*
X-1094555Y273450D01*
X-1094474Y273193D01*
X-1094398Y272934D01*
X-1094330Y272673D01*
X-1094267Y272410D01*
X-1094211Y272146D01*
X-1094162Y271881D01*
X-1094119Y271614D01*
X-1094083Y271347D01*
X-1094053Y271078D01*
X-1094030Y270809D01*
X-1094013Y270540D01*
X-1094003Y270270D01*
X-1094000Y270000D01*
X-1094003Y269730D01*
X-1094013Y269460D01*
X-1094030Y269191D01*
X-1094053Y268922D01*
X-1094083Y268653D01*
X-1094119Y268386D01*
X-1094162Y268119D01*
X-1094211Y267854D01*
X-1094267Y267590D01*
X-1094330Y267327D01*
X-1094398Y267066D01*
X-1094474Y266807D01*
X-1094555Y266550D01*
X-1094643Y266294D01*
X-1094737Y266041D01*
X-1094837Y265790D01*
X-1094944Y265542D01*
X-1095056Y265297D01*
X-1095175Y265054D01*
X-1095299Y264815D01*
X-1095429Y264578D01*
X-1095565Y264345D01*
X-1095707Y264115D01*
X-1095854Y263889D01*
X-1096007Y263666D01*
X-1096165Y263447D01*
X-1096328Y263232D01*
X-1096497Y263022D01*
X-1096671Y262815D01*
X-1096850Y262613D01*
X-1097033Y262415D01*
X-1097222Y262222D01*
X-1097415Y262033D01*
X-1097613Y261850D01*
X-1097815Y261671D01*
X-1098022Y261497D01*
X-1098232Y261328D01*
X-1098447Y261165D01*
X-1098666Y261007D01*
X-1098889Y260854D01*
X-1099115Y260707D01*
X-1099345Y260565D01*
X-1099578Y260429D01*
X-1099815Y260299D01*
X-1100054Y260175D01*
X-1100297Y260056D01*
X-1100542Y259944D01*
X-1100790Y259837D01*
X-1101041Y259737D01*
X-1101294Y259643D01*
X-1101550Y259555D01*
X-1101807Y259474D01*
X-1102066Y259398D01*
X-1102327Y259330D01*
X-1102590Y259267D01*
X-1102854Y259211D01*
X-1103119Y259162D01*
X-1103386Y259119D01*
X-1103653Y259083D01*
X-1103922Y259053D01*
X-1104191Y259030D01*
X-1104460Y259013D01*
X-1104730Y259003D01*
X-1105000Y259000D01*
X-1105270Y259003D01*
X-1105540Y259013D01*
X-1105809Y259030D01*
X-1106078Y259053D01*
X-1106347Y259083D01*
X-1106614Y259119D01*
X-1106881Y259162D01*
X-1107146Y259211D01*
X-1107410Y259267D01*
X-1107673Y259330D01*
X-1107934Y259398D01*
X-1108193Y259474D01*
X-1108450Y259555D01*
X-1108706Y259643D01*
X-1108959Y259737D01*
X-1109210Y259837D01*
X-1109458Y259944D01*
X-1109703Y260056D01*
X-1109946Y260175D01*
X-1110185Y260299D01*
X-1110422Y260429D01*
X-1110655Y260565D01*
X-1110885Y260707D01*
X-1111111Y260854D01*
X-1111334Y261007D01*
X-1111553Y261165D01*
X-1111768Y261328D01*
X-1111978Y261497D01*
X-1112185Y261671D01*
X-1112387Y261850D01*
X-1112585Y262033D01*
X-1112778Y262222D01*
X-1112967Y262415D01*
X-1113150Y262613D01*
X-1113329Y262815D01*
X-1113503Y263022D01*
X-1113672Y263232D01*
X-1113835Y263447D01*
X-1113993Y263666D01*
X-1114146Y263889D01*
X-1114293Y264115D01*
X-1114435Y264345D01*
X-1114571Y264578D01*
X-1114701Y264815D01*
X-1114825Y265054D01*
X-1114944Y265297D01*
X-1115056Y265542D01*
X-1115163Y265790D01*
X-1115263Y266041D01*
X-1115357Y266294D01*
X-1115445Y266550D01*
X-1115526Y266807D01*
X-1115602Y267066D01*
X-1115670Y267327D01*
X-1115733Y267590D01*
X-1115789Y267854D01*
X-1115838Y268119D01*
X-1115881Y268386D01*
X-1115917Y268653D01*
X-1115947Y268922D01*
X-1115970Y269191D01*
X-1115987Y269460D01*
X-1115997Y269730D01*
X-1116000Y270000D01*
X-1115997Y270270D01*
X-1115987Y270540D01*
X-1115970Y270809D01*
X-1115947Y271078D01*
X-1115917Y271347D01*
X-1115881Y271614D01*
X-1115838Y271881D01*
X-1115789Y272146D01*
X-1115733Y272410D01*
X-1115670Y272673D01*
X-1115602Y272934D01*
X-1115526Y273193D01*
X-1115445Y273450D01*
X-1115357Y273706D01*
X-1115263Y273959D01*
X-1115163Y274210D01*
X-1115056Y274458D01*
X-1114944Y274703D01*
X-1114825Y274946D01*
X-1114701Y275185D01*
X-1114571Y275422D01*
X-1114435Y275655D01*
X-1114293Y275885D01*
X-1114146Y276111D01*
X-1113993Y276334D01*
X-1113835Y276553D01*
X-1113672Y276768D01*
X-1113503Y276978D01*
X-1113329Y277185D01*
X-1113150Y277387D01*
X-1112967Y277585D01*
X-1112778Y277778D01*
X-1112585Y277967D01*
X-1112387Y278150D01*
X-1112185Y278329D01*
X-1111978Y278503D01*
X-1111768Y278672D01*
X-1111553Y278835D01*
X-1111334Y278993D01*
X-1111111Y279146D01*
X-1110885Y279293D01*
X-1110655Y279435D01*
X-1110422Y279571D01*
X-1110185Y279701D01*
X-1109946Y279825D01*
X-1109703Y279944D01*
X-1109458Y280056D01*
X-1109210Y280163D01*
X-1108959Y280263D01*
X-1108706Y280357D01*
X-1108450Y280445D01*
X-1108193Y280526D01*
X-1107934Y280602D01*
X-1107673Y280670D01*
X-1107410Y280733D01*
X-1107146Y280789D01*
X-1106881Y280838D01*
X-1106614Y280881D01*
X-1106347Y280917D01*
X-1106078Y280947D01*
X-1105809Y280970D01*
X-1105540Y280987D01*
X-1105270Y280997D01*
X-1105000Y281000D01*
X-1104730Y280997D01*
X-1104460Y280987D01*
X-1104191Y280970D01*
X-1103922Y280947D01*
X-1103653Y280917D01*
X-1103386Y280881D01*
X-1103119Y280838D01*
X-1102854Y280789D01*
X-1102590Y280733D01*
X-1102327Y280670D01*
X-1102066Y280602D01*
X-1101807Y280526D01*
X-1101550Y280445D01*
X-1101294Y280357D01*
X-1101041Y280263D01*
X-1100790Y280163D01*
X-1100542Y280056D01*
X-1100297Y279944D01*
X-1100054Y279825D01*
X-1099815Y279701D01*
X-1099578Y279571D01*
X-1099345Y279435D01*
X-1099115Y279293D01*
X-1098889Y279146D01*
X-1098666Y278993D01*
X-1098447Y278835D01*
X-1098232Y278672D01*
X-1098022Y278503D01*
X-1097815Y278329D01*
X-1097613Y278150D01*
X-1097415Y277967D01*
X-1097222Y277778D01*
X-1097033Y277585D01*
X-1096850Y277387D01*
X-1096671Y277185D01*
X-1096497Y276978D01*
X-1096328Y276768D01*
X-1096165Y276553D01*
X-1096007Y276334D01*
X-1095854Y276111D01*
X-1095707Y275885D01*
X-1095565Y275655D01*
X-1095429Y275422D01*
X-1095299Y275185D01*
X-1095175Y274946D01*
X-1095056Y274703D01*
X-1094944Y274458D01*
X-1094837Y274210D01*
X-1094737Y273959D01*
X-1094643Y273706D01*
X-1094555Y273450D01*
X-1094474Y273193D01*
X-1094398Y272934D01*
X-1094330Y272673D01*
X-1094267Y272410D01*
X-1094211Y272146D01*
X-1094162Y271881D01*
X-1094119Y271614D01*
X-1094083Y271347D01*
X-1094053Y271078D01*
X-1094030Y270809D01*
X-1094013Y270540D01*
X-1094003Y270270D01*
X-1094000Y270000D01*
X-1094003Y269730D01*
X-1094013Y269460D01*
X-1094030Y269191D01*
X-1094053Y268922D01*
X-1094083Y268653D01*
X-1094119Y268386D01*
X-1094162Y268119D01*
X-1094211Y267854D01*
X-1094267Y267590D01*
X-1094330Y267327D01*
X-1094398Y267066D01*
X-1094474Y266807D01*
X-1094555Y266550D01*
X-1094643Y266294D01*
X-1094737Y266041D01*
X-1094837Y265790D01*
X-1094944Y265542D01*
X-1095056Y265297D01*
X-1095175Y265054D01*
X-1095299Y264815D01*
X-1095429Y264578D01*
X-1095565Y264345D01*
X-1095707Y264115D01*
X-1095854Y263889D01*
X-1096007Y263666D01*
X-1096165Y263447D01*
X-1096328Y263232D01*
X-1096497Y263022D01*
X-1096671Y262815D01*
X-1096850Y262613D01*
X-1097033Y262415D01*
X-1097222Y262222D01*
X-1097415Y262033D01*
X-1097613Y261850D01*
X-1097815Y261671D01*
X-1098022Y261497D01*
X-1098232Y261328D01*
X-1098447Y261165D01*
X-1098666Y261007D01*
X-1098889Y260854D01*
X-1099115Y260707D01*
X-1099345Y260565D01*
X-1099578Y260429D01*
X-1099815Y260299D01*
X-1100054Y260175D01*
X-1100297Y260056D01*
X-1100542Y259944D01*
X-1100790Y259837D01*
X-1101041Y259737D01*
X-1101294Y259643D01*
X-1101550Y259555D01*
X-1101807Y259474D01*
X-1102066Y259398D01*
X-1102327Y259330D01*
X-1102590Y259267D01*
X-1102854Y259211D01*
X-1103119Y259162D01*
X-1103386Y259119D01*
X-1103653Y259083D01*
X-1103922Y259053D01*
X-1104191Y259030D01*
X-1104460Y259013D01*
X-1104730Y259003D01*
X-1105000Y259000D01*
X-1105270Y259003D01*
X-1105540Y259013D01*
X-1105809Y259030D01*
X-1106078Y259053D01*
X-1106347Y259083D01*
X-1106614Y259119D01*
X-1106881Y259162D01*
X-1107146Y259211D01*
X-1107410Y259267D01*
X-1107673Y259330D01*
X-1107934Y259398D01*
X-1108193Y259474D01*
X-1108450Y259555D01*
X-1108706Y259643D01*
X-1108959Y259737D01*
X-1109210Y259837D01*
X-1109458Y259944D01*
X-1109703Y260056D01*
X-1109946Y260175D01*
X-1110185Y260299D01*
X-1110422Y260429D01*
X-1110655Y260565D01*
X-1110885Y260707D01*
X-1111111Y260854D01*
X-1111334Y261007D01*
X-1111553Y261165D01*
X-1111768Y261328D01*
X-1111978Y261497D01*
X-1112185Y261671D01*
X-1112387Y261850D01*
X-1112585Y262033D01*
X-1112778Y262222D01*
X-1112967Y262415D01*
X-1113150Y262613D01*
X-1113329Y262815D01*
X-1113503Y263022D01*
X-1113672Y263232D01*
X-1113835Y263447D01*
X-1113993Y263666D01*
X-1114146Y263889D01*
X-1114293Y264115D01*
X-1114435Y264345D01*
X-1114571Y264578D01*
X-1114701Y264815D01*
X-1114825Y265054D01*
X-1114944Y265297D01*
X-1115056Y265542D01*
X-1115163Y265790D01*
X-1115263Y266041D01*
X-1115357Y266294D01*
X-1115445Y266550D01*
X-1115526Y266807D01*
X-1115602Y267066D01*
X-1115670Y267327D01*
X-1115733Y267590D01*
X-1115789Y267854D01*
X-1115838Y268119D01*
X-1115881Y268386D01*
X-1115917Y268653D01*
X-1115947Y268922D01*
X-1115970Y269191D01*
X-1115987Y269460D01*
X-1115997Y269730D01*
X-1116000Y270000D01*
X-576000Y-270000D02*
X-575997Y-269730D01*
X-575987Y-269460D01*
X-575970Y-269191D01*
X-575947Y-268922D01*
X-575917Y-268653D01*
X-575881Y-268386D01*
X-575838Y-268119D01*
X-575789Y-267854D01*
X-575733Y-267590D01*
X-575670Y-267327D01*
X-575602Y-267066D01*
X-575526Y-266807D01*
X-575445Y-266550D01*
X-575357Y-266294D01*
X-575263Y-266041D01*
X-575163Y-265790D01*
X-575056Y-265542D01*
X-574944Y-265297D01*
X-574825Y-265054D01*
X-574701Y-264815D01*
X-574571Y-264578D01*
X-574435Y-264345D01*
X-574293Y-264115D01*
X-574146Y-263889D01*
X-573993Y-263666D01*
X-573835Y-263447D01*
X-573672Y-263232D01*
X-573503Y-263022D01*
X-573329Y-262815D01*
X-573150Y-262613D01*
X-572967Y-262415D01*
X-572778Y-262222D01*
X-572585Y-262033D01*
X-572387Y-261850D01*
X-572185Y-261671D01*
X-571978Y-261497D01*
X-571768Y-261328D01*
X-571553Y-261165D01*
X-571334Y-261007D01*
X-571111Y-260854D01*
X-570885Y-260707D01*
X-570655Y-260565D01*
X-570422Y-260429D01*
X-570185Y-260299D01*
X-569946Y-260175D01*
X-569703Y-260056D01*
X-569458Y-259944D01*
X-569210Y-259837D01*
X-568959Y-259737D01*
X-568706Y-259643D01*
X-568450Y-259555D01*
X-568193Y-259474D01*
X-567934Y-259398D01*
X-567673Y-259330D01*
X-567410Y-259267D01*
X-567146Y-259211D01*
X-566881Y-259162D01*
X-566614Y-259119D01*
X-566347Y-259083D01*
X-566078Y-259053D01*
X-565809Y-259030D01*
X-565540Y-259013D01*
X-565270Y-259003D01*
X-565000Y-259000D01*
X-564730Y-259003D01*
X-564460Y-259013D01*
X-564191Y-259030D01*
X-563922Y-259053D01*
X-563653Y-259083D01*
X-563386Y-259119D01*
X-563119Y-259162D01*
X-562854Y-259211D01*
X-562590Y-259267D01*
X-562327Y-259330D01*
X-562066Y-259398D01*
X-561807Y-259474D01*
X-561550Y-259555D01*
X-561294Y-259643D01*
X-561041Y-259737D01*
X-560790Y-259837D01*
X-560542Y-259944D01*
X-560297Y-260056D01*
X-560054Y-260175D01*
X-559815Y-260299D01*
X-559578Y-260429D01*
X-559345Y-260565D01*
X-559115Y-260707D01*
X-558889Y-260854D01*
X-558666Y-261007D01*
X-558447Y-261165D01*
X-558232Y-261328D01*
X-558022Y-261497D01*
X-557815Y-261671D01*
X-557613Y-261850D01*
X-557415Y-262033D01*
X-557222Y-262222D01*
X-557033Y-262415D01*
X-556850Y-262613D01*
X-556671Y-262815D01*
X-556497Y-263022D01*
X-556328Y-263232D01*
X-556165Y-263447D01*
X-556007Y-263666D01*
X-555854Y-263889D01*
X-555707Y-264115D01*
X-555565Y-264345D01*
X-555429Y-264578D01*
X-555299Y-264815D01*
X-555175Y-265054D01*
X-555056Y-265297D01*
X-554944Y-265542D01*
X-554837Y-265790D01*
X-554737Y-266041D01*
X-554643Y-266294D01*
X-554555Y-266550D01*
X-554474Y-266807D01*
X-554398Y-267066D01*
X-554330Y-267327D01*
X-554267Y-267590D01*
X-554211Y-267854D01*
X-554162Y-268119D01*
X-554119Y-268386D01*
X-554083Y-268653D01*
X-554053Y-268922D01*
X-554030Y-269191D01*
X-554013Y-269460D01*
X-554003Y-269730D01*
X-554000Y-270000D01*
X-554003Y-270270D01*
X-554013Y-270540D01*
X-554030Y-270809D01*
X-554053Y-271078D01*
X-554083Y-271347D01*
X-554119Y-271614D01*
X-554162Y-271881D01*
X-554211Y-272146D01*
X-554267Y-272410D01*
X-554330Y-272673D01*
X-554398Y-272934D01*
X-554474Y-273193D01*
X-554555Y-273450D01*
X-554643Y-273706D01*
X-554737Y-273959D01*
X-554837Y-274210D01*
X-554944Y-274458D01*
X-555056Y-274703D01*
X-555175Y-274946D01*
X-555299Y-275185D01*
X-555429Y-275422D01*
X-555565Y-275655D01*
X-555707Y-275885D01*
X-555854Y-276111D01*
X-556007Y-276334D01*
X-556165Y-276553D01*
X-556328Y-276768D01*
X-556497Y-276978D01*
X-556671Y-277185D01*
X-556850Y-277387D01*
X-557033Y-277585D01*
X-557222Y-277778D01*
X-557415Y-277967D01*
X-557613Y-278150D01*
X-557815Y-278329D01*
X-558022Y-278503D01*
X-558232Y-278672D01*
X-558447Y-278835D01*
X-558666Y-278993D01*
X-558889Y-279146D01*
X-559115Y-279293D01*
X-559345Y-279435D01*
X-559578Y-279571D01*
X-559815Y-279701D01*
X-560054Y-279825D01*
X-560297Y-279944D01*
X-560542Y-280056D01*
X-560790Y-280163D01*
X-561041Y-280263D01*
X-561294Y-280357D01*
X-561550Y-280445D01*
X-561807Y-280526D01*
X-562066Y-280602D01*
X-562327Y-280670D01*
X-562590Y-280733D01*
X-562854Y-280789D01*
X-563119Y-280838D01*
X-563386Y-280881D01*
X-563653Y-280917D01*
X-563922Y-280947D01*
X-564191Y-280970D01*
X-564460Y-280987D01*
X-564730Y-280997D01*
X-565000Y-281000D01*
X-565270Y-280997D01*
X-565540Y-280987D01*
X-565809Y-280970D01*
X-566078Y-280947D01*
X-566347Y-280917D01*
X-566614Y-280881D01*
X-566881Y-280838D01*
X-567146Y-280789D01*
X-567410Y-280733D01*
X-567673Y-280670D01*
X-567934Y-280602D01*
X-568193Y-280526D01*
X-568450Y-280445D01*
X-568706Y-280357D01*
X-568959Y-280263D01*
X-569210Y-280163D01*
X-569458Y-280056D01*
X-569703Y-279944D01*
X-569946Y-279825D01*
X-570185Y-279701D01*
X-570422Y-279571D01*
X-570655Y-279435D01*
X-570885Y-279293D01*
X-571111Y-279146D01*
X-571334Y-278993D01*
X-571553Y-278835D01*
X-571768Y-278672D01*
X-571978Y-278503D01*
X-572185Y-278329D01*
X-572387Y-278150D01*
X-572585Y-277967D01*
X-572778Y-277778D01*
X-572967Y-277585D01*
X-573150Y-277387D01*
X-573329Y-277185D01*
X-573503Y-276978D01*
X-573672Y-276768D01*
X-573835Y-276553D01*
X-573993Y-276334D01*
X-574146Y-276111D01*
X-574293Y-275885D01*
X-574435Y-275655D01*
X-574571Y-275422D01*
X-574701Y-275185D01*
X-574825Y-274946D01*
X-574944Y-274703D01*
X-575056Y-274458D01*
X-575163Y-274210D01*
X-575263Y-273959D01*
X-575357Y-273706D01*
X-575445Y-273450D01*
X-575526Y-273193D01*
X-575602Y-272934D01*
X-575670Y-272673D01*
X-575733Y-272410D01*
X-575789Y-272146D01*
X-575838Y-271881D01*
X-575881Y-271614D01*
X-575917Y-271347D01*
X-575947Y-271078D01*
X-575970Y-270809D01*
X-575987Y-270540D01*
X-575997Y-270270D01*
X-576000Y-270000D01*
X-576000Y270000D02*
X-575997Y270270D01*
X-575987Y270540D01*
X-575970Y270809D01*
X-575947Y271078D01*
X-575917Y271347D01*
X-575881Y271614D01*
X-575838Y271881D01*
X-575789Y272146D01*
X-575733Y272410D01*
X-575670Y272673D01*
X-575602Y272934D01*
X-575526Y273193D01*
X-575445Y273450D01*
X-575357Y273706D01*
X-575263Y273959D01*
X-575163Y274210D01*
X-575056Y274458D01*
X-574944Y274703D01*
X-574825Y274946D01*
X-574701Y275185D01*
X-574571Y275422D01*
X-574435Y275655D01*
X-574293Y275885D01*
X-574146Y276111D01*
X-573993Y276334D01*
X-573835Y276553D01*
X-573672Y276768D01*
X-573503Y276978D01*
X-573329Y277185D01*
X-573150Y277387D01*
X-572967Y277585D01*
X-572778Y277778D01*
X-572585Y277967D01*
X-572387Y278150D01*
X-572185Y278329D01*
X-571978Y278503D01*
X-571768Y278672D01*
X-571553Y278835D01*
X-571334Y278993D01*
X-571111Y279146D01*
X-570885Y279293D01*
X-570655Y279435D01*
X-570422Y279571D01*
X-570185Y279701D01*
X-569946Y279825D01*
X-569703Y279944D01*
X-569458Y280056D01*
X-569210Y280163D01*
X-568959Y280263D01*
X-568706Y280357D01*
X-568450Y280445D01*
X-568193Y280526D01*
X-567934Y280602D01*
X-567673Y280670D01*
X-567410Y280733D01*
X-567146Y280789D01*
X-566881Y280838D01*
X-566614Y280881D01*
X-566347Y280917D01*
X-566078Y280947D01*
X-565809Y280970D01*
X-565540Y280987D01*
X-565270Y280997D01*
X-565000Y281000D01*
X-564730Y280997D01*
X-564460Y280987D01*
X-564191Y280970D01*
X-563922Y280947D01*
X-563653Y280917D01*
X-563386Y280881D01*
X-563119Y280838D01*
X-562854Y280789D01*
X-562590Y280733D01*
X-562327Y280670D01*
X-562066Y280602D01*
X-561807Y280526D01*
X-561550Y280445D01*
X-561294Y280357D01*
X-561041Y280263D01*
X-560790Y280163D01*
X-560542Y280056D01*
X-560297Y279944D01*
X-560054Y279825D01*
X-559815Y279701D01*
X-559578Y279571D01*
X-559345Y279435D01*
X-559115Y279293D01*
X-558889Y279146D01*
X-558666Y278993D01*
X-558447Y278835D01*
X-558232Y278672D01*
X-558022Y278503D01*
X-557815Y278329D01*
X-557613Y278150D01*
X-557415Y277967D01*
X-557222Y277778D01*
X-557033Y277585D01*
X-556850Y277387D01*
X-556671Y277185D01*
X-556497Y276978D01*
X-556328Y276768D01*
X-556165Y276553D01*
X-556007Y276334D01*
X-555854Y276111D01*
X-555707Y275885D01*
X-555565Y275655D01*
X-555429Y275422D01*
X-555299Y275185D01*
X-555175Y274946D01*
X-555056Y274703D01*
X-554944Y274458D01*
X-554837Y274210D01*
X-554737Y273959D01*
X-554643Y273706D01*
X-554555Y273450D01*
X-554474Y273193D01*
X-554398Y272934D01*
X-554330Y272673D01*
X-554267Y272410D01*
X-554211Y272146D01*
X-554162Y271881D01*
X-554119Y271614D01*
X-554083Y271347D01*
X-554053Y271078D01*
X-554030Y270809D01*
X-554013Y270540D01*
X-554003Y270270D01*
X-554000Y270000D01*
X-554003Y269730D01*
X-554013Y269460D01*
X-554030Y269191D01*
X-554053Y268922D01*
X-554083Y268653D01*
X-554119Y268386D01*
X-554162Y268119D01*
X-554211Y267854D01*
X-554267Y267590D01*
X-554330Y267327D01*
X-554398Y267066D01*
X-554474Y266807D01*
X-554555Y266550D01*
X-554643Y266294D01*
X-554737Y266041D01*
X-554837Y265790D01*
X-554944Y265542D01*
X-555056Y265297D01*
X-555175Y265054D01*
X-555299Y264815D01*
X-555429Y264578D01*
X-555565Y264345D01*
X-555707Y264115D01*
X-555854Y263889D01*
X-556007Y263666D01*
X-556165Y263447D01*
X-556328Y263232D01*
X-556497Y263022D01*
X-556671Y262815D01*
X-556850Y262613D01*
X-557033Y262415D01*
X-557222Y262222D01*
X-557415Y262033D01*
X-557613Y261850D01*
X-557815Y261671D01*
X-558022Y261497D01*
X-558232Y261328D01*
X-558447Y261165D01*
X-558666Y261007D01*
X-558889Y260854D01*
X-559115Y260707D01*
X-559345Y260565D01*
X-559578Y260429D01*
X-559815Y260299D01*
X-560054Y260175D01*
X-560297Y260056D01*
X-560542Y259944D01*
X-560790Y259837D01*
X-561041Y259737D01*
X-561294Y259643D01*
X-561550Y259555D01*
X-561807Y259474D01*
X-562066Y259398D01*
X-562327Y259330D01*
X-562590Y259267D01*
X-562854Y259211D01*
X-563119Y259162D01*
X-563386Y259119D01*
X-563653Y259083D01*
X-563922Y259053D01*
X-564191Y259030D01*
X-564460Y259013D01*
X-564730Y259003D01*
X-565000Y259000D01*
X-565270Y259003D01*
X-565540Y259013D01*
X-565809Y259030D01*
X-566078Y259053D01*
X-566347Y259083D01*
X-566614Y259119D01*
X-566881Y259162D01*
X-567146Y259211D01*
X-567410Y259267D01*
X-567673Y259330D01*
X-567934Y259398D01*
X-568193Y259474D01*
X-568450Y259555D01*
X-568706Y259643D01*
X-568959Y259737D01*
X-569210Y259837D01*
X-569458Y259944D01*
X-569703Y260056D01*
X-569946Y260175D01*
X-570185Y260299D01*
X-570422Y260429D01*
X-570655Y260565D01*
X-570885Y260707D01*
X-571111Y260854D01*
X-571334Y261007D01*
X-571553Y261165D01*
X-571768Y261328D01*
X-571978Y261497D01*
X-572185Y261671D01*
X-572387Y261850D01*
X-572585Y262033D01*
X-572778Y262222D01*
X-572967Y262415D01*
X-573150Y262613D01*
X-573329Y262815D01*
X-573503Y263022D01*
X-573672Y263232D01*
X-573835Y263447D01*
X-573993Y263666D01*
X-574146Y263889D01*
X-574293Y264115D01*
X-574435Y264345D01*
X-574571Y264578D01*
X-574701Y264815D01*
X-574825Y265054D01*
X-574944Y265297D01*
X-575056Y265542D01*
X-575163Y265790D01*
X-575263Y266041D01*
X-575357Y266294D01*
X-575445Y266550D01*
X-575526Y266807D01*
X-575602Y267066D01*
X-575670Y267327D01*
X-575733Y267590D01*
X-575789Y267854D01*
X-575838Y268119D01*
X-575881Y268386D01*
X-575917Y268653D01*
X-575947Y268922D01*
X-575970Y269191D01*
X-575987Y269460D01*
X-575997Y269730D01*
X-576000Y270000D01*
X1094000Y270000D02*
X1094003Y270270D01*
X1094013Y270540D01*
X1094030Y270809D01*
X1094053Y271078D01*
X1094083Y271347D01*
X1094119Y271614D01*
X1094162Y271881D01*
X1094211Y272146D01*
X1094267Y272410D01*
X1094330Y272673D01*
X1094398Y272934D01*
X1094474Y273193D01*
X1094555Y273450D01*
X1094643Y273706D01*
X1094737Y273959D01*
X1094837Y274210D01*
X1094944Y274458D01*
X1095056Y274703D01*
X1095175Y274946D01*
X1095299Y275185D01*
X1095429Y275422D01*
X1095565Y275655D01*
X1095707Y275885D01*
X1095854Y276111D01*
X1096007Y276334D01*
X1096165Y276553D01*
X1096328Y276768D01*
X1096497Y276978D01*
X1096671Y277185D01*
X1096850Y277387D01*
X1097033Y277585D01*
X1097222Y277778D01*
X1097415Y277967D01*
X1097613Y278150D01*
X1097815Y278329D01*
X1098022Y278503D01*
X1098232Y278672D01*
X1098447Y278835D01*
X1098666Y278993D01*
X1098889Y279146D01*
X1099115Y279293D01*
X1099345Y279435D01*
X1099578Y279571D01*
X1099815Y279701D01*
X1100054Y279825D01*
X1100297Y279944D01*
X1100542Y280056D01*
X1100790Y280163D01*
X1101041Y280263D01*
X1101294Y280357D01*
X1101550Y280445D01*
X1101807Y280526D01*
X1102066Y280602D01*
X1102327Y280670D01*
X1102590Y280733D01*
X1102854Y280789D01*
X1103119Y280838D01*
X1103386Y280881D01*
X1103653Y280917D01*
X1103922Y280947D01*
X1104191Y280970D01*
X1104460Y280987D01*
X1104730Y280997D01*
X1105000Y281000D01*
X1105270Y280997D01*
X1105540Y280987D01*
X1105809Y280970D01*
X1106078Y280947D01*
X1106347Y280917D01*
X1106614Y280881D01*
X1106881Y280838D01*
X1107146Y280789D01*
X1107410Y280733D01*
X1107673Y280670D01*
X1107934Y280602D01*
X1108193Y280526D01*
X1108450Y280445D01*
X1108706Y280357D01*
X1108959Y280263D01*
X1109210Y280163D01*
X1109458Y280056D01*
X1109703Y279944D01*
X1109946Y279825D01*
X1110185Y279701D01*
X1110422Y279571D01*
X1110655Y279435D01*
X1110885Y279293D01*
X1111111Y279146D01*
X1111334Y278993D01*
X1111553Y278835D01*
X1111768Y278672D01*
X1111978Y278503D01*
X1112185Y278329D01*
X1112387Y278150D01*
X1112585Y277967D01*
X1112778Y277778D01*
X1112967Y277585D01*
X1113150Y277387D01*
X1113329Y277185D01*
X1113503Y276978D01*
X1113672Y276768D01*
X1113835Y276553D01*
X1113993Y276334D01*
X1114146Y276111D01*
X1114293Y275885D01*
X1114435Y275655D01*
X1114571Y275422D01*
X1114701Y275185D01*
X1114825Y274946D01*
X1114944Y274703D01*
X1115056Y274458D01*
X1115163Y274210D01*
X1115263Y273959D01*
X1115357Y273706D01*
X1115445Y273450D01*
X1115526Y273193D01*
X1115602Y272934D01*
X1115670Y272673D01*
X1115733Y272410D01*
X1115789Y272146D01*
X1115838Y271881D01*
X1115881Y271614D01*
X1115917Y271347D01*
X1115947Y271078D01*
X1115970Y270809D01*
X1115987Y270540D01*
X1115997Y270270D01*
X1116000Y270000D01*
X1115997Y269730D01*
X1115987Y269460D01*
X1115970Y269191D01*
X1115947Y268922D01*
X1115917Y268653D01*
X1115881Y268386D01*
X1115838Y268119D01*
X1115789Y267854D01*
X1115733Y267590D01*
X1115670Y267327D01*
X1115602Y267066D01*
X1115526Y266807D01*
X1115445Y266550D01*
X1115357Y266294D01*
X1115263Y266041D01*
X1115163Y265790D01*
X1115056Y265542D01*
X1114944Y265297D01*
X1114825Y265054D01*
X1114701Y264815D01*
X1114571Y264578D01*
X1114435Y264345D01*
X1114293Y264115D01*
X1114146Y263889D01*
X1113993Y263666D01*
X1113835Y263447D01*
X1113672Y263232D01*
X1113503Y263022D01*
X1113329Y262815D01*
X1113150Y262613D01*
X1112967Y262415D01*
X1112778Y262222D01*
X1112585Y262033D01*
X1112387Y261850D01*
X1112185Y261671D01*
X1111978Y261497D01*
X1111768Y261328D01*
X1111553Y261165D01*
X1111334Y261007D01*
X1111111Y260854D01*
X1110885Y260707D01*
X1110655Y260565D01*
X1110422Y260429D01*
X1110185Y260299D01*
X1109946Y260175D01*
X1109703Y260056D01*
X1109458Y259944D01*
X1109210Y259837D01*
X1108959Y259737D01*
X1108706Y259643D01*
X1108450Y259555D01*
X1108193Y259474D01*
X1107934Y259398D01*
X1107673Y259330D01*
X1107410Y259267D01*
X1107146Y259211D01*
X1106881Y259162D01*
X1106614Y259119D01*
X1106347Y259083D01*
X1106078Y259053D01*
X1105809Y259030D01*
X1105540Y259013D01*
X1105270Y259003D01*
X1105000Y259000D01*
X1104730Y259003D01*
X1104460Y259013D01*
X1104191Y259030D01*
X1103922Y259053D01*
X1103653Y259083D01*
X1103386Y259119D01*
X1103119Y259162D01*
X1102854Y259211D01*
X1102590Y259267D01*
X1102327Y259330D01*
X1102066Y259398D01*
X1101807Y259474D01*
X1101550Y259555D01*
X1101294Y259643D01*
X1101041Y259737D01*
X1100790Y259837D01*
X1100542Y259944D01*
X1100297Y260056D01*
X1100054Y260175D01*
X1099815Y260299D01*
X1099578Y260429D01*
X1099345Y260565D01*
X1099115Y260707D01*
X1098889Y260854D01*
X1098666Y261007D01*
X1098447Y261165D01*
X1098232Y261328D01*
X1098022Y261497D01*
X1097815Y261671D01*
X1097613Y261850D01*
X1097415Y262033D01*
X1097222Y262222D01*
X1097033Y262415D01*
X1096850Y262613D01*
X1096671Y262815D01*
X1096497Y263022D01*
X1096328Y263232D01*
X1096165Y263447D01*
X1096007Y263666D01*
X1095854Y263889D01*
X1095707Y264115D01*
X1095565Y264345D01*
X1095429Y264578D01*
X1095299Y264815D01*
X1095175Y265054D01*
X1095056Y265297D01*
X1094944Y265542D01*
X1094837Y265790D01*
X1094737Y266041D01*
X1094643Y266294D01*
X1094555Y266550D01*
X1094474Y266807D01*
X1094398Y267066D01*
X1094330Y267327D01*
X1094267Y267590D01*
X1094211Y267854D01*
X1094162Y268119D01*
X1094119Y268386D01*
X1094083Y268653D01*
X1094053Y268922D01*
X1094030Y269191D01*
X1094013Y269460D01*
X1094003Y269730D01*
X1094000Y270000D01*
X1094000Y-270000D02*
X1094003Y-269730D01*
X1094013Y-269460D01*
X1094030Y-269191D01*
X1094053Y-268922D01*
X1094083Y-268653D01*
X1094119Y-268386D01*
X1094162Y-268119D01*
X1094211Y-267854D01*
X1094267Y-267590D01*
X1094330Y-267327D01*
X1094398Y-267066D01*
X1094474Y-266807D01*
X1094555Y-266550D01*
X1094643Y-266294D01*
X1094737Y-266041D01*
X1094837Y-265790D01*
X1094944Y-265542D01*
X1095056Y-265297D01*
X1095175Y-265054D01*
X1095299Y-264815D01*
X1095429Y-264578D01*
X1095565Y-264345D01*
X1095707Y-264115D01*
X1095854Y-263889D01*
X1096007Y-263666D01*
X1096165Y-263447D01*
X1096328Y-263232D01*
X1096497Y-263022D01*
X1096671Y-262815D01*
X1096850Y-262613D01*
X1097033Y-262415D01*
X1097222Y-262222D01*
X1097415Y-262033D01*
X1097613Y-261850D01*
X1097815Y-261671D01*
X1098022Y-261497D01*
X1098232Y-261328D01*
X1098447Y-261165D01*
X1098666Y-261007D01*
X1098889Y-260854D01*
X1099115Y-260707D01*
X1099345Y-260565D01*
X1099578Y-260429D01*
X1099815Y-260299D01*
X1100054Y-260175D01*
X1100297Y-260056D01*
X1100542Y-259944D01*
X1100790Y-259837D01*
X1101041Y-259737D01*
X1101294Y-259643D01*
X1101550Y-259555D01*
X1101807Y-259474D01*
X1102066Y-259398D01*
X1102327Y-259330D01*
X1102590Y-259267D01*
X1102854Y-259211D01*
X1103119Y-259162D01*
X1103386Y-259119D01*
X1103653Y-259083D01*
X1103922Y-259053D01*
X1104191Y-259030D01*
X1104460Y-259013D01*
X1104730Y-259003D01*
X1105000Y-259000D01*
X1105270Y-259003D01*
X1105540Y-259013D01*
X1105809Y-259030D01*
X1106078Y-259053D01*
X1106347Y-259083D01*
X1106614Y-259119D01*
X1106881Y-259162D01*
X1107146Y-259211D01*
X1107410Y-259267D01*
X1107673Y-259330D01*
X1107934Y-259398D01*
X1108193Y-259474D01*
X1108450Y-259555D01*
X1108706Y-259643D01*
X1108959Y-259737D01*
X1109210Y-259837D01*
X1109458Y-259944D01*
X1109703Y-260056D01*
X1109946Y-260175D01*
X1110185Y-260299D01*
X1110422Y-260429D01*
X1110655Y-260565D01*
X1110885Y-260707D01*
X1111111Y-260854D01*
X1111334Y-261007D01*
X1111553Y-261165D01*
X1111768Y-261328D01*
X1111978Y-261497D01*
X1112185Y-261671D01*
X1112387Y-261850D01*
X1112585Y-262033D01*
X1112778Y-262222D01*
X1112967Y-262415D01*
X1113150Y-262613D01*
X1113329Y-262815D01*
X1113503Y-263022D01*
X1113672Y-263232D01*
X1113835Y-263447D01*
X1113993Y-263666D01*
X1114146Y-263889D01*
X1114293Y-264115D01*
X1114435Y-264345D01*
X1114571Y-264578D01*
X1114701Y-264815D01*
X1114825Y-265054D01*
X1114944Y-265297D01*
X1115056Y-265542D01*
X1115163Y-265790D01*
X1115263Y-266041D01*
X1115357Y-266294D01*
X1115445Y-266550D01*
X1115526Y-266807D01*
X1115602Y-267066D01*
X1115670Y-267327D01*
X1115733Y-267590D01*
X1115789Y-267854D01*
X1115838Y-268119D01*
X1115881Y-268386D01*
X1115917Y-268653D01*
X1115947Y-268922D01*
X1115970Y-269191D01*
X1115987Y-269460D01*
X1115997Y-269730D01*
X1116000Y-270000D01*
X1115997Y-270270D01*
X1115987Y-270540D01*
X1115970Y-270809D01*
X1115947Y-271078D01*
X1115917Y-271347D01*
X1115881Y-271614D01*
X1115838Y-271881D01*
X1115789Y-272146D01*
X1115733Y-272410D01*
X1115670Y-272673D01*
X1115602Y-272934D01*
X1115526Y-273193D01*
X1115445Y-273450D01*
X1115357Y-273706D01*
X1115263Y-273959D01*
X1115163Y-274210D01*
X1115056Y-274458D01*
X1114944Y-274703D01*
X1114825Y-274946D01*
X1114701Y-275185D01*
X1114571Y-275422D01*
X1114435Y-275655D01*
X1114293Y-275885D01*
X1114146Y-276111D01*
X1113993Y-276334D01*
X1113835Y-276553D01*
X1113672Y-276768D01*
X1113503Y-276978D01*
X1113329Y-277185D01*
X1113150Y-277387D01*
X1112967Y-277585D01*
X1112778Y-277778D01*
X1112585Y-277967D01*
X1112387Y-278150D01*
X1112185Y-278329D01*
X1111978Y-278503D01*
X1111768Y-278672D01*
X1111553Y-278835D01*
X1111334Y-278993D01*
X1111111Y-279146D01*
X1110885Y-279293D01*
X1110655Y-279435D01*
X1110422Y-279571D01*
X1110185Y-279701D01*
X1109946Y-279825D01*
X1109703Y-279944D01*
X1109458Y-280056D01*
X1109210Y-280163D01*
X1108959Y-280263D01*
X1108706Y-280357D01*
X1108450Y-280445D01*
X1108193Y-280526D01*
X1107934Y-280602D01*
X1107673Y-280670D01*
X1107410Y-280733D01*
X1107146Y-280789D01*
X1106881Y-280838D01*
X1106614Y-280881D01*
X1106347Y-280917D01*
X1106078Y-280947D01*
X1105809Y-280970D01*
X1105540Y-280987D01*
X1105270Y-280997D01*
X1105000Y-281000D01*
X1104730Y-280997D01*
X1104460Y-280987D01*
X1104191Y-280970D01*
X1103922Y-280947D01*
X1103653Y-280917D01*
X1103386Y-280881D01*
X1103119Y-280838D01*
X1102854Y-280789D01*
X1102590Y-280733D01*
X1102327Y-280670D01*
X1102066Y-280602D01*
X1101807Y-280526D01*
X1101550Y-280445D01*
X1101294Y-280357D01*
X1101041Y-280263D01*
X1100790Y-280163D01*
X1100542Y-280056D01*
X1100297Y-279944D01*
X1100054Y-279825D01*
X1099815Y-279701D01*
X1099578Y-279571D01*
X1099345Y-279435D01*
X1099115Y-279293D01*
X1098889Y-279146D01*
X1098666Y-278993D01*
X1098447Y-278835D01*
X1098232Y-278672D01*
X1098022Y-278503D01*
X1097815Y-278329D01*
X1097613Y-278150D01*
X1097415Y-277967D01*
X1097222Y-277778D01*
X1097033Y-277585D01*
X1096850Y-277387D01*
X1096671Y-277185D01*
X1096497Y-276978D01*
X1096328Y-276768D01*
X1096165Y-276553D01*
X1096007Y-276334D01*
X1095854Y-276111D01*
X1095707Y-275885D01*
X1095565Y-275655D01*
X1095429Y-275422D01*
X1095299Y-275185D01*
X1095175Y-274946D01*
X1095056Y-274703D01*
X1094944Y-274458D01*
X1094837Y-274210D01*
X1094737Y-273959D01*
X1094643Y-273706D01*
X1094555Y-273450D01*
X1094474Y-273193D01*
X1094398Y-272934D01*
X1094330Y-272673D01*
X1094267Y-272410D01*
X1094211Y-272146D01*
X1094162Y-271881D01*
X1094119Y-271614D01*
X1094083Y-271347D01*
X1094053Y-271078D01*
X1094030Y-270809D01*
X1094013Y-270540D01*
X1094003Y-270270D01*
X1094000Y-270000D01*
X1094003Y-269730D01*
X1094013Y-269460D01*
X1094030Y-269191D01*
X1094053Y-268922D01*
X1094083Y-268653D01*
X1094119Y-268386D01*
X1094162Y-268119D01*
X1094211Y-267854D01*
X1094267Y-267590D01*
X1094330Y-267327D01*
X1094398Y-267066D01*
X1094474Y-266807D01*
X1094555Y-266550D01*
X1094643Y-266294D01*
X1094737Y-266041D01*
X1094837Y-265790D01*
X1094944Y-265542D01*
X1095056Y-265297D01*
X1095175Y-265054D01*
X1095299Y-264815D01*
X1095429Y-264578D01*
X1095565Y-264345D01*
X1095707Y-264115D01*
X1095854Y-263889D01*
X1096007Y-263666D01*
X1096165Y-263447D01*
X1096328Y-263232D01*
X1096497Y-263022D01*
X1096671Y-262815D01*
X1096850Y-262613D01*
X1097033Y-262415D01*
X1097222Y-262222D01*
X1097415Y-262033D01*
X1097613Y-261850D01*
X1097815Y-261671D01*
X1098022Y-261497D01*
X1098232Y-261328D01*
X1098447Y-261165D01*
X1098666Y-261007D01*
X1098889Y-260854D01*
X1099115Y-260707D01*
X1099345Y-260565D01*
X1099578Y-260429D01*
X1099815Y-260299D01*
X1100054Y-260175D01*
X1100297Y-260056D01*
X1100542Y-259944D01*
X1100790Y-259837D01*
X1101041Y-259737D01*
X1101294Y-259643D01*
X1101550Y-259555D01*
X1101807Y-259474D01*
X1102066Y-259398D01*
X1102327Y-259330D01*
X1102590Y-259267D01*
X1102854Y-259211D01*
X1103119Y-259162D01*
X1103386Y-259119D01*
X1103653Y-259083D01*
X1103922Y-259053D01*
X1104191Y-259030D01*
X1104460Y-259013D01*
X1104730Y-259003D01*
X1105000Y-259000D01*
X1105270Y-259003D01*
X1105540Y-259013D01*
X1105809Y-259030D01*
X1106078Y-259053D01*
X1106347Y-259083D01*
X1106614Y-259119D01*
X1106881Y-259162D01*
X1107146Y-259211D01*
X1107410Y-259267D01*
X1107673Y-259330D01*
X1107934Y-259398D01*
X1108193Y-259474D01*
X1108450Y-259555D01*
X1108706Y-259643D01*
X1108959Y-259737D01*
X1109210Y-259837D01*
X1109458Y-259944D01*
X1109703Y-260056D01*
X1109946Y-260175D01*
X1110185Y-260299D01*
X1110422Y-260429D01*
X1110655Y-260565D01*
X1110885Y-260707D01*
X1111111Y-260854D01*
X1111334Y-261007D01*
X1111553Y-261165D01*
X1111768Y-261328D01*
X1111978Y-261497D01*
X1112185Y-261671D01*
X1112387Y-261850D01*
X1112585Y-262033D01*
X1112778Y-262222D01*
X1112967Y-262415D01*
X1113150Y-262613D01*
X1113329Y-262815D01*
X1113503Y-263022D01*
X1113672Y-263232D01*
X1113835Y-263447D01*
X1113993Y-263666D01*
X1114146Y-263889D01*
X1114293Y-264115D01*
X1114435Y-264345D01*
X1114571Y-264578D01*
X1114701Y-264815D01*
X1114825Y-265054D01*
X1114944Y-265297D01*
X1115056Y-265542D01*
X1115163Y-265790D01*
X1115263Y-266041D01*
X1115357Y-266294D01*
X1115445Y-266550D01*
X1115526Y-266807D01*
X1115602Y-267066D01*
X1115670Y-267327D01*
X1115733Y-267590D01*
X1115789Y-267854D01*
X1115838Y-268119D01*
X1115881Y-268386D01*
X1115917Y-268653D01*
X1115947Y-268922D01*
X1115970Y-269191D01*
X1115987Y-269460D01*
X1115997Y-269730D01*
X1116000Y-270000D01*
X1115997Y-270270D01*
X1115987Y-270540D01*
X1115970Y-270809D01*
X1115947Y-271078D01*
X1115917Y-271347D01*
X1115881Y-271614D01*
X1115838Y-271881D01*
X1115789Y-272146D01*
X1115733Y-272410D01*
X1115670Y-272673D01*
X1115602Y-272934D01*
X1115526Y-273193D01*
X1115445Y-273450D01*
X1115357Y-273706D01*
X1115263Y-273959D01*
X1115163Y-274210D01*
X1115056Y-274458D01*
X1114944Y-274703D01*
X1114825Y-274946D01*
X1114701Y-275185D01*
X1114571Y-275422D01*
X1114435Y-275655D01*
X1114293Y-275885D01*
X1114146Y-276111D01*
X1113993Y-276334D01*
X1113835Y-276553D01*
X1113672Y-276768D01*
X1113503Y-276978D01*
X1113329Y-277185D01*
X1113150Y-277387D01*
X1112967Y-277585D01*
X1112778Y-277778D01*
X1112585Y-277967D01*
X1112387Y-278150D01*
X1112185Y-278329D01*
X1111978Y-278503D01*
X1111768Y-278672D01*
X1111553Y-278835D01*
X1111334Y-278993D01*
X1111111Y-279146D01*
X1110885Y-279293D01*
X1110655Y-279435D01*
X1110422Y-279571D01*
X1110185Y-279701D01*
X1109946Y-279825D01*
X1109703Y-279944D01*
X1109458Y-280056D01*
X1109210Y-280163D01*
X1108959Y-280263D01*
X1108706Y-280357D01*
X1108450Y-280445D01*
X1108193Y-280526D01*
X1107934Y-280602D01*
X1107673Y-280670D01*
X1107410Y-280733D01*
X1107146Y-280789D01*
X1106881Y-280838D01*
X1106614Y-280881D01*
X1106347Y-280917D01*
X1106078Y-280947D01*
X1105809Y-280970D01*
X1105540Y-280987D01*
X1105270Y-280997D01*
X1105000Y-281000D01*
X1104730Y-280997D01*
X1104460Y-280987D01*
X1104191Y-280970D01*
X1103922Y-280947D01*
X1103653Y-280917D01*
X1103386Y-280881D01*
X1103119Y-280838D01*
X1102854Y-280789D01*
X1102590Y-280733D01*
X1102327Y-280670D01*
X1102066Y-280602D01*
X1101807Y-280526D01*
X1101550Y-280445D01*
X1101294Y-280357D01*
X1101041Y-280263D01*
X1100790Y-280163D01*
X1100542Y-280056D01*
X1100297Y-279944D01*
X1100054Y-279825D01*
X1099815Y-279701D01*
X1099578Y-279571D01*
X1099345Y-279435D01*
X1099115Y-279293D01*
X1098889Y-279146D01*
X1098666Y-278993D01*
X1098447Y-278835D01*
X1098232Y-278672D01*
X1098022Y-278503D01*
X1097815Y-278329D01*
X1097613Y-278150D01*
X1097415Y-277967D01*
X1097222Y-277778D01*
X1097033Y-277585D01*
X1096850Y-277387D01*
X1096671Y-277185D01*
X1096497Y-276978D01*
X1096328Y-276768D01*
X1096165Y-276553D01*
X1096007Y-276334D01*
X1095854Y-276111D01*
X1095707Y-275885D01*
X1095565Y-275655D01*
X1095429Y-275422D01*
X1095299Y-275185D01*
X1095175Y-274946D01*
X1095056Y-274703D01*
X1094944Y-274458D01*
X1094837Y-274210D01*
X1094737Y-273959D01*
X1094643Y-273706D01*
X1094555Y-273450D01*
X1094474Y-273193D01*
X1094398Y-272934D01*
X1094330Y-272673D01*
X1094267Y-272410D01*
X1094211Y-272146D01*
X1094162Y-271881D01*
X1094119Y-271614D01*
X1094083Y-271347D01*
X1094053Y-271078D01*
X1094030Y-270809D01*
X1094013Y-270540D01*
X1094003Y-270270D01*
X1094000Y-270000D01*
X554000Y270000D02*
X554003Y270270D01*
X554013Y270540D01*
X554030Y270809D01*
X554053Y271078D01*
X554083Y271347D01*
X554119Y271614D01*
X554162Y271881D01*
X554211Y272146D01*
X554267Y272410D01*
X554330Y272673D01*
X554398Y272934D01*
X554474Y273193D01*
X554555Y273450D01*
X554643Y273706D01*
X554737Y273959D01*
X554837Y274210D01*
X554944Y274458D01*
X555056Y274703D01*
X555175Y274946D01*
X555299Y275185D01*
X555429Y275422D01*
X555565Y275655D01*
X555707Y275885D01*
X555854Y276111D01*
X556007Y276334D01*
X556165Y276553D01*
X556328Y276768D01*
X556497Y276978D01*
X556671Y277185D01*
X556850Y277387D01*
X557033Y277585D01*
X557222Y277778D01*
X557415Y277967D01*
X557613Y278150D01*
X557815Y278329D01*
X558022Y278503D01*
X558232Y278672D01*
X558447Y278835D01*
X558666Y278993D01*
X558889Y279146D01*
X559115Y279293D01*
X559345Y279435D01*
X559578Y279571D01*
X559815Y279701D01*
X560054Y279825D01*
X560297Y279944D01*
X560542Y280056D01*
X560790Y280163D01*
X561041Y280263D01*
X561294Y280357D01*
X561550Y280445D01*
X561807Y280526D01*
X562066Y280602D01*
X562327Y280670D01*
X562590Y280733D01*
X562854Y280789D01*
X563119Y280838D01*
X563386Y280881D01*
X563653Y280917D01*
X563922Y280947D01*
X564191Y280970D01*
X564460Y280987D01*
X564730Y280997D01*
X565000Y281000D01*
X565270Y280997D01*
X565540Y280987D01*
X565809Y280970D01*
X566078Y280947D01*
X566347Y280917D01*
X566614Y280881D01*
X566881Y280838D01*
X567146Y280789D01*
X567410Y280733D01*
X567673Y280670D01*
X567934Y280602D01*
X568193Y280526D01*
X568450Y280445D01*
X568706Y280357D01*
X568959Y280263D01*
X569210Y280163D01*
X569458Y280056D01*
X569703Y279944D01*
X569946Y279825D01*
X570185Y279701D01*
X570422Y279571D01*
X570655Y279435D01*
X570885Y279293D01*
X571111Y279146D01*
X571334Y278993D01*
X571553Y278835D01*
X571768Y278672D01*
X571978Y278503D01*
X572185Y278329D01*
X572387Y278150D01*
X572585Y277967D01*
X572778Y277778D01*
X572967Y277585D01*
X573150Y277387D01*
X573329Y277185D01*
X573503Y276978D01*
X573672Y276768D01*
X573835Y276553D01*
X573993Y276334D01*
X574146Y276111D01*
X574293Y275885D01*
X574435Y275655D01*
X574571Y275422D01*
X574701Y275185D01*
X574825Y274946D01*
X574944Y274703D01*
X575056Y274458D01*
X575163Y274210D01*
X575263Y273959D01*
X575357Y273706D01*
X575445Y273450D01*
X575526Y273193D01*
X575602Y272934D01*
X575670Y272673D01*
X575733Y272410D01*
X575789Y272146D01*
X575838Y271881D01*
X575881Y271614D01*
X575917Y271347D01*
X575947Y271078D01*
X575970Y270809D01*
X575987Y270540D01*
X575997Y270270D01*
X576000Y270000D01*
X575997Y269730D01*
X575987Y269460D01*
X575970Y269191D01*
X575947Y268922D01*
X575917Y268653D01*
X575881Y268386D01*
X575838Y268119D01*
X575789Y267854D01*
X575733Y267590D01*
X575670Y267327D01*
X575602Y267066D01*
X575526Y266807D01*
X575445Y266550D01*
X575357Y266294D01*
X575263Y266041D01*
X575163Y265790D01*
X575056Y265542D01*
X574944Y265297D01*
X574825Y265054D01*
X574701Y264815D01*
X574571Y264578D01*
X574435Y264345D01*
X574293Y264115D01*
X574146Y263889D01*
X573993Y263666D01*
X573835Y263447D01*
X573672Y263232D01*
X573503Y263022D01*
X573329Y262815D01*
X573150Y262613D01*
X572967Y262415D01*
X572778Y262222D01*
X572585Y262033D01*
X572387Y261850D01*
X572185Y261671D01*
X571978Y261497D01*
X571768Y261328D01*
X571553Y261165D01*
X571334Y261007D01*
X571111Y260854D01*
X570885Y260707D01*
X570655Y260565D01*
X570422Y260429D01*
X570185Y260299D01*
X569946Y260175D01*
X569703Y260056D01*
X569458Y259944D01*
X569210Y259837D01*
X568959Y259737D01*
X568706Y259643D01*
X568450Y259555D01*
X568193Y259474D01*
X567934Y259398D01*
X567673Y259330D01*
X567410Y259267D01*
X567146Y259211D01*
X566881Y259162D01*
X566614Y259119D01*
X566347Y259083D01*
X566078Y259053D01*
X565809Y259030D01*
X565540Y259013D01*
X565270Y259003D01*
X565000Y259000D01*
X564730Y259003D01*
X564460Y259013D01*
X564191Y259030D01*
X563922Y259053D01*
X563653Y259083D01*
X563386Y259119D01*
X563119Y259162D01*
X562854Y259211D01*
X562590Y259267D01*
X562327Y259330D01*
X562066Y259398D01*
X561807Y259474D01*
X561550Y259555D01*
X561294Y259643D01*
X561041Y259737D01*
X560790Y259837D01*
X560542Y259944D01*
X560297Y260056D01*
X560054Y260175D01*
X559815Y260299D01*
X559578Y260429D01*
X559345Y260565D01*
X559115Y260707D01*
X558889Y260854D01*
X558666Y261007D01*
X558447Y261165D01*
X558232Y261328D01*
X558022Y261497D01*
X557815Y261671D01*
X557613Y261850D01*
X557415Y262033D01*
X557222Y262222D01*
X557033Y262415D01*
X556850Y262613D01*
X556671Y262815D01*
X556497Y263022D01*
X556328Y263232D01*
X556165Y263447D01*
X556007Y263666D01*
X555854Y263889D01*
X555707Y264115D01*
X555565Y264345D01*
X555429Y264578D01*
X555299Y264815D01*
X555175Y265054D01*
X555056Y265297D01*
X554944Y265542D01*
X554837Y265790D01*
X554737Y266041D01*
X554643Y266294D01*
X554555Y266550D01*
X554474Y266807D01*
X554398Y267066D01*
X554330Y267327D01*
X554267Y267590D01*
X554211Y267854D01*
X554162Y268119D01*
X554119Y268386D01*
X554083Y268653D01*
X554053Y268922D01*
X554030Y269191D01*
X554013Y269460D01*
X554003Y269730D01*
X554000Y270000D01*
X554000Y-270000D02*
X554003Y-269730D01*
X554013Y-269460D01*
X554030Y-269191D01*
X554053Y-268922D01*
X554083Y-268653D01*
X554119Y-268386D01*
X554162Y-268119D01*
X554211Y-267854D01*
X554267Y-267590D01*
X554330Y-267327D01*
X554398Y-267066D01*
X554474Y-266807D01*
X554555Y-266550D01*
X554643Y-266294D01*
X554737Y-266041D01*
X554837Y-265790D01*
X554944Y-265542D01*
X555056Y-265297D01*
X555175Y-265054D01*
X555299Y-264815D01*
X555429Y-264578D01*
X555565Y-264345D01*
X555707Y-264115D01*
X555854Y-263889D01*
X556007Y-263666D01*
X556165Y-263447D01*
X556328Y-263232D01*
X556497Y-263022D01*
X556671Y-262815D01*
X556850Y-262613D01*
X557033Y-262415D01*
X557222Y-262222D01*
X557415Y-262033D01*
X557613Y-261850D01*
X557815Y-261671D01*
X558022Y-261497D01*
X558232Y-261328D01*
X558447Y-261165D01*
X558666Y-261007D01*
X558889Y-260854D01*
X559115Y-260707D01*
X559345Y-260565D01*
X559578Y-260429D01*
X559815Y-260299D01*
X560054Y-260175D01*
X560297Y-260056D01*
X560542Y-259944D01*
X560790Y-259837D01*
X561041Y-259737D01*
X561294Y-259643D01*
X561550Y-259555D01*
X561807Y-259474D01*
X562066Y-259398D01*
X562327Y-259330D01*
X562590Y-259267D01*
X562854Y-259211D01*
X563119Y-259162D01*
X563386Y-259119D01*
X563653Y-259083D01*
X563922Y-259053D01*
X564191Y-259030D01*
X564460Y-259013D01*
X564730Y-259003D01*
X565000Y-259000D01*
X565270Y-259003D01*
X565540Y-259013D01*
X565809Y-259030D01*
X566078Y-259053D01*
X566347Y-259083D01*
X566614Y-259119D01*
X566881Y-259162D01*
X567146Y-259211D01*
X567410Y-259267D01*
X567673Y-259330D01*
X567934Y-259398D01*
X568193Y-259474D01*
X568450Y-259555D01*
X568706Y-259643D01*
X568959Y-259737D01*
X569210Y-259837D01*
X569458Y-259944D01*
X569703Y-260056D01*
X569946Y-260175D01*
X570185Y-260299D01*
X570422Y-260429D01*
X570655Y-260565D01*
X570885Y-260707D01*
X571111Y-260854D01*
X571334Y-261007D01*
X571553Y-261165D01*
X571768Y-261328D01*
X571978Y-261497D01*
X572185Y-261671D01*
X572387Y-261850D01*
X572585Y-262033D01*
X572778Y-262222D01*
X572967Y-262415D01*
X573150Y-262613D01*
X573329Y-262815D01*
X573503Y-263022D01*
X573672Y-263232D01*
X573835Y-263447D01*
X573993Y-263666D01*
X574146Y-263889D01*
X574293Y-264115D01*
X574435Y-264345D01*
X574571Y-264578D01*
X574701Y-264815D01*
X574825Y-265054D01*
X574944Y-265297D01*
X575056Y-265542D01*
X575163Y-265790D01*
X575263Y-266041D01*
X575357Y-266294D01*
X575445Y-266550D01*
X575526Y-266807D01*
X575602Y-267066D01*
X575670Y-267327D01*
X575733Y-267590D01*
X575789Y-267854D01*
X575838Y-268119D01*
X575881Y-268386D01*
X575917Y-268653D01*
X575947Y-268922D01*
X575970Y-269191D01*
X575987Y-269460D01*
X575997Y-269730D01*
X576000Y-270000D01*
X575997Y-270270D01*
X575987Y-270540D01*
X575970Y-270809D01*
X575947Y-271078D01*
X575917Y-271347D01*
X575881Y-271614D01*
X575838Y-271881D01*
X575789Y-272146D01*
X575733Y-272410D01*
X575670Y-272673D01*
X575602Y-272934D01*
X575526Y-273193D01*
X575445Y-273450D01*
X575357Y-273706D01*
X575263Y-273959D01*
X575163Y-274210D01*
X575056Y-274458D01*
X574944Y-274703D01*
X574825Y-274946D01*
X574701Y-275185D01*
X574571Y-275422D01*
X574435Y-275655D01*
X574293Y-275885D01*
X574146Y-276111D01*
X573993Y-276334D01*
X573835Y-276553D01*
X573672Y-276768D01*
X573503Y-276978D01*
X573329Y-277185D01*
X573150Y-277387D01*
X572967Y-277585D01*
X572778Y-277778D01*
X572585Y-277967D01*
X572387Y-278150D01*
X572185Y-278329D01*
X571978Y-278503D01*
X571768Y-278672D01*
X571553Y-278835D01*
X571334Y-278993D01*
X571111Y-279146D01*
X570885Y-279293D01*
X570655Y-279435D01*
X570422Y-279571D01*
X570185Y-279701D01*
X569946Y-279825D01*
X569703Y-279944D01*
X569458Y-280056D01*
X569210Y-280163D01*
X568959Y-280263D01*
X568706Y-280357D01*
X568450Y-280445D01*
X568193Y-280526D01*
X567934Y-280602D01*
X567673Y-280670D01*
X567410Y-280733D01*
X567146Y-280789D01*
X566881Y-280838D01*
X566614Y-280881D01*
X566347Y-280917D01*
X566078Y-280947D01*
X565809Y-280970D01*
X565540Y-280987D01*
X565270Y-280997D01*
X565000Y-281000D01*
X564730Y-280997D01*
X564460Y-280987D01*
X564191Y-280970D01*
X563922Y-280947D01*
X563653Y-280917D01*
X563386Y-280881D01*
X563119Y-280838D01*
X562854Y-280789D01*
X562590Y-280733D01*
X562327Y-280670D01*
X562066Y-280602D01*
X561807Y-280526D01*
X561550Y-280445D01*
X561294Y-280357D01*
X561041Y-280263D01*
X560790Y-280163D01*
X560542Y-280056D01*
X560297Y-279944D01*
X560054Y-279825D01*
X559815Y-279701D01*
X559578Y-279571D01*
X559345Y-279435D01*
X559115Y-279293D01*
X558889Y-279146D01*
X558666Y-278993D01*
X558447Y-278835D01*
X558232Y-278672D01*
X558022Y-278503D01*
X557815Y-278329D01*
X557613Y-278150D01*
X557415Y-277967D01*
X557222Y-277778D01*
X557033Y-277585D01*
X556850Y-277387D01*
X556671Y-277185D01*
X556497Y-276978D01*
X556328Y-276768D01*
X556165Y-276553D01*
X556007Y-276334D01*
X555854Y-276111D01*
X555707Y-275885D01*
X555565Y-275655D01*
X555429Y-275422D01*
X555299Y-275185D01*
X555175Y-274946D01*
X555056Y-274703D01*
X554944Y-274458D01*
X554837Y-274210D01*
X554737Y-273959D01*
X554643Y-273706D01*
X554555Y-273450D01*
X554474Y-273193D01*
X554398Y-272934D01*
X554330Y-272673D01*
X554267Y-272410D01*
X554211Y-272146D01*
X554162Y-271881D01*
X554119Y-271614D01*
X554083Y-271347D01*
X554053Y-271078D01*
X554030Y-270809D01*
X554013Y-270540D01*
X554003Y-270270D01*
X554000Y-270000D01*
X-68000Y-280000D02*
X-67997Y-279730D01*
X-67987Y-279460D01*
X-67970Y-279191D01*
X-67947Y-278922D01*
X-67917Y-278653D01*
X-67881Y-278386D01*
X-67838Y-278119D01*
X-67789Y-277854D01*
X-67733Y-277590D01*
X-67670Y-277327D01*
X-67602Y-277066D01*
X-67526Y-276807D01*
X-67445Y-276550D01*
X-67357Y-276294D01*
X-67263Y-276041D01*
X-67163Y-275790D01*
X-67056Y-275542D01*
X-66944Y-275297D01*
X-66825Y-275054D01*
X-66701Y-274815D01*
X-66571Y-274578D01*
X-66435Y-274345D01*
X-66293Y-274115D01*
X-66146Y-273889D01*
X-65993Y-273666D01*
X-65835Y-273447D01*
X-65672Y-273232D01*
X-65503Y-273022D01*
X-65329Y-272815D01*
X-65150Y-272613D01*
X-64967Y-272415D01*
X-64778Y-272222D01*
X-64585Y-272033D01*
X-64387Y-271850D01*
X-64185Y-271671D01*
X-63978Y-271497D01*
X-63768Y-271328D01*
X-63553Y-271165D01*
X-63334Y-271007D01*
X-63111Y-270854D01*
X-62885Y-270707D01*
X-62655Y-270565D01*
X-62422Y-270429D01*
X-62185Y-270299D01*
X-61946Y-270175D01*
X-61703Y-270056D01*
X-61458Y-269944D01*
X-61210Y-269837D01*
X-60959Y-269737D01*
X-60706Y-269643D01*
X-60450Y-269555D01*
X-60193Y-269474D01*
X-59934Y-269398D01*
X-59673Y-269330D01*
X-59410Y-269267D01*
X-59146Y-269211D01*
X-58881Y-269162D01*
X-58614Y-269119D01*
X-58347Y-269083D01*
X-58078Y-269053D01*
X-57809Y-269030D01*
X-57540Y-269013D01*
X-57270Y-269003D01*
X-57000Y-269000D01*
X-56730Y-269003D01*
X-56460Y-269013D01*
X-56191Y-269030D01*
X-55922Y-269053D01*
X-55653Y-269083D01*
X-55386Y-269119D01*
X-55119Y-269162D01*
X-54854Y-269211D01*
X-54590Y-269267D01*
X-54327Y-269330D01*
X-54066Y-269398D01*
X-53807Y-269474D01*
X-53550Y-269555D01*
X-53294Y-269643D01*
X-53041Y-269737D01*
X-52790Y-269837D01*
X-52542Y-269944D01*
X-52297Y-270056D01*
X-52054Y-270175D01*
X-51815Y-270299D01*
X-51578Y-270429D01*
X-51345Y-270565D01*
X-51115Y-270707D01*
X-50889Y-270854D01*
X-50666Y-271007D01*
X-50447Y-271165D01*
X-50232Y-271328D01*
X-50022Y-271497D01*
X-49815Y-271671D01*
X-49613Y-271850D01*
X-49415Y-272033D01*
X-49222Y-272222D01*
X-49033Y-272415D01*
X-48850Y-272613D01*
X-48671Y-272815D01*
X-48497Y-273022D01*
X-48328Y-273232D01*
X-48165Y-273447D01*
X-48007Y-273666D01*
X-47854Y-273889D01*
X-47707Y-274115D01*
X-47565Y-274345D01*
X-47429Y-274578D01*
X-47299Y-274815D01*
X-47175Y-275054D01*
X-47056Y-275297D01*
X-46944Y-275542D01*
X-46837Y-275790D01*
X-46737Y-276041D01*
X-46643Y-276294D01*
X-46555Y-276550D01*
X-46474Y-276807D01*
X-46398Y-277066D01*
X-46330Y-277327D01*
X-46267Y-277590D01*
X-46211Y-277854D01*
X-46162Y-278119D01*
X-46119Y-278386D01*
X-46083Y-278653D01*
X-46053Y-278922D01*
X-46030Y-279191D01*
X-46013Y-279460D01*
X-46003Y-279730D01*
X-46000Y-280000D01*
X-46003Y-280270D01*
X-46013Y-280540D01*
X-46030Y-280809D01*
X-46053Y-281078D01*
X-46083Y-281347D01*
X-46119Y-281614D01*
X-46162Y-281881D01*
X-46211Y-282146D01*
X-46267Y-282410D01*
X-46330Y-282673D01*
X-46398Y-282934D01*
X-46474Y-283193D01*
X-46555Y-283450D01*
X-46643Y-283706D01*
X-46737Y-283959D01*
X-46837Y-284210D01*
X-46944Y-284458D01*
X-47056Y-284703D01*
X-47175Y-284946D01*
X-47299Y-285185D01*
X-47429Y-285422D01*
X-47565Y-285655D01*
X-47707Y-285885D01*
X-47854Y-286111D01*
X-48007Y-286334D01*
X-48165Y-286553D01*
X-48328Y-286768D01*
X-48497Y-286978D01*
X-48671Y-287185D01*
X-48850Y-287387D01*
X-49033Y-287585D01*
X-49222Y-287778D01*
X-49415Y-287967D01*
X-49613Y-288150D01*
X-49815Y-288329D01*
X-50022Y-288503D01*
X-50232Y-288672D01*
X-50447Y-288835D01*
X-50666Y-288993D01*
X-50889Y-289146D01*
X-51115Y-289293D01*
X-51345Y-289435D01*
X-51578Y-289571D01*
X-51815Y-289701D01*
X-52054Y-289825D01*
X-52297Y-289944D01*
X-52542Y-290056D01*
X-52790Y-290163D01*
X-53041Y-290263D01*
X-53294Y-290357D01*
X-53550Y-290445D01*
X-53807Y-290526D01*
X-54066Y-290602D01*
X-54327Y-290670D01*
X-54590Y-290733D01*
X-54854Y-290789D01*
X-55119Y-290838D01*
X-55386Y-290881D01*
X-55653Y-290917D01*
X-55922Y-290947D01*
X-56191Y-290970D01*
X-56460Y-290987D01*
X-56730Y-290997D01*
X-57000Y-291000D01*
X-57270Y-290997D01*
X-57540Y-290987D01*
X-57809Y-290970D01*
X-58078Y-290947D01*
X-58347Y-290917D01*
X-58614Y-290881D01*
X-58881Y-290838D01*
X-59146Y-290789D01*
X-59410Y-290733D01*
X-59673Y-290670D01*
X-59934Y-290602D01*
X-60193Y-290526D01*
X-60450Y-290445D01*
X-60706Y-290357D01*
X-60959Y-290263D01*
X-61210Y-290163D01*
X-61458Y-290056D01*
X-61703Y-289944D01*
X-61946Y-289825D01*
X-62185Y-289701D01*
X-62422Y-289571D01*
X-62655Y-289435D01*
X-62885Y-289293D01*
X-63111Y-289146D01*
X-63334Y-288993D01*
X-63553Y-288835D01*
X-63768Y-288672D01*
X-63978Y-288503D01*
X-64185Y-288329D01*
X-64387Y-288150D01*
X-64585Y-287967D01*
X-64778Y-287778D01*
X-64967Y-287585D01*
X-65150Y-287387D01*
X-65329Y-287185D01*
X-65503Y-286978D01*
X-65672Y-286768D01*
X-65835Y-286553D01*
X-65993Y-286334D01*
X-66146Y-286111D01*
X-66293Y-285885D01*
X-66435Y-285655D01*
X-66571Y-285422D01*
X-66701Y-285185D01*
X-66825Y-284946D01*
X-66944Y-284703D01*
X-67056Y-284458D01*
X-67163Y-284210D01*
X-67263Y-283959D01*
X-67357Y-283706D01*
X-67445Y-283450D01*
X-67526Y-283193D01*
X-67602Y-282934D01*
X-67670Y-282673D01*
X-67733Y-282410D01*
X-67789Y-282146D01*
X-67838Y-281881D01*
X-67881Y-281614D01*
X-67917Y-281347D01*
X-67947Y-281078D01*
X-67970Y-280809D01*
X-67987Y-280540D01*
X-67997Y-280270D01*
X-68000Y-280000D01*
X46000Y-280000D02*
X46003Y-279730D01*
X46013Y-279460D01*
X46030Y-279191D01*
X46053Y-278922D01*
X46083Y-278653D01*
X46119Y-278386D01*
X46162Y-278119D01*
X46211Y-277854D01*
X46267Y-277590D01*
X46330Y-277327D01*
X46398Y-277066D01*
X46474Y-276807D01*
X46555Y-276550D01*
X46643Y-276294D01*
X46737Y-276041D01*
X46837Y-275790D01*
X46944Y-275542D01*
X47056Y-275297D01*
X47175Y-275054D01*
X47299Y-274815D01*
X47429Y-274578D01*
X47565Y-274345D01*
X47707Y-274115D01*
X47854Y-273889D01*
X48007Y-273666D01*
X48165Y-273447D01*
X48328Y-273232D01*
X48497Y-273022D01*
X48671Y-272815D01*
X48850Y-272613D01*
X49033Y-272415D01*
X49222Y-272222D01*
X49415Y-272033D01*
X49613Y-271850D01*
X49815Y-271671D01*
X50022Y-271497D01*
X50232Y-271328D01*
X50447Y-271165D01*
X50666Y-271007D01*
X50889Y-270854D01*
X51115Y-270707D01*
X51345Y-270565D01*
X51578Y-270429D01*
X51815Y-270299D01*
X52054Y-270175D01*
X52297Y-270056D01*
X52542Y-269944D01*
X52790Y-269837D01*
X53041Y-269737D01*
X53294Y-269643D01*
X53550Y-269555D01*
X53807Y-269474D01*
X54066Y-269398D01*
X54327Y-269330D01*
X54590Y-269267D01*
X54854Y-269211D01*
X55119Y-269162D01*
X55386Y-269119D01*
X55653Y-269083D01*
X55922Y-269053D01*
X56191Y-269030D01*
X56460Y-269013D01*
X56730Y-269003D01*
X57000Y-269000D01*
X57270Y-269003D01*
X57540Y-269013D01*
X57809Y-269030D01*
X58078Y-269053D01*
X58347Y-269083D01*
X58614Y-269119D01*
X58881Y-269162D01*
X59146Y-269211D01*
X59410Y-269267D01*
X59673Y-269330D01*
X59934Y-269398D01*
X60193Y-269474D01*
X60450Y-269555D01*
X60706Y-269643D01*
X60959Y-269737D01*
X61210Y-269837D01*
X61458Y-269944D01*
X61703Y-270056D01*
X61946Y-270175D01*
X62185Y-270299D01*
X62422Y-270429D01*
X62655Y-270565D01*
X62885Y-270707D01*
X63111Y-270854D01*
X63334Y-271007D01*
X63553Y-271165D01*
X63768Y-271328D01*
X63978Y-271497D01*
X64185Y-271671D01*
X64387Y-271850D01*
X64585Y-272033D01*
X64778Y-272222D01*
X64967Y-272415D01*
X65150Y-272613D01*
X65329Y-272815D01*
X65503Y-273022D01*
X65672Y-273232D01*
X65835Y-273447D01*
X65993Y-273666D01*
X66146Y-273889D01*
X66293Y-274115D01*
X66435Y-274345D01*
X66571Y-274578D01*
X66701Y-274815D01*
X66825Y-275054D01*
X66944Y-275297D01*
X67056Y-275542D01*
X67163Y-275790D01*
X67263Y-276041D01*
X67357Y-276294D01*
X67445Y-276550D01*
X67526Y-276807D01*
X67602Y-277066D01*
X67670Y-277327D01*
X67733Y-277590D01*
X67789Y-277854D01*
X67838Y-278119D01*
X67881Y-278386D01*
X67917Y-278653D01*
X67947Y-278922D01*
X67970Y-279191D01*
X67987Y-279460D01*
X67997Y-279730D01*
X68000Y-280000D01*
X67997Y-280270D01*
X67987Y-280540D01*
X67970Y-280809D01*
X67947Y-281078D01*
X67917Y-281347D01*
X67881Y-281614D01*
X67838Y-281881D01*
X67789Y-282146D01*
X67733Y-282410D01*
X67670Y-282673D01*
X67602Y-282934D01*
X67526Y-283193D01*
X67445Y-283450D01*
X67357Y-283706D01*
X67263Y-283959D01*
X67163Y-284210D01*
X67056Y-284458D01*
X66944Y-284703D01*
X66825Y-284946D01*
X66701Y-285185D01*
X66571Y-285422D01*
X66435Y-285655D01*
X66293Y-285885D01*
X66146Y-286111D01*
X65993Y-286334D01*
X65835Y-286553D01*
X65672Y-286768D01*
X65503Y-286978D01*
X65329Y-287185D01*
X65150Y-287387D01*
X64967Y-287585D01*
X64778Y-287778D01*
X64585Y-287967D01*
X64387Y-288150D01*
X64185Y-288329D01*
X63978Y-288503D01*
X63768Y-288672D01*
X63553Y-288835D01*
X63334Y-288993D01*
X63111Y-289146D01*
X62885Y-289293D01*
X62655Y-289435D01*
X62422Y-289571D01*
X62185Y-289701D01*
X61946Y-289825D01*
X61703Y-289944D01*
X61458Y-290056D01*
X61210Y-290163D01*
X60959Y-290263D01*
X60706Y-290357D01*
X60450Y-290445D01*
X60193Y-290526D01*
X59934Y-290602D01*
X59673Y-290670D01*
X59410Y-290733D01*
X59146Y-290789D01*
X58881Y-290838D01*
X58614Y-290881D01*
X58347Y-290917D01*
X58078Y-290947D01*
X57809Y-290970D01*
X57540Y-290987D01*
X57270Y-290997D01*
X57000Y-291000D01*
X56730Y-290997D01*
X56460Y-290987D01*
X56191Y-290970D01*
X55922Y-290947D01*
X55653Y-290917D01*
X55386Y-290881D01*
X55119Y-290838D01*
X54854Y-290789D01*
X54590Y-290733D01*
X54327Y-290670D01*
X54066Y-290602D01*
X53807Y-290526D01*
X53550Y-290445D01*
X53294Y-290357D01*
X53041Y-290263D01*
X52790Y-290163D01*
X52542Y-290056D01*
X52297Y-289944D01*
X52054Y-289825D01*
X51815Y-289701D01*
X51578Y-289571D01*
X51345Y-289435D01*
X51115Y-289293D01*
X50889Y-289146D01*
X50666Y-288993D01*
X50447Y-288835D01*
X50232Y-288672D01*
X50022Y-288503D01*
X49815Y-288329D01*
X49613Y-288150D01*
X49415Y-287967D01*
X49222Y-287778D01*
X49033Y-287585D01*
X48850Y-287387D01*
X48671Y-287185D01*
X48497Y-286978D01*
X48328Y-286768D01*
X48165Y-286553D01*
X48007Y-286334D01*
X47854Y-286111D01*
X47707Y-285885D01*
X47565Y-285655D01*
X47429Y-285422D01*
X47299Y-285185D01*
X47175Y-284946D01*
X47056Y-284703D01*
X46944Y-284458D01*
X46837Y-284210D01*
X46737Y-283959D01*
X46643Y-283706D01*
X46555Y-283450D01*
X46474Y-283193D01*
X46398Y-282934D01*
X46330Y-282673D01*
X46267Y-282410D01*
X46211Y-282146D01*
X46162Y-281881D01*
X46119Y-281614D01*
X46083Y-281347D01*
X46053Y-281078D01*
X46030Y-280809D01*
X46013Y-280540D01*
X46003Y-280270D01*
X46000Y-280000D01*
X-386000Y-115000D02*
X-385997Y-114730D01*
X-385987Y-114460D01*
X-385970Y-114191D01*
X-385947Y-113922D01*
X-385917Y-113653D01*
X-385881Y-113386D01*
X-385838Y-113119D01*
X-385789Y-112854D01*
X-385733Y-112590D01*
X-385670Y-112327D01*
X-385602Y-112066D01*
X-385526Y-111807D01*
X-385445Y-111550D01*
X-385357Y-111294D01*
X-385263Y-111041D01*
X-385163Y-110790D01*
X-385056Y-110542D01*
X-384944Y-110297D01*
X-384825Y-110054D01*
X-384701Y-109815D01*
X-384571Y-109578D01*
X-384435Y-109345D01*
X-384293Y-109115D01*
X-384146Y-108889D01*
X-383993Y-108666D01*
X-383835Y-108447D01*
X-383672Y-108232D01*
X-383503Y-108022D01*
X-383329Y-107815D01*
X-383150Y-107613D01*
X-382967Y-107415D01*
X-382778Y-107222D01*
X-382585Y-107033D01*
X-382387Y-106850D01*
X-382185Y-106671D01*
X-381978Y-106497D01*
X-381768Y-106328D01*
X-381553Y-106165D01*
X-381334Y-106007D01*
X-381111Y-105854D01*
X-380885Y-105707D01*
X-380655Y-105565D01*
X-380422Y-105429D01*
X-380185Y-105299D01*
X-379946Y-105175D01*
X-379703Y-105056D01*
X-379458Y-104944D01*
X-379210Y-104837D01*
X-378959Y-104737D01*
X-378706Y-104643D01*
X-378450Y-104555D01*
X-378193Y-104474D01*
X-377934Y-104398D01*
X-377673Y-104330D01*
X-377410Y-104267D01*
X-377146Y-104211D01*
X-376881Y-104162D01*
X-376614Y-104119D01*
X-376347Y-104083D01*
X-376078Y-104053D01*
X-375809Y-104030D01*
X-375540Y-104013D01*
X-375270Y-104003D01*
X-375000Y-104000D01*
X-374730Y-104003D01*
X-374460Y-104013D01*
X-374191Y-104030D01*
X-373922Y-104053D01*
X-373653Y-104083D01*
X-373386Y-104119D01*
X-373119Y-104162D01*
X-372854Y-104211D01*
X-372590Y-104267D01*
X-372327Y-104330D01*
X-372066Y-104398D01*
X-371807Y-104474D01*
X-371550Y-104555D01*
X-371294Y-104643D01*
X-371041Y-104737D01*
X-370790Y-104837D01*
X-370542Y-104944D01*
X-370297Y-105056D01*
X-370054Y-105175D01*
X-369815Y-105299D01*
X-369578Y-105429D01*
X-369345Y-105565D01*
X-369115Y-105707D01*
X-368889Y-105854D01*
X-368666Y-106007D01*
X-368447Y-106165D01*
X-368232Y-106328D01*
X-368022Y-106497D01*
X-367815Y-106671D01*
X-367613Y-106850D01*
X-367415Y-107033D01*
X-367222Y-107222D01*
X-367033Y-107415D01*
X-366850Y-107613D01*
X-366671Y-107815D01*
X-366497Y-108022D01*
X-366328Y-108232D01*
X-366165Y-108447D01*
X-366007Y-108666D01*
X-365854Y-108889D01*
X-365707Y-109115D01*
X-365565Y-109345D01*
X-365429Y-109578D01*
X-365299Y-109815D01*
X-365175Y-110054D01*
X-365056Y-110297D01*
X-364944Y-110542D01*
X-364837Y-110790D01*
X-364737Y-111041D01*
X-364643Y-111294D01*
X-364555Y-111550D01*
X-364474Y-111807D01*
X-364398Y-112066D01*
X-364330Y-112327D01*
X-364267Y-112590D01*
X-364211Y-112854D01*
X-364162Y-113119D01*
X-364119Y-113386D01*
X-364083Y-113653D01*
X-364053Y-113922D01*
X-364030Y-114191D01*
X-364013Y-114460D01*
X-364003Y-114730D01*
X-364000Y-115000D01*
X-364003Y-115270D01*
X-364013Y-115540D01*
X-364030Y-115809D01*
X-364053Y-116078D01*
X-364083Y-116347D01*
X-364119Y-116614D01*
X-364162Y-116881D01*
X-364211Y-117146D01*
X-364267Y-117410D01*
X-364330Y-117673D01*
X-364398Y-117934D01*
X-364474Y-118193D01*
X-364555Y-118450D01*
X-364643Y-118706D01*
X-364737Y-118959D01*
X-364837Y-119210D01*
X-364944Y-119458D01*
X-365056Y-119703D01*
X-365175Y-119946D01*
X-365299Y-120185D01*
X-365429Y-120422D01*
X-365565Y-120655D01*
X-365707Y-120885D01*
X-365854Y-121111D01*
X-366007Y-121334D01*
X-366165Y-121553D01*
X-366328Y-121768D01*
X-366497Y-121978D01*
X-366671Y-122185D01*
X-366850Y-122387D01*
X-367033Y-122585D01*
X-367222Y-122778D01*
X-367415Y-122967D01*
X-367613Y-123150D01*
X-367815Y-123329D01*
X-368022Y-123503D01*
X-368232Y-123672D01*
X-368447Y-123835D01*
X-368666Y-123993D01*
X-368889Y-124146D01*
X-369115Y-124293D01*
X-369345Y-124435D01*
X-369578Y-124571D01*
X-369815Y-124701D01*
X-370054Y-124825D01*
X-370297Y-124944D01*
X-370542Y-125056D01*
X-370790Y-125163D01*
X-371041Y-125263D01*
X-371294Y-125357D01*
X-371550Y-125445D01*
X-371807Y-125526D01*
X-372066Y-125602D01*
X-372327Y-125670D01*
X-372590Y-125733D01*
X-372854Y-125789D01*
X-373119Y-125838D01*
X-373386Y-125881D01*
X-373653Y-125917D01*
X-373922Y-125947D01*
X-374191Y-125970D01*
X-374460Y-125987D01*
X-374730Y-125997D01*
X-375000Y-126000D01*
X-375270Y-125997D01*
X-375540Y-125987D01*
X-375809Y-125970D01*
X-376078Y-125947D01*
X-376347Y-125917D01*
X-376614Y-125881D01*
X-376881Y-125838D01*
X-377146Y-125789D01*
X-377410Y-125733D01*
X-377673Y-125670D01*
X-377934Y-125602D01*
X-378193Y-125526D01*
X-378450Y-125445D01*
X-378706Y-125357D01*
X-378959Y-125263D01*
X-379210Y-125163D01*
X-379458Y-125056D01*
X-379703Y-124944D01*
X-379946Y-124825D01*
X-380185Y-124701D01*
X-380422Y-124571D01*
X-380655Y-124435D01*
X-380885Y-124293D01*
X-381111Y-124146D01*
X-381334Y-123993D01*
X-381553Y-123835D01*
X-381768Y-123672D01*
X-381978Y-123503D01*
X-382185Y-123329D01*
X-382387Y-123150D01*
X-382585Y-122967D01*
X-382778Y-122778D01*
X-382967Y-122585D01*
X-383150Y-122387D01*
X-383329Y-122185D01*
X-383503Y-121978D01*
X-383672Y-121768D01*
X-383835Y-121553D01*
X-383993Y-121334D01*
X-384146Y-121111D01*
X-384293Y-120885D01*
X-384435Y-120655D01*
X-384571Y-120422D01*
X-384701Y-120185D01*
X-384825Y-119946D01*
X-384944Y-119703D01*
X-385056Y-119458D01*
X-385163Y-119210D01*
X-385263Y-118959D01*
X-385357Y-118706D01*
X-385445Y-118450D01*
X-385526Y-118193D01*
X-385602Y-117934D01*
X-385670Y-117673D01*
X-385733Y-117410D01*
X-385789Y-117146D01*
X-385838Y-116881D01*
X-385881Y-116614D01*
X-385917Y-116347D01*
X-385947Y-116078D01*
X-385970Y-115809D01*
X-385987Y-115540D01*
X-385997Y-115270D01*
X-386000Y-115000D01*
X-386000Y195000D02*
X-385997Y195270D01*
X-385987Y195540D01*
X-385970Y195809D01*
X-385947Y196078D01*
X-385917Y196347D01*
X-385881Y196614D01*
X-385838Y196881D01*
X-385789Y197146D01*
X-385733Y197410D01*
X-385670Y197673D01*
X-385602Y197934D01*
X-385526Y198193D01*
X-385445Y198450D01*
X-385357Y198706D01*
X-385263Y198959D01*
X-385163Y199210D01*
X-385056Y199458D01*
X-384944Y199703D01*
X-384825Y199946D01*
X-384701Y200185D01*
X-384571Y200422D01*
X-384435Y200655D01*
X-384293Y200885D01*
X-384146Y201111D01*
X-383993Y201334D01*
X-383835Y201553D01*
X-383672Y201768D01*
X-383503Y201978D01*
X-383329Y202185D01*
X-383150Y202387D01*
X-382967Y202585D01*
X-382778Y202778D01*
X-382585Y202967D01*
X-382387Y203150D01*
X-382185Y203329D01*
X-381978Y203503D01*
X-381768Y203672D01*
X-381553Y203835D01*
X-381334Y203993D01*
X-381111Y204146D01*
X-380885Y204293D01*
X-380655Y204435D01*
X-380422Y204571D01*
X-380185Y204701D01*
X-379946Y204825D01*
X-379703Y204944D01*
X-379458Y205056D01*
X-379210Y205163D01*
X-378959Y205263D01*
X-378706Y205357D01*
X-378450Y205445D01*
X-378193Y205526D01*
X-377934Y205602D01*
X-377673Y205670D01*
X-377410Y205733D01*
X-377146Y205789D01*
X-376881Y205838D01*
X-376614Y205881D01*
X-376347Y205917D01*
X-376078Y205947D01*
X-375809Y205970D01*
X-375540Y205987D01*
X-375270Y205997D01*
X-375000Y206000D01*
X-374730Y205997D01*
X-374460Y205987D01*
X-374191Y205970D01*
X-373922Y205947D01*
X-373653Y205917D01*
X-373386Y205881D01*
X-373119Y205838D01*
X-372854Y205789D01*
X-372590Y205733D01*
X-372327Y205670D01*
X-372066Y205602D01*
X-371807Y205526D01*
X-371550Y205445D01*
X-371294Y205357D01*
X-371041Y205263D01*
X-370790Y205163D01*
X-370542Y205056D01*
X-370297Y204944D01*
X-370054Y204825D01*
X-369815Y204701D01*
X-369578Y204571D01*
X-369345Y204435D01*
X-369115Y204293D01*
X-368889Y204146D01*
X-368666Y203993D01*
X-368447Y203835D01*
X-368232Y203672D01*
X-368022Y203503D01*
X-367815Y203329D01*
X-367613Y203150D01*
X-367415Y202967D01*
X-367222Y202778D01*
X-367033Y202585D01*
X-366850Y202387D01*
X-366671Y202185D01*
X-366497Y201978D01*
X-366328Y201768D01*
X-366165Y201553D01*
X-366007Y201334D01*
X-365854Y201111D01*
X-365707Y200885D01*
X-365565Y200655D01*
X-365429Y200422D01*
X-365299Y200185D01*
X-365175Y199946D01*
X-365056Y199703D01*
X-364944Y199458D01*
X-364837Y199210D01*
X-364737Y198959D01*
X-364643Y198706D01*
X-364555Y198450D01*
X-364474Y198193D01*
X-364398Y197934D01*
X-364330Y197673D01*
X-364267Y197410D01*
X-364211Y197146D01*
X-364162Y196881D01*
X-364119Y196614D01*
X-364083Y196347D01*
X-364053Y196078D01*
X-364030Y195809D01*
X-364013Y195540D01*
X-364003Y195270D01*
X-364000Y195000D01*
X-364003Y194730D01*
X-364013Y194460D01*
X-364030Y194191D01*
X-364053Y193922D01*
X-364083Y193653D01*
X-364119Y193386D01*
X-364162Y193119D01*
X-364211Y192854D01*
X-364267Y192590D01*
X-364330Y192327D01*
X-364398Y192066D01*
X-364474Y191807D01*
X-364555Y191550D01*
X-364643Y191294D01*
X-364737Y191041D01*
X-364837Y190790D01*
X-364944Y190542D01*
X-365056Y190297D01*
X-365175Y190054D01*
X-365299Y189815D01*
X-365429Y189578D01*
X-365565Y189345D01*
X-365707Y189115D01*
X-365854Y188889D01*
X-366007Y188666D01*
X-366165Y188447D01*
X-366328Y188232D01*
X-366497Y188022D01*
X-366671Y187815D01*
X-366850Y187613D01*
X-367033Y187415D01*
X-367222Y187222D01*
X-367415Y187033D01*
X-367613Y186850D01*
X-367815Y186671D01*
X-368022Y186497D01*
X-368232Y186328D01*
X-368447Y186165D01*
X-368666Y186007D01*
X-368889Y185854D01*
X-369115Y185707D01*
X-369345Y185565D01*
X-369578Y185429D01*
X-369815Y185299D01*
X-370054Y185175D01*
X-370297Y185056D01*
X-370542Y184944D01*
X-370790Y184837D01*
X-371041Y184737D01*
X-371294Y184643D01*
X-371550Y184555D01*
X-371807Y184474D01*
X-372066Y184398D01*
X-372327Y184330D01*
X-372590Y184267D01*
X-372854Y184211D01*
X-373119Y184162D01*
X-373386Y184119D01*
X-373653Y184083D01*
X-373922Y184053D01*
X-374191Y184030D01*
X-374460Y184013D01*
X-374730Y184003D01*
X-375000Y184000D01*
X-375270Y184003D01*
X-375540Y184013D01*
X-375809Y184030D01*
X-376078Y184053D01*
X-376347Y184083D01*
X-376614Y184119D01*
X-376881Y184162D01*
X-377146Y184211D01*
X-377410Y184267D01*
X-377673Y184330D01*
X-377934Y184398D01*
X-378193Y184474D01*
X-378450Y184555D01*
X-378706Y184643D01*
X-378959Y184737D01*
X-379210Y184837D01*
X-379458Y184944D01*
X-379703Y185056D01*
X-379946Y185175D01*
X-380185Y185299D01*
X-380422Y185429D01*
X-380655Y185565D01*
X-380885Y185707D01*
X-381111Y185854D01*
X-381334Y186007D01*
X-381553Y186165D01*
X-381768Y186328D01*
X-381978Y186497D01*
X-382185Y186671D01*
X-382387Y186850D01*
X-382585Y187033D01*
X-382778Y187222D01*
X-382967Y187415D01*
X-383150Y187613D01*
X-383329Y187815D01*
X-383503Y188022D01*
X-383672Y188232D01*
X-383835Y188447D01*
X-383993Y188666D01*
X-384146Y188889D01*
X-384293Y189115D01*
X-384435Y189345D01*
X-384571Y189578D01*
X-384701Y189815D01*
X-384825Y190054D01*
X-384944Y190297D01*
X-385056Y190542D01*
X-385163Y190790D01*
X-385263Y191041D01*
X-385357Y191294D01*
X-385445Y191550D01*
X-385526Y191807D01*
X-385602Y192066D01*
X-385670Y192327D01*
X-385733Y192590D01*
X-385789Y192854D01*
X-385838Y193119D01*
X-385881Y193386D01*
X-385917Y193653D01*
X-385947Y193922D01*
X-385970Y194191D01*
X-385987Y194460D01*
X-385997Y194730D01*
X-386000Y195000D01*
X364000Y-115000D02*
X364003Y-114730D01*
X364013Y-114460D01*
X364030Y-114191D01*
X364053Y-113922D01*
X364083Y-113653D01*
X364119Y-113386D01*
X364162Y-113119D01*
X364211Y-112854D01*
X364267Y-112590D01*
X364330Y-112327D01*
X364398Y-112066D01*
X364474Y-111807D01*
X364555Y-111550D01*
X364643Y-111294D01*
X364737Y-111041D01*
X364837Y-110790D01*
X364944Y-110542D01*
X365056Y-110297D01*
X365175Y-110054D01*
X365299Y-109815D01*
X365429Y-109578D01*
X365565Y-109345D01*
X365707Y-109115D01*
X365854Y-108889D01*
X366007Y-108666D01*
X366165Y-108447D01*
X366328Y-108232D01*
X366497Y-108022D01*
X366671Y-107815D01*
X366850Y-107613D01*
X367033Y-107415D01*
X367222Y-107222D01*
X367415Y-107033D01*
X367613Y-106850D01*
X367815Y-106671D01*
X368022Y-106497D01*
X368232Y-106328D01*
X368447Y-106165D01*
X368666Y-106007D01*
X368889Y-105854D01*
X369115Y-105707D01*
X369345Y-105565D01*
X369578Y-105429D01*
X369815Y-105299D01*
X370054Y-105175D01*
X370297Y-105056D01*
X370542Y-104944D01*
X370790Y-104837D01*
X371041Y-104737D01*
X371294Y-104643D01*
X371550Y-104555D01*
X371807Y-104474D01*
X372066Y-104398D01*
X372327Y-104330D01*
X372590Y-104267D01*
X372854Y-104211D01*
X373119Y-104162D01*
X373386Y-104119D01*
X373653Y-104083D01*
X373922Y-104053D01*
X374191Y-104030D01*
X374460Y-104013D01*
X374730Y-104003D01*
X375000Y-104000D01*
X375270Y-104003D01*
X375540Y-104013D01*
X375809Y-104030D01*
X376078Y-104053D01*
X376347Y-104083D01*
X376614Y-104119D01*
X376881Y-104162D01*
X377146Y-104211D01*
X377410Y-104267D01*
X377673Y-104330D01*
X377934Y-104398D01*
X378193Y-104474D01*
X378450Y-104555D01*
X378706Y-104643D01*
X378959Y-104737D01*
X379210Y-104837D01*
X379458Y-104944D01*
X379703Y-105056D01*
X379946Y-105175D01*
X380185Y-105299D01*
X380422Y-105429D01*
X380655Y-105565D01*
X380885Y-105707D01*
X381111Y-105854D01*
X381334Y-106007D01*
X381553Y-106165D01*
X381768Y-106328D01*
X381978Y-106497D01*
X382185Y-106671D01*
X382387Y-106850D01*
X382585Y-107033D01*
X382778Y-107222D01*
X382967Y-107415D01*
X383150Y-107613D01*
X383329Y-107815D01*
X383503Y-108022D01*
X383672Y-108232D01*
X383835Y-108447D01*
X383993Y-108666D01*
X384146Y-108889D01*
X384293Y-109115D01*
X384435Y-109345D01*
X384571Y-109578D01*
X384701Y-109815D01*
X384825Y-110054D01*
X384944Y-110297D01*
X385056Y-110542D01*
X385163Y-110790D01*
X385263Y-111041D01*
X385357Y-111294D01*
X385445Y-111550D01*
X385526Y-111807D01*
X385602Y-112066D01*
X385670Y-112327D01*
X385733Y-112590D01*
X385789Y-112854D01*
X385838Y-113119D01*
X385881Y-113386D01*
X385917Y-113653D01*
X385947Y-113922D01*
X385970Y-114191D01*
X385987Y-114460D01*
X385997Y-114730D01*
X386000Y-115000D01*
X385997Y-115270D01*
X385987Y-115540D01*
X385970Y-115809D01*
X385947Y-116078D01*
X385917Y-116347D01*
X385881Y-116614D01*
X385838Y-116881D01*
X385789Y-117146D01*
X385733Y-117410D01*
X385670Y-117673D01*
X385602Y-117934D01*
X385526Y-118193D01*
X385445Y-118450D01*
X385357Y-118706D01*
X385263Y-118959D01*
X385163Y-119210D01*
X385056Y-119458D01*
X384944Y-119703D01*
X384825Y-119946D01*
X384701Y-120185D01*
X384571Y-120422D01*
X384435Y-120655D01*
X384293Y-120885D01*
X384146Y-121111D01*
X383993Y-121334D01*
X383835Y-121553D01*
X383672Y-121768D01*
X383503Y-121978D01*
X383329Y-122185D01*
X383150Y-122387D01*
X382967Y-122585D01*
X382778Y-122778D01*
X382585Y-122967D01*
X382387Y-123150D01*
X382185Y-123329D01*
X381978Y-123503D01*
X381768Y-123672D01*
X381553Y-123835D01*
X381334Y-123993D01*
X381111Y-124146D01*
X380885Y-124293D01*
X380655Y-124435D01*
X380422Y-124571D01*
X380185Y-124701D01*
X379946Y-124825D01*
X379703Y-124944D01*
X379458Y-125056D01*
X379210Y-125163D01*
X378959Y-125263D01*
X378706Y-125357D01*
X378450Y-125445D01*
X378193Y-125526D01*
X377934Y-125602D01*
X377673Y-125670D01*
X377410Y-125733D01*
X377146Y-125789D01*
X376881Y-125838D01*
X376614Y-125881D01*
X376347Y-125917D01*
X376078Y-125947D01*
X375809Y-125970D01*
X375540Y-125987D01*
X375270Y-125997D01*
X375000Y-126000D01*
X374730Y-125997D01*
X374460Y-125987D01*
X374191Y-125970D01*
X373922Y-125947D01*
X373653Y-125917D01*
X373386Y-125881D01*
X373119Y-125838D01*
X372854Y-125789D01*
X372590Y-125733D01*
X372327Y-125670D01*
X372066Y-125602D01*
X371807Y-125526D01*
X371550Y-125445D01*
X371294Y-125357D01*
X371041Y-125263D01*
X370790Y-125163D01*
X370542Y-125056D01*
X370297Y-124944D01*
X370054Y-124825D01*
X369815Y-124701D01*
X369578Y-124571D01*
X369345Y-124435D01*
X369115Y-124293D01*
X368889Y-124146D01*
X368666Y-123993D01*
X368447Y-123835D01*
X368232Y-123672D01*
X368022Y-123503D01*
X367815Y-123329D01*
X367613Y-123150D01*
X367415Y-122967D01*
X367222Y-122778D01*
X367033Y-122585D01*
X366850Y-122387D01*
X366671Y-122185D01*
X366497Y-121978D01*
X366328Y-121768D01*
X366165Y-121553D01*
X366007Y-121334D01*
X365854Y-121111D01*
X365707Y-120885D01*
X365565Y-120655D01*
X365429Y-120422D01*
X365299Y-120185D01*
X365175Y-119946D01*
X365056Y-119703D01*
X364944Y-119458D01*
X364837Y-119210D01*
X364737Y-118959D01*
X364643Y-118706D01*
X364555Y-118450D01*
X364474Y-118193D01*
X364398Y-117934D01*
X364330Y-117673D01*
X364267Y-117410D01*
X364211Y-117146D01*
X364162Y-116881D01*
X364119Y-116614D01*
X364083Y-116347D01*
X364053Y-116078D01*
X364030Y-115809D01*
X364013Y-115540D01*
X364003Y-115270D01*
X364000Y-115000D01*
X364000Y195000D02*
X364003Y195270D01*
X364013Y195540D01*
X364030Y195809D01*
X364053Y196078D01*
X364083Y196347D01*
X364119Y196614D01*
X364162Y196881D01*
X364211Y197146D01*
X364267Y197410D01*
X364330Y197673D01*
X364398Y197934D01*
X364474Y198193D01*
X364555Y198450D01*
X364643Y198706D01*
X364737Y198959D01*
X364837Y199210D01*
X364944Y199458D01*
X365056Y199703D01*
X365175Y199946D01*
X365299Y200185D01*
X365429Y200422D01*
X365565Y200655D01*
X365707Y200885D01*
X365854Y201111D01*
X366007Y201334D01*
X366165Y201553D01*
X366328Y201768D01*
X366497Y201978D01*
X366671Y202185D01*
X366850Y202387D01*
X367033Y202585D01*
X367222Y202778D01*
X367415Y202967D01*
X367613Y203150D01*
X367815Y203329D01*
X368022Y203503D01*
X368232Y203672D01*
X368447Y203835D01*
X368666Y203993D01*
X368889Y204146D01*
X369115Y204293D01*
X369345Y204435D01*
X369578Y204571D01*
X369815Y204701D01*
X370054Y204825D01*
X370297Y204944D01*
X370542Y205056D01*
X370790Y205163D01*
X371041Y205263D01*
X371294Y205357D01*
X371550Y205445D01*
X371807Y205526D01*
X372066Y205602D01*
X372327Y205670D01*
X372590Y205733D01*
X372854Y205789D01*
X373119Y205838D01*
X373386Y205881D01*
X373653Y205917D01*
X373922Y205947D01*
X374191Y205970D01*
X374460Y205987D01*
X374730Y205997D01*
X375000Y206000D01*
X375270Y205997D01*
X375540Y205987D01*
X375809Y205970D01*
X376078Y205947D01*
X376347Y205917D01*
X376614Y205881D01*
X376881Y205838D01*
X377146Y205789D01*
X377410Y205733D01*
X377673Y205670D01*
X377934Y205602D01*
X378193Y205526D01*
X378450Y205445D01*
X378706Y205357D01*
X378959Y205263D01*
X379210Y205163D01*
X379458Y205056D01*
X379703Y204944D01*
X379946Y204825D01*
X380185Y204701D01*
X380422Y204571D01*
X380655Y204435D01*
X380885Y204293D01*
X381111Y204146D01*
X381334Y203993D01*
X381553Y203835D01*
X381768Y203672D01*
X381978Y203503D01*
X382185Y203329D01*
X382387Y203150D01*
X382585Y202967D01*
X382778Y202778D01*
X382967Y202585D01*
X383150Y202387D01*
X383329Y202185D01*
X383503Y201978D01*
X383672Y201768D01*
X383835Y201553D01*
X383993Y201334D01*
X384146Y201111D01*
X384293Y200885D01*
X384435Y200655D01*
X384571Y200422D01*
X384701Y200185D01*
X384825Y199946D01*
X384944Y199703D01*
X385056Y199458D01*
X385163Y199210D01*
X385263Y198959D01*
X385357Y198706D01*
X385445Y198450D01*
X385526Y198193D01*
X385602Y197934D01*
X385670Y197673D01*
X385733Y197410D01*
X385789Y197146D01*
X385838Y196881D01*
X385881Y196614D01*
X385917Y196347D01*
X385947Y196078D01*
X385970Y195809D01*
X385987Y195540D01*
X385997Y195270D01*
X386000Y195000D01*
X385997Y194730D01*
X385987Y194460D01*
X385970Y194191D01*
X385947Y193922D01*
X385917Y193653D01*
X385881Y193386D01*
X385838Y193119D01*
X385789Y192854D01*
X385733Y192590D01*
X385670Y192327D01*
X385602Y192066D01*
X385526Y191807D01*
X385445Y191550D01*
X385357Y191294D01*
X385263Y191041D01*
X385163Y190790D01*
X385056Y190542D01*
X384944Y190297D01*
X384825Y190054D01*
X384701Y189815D01*
X384571Y189578D01*
X384435Y189345D01*
X384293Y189115D01*
X384146Y188889D01*
X383993Y188666D01*
X383835Y188447D01*
X383672Y188232D01*
X383503Y188022D01*
X383329Y187815D01*
X383150Y187613D01*
X382967Y187415D01*
X382778Y187222D01*
X382585Y187033D01*
X382387Y186850D01*
X382185Y186671D01*
X381978Y186497D01*
X381768Y186328D01*
X381553Y186165D01*
X381334Y186007D01*
X381111Y185854D01*
X380885Y185707D01*
X380655Y185565D01*
X380422Y185429D01*
X380185Y185299D01*
X379946Y185175D01*
X379703Y185056D01*
X379458Y184944D01*
X379210Y184837D01*
X378959Y184737D01*
X378706Y184643D01*
X378450Y184555D01*
X378193Y184474D01*
X377934Y184398D01*
X377673Y184330D01*
X377410Y184267D01*
X377146Y184211D01*
X376881Y184162D01*
X376614Y184119D01*
X376347Y184083D01*
X376078Y184053D01*
X375809Y184030D01*
X375540Y184013D01*
X375270Y184003D01*
X375000Y184000D01*
X374730Y184003D01*
X374460Y184013D01*
X374191Y184030D01*
X373922Y184053D01*
X373653Y184083D01*
X373386Y184119D01*
X373119Y184162D01*
X372854Y184211D01*
X372590Y184267D01*
X372327Y184330D01*
X372066Y184398D01*
X371807Y184474D01*
X371550Y184555D01*
X371294Y184643D01*
X371041Y184737D01*
X370790Y184837D01*
X370542Y184944D01*
X370297Y185056D01*
X370054Y185175D01*
X369815Y185299D01*
X369578Y185429D01*
X369345Y185565D01*
X369115Y185707D01*
X368889Y185854D01*
X368666Y186007D01*
X368447Y186165D01*
X368232Y186328D01*
X368022Y186497D01*
X367815Y186671D01*
X367613Y186850D01*
X367415Y187033D01*
X367222Y187222D01*
X367033Y187415D01*
X366850Y187613D01*
X366671Y187815D01*
X366497Y188022D01*
X366328Y188232D01*
X366165Y188447D01*
X366007Y188666D01*
X365854Y188889D01*
X365707Y189115D01*
X365565Y189345D01*
X365429Y189578D01*
X365299Y189815D01*
X365175Y190054D01*
X365056Y190297D01*
X364944Y190542D01*
X364837Y190790D01*
X364737Y191041D01*
X364643Y191294D01*
X364555Y191550D01*
X364474Y191807D01*
X364398Y192066D01*
X364330Y192327D01*
X364267Y192590D01*
X364211Y192854D01*
X364162Y193119D01*
X364119Y193386D01*
X364083Y193653D01*
X364053Y193922D01*
X364030Y194191D01*
X364013Y194460D01*
X364003Y194730D01*
X364000Y195000D01*
D12*
X-108651Y-648807D02*
X-113167Y-648807D01*
X-108651Y-648806D02*
X-108518Y-648808D01*
X-108386Y-648814D01*
X-108254Y-648824D01*
X-108122Y-648837D01*
X-107990Y-648855D01*
X-107860Y-648876D01*
X-107729Y-648901D01*
X-107600Y-648930D01*
X-107472Y-648963D01*
X-107344Y-648999D01*
X-107218Y-649039D01*
X-107093Y-649083D01*
X-106969Y-649131D01*
X-106847Y-649182D01*
X-106726Y-649237D01*
X-106607Y-649295D01*
X-106489Y-649357D01*
X-106374Y-649422D01*
X-106260Y-649491D01*
X-106149Y-649562D01*
X-106040Y-649638D01*
X-105933Y-649716D01*
X-105828Y-649797D01*
X-105726Y-649882D01*
X-105626Y-649969D01*
X-105529Y-650059D01*
X-105434Y-650152D01*
X-105343Y-650248D01*
X-105254Y-650346D01*
X-105168Y-650447D01*
X-105085Y-650551D01*
X-105005Y-650657D01*
X-104929Y-650765D01*
X-104855Y-650875D01*
X-104785Y-650988D01*
X-104718Y-651102D01*
X-104655Y-651219D01*
X-104595Y-651337D01*
X-104538Y-651457D01*
X-104485Y-651579D01*
X-104436Y-651702D01*
X-104390Y-651826D01*
X-104348Y-651952D01*
X-104310Y-652079D01*
X-104275Y-652207D01*
X-104244Y-652336D01*
X-104217Y-652465D01*
X-104194Y-652596D01*
X-104174Y-652727D01*
X-104159Y-652859D01*
X-104147Y-652991D01*
X-104139Y-653123D01*
X-104135Y-653256D01*
X-104135Y-653388D01*
X-104139Y-653521D01*
X-104147Y-653653D01*
X-104159Y-653785D01*
X-104174Y-653917D01*
X-104194Y-654048D01*
X-104217Y-654179D01*
X-104244Y-654308D01*
X-104275Y-654437D01*
X-104310Y-654565D01*
X-104348Y-654692D01*
X-104390Y-654818D01*
X-104436Y-654942D01*
X-104485Y-655065D01*
X-104538Y-655187D01*
X-104595Y-655307D01*
X-104655Y-655425D01*
X-104718Y-655542D01*
X-104785Y-655656D01*
X-104855Y-655769D01*
X-104929Y-655879D01*
X-105005Y-655987D01*
X-105085Y-656093D01*
X-105168Y-656197D01*
X-105254Y-656298D01*
X-105343Y-656396D01*
X-105434Y-656492D01*
X-105529Y-656585D01*
X-105626Y-656675D01*
X-105726Y-656762D01*
X-105828Y-656847D01*
X-105933Y-656928D01*
X-106040Y-657006D01*
X-106149Y-657082D01*
X-106260Y-657153D01*
X-106374Y-657222D01*
X-106489Y-657287D01*
X-106607Y-657349D01*
X-106726Y-657407D01*
X-106847Y-657462D01*
X-106969Y-657513D01*
X-107093Y-657561D01*
X-107218Y-657605D01*
X-107344Y-657645D01*
X-107472Y-657681D01*
X-107600Y-657714D01*
X-107729Y-657743D01*
X-107860Y-657768D01*
X-107990Y-657789D01*
X-108122Y-657807D01*
X-108254Y-657820D01*
X-108386Y-657830D01*
X-108518Y-657836D01*
X-108651Y-657838D01*
X-113167Y-657838D01*
X-113167Y-641582D01*
X-108651Y-641582D01*
X-108532Y-641584D01*
X-108412Y-641590D01*
X-108293Y-641600D01*
X-108175Y-641614D01*
X-108056Y-641631D01*
X-107939Y-641653D01*
X-107822Y-641678D01*
X-107707Y-641708D01*
X-107592Y-641741D01*
X-107478Y-641778D01*
X-107366Y-641818D01*
X-107255Y-641863D01*
X-107146Y-641911D01*
X-107038Y-641962D01*
X-106932Y-642017D01*
X-106828Y-642076D01*
X-106726Y-642138D01*
X-106626Y-642203D01*
X-106528Y-642272D01*
X-106432Y-642344D01*
X-106339Y-642419D01*
X-106249Y-642496D01*
X-106161Y-642577D01*
X-106076Y-642661D01*
X-105994Y-642748D01*
X-105914Y-642837D01*
X-105838Y-642929D01*
X-105764Y-643023D01*
X-105694Y-643120D01*
X-105627Y-643218D01*
X-105563Y-643319D01*
X-105503Y-643423D01*
X-105446Y-643528D01*
X-105393Y-643635D01*
X-105343Y-643743D01*
X-105297Y-643853D01*
X-105255Y-643965D01*
X-105216Y-644078D01*
X-105181Y-644192D01*
X-105150Y-644307D01*
X-105122Y-644424D01*
X-105099Y-644541D01*
X-105079Y-644658D01*
X-105063Y-644777D01*
X-105051Y-644896D01*
X-105043Y-645015D01*
X-105039Y-645134D01*
X-105039Y-645254D01*
X-105043Y-645373D01*
X-105051Y-645492D01*
X-105063Y-645611D01*
X-105079Y-645730D01*
X-105099Y-645847D01*
X-105122Y-645964D01*
X-105150Y-646081D01*
X-105181Y-646196D01*
X-105216Y-646310D01*
X-105255Y-646423D01*
X-105297Y-646535D01*
X-105343Y-646645D01*
X-105393Y-646753D01*
X-105446Y-646860D01*
X-105503Y-646965D01*
X-105563Y-647069D01*
X-105627Y-647170D01*
X-105694Y-647268D01*
X-105764Y-647365D01*
X-105838Y-647459D01*
X-105914Y-647551D01*
X-105994Y-647640D01*
X-106076Y-647727D01*
X-106161Y-647811D01*
X-106249Y-647892D01*
X-106339Y-647969D01*
X-106432Y-648044D01*
X-106528Y-648116D01*
X-106626Y-648185D01*
X-106726Y-648250D01*
X-106828Y-648312D01*
X-106932Y-648371D01*
X-107038Y-648426D01*
X-107146Y-648477D01*
X-107255Y-648525D01*
X-107366Y-648570D01*
X-107478Y-648610D01*
X-107592Y-648647D01*
X-107707Y-648680D01*
X-107822Y-648710D01*
X-107939Y-648735D01*
X-108056Y-648757D01*
X-108175Y-648774D01*
X-108293Y-648788D01*
X-108412Y-648798D01*
X-108532Y-648804D01*
X-108651Y-648806D01*
X-98406Y-650613D02*
X-98406Y-654226D01*
X-98406Y-650613D02*
X-98404Y-650494D01*
X-98398Y-650374D01*
X-98388Y-650255D01*
X-98374Y-650137D01*
X-98357Y-650018D01*
X-98335Y-649901D01*
X-98310Y-649784D01*
X-98280Y-649669D01*
X-98247Y-649554D01*
X-98210Y-649440D01*
X-98170Y-649328D01*
X-98125Y-649217D01*
X-98077Y-649108D01*
X-98026Y-649000D01*
X-97971Y-648894D01*
X-97912Y-648790D01*
X-97850Y-648688D01*
X-97785Y-648588D01*
X-97716Y-648490D01*
X-97644Y-648394D01*
X-97569Y-648301D01*
X-97492Y-648211D01*
X-97411Y-648123D01*
X-97327Y-648038D01*
X-97240Y-647956D01*
X-97151Y-647876D01*
X-97059Y-647800D01*
X-96965Y-647726D01*
X-96868Y-647656D01*
X-96770Y-647589D01*
X-96669Y-647525D01*
X-96565Y-647465D01*
X-96460Y-647408D01*
X-96353Y-647355D01*
X-96245Y-647305D01*
X-96135Y-647259D01*
X-96023Y-647217D01*
X-95910Y-647178D01*
X-95796Y-647143D01*
X-95681Y-647112D01*
X-95564Y-647084D01*
X-95447Y-647061D01*
X-95330Y-647041D01*
X-95211Y-647025D01*
X-95092Y-647013D01*
X-94973Y-647005D01*
X-94854Y-647001D01*
X-94734Y-647001D01*
X-94615Y-647005D01*
X-94496Y-647013D01*
X-94377Y-647025D01*
X-94258Y-647041D01*
X-94141Y-647061D01*
X-94024Y-647084D01*
X-93907Y-647112D01*
X-93792Y-647143D01*
X-93678Y-647178D01*
X-93565Y-647217D01*
X-93453Y-647259D01*
X-93343Y-647305D01*
X-93235Y-647355D01*
X-93128Y-647408D01*
X-93023Y-647465D01*
X-92919Y-647525D01*
X-92818Y-647589D01*
X-92720Y-647656D01*
X-92623Y-647726D01*
X-92529Y-647800D01*
X-92437Y-647876D01*
X-92348Y-647956D01*
X-92261Y-648038D01*
X-92177Y-648123D01*
X-92096Y-648211D01*
X-92019Y-648301D01*
X-91944Y-648394D01*
X-91872Y-648490D01*
X-91803Y-648588D01*
X-91738Y-648688D01*
X-91676Y-648790D01*
X-91617Y-648894D01*
X-91562Y-649000D01*
X-91511Y-649108D01*
X-91463Y-649217D01*
X-91418Y-649328D01*
X-91378Y-649440D01*
X-91341Y-649554D01*
X-91308Y-649669D01*
X-91278Y-649784D01*
X-91253Y-649901D01*
X-91231Y-650018D01*
X-91214Y-650137D01*
X-91200Y-650255D01*
X-91190Y-650374D01*
X-91184Y-650494D01*
X-91182Y-650613D01*
X-91182Y-654226D01*
X-91184Y-654345D01*
X-91190Y-654465D01*
X-91200Y-654584D01*
X-91214Y-654702D01*
X-91231Y-654821D01*
X-91253Y-654938D01*
X-91278Y-655055D01*
X-91308Y-655170D01*
X-91341Y-655285D01*
X-91378Y-655399D01*
X-91418Y-655511D01*
X-91463Y-655622D01*
X-91511Y-655731D01*
X-91562Y-655839D01*
X-91617Y-655945D01*
X-91676Y-656049D01*
X-91738Y-656151D01*
X-91803Y-656251D01*
X-91872Y-656349D01*
X-91944Y-656445D01*
X-92019Y-656538D01*
X-92096Y-656628D01*
X-92177Y-656716D01*
X-92261Y-656801D01*
X-92348Y-656883D01*
X-92437Y-656963D01*
X-92529Y-657039D01*
X-92623Y-657113D01*
X-92720Y-657183D01*
X-92818Y-657250D01*
X-92919Y-657314D01*
X-93023Y-657374D01*
X-93128Y-657431D01*
X-93235Y-657484D01*
X-93343Y-657534D01*
X-93453Y-657580D01*
X-93565Y-657622D01*
X-93678Y-657661D01*
X-93792Y-657696D01*
X-93907Y-657727D01*
X-94024Y-657755D01*
X-94141Y-657778D01*
X-94258Y-657798D01*
X-94377Y-657814D01*
X-94496Y-657826D01*
X-94615Y-657834D01*
X-94734Y-657838D01*
X-94854Y-657838D01*
X-94973Y-657834D01*
X-95092Y-657826D01*
X-95211Y-657814D01*
X-95330Y-657798D01*
X-95447Y-657778D01*
X-95564Y-657755D01*
X-95681Y-657727D01*
X-95796Y-657696D01*
X-95910Y-657661D01*
X-96023Y-657622D01*
X-96135Y-657580D01*
X-96245Y-657534D01*
X-96353Y-657484D01*
X-96460Y-657431D01*
X-96565Y-657374D01*
X-96669Y-657314D01*
X-96770Y-657250D01*
X-96868Y-657183D01*
X-96965Y-657113D01*
X-97059Y-657039D01*
X-97151Y-656963D01*
X-97240Y-656883D01*
X-97327Y-656801D01*
X-97411Y-656716D01*
X-97492Y-656628D01*
X-97569Y-656538D01*
X-97644Y-656445D01*
X-97716Y-656349D01*
X-97785Y-656251D01*
X-97850Y-656151D01*
X-97912Y-656049D01*
X-97971Y-655945D01*
X-98026Y-655839D01*
X-98077Y-655731D01*
X-98125Y-655622D01*
X-98170Y-655511D01*
X-98210Y-655399D01*
X-98247Y-655285D01*
X-98280Y-655170D01*
X-98310Y-655055D01*
X-98335Y-654938D01*
X-98357Y-654821D01*
X-98374Y-654702D01*
X-98388Y-654584D01*
X-98398Y-654465D01*
X-98404Y-654345D01*
X-98406Y-654226D01*
X-86157Y-647001D02*
X-80738Y-647001D01*
X-84350Y-641582D02*
X-84350Y-655129D01*
X-84348Y-655230D01*
X-84342Y-655331D01*
X-84333Y-655432D01*
X-84320Y-655533D01*
X-84303Y-655633D01*
X-84282Y-655732D01*
X-84258Y-655830D01*
X-84230Y-655927D01*
X-84198Y-656024D01*
X-84163Y-656119D01*
X-84124Y-656212D01*
X-84082Y-656304D01*
X-84036Y-656395D01*
X-83987Y-656484D01*
X-83935Y-656570D01*
X-83879Y-656655D01*
X-83821Y-656738D01*
X-83759Y-656818D01*
X-83694Y-656896D01*
X-83627Y-656972D01*
X-83557Y-657045D01*
X-83484Y-657115D01*
X-83408Y-657182D01*
X-83330Y-657247D01*
X-83250Y-657309D01*
X-83167Y-657367D01*
X-83082Y-657423D01*
X-82996Y-657475D01*
X-82907Y-657524D01*
X-82816Y-657570D01*
X-82724Y-657612D01*
X-82631Y-657651D01*
X-82536Y-657686D01*
X-82439Y-657718D01*
X-82342Y-657746D01*
X-82244Y-657770D01*
X-82145Y-657791D01*
X-82045Y-657808D01*
X-81944Y-657821D01*
X-81843Y-657830D01*
X-81742Y-657836D01*
X-81641Y-657838D01*
X-80738Y-657838D01*
X-76257Y-647001D02*
X-70838Y-647001D01*
X-74451Y-641582D02*
X-74451Y-655129D01*
X-74450Y-655129D02*
X-74448Y-655230D01*
X-74442Y-655331D01*
X-74433Y-655432D01*
X-74420Y-655533D01*
X-74403Y-655633D01*
X-74382Y-655732D01*
X-74358Y-655830D01*
X-74330Y-655927D01*
X-74298Y-656024D01*
X-74263Y-656119D01*
X-74224Y-656212D01*
X-74182Y-656304D01*
X-74136Y-656395D01*
X-74087Y-656484D01*
X-74035Y-656570D01*
X-73979Y-656655D01*
X-73921Y-656738D01*
X-73859Y-656818D01*
X-73794Y-656896D01*
X-73727Y-656972D01*
X-73657Y-657045D01*
X-73584Y-657115D01*
X-73508Y-657182D01*
X-73430Y-657247D01*
X-73350Y-657309D01*
X-73267Y-657367D01*
X-73182Y-657423D01*
X-73096Y-657475D01*
X-73007Y-657524D01*
X-72916Y-657570D01*
X-72824Y-657612D01*
X-72731Y-657651D01*
X-72636Y-657686D01*
X-72539Y-657718D01*
X-72442Y-657746D01*
X-72344Y-657770D01*
X-72245Y-657791D01*
X-72145Y-657808D01*
X-72044Y-657821D01*
X-71943Y-657830D01*
X-71842Y-657836D01*
X-71741Y-657838D01*
X-70838Y-657838D01*
X-65060Y-654226D02*
X-65060Y-650613D01*
X-65059Y-650613D02*
X-65057Y-650494D01*
X-65051Y-650374D01*
X-65041Y-650255D01*
X-65027Y-650137D01*
X-65010Y-650018D01*
X-64988Y-649901D01*
X-64963Y-649784D01*
X-64933Y-649669D01*
X-64900Y-649554D01*
X-64863Y-649440D01*
X-64823Y-649328D01*
X-64778Y-649217D01*
X-64730Y-649108D01*
X-64679Y-649000D01*
X-64624Y-648894D01*
X-64565Y-648790D01*
X-64503Y-648688D01*
X-64438Y-648588D01*
X-64369Y-648490D01*
X-64297Y-648394D01*
X-64222Y-648301D01*
X-64145Y-648211D01*
X-64064Y-648123D01*
X-63980Y-648038D01*
X-63893Y-647956D01*
X-63804Y-647876D01*
X-63712Y-647800D01*
X-63618Y-647726D01*
X-63521Y-647656D01*
X-63423Y-647589D01*
X-63322Y-647525D01*
X-63218Y-647465D01*
X-63113Y-647408D01*
X-63006Y-647355D01*
X-62898Y-647305D01*
X-62788Y-647259D01*
X-62676Y-647217D01*
X-62563Y-647178D01*
X-62449Y-647143D01*
X-62334Y-647112D01*
X-62217Y-647084D01*
X-62100Y-647061D01*
X-61983Y-647041D01*
X-61864Y-647025D01*
X-61745Y-647013D01*
X-61626Y-647005D01*
X-61507Y-647001D01*
X-61387Y-647001D01*
X-61268Y-647005D01*
X-61149Y-647013D01*
X-61030Y-647025D01*
X-60911Y-647041D01*
X-60794Y-647061D01*
X-60677Y-647084D01*
X-60560Y-647112D01*
X-60445Y-647143D01*
X-60331Y-647178D01*
X-60218Y-647217D01*
X-60106Y-647259D01*
X-59996Y-647305D01*
X-59888Y-647355D01*
X-59781Y-647408D01*
X-59676Y-647465D01*
X-59572Y-647525D01*
X-59471Y-647589D01*
X-59373Y-647656D01*
X-59276Y-647726D01*
X-59182Y-647800D01*
X-59090Y-647876D01*
X-59001Y-647956D01*
X-58914Y-648038D01*
X-58830Y-648123D01*
X-58749Y-648211D01*
X-58672Y-648301D01*
X-58597Y-648394D01*
X-58525Y-648490D01*
X-58456Y-648588D01*
X-58391Y-648688D01*
X-58329Y-648790D01*
X-58270Y-648894D01*
X-58215Y-649000D01*
X-58164Y-649108D01*
X-58116Y-649217D01*
X-58071Y-649328D01*
X-58031Y-649440D01*
X-57994Y-649554D01*
X-57961Y-649669D01*
X-57931Y-649784D01*
X-57906Y-649901D01*
X-57884Y-650018D01*
X-57867Y-650137D01*
X-57853Y-650255D01*
X-57843Y-650374D01*
X-57837Y-650494D01*
X-57835Y-650613D01*
X-57835Y-654226D01*
X-57837Y-654345D01*
X-57843Y-654465D01*
X-57853Y-654584D01*
X-57867Y-654702D01*
X-57884Y-654821D01*
X-57906Y-654938D01*
X-57931Y-655055D01*
X-57961Y-655170D01*
X-57994Y-655285D01*
X-58031Y-655399D01*
X-58071Y-655511D01*
X-58116Y-655622D01*
X-58164Y-655731D01*
X-58215Y-655839D01*
X-58270Y-655945D01*
X-58329Y-656049D01*
X-58391Y-656151D01*
X-58456Y-656251D01*
X-58525Y-656349D01*
X-58597Y-656445D01*
X-58672Y-656538D01*
X-58749Y-656628D01*
X-58830Y-656716D01*
X-58914Y-656801D01*
X-59001Y-656883D01*
X-59090Y-656963D01*
X-59182Y-657039D01*
X-59276Y-657113D01*
X-59373Y-657183D01*
X-59471Y-657250D01*
X-59572Y-657314D01*
X-59676Y-657374D01*
X-59781Y-657431D01*
X-59888Y-657484D01*
X-59996Y-657534D01*
X-60106Y-657580D01*
X-60218Y-657622D01*
X-60331Y-657661D01*
X-60445Y-657696D01*
X-60560Y-657727D01*
X-60677Y-657755D01*
X-60794Y-657778D01*
X-60911Y-657798D01*
X-61030Y-657814D01*
X-61149Y-657826D01*
X-61268Y-657834D01*
X-61387Y-657838D01*
X-61507Y-657838D01*
X-61626Y-657834D01*
X-61745Y-657826D01*
X-61864Y-657814D01*
X-61983Y-657798D01*
X-62100Y-657778D01*
X-62217Y-657755D01*
X-62334Y-657727D01*
X-62449Y-657696D01*
X-62563Y-657661D01*
X-62676Y-657622D01*
X-62788Y-657580D01*
X-62898Y-657534D01*
X-63006Y-657484D01*
X-63113Y-657431D01*
X-63218Y-657374D01*
X-63322Y-657314D01*
X-63423Y-657250D01*
X-63521Y-657183D01*
X-63618Y-657113D01*
X-63712Y-657039D01*
X-63804Y-656963D01*
X-63893Y-656883D01*
X-63980Y-656801D01*
X-64064Y-656716D01*
X-64145Y-656628D01*
X-64222Y-656538D01*
X-64297Y-656445D01*
X-64369Y-656349D01*
X-64438Y-656251D01*
X-64503Y-656151D01*
X-64565Y-656049D01*
X-64624Y-655945D01*
X-64679Y-655839D01*
X-64730Y-655731D01*
X-64778Y-655622D01*
X-64823Y-655511D01*
X-64863Y-655399D01*
X-64900Y-655285D01*
X-64933Y-655170D01*
X-64963Y-655055D01*
X-64988Y-654938D01*
X-65010Y-654821D01*
X-65027Y-654702D01*
X-65041Y-654584D01*
X-65051Y-654465D01*
X-65057Y-654345D01*
X-65059Y-654226D01*
X-50714Y-657838D02*
X-50714Y-647001D01*
X-42586Y-647001D01*
X-42485Y-647003D01*
X-42384Y-647009D01*
X-42283Y-647018D01*
X-42182Y-647031D01*
X-42082Y-647048D01*
X-41983Y-647069D01*
X-41885Y-647093D01*
X-41788Y-647121D01*
X-41691Y-647153D01*
X-41596Y-647188D01*
X-41503Y-647227D01*
X-41411Y-647269D01*
X-41320Y-647315D01*
X-41232Y-647364D01*
X-41145Y-647416D01*
X-41060Y-647472D01*
X-40977Y-647530D01*
X-40897Y-647592D01*
X-40819Y-647657D01*
X-40743Y-647724D01*
X-40670Y-647794D01*
X-40600Y-647867D01*
X-40533Y-647943D01*
X-40468Y-648021D01*
X-40406Y-648101D01*
X-40348Y-648184D01*
X-40292Y-648269D01*
X-40240Y-648356D01*
X-40191Y-648444D01*
X-40145Y-648535D01*
X-40103Y-648627D01*
X-40064Y-648720D01*
X-40029Y-648815D01*
X-39997Y-648912D01*
X-39969Y-649009D01*
X-39945Y-649107D01*
X-39924Y-649206D01*
X-39907Y-649306D01*
X-39894Y-649407D01*
X-39885Y-649508D01*
X-39879Y-649609D01*
X-39877Y-649710D01*
X-39876Y-649710D02*
X-39876Y-657838D01*
X-45295Y-657838D02*
X-45295Y-647001D01*
X-19382Y-657838D02*
X-19264Y-657836D01*
X-19146Y-657830D01*
X-19028Y-657821D01*
X-18911Y-657807D01*
X-18794Y-657790D01*
X-18677Y-657769D01*
X-18562Y-657744D01*
X-18447Y-657715D01*
X-18333Y-657682D01*
X-18221Y-657646D01*
X-18110Y-657606D01*
X-18000Y-657563D01*
X-17891Y-657516D01*
X-17784Y-657466D01*
X-17679Y-657411D01*
X-17576Y-657354D01*
X-17475Y-657293D01*
X-17375Y-657229D01*
X-17278Y-657162D01*
X-17183Y-657092D01*
X-17091Y-657018D01*
X-17000Y-656942D01*
X-16913Y-656862D01*
X-16828Y-656780D01*
X-16746Y-656695D01*
X-16666Y-656608D01*
X-16590Y-656517D01*
X-16516Y-656425D01*
X-16446Y-656330D01*
X-16379Y-656233D01*
X-16315Y-656133D01*
X-16254Y-656032D01*
X-16197Y-655929D01*
X-16142Y-655824D01*
X-16092Y-655717D01*
X-16045Y-655608D01*
X-16002Y-655498D01*
X-15962Y-655387D01*
X-15926Y-655275D01*
X-15893Y-655161D01*
X-15864Y-655046D01*
X-15839Y-654931D01*
X-15818Y-654814D01*
X-15801Y-654697D01*
X-15787Y-654580D01*
X-15778Y-654462D01*
X-15772Y-654344D01*
X-15770Y-654226D01*
X-19382Y-657838D02*
X-19565Y-657836D01*
X-19747Y-657829D01*
X-19929Y-657818D01*
X-20111Y-657803D01*
X-20293Y-657783D01*
X-20474Y-657759D01*
X-20654Y-657731D01*
X-20834Y-657699D01*
X-21013Y-657662D01*
X-21190Y-657621D01*
X-21367Y-657575D01*
X-21543Y-657526D01*
X-21718Y-657472D01*
X-21891Y-657414D01*
X-22062Y-657352D01*
X-22233Y-657286D01*
X-22401Y-657215D01*
X-22568Y-657141D01*
X-22733Y-657063D01*
X-22896Y-656981D01*
X-23057Y-656895D01*
X-23216Y-656805D01*
X-23373Y-656711D01*
X-23527Y-656614D01*
X-23679Y-656513D01*
X-23829Y-656408D01*
X-23976Y-656300D01*
X-24120Y-656189D01*
X-24262Y-656074D01*
X-24401Y-655955D01*
X-24537Y-655833D01*
X-24670Y-655708D01*
X-24800Y-655580D01*
X-24350Y-645194D02*
X-24348Y-645076D01*
X-24342Y-644958D01*
X-24333Y-644840D01*
X-24319Y-644722D01*
X-24302Y-644605D01*
X-24281Y-644489D01*
X-24256Y-644374D01*
X-24227Y-644259D01*
X-24194Y-644145D01*
X-24158Y-644033D01*
X-24118Y-643921D01*
X-24075Y-643811D01*
X-24028Y-643703D01*
X-23977Y-643596D01*
X-23923Y-643491D01*
X-23866Y-643388D01*
X-23805Y-643286D01*
X-23741Y-643187D01*
X-23674Y-643090D01*
X-23603Y-642995D01*
X-23530Y-642902D01*
X-23453Y-642812D01*
X-23374Y-642724D01*
X-23292Y-642639D01*
X-23207Y-642557D01*
X-23119Y-642478D01*
X-23029Y-642401D01*
X-22936Y-642328D01*
X-22842Y-642257D01*
X-22744Y-642190D01*
X-22645Y-642126D01*
X-22544Y-642065D01*
X-22440Y-642008D01*
X-22335Y-641954D01*
X-22228Y-641903D01*
X-22120Y-641856D01*
X-22010Y-641813D01*
X-21898Y-641773D01*
X-21786Y-641737D01*
X-21672Y-641704D01*
X-21557Y-641675D01*
X-21442Y-641650D01*
X-21326Y-641629D01*
X-21209Y-641612D01*
X-21091Y-641598D01*
X-20973Y-641589D01*
X-20855Y-641583D01*
X-20737Y-641581D01*
X-20737Y-641582D02*
X-20576Y-641584D01*
X-20414Y-641590D01*
X-20253Y-641599D01*
X-20092Y-641613D01*
X-19932Y-641630D01*
X-19772Y-641651D01*
X-19612Y-641676D01*
X-19453Y-641705D01*
X-19295Y-641737D01*
X-19138Y-641773D01*
X-18982Y-641813D01*
X-18826Y-641857D01*
X-18672Y-641905D01*
X-18519Y-641956D01*
X-18367Y-642010D01*
X-18216Y-642069D01*
X-18067Y-642130D01*
X-17920Y-642196D01*
X-17774Y-642265D01*
X-17629Y-642337D01*
X-17487Y-642413D01*
X-17346Y-642492D01*
X-17207Y-642574D01*
X-17071Y-642660D01*
X-16936Y-642749D01*
X-16803Y-642841D01*
X-16673Y-642937D01*
X-22543Y-648355D02*
X-22644Y-648293D01*
X-22744Y-648228D01*
X-22841Y-648159D01*
X-22936Y-648087D01*
X-23029Y-648013D01*
X-23119Y-647935D01*
X-23207Y-647854D01*
X-23292Y-647771D01*
X-23374Y-647685D01*
X-23453Y-647596D01*
X-23530Y-647505D01*
X-23603Y-647411D01*
X-23674Y-647315D01*
X-23741Y-647217D01*
X-23805Y-647117D01*
X-23866Y-647014D01*
X-23923Y-646910D01*
X-23977Y-646804D01*
X-24027Y-646696D01*
X-24074Y-646587D01*
X-24118Y-646476D01*
X-24158Y-646364D01*
X-24194Y-646250D01*
X-24226Y-646136D01*
X-24255Y-646020D01*
X-24280Y-645904D01*
X-24301Y-645787D01*
X-24318Y-645669D01*
X-24332Y-645551D01*
X-24341Y-645432D01*
X-24347Y-645313D01*
X-24349Y-645194D01*
X-17575Y-651065D02*
X-17474Y-651127D01*
X-17374Y-651192D01*
X-17277Y-651261D01*
X-17182Y-651333D01*
X-17089Y-651407D01*
X-16999Y-651485D01*
X-16911Y-651566D01*
X-16826Y-651649D01*
X-16744Y-651735D01*
X-16665Y-651824D01*
X-16588Y-651915D01*
X-16515Y-652009D01*
X-16444Y-652105D01*
X-16377Y-652203D01*
X-16313Y-652303D01*
X-16252Y-652406D01*
X-16195Y-652510D01*
X-16141Y-652616D01*
X-16091Y-652724D01*
X-16044Y-652833D01*
X-16000Y-652944D01*
X-15960Y-653056D01*
X-15924Y-653170D01*
X-15892Y-653284D01*
X-15863Y-653400D01*
X-15838Y-653516D01*
X-15817Y-653633D01*
X-15800Y-653751D01*
X-15786Y-653869D01*
X-15777Y-653988D01*
X-15771Y-654107D01*
X-15769Y-654226D01*
X-17576Y-651065D02*
X-22543Y-648355D01*
X-9864Y-647001D02*
X-9864Y-657838D01*
X-10316Y-642485D02*
X-10316Y-641582D01*
X-9413Y-641582D01*
X-9413Y-642485D01*
X-10316Y-642485D01*
X-3340Y-641582D02*
X-3340Y-655129D01*
X-3338Y-655230D01*
X-3332Y-655331D01*
X-3323Y-655432D01*
X-3310Y-655533D01*
X-3293Y-655633D01*
X-3272Y-655732D01*
X-3248Y-655830D01*
X-3220Y-655927D01*
X-3188Y-656024D01*
X-3153Y-656119D01*
X-3114Y-656212D01*
X-3072Y-656304D01*
X-3026Y-656395D01*
X-2977Y-656484D01*
X-2925Y-656570D01*
X-2869Y-656655D01*
X-2811Y-656738D01*
X-2749Y-656818D01*
X-2684Y-656896D01*
X-2617Y-656972D01*
X-2547Y-657045D01*
X-2474Y-657115D01*
X-2398Y-657182D01*
X-2320Y-657247D01*
X-2240Y-657309D01*
X-2157Y-657367D01*
X-2072Y-657423D01*
X-1985Y-657475D01*
X-1897Y-657524D01*
X-1806Y-657570D01*
X-1714Y-657612D01*
X-1621Y-657651D01*
X-1526Y-657686D01*
X-1429Y-657718D01*
X-1332Y-657746D01*
X-1234Y-657770D01*
X-1135Y-657791D01*
X-1035Y-657808D01*
X-934Y-657821D01*
X-833Y-657830D01*
X-732Y-657836D01*
X-631Y-657838D01*
X5449Y-657838D02*
X5449Y-641582D01*
X12674Y-647001D02*
X5449Y-652419D01*
X8610Y-650162D02*
X12674Y-657838D01*
X19661Y-651516D02*
X24177Y-653322D01*
X19661Y-651516D02*
X19573Y-651479D01*
X19487Y-651438D01*
X19402Y-651394D01*
X19319Y-651346D01*
X19239Y-651295D01*
X19160Y-651241D01*
X19084Y-651183D01*
X19010Y-651123D01*
X18938Y-651059D01*
X18870Y-650993D01*
X18804Y-650923D01*
X18741Y-650852D01*
X18680Y-650777D01*
X18623Y-650701D01*
X18570Y-650622D01*
X18519Y-650541D01*
X18472Y-650458D01*
X18428Y-650373D01*
X18388Y-650286D01*
X18351Y-650198D01*
X18318Y-650108D01*
X18288Y-650017D01*
X18263Y-649925D01*
X18241Y-649832D01*
X18223Y-649738D01*
X18208Y-649644D01*
X18198Y-649549D01*
X18192Y-649453D01*
X18189Y-649358D01*
X18190Y-649262D01*
X18196Y-649167D01*
X18205Y-649071D01*
X18218Y-648977D01*
X18234Y-648883D01*
X18255Y-648789D01*
X18280Y-648697D01*
X18308Y-648606D01*
X18340Y-648516D01*
X18375Y-648427D01*
X18414Y-648340D01*
X18457Y-648254D01*
X18503Y-648170D01*
X18553Y-648089D01*
X18605Y-648009D01*
X18661Y-647931D01*
X18721Y-647856D01*
X18783Y-647784D01*
X18848Y-647714D01*
X18916Y-647646D01*
X18986Y-647582D01*
X19059Y-647520D01*
X19135Y-647462D01*
X19213Y-647406D01*
X19293Y-647354D01*
X19375Y-647305D01*
X19459Y-647260D01*
X19545Y-647218D01*
X19632Y-647179D01*
X19721Y-647144D01*
X19812Y-647113D01*
X19903Y-647086D01*
X19996Y-647062D01*
X20089Y-647042D01*
X20183Y-647026D01*
X20278Y-647014D01*
X20373Y-647005D01*
X20469Y-647001D01*
X20564Y-647000D01*
X20811Y-647007D01*
X21057Y-647019D01*
X21303Y-647037D01*
X21549Y-647062D01*
X21793Y-647092D01*
X22037Y-647128D01*
X22280Y-647170D01*
X22522Y-647217D01*
X22763Y-647271D01*
X23002Y-647330D01*
X23240Y-647395D01*
X23477Y-647466D01*
X23711Y-647542D01*
X23944Y-647624D01*
X24174Y-647712D01*
X24402Y-647805D01*
X24629Y-647903D01*
X24177Y-653323D02*
X24265Y-653360D01*
X24351Y-653401D01*
X24436Y-653445D01*
X24519Y-653493D01*
X24599Y-653544D01*
X24678Y-653598D01*
X24754Y-653656D01*
X24828Y-653716D01*
X24900Y-653780D01*
X24968Y-653846D01*
X25034Y-653916D01*
X25097Y-653987D01*
X25158Y-654062D01*
X25215Y-654138D01*
X25268Y-654217D01*
X25319Y-654298D01*
X25366Y-654381D01*
X25410Y-654466D01*
X25450Y-654553D01*
X25487Y-654641D01*
X25520Y-654731D01*
X25550Y-654822D01*
X25575Y-654914D01*
X25597Y-655007D01*
X25615Y-655101D01*
X25630Y-655195D01*
X25640Y-655290D01*
X25646Y-655386D01*
X25649Y-655481D01*
X25648Y-655577D01*
X25642Y-655672D01*
X25633Y-655768D01*
X25620Y-655862D01*
X25604Y-655956D01*
X25583Y-656050D01*
X25558Y-656142D01*
X25530Y-656233D01*
X25498Y-656323D01*
X25463Y-656412D01*
X25424Y-656499D01*
X25381Y-656585D01*
X25335Y-656669D01*
X25285Y-656750D01*
X25233Y-656830D01*
X25177Y-656908D01*
X25117Y-656983D01*
X25055Y-657055D01*
X24990Y-657125D01*
X24922Y-657193D01*
X24852Y-657257D01*
X24779Y-657319D01*
X24703Y-657377D01*
X24625Y-657433D01*
X24545Y-657485D01*
X24463Y-657534D01*
X24379Y-657579D01*
X24293Y-657621D01*
X24206Y-657660D01*
X24117Y-657695D01*
X24026Y-657726D01*
X23935Y-657753D01*
X23842Y-657777D01*
X23749Y-657797D01*
X23655Y-657813D01*
X23560Y-657825D01*
X23465Y-657834D01*
X23369Y-657838D01*
X23274Y-657839D01*
X23274Y-657838D02*
X22912Y-657829D01*
X22550Y-657811D01*
X22189Y-657784D01*
X21829Y-657749D01*
X21469Y-657706D01*
X21110Y-657654D01*
X20753Y-657593D01*
X20398Y-657524D01*
X20044Y-657447D01*
X19692Y-657361D01*
X19342Y-657267D01*
X18994Y-657164D01*
X18649Y-657054D01*
X18307Y-656935D01*
X34581Y-657838D02*
X38193Y-657838D01*
X34581Y-657838D02*
X34480Y-657836D01*
X34379Y-657830D01*
X34278Y-657821D01*
X34177Y-657808D01*
X34077Y-657791D01*
X33978Y-657770D01*
X33880Y-657746D01*
X33783Y-657718D01*
X33686Y-657686D01*
X33591Y-657651D01*
X33498Y-657612D01*
X33406Y-657570D01*
X33315Y-657524D01*
X33227Y-657475D01*
X33140Y-657423D01*
X33055Y-657367D01*
X32972Y-657309D01*
X32892Y-657247D01*
X32814Y-657182D01*
X32738Y-657115D01*
X32665Y-657045D01*
X32595Y-656972D01*
X32528Y-656896D01*
X32463Y-656818D01*
X32401Y-656738D01*
X32343Y-656655D01*
X32287Y-656570D01*
X32235Y-656484D01*
X32186Y-656395D01*
X32140Y-656304D01*
X32098Y-656212D01*
X32059Y-656119D01*
X32024Y-656024D01*
X31992Y-655927D01*
X31964Y-655830D01*
X31940Y-655732D01*
X31919Y-655633D01*
X31902Y-655533D01*
X31889Y-655432D01*
X31880Y-655331D01*
X31874Y-655230D01*
X31872Y-655129D01*
X31871Y-655129D02*
X31871Y-649710D01*
X31872Y-649710D02*
X31874Y-649609D01*
X31880Y-649508D01*
X31889Y-649407D01*
X31902Y-649306D01*
X31919Y-649206D01*
X31940Y-649107D01*
X31964Y-649009D01*
X31992Y-648912D01*
X32024Y-648815D01*
X32059Y-648720D01*
X32098Y-648627D01*
X32140Y-648535D01*
X32186Y-648444D01*
X32235Y-648356D01*
X32287Y-648269D01*
X32343Y-648184D01*
X32401Y-648101D01*
X32463Y-648021D01*
X32528Y-647943D01*
X32595Y-647867D01*
X32665Y-647794D01*
X32738Y-647724D01*
X32814Y-647657D01*
X32892Y-647592D01*
X32972Y-647530D01*
X33055Y-647472D01*
X33140Y-647416D01*
X33227Y-647364D01*
X33315Y-647315D01*
X33406Y-647269D01*
X33498Y-647227D01*
X33591Y-647188D01*
X33686Y-647153D01*
X33783Y-647121D01*
X33880Y-647093D01*
X33978Y-647069D01*
X34077Y-647048D01*
X34177Y-647031D01*
X34278Y-647018D01*
X34379Y-647009D01*
X34480Y-647003D01*
X34581Y-647001D01*
X38193Y-647001D01*
X44444Y-647001D02*
X44444Y-657838D01*
X44444Y-647001D02*
X49862Y-647001D01*
X49862Y-648807D01*
X57489Y-657838D02*
X62004Y-657838D01*
X57489Y-657838D02*
X57388Y-657836D01*
X57287Y-657830D01*
X57186Y-657821D01*
X57085Y-657808D01*
X56985Y-657791D01*
X56886Y-657770D01*
X56788Y-657746D01*
X56691Y-657718D01*
X56594Y-657686D01*
X56499Y-657651D01*
X56406Y-657612D01*
X56314Y-657570D01*
X56223Y-657524D01*
X56135Y-657475D01*
X56048Y-657423D01*
X55963Y-657367D01*
X55880Y-657309D01*
X55800Y-657247D01*
X55722Y-657182D01*
X55646Y-657115D01*
X55573Y-657045D01*
X55503Y-656972D01*
X55436Y-656896D01*
X55371Y-656818D01*
X55309Y-656738D01*
X55251Y-656655D01*
X55195Y-656570D01*
X55143Y-656484D01*
X55094Y-656395D01*
X55048Y-656304D01*
X55006Y-656212D01*
X54967Y-656119D01*
X54932Y-656024D01*
X54900Y-655927D01*
X54872Y-655830D01*
X54848Y-655732D01*
X54827Y-655633D01*
X54810Y-655533D01*
X54797Y-655432D01*
X54788Y-655331D01*
X54782Y-655230D01*
X54780Y-655129D01*
X54780Y-650613D01*
X54782Y-650494D01*
X54788Y-650374D01*
X54798Y-650255D01*
X54812Y-650137D01*
X54829Y-650018D01*
X54851Y-649901D01*
X54876Y-649784D01*
X54906Y-649669D01*
X54939Y-649554D01*
X54976Y-649440D01*
X55016Y-649328D01*
X55061Y-649217D01*
X55109Y-649108D01*
X55160Y-649000D01*
X55215Y-648894D01*
X55274Y-648790D01*
X55336Y-648688D01*
X55401Y-648588D01*
X55470Y-648490D01*
X55542Y-648394D01*
X55617Y-648301D01*
X55694Y-648211D01*
X55775Y-648123D01*
X55859Y-648038D01*
X55946Y-647956D01*
X56035Y-647876D01*
X56127Y-647800D01*
X56221Y-647726D01*
X56318Y-647656D01*
X56416Y-647589D01*
X56517Y-647525D01*
X56621Y-647465D01*
X56726Y-647408D01*
X56833Y-647355D01*
X56941Y-647305D01*
X57051Y-647259D01*
X57163Y-647217D01*
X57276Y-647178D01*
X57390Y-647143D01*
X57505Y-647112D01*
X57622Y-647084D01*
X57739Y-647061D01*
X57856Y-647041D01*
X57975Y-647025D01*
X58094Y-647013D01*
X58213Y-647005D01*
X58332Y-647001D01*
X58452Y-647001D01*
X58571Y-647005D01*
X58690Y-647013D01*
X58809Y-647025D01*
X58928Y-647041D01*
X59045Y-647061D01*
X59162Y-647084D01*
X59279Y-647112D01*
X59394Y-647143D01*
X59508Y-647178D01*
X59621Y-647217D01*
X59733Y-647259D01*
X59843Y-647305D01*
X59951Y-647355D01*
X60058Y-647408D01*
X60163Y-647465D01*
X60267Y-647525D01*
X60368Y-647589D01*
X60466Y-647656D01*
X60563Y-647726D01*
X60657Y-647800D01*
X60749Y-647876D01*
X60838Y-647956D01*
X60925Y-648038D01*
X61009Y-648123D01*
X61090Y-648211D01*
X61167Y-648301D01*
X61242Y-648394D01*
X61314Y-648490D01*
X61383Y-648588D01*
X61448Y-648688D01*
X61510Y-648790D01*
X61569Y-648894D01*
X61624Y-649000D01*
X61675Y-649108D01*
X61723Y-649217D01*
X61768Y-649328D01*
X61808Y-649440D01*
X61845Y-649554D01*
X61878Y-649669D01*
X61908Y-649784D01*
X61933Y-649901D01*
X61955Y-650018D01*
X61972Y-650137D01*
X61986Y-650255D01*
X61996Y-650374D01*
X62002Y-650494D01*
X62004Y-650613D01*
X62004Y-652419D01*
X54780Y-652419D01*
X71036Y-657838D02*
X75552Y-657838D01*
X71036Y-657838D02*
X70935Y-657836D01*
X70834Y-657830D01*
X70733Y-657821D01*
X70632Y-657808D01*
X70532Y-657791D01*
X70433Y-657770D01*
X70335Y-657746D01*
X70238Y-657718D01*
X70141Y-657686D01*
X70046Y-657651D01*
X69953Y-657612D01*
X69861Y-657570D01*
X69770Y-657524D01*
X69682Y-657475D01*
X69595Y-657423D01*
X69510Y-657367D01*
X69427Y-657309D01*
X69347Y-657247D01*
X69269Y-657182D01*
X69193Y-657115D01*
X69120Y-657045D01*
X69050Y-656972D01*
X68983Y-656896D01*
X68918Y-656818D01*
X68856Y-656738D01*
X68798Y-656655D01*
X68742Y-656570D01*
X68690Y-656484D01*
X68641Y-656395D01*
X68595Y-656304D01*
X68553Y-656212D01*
X68514Y-656119D01*
X68479Y-656024D01*
X68447Y-655927D01*
X68419Y-655830D01*
X68395Y-655732D01*
X68374Y-655633D01*
X68357Y-655533D01*
X68344Y-655432D01*
X68335Y-655331D01*
X68329Y-655230D01*
X68327Y-655129D01*
X68327Y-650613D01*
X68329Y-650494D01*
X68335Y-650374D01*
X68345Y-650255D01*
X68359Y-650137D01*
X68376Y-650018D01*
X68398Y-649901D01*
X68423Y-649784D01*
X68453Y-649669D01*
X68486Y-649554D01*
X68523Y-649440D01*
X68563Y-649328D01*
X68608Y-649217D01*
X68656Y-649108D01*
X68707Y-649000D01*
X68762Y-648894D01*
X68821Y-648790D01*
X68883Y-648688D01*
X68948Y-648588D01*
X69017Y-648490D01*
X69089Y-648394D01*
X69164Y-648301D01*
X69241Y-648211D01*
X69322Y-648123D01*
X69406Y-648038D01*
X69493Y-647956D01*
X69582Y-647876D01*
X69674Y-647800D01*
X69768Y-647726D01*
X69865Y-647656D01*
X69963Y-647589D01*
X70064Y-647525D01*
X70168Y-647465D01*
X70273Y-647408D01*
X70380Y-647355D01*
X70488Y-647305D01*
X70598Y-647259D01*
X70710Y-647217D01*
X70823Y-647178D01*
X70937Y-647143D01*
X71052Y-647112D01*
X71169Y-647084D01*
X71286Y-647061D01*
X71403Y-647041D01*
X71522Y-647025D01*
X71641Y-647013D01*
X71760Y-647005D01*
X71879Y-647001D01*
X71999Y-647001D01*
X72118Y-647005D01*
X72237Y-647013D01*
X72356Y-647025D01*
X72475Y-647041D01*
X72592Y-647061D01*
X72709Y-647084D01*
X72826Y-647112D01*
X72941Y-647143D01*
X73055Y-647178D01*
X73168Y-647217D01*
X73280Y-647259D01*
X73390Y-647305D01*
X73498Y-647355D01*
X73605Y-647408D01*
X73710Y-647465D01*
X73814Y-647525D01*
X73915Y-647589D01*
X74013Y-647656D01*
X74110Y-647726D01*
X74204Y-647800D01*
X74296Y-647876D01*
X74385Y-647956D01*
X74472Y-648038D01*
X74556Y-648123D01*
X74637Y-648211D01*
X74714Y-648301D01*
X74789Y-648394D01*
X74861Y-648490D01*
X74930Y-648588D01*
X74995Y-648688D01*
X75057Y-648790D01*
X75116Y-648894D01*
X75171Y-649000D01*
X75222Y-649108D01*
X75270Y-649217D01*
X75315Y-649328D01*
X75355Y-649440D01*
X75392Y-649554D01*
X75425Y-649669D01*
X75455Y-649784D01*
X75480Y-649901D01*
X75502Y-650018D01*
X75519Y-650137D01*
X75533Y-650255D01*
X75543Y-650374D01*
X75549Y-650494D01*
X75551Y-650613D01*
X75552Y-650613D02*
X75552Y-652419D01*
X68327Y-652419D01*
X84583Y-657838D02*
X89099Y-657838D01*
X84583Y-657838D02*
X84482Y-657836D01*
X84381Y-657830D01*
X84280Y-657821D01*
X84179Y-657808D01*
X84079Y-657791D01*
X83980Y-657770D01*
X83882Y-657746D01*
X83785Y-657718D01*
X83688Y-657686D01*
X83593Y-657651D01*
X83500Y-657612D01*
X83408Y-657570D01*
X83317Y-657524D01*
X83229Y-657475D01*
X83142Y-657423D01*
X83057Y-657367D01*
X82974Y-657309D01*
X82894Y-657247D01*
X82816Y-657182D01*
X82740Y-657115D01*
X82667Y-657045D01*
X82597Y-656972D01*
X82530Y-656896D01*
X82465Y-656818D01*
X82403Y-656738D01*
X82345Y-656655D01*
X82289Y-656570D01*
X82237Y-656484D01*
X82188Y-656395D01*
X82142Y-656304D01*
X82100Y-656212D01*
X82061Y-656119D01*
X82026Y-656024D01*
X81994Y-655927D01*
X81966Y-655830D01*
X81942Y-655732D01*
X81921Y-655633D01*
X81904Y-655533D01*
X81891Y-655432D01*
X81882Y-655331D01*
X81876Y-655230D01*
X81874Y-655129D01*
X81874Y-650613D01*
X81876Y-650494D01*
X81882Y-650374D01*
X81892Y-650255D01*
X81906Y-650137D01*
X81923Y-650018D01*
X81945Y-649901D01*
X81970Y-649784D01*
X82000Y-649669D01*
X82033Y-649554D01*
X82070Y-649440D01*
X82110Y-649328D01*
X82155Y-649217D01*
X82203Y-649108D01*
X82254Y-649000D01*
X82309Y-648894D01*
X82368Y-648790D01*
X82430Y-648688D01*
X82495Y-648588D01*
X82564Y-648490D01*
X82636Y-648394D01*
X82711Y-648301D01*
X82788Y-648211D01*
X82869Y-648123D01*
X82953Y-648038D01*
X83040Y-647956D01*
X83129Y-647876D01*
X83221Y-647800D01*
X83315Y-647726D01*
X83412Y-647656D01*
X83510Y-647589D01*
X83611Y-647525D01*
X83715Y-647465D01*
X83820Y-647408D01*
X83927Y-647355D01*
X84035Y-647305D01*
X84145Y-647259D01*
X84257Y-647217D01*
X84370Y-647178D01*
X84484Y-647143D01*
X84599Y-647112D01*
X84716Y-647084D01*
X84833Y-647061D01*
X84950Y-647041D01*
X85069Y-647025D01*
X85188Y-647013D01*
X85307Y-647005D01*
X85426Y-647001D01*
X85546Y-647001D01*
X85665Y-647005D01*
X85784Y-647013D01*
X85903Y-647025D01*
X86022Y-647041D01*
X86139Y-647061D01*
X86256Y-647084D01*
X86373Y-647112D01*
X86488Y-647143D01*
X86602Y-647178D01*
X86715Y-647217D01*
X86827Y-647259D01*
X86937Y-647305D01*
X87045Y-647355D01*
X87152Y-647408D01*
X87257Y-647465D01*
X87361Y-647525D01*
X87462Y-647589D01*
X87560Y-647656D01*
X87657Y-647726D01*
X87751Y-647800D01*
X87843Y-647876D01*
X87932Y-647956D01*
X88019Y-648038D01*
X88103Y-648123D01*
X88184Y-648211D01*
X88261Y-648301D01*
X88336Y-648394D01*
X88408Y-648490D01*
X88477Y-648588D01*
X88542Y-648688D01*
X88604Y-648790D01*
X88663Y-648894D01*
X88718Y-649000D01*
X88769Y-649108D01*
X88817Y-649217D01*
X88862Y-649328D01*
X88902Y-649440D01*
X88939Y-649554D01*
X88972Y-649669D01*
X89002Y-649784D01*
X89027Y-649901D01*
X89049Y-650018D01*
X89066Y-650137D01*
X89080Y-650255D01*
X89090Y-650374D01*
X89096Y-650494D01*
X89098Y-650613D01*
X89099Y-650613D02*
X89099Y-652419D01*
X81874Y-652419D01*
X95942Y-657838D02*
X95942Y-647001D01*
X100457Y-647001D01*
X100561Y-647003D01*
X100664Y-647009D01*
X100768Y-647019D01*
X100871Y-647033D01*
X100973Y-647051D01*
X101074Y-647072D01*
X101175Y-647098D01*
X101274Y-647127D01*
X101373Y-647160D01*
X101470Y-647197D01*
X101565Y-647238D01*
X101659Y-647282D01*
X101751Y-647330D01*
X101841Y-647381D01*
X101930Y-647436D01*
X102016Y-647494D01*
X102099Y-647556D01*
X102181Y-647620D01*
X102259Y-647688D01*
X102335Y-647758D01*
X102409Y-647831D01*
X102479Y-647908D01*
X102547Y-647986D01*
X102611Y-648068D01*
X102673Y-648151D01*
X102731Y-648237D01*
X102786Y-648326D01*
X102837Y-648416D01*
X102885Y-648508D01*
X102929Y-648602D01*
X102970Y-648697D01*
X103007Y-648794D01*
X103040Y-648893D01*
X103069Y-648992D01*
X103095Y-649093D01*
X103116Y-649194D01*
X103134Y-649296D01*
X103148Y-649399D01*
X103158Y-649503D01*
X103164Y-649606D01*
X103166Y-649710D01*
X103167Y-649710D02*
X103167Y-657838D01*
M02*
