G04 EAGLE Gerber RS-274X export*
G75*
%MOMM*%
%FSLAX34Y34*%
%LPD*%
%INSolder stop mask CMP*%
%IPPOS*%
%AMOC8*
5,1,8,0,0,1.08239X$1,22.5*%
G01*
%ADD10C,3.352400*%
%ADD11R,1.152400X0.502400*%
%ADD12R,3.302400X1.152400*%
%ADD13R,1.752400X1.552400*%
%ADD14R,1.552400X1.752400*%
%ADD15R,1.714400X0.432400*%
%ADD16R,0.432400X1.714400*%
%ADD17R,2.052400X1.252400*%
%ADD18C,2.352400*%
%ADD19R,1.752400X1.152400*%
%ADD20R,1.549400X0.500400*%
%ADD21R,0.702400X1.352400*%
%ADD22R,0.559200X1.724300*%
%ADD23R,0.552400X1.502400*%
%ADD24R,2.052400X2.052400*%
%ADD25R,1.952400X2.052400*%
%ADD26R,2.252400X1.752400*%
%ADD27R,1.502400X1.502400*%
%ADD28C,1.502400*%
%ADD29R,3.322400X1.172400*%
%ADD30C,1.652400*%
%ADD31C,2.102400*%
%ADD32R,2.102400X2.102400*%
%ADD33R,1.152400X1.652400*%
%ADD34R,0.787400X1.422400*%
%ADD35R,1.422400X1.422400*%
%ADD36R,1.172400X3.322400*%
%ADD37R,1.952400X1.352400*%
%ADD38R,1.952400X1.652400*%
%ADD39R,1.802400X1.802400*%
%ADD40C,1.802400*%
%ADD41C,0.152400*%

G36*
X-379905Y251514D02*
X-379905Y251514D01*
X-379809Y251519D01*
X-379766Y251534D01*
X-379721Y251541D01*
X-379633Y251580D01*
X-379542Y251612D01*
X-379508Y251637D01*
X-379464Y251657D01*
X-379367Y251740D01*
X-379293Y251793D01*
X-376793Y254293D01*
X-376736Y254370D01*
X-376671Y254442D01*
X-376651Y254483D01*
X-376624Y254519D01*
X-376590Y254609D01*
X-376548Y254695D01*
X-376542Y254737D01*
X-376525Y254783D01*
X-376515Y254911D01*
X-376501Y255000D01*
X-376501Y265000D01*
X-376514Y265095D01*
X-376519Y265191D01*
X-376534Y265234D01*
X-376541Y265279D01*
X-376580Y265367D01*
X-376612Y265458D01*
X-376637Y265492D01*
X-376657Y265536D01*
X-376740Y265634D01*
X-376793Y265707D01*
X-379293Y268207D01*
X-379370Y268264D01*
X-379442Y268329D01*
X-379483Y268349D01*
X-379519Y268376D01*
X-379609Y268410D01*
X-379695Y268452D01*
X-379737Y268458D01*
X-379783Y268475D01*
X-379911Y268485D01*
X-380000Y268499D01*
X-390000Y268499D01*
X-390095Y268486D01*
X-390191Y268481D01*
X-390234Y268466D01*
X-390279Y268459D01*
X-390367Y268420D01*
X-390458Y268388D01*
X-390492Y268363D01*
X-390536Y268343D01*
X-390634Y268260D01*
X-390707Y268207D01*
X-393207Y265707D01*
X-393264Y265630D01*
X-393329Y265558D01*
X-393349Y265517D01*
X-393376Y265481D01*
X-393410Y265391D01*
X-393452Y265305D01*
X-393458Y265263D01*
X-393475Y265217D01*
X-393485Y265090D01*
X-393499Y265000D01*
X-393499Y255000D01*
X-393486Y254905D01*
X-393481Y254809D01*
X-393466Y254766D01*
X-393459Y254721D01*
X-393420Y254633D01*
X-393388Y254542D01*
X-393363Y254508D01*
X-393343Y254464D01*
X-393260Y254367D01*
X-393207Y254293D01*
X-390707Y251793D01*
X-390630Y251736D01*
X-390558Y251671D01*
X-390517Y251651D01*
X-390481Y251624D01*
X-390391Y251590D01*
X-390305Y251548D01*
X-390263Y251542D01*
X-390217Y251525D01*
X-390090Y251515D01*
X-390000Y251501D01*
X-380000Y251501D01*
X-379905Y251514D01*
G37*
G36*
X339602Y258503D02*
X339602Y258503D01*
X339604Y258501D01*
X339995Y258532D01*
X339999Y258536D01*
X340002Y258533D01*
X340384Y258624D01*
X340388Y258629D01*
X340392Y258627D01*
X340754Y258777D01*
X340757Y258782D01*
X340761Y258780D01*
X341095Y258985D01*
X341097Y258990D01*
X341101Y258990D01*
X341400Y259245D01*
X341401Y259250D01*
X341405Y259250D01*
X341660Y259549D01*
X341661Y259555D01*
X341665Y259555D01*
X341870Y259889D01*
X341869Y259895D01*
X341874Y259896D01*
X342024Y260258D01*
X342023Y260260D01*
X342024Y260260D01*
X342022Y260263D01*
X342022Y260264D01*
X342026Y260266D01*
X342117Y260648D01*
X342115Y260653D01*
X342117Y260654D01*
X342118Y260655D01*
X342149Y261046D01*
X342147Y261049D01*
X342149Y261050D01*
X342118Y267241D01*
X342113Y267248D01*
X342117Y267252D01*
X342026Y267634D01*
X342021Y267638D01*
X342024Y267642D01*
X341874Y268004D01*
X341868Y268007D01*
X341870Y268011D01*
X341665Y268345D01*
X341660Y268347D01*
X341660Y268351D01*
X341405Y268650D01*
X341400Y268651D01*
X341400Y268655D01*
X341101Y268910D01*
X341095Y268911D01*
X341095Y268915D01*
X340761Y269120D01*
X340755Y269119D01*
X340754Y269124D01*
X340392Y269274D01*
X340386Y269272D01*
X340384Y269276D01*
X340002Y269367D01*
X339997Y269365D01*
X339995Y269368D01*
X339604Y269399D01*
X339601Y269397D01*
X339600Y269399D01*
X330400Y269399D01*
X330398Y269397D01*
X330396Y269399D01*
X330005Y269368D01*
X330001Y269364D01*
X329998Y269367D01*
X329616Y269276D01*
X329612Y269271D01*
X329608Y269274D01*
X329246Y269124D01*
X329243Y269118D01*
X329239Y269120D01*
X328905Y268915D01*
X328903Y268910D01*
X328899Y268910D01*
X328600Y268655D01*
X328599Y268650D01*
X328595Y268650D01*
X328340Y268351D01*
X328339Y268345D01*
X328335Y268345D01*
X328130Y268011D01*
X328131Y268005D01*
X328127Y268004D01*
X327977Y267642D01*
X327978Y267636D01*
X327974Y267634D01*
X327883Y267252D01*
X327885Y267247D01*
X327882Y267245D01*
X327851Y266854D01*
X327853Y266851D01*
X327851Y266850D01*
X327882Y260659D01*
X327887Y260652D01*
X327883Y260648D01*
X327974Y260266D01*
X327979Y260262D01*
X327977Y260258D01*
X328127Y259896D01*
X328132Y259893D01*
X328130Y259889D01*
X328335Y259555D01*
X328340Y259553D01*
X328340Y259549D01*
X328595Y259250D01*
X328600Y259249D01*
X328600Y259245D01*
X328899Y258990D01*
X328905Y258989D01*
X328905Y258985D01*
X329239Y258780D01*
X329245Y258781D01*
X329246Y258777D01*
X329608Y258627D01*
X329614Y258628D01*
X329616Y258624D01*
X329998Y258533D01*
X330003Y258535D01*
X330005Y258532D01*
X330396Y258501D01*
X330399Y258503D01*
X330400Y258501D01*
X339600Y258501D01*
X339602Y258503D01*
G37*
G36*
X239602Y258503D02*
X239602Y258503D01*
X239604Y258501D01*
X239995Y258532D01*
X239999Y258536D01*
X240002Y258533D01*
X240384Y258624D01*
X240388Y258629D01*
X240392Y258627D01*
X240754Y258777D01*
X240757Y258782D01*
X240761Y258780D01*
X241095Y258985D01*
X241097Y258990D01*
X241101Y258990D01*
X241400Y259245D01*
X241401Y259250D01*
X241405Y259250D01*
X241660Y259549D01*
X241661Y259555D01*
X241665Y259555D01*
X241870Y259889D01*
X241869Y259895D01*
X241874Y259896D01*
X242024Y260258D01*
X242023Y260260D01*
X242024Y260260D01*
X242022Y260263D01*
X242022Y260264D01*
X242026Y260266D01*
X242117Y260648D01*
X242115Y260653D01*
X242117Y260654D01*
X242118Y260655D01*
X242149Y261046D01*
X242147Y261049D01*
X242149Y261050D01*
X242118Y267241D01*
X242113Y267248D01*
X242117Y267252D01*
X242026Y267634D01*
X242021Y267638D01*
X242024Y267642D01*
X241874Y268004D01*
X241868Y268007D01*
X241870Y268011D01*
X241665Y268345D01*
X241660Y268347D01*
X241660Y268351D01*
X241405Y268650D01*
X241400Y268651D01*
X241400Y268655D01*
X241101Y268910D01*
X241095Y268911D01*
X241095Y268915D01*
X240761Y269120D01*
X240755Y269119D01*
X240754Y269124D01*
X240392Y269274D01*
X240386Y269272D01*
X240384Y269276D01*
X240002Y269367D01*
X239997Y269365D01*
X239995Y269368D01*
X239604Y269399D01*
X239601Y269397D01*
X239600Y269399D01*
X230400Y269399D01*
X230398Y269397D01*
X230396Y269399D01*
X230005Y269368D01*
X230001Y269364D01*
X229998Y269367D01*
X229616Y269276D01*
X229612Y269271D01*
X229608Y269274D01*
X229246Y269124D01*
X229243Y269118D01*
X229239Y269120D01*
X228905Y268915D01*
X228903Y268910D01*
X228899Y268910D01*
X228600Y268655D01*
X228599Y268650D01*
X228595Y268650D01*
X228340Y268351D01*
X228339Y268345D01*
X228335Y268345D01*
X228130Y268011D01*
X228131Y268005D01*
X228127Y268004D01*
X227977Y267642D01*
X227978Y267636D01*
X227974Y267634D01*
X227883Y267252D01*
X227885Y267247D01*
X227882Y267245D01*
X227851Y266854D01*
X227853Y266851D01*
X227851Y266850D01*
X227882Y260659D01*
X227887Y260652D01*
X227883Y260648D01*
X227974Y260266D01*
X227979Y260262D01*
X227977Y260258D01*
X228127Y259896D01*
X228132Y259893D01*
X228130Y259889D01*
X228335Y259555D01*
X228340Y259553D01*
X228340Y259549D01*
X228595Y259250D01*
X228600Y259249D01*
X228600Y259245D01*
X228899Y258990D01*
X228905Y258989D01*
X228905Y258985D01*
X229239Y258780D01*
X229245Y258781D01*
X229246Y258777D01*
X229608Y258627D01*
X229614Y258628D01*
X229616Y258624D01*
X229998Y258533D01*
X230003Y258535D01*
X230005Y258532D01*
X230396Y258501D01*
X230399Y258503D01*
X230400Y258501D01*
X239600Y258501D01*
X239602Y258503D01*
G37*
G36*
X239602Y240603D02*
X239602Y240603D01*
X239604Y240601D01*
X239995Y240632D01*
X239999Y240636D01*
X240002Y240633D01*
X240384Y240724D01*
X240388Y240729D01*
X240392Y240727D01*
X240754Y240877D01*
X240757Y240882D01*
X240761Y240880D01*
X241095Y241085D01*
X241097Y241090D01*
X241101Y241090D01*
X241400Y241345D01*
X241401Y241350D01*
X241405Y241350D01*
X241660Y241649D01*
X241661Y241655D01*
X241665Y241655D01*
X241870Y241989D01*
X241869Y241995D01*
X241874Y241996D01*
X242024Y242358D01*
X242023Y242360D01*
X242024Y242360D01*
X242022Y242363D01*
X242022Y242364D01*
X242026Y242366D01*
X242117Y242748D01*
X242115Y242753D01*
X242117Y242754D01*
X242118Y242755D01*
X242149Y243146D01*
X242147Y243149D01*
X242149Y243150D01*
X242118Y249341D01*
X242113Y249348D01*
X242117Y249352D01*
X242026Y249734D01*
X242021Y249738D01*
X242024Y249742D01*
X241874Y250104D01*
X241868Y250107D01*
X241870Y250111D01*
X241665Y250445D01*
X241660Y250447D01*
X241660Y250451D01*
X241405Y250750D01*
X241400Y250751D01*
X241400Y250755D01*
X241101Y251010D01*
X241095Y251011D01*
X241095Y251015D01*
X240761Y251220D01*
X240755Y251219D01*
X240754Y251224D01*
X240392Y251374D01*
X240386Y251372D01*
X240384Y251376D01*
X240002Y251467D01*
X239997Y251465D01*
X239995Y251468D01*
X239604Y251499D01*
X239601Y251497D01*
X239600Y251499D01*
X230400Y251499D01*
X230398Y251497D01*
X230396Y251499D01*
X230005Y251468D01*
X230001Y251464D01*
X229998Y251467D01*
X229616Y251376D01*
X229612Y251371D01*
X229608Y251374D01*
X229246Y251224D01*
X229243Y251218D01*
X229239Y251220D01*
X228905Y251015D01*
X228903Y251010D01*
X228899Y251010D01*
X228600Y250755D01*
X228599Y250750D01*
X228595Y250750D01*
X228340Y250451D01*
X228339Y250445D01*
X228335Y250445D01*
X228130Y250111D01*
X228131Y250105D01*
X228127Y250104D01*
X227977Y249742D01*
X227978Y249736D01*
X227974Y249734D01*
X227883Y249352D01*
X227885Y249347D01*
X227882Y249345D01*
X227851Y248954D01*
X227853Y248951D01*
X227851Y248950D01*
X227882Y242759D01*
X227887Y242752D01*
X227883Y242748D01*
X227974Y242366D01*
X227979Y242362D01*
X227977Y242358D01*
X228127Y241996D01*
X228132Y241993D01*
X228130Y241989D01*
X228335Y241655D01*
X228340Y241653D01*
X228340Y241649D01*
X228595Y241350D01*
X228600Y241349D01*
X228600Y241345D01*
X228899Y241090D01*
X228905Y241089D01*
X228905Y241085D01*
X229239Y240880D01*
X229245Y240881D01*
X229246Y240877D01*
X229608Y240727D01*
X229614Y240728D01*
X229616Y240724D01*
X229998Y240633D01*
X230003Y240635D01*
X230005Y240632D01*
X230396Y240601D01*
X230399Y240603D01*
X230400Y240601D01*
X239600Y240601D01*
X239602Y240603D01*
G37*
G36*
X339602Y240603D02*
X339602Y240603D01*
X339604Y240601D01*
X339995Y240632D01*
X339999Y240636D01*
X340002Y240633D01*
X340384Y240724D01*
X340388Y240729D01*
X340392Y240727D01*
X340754Y240877D01*
X340757Y240882D01*
X340761Y240880D01*
X341095Y241085D01*
X341097Y241090D01*
X341101Y241090D01*
X341400Y241345D01*
X341401Y241350D01*
X341405Y241350D01*
X341660Y241649D01*
X341661Y241655D01*
X341665Y241655D01*
X341870Y241989D01*
X341869Y241995D01*
X341874Y241996D01*
X342024Y242358D01*
X342023Y242360D01*
X342024Y242360D01*
X342022Y242363D01*
X342022Y242364D01*
X342026Y242366D01*
X342117Y242748D01*
X342115Y242753D01*
X342117Y242754D01*
X342118Y242755D01*
X342149Y243146D01*
X342147Y243149D01*
X342149Y243150D01*
X342118Y249341D01*
X342113Y249348D01*
X342117Y249352D01*
X342026Y249734D01*
X342021Y249738D01*
X342024Y249742D01*
X341874Y250104D01*
X341868Y250107D01*
X341870Y250111D01*
X341665Y250445D01*
X341660Y250447D01*
X341660Y250451D01*
X341405Y250750D01*
X341400Y250751D01*
X341400Y250755D01*
X341101Y251010D01*
X341095Y251011D01*
X341095Y251015D01*
X340761Y251220D01*
X340755Y251219D01*
X340754Y251224D01*
X340392Y251374D01*
X340386Y251372D01*
X340384Y251376D01*
X340002Y251467D01*
X339997Y251465D01*
X339995Y251468D01*
X339604Y251499D01*
X339601Y251497D01*
X339600Y251499D01*
X330400Y251499D01*
X330398Y251497D01*
X330396Y251499D01*
X330005Y251468D01*
X330001Y251464D01*
X329998Y251467D01*
X329616Y251376D01*
X329612Y251371D01*
X329608Y251374D01*
X329246Y251224D01*
X329243Y251218D01*
X329239Y251220D01*
X328905Y251015D01*
X328903Y251010D01*
X328899Y251010D01*
X328600Y250755D01*
X328599Y250750D01*
X328595Y250750D01*
X328340Y250451D01*
X328339Y250445D01*
X328335Y250445D01*
X328130Y250111D01*
X328131Y250105D01*
X328127Y250104D01*
X327977Y249742D01*
X327978Y249736D01*
X327974Y249734D01*
X327883Y249352D01*
X327885Y249347D01*
X327882Y249345D01*
X327851Y248954D01*
X327853Y248951D01*
X327851Y248950D01*
X327882Y242759D01*
X327887Y242752D01*
X327883Y242748D01*
X327974Y242366D01*
X327979Y242362D01*
X327977Y242358D01*
X328127Y241996D01*
X328132Y241993D01*
X328130Y241989D01*
X328335Y241655D01*
X328340Y241653D01*
X328340Y241649D01*
X328595Y241350D01*
X328600Y241349D01*
X328600Y241345D01*
X328899Y241090D01*
X328905Y241089D01*
X328905Y241085D01*
X329239Y240880D01*
X329245Y240881D01*
X329246Y240877D01*
X329608Y240727D01*
X329614Y240728D01*
X329616Y240724D01*
X329998Y240633D01*
X330003Y240635D01*
X330005Y240632D01*
X330396Y240601D01*
X330399Y240603D01*
X330400Y240601D01*
X339600Y240601D01*
X339602Y240603D01*
G37*
G36*
X239602Y208503D02*
X239602Y208503D01*
X239604Y208501D01*
X239995Y208532D01*
X239999Y208536D01*
X240002Y208533D01*
X240384Y208624D01*
X240388Y208629D01*
X240392Y208627D01*
X240754Y208777D01*
X240757Y208782D01*
X240761Y208780D01*
X241095Y208985D01*
X241097Y208990D01*
X241101Y208990D01*
X241400Y209245D01*
X241401Y209250D01*
X241405Y209250D01*
X241660Y209549D01*
X241661Y209555D01*
X241665Y209555D01*
X241870Y209889D01*
X241869Y209895D01*
X241874Y209896D01*
X242024Y210258D01*
X242023Y210260D01*
X242024Y210260D01*
X242022Y210263D01*
X242022Y210264D01*
X242026Y210266D01*
X242117Y210648D01*
X242115Y210653D01*
X242117Y210654D01*
X242118Y210655D01*
X242149Y211046D01*
X242147Y211049D01*
X242149Y211050D01*
X242118Y217241D01*
X242113Y217248D01*
X242117Y217252D01*
X242026Y217634D01*
X242021Y217638D01*
X242024Y217642D01*
X241874Y218004D01*
X241868Y218007D01*
X241870Y218011D01*
X241665Y218345D01*
X241660Y218347D01*
X241660Y218351D01*
X241405Y218650D01*
X241400Y218651D01*
X241400Y218655D01*
X241101Y218910D01*
X241095Y218911D01*
X241095Y218915D01*
X240761Y219120D01*
X240755Y219119D01*
X240754Y219124D01*
X240392Y219274D01*
X240386Y219272D01*
X240384Y219276D01*
X240002Y219367D01*
X239997Y219365D01*
X239995Y219368D01*
X239604Y219399D01*
X239601Y219397D01*
X239600Y219399D01*
X230400Y219399D01*
X230398Y219397D01*
X230396Y219399D01*
X230005Y219368D01*
X230001Y219364D01*
X229998Y219367D01*
X229616Y219276D01*
X229612Y219271D01*
X229608Y219274D01*
X229246Y219124D01*
X229243Y219118D01*
X229239Y219120D01*
X228905Y218915D01*
X228903Y218910D01*
X228899Y218910D01*
X228600Y218655D01*
X228599Y218650D01*
X228595Y218650D01*
X228340Y218351D01*
X228339Y218345D01*
X228335Y218345D01*
X228130Y218011D01*
X228131Y218005D01*
X228127Y218004D01*
X227977Y217642D01*
X227978Y217636D01*
X227974Y217634D01*
X227883Y217252D01*
X227885Y217247D01*
X227882Y217245D01*
X227851Y216854D01*
X227853Y216851D01*
X227851Y216850D01*
X227882Y210659D01*
X227887Y210652D01*
X227883Y210648D01*
X227974Y210266D01*
X227979Y210262D01*
X227977Y210258D01*
X228127Y209896D01*
X228132Y209893D01*
X228130Y209889D01*
X228335Y209555D01*
X228340Y209553D01*
X228340Y209549D01*
X228595Y209250D01*
X228600Y209249D01*
X228600Y209245D01*
X228899Y208990D01*
X228905Y208989D01*
X228905Y208985D01*
X229239Y208780D01*
X229245Y208781D01*
X229246Y208777D01*
X229608Y208627D01*
X229614Y208628D01*
X229616Y208624D01*
X229998Y208533D01*
X230003Y208535D01*
X230005Y208532D01*
X230396Y208501D01*
X230399Y208503D01*
X230400Y208501D01*
X239600Y208501D01*
X239602Y208503D01*
G37*
G36*
X339602Y208503D02*
X339602Y208503D01*
X339604Y208501D01*
X339995Y208532D01*
X339999Y208536D01*
X340002Y208533D01*
X340384Y208624D01*
X340388Y208629D01*
X340392Y208627D01*
X340754Y208777D01*
X340757Y208782D01*
X340761Y208780D01*
X341095Y208985D01*
X341097Y208990D01*
X341101Y208990D01*
X341400Y209245D01*
X341401Y209250D01*
X341405Y209250D01*
X341660Y209549D01*
X341661Y209555D01*
X341665Y209555D01*
X341870Y209889D01*
X341869Y209895D01*
X341874Y209896D01*
X342024Y210258D01*
X342023Y210260D01*
X342024Y210260D01*
X342022Y210263D01*
X342022Y210264D01*
X342026Y210266D01*
X342117Y210648D01*
X342115Y210653D01*
X342117Y210654D01*
X342118Y210655D01*
X342149Y211046D01*
X342147Y211049D01*
X342149Y211050D01*
X342118Y217241D01*
X342113Y217248D01*
X342117Y217252D01*
X342026Y217634D01*
X342021Y217638D01*
X342024Y217642D01*
X341874Y218004D01*
X341868Y218007D01*
X341870Y218011D01*
X341665Y218345D01*
X341660Y218347D01*
X341660Y218351D01*
X341405Y218650D01*
X341400Y218651D01*
X341400Y218655D01*
X341101Y218910D01*
X341095Y218911D01*
X341095Y218915D01*
X340761Y219120D01*
X340755Y219119D01*
X340754Y219124D01*
X340392Y219274D01*
X340386Y219272D01*
X340384Y219276D01*
X340002Y219367D01*
X339997Y219365D01*
X339995Y219368D01*
X339604Y219399D01*
X339601Y219397D01*
X339600Y219399D01*
X330400Y219399D01*
X330398Y219397D01*
X330396Y219399D01*
X330005Y219368D01*
X330001Y219364D01*
X329998Y219367D01*
X329616Y219276D01*
X329612Y219271D01*
X329608Y219274D01*
X329246Y219124D01*
X329243Y219118D01*
X329239Y219120D01*
X328905Y218915D01*
X328903Y218910D01*
X328899Y218910D01*
X328600Y218655D01*
X328599Y218650D01*
X328595Y218650D01*
X328340Y218351D01*
X328339Y218345D01*
X328335Y218345D01*
X328130Y218011D01*
X328131Y218005D01*
X328127Y218004D01*
X327977Y217642D01*
X327978Y217636D01*
X327974Y217634D01*
X327883Y217252D01*
X327885Y217247D01*
X327882Y217245D01*
X327851Y216854D01*
X327853Y216851D01*
X327851Y216850D01*
X327882Y210659D01*
X327887Y210652D01*
X327883Y210648D01*
X327974Y210266D01*
X327979Y210262D01*
X327977Y210258D01*
X328127Y209896D01*
X328132Y209893D01*
X328130Y209889D01*
X328335Y209555D01*
X328340Y209553D01*
X328340Y209549D01*
X328595Y209250D01*
X328600Y209249D01*
X328600Y209245D01*
X328899Y208990D01*
X328905Y208989D01*
X328905Y208985D01*
X329239Y208780D01*
X329245Y208781D01*
X329246Y208777D01*
X329608Y208627D01*
X329614Y208628D01*
X329616Y208624D01*
X329998Y208533D01*
X330003Y208535D01*
X330005Y208532D01*
X330396Y208501D01*
X330399Y208503D01*
X330400Y208501D01*
X339600Y208501D01*
X339602Y208503D01*
G37*
G36*
X207241Y195382D02*
X207241Y195382D01*
X207248Y195387D01*
X207252Y195383D01*
X207634Y195474D01*
X207638Y195479D01*
X207642Y195477D01*
X208004Y195627D01*
X208007Y195632D01*
X208011Y195630D01*
X208345Y195835D01*
X208347Y195840D01*
X208351Y195840D01*
X208650Y196095D01*
X208651Y196100D01*
X208655Y196100D01*
X208910Y196399D01*
X208911Y196405D01*
X208915Y196405D01*
X209120Y196739D01*
X209119Y196745D01*
X209124Y196746D01*
X209274Y197108D01*
X209273Y197110D01*
X209274Y197110D01*
X209272Y197113D01*
X209272Y197114D01*
X209276Y197116D01*
X209367Y197498D01*
X209365Y197503D01*
X209367Y197504D01*
X209368Y197505D01*
X209399Y197896D01*
X209397Y197899D01*
X209399Y197900D01*
X209399Y207100D01*
X209397Y207102D01*
X209399Y207104D01*
X209368Y207495D01*
X209364Y207499D01*
X209367Y207502D01*
X209276Y207884D01*
X209271Y207888D01*
X209274Y207892D01*
X209124Y208254D01*
X209118Y208257D01*
X209120Y208261D01*
X208915Y208595D01*
X208910Y208597D01*
X208910Y208601D01*
X208655Y208900D01*
X208650Y208901D01*
X208650Y208905D01*
X208351Y209160D01*
X208345Y209161D01*
X208345Y209165D01*
X208011Y209370D01*
X208005Y209369D01*
X208004Y209374D01*
X207642Y209524D01*
X207636Y209522D01*
X207634Y209526D01*
X207252Y209617D01*
X207247Y209615D01*
X207245Y209618D01*
X206854Y209649D01*
X206851Y209647D01*
X206850Y209649D01*
X200659Y209618D01*
X200652Y209613D01*
X200648Y209617D01*
X200266Y209526D01*
X200262Y209521D01*
X200258Y209524D01*
X199896Y209374D01*
X199893Y209368D01*
X199889Y209370D01*
X199555Y209165D01*
X199553Y209160D01*
X199549Y209160D01*
X199250Y208905D01*
X199249Y208900D01*
X199245Y208900D01*
X198990Y208601D01*
X198989Y208595D01*
X198985Y208595D01*
X198780Y208261D01*
X198781Y208255D01*
X198777Y208254D01*
X198627Y207892D01*
X198628Y207886D01*
X198624Y207884D01*
X198533Y207502D01*
X198535Y207497D01*
X198532Y207495D01*
X198501Y207104D01*
X198503Y207101D01*
X198501Y207100D01*
X198501Y197900D01*
X198503Y197898D01*
X198501Y197896D01*
X198532Y197505D01*
X198536Y197501D01*
X198533Y197498D01*
X198624Y197116D01*
X198629Y197112D01*
X198627Y197108D01*
X198777Y196746D01*
X198782Y196743D01*
X198780Y196739D01*
X198985Y196405D01*
X198990Y196403D01*
X198990Y196399D01*
X199245Y196100D01*
X199250Y196099D01*
X199250Y196095D01*
X199549Y195840D01*
X199555Y195839D01*
X199555Y195835D01*
X199889Y195630D01*
X199895Y195631D01*
X199896Y195627D01*
X200258Y195477D01*
X200264Y195478D01*
X200266Y195474D01*
X200648Y195383D01*
X200653Y195385D01*
X200655Y195382D01*
X201046Y195351D01*
X201049Y195353D01*
X201050Y195351D01*
X207241Y195382D01*
G37*
G36*
X189341Y195382D02*
X189341Y195382D01*
X189348Y195387D01*
X189352Y195383D01*
X189734Y195474D01*
X189738Y195479D01*
X189742Y195477D01*
X190104Y195627D01*
X190107Y195632D01*
X190111Y195630D01*
X190445Y195835D01*
X190447Y195840D01*
X190451Y195840D01*
X190750Y196095D01*
X190751Y196100D01*
X190755Y196100D01*
X191010Y196399D01*
X191011Y196405D01*
X191015Y196405D01*
X191220Y196739D01*
X191219Y196745D01*
X191224Y196746D01*
X191374Y197108D01*
X191373Y197110D01*
X191374Y197110D01*
X191372Y197113D01*
X191372Y197114D01*
X191376Y197116D01*
X191467Y197498D01*
X191465Y197503D01*
X191467Y197504D01*
X191468Y197505D01*
X191499Y197896D01*
X191497Y197899D01*
X191499Y197900D01*
X191499Y207100D01*
X191497Y207102D01*
X191499Y207104D01*
X191468Y207495D01*
X191464Y207499D01*
X191467Y207502D01*
X191376Y207884D01*
X191371Y207888D01*
X191374Y207892D01*
X191224Y208254D01*
X191218Y208257D01*
X191220Y208261D01*
X191015Y208595D01*
X191010Y208597D01*
X191010Y208601D01*
X190755Y208900D01*
X190750Y208901D01*
X190750Y208905D01*
X190451Y209160D01*
X190445Y209161D01*
X190445Y209165D01*
X190111Y209370D01*
X190105Y209369D01*
X190104Y209374D01*
X189742Y209524D01*
X189736Y209522D01*
X189734Y209526D01*
X189352Y209617D01*
X189347Y209615D01*
X189345Y209618D01*
X188954Y209649D01*
X188951Y209647D01*
X188950Y209649D01*
X182759Y209618D01*
X182752Y209613D01*
X182748Y209617D01*
X182366Y209526D01*
X182362Y209521D01*
X182358Y209524D01*
X181996Y209374D01*
X181993Y209368D01*
X181989Y209370D01*
X181655Y209165D01*
X181653Y209160D01*
X181649Y209160D01*
X181350Y208905D01*
X181349Y208900D01*
X181345Y208900D01*
X181090Y208601D01*
X181089Y208595D01*
X181085Y208595D01*
X180880Y208261D01*
X180881Y208255D01*
X180877Y208254D01*
X180727Y207892D01*
X180728Y207886D01*
X180724Y207884D01*
X180633Y207502D01*
X180635Y207497D01*
X180632Y207495D01*
X180601Y207104D01*
X180603Y207101D01*
X180601Y207100D01*
X180601Y197900D01*
X180603Y197898D01*
X180601Y197896D01*
X180632Y197505D01*
X180636Y197501D01*
X180633Y197498D01*
X180724Y197116D01*
X180729Y197112D01*
X180727Y197108D01*
X180877Y196746D01*
X180882Y196743D01*
X180880Y196739D01*
X181085Y196405D01*
X181090Y196403D01*
X181090Y196399D01*
X181345Y196100D01*
X181350Y196099D01*
X181350Y196095D01*
X181649Y195840D01*
X181655Y195839D01*
X181655Y195835D01*
X181989Y195630D01*
X181995Y195631D01*
X181996Y195627D01*
X182358Y195477D01*
X182364Y195478D01*
X182366Y195474D01*
X182748Y195383D01*
X182753Y195385D01*
X182755Y195382D01*
X183146Y195351D01*
X183149Y195353D01*
X183150Y195351D01*
X189341Y195382D01*
G37*
G36*
X339602Y190603D02*
X339602Y190603D01*
X339604Y190601D01*
X339995Y190632D01*
X339999Y190636D01*
X340002Y190633D01*
X340384Y190724D01*
X340388Y190729D01*
X340392Y190727D01*
X340754Y190877D01*
X340757Y190882D01*
X340761Y190880D01*
X341095Y191085D01*
X341097Y191090D01*
X341101Y191090D01*
X341400Y191345D01*
X341401Y191350D01*
X341405Y191350D01*
X341660Y191649D01*
X341661Y191655D01*
X341665Y191655D01*
X341870Y191989D01*
X341869Y191995D01*
X341874Y191996D01*
X342024Y192358D01*
X342023Y192360D01*
X342024Y192360D01*
X342022Y192363D01*
X342022Y192364D01*
X342026Y192366D01*
X342117Y192748D01*
X342115Y192753D01*
X342117Y192754D01*
X342118Y192755D01*
X342149Y193146D01*
X342147Y193149D01*
X342149Y193150D01*
X342118Y199341D01*
X342113Y199348D01*
X342117Y199352D01*
X342026Y199734D01*
X342021Y199738D01*
X342024Y199742D01*
X341874Y200104D01*
X341868Y200107D01*
X341870Y200111D01*
X341665Y200445D01*
X341660Y200447D01*
X341660Y200451D01*
X341405Y200750D01*
X341400Y200751D01*
X341400Y200755D01*
X341101Y201010D01*
X341095Y201011D01*
X341095Y201015D01*
X340761Y201220D01*
X340755Y201219D01*
X340754Y201224D01*
X340392Y201374D01*
X340386Y201372D01*
X340384Y201376D01*
X340002Y201467D01*
X339997Y201465D01*
X339995Y201468D01*
X339604Y201499D01*
X339601Y201497D01*
X339600Y201499D01*
X330400Y201499D01*
X330398Y201497D01*
X330396Y201499D01*
X330005Y201468D01*
X330001Y201464D01*
X329998Y201467D01*
X329616Y201376D01*
X329612Y201371D01*
X329608Y201374D01*
X329246Y201224D01*
X329243Y201218D01*
X329239Y201220D01*
X328905Y201015D01*
X328903Y201010D01*
X328899Y201010D01*
X328600Y200755D01*
X328599Y200750D01*
X328595Y200750D01*
X328340Y200451D01*
X328339Y200445D01*
X328335Y200445D01*
X328130Y200111D01*
X328131Y200105D01*
X328127Y200104D01*
X327977Y199742D01*
X327978Y199736D01*
X327974Y199734D01*
X327883Y199352D01*
X327885Y199347D01*
X327882Y199345D01*
X327851Y198954D01*
X327853Y198951D01*
X327851Y198950D01*
X327882Y192759D01*
X327887Y192752D01*
X327883Y192748D01*
X327974Y192366D01*
X327979Y192362D01*
X327977Y192358D01*
X328127Y191996D01*
X328132Y191993D01*
X328130Y191989D01*
X328335Y191655D01*
X328340Y191653D01*
X328340Y191649D01*
X328595Y191350D01*
X328600Y191349D01*
X328600Y191345D01*
X328899Y191090D01*
X328905Y191089D01*
X328905Y191085D01*
X329239Y190880D01*
X329245Y190881D01*
X329246Y190877D01*
X329608Y190727D01*
X329614Y190728D01*
X329616Y190724D01*
X329998Y190633D01*
X330003Y190635D01*
X330005Y190632D01*
X330396Y190601D01*
X330399Y190603D01*
X330400Y190601D01*
X339600Y190601D01*
X339602Y190603D01*
G37*
G36*
X239602Y190603D02*
X239602Y190603D01*
X239604Y190601D01*
X239995Y190632D01*
X239999Y190636D01*
X240002Y190633D01*
X240384Y190724D01*
X240388Y190729D01*
X240392Y190727D01*
X240754Y190877D01*
X240757Y190882D01*
X240761Y190880D01*
X241095Y191085D01*
X241097Y191090D01*
X241101Y191090D01*
X241400Y191345D01*
X241401Y191350D01*
X241405Y191350D01*
X241660Y191649D01*
X241661Y191655D01*
X241665Y191655D01*
X241870Y191989D01*
X241869Y191995D01*
X241874Y191996D01*
X242024Y192358D01*
X242023Y192360D01*
X242024Y192360D01*
X242022Y192363D01*
X242022Y192364D01*
X242026Y192366D01*
X242117Y192748D01*
X242115Y192753D01*
X242117Y192754D01*
X242118Y192755D01*
X242149Y193146D01*
X242147Y193149D01*
X242149Y193150D01*
X242118Y199341D01*
X242113Y199348D01*
X242117Y199352D01*
X242026Y199734D01*
X242021Y199738D01*
X242024Y199742D01*
X241874Y200104D01*
X241868Y200107D01*
X241870Y200111D01*
X241665Y200445D01*
X241660Y200447D01*
X241660Y200451D01*
X241405Y200750D01*
X241400Y200751D01*
X241400Y200755D01*
X241101Y201010D01*
X241095Y201011D01*
X241095Y201015D01*
X240761Y201220D01*
X240755Y201219D01*
X240754Y201224D01*
X240392Y201374D01*
X240386Y201372D01*
X240384Y201376D01*
X240002Y201467D01*
X239997Y201465D01*
X239995Y201468D01*
X239604Y201499D01*
X239601Y201497D01*
X239600Y201499D01*
X230400Y201499D01*
X230398Y201497D01*
X230396Y201499D01*
X230005Y201468D01*
X230001Y201464D01*
X229998Y201467D01*
X229616Y201376D01*
X229612Y201371D01*
X229608Y201374D01*
X229246Y201224D01*
X229243Y201218D01*
X229239Y201220D01*
X228905Y201015D01*
X228903Y201010D01*
X228899Y201010D01*
X228600Y200755D01*
X228599Y200750D01*
X228595Y200750D01*
X228340Y200451D01*
X228339Y200445D01*
X228335Y200445D01*
X228130Y200111D01*
X228131Y200105D01*
X228127Y200104D01*
X227977Y199742D01*
X227978Y199736D01*
X227974Y199734D01*
X227883Y199352D01*
X227885Y199347D01*
X227882Y199345D01*
X227851Y198954D01*
X227853Y198951D01*
X227851Y198950D01*
X227882Y192759D01*
X227887Y192752D01*
X227883Y192748D01*
X227974Y192366D01*
X227979Y192362D01*
X227977Y192358D01*
X228127Y191996D01*
X228132Y191993D01*
X228130Y191989D01*
X228335Y191655D01*
X228340Y191653D01*
X228340Y191649D01*
X228595Y191350D01*
X228600Y191349D01*
X228600Y191345D01*
X228899Y191090D01*
X228905Y191089D01*
X228905Y191085D01*
X229239Y190880D01*
X229245Y190881D01*
X229246Y190877D01*
X229608Y190727D01*
X229614Y190728D01*
X229616Y190724D01*
X229998Y190633D01*
X230003Y190635D01*
X230005Y190632D01*
X230396Y190601D01*
X230399Y190603D01*
X230400Y190601D01*
X239600Y190601D01*
X239602Y190603D01*
G37*
G36*
X164602Y183503D02*
X164602Y183503D01*
X164604Y183501D01*
X164995Y183532D01*
X164999Y183536D01*
X165002Y183533D01*
X165384Y183624D01*
X165388Y183629D01*
X165392Y183627D01*
X165754Y183777D01*
X165757Y183782D01*
X165761Y183780D01*
X166095Y183985D01*
X166097Y183990D01*
X166101Y183990D01*
X166400Y184245D01*
X166401Y184250D01*
X166405Y184250D01*
X166660Y184549D01*
X166661Y184555D01*
X166665Y184555D01*
X166870Y184889D01*
X166869Y184895D01*
X166874Y184896D01*
X167024Y185258D01*
X167023Y185260D01*
X167024Y185260D01*
X167022Y185263D01*
X167022Y185264D01*
X167026Y185266D01*
X167117Y185648D01*
X167115Y185653D01*
X167117Y185654D01*
X167118Y185655D01*
X167149Y186046D01*
X167147Y186049D01*
X167149Y186050D01*
X167118Y192241D01*
X167113Y192248D01*
X167117Y192252D01*
X167026Y192634D01*
X167021Y192638D01*
X167024Y192642D01*
X166874Y193004D01*
X166868Y193007D01*
X166870Y193011D01*
X166665Y193345D01*
X166660Y193347D01*
X166660Y193351D01*
X166405Y193650D01*
X166400Y193651D01*
X166400Y193655D01*
X166101Y193910D01*
X166095Y193911D01*
X166095Y193915D01*
X165761Y194120D01*
X165755Y194119D01*
X165754Y194124D01*
X165392Y194274D01*
X165386Y194272D01*
X165384Y194276D01*
X165002Y194367D01*
X164997Y194365D01*
X164995Y194368D01*
X164604Y194399D01*
X164601Y194397D01*
X164600Y194399D01*
X155400Y194399D01*
X155398Y194397D01*
X155396Y194399D01*
X155005Y194368D01*
X155001Y194364D01*
X154998Y194367D01*
X154616Y194276D01*
X154612Y194271D01*
X154608Y194274D01*
X154246Y194124D01*
X154243Y194118D01*
X154239Y194120D01*
X153905Y193915D01*
X153903Y193910D01*
X153899Y193910D01*
X153600Y193655D01*
X153599Y193650D01*
X153595Y193650D01*
X153340Y193351D01*
X153339Y193345D01*
X153335Y193345D01*
X153130Y193011D01*
X153131Y193005D01*
X153127Y193004D01*
X152977Y192642D01*
X152978Y192636D01*
X152974Y192634D01*
X152883Y192252D01*
X152885Y192247D01*
X152882Y192245D01*
X152851Y191854D01*
X152853Y191851D01*
X152851Y191850D01*
X152882Y185659D01*
X152887Y185652D01*
X152883Y185648D01*
X152974Y185266D01*
X152979Y185262D01*
X152977Y185258D01*
X153127Y184896D01*
X153132Y184893D01*
X153130Y184889D01*
X153335Y184555D01*
X153340Y184553D01*
X153340Y184549D01*
X153595Y184250D01*
X153600Y184249D01*
X153600Y184245D01*
X153899Y183990D01*
X153905Y183989D01*
X153905Y183985D01*
X154239Y183780D01*
X154245Y183781D01*
X154246Y183777D01*
X154608Y183627D01*
X154614Y183628D01*
X154616Y183624D01*
X154998Y183533D01*
X155003Y183535D01*
X155005Y183532D01*
X155396Y183501D01*
X155399Y183503D01*
X155400Y183501D01*
X164600Y183501D01*
X164602Y183503D01*
G37*
G36*
X164602Y165603D02*
X164602Y165603D01*
X164604Y165601D01*
X164995Y165632D01*
X164999Y165636D01*
X165002Y165633D01*
X165384Y165724D01*
X165388Y165729D01*
X165392Y165727D01*
X165754Y165877D01*
X165757Y165882D01*
X165761Y165880D01*
X166095Y166085D01*
X166097Y166090D01*
X166101Y166090D01*
X166400Y166345D01*
X166401Y166350D01*
X166405Y166350D01*
X166660Y166649D01*
X166661Y166655D01*
X166665Y166655D01*
X166870Y166989D01*
X166869Y166995D01*
X166874Y166996D01*
X167024Y167358D01*
X167023Y167360D01*
X167024Y167360D01*
X167022Y167363D01*
X167022Y167364D01*
X167026Y167366D01*
X167117Y167748D01*
X167115Y167753D01*
X167117Y167754D01*
X167118Y167755D01*
X167149Y168146D01*
X167147Y168149D01*
X167149Y168150D01*
X167118Y174341D01*
X167113Y174348D01*
X167117Y174352D01*
X167026Y174734D01*
X167021Y174738D01*
X167024Y174742D01*
X166874Y175104D01*
X166868Y175107D01*
X166870Y175111D01*
X166665Y175445D01*
X166660Y175447D01*
X166660Y175451D01*
X166405Y175750D01*
X166400Y175751D01*
X166400Y175755D01*
X166101Y176010D01*
X166095Y176011D01*
X166095Y176015D01*
X165761Y176220D01*
X165755Y176219D01*
X165754Y176224D01*
X165392Y176374D01*
X165386Y176372D01*
X165384Y176376D01*
X165002Y176467D01*
X164997Y176465D01*
X164995Y176468D01*
X164604Y176499D01*
X164601Y176497D01*
X164600Y176499D01*
X155400Y176499D01*
X155398Y176497D01*
X155396Y176499D01*
X155005Y176468D01*
X155001Y176464D01*
X154998Y176467D01*
X154616Y176376D01*
X154612Y176371D01*
X154608Y176374D01*
X154246Y176224D01*
X154243Y176218D01*
X154239Y176220D01*
X153905Y176015D01*
X153903Y176010D01*
X153899Y176010D01*
X153600Y175755D01*
X153599Y175750D01*
X153595Y175750D01*
X153340Y175451D01*
X153339Y175445D01*
X153335Y175445D01*
X153130Y175111D01*
X153131Y175105D01*
X153127Y175104D01*
X152977Y174742D01*
X152978Y174736D01*
X152974Y174734D01*
X152883Y174352D01*
X152885Y174347D01*
X152882Y174345D01*
X152851Y173954D01*
X152853Y173951D01*
X152851Y173950D01*
X152882Y167759D01*
X152887Y167752D01*
X152883Y167748D01*
X152974Y167366D01*
X152979Y167362D01*
X152977Y167358D01*
X153127Y166996D01*
X153132Y166993D01*
X153130Y166989D01*
X153335Y166655D01*
X153340Y166653D01*
X153340Y166649D01*
X153595Y166350D01*
X153600Y166349D01*
X153600Y166345D01*
X153899Y166090D01*
X153905Y166089D01*
X153905Y166085D01*
X154239Y165880D01*
X154245Y165881D01*
X154246Y165877D01*
X154608Y165727D01*
X154614Y165728D01*
X154616Y165724D01*
X154998Y165633D01*
X155003Y165635D01*
X155005Y165632D01*
X155396Y165601D01*
X155399Y165603D01*
X155400Y165601D01*
X164600Y165601D01*
X164602Y165603D01*
G37*
G36*
X-290398Y153503D02*
X-290398Y153503D01*
X-290396Y153501D01*
X-290005Y153532D01*
X-290001Y153536D01*
X-289998Y153533D01*
X-289616Y153624D01*
X-289612Y153629D01*
X-289608Y153627D01*
X-289246Y153777D01*
X-289243Y153782D01*
X-289239Y153780D01*
X-288905Y153985D01*
X-288903Y153990D01*
X-288899Y153990D01*
X-288600Y154245D01*
X-288599Y154250D01*
X-288595Y154250D01*
X-288340Y154549D01*
X-288339Y154555D01*
X-288335Y154555D01*
X-288130Y154889D01*
X-288131Y154895D01*
X-288127Y154896D01*
X-287977Y155258D01*
X-287977Y155260D01*
X-287976Y155260D01*
X-287978Y155263D01*
X-287978Y155264D01*
X-287974Y155266D01*
X-287883Y155648D01*
X-287885Y155653D01*
X-287883Y155654D01*
X-287882Y155655D01*
X-287851Y156046D01*
X-287853Y156049D01*
X-287851Y156050D01*
X-287882Y162241D01*
X-287887Y162248D01*
X-287883Y162252D01*
X-287974Y162634D01*
X-287979Y162638D01*
X-287977Y162642D01*
X-288127Y163004D01*
X-288132Y163007D01*
X-288130Y163011D01*
X-288335Y163345D01*
X-288340Y163347D01*
X-288340Y163351D01*
X-288595Y163650D01*
X-288600Y163651D01*
X-288600Y163655D01*
X-288899Y163910D01*
X-288905Y163911D01*
X-288905Y163915D01*
X-289239Y164120D01*
X-289245Y164119D01*
X-289246Y164124D01*
X-289608Y164274D01*
X-289614Y164272D01*
X-289616Y164276D01*
X-289998Y164367D01*
X-290003Y164365D01*
X-290005Y164368D01*
X-290396Y164399D01*
X-290399Y164397D01*
X-290400Y164399D01*
X-299600Y164399D01*
X-299602Y164397D01*
X-299604Y164399D01*
X-299995Y164368D01*
X-299999Y164364D01*
X-300002Y164367D01*
X-300384Y164276D01*
X-300388Y164271D01*
X-300392Y164274D01*
X-300754Y164124D01*
X-300757Y164118D01*
X-300761Y164120D01*
X-301095Y163915D01*
X-301097Y163910D01*
X-301101Y163910D01*
X-301400Y163655D01*
X-301401Y163650D01*
X-301405Y163650D01*
X-301660Y163351D01*
X-301661Y163345D01*
X-301665Y163345D01*
X-301870Y163011D01*
X-301869Y163005D01*
X-301874Y163004D01*
X-302024Y162642D01*
X-302022Y162636D01*
X-302026Y162634D01*
X-302117Y162252D01*
X-302115Y162247D01*
X-302118Y162245D01*
X-302149Y161854D01*
X-302147Y161851D01*
X-302149Y161850D01*
X-302118Y155659D01*
X-302113Y155652D01*
X-302117Y155648D01*
X-302026Y155266D01*
X-302021Y155262D01*
X-302024Y155258D01*
X-301874Y154896D01*
X-301868Y154893D01*
X-301870Y154889D01*
X-301665Y154555D01*
X-301660Y154553D01*
X-301660Y154549D01*
X-301405Y154250D01*
X-301400Y154249D01*
X-301400Y154245D01*
X-301101Y153990D01*
X-301095Y153989D01*
X-301095Y153985D01*
X-300761Y153780D01*
X-300755Y153781D01*
X-300754Y153777D01*
X-300392Y153627D01*
X-300386Y153628D01*
X-300384Y153624D01*
X-300002Y153533D01*
X-299997Y153535D01*
X-299995Y153532D01*
X-299604Y153501D01*
X-299601Y153503D01*
X-299600Y153501D01*
X-290400Y153501D01*
X-290398Y153503D01*
G37*
G36*
X-355398Y-194397D02*
X-355398Y-194397D01*
X-355396Y-194399D01*
X-355005Y-194368D01*
X-355001Y-194364D01*
X-354998Y-194367D01*
X-354616Y-194276D01*
X-354612Y-194271D01*
X-354608Y-194274D01*
X-354246Y-194124D01*
X-354243Y-194118D01*
X-354239Y-194120D01*
X-353905Y-193915D01*
X-353903Y-193910D01*
X-353899Y-193910D01*
X-353600Y-193655D01*
X-353599Y-193650D01*
X-353595Y-193650D01*
X-353340Y-193351D01*
X-353339Y-193345D01*
X-353335Y-193345D01*
X-353130Y-193011D01*
X-353131Y-193005D01*
X-353127Y-193004D01*
X-352977Y-192642D01*
X-352977Y-192640D01*
X-352976Y-192640D01*
X-352978Y-192637D01*
X-352978Y-192636D01*
X-352974Y-192634D01*
X-352883Y-192252D01*
X-352885Y-192247D01*
X-352883Y-192246D01*
X-352882Y-192245D01*
X-352851Y-191854D01*
X-352853Y-191851D01*
X-352851Y-191850D01*
X-352882Y-185659D01*
X-352887Y-185652D01*
X-352883Y-185648D01*
X-352974Y-185266D01*
X-352979Y-185262D01*
X-352977Y-185258D01*
X-353127Y-184896D01*
X-353132Y-184893D01*
X-353130Y-184889D01*
X-353335Y-184555D01*
X-353340Y-184553D01*
X-353340Y-184549D01*
X-353595Y-184250D01*
X-353600Y-184249D01*
X-353600Y-184245D01*
X-353899Y-183990D01*
X-353905Y-183989D01*
X-353905Y-183985D01*
X-354239Y-183780D01*
X-354245Y-183781D01*
X-354246Y-183777D01*
X-354608Y-183627D01*
X-354614Y-183628D01*
X-354616Y-183624D01*
X-354998Y-183533D01*
X-355003Y-183535D01*
X-355005Y-183532D01*
X-355396Y-183501D01*
X-355399Y-183503D01*
X-355400Y-183501D01*
X-364600Y-183501D01*
X-364602Y-183503D01*
X-364604Y-183501D01*
X-364995Y-183532D01*
X-364999Y-183536D01*
X-365002Y-183533D01*
X-365384Y-183624D01*
X-365388Y-183629D01*
X-365392Y-183627D01*
X-365754Y-183777D01*
X-365757Y-183782D01*
X-365761Y-183780D01*
X-366095Y-183985D01*
X-366097Y-183990D01*
X-366101Y-183990D01*
X-366400Y-184245D01*
X-366401Y-184250D01*
X-366405Y-184250D01*
X-366660Y-184549D01*
X-366661Y-184555D01*
X-366665Y-184555D01*
X-366870Y-184889D01*
X-366869Y-184895D01*
X-366874Y-184896D01*
X-367024Y-185258D01*
X-367022Y-185264D01*
X-367026Y-185266D01*
X-367117Y-185648D01*
X-367115Y-185653D01*
X-367118Y-185655D01*
X-367149Y-186046D01*
X-367147Y-186049D01*
X-367149Y-186050D01*
X-367118Y-192241D01*
X-367113Y-192248D01*
X-367117Y-192252D01*
X-367026Y-192634D01*
X-367021Y-192638D01*
X-367024Y-192642D01*
X-366874Y-193004D01*
X-366868Y-193007D01*
X-366870Y-193011D01*
X-366665Y-193345D01*
X-366660Y-193347D01*
X-366660Y-193351D01*
X-366405Y-193650D01*
X-366400Y-193651D01*
X-366400Y-193655D01*
X-366101Y-193910D01*
X-366095Y-193911D01*
X-366095Y-193915D01*
X-365761Y-194120D01*
X-365755Y-194119D01*
X-365754Y-194124D01*
X-365392Y-194274D01*
X-365386Y-194272D01*
X-365384Y-194276D01*
X-365002Y-194367D01*
X-364997Y-194365D01*
X-364995Y-194368D01*
X-364604Y-194399D01*
X-364601Y-194397D01*
X-364600Y-194399D01*
X-355400Y-194399D01*
X-355398Y-194397D01*
G37*
G36*
X-355398Y-176497D02*
X-355398Y-176497D01*
X-355396Y-176499D01*
X-355005Y-176468D01*
X-355001Y-176464D01*
X-354998Y-176467D01*
X-354616Y-176376D01*
X-354612Y-176371D01*
X-354608Y-176374D01*
X-354246Y-176224D01*
X-354243Y-176218D01*
X-354239Y-176220D01*
X-353905Y-176015D01*
X-353903Y-176010D01*
X-353899Y-176010D01*
X-353600Y-175755D01*
X-353599Y-175750D01*
X-353595Y-175750D01*
X-353340Y-175451D01*
X-353339Y-175445D01*
X-353335Y-175445D01*
X-353130Y-175111D01*
X-353131Y-175105D01*
X-353127Y-175104D01*
X-352977Y-174742D01*
X-352977Y-174740D01*
X-352976Y-174740D01*
X-352978Y-174737D01*
X-352978Y-174736D01*
X-352974Y-174734D01*
X-352883Y-174352D01*
X-352885Y-174347D01*
X-352883Y-174346D01*
X-352882Y-174345D01*
X-352851Y-173954D01*
X-352853Y-173951D01*
X-352851Y-173950D01*
X-352882Y-167759D01*
X-352887Y-167752D01*
X-352883Y-167748D01*
X-352974Y-167366D01*
X-352979Y-167362D01*
X-352977Y-167358D01*
X-353127Y-166996D01*
X-353132Y-166993D01*
X-353130Y-166989D01*
X-353335Y-166655D01*
X-353340Y-166653D01*
X-353340Y-166649D01*
X-353595Y-166350D01*
X-353600Y-166349D01*
X-353600Y-166345D01*
X-353899Y-166090D01*
X-353905Y-166089D01*
X-353905Y-166085D01*
X-354239Y-165880D01*
X-354245Y-165881D01*
X-354246Y-165877D01*
X-354608Y-165727D01*
X-354614Y-165728D01*
X-354616Y-165724D01*
X-354998Y-165633D01*
X-355003Y-165635D01*
X-355005Y-165632D01*
X-355396Y-165601D01*
X-355399Y-165603D01*
X-355400Y-165601D01*
X-364600Y-165601D01*
X-364602Y-165603D01*
X-364604Y-165601D01*
X-364995Y-165632D01*
X-364999Y-165636D01*
X-365002Y-165633D01*
X-365384Y-165724D01*
X-365388Y-165729D01*
X-365392Y-165727D01*
X-365754Y-165877D01*
X-365757Y-165882D01*
X-365761Y-165880D01*
X-366095Y-166085D01*
X-366097Y-166090D01*
X-366101Y-166090D01*
X-366400Y-166345D01*
X-366401Y-166350D01*
X-366405Y-166350D01*
X-366660Y-166649D01*
X-366661Y-166655D01*
X-366665Y-166655D01*
X-366870Y-166989D01*
X-366869Y-166995D01*
X-366874Y-166996D01*
X-367024Y-167358D01*
X-367022Y-167364D01*
X-367026Y-167366D01*
X-367117Y-167748D01*
X-367115Y-167753D01*
X-367118Y-167755D01*
X-367149Y-168146D01*
X-367147Y-168149D01*
X-367149Y-168150D01*
X-367118Y-174341D01*
X-367113Y-174348D01*
X-367117Y-174352D01*
X-367026Y-174734D01*
X-367021Y-174738D01*
X-367024Y-174742D01*
X-366874Y-175104D01*
X-366868Y-175107D01*
X-366870Y-175111D01*
X-366665Y-175445D01*
X-366660Y-175447D01*
X-366660Y-175451D01*
X-366405Y-175750D01*
X-366400Y-175751D01*
X-366400Y-175755D01*
X-366101Y-176010D01*
X-366095Y-176011D01*
X-366095Y-176015D01*
X-365761Y-176220D01*
X-365755Y-176219D01*
X-365754Y-176224D01*
X-365392Y-176374D01*
X-365386Y-176372D01*
X-365384Y-176376D01*
X-365002Y-176467D01*
X-364997Y-176465D01*
X-364995Y-176468D01*
X-364604Y-176499D01*
X-364601Y-176497D01*
X-364600Y-176499D01*
X-355400Y-176499D01*
X-355398Y-176497D01*
G37*
G36*
X74602Y143503D02*
X74602Y143503D01*
X74604Y143501D01*
X74995Y143532D01*
X74999Y143536D01*
X75002Y143533D01*
X75384Y143624D01*
X75388Y143629D01*
X75392Y143627D01*
X75754Y143777D01*
X75757Y143782D01*
X75761Y143780D01*
X76095Y143985D01*
X76097Y143990D01*
X76101Y143990D01*
X76400Y144245D01*
X76401Y144250D01*
X76405Y144250D01*
X76660Y144549D01*
X76661Y144555D01*
X76665Y144555D01*
X76870Y144889D01*
X76869Y144895D01*
X76874Y144896D01*
X77024Y145258D01*
X77023Y145260D01*
X77024Y145260D01*
X77022Y145263D01*
X77022Y145264D01*
X77026Y145266D01*
X77117Y145648D01*
X77115Y145653D01*
X77117Y145654D01*
X77118Y145655D01*
X77149Y146046D01*
X77147Y146049D01*
X77149Y146050D01*
X77118Y152241D01*
X77113Y152248D01*
X77117Y152252D01*
X77026Y152634D01*
X77021Y152638D01*
X77024Y152642D01*
X76874Y153004D01*
X76868Y153007D01*
X76870Y153011D01*
X76665Y153345D01*
X76660Y153347D01*
X76660Y153351D01*
X76405Y153650D01*
X76400Y153651D01*
X76400Y153655D01*
X76101Y153910D01*
X76095Y153911D01*
X76095Y153915D01*
X75761Y154120D01*
X75755Y154119D01*
X75754Y154124D01*
X75392Y154274D01*
X75386Y154272D01*
X75384Y154276D01*
X75002Y154367D01*
X74997Y154365D01*
X74995Y154368D01*
X74604Y154399D01*
X74601Y154397D01*
X74600Y154399D01*
X65400Y154399D01*
X65398Y154397D01*
X65396Y154399D01*
X65005Y154368D01*
X65001Y154364D01*
X64998Y154367D01*
X64616Y154276D01*
X64612Y154271D01*
X64608Y154274D01*
X64246Y154124D01*
X64243Y154118D01*
X64239Y154120D01*
X63905Y153915D01*
X63903Y153910D01*
X63899Y153910D01*
X63600Y153655D01*
X63599Y153650D01*
X63595Y153650D01*
X63340Y153351D01*
X63339Y153345D01*
X63335Y153345D01*
X63130Y153011D01*
X63131Y153005D01*
X63127Y153004D01*
X62977Y152642D01*
X62978Y152636D01*
X62974Y152634D01*
X62883Y152252D01*
X62885Y152247D01*
X62882Y152245D01*
X62851Y151854D01*
X62853Y151851D01*
X62851Y151850D01*
X62882Y145659D01*
X62887Y145652D01*
X62883Y145648D01*
X62974Y145266D01*
X62979Y145262D01*
X62977Y145258D01*
X63127Y144896D01*
X63132Y144893D01*
X63130Y144889D01*
X63335Y144555D01*
X63340Y144553D01*
X63340Y144549D01*
X63595Y144250D01*
X63600Y144249D01*
X63600Y144245D01*
X63899Y143990D01*
X63905Y143989D01*
X63905Y143985D01*
X64239Y143780D01*
X64245Y143781D01*
X64246Y143777D01*
X64608Y143627D01*
X64614Y143628D01*
X64616Y143624D01*
X64998Y143533D01*
X65003Y143535D01*
X65005Y143532D01*
X65396Y143501D01*
X65399Y143503D01*
X65400Y143501D01*
X74600Y143501D01*
X74602Y143503D01*
G37*
G36*
X-290398Y135603D02*
X-290398Y135603D01*
X-290396Y135601D01*
X-290005Y135632D01*
X-290001Y135636D01*
X-289998Y135633D01*
X-289616Y135724D01*
X-289612Y135729D01*
X-289608Y135727D01*
X-289246Y135877D01*
X-289243Y135882D01*
X-289239Y135880D01*
X-288905Y136085D01*
X-288903Y136090D01*
X-288899Y136090D01*
X-288600Y136345D01*
X-288599Y136350D01*
X-288595Y136350D01*
X-288340Y136649D01*
X-288339Y136655D01*
X-288335Y136655D01*
X-288130Y136989D01*
X-288131Y136995D01*
X-288127Y136996D01*
X-287977Y137358D01*
X-287977Y137360D01*
X-287976Y137360D01*
X-287978Y137363D01*
X-287978Y137364D01*
X-287974Y137366D01*
X-287883Y137748D01*
X-287885Y137753D01*
X-287883Y137754D01*
X-287882Y137755D01*
X-287851Y138146D01*
X-287853Y138149D01*
X-287851Y138150D01*
X-287882Y144341D01*
X-287887Y144348D01*
X-287883Y144352D01*
X-287974Y144734D01*
X-287979Y144738D01*
X-287977Y144742D01*
X-288127Y145104D01*
X-288132Y145107D01*
X-288130Y145111D01*
X-288335Y145445D01*
X-288340Y145447D01*
X-288340Y145451D01*
X-288595Y145750D01*
X-288600Y145751D01*
X-288600Y145755D01*
X-288899Y146010D01*
X-288905Y146011D01*
X-288905Y146015D01*
X-289239Y146220D01*
X-289245Y146219D01*
X-289246Y146224D01*
X-289608Y146374D01*
X-289614Y146372D01*
X-289616Y146376D01*
X-289998Y146467D01*
X-290003Y146465D01*
X-290005Y146468D01*
X-290396Y146499D01*
X-290399Y146497D01*
X-290400Y146499D01*
X-299600Y146499D01*
X-299602Y146497D01*
X-299604Y146499D01*
X-299995Y146468D01*
X-299999Y146464D01*
X-300002Y146467D01*
X-300384Y146376D01*
X-300388Y146371D01*
X-300392Y146374D01*
X-300754Y146224D01*
X-300757Y146218D01*
X-300761Y146220D01*
X-301095Y146015D01*
X-301097Y146010D01*
X-301101Y146010D01*
X-301400Y145755D01*
X-301401Y145750D01*
X-301405Y145750D01*
X-301660Y145451D01*
X-301661Y145445D01*
X-301665Y145445D01*
X-301870Y145111D01*
X-301869Y145105D01*
X-301874Y145104D01*
X-302024Y144742D01*
X-302022Y144736D01*
X-302026Y144734D01*
X-302117Y144352D01*
X-302115Y144347D01*
X-302118Y144345D01*
X-302149Y143954D01*
X-302147Y143951D01*
X-302149Y143950D01*
X-302118Y137759D01*
X-302113Y137752D01*
X-302117Y137748D01*
X-302026Y137366D01*
X-302021Y137362D01*
X-302024Y137358D01*
X-301874Y136996D01*
X-301868Y136993D01*
X-301870Y136989D01*
X-301665Y136655D01*
X-301660Y136653D01*
X-301660Y136649D01*
X-301405Y136350D01*
X-301400Y136349D01*
X-301400Y136345D01*
X-301101Y136090D01*
X-301095Y136089D01*
X-301095Y136085D01*
X-300761Y135880D01*
X-300755Y135881D01*
X-300754Y135877D01*
X-300392Y135727D01*
X-300386Y135728D01*
X-300384Y135724D01*
X-300002Y135633D01*
X-299997Y135635D01*
X-299995Y135632D01*
X-299604Y135601D01*
X-299601Y135603D01*
X-299600Y135601D01*
X-290400Y135601D01*
X-290398Y135603D01*
G37*
G36*
X274602Y20603D02*
X274602Y20603D01*
X274604Y20601D01*
X274995Y20632D01*
X274999Y20636D01*
X275002Y20633D01*
X275384Y20724D01*
X275388Y20729D01*
X275392Y20727D01*
X275754Y20877D01*
X275757Y20882D01*
X275761Y20880D01*
X276095Y21085D01*
X276097Y21090D01*
X276101Y21090D01*
X276400Y21345D01*
X276401Y21350D01*
X276405Y21350D01*
X276660Y21649D01*
X276661Y21655D01*
X276665Y21655D01*
X276870Y21989D01*
X276869Y21995D01*
X276874Y21996D01*
X277024Y22358D01*
X277023Y22360D01*
X277024Y22360D01*
X277022Y22363D01*
X277022Y22364D01*
X277026Y22366D01*
X277117Y22748D01*
X277115Y22753D01*
X277117Y22754D01*
X277118Y22755D01*
X277149Y23146D01*
X277147Y23149D01*
X277149Y23150D01*
X277118Y29341D01*
X277113Y29348D01*
X277117Y29352D01*
X277026Y29734D01*
X277021Y29738D01*
X277024Y29742D01*
X276874Y30104D01*
X276868Y30107D01*
X276870Y30111D01*
X276665Y30445D01*
X276660Y30447D01*
X276660Y30451D01*
X276405Y30750D01*
X276400Y30751D01*
X276400Y30755D01*
X276101Y31010D01*
X276095Y31011D01*
X276095Y31015D01*
X275761Y31220D01*
X275755Y31219D01*
X275754Y31224D01*
X275392Y31374D01*
X275386Y31372D01*
X275384Y31376D01*
X275002Y31467D01*
X274997Y31465D01*
X274995Y31468D01*
X274604Y31499D01*
X274601Y31497D01*
X274600Y31499D01*
X265400Y31499D01*
X265398Y31497D01*
X265396Y31499D01*
X265005Y31468D01*
X265001Y31464D01*
X264998Y31467D01*
X264616Y31376D01*
X264612Y31371D01*
X264608Y31374D01*
X264246Y31224D01*
X264243Y31218D01*
X264239Y31220D01*
X263905Y31015D01*
X263903Y31010D01*
X263899Y31010D01*
X263600Y30755D01*
X263599Y30750D01*
X263595Y30750D01*
X263340Y30451D01*
X263339Y30445D01*
X263335Y30445D01*
X263130Y30111D01*
X263131Y30105D01*
X263127Y30104D01*
X262977Y29742D01*
X262978Y29736D01*
X262974Y29734D01*
X262883Y29352D01*
X262885Y29347D01*
X262882Y29345D01*
X262851Y28954D01*
X262853Y28951D01*
X262851Y28950D01*
X262882Y22759D01*
X262887Y22752D01*
X262883Y22748D01*
X262974Y22366D01*
X262979Y22362D01*
X262977Y22358D01*
X263127Y21996D01*
X263132Y21993D01*
X263130Y21989D01*
X263335Y21655D01*
X263340Y21653D01*
X263340Y21649D01*
X263595Y21350D01*
X263600Y21349D01*
X263600Y21345D01*
X263899Y21090D01*
X263905Y21089D01*
X263905Y21085D01*
X264239Y20880D01*
X264245Y20881D01*
X264246Y20877D01*
X264608Y20727D01*
X264614Y20728D01*
X264616Y20724D01*
X264998Y20633D01*
X265003Y20635D01*
X265005Y20632D01*
X265396Y20601D01*
X265399Y20603D01*
X265400Y20601D01*
X274600Y20601D01*
X274602Y20603D01*
G37*
G36*
X74602Y125603D02*
X74602Y125603D01*
X74604Y125601D01*
X74995Y125632D01*
X74999Y125636D01*
X75002Y125633D01*
X75384Y125724D01*
X75388Y125729D01*
X75392Y125727D01*
X75754Y125877D01*
X75757Y125882D01*
X75761Y125880D01*
X76095Y126085D01*
X76097Y126090D01*
X76101Y126090D01*
X76400Y126345D01*
X76401Y126350D01*
X76405Y126350D01*
X76660Y126649D01*
X76661Y126655D01*
X76665Y126655D01*
X76870Y126989D01*
X76869Y126995D01*
X76874Y126996D01*
X77024Y127358D01*
X77023Y127360D01*
X77024Y127360D01*
X77022Y127363D01*
X77022Y127364D01*
X77026Y127366D01*
X77117Y127748D01*
X77115Y127753D01*
X77117Y127754D01*
X77118Y127755D01*
X77149Y128146D01*
X77147Y128149D01*
X77149Y128150D01*
X77118Y134341D01*
X77113Y134348D01*
X77117Y134352D01*
X77026Y134734D01*
X77021Y134738D01*
X77024Y134742D01*
X76874Y135104D01*
X76868Y135107D01*
X76870Y135111D01*
X76665Y135445D01*
X76660Y135447D01*
X76660Y135451D01*
X76405Y135750D01*
X76400Y135751D01*
X76400Y135755D01*
X76101Y136010D01*
X76095Y136011D01*
X76095Y136015D01*
X75761Y136220D01*
X75755Y136219D01*
X75754Y136224D01*
X75392Y136374D01*
X75386Y136372D01*
X75384Y136376D01*
X75002Y136467D01*
X74997Y136465D01*
X74995Y136468D01*
X74604Y136499D01*
X74601Y136497D01*
X74600Y136499D01*
X65400Y136499D01*
X65398Y136497D01*
X65396Y136499D01*
X65005Y136468D01*
X65001Y136464D01*
X64998Y136467D01*
X64616Y136376D01*
X64612Y136371D01*
X64608Y136374D01*
X64246Y136224D01*
X64243Y136218D01*
X64239Y136220D01*
X63905Y136015D01*
X63903Y136010D01*
X63899Y136010D01*
X63600Y135755D01*
X63599Y135750D01*
X63595Y135750D01*
X63340Y135451D01*
X63339Y135445D01*
X63335Y135445D01*
X63130Y135111D01*
X63131Y135105D01*
X63127Y135104D01*
X62977Y134742D01*
X62978Y134736D01*
X62974Y134734D01*
X62883Y134352D01*
X62885Y134347D01*
X62882Y134345D01*
X62851Y133954D01*
X62853Y133951D01*
X62851Y133950D01*
X62882Y127759D01*
X62887Y127752D01*
X62883Y127748D01*
X62974Y127366D01*
X62979Y127362D01*
X62977Y127358D01*
X63127Y126996D01*
X63132Y126993D01*
X63130Y126989D01*
X63335Y126655D01*
X63340Y126653D01*
X63340Y126649D01*
X63595Y126350D01*
X63600Y126349D01*
X63600Y126345D01*
X63899Y126090D01*
X63905Y126089D01*
X63905Y126085D01*
X64239Y125880D01*
X64245Y125881D01*
X64246Y125877D01*
X64608Y125727D01*
X64614Y125728D01*
X64616Y125724D01*
X64998Y125633D01*
X65003Y125635D01*
X65005Y125632D01*
X65396Y125601D01*
X65399Y125603D01*
X65400Y125601D01*
X74600Y125601D01*
X74602Y125603D01*
G37*
G36*
X309602Y20603D02*
X309602Y20603D01*
X309604Y20601D01*
X309995Y20632D01*
X309999Y20636D01*
X310002Y20633D01*
X310384Y20724D01*
X310388Y20729D01*
X310392Y20727D01*
X310754Y20877D01*
X310757Y20882D01*
X310761Y20880D01*
X311095Y21085D01*
X311097Y21090D01*
X311101Y21090D01*
X311400Y21345D01*
X311401Y21350D01*
X311405Y21350D01*
X311660Y21649D01*
X311661Y21655D01*
X311665Y21655D01*
X311870Y21989D01*
X311869Y21995D01*
X311874Y21996D01*
X312024Y22358D01*
X312023Y22360D01*
X312024Y22360D01*
X312022Y22363D01*
X312022Y22364D01*
X312026Y22366D01*
X312117Y22748D01*
X312115Y22753D01*
X312117Y22754D01*
X312118Y22755D01*
X312149Y23146D01*
X312147Y23149D01*
X312149Y23150D01*
X312118Y29341D01*
X312113Y29348D01*
X312117Y29352D01*
X312026Y29734D01*
X312021Y29738D01*
X312024Y29742D01*
X311874Y30104D01*
X311868Y30107D01*
X311870Y30111D01*
X311665Y30445D01*
X311660Y30447D01*
X311660Y30451D01*
X311405Y30750D01*
X311400Y30751D01*
X311400Y30755D01*
X311101Y31010D01*
X311095Y31011D01*
X311095Y31015D01*
X310761Y31220D01*
X310755Y31219D01*
X310754Y31224D01*
X310392Y31374D01*
X310386Y31372D01*
X310384Y31376D01*
X310002Y31467D01*
X309997Y31465D01*
X309995Y31468D01*
X309604Y31499D01*
X309601Y31497D01*
X309600Y31499D01*
X300400Y31499D01*
X300398Y31497D01*
X300396Y31499D01*
X300005Y31468D01*
X300001Y31464D01*
X299998Y31467D01*
X299616Y31376D01*
X299612Y31371D01*
X299608Y31374D01*
X299246Y31224D01*
X299243Y31218D01*
X299239Y31220D01*
X298905Y31015D01*
X298903Y31010D01*
X298899Y31010D01*
X298600Y30755D01*
X298599Y30750D01*
X298595Y30750D01*
X298340Y30451D01*
X298339Y30445D01*
X298335Y30445D01*
X298130Y30111D01*
X298131Y30105D01*
X298127Y30104D01*
X297977Y29742D01*
X297978Y29736D01*
X297974Y29734D01*
X297883Y29352D01*
X297885Y29347D01*
X297882Y29345D01*
X297851Y28954D01*
X297853Y28951D01*
X297851Y28950D01*
X297882Y22759D01*
X297887Y22752D01*
X297883Y22748D01*
X297974Y22366D01*
X297979Y22362D01*
X297977Y22358D01*
X298127Y21996D01*
X298132Y21993D01*
X298130Y21989D01*
X298335Y21655D01*
X298340Y21653D01*
X298340Y21649D01*
X298595Y21350D01*
X298600Y21349D01*
X298600Y21345D01*
X298899Y21090D01*
X298905Y21089D01*
X298905Y21085D01*
X299239Y20880D01*
X299245Y20881D01*
X299246Y20877D01*
X299608Y20727D01*
X299614Y20728D01*
X299616Y20724D01*
X299998Y20633D01*
X300003Y20635D01*
X300005Y20632D01*
X300396Y20601D01*
X300399Y20603D01*
X300400Y20601D01*
X309600Y20601D01*
X309602Y20603D01*
G37*
G36*
X74602Y93503D02*
X74602Y93503D01*
X74604Y93501D01*
X74995Y93532D01*
X74999Y93536D01*
X75002Y93533D01*
X75384Y93624D01*
X75388Y93629D01*
X75392Y93627D01*
X75754Y93777D01*
X75757Y93782D01*
X75761Y93780D01*
X76095Y93985D01*
X76097Y93990D01*
X76101Y93990D01*
X76400Y94245D01*
X76401Y94250D01*
X76405Y94250D01*
X76660Y94549D01*
X76661Y94555D01*
X76665Y94555D01*
X76870Y94889D01*
X76869Y94895D01*
X76874Y94896D01*
X77024Y95258D01*
X77023Y95260D01*
X77024Y95260D01*
X77022Y95263D01*
X77022Y95264D01*
X77026Y95266D01*
X77117Y95648D01*
X77115Y95653D01*
X77117Y95654D01*
X77118Y95655D01*
X77149Y96046D01*
X77147Y96049D01*
X77149Y96050D01*
X77118Y102241D01*
X77113Y102248D01*
X77117Y102252D01*
X77026Y102634D01*
X77021Y102638D01*
X77024Y102642D01*
X76874Y103004D01*
X76868Y103007D01*
X76870Y103011D01*
X76665Y103345D01*
X76660Y103347D01*
X76660Y103351D01*
X76405Y103650D01*
X76400Y103651D01*
X76400Y103655D01*
X76101Y103910D01*
X76095Y103911D01*
X76095Y103915D01*
X75761Y104120D01*
X75755Y104119D01*
X75754Y104124D01*
X75392Y104274D01*
X75386Y104272D01*
X75384Y104276D01*
X75002Y104367D01*
X74997Y104365D01*
X74995Y104368D01*
X74604Y104399D01*
X74601Y104397D01*
X74600Y104399D01*
X65400Y104399D01*
X65398Y104397D01*
X65396Y104399D01*
X65005Y104368D01*
X65001Y104364D01*
X64998Y104367D01*
X64616Y104276D01*
X64612Y104271D01*
X64608Y104274D01*
X64246Y104124D01*
X64243Y104118D01*
X64239Y104120D01*
X63905Y103915D01*
X63903Y103910D01*
X63899Y103910D01*
X63600Y103655D01*
X63599Y103650D01*
X63595Y103650D01*
X63340Y103351D01*
X63339Y103345D01*
X63335Y103345D01*
X63130Y103011D01*
X63131Y103005D01*
X63127Y103004D01*
X62977Y102642D01*
X62978Y102636D01*
X62974Y102634D01*
X62883Y102252D01*
X62885Y102247D01*
X62882Y102245D01*
X62851Y101854D01*
X62853Y101851D01*
X62851Y101850D01*
X62882Y95659D01*
X62887Y95652D01*
X62883Y95648D01*
X62974Y95266D01*
X62979Y95262D01*
X62977Y95258D01*
X63127Y94896D01*
X63132Y94893D01*
X63130Y94889D01*
X63335Y94555D01*
X63340Y94553D01*
X63340Y94549D01*
X63595Y94250D01*
X63600Y94249D01*
X63600Y94245D01*
X63899Y93990D01*
X63905Y93989D01*
X63905Y93985D01*
X64239Y93780D01*
X64245Y93781D01*
X64246Y93777D01*
X64608Y93627D01*
X64614Y93628D01*
X64616Y93624D01*
X64998Y93533D01*
X65003Y93535D01*
X65005Y93532D01*
X65396Y93501D01*
X65399Y93503D01*
X65400Y93501D01*
X74600Y93501D01*
X74602Y93503D01*
G37*
G36*
X214602Y83503D02*
X214602Y83503D01*
X214604Y83501D01*
X214995Y83532D01*
X214999Y83536D01*
X215002Y83533D01*
X215384Y83624D01*
X215388Y83629D01*
X215392Y83627D01*
X215754Y83777D01*
X215757Y83782D01*
X215761Y83780D01*
X216095Y83985D01*
X216097Y83990D01*
X216101Y83990D01*
X216400Y84245D01*
X216401Y84250D01*
X216405Y84250D01*
X216660Y84549D01*
X216661Y84555D01*
X216665Y84555D01*
X216870Y84889D01*
X216869Y84895D01*
X216874Y84896D01*
X217024Y85258D01*
X217023Y85260D01*
X217024Y85260D01*
X217022Y85263D01*
X217022Y85264D01*
X217026Y85266D01*
X217117Y85648D01*
X217115Y85653D01*
X217117Y85654D01*
X217118Y85655D01*
X217149Y86046D01*
X217147Y86049D01*
X217149Y86050D01*
X217118Y92241D01*
X217113Y92248D01*
X217117Y92252D01*
X217026Y92634D01*
X217021Y92638D01*
X217024Y92642D01*
X216874Y93004D01*
X216868Y93007D01*
X216870Y93011D01*
X216665Y93345D01*
X216660Y93347D01*
X216660Y93351D01*
X216405Y93650D01*
X216400Y93651D01*
X216400Y93655D01*
X216101Y93910D01*
X216095Y93911D01*
X216095Y93915D01*
X215761Y94120D01*
X215755Y94119D01*
X215754Y94124D01*
X215392Y94274D01*
X215386Y94272D01*
X215384Y94276D01*
X215002Y94367D01*
X214997Y94365D01*
X214995Y94368D01*
X214604Y94399D01*
X214601Y94397D01*
X214600Y94399D01*
X205400Y94399D01*
X205398Y94397D01*
X205396Y94399D01*
X205005Y94368D01*
X205001Y94364D01*
X204998Y94367D01*
X204616Y94276D01*
X204612Y94271D01*
X204608Y94274D01*
X204246Y94124D01*
X204243Y94118D01*
X204239Y94120D01*
X203905Y93915D01*
X203903Y93910D01*
X203899Y93910D01*
X203600Y93655D01*
X203599Y93650D01*
X203595Y93650D01*
X203340Y93351D01*
X203339Y93345D01*
X203335Y93345D01*
X203130Y93011D01*
X203131Y93005D01*
X203127Y93004D01*
X202977Y92642D01*
X202978Y92636D01*
X202974Y92634D01*
X202883Y92252D01*
X202885Y92247D01*
X202882Y92245D01*
X202851Y91854D01*
X202853Y91851D01*
X202851Y91850D01*
X202882Y85659D01*
X202887Y85652D01*
X202883Y85648D01*
X202974Y85266D01*
X202979Y85262D01*
X202977Y85258D01*
X203127Y84896D01*
X203132Y84893D01*
X203130Y84889D01*
X203335Y84555D01*
X203340Y84553D01*
X203340Y84549D01*
X203595Y84250D01*
X203600Y84249D01*
X203600Y84245D01*
X203899Y83990D01*
X203905Y83989D01*
X203905Y83985D01*
X204239Y83780D01*
X204245Y83781D01*
X204246Y83777D01*
X204608Y83627D01*
X204614Y83628D01*
X204616Y83624D01*
X204998Y83533D01*
X205003Y83535D01*
X205005Y83532D01*
X205396Y83501D01*
X205399Y83503D01*
X205400Y83501D01*
X214600Y83501D01*
X214602Y83503D01*
G37*
G36*
X74602Y75603D02*
X74602Y75603D01*
X74604Y75601D01*
X74995Y75632D01*
X74999Y75636D01*
X75002Y75633D01*
X75384Y75724D01*
X75388Y75729D01*
X75392Y75727D01*
X75754Y75877D01*
X75757Y75882D01*
X75761Y75880D01*
X76095Y76085D01*
X76097Y76090D01*
X76101Y76090D01*
X76400Y76345D01*
X76401Y76350D01*
X76405Y76350D01*
X76660Y76649D01*
X76661Y76655D01*
X76665Y76655D01*
X76870Y76989D01*
X76869Y76995D01*
X76874Y76996D01*
X77024Y77358D01*
X77023Y77360D01*
X77024Y77360D01*
X77022Y77363D01*
X77022Y77364D01*
X77026Y77366D01*
X77117Y77748D01*
X77115Y77753D01*
X77117Y77754D01*
X77118Y77755D01*
X77149Y78146D01*
X77147Y78149D01*
X77149Y78150D01*
X77118Y84341D01*
X77113Y84348D01*
X77117Y84352D01*
X77026Y84734D01*
X77021Y84738D01*
X77024Y84742D01*
X76874Y85104D01*
X76868Y85107D01*
X76870Y85111D01*
X76665Y85445D01*
X76660Y85447D01*
X76660Y85451D01*
X76405Y85750D01*
X76400Y85751D01*
X76400Y85755D01*
X76101Y86010D01*
X76095Y86011D01*
X76095Y86015D01*
X75761Y86220D01*
X75755Y86219D01*
X75754Y86224D01*
X75392Y86374D01*
X75386Y86372D01*
X75384Y86376D01*
X75002Y86467D01*
X74997Y86465D01*
X74995Y86468D01*
X74604Y86499D01*
X74601Y86497D01*
X74600Y86499D01*
X65400Y86499D01*
X65398Y86497D01*
X65396Y86499D01*
X65005Y86468D01*
X65001Y86464D01*
X64998Y86467D01*
X64616Y86376D01*
X64612Y86371D01*
X64608Y86374D01*
X64246Y86224D01*
X64243Y86218D01*
X64239Y86220D01*
X63905Y86015D01*
X63903Y86010D01*
X63899Y86010D01*
X63600Y85755D01*
X63599Y85750D01*
X63595Y85750D01*
X63340Y85451D01*
X63339Y85445D01*
X63335Y85445D01*
X63130Y85111D01*
X63131Y85105D01*
X63127Y85104D01*
X62977Y84742D01*
X62978Y84736D01*
X62974Y84734D01*
X62883Y84352D01*
X62885Y84347D01*
X62882Y84345D01*
X62851Y83954D01*
X62853Y83951D01*
X62851Y83950D01*
X62882Y77759D01*
X62887Y77752D01*
X62883Y77748D01*
X62974Y77366D01*
X62979Y77362D01*
X62977Y77358D01*
X63127Y76996D01*
X63132Y76993D01*
X63130Y76989D01*
X63335Y76655D01*
X63340Y76653D01*
X63340Y76649D01*
X63595Y76350D01*
X63600Y76349D01*
X63600Y76345D01*
X63899Y76090D01*
X63905Y76089D01*
X63905Y76085D01*
X64239Y75880D01*
X64245Y75881D01*
X64246Y75877D01*
X64608Y75727D01*
X64614Y75728D01*
X64616Y75724D01*
X64998Y75633D01*
X65003Y75635D01*
X65005Y75632D01*
X65396Y75601D01*
X65399Y75603D01*
X65400Y75601D01*
X74600Y75601D01*
X74602Y75603D01*
G37*
G36*
X74602Y25603D02*
X74602Y25603D01*
X74604Y25601D01*
X74995Y25632D01*
X74999Y25636D01*
X75002Y25633D01*
X75384Y25724D01*
X75388Y25729D01*
X75392Y25727D01*
X75754Y25877D01*
X75757Y25882D01*
X75761Y25880D01*
X76095Y26085D01*
X76097Y26090D01*
X76101Y26090D01*
X76400Y26345D01*
X76401Y26350D01*
X76405Y26350D01*
X76660Y26649D01*
X76661Y26655D01*
X76665Y26655D01*
X76870Y26989D01*
X76869Y26995D01*
X76874Y26996D01*
X77024Y27358D01*
X77023Y27360D01*
X77024Y27360D01*
X77022Y27363D01*
X77022Y27364D01*
X77026Y27366D01*
X77117Y27748D01*
X77115Y27753D01*
X77117Y27754D01*
X77118Y27755D01*
X77149Y28146D01*
X77147Y28149D01*
X77149Y28150D01*
X77118Y34341D01*
X77113Y34348D01*
X77117Y34352D01*
X77026Y34734D01*
X77021Y34738D01*
X77024Y34742D01*
X76874Y35104D01*
X76868Y35107D01*
X76870Y35111D01*
X76665Y35445D01*
X76660Y35447D01*
X76660Y35451D01*
X76405Y35750D01*
X76400Y35751D01*
X76400Y35755D01*
X76101Y36010D01*
X76095Y36011D01*
X76095Y36015D01*
X75761Y36220D01*
X75755Y36219D01*
X75754Y36224D01*
X75392Y36374D01*
X75386Y36372D01*
X75384Y36376D01*
X75002Y36467D01*
X74997Y36465D01*
X74995Y36468D01*
X74604Y36499D01*
X74601Y36497D01*
X74600Y36499D01*
X65400Y36499D01*
X65398Y36497D01*
X65396Y36499D01*
X65005Y36468D01*
X65001Y36464D01*
X64998Y36467D01*
X64616Y36376D01*
X64612Y36371D01*
X64608Y36374D01*
X64246Y36224D01*
X64243Y36218D01*
X64239Y36220D01*
X63905Y36015D01*
X63903Y36010D01*
X63899Y36010D01*
X63600Y35755D01*
X63599Y35750D01*
X63595Y35750D01*
X63340Y35451D01*
X63339Y35445D01*
X63335Y35445D01*
X63130Y35111D01*
X63131Y35105D01*
X63127Y35104D01*
X62977Y34742D01*
X62978Y34736D01*
X62974Y34734D01*
X62883Y34352D01*
X62885Y34347D01*
X62882Y34345D01*
X62851Y33954D01*
X62853Y33951D01*
X62851Y33950D01*
X62882Y27759D01*
X62887Y27752D01*
X62883Y27748D01*
X62974Y27366D01*
X62979Y27362D01*
X62977Y27358D01*
X63127Y26996D01*
X63132Y26993D01*
X63130Y26989D01*
X63335Y26655D01*
X63340Y26653D01*
X63340Y26649D01*
X63595Y26350D01*
X63600Y26349D01*
X63600Y26345D01*
X63899Y26090D01*
X63905Y26089D01*
X63905Y26085D01*
X64239Y25880D01*
X64245Y25881D01*
X64246Y25877D01*
X64608Y25727D01*
X64614Y25728D01*
X64616Y25724D01*
X64998Y25633D01*
X65003Y25635D01*
X65005Y25632D01*
X65396Y25601D01*
X65399Y25603D01*
X65400Y25601D01*
X74600Y25601D01*
X74602Y25603D01*
G37*
G36*
X214602Y65603D02*
X214602Y65603D01*
X214604Y65601D01*
X214995Y65632D01*
X214999Y65636D01*
X215002Y65633D01*
X215384Y65724D01*
X215388Y65729D01*
X215392Y65727D01*
X215754Y65877D01*
X215757Y65882D01*
X215761Y65880D01*
X216095Y66085D01*
X216097Y66090D01*
X216101Y66090D01*
X216400Y66345D01*
X216401Y66350D01*
X216405Y66350D01*
X216660Y66649D01*
X216661Y66655D01*
X216665Y66655D01*
X216870Y66989D01*
X216869Y66995D01*
X216874Y66996D01*
X217024Y67358D01*
X217023Y67360D01*
X217024Y67360D01*
X217022Y67363D01*
X217022Y67364D01*
X217026Y67366D01*
X217117Y67748D01*
X217115Y67753D01*
X217117Y67754D01*
X217118Y67755D01*
X217149Y68146D01*
X217147Y68149D01*
X217149Y68150D01*
X217118Y74341D01*
X217113Y74348D01*
X217117Y74352D01*
X217026Y74734D01*
X217021Y74738D01*
X217024Y74742D01*
X216874Y75104D01*
X216868Y75107D01*
X216870Y75111D01*
X216665Y75445D01*
X216660Y75447D01*
X216660Y75451D01*
X216405Y75750D01*
X216400Y75751D01*
X216400Y75755D01*
X216101Y76010D01*
X216095Y76011D01*
X216095Y76015D01*
X215761Y76220D01*
X215755Y76219D01*
X215754Y76224D01*
X215392Y76374D01*
X215386Y76372D01*
X215384Y76376D01*
X215002Y76467D01*
X214997Y76465D01*
X214995Y76468D01*
X214604Y76499D01*
X214601Y76497D01*
X214600Y76499D01*
X205400Y76499D01*
X205398Y76497D01*
X205396Y76499D01*
X205005Y76468D01*
X205001Y76464D01*
X204998Y76467D01*
X204616Y76376D01*
X204612Y76371D01*
X204608Y76374D01*
X204246Y76224D01*
X204243Y76218D01*
X204239Y76220D01*
X203905Y76015D01*
X203903Y76010D01*
X203899Y76010D01*
X203600Y75755D01*
X203599Y75750D01*
X203595Y75750D01*
X203340Y75451D01*
X203339Y75445D01*
X203335Y75445D01*
X203130Y75111D01*
X203131Y75105D01*
X203127Y75104D01*
X202977Y74742D01*
X202978Y74736D01*
X202974Y74734D01*
X202883Y74352D01*
X202885Y74347D01*
X202882Y74345D01*
X202851Y73954D01*
X202853Y73951D01*
X202851Y73950D01*
X202882Y67759D01*
X202887Y67752D01*
X202883Y67748D01*
X202974Y67366D01*
X202979Y67362D01*
X202977Y67358D01*
X203127Y66996D01*
X203132Y66993D01*
X203130Y66989D01*
X203335Y66655D01*
X203340Y66653D01*
X203340Y66649D01*
X203595Y66350D01*
X203600Y66349D01*
X203600Y66345D01*
X203899Y66090D01*
X203905Y66089D01*
X203905Y66085D01*
X204239Y65880D01*
X204245Y65881D01*
X204246Y65877D01*
X204608Y65727D01*
X204614Y65728D01*
X204616Y65724D01*
X204998Y65633D01*
X205003Y65635D01*
X205005Y65632D01*
X205396Y65601D01*
X205399Y65603D01*
X205400Y65601D01*
X214600Y65601D01*
X214602Y65603D01*
G37*
G36*
X-290398Y53503D02*
X-290398Y53503D01*
X-290396Y53501D01*
X-290005Y53532D01*
X-290001Y53536D01*
X-289998Y53533D01*
X-289616Y53624D01*
X-289612Y53629D01*
X-289608Y53627D01*
X-289246Y53777D01*
X-289243Y53782D01*
X-289239Y53780D01*
X-288905Y53985D01*
X-288903Y53990D01*
X-288899Y53990D01*
X-288600Y54245D01*
X-288599Y54250D01*
X-288595Y54250D01*
X-288340Y54549D01*
X-288339Y54555D01*
X-288335Y54555D01*
X-288130Y54889D01*
X-288131Y54895D01*
X-288127Y54896D01*
X-287977Y55258D01*
X-287977Y55260D01*
X-287976Y55260D01*
X-287978Y55263D01*
X-287978Y55264D01*
X-287974Y55266D01*
X-287883Y55648D01*
X-287885Y55653D01*
X-287883Y55654D01*
X-287882Y55655D01*
X-287851Y56046D01*
X-287853Y56049D01*
X-287851Y56050D01*
X-287882Y62241D01*
X-287887Y62248D01*
X-287883Y62252D01*
X-287974Y62634D01*
X-287979Y62638D01*
X-287977Y62642D01*
X-288127Y63004D01*
X-288132Y63007D01*
X-288130Y63011D01*
X-288335Y63345D01*
X-288340Y63347D01*
X-288340Y63351D01*
X-288595Y63650D01*
X-288600Y63651D01*
X-288600Y63655D01*
X-288899Y63910D01*
X-288905Y63911D01*
X-288905Y63915D01*
X-289239Y64120D01*
X-289245Y64119D01*
X-289246Y64124D01*
X-289608Y64274D01*
X-289614Y64272D01*
X-289616Y64276D01*
X-289998Y64367D01*
X-290003Y64365D01*
X-290005Y64368D01*
X-290396Y64399D01*
X-290399Y64397D01*
X-290400Y64399D01*
X-299600Y64399D01*
X-299602Y64397D01*
X-299604Y64399D01*
X-299995Y64368D01*
X-299999Y64364D01*
X-300002Y64367D01*
X-300384Y64276D01*
X-300388Y64271D01*
X-300392Y64274D01*
X-300754Y64124D01*
X-300757Y64118D01*
X-300761Y64120D01*
X-301095Y63915D01*
X-301097Y63910D01*
X-301101Y63910D01*
X-301400Y63655D01*
X-301401Y63650D01*
X-301405Y63650D01*
X-301660Y63351D01*
X-301661Y63345D01*
X-301665Y63345D01*
X-301870Y63011D01*
X-301869Y63005D01*
X-301874Y63004D01*
X-302024Y62642D01*
X-302022Y62636D01*
X-302026Y62634D01*
X-302117Y62252D01*
X-302115Y62247D01*
X-302118Y62245D01*
X-302149Y61854D01*
X-302147Y61851D01*
X-302149Y61850D01*
X-302118Y55659D01*
X-302113Y55652D01*
X-302117Y55648D01*
X-302026Y55266D01*
X-302021Y55262D01*
X-302024Y55258D01*
X-301874Y54896D01*
X-301868Y54893D01*
X-301870Y54889D01*
X-301665Y54555D01*
X-301660Y54553D01*
X-301660Y54549D01*
X-301405Y54250D01*
X-301400Y54249D01*
X-301400Y54245D01*
X-301101Y53990D01*
X-301095Y53989D01*
X-301095Y53985D01*
X-300761Y53780D01*
X-300755Y53781D01*
X-300754Y53777D01*
X-300392Y53627D01*
X-300386Y53628D01*
X-300384Y53624D01*
X-300002Y53533D01*
X-299997Y53535D01*
X-299995Y53532D01*
X-299604Y53501D01*
X-299601Y53503D01*
X-299600Y53501D01*
X-290400Y53501D01*
X-290398Y53503D01*
G37*
G36*
X74602Y43503D02*
X74602Y43503D01*
X74604Y43501D01*
X74995Y43532D01*
X74999Y43536D01*
X75002Y43533D01*
X75384Y43624D01*
X75388Y43629D01*
X75392Y43627D01*
X75754Y43777D01*
X75757Y43782D01*
X75761Y43780D01*
X76095Y43985D01*
X76097Y43990D01*
X76101Y43990D01*
X76400Y44245D01*
X76401Y44250D01*
X76405Y44250D01*
X76660Y44549D01*
X76661Y44555D01*
X76665Y44555D01*
X76870Y44889D01*
X76869Y44895D01*
X76874Y44896D01*
X77024Y45258D01*
X77023Y45260D01*
X77024Y45260D01*
X77022Y45263D01*
X77022Y45264D01*
X77026Y45266D01*
X77117Y45648D01*
X77115Y45653D01*
X77117Y45654D01*
X77118Y45655D01*
X77149Y46046D01*
X77147Y46049D01*
X77149Y46050D01*
X77118Y52241D01*
X77113Y52248D01*
X77117Y52252D01*
X77026Y52634D01*
X77021Y52638D01*
X77024Y52642D01*
X76874Y53004D01*
X76868Y53007D01*
X76870Y53011D01*
X76665Y53345D01*
X76660Y53347D01*
X76660Y53351D01*
X76405Y53650D01*
X76400Y53651D01*
X76400Y53655D01*
X76101Y53910D01*
X76095Y53911D01*
X76095Y53915D01*
X75761Y54120D01*
X75755Y54119D01*
X75754Y54124D01*
X75392Y54274D01*
X75386Y54272D01*
X75384Y54276D01*
X75002Y54367D01*
X74997Y54365D01*
X74995Y54368D01*
X74604Y54399D01*
X74601Y54397D01*
X74600Y54399D01*
X65400Y54399D01*
X65398Y54397D01*
X65396Y54399D01*
X65005Y54368D01*
X65001Y54364D01*
X64998Y54367D01*
X64616Y54276D01*
X64612Y54271D01*
X64608Y54274D01*
X64246Y54124D01*
X64243Y54118D01*
X64239Y54120D01*
X63905Y53915D01*
X63903Y53910D01*
X63899Y53910D01*
X63600Y53655D01*
X63599Y53650D01*
X63595Y53650D01*
X63340Y53351D01*
X63339Y53345D01*
X63335Y53345D01*
X63130Y53011D01*
X63131Y53005D01*
X63127Y53004D01*
X62977Y52642D01*
X62978Y52636D01*
X62974Y52634D01*
X62883Y52252D01*
X62885Y52247D01*
X62882Y52245D01*
X62851Y51854D01*
X62853Y51851D01*
X62851Y51850D01*
X62882Y45659D01*
X62887Y45652D01*
X62883Y45648D01*
X62974Y45266D01*
X62979Y45262D01*
X62977Y45258D01*
X63127Y44896D01*
X63132Y44893D01*
X63130Y44889D01*
X63335Y44555D01*
X63340Y44553D01*
X63340Y44549D01*
X63595Y44250D01*
X63600Y44249D01*
X63600Y44245D01*
X63899Y43990D01*
X63905Y43989D01*
X63905Y43985D01*
X64239Y43780D01*
X64245Y43781D01*
X64246Y43777D01*
X64608Y43627D01*
X64614Y43628D01*
X64616Y43624D01*
X64998Y43533D01*
X65003Y43535D01*
X65005Y43532D01*
X65396Y43501D01*
X65399Y43503D01*
X65400Y43501D01*
X74600Y43501D01*
X74602Y43503D01*
G37*
G36*
X-290398Y35603D02*
X-290398Y35603D01*
X-290396Y35601D01*
X-290005Y35632D01*
X-290001Y35636D01*
X-289998Y35633D01*
X-289616Y35724D01*
X-289612Y35729D01*
X-289608Y35727D01*
X-289246Y35877D01*
X-289243Y35882D01*
X-289239Y35880D01*
X-288905Y36085D01*
X-288903Y36090D01*
X-288899Y36090D01*
X-288600Y36345D01*
X-288599Y36350D01*
X-288595Y36350D01*
X-288340Y36649D01*
X-288339Y36655D01*
X-288335Y36655D01*
X-288130Y36989D01*
X-288131Y36995D01*
X-288127Y36996D01*
X-287977Y37358D01*
X-287977Y37360D01*
X-287976Y37360D01*
X-287978Y37363D01*
X-287978Y37364D01*
X-287974Y37366D01*
X-287883Y37748D01*
X-287885Y37753D01*
X-287883Y37754D01*
X-287882Y37755D01*
X-287851Y38146D01*
X-287853Y38149D01*
X-287851Y38150D01*
X-287882Y44341D01*
X-287887Y44348D01*
X-287883Y44352D01*
X-287974Y44734D01*
X-287979Y44738D01*
X-287977Y44742D01*
X-288127Y45104D01*
X-288132Y45107D01*
X-288130Y45111D01*
X-288335Y45445D01*
X-288340Y45447D01*
X-288340Y45451D01*
X-288595Y45750D01*
X-288600Y45751D01*
X-288600Y45755D01*
X-288899Y46010D01*
X-288905Y46011D01*
X-288905Y46015D01*
X-289239Y46220D01*
X-289245Y46219D01*
X-289246Y46224D01*
X-289608Y46374D01*
X-289614Y46372D01*
X-289616Y46376D01*
X-289998Y46467D01*
X-290003Y46465D01*
X-290005Y46468D01*
X-290396Y46499D01*
X-290399Y46497D01*
X-290400Y46499D01*
X-299600Y46499D01*
X-299602Y46497D01*
X-299604Y46499D01*
X-299995Y46468D01*
X-299999Y46464D01*
X-300002Y46467D01*
X-300384Y46376D01*
X-300388Y46371D01*
X-300392Y46374D01*
X-300754Y46224D01*
X-300757Y46218D01*
X-300761Y46220D01*
X-301095Y46015D01*
X-301097Y46010D01*
X-301101Y46010D01*
X-301400Y45755D01*
X-301401Y45750D01*
X-301405Y45750D01*
X-301660Y45451D01*
X-301661Y45445D01*
X-301665Y45445D01*
X-301870Y45111D01*
X-301869Y45105D01*
X-301874Y45104D01*
X-302024Y44742D01*
X-302022Y44736D01*
X-302026Y44734D01*
X-302117Y44352D01*
X-302115Y44347D01*
X-302118Y44345D01*
X-302149Y43954D01*
X-302147Y43951D01*
X-302149Y43950D01*
X-302118Y37759D01*
X-302113Y37752D01*
X-302117Y37748D01*
X-302026Y37366D01*
X-302021Y37362D01*
X-302024Y37358D01*
X-301874Y36996D01*
X-301868Y36993D01*
X-301870Y36989D01*
X-301665Y36655D01*
X-301660Y36653D01*
X-301660Y36649D01*
X-301405Y36350D01*
X-301400Y36349D01*
X-301400Y36345D01*
X-301101Y36090D01*
X-301095Y36089D01*
X-301095Y36085D01*
X-300761Y35880D01*
X-300755Y35881D01*
X-300754Y35877D01*
X-300392Y35727D01*
X-300386Y35728D01*
X-300384Y35724D01*
X-300002Y35633D01*
X-299997Y35635D01*
X-299995Y35632D01*
X-299604Y35601D01*
X-299601Y35603D01*
X-299600Y35601D01*
X-290400Y35601D01*
X-290398Y35603D01*
G37*
G36*
X309602Y38503D02*
X309602Y38503D01*
X309604Y38501D01*
X309995Y38532D01*
X309999Y38536D01*
X310002Y38533D01*
X310384Y38624D01*
X310388Y38629D01*
X310392Y38627D01*
X310754Y38777D01*
X310757Y38782D01*
X310761Y38780D01*
X311095Y38985D01*
X311097Y38990D01*
X311101Y38990D01*
X311400Y39245D01*
X311401Y39250D01*
X311405Y39250D01*
X311660Y39549D01*
X311661Y39555D01*
X311665Y39555D01*
X311870Y39889D01*
X311869Y39895D01*
X311874Y39896D01*
X312024Y40258D01*
X312023Y40260D01*
X312024Y40260D01*
X312022Y40263D01*
X312022Y40264D01*
X312026Y40266D01*
X312117Y40648D01*
X312115Y40653D01*
X312117Y40654D01*
X312118Y40655D01*
X312149Y41046D01*
X312147Y41049D01*
X312149Y41050D01*
X312118Y47241D01*
X312113Y47248D01*
X312117Y47252D01*
X312026Y47634D01*
X312021Y47638D01*
X312024Y47642D01*
X311874Y48004D01*
X311868Y48007D01*
X311870Y48011D01*
X311665Y48345D01*
X311660Y48347D01*
X311660Y48351D01*
X311405Y48650D01*
X311400Y48651D01*
X311400Y48655D01*
X311101Y48910D01*
X311095Y48911D01*
X311095Y48915D01*
X310761Y49120D01*
X310755Y49119D01*
X310754Y49124D01*
X310392Y49274D01*
X310386Y49272D01*
X310384Y49276D01*
X310002Y49367D01*
X309997Y49365D01*
X309995Y49368D01*
X309604Y49399D01*
X309601Y49397D01*
X309600Y49399D01*
X300400Y49399D01*
X300398Y49397D01*
X300396Y49399D01*
X300005Y49368D01*
X300001Y49364D01*
X299998Y49367D01*
X299616Y49276D01*
X299612Y49271D01*
X299608Y49274D01*
X299246Y49124D01*
X299243Y49118D01*
X299239Y49120D01*
X298905Y48915D01*
X298903Y48910D01*
X298899Y48910D01*
X298600Y48655D01*
X298599Y48650D01*
X298595Y48650D01*
X298340Y48351D01*
X298339Y48345D01*
X298335Y48345D01*
X298130Y48011D01*
X298131Y48005D01*
X298127Y48004D01*
X297977Y47642D01*
X297978Y47636D01*
X297974Y47634D01*
X297883Y47252D01*
X297885Y47247D01*
X297882Y47245D01*
X297851Y46854D01*
X297853Y46851D01*
X297851Y46850D01*
X297882Y40659D01*
X297887Y40652D01*
X297883Y40648D01*
X297974Y40266D01*
X297979Y40262D01*
X297977Y40258D01*
X298127Y39896D01*
X298132Y39893D01*
X298130Y39889D01*
X298335Y39555D01*
X298340Y39553D01*
X298340Y39549D01*
X298595Y39250D01*
X298600Y39249D01*
X298600Y39245D01*
X298899Y38990D01*
X298905Y38989D01*
X298905Y38985D01*
X299239Y38780D01*
X299245Y38781D01*
X299246Y38777D01*
X299608Y38627D01*
X299614Y38628D01*
X299616Y38624D01*
X299998Y38533D01*
X300003Y38535D01*
X300005Y38532D01*
X300396Y38501D01*
X300399Y38503D01*
X300400Y38501D01*
X309600Y38501D01*
X309602Y38503D01*
G37*
G36*
X274602Y38503D02*
X274602Y38503D01*
X274604Y38501D01*
X274995Y38532D01*
X274999Y38536D01*
X275002Y38533D01*
X275384Y38624D01*
X275388Y38629D01*
X275392Y38627D01*
X275754Y38777D01*
X275757Y38782D01*
X275761Y38780D01*
X276095Y38985D01*
X276097Y38990D01*
X276101Y38990D01*
X276400Y39245D01*
X276401Y39250D01*
X276405Y39250D01*
X276660Y39549D01*
X276661Y39555D01*
X276665Y39555D01*
X276870Y39889D01*
X276869Y39895D01*
X276874Y39896D01*
X277024Y40258D01*
X277023Y40260D01*
X277024Y40260D01*
X277022Y40263D01*
X277022Y40264D01*
X277026Y40266D01*
X277117Y40648D01*
X277115Y40653D01*
X277117Y40654D01*
X277118Y40655D01*
X277149Y41046D01*
X277147Y41049D01*
X277149Y41050D01*
X277118Y47241D01*
X277113Y47248D01*
X277117Y47252D01*
X277026Y47634D01*
X277021Y47638D01*
X277024Y47642D01*
X276874Y48004D01*
X276868Y48007D01*
X276870Y48011D01*
X276665Y48345D01*
X276660Y48347D01*
X276660Y48351D01*
X276405Y48650D01*
X276400Y48651D01*
X276400Y48655D01*
X276101Y48910D01*
X276095Y48911D01*
X276095Y48915D01*
X275761Y49120D01*
X275755Y49119D01*
X275754Y49124D01*
X275392Y49274D01*
X275386Y49272D01*
X275384Y49276D01*
X275002Y49367D01*
X274997Y49365D01*
X274995Y49368D01*
X274604Y49399D01*
X274601Y49397D01*
X274600Y49399D01*
X265400Y49399D01*
X265398Y49397D01*
X265396Y49399D01*
X265005Y49368D01*
X265001Y49364D01*
X264998Y49367D01*
X264616Y49276D01*
X264612Y49271D01*
X264608Y49274D01*
X264246Y49124D01*
X264243Y49118D01*
X264239Y49120D01*
X263905Y48915D01*
X263903Y48910D01*
X263899Y48910D01*
X263600Y48655D01*
X263599Y48650D01*
X263595Y48650D01*
X263340Y48351D01*
X263339Y48345D01*
X263335Y48345D01*
X263130Y48011D01*
X263131Y48005D01*
X263127Y48004D01*
X262977Y47642D01*
X262978Y47636D01*
X262974Y47634D01*
X262883Y47252D01*
X262885Y47247D01*
X262882Y47245D01*
X262851Y46854D01*
X262853Y46851D01*
X262851Y46850D01*
X262882Y40659D01*
X262887Y40652D01*
X262883Y40648D01*
X262974Y40266D01*
X262979Y40262D01*
X262977Y40258D01*
X263127Y39896D01*
X263132Y39893D01*
X263130Y39889D01*
X263335Y39555D01*
X263340Y39553D01*
X263340Y39549D01*
X263595Y39250D01*
X263600Y39249D01*
X263600Y39245D01*
X263899Y38990D01*
X263905Y38989D01*
X263905Y38985D01*
X264239Y38780D01*
X264245Y38781D01*
X264246Y38777D01*
X264608Y38627D01*
X264614Y38628D01*
X264616Y38624D01*
X264998Y38533D01*
X265003Y38535D01*
X265005Y38532D01*
X265396Y38501D01*
X265399Y38503D01*
X265400Y38501D01*
X274600Y38501D01*
X274602Y38503D01*
G37*
G36*
X-195398Y-194197D02*
X-195398Y-194197D01*
X-195396Y-194199D01*
X-195036Y-194171D01*
X-195032Y-194167D01*
X-195028Y-194170D01*
X-194677Y-194085D01*
X-194674Y-194080D01*
X-194670Y-194083D01*
X-194337Y-193945D01*
X-194334Y-193940D01*
X-194330Y-193941D01*
X-194022Y-193753D01*
X-194020Y-193747D01*
X-194016Y-193748D01*
X-193742Y-193513D01*
X-193741Y-193508D01*
X-193737Y-193508D01*
X-193502Y-193234D01*
X-193501Y-193228D01*
X-193497Y-193228D01*
X-193309Y-192920D01*
X-193310Y-192914D01*
X-193306Y-192913D01*
X-193168Y-192580D01*
X-193169Y-192574D01*
X-193165Y-192573D01*
X-193080Y-192222D01*
X-193083Y-192216D01*
X-193079Y-192214D01*
X-193051Y-191854D01*
X-193053Y-191851D01*
X-193051Y-191850D01*
X-193079Y-186890D01*
X-193084Y-186883D01*
X-193080Y-186878D01*
X-193165Y-186527D01*
X-193170Y-186524D01*
X-193168Y-186520D01*
X-193306Y-186187D01*
X-193311Y-186184D01*
X-193309Y-186180D01*
X-193497Y-185872D01*
X-193503Y-185870D01*
X-193502Y-185866D01*
X-193737Y-185592D01*
X-193742Y-185591D01*
X-193742Y-185587D01*
X-194016Y-185352D01*
X-194022Y-185351D01*
X-194022Y-185347D01*
X-194330Y-185159D01*
X-194336Y-185160D01*
X-194337Y-185156D01*
X-194670Y-185018D01*
X-194676Y-185019D01*
X-194677Y-185015D01*
X-195028Y-184930D01*
X-195034Y-184933D01*
X-195036Y-184929D01*
X-195396Y-184901D01*
X-195399Y-184903D01*
X-195400Y-184901D01*
X-204600Y-184901D01*
X-204602Y-184903D01*
X-204604Y-184901D01*
X-204964Y-184929D01*
X-204968Y-184933D01*
X-204972Y-184930D01*
X-205323Y-185015D01*
X-205326Y-185020D01*
X-205330Y-185018D01*
X-205663Y-185156D01*
X-205666Y-185161D01*
X-205670Y-185159D01*
X-205978Y-185347D01*
X-205980Y-185353D01*
X-205984Y-185352D01*
X-206258Y-185587D01*
X-206259Y-185592D01*
X-206263Y-185592D01*
X-206498Y-185866D01*
X-206499Y-185872D01*
X-206503Y-185872D01*
X-206691Y-186180D01*
X-206690Y-186186D01*
X-206695Y-186187D01*
X-206833Y-186520D01*
X-206831Y-186526D01*
X-206835Y-186527D01*
X-206920Y-186878D01*
X-206918Y-186884D01*
X-206921Y-186886D01*
X-206949Y-187246D01*
X-206947Y-187249D01*
X-206949Y-187250D01*
X-206921Y-192210D01*
X-206916Y-192217D01*
X-206920Y-192222D01*
X-206835Y-192573D01*
X-206830Y-192576D01*
X-206833Y-192580D01*
X-206695Y-192913D01*
X-206690Y-192916D01*
X-206691Y-192920D01*
X-206503Y-193228D01*
X-206497Y-193230D01*
X-206498Y-193234D01*
X-206263Y-193508D01*
X-206258Y-193509D01*
X-206258Y-193513D01*
X-205984Y-193748D01*
X-205978Y-193749D01*
X-205978Y-193753D01*
X-205670Y-193941D01*
X-205664Y-193940D01*
X-205663Y-193945D01*
X-205330Y-194083D01*
X-205324Y-194081D01*
X-205323Y-194085D01*
X-204972Y-194170D01*
X-204966Y-194168D01*
X-204964Y-194171D01*
X-204604Y-194199D01*
X-204601Y-194198D01*
X-204600Y-194199D01*
X-195400Y-194199D01*
X-195398Y-194197D01*
G37*
G36*
X-195398Y-175097D02*
X-195398Y-175097D01*
X-195396Y-175099D01*
X-195036Y-175071D01*
X-195032Y-175067D01*
X-195028Y-175070D01*
X-194677Y-174985D01*
X-194674Y-174980D01*
X-194670Y-174983D01*
X-194337Y-174845D01*
X-194334Y-174840D01*
X-194330Y-174841D01*
X-194022Y-174653D01*
X-194020Y-174647D01*
X-194016Y-174648D01*
X-193742Y-174413D01*
X-193741Y-174408D01*
X-193737Y-174408D01*
X-193502Y-174134D01*
X-193501Y-174128D01*
X-193497Y-174128D01*
X-193309Y-173820D01*
X-193310Y-173814D01*
X-193306Y-173813D01*
X-193168Y-173480D01*
X-193169Y-173474D01*
X-193165Y-173473D01*
X-193080Y-173122D01*
X-193083Y-173116D01*
X-193079Y-173114D01*
X-193051Y-172754D01*
X-193053Y-172751D01*
X-193051Y-172750D01*
X-193079Y-167790D01*
X-193084Y-167783D01*
X-193080Y-167778D01*
X-193165Y-167427D01*
X-193170Y-167424D01*
X-193168Y-167420D01*
X-193306Y-167087D01*
X-193311Y-167084D01*
X-193309Y-167080D01*
X-193497Y-166772D01*
X-193503Y-166770D01*
X-193502Y-166766D01*
X-193737Y-166492D01*
X-193742Y-166491D01*
X-193742Y-166487D01*
X-194016Y-166252D01*
X-194022Y-166251D01*
X-194022Y-166247D01*
X-194330Y-166059D01*
X-194336Y-166060D01*
X-194337Y-166056D01*
X-194670Y-165918D01*
X-194676Y-165919D01*
X-194677Y-165915D01*
X-195028Y-165830D01*
X-195034Y-165833D01*
X-195036Y-165829D01*
X-195396Y-165801D01*
X-195399Y-165803D01*
X-195400Y-165801D01*
X-204600Y-165801D01*
X-204602Y-165803D01*
X-204604Y-165801D01*
X-204964Y-165829D01*
X-204968Y-165833D01*
X-204972Y-165830D01*
X-205323Y-165915D01*
X-205326Y-165920D01*
X-205330Y-165918D01*
X-205663Y-166056D01*
X-205666Y-166061D01*
X-205670Y-166059D01*
X-205978Y-166247D01*
X-205980Y-166253D01*
X-205984Y-166252D01*
X-206258Y-166487D01*
X-206259Y-166492D01*
X-206263Y-166492D01*
X-206498Y-166766D01*
X-206499Y-166772D01*
X-206503Y-166772D01*
X-206691Y-167080D01*
X-206690Y-167086D01*
X-206695Y-167087D01*
X-206833Y-167420D01*
X-206831Y-167426D01*
X-206835Y-167427D01*
X-206920Y-167778D01*
X-206918Y-167784D01*
X-206921Y-167786D01*
X-206949Y-168146D01*
X-206947Y-168149D01*
X-206949Y-168150D01*
X-206921Y-173110D01*
X-206916Y-173117D01*
X-206920Y-173122D01*
X-206835Y-173473D01*
X-206830Y-173476D01*
X-206833Y-173480D01*
X-206695Y-173813D01*
X-206690Y-173816D01*
X-206691Y-173820D01*
X-206503Y-174128D01*
X-206497Y-174130D01*
X-206498Y-174134D01*
X-206263Y-174408D01*
X-206258Y-174409D01*
X-206258Y-174413D01*
X-205984Y-174648D01*
X-205978Y-174649D01*
X-205978Y-174653D01*
X-205670Y-174841D01*
X-205664Y-174840D01*
X-205663Y-174845D01*
X-205330Y-174983D01*
X-205324Y-174981D01*
X-205323Y-174985D01*
X-204972Y-175070D01*
X-204966Y-175068D01*
X-204964Y-175071D01*
X-204604Y-175099D01*
X-204601Y-175098D01*
X-204600Y-175099D01*
X-195400Y-175099D01*
X-195398Y-175097D01*
G37*
G36*
X-155398Y-194197D02*
X-155398Y-194197D01*
X-155396Y-194199D01*
X-155036Y-194171D01*
X-155032Y-194167D01*
X-155028Y-194170D01*
X-154677Y-194085D01*
X-154674Y-194080D01*
X-154670Y-194083D01*
X-154337Y-193945D01*
X-154334Y-193940D01*
X-154330Y-193941D01*
X-154022Y-193753D01*
X-154020Y-193747D01*
X-154016Y-193748D01*
X-153742Y-193513D01*
X-153741Y-193508D01*
X-153737Y-193508D01*
X-153502Y-193234D01*
X-153501Y-193228D01*
X-153497Y-193228D01*
X-153309Y-192920D01*
X-153310Y-192914D01*
X-153306Y-192913D01*
X-153168Y-192580D01*
X-153169Y-192574D01*
X-153165Y-192573D01*
X-153080Y-192222D01*
X-153083Y-192216D01*
X-153079Y-192214D01*
X-153051Y-191854D01*
X-153053Y-191851D01*
X-153051Y-191850D01*
X-153079Y-186890D01*
X-153084Y-186883D01*
X-153080Y-186878D01*
X-153165Y-186527D01*
X-153170Y-186524D01*
X-153168Y-186520D01*
X-153306Y-186187D01*
X-153311Y-186184D01*
X-153309Y-186180D01*
X-153497Y-185872D01*
X-153503Y-185870D01*
X-153502Y-185866D01*
X-153737Y-185592D01*
X-153742Y-185591D01*
X-153742Y-185587D01*
X-154016Y-185352D01*
X-154022Y-185351D01*
X-154022Y-185347D01*
X-154330Y-185159D01*
X-154336Y-185160D01*
X-154337Y-185156D01*
X-154670Y-185018D01*
X-154676Y-185019D01*
X-154677Y-185015D01*
X-155028Y-184930D01*
X-155034Y-184933D01*
X-155036Y-184929D01*
X-155396Y-184901D01*
X-155399Y-184903D01*
X-155400Y-184901D01*
X-164600Y-184901D01*
X-164602Y-184903D01*
X-164604Y-184901D01*
X-164964Y-184929D01*
X-164968Y-184933D01*
X-164972Y-184930D01*
X-165323Y-185015D01*
X-165326Y-185020D01*
X-165330Y-185018D01*
X-165663Y-185156D01*
X-165666Y-185161D01*
X-165670Y-185159D01*
X-165978Y-185347D01*
X-165980Y-185353D01*
X-165984Y-185352D01*
X-166258Y-185587D01*
X-166259Y-185592D01*
X-166263Y-185592D01*
X-166498Y-185866D01*
X-166499Y-185872D01*
X-166503Y-185872D01*
X-166691Y-186180D01*
X-166690Y-186186D01*
X-166695Y-186187D01*
X-166833Y-186520D01*
X-166831Y-186526D01*
X-166835Y-186527D01*
X-166920Y-186878D01*
X-166918Y-186884D01*
X-166921Y-186886D01*
X-166949Y-187246D01*
X-166947Y-187249D01*
X-166949Y-187250D01*
X-166921Y-192210D01*
X-166916Y-192217D01*
X-166920Y-192222D01*
X-166835Y-192573D01*
X-166830Y-192576D01*
X-166833Y-192580D01*
X-166695Y-192913D01*
X-166690Y-192916D01*
X-166691Y-192920D01*
X-166503Y-193228D01*
X-166497Y-193230D01*
X-166498Y-193234D01*
X-166263Y-193508D01*
X-166258Y-193509D01*
X-166258Y-193513D01*
X-165984Y-193748D01*
X-165978Y-193749D01*
X-165978Y-193753D01*
X-165670Y-193941D01*
X-165664Y-193940D01*
X-165663Y-193945D01*
X-165330Y-194083D01*
X-165324Y-194081D01*
X-165323Y-194085D01*
X-164972Y-194170D01*
X-164966Y-194168D01*
X-164964Y-194171D01*
X-164604Y-194199D01*
X-164601Y-194198D01*
X-164600Y-194199D01*
X-155400Y-194199D01*
X-155398Y-194197D01*
G37*
G36*
X-330398Y135803D02*
X-330398Y135803D01*
X-330396Y135801D01*
X-330036Y135829D01*
X-330032Y135833D01*
X-330028Y135830D01*
X-329677Y135915D01*
X-329674Y135920D01*
X-329670Y135918D01*
X-329337Y136056D01*
X-329334Y136061D01*
X-329330Y136059D01*
X-329022Y136247D01*
X-329020Y136253D01*
X-329016Y136252D01*
X-328742Y136487D01*
X-328741Y136492D01*
X-328737Y136492D01*
X-328502Y136766D01*
X-328501Y136772D01*
X-328497Y136772D01*
X-328309Y137080D01*
X-328310Y137086D01*
X-328306Y137087D01*
X-328168Y137420D01*
X-328169Y137426D01*
X-328165Y137427D01*
X-328080Y137778D01*
X-328083Y137784D01*
X-328079Y137786D01*
X-328051Y138146D01*
X-328053Y138149D01*
X-328051Y138150D01*
X-328079Y143110D01*
X-328084Y143117D01*
X-328080Y143122D01*
X-328165Y143473D01*
X-328170Y143476D01*
X-328168Y143480D01*
X-328306Y143813D01*
X-328311Y143816D01*
X-328309Y143820D01*
X-328497Y144128D01*
X-328503Y144130D01*
X-328502Y144134D01*
X-328737Y144408D01*
X-328742Y144409D01*
X-328742Y144413D01*
X-329016Y144648D01*
X-329022Y144649D01*
X-329022Y144653D01*
X-329330Y144841D01*
X-329336Y144840D01*
X-329337Y144845D01*
X-329670Y144983D01*
X-329676Y144981D01*
X-329677Y144985D01*
X-330028Y145070D01*
X-330034Y145068D01*
X-330036Y145071D01*
X-330396Y145099D01*
X-330399Y145098D01*
X-330400Y145099D01*
X-339600Y145099D01*
X-339602Y145097D01*
X-339604Y145099D01*
X-339964Y145071D01*
X-339968Y145067D01*
X-339972Y145070D01*
X-340323Y144985D01*
X-340326Y144980D01*
X-340330Y144983D01*
X-340663Y144845D01*
X-340666Y144840D01*
X-340670Y144841D01*
X-340978Y144653D01*
X-340980Y144647D01*
X-340984Y144648D01*
X-341258Y144413D01*
X-341259Y144408D01*
X-341263Y144408D01*
X-341498Y144134D01*
X-341499Y144128D01*
X-341503Y144128D01*
X-341691Y143820D01*
X-341690Y143814D01*
X-341695Y143813D01*
X-341833Y143480D01*
X-341831Y143474D01*
X-341835Y143473D01*
X-341920Y143122D01*
X-341918Y143116D01*
X-341921Y143114D01*
X-341949Y142754D01*
X-341947Y142751D01*
X-341949Y142750D01*
X-341921Y137790D01*
X-341916Y137783D01*
X-341920Y137778D01*
X-341835Y137427D01*
X-341830Y137424D01*
X-341833Y137420D01*
X-341695Y137087D01*
X-341690Y137084D01*
X-341691Y137080D01*
X-341503Y136772D01*
X-341497Y136770D01*
X-341498Y136766D01*
X-341263Y136492D01*
X-341258Y136491D01*
X-341258Y136487D01*
X-340984Y136252D01*
X-340978Y136251D01*
X-340978Y136247D01*
X-340670Y136059D01*
X-340664Y136060D01*
X-340663Y136056D01*
X-340330Y135918D01*
X-340324Y135919D01*
X-340323Y135915D01*
X-339972Y135830D01*
X-339966Y135833D01*
X-339964Y135829D01*
X-339604Y135801D01*
X-339601Y135803D01*
X-339600Y135801D01*
X-330400Y135801D01*
X-330398Y135803D01*
G37*
G36*
X384602Y-194197D02*
X384602Y-194197D01*
X384604Y-194199D01*
X384964Y-194171D01*
X384968Y-194167D01*
X384972Y-194170D01*
X385323Y-194085D01*
X385326Y-194080D01*
X385330Y-194083D01*
X385663Y-193945D01*
X385666Y-193940D01*
X385670Y-193941D01*
X385978Y-193753D01*
X385980Y-193747D01*
X385984Y-193748D01*
X386258Y-193513D01*
X386259Y-193508D01*
X386263Y-193508D01*
X386498Y-193234D01*
X386499Y-193228D01*
X386503Y-193228D01*
X386691Y-192920D01*
X386690Y-192914D01*
X386695Y-192913D01*
X386833Y-192580D01*
X386831Y-192574D01*
X386835Y-192573D01*
X386920Y-192222D01*
X386918Y-192216D01*
X386921Y-192214D01*
X386949Y-191854D01*
X386947Y-191851D01*
X386949Y-191850D01*
X386921Y-186890D01*
X386916Y-186883D01*
X386920Y-186878D01*
X386835Y-186527D01*
X386830Y-186524D01*
X386833Y-186520D01*
X386695Y-186187D01*
X386690Y-186184D01*
X386691Y-186180D01*
X386503Y-185872D01*
X386497Y-185870D01*
X386498Y-185866D01*
X386263Y-185592D01*
X386258Y-185591D01*
X386258Y-185587D01*
X385984Y-185352D01*
X385978Y-185351D01*
X385978Y-185347D01*
X385670Y-185159D01*
X385664Y-185160D01*
X385663Y-185156D01*
X385330Y-185018D01*
X385324Y-185019D01*
X385323Y-185015D01*
X384972Y-184930D01*
X384966Y-184933D01*
X384964Y-184929D01*
X384604Y-184901D01*
X384601Y-184903D01*
X384600Y-184901D01*
X375400Y-184901D01*
X375398Y-184903D01*
X375396Y-184901D01*
X375036Y-184929D01*
X375032Y-184933D01*
X375028Y-184930D01*
X374677Y-185015D01*
X374674Y-185020D01*
X374670Y-185018D01*
X374337Y-185156D01*
X374334Y-185161D01*
X374330Y-185159D01*
X374022Y-185347D01*
X374020Y-185353D01*
X374016Y-185352D01*
X373742Y-185587D01*
X373741Y-185592D01*
X373737Y-185592D01*
X373502Y-185866D01*
X373501Y-185872D01*
X373497Y-185872D01*
X373309Y-186180D01*
X373310Y-186186D01*
X373306Y-186187D01*
X373168Y-186520D01*
X373169Y-186526D01*
X373165Y-186527D01*
X373080Y-186878D01*
X373083Y-186884D01*
X373079Y-186886D01*
X373051Y-187246D01*
X373053Y-187249D01*
X373051Y-187250D01*
X373079Y-192210D01*
X373084Y-192217D01*
X373080Y-192222D01*
X373165Y-192573D01*
X373170Y-192576D01*
X373168Y-192580D01*
X373306Y-192913D01*
X373311Y-192916D01*
X373309Y-192920D01*
X373497Y-193228D01*
X373503Y-193230D01*
X373502Y-193234D01*
X373737Y-193508D01*
X373742Y-193509D01*
X373742Y-193513D01*
X374016Y-193748D01*
X374022Y-193749D01*
X374022Y-193753D01*
X374330Y-193941D01*
X374336Y-193940D01*
X374337Y-193945D01*
X374670Y-194083D01*
X374676Y-194081D01*
X374677Y-194085D01*
X375028Y-194170D01*
X375034Y-194168D01*
X375036Y-194171D01*
X375396Y-194199D01*
X375399Y-194198D01*
X375400Y-194199D01*
X384600Y-194199D01*
X384602Y-194197D01*
G37*
G36*
X-315398Y-175097D02*
X-315398Y-175097D01*
X-315396Y-175099D01*
X-315036Y-175071D01*
X-315032Y-175067D01*
X-315028Y-175070D01*
X-314677Y-174985D01*
X-314674Y-174980D01*
X-314670Y-174983D01*
X-314337Y-174845D01*
X-314334Y-174840D01*
X-314330Y-174841D01*
X-314022Y-174653D01*
X-314020Y-174647D01*
X-314016Y-174648D01*
X-313742Y-174413D01*
X-313741Y-174408D01*
X-313737Y-174408D01*
X-313502Y-174134D01*
X-313501Y-174128D01*
X-313497Y-174128D01*
X-313309Y-173820D01*
X-313310Y-173814D01*
X-313306Y-173813D01*
X-313168Y-173480D01*
X-313169Y-173474D01*
X-313165Y-173473D01*
X-313080Y-173122D01*
X-313083Y-173116D01*
X-313079Y-173114D01*
X-313051Y-172754D01*
X-313053Y-172751D01*
X-313051Y-172750D01*
X-313079Y-167790D01*
X-313084Y-167783D01*
X-313080Y-167778D01*
X-313165Y-167427D01*
X-313170Y-167424D01*
X-313168Y-167420D01*
X-313306Y-167087D01*
X-313311Y-167084D01*
X-313309Y-167080D01*
X-313497Y-166772D01*
X-313503Y-166770D01*
X-313502Y-166766D01*
X-313737Y-166492D01*
X-313742Y-166491D01*
X-313742Y-166487D01*
X-314016Y-166252D01*
X-314022Y-166251D01*
X-314022Y-166247D01*
X-314330Y-166059D01*
X-314336Y-166060D01*
X-314337Y-166056D01*
X-314670Y-165918D01*
X-314676Y-165919D01*
X-314677Y-165915D01*
X-315028Y-165830D01*
X-315034Y-165833D01*
X-315036Y-165829D01*
X-315396Y-165801D01*
X-315399Y-165803D01*
X-315400Y-165801D01*
X-324600Y-165801D01*
X-324602Y-165803D01*
X-324604Y-165801D01*
X-324964Y-165829D01*
X-324968Y-165833D01*
X-324972Y-165830D01*
X-325323Y-165915D01*
X-325326Y-165920D01*
X-325330Y-165918D01*
X-325663Y-166056D01*
X-325666Y-166061D01*
X-325670Y-166059D01*
X-325978Y-166247D01*
X-325980Y-166253D01*
X-325984Y-166252D01*
X-326258Y-166487D01*
X-326259Y-166492D01*
X-326263Y-166492D01*
X-326498Y-166766D01*
X-326499Y-166772D01*
X-326503Y-166772D01*
X-326691Y-167080D01*
X-326690Y-167086D01*
X-326695Y-167087D01*
X-326833Y-167420D01*
X-326831Y-167426D01*
X-326835Y-167427D01*
X-326920Y-167778D01*
X-326918Y-167784D01*
X-326921Y-167786D01*
X-326949Y-168146D01*
X-326947Y-168149D01*
X-326949Y-168150D01*
X-326921Y-173110D01*
X-326916Y-173117D01*
X-326920Y-173122D01*
X-326835Y-173473D01*
X-326830Y-173476D01*
X-326833Y-173480D01*
X-326695Y-173813D01*
X-326690Y-173816D01*
X-326691Y-173820D01*
X-326503Y-174128D01*
X-326497Y-174130D01*
X-326498Y-174134D01*
X-326263Y-174408D01*
X-326258Y-174409D01*
X-326258Y-174413D01*
X-325984Y-174648D01*
X-325978Y-174649D01*
X-325978Y-174653D01*
X-325670Y-174841D01*
X-325664Y-174840D01*
X-325663Y-174845D01*
X-325330Y-174983D01*
X-325324Y-174981D01*
X-325323Y-174985D01*
X-324972Y-175070D01*
X-324966Y-175068D01*
X-324964Y-175071D01*
X-324604Y-175099D01*
X-324601Y-175098D01*
X-324600Y-175099D01*
X-315400Y-175099D01*
X-315398Y-175097D01*
G37*
G36*
X264602Y-175097D02*
X264602Y-175097D01*
X264604Y-175099D01*
X264964Y-175071D01*
X264968Y-175067D01*
X264972Y-175070D01*
X265323Y-174985D01*
X265326Y-174980D01*
X265330Y-174983D01*
X265663Y-174845D01*
X265666Y-174840D01*
X265670Y-174841D01*
X265978Y-174653D01*
X265980Y-174647D01*
X265984Y-174648D01*
X266258Y-174413D01*
X266259Y-174408D01*
X266263Y-174408D01*
X266498Y-174134D01*
X266499Y-174128D01*
X266503Y-174128D01*
X266691Y-173820D01*
X266690Y-173814D01*
X266695Y-173813D01*
X266833Y-173480D01*
X266831Y-173474D01*
X266835Y-173473D01*
X266920Y-173122D01*
X266918Y-173116D01*
X266921Y-173114D01*
X266949Y-172754D01*
X266947Y-172751D01*
X266949Y-172750D01*
X266921Y-167790D01*
X266916Y-167783D01*
X266920Y-167778D01*
X266835Y-167427D01*
X266830Y-167424D01*
X266833Y-167420D01*
X266695Y-167087D01*
X266690Y-167084D01*
X266691Y-167080D01*
X266503Y-166772D01*
X266497Y-166770D01*
X266498Y-166766D01*
X266263Y-166492D01*
X266258Y-166491D01*
X266258Y-166487D01*
X265984Y-166252D01*
X265978Y-166251D01*
X265978Y-166247D01*
X265670Y-166059D01*
X265664Y-166060D01*
X265663Y-166056D01*
X265330Y-165918D01*
X265324Y-165919D01*
X265323Y-165915D01*
X264972Y-165830D01*
X264966Y-165833D01*
X264964Y-165829D01*
X264604Y-165801D01*
X264601Y-165803D01*
X264600Y-165801D01*
X255400Y-165801D01*
X255398Y-165803D01*
X255396Y-165801D01*
X255036Y-165829D01*
X255032Y-165833D01*
X255028Y-165830D01*
X254677Y-165915D01*
X254674Y-165920D01*
X254670Y-165918D01*
X254337Y-166056D01*
X254334Y-166061D01*
X254330Y-166059D01*
X254022Y-166247D01*
X254020Y-166253D01*
X254016Y-166252D01*
X253742Y-166487D01*
X253741Y-166492D01*
X253737Y-166492D01*
X253502Y-166766D01*
X253501Y-166772D01*
X253497Y-166772D01*
X253309Y-167080D01*
X253310Y-167086D01*
X253306Y-167087D01*
X253168Y-167420D01*
X253169Y-167426D01*
X253165Y-167427D01*
X253080Y-167778D01*
X253083Y-167784D01*
X253079Y-167786D01*
X253051Y-168146D01*
X253053Y-168149D01*
X253051Y-168150D01*
X253079Y-173110D01*
X253084Y-173117D01*
X253080Y-173122D01*
X253165Y-173473D01*
X253170Y-173476D01*
X253168Y-173480D01*
X253306Y-173813D01*
X253311Y-173816D01*
X253309Y-173820D01*
X253497Y-174128D01*
X253503Y-174130D01*
X253502Y-174134D01*
X253737Y-174408D01*
X253742Y-174409D01*
X253742Y-174413D01*
X254016Y-174648D01*
X254022Y-174649D01*
X254022Y-174653D01*
X254330Y-174841D01*
X254336Y-174840D01*
X254337Y-174845D01*
X254670Y-174983D01*
X254676Y-174981D01*
X254677Y-174985D01*
X255028Y-175070D01*
X255034Y-175068D01*
X255036Y-175071D01*
X255396Y-175099D01*
X255399Y-175098D01*
X255400Y-175099D01*
X264600Y-175099D01*
X264602Y-175097D01*
G37*
G36*
X-395398Y-175097D02*
X-395398Y-175097D01*
X-395396Y-175099D01*
X-395036Y-175071D01*
X-395032Y-175067D01*
X-395028Y-175070D01*
X-394677Y-174985D01*
X-394674Y-174980D01*
X-394670Y-174983D01*
X-394337Y-174845D01*
X-394334Y-174840D01*
X-394330Y-174841D01*
X-394022Y-174653D01*
X-394020Y-174647D01*
X-394016Y-174648D01*
X-393742Y-174413D01*
X-393741Y-174408D01*
X-393737Y-174408D01*
X-393502Y-174134D01*
X-393501Y-174128D01*
X-393497Y-174128D01*
X-393309Y-173820D01*
X-393310Y-173814D01*
X-393306Y-173813D01*
X-393168Y-173480D01*
X-393169Y-173474D01*
X-393165Y-173473D01*
X-393080Y-173122D01*
X-393083Y-173116D01*
X-393079Y-173114D01*
X-393051Y-172754D01*
X-393053Y-172751D01*
X-393051Y-172750D01*
X-393079Y-167790D01*
X-393084Y-167783D01*
X-393080Y-167778D01*
X-393165Y-167427D01*
X-393170Y-167424D01*
X-393168Y-167420D01*
X-393306Y-167087D01*
X-393311Y-167084D01*
X-393309Y-167080D01*
X-393497Y-166772D01*
X-393503Y-166770D01*
X-393502Y-166766D01*
X-393737Y-166492D01*
X-393742Y-166491D01*
X-393742Y-166487D01*
X-394016Y-166252D01*
X-394022Y-166251D01*
X-394022Y-166247D01*
X-394330Y-166059D01*
X-394336Y-166060D01*
X-394337Y-166056D01*
X-394670Y-165918D01*
X-394676Y-165919D01*
X-394677Y-165915D01*
X-395028Y-165830D01*
X-395034Y-165833D01*
X-395036Y-165829D01*
X-395396Y-165801D01*
X-395399Y-165803D01*
X-395400Y-165801D01*
X-404600Y-165801D01*
X-404602Y-165803D01*
X-404604Y-165801D01*
X-404964Y-165829D01*
X-404968Y-165833D01*
X-404972Y-165830D01*
X-405323Y-165915D01*
X-405326Y-165920D01*
X-405330Y-165918D01*
X-405663Y-166056D01*
X-405666Y-166061D01*
X-405670Y-166059D01*
X-405978Y-166247D01*
X-405980Y-166253D01*
X-405984Y-166252D01*
X-406258Y-166487D01*
X-406259Y-166492D01*
X-406263Y-166492D01*
X-406498Y-166766D01*
X-406499Y-166772D01*
X-406503Y-166772D01*
X-406691Y-167080D01*
X-406690Y-167086D01*
X-406695Y-167087D01*
X-406833Y-167420D01*
X-406831Y-167426D01*
X-406835Y-167427D01*
X-406920Y-167778D01*
X-406918Y-167784D01*
X-406921Y-167786D01*
X-406949Y-168146D01*
X-406947Y-168149D01*
X-406949Y-168150D01*
X-406921Y-173110D01*
X-406916Y-173117D01*
X-406920Y-173122D01*
X-406835Y-173473D01*
X-406830Y-173476D01*
X-406833Y-173480D01*
X-406695Y-173813D01*
X-406690Y-173816D01*
X-406691Y-173820D01*
X-406503Y-174128D01*
X-406497Y-174130D01*
X-406498Y-174134D01*
X-406263Y-174408D01*
X-406258Y-174409D01*
X-406258Y-174413D01*
X-405984Y-174648D01*
X-405978Y-174649D01*
X-405978Y-174653D01*
X-405670Y-174841D01*
X-405664Y-174840D01*
X-405663Y-174845D01*
X-405330Y-174983D01*
X-405324Y-174981D01*
X-405323Y-174985D01*
X-404972Y-175070D01*
X-404966Y-175068D01*
X-404964Y-175071D01*
X-404604Y-175099D01*
X-404601Y-175098D01*
X-404600Y-175099D01*
X-395400Y-175099D01*
X-395398Y-175097D01*
G37*
G36*
X-155398Y-175097D02*
X-155398Y-175097D01*
X-155396Y-175099D01*
X-155036Y-175071D01*
X-155032Y-175067D01*
X-155028Y-175070D01*
X-154677Y-174985D01*
X-154674Y-174980D01*
X-154670Y-174983D01*
X-154337Y-174845D01*
X-154334Y-174840D01*
X-154330Y-174841D01*
X-154022Y-174653D01*
X-154020Y-174647D01*
X-154016Y-174648D01*
X-153742Y-174413D01*
X-153741Y-174408D01*
X-153737Y-174408D01*
X-153502Y-174134D01*
X-153501Y-174128D01*
X-153497Y-174128D01*
X-153309Y-173820D01*
X-153310Y-173814D01*
X-153306Y-173813D01*
X-153168Y-173480D01*
X-153169Y-173474D01*
X-153165Y-173473D01*
X-153080Y-173122D01*
X-153083Y-173116D01*
X-153079Y-173114D01*
X-153051Y-172754D01*
X-153053Y-172751D01*
X-153051Y-172750D01*
X-153079Y-167790D01*
X-153084Y-167783D01*
X-153080Y-167778D01*
X-153165Y-167427D01*
X-153170Y-167424D01*
X-153168Y-167420D01*
X-153306Y-167087D01*
X-153311Y-167084D01*
X-153309Y-167080D01*
X-153497Y-166772D01*
X-153503Y-166770D01*
X-153502Y-166766D01*
X-153737Y-166492D01*
X-153742Y-166491D01*
X-153742Y-166487D01*
X-154016Y-166252D01*
X-154022Y-166251D01*
X-154022Y-166247D01*
X-154330Y-166059D01*
X-154336Y-166060D01*
X-154337Y-166056D01*
X-154670Y-165918D01*
X-154676Y-165919D01*
X-154677Y-165915D01*
X-155028Y-165830D01*
X-155034Y-165833D01*
X-155036Y-165829D01*
X-155396Y-165801D01*
X-155399Y-165803D01*
X-155400Y-165801D01*
X-164600Y-165801D01*
X-164602Y-165803D01*
X-164604Y-165801D01*
X-164964Y-165829D01*
X-164968Y-165833D01*
X-164972Y-165830D01*
X-165323Y-165915D01*
X-165326Y-165920D01*
X-165330Y-165918D01*
X-165663Y-166056D01*
X-165666Y-166061D01*
X-165670Y-166059D01*
X-165978Y-166247D01*
X-165980Y-166253D01*
X-165984Y-166252D01*
X-166258Y-166487D01*
X-166259Y-166492D01*
X-166263Y-166492D01*
X-166498Y-166766D01*
X-166499Y-166772D01*
X-166503Y-166772D01*
X-166691Y-167080D01*
X-166690Y-167086D01*
X-166695Y-167087D01*
X-166833Y-167420D01*
X-166831Y-167426D01*
X-166835Y-167427D01*
X-166920Y-167778D01*
X-166918Y-167784D01*
X-166921Y-167786D01*
X-166949Y-168146D01*
X-166947Y-168149D01*
X-166949Y-168150D01*
X-166921Y-173110D01*
X-166916Y-173117D01*
X-166920Y-173122D01*
X-166835Y-173473D01*
X-166830Y-173476D01*
X-166833Y-173480D01*
X-166695Y-173813D01*
X-166690Y-173816D01*
X-166691Y-173820D01*
X-166503Y-174128D01*
X-166497Y-174130D01*
X-166498Y-174134D01*
X-166263Y-174408D01*
X-166258Y-174409D01*
X-166258Y-174413D01*
X-165984Y-174648D01*
X-165978Y-174649D01*
X-165978Y-174653D01*
X-165670Y-174841D01*
X-165664Y-174840D01*
X-165663Y-174845D01*
X-165330Y-174983D01*
X-165324Y-174981D01*
X-165323Y-174985D01*
X-164972Y-175070D01*
X-164966Y-175068D01*
X-164964Y-175071D01*
X-164604Y-175099D01*
X-164601Y-175098D01*
X-164600Y-175099D01*
X-155400Y-175099D01*
X-155398Y-175097D01*
G37*
G36*
X-235398Y-175097D02*
X-235398Y-175097D01*
X-235396Y-175099D01*
X-235036Y-175071D01*
X-235032Y-175067D01*
X-235028Y-175070D01*
X-234677Y-174985D01*
X-234674Y-174980D01*
X-234670Y-174983D01*
X-234337Y-174845D01*
X-234334Y-174840D01*
X-234330Y-174841D01*
X-234022Y-174653D01*
X-234020Y-174647D01*
X-234016Y-174648D01*
X-233742Y-174413D01*
X-233741Y-174408D01*
X-233737Y-174408D01*
X-233502Y-174134D01*
X-233501Y-174128D01*
X-233497Y-174128D01*
X-233309Y-173820D01*
X-233310Y-173814D01*
X-233306Y-173813D01*
X-233168Y-173480D01*
X-233169Y-173474D01*
X-233165Y-173473D01*
X-233080Y-173122D01*
X-233083Y-173116D01*
X-233079Y-173114D01*
X-233051Y-172754D01*
X-233053Y-172751D01*
X-233051Y-172750D01*
X-233079Y-167790D01*
X-233084Y-167783D01*
X-233080Y-167778D01*
X-233165Y-167427D01*
X-233170Y-167424D01*
X-233168Y-167420D01*
X-233306Y-167087D01*
X-233311Y-167084D01*
X-233309Y-167080D01*
X-233497Y-166772D01*
X-233503Y-166770D01*
X-233502Y-166766D01*
X-233737Y-166492D01*
X-233742Y-166491D01*
X-233742Y-166487D01*
X-234016Y-166252D01*
X-234022Y-166251D01*
X-234022Y-166247D01*
X-234330Y-166059D01*
X-234336Y-166060D01*
X-234337Y-166056D01*
X-234670Y-165918D01*
X-234676Y-165919D01*
X-234677Y-165915D01*
X-235028Y-165830D01*
X-235034Y-165833D01*
X-235036Y-165829D01*
X-235396Y-165801D01*
X-235399Y-165803D01*
X-235400Y-165801D01*
X-244600Y-165801D01*
X-244602Y-165803D01*
X-244604Y-165801D01*
X-244964Y-165829D01*
X-244968Y-165833D01*
X-244972Y-165830D01*
X-245323Y-165915D01*
X-245326Y-165920D01*
X-245330Y-165918D01*
X-245663Y-166056D01*
X-245666Y-166061D01*
X-245670Y-166059D01*
X-245978Y-166247D01*
X-245980Y-166253D01*
X-245984Y-166252D01*
X-246258Y-166487D01*
X-246259Y-166492D01*
X-246263Y-166492D01*
X-246498Y-166766D01*
X-246499Y-166772D01*
X-246503Y-166772D01*
X-246691Y-167080D01*
X-246690Y-167086D01*
X-246695Y-167087D01*
X-246833Y-167420D01*
X-246831Y-167426D01*
X-246835Y-167427D01*
X-246920Y-167778D01*
X-246918Y-167784D01*
X-246921Y-167786D01*
X-246949Y-168146D01*
X-246947Y-168149D01*
X-246949Y-168150D01*
X-246921Y-173110D01*
X-246916Y-173117D01*
X-246920Y-173122D01*
X-246835Y-173473D01*
X-246830Y-173476D01*
X-246833Y-173480D01*
X-246695Y-173813D01*
X-246690Y-173816D01*
X-246691Y-173820D01*
X-246503Y-174128D01*
X-246497Y-174130D01*
X-246498Y-174134D01*
X-246263Y-174408D01*
X-246258Y-174409D01*
X-246258Y-174413D01*
X-245984Y-174648D01*
X-245978Y-174649D01*
X-245978Y-174653D01*
X-245670Y-174841D01*
X-245664Y-174840D01*
X-245663Y-174845D01*
X-245330Y-174983D01*
X-245324Y-174981D01*
X-245323Y-174985D01*
X-244972Y-175070D01*
X-244966Y-175068D01*
X-244964Y-175071D01*
X-244604Y-175099D01*
X-244601Y-175098D01*
X-244600Y-175099D01*
X-235400Y-175099D01*
X-235398Y-175097D01*
G37*
G36*
X304602Y-175097D02*
X304602Y-175097D01*
X304604Y-175099D01*
X304964Y-175071D01*
X304968Y-175067D01*
X304972Y-175070D01*
X305323Y-174985D01*
X305326Y-174980D01*
X305330Y-174983D01*
X305663Y-174845D01*
X305666Y-174840D01*
X305670Y-174841D01*
X305978Y-174653D01*
X305980Y-174647D01*
X305984Y-174648D01*
X306258Y-174413D01*
X306259Y-174408D01*
X306263Y-174408D01*
X306498Y-174134D01*
X306499Y-174128D01*
X306503Y-174128D01*
X306691Y-173820D01*
X306690Y-173814D01*
X306695Y-173813D01*
X306833Y-173480D01*
X306831Y-173474D01*
X306835Y-173473D01*
X306920Y-173122D01*
X306918Y-173116D01*
X306921Y-173114D01*
X306949Y-172754D01*
X306947Y-172751D01*
X306949Y-172750D01*
X306921Y-167790D01*
X306916Y-167783D01*
X306920Y-167778D01*
X306835Y-167427D01*
X306830Y-167424D01*
X306833Y-167420D01*
X306695Y-167087D01*
X306690Y-167084D01*
X306691Y-167080D01*
X306503Y-166772D01*
X306497Y-166770D01*
X306498Y-166766D01*
X306263Y-166492D01*
X306258Y-166491D01*
X306258Y-166487D01*
X305984Y-166252D01*
X305978Y-166251D01*
X305978Y-166247D01*
X305670Y-166059D01*
X305664Y-166060D01*
X305663Y-166056D01*
X305330Y-165918D01*
X305324Y-165919D01*
X305323Y-165915D01*
X304972Y-165830D01*
X304966Y-165833D01*
X304964Y-165829D01*
X304604Y-165801D01*
X304601Y-165803D01*
X304600Y-165801D01*
X295400Y-165801D01*
X295398Y-165803D01*
X295396Y-165801D01*
X295036Y-165829D01*
X295032Y-165833D01*
X295028Y-165830D01*
X294677Y-165915D01*
X294674Y-165920D01*
X294670Y-165918D01*
X294337Y-166056D01*
X294334Y-166061D01*
X294330Y-166059D01*
X294022Y-166247D01*
X294020Y-166253D01*
X294016Y-166252D01*
X293742Y-166487D01*
X293741Y-166492D01*
X293737Y-166492D01*
X293502Y-166766D01*
X293501Y-166772D01*
X293497Y-166772D01*
X293309Y-167080D01*
X293310Y-167086D01*
X293306Y-167087D01*
X293168Y-167420D01*
X293169Y-167426D01*
X293165Y-167427D01*
X293080Y-167778D01*
X293083Y-167784D01*
X293079Y-167786D01*
X293051Y-168146D01*
X293053Y-168149D01*
X293051Y-168150D01*
X293079Y-173110D01*
X293084Y-173117D01*
X293080Y-173122D01*
X293165Y-173473D01*
X293170Y-173476D01*
X293168Y-173480D01*
X293306Y-173813D01*
X293311Y-173816D01*
X293309Y-173820D01*
X293497Y-174128D01*
X293503Y-174130D01*
X293502Y-174134D01*
X293737Y-174408D01*
X293742Y-174409D01*
X293742Y-174413D01*
X294016Y-174648D01*
X294022Y-174649D01*
X294022Y-174653D01*
X294330Y-174841D01*
X294336Y-174840D01*
X294337Y-174845D01*
X294670Y-174983D01*
X294676Y-174981D01*
X294677Y-174985D01*
X295028Y-175070D01*
X295034Y-175068D01*
X295036Y-175071D01*
X295396Y-175099D01*
X295399Y-175098D01*
X295400Y-175099D01*
X304600Y-175099D01*
X304602Y-175097D01*
G37*
G36*
X-275398Y-175097D02*
X-275398Y-175097D01*
X-275396Y-175099D01*
X-275036Y-175071D01*
X-275032Y-175067D01*
X-275028Y-175070D01*
X-274677Y-174985D01*
X-274674Y-174980D01*
X-274670Y-174983D01*
X-274337Y-174845D01*
X-274334Y-174840D01*
X-274330Y-174841D01*
X-274022Y-174653D01*
X-274020Y-174647D01*
X-274016Y-174648D01*
X-273742Y-174413D01*
X-273741Y-174408D01*
X-273737Y-174408D01*
X-273502Y-174134D01*
X-273501Y-174128D01*
X-273497Y-174128D01*
X-273309Y-173820D01*
X-273310Y-173814D01*
X-273306Y-173813D01*
X-273168Y-173480D01*
X-273169Y-173474D01*
X-273165Y-173473D01*
X-273080Y-173122D01*
X-273083Y-173116D01*
X-273079Y-173114D01*
X-273051Y-172754D01*
X-273053Y-172751D01*
X-273051Y-172750D01*
X-273079Y-167790D01*
X-273084Y-167783D01*
X-273080Y-167778D01*
X-273165Y-167427D01*
X-273170Y-167424D01*
X-273168Y-167420D01*
X-273306Y-167087D01*
X-273311Y-167084D01*
X-273309Y-167080D01*
X-273497Y-166772D01*
X-273503Y-166770D01*
X-273502Y-166766D01*
X-273737Y-166492D01*
X-273742Y-166491D01*
X-273742Y-166487D01*
X-274016Y-166252D01*
X-274022Y-166251D01*
X-274022Y-166247D01*
X-274330Y-166059D01*
X-274336Y-166060D01*
X-274337Y-166056D01*
X-274670Y-165918D01*
X-274676Y-165919D01*
X-274677Y-165915D01*
X-275028Y-165830D01*
X-275034Y-165833D01*
X-275036Y-165829D01*
X-275396Y-165801D01*
X-275399Y-165803D01*
X-275400Y-165801D01*
X-284600Y-165801D01*
X-284602Y-165803D01*
X-284604Y-165801D01*
X-284964Y-165829D01*
X-284968Y-165833D01*
X-284972Y-165830D01*
X-285323Y-165915D01*
X-285326Y-165920D01*
X-285330Y-165918D01*
X-285663Y-166056D01*
X-285666Y-166061D01*
X-285670Y-166059D01*
X-285978Y-166247D01*
X-285980Y-166253D01*
X-285984Y-166252D01*
X-286258Y-166487D01*
X-286259Y-166492D01*
X-286263Y-166492D01*
X-286498Y-166766D01*
X-286499Y-166772D01*
X-286503Y-166772D01*
X-286691Y-167080D01*
X-286690Y-167086D01*
X-286695Y-167087D01*
X-286833Y-167420D01*
X-286831Y-167426D01*
X-286835Y-167427D01*
X-286920Y-167778D01*
X-286918Y-167784D01*
X-286921Y-167786D01*
X-286949Y-168146D01*
X-286947Y-168149D01*
X-286949Y-168150D01*
X-286921Y-173110D01*
X-286916Y-173117D01*
X-286920Y-173122D01*
X-286835Y-173473D01*
X-286830Y-173476D01*
X-286833Y-173480D01*
X-286695Y-173813D01*
X-286690Y-173816D01*
X-286691Y-173820D01*
X-286503Y-174128D01*
X-286497Y-174130D01*
X-286498Y-174134D01*
X-286263Y-174408D01*
X-286258Y-174409D01*
X-286258Y-174413D01*
X-285984Y-174648D01*
X-285978Y-174649D01*
X-285978Y-174653D01*
X-285670Y-174841D01*
X-285664Y-174840D01*
X-285663Y-174845D01*
X-285330Y-174983D01*
X-285324Y-174981D01*
X-285323Y-174985D01*
X-284972Y-175070D01*
X-284966Y-175068D01*
X-284964Y-175071D01*
X-284604Y-175099D01*
X-284601Y-175098D01*
X-284600Y-175099D01*
X-275400Y-175099D01*
X-275398Y-175097D01*
G37*
G36*
X384602Y-175097D02*
X384602Y-175097D01*
X384604Y-175099D01*
X384964Y-175071D01*
X384968Y-175067D01*
X384972Y-175070D01*
X385323Y-174985D01*
X385326Y-174980D01*
X385330Y-174983D01*
X385663Y-174845D01*
X385666Y-174840D01*
X385670Y-174841D01*
X385978Y-174653D01*
X385980Y-174647D01*
X385984Y-174648D01*
X386258Y-174413D01*
X386259Y-174408D01*
X386263Y-174408D01*
X386498Y-174134D01*
X386499Y-174128D01*
X386503Y-174128D01*
X386691Y-173820D01*
X386690Y-173814D01*
X386695Y-173813D01*
X386833Y-173480D01*
X386831Y-173474D01*
X386835Y-173473D01*
X386920Y-173122D01*
X386918Y-173116D01*
X386921Y-173114D01*
X386949Y-172754D01*
X386947Y-172751D01*
X386949Y-172750D01*
X386921Y-167790D01*
X386916Y-167783D01*
X386920Y-167778D01*
X386835Y-167427D01*
X386830Y-167424D01*
X386833Y-167420D01*
X386695Y-167087D01*
X386690Y-167084D01*
X386691Y-167080D01*
X386503Y-166772D01*
X386497Y-166770D01*
X386498Y-166766D01*
X386263Y-166492D01*
X386258Y-166491D01*
X386258Y-166487D01*
X385984Y-166252D01*
X385978Y-166251D01*
X385978Y-166247D01*
X385670Y-166059D01*
X385664Y-166060D01*
X385663Y-166056D01*
X385330Y-165918D01*
X385324Y-165919D01*
X385323Y-165915D01*
X384972Y-165830D01*
X384966Y-165833D01*
X384964Y-165829D01*
X384604Y-165801D01*
X384601Y-165803D01*
X384600Y-165801D01*
X375400Y-165801D01*
X375398Y-165803D01*
X375396Y-165801D01*
X375036Y-165829D01*
X375032Y-165833D01*
X375028Y-165830D01*
X374677Y-165915D01*
X374674Y-165920D01*
X374670Y-165918D01*
X374337Y-166056D01*
X374334Y-166061D01*
X374330Y-166059D01*
X374022Y-166247D01*
X374020Y-166253D01*
X374016Y-166252D01*
X373742Y-166487D01*
X373741Y-166492D01*
X373737Y-166492D01*
X373502Y-166766D01*
X373501Y-166772D01*
X373497Y-166772D01*
X373309Y-167080D01*
X373310Y-167086D01*
X373306Y-167087D01*
X373168Y-167420D01*
X373169Y-167426D01*
X373165Y-167427D01*
X373080Y-167778D01*
X373083Y-167784D01*
X373079Y-167786D01*
X373051Y-168146D01*
X373053Y-168149D01*
X373051Y-168150D01*
X373079Y-173110D01*
X373084Y-173117D01*
X373080Y-173122D01*
X373165Y-173473D01*
X373170Y-173476D01*
X373168Y-173480D01*
X373306Y-173813D01*
X373311Y-173816D01*
X373309Y-173820D01*
X373497Y-174128D01*
X373503Y-174130D01*
X373502Y-174134D01*
X373737Y-174408D01*
X373742Y-174409D01*
X373742Y-174413D01*
X374016Y-174648D01*
X374022Y-174649D01*
X374022Y-174653D01*
X374330Y-174841D01*
X374336Y-174840D01*
X374337Y-174845D01*
X374670Y-174983D01*
X374676Y-174981D01*
X374677Y-174985D01*
X375028Y-175070D01*
X375034Y-175068D01*
X375036Y-175071D01*
X375396Y-175099D01*
X375399Y-175098D01*
X375400Y-175099D01*
X384600Y-175099D01*
X384602Y-175097D01*
G37*
G36*
X264602Y-194197D02*
X264602Y-194197D01*
X264604Y-194199D01*
X264964Y-194171D01*
X264968Y-194167D01*
X264972Y-194170D01*
X265323Y-194085D01*
X265326Y-194080D01*
X265330Y-194083D01*
X265663Y-193945D01*
X265666Y-193940D01*
X265670Y-193941D01*
X265978Y-193753D01*
X265980Y-193747D01*
X265984Y-193748D01*
X266258Y-193513D01*
X266259Y-193508D01*
X266263Y-193508D01*
X266498Y-193234D01*
X266499Y-193228D01*
X266503Y-193228D01*
X266691Y-192920D01*
X266690Y-192914D01*
X266695Y-192913D01*
X266833Y-192580D01*
X266831Y-192574D01*
X266835Y-192573D01*
X266920Y-192222D01*
X266918Y-192216D01*
X266921Y-192214D01*
X266949Y-191854D01*
X266947Y-191851D01*
X266949Y-191850D01*
X266921Y-186890D01*
X266916Y-186883D01*
X266920Y-186878D01*
X266835Y-186527D01*
X266830Y-186524D01*
X266833Y-186520D01*
X266695Y-186187D01*
X266690Y-186184D01*
X266691Y-186180D01*
X266503Y-185872D01*
X266497Y-185870D01*
X266498Y-185866D01*
X266263Y-185592D01*
X266258Y-185591D01*
X266258Y-185587D01*
X265984Y-185352D01*
X265978Y-185351D01*
X265978Y-185347D01*
X265670Y-185159D01*
X265664Y-185160D01*
X265663Y-185156D01*
X265330Y-185018D01*
X265324Y-185019D01*
X265323Y-185015D01*
X264972Y-184930D01*
X264966Y-184933D01*
X264964Y-184929D01*
X264604Y-184901D01*
X264601Y-184903D01*
X264600Y-184901D01*
X255400Y-184901D01*
X255398Y-184903D01*
X255396Y-184901D01*
X255036Y-184929D01*
X255032Y-184933D01*
X255028Y-184930D01*
X254677Y-185015D01*
X254674Y-185020D01*
X254670Y-185018D01*
X254337Y-185156D01*
X254334Y-185161D01*
X254330Y-185159D01*
X254022Y-185347D01*
X254020Y-185353D01*
X254016Y-185352D01*
X253742Y-185587D01*
X253741Y-185592D01*
X253737Y-185592D01*
X253502Y-185866D01*
X253501Y-185872D01*
X253497Y-185872D01*
X253309Y-186180D01*
X253310Y-186186D01*
X253306Y-186187D01*
X253168Y-186520D01*
X253169Y-186526D01*
X253165Y-186527D01*
X253080Y-186878D01*
X253083Y-186884D01*
X253079Y-186886D01*
X253051Y-187246D01*
X253053Y-187249D01*
X253051Y-187250D01*
X253079Y-192210D01*
X253084Y-192217D01*
X253080Y-192222D01*
X253165Y-192573D01*
X253170Y-192576D01*
X253168Y-192580D01*
X253306Y-192913D01*
X253311Y-192916D01*
X253309Y-192920D01*
X253497Y-193228D01*
X253503Y-193230D01*
X253502Y-193234D01*
X253737Y-193508D01*
X253742Y-193509D01*
X253742Y-193513D01*
X254016Y-193748D01*
X254022Y-193749D01*
X254022Y-193753D01*
X254330Y-193941D01*
X254336Y-193940D01*
X254337Y-193945D01*
X254670Y-194083D01*
X254676Y-194081D01*
X254677Y-194085D01*
X255028Y-194170D01*
X255034Y-194168D01*
X255036Y-194171D01*
X255396Y-194199D01*
X255399Y-194198D01*
X255400Y-194199D01*
X264600Y-194199D01*
X264602Y-194197D01*
G37*
G36*
X344602Y-175097D02*
X344602Y-175097D01*
X344604Y-175099D01*
X344964Y-175071D01*
X344968Y-175067D01*
X344972Y-175070D01*
X345323Y-174985D01*
X345326Y-174980D01*
X345330Y-174983D01*
X345663Y-174845D01*
X345666Y-174840D01*
X345670Y-174841D01*
X345978Y-174653D01*
X345980Y-174647D01*
X345984Y-174648D01*
X346258Y-174413D01*
X346259Y-174408D01*
X346263Y-174408D01*
X346498Y-174134D01*
X346499Y-174128D01*
X346503Y-174128D01*
X346691Y-173820D01*
X346690Y-173814D01*
X346695Y-173813D01*
X346833Y-173480D01*
X346831Y-173474D01*
X346835Y-173473D01*
X346920Y-173122D01*
X346918Y-173116D01*
X346921Y-173114D01*
X346949Y-172754D01*
X346947Y-172751D01*
X346949Y-172750D01*
X346921Y-167790D01*
X346916Y-167783D01*
X346920Y-167778D01*
X346835Y-167427D01*
X346830Y-167424D01*
X346833Y-167420D01*
X346695Y-167087D01*
X346690Y-167084D01*
X346691Y-167080D01*
X346503Y-166772D01*
X346497Y-166770D01*
X346498Y-166766D01*
X346263Y-166492D01*
X346258Y-166491D01*
X346258Y-166487D01*
X345984Y-166252D01*
X345978Y-166251D01*
X345978Y-166247D01*
X345670Y-166059D01*
X345664Y-166060D01*
X345663Y-166056D01*
X345330Y-165918D01*
X345324Y-165919D01*
X345323Y-165915D01*
X344972Y-165830D01*
X344966Y-165833D01*
X344964Y-165829D01*
X344604Y-165801D01*
X344601Y-165803D01*
X344600Y-165801D01*
X335400Y-165801D01*
X335398Y-165803D01*
X335396Y-165801D01*
X335036Y-165829D01*
X335032Y-165833D01*
X335028Y-165830D01*
X334677Y-165915D01*
X334674Y-165920D01*
X334670Y-165918D01*
X334337Y-166056D01*
X334334Y-166061D01*
X334330Y-166059D01*
X334022Y-166247D01*
X334020Y-166253D01*
X334016Y-166252D01*
X333742Y-166487D01*
X333741Y-166492D01*
X333737Y-166492D01*
X333502Y-166766D01*
X333501Y-166772D01*
X333497Y-166772D01*
X333309Y-167080D01*
X333310Y-167086D01*
X333306Y-167087D01*
X333168Y-167420D01*
X333169Y-167426D01*
X333165Y-167427D01*
X333080Y-167778D01*
X333083Y-167784D01*
X333079Y-167786D01*
X333051Y-168146D01*
X333053Y-168149D01*
X333051Y-168150D01*
X333079Y-173110D01*
X333084Y-173117D01*
X333080Y-173122D01*
X333165Y-173473D01*
X333170Y-173476D01*
X333168Y-173480D01*
X333306Y-173813D01*
X333311Y-173816D01*
X333309Y-173820D01*
X333497Y-174128D01*
X333503Y-174130D01*
X333502Y-174134D01*
X333737Y-174408D01*
X333742Y-174409D01*
X333742Y-174413D01*
X334016Y-174648D01*
X334022Y-174649D01*
X334022Y-174653D01*
X334330Y-174841D01*
X334336Y-174840D01*
X334337Y-174845D01*
X334670Y-174983D01*
X334676Y-174981D01*
X334677Y-174985D01*
X335028Y-175070D01*
X335034Y-175068D01*
X335036Y-175071D01*
X335396Y-175099D01*
X335399Y-175098D01*
X335400Y-175099D01*
X344600Y-175099D01*
X344602Y-175097D01*
G37*
G36*
X-330398Y154903D02*
X-330398Y154903D01*
X-330396Y154901D01*
X-330036Y154929D01*
X-330032Y154933D01*
X-330028Y154930D01*
X-329677Y155015D01*
X-329674Y155020D01*
X-329670Y155018D01*
X-329337Y155156D01*
X-329334Y155161D01*
X-329330Y155159D01*
X-329022Y155347D01*
X-329020Y155353D01*
X-329016Y155352D01*
X-328742Y155587D01*
X-328741Y155592D01*
X-328737Y155592D01*
X-328502Y155866D01*
X-328501Y155872D01*
X-328497Y155872D01*
X-328309Y156180D01*
X-328310Y156186D01*
X-328306Y156187D01*
X-328168Y156520D01*
X-328169Y156526D01*
X-328165Y156527D01*
X-328080Y156878D01*
X-328083Y156884D01*
X-328079Y156886D01*
X-328051Y157246D01*
X-328053Y157249D01*
X-328051Y157250D01*
X-328079Y162210D01*
X-328084Y162217D01*
X-328080Y162222D01*
X-328165Y162573D01*
X-328170Y162576D01*
X-328168Y162580D01*
X-328306Y162913D01*
X-328311Y162916D01*
X-328309Y162920D01*
X-328497Y163228D01*
X-328503Y163230D01*
X-328502Y163234D01*
X-328737Y163508D01*
X-328742Y163509D01*
X-328742Y163513D01*
X-329016Y163748D01*
X-329022Y163749D01*
X-329022Y163753D01*
X-329330Y163941D01*
X-329336Y163940D01*
X-329337Y163945D01*
X-329670Y164083D01*
X-329676Y164081D01*
X-329677Y164085D01*
X-330028Y164170D01*
X-330034Y164168D01*
X-330036Y164171D01*
X-330396Y164199D01*
X-330399Y164198D01*
X-330400Y164199D01*
X-339600Y164199D01*
X-339602Y164197D01*
X-339604Y164199D01*
X-339964Y164171D01*
X-339968Y164167D01*
X-339972Y164170D01*
X-340323Y164085D01*
X-340326Y164080D01*
X-340330Y164083D01*
X-340663Y163945D01*
X-340666Y163940D01*
X-340670Y163941D01*
X-340978Y163753D01*
X-340980Y163747D01*
X-340984Y163748D01*
X-341258Y163513D01*
X-341259Y163508D01*
X-341263Y163508D01*
X-341498Y163234D01*
X-341499Y163228D01*
X-341503Y163228D01*
X-341691Y162920D01*
X-341690Y162914D01*
X-341695Y162913D01*
X-341833Y162580D01*
X-341831Y162574D01*
X-341835Y162573D01*
X-341920Y162222D01*
X-341918Y162216D01*
X-341921Y162214D01*
X-341949Y161854D01*
X-341947Y161851D01*
X-341949Y161850D01*
X-341921Y156890D01*
X-341916Y156883D01*
X-341920Y156878D01*
X-341835Y156527D01*
X-341830Y156524D01*
X-341833Y156520D01*
X-341695Y156187D01*
X-341690Y156184D01*
X-341691Y156180D01*
X-341503Y155872D01*
X-341497Y155870D01*
X-341498Y155866D01*
X-341263Y155592D01*
X-341258Y155591D01*
X-341258Y155587D01*
X-340984Y155352D01*
X-340978Y155351D01*
X-340978Y155347D01*
X-340670Y155159D01*
X-340664Y155160D01*
X-340663Y155156D01*
X-340330Y155018D01*
X-340324Y155019D01*
X-340323Y155015D01*
X-339972Y154930D01*
X-339966Y154933D01*
X-339964Y154929D01*
X-339604Y154901D01*
X-339601Y154903D01*
X-339600Y154901D01*
X-330400Y154901D01*
X-330398Y154903D01*
G37*
G36*
X-275398Y-194197D02*
X-275398Y-194197D01*
X-275396Y-194199D01*
X-275036Y-194171D01*
X-275032Y-194167D01*
X-275028Y-194170D01*
X-274677Y-194085D01*
X-274674Y-194080D01*
X-274670Y-194083D01*
X-274337Y-193945D01*
X-274334Y-193940D01*
X-274330Y-193941D01*
X-274022Y-193753D01*
X-274020Y-193747D01*
X-274016Y-193748D01*
X-273742Y-193513D01*
X-273741Y-193508D01*
X-273737Y-193508D01*
X-273502Y-193234D01*
X-273501Y-193228D01*
X-273497Y-193228D01*
X-273309Y-192920D01*
X-273310Y-192914D01*
X-273306Y-192913D01*
X-273168Y-192580D01*
X-273169Y-192574D01*
X-273165Y-192573D01*
X-273080Y-192222D01*
X-273083Y-192216D01*
X-273079Y-192214D01*
X-273051Y-191854D01*
X-273053Y-191851D01*
X-273051Y-191850D01*
X-273079Y-186890D01*
X-273084Y-186883D01*
X-273080Y-186878D01*
X-273165Y-186527D01*
X-273170Y-186524D01*
X-273168Y-186520D01*
X-273306Y-186187D01*
X-273311Y-186184D01*
X-273309Y-186180D01*
X-273497Y-185872D01*
X-273503Y-185870D01*
X-273502Y-185866D01*
X-273737Y-185592D01*
X-273742Y-185591D01*
X-273742Y-185587D01*
X-274016Y-185352D01*
X-274022Y-185351D01*
X-274022Y-185347D01*
X-274330Y-185159D01*
X-274336Y-185160D01*
X-274337Y-185156D01*
X-274670Y-185018D01*
X-274676Y-185019D01*
X-274677Y-185015D01*
X-275028Y-184930D01*
X-275034Y-184933D01*
X-275036Y-184929D01*
X-275396Y-184901D01*
X-275399Y-184903D01*
X-275400Y-184901D01*
X-284600Y-184901D01*
X-284602Y-184903D01*
X-284604Y-184901D01*
X-284964Y-184929D01*
X-284968Y-184933D01*
X-284972Y-184930D01*
X-285323Y-185015D01*
X-285326Y-185020D01*
X-285330Y-185018D01*
X-285663Y-185156D01*
X-285666Y-185161D01*
X-285670Y-185159D01*
X-285978Y-185347D01*
X-285980Y-185353D01*
X-285984Y-185352D01*
X-286258Y-185587D01*
X-286259Y-185592D01*
X-286263Y-185592D01*
X-286498Y-185866D01*
X-286499Y-185872D01*
X-286503Y-185872D01*
X-286691Y-186180D01*
X-286690Y-186186D01*
X-286695Y-186187D01*
X-286833Y-186520D01*
X-286831Y-186526D01*
X-286835Y-186527D01*
X-286920Y-186878D01*
X-286918Y-186884D01*
X-286921Y-186886D01*
X-286949Y-187246D01*
X-286947Y-187249D01*
X-286949Y-187250D01*
X-286921Y-192210D01*
X-286916Y-192217D01*
X-286920Y-192222D01*
X-286835Y-192573D01*
X-286830Y-192576D01*
X-286833Y-192580D01*
X-286695Y-192913D01*
X-286690Y-192916D01*
X-286691Y-192920D01*
X-286503Y-193228D01*
X-286497Y-193230D01*
X-286498Y-193234D01*
X-286263Y-193508D01*
X-286258Y-193509D01*
X-286258Y-193513D01*
X-285984Y-193748D01*
X-285978Y-193749D01*
X-285978Y-193753D01*
X-285670Y-193941D01*
X-285664Y-193940D01*
X-285663Y-193945D01*
X-285330Y-194083D01*
X-285324Y-194081D01*
X-285323Y-194085D01*
X-284972Y-194170D01*
X-284966Y-194168D01*
X-284964Y-194171D01*
X-284604Y-194199D01*
X-284601Y-194198D01*
X-284600Y-194199D01*
X-275400Y-194199D01*
X-275398Y-194197D01*
G37*
G36*
X-235398Y-194197D02*
X-235398Y-194197D01*
X-235396Y-194199D01*
X-235036Y-194171D01*
X-235032Y-194167D01*
X-235028Y-194170D01*
X-234677Y-194085D01*
X-234674Y-194080D01*
X-234670Y-194083D01*
X-234337Y-193945D01*
X-234334Y-193940D01*
X-234330Y-193941D01*
X-234022Y-193753D01*
X-234020Y-193747D01*
X-234016Y-193748D01*
X-233742Y-193513D01*
X-233741Y-193508D01*
X-233737Y-193508D01*
X-233502Y-193234D01*
X-233501Y-193228D01*
X-233497Y-193228D01*
X-233309Y-192920D01*
X-233310Y-192914D01*
X-233306Y-192913D01*
X-233168Y-192580D01*
X-233169Y-192574D01*
X-233165Y-192573D01*
X-233080Y-192222D01*
X-233083Y-192216D01*
X-233079Y-192214D01*
X-233051Y-191854D01*
X-233053Y-191851D01*
X-233051Y-191850D01*
X-233079Y-186890D01*
X-233084Y-186883D01*
X-233080Y-186878D01*
X-233165Y-186527D01*
X-233170Y-186524D01*
X-233168Y-186520D01*
X-233306Y-186187D01*
X-233311Y-186184D01*
X-233309Y-186180D01*
X-233497Y-185872D01*
X-233503Y-185870D01*
X-233502Y-185866D01*
X-233737Y-185592D01*
X-233742Y-185591D01*
X-233742Y-185587D01*
X-234016Y-185352D01*
X-234022Y-185351D01*
X-234022Y-185347D01*
X-234330Y-185159D01*
X-234336Y-185160D01*
X-234337Y-185156D01*
X-234670Y-185018D01*
X-234676Y-185019D01*
X-234677Y-185015D01*
X-235028Y-184930D01*
X-235034Y-184933D01*
X-235036Y-184929D01*
X-235396Y-184901D01*
X-235399Y-184903D01*
X-235400Y-184901D01*
X-244600Y-184901D01*
X-244602Y-184903D01*
X-244604Y-184901D01*
X-244964Y-184929D01*
X-244968Y-184933D01*
X-244972Y-184930D01*
X-245323Y-185015D01*
X-245326Y-185020D01*
X-245330Y-185018D01*
X-245663Y-185156D01*
X-245666Y-185161D01*
X-245670Y-185159D01*
X-245978Y-185347D01*
X-245980Y-185353D01*
X-245984Y-185352D01*
X-246258Y-185587D01*
X-246259Y-185592D01*
X-246263Y-185592D01*
X-246498Y-185866D01*
X-246499Y-185872D01*
X-246503Y-185872D01*
X-246691Y-186180D01*
X-246690Y-186186D01*
X-246695Y-186187D01*
X-246833Y-186520D01*
X-246831Y-186526D01*
X-246835Y-186527D01*
X-246920Y-186878D01*
X-246918Y-186884D01*
X-246921Y-186886D01*
X-246949Y-187246D01*
X-246947Y-187249D01*
X-246949Y-187250D01*
X-246921Y-192210D01*
X-246916Y-192217D01*
X-246920Y-192222D01*
X-246835Y-192573D01*
X-246830Y-192576D01*
X-246833Y-192580D01*
X-246695Y-192913D01*
X-246690Y-192916D01*
X-246691Y-192920D01*
X-246503Y-193228D01*
X-246497Y-193230D01*
X-246498Y-193234D01*
X-246263Y-193508D01*
X-246258Y-193509D01*
X-246258Y-193513D01*
X-245984Y-193748D01*
X-245978Y-193749D01*
X-245978Y-193753D01*
X-245670Y-193941D01*
X-245664Y-193940D01*
X-245663Y-193945D01*
X-245330Y-194083D01*
X-245324Y-194081D01*
X-245323Y-194085D01*
X-244972Y-194170D01*
X-244966Y-194168D01*
X-244964Y-194171D01*
X-244604Y-194199D01*
X-244601Y-194198D01*
X-244600Y-194199D01*
X-235400Y-194199D01*
X-235398Y-194197D01*
G37*
G36*
X304602Y-194197D02*
X304602Y-194197D01*
X304604Y-194199D01*
X304964Y-194171D01*
X304968Y-194167D01*
X304972Y-194170D01*
X305323Y-194085D01*
X305326Y-194080D01*
X305330Y-194083D01*
X305663Y-193945D01*
X305666Y-193940D01*
X305670Y-193941D01*
X305978Y-193753D01*
X305980Y-193747D01*
X305984Y-193748D01*
X306258Y-193513D01*
X306259Y-193508D01*
X306263Y-193508D01*
X306498Y-193234D01*
X306499Y-193228D01*
X306503Y-193228D01*
X306691Y-192920D01*
X306690Y-192914D01*
X306695Y-192913D01*
X306833Y-192580D01*
X306831Y-192574D01*
X306835Y-192573D01*
X306920Y-192222D01*
X306918Y-192216D01*
X306921Y-192214D01*
X306949Y-191854D01*
X306947Y-191851D01*
X306949Y-191850D01*
X306921Y-186890D01*
X306916Y-186883D01*
X306920Y-186878D01*
X306835Y-186527D01*
X306830Y-186524D01*
X306833Y-186520D01*
X306695Y-186187D01*
X306690Y-186184D01*
X306691Y-186180D01*
X306503Y-185872D01*
X306497Y-185870D01*
X306498Y-185866D01*
X306263Y-185592D01*
X306258Y-185591D01*
X306258Y-185587D01*
X305984Y-185352D01*
X305978Y-185351D01*
X305978Y-185347D01*
X305670Y-185159D01*
X305664Y-185160D01*
X305663Y-185156D01*
X305330Y-185018D01*
X305324Y-185019D01*
X305323Y-185015D01*
X304972Y-184930D01*
X304966Y-184933D01*
X304964Y-184929D01*
X304604Y-184901D01*
X304601Y-184903D01*
X304600Y-184901D01*
X295400Y-184901D01*
X295398Y-184903D01*
X295396Y-184901D01*
X295036Y-184929D01*
X295032Y-184933D01*
X295028Y-184930D01*
X294677Y-185015D01*
X294674Y-185020D01*
X294670Y-185018D01*
X294337Y-185156D01*
X294334Y-185161D01*
X294330Y-185159D01*
X294022Y-185347D01*
X294020Y-185353D01*
X294016Y-185352D01*
X293742Y-185587D01*
X293741Y-185592D01*
X293737Y-185592D01*
X293502Y-185866D01*
X293501Y-185872D01*
X293497Y-185872D01*
X293309Y-186180D01*
X293310Y-186186D01*
X293306Y-186187D01*
X293168Y-186520D01*
X293169Y-186526D01*
X293165Y-186527D01*
X293080Y-186878D01*
X293083Y-186884D01*
X293079Y-186886D01*
X293051Y-187246D01*
X293053Y-187249D01*
X293051Y-187250D01*
X293079Y-192210D01*
X293084Y-192217D01*
X293080Y-192222D01*
X293165Y-192573D01*
X293170Y-192576D01*
X293168Y-192580D01*
X293306Y-192913D01*
X293311Y-192916D01*
X293309Y-192920D01*
X293497Y-193228D01*
X293503Y-193230D01*
X293502Y-193234D01*
X293737Y-193508D01*
X293742Y-193509D01*
X293742Y-193513D01*
X294016Y-193748D01*
X294022Y-193749D01*
X294022Y-193753D01*
X294330Y-193941D01*
X294336Y-193940D01*
X294337Y-193945D01*
X294670Y-194083D01*
X294676Y-194081D01*
X294677Y-194085D01*
X295028Y-194170D01*
X295034Y-194168D01*
X295036Y-194171D01*
X295396Y-194199D01*
X295399Y-194198D01*
X295400Y-194199D01*
X304600Y-194199D01*
X304602Y-194197D01*
G37*
G36*
X-315398Y-194197D02*
X-315398Y-194197D01*
X-315396Y-194199D01*
X-315036Y-194171D01*
X-315032Y-194167D01*
X-315028Y-194170D01*
X-314677Y-194085D01*
X-314674Y-194080D01*
X-314670Y-194083D01*
X-314337Y-193945D01*
X-314334Y-193940D01*
X-314330Y-193941D01*
X-314022Y-193753D01*
X-314020Y-193747D01*
X-314016Y-193748D01*
X-313742Y-193513D01*
X-313741Y-193508D01*
X-313737Y-193508D01*
X-313502Y-193234D01*
X-313501Y-193228D01*
X-313497Y-193228D01*
X-313309Y-192920D01*
X-313310Y-192914D01*
X-313306Y-192913D01*
X-313168Y-192580D01*
X-313169Y-192574D01*
X-313165Y-192573D01*
X-313080Y-192222D01*
X-313083Y-192216D01*
X-313079Y-192214D01*
X-313051Y-191854D01*
X-313053Y-191851D01*
X-313051Y-191850D01*
X-313079Y-186890D01*
X-313084Y-186883D01*
X-313080Y-186878D01*
X-313165Y-186527D01*
X-313170Y-186524D01*
X-313168Y-186520D01*
X-313306Y-186187D01*
X-313311Y-186184D01*
X-313309Y-186180D01*
X-313497Y-185872D01*
X-313503Y-185870D01*
X-313502Y-185866D01*
X-313737Y-185592D01*
X-313742Y-185591D01*
X-313742Y-185587D01*
X-314016Y-185352D01*
X-314022Y-185351D01*
X-314022Y-185347D01*
X-314330Y-185159D01*
X-314336Y-185160D01*
X-314337Y-185156D01*
X-314670Y-185018D01*
X-314676Y-185019D01*
X-314677Y-185015D01*
X-315028Y-184930D01*
X-315034Y-184933D01*
X-315036Y-184929D01*
X-315396Y-184901D01*
X-315399Y-184903D01*
X-315400Y-184901D01*
X-324600Y-184901D01*
X-324602Y-184903D01*
X-324604Y-184901D01*
X-324964Y-184929D01*
X-324968Y-184933D01*
X-324972Y-184930D01*
X-325323Y-185015D01*
X-325326Y-185020D01*
X-325330Y-185018D01*
X-325663Y-185156D01*
X-325666Y-185161D01*
X-325670Y-185159D01*
X-325978Y-185347D01*
X-325980Y-185353D01*
X-325984Y-185352D01*
X-326258Y-185587D01*
X-326259Y-185592D01*
X-326263Y-185592D01*
X-326498Y-185866D01*
X-326499Y-185872D01*
X-326503Y-185872D01*
X-326691Y-186180D01*
X-326690Y-186186D01*
X-326695Y-186187D01*
X-326833Y-186520D01*
X-326831Y-186526D01*
X-326835Y-186527D01*
X-326920Y-186878D01*
X-326918Y-186884D01*
X-326921Y-186886D01*
X-326949Y-187246D01*
X-326947Y-187249D01*
X-326949Y-187250D01*
X-326921Y-192210D01*
X-326916Y-192217D01*
X-326920Y-192222D01*
X-326835Y-192573D01*
X-326830Y-192576D01*
X-326833Y-192580D01*
X-326695Y-192913D01*
X-326690Y-192916D01*
X-326691Y-192920D01*
X-326503Y-193228D01*
X-326497Y-193230D01*
X-326498Y-193234D01*
X-326263Y-193508D01*
X-326258Y-193509D01*
X-326258Y-193513D01*
X-325984Y-193748D01*
X-325978Y-193749D01*
X-325978Y-193753D01*
X-325670Y-193941D01*
X-325664Y-193940D01*
X-325663Y-193945D01*
X-325330Y-194083D01*
X-325324Y-194081D01*
X-325323Y-194085D01*
X-324972Y-194170D01*
X-324966Y-194168D01*
X-324964Y-194171D01*
X-324604Y-194199D01*
X-324601Y-194198D01*
X-324600Y-194199D01*
X-315400Y-194199D01*
X-315398Y-194197D01*
G37*
G36*
X344602Y-194197D02*
X344602Y-194197D01*
X344604Y-194199D01*
X344964Y-194171D01*
X344968Y-194167D01*
X344972Y-194170D01*
X345323Y-194085D01*
X345326Y-194080D01*
X345330Y-194083D01*
X345663Y-193945D01*
X345666Y-193940D01*
X345670Y-193941D01*
X345978Y-193753D01*
X345980Y-193747D01*
X345984Y-193748D01*
X346258Y-193513D01*
X346259Y-193508D01*
X346263Y-193508D01*
X346498Y-193234D01*
X346499Y-193228D01*
X346503Y-193228D01*
X346691Y-192920D01*
X346690Y-192914D01*
X346695Y-192913D01*
X346833Y-192580D01*
X346831Y-192574D01*
X346835Y-192573D01*
X346920Y-192222D01*
X346918Y-192216D01*
X346921Y-192214D01*
X346949Y-191854D01*
X346947Y-191851D01*
X346949Y-191850D01*
X346921Y-186890D01*
X346916Y-186883D01*
X346920Y-186878D01*
X346835Y-186527D01*
X346830Y-186524D01*
X346833Y-186520D01*
X346695Y-186187D01*
X346690Y-186184D01*
X346691Y-186180D01*
X346503Y-185872D01*
X346497Y-185870D01*
X346498Y-185866D01*
X346263Y-185592D01*
X346258Y-185591D01*
X346258Y-185587D01*
X345984Y-185352D01*
X345978Y-185351D01*
X345978Y-185347D01*
X345670Y-185159D01*
X345664Y-185160D01*
X345663Y-185156D01*
X345330Y-185018D01*
X345324Y-185019D01*
X345323Y-185015D01*
X344972Y-184930D01*
X344966Y-184933D01*
X344964Y-184929D01*
X344604Y-184901D01*
X344601Y-184903D01*
X344600Y-184901D01*
X335400Y-184901D01*
X335398Y-184903D01*
X335396Y-184901D01*
X335036Y-184929D01*
X335032Y-184933D01*
X335028Y-184930D01*
X334677Y-185015D01*
X334674Y-185020D01*
X334670Y-185018D01*
X334337Y-185156D01*
X334334Y-185161D01*
X334330Y-185159D01*
X334022Y-185347D01*
X334020Y-185353D01*
X334016Y-185352D01*
X333742Y-185587D01*
X333741Y-185592D01*
X333737Y-185592D01*
X333502Y-185866D01*
X333501Y-185872D01*
X333497Y-185872D01*
X333309Y-186180D01*
X333310Y-186186D01*
X333306Y-186187D01*
X333168Y-186520D01*
X333169Y-186526D01*
X333165Y-186527D01*
X333080Y-186878D01*
X333083Y-186884D01*
X333079Y-186886D01*
X333051Y-187246D01*
X333053Y-187249D01*
X333051Y-187250D01*
X333079Y-192210D01*
X333084Y-192217D01*
X333080Y-192222D01*
X333165Y-192573D01*
X333170Y-192576D01*
X333168Y-192580D01*
X333306Y-192913D01*
X333311Y-192916D01*
X333309Y-192920D01*
X333497Y-193228D01*
X333503Y-193230D01*
X333502Y-193234D01*
X333737Y-193508D01*
X333742Y-193509D01*
X333742Y-193513D01*
X334016Y-193748D01*
X334022Y-193749D01*
X334022Y-193753D01*
X334330Y-193941D01*
X334336Y-193940D01*
X334337Y-193945D01*
X334670Y-194083D01*
X334676Y-194081D01*
X334677Y-194085D01*
X335028Y-194170D01*
X335034Y-194168D01*
X335036Y-194171D01*
X335396Y-194199D01*
X335399Y-194198D01*
X335400Y-194199D01*
X344600Y-194199D01*
X344602Y-194197D01*
G37*
G36*
X-395398Y-194197D02*
X-395398Y-194197D01*
X-395396Y-194199D01*
X-395036Y-194171D01*
X-395032Y-194167D01*
X-395028Y-194170D01*
X-394677Y-194085D01*
X-394674Y-194080D01*
X-394670Y-194083D01*
X-394337Y-193945D01*
X-394334Y-193940D01*
X-394330Y-193941D01*
X-394022Y-193753D01*
X-394020Y-193747D01*
X-394016Y-193748D01*
X-393742Y-193513D01*
X-393741Y-193508D01*
X-393737Y-193508D01*
X-393502Y-193234D01*
X-393501Y-193228D01*
X-393497Y-193228D01*
X-393309Y-192920D01*
X-393310Y-192914D01*
X-393306Y-192913D01*
X-393168Y-192580D01*
X-393169Y-192574D01*
X-393165Y-192573D01*
X-393080Y-192222D01*
X-393083Y-192216D01*
X-393079Y-192214D01*
X-393051Y-191854D01*
X-393053Y-191851D01*
X-393051Y-191850D01*
X-393079Y-186890D01*
X-393084Y-186883D01*
X-393080Y-186878D01*
X-393165Y-186527D01*
X-393170Y-186524D01*
X-393168Y-186520D01*
X-393306Y-186187D01*
X-393311Y-186184D01*
X-393309Y-186180D01*
X-393497Y-185872D01*
X-393503Y-185870D01*
X-393502Y-185866D01*
X-393737Y-185592D01*
X-393742Y-185591D01*
X-393742Y-185587D01*
X-394016Y-185352D01*
X-394022Y-185351D01*
X-394022Y-185347D01*
X-394330Y-185159D01*
X-394336Y-185160D01*
X-394337Y-185156D01*
X-394670Y-185018D01*
X-394676Y-185019D01*
X-394677Y-185015D01*
X-395028Y-184930D01*
X-395034Y-184933D01*
X-395036Y-184929D01*
X-395396Y-184901D01*
X-395399Y-184903D01*
X-395400Y-184901D01*
X-404600Y-184901D01*
X-404602Y-184903D01*
X-404604Y-184901D01*
X-404964Y-184929D01*
X-404968Y-184933D01*
X-404972Y-184930D01*
X-405323Y-185015D01*
X-405326Y-185020D01*
X-405330Y-185018D01*
X-405663Y-185156D01*
X-405666Y-185161D01*
X-405670Y-185159D01*
X-405978Y-185347D01*
X-405980Y-185353D01*
X-405984Y-185352D01*
X-406258Y-185587D01*
X-406259Y-185592D01*
X-406263Y-185592D01*
X-406498Y-185866D01*
X-406499Y-185872D01*
X-406503Y-185872D01*
X-406691Y-186180D01*
X-406690Y-186186D01*
X-406695Y-186187D01*
X-406833Y-186520D01*
X-406831Y-186526D01*
X-406835Y-186527D01*
X-406920Y-186878D01*
X-406918Y-186884D01*
X-406921Y-186886D01*
X-406949Y-187246D01*
X-406947Y-187249D01*
X-406949Y-187250D01*
X-406921Y-192210D01*
X-406916Y-192217D01*
X-406920Y-192222D01*
X-406835Y-192573D01*
X-406830Y-192576D01*
X-406833Y-192580D01*
X-406695Y-192913D01*
X-406690Y-192916D01*
X-406691Y-192920D01*
X-406503Y-193228D01*
X-406497Y-193230D01*
X-406498Y-193234D01*
X-406263Y-193508D01*
X-406258Y-193509D01*
X-406258Y-193513D01*
X-405984Y-193748D01*
X-405978Y-193749D01*
X-405978Y-193753D01*
X-405670Y-193941D01*
X-405664Y-193940D01*
X-405663Y-193945D01*
X-405330Y-194083D01*
X-405324Y-194081D01*
X-405323Y-194085D01*
X-404972Y-194170D01*
X-404966Y-194168D01*
X-404964Y-194171D01*
X-404604Y-194199D01*
X-404601Y-194198D01*
X-404600Y-194199D01*
X-395400Y-194199D01*
X-395398Y-194197D01*
G37*
G36*
X-232687Y70376D02*
X-232687Y70376D01*
X-232680Y70381D01*
X-232676Y70377D01*
X-232371Y70450D01*
X-232367Y70455D01*
X-232363Y70453D01*
X-232073Y70573D01*
X-232070Y70578D01*
X-232066Y70576D01*
X-231798Y70740D01*
X-231796Y70746D01*
X-231792Y70745D01*
X-231554Y70949D01*
X-231553Y70954D01*
X-231549Y70954D01*
X-231345Y71192D01*
X-231344Y71198D01*
X-231340Y71198D01*
X-231176Y71466D01*
X-231176Y71470D01*
X-231176Y71471D01*
X-231177Y71472D01*
X-231173Y71473D01*
X-231053Y71763D01*
X-231053Y71765D01*
X-231052Y71766D01*
X-231054Y71768D01*
X-231054Y71769D01*
X-231050Y71771D01*
X-230977Y72076D01*
X-230979Y72081D01*
X-230976Y72083D01*
X-230951Y72396D01*
X-230953Y72399D01*
X-230951Y72400D01*
X-230951Y80900D01*
X-230953Y80902D01*
X-230951Y80904D01*
X-230976Y81217D01*
X-230980Y81221D01*
X-230977Y81224D01*
X-231050Y81529D01*
X-231055Y81533D01*
X-231053Y81537D01*
X-231173Y81827D01*
X-231178Y81830D01*
X-231176Y81834D01*
X-231340Y82102D01*
X-231346Y82104D01*
X-231345Y82108D01*
X-231549Y82346D01*
X-231554Y82347D01*
X-231554Y82351D01*
X-231792Y82555D01*
X-231798Y82556D01*
X-231798Y82560D01*
X-232066Y82724D01*
X-232072Y82723D01*
X-232073Y82728D01*
X-232363Y82848D01*
X-232369Y82846D01*
X-232371Y82850D01*
X-232676Y82923D01*
X-232681Y82921D01*
X-232683Y82924D01*
X-232996Y82949D01*
X-232999Y82947D01*
X-233000Y82949D01*
X-237313Y82924D01*
X-237320Y82919D01*
X-237324Y82923D01*
X-237629Y82850D01*
X-237633Y82845D01*
X-237637Y82848D01*
X-237927Y82728D01*
X-237930Y82722D01*
X-237934Y82724D01*
X-238202Y82560D01*
X-238204Y82555D01*
X-238208Y82555D01*
X-238446Y82351D01*
X-238447Y82346D01*
X-238451Y82346D01*
X-238655Y82108D01*
X-238656Y82102D01*
X-238660Y82102D01*
X-238824Y81834D01*
X-238823Y81828D01*
X-238828Y81827D01*
X-238948Y81537D01*
X-238946Y81531D01*
X-238950Y81529D01*
X-239023Y81224D01*
X-239021Y81219D01*
X-239024Y81217D01*
X-239049Y80904D01*
X-239047Y80901D01*
X-239049Y80900D01*
X-239049Y72400D01*
X-239047Y72398D01*
X-239049Y72396D01*
X-239024Y72083D01*
X-239020Y72079D01*
X-239023Y72076D01*
X-238950Y71771D01*
X-238945Y71767D01*
X-238948Y71763D01*
X-238828Y71473D01*
X-238822Y71470D01*
X-238824Y71466D01*
X-238660Y71198D01*
X-238655Y71196D01*
X-238655Y71192D01*
X-238451Y70954D01*
X-238446Y70953D01*
X-238446Y70949D01*
X-238208Y70745D01*
X-238202Y70744D01*
X-238202Y70740D01*
X-237934Y70576D01*
X-237928Y70577D01*
X-237927Y70573D01*
X-237637Y70453D01*
X-237631Y70454D01*
X-237629Y70450D01*
X-237324Y70377D01*
X-237319Y70379D01*
X-237317Y70376D01*
X-237004Y70351D01*
X-237001Y70353D01*
X-237000Y70351D01*
X-232687Y70376D01*
G37*
G36*
X-257687Y150376D02*
X-257687Y150376D01*
X-257680Y150381D01*
X-257676Y150377D01*
X-257371Y150450D01*
X-257367Y150455D01*
X-257363Y150453D01*
X-257073Y150573D01*
X-257070Y150578D01*
X-257066Y150576D01*
X-256798Y150740D01*
X-256796Y150746D01*
X-256792Y150745D01*
X-256554Y150949D01*
X-256553Y150954D01*
X-256549Y150954D01*
X-256345Y151192D01*
X-256344Y151198D01*
X-256340Y151198D01*
X-256176Y151466D01*
X-256176Y151470D01*
X-256176Y151471D01*
X-256177Y151472D01*
X-256173Y151473D01*
X-256053Y151763D01*
X-256053Y151765D01*
X-256052Y151766D01*
X-256054Y151768D01*
X-256054Y151769D01*
X-256050Y151771D01*
X-255977Y152076D01*
X-255979Y152081D01*
X-255976Y152083D01*
X-255951Y152396D01*
X-255953Y152399D01*
X-255951Y152400D01*
X-255951Y160900D01*
X-255953Y160902D01*
X-255951Y160904D01*
X-255976Y161217D01*
X-255980Y161221D01*
X-255977Y161224D01*
X-256050Y161529D01*
X-256055Y161533D01*
X-256053Y161537D01*
X-256173Y161827D01*
X-256178Y161830D01*
X-256176Y161834D01*
X-256340Y162102D01*
X-256346Y162104D01*
X-256345Y162108D01*
X-256549Y162346D01*
X-256554Y162347D01*
X-256554Y162351D01*
X-256792Y162555D01*
X-256798Y162556D01*
X-256798Y162560D01*
X-257066Y162724D01*
X-257072Y162723D01*
X-257073Y162728D01*
X-257363Y162848D01*
X-257369Y162846D01*
X-257371Y162850D01*
X-257676Y162923D01*
X-257681Y162921D01*
X-257683Y162924D01*
X-257996Y162949D01*
X-257999Y162947D01*
X-258000Y162949D01*
X-262313Y162924D01*
X-262320Y162919D01*
X-262324Y162923D01*
X-262629Y162850D01*
X-262633Y162845D01*
X-262637Y162848D01*
X-262927Y162728D01*
X-262930Y162722D01*
X-262934Y162724D01*
X-263202Y162560D01*
X-263204Y162555D01*
X-263208Y162555D01*
X-263446Y162351D01*
X-263447Y162346D01*
X-263451Y162346D01*
X-263655Y162108D01*
X-263656Y162102D01*
X-263660Y162102D01*
X-263824Y161834D01*
X-263823Y161828D01*
X-263828Y161827D01*
X-263948Y161537D01*
X-263946Y161531D01*
X-263950Y161529D01*
X-264023Y161224D01*
X-264021Y161219D01*
X-264024Y161217D01*
X-264049Y160904D01*
X-264047Y160901D01*
X-264049Y160900D01*
X-264049Y152400D01*
X-264047Y152398D01*
X-264049Y152396D01*
X-264024Y152083D01*
X-264020Y152079D01*
X-264023Y152076D01*
X-263950Y151771D01*
X-263945Y151767D01*
X-263948Y151763D01*
X-263828Y151473D01*
X-263822Y151470D01*
X-263824Y151466D01*
X-263660Y151198D01*
X-263655Y151196D01*
X-263655Y151192D01*
X-263451Y150954D01*
X-263446Y150953D01*
X-263446Y150949D01*
X-263208Y150745D01*
X-263202Y150744D01*
X-263202Y150740D01*
X-262934Y150576D01*
X-262928Y150577D01*
X-262927Y150573D01*
X-262637Y150453D01*
X-262631Y150454D01*
X-262629Y150450D01*
X-262324Y150377D01*
X-262319Y150379D01*
X-262317Y150376D01*
X-262004Y150351D01*
X-262001Y150353D01*
X-262000Y150351D01*
X-257687Y150376D01*
G37*
G36*
X-257687Y117076D02*
X-257687Y117076D01*
X-257680Y117081D01*
X-257676Y117077D01*
X-257371Y117150D01*
X-257367Y117155D01*
X-257363Y117153D01*
X-257073Y117273D01*
X-257070Y117278D01*
X-257066Y117276D01*
X-256798Y117440D01*
X-256796Y117446D01*
X-256792Y117445D01*
X-256554Y117649D01*
X-256553Y117654D01*
X-256549Y117654D01*
X-256345Y117892D01*
X-256344Y117898D01*
X-256340Y117898D01*
X-256176Y118166D01*
X-256176Y118170D01*
X-256176Y118171D01*
X-256177Y118172D01*
X-256173Y118173D01*
X-256053Y118463D01*
X-256053Y118465D01*
X-256052Y118466D01*
X-256054Y118468D01*
X-256054Y118469D01*
X-256050Y118471D01*
X-255977Y118776D01*
X-255979Y118781D01*
X-255976Y118783D01*
X-255951Y119096D01*
X-255953Y119099D01*
X-255951Y119100D01*
X-255951Y127600D01*
X-255953Y127602D01*
X-255951Y127604D01*
X-255976Y127917D01*
X-255980Y127921D01*
X-255977Y127924D01*
X-256050Y128229D01*
X-256055Y128233D01*
X-256053Y128237D01*
X-256173Y128527D01*
X-256178Y128530D01*
X-256176Y128534D01*
X-256340Y128802D01*
X-256346Y128804D01*
X-256345Y128808D01*
X-256549Y129046D01*
X-256554Y129047D01*
X-256554Y129051D01*
X-256792Y129255D01*
X-256798Y129256D01*
X-256798Y129260D01*
X-257066Y129424D01*
X-257072Y129423D01*
X-257073Y129428D01*
X-257363Y129548D01*
X-257369Y129546D01*
X-257371Y129550D01*
X-257676Y129623D01*
X-257681Y129621D01*
X-257683Y129624D01*
X-257996Y129649D01*
X-257999Y129647D01*
X-258000Y129649D01*
X-262313Y129624D01*
X-262320Y129619D01*
X-262324Y129623D01*
X-262629Y129550D01*
X-262633Y129545D01*
X-262637Y129548D01*
X-262927Y129428D01*
X-262930Y129422D01*
X-262934Y129424D01*
X-263202Y129260D01*
X-263204Y129255D01*
X-263208Y129255D01*
X-263446Y129051D01*
X-263447Y129046D01*
X-263451Y129046D01*
X-263655Y128808D01*
X-263656Y128802D01*
X-263660Y128802D01*
X-263824Y128534D01*
X-263823Y128528D01*
X-263828Y128527D01*
X-263948Y128237D01*
X-263946Y128231D01*
X-263950Y128229D01*
X-264023Y127924D01*
X-264021Y127919D01*
X-264024Y127917D01*
X-264049Y127604D01*
X-264047Y127601D01*
X-264049Y127600D01*
X-264049Y119100D01*
X-264047Y119098D01*
X-264049Y119096D01*
X-264024Y118783D01*
X-264020Y118779D01*
X-264023Y118776D01*
X-263950Y118471D01*
X-263945Y118467D01*
X-263948Y118463D01*
X-263828Y118173D01*
X-263822Y118170D01*
X-263824Y118166D01*
X-263660Y117898D01*
X-263655Y117896D01*
X-263655Y117892D01*
X-263451Y117654D01*
X-263446Y117653D01*
X-263446Y117649D01*
X-263208Y117445D01*
X-263202Y117444D01*
X-263202Y117440D01*
X-262934Y117276D01*
X-262928Y117277D01*
X-262927Y117273D01*
X-262637Y117153D01*
X-262631Y117154D01*
X-262629Y117150D01*
X-262324Y117077D01*
X-262319Y117079D01*
X-262317Y117076D01*
X-262004Y117051D01*
X-262001Y117053D01*
X-262000Y117051D01*
X-257687Y117076D01*
G37*
G36*
X-232687Y37076D02*
X-232687Y37076D01*
X-232680Y37081D01*
X-232676Y37077D01*
X-232371Y37150D01*
X-232367Y37155D01*
X-232363Y37153D01*
X-232073Y37273D01*
X-232070Y37278D01*
X-232066Y37276D01*
X-231798Y37440D01*
X-231796Y37446D01*
X-231792Y37445D01*
X-231554Y37649D01*
X-231553Y37654D01*
X-231549Y37654D01*
X-231345Y37892D01*
X-231344Y37898D01*
X-231340Y37898D01*
X-231176Y38166D01*
X-231176Y38170D01*
X-231176Y38171D01*
X-231177Y38172D01*
X-231173Y38173D01*
X-231053Y38463D01*
X-231053Y38465D01*
X-231052Y38466D01*
X-231054Y38468D01*
X-231054Y38469D01*
X-231050Y38471D01*
X-230977Y38776D01*
X-230979Y38781D01*
X-230976Y38783D01*
X-230951Y39096D01*
X-230953Y39099D01*
X-230951Y39100D01*
X-230951Y47600D01*
X-230953Y47602D01*
X-230951Y47604D01*
X-230976Y47917D01*
X-230980Y47921D01*
X-230977Y47924D01*
X-231050Y48229D01*
X-231055Y48233D01*
X-231053Y48237D01*
X-231173Y48527D01*
X-231178Y48530D01*
X-231176Y48534D01*
X-231340Y48802D01*
X-231346Y48804D01*
X-231345Y48808D01*
X-231549Y49046D01*
X-231554Y49047D01*
X-231554Y49051D01*
X-231792Y49255D01*
X-231798Y49256D01*
X-231798Y49260D01*
X-232066Y49424D01*
X-232072Y49423D01*
X-232073Y49428D01*
X-232363Y49548D01*
X-232369Y49546D01*
X-232371Y49550D01*
X-232676Y49623D01*
X-232681Y49621D01*
X-232683Y49624D01*
X-232996Y49649D01*
X-232999Y49647D01*
X-233000Y49649D01*
X-237313Y49624D01*
X-237320Y49619D01*
X-237324Y49623D01*
X-237629Y49550D01*
X-237633Y49545D01*
X-237637Y49548D01*
X-237927Y49428D01*
X-237930Y49422D01*
X-237934Y49424D01*
X-238202Y49260D01*
X-238204Y49255D01*
X-238208Y49255D01*
X-238446Y49051D01*
X-238447Y49046D01*
X-238451Y49046D01*
X-238655Y48808D01*
X-238656Y48802D01*
X-238660Y48802D01*
X-238824Y48534D01*
X-238823Y48528D01*
X-238828Y48527D01*
X-238948Y48237D01*
X-238946Y48231D01*
X-238950Y48229D01*
X-239023Y47924D01*
X-239021Y47919D01*
X-239024Y47917D01*
X-239049Y47604D01*
X-239047Y47601D01*
X-239049Y47600D01*
X-239049Y39100D01*
X-239047Y39098D01*
X-239049Y39096D01*
X-239024Y38783D01*
X-239020Y38779D01*
X-239023Y38776D01*
X-238950Y38471D01*
X-238945Y38467D01*
X-238948Y38463D01*
X-238828Y38173D01*
X-238822Y38170D01*
X-238824Y38166D01*
X-238660Y37898D01*
X-238655Y37896D01*
X-238655Y37892D01*
X-238451Y37654D01*
X-238446Y37653D01*
X-238446Y37649D01*
X-238208Y37445D01*
X-238202Y37444D01*
X-238202Y37440D01*
X-237934Y37276D01*
X-237928Y37277D01*
X-237927Y37273D01*
X-237637Y37153D01*
X-237631Y37154D01*
X-237629Y37150D01*
X-237324Y37077D01*
X-237319Y37079D01*
X-237317Y37076D01*
X-237004Y37051D01*
X-237001Y37053D01*
X-237000Y37051D01*
X-232687Y37076D01*
G37*
D10*
X-60000Y130000D03*
X10000Y130000D03*
D11*
X182000Y176500D03*
X182000Y170000D03*
X182000Y163500D03*
X198000Y163500D03*
X198000Y170000D03*
X198000Y176500D03*
D12*
X-25400Y75400D03*
X25400Y75400D03*
X-25400Y50000D03*
X25400Y50000D03*
X-25400Y24600D03*
X25400Y24600D03*
D13*
X-104000Y-315000D03*
X-176000Y-315000D03*
X-104000Y-345000D03*
X-176000Y-345000D03*
X-104000Y-215000D03*
X-176000Y-215000D03*
X-104000Y-245000D03*
X-176000Y-245000D03*
D14*
X-305000Y-316000D03*
X-305000Y-244000D03*
X-335000Y-316000D03*
X-335000Y-244000D03*
D15*
X236190Y157500D03*
X236190Y112500D03*
X236190Y107500D03*
X236190Y102500D03*
X236190Y97500D03*
X236190Y92500D03*
X236190Y87500D03*
X236190Y82500D03*
D16*
X247500Y71190D03*
X252500Y71190D03*
X257500Y71190D03*
D15*
X236190Y152500D03*
D16*
X262500Y71190D03*
X267500Y71190D03*
X272500Y71190D03*
X277500Y71190D03*
X282500Y71190D03*
X287500Y71190D03*
X292500Y71190D03*
X297500Y71190D03*
X302500Y71190D03*
X307500Y71190D03*
D15*
X236190Y147500D03*
D16*
X312500Y71190D03*
X317500Y71190D03*
X322500Y71190D03*
D15*
X333810Y82500D03*
X333810Y87500D03*
X333810Y92500D03*
X333810Y97500D03*
X333810Y102500D03*
X333810Y107500D03*
X333810Y112500D03*
X236190Y142500D03*
X333810Y117500D03*
X333810Y122500D03*
X333810Y127500D03*
X333810Y132500D03*
X333810Y137500D03*
X333810Y142500D03*
X333810Y147500D03*
X333810Y152500D03*
X333810Y157500D03*
D16*
X322500Y168810D03*
D15*
X236190Y137500D03*
D16*
X317500Y168810D03*
X312500Y168810D03*
X307500Y168810D03*
X302500Y168810D03*
X297500Y168810D03*
X292500Y168810D03*
X287500Y168810D03*
X282500Y168810D03*
X277500Y168810D03*
X272500Y168810D03*
D15*
X236190Y132500D03*
D16*
X267500Y168810D03*
X262500Y168810D03*
X257500Y168810D03*
X252500Y168810D03*
X247500Y168810D03*
D15*
X236190Y127500D03*
X236190Y122500D03*
X236190Y117500D03*
D17*
X303500Y221500D03*
X266500Y221500D03*
X266500Y198500D03*
X303500Y198500D03*
D18*
X-1105000Y-270000D03*
X-1105000Y270000D03*
X-1105000Y270000D03*
X-565000Y-270000D03*
X-565000Y270000D03*
X1105000Y270000D03*
X1105000Y-270000D03*
X1105000Y-270000D03*
X565000Y270000D03*
X565000Y-270000D03*
D19*
X-378000Y-305000D03*
X-402000Y-280000D03*
X-378000Y-255000D03*
D20*
X176560Y47750D03*
X176560Y106250D03*
X176560Y112750D03*
X176560Y119250D03*
X176560Y125750D03*
X176560Y132250D03*
X103440Y132250D03*
X103440Y125750D03*
X103440Y119250D03*
X103440Y112750D03*
X103440Y106250D03*
X176560Y54250D03*
X103440Y99750D03*
X103440Y93250D03*
X103440Y86750D03*
X103440Y80250D03*
X103440Y73750D03*
X103440Y67250D03*
X103440Y60750D03*
X103440Y54250D03*
X103440Y47750D03*
X176560Y60750D03*
X176560Y67250D03*
X176560Y73750D03*
X176560Y80250D03*
X176560Y86750D03*
X176560Y93250D03*
X176560Y99750D03*
D21*
X-304500Y86999D03*
X-295000Y86999D03*
X-285500Y86999D03*
X-285500Y113001D03*
X-304500Y113001D03*
D22*
X-22750Y-98717D03*
X16250Y-41283D03*
X9750Y-41283D03*
X3250Y-41283D03*
X-3250Y-41283D03*
X-9750Y-41283D03*
X-16250Y-41283D03*
X-22750Y-41283D03*
X-16250Y-98717D03*
X-9750Y-98717D03*
X-3250Y-98717D03*
X3250Y-98717D03*
X9750Y-98717D03*
X16250Y-98717D03*
X22750Y-98717D03*
X22750Y-41283D03*
D19*
X378000Y-255000D03*
X402000Y-280000D03*
X378000Y-305000D03*
D23*
X-87000Y265000D03*
D24*
X-88000Y291750D03*
D25*
X-138000Y291750D03*
D23*
X-93500Y265000D03*
X-100000Y265000D03*
X-106500Y265000D03*
X-113000Y265000D03*
D26*
X-131000Y266250D03*
X-69000Y266250D03*
D25*
X-62000Y291750D03*
D24*
X-112000Y291750D03*
D27*
X-400000Y149500D03*
D28*
X-400000Y-30500D03*
X-400000Y-50500D03*
X-400000Y-70500D03*
X-400000Y109500D03*
X-400000Y89500D03*
X-400000Y49500D03*
X-400000Y29500D03*
X-400000Y9500D03*
X-400000Y-10500D03*
X-400000Y69500D03*
X-400000Y129500D03*
D27*
X400000Y-70000D03*
D28*
X400000Y110000D03*
X400000Y130000D03*
X400000Y150000D03*
X400000Y-30000D03*
X400000Y-10000D03*
X400000Y30000D03*
X400000Y50000D03*
X400000Y70000D03*
X400000Y90000D03*
X400000Y10000D03*
X400000Y-50000D03*
D29*
X-76350Y-133500D03*
X-76350Y-108100D03*
X-76350Y-82700D03*
X-76350Y-57300D03*
X-76350Y-31900D03*
X-76350Y-6500D03*
X76350Y-6500D03*
X76350Y-31900D03*
X76350Y-57300D03*
X76350Y-82700D03*
X76350Y-108100D03*
X76350Y-133500D03*
D30*
X-20000Y-170000D03*
X60000Y-170000D03*
X-60000Y-170000D03*
X20000Y-170000D03*
D13*
X226000Y-265000D03*
X154000Y-265000D03*
X226000Y-295000D03*
X154000Y-295000D03*
D14*
X245000Y-244000D03*
X245000Y-316000D03*
X275000Y-244000D03*
X275000Y-316000D03*
X135000Y-316000D03*
X135000Y-244000D03*
X105000Y-316000D03*
X105000Y-244000D03*
D13*
X226000Y-335000D03*
X154000Y-335000D03*
X226000Y-365000D03*
X154000Y-365000D03*
X226000Y-195000D03*
X154000Y-195000D03*
X226000Y-225000D03*
X154000Y-225000D03*
D18*
X-57000Y-280000D03*
X57000Y-280000D03*
D31*
X-25000Y-355000D03*
X25000Y-355000D03*
D32*
X-25000Y-210000D03*
D31*
X25000Y-210000D03*
X0Y-355000D03*
D33*
X337000Y-222500D03*
X323000Y-222500D03*
X337000Y-257500D03*
X323000Y-257500D03*
X337000Y-302500D03*
X323000Y-302500D03*
X337000Y-337500D03*
X323000Y-337500D03*
X-233000Y-302500D03*
X-247000Y-302500D03*
X-233000Y-337500D03*
X-247000Y-337500D03*
X-233000Y-222500D03*
X-247000Y-222500D03*
X-233000Y-257500D03*
X-247000Y-257500D03*
D18*
X-375000Y-115000D03*
X-375000Y195000D03*
X375000Y-115000D03*
X375000Y195000D03*
D34*
X-148600Y216363D03*
X-123200Y183363D03*
X-97800Y216363D03*
X-72400Y183363D03*
X-47000Y216363D03*
X-21600Y183363D03*
X3800Y216363D03*
X29200Y183363D03*
X54600Y216363D03*
X80000Y183363D03*
D35*
X9953Y301686D03*
D36*
X-323500Y201350D03*
X-298100Y201350D03*
X-272700Y201350D03*
X-247300Y201350D03*
X-221900Y201350D03*
X-196500Y201350D03*
D37*
X-196000Y142500D03*
X-196000Y117500D03*
D38*
X-124000Y117500D03*
X-124000Y142500D03*
D39*
X-160000Y142700D03*
D40*
X-160000Y117300D03*
D41*
X-87712Y-481482D02*
X-87712Y-497738D01*
X-92228Y-481482D02*
X-83197Y-481482D01*
X-77778Y-490513D02*
X-77778Y-494126D01*
X-77777Y-490513D02*
X-77775Y-490394D01*
X-77769Y-490274D01*
X-77759Y-490155D01*
X-77745Y-490037D01*
X-77728Y-489918D01*
X-77706Y-489801D01*
X-77681Y-489684D01*
X-77651Y-489569D01*
X-77618Y-489454D01*
X-77581Y-489340D01*
X-77541Y-489228D01*
X-77496Y-489117D01*
X-77448Y-489008D01*
X-77397Y-488900D01*
X-77342Y-488794D01*
X-77283Y-488690D01*
X-77221Y-488588D01*
X-77156Y-488488D01*
X-77087Y-488390D01*
X-77015Y-488294D01*
X-76940Y-488201D01*
X-76863Y-488111D01*
X-76782Y-488023D01*
X-76698Y-487938D01*
X-76611Y-487856D01*
X-76522Y-487776D01*
X-76430Y-487700D01*
X-76336Y-487626D01*
X-76239Y-487556D01*
X-76141Y-487489D01*
X-76040Y-487425D01*
X-75936Y-487365D01*
X-75831Y-487308D01*
X-75724Y-487255D01*
X-75616Y-487205D01*
X-75506Y-487159D01*
X-75394Y-487117D01*
X-75281Y-487078D01*
X-75167Y-487043D01*
X-75052Y-487012D01*
X-74935Y-486984D01*
X-74818Y-486961D01*
X-74701Y-486941D01*
X-74582Y-486925D01*
X-74463Y-486913D01*
X-74344Y-486905D01*
X-74225Y-486901D01*
X-74105Y-486901D01*
X-73986Y-486905D01*
X-73867Y-486913D01*
X-73748Y-486925D01*
X-73629Y-486941D01*
X-73512Y-486961D01*
X-73395Y-486984D01*
X-73278Y-487012D01*
X-73163Y-487043D01*
X-73049Y-487078D01*
X-72936Y-487117D01*
X-72824Y-487159D01*
X-72714Y-487205D01*
X-72606Y-487255D01*
X-72499Y-487308D01*
X-72394Y-487365D01*
X-72290Y-487425D01*
X-72189Y-487489D01*
X-72091Y-487556D01*
X-71994Y-487626D01*
X-71900Y-487700D01*
X-71808Y-487776D01*
X-71719Y-487856D01*
X-71632Y-487938D01*
X-71548Y-488023D01*
X-71467Y-488111D01*
X-71390Y-488201D01*
X-71315Y-488294D01*
X-71243Y-488390D01*
X-71174Y-488488D01*
X-71109Y-488588D01*
X-71047Y-488690D01*
X-70988Y-488794D01*
X-70933Y-488900D01*
X-70882Y-489008D01*
X-70834Y-489117D01*
X-70789Y-489228D01*
X-70749Y-489340D01*
X-70712Y-489454D01*
X-70679Y-489569D01*
X-70649Y-489684D01*
X-70624Y-489801D01*
X-70602Y-489918D01*
X-70585Y-490037D01*
X-70571Y-490155D01*
X-70561Y-490274D01*
X-70555Y-490394D01*
X-70553Y-490513D01*
X-70553Y-494126D01*
X-70555Y-494245D01*
X-70561Y-494365D01*
X-70571Y-494484D01*
X-70585Y-494602D01*
X-70602Y-494721D01*
X-70624Y-494838D01*
X-70649Y-494955D01*
X-70679Y-495070D01*
X-70712Y-495185D01*
X-70749Y-495299D01*
X-70789Y-495411D01*
X-70834Y-495522D01*
X-70882Y-495631D01*
X-70933Y-495739D01*
X-70988Y-495845D01*
X-71047Y-495949D01*
X-71109Y-496051D01*
X-71174Y-496151D01*
X-71243Y-496249D01*
X-71315Y-496345D01*
X-71390Y-496438D01*
X-71467Y-496528D01*
X-71548Y-496616D01*
X-71632Y-496701D01*
X-71719Y-496783D01*
X-71808Y-496863D01*
X-71900Y-496939D01*
X-71994Y-497013D01*
X-72091Y-497083D01*
X-72189Y-497150D01*
X-72290Y-497214D01*
X-72394Y-497274D01*
X-72499Y-497331D01*
X-72606Y-497384D01*
X-72714Y-497434D01*
X-72824Y-497480D01*
X-72936Y-497522D01*
X-73049Y-497561D01*
X-73163Y-497596D01*
X-73278Y-497627D01*
X-73395Y-497655D01*
X-73512Y-497678D01*
X-73629Y-497698D01*
X-73748Y-497714D01*
X-73867Y-497726D01*
X-73986Y-497734D01*
X-74105Y-497738D01*
X-74225Y-497738D01*
X-74344Y-497734D01*
X-74463Y-497726D01*
X-74582Y-497714D01*
X-74701Y-497698D01*
X-74818Y-497678D01*
X-74935Y-497655D01*
X-75052Y-497627D01*
X-75167Y-497596D01*
X-75281Y-497561D01*
X-75394Y-497522D01*
X-75506Y-497480D01*
X-75616Y-497434D01*
X-75724Y-497384D01*
X-75831Y-497331D01*
X-75936Y-497274D01*
X-76040Y-497214D01*
X-76141Y-497150D01*
X-76239Y-497083D01*
X-76336Y-497013D01*
X-76430Y-496939D01*
X-76522Y-496863D01*
X-76611Y-496783D01*
X-76698Y-496701D01*
X-76782Y-496616D01*
X-76863Y-496528D01*
X-76940Y-496438D01*
X-77015Y-496345D01*
X-77087Y-496249D01*
X-77156Y-496151D01*
X-77221Y-496051D01*
X-77283Y-495949D01*
X-77342Y-495845D01*
X-77397Y-495739D01*
X-77448Y-495631D01*
X-77496Y-495522D01*
X-77541Y-495411D01*
X-77581Y-495299D01*
X-77618Y-495185D01*
X-77651Y-495070D01*
X-77681Y-494955D01*
X-77706Y-494838D01*
X-77728Y-494721D01*
X-77745Y-494602D01*
X-77759Y-494484D01*
X-77769Y-494365D01*
X-77775Y-494245D01*
X-77777Y-494126D01*
X-63636Y-486901D02*
X-63636Y-503157D01*
X-63636Y-486901D02*
X-59121Y-486901D01*
X-59017Y-486903D01*
X-58914Y-486909D01*
X-58810Y-486919D01*
X-58707Y-486933D01*
X-58605Y-486951D01*
X-58504Y-486972D01*
X-58403Y-486998D01*
X-58304Y-487027D01*
X-58205Y-487060D01*
X-58108Y-487097D01*
X-58013Y-487138D01*
X-57919Y-487182D01*
X-57827Y-487230D01*
X-57737Y-487281D01*
X-57648Y-487336D01*
X-57562Y-487394D01*
X-57479Y-487456D01*
X-57397Y-487520D01*
X-57319Y-487588D01*
X-57243Y-487658D01*
X-57169Y-487731D01*
X-57099Y-487808D01*
X-57031Y-487886D01*
X-56967Y-487968D01*
X-56905Y-488051D01*
X-56847Y-488137D01*
X-56792Y-488226D01*
X-56741Y-488316D01*
X-56693Y-488408D01*
X-56649Y-488502D01*
X-56608Y-488597D01*
X-56571Y-488694D01*
X-56538Y-488793D01*
X-56509Y-488892D01*
X-56483Y-488993D01*
X-56462Y-489094D01*
X-56444Y-489196D01*
X-56430Y-489299D01*
X-56420Y-489403D01*
X-56414Y-489506D01*
X-56412Y-489610D01*
X-56411Y-489610D02*
X-56411Y-495029D01*
X-56412Y-495029D02*
X-56414Y-495130D01*
X-56420Y-495231D01*
X-56429Y-495332D01*
X-56442Y-495433D01*
X-56459Y-495533D01*
X-56480Y-495632D01*
X-56504Y-495730D01*
X-56532Y-495827D01*
X-56564Y-495924D01*
X-56599Y-496019D01*
X-56638Y-496112D01*
X-56680Y-496204D01*
X-56726Y-496295D01*
X-56775Y-496384D01*
X-56827Y-496470D01*
X-56883Y-496555D01*
X-56941Y-496638D01*
X-57003Y-496718D01*
X-57068Y-496796D01*
X-57135Y-496872D01*
X-57205Y-496945D01*
X-57278Y-497015D01*
X-57354Y-497082D01*
X-57432Y-497147D01*
X-57512Y-497209D01*
X-57595Y-497267D01*
X-57680Y-497323D01*
X-57767Y-497375D01*
X-57855Y-497424D01*
X-57946Y-497470D01*
X-58038Y-497512D01*
X-58131Y-497551D01*
X-58226Y-497586D01*
X-58323Y-497618D01*
X-58420Y-497646D01*
X-58518Y-497670D01*
X-58617Y-497691D01*
X-58717Y-497708D01*
X-58818Y-497721D01*
X-58919Y-497730D01*
X-59020Y-497736D01*
X-59121Y-497738D01*
X-63636Y-497738D01*
X-36789Y-497738D02*
X-36671Y-497736D01*
X-36553Y-497730D01*
X-36435Y-497721D01*
X-36318Y-497707D01*
X-36201Y-497690D01*
X-36084Y-497669D01*
X-35969Y-497644D01*
X-35854Y-497615D01*
X-35740Y-497582D01*
X-35628Y-497546D01*
X-35517Y-497506D01*
X-35407Y-497463D01*
X-35298Y-497416D01*
X-35191Y-497366D01*
X-35086Y-497311D01*
X-34983Y-497254D01*
X-34882Y-497193D01*
X-34782Y-497129D01*
X-34685Y-497062D01*
X-34590Y-496992D01*
X-34498Y-496918D01*
X-34407Y-496842D01*
X-34320Y-496762D01*
X-34235Y-496680D01*
X-34153Y-496595D01*
X-34073Y-496508D01*
X-33997Y-496417D01*
X-33923Y-496325D01*
X-33853Y-496230D01*
X-33786Y-496133D01*
X-33722Y-496033D01*
X-33661Y-495932D01*
X-33604Y-495829D01*
X-33549Y-495724D01*
X-33499Y-495617D01*
X-33452Y-495508D01*
X-33409Y-495398D01*
X-33369Y-495287D01*
X-33333Y-495175D01*
X-33300Y-495061D01*
X-33271Y-494946D01*
X-33246Y-494831D01*
X-33225Y-494714D01*
X-33208Y-494597D01*
X-33194Y-494480D01*
X-33185Y-494362D01*
X-33179Y-494244D01*
X-33177Y-494126D01*
X-36789Y-497738D02*
X-36972Y-497736D01*
X-37154Y-497729D01*
X-37336Y-497718D01*
X-37518Y-497703D01*
X-37700Y-497683D01*
X-37881Y-497659D01*
X-38061Y-497631D01*
X-38241Y-497599D01*
X-38420Y-497562D01*
X-38597Y-497521D01*
X-38774Y-497475D01*
X-38950Y-497426D01*
X-39125Y-497372D01*
X-39298Y-497314D01*
X-39469Y-497252D01*
X-39640Y-497186D01*
X-39808Y-497115D01*
X-39975Y-497041D01*
X-40140Y-496963D01*
X-40303Y-496881D01*
X-40464Y-496795D01*
X-40623Y-496705D01*
X-40780Y-496611D01*
X-40934Y-496514D01*
X-41086Y-496413D01*
X-41236Y-496308D01*
X-41383Y-496200D01*
X-41527Y-496089D01*
X-41669Y-495974D01*
X-41808Y-495855D01*
X-41944Y-495733D01*
X-42077Y-495608D01*
X-42207Y-495480D01*
X-41757Y-485094D02*
X-41755Y-484976D01*
X-41749Y-484858D01*
X-41740Y-484740D01*
X-41726Y-484622D01*
X-41709Y-484505D01*
X-41688Y-484389D01*
X-41663Y-484274D01*
X-41634Y-484159D01*
X-41601Y-484045D01*
X-41565Y-483933D01*
X-41525Y-483821D01*
X-41482Y-483711D01*
X-41435Y-483603D01*
X-41384Y-483496D01*
X-41330Y-483391D01*
X-41273Y-483288D01*
X-41212Y-483186D01*
X-41148Y-483087D01*
X-41081Y-482990D01*
X-41010Y-482895D01*
X-40937Y-482802D01*
X-40860Y-482712D01*
X-40781Y-482624D01*
X-40699Y-482539D01*
X-40614Y-482457D01*
X-40526Y-482378D01*
X-40436Y-482301D01*
X-40343Y-482228D01*
X-40249Y-482157D01*
X-40151Y-482090D01*
X-40052Y-482026D01*
X-39951Y-481965D01*
X-39847Y-481908D01*
X-39742Y-481854D01*
X-39635Y-481803D01*
X-39527Y-481756D01*
X-39417Y-481713D01*
X-39305Y-481673D01*
X-39193Y-481637D01*
X-39079Y-481604D01*
X-38964Y-481575D01*
X-38849Y-481550D01*
X-38733Y-481529D01*
X-38616Y-481512D01*
X-38498Y-481498D01*
X-38380Y-481489D01*
X-38262Y-481483D01*
X-38144Y-481481D01*
X-38144Y-481482D02*
X-37983Y-481484D01*
X-37821Y-481490D01*
X-37660Y-481499D01*
X-37499Y-481513D01*
X-37339Y-481530D01*
X-37179Y-481551D01*
X-37019Y-481576D01*
X-36860Y-481605D01*
X-36702Y-481637D01*
X-36545Y-481673D01*
X-36389Y-481713D01*
X-36233Y-481757D01*
X-36079Y-481805D01*
X-35926Y-481856D01*
X-35774Y-481910D01*
X-35623Y-481969D01*
X-35474Y-482030D01*
X-35327Y-482096D01*
X-35181Y-482165D01*
X-35036Y-482237D01*
X-34894Y-482313D01*
X-34753Y-482392D01*
X-34614Y-482474D01*
X-34478Y-482560D01*
X-34343Y-482649D01*
X-34210Y-482741D01*
X-34080Y-482837D01*
X-39951Y-488255D02*
X-40052Y-488193D01*
X-40152Y-488128D01*
X-40249Y-488059D01*
X-40344Y-487987D01*
X-40437Y-487913D01*
X-40527Y-487835D01*
X-40615Y-487754D01*
X-40700Y-487671D01*
X-40782Y-487585D01*
X-40861Y-487496D01*
X-40938Y-487405D01*
X-41011Y-487311D01*
X-41082Y-487215D01*
X-41149Y-487117D01*
X-41213Y-487017D01*
X-41274Y-486914D01*
X-41331Y-486810D01*
X-41385Y-486704D01*
X-41435Y-486596D01*
X-41482Y-486487D01*
X-41526Y-486376D01*
X-41566Y-486264D01*
X-41602Y-486150D01*
X-41634Y-486036D01*
X-41663Y-485920D01*
X-41688Y-485804D01*
X-41709Y-485687D01*
X-41726Y-485569D01*
X-41740Y-485451D01*
X-41749Y-485332D01*
X-41755Y-485213D01*
X-41757Y-485094D01*
X-34983Y-490965D02*
X-34882Y-491027D01*
X-34782Y-491092D01*
X-34685Y-491161D01*
X-34590Y-491233D01*
X-34497Y-491307D01*
X-34407Y-491385D01*
X-34319Y-491466D01*
X-34234Y-491549D01*
X-34152Y-491635D01*
X-34073Y-491724D01*
X-33996Y-491815D01*
X-33923Y-491909D01*
X-33852Y-492005D01*
X-33785Y-492103D01*
X-33721Y-492203D01*
X-33660Y-492306D01*
X-33603Y-492410D01*
X-33549Y-492516D01*
X-33499Y-492624D01*
X-33452Y-492733D01*
X-33408Y-492844D01*
X-33368Y-492956D01*
X-33332Y-493070D01*
X-33300Y-493184D01*
X-33271Y-493300D01*
X-33246Y-493416D01*
X-33225Y-493533D01*
X-33208Y-493651D01*
X-33194Y-493769D01*
X-33185Y-493888D01*
X-33179Y-494007D01*
X-33177Y-494126D01*
X-34983Y-490965D02*
X-39950Y-488255D01*
X-27237Y-490513D02*
X-27237Y-494126D01*
X-27236Y-490513D02*
X-27234Y-490394D01*
X-27228Y-490274D01*
X-27218Y-490155D01*
X-27204Y-490037D01*
X-27187Y-489918D01*
X-27165Y-489801D01*
X-27140Y-489684D01*
X-27110Y-489569D01*
X-27077Y-489454D01*
X-27040Y-489340D01*
X-27000Y-489228D01*
X-26955Y-489117D01*
X-26907Y-489008D01*
X-26856Y-488900D01*
X-26801Y-488794D01*
X-26742Y-488690D01*
X-26680Y-488588D01*
X-26615Y-488488D01*
X-26546Y-488390D01*
X-26474Y-488294D01*
X-26399Y-488201D01*
X-26322Y-488111D01*
X-26241Y-488023D01*
X-26157Y-487938D01*
X-26070Y-487856D01*
X-25981Y-487776D01*
X-25889Y-487700D01*
X-25795Y-487626D01*
X-25698Y-487556D01*
X-25600Y-487489D01*
X-25499Y-487425D01*
X-25395Y-487365D01*
X-25290Y-487308D01*
X-25183Y-487255D01*
X-25075Y-487205D01*
X-24965Y-487159D01*
X-24853Y-487117D01*
X-24740Y-487078D01*
X-24626Y-487043D01*
X-24511Y-487012D01*
X-24394Y-486984D01*
X-24277Y-486961D01*
X-24160Y-486941D01*
X-24041Y-486925D01*
X-23922Y-486913D01*
X-23803Y-486905D01*
X-23684Y-486901D01*
X-23564Y-486901D01*
X-23445Y-486905D01*
X-23326Y-486913D01*
X-23207Y-486925D01*
X-23088Y-486941D01*
X-22971Y-486961D01*
X-22854Y-486984D01*
X-22737Y-487012D01*
X-22622Y-487043D01*
X-22508Y-487078D01*
X-22395Y-487117D01*
X-22283Y-487159D01*
X-22173Y-487205D01*
X-22065Y-487255D01*
X-21958Y-487308D01*
X-21853Y-487365D01*
X-21749Y-487425D01*
X-21648Y-487489D01*
X-21550Y-487556D01*
X-21453Y-487626D01*
X-21359Y-487700D01*
X-21267Y-487776D01*
X-21178Y-487856D01*
X-21091Y-487938D01*
X-21007Y-488023D01*
X-20926Y-488111D01*
X-20849Y-488201D01*
X-20774Y-488294D01*
X-20702Y-488390D01*
X-20633Y-488488D01*
X-20568Y-488588D01*
X-20506Y-488690D01*
X-20447Y-488794D01*
X-20392Y-488900D01*
X-20341Y-489008D01*
X-20293Y-489117D01*
X-20248Y-489228D01*
X-20208Y-489340D01*
X-20171Y-489454D01*
X-20138Y-489569D01*
X-20108Y-489684D01*
X-20083Y-489801D01*
X-20061Y-489918D01*
X-20044Y-490037D01*
X-20030Y-490155D01*
X-20020Y-490274D01*
X-20014Y-490394D01*
X-20012Y-490513D01*
X-20012Y-494126D01*
X-20014Y-494245D01*
X-20020Y-494365D01*
X-20030Y-494484D01*
X-20044Y-494602D01*
X-20061Y-494721D01*
X-20083Y-494838D01*
X-20108Y-494955D01*
X-20138Y-495070D01*
X-20171Y-495185D01*
X-20208Y-495299D01*
X-20248Y-495411D01*
X-20293Y-495522D01*
X-20341Y-495631D01*
X-20392Y-495739D01*
X-20447Y-495845D01*
X-20506Y-495949D01*
X-20568Y-496051D01*
X-20633Y-496151D01*
X-20702Y-496249D01*
X-20774Y-496345D01*
X-20849Y-496438D01*
X-20926Y-496528D01*
X-21007Y-496616D01*
X-21091Y-496701D01*
X-21178Y-496783D01*
X-21267Y-496863D01*
X-21359Y-496939D01*
X-21453Y-497013D01*
X-21550Y-497083D01*
X-21648Y-497150D01*
X-21749Y-497214D01*
X-21853Y-497274D01*
X-21958Y-497331D01*
X-22065Y-497384D01*
X-22173Y-497434D01*
X-22283Y-497480D01*
X-22395Y-497522D01*
X-22508Y-497561D01*
X-22622Y-497596D01*
X-22737Y-497627D01*
X-22854Y-497655D01*
X-22971Y-497678D01*
X-23088Y-497698D01*
X-23207Y-497714D01*
X-23326Y-497726D01*
X-23445Y-497734D01*
X-23564Y-497738D01*
X-23684Y-497738D01*
X-23803Y-497734D01*
X-23922Y-497726D01*
X-24041Y-497714D01*
X-24160Y-497698D01*
X-24277Y-497678D01*
X-24394Y-497655D01*
X-24511Y-497627D01*
X-24626Y-497596D01*
X-24740Y-497561D01*
X-24853Y-497522D01*
X-24965Y-497480D01*
X-25075Y-497434D01*
X-25183Y-497384D01*
X-25290Y-497331D01*
X-25395Y-497274D01*
X-25499Y-497214D01*
X-25600Y-497150D01*
X-25698Y-497083D01*
X-25795Y-497013D01*
X-25889Y-496939D01*
X-25981Y-496863D01*
X-26070Y-496783D01*
X-26157Y-496701D01*
X-26241Y-496616D01*
X-26322Y-496528D01*
X-26399Y-496438D01*
X-26474Y-496345D01*
X-26546Y-496249D01*
X-26615Y-496151D01*
X-26680Y-496051D01*
X-26742Y-495949D01*
X-26801Y-495845D01*
X-26856Y-495739D01*
X-26907Y-495631D01*
X-26955Y-495522D01*
X-27000Y-495411D01*
X-27040Y-495299D01*
X-27077Y-495185D01*
X-27110Y-495070D01*
X-27140Y-494955D01*
X-27165Y-494838D01*
X-27187Y-494721D01*
X-27204Y-494602D01*
X-27218Y-494484D01*
X-27228Y-494365D01*
X-27234Y-494245D01*
X-27236Y-494126D01*
X-13453Y-495029D02*
X-13453Y-481482D01*
X-13453Y-495029D02*
X-13451Y-495130D01*
X-13445Y-495231D01*
X-13436Y-495332D01*
X-13423Y-495433D01*
X-13406Y-495533D01*
X-13385Y-495632D01*
X-13361Y-495730D01*
X-13333Y-495827D01*
X-13301Y-495924D01*
X-13266Y-496019D01*
X-13227Y-496112D01*
X-13185Y-496204D01*
X-13139Y-496295D01*
X-13090Y-496384D01*
X-13038Y-496470D01*
X-12982Y-496555D01*
X-12924Y-496638D01*
X-12862Y-496718D01*
X-12797Y-496796D01*
X-12730Y-496872D01*
X-12660Y-496945D01*
X-12587Y-497015D01*
X-12511Y-497082D01*
X-12433Y-497147D01*
X-12353Y-497209D01*
X-12270Y-497267D01*
X-12185Y-497323D01*
X-12098Y-497375D01*
X-12010Y-497424D01*
X-11919Y-497470D01*
X-11827Y-497512D01*
X-11734Y-497551D01*
X-11639Y-497586D01*
X-11542Y-497618D01*
X-11445Y-497646D01*
X-11347Y-497670D01*
X-11248Y-497691D01*
X-11148Y-497708D01*
X-11047Y-497721D01*
X-10946Y-497730D01*
X-10845Y-497736D01*
X-10744Y-497738D01*
X1799Y-497738D02*
X1799Y-481482D01*
X1799Y-497738D02*
X-2717Y-497738D01*
X-2818Y-497736D01*
X-2919Y-497730D01*
X-3020Y-497721D01*
X-3121Y-497708D01*
X-3221Y-497691D01*
X-3320Y-497670D01*
X-3418Y-497646D01*
X-3515Y-497618D01*
X-3612Y-497586D01*
X-3707Y-497551D01*
X-3800Y-497512D01*
X-3892Y-497470D01*
X-3983Y-497424D01*
X-4071Y-497375D01*
X-4158Y-497323D01*
X-4243Y-497267D01*
X-4326Y-497209D01*
X-4406Y-497147D01*
X-4484Y-497082D01*
X-4560Y-497015D01*
X-4633Y-496945D01*
X-4703Y-496872D01*
X-4770Y-496796D01*
X-4835Y-496718D01*
X-4897Y-496638D01*
X-4955Y-496555D01*
X-5011Y-496470D01*
X-5063Y-496384D01*
X-5112Y-496295D01*
X-5158Y-496204D01*
X-5200Y-496112D01*
X-5239Y-496019D01*
X-5274Y-495924D01*
X-5306Y-495827D01*
X-5334Y-495730D01*
X-5358Y-495632D01*
X-5379Y-495533D01*
X-5396Y-495433D01*
X-5409Y-495332D01*
X-5418Y-495231D01*
X-5424Y-495130D01*
X-5426Y-495029D01*
X-5426Y-489610D01*
X-5424Y-489509D01*
X-5418Y-489408D01*
X-5409Y-489307D01*
X-5396Y-489206D01*
X-5379Y-489106D01*
X-5358Y-489007D01*
X-5334Y-488909D01*
X-5306Y-488812D01*
X-5274Y-488715D01*
X-5239Y-488620D01*
X-5200Y-488527D01*
X-5158Y-488435D01*
X-5112Y-488344D01*
X-5063Y-488256D01*
X-5011Y-488169D01*
X-4955Y-488084D01*
X-4897Y-488001D01*
X-4835Y-487921D01*
X-4770Y-487843D01*
X-4703Y-487767D01*
X-4633Y-487694D01*
X-4560Y-487624D01*
X-4484Y-487557D01*
X-4406Y-487492D01*
X-4326Y-487430D01*
X-4243Y-487372D01*
X-4158Y-487316D01*
X-4071Y-487264D01*
X-3983Y-487215D01*
X-3892Y-487169D01*
X-3800Y-487127D01*
X-3707Y-487088D01*
X-3612Y-487053D01*
X-3515Y-487021D01*
X-3418Y-486993D01*
X-3320Y-486969D01*
X-3221Y-486948D01*
X-3121Y-486931D01*
X-3020Y-486918D01*
X-2919Y-486909D01*
X-2818Y-486903D01*
X-2717Y-486901D01*
X1799Y-486901D01*
X11424Y-497738D02*
X15940Y-497738D01*
X11424Y-497738D02*
X11323Y-497736D01*
X11222Y-497730D01*
X11121Y-497721D01*
X11020Y-497708D01*
X10920Y-497691D01*
X10821Y-497670D01*
X10723Y-497646D01*
X10626Y-497618D01*
X10529Y-497586D01*
X10434Y-497551D01*
X10341Y-497512D01*
X10249Y-497470D01*
X10158Y-497424D01*
X10070Y-497375D01*
X9983Y-497323D01*
X9898Y-497267D01*
X9815Y-497209D01*
X9735Y-497147D01*
X9657Y-497082D01*
X9581Y-497015D01*
X9508Y-496945D01*
X9438Y-496872D01*
X9371Y-496796D01*
X9306Y-496718D01*
X9244Y-496638D01*
X9186Y-496555D01*
X9130Y-496470D01*
X9078Y-496384D01*
X9029Y-496295D01*
X8983Y-496204D01*
X8941Y-496112D01*
X8902Y-496019D01*
X8867Y-495924D01*
X8835Y-495827D01*
X8807Y-495730D01*
X8783Y-495632D01*
X8762Y-495533D01*
X8745Y-495433D01*
X8732Y-495332D01*
X8723Y-495231D01*
X8717Y-495130D01*
X8715Y-495029D01*
X8715Y-490513D01*
X8717Y-490394D01*
X8723Y-490274D01*
X8733Y-490155D01*
X8747Y-490037D01*
X8764Y-489918D01*
X8786Y-489801D01*
X8811Y-489684D01*
X8841Y-489569D01*
X8874Y-489454D01*
X8911Y-489340D01*
X8951Y-489228D01*
X8996Y-489117D01*
X9044Y-489008D01*
X9095Y-488900D01*
X9150Y-488794D01*
X9209Y-488690D01*
X9271Y-488588D01*
X9336Y-488488D01*
X9405Y-488390D01*
X9477Y-488294D01*
X9552Y-488201D01*
X9629Y-488111D01*
X9710Y-488023D01*
X9794Y-487938D01*
X9881Y-487856D01*
X9970Y-487776D01*
X10062Y-487700D01*
X10156Y-487626D01*
X10253Y-487556D01*
X10351Y-487489D01*
X10452Y-487425D01*
X10556Y-487365D01*
X10661Y-487308D01*
X10768Y-487255D01*
X10876Y-487205D01*
X10986Y-487159D01*
X11098Y-487117D01*
X11211Y-487078D01*
X11325Y-487043D01*
X11440Y-487012D01*
X11557Y-486984D01*
X11674Y-486961D01*
X11791Y-486941D01*
X11910Y-486925D01*
X12029Y-486913D01*
X12148Y-486905D01*
X12267Y-486901D01*
X12387Y-486901D01*
X12506Y-486905D01*
X12625Y-486913D01*
X12744Y-486925D01*
X12863Y-486941D01*
X12980Y-486961D01*
X13097Y-486984D01*
X13214Y-487012D01*
X13329Y-487043D01*
X13443Y-487078D01*
X13556Y-487117D01*
X13668Y-487159D01*
X13778Y-487205D01*
X13886Y-487255D01*
X13993Y-487308D01*
X14098Y-487365D01*
X14202Y-487425D01*
X14303Y-487489D01*
X14401Y-487556D01*
X14498Y-487626D01*
X14592Y-487700D01*
X14684Y-487776D01*
X14773Y-487856D01*
X14860Y-487938D01*
X14944Y-488023D01*
X15025Y-488111D01*
X15102Y-488201D01*
X15177Y-488294D01*
X15249Y-488390D01*
X15318Y-488488D01*
X15383Y-488588D01*
X15445Y-488690D01*
X15504Y-488794D01*
X15559Y-488900D01*
X15610Y-489008D01*
X15658Y-489117D01*
X15703Y-489228D01*
X15743Y-489340D01*
X15780Y-489454D01*
X15813Y-489569D01*
X15843Y-489684D01*
X15868Y-489801D01*
X15890Y-489918D01*
X15907Y-490037D01*
X15921Y-490155D01*
X15931Y-490274D01*
X15937Y-490394D01*
X15939Y-490513D01*
X15940Y-490513D02*
X15940Y-492319D01*
X8715Y-492319D01*
X22868Y-497738D02*
X22868Y-486901D01*
X28287Y-486901D01*
X28287Y-488707D01*
X42340Y-481482D02*
X42340Y-497738D01*
X47758Y-490513D02*
X42340Y-481482D01*
X47758Y-490513D02*
X53177Y-481482D01*
X53177Y-497738D01*
X63386Y-491416D02*
X67450Y-491416D01*
X63386Y-491416D02*
X63274Y-491418D01*
X63163Y-491424D01*
X63052Y-491434D01*
X62941Y-491447D01*
X62831Y-491465D01*
X62722Y-491487D01*
X62613Y-491512D01*
X62505Y-491541D01*
X62399Y-491574D01*
X62293Y-491611D01*
X62189Y-491651D01*
X62087Y-491695D01*
X61986Y-491743D01*
X61887Y-491794D01*
X61789Y-491849D01*
X61694Y-491907D01*
X61601Y-491968D01*
X61510Y-492033D01*
X61421Y-492101D01*
X61335Y-492172D01*
X61252Y-492245D01*
X61171Y-492322D01*
X61092Y-492402D01*
X61017Y-492484D01*
X60945Y-492569D01*
X60875Y-492656D01*
X60809Y-492746D01*
X60746Y-492838D01*
X60686Y-492933D01*
X60630Y-493029D01*
X60577Y-493127D01*
X60528Y-493227D01*
X60482Y-493329D01*
X60440Y-493432D01*
X60401Y-493537D01*
X60366Y-493643D01*
X60335Y-493750D01*
X60308Y-493858D01*
X60284Y-493967D01*
X60265Y-494077D01*
X60249Y-494187D01*
X60237Y-494298D01*
X60229Y-494410D01*
X60225Y-494521D01*
X60225Y-494633D01*
X60229Y-494744D01*
X60237Y-494856D01*
X60249Y-494967D01*
X60265Y-495077D01*
X60284Y-495187D01*
X60308Y-495296D01*
X60335Y-495404D01*
X60366Y-495511D01*
X60401Y-495617D01*
X60440Y-495722D01*
X60482Y-495825D01*
X60528Y-495927D01*
X60577Y-496027D01*
X60630Y-496125D01*
X60686Y-496221D01*
X60746Y-496316D01*
X60809Y-496408D01*
X60875Y-496498D01*
X60945Y-496585D01*
X61017Y-496670D01*
X61092Y-496752D01*
X61171Y-496832D01*
X61252Y-496909D01*
X61335Y-496982D01*
X61421Y-497053D01*
X61510Y-497121D01*
X61601Y-497186D01*
X61694Y-497247D01*
X61789Y-497305D01*
X61887Y-497360D01*
X61986Y-497411D01*
X62087Y-497459D01*
X62189Y-497503D01*
X62293Y-497543D01*
X62399Y-497580D01*
X62505Y-497613D01*
X62613Y-497642D01*
X62722Y-497667D01*
X62831Y-497689D01*
X62941Y-497707D01*
X63052Y-497720D01*
X63163Y-497730D01*
X63274Y-497736D01*
X63386Y-497738D01*
X67450Y-497738D01*
X67450Y-489610D01*
X67449Y-489610D02*
X67447Y-489509D01*
X67441Y-489408D01*
X67432Y-489307D01*
X67419Y-489206D01*
X67402Y-489106D01*
X67381Y-489007D01*
X67357Y-488909D01*
X67329Y-488812D01*
X67297Y-488715D01*
X67262Y-488620D01*
X67223Y-488527D01*
X67181Y-488435D01*
X67135Y-488344D01*
X67086Y-488256D01*
X67034Y-488169D01*
X66978Y-488084D01*
X66920Y-488001D01*
X66858Y-487921D01*
X66793Y-487843D01*
X66726Y-487767D01*
X66656Y-487694D01*
X66583Y-487624D01*
X66507Y-487557D01*
X66429Y-487492D01*
X66349Y-487430D01*
X66266Y-487372D01*
X66181Y-487316D01*
X66095Y-487264D01*
X66006Y-487215D01*
X65915Y-487169D01*
X65823Y-487127D01*
X65730Y-487088D01*
X65635Y-487053D01*
X65538Y-487021D01*
X65441Y-486993D01*
X65343Y-486969D01*
X65244Y-486948D01*
X65144Y-486931D01*
X65043Y-486918D01*
X64942Y-486909D01*
X64841Y-486903D01*
X64740Y-486901D01*
X61128Y-486901D01*
X75721Y-491416D02*
X80236Y-493222D01*
X75720Y-491416D02*
X75632Y-491379D01*
X75546Y-491338D01*
X75461Y-491294D01*
X75378Y-491246D01*
X75298Y-491195D01*
X75219Y-491141D01*
X75143Y-491083D01*
X75069Y-491023D01*
X74997Y-490959D01*
X74929Y-490893D01*
X74863Y-490823D01*
X74800Y-490752D01*
X74739Y-490677D01*
X74682Y-490601D01*
X74629Y-490522D01*
X74578Y-490441D01*
X74531Y-490358D01*
X74487Y-490273D01*
X74447Y-490186D01*
X74410Y-490098D01*
X74377Y-490008D01*
X74347Y-489917D01*
X74322Y-489825D01*
X74300Y-489732D01*
X74282Y-489638D01*
X74267Y-489544D01*
X74257Y-489449D01*
X74251Y-489353D01*
X74248Y-489258D01*
X74249Y-489162D01*
X74255Y-489067D01*
X74264Y-488971D01*
X74277Y-488877D01*
X74293Y-488783D01*
X74314Y-488689D01*
X74339Y-488597D01*
X74367Y-488506D01*
X74399Y-488416D01*
X74434Y-488327D01*
X74473Y-488240D01*
X74516Y-488154D01*
X74562Y-488070D01*
X74612Y-487989D01*
X74664Y-487909D01*
X74720Y-487831D01*
X74780Y-487756D01*
X74842Y-487684D01*
X74907Y-487614D01*
X74975Y-487546D01*
X75045Y-487482D01*
X75118Y-487420D01*
X75194Y-487362D01*
X75272Y-487306D01*
X75352Y-487254D01*
X75434Y-487205D01*
X75518Y-487160D01*
X75604Y-487118D01*
X75691Y-487079D01*
X75780Y-487044D01*
X75871Y-487013D01*
X75962Y-486986D01*
X76055Y-486962D01*
X76148Y-486942D01*
X76242Y-486926D01*
X76337Y-486914D01*
X76432Y-486905D01*
X76528Y-486901D01*
X76623Y-486900D01*
X76870Y-486907D01*
X77116Y-486919D01*
X77362Y-486937D01*
X77608Y-486962D01*
X77852Y-486992D01*
X78096Y-487028D01*
X78339Y-487070D01*
X78581Y-487117D01*
X78822Y-487171D01*
X79061Y-487230D01*
X79299Y-487295D01*
X79536Y-487366D01*
X79770Y-487442D01*
X80003Y-487524D01*
X80233Y-487612D01*
X80461Y-487705D01*
X80688Y-487803D01*
X80237Y-493223D02*
X80325Y-493260D01*
X80411Y-493301D01*
X80496Y-493345D01*
X80579Y-493393D01*
X80659Y-493444D01*
X80738Y-493498D01*
X80814Y-493556D01*
X80888Y-493616D01*
X80960Y-493680D01*
X81028Y-493746D01*
X81094Y-493816D01*
X81157Y-493887D01*
X81218Y-493962D01*
X81275Y-494038D01*
X81328Y-494117D01*
X81379Y-494198D01*
X81426Y-494281D01*
X81470Y-494366D01*
X81510Y-494453D01*
X81547Y-494541D01*
X81580Y-494631D01*
X81610Y-494722D01*
X81635Y-494814D01*
X81657Y-494907D01*
X81675Y-495001D01*
X81690Y-495095D01*
X81700Y-495190D01*
X81706Y-495286D01*
X81709Y-495381D01*
X81708Y-495477D01*
X81702Y-495572D01*
X81693Y-495668D01*
X81680Y-495762D01*
X81664Y-495856D01*
X81643Y-495950D01*
X81618Y-496042D01*
X81590Y-496133D01*
X81558Y-496223D01*
X81523Y-496312D01*
X81484Y-496399D01*
X81441Y-496485D01*
X81395Y-496569D01*
X81345Y-496650D01*
X81293Y-496730D01*
X81237Y-496808D01*
X81177Y-496883D01*
X81115Y-496955D01*
X81050Y-497025D01*
X80982Y-497093D01*
X80912Y-497157D01*
X80839Y-497219D01*
X80763Y-497277D01*
X80685Y-497333D01*
X80605Y-497385D01*
X80523Y-497434D01*
X80439Y-497479D01*
X80353Y-497521D01*
X80266Y-497560D01*
X80177Y-497595D01*
X80086Y-497626D01*
X79995Y-497653D01*
X79902Y-497677D01*
X79809Y-497697D01*
X79715Y-497713D01*
X79620Y-497725D01*
X79525Y-497734D01*
X79429Y-497738D01*
X79334Y-497739D01*
X79333Y-497738D02*
X78971Y-497729D01*
X78609Y-497711D01*
X78248Y-497684D01*
X77888Y-497649D01*
X77528Y-497606D01*
X77169Y-497554D01*
X76812Y-497493D01*
X76457Y-497424D01*
X76103Y-497347D01*
X75751Y-497261D01*
X75401Y-497167D01*
X75053Y-497064D01*
X74708Y-496954D01*
X74366Y-496835D01*
X88603Y-497738D02*
X88603Y-481482D01*
X95828Y-486901D02*
X88603Y-492319D01*
X91764Y-490062D02*
X95828Y-497738D01*
M02*
