G04 EAGLE Gerber RS-274X export*
G75*
%MOMM*%
%FSLAX34Y34*%
%LPD*%
%INSolder stop mask SOL*%
%IPPOS*%
%AMOC8*
5,1,8,0,0,1.08239X$1,22.5*%
G01*
%ADD10C,3.352400*%
%ADD11C,2.352400*%
%ADD12R,1.502400X1.502400*%
%ADD13C,1.502400*%
%ADD14C,1.652400*%
%ADD15C,2.102400*%
%ADD16R,2.102400X2.102400*%
%ADD17R,1.802400X1.802400*%
%ADD18C,1.802400*%
%ADD19C,0.152400*%


D10*
X-60000Y130000D03*
X10000Y130000D03*
D11*
X-1105000Y-270000D03*
X-1105000Y270000D03*
X-1105000Y270000D03*
X-565000Y-270000D03*
X-565000Y270000D03*
X1105000Y270000D03*
X1105000Y-270000D03*
X1105000Y-270000D03*
X565000Y270000D03*
X565000Y-270000D03*
D12*
X-400000Y149500D03*
D13*
X-400000Y-30500D03*
X-400000Y-50500D03*
X-400000Y-70500D03*
X-400000Y109500D03*
X-400000Y89500D03*
X-400000Y49500D03*
X-400000Y29500D03*
X-400000Y9500D03*
X-400000Y-10500D03*
X-400000Y69500D03*
X-400000Y129500D03*
D12*
X400000Y-70000D03*
D13*
X400000Y110000D03*
X400000Y130000D03*
X400000Y150000D03*
X400000Y-30000D03*
X400000Y-10000D03*
X400000Y30000D03*
X400000Y50000D03*
X400000Y70000D03*
X400000Y90000D03*
X400000Y10000D03*
X400000Y-50000D03*
D14*
X-20000Y-170000D03*
X60000Y-170000D03*
X-60000Y-170000D03*
X20000Y-170000D03*
D11*
X-57000Y-280000D03*
X57000Y-280000D03*
D15*
X-25000Y-355000D03*
X25000Y-355000D03*
D16*
X-25000Y-210000D03*
D15*
X25000Y-210000D03*
X0Y-355000D03*
D11*
X-375000Y-115000D03*
X-375000Y195000D03*
X375000Y-115000D03*
X375000Y195000D03*
D17*
X-160000Y142700D03*
D18*
X-160000Y117300D03*
D19*
X-113201Y-618407D02*
X-108685Y-618407D01*
X-108685Y-618406D02*
X-108552Y-618408D01*
X-108420Y-618414D01*
X-108288Y-618424D01*
X-108156Y-618437D01*
X-108024Y-618455D01*
X-107894Y-618476D01*
X-107763Y-618501D01*
X-107634Y-618530D01*
X-107506Y-618563D01*
X-107378Y-618599D01*
X-107252Y-618639D01*
X-107127Y-618683D01*
X-107003Y-618731D01*
X-106881Y-618782D01*
X-106760Y-618837D01*
X-106641Y-618895D01*
X-106523Y-618957D01*
X-106408Y-619022D01*
X-106294Y-619091D01*
X-106183Y-619162D01*
X-106074Y-619238D01*
X-105967Y-619316D01*
X-105862Y-619397D01*
X-105760Y-619482D01*
X-105660Y-619569D01*
X-105563Y-619659D01*
X-105468Y-619752D01*
X-105377Y-619848D01*
X-105288Y-619946D01*
X-105202Y-620047D01*
X-105119Y-620151D01*
X-105039Y-620257D01*
X-104963Y-620365D01*
X-104889Y-620475D01*
X-104819Y-620588D01*
X-104752Y-620702D01*
X-104689Y-620819D01*
X-104629Y-620937D01*
X-104572Y-621057D01*
X-104519Y-621179D01*
X-104470Y-621302D01*
X-104424Y-621426D01*
X-104382Y-621552D01*
X-104344Y-621679D01*
X-104309Y-621807D01*
X-104278Y-621936D01*
X-104251Y-622065D01*
X-104228Y-622196D01*
X-104208Y-622327D01*
X-104193Y-622459D01*
X-104181Y-622591D01*
X-104173Y-622723D01*
X-104169Y-622856D01*
X-104169Y-622988D01*
X-104173Y-623121D01*
X-104181Y-623253D01*
X-104193Y-623385D01*
X-104208Y-623517D01*
X-104228Y-623648D01*
X-104251Y-623779D01*
X-104278Y-623908D01*
X-104309Y-624037D01*
X-104344Y-624165D01*
X-104382Y-624292D01*
X-104424Y-624418D01*
X-104470Y-624542D01*
X-104519Y-624665D01*
X-104572Y-624787D01*
X-104629Y-624907D01*
X-104689Y-625025D01*
X-104752Y-625142D01*
X-104819Y-625256D01*
X-104889Y-625369D01*
X-104963Y-625479D01*
X-105039Y-625587D01*
X-105119Y-625693D01*
X-105202Y-625797D01*
X-105288Y-625898D01*
X-105377Y-625996D01*
X-105468Y-626092D01*
X-105563Y-626185D01*
X-105660Y-626275D01*
X-105760Y-626362D01*
X-105862Y-626447D01*
X-105967Y-626528D01*
X-106074Y-626606D01*
X-106183Y-626682D01*
X-106294Y-626753D01*
X-106408Y-626822D01*
X-106523Y-626887D01*
X-106641Y-626949D01*
X-106760Y-627007D01*
X-106881Y-627062D01*
X-107003Y-627113D01*
X-107127Y-627161D01*
X-107252Y-627205D01*
X-107378Y-627245D01*
X-107506Y-627281D01*
X-107634Y-627314D01*
X-107763Y-627343D01*
X-107894Y-627368D01*
X-108024Y-627389D01*
X-108156Y-627407D01*
X-108288Y-627420D01*
X-108420Y-627430D01*
X-108552Y-627436D01*
X-108685Y-627438D01*
X-113201Y-627438D01*
X-113201Y-611182D01*
X-108685Y-611182D01*
X-108566Y-611184D01*
X-108446Y-611190D01*
X-108327Y-611200D01*
X-108209Y-611214D01*
X-108090Y-611231D01*
X-107973Y-611253D01*
X-107856Y-611278D01*
X-107741Y-611308D01*
X-107626Y-611341D01*
X-107512Y-611378D01*
X-107400Y-611418D01*
X-107289Y-611463D01*
X-107180Y-611511D01*
X-107072Y-611562D01*
X-106966Y-611617D01*
X-106862Y-611676D01*
X-106760Y-611738D01*
X-106660Y-611803D01*
X-106562Y-611872D01*
X-106466Y-611944D01*
X-106373Y-612019D01*
X-106283Y-612096D01*
X-106195Y-612177D01*
X-106110Y-612261D01*
X-106028Y-612348D01*
X-105948Y-612437D01*
X-105872Y-612529D01*
X-105798Y-612623D01*
X-105728Y-612720D01*
X-105661Y-612818D01*
X-105597Y-612919D01*
X-105537Y-613023D01*
X-105480Y-613128D01*
X-105427Y-613235D01*
X-105377Y-613343D01*
X-105331Y-613453D01*
X-105289Y-613565D01*
X-105250Y-613678D01*
X-105215Y-613792D01*
X-105184Y-613907D01*
X-105156Y-614024D01*
X-105133Y-614141D01*
X-105113Y-614258D01*
X-105097Y-614377D01*
X-105085Y-614496D01*
X-105077Y-614615D01*
X-105073Y-614734D01*
X-105073Y-614854D01*
X-105077Y-614973D01*
X-105085Y-615092D01*
X-105097Y-615211D01*
X-105113Y-615330D01*
X-105133Y-615447D01*
X-105156Y-615564D01*
X-105184Y-615681D01*
X-105215Y-615796D01*
X-105250Y-615910D01*
X-105289Y-616023D01*
X-105331Y-616135D01*
X-105377Y-616245D01*
X-105427Y-616353D01*
X-105480Y-616460D01*
X-105537Y-616565D01*
X-105597Y-616669D01*
X-105661Y-616770D01*
X-105728Y-616868D01*
X-105798Y-616965D01*
X-105872Y-617059D01*
X-105948Y-617151D01*
X-106028Y-617240D01*
X-106110Y-617327D01*
X-106195Y-617411D01*
X-106283Y-617492D01*
X-106373Y-617569D01*
X-106466Y-617644D01*
X-106562Y-617716D01*
X-106660Y-617785D01*
X-106760Y-617850D01*
X-106862Y-617912D01*
X-106966Y-617971D01*
X-107072Y-618026D01*
X-107180Y-618077D01*
X-107289Y-618125D01*
X-107400Y-618170D01*
X-107512Y-618210D01*
X-107626Y-618247D01*
X-107741Y-618280D01*
X-107856Y-618310D01*
X-107973Y-618335D01*
X-108090Y-618357D01*
X-108209Y-618374D01*
X-108327Y-618388D01*
X-108446Y-618398D01*
X-108566Y-618404D01*
X-108685Y-618406D01*
X-98441Y-620213D02*
X-98441Y-623826D01*
X-98440Y-620213D02*
X-98438Y-620094D01*
X-98432Y-619974D01*
X-98422Y-619855D01*
X-98408Y-619737D01*
X-98391Y-619618D01*
X-98369Y-619501D01*
X-98344Y-619384D01*
X-98314Y-619269D01*
X-98281Y-619154D01*
X-98244Y-619040D01*
X-98204Y-618928D01*
X-98159Y-618817D01*
X-98111Y-618708D01*
X-98060Y-618600D01*
X-98005Y-618494D01*
X-97946Y-618390D01*
X-97884Y-618288D01*
X-97819Y-618188D01*
X-97750Y-618090D01*
X-97678Y-617994D01*
X-97603Y-617901D01*
X-97526Y-617811D01*
X-97445Y-617723D01*
X-97361Y-617638D01*
X-97274Y-617556D01*
X-97185Y-617476D01*
X-97093Y-617400D01*
X-96999Y-617326D01*
X-96902Y-617256D01*
X-96804Y-617189D01*
X-96703Y-617125D01*
X-96599Y-617065D01*
X-96494Y-617008D01*
X-96387Y-616955D01*
X-96279Y-616905D01*
X-96169Y-616859D01*
X-96057Y-616817D01*
X-95944Y-616778D01*
X-95830Y-616743D01*
X-95715Y-616712D01*
X-95598Y-616684D01*
X-95481Y-616661D01*
X-95364Y-616641D01*
X-95245Y-616625D01*
X-95126Y-616613D01*
X-95007Y-616605D01*
X-94888Y-616601D01*
X-94768Y-616601D01*
X-94649Y-616605D01*
X-94530Y-616613D01*
X-94411Y-616625D01*
X-94292Y-616641D01*
X-94175Y-616661D01*
X-94058Y-616684D01*
X-93941Y-616712D01*
X-93826Y-616743D01*
X-93712Y-616778D01*
X-93599Y-616817D01*
X-93487Y-616859D01*
X-93377Y-616905D01*
X-93269Y-616955D01*
X-93162Y-617008D01*
X-93057Y-617065D01*
X-92953Y-617125D01*
X-92852Y-617189D01*
X-92754Y-617256D01*
X-92657Y-617326D01*
X-92563Y-617400D01*
X-92471Y-617476D01*
X-92382Y-617556D01*
X-92295Y-617638D01*
X-92211Y-617723D01*
X-92130Y-617811D01*
X-92053Y-617901D01*
X-91978Y-617994D01*
X-91906Y-618090D01*
X-91837Y-618188D01*
X-91772Y-618288D01*
X-91710Y-618390D01*
X-91651Y-618494D01*
X-91596Y-618600D01*
X-91545Y-618708D01*
X-91497Y-618817D01*
X-91452Y-618928D01*
X-91412Y-619040D01*
X-91375Y-619154D01*
X-91342Y-619269D01*
X-91312Y-619384D01*
X-91287Y-619501D01*
X-91265Y-619618D01*
X-91248Y-619737D01*
X-91234Y-619855D01*
X-91224Y-619974D01*
X-91218Y-620094D01*
X-91216Y-620213D01*
X-91216Y-623826D01*
X-91218Y-623945D01*
X-91224Y-624065D01*
X-91234Y-624184D01*
X-91248Y-624302D01*
X-91265Y-624421D01*
X-91287Y-624538D01*
X-91312Y-624655D01*
X-91342Y-624770D01*
X-91375Y-624885D01*
X-91412Y-624999D01*
X-91452Y-625111D01*
X-91497Y-625222D01*
X-91545Y-625331D01*
X-91596Y-625439D01*
X-91651Y-625545D01*
X-91710Y-625649D01*
X-91772Y-625751D01*
X-91837Y-625851D01*
X-91906Y-625949D01*
X-91978Y-626045D01*
X-92053Y-626138D01*
X-92130Y-626228D01*
X-92211Y-626316D01*
X-92295Y-626401D01*
X-92382Y-626483D01*
X-92471Y-626563D01*
X-92563Y-626639D01*
X-92657Y-626713D01*
X-92754Y-626783D01*
X-92852Y-626850D01*
X-92953Y-626914D01*
X-93057Y-626974D01*
X-93162Y-627031D01*
X-93269Y-627084D01*
X-93377Y-627134D01*
X-93487Y-627180D01*
X-93599Y-627222D01*
X-93712Y-627261D01*
X-93826Y-627296D01*
X-93941Y-627327D01*
X-94058Y-627355D01*
X-94175Y-627378D01*
X-94292Y-627398D01*
X-94411Y-627414D01*
X-94530Y-627426D01*
X-94649Y-627434D01*
X-94768Y-627438D01*
X-94888Y-627438D01*
X-95007Y-627434D01*
X-95126Y-627426D01*
X-95245Y-627414D01*
X-95364Y-627398D01*
X-95481Y-627378D01*
X-95598Y-627355D01*
X-95715Y-627327D01*
X-95830Y-627296D01*
X-95944Y-627261D01*
X-96057Y-627222D01*
X-96169Y-627180D01*
X-96279Y-627134D01*
X-96387Y-627084D01*
X-96494Y-627031D01*
X-96599Y-626974D01*
X-96703Y-626914D01*
X-96804Y-626850D01*
X-96902Y-626783D01*
X-96999Y-626713D01*
X-97093Y-626639D01*
X-97185Y-626563D01*
X-97274Y-626483D01*
X-97361Y-626401D01*
X-97445Y-626316D01*
X-97526Y-626228D01*
X-97603Y-626138D01*
X-97678Y-626045D01*
X-97750Y-625949D01*
X-97819Y-625851D01*
X-97884Y-625751D01*
X-97946Y-625649D01*
X-98005Y-625545D01*
X-98060Y-625439D01*
X-98111Y-625331D01*
X-98159Y-625222D01*
X-98204Y-625111D01*
X-98244Y-624999D01*
X-98281Y-624885D01*
X-98314Y-624770D01*
X-98344Y-624655D01*
X-98369Y-624538D01*
X-98391Y-624421D01*
X-98408Y-624302D01*
X-98422Y-624184D01*
X-98432Y-624065D01*
X-98438Y-623945D01*
X-98440Y-623826D01*
X-86191Y-616601D02*
X-80772Y-616601D01*
X-84385Y-611182D02*
X-84385Y-624729D01*
X-84384Y-624729D02*
X-84382Y-624830D01*
X-84376Y-624931D01*
X-84367Y-625032D01*
X-84354Y-625133D01*
X-84337Y-625233D01*
X-84316Y-625332D01*
X-84292Y-625430D01*
X-84264Y-625527D01*
X-84232Y-625624D01*
X-84197Y-625719D01*
X-84158Y-625812D01*
X-84116Y-625904D01*
X-84070Y-625995D01*
X-84021Y-626084D01*
X-83969Y-626170D01*
X-83913Y-626255D01*
X-83855Y-626338D01*
X-83793Y-626418D01*
X-83728Y-626496D01*
X-83661Y-626572D01*
X-83591Y-626645D01*
X-83518Y-626715D01*
X-83442Y-626782D01*
X-83364Y-626847D01*
X-83284Y-626909D01*
X-83201Y-626967D01*
X-83116Y-627023D01*
X-83030Y-627075D01*
X-82941Y-627124D01*
X-82850Y-627170D01*
X-82758Y-627212D01*
X-82665Y-627251D01*
X-82570Y-627286D01*
X-82473Y-627318D01*
X-82376Y-627346D01*
X-82278Y-627370D01*
X-82179Y-627391D01*
X-82079Y-627408D01*
X-81978Y-627421D01*
X-81877Y-627430D01*
X-81776Y-627436D01*
X-81675Y-627438D01*
X-80772Y-627438D01*
X-76291Y-616601D02*
X-70872Y-616601D01*
X-74485Y-611182D02*
X-74485Y-624729D01*
X-74483Y-624830D01*
X-74477Y-624931D01*
X-74468Y-625032D01*
X-74455Y-625133D01*
X-74438Y-625233D01*
X-74417Y-625332D01*
X-74393Y-625430D01*
X-74365Y-625527D01*
X-74333Y-625624D01*
X-74298Y-625719D01*
X-74259Y-625812D01*
X-74217Y-625904D01*
X-74171Y-625995D01*
X-74122Y-626084D01*
X-74070Y-626170D01*
X-74014Y-626255D01*
X-73956Y-626338D01*
X-73894Y-626418D01*
X-73829Y-626496D01*
X-73762Y-626572D01*
X-73692Y-626645D01*
X-73619Y-626715D01*
X-73543Y-626782D01*
X-73465Y-626847D01*
X-73385Y-626909D01*
X-73302Y-626967D01*
X-73217Y-627023D01*
X-73131Y-627075D01*
X-73042Y-627124D01*
X-72951Y-627170D01*
X-72859Y-627212D01*
X-72766Y-627251D01*
X-72671Y-627286D01*
X-72574Y-627318D01*
X-72477Y-627346D01*
X-72379Y-627370D01*
X-72280Y-627391D01*
X-72180Y-627408D01*
X-72079Y-627421D01*
X-71978Y-627430D01*
X-71877Y-627436D01*
X-71776Y-627438D01*
X-70872Y-627438D01*
X-65094Y-623826D02*
X-65094Y-620213D01*
X-65092Y-620094D01*
X-65086Y-619974D01*
X-65076Y-619855D01*
X-65062Y-619737D01*
X-65045Y-619618D01*
X-65023Y-619501D01*
X-64998Y-619384D01*
X-64968Y-619269D01*
X-64935Y-619154D01*
X-64898Y-619040D01*
X-64858Y-618928D01*
X-64813Y-618817D01*
X-64765Y-618708D01*
X-64714Y-618600D01*
X-64659Y-618494D01*
X-64600Y-618390D01*
X-64538Y-618288D01*
X-64473Y-618188D01*
X-64404Y-618090D01*
X-64332Y-617994D01*
X-64257Y-617901D01*
X-64180Y-617811D01*
X-64099Y-617723D01*
X-64015Y-617638D01*
X-63928Y-617556D01*
X-63839Y-617476D01*
X-63747Y-617400D01*
X-63653Y-617326D01*
X-63556Y-617256D01*
X-63458Y-617189D01*
X-63357Y-617125D01*
X-63253Y-617065D01*
X-63148Y-617008D01*
X-63041Y-616955D01*
X-62933Y-616905D01*
X-62823Y-616859D01*
X-62711Y-616817D01*
X-62598Y-616778D01*
X-62484Y-616743D01*
X-62369Y-616712D01*
X-62252Y-616684D01*
X-62135Y-616661D01*
X-62018Y-616641D01*
X-61899Y-616625D01*
X-61780Y-616613D01*
X-61661Y-616605D01*
X-61542Y-616601D01*
X-61422Y-616601D01*
X-61303Y-616605D01*
X-61184Y-616613D01*
X-61065Y-616625D01*
X-60946Y-616641D01*
X-60829Y-616661D01*
X-60712Y-616684D01*
X-60595Y-616712D01*
X-60480Y-616743D01*
X-60366Y-616778D01*
X-60253Y-616817D01*
X-60141Y-616859D01*
X-60031Y-616905D01*
X-59923Y-616955D01*
X-59816Y-617008D01*
X-59711Y-617065D01*
X-59607Y-617125D01*
X-59506Y-617189D01*
X-59408Y-617256D01*
X-59311Y-617326D01*
X-59217Y-617400D01*
X-59125Y-617476D01*
X-59036Y-617556D01*
X-58949Y-617638D01*
X-58865Y-617723D01*
X-58784Y-617811D01*
X-58707Y-617901D01*
X-58632Y-617994D01*
X-58560Y-618090D01*
X-58491Y-618188D01*
X-58426Y-618288D01*
X-58364Y-618390D01*
X-58305Y-618494D01*
X-58250Y-618600D01*
X-58199Y-618708D01*
X-58151Y-618817D01*
X-58106Y-618928D01*
X-58066Y-619040D01*
X-58029Y-619154D01*
X-57996Y-619269D01*
X-57966Y-619384D01*
X-57941Y-619501D01*
X-57919Y-619618D01*
X-57902Y-619737D01*
X-57888Y-619855D01*
X-57878Y-619974D01*
X-57872Y-620094D01*
X-57870Y-620213D01*
X-57869Y-620213D02*
X-57869Y-623826D01*
X-57870Y-623826D02*
X-57872Y-623945D01*
X-57878Y-624065D01*
X-57888Y-624184D01*
X-57902Y-624302D01*
X-57919Y-624421D01*
X-57941Y-624538D01*
X-57966Y-624655D01*
X-57996Y-624770D01*
X-58029Y-624885D01*
X-58066Y-624999D01*
X-58106Y-625111D01*
X-58151Y-625222D01*
X-58199Y-625331D01*
X-58250Y-625439D01*
X-58305Y-625545D01*
X-58364Y-625649D01*
X-58426Y-625751D01*
X-58491Y-625851D01*
X-58560Y-625949D01*
X-58632Y-626045D01*
X-58707Y-626138D01*
X-58784Y-626228D01*
X-58865Y-626316D01*
X-58949Y-626401D01*
X-59036Y-626483D01*
X-59125Y-626563D01*
X-59217Y-626639D01*
X-59311Y-626713D01*
X-59408Y-626783D01*
X-59506Y-626850D01*
X-59607Y-626914D01*
X-59711Y-626974D01*
X-59816Y-627031D01*
X-59923Y-627084D01*
X-60031Y-627134D01*
X-60141Y-627180D01*
X-60253Y-627222D01*
X-60366Y-627261D01*
X-60480Y-627296D01*
X-60595Y-627327D01*
X-60712Y-627355D01*
X-60829Y-627378D01*
X-60946Y-627398D01*
X-61065Y-627414D01*
X-61184Y-627426D01*
X-61303Y-627434D01*
X-61422Y-627438D01*
X-61542Y-627438D01*
X-61661Y-627434D01*
X-61780Y-627426D01*
X-61899Y-627414D01*
X-62018Y-627398D01*
X-62135Y-627378D01*
X-62252Y-627355D01*
X-62369Y-627327D01*
X-62484Y-627296D01*
X-62598Y-627261D01*
X-62711Y-627222D01*
X-62823Y-627180D01*
X-62933Y-627134D01*
X-63041Y-627084D01*
X-63148Y-627031D01*
X-63253Y-626974D01*
X-63357Y-626914D01*
X-63458Y-626850D01*
X-63556Y-626783D01*
X-63653Y-626713D01*
X-63747Y-626639D01*
X-63839Y-626563D01*
X-63928Y-626483D01*
X-64015Y-626401D01*
X-64099Y-626316D01*
X-64180Y-626228D01*
X-64257Y-626138D01*
X-64332Y-626045D01*
X-64404Y-625949D01*
X-64473Y-625851D01*
X-64538Y-625751D01*
X-64600Y-625649D01*
X-64659Y-625545D01*
X-64714Y-625439D01*
X-64765Y-625331D01*
X-64813Y-625222D01*
X-64858Y-625111D01*
X-64898Y-624999D01*
X-64935Y-624885D01*
X-64968Y-624770D01*
X-64998Y-624655D01*
X-65023Y-624538D01*
X-65045Y-624421D01*
X-65062Y-624302D01*
X-65076Y-624184D01*
X-65086Y-624065D01*
X-65092Y-623945D01*
X-65094Y-623826D01*
X-50748Y-627438D02*
X-50748Y-616601D01*
X-42620Y-616601D01*
X-42519Y-616603D01*
X-42418Y-616609D01*
X-42317Y-616618D01*
X-42216Y-616631D01*
X-42116Y-616648D01*
X-42017Y-616669D01*
X-41919Y-616693D01*
X-41822Y-616721D01*
X-41725Y-616753D01*
X-41630Y-616788D01*
X-41537Y-616827D01*
X-41445Y-616869D01*
X-41354Y-616915D01*
X-41266Y-616964D01*
X-41179Y-617016D01*
X-41094Y-617072D01*
X-41011Y-617130D01*
X-40931Y-617192D01*
X-40853Y-617257D01*
X-40777Y-617324D01*
X-40704Y-617394D01*
X-40634Y-617467D01*
X-40567Y-617543D01*
X-40502Y-617621D01*
X-40440Y-617701D01*
X-40382Y-617784D01*
X-40326Y-617869D01*
X-40274Y-617956D01*
X-40225Y-618044D01*
X-40179Y-618135D01*
X-40137Y-618227D01*
X-40098Y-618320D01*
X-40063Y-618415D01*
X-40031Y-618512D01*
X-40003Y-618609D01*
X-39979Y-618707D01*
X-39958Y-618806D01*
X-39941Y-618906D01*
X-39928Y-619007D01*
X-39919Y-619108D01*
X-39913Y-619209D01*
X-39911Y-619310D01*
X-39911Y-627438D01*
X-45329Y-627438D02*
X-45329Y-616601D01*
X-19416Y-627438D02*
X-19298Y-627436D01*
X-19180Y-627430D01*
X-19062Y-627421D01*
X-18945Y-627407D01*
X-18828Y-627390D01*
X-18711Y-627369D01*
X-18596Y-627344D01*
X-18481Y-627315D01*
X-18367Y-627282D01*
X-18255Y-627246D01*
X-18144Y-627206D01*
X-18034Y-627163D01*
X-17925Y-627116D01*
X-17818Y-627066D01*
X-17713Y-627011D01*
X-17610Y-626954D01*
X-17509Y-626893D01*
X-17409Y-626829D01*
X-17312Y-626762D01*
X-17217Y-626692D01*
X-17125Y-626618D01*
X-17034Y-626542D01*
X-16947Y-626462D01*
X-16862Y-626380D01*
X-16780Y-626295D01*
X-16700Y-626208D01*
X-16624Y-626117D01*
X-16550Y-626025D01*
X-16480Y-625930D01*
X-16413Y-625833D01*
X-16349Y-625733D01*
X-16288Y-625632D01*
X-16231Y-625529D01*
X-16176Y-625424D01*
X-16126Y-625317D01*
X-16079Y-625208D01*
X-16036Y-625098D01*
X-15996Y-624987D01*
X-15960Y-624875D01*
X-15927Y-624761D01*
X-15898Y-624646D01*
X-15873Y-624531D01*
X-15852Y-624414D01*
X-15835Y-624297D01*
X-15821Y-624180D01*
X-15812Y-624062D01*
X-15806Y-623944D01*
X-15804Y-623826D01*
X-19416Y-627438D02*
X-19599Y-627436D01*
X-19781Y-627429D01*
X-19963Y-627418D01*
X-20145Y-627403D01*
X-20327Y-627383D01*
X-20508Y-627359D01*
X-20688Y-627331D01*
X-20868Y-627299D01*
X-21047Y-627262D01*
X-21224Y-627221D01*
X-21401Y-627175D01*
X-21577Y-627126D01*
X-21752Y-627072D01*
X-21925Y-627014D01*
X-22096Y-626952D01*
X-22267Y-626886D01*
X-22435Y-626815D01*
X-22602Y-626741D01*
X-22767Y-626663D01*
X-22930Y-626581D01*
X-23091Y-626495D01*
X-23250Y-626405D01*
X-23407Y-626311D01*
X-23561Y-626214D01*
X-23713Y-626113D01*
X-23863Y-626008D01*
X-24010Y-625900D01*
X-24154Y-625789D01*
X-24296Y-625674D01*
X-24435Y-625555D01*
X-24571Y-625433D01*
X-24704Y-625308D01*
X-24834Y-625180D01*
X-24384Y-614794D02*
X-24382Y-614676D01*
X-24376Y-614558D01*
X-24367Y-614440D01*
X-24353Y-614322D01*
X-24336Y-614205D01*
X-24315Y-614089D01*
X-24290Y-613974D01*
X-24261Y-613859D01*
X-24228Y-613745D01*
X-24192Y-613633D01*
X-24152Y-613521D01*
X-24109Y-613411D01*
X-24062Y-613303D01*
X-24011Y-613196D01*
X-23957Y-613091D01*
X-23900Y-612988D01*
X-23839Y-612886D01*
X-23775Y-612787D01*
X-23708Y-612690D01*
X-23637Y-612595D01*
X-23564Y-612502D01*
X-23487Y-612412D01*
X-23408Y-612324D01*
X-23326Y-612239D01*
X-23241Y-612157D01*
X-23153Y-612078D01*
X-23063Y-612001D01*
X-22970Y-611928D01*
X-22876Y-611857D01*
X-22778Y-611790D01*
X-22679Y-611726D01*
X-22578Y-611665D01*
X-22474Y-611608D01*
X-22369Y-611554D01*
X-22262Y-611503D01*
X-22154Y-611456D01*
X-22044Y-611413D01*
X-21932Y-611373D01*
X-21820Y-611337D01*
X-21706Y-611304D01*
X-21591Y-611275D01*
X-21476Y-611250D01*
X-21360Y-611229D01*
X-21243Y-611212D01*
X-21125Y-611198D01*
X-21007Y-611189D01*
X-20889Y-611183D01*
X-20771Y-611181D01*
X-20771Y-611182D02*
X-20610Y-611184D01*
X-20448Y-611190D01*
X-20287Y-611199D01*
X-20126Y-611213D01*
X-19966Y-611230D01*
X-19806Y-611251D01*
X-19646Y-611276D01*
X-19487Y-611305D01*
X-19329Y-611337D01*
X-19172Y-611373D01*
X-19016Y-611413D01*
X-18860Y-611457D01*
X-18706Y-611505D01*
X-18553Y-611556D01*
X-18401Y-611610D01*
X-18250Y-611669D01*
X-18101Y-611730D01*
X-17954Y-611796D01*
X-17808Y-611865D01*
X-17663Y-611937D01*
X-17521Y-612013D01*
X-17380Y-612092D01*
X-17241Y-612174D01*
X-17105Y-612260D01*
X-16970Y-612349D01*
X-16837Y-612441D01*
X-16707Y-612537D01*
X-22578Y-617955D02*
X-22679Y-617893D01*
X-22779Y-617828D01*
X-22876Y-617759D01*
X-22971Y-617687D01*
X-23064Y-617613D01*
X-23154Y-617535D01*
X-23242Y-617454D01*
X-23327Y-617371D01*
X-23409Y-617285D01*
X-23488Y-617196D01*
X-23565Y-617105D01*
X-23638Y-617011D01*
X-23709Y-616915D01*
X-23776Y-616817D01*
X-23840Y-616717D01*
X-23901Y-616614D01*
X-23958Y-616510D01*
X-24012Y-616404D01*
X-24062Y-616296D01*
X-24109Y-616187D01*
X-24153Y-616076D01*
X-24193Y-615964D01*
X-24229Y-615850D01*
X-24261Y-615736D01*
X-24290Y-615620D01*
X-24315Y-615504D01*
X-24336Y-615387D01*
X-24353Y-615269D01*
X-24367Y-615151D01*
X-24376Y-615032D01*
X-24382Y-614913D01*
X-24384Y-614794D01*
X-17610Y-620665D02*
X-17509Y-620727D01*
X-17409Y-620792D01*
X-17312Y-620861D01*
X-17217Y-620933D01*
X-17124Y-621007D01*
X-17034Y-621085D01*
X-16946Y-621166D01*
X-16861Y-621249D01*
X-16779Y-621335D01*
X-16700Y-621424D01*
X-16623Y-621515D01*
X-16550Y-621609D01*
X-16479Y-621705D01*
X-16412Y-621803D01*
X-16348Y-621903D01*
X-16287Y-622006D01*
X-16230Y-622110D01*
X-16176Y-622216D01*
X-16126Y-622324D01*
X-16079Y-622433D01*
X-16035Y-622544D01*
X-15995Y-622656D01*
X-15959Y-622770D01*
X-15927Y-622884D01*
X-15898Y-623000D01*
X-15873Y-623116D01*
X-15852Y-623233D01*
X-15835Y-623351D01*
X-15821Y-623469D01*
X-15812Y-623588D01*
X-15806Y-623707D01*
X-15804Y-623826D01*
X-17610Y-620665D02*
X-22577Y-617955D01*
X-9864Y-620213D02*
X-9864Y-623826D01*
X-9863Y-620213D02*
X-9861Y-620094D01*
X-9855Y-619974D01*
X-9845Y-619855D01*
X-9831Y-619737D01*
X-9814Y-619618D01*
X-9792Y-619501D01*
X-9767Y-619384D01*
X-9737Y-619269D01*
X-9704Y-619154D01*
X-9667Y-619040D01*
X-9627Y-618928D01*
X-9582Y-618817D01*
X-9534Y-618708D01*
X-9483Y-618600D01*
X-9428Y-618494D01*
X-9369Y-618390D01*
X-9307Y-618288D01*
X-9242Y-618188D01*
X-9173Y-618090D01*
X-9101Y-617994D01*
X-9026Y-617901D01*
X-8949Y-617811D01*
X-8868Y-617723D01*
X-8784Y-617638D01*
X-8697Y-617556D01*
X-8608Y-617476D01*
X-8516Y-617400D01*
X-8422Y-617326D01*
X-8325Y-617256D01*
X-8227Y-617189D01*
X-8126Y-617125D01*
X-8022Y-617065D01*
X-7917Y-617008D01*
X-7810Y-616955D01*
X-7702Y-616905D01*
X-7592Y-616859D01*
X-7480Y-616817D01*
X-7367Y-616778D01*
X-7253Y-616743D01*
X-7138Y-616712D01*
X-7021Y-616684D01*
X-6904Y-616661D01*
X-6787Y-616641D01*
X-6668Y-616625D01*
X-6549Y-616613D01*
X-6430Y-616605D01*
X-6311Y-616601D01*
X-6191Y-616601D01*
X-6072Y-616605D01*
X-5953Y-616613D01*
X-5834Y-616625D01*
X-5715Y-616641D01*
X-5598Y-616661D01*
X-5481Y-616684D01*
X-5364Y-616712D01*
X-5249Y-616743D01*
X-5135Y-616778D01*
X-5022Y-616817D01*
X-4910Y-616859D01*
X-4800Y-616905D01*
X-4692Y-616955D01*
X-4585Y-617008D01*
X-4480Y-617065D01*
X-4376Y-617125D01*
X-4275Y-617189D01*
X-4177Y-617256D01*
X-4080Y-617326D01*
X-3986Y-617400D01*
X-3894Y-617476D01*
X-3805Y-617556D01*
X-3718Y-617638D01*
X-3634Y-617723D01*
X-3553Y-617811D01*
X-3476Y-617901D01*
X-3401Y-617994D01*
X-3329Y-618090D01*
X-3260Y-618188D01*
X-3195Y-618288D01*
X-3133Y-618390D01*
X-3074Y-618494D01*
X-3019Y-618600D01*
X-2968Y-618708D01*
X-2920Y-618817D01*
X-2875Y-618928D01*
X-2835Y-619040D01*
X-2798Y-619154D01*
X-2765Y-619269D01*
X-2735Y-619384D01*
X-2710Y-619501D01*
X-2688Y-619618D01*
X-2671Y-619737D01*
X-2657Y-619855D01*
X-2647Y-619974D01*
X-2641Y-620094D01*
X-2639Y-620213D01*
X-2639Y-623826D01*
X-2641Y-623945D01*
X-2647Y-624065D01*
X-2657Y-624184D01*
X-2671Y-624302D01*
X-2688Y-624421D01*
X-2710Y-624538D01*
X-2735Y-624655D01*
X-2765Y-624770D01*
X-2798Y-624885D01*
X-2835Y-624999D01*
X-2875Y-625111D01*
X-2920Y-625222D01*
X-2968Y-625331D01*
X-3019Y-625439D01*
X-3074Y-625545D01*
X-3133Y-625649D01*
X-3195Y-625751D01*
X-3260Y-625851D01*
X-3329Y-625949D01*
X-3401Y-626045D01*
X-3476Y-626138D01*
X-3553Y-626228D01*
X-3634Y-626316D01*
X-3718Y-626401D01*
X-3805Y-626483D01*
X-3894Y-626563D01*
X-3986Y-626639D01*
X-4080Y-626713D01*
X-4177Y-626783D01*
X-4275Y-626850D01*
X-4376Y-626914D01*
X-4480Y-626974D01*
X-4585Y-627031D01*
X-4692Y-627084D01*
X-4800Y-627134D01*
X-4910Y-627180D01*
X-5022Y-627222D01*
X-5135Y-627261D01*
X-5249Y-627296D01*
X-5364Y-627327D01*
X-5481Y-627355D01*
X-5598Y-627378D01*
X-5715Y-627398D01*
X-5834Y-627414D01*
X-5953Y-627426D01*
X-6072Y-627434D01*
X-6191Y-627438D01*
X-6311Y-627438D01*
X-6430Y-627434D01*
X-6549Y-627426D01*
X-6668Y-627414D01*
X-6787Y-627398D01*
X-6904Y-627378D01*
X-7021Y-627355D01*
X-7138Y-627327D01*
X-7253Y-627296D01*
X-7367Y-627261D01*
X-7480Y-627222D01*
X-7592Y-627180D01*
X-7702Y-627134D01*
X-7810Y-627084D01*
X-7917Y-627031D01*
X-8022Y-626974D01*
X-8126Y-626914D01*
X-8227Y-626850D01*
X-8325Y-626783D01*
X-8422Y-626713D01*
X-8516Y-626639D01*
X-8608Y-626563D01*
X-8697Y-626483D01*
X-8784Y-626401D01*
X-8868Y-626316D01*
X-8949Y-626228D01*
X-9026Y-626138D01*
X-9101Y-626045D01*
X-9173Y-625949D01*
X-9242Y-625851D01*
X-9307Y-625751D01*
X-9369Y-625649D01*
X-9428Y-625545D01*
X-9483Y-625439D01*
X-9534Y-625331D01*
X-9582Y-625222D01*
X-9627Y-625111D01*
X-9667Y-624999D01*
X-9704Y-624885D01*
X-9737Y-624770D01*
X-9767Y-624655D01*
X-9792Y-624538D01*
X-9814Y-624421D01*
X-9831Y-624302D01*
X-9845Y-624184D01*
X-9855Y-624065D01*
X-9861Y-623945D01*
X-9863Y-623826D01*
X3920Y-624729D02*
X3920Y-611182D01*
X3921Y-624729D02*
X3923Y-624830D01*
X3929Y-624931D01*
X3938Y-625032D01*
X3951Y-625133D01*
X3968Y-625233D01*
X3989Y-625332D01*
X4013Y-625430D01*
X4041Y-625527D01*
X4073Y-625624D01*
X4108Y-625719D01*
X4147Y-625812D01*
X4189Y-625904D01*
X4235Y-625995D01*
X4284Y-626084D01*
X4336Y-626170D01*
X4392Y-626255D01*
X4450Y-626338D01*
X4512Y-626418D01*
X4577Y-626496D01*
X4644Y-626572D01*
X4714Y-626645D01*
X4787Y-626715D01*
X4863Y-626782D01*
X4941Y-626847D01*
X5021Y-626909D01*
X5104Y-626967D01*
X5189Y-627023D01*
X5276Y-627075D01*
X5364Y-627124D01*
X5455Y-627170D01*
X5547Y-627212D01*
X5640Y-627251D01*
X5735Y-627286D01*
X5832Y-627318D01*
X5929Y-627346D01*
X6027Y-627370D01*
X6126Y-627391D01*
X6226Y-627408D01*
X6327Y-627421D01*
X6428Y-627430D01*
X6529Y-627436D01*
X6630Y-627438D01*
X19172Y-627438D02*
X19172Y-611182D01*
X19172Y-627438D02*
X14656Y-627438D01*
X14555Y-627436D01*
X14454Y-627430D01*
X14353Y-627421D01*
X14252Y-627408D01*
X14152Y-627391D01*
X14053Y-627370D01*
X13955Y-627346D01*
X13858Y-627318D01*
X13761Y-627286D01*
X13666Y-627251D01*
X13573Y-627212D01*
X13481Y-627170D01*
X13390Y-627124D01*
X13302Y-627075D01*
X13215Y-627023D01*
X13130Y-626967D01*
X13047Y-626909D01*
X12967Y-626847D01*
X12889Y-626782D01*
X12813Y-626715D01*
X12740Y-626645D01*
X12670Y-626572D01*
X12603Y-626496D01*
X12538Y-626418D01*
X12476Y-626338D01*
X12418Y-626255D01*
X12362Y-626170D01*
X12310Y-626084D01*
X12261Y-625995D01*
X12215Y-625904D01*
X12173Y-625812D01*
X12134Y-625719D01*
X12099Y-625624D01*
X12067Y-625527D01*
X12039Y-625430D01*
X12015Y-625332D01*
X11994Y-625233D01*
X11977Y-625133D01*
X11964Y-625032D01*
X11955Y-624931D01*
X11949Y-624830D01*
X11947Y-624729D01*
X11947Y-619310D01*
X11949Y-619209D01*
X11955Y-619108D01*
X11964Y-619007D01*
X11977Y-618906D01*
X11994Y-618806D01*
X12015Y-618707D01*
X12039Y-618609D01*
X12067Y-618512D01*
X12099Y-618415D01*
X12134Y-618320D01*
X12173Y-618227D01*
X12215Y-618135D01*
X12261Y-618044D01*
X12310Y-617956D01*
X12362Y-617869D01*
X12418Y-617784D01*
X12476Y-617701D01*
X12538Y-617621D01*
X12603Y-617543D01*
X12670Y-617467D01*
X12740Y-617394D01*
X12813Y-617324D01*
X12889Y-617257D01*
X12967Y-617192D01*
X13047Y-617130D01*
X13130Y-617072D01*
X13215Y-617016D01*
X13302Y-616964D01*
X13390Y-616915D01*
X13481Y-616869D01*
X13573Y-616827D01*
X13666Y-616788D01*
X13761Y-616753D01*
X13858Y-616721D01*
X13955Y-616693D01*
X14053Y-616669D01*
X14152Y-616648D01*
X14252Y-616631D01*
X14353Y-616618D01*
X14454Y-616609D01*
X14555Y-616603D01*
X14656Y-616601D01*
X19172Y-616601D01*
X28797Y-627438D02*
X33313Y-627438D01*
X28797Y-627438D02*
X28696Y-627436D01*
X28595Y-627430D01*
X28494Y-627421D01*
X28393Y-627408D01*
X28293Y-627391D01*
X28194Y-627370D01*
X28096Y-627346D01*
X27999Y-627318D01*
X27902Y-627286D01*
X27807Y-627251D01*
X27714Y-627212D01*
X27622Y-627170D01*
X27531Y-627124D01*
X27443Y-627075D01*
X27356Y-627023D01*
X27271Y-626967D01*
X27188Y-626909D01*
X27108Y-626847D01*
X27030Y-626782D01*
X26954Y-626715D01*
X26881Y-626645D01*
X26811Y-626572D01*
X26744Y-626496D01*
X26679Y-626418D01*
X26617Y-626338D01*
X26559Y-626255D01*
X26503Y-626170D01*
X26451Y-626084D01*
X26402Y-625995D01*
X26356Y-625904D01*
X26314Y-625812D01*
X26275Y-625719D01*
X26240Y-625624D01*
X26208Y-625527D01*
X26180Y-625430D01*
X26156Y-625332D01*
X26135Y-625233D01*
X26118Y-625133D01*
X26105Y-625032D01*
X26096Y-624931D01*
X26090Y-624830D01*
X26088Y-624729D01*
X26088Y-620213D01*
X26089Y-620213D02*
X26091Y-620094D01*
X26097Y-619974D01*
X26107Y-619855D01*
X26121Y-619737D01*
X26138Y-619618D01*
X26160Y-619501D01*
X26185Y-619384D01*
X26215Y-619269D01*
X26248Y-619154D01*
X26285Y-619040D01*
X26325Y-618928D01*
X26370Y-618817D01*
X26418Y-618708D01*
X26469Y-618600D01*
X26524Y-618494D01*
X26583Y-618390D01*
X26645Y-618288D01*
X26710Y-618188D01*
X26779Y-618090D01*
X26851Y-617994D01*
X26926Y-617901D01*
X27003Y-617811D01*
X27084Y-617723D01*
X27168Y-617638D01*
X27255Y-617556D01*
X27344Y-617476D01*
X27436Y-617400D01*
X27530Y-617326D01*
X27627Y-617256D01*
X27725Y-617189D01*
X27826Y-617125D01*
X27930Y-617065D01*
X28035Y-617008D01*
X28142Y-616955D01*
X28250Y-616905D01*
X28360Y-616859D01*
X28472Y-616817D01*
X28585Y-616778D01*
X28699Y-616743D01*
X28814Y-616712D01*
X28931Y-616684D01*
X29048Y-616661D01*
X29165Y-616641D01*
X29284Y-616625D01*
X29403Y-616613D01*
X29522Y-616605D01*
X29641Y-616601D01*
X29761Y-616601D01*
X29880Y-616605D01*
X29999Y-616613D01*
X30118Y-616625D01*
X30237Y-616641D01*
X30354Y-616661D01*
X30471Y-616684D01*
X30588Y-616712D01*
X30703Y-616743D01*
X30817Y-616778D01*
X30930Y-616817D01*
X31042Y-616859D01*
X31152Y-616905D01*
X31260Y-616955D01*
X31367Y-617008D01*
X31472Y-617065D01*
X31576Y-617125D01*
X31677Y-617189D01*
X31775Y-617256D01*
X31872Y-617326D01*
X31966Y-617400D01*
X32058Y-617476D01*
X32147Y-617556D01*
X32234Y-617638D01*
X32318Y-617723D01*
X32399Y-617811D01*
X32476Y-617901D01*
X32551Y-617994D01*
X32623Y-618090D01*
X32692Y-618188D01*
X32757Y-618288D01*
X32819Y-618390D01*
X32878Y-618494D01*
X32933Y-618600D01*
X32984Y-618708D01*
X33032Y-618817D01*
X33077Y-618928D01*
X33117Y-619040D01*
X33154Y-619154D01*
X33187Y-619269D01*
X33217Y-619384D01*
X33242Y-619501D01*
X33264Y-619618D01*
X33281Y-619737D01*
X33295Y-619855D01*
X33305Y-619974D01*
X33311Y-620094D01*
X33313Y-620213D01*
X33313Y-622019D01*
X26088Y-622019D01*
X40241Y-627438D02*
X40241Y-616601D01*
X45660Y-616601D01*
X45660Y-618407D01*
X59713Y-611182D02*
X59713Y-627438D01*
X65131Y-620213D02*
X59713Y-611182D01*
X65131Y-620213D02*
X70550Y-611182D01*
X70550Y-627438D01*
X80759Y-621116D02*
X84823Y-621116D01*
X80759Y-621116D02*
X80647Y-621118D01*
X80536Y-621124D01*
X80425Y-621134D01*
X80314Y-621147D01*
X80204Y-621165D01*
X80095Y-621187D01*
X79986Y-621212D01*
X79878Y-621241D01*
X79772Y-621274D01*
X79666Y-621311D01*
X79562Y-621351D01*
X79460Y-621395D01*
X79359Y-621443D01*
X79260Y-621494D01*
X79162Y-621549D01*
X79067Y-621607D01*
X78974Y-621668D01*
X78883Y-621733D01*
X78794Y-621801D01*
X78708Y-621872D01*
X78625Y-621945D01*
X78544Y-622022D01*
X78465Y-622102D01*
X78390Y-622184D01*
X78318Y-622269D01*
X78248Y-622356D01*
X78182Y-622446D01*
X78119Y-622538D01*
X78059Y-622633D01*
X78003Y-622729D01*
X77950Y-622827D01*
X77901Y-622927D01*
X77855Y-623029D01*
X77813Y-623132D01*
X77774Y-623237D01*
X77739Y-623343D01*
X77708Y-623450D01*
X77681Y-623558D01*
X77657Y-623667D01*
X77638Y-623777D01*
X77622Y-623887D01*
X77610Y-623998D01*
X77602Y-624110D01*
X77598Y-624221D01*
X77598Y-624333D01*
X77602Y-624444D01*
X77610Y-624556D01*
X77622Y-624667D01*
X77638Y-624777D01*
X77657Y-624887D01*
X77681Y-624996D01*
X77708Y-625104D01*
X77739Y-625211D01*
X77774Y-625317D01*
X77813Y-625422D01*
X77855Y-625525D01*
X77901Y-625627D01*
X77950Y-625727D01*
X78003Y-625825D01*
X78059Y-625921D01*
X78119Y-626016D01*
X78182Y-626108D01*
X78248Y-626198D01*
X78318Y-626285D01*
X78390Y-626370D01*
X78465Y-626452D01*
X78544Y-626532D01*
X78625Y-626609D01*
X78708Y-626682D01*
X78794Y-626753D01*
X78883Y-626821D01*
X78974Y-626886D01*
X79067Y-626947D01*
X79162Y-627005D01*
X79260Y-627060D01*
X79359Y-627111D01*
X79460Y-627159D01*
X79562Y-627203D01*
X79666Y-627243D01*
X79772Y-627280D01*
X79878Y-627313D01*
X79986Y-627342D01*
X80095Y-627367D01*
X80204Y-627389D01*
X80314Y-627407D01*
X80425Y-627420D01*
X80536Y-627430D01*
X80647Y-627436D01*
X80759Y-627438D01*
X84823Y-627438D01*
X84823Y-619310D01*
X84822Y-619310D02*
X84820Y-619209D01*
X84814Y-619108D01*
X84805Y-619007D01*
X84792Y-618906D01*
X84775Y-618806D01*
X84754Y-618707D01*
X84730Y-618609D01*
X84702Y-618512D01*
X84670Y-618415D01*
X84635Y-618320D01*
X84596Y-618227D01*
X84554Y-618135D01*
X84508Y-618044D01*
X84459Y-617956D01*
X84407Y-617869D01*
X84351Y-617784D01*
X84293Y-617701D01*
X84231Y-617621D01*
X84166Y-617543D01*
X84099Y-617467D01*
X84029Y-617394D01*
X83956Y-617324D01*
X83880Y-617257D01*
X83802Y-617192D01*
X83722Y-617130D01*
X83639Y-617072D01*
X83554Y-617016D01*
X83468Y-616964D01*
X83379Y-616915D01*
X83288Y-616869D01*
X83196Y-616827D01*
X83103Y-616788D01*
X83008Y-616753D01*
X82911Y-616721D01*
X82814Y-616693D01*
X82716Y-616669D01*
X82617Y-616648D01*
X82517Y-616631D01*
X82416Y-616618D01*
X82315Y-616609D01*
X82214Y-616603D01*
X82113Y-616601D01*
X78501Y-616601D01*
X93094Y-621116D02*
X97609Y-622922D01*
X93094Y-621116D02*
X93006Y-621079D01*
X92920Y-621038D01*
X92835Y-620994D01*
X92752Y-620946D01*
X92672Y-620895D01*
X92593Y-620841D01*
X92517Y-620783D01*
X92443Y-620723D01*
X92371Y-620659D01*
X92303Y-620593D01*
X92237Y-620523D01*
X92174Y-620452D01*
X92113Y-620377D01*
X92056Y-620301D01*
X92003Y-620222D01*
X91952Y-620141D01*
X91905Y-620058D01*
X91861Y-619973D01*
X91821Y-619886D01*
X91784Y-619798D01*
X91751Y-619708D01*
X91721Y-619617D01*
X91696Y-619525D01*
X91674Y-619432D01*
X91656Y-619338D01*
X91641Y-619244D01*
X91631Y-619149D01*
X91625Y-619053D01*
X91622Y-618958D01*
X91623Y-618862D01*
X91629Y-618767D01*
X91638Y-618671D01*
X91651Y-618577D01*
X91667Y-618483D01*
X91688Y-618389D01*
X91713Y-618297D01*
X91741Y-618206D01*
X91773Y-618116D01*
X91808Y-618027D01*
X91847Y-617940D01*
X91890Y-617854D01*
X91936Y-617770D01*
X91986Y-617689D01*
X92038Y-617609D01*
X92094Y-617531D01*
X92154Y-617456D01*
X92216Y-617384D01*
X92281Y-617314D01*
X92349Y-617246D01*
X92419Y-617182D01*
X92492Y-617120D01*
X92568Y-617062D01*
X92646Y-617006D01*
X92726Y-616954D01*
X92808Y-616905D01*
X92892Y-616860D01*
X92978Y-616818D01*
X93065Y-616779D01*
X93154Y-616744D01*
X93245Y-616713D01*
X93336Y-616686D01*
X93429Y-616662D01*
X93522Y-616642D01*
X93616Y-616626D01*
X93711Y-616614D01*
X93806Y-616605D01*
X93902Y-616601D01*
X93997Y-616600D01*
X94244Y-616607D01*
X94490Y-616619D01*
X94736Y-616637D01*
X94982Y-616662D01*
X95226Y-616692D01*
X95470Y-616728D01*
X95713Y-616770D01*
X95955Y-616817D01*
X96196Y-616871D01*
X96435Y-616930D01*
X96673Y-616995D01*
X96910Y-617066D01*
X97144Y-617142D01*
X97377Y-617224D01*
X97607Y-617312D01*
X97835Y-617405D01*
X98062Y-617503D01*
X97610Y-622923D02*
X97698Y-622960D01*
X97784Y-623001D01*
X97869Y-623045D01*
X97952Y-623093D01*
X98032Y-623144D01*
X98111Y-623198D01*
X98187Y-623256D01*
X98261Y-623316D01*
X98333Y-623380D01*
X98401Y-623446D01*
X98467Y-623516D01*
X98530Y-623587D01*
X98591Y-623662D01*
X98648Y-623738D01*
X98701Y-623817D01*
X98752Y-623898D01*
X98799Y-623981D01*
X98843Y-624066D01*
X98883Y-624153D01*
X98920Y-624241D01*
X98953Y-624331D01*
X98983Y-624422D01*
X99008Y-624514D01*
X99030Y-624607D01*
X99048Y-624701D01*
X99063Y-624795D01*
X99073Y-624890D01*
X99079Y-624986D01*
X99082Y-625081D01*
X99081Y-625177D01*
X99075Y-625272D01*
X99066Y-625368D01*
X99053Y-625462D01*
X99037Y-625556D01*
X99016Y-625650D01*
X98991Y-625742D01*
X98963Y-625833D01*
X98931Y-625923D01*
X98896Y-626012D01*
X98857Y-626099D01*
X98814Y-626185D01*
X98768Y-626269D01*
X98718Y-626350D01*
X98666Y-626430D01*
X98610Y-626508D01*
X98550Y-626583D01*
X98488Y-626655D01*
X98423Y-626725D01*
X98355Y-626793D01*
X98285Y-626857D01*
X98212Y-626919D01*
X98136Y-626977D01*
X98058Y-627033D01*
X97978Y-627085D01*
X97896Y-627134D01*
X97812Y-627179D01*
X97726Y-627221D01*
X97639Y-627260D01*
X97550Y-627295D01*
X97459Y-627326D01*
X97368Y-627353D01*
X97275Y-627377D01*
X97182Y-627397D01*
X97088Y-627413D01*
X96993Y-627425D01*
X96898Y-627434D01*
X96802Y-627438D01*
X96707Y-627439D01*
X96706Y-627438D02*
X96344Y-627429D01*
X95982Y-627411D01*
X95621Y-627384D01*
X95261Y-627349D01*
X94901Y-627306D01*
X94542Y-627254D01*
X94185Y-627193D01*
X93830Y-627124D01*
X93476Y-627047D01*
X93124Y-626961D01*
X92774Y-626867D01*
X92426Y-626764D01*
X92081Y-626654D01*
X91739Y-626535D01*
X105976Y-627438D02*
X105976Y-611182D01*
X113201Y-616601D02*
X105976Y-622019D01*
X109137Y-619762D02*
X113201Y-627438D01*
M02*
