G04 EAGLE Gerber RS-274X export*
G75*
%MOMM*%
%FSLAX34Y34*%
%LPD*%
%INSilk screen SOL*%
%IPPOS*%
%AMOC8*
5,1,8,0,0,1.08239X$1,22.5*%
G01*
%ADD10C,0.100000*%
%ADD11C,0.000000*%
%ADD12C,0.152400*%


D10*
X430000Y265000D02*
X430000Y-350000D01*
X-430000Y-350000D02*
X-430000Y265000D01*
X380000Y-400000D02*
X381208Y-399985D01*
X382416Y-399942D01*
X383622Y-399869D01*
X384826Y-399767D01*
X386027Y-399635D01*
X387224Y-399475D01*
X388418Y-399286D01*
X389606Y-399069D01*
X390789Y-398822D01*
X391966Y-398547D01*
X393135Y-398244D01*
X394297Y-397912D01*
X395451Y-397553D01*
X396595Y-397166D01*
X397730Y-396751D01*
X398855Y-396309D01*
X399968Y-395840D01*
X401070Y-395344D01*
X402160Y-394821D01*
X403236Y-394273D01*
X404299Y-393698D01*
X405348Y-393098D01*
X406382Y-392473D01*
X407401Y-391824D01*
X408403Y-391149D01*
X409389Y-390451D01*
X410358Y-389729D01*
X411309Y-388984D01*
X412242Y-388216D01*
X413156Y-387426D01*
X414051Y-386613D01*
X414926Y-385780D01*
X415780Y-384926D01*
X416613Y-384051D01*
X417426Y-383156D01*
X418216Y-382242D01*
X418984Y-381309D01*
X419729Y-380358D01*
X420451Y-379389D01*
X421149Y-378403D01*
X421824Y-377401D01*
X422473Y-376382D01*
X423098Y-375348D01*
X423698Y-374299D01*
X424273Y-373236D01*
X424821Y-372160D01*
X425344Y-371070D01*
X425840Y-369968D01*
X426309Y-368855D01*
X426751Y-367730D01*
X427166Y-366595D01*
X427553Y-365451D01*
X427912Y-364297D01*
X428244Y-363135D01*
X428547Y-361966D01*
X428822Y-360789D01*
X429069Y-359606D01*
X429286Y-358418D01*
X429475Y-357224D01*
X429635Y-356027D01*
X429767Y-354826D01*
X429869Y-353622D01*
X429942Y-352416D01*
X429985Y-351208D01*
X430000Y-350000D01*
X380000Y-400000D02*
X-380000Y-400000D01*
X-381208Y-399985D01*
X-382416Y-399942D01*
X-383622Y-399869D01*
X-384826Y-399767D01*
X-386027Y-399635D01*
X-387224Y-399475D01*
X-388418Y-399286D01*
X-389606Y-399069D01*
X-390789Y-398822D01*
X-391966Y-398547D01*
X-393135Y-398244D01*
X-394297Y-397912D01*
X-395451Y-397553D01*
X-396595Y-397166D01*
X-397730Y-396751D01*
X-398855Y-396309D01*
X-399968Y-395840D01*
X-401070Y-395344D01*
X-402160Y-394821D01*
X-403236Y-394273D01*
X-404299Y-393698D01*
X-405348Y-393098D01*
X-406382Y-392473D01*
X-407401Y-391824D01*
X-408403Y-391149D01*
X-409389Y-390451D01*
X-410358Y-389729D01*
X-411309Y-388984D01*
X-412242Y-388216D01*
X-413156Y-387426D01*
X-414051Y-386613D01*
X-414926Y-385780D01*
X-415780Y-384926D01*
X-416613Y-384051D01*
X-417426Y-383156D01*
X-418216Y-382242D01*
X-418984Y-381309D01*
X-419729Y-380358D01*
X-420451Y-379389D01*
X-421149Y-378403D01*
X-421824Y-377401D01*
X-422473Y-376382D01*
X-423098Y-375348D01*
X-423698Y-374299D01*
X-424273Y-373236D01*
X-424821Y-372160D01*
X-425344Y-371070D01*
X-425840Y-369968D01*
X-426309Y-368855D01*
X-426751Y-367730D01*
X-427166Y-366595D01*
X-427553Y-365451D01*
X-427912Y-364297D01*
X-428244Y-363135D01*
X-428547Y-361966D01*
X-428822Y-360789D01*
X-429069Y-359606D01*
X-429286Y-358418D01*
X-429475Y-357224D01*
X-429635Y-356027D01*
X-429767Y-354826D01*
X-429869Y-353622D01*
X-429942Y-352416D01*
X-429985Y-351208D01*
X-430000Y-350000D01*
X-45000Y315000D02*
X380000Y315000D01*
X-380000Y315000D02*
X-381208Y314985D01*
X-382416Y314942D01*
X-383622Y314869D01*
X-384826Y314767D01*
X-386027Y314635D01*
X-387224Y314475D01*
X-388418Y314286D01*
X-389606Y314069D01*
X-390789Y313822D01*
X-391966Y313547D01*
X-393135Y313244D01*
X-394297Y312912D01*
X-395451Y312553D01*
X-396595Y312166D01*
X-397730Y311751D01*
X-398855Y311309D01*
X-399968Y310840D01*
X-401070Y310344D01*
X-402160Y309821D01*
X-403236Y309273D01*
X-404299Y308698D01*
X-405348Y308098D01*
X-406382Y307473D01*
X-407401Y306824D01*
X-408403Y306149D01*
X-409389Y305451D01*
X-410358Y304729D01*
X-411309Y303984D01*
X-412242Y303216D01*
X-413156Y302426D01*
X-414051Y301613D01*
X-414926Y300780D01*
X-415780Y299926D01*
X-416613Y299051D01*
X-417426Y298156D01*
X-418216Y297242D01*
X-418984Y296309D01*
X-419729Y295358D01*
X-420451Y294389D01*
X-421149Y293403D01*
X-421824Y292401D01*
X-422473Y291382D01*
X-423098Y290348D01*
X-423698Y289299D01*
X-424273Y288236D01*
X-424821Y287160D01*
X-425344Y286070D01*
X-425840Y284968D01*
X-426309Y283855D01*
X-426751Y282730D01*
X-427166Y281595D01*
X-427553Y280451D01*
X-427912Y279297D01*
X-428244Y278135D01*
X-428547Y276966D01*
X-428822Y275789D01*
X-429069Y274606D01*
X-429286Y273418D01*
X-429475Y272224D01*
X-429635Y271027D01*
X-429767Y269826D01*
X-429869Y268622D01*
X-429942Y267416D01*
X-429985Y266208D01*
X-430000Y265000D01*
X380000Y315000D02*
X381208Y314985D01*
X382416Y314942D01*
X383622Y314869D01*
X384826Y314767D01*
X386027Y314635D01*
X387224Y314475D01*
X388418Y314286D01*
X389606Y314069D01*
X390789Y313822D01*
X391966Y313547D01*
X393135Y313244D01*
X394297Y312912D01*
X395451Y312553D01*
X396595Y312166D01*
X397730Y311751D01*
X398855Y311309D01*
X399968Y310840D01*
X401070Y310344D01*
X402160Y309821D01*
X403236Y309273D01*
X404299Y308698D01*
X405348Y308098D01*
X406382Y307473D01*
X407401Y306824D01*
X408403Y306149D01*
X409389Y305451D01*
X410358Y304729D01*
X411309Y303984D01*
X412242Y303216D01*
X413156Y302426D01*
X414051Y301613D01*
X414926Y300780D01*
X415780Y299926D01*
X416613Y299051D01*
X417426Y298156D01*
X418216Y297242D01*
X418984Y296309D01*
X419729Y295358D01*
X420451Y294389D01*
X421149Y293403D01*
X421824Y292401D01*
X422473Y291382D01*
X423098Y290348D01*
X423698Y289299D01*
X424273Y288236D01*
X424821Y287160D01*
X425344Y286070D01*
X425840Y284968D01*
X426309Y283855D01*
X426751Y282730D01*
X427166Y281595D01*
X427553Y280451D01*
X427912Y279297D01*
X428244Y278135D01*
X428547Y276966D01*
X428822Y275789D01*
X429069Y274606D01*
X429286Y273418D01*
X429475Y272224D01*
X429635Y271027D01*
X429767Y269826D01*
X429869Y268622D01*
X429942Y267416D01*
X429985Y266208D01*
X430000Y265000D01*
X-60000Y305000D02*
X-140000Y305000D01*
X-155000Y315000D02*
X-380000Y315000D01*
X-155000Y315000D02*
X-140000Y305000D01*
X-60000Y305000D02*
X-45000Y315000D01*
D11*
X-76000Y130000D02*
X-75995Y130393D01*
X-75981Y130785D01*
X-75957Y131177D01*
X-75923Y131568D01*
X-75880Y131959D01*
X-75827Y132348D01*
X-75764Y132735D01*
X-75693Y133121D01*
X-75611Y133506D01*
X-75521Y133888D01*
X-75420Y134267D01*
X-75311Y134645D01*
X-75192Y135019D01*
X-75065Y135390D01*
X-74928Y135758D01*
X-74782Y136123D01*
X-74627Y136484D01*
X-74464Y136841D01*
X-74292Y137194D01*
X-74111Y137542D01*
X-73921Y137886D01*
X-73724Y138226D01*
X-73518Y138560D01*
X-73304Y138889D01*
X-73081Y139213D01*
X-72851Y139531D01*
X-72614Y139844D01*
X-72368Y140150D01*
X-72115Y140451D01*
X-71855Y140745D01*
X-71588Y141033D01*
X-71314Y141314D01*
X-71033Y141588D01*
X-70745Y141855D01*
X-70451Y142115D01*
X-70150Y142368D01*
X-69844Y142614D01*
X-69531Y142851D01*
X-69213Y143081D01*
X-68889Y143304D01*
X-68560Y143518D01*
X-68226Y143724D01*
X-67886Y143921D01*
X-67542Y144111D01*
X-67194Y144292D01*
X-66841Y144464D01*
X-66484Y144627D01*
X-66123Y144782D01*
X-65758Y144928D01*
X-65390Y145065D01*
X-65019Y145192D01*
X-64645Y145311D01*
X-64267Y145420D01*
X-63888Y145521D01*
X-63506Y145611D01*
X-63121Y145693D01*
X-62735Y145764D01*
X-62348Y145827D01*
X-61959Y145880D01*
X-61568Y145923D01*
X-61177Y145957D01*
X-60785Y145981D01*
X-60393Y145995D01*
X-60000Y146000D01*
X-59607Y145995D01*
X-59215Y145981D01*
X-58823Y145957D01*
X-58432Y145923D01*
X-58041Y145880D01*
X-57652Y145827D01*
X-57265Y145764D01*
X-56879Y145693D01*
X-56494Y145611D01*
X-56112Y145521D01*
X-55733Y145420D01*
X-55355Y145311D01*
X-54981Y145192D01*
X-54610Y145065D01*
X-54242Y144928D01*
X-53877Y144782D01*
X-53516Y144627D01*
X-53159Y144464D01*
X-52806Y144292D01*
X-52458Y144111D01*
X-52114Y143921D01*
X-51774Y143724D01*
X-51440Y143518D01*
X-51111Y143304D01*
X-50787Y143081D01*
X-50469Y142851D01*
X-50156Y142614D01*
X-49850Y142368D01*
X-49549Y142115D01*
X-49255Y141855D01*
X-48967Y141588D01*
X-48686Y141314D01*
X-48412Y141033D01*
X-48145Y140745D01*
X-47885Y140451D01*
X-47632Y140150D01*
X-47386Y139844D01*
X-47149Y139531D01*
X-46919Y139213D01*
X-46696Y138889D01*
X-46482Y138560D01*
X-46276Y138226D01*
X-46079Y137886D01*
X-45889Y137542D01*
X-45708Y137194D01*
X-45536Y136841D01*
X-45373Y136484D01*
X-45218Y136123D01*
X-45072Y135758D01*
X-44935Y135390D01*
X-44808Y135019D01*
X-44689Y134645D01*
X-44580Y134267D01*
X-44479Y133888D01*
X-44389Y133506D01*
X-44307Y133121D01*
X-44236Y132735D01*
X-44173Y132348D01*
X-44120Y131959D01*
X-44077Y131568D01*
X-44043Y131177D01*
X-44019Y130785D01*
X-44005Y130393D01*
X-44000Y130000D01*
X-44005Y129607D01*
X-44019Y129215D01*
X-44043Y128823D01*
X-44077Y128432D01*
X-44120Y128041D01*
X-44173Y127652D01*
X-44236Y127265D01*
X-44307Y126879D01*
X-44389Y126494D01*
X-44479Y126112D01*
X-44580Y125733D01*
X-44689Y125355D01*
X-44808Y124981D01*
X-44935Y124610D01*
X-45072Y124242D01*
X-45218Y123877D01*
X-45373Y123516D01*
X-45536Y123159D01*
X-45708Y122806D01*
X-45889Y122458D01*
X-46079Y122114D01*
X-46276Y121774D01*
X-46482Y121440D01*
X-46696Y121111D01*
X-46919Y120787D01*
X-47149Y120469D01*
X-47386Y120156D01*
X-47632Y119850D01*
X-47885Y119549D01*
X-48145Y119255D01*
X-48412Y118967D01*
X-48686Y118686D01*
X-48967Y118412D01*
X-49255Y118145D01*
X-49549Y117885D01*
X-49850Y117632D01*
X-50156Y117386D01*
X-50469Y117149D01*
X-50787Y116919D01*
X-51111Y116696D01*
X-51440Y116482D01*
X-51774Y116276D01*
X-52114Y116079D01*
X-52458Y115889D01*
X-52806Y115708D01*
X-53159Y115536D01*
X-53516Y115373D01*
X-53877Y115218D01*
X-54242Y115072D01*
X-54610Y114935D01*
X-54981Y114808D01*
X-55355Y114689D01*
X-55733Y114580D01*
X-56112Y114479D01*
X-56494Y114389D01*
X-56879Y114307D01*
X-57265Y114236D01*
X-57652Y114173D01*
X-58041Y114120D01*
X-58432Y114077D01*
X-58823Y114043D01*
X-59215Y114019D01*
X-59607Y114005D01*
X-60000Y114000D01*
X-60393Y114005D01*
X-60785Y114019D01*
X-61177Y114043D01*
X-61568Y114077D01*
X-61959Y114120D01*
X-62348Y114173D01*
X-62735Y114236D01*
X-63121Y114307D01*
X-63506Y114389D01*
X-63888Y114479D01*
X-64267Y114580D01*
X-64645Y114689D01*
X-65019Y114808D01*
X-65390Y114935D01*
X-65758Y115072D01*
X-66123Y115218D01*
X-66484Y115373D01*
X-66841Y115536D01*
X-67194Y115708D01*
X-67542Y115889D01*
X-67886Y116079D01*
X-68226Y116276D01*
X-68560Y116482D01*
X-68889Y116696D01*
X-69213Y116919D01*
X-69531Y117149D01*
X-69844Y117386D01*
X-70150Y117632D01*
X-70451Y117885D01*
X-70745Y118145D01*
X-71033Y118412D01*
X-71314Y118686D01*
X-71588Y118967D01*
X-71855Y119255D01*
X-72115Y119549D01*
X-72368Y119850D01*
X-72614Y120156D01*
X-72851Y120469D01*
X-73081Y120787D01*
X-73304Y121111D01*
X-73518Y121440D01*
X-73724Y121774D01*
X-73921Y122114D01*
X-74111Y122458D01*
X-74292Y122806D01*
X-74464Y123159D01*
X-74627Y123516D01*
X-74782Y123877D01*
X-74928Y124242D01*
X-75065Y124610D01*
X-75192Y124981D01*
X-75311Y125355D01*
X-75420Y125733D01*
X-75521Y126112D01*
X-75611Y126494D01*
X-75693Y126879D01*
X-75764Y127265D01*
X-75827Y127652D01*
X-75880Y128041D01*
X-75923Y128432D01*
X-75957Y128823D01*
X-75981Y129215D01*
X-75995Y129607D01*
X-76000Y130000D01*
X-6000Y130000D02*
X-5995Y130393D01*
X-5981Y130785D01*
X-5957Y131177D01*
X-5923Y131568D01*
X-5880Y131959D01*
X-5827Y132348D01*
X-5764Y132735D01*
X-5693Y133121D01*
X-5611Y133506D01*
X-5521Y133888D01*
X-5420Y134267D01*
X-5311Y134645D01*
X-5192Y135019D01*
X-5065Y135390D01*
X-4928Y135758D01*
X-4782Y136123D01*
X-4627Y136484D01*
X-4464Y136841D01*
X-4292Y137194D01*
X-4111Y137542D01*
X-3921Y137886D01*
X-3724Y138226D01*
X-3518Y138560D01*
X-3304Y138889D01*
X-3081Y139213D01*
X-2851Y139531D01*
X-2614Y139844D01*
X-2368Y140150D01*
X-2115Y140451D01*
X-1855Y140745D01*
X-1588Y141033D01*
X-1314Y141314D01*
X-1033Y141588D01*
X-745Y141855D01*
X-451Y142115D01*
X-150Y142368D01*
X156Y142614D01*
X469Y142851D01*
X787Y143081D01*
X1111Y143304D01*
X1440Y143518D01*
X1774Y143724D01*
X2114Y143921D01*
X2458Y144111D01*
X2806Y144292D01*
X3159Y144464D01*
X3516Y144627D01*
X3877Y144782D01*
X4242Y144928D01*
X4610Y145065D01*
X4981Y145192D01*
X5355Y145311D01*
X5733Y145420D01*
X6112Y145521D01*
X6494Y145611D01*
X6879Y145693D01*
X7265Y145764D01*
X7652Y145827D01*
X8041Y145880D01*
X8432Y145923D01*
X8823Y145957D01*
X9215Y145981D01*
X9607Y145995D01*
X10000Y146000D01*
X10393Y145995D01*
X10785Y145981D01*
X11177Y145957D01*
X11568Y145923D01*
X11959Y145880D01*
X12348Y145827D01*
X12735Y145764D01*
X13121Y145693D01*
X13506Y145611D01*
X13888Y145521D01*
X14267Y145420D01*
X14645Y145311D01*
X15019Y145192D01*
X15390Y145065D01*
X15758Y144928D01*
X16123Y144782D01*
X16484Y144627D01*
X16841Y144464D01*
X17194Y144292D01*
X17542Y144111D01*
X17886Y143921D01*
X18226Y143724D01*
X18560Y143518D01*
X18889Y143304D01*
X19213Y143081D01*
X19531Y142851D01*
X19844Y142614D01*
X20150Y142368D01*
X20451Y142115D01*
X20745Y141855D01*
X21033Y141588D01*
X21314Y141314D01*
X21588Y141033D01*
X21855Y140745D01*
X22115Y140451D01*
X22368Y140150D01*
X22614Y139844D01*
X22851Y139531D01*
X23081Y139213D01*
X23304Y138889D01*
X23518Y138560D01*
X23724Y138226D01*
X23921Y137886D01*
X24111Y137542D01*
X24292Y137194D01*
X24464Y136841D01*
X24627Y136484D01*
X24782Y136123D01*
X24928Y135758D01*
X25065Y135390D01*
X25192Y135019D01*
X25311Y134645D01*
X25420Y134267D01*
X25521Y133888D01*
X25611Y133506D01*
X25693Y133121D01*
X25764Y132735D01*
X25827Y132348D01*
X25880Y131959D01*
X25923Y131568D01*
X25957Y131177D01*
X25981Y130785D01*
X25995Y130393D01*
X26000Y130000D01*
X25995Y129607D01*
X25981Y129215D01*
X25957Y128823D01*
X25923Y128432D01*
X25880Y128041D01*
X25827Y127652D01*
X25764Y127265D01*
X25693Y126879D01*
X25611Y126494D01*
X25521Y126112D01*
X25420Y125733D01*
X25311Y125355D01*
X25192Y124981D01*
X25065Y124610D01*
X24928Y124242D01*
X24782Y123877D01*
X24627Y123516D01*
X24464Y123159D01*
X24292Y122806D01*
X24111Y122458D01*
X23921Y122114D01*
X23724Y121774D01*
X23518Y121440D01*
X23304Y121111D01*
X23081Y120787D01*
X22851Y120469D01*
X22614Y120156D01*
X22368Y119850D01*
X22115Y119549D01*
X21855Y119255D01*
X21588Y118967D01*
X21314Y118686D01*
X21033Y118412D01*
X20745Y118145D01*
X20451Y117885D01*
X20150Y117632D01*
X19844Y117386D01*
X19531Y117149D01*
X19213Y116919D01*
X18889Y116696D01*
X18560Y116482D01*
X18226Y116276D01*
X17886Y116079D01*
X17542Y115889D01*
X17194Y115708D01*
X16841Y115536D01*
X16484Y115373D01*
X16123Y115218D01*
X15758Y115072D01*
X15390Y114935D01*
X15019Y114808D01*
X14645Y114689D01*
X14267Y114580D01*
X13888Y114479D01*
X13506Y114389D01*
X13121Y114307D01*
X12735Y114236D01*
X12348Y114173D01*
X11959Y114120D01*
X11568Y114077D01*
X11177Y114043D01*
X10785Y114019D01*
X10393Y114005D01*
X10000Y114000D01*
X9607Y114005D01*
X9215Y114019D01*
X8823Y114043D01*
X8432Y114077D01*
X8041Y114120D01*
X7652Y114173D01*
X7265Y114236D01*
X6879Y114307D01*
X6494Y114389D01*
X6112Y114479D01*
X5733Y114580D01*
X5355Y114689D01*
X4981Y114808D01*
X4610Y114935D01*
X4242Y115072D01*
X3877Y115218D01*
X3516Y115373D01*
X3159Y115536D01*
X2806Y115708D01*
X2458Y115889D01*
X2114Y116079D01*
X1774Y116276D01*
X1440Y116482D01*
X1111Y116696D01*
X787Y116919D01*
X469Y117149D01*
X156Y117386D01*
X-150Y117632D01*
X-451Y117885D01*
X-745Y118145D01*
X-1033Y118412D01*
X-1314Y118686D01*
X-1588Y118967D01*
X-1855Y119255D01*
X-2115Y119549D01*
X-2368Y119850D01*
X-2614Y120156D01*
X-2851Y120469D01*
X-3081Y120787D01*
X-3304Y121111D01*
X-3518Y121440D01*
X-3724Y121774D01*
X-3921Y122114D01*
X-4111Y122458D01*
X-4292Y122806D01*
X-4464Y123159D01*
X-4627Y123516D01*
X-4782Y123877D01*
X-4928Y124242D01*
X-5065Y124610D01*
X-5192Y124981D01*
X-5311Y125355D01*
X-5420Y125733D01*
X-5521Y126112D01*
X-5611Y126494D01*
X-5693Y126879D01*
X-5764Y127265D01*
X-5827Y127652D01*
X-5880Y128041D01*
X-5923Y128432D01*
X-5957Y128823D01*
X-5981Y129215D01*
X-5995Y129607D01*
X-6000Y130000D01*
X-1116000Y-270000D02*
X-1115997Y-269730D01*
X-1115987Y-269460D01*
X-1115970Y-269191D01*
X-1115947Y-268922D01*
X-1115917Y-268653D01*
X-1115881Y-268386D01*
X-1115838Y-268119D01*
X-1115789Y-267854D01*
X-1115733Y-267590D01*
X-1115670Y-267327D01*
X-1115602Y-267066D01*
X-1115526Y-266807D01*
X-1115445Y-266550D01*
X-1115357Y-266294D01*
X-1115263Y-266041D01*
X-1115163Y-265790D01*
X-1115056Y-265542D01*
X-1114944Y-265297D01*
X-1114825Y-265054D01*
X-1114701Y-264815D01*
X-1114571Y-264578D01*
X-1114435Y-264345D01*
X-1114293Y-264115D01*
X-1114146Y-263889D01*
X-1113993Y-263666D01*
X-1113835Y-263447D01*
X-1113672Y-263232D01*
X-1113503Y-263022D01*
X-1113329Y-262815D01*
X-1113150Y-262613D01*
X-1112967Y-262415D01*
X-1112778Y-262222D01*
X-1112585Y-262033D01*
X-1112387Y-261850D01*
X-1112185Y-261671D01*
X-1111978Y-261497D01*
X-1111768Y-261328D01*
X-1111553Y-261165D01*
X-1111334Y-261007D01*
X-1111111Y-260854D01*
X-1110885Y-260707D01*
X-1110655Y-260565D01*
X-1110422Y-260429D01*
X-1110185Y-260299D01*
X-1109946Y-260175D01*
X-1109703Y-260056D01*
X-1109458Y-259944D01*
X-1109210Y-259837D01*
X-1108959Y-259737D01*
X-1108706Y-259643D01*
X-1108450Y-259555D01*
X-1108193Y-259474D01*
X-1107934Y-259398D01*
X-1107673Y-259330D01*
X-1107410Y-259267D01*
X-1107146Y-259211D01*
X-1106881Y-259162D01*
X-1106614Y-259119D01*
X-1106347Y-259083D01*
X-1106078Y-259053D01*
X-1105809Y-259030D01*
X-1105540Y-259013D01*
X-1105270Y-259003D01*
X-1105000Y-259000D01*
X-1104730Y-259003D01*
X-1104460Y-259013D01*
X-1104191Y-259030D01*
X-1103922Y-259053D01*
X-1103653Y-259083D01*
X-1103386Y-259119D01*
X-1103119Y-259162D01*
X-1102854Y-259211D01*
X-1102590Y-259267D01*
X-1102327Y-259330D01*
X-1102066Y-259398D01*
X-1101807Y-259474D01*
X-1101550Y-259555D01*
X-1101294Y-259643D01*
X-1101041Y-259737D01*
X-1100790Y-259837D01*
X-1100542Y-259944D01*
X-1100297Y-260056D01*
X-1100054Y-260175D01*
X-1099815Y-260299D01*
X-1099578Y-260429D01*
X-1099345Y-260565D01*
X-1099115Y-260707D01*
X-1098889Y-260854D01*
X-1098666Y-261007D01*
X-1098447Y-261165D01*
X-1098232Y-261328D01*
X-1098022Y-261497D01*
X-1097815Y-261671D01*
X-1097613Y-261850D01*
X-1097415Y-262033D01*
X-1097222Y-262222D01*
X-1097033Y-262415D01*
X-1096850Y-262613D01*
X-1096671Y-262815D01*
X-1096497Y-263022D01*
X-1096328Y-263232D01*
X-1096165Y-263447D01*
X-1096007Y-263666D01*
X-1095854Y-263889D01*
X-1095707Y-264115D01*
X-1095565Y-264345D01*
X-1095429Y-264578D01*
X-1095299Y-264815D01*
X-1095175Y-265054D01*
X-1095056Y-265297D01*
X-1094944Y-265542D01*
X-1094837Y-265790D01*
X-1094737Y-266041D01*
X-1094643Y-266294D01*
X-1094555Y-266550D01*
X-1094474Y-266807D01*
X-1094398Y-267066D01*
X-1094330Y-267327D01*
X-1094267Y-267590D01*
X-1094211Y-267854D01*
X-1094162Y-268119D01*
X-1094119Y-268386D01*
X-1094083Y-268653D01*
X-1094053Y-268922D01*
X-1094030Y-269191D01*
X-1094013Y-269460D01*
X-1094003Y-269730D01*
X-1094000Y-270000D01*
X-1094003Y-270270D01*
X-1094013Y-270540D01*
X-1094030Y-270809D01*
X-1094053Y-271078D01*
X-1094083Y-271347D01*
X-1094119Y-271614D01*
X-1094162Y-271881D01*
X-1094211Y-272146D01*
X-1094267Y-272410D01*
X-1094330Y-272673D01*
X-1094398Y-272934D01*
X-1094474Y-273193D01*
X-1094555Y-273450D01*
X-1094643Y-273706D01*
X-1094737Y-273959D01*
X-1094837Y-274210D01*
X-1094944Y-274458D01*
X-1095056Y-274703D01*
X-1095175Y-274946D01*
X-1095299Y-275185D01*
X-1095429Y-275422D01*
X-1095565Y-275655D01*
X-1095707Y-275885D01*
X-1095854Y-276111D01*
X-1096007Y-276334D01*
X-1096165Y-276553D01*
X-1096328Y-276768D01*
X-1096497Y-276978D01*
X-1096671Y-277185D01*
X-1096850Y-277387D01*
X-1097033Y-277585D01*
X-1097222Y-277778D01*
X-1097415Y-277967D01*
X-1097613Y-278150D01*
X-1097815Y-278329D01*
X-1098022Y-278503D01*
X-1098232Y-278672D01*
X-1098447Y-278835D01*
X-1098666Y-278993D01*
X-1098889Y-279146D01*
X-1099115Y-279293D01*
X-1099345Y-279435D01*
X-1099578Y-279571D01*
X-1099815Y-279701D01*
X-1100054Y-279825D01*
X-1100297Y-279944D01*
X-1100542Y-280056D01*
X-1100790Y-280163D01*
X-1101041Y-280263D01*
X-1101294Y-280357D01*
X-1101550Y-280445D01*
X-1101807Y-280526D01*
X-1102066Y-280602D01*
X-1102327Y-280670D01*
X-1102590Y-280733D01*
X-1102854Y-280789D01*
X-1103119Y-280838D01*
X-1103386Y-280881D01*
X-1103653Y-280917D01*
X-1103922Y-280947D01*
X-1104191Y-280970D01*
X-1104460Y-280987D01*
X-1104730Y-280997D01*
X-1105000Y-281000D01*
X-1105270Y-280997D01*
X-1105540Y-280987D01*
X-1105809Y-280970D01*
X-1106078Y-280947D01*
X-1106347Y-280917D01*
X-1106614Y-280881D01*
X-1106881Y-280838D01*
X-1107146Y-280789D01*
X-1107410Y-280733D01*
X-1107673Y-280670D01*
X-1107934Y-280602D01*
X-1108193Y-280526D01*
X-1108450Y-280445D01*
X-1108706Y-280357D01*
X-1108959Y-280263D01*
X-1109210Y-280163D01*
X-1109458Y-280056D01*
X-1109703Y-279944D01*
X-1109946Y-279825D01*
X-1110185Y-279701D01*
X-1110422Y-279571D01*
X-1110655Y-279435D01*
X-1110885Y-279293D01*
X-1111111Y-279146D01*
X-1111334Y-278993D01*
X-1111553Y-278835D01*
X-1111768Y-278672D01*
X-1111978Y-278503D01*
X-1112185Y-278329D01*
X-1112387Y-278150D01*
X-1112585Y-277967D01*
X-1112778Y-277778D01*
X-1112967Y-277585D01*
X-1113150Y-277387D01*
X-1113329Y-277185D01*
X-1113503Y-276978D01*
X-1113672Y-276768D01*
X-1113835Y-276553D01*
X-1113993Y-276334D01*
X-1114146Y-276111D01*
X-1114293Y-275885D01*
X-1114435Y-275655D01*
X-1114571Y-275422D01*
X-1114701Y-275185D01*
X-1114825Y-274946D01*
X-1114944Y-274703D01*
X-1115056Y-274458D01*
X-1115163Y-274210D01*
X-1115263Y-273959D01*
X-1115357Y-273706D01*
X-1115445Y-273450D01*
X-1115526Y-273193D01*
X-1115602Y-272934D01*
X-1115670Y-272673D01*
X-1115733Y-272410D01*
X-1115789Y-272146D01*
X-1115838Y-271881D01*
X-1115881Y-271614D01*
X-1115917Y-271347D01*
X-1115947Y-271078D01*
X-1115970Y-270809D01*
X-1115987Y-270540D01*
X-1115997Y-270270D01*
X-1116000Y-270000D01*
X-1116000Y270000D02*
X-1115997Y270270D01*
X-1115987Y270540D01*
X-1115970Y270809D01*
X-1115947Y271078D01*
X-1115917Y271347D01*
X-1115881Y271614D01*
X-1115838Y271881D01*
X-1115789Y272146D01*
X-1115733Y272410D01*
X-1115670Y272673D01*
X-1115602Y272934D01*
X-1115526Y273193D01*
X-1115445Y273450D01*
X-1115357Y273706D01*
X-1115263Y273959D01*
X-1115163Y274210D01*
X-1115056Y274458D01*
X-1114944Y274703D01*
X-1114825Y274946D01*
X-1114701Y275185D01*
X-1114571Y275422D01*
X-1114435Y275655D01*
X-1114293Y275885D01*
X-1114146Y276111D01*
X-1113993Y276334D01*
X-1113835Y276553D01*
X-1113672Y276768D01*
X-1113503Y276978D01*
X-1113329Y277185D01*
X-1113150Y277387D01*
X-1112967Y277585D01*
X-1112778Y277778D01*
X-1112585Y277967D01*
X-1112387Y278150D01*
X-1112185Y278329D01*
X-1111978Y278503D01*
X-1111768Y278672D01*
X-1111553Y278835D01*
X-1111334Y278993D01*
X-1111111Y279146D01*
X-1110885Y279293D01*
X-1110655Y279435D01*
X-1110422Y279571D01*
X-1110185Y279701D01*
X-1109946Y279825D01*
X-1109703Y279944D01*
X-1109458Y280056D01*
X-1109210Y280163D01*
X-1108959Y280263D01*
X-1108706Y280357D01*
X-1108450Y280445D01*
X-1108193Y280526D01*
X-1107934Y280602D01*
X-1107673Y280670D01*
X-1107410Y280733D01*
X-1107146Y280789D01*
X-1106881Y280838D01*
X-1106614Y280881D01*
X-1106347Y280917D01*
X-1106078Y280947D01*
X-1105809Y280970D01*
X-1105540Y280987D01*
X-1105270Y280997D01*
X-1105000Y281000D01*
X-1104730Y280997D01*
X-1104460Y280987D01*
X-1104191Y280970D01*
X-1103922Y280947D01*
X-1103653Y280917D01*
X-1103386Y280881D01*
X-1103119Y280838D01*
X-1102854Y280789D01*
X-1102590Y280733D01*
X-1102327Y280670D01*
X-1102066Y280602D01*
X-1101807Y280526D01*
X-1101550Y280445D01*
X-1101294Y280357D01*
X-1101041Y280263D01*
X-1100790Y280163D01*
X-1100542Y280056D01*
X-1100297Y279944D01*
X-1100054Y279825D01*
X-1099815Y279701D01*
X-1099578Y279571D01*
X-1099345Y279435D01*
X-1099115Y279293D01*
X-1098889Y279146D01*
X-1098666Y278993D01*
X-1098447Y278835D01*
X-1098232Y278672D01*
X-1098022Y278503D01*
X-1097815Y278329D01*
X-1097613Y278150D01*
X-1097415Y277967D01*
X-1097222Y277778D01*
X-1097033Y277585D01*
X-1096850Y277387D01*
X-1096671Y277185D01*
X-1096497Y276978D01*
X-1096328Y276768D01*
X-1096165Y276553D01*
X-1096007Y276334D01*
X-1095854Y276111D01*
X-1095707Y275885D01*
X-1095565Y275655D01*
X-1095429Y275422D01*
X-1095299Y275185D01*
X-1095175Y274946D01*
X-1095056Y274703D01*
X-1094944Y274458D01*
X-1094837Y274210D01*
X-1094737Y273959D01*
X-1094643Y273706D01*
X-1094555Y273450D01*
X-1094474Y273193D01*
X-1094398Y272934D01*
X-1094330Y272673D01*
X-1094267Y272410D01*
X-1094211Y272146D01*
X-1094162Y271881D01*
X-1094119Y271614D01*
X-1094083Y271347D01*
X-1094053Y271078D01*
X-1094030Y270809D01*
X-1094013Y270540D01*
X-1094003Y270270D01*
X-1094000Y270000D01*
X-1094003Y269730D01*
X-1094013Y269460D01*
X-1094030Y269191D01*
X-1094053Y268922D01*
X-1094083Y268653D01*
X-1094119Y268386D01*
X-1094162Y268119D01*
X-1094211Y267854D01*
X-1094267Y267590D01*
X-1094330Y267327D01*
X-1094398Y267066D01*
X-1094474Y266807D01*
X-1094555Y266550D01*
X-1094643Y266294D01*
X-1094737Y266041D01*
X-1094837Y265790D01*
X-1094944Y265542D01*
X-1095056Y265297D01*
X-1095175Y265054D01*
X-1095299Y264815D01*
X-1095429Y264578D01*
X-1095565Y264345D01*
X-1095707Y264115D01*
X-1095854Y263889D01*
X-1096007Y263666D01*
X-1096165Y263447D01*
X-1096328Y263232D01*
X-1096497Y263022D01*
X-1096671Y262815D01*
X-1096850Y262613D01*
X-1097033Y262415D01*
X-1097222Y262222D01*
X-1097415Y262033D01*
X-1097613Y261850D01*
X-1097815Y261671D01*
X-1098022Y261497D01*
X-1098232Y261328D01*
X-1098447Y261165D01*
X-1098666Y261007D01*
X-1098889Y260854D01*
X-1099115Y260707D01*
X-1099345Y260565D01*
X-1099578Y260429D01*
X-1099815Y260299D01*
X-1100054Y260175D01*
X-1100297Y260056D01*
X-1100542Y259944D01*
X-1100790Y259837D01*
X-1101041Y259737D01*
X-1101294Y259643D01*
X-1101550Y259555D01*
X-1101807Y259474D01*
X-1102066Y259398D01*
X-1102327Y259330D01*
X-1102590Y259267D01*
X-1102854Y259211D01*
X-1103119Y259162D01*
X-1103386Y259119D01*
X-1103653Y259083D01*
X-1103922Y259053D01*
X-1104191Y259030D01*
X-1104460Y259013D01*
X-1104730Y259003D01*
X-1105000Y259000D01*
X-1105270Y259003D01*
X-1105540Y259013D01*
X-1105809Y259030D01*
X-1106078Y259053D01*
X-1106347Y259083D01*
X-1106614Y259119D01*
X-1106881Y259162D01*
X-1107146Y259211D01*
X-1107410Y259267D01*
X-1107673Y259330D01*
X-1107934Y259398D01*
X-1108193Y259474D01*
X-1108450Y259555D01*
X-1108706Y259643D01*
X-1108959Y259737D01*
X-1109210Y259837D01*
X-1109458Y259944D01*
X-1109703Y260056D01*
X-1109946Y260175D01*
X-1110185Y260299D01*
X-1110422Y260429D01*
X-1110655Y260565D01*
X-1110885Y260707D01*
X-1111111Y260854D01*
X-1111334Y261007D01*
X-1111553Y261165D01*
X-1111768Y261328D01*
X-1111978Y261497D01*
X-1112185Y261671D01*
X-1112387Y261850D01*
X-1112585Y262033D01*
X-1112778Y262222D01*
X-1112967Y262415D01*
X-1113150Y262613D01*
X-1113329Y262815D01*
X-1113503Y263022D01*
X-1113672Y263232D01*
X-1113835Y263447D01*
X-1113993Y263666D01*
X-1114146Y263889D01*
X-1114293Y264115D01*
X-1114435Y264345D01*
X-1114571Y264578D01*
X-1114701Y264815D01*
X-1114825Y265054D01*
X-1114944Y265297D01*
X-1115056Y265542D01*
X-1115163Y265790D01*
X-1115263Y266041D01*
X-1115357Y266294D01*
X-1115445Y266550D01*
X-1115526Y266807D01*
X-1115602Y267066D01*
X-1115670Y267327D01*
X-1115733Y267590D01*
X-1115789Y267854D01*
X-1115838Y268119D01*
X-1115881Y268386D01*
X-1115917Y268653D01*
X-1115947Y268922D01*
X-1115970Y269191D01*
X-1115987Y269460D01*
X-1115997Y269730D01*
X-1116000Y270000D01*
X-1115997Y270270D01*
X-1115987Y270540D01*
X-1115970Y270809D01*
X-1115947Y271078D01*
X-1115917Y271347D01*
X-1115881Y271614D01*
X-1115838Y271881D01*
X-1115789Y272146D01*
X-1115733Y272410D01*
X-1115670Y272673D01*
X-1115602Y272934D01*
X-1115526Y273193D01*
X-1115445Y273450D01*
X-1115357Y273706D01*
X-1115263Y273959D01*
X-1115163Y274210D01*
X-1115056Y274458D01*
X-1114944Y274703D01*
X-1114825Y274946D01*
X-1114701Y275185D01*
X-1114571Y275422D01*
X-1114435Y275655D01*
X-1114293Y275885D01*
X-1114146Y276111D01*
X-1113993Y276334D01*
X-1113835Y276553D01*
X-1113672Y276768D01*
X-1113503Y276978D01*
X-1113329Y277185D01*
X-1113150Y277387D01*
X-1112967Y277585D01*
X-1112778Y277778D01*
X-1112585Y277967D01*
X-1112387Y278150D01*
X-1112185Y278329D01*
X-1111978Y278503D01*
X-1111768Y278672D01*
X-1111553Y278835D01*
X-1111334Y278993D01*
X-1111111Y279146D01*
X-1110885Y279293D01*
X-1110655Y279435D01*
X-1110422Y279571D01*
X-1110185Y279701D01*
X-1109946Y279825D01*
X-1109703Y279944D01*
X-1109458Y280056D01*
X-1109210Y280163D01*
X-1108959Y280263D01*
X-1108706Y280357D01*
X-1108450Y280445D01*
X-1108193Y280526D01*
X-1107934Y280602D01*
X-1107673Y280670D01*
X-1107410Y280733D01*
X-1107146Y280789D01*
X-1106881Y280838D01*
X-1106614Y280881D01*
X-1106347Y280917D01*
X-1106078Y280947D01*
X-1105809Y280970D01*
X-1105540Y280987D01*
X-1105270Y280997D01*
X-1105000Y281000D01*
X-1104730Y280997D01*
X-1104460Y280987D01*
X-1104191Y280970D01*
X-1103922Y280947D01*
X-1103653Y280917D01*
X-1103386Y280881D01*
X-1103119Y280838D01*
X-1102854Y280789D01*
X-1102590Y280733D01*
X-1102327Y280670D01*
X-1102066Y280602D01*
X-1101807Y280526D01*
X-1101550Y280445D01*
X-1101294Y280357D01*
X-1101041Y280263D01*
X-1100790Y280163D01*
X-1100542Y280056D01*
X-1100297Y279944D01*
X-1100054Y279825D01*
X-1099815Y279701D01*
X-1099578Y279571D01*
X-1099345Y279435D01*
X-1099115Y279293D01*
X-1098889Y279146D01*
X-1098666Y278993D01*
X-1098447Y278835D01*
X-1098232Y278672D01*
X-1098022Y278503D01*
X-1097815Y278329D01*
X-1097613Y278150D01*
X-1097415Y277967D01*
X-1097222Y277778D01*
X-1097033Y277585D01*
X-1096850Y277387D01*
X-1096671Y277185D01*
X-1096497Y276978D01*
X-1096328Y276768D01*
X-1096165Y276553D01*
X-1096007Y276334D01*
X-1095854Y276111D01*
X-1095707Y275885D01*
X-1095565Y275655D01*
X-1095429Y275422D01*
X-1095299Y275185D01*
X-1095175Y274946D01*
X-1095056Y274703D01*
X-1094944Y274458D01*
X-1094837Y274210D01*
X-1094737Y273959D01*
X-1094643Y273706D01*
X-1094555Y273450D01*
X-1094474Y273193D01*
X-1094398Y272934D01*
X-1094330Y272673D01*
X-1094267Y272410D01*
X-1094211Y272146D01*
X-1094162Y271881D01*
X-1094119Y271614D01*
X-1094083Y271347D01*
X-1094053Y271078D01*
X-1094030Y270809D01*
X-1094013Y270540D01*
X-1094003Y270270D01*
X-1094000Y270000D01*
X-1094003Y269730D01*
X-1094013Y269460D01*
X-1094030Y269191D01*
X-1094053Y268922D01*
X-1094083Y268653D01*
X-1094119Y268386D01*
X-1094162Y268119D01*
X-1094211Y267854D01*
X-1094267Y267590D01*
X-1094330Y267327D01*
X-1094398Y267066D01*
X-1094474Y266807D01*
X-1094555Y266550D01*
X-1094643Y266294D01*
X-1094737Y266041D01*
X-1094837Y265790D01*
X-1094944Y265542D01*
X-1095056Y265297D01*
X-1095175Y265054D01*
X-1095299Y264815D01*
X-1095429Y264578D01*
X-1095565Y264345D01*
X-1095707Y264115D01*
X-1095854Y263889D01*
X-1096007Y263666D01*
X-1096165Y263447D01*
X-1096328Y263232D01*
X-1096497Y263022D01*
X-1096671Y262815D01*
X-1096850Y262613D01*
X-1097033Y262415D01*
X-1097222Y262222D01*
X-1097415Y262033D01*
X-1097613Y261850D01*
X-1097815Y261671D01*
X-1098022Y261497D01*
X-1098232Y261328D01*
X-1098447Y261165D01*
X-1098666Y261007D01*
X-1098889Y260854D01*
X-1099115Y260707D01*
X-1099345Y260565D01*
X-1099578Y260429D01*
X-1099815Y260299D01*
X-1100054Y260175D01*
X-1100297Y260056D01*
X-1100542Y259944D01*
X-1100790Y259837D01*
X-1101041Y259737D01*
X-1101294Y259643D01*
X-1101550Y259555D01*
X-1101807Y259474D01*
X-1102066Y259398D01*
X-1102327Y259330D01*
X-1102590Y259267D01*
X-1102854Y259211D01*
X-1103119Y259162D01*
X-1103386Y259119D01*
X-1103653Y259083D01*
X-1103922Y259053D01*
X-1104191Y259030D01*
X-1104460Y259013D01*
X-1104730Y259003D01*
X-1105000Y259000D01*
X-1105270Y259003D01*
X-1105540Y259013D01*
X-1105809Y259030D01*
X-1106078Y259053D01*
X-1106347Y259083D01*
X-1106614Y259119D01*
X-1106881Y259162D01*
X-1107146Y259211D01*
X-1107410Y259267D01*
X-1107673Y259330D01*
X-1107934Y259398D01*
X-1108193Y259474D01*
X-1108450Y259555D01*
X-1108706Y259643D01*
X-1108959Y259737D01*
X-1109210Y259837D01*
X-1109458Y259944D01*
X-1109703Y260056D01*
X-1109946Y260175D01*
X-1110185Y260299D01*
X-1110422Y260429D01*
X-1110655Y260565D01*
X-1110885Y260707D01*
X-1111111Y260854D01*
X-1111334Y261007D01*
X-1111553Y261165D01*
X-1111768Y261328D01*
X-1111978Y261497D01*
X-1112185Y261671D01*
X-1112387Y261850D01*
X-1112585Y262033D01*
X-1112778Y262222D01*
X-1112967Y262415D01*
X-1113150Y262613D01*
X-1113329Y262815D01*
X-1113503Y263022D01*
X-1113672Y263232D01*
X-1113835Y263447D01*
X-1113993Y263666D01*
X-1114146Y263889D01*
X-1114293Y264115D01*
X-1114435Y264345D01*
X-1114571Y264578D01*
X-1114701Y264815D01*
X-1114825Y265054D01*
X-1114944Y265297D01*
X-1115056Y265542D01*
X-1115163Y265790D01*
X-1115263Y266041D01*
X-1115357Y266294D01*
X-1115445Y266550D01*
X-1115526Y266807D01*
X-1115602Y267066D01*
X-1115670Y267327D01*
X-1115733Y267590D01*
X-1115789Y267854D01*
X-1115838Y268119D01*
X-1115881Y268386D01*
X-1115917Y268653D01*
X-1115947Y268922D01*
X-1115970Y269191D01*
X-1115987Y269460D01*
X-1115997Y269730D01*
X-1116000Y270000D01*
X-576000Y-270000D02*
X-575997Y-269730D01*
X-575987Y-269460D01*
X-575970Y-269191D01*
X-575947Y-268922D01*
X-575917Y-268653D01*
X-575881Y-268386D01*
X-575838Y-268119D01*
X-575789Y-267854D01*
X-575733Y-267590D01*
X-575670Y-267327D01*
X-575602Y-267066D01*
X-575526Y-266807D01*
X-575445Y-266550D01*
X-575357Y-266294D01*
X-575263Y-266041D01*
X-575163Y-265790D01*
X-575056Y-265542D01*
X-574944Y-265297D01*
X-574825Y-265054D01*
X-574701Y-264815D01*
X-574571Y-264578D01*
X-574435Y-264345D01*
X-574293Y-264115D01*
X-574146Y-263889D01*
X-573993Y-263666D01*
X-573835Y-263447D01*
X-573672Y-263232D01*
X-573503Y-263022D01*
X-573329Y-262815D01*
X-573150Y-262613D01*
X-572967Y-262415D01*
X-572778Y-262222D01*
X-572585Y-262033D01*
X-572387Y-261850D01*
X-572185Y-261671D01*
X-571978Y-261497D01*
X-571768Y-261328D01*
X-571553Y-261165D01*
X-571334Y-261007D01*
X-571111Y-260854D01*
X-570885Y-260707D01*
X-570655Y-260565D01*
X-570422Y-260429D01*
X-570185Y-260299D01*
X-569946Y-260175D01*
X-569703Y-260056D01*
X-569458Y-259944D01*
X-569210Y-259837D01*
X-568959Y-259737D01*
X-568706Y-259643D01*
X-568450Y-259555D01*
X-568193Y-259474D01*
X-567934Y-259398D01*
X-567673Y-259330D01*
X-567410Y-259267D01*
X-567146Y-259211D01*
X-566881Y-259162D01*
X-566614Y-259119D01*
X-566347Y-259083D01*
X-566078Y-259053D01*
X-565809Y-259030D01*
X-565540Y-259013D01*
X-565270Y-259003D01*
X-565000Y-259000D01*
X-564730Y-259003D01*
X-564460Y-259013D01*
X-564191Y-259030D01*
X-563922Y-259053D01*
X-563653Y-259083D01*
X-563386Y-259119D01*
X-563119Y-259162D01*
X-562854Y-259211D01*
X-562590Y-259267D01*
X-562327Y-259330D01*
X-562066Y-259398D01*
X-561807Y-259474D01*
X-561550Y-259555D01*
X-561294Y-259643D01*
X-561041Y-259737D01*
X-560790Y-259837D01*
X-560542Y-259944D01*
X-560297Y-260056D01*
X-560054Y-260175D01*
X-559815Y-260299D01*
X-559578Y-260429D01*
X-559345Y-260565D01*
X-559115Y-260707D01*
X-558889Y-260854D01*
X-558666Y-261007D01*
X-558447Y-261165D01*
X-558232Y-261328D01*
X-558022Y-261497D01*
X-557815Y-261671D01*
X-557613Y-261850D01*
X-557415Y-262033D01*
X-557222Y-262222D01*
X-557033Y-262415D01*
X-556850Y-262613D01*
X-556671Y-262815D01*
X-556497Y-263022D01*
X-556328Y-263232D01*
X-556165Y-263447D01*
X-556007Y-263666D01*
X-555854Y-263889D01*
X-555707Y-264115D01*
X-555565Y-264345D01*
X-555429Y-264578D01*
X-555299Y-264815D01*
X-555175Y-265054D01*
X-555056Y-265297D01*
X-554944Y-265542D01*
X-554837Y-265790D01*
X-554737Y-266041D01*
X-554643Y-266294D01*
X-554555Y-266550D01*
X-554474Y-266807D01*
X-554398Y-267066D01*
X-554330Y-267327D01*
X-554267Y-267590D01*
X-554211Y-267854D01*
X-554162Y-268119D01*
X-554119Y-268386D01*
X-554083Y-268653D01*
X-554053Y-268922D01*
X-554030Y-269191D01*
X-554013Y-269460D01*
X-554003Y-269730D01*
X-554000Y-270000D01*
X-554003Y-270270D01*
X-554013Y-270540D01*
X-554030Y-270809D01*
X-554053Y-271078D01*
X-554083Y-271347D01*
X-554119Y-271614D01*
X-554162Y-271881D01*
X-554211Y-272146D01*
X-554267Y-272410D01*
X-554330Y-272673D01*
X-554398Y-272934D01*
X-554474Y-273193D01*
X-554555Y-273450D01*
X-554643Y-273706D01*
X-554737Y-273959D01*
X-554837Y-274210D01*
X-554944Y-274458D01*
X-555056Y-274703D01*
X-555175Y-274946D01*
X-555299Y-275185D01*
X-555429Y-275422D01*
X-555565Y-275655D01*
X-555707Y-275885D01*
X-555854Y-276111D01*
X-556007Y-276334D01*
X-556165Y-276553D01*
X-556328Y-276768D01*
X-556497Y-276978D01*
X-556671Y-277185D01*
X-556850Y-277387D01*
X-557033Y-277585D01*
X-557222Y-277778D01*
X-557415Y-277967D01*
X-557613Y-278150D01*
X-557815Y-278329D01*
X-558022Y-278503D01*
X-558232Y-278672D01*
X-558447Y-278835D01*
X-558666Y-278993D01*
X-558889Y-279146D01*
X-559115Y-279293D01*
X-559345Y-279435D01*
X-559578Y-279571D01*
X-559815Y-279701D01*
X-560054Y-279825D01*
X-560297Y-279944D01*
X-560542Y-280056D01*
X-560790Y-280163D01*
X-561041Y-280263D01*
X-561294Y-280357D01*
X-561550Y-280445D01*
X-561807Y-280526D01*
X-562066Y-280602D01*
X-562327Y-280670D01*
X-562590Y-280733D01*
X-562854Y-280789D01*
X-563119Y-280838D01*
X-563386Y-280881D01*
X-563653Y-280917D01*
X-563922Y-280947D01*
X-564191Y-280970D01*
X-564460Y-280987D01*
X-564730Y-280997D01*
X-565000Y-281000D01*
X-565270Y-280997D01*
X-565540Y-280987D01*
X-565809Y-280970D01*
X-566078Y-280947D01*
X-566347Y-280917D01*
X-566614Y-280881D01*
X-566881Y-280838D01*
X-567146Y-280789D01*
X-567410Y-280733D01*
X-567673Y-280670D01*
X-567934Y-280602D01*
X-568193Y-280526D01*
X-568450Y-280445D01*
X-568706Y-280357D01*
X-568959Y-280263D01*
X-569210Y-280163D01*
X-569458Y-280056D01*
X-569703Y-279944D01*
X-569946Y-279825D01*
X-570185Y-279701D01*
X-570422Y-279571D01*
X-570655Y-279435D01*
X-570885Y-279293D01*
X-571111Y-279146D01*
X-571334Y-278993D01*
X-571553Y-278835D01*
X-571768Y-278672D01*
X-571978Y-278503D01*
X-572185Y-278329D01*
X-572387Y-278150D01*
X-572585Y-277967D01*
X-572778Y-277778D01*
X-572967Y-277585D01*
X-573150Y-277387D01*
X-573329Y-277185D01*
X-573503Y-276978D01*
X-573672Y-276768D01*
X-573835Y-276553D01*
X-573993Y-276334D01*
X-574146Y-276111D01*
X-574293Y-275885D01*
X-574435Y-275655D01*
X-574571Y-275422D01*
X-574701Y-275185D01*
X-574825Y-274946D01*
X-574944Y-274703D01*
X-575056Y-274458D01*
X-575163Y-274210D01*
X-575263Y-273959D01*
X-575357Y-273706D01*
X-575445Y-273450D01*
X-575526Y-273193D01*
X-575602Y-272934D01*
X-575670Y-272673D01*
X-575733Y-272410D01*
X-575789Y-272146D01*
X-575838Y-271881D01*
X-575881Y-271614D01*
X-575917Y-271347D01*
X-575947Y-271078D01*
X-575970Y-270809D01*
X-575987Y-270540D01*
X-575997Y-270270D01*
X-576000Y-270000D01*
X-576000Y270000D02*
X-575997Y270270D01*
X-575987Y270540D01*
X-575970Y270809D01*
X-575947Y271078D01*
X-575917Y271347D01*
X-575881Y271614D01*
X-575838Y271881D01*
X-575789Y272146D01*
X-575733Y272410D01*
X-575670Y272673D01*
X-575602Y272934D01*
X-575526Y273193D01*
X-575445Y273450D01*
X-575357Y273706D01*
X-575263Y273959D01*
X-575163Y274210D01*
X-575056Y274458D01*
X-574944Y274703D01*
X-574825Y274946D01*
X-574701Y275185D01*
X-574571Y275422D01*
X-574435Y275655D01*
X-574293Y275885D01*
X-574146Y276111D01*
X-573993Y276334D01*
X-573835Y276553D01*
X-573672Y276768D01*
X-573503Y276978D01*
X-573329Y277185D01*
X-573150Y277387D01*
X-572967Y277585D01*
X-572778Y277778D01*
X-572585Y277967D01*
X-572387Y278150D01*
X-572185Y278329D01*
X-571978Y278503D01*
X-571768Y278672D01*
X-571553Y278835D01*
X-571334Y278993D01*
X-571111Y279146D01*
X-570885Y279293D01*
X-570655Y279435D01*
X-570422Y279571D01*
X-570185Y279701D01*
X-569946Y279825D01*
X-569703Y279944D01*
X-569458Y280056D01*
X-569210Y280163D01*
X-568959Y280263D01*
X-568706Y280357D01*
X-568450Y280445D01*
X-568193Y280526D01*
X-567934Y280602D01*
X-567673Y280670D01*
X-567410Y280733D01*
X-567146Y280789D01*
X-566881Y280838D01*
X-566614Y280881D01*
X-566347Y280917D01*
X-566078Y280947D01*
X-565809Y280970D01*
X-565540Y280987D01*
X-565270Y280997D01*
X-565000Y281000D01*
X-564730Y280997D01*
X-564460Y280987D01*
X-564191Y280970D01*
X-563922Y280947D01*
X-563653Y280917D01*
X-563386Y280881D01*
X-563119Y280838D01*
X-562854Y280789D01*
X-562590Y280733D01*
X-562327Y280670D01*
X-562066Y280602D01*
X-561807Y280526D01*
X-561550Y280445D01*
X-561294Y280357D01*
X-561041Y280263D01*
X-560790Y280163D01*
X-560542Y280056D01*
X-560297Y279944D01*
X-560054Y279825D01*
X-559815Y279701D01*
X-559578Y279571D01*
X-559345Y279435D01*
X-559115Y279293D01*
X-558889Y279146D01*
X-558666Y278993D01*
X-558447Y278835D01*
X-558232Y278672D01*
X-558022Y278503D01*
X-557815Y278329D01*
X-557613Y278150D01*
X-557415Y277967D01*
X-557222Y277778D01*
X-557033Y277585D01*
X-556850Y277387D01*
X-556671Y277185D01*
X-556497Y276978D01*
X-556328Y276768D01*
X-556165Y276553D01*
X-556007Y276334D01*
X-555854Y276111D01*
X-555707Y275885D01*
X-555565Y275655D01*
X-555429Y275422D01*
X-555299Y275185D01*
X-555175Y274946D01*
X-555056Y274703D01*
X-554944Y274458D01*
X-554837Y274210D01*
X-554737Y273959D01*
X-554643Y273706D01*
X-554555Y273450D01*
X-554474Y273193D01*
X-554398Y272934D01*
X-554330Y272673D01*
X-554267Y272410D01*
X-554211Y272146D01*
X-554162Y271881D01*
X-554119Y271614D01*
X-554083Y271347D01*
X-554053Y271078D01*
X-554030Y270809D01*
X-554013Y270540D01*
X-554003Y270270D01*
X-554000Y270000D01*
X-554003Y269730D01*
X-554013Y269460D01*
X-554030Y269191D01*
X-554053Y268922D01*
X-554083Y268653D01*
X-554119Y268386D01*
X-554162Y268119D01*
X-554211Y267854D01*
X-554267Y267590D01*
X-554330Y267327D01*
X-554398Y267066D01*
X-554474Y266807D01*
X-554555Y266550D01*
X-554643Y266294D01*
X-554737Y266041D01*
X-554837Y265790D01*
X-554944Y265542D01*
X-555056Y265297D01*
X-555175Y265054D01*
X-555299Y264815D01*
X-555429Y264578D01*
X-555565Y264345D01*
X-555707Y264115D01*
X-555854Y263889D01*
X-556007Y263666D01*
X-556165Y263447D01*
X-556328Y263232D01*
X-556497Y263022D01*
X-556671Y262815D01*
X-556850Y262613D01*
X-557033Y262415D01*
X-557222Y262222D01*
X-557415Y262033D01*
X-557613Y261850D01*
X-557815Y261671D01*
X-558022Y261497D01*
X-558232Y261328D01*
X-558447Y261165D01*
X-558666Y261007D01*
X-558889Y260854D01*
X-559115Y260707D01*
X-559345Y260565D01*
X-559578Y260429D01*
X-559815Y260299D01*
X-560054Y260175D01*
X-560297Y260056D01*
X-560542Y259944D01*
X-560790Y259837D01*
X-561041Y259737D01*
X-561294Y259643D01*
X-561550Y259555D01*
X-561807Y259474D01*
X-562066Y259398D01*
X-562327Y259330D01*
X-562590Y259267D01*
X-562854Y259211D01*
X-563119Y259162D01*
X-563386Y259119D01*
X-563653Y259083D01*
X-563922Y259053D01*
X-564191Y259030D01*
X-564460Y259013D01*
X-564730Y259003D01*
X-565000Y259000D01*
X-565270Y259003D01*
X-565540Y259013D01*
X-565809Y259030D01*
X-566078Y259053D01*
X-566347Y259083D01*
X-566614Y259119D01*
X-566881Y259162D01*
X-567146Y259211D01*
X-567410Y259267D01*
X-567673Y259330D01*
X-567934Y259398D01*
X-568193Y259474D01*
X-568450Y259555D01*
X-568706Y259643D01*
X-568959Y259737D01*
X-569210Y259837D01*
X-569458Y259944D01*
X-569703Y260056D01*
X-569946Y260175D01*
X-570185Y260299D01*
X-570422Y260429D01*
X-570655Y260565D01*
X-570885Y260707D01*
X-571111Y260854D01*
X-571334Y261007D01*
X-571553Y261165D01*
X-571768Y261328D01*
X-571978Y261497D01*
X-572185Y261671D01*
X-572387Y261850D01*
X-572585Y262033D01*
X-572778Y262222D01*
X-572967Y262415D01*
X-573150Y262613D01*
X-573329Y262815D01*
X-573503Y263022D01*
X-573672Y263232D01*
X-573835Y263447D01*
X-573993Y263666D01*
X-574146Y263889D01*
X-574293Y264115D01*
X-574435Y264345D01*
X-574571Y264578D01*
X-574701Y264815D01*
X-574825Y265054D01*
X-574944Y265297D01*
X-575056Y265542D01*
X-575163Y265790D01*
X-575263Y266041D01*
X-575357Y266294D01*
X-575445Y266550D01*
X-575526Y266807D01*
X-575602Y267066D01*
X-575670Y267327D01*
X-575733Y267590D01*
X-575789Y267854D01*
X-575838Y268119D01*
X-575881Y268386D01*
X-575917Y268653D01*
X-575947Y268922D01*
X-575970Y269191D01*
X-575987Y269460D01*
X-575997Y269730D01*
X-576000Y270000D01*
X1094000Y270000D02*
X1094003Y270270D01*
X1094013Y270540D01*
X1094030Y270809D01*
X1094053Y271078D01*
X1094083Y271347D01*
X1094119Y271614D01*
X1094162Y271881D01*
X1094211Y272146D01*
X1094267Y272410D01*
X1094330Y272673D01*
X1094398Y272934D01*
X1094474Y273193D01*
X1094555Y273450D01*
X1094643Y273706D01*
X1094737Y273959D01*
X1094837Y274210D01*
X1094944Y274458D01*
X1095056Y274703D01*
X1095175Y274946D01*
X1095299Y275185D01*
X1095429Y275422D01*
X1095565Y275655D01*
X1095707Y275885D01*
X1095854Y276111D01*
X1096007Y276334D01*
X1096165Y276553D01*
X1096328Y276768D01*
X1096497Y276978D01*
X1096671Y277185D01*
X1096850Y277387D01*
X1097033Y277585D01*
X1097222Y277778D01*
X1097415Y277967D01*
X1097613Y278150D01*
X1097815Y278329D01*
X1098022Y278503D01*
X1098232Y278672D01*
X1098447Y278835D01*
X1098666Y278993D01*
X1098889Y279146D01*
X1099115Y279293D01*
X1099345Y279435D01*
X1099578Y279571D01*
X1099815Y279701D01*
X1100054Y279825D01*
X1100297Y279944D01*
X1100542Y280056D01*
X1100790Y280163D01*
X1101041Y280263D01*
X1101294Y280357D01*
X1101550Y280445D01*
X1101807Y280526D01*
X1102066Y280602D01*
X1102327Y280670D01*
X1102590Y280733D01*
X1102854Y280789D01*
X1103119Y280838D01*
X1103386Y280881D01*
X1103653Y280917D01*
X1103922Y280947D01*
X1104191Y280970D01*
X1104460Y280987D01*
X1104730Y280997D01*
X1105000Y281000D01*
X1105270Y280997D01*
X1105540Y280987D01*
X1105809Y280970D01*
X1106078Y280947D01*
X1106347Y280917D01*
X1106614Y280881D01*
X1106881Y280838D01*
X1107146Y280789D01*
X1107410Y280733D01*
X1107673Y280670D01*
X1107934Y280602D01*
X1108193Y280526D01*
X1108450Y280445D01*
X1108706Y280357D01*
X1108959Y280263D01*
X1109210Y280163D01*
X1109458Y280056D01*
X1109703Y279944D01*
X1109946Y279825D01*
X1110185Y279701D01*
X1110422Y279571D01*
X1110655Y279435D01*
X1110885Y279293D01*
X1111111Y279146D01*
X1111334Y278993D01*
X1111553Y278835D01*
X1111768Y278672D01*
X1111978Y278503D01*
X1112185Y278329D01*
X1112387Y278150D01*
X1112585Y277967D01*
X1112778Y277778D01*
X1112967Y277585D01*
X1113150Y277387D01*
X1113329Y277185D01*
X1113503Y276978D01*
X1113672Y276768D01*
X1113835Y276553D01*
X1113993Y276334D01*
X1114146Y276111D01*
X1114293Y275885D01*
X1114435Y275655D01*
X1114571Y275422D01*
X1114701Y275185D01*
X1114825Y274946D01*
X1114944Y274703D01*
X1115056Y274458D01*
X1115163Y274210D01*
X1115263Y273959D01*
X1115357Y273706D01*
X1115445Y273450D01*
X1115526Y273193D01*
X1115602Y272934D01*
X1115670Y272673D01*
X1115733Y272410D01*
X1115789Y272146D01*
X1115838Y271881D01*
X1115881Y271614D01*
X1115917Y271347D01*
X1115947Y271078D01*
X1115970Y270809D01*
X1115987Y270540D01*
X1115997Y270270D01*
X1116000Y270000D01*
X1115997Y269730D01*
X1115987Y269460D01*
X1115970Y269191D01*
X1115947Y268922D01*
X1115917Y268653D01*
X1115881Y268386D01*
X1115838Y268119D01*
X1115789Y267854D01*
X1115733Y267590D01*
X1115670Y267327D01*
X1115602Y267066D01*
X1115526Y266807D01*
X1115445Y266550D01*
X1115357Y266294D01*
X1115263Y266041D01*
X1115163Y265790D01*
X1115056Y265542D01*
X1114944Y265297D01*
X1114825Y265054D01*
X1114701Y264815D01*
X1114571Y264578D01*
X1114435Y264345D01*
X1114293Y264115D01*
X1114146Y263889D01*
X1113993Y263666D01*
X1113835Y263447D01*
X1113672Y263232D01*
X1113503Y263022D01*
X1113329Y262815D01*
X1113150Y262613D01*
X1112967Y262415D01*
X1112778Y262222D01*
X1112585Y262033D01*
X1112387Y261850D01*
X1112185Y261671D01*
X1111978Y261497D01*
X1111768Y261328D01*
X1111553Y261165D01*
X1111334Y261007D01*
X1111111Y260854D01*
X1110885Y260707D01*
X1110655Y260565D01*
X1110422Y260429D01*
X1110185Y260299D01*
X1109946Y260175D01*
X1109703Y260056D01*
X1109458Y259944D01*
X1109210Y259837D01*
X1108959Y259737D01*
X1108706Y259643D01*
X1108450Y259555D01*
X1108193Y259474D01*
X1107934Y259398D01*
X1107673Y259330D01*
X1107410Y259267D01*
X1107146Y259211D01*
X1106881Y259162D01*
X1106614Y259119D01*
X1106347Y259083D01*
X1106078Y259053D01*
X1105809Y259030D01*
X1105540Y259013D01*
X1105270Y259003D01*
X1105000Y259000D01*
X1104730Y259003D01*
X1104460Y259013D01*
X1104191Y259030D01*
X1103922Y259053D01*
X1103653Y259083D01*
X1103386Y259119D01*
X1103119Y259162D01*
X1102854Y259211D01*
X1102590Y259267D01*
X1102327Y259330D01*
X1102066Y259398D01*
X1101807Y259474D01*
X1101550Y259555D01*
X1101294Y259643D01*
X1101041Y259737D01*
X1100790Y259837D01*
X1100542Y259944D01*
X1100297Y260056D01*
X1100054Y260175D01*
X1099815Y260299D01*
X1099578Y260429D01*
X1099345Y260565D01*
X1099115Y260707D01*
X1098889Y260854D01*
X1098666Y261007D01*
X1098447Y261165D01*
X1098232Y261328D01*
X1098022Y261497D01*
X1097815Y261671D01*
X1097613Y261850D01*
X1097415Y262033D01*
X1097222Y262222D01*
X1097033Y262415D01*
X1096850Y262613D01*
X1096671Y262815D01*
X1096497Y263022D01*
X1096328Y263232D01*
X1096165Y263447D01*
X1096007Y263666D01*
X1095854Y263889D01*
X1095707Y264115D01*
X1095565Y264345D01*
X1095429Y264578D01*
X1095299Y264815D01*
X1095175Y265054D01*
X1095056Y265297D01*
X1094944Y265542D01*
X1094837Y265790D01*
X1094737Y266041D01*
X1094643Y266294D01*
X1094555Y266550D01*
X1094474Y266807D01*
X1094398Y267066D01*
X1094330Y267327D01*
X1094267Y267590D01*
X1094211Y267854D01*
X1094162Y268119D01*
X1094119Y268386D01*
X1094083Y268653D01*
X1094053Y268922D01*
X1094030Y269191D01*
X1094013Y269460D01*
X1094003Y269730D01*
X1094000Y270000D01*
X1094000Y-270000D02*
X1094003Y-269730D01*
X1094013Y-269460D01*
X1094030Y-269191D01*
X1094053Y-268922D01*
X1094083Y-268653D01*
X1094119Y-268386D01*
X1094162Y-268119D01*
X1094211Y-267854D01*
X1094267Y-267590D01*
X1094330Y-267327D01*
X1094398Y-267066D01*
X1094474Y-266807D01*
X1094555Y-266550D01*
X1094643Y-266294D01*
X1094737Y-266041D01*
X1094837Y-265790D01*
X1094944Y-265542D01*
X1095056Y-265297D01*
X1095175Y-265054D01*
X1095299Y-264815D01*
X1095429Y-264578D01*
X1095565Y-264345D01*
X1095707Y-264115D01*
X1095854Y-263889D01*
X1096007Y-263666D01*
X1096165Y-263447D01*
X1096328Y-263232D01*
X1096497Y-263022D01*
X1096671Y-262815D01*
X1096850Y-262613D01*
X1097033Y-262415D01*
X1097222Y-262222D01*
X1097415Y-262033D01*
X1097613Y-261850D01*
X1097815Y-261671D01*
X1098022Y-261497D01*
X1098232Y-261328D01*
X1098447Y-261165D01*
X1098666Y-261007D01*
X1098889Y-260854D01*
X1099115Y-260707D01*
X1099345Y-260565D01*
X1099578Y-260429D01*
X1099815Y-260299D01*
X1100054Y-260175D01*
X1100297Y-260056D01*
X1100542Y-259944D01*
X1100790Y-259837D01*
X1101041Y-259737D01*
X1101294Y-259643D01*
X1101550Y-259555D01*
X1101807Y-259474D01*
X1102066Y-259398D01*
X1102327Y-259330D01*
X1102590Y-259267D01*
X1102854Y-259211D01*
X1103119Y-259162D01*
X1103386Y-259119D01*
X1103653Y-259083D01*
X1103922Y-259053D01*
X1104191Y-259030D01*
X1104460Y-259013D01*
X1104730Y-259003D01*
X1105000Y-259000D01*
X1105270Y-259003D01*
X1105540Y-259013D01*
X1105809Y-259030D01*
X1106078Y-259053D01*
X1106347Y-259083D01*
X1106614Y-259119D01*
X1106881Y-259162D01*
X1107146Y-259211D01*
X1107410Y-259267D01*
X1107673Y-259330D01*
X1107934Y-259398D01*
X1108193Y-259474D01*
X1108450Y-259555D01*
X1108706Y-259643D01*
X1108959Y-259737D01*
X1109210Y-259837D01*
X1109458Y-259944D01*
X1109703Y-260056D01*
X1109946Y-260175D01*
X1110185Y-260299D01*
X1110422Y-260429D01*
X1110655Y-260565D01*
X1110885Y-260707D01*
X1111111Y-260854D01*
X1111334Y-261007D01*
X1111553Y-261165D01*
X1111768Y-261328D01*
X1111978Y-261497D01*
X1112185Y-261671D01*
X1112387Y-261850D01*
X1112585Y-262033D01*
X1112778Y-262222D01*
X1112967Y-262415D01*
X1113150Y-262613D01*
X1113329Y-262815D01*
X1113503Y-263022D01*
X1113672Y-263232D01*
X1113835Y-263447D01*
X1113993Y-263666D01*
X1114146Y-263889D01*
X1114293Y-264115D01*
X1114435Y-264345D01*
X1114571Y-264578D01*
X1114701Y-264815D01*
X1114825Y-265054D01*
X1114944Y-265297D01*
X1115056Y-265542D01*
X1115163Y-265790D01*
X1115263Y-266041D01*
X1115357Y-266294D01*
X1115445Y-266550D01*
X1115526Y-266807D01*
X1115602Y-267066D01*
X1115670Y-267327D01*
X1115733Y-267590D01*
X1115789Y-267854D01*
X1115838Y-268119D01*
X1115881Y-268386D01*
X1115917Y-268653D01*
X1115947Y-268922D01*
X1115970Y-269191D01*
X1115987Y-269460D01*
X1115997Y-269730D01*
X1116000Y-270000D01*
X1115997Y-270270D01*
X1115987Y-270540D01*
X1115970Y-270809D01*
X1115947Y-271078D01*
X1115917Y-271347D01*
X1115881Y-271614D01*
X1115838Y-271881D01*
X1115789Y-272146D01*
X1115733Y-272410D01*
X1115670Y-272673D01*
X1115602Y-272934D01*
X1115526Y-273193D01*
X1115445Y-273450D01*
X1115357Y-273706D01*
X1115263Y-273959D01*
X1115163Y-274210D01*
X1115056Y-274458D01*
X1114944Y-274703D01*
X1114825Y-274946D01*
X1114701Y-275185D01*
X1114571Y-275422D01*
X1114435Y-275655D01*
X1114293Y-275885D01*
X1114146Y-276111D01*
X1113993Y-276334D01*
X1113835Y-276553D01*
X1113672Y-276768D01*
X1113503Y-276978D01*
X1113329Y-277185D01*
X1113150Y-277387D01*
X1112967Y-277585D01*
X1112778Y-277778D01*
X1112585Y-277967D01*
X1112387Y-278150D01*
X1112185Y-278329D01*
X1111978Y-278503D01*
X1111768Y-278672D01*
X1111553Y-278835D01*
X1111334Y-278993D01*
X1111111Y-279146D01*
X1110885Y-279293D01*
X1110655Y-279435D01*
X1110422Y-279571D01*
X1110185Y-279701D01*
X1109946Y-279825D01*
X1109703Y-279944D01*
X1109458Y-280056D01*
X1109210Y-280163D01*
X1108959Y-280263D01*
X1108706Y-280357D01*
X1108450Y-280445D01*
X1108193Y-280526D01*
X1107934Y-280602D01*
X1107673Y-280670D01*
X1107410Y-280733D01*
X1107146Y-280789D01*
X1106881Y-280838D01*
X1106614Y-280881D01*
X1106347Y-280917D01*
X1106078Y-280947D01*
X1105809Y-280970D01*
X1105540Y-280987D01*
X1105270Y-280997D01*
X1105000Y-281000D01*
X1104730Y-280997D01*
X1104460Y-280987D01*
X1104191Y-280970D01*
X1103922Y-280947D01*
X1103653Y-280917D01*
X1103386Y-280881D01*
X1103119Y-280838D01*
X1102854Y-280789D01*
X1102590Y-280733D01*
X1102327Y-280670D01*
X1102066Y-280602D01*
X1101807Y-280526D01*
X1101550Y-280445D01*
X1101294Y-280357D01*
X1101041Y-280263D01*
X1100790Y-280163D01*
X1100542Y-280056D01*
X1100297Y-279944D01*
X1100054Y-279825D01*
X1099815Y-279701D01*
X1099578Y-279571D01*
X1099345Y-279435D01*
X1099115Y-279293D01*
X1098889Y-279146D01*
X1098666Y-278993D01*
X1098447Y-278835D01*
X1098232Y-278672D01*
X1098022Y-278503D01*
X1097815Y-278329D01*
X1097613Y-278150D01*
X1097415Y-277967D01*
X1097222Y-277778D01*
X1097033Y-277585D01*
X1096850Y-277387D01*
X1096671Y-277185D01*
X1096497Y-276978D01*
X1096328Y-276768D01*
X1096165Y-276553D01*
X1096007Y-276334D01*
X1095854Y-276111D01*
X1095707Y-275885D01*
X1095565Y-275655D01*
X1095429Y-275422D01*
X1095299Y-275185D01*
X1095175Y-274946D01*
X1095056Y-274703D01*
X1094944Y-274458D01*
X1094837Y-274210D01*
X1094737Y-273959D01*
X1094643Y-273706D01*
X1094555Y-273450D01*
X1094474Y-273193D01*
X1094398Y-272934D01*
X1094330Y-272673D01*
X1094267Y-272410D01*
X1094211Y-272146D01*
X1094162Y-271881D01*
X1094119Y-271614D01*
X1094083Y-271347D01*
X1094053Y-271078D01*
X1094030Y-270809D01*
X1094013Y-270540D01*
X1094003Y-270270D01*
X1094000Y-270000D01*
X1094003Y-269730D01*
X1094013Y-269460D01*
X1094030Y-269191D01*
X1094053Y-268922D01*
X1094083Y-268653D01*
X1094119Y-268386D01*
X1094162Y-268119D01*
X1094211Y-267854D01*
X1094267Y-267590D01*
X1094330Y-267327D01*
X1094398Y-267066D01*
X1094474Y-266807D01*
X1094555Y-266550D01*
X1094643Y-266294D01*
X1094737Y-266041D01*
X1094837Y-265790D01*
X1094944Y-265542D01*
X1095056Y-265297D01*
X1095175Y-265054D01*
X1095299Y-264815D01*
X1095429Y-264578D01*
X1095565Y-264345D01*
X1095707Y-264115D01*
X1095854Y-263889D01*
X1096007Y-263666D01*
X1096165Y-263447D01*
X1096328Y-263232D01*
X1096497Y-263022D01*
X1096671Y-262815D01*
X1096850Y-262613D01*
X1097033Y-262415D01*
X1097222Y-262222D01*
X1097415Y-262033D01*
X1097613Y-261850D01*
X1097815Y-261671D01*
X1098022Y-261497D01*
X1098232Y-261328D01*
X1098447Y-261165D01*
X1098666Y-261007D01*
X1098889Y-260854D01*
X1099115Y-260707D01*
X1099345Y-260565D01*
X1099578Y-260429D01*
X1099815Y-260299D01*
X1100054Y-260175D01*
X1100297Y-260056D01*
X1100542Y-259944D01*
X1100790Y-259837D01*
X1101041Y-259737D01*
X1101294Y-259643D01*
X1101550Y-259555D01*
X1101807Y-259474D01*
X1102066Y-259398D01*
X1102327Y-259330D01*
X1102590Y-259267D01*
X1102854Y-259211D01*
X1103119Y-259162D01*
X1103386Y-259119D01*
X1103653Y-259083D01*
X1103922Y-259053D01*
X1104191Y-259030D01*
X1104460Y-259013D01*
X1104730Y-259003D01*
X1105000Y-259000D01*
X1105270Y-259003D01*
X1105540Y-259013D01*
X1105809Y-259030D01*
X1106078Y-259053D01*
X1106347Y-259083D01*
X1106614Y-259119D01*
X1106881Y-259162D01*
X1107146Y-259211D01*
X1107410Y-259267D01*
X1107673Y-259330D01*
X1107934Y-259398D01*
X1108193Y-259474D01*
X1108450Y-259555D01*
X1108706Y-259643D01*
X1108959Y-259737D01*
X1109210Y-259837D01*
X1109458Y-259944D01*
X1109703Y-260056D01*
X1109946Y-260175D01*
X1110185Y-260299D01*
X1110422Y-260429D01*
X1110655Y-260565D01*
X1110885Y-260707D01*
X1111111Y-260854D01*
X1111334Y-261007D01*
X1111553Y-261165D01*
X1111768Y-261328D01*
X1111978Y-261497D01*
X1112185Y-261671D01*
X1112387Y-261850D01*
X1112585Y-262033D01*
X1112778Y-262222D01*
X1112967Y-262415D01*
X1113150Y-262613D01*
X1113329Y-262815D01*
X1113503Y-263022D01*
X1113672Y-263232D01*
X1113835Y-263447D01*
X1113993Y-263666D01*
X1114146Y-263889D01*
X1114293Y-264115D01*
X1114435Y-264345D01*
X1114571Y-264578D01*
X1114701Y-264815D01*
X1114825Y-265054D01*
X1114944Y-265297D01*
X1115056Y-265542D01*
X1115163Y-265790D01*
X1115263Y-266041D01*
X1115357Y-266294D01*
X1115445Y-266550D01*
X1115526Y-266807D01*
X1115602Y-267066D01*
X1115670Y-267327D01*
X1115733Y-267590D01*
X1115789Y-267854D01*
X1115838Y-268119D01*
X1115881Y-268386D01*
X1115917Y-268653D01*
X1115947Y-268922D01*
X1115970Y-269191D01*
X1115987Y-269460D01*
X1115997Y-269730D01*
X1116000Y-270000D01*
X1115997Y-270270D01*
X1115987Y-270540D01*
X1115970Y-270809D01*
X1115947Y-271078D01*
X1115917Y-271347D01*
X1115881Y-271614D01*
X1115838Y-271881D01*
X1115789Y-272146D01*
X1115733Y-272410D01*
X1115670Y-272673D01*
X1115602Y-272934D01*
X1115526Y-273193D01*
X1115445Y-273450D01*
X1115357Y-273706D01*
X1115263Y-273959D01*
X1115163Y-274210D01*
X1115056Y-274458D01*
X1114944Y-274703D01*
X1114825Y-274946D01*
X1114701Y-275185D01*
X1114571Y-275422D01*
X1114435Y-275655D01*
X1114293Y-275885D01*
X1114146Y-276111D01*
X1113993Y-276334D01*
X1113835Y-276553D01*
X1113672Y-276768D01*
X1113503Y-276978D01*
X1113329Y-277185D01*
X1113150Y-277387D01*
X1112967Y-277585D01*
X1112778Y-277778D01*
X1112585Y-277967D01*
X1112387Y-278150D01*
X1112185Y-278329D01*
X1111978Y-278503D01*
X1111768Y-278672D01*
X1111553Y-278835D01*
X1111334Y-278993D01*
X1111111Y-279146D01*
X1110885Y-279293D01*
X1110655Y-279435D01*
X1110422Y-279571D01*
X1110185Y-279701D01*
X1109946Y-279825D01*
X1109703Y-279944D01*
X1109458Y-280056D01*
X1109210Y-280163D01*
X1108959Y-280263D01*
X1108706Y-280357D01*
X1108450Y-280445D01*
X1108193Y-280526D01*
X1107934Y-280602D01*
X1107673Y-280670D01*
X1107410Y-280733D01*
X1107146Y-280789D01*
X1106881Y-280838D01*
X1106614Y-280881D01*
X1106347Y-280917D01*
X1106078Y-280947D01*
X1105809Y-280970D01*
X1105540Y-280987D01*
X1105270Y-280997D01*
X1105000Y-281000D01*
X1104730Y-280997D01*
X1104460Y-280987D01*
X1104191Y-280970D01*
X1103922Y-280947D01*
X1103653Y-280917D01*
X1103386Y-280881D01*
X1103119Y-280838D01*
X1102854Y-280789D01*
X1102590Y-280733D01*
X1102327Y-280670D01*
X1102066Y-280602D01*
X1101807Y-280526D01*
X1101550Y-280445D01*
X1101294Y-280357D01*
X1101041Y-280263D01*
X1100790Y-280163D01*
X1100542Y-280056D01*
X1100297Y-279944D01*
X1100054Y-279825D01*
X1099815Y-279701D01*
X1099578Y-279571D01*
X1099345Y-279435D01*
X1099115Y-279293D01*
X1098889Y-279146D01*
X1098666Y-278993D01*
X1098447Y-278835D01*
X1098232Y-278672D01*
X1098022Y-278503D01*
X1097815Y-278329D01*
X1097613Y-278150D01*
X1097415Y-277967D01*
X1097222Y-277778D01*
X1097033Y-277585D01*
X1096850Y-277387D01*
X1096671Y-277185D01*
X1096497Y-276978D01*
X1096328Y-276768D01*
X1096165Y-276553D01*
X1096007Y-276334D01*
X1095854Y-276111D01*
X1095707Y-275885D01*
X1095565Y-275655D01*
X1095429Y-275422D01*
X1095299Y-275185D01*
X1095175Y-274946D01*
X1095056Y-274703D01*
X1094944Y-274458D01*
X1094837Y-274210D01*
X1094737Y-273959D01*
X1094643Y-273706D01*
X1094555Y-273450D01*
X1094474Y-273193D01*
X1094398Y-272934D01*
X1094330Y-272673D01*
X1094267Y-272410D01*
X1094211Y-272146D01*
X1094162Y-271881D01*
X1094119Y-271614D01*
X1094083Y-271347D01*
X1094053Y-271078D01*
X1094030Y-270809D01*
X1094013Y-270540D01*
X1094003Y-270270D01*
X1094000Y-270000D01*
X554000Y270000D02*
X554003Y270270D01*
X554013Y270540D01*
X554030Y270809D01*
X554053Y271078D01*
X554083Y271347D01*
X554119Y271614D01*
X554162Y271881D01*
X554211Y272146D01*
X554267Y272410D01*
X554330Y272673D01*
X554398Y272934D01*
X554474Y273193D01*
X554555Y273450D01*
X554643Y273706D01*
X554737Y273959D01*
X554837Y274210D01*
X554944Y274458D01*
X555056Y274703D01*
X555175Y274946D01*
X555299Y275185D01*
X555429Y275422D01*
X555565Y275655D01*
X555707Y275885D01*
X555854Y276111D01*
X556007Y276334D01*
X556165Y276553D01*
X556328Y276768D01*
X556497Y276978D01*
X556671Y277185D01*
X556850Y277387D01*
X557033Y277585D01*
X557222Y277778D01*
X557415Y277967D01*
X557613Y278150D01*
X557815Y278329D01*
X558022Y278503D01*
X558232Y278672D01*
X558447Y278835D01*
X558666Y278993D01*
X558889Y279146D01*
X559115Y279293D01*
X559345Y279435D01*
X559578Y279571D01*
X559815Y279701D01*
X560054Y279825D01*
X560297Y279944D01*
X560542Y280056D01*
X560790Y280163D01*
X561041Y280263D01*
X561294Y280357D01*
X561550Y280445D01*
X561807Y280526D01*
X562066Y280602D01*
X562327Y280670D01*
X562590Y280733D01*
X562854Y280789D01*
X563119Y280838D01*
X563386Y280881D01*
X563653Y280917D01*
X563922Y280947D01*
X564191Y280970D01*
X564460Y280987D01*
X564730Y280997D01*
X565000Y281000D01*
X565270Y280997D01*
X565540Y280987D01*
X565809Y280970D01*
X566078Y280947D01*
X566347Y280917D01*
X566614Y280881D01*
X566881Y280838D01*
X567146Y280789D01*
X567410Y280733D01*
X567673Y280670D01*
X567934Y280602D01*
X568193Y280526D01*
X568450Y280445D01*
X568706Y280357D01*
X568959Y280263D01*
X569210Y280163D01*
X569458Y280056D01*
X569703Y279944D01*
X569946Y279825D01*
X570185Y279701D01*
X570422Y279571D01*
X570655Y279435D01*
X570885Y279293D01*
X571111Y279146D01*
X571334Y278993D01*
X571553Y278835D01*
X571768Y278672D01*
X571978Y278503D01*
X572185Y278329D01*
X572387Y278150D01*
X572585Y277967D01*
X572778Y277778D01*
X572967Y277585D01*
X573150Y277387D01*
X573329Y277185D01*
X573503Y276978D01*
X573672Y276768D01*
X573835Y276553D01*
X573993Y276334D01*
X574146Y276111D01*
X574293Y275885D01*
X574435Y275655D01*
X574571Y275422D01*
X574701Y275185D01*
X574825Y274946D01*
X574944Y274703D01*
X575056Y274458D01*
X575163Y274210D01*
X575263Y273959D01*
X575357Y273706D01*
X575445Y273450D01*
X575526Y273193D01*
X575602Y272934D01*
X575670Y272673D01*
X575733Y272410D01*
X575789Y272146D01*
X575838Y271881D01*
X575881Y271614D01*
X575917Y271347D01*
X575947Y271078D01*
X575970Y270809D01*
X575987Y270540D01*
X575997Y270270D01*
X576000Y270000D01*
X575997Y269730D01*
X575987Y269460D01*
X575970Y269191D01*
X575947Y268922D01*
X575917Y268653D01*
X575881Y268386D01*
X575838Y268119D01*
X575789Y267854D01*
X575733Y267590D01*
X575670Y267327D01*
X575602Y267066D01*
X575526Y266807D01*
X575445Y266550D01*
X575357Y266294D01*
X575263Y266041D01*
X575163Y265790D01*
X575056Y265542D01*
X574944Y265297D01*
X574825Y265054D01*
X574701Y264815D01*
X574571Y264578D01*
X574435Y264345D01*
X574293Y264115D01*
X574146Y263889D01*
X573993Y263666D01*
X573835Y263447D01*
X573672Y263232D01*
X573503Y263022D01*
X573329Y262815D01*
X573150Y262613D01*
X572967Y262415D01*
X572778Y262222D01*
X572585Y262033D01*
X572387Y261850D01*
X572185Y261671D01*
X571978Y261497D01*
X571768Y261328D01*
X571553Y261165D01*
X571334Y261007D01*
X571111Y260854D01*
X570885Y260707D01*
X570655Y260565D01*
X570422Y260429D01*
X570185Y260299D01*
X569946Y260175D01*
X569703Y260056D01*
X569458Y259944D01*
X569210Y259837D01*
X568959Y259737D01*
X568706Y259643D01*
X568450Y259555D01*
X568193Y259474D01*
X567934Y259398D01*
X567673Y259330D01*
X567410Y259267D01*
X567146Y259211D01*
X566881Y259162D01*
X566614Y259119D01*
X566347Y259083D01*
X566078Y259053D01*
X565809Y259030D01*
X565540Y259013D01*
X565270Y259003D01*
X565000Y259000D01*
X564730Y259003D01*
X564460Y259013D01*
X564191Y259030D01*
X563922Y259053D01*
X563653Y259083D01*
X563386Y259119D01*
X563119Y259162D01*
X562854Y259211D01*
X562590Y259267D01*
X562327Y259330D01*
X562066Y259398D01*
X561807Y259474D01*
X561550Y259555D01*
X561294Y259643D01*
X561041Y259737D01*
X560790Y259837D01*
X560542Y259944D01*
X560297Y260056D01*
X560054Y260175D01*
X559815Y260299D01*
X559578Y260429D01*
X559345Y260565D01*
X559115Y260707D01*
X558889Y260854D01*
X558666Y261007D01*
X558447Y261165D01*
X558232Y261328D01*
X558022Y261497D01*
X557815Y261671D01*
X557613Y261850D01*
X557415Y262033D01*
X557222Y262222D01*
X557033Y262415D01*
X556850Y262613D01*
X556671Y262815D01*
X556497Y263022D01*
X556328Y263232D01*
X556165Y263447D01*
X556007Y263666D01*
X555854Y263889D01*
X555707Y264115D01*
X555565Y264345D01*
X555429Y264578D01*
X555299Y264815D01*
X555175Y265054D01*
X555056Y265297D01*
X554944Y265542D01*
X554837Y265790D01*
X554737Y266041D01*
X554643Y266294D01*
X554555Y266550D01*
X554474Y266807D01*
X554398Y267066D01*
X554330Y267327D01*
X554267Y267590D01*
X554211Y267854D01*
X554162Y268119D01*
X554119Y268386D01*
X554083Y268653D01*
X554053Y268922D01*
X554030Y269191D01*
X554013Y269460D01*
X554003Y269730D01*
X554000Y270000D01*
X554000Y-270000D02*
X554003Y-269730D01*
X554013Y-269460D01*
X554030Y-269191D01*
X554053Y-268922D01*
X554083Y-268653D01*
X554119Y-268386D01*
X554162Y-268119D01*
X554211Y-267854D01*
X554267Y-267590D01*
X554330Y-267327D01*
X554398Y-267066D01*
X554474Y-266807D01*
X554555Y-266550D01*
X554643Y-266294D01*
X554737Y-266041D01*
X554837Y-265790D01*
X554944Y-265542D01*
X555056Y-265297D01*
X555175Y-265054D01*
X555299Y-264815D01*
X555429Y-264578D01*
X555565Y-264345D01*
X555707Y-264115D01*
X555854Y-263889D01*
X556007Y-263666D01*
X556165Y-263447D01*
X556328Y-263232D01*
X556497Y-263022D01*
X556671Y-262815D01*
X556850Y-262613D01*
X557033Y-262415D01*
X557222Y-262222D01*
X557415Y-262033D01*
X557613Y-261850D01*
X557815Y-261671D01*
X558022Y-261497D01*
X558232Y-261328D01*
X558447Y-261165D01*
X558666Y-261007D01*
X558889Y-260854D01*
X559115Y-260707D01*
X559345Y-260565D01*
X559578Y-260429D01*
X559815Y-260299D01*
X560054Y-260175D01*
X560297Y-260056D01*
X560542Y-259944D01*
X560790Y-259837D01*
X561041Y-259737D01*
X561294Y-259643D01*
X561550Y-259555D01*
X561807Y-259474D01*
X562066Y-259398D01*
X562327Y-259330D01*
X562590Y-259267D01*
X562854Y-259211D01*
X563119Y-259162D01*
X563386Y-259119D01*
X563653Y-259083D01*
X563922Y-259053D01*
X564191Y-259030D01*
X564460Y-259013D01*
X564730Y-259003D01*
X565000Y-259000D01*
X565270Y-259003D01*
X565540Y-259013D01*
X565809Y-259030D01*
X566078Y-259053D01*
X566347Y-259083D01*
X566614Y-259119D01*
X566881Y-259162D01*
X567146Y-259211D01*
X567410Y-259267D01*
X567673Y-259330D01*
X567934Y-259398D01*
X568193Y-259474D01*
X568450Y-259555D01*
X568706Y-259643D01*
X568959Y-259737D01*
X569210Y-259837D01*
X569458Y-259944D01*
X569703Y-260056D01*
X569946Y-260175D01*
X570185Y-260299D01*
X570422Y-260429D01*
X570655Y-260565D01*
X570885Y-260707D01*
X571111Y-260854D01*
X571334Y-261007D01*
X571553Y-261165D01*
X571768Y-261328D01*
X571978Y-261497D01*
X572185Y-261671D01*
X572387Y-261850D01*
X572585Y-262033D01*
X572778Y-262222D01*
X572967Y-262415D01*
X573150Y-262613D01*
X573329Y-262815D01*
X573503Y-263022D01*
X573672Y-263232D01*
X573835Y-263447D01*
X573993Y-263666D01*
X574146Y-263889D01*
X574293Y-264115D01*
X574435Y-264345D01*
X574571Y-264578D01*
X574701Y-264815D01*
X574825Y-265054D01*
X574944Y-265297D01*
X575056Y-265542D01*
X575163Y-265790D01*
X575263Y-266041D01*
X575357Y-266294D01*
X575445Y-266550D01*
X575526Y-266807D01*
X575602Y-267066D01*
X575670Y-267327D01*
X575733Y-267590D01*
X575789Y-267854D01*
X575838Y-268119D01*
X575881Y-268386D01*
X575917Y-268653D01*
X575947Y-268922D01*
X575970Y-269191D01*
X575987Y-269460D01*
X575997Y-269730D01*
X576000Y-270000D01*
X575997Y-270270D01*
X575987Y-270540D01*
X575970Y-270809D01*
X575947Y-271078D01*
X575917Y-271347D01*
X575881Y-271614D01*
X575838Y-271881D01*
X575789Y-272146D01*
X575733Y-272410D01*
X575670Y-272673D01*
X575602Y-272934D01*
X575526Y-273193D01*
X575445Y-273450D01*
X575357Y-273706D01*
X575263Y-273959D01*
X575163Y-274210D01*
X575056Y-274458D01*
X574944Y-274703D01*
X574825Y-274946D01*
X574701Y-275185D01*
X574571Y-275422D01*
X574435Y-275655D01*
X574293Y-275885D01*
X574146Y-276111D01*
X573993Y-276334D01*
X573835Y-276553D01*
X573672Y-276768D01*
X573503Y-276978D01*
X573329Y-277185D01*
X573150Y-277387D01*
X572967Y-277585D01*
X572778Y-277778D01*
X572585Y-277967D01*
X572387Y-278150D01*
X572185Y-278329D01*
X571978Y-278503D01*
X571768Y-278672D01*
X571553Y-278835D01*
X571334Y-278993D01*
X571111Y-279146D01*
X570885Y-279293D01*
X570655Y-279435D01*
X570422Y-279571D01*
X570185Y-279701D01*
X569946Y-279825D01*
X569703Y-279944D01*
X569458Y-280056D01*
X569210Y-280163D01*
X568959Y-280263D01*
X568706Y-280357D01*
X568450Y-280445D01*
X568193Y-280526D01*
X567934Y-280602D01*
X567673Y-280670D01*
X567410Y-280733D01*
X567146Y-280789D01*
X566881Y-280838D01*
X566614Y-280881D01*
X566347Y-280917D01*
X566078Y-280947D01*
X565809Y-280970D01*
X565540Y-280987D01*
X565270Y-280997D01*
X565000Y-281000D01*
X564730Y-280997D01*
X564460Y-280987D01*
X564191Y-280970D01*
X563922Y-280947D01*
X563653Y-280917D01*
X563386Y-280881D01*
X563119Y-280838D01*
X562854Y-280789D01*
X562590Y-280733D01*
X562327Y-280670D01*
X562066Y-280602D01*
X561807Y-280526D01*
X561550Y-280445D01*
X561294Y-280357D01*
X561041Y-280263D01*
X560790Y-280163D01*
X560542Y-280056D01*
X560297Y-279944D01*
X560054Y-279825D01*
X559815Y-279701D01*
X559578Y-279571D01*
X559345Y-279435D01*
X559115Y-279293D01*
X558889Y-279146D01*
X558666Y-278993D01*
X558447Y-278835D01*
X558232Y-278672D01*
X558022Y-278503D01*
X557815Y-278329D01*
X557613Y-278150D01*
X557415Y-277967D01*
X557222Y-277778D01*
X557033Y-277585D01*
X556850Y-277387D01*
X556671Y-277185D01*
X556497Y-276978D01*
X556328Y-276768D01*
X556165Y-276553D01*
X556007Y-276334D01*
X555854Y-276111D01*
X555707Y-275885D01*
X555565Y-275655D01*
X555429Y-275422D01*
X555299Y-275185D01*
X555175Y-274946D01*
X555056Y-274703D01*
X554944Y-274458D01*
X554837Y-274210D01*
X554737Y-273959D01*
X554643Y-273706D01*
X554555Y-273450D01*
X554474Y-273193D01*
X554398Y-272934D01*
X554330Y-272673D01*
X554267Y-272410D01*
X554211Y-272146D01*
X554162Y-271881D01*
X554119Y-271614D01*
X554083Y-271347D01*
X554053Y-271078D01*
X554030Y-270809D01*
X554013Y-270540D01*
X554003Y-270270D01*
X554000Y-270000D01*
X-68000Y-280000D02*
X-67997Y-279730D01*
X-67987Y-279460D01*
X-67970Y-279191D01*
X-67947Y-278922D01*
X-67917Y-278653D01*
X-67881Y-278386D01*
X-67838Y-278119D01*
X-67789Y-277854D01*
X-67733Y-277590D01*
X-67670Y-277327D01*
X-67602Y-277066D01*
X-67526Y-276807D01*
X-67445Y-276550D01*
X-67357Y-276294D01*
X-67263Y-276041D01*
X-67163Y-275790D01*
X-67056Y-275542D01*
X-66944Y-275297D01*
X-66825Y-275054D01*
X-66701Y-274815D01*
X-66571Y-274578D01*
X-66435Y-274345D01*
X-66293Y-274115D01*
X-66146Y-273889D01*
X-65993Y-273666D01*
X-65835Y-273447D01*
X-65672Y-273232D01*
X-65503Y-273022D01*
X-65329Y-272815D01*
X-65150Y-272613D01*
X-64967Y-272415D01*
X-64778Y-272222D01*
X-64585Y-272033D01*
X-64387Y-271850D01*
X-64185Y-271671D01*
X-63978Y-271497D01*
X-63768Y-271328D01*
X-63553Y-271165D01*
X-63334Y-271007D01*
X-63111Y-270854D01*
X-62885Y-270707D01*
X-62655Y-270565D01*
X-62422Y-270429D01*
X-62185Y-270299D01*
X-61946Y-270175D01*
X-61703Y-270056D01*
X-61458Y-269944D01*
X-61210Y-269837D01*
X-60959Y-269737D01*
X-60706Y-269643D01*
X-60450Y-269555D01*
X-60193Y-269474D01*
X-59934Y-269398D01*
X-59673Y-269330D01*
X-59410Y-269267D01*
X-59146Y-269211D01*
X-58881Y-269162D01*
X-58614Y-269119D01*
X-58347Y-269083D01*
X-58078Y-269053D01*
X-57809Y-269030D01*
X-57540Y-269013D01*
X-57270Y-269003D01*
X-57000Y-269000D01*
X-56730Y-269003D01*
X-56460Y-269013D01*
X-56191Y-269030D01*
X-55922Y-269053D01*
X-55653Y-269083D01*
X-55386Y-269119D01*
X-55119Y-269162D01*
X-54854Y-269211D01*
X-54590Y-269267D01*
X-54327Y-269330D01*
X-54066Y-269398D01*
X-53807Y-269474D01*
X-53550Y-269555D01*
X-53294Y-269643D01*
X-53041Y-269737D01*
X-52790Y-269837D01*
X-52542Y-269944D01*
X-52297Y-270056D01*
X-52054Y-270175D01*
X-51815Y-270299D01*
X-51578Y-270429D01*
X-51345Y-270565D01*
X-51115Y-270707D01*
X-50889Y-270854D01*
X-50666Y-271007D01*
X-50447Y-271165D01*
X-50232Y-271328D01*
X-50022Y-271497D01*
X-49815Y-271671D01*
X-49613Y-271850D01*
X-49415Y-272033D01*
X-49222Y-272222D01*
X-49033Y-272415D01*
X-48850Y-272613D01*
X-48671Y-272815D01*
X-48497Y-273022D01*
X-48328Y-273232D01*
X-48165Y-273447D01*
X-48007Y-273666D01*
X-47854Y-273889D01*
X-47707Y-274115D01*
X-47565Y-274345D01*
X-47429Y-274578D01*
X-47299Y-274815D01*
X-47175Y-275054D01*
X-47056Y-275297D01*
X-46944Y-275542D01*
X-46837Y-275790D01*
X-46737Y-276041D01*
X-46643Y-276294D01*
X-46555Y-276550D01*
X-46474Y-276807D01*
X-46398Y-277066D01*
X-46330Y-277327D01*
X-46267Y-277590D01*
X-46211Y-277854D01*
X-46162Y-278119D01*
X-46119Y-278386D01*
X-46083Y-278653D01*
X-46053Y-278922D01*
X-46030Y-279191D01*
X-46013Y-279460D01*
X-46003Y-279730D01*
X-46000Y-280000D01*
X-46003Y-280270D01*
X-46013Y-280540D01*
X-46030Y-280809D01*
X-46053Y-281078D01*
X-46083Y-281347D01*
X-46119Y-281614D01*
X-46162Y-281881D01*
X-46211Y-282146D01*
X-46267Y-282410D01*
X-46330Y-282673D01*
X-46398Y-282934D01*
X-46474Y-283193D01*
X-46555Y-283450D01*
X-46643Y-283706D01*
X-46737Y-283959D01*
X-46837Y-284210D01*
X-46944Y-284458D01*
X-47056Y-284703D01*
X-47175Y-284946D01*
X-47299Y-285185D01*
X-47429Y-285422D01*
X-47565Y-285655D01*
X-47707Y-285885D01*
X-47854Y-286111D01*
X-48007Y-286334D01*
X-48165Y-286553D01*
X-48328Y-286768D01*
X-48497Y-286978D01*
X-48671Y-287185D01*
X-48850Y-287387D01*
X-49033Y-287585D01*
X-49222Y-287778D01*
X-49415Y-287967D01*
X-49613Y-288150D01*
X-49815Y-288329D01*
X-50022Y-288503D01*
X-50232Y-288672D01*
X-50447Y-288835D01*
X-50666Y-288993D01*
X-50889Y-289146D01*
X-51115Y-289293D01*
X-51345Y-289435D01*
X-51578Y-289571D01*
X-51815Y-289701D01*
X-52054Y-289825D01*
X-52297Y-289944D01*
X-52542Y-290056D01*
X-52790Y-290163D01*
X-53041Y-290263D01*
X-53294Y-290357D01*
X-53550Y-290445D01*
X-53807Y-290526D01*
X-54066Y-290602D01*
X-54327Y-290670D01*
X-54590Y-290733D01*
X-54854Y-290789D01*
X-55119Y-290838D01*
X-55386Y-290881D01*
X-55653Y-290917D01*
X-55922Y-290947D01*
X-56191Y-290970D01*
X-56460Y-290987D01*
X-56730Y-290997D01*
X-57000Y-291000D01*
X-57270Y-290997D01*
X-57540Y-290987D01*
X-57809Y-290970D01*
X-58078Y-290947D01*
X-58347Y-290917D01*
X-58614Y-290881D01*
X-58881Y-290838D01*
X-59146Y-290789D01*
X-59410Y-290733D01*
X-59673Y-290670D01*
X-59934Y-290602D01*
X-60193Y-290526D01*
X-60450Y-290445D01*
X-60706Y-290357D01*
X-60959Y-290263D01*
X-61210Y-290163D01*
X-61458Y-290056D01*
X-61703Y-289944D01*
X-61946Y-289825D01*
X-62185Y-289701D01*
X-62422Y-289571D01*
X-62655Y-289435D01*
X-62885Y-289293D01*
X-63111Y-289146D01*
X-63334Y-288993D01*
X-63553Y-288835D01*
X-63768Y-288672D01*
X-63978Y-288503D01*
X-64185Y-288329D01*
X-64387Y-288150D01*
X-64585Y-287967D01*
X-64778Y-287778D01*
X-64967Y-287585D01*
X-65150Y-287387D01*
X-65329Y-287185D01*
X-65503Y-286978D01*
X-65672Y-286768D01*
X-65835Y-286553D01*
X-65993Y-286334D01*
X-66146Y-286111D01*
X-66293Y-285885D01*
X-66435Y-285655D01*
X-66571Y-285422D01*
X-66701Y-285185D01*
X-66825Y-284946D01*
X-66944Y-284703D01*
X-67056Y-284458D01*
X-67163Y-284210D01*
X-67263Y-283959D01*
X-67357Y-283706D01*
X-67445Y-283450D01*
X-67526Y-283193D01*
X-67602Y-282934D01*
X-67670Y-282673D01*
X-67733Y-282410D01*
X-67789Y-282146D01*
X-67838Y-281881D01*
X-67881Y-281614D01*
X-67917Y-281347D01*
X-67947Y-281078D01*
X-67970Y-280809D01*
X-67987Y-280540D01*
X-67997Y-280270D01*
X-68000Y-280000D01*
X46000Y-280000D02*
X46003Y-279730D01*
X46013Y-279460D01*
X46030Y-279191D01*
X46053Y-278922D01*
X46083Y-278653D01*
X46119Y-278386D01*
X46162Y-278119D01*
X46211Y-277854D01*
X46267Y-277590D01*
X46330Y-277327D01*
X46398Y-277066D01*
X46474Y-276807D01*
X46555Y-276550D01*
X46643Y-276294D01*
X46737Y-276041D01*
X46837Y-275790D01*
X46944Y-275542D01*
X47056Y-275297D01*
X47175Y-275054D01*
X47299Y-274815D01*
X47429Y-274578D01*
X47565Y-274345D01*
X47707Y-274115D01*
X47854Y-273889D01*
X48007Y-273666D01*
X48165Y-273447D01*
X48328Y-273232D01*
X48497Y-273022D01*
X48671Y-272815D01*
X48850Y-272613D01*
X49033Y-272415D01*
X49222Y-272222D01*
X49415Y-272033D01*
X49613Y-271850D01*
X49815Y-271671D01*
X50022Y-271497D01*
X50232Y-271328D01*
X50447Y-271165D01*
X50666Y-271007D01*
X50889Y-270854D01*
X51115Y-270707D01*
X51345Y-270565D01*
X51578Y-270429D01*
X51815Y-270299D01*
X52054Y-270175D01*
X52297Y-270056D01*
X52542Y-269944D01*
X52790Y-269837D01*
X53041Y-269737D01*
X53294Y-269643D01*
X53550Y-269555D01*
X53807Y-269474D01*
X54066Y-269398D01*
X54327Y-269330D01*
X54590Y-269267D01*
X54854Y-269211D01*
X55119Y-269162D01*
X55386Y-269119D01*
X55653Y-269083D01*
X55922Y-269053D01*
X56191Y-269030D01*
X56460Y-269013D01*
X56730Y-269003D01*
X57000Y-269000D01*
X57270Y-269003D01*
X57540Y-269013D01*
X57809Y-269030D01*
X58078Y-269053D01*
X58347Y-269083D01*
X58614Y-269119D01*
X58881Y-269162D01*
X59146Y-269211D01*
X59410Y-269267D01*
X59673Y-269330D01*
X59934Y-269398D01*
X60193Y-269474D01*
X60450Y-269555D01*
X60706Y-269643D01*
X60959Y-269737D01*
X61210Y-269837D01*
X61458Y-269944D01*
X61703Y-270056D01*
X61946Y-270175D01*
X62185Y-270299D01*
X62422Y-270429D01*
X62655Y-270565D01*
X62885Y-270707D01*
X63111Y-270854D01*
X63334Y-271007D01*
X63553Y-271165D01*
X63768Y-271328D01*
X63978Y-271497D01*
X64185Y-271671D01*
X64387Y-271850D01*
X64585Y-272033D01*
X64778Y-272222D01*
X64967Y-272415D01*
X65150Y-272613D01*
X65329Y-272815D01*
X65503Y-273022D01*
X65672Y-273232D01*
X65835Y-273447D01*
X65993Y-273666D01*
X66146Y-273889D01*
X66293Y-274115D01*
X66435Y-274345D01*
X66571Y-274578D01*
X66701Y-274815D01*
X66825Y-275054D01*
X66944Y-275297D01*
X67056Y-275542D01*
X67163Y-275790D01*
X67263Y-276041D01*
X67357Y-276294D01*
X67445Y-276550D01*
X67526Y-276807D01*
X67602Y-277066D01*
X67670Y-277327D01*
X67733Y-277590D01*
X67789Y-277854D01*
X67838Y-278119D01*
X67881Y-278386D01*
X67917Y-278653D01*
X67947Y-278922D01*
X67970Y-279191D01*
X67987Y-279460D01*
X67997Y-279730D01*
X68000Y-280000D01*
X67997Y-280270D01*
X67987Y-280540D01*
X67970Y-280809D01*
X67947Y-281078D01*
X67917Y-281347D01*
X67881Y-281614D01*
X67838Y-281881D01*
X67789Y-282146D01*
X67733Y-282410D01*
X67670Y-282673D01*
X67602Y-282934D01*
X67526Y-283193D01*
X67445Y-283450D01*
X67357Y-283706D01*
X67263Y-283959D01*
X67163Y-284210D01*
X67056Y-284458D01*
X66944Y-284703D01*
X66825Y-284946D01*
X66701Y-285185D01*
X66571Y-285422D01*
X66435Y-285655D01*
X66293Y-285885D01*
X66146Y-286111D01*
X65993Y-286334D01*
X65835Y-286553D01*
X65672Y-286768D01*
X65503Y-286978D01*
X65329Y-287185D01*
X65150Y-287387D01*
X64967Y-287585D01*
X64778Y-287778D01*
X64585Y-287967D01*
X64387Y-288150D01*
X64185Y-288329D01*
X63978Y-288503D01*
X63768Y-288672D01*
X63553Y-288835D01*
X63334Y-288993D01*
X63111Y-289146D01*
X62885Y-289293D01*
X62655Y-289435D01*
X62422Y-289571D01*
X62185Y-289701D01*
X61946Y-289825D01*
X61703Y-289944D01*
X61458Y-290056D01*
X61210Y-290163D01*
X60959Y-290263D01*
X60706Y-290357D01*
X60450Y-290445D01*
X60193Y-290526D01*
X59934Y-290602D01*
X59673Y-290670D01*
X59410Y-290733D01*
X59146Y-290789D01*
X58881Y-290838D01*
X58614Y-290881D01*
X58347Y-290917D01*
X58078Y-290947D01*
X57809Y-290970D01*
X57540Y-290987D01*
X57270Y-290997D01*
X57000Y-291000D01*
X56730Y-290997D01*
X56460Y-290987D01*
X56191Y-290970D01*
X55922Y-290947D01*
X55653Y-290917D01*
X55386Y-290881D01*
X55119Y-290838D01*
X54854Y-290789D01*
X54590Y-290733D01*
X54327Y-290670D01*
X54066Y-290602D01*
X53807Y-290526D01*
X53550Y-290445D01*
X53294Y-290357D01*
X53041Y-290263D01*
X52790Y-290163D01*
X52542Y-290056D01*
X52297Y-289944D01*
X52054Y-289825D01*
X51815Y-289701D01*
X51578Y-289571D01*
X51345Y-289435D01*
X51115Y-289293D01*
X50889Y-289146D01*
X50666Y-288993D01*
X50447Y-288835D01*
X50232Y-288672D01*
X50022Y-288503D01*
X49815Y-288329D01*
X49613Y-288150D01*
X49415Y-287967D01*
X49222Y-287778D01*
X49033Y-287585D01*
X48850Y-287387D01*
X48671Y-287185D01*
X48497Y-286978D01*
X48328Y-286768D01*
X48165Y-286553D01*
X48007Y-286334D01*
X47854Y-286111D01*
X47707Y-285885D01*
X47565Y-285655D01*
X47429Y-285422D01*
X47299Y-285185D01*
X47175Y-284946D01*
X47056Y-284703D01*
X46944Y-284458D01*
X46837Y-284210D01*
X46737Y-283959D01*
X46643Y-283706D01*
X46555Y-283450D01*
X46474Y-283193D01*
X46398Y-282934D01*
X46330Y-282673D01*
X46267Y-282410D01*
X46211Y-282146D01*
X46162Y-281881D01*
X46119Y-281614D01*
X46083Y-281347D01*
X46053Y-281078D01*
X46030Y-280809D01*
X46013Y-280540D01*
X46003Y-280270D01*
X46000Y-280000D01*
X-386000Y-115000D02*
X-385997Y-114730D01*
X-385987Y-114460D01*
X-385970Y-114191D01*
X-385947Y-113922D01*
X-385917Y-113653D01*
X-385881Y-113386D01*
X-385838Y-113119D01*
X-385789Y-112854D01*
X-385733Y-112590D01*
X-385670Y-112327D01*
X-385602Y-112066D01*
X-385526Y-111807D01*
X-385445Y-111550D01*
X-385357Y-111294D01*
X-385263Y-111041D01*
X-385163Y-110790D01*
X-385056Y-110542D01*
X-384944Y-110297D01*
X-384825Y-110054D01*
X-384701Y-109815D01*
X-384571Y-109578D01*
X-384435Y-109345D01*
X-384293Y-109115D01*
X-384146Y-108889D01*
X-383993Y-108666D01*
X-383835Y-108447D01*
X-383672Y-108232D01*
X-383503Y-108022D01*
X-383329Y-107815D01*
X-383150Y-107613D01*
X-382967Y-107415D01*
X-382778Y-107222D01*
X-382585Y-107033D01*
X-382387Y-106850D01*
X-382185Y-106671D01*
X-381978Y-106497D01*
X-381768Y-106328D01*
X-381553Y-106165D01*
X-381334Y-106007D01*
X-381111Y-105854D01*
X-380885Y-105707D01*
X-380655Y-105565D01*
X-380422Y-105429D01*
X-380185Y-105299D01*
X-379946Y-105175D01*
X-379703Y-105056D01*
X-379458Y-104944D01*
X-379210Y-104837D01*
X-378959Y-104737D01*
X-378706Y-104643D01*
X-378450Y-104555D01*
X-378193Y-104474D01*
X-377934Y-104398D01*
X-377673Y-104330D01*
X-377410Y-104267D01*
X-377146Y-104211D01*
X-376881Y-104162D01*
X-376614Y-104119D01*
X-376347Y-104083D01*
X-376078Y-104053D01*
X-375809Y-104030D01*
X-375540Y-104013D01*
X-375270Y-104003D01*
X-375000Y-104000D01*
X-374730Y-104003D01*
X-374460Y-104013D01*
X-374191Y-104030D01*
X-373922Y-104053D01*
X-373653Y-104083D01*
X-373386Y-104119D01*
X-373119Y-104162D01*
X-372854Y-104211D01*
X-372590Y-104267D01*
X-372327Y-104330D01*
X-372066Y-104398D01*
X-371807Y-104474D01*
X-371550Y-104555D01*
X-371294Y-104643D01*
X-371041Y-104737D01*
X-370790Y-104837D01*
X-370542Y-104944D01*
X-370297Y-105056D01*
X-370054Y-105175D01*
X-369815Y-105299D01*
X-369578Y-105429D01*
X-369345Y-105565D01*
X-369115Y-105707D01*
X-368889Y-105854D01*
X-368666Y-106007D01*
X-368447Y-106165D01*
X-368232Y-106328D01*
X-368022Y-106497D01*
X-367815Y-106671D01*
X-367613Y-106850D01*
X-367415Y-107033D01*
X-367222Y-107222D01*
X-367033Y-107415D01*
X-366850Y-107613D01*
X-366671Y-107815D01*
X-366497Y-108022D01*
X-366328Y-108232D01*
X-366165Y-108447D01*
X-366007Y-108666D01*
X-365854Y-108889D01*
X-365707Y-109115D01*
X-365565Y-109345D01*
X-365429Y-109578D01*
X-365299Y-109815D01*
X-365175Y-110054D01*
X-365056Y-110297D01*
X-364944Y-110542D01*
X-364837Y-110790D01*
X-364737Y-111041D01*
X-364643Y-111294D01*
X-364555Y-111550D01*
X-364474Y-111807D01*
X-364398Y-112066D01*
X-364330Y-112327D01*
X-364267Y-112590D01*
X-364211Y-112854D01*
X-364162Y-113119D01*
X-364119Y-113386D01*
X-364083Y-113653D01*
X-364053Y-113922D01*
X-364030Y-114191D01*
X-364013Y-114460D01*
X-364003Y-114730D01*
X-364000Y-115000D01*
X-364003Y-115270D01*
X-364013Y-115540D01*
X-364030Y-115809D01*
X-364053Y-116078D01*
X-364083Y-116347D01*
X-364119Y-116614D01*
X-364162Y-116881D01*
X-364211Y-117146D01*
X-364267Y-117410D01*
X-364330Y-117673D01*
X-364398Y-117934D01*
X-364474Y-118193D01*
X-364555Y-118450D01*
X-364643Y-118706D01*
X-364737Y-118959D01*
X-364837Y-119210D01*
X-364944Y-119458D01*
X-365056Y-119703D01*
X-365175Y-119946D01*
X-365299Y-120185D01*
X-365429Y-120422D01*
X-365565Y-120655D01*
X-365707Y-120885D01*
X-365854Y-121111D01*
X-366007Y-121334D01*
X-366165Y-121553D01*
X-366328Y-121768D01*
X-366497Y-121978D01*
X-366671Y-122185D01*
X-366850Y-122387D01*
X-367033Y-122585D01*
X-367222Y-122778D01*
X-367415Y-122967D01*
X-367613Y-123150D01*
X-367815Y-123329D01*
X-368022Y-123503D01*
X-368232Y-123672D01*
X-368447Y-123835D01*
X-368666Y-123993D01*
X-368889Y-124146D01*
X-369115Y-124293D01*
X-369345Y-124435D01*
X-369578Y-124571D01*
X-369815Y-124701D01*
X-370054Y-124825D01*
X-370297Y-124944D01*
X-370542Y-125056D01*
X-370790Y-125163D01*
X-371041Y-125263D01*
X-371294Y-125357D01*
X-371550Y-125445D01*
X-371807Y-125526D01*
X-372066Y-125602D01*
X-372327Y-125670D01*
X-372590Y-125733D01*
X-372854Y-125789D01*
X-373119Y-125838D01*
X-373386Y-125881D01*
X-373653Y-125917D01*
X-373922Y-125947D01*
X-374191Y-125970D01*
X-374460Y-125987D01*
X-374730Y-125997D01*
X-375000Y-126000D01*
X-375270Y-125997D01*
X-375540Y-125987D01*
X-375809Y-125970D01*
X-376078Y-125947D01*
X-376347Y-125917D01*
X-376614Y-125881D01*
X-376881Y-125838D01*
X-377146Y-125789D01*
X-377410Y-125733D01*
X-377673Y-125670D01*
X-377934Y-125602D01*
X-378193Y-125526D01*
X-378450Y-125445D01*
X-378706Y-125357D01*
X-378959Y-125263D01*
X-379210Y-125163D01*
X-379458Y-125056D01*
X-379703Y-124944D01*
X-379946Y-124825D01*
X-380185Y-124701D01*
X-380422Y-124571D01*
X-380655Y-124435D01*
X-380885Y-124293D01*
X-381111Y-124146D01*
X-381334Y-123993D01*
X-381553Y-123835D01*
X-381768Y-123672D01*
X-381978Y-123503D01*
X-382185Y-123329D01*
X-382387Y-123150D01*
X-382585Y-122967D01*
X-382778Y-122778D01*
X-382967Y-122585D01*
X-383150Y-122387D01*
X-383329Y-122185D01*
X-383503Y-121978D01*
X-383672Y-121768D01*
X-383835Y-121553D01*
X-383993Y-121334D01*
X-384146Y-121111D01*
X-384293Y-120885D01*
X-384435Y-120655D01*
X-384571Y-120422D01*
X-384701Y-120185D01*
X-384825Y-119946D01*
X-384944Y-119703D01*
X-385056Y-119458D01*
X-385163Y-119210D01*
X-385263Y-118959D01*
X-385357Y-118706D01*
X-385445Y-118450D01*
X-385526Y-118193D01*
X-385602Y-117934D01*
X-385670Y-117673D01*
X-385733Y-117410D01*
X-385789Y-117146D01*
X-385838Y-116881D01*
X-385881Y-116614D01*
X-385917Y-116347D01*
X-385947Y-116078D01*
X-385970Y-115809D01*
X-385987Y-115540D01*
X-385997Y-115270D01*
X-386000Y-115000D01*
X-386000Y195000D02*
X-385997Y195270D01*
X-385987Y195540D01*
X-385970Y195809D01*
X-385947Y196078D01*
X-385917Y196347D01*
X-385881Y196614D01*
X-385838Y196881D01*
X-385789Y197146D01*
X-385733Y197410D01*
X-385670Y197673D01*
X-385602Y197934D01*
X-385526Y198193D01*
X-385445Y198450D01*
X-385357Y198706D01*
X-385263Y198959D01*
X-385163Y199210D01*
X-385056Y199458D01*
X-384944Y199703D01*
X-384825Y199946D01*
X-384701Y200185D01*
X-384571Y200422D01*
X-384435Y200655D01*
X-384293Y200885D01*
X-384146Y201111D01*
X-383993Y201334D01*
X-383835Y201553D01*
X-383672Y201768D01*
X-383503Y201978D01*
X-383329Y202185D01*
X-383150Y202387D01*
X-382967Y202585D01*
X-382778Y202778D01*
X-382585Y202967D01*
X-382387Y203150D01*
X-382185Y203329D01*
X-381978Y203503D01*
X-381768Y203672D01*
X-381553Y203835D01*
X-381334Y203993D01*
X-381111Y204146D01*
X-380885Y204293D01*
X-380655Y204435D01*
X-380422Y204571D01*
X-380185Y204701D01*
X-379946Y204825D01*
X-379703Y204944D01*
X-379458Y205056D01*
X-379210Y205163D01*
X-378959Y205263D01*
X-378706Y205357D01*
X-378450Y205445D01*
X-378193Y205526D01*
X-377934Y205602D01*
X-377673Y205670D01*
X-377410Y205733D01*
X-377146Y205789D01*
X-376881Y205838D01*
X-376614Y205881D01*
X-376347Y205917D01*
X-376078Y205947D01*
X-375809Y205970D01*
X-375540Y205987D01*
X-375270Y205997D01*
X-375000Y206000D01*
X-374730Y205997D01*
X-374460Y205987D01*
X-374191Y205970D01*
X-373922Y205947D01*
X-373653Y205917D01*
X-373386Y205881D01*
X-373119Y205838D01*
X-372854Y205789D01*
X-372590Y205733D01*
X-372327Y205670D01*
X-372066Y205602D01*
X-371807Y205526D01*
X-371550Y205445D01*
X-371294Y205357D01*
X-371041Y205263D01*
X-370790Y205163D01*
X-370542Y205056D01*
X-370297Y204944D01*
X-370054Y204825D01*
X-369815Y204701D01*
X-369578Y204571D01*
X-369345Y204435D01*
X-369115Y204293D01*
X-368889Y204146D01*
X-368666Y203993D01*
X-368447Y203835D01*
X-368232Y203672D01*
X-368022Y203503D01*
X-367815Y203329D01*
X-367613Y203150D01*
X-367415Y202967D01*
X-367222Y202778D01*
X-367033Y202585D01*
X-366850Y202387D01*
X-366671Y202185D01*
X-366497Y201978D01*
X-366328Y201768D01*
X-366165Y201553D01*
X-366007Y201334D01*
X-365854Y201111D01*
X-365707Y200885D01*
X-365565Y200655D01*
X-365429Y200422D01*
X-365299Y200185D01*
X-365175Y199946D01*
X-365056Y199703D01*
X-364944Y199458D01*
X-364837Y199210D01*
X-364737Y198959D01*
X-364643Y198706D01*
X-364555Y198450D01*
X-364474Y198193D01*
X-364398Y197934D01*
X-364330Y197673D01*
X-364267Y197410D01*
X-364211Y197146D01*
X-364162Y196881D01*
X-364119Y196614D01*
X-364083Y196347D01*
X-364053Y196078D01*
X-364030Y195809D01*
X-364013Y195540D01*
X-364003Y195270D01*
X-364000Y195000D01*
X-364003Y194730D01*
X-364013Y194460D01*
X-364030Y194191D01*
X-364053Y193922D01*
X-364083Y193653D01*
X-364119Y193386D01*
X-364162Y193119D01*
X-364211Y192854D01*
X-364267Y192590D01*
X-364330Y192327D01*
X-364398Y192066D01*
X-364474Y191807D01*
X-364555Y191550D01*
X-364643Y191294D01*
X-364737Y191041D01*
X-364837Y190790D01*
X-364944Y190542D01*
X-365056Y190297D01*
X-365175Y190054D01*
X-365299Y189815D01*
X-365429Y189578D01*
X-365565Y189345D01*
X-365707Y189115D01*
X-365854Y188889D01*
X-366007Y188666D01*
X-366165Y188447D01*
X-366328Y188232D01*
X-366497Y188022D01*
X-366671Y187815D01*
X-366850Y187613D01*
X-367033Y187415D01*
X-367222Y187222D01*
X-367415Y187033D01*
X-367613Y186850D01*
X-367815Y186671D01*
X-368022Y186497D01*
X-368232Y186328D01*
X-368447Y186165D01*
X-368666Y186007D01*
X-368889Y185854D01*
X-369115Y185707D01*
X-369345Y185565D01*
X-369578Y185429D01*
X-369815Y185299D01*
X-370054Y185175D01*
X-370297Y185056D01*
X-370542Y184944D01*
X-370790Y184837D01*
X-371041Y184737D01*
X-371294Y184643D01*
X-371550Y184555D01*
X-371807Y184474D01*
X-372066Y184398D01*
X-372327Y184330D01*
X-372590Y184267D01*
X-372854Y184211D01*
X-373119Y184162D01*
X-373386Y184119D01*
X-373653Y184083D01*
X-373922Y184053D01*
X-374191Y184030D01*
X-374460Y184013D01*
X-374730Y184003D01*
X-375000Y184000D01*
X-375270Y184003D01*
X-375540Y184013D01*
X-375809Y184030D01*
X-376078Y184053D01*
X-376347Y184083D01*
X-376614Y184119D01*
X-376881Y184162D01*
X-377146Y184211D01*
X-377410Y184267D01*
X-377673Y184330D01*
X-377934Y184398D01*
X-378193Y184474D01*
X-378450Y184555D01*
X-378706Y184643D01*
X-378959Y184737D01*
X-379210Y184837D01*
X-379458Y184944D01*
X-379703Y185056D01*
X-379946Y185175D01*
X-380185Y185299D01*
X-380422Y185429D01*
X-380655Y185565D01*
X-380885Y185707D01*
X-381111Y185854D01*
X-381334Y186007D01*
X-381553Y186165D01*
X-381768Y186328D01*
X-381978Y186497D01*
X-382185Y186671D01*
X-382387Y186850D01*
X-382585Y187033D01*
X-382778Y187222D01*
X-382967Y187415D01*
X-383150Y187613D01*
X-383329Y187815D01*
X-383503Y188022D01*
X-383672Y188232D01*
X-383835Y188447D01*
X-383993Y188666D01*
X-384146Y188889D01*
X-384293Y189115D01*
X-384435Y189345D01*
X-384571Y189578D01*
X-384701Y189815D01*
X-384825Y190054D01*
X-384944Y190297D01*
X-385056Y190542D01*
X-385163Y190790D01*
X-385263Y191041D01*
X-385357Y191294D01*
X-385445Y191550D01*
X-385526Y191807D01*
X-385602Y192066D01*
X-385670Y192327D01*
X-385733Y192590D01*
X-385789Y192854D01*
X-385838Y193119D01*
X-385881Y193386D01*
X-385917Y193653D01*
X-385947Y193922D01*
X-385970Y194191D01*
X-385987Y194460D01*
X-385997Y194730D01*
X-386000Y195000D01*
X364000Y-115000D02*
X364003Y-114730D01*
X364013Y-114460D01*
X364030Y-114191D01*
X364053Y-113922D01*
X364083Y-113653D01*
X364119Y-113386D01*
X364162Y-113119D01*
X364211Y-112854D01*
X364267Y-112590D01*
X364330Y-112327D01*
X364398Y-112066D01*
X364474Y-111807D01*
X364555Y-111550D01*
X364643Y-111294D01*
X364737Y-111041D01*
X364837Y-110790D01*
X364944Y-110542D01*
X365056Y-110297D01*
X365175Y-110054D01*
X365299Y-109815D01*
X365429Y-109578D01*
X365565Y-109345D01*
X365707Y-109115D01*
X365854Y-108889D01*
X366007Y-108666D01*
X366165Y-108447D01*
X366328Y-108232D01*
X366497Y-108022D01*
X366671Y-107815D01*
X366850Y-107613D01*
X367033Y-107415D01*
X367222Y-107222D01*
X367415Y-107033D01*
X367613Y-106850D01*
X367815Y-106671D01*
X368022Y-106497D01*
X368232Y-106328D01*
X368447Y-106165D01*
X368666Y-106007D01*
X368889Y-105854D01*
X369115Y-105707D01*
X369345Y-105565D01*
X369578Y-105429D01*
X369815Y-105299D01*
X370054Y-105175D01*
X370297Y-105056D01*
X370542Y-104944D01*
X370790Y-104837D01*
X371041Y-104737D01*
X371294Y-104643D01*
X371550Y-104555D01*
X371807Y-104474D01*
X372066Y-104398D01*
X372327Y-104330D01*
X372590Y-104267D01*
X372854Y-104211D01*
X373119Y-104162D01*
X373386Y-104119D01*
X373653Y-104083D01*
X373922Y-104053D01*
X374191Y-104030D01*
X374460Y-104013D01*
X374730Y-104003D01*
X375000Y-104000D01*
X375270Y-104003D01*
X375540Y-104013D01*
X375809Y-104030D01*
X376078Y-104053D01*
X376347Y-104083D01*
X376614Y-104119D01*
X376881Y-104162D01*
X377146Y-104211D01*
X377410Y-104267D01*
X377673Y-104330D01*
X377934Y-104398D01*
X378193Y-104474D01*
X378450Y-104555D01*
X378706Y-104643D01*
X378959Y-104737D01*
X379210Y-104837D01*
X379458Y-104944D01*
X379703Y-105056D01*
X379946Y-105175D01*
X380185Y-105299D01*
X380422Y-105429D01*
X380655Y-105565D01*
X380885Y-105707D01*
X381111Y-105854D01*
X381334Y-106007D01*
X381553Y-106165D01*
X381768Y-106328D01*
X381978Y-106497D01*
X382185Y-106671D01*
X382387Y-106850D01*
X382585Y-107033D01*
X382778Y-107222D01*
X382967Y-107415D01*
X383150Y-107613D01*
X383329Y-107815D01*
X383503Y-108022D01*
X383672Y-108232D01*
X383835Y-108447D01*
X383993Y-108666D01*
X384146Y-108889D01*
X384293Y-109115D01*
X384435Y-109345D01*
X384571Y-109578D01*
X384701Y-109815D01*
X384825Y-110054D01*
X384944Y-110297D01*
X385056Y-110542D01*
X385163Y-110790D01*
X385263Y-111041D01*
X385357Y-111294D01*
X385445Y-111550D01*
X385526Y-111807D01*
X385602Y-112066D01*
X385670Y-112327D01*
X385733Y-112590D01*
X385789Y-112854D01*
X385838Y-113119D01*
X385881Y-113386D01*
X385917Y-113653D01*
X385947Y-113922D01*
X385970Y-114191D01*
X385987Y-114460D01*
X385997Y-114730D01*
X386000Y-115000D01*
X385997Y-115270D01*
X385987Y-115540D01*
X385970Y-115809D01*
X385947Y-116078D01*
X385917Y-116347D01*
X385881Y-116614D01*
X385838Y-116881D01*
X385789Y-117146D01*
X385733Y-117410D01*
X385670Y-117673D01*
X385602Y-117934D01*
X385526Y-118193D01*
X385445Y-118450D01*
X385357Y-118706D01*
X385263Y-118959D01*
X385163Y-119210D01*
X385056Y-119458D01*
X384944Y-119703D01*
X384825Y-119946D01*
X384701Y-120185D01*
X384571Y-120422D01*
X384435Y-120655D01*
X384293Y-120885D01*
X384146Y-121111D01*
X383993Y-121334D01*
X383835Y-121553D01*
X383672Y-121768D01*
X383503Y-121978D01*
X383329Y-122185D01*
X383150Y-122387D01*
X382967Y-122585D01*
X382778Y-122778D01*
X382585Y-122967D01*
X382387Y-123150D01*
X382185Y-123329D01*
X381978Y-123503D01*
X381768Y-123672D01*
X381553Y-123835D01*
X381334Y-123993D01*
X381111Y-124146D01*
X380885Y-124293D01*
X380655Y-124435D01*
X380422Y-124571D01*
X380185Y-124701D01*
X379946Y-124825D01*
X379703Y-124944D01*
X379458Y-125056D01*
X379210Y-125163D01*
X378959Y-125263D01*
X378706Y-125357D01*
X378450Y-125445D01*
X378193Y-125526D01*
X377934Y-125602D01*
X377673Y-125670D01*
X377410Y-125733D01*
X377146Y-125789D01*
X376881Y-125838D01*
X376614Y-125881D01*
X376347Y-125917D01*
X376078Y-125947D01*
X375809Y-125970D01*
X375540Y-125987D01*
X375270Y-125997D01*
X375000Y-126000D01*
X374730Y-125997D01*
X374460Y-125987D01*
X374191Y-125970D01*
X373922Y-125947D01*
X373653Y-125917D01*
X373386Y-125881D01*
X373119Y-125838D01*
X372854Y-125789D01*
X372590Y-125733D01*
X372327Y-125670D01*
X372066Y-125602D01*
X371807Y-125526D01*
X371550Y-125445D01*
X371294Y-125357D01*
X371041Y-125263D01*
X370790Y-125163D01*
X370542Y-125056D01*
X370297Y-124944D01*
X370054Y-124825D01*
X369815Y-124701D01*
X369578Y-124571D01*
X369345Y-124435D01*
X369115Y-124293D01*
X368889Y-124146D01*
X368666Y-123993D01*
X368447Y-123835D01*
X368232Y-123672D01*
X368022Y-123503D01*
X367815Y-123329D01*
X367613Y-123150D01*
X367415Y-122967D01*
X367222Y-122778D01*
X367033Y-122585D01*
X366850Y-122387D01*
X366671Y-122185D01*
X366497Y-121978D01*
X366328Y-121768D01*
X366165Y-121553D01*
X366007Y-121334D01*
X365854Y-121111D01*
X365707Y-120885D01*
X365565Y-120655D01*
X365429Y-120422D01*
X365299Y-120185D01*
X365175Y-119946D01*
X365056Y-119703D01*
X364944Y-119458D01*
X364837Y-119210D01*
X364737Y-118959D01*
X364643Y-118706D01*
X364555Y-118450D01*
X364474Y-118193D01*
X364398Y-117934D01*
X364330Y-117673D01*
X364267Y-117410D01*
X364211Y-117146D01*
X364162Y-116881D01*
X364119Y-116614D01*
X364083Y-116347D01*
X364053Y-116078D01*
X364030Y-115809D01*
X364013Y-115540D01*
X364003Y-115270D01*
X364000Y-115000D01*
X364000Y195000D02*
X364003Y195270D01*
X364013Y195540D01*
X364030Y195809D01*
X364053Y196078D01*
X364083Y196347D01*
X364119Y196614D01*
X364162Y196881D01*
X364211Y197146D01*
X364267Y197410D01*
X364330Y197673D01*
X364398Y197934D01*
X364474Y198193D01*
X364555Y198450D01*
X364643Y198706D01*
X364737Y198959D01*
X364837Y199210D01*
X364944Y199458D01*
X365056Y199703D01*
X365175Y199946D01*
X365299Y200185D01*
X365429Y200422D01*
X365565Y200655D01*
X365707Y200885D01*
X365854Y201111D01*
X366007Y201334D01*
X366165Y201553D01*
X366328Y201768D01*
X366497Y201978D01*
X366671Y202185D01*
X366850Y202387D01*
X367033Y202585D01*
X367222Y202778D01*
X367415Y202967D01*
X367613Y203150D01*
X367815Y203329D01*
X368022Y203503D01*
X368232Y203672D01*
X368447Y203835D01*
X368666Y203993D01*
X368889Y204146D01*
X369115Y204293D01*
X369345Y204435D01*
X369578Y204571D01*
X369815Y204701D01*
X370054Y204825D01*
X370297Y204944D01*
X370542Y205056D01*
X370790Y205163D01*
X371041Y205263D01*
X371294Y205357D01*
X371550Y205445D01*
X371807Y205526D01*
X372066Y205602D01*
X372327Y205670D01*
X372590Y205733D01*
X372854Y205789D01*
X373119Y205838D01*
X373386Y205881D01*
X373653Y205917D01*
X373922Y205947D01*
X374191Y205970D01*
X374460Y205987D01*
X374730Y205997D01*
X375000Y206000D01*
X375270Y205997D01*
X375540Y205987D01*
X375809Y205970D01*
X376078Y205947D01*
X376347Y205917D01*
X376614Y205881D01*
X376881Y205838D01*
X377146Y205789D01*
X377410Y205733D01*
X377673Y205670D01*
X377934Y205602D01*
X378193Y205526D01*
X378450Y205445D01*
X378706Y205357D01*
X378959Y205263D01*
X379210Y205163D01*
X379458Y205056D01*
X379703Y204944D01*
X379946Y204825D01*
X380185Y204701D01*
X380422Y204571D01*
X380655Y204435D01*
X380885Y204293D01*
X381111Y204146D01*
X381334Y203993D01*
X381553Y203835D01*
X381768Y203672D01*
X381978Y203503D01*
X382185Y203329D01*
X382387Y203150D01*
X382585Y202967D01*
X382778Y202778D01*
X382967Y202585D01*
X383150Y202387D01*
X383329Y202185D01*
X383503Y201978D01*
X383672Y201768D01*
X383835Y201553D01*
X383993Y201334D01*
X384146Y201111D01*
X384293Y200885D01*
X384435Y200655D01*
X384571Y200422D01*
X384701Y200185D01*
X384825Y199946D01*
X384944Y199703D01*
X385056Y199458D01*
X385163Y199210D01*
X385263Y198959D01*
X385357Y198706D01*
X385445Y198450D01*
X385526Y198193D01*
X385602Y197934D01*
X385670Y197673D01*
X385733Y197410D01*
X385789Y197146D01*
X385838Y196881D01*
X385881Y196614D01*
X385917Y196347D01*
X385947Y196078D01*
X385970Y195809D01*
X385987Y195540D01*
X385997Y195270D01*
X386000Y195000D01*
X385997Y194730D01*
X385987Y194460D01*
X385970Y194191D01*
X385947Y193922D01*
X385917Y193653D01*
X385881Y193386D01*
X385838Y193119D01*
X385789Y192854D01*
X385733Y192590D01*
X385670Y192327D01*
X385602Y192066D01*
X385526Y191807D01*
X385445Y191550D01*
X385357Y191294D01*
X385263Y191041D01*
X385163Y190790D01*
X385056Y190542D01*
X384944Y190297D01*
X384825Y190054D01*
X384701Y189815D01*
X384571Y189578D01*
X384435Y189345D01*
X384293Y189115D01*
X384146Y188889D01*
X383993Y188666D01*
X383835Y188447D01*
X383672Y188232D01*
X383503Y188022D01*
X383329Y187815D01*
X383150Y187613D01*
X382967Y187415D01*
X382778Y187222D01*
X382585Y187033D01*
X382387Y186850D01*
X382185Y186671D01*
X381978Y186497D01*
X381768Y186328D01*
X381553Y186165D01*
X381334Y186007D01*
X381111Y185854D01*
X380885Y185707D01*
X380655Y185565D01*
X380422Y185429D01*
X380185Y185299D01*
X379946Y185175D01*
X379703Y185056D01*
X379458Y184944D01*
X379210Y184837D01*
X378959Y184737D01*
X378706Y184643D01*
X378450Y184555D01*
X378193Y184474D01*
X377934Y184398D01*
X377673Y184330D01*
X377410Y184267D01*
X377146Y184211D01*
X376881Y184162D01*
X376614Y184119D01*
X376347Y184083D01*
X376078Y184053D01*
X375809Y184030D01*
X375540Y184013D01*
X375270Y184003D01*
X375000Y184000D01*
X374730Y184003D01*
X374460Y184013D01*
X374191Y184030D01*
X373922Y184053D01*
X373653Y184083D01*
X373386Y184119D01*
X373119Y184162D01*
X372854Y184211D01*
X372590Y184267D01*
X372327Y184330D01*
X372066Y184398D01*
X371807Y184474D01*
X371550Y184555D01*
X371294Y184643D01*
X371041Y184737D01*
X370790Y184837D01*
X370542Y184944D01*
X370297Y185056D01*
X370054Y185175D01*
X369815Y185299D01*
X369578Y185429D01*
X369345Y185565D01*
X369115Y185707D01*
X368889Y185854D01*
X368666Y186007D01*
X368447Y186165D01*
X368232Y186328D01*
X368022Y186497D01*
X367815Y186671D01*
X367613Y186850D01*
X367415Y187033D01*
X367222Y187222D01*
X367033Y187415D01*
X366850Y187613D01*
X366671Y187815D01*
X366497Y188022D01*
X366328Y188232D01*
X366165Y188447D01*
X366007Y188666D01*
X365854Y188889D01*
X365707Y189115D01*
X365565Y189345D01*
X365429Y189578D01*
X365299Y189815D01*
X365175Y190054D01*
X365056Y190297D01*
X364944Y190542D01*
X364837Y190790D01*
X364737Y191041D01*
X364643Y191294D01*
X364555Y191550D01*
X364474Y191807D01*
X364398Y192066D01*
X364330Y192327D01*
X364267Y192590D01*
X364211Y192854D01*
X364162Y193119D01*
X364119Y193386D01*
X364083Y193653D01*
X364053Y193922D01*
X364030Y194191D01*
X364013Y194460D01*
X364003Y194730D01*
X364000Y195000D01*
D12*
X-103651Y-643807D02*
X-108167Y-643807D01*
X-103651Y-643806D02*
X-103518Y-643808D01*
X-103386Y-643814D01*
X-103254Y-643824D01*
X-103122Y-643837D01*
X-102990Y-643855D01*
X-102860Y-643876D01*
X-102729Y-643901D01*
X-102600Y-643930D01*
X-102472Y-643963D01*
X-102344Y-643999D01*
X-102218Y-644039D01*
X-102093Y-644083D01*
X-101969Y-644131D01*
X-101847Y-644182D01*
X-101726Y-644237D01*
X-101607Y-644295D01*
X-101489Y-644357D01*
X-101374Y-644422D01*
X-101260Y-644491D01*
X-101149Y-644562D01*
X-101040Y-644638D01*
X-100933Y-644716D01*
X-100828Y-644797D01*
X-100726Y-644882D01*
X-100626Y-644969D01*
X-100529Y-645059D01*
X-100434Y-645152D01*
X-100343Y-645248D01*
X-100254Y-645346D01*
X-100168Y-645447D01*
X-100085Y-645551D01*
X-100005Y-645657D01*
X-99929Y-645765D01*
X-99855Y-645875D01*
X-99785Y-645988D01*
X-99718Y-646102D01*
X-99655Y-646219D01*
X-99595Y-646337D01*
X-99538Y-646457D01*
X-99485Y-646579D01*
X-99436Y-646702D01*
X-99390Y-646826D01*
X-99348Y-646952D01*
X-99310Y-647079D01*
X-99275Y-647207D01*
X-99244Y-647336D01*
X-99217Y-647465D01*
X-99194Y-647596D01*
X-99174Y-647727D01*
X-99159Y-647859D01*
X-99147Y-647991D01*
X-99139Y-648123D01*
X-99135Y-648256D01*
X-99135Y-648388D01*
X-99139Y-648521D01*
X-99147Y-648653D01*
X-99159Y-648785D01*
X-99174Y-648917D01*
X-99194Y-649048D01*
X-99217Y-649179D01*
X-99244Y-649308D01*
X-99275Y-649437D01*
X-99310Y-649565D01*
X-99348Y-649692D01*
X-99390Y-649818D01*
X-99436Y-649942D01*
X-99485Y-650065D01*
X-99538Y-650187D01*
X-99595Y-650307D01*
X-99655Y-650425D01*
X-99718Y-650542D01*
X-99785Y-650656D01*
X-99855Y-650769D01*
X-99929Y-650879D01*
X-100005Y-650987D01*
X-100085Y-651093D01*
X-100168Y-651197D01*
X-100254Y-651298D01*
X-100343Y-651396D01*
X-100434Y-651492D01*
X-100529Y-651585D01*
X-100626Y-651675D01*
X-100726Y-651762D01*
X-100828Y-651847D01*
X-100933Y-651928D01*
X-101040Y-652006D01*
X-101149Y-652082D01*
X-101260Y-652153D01*
X-101374Y-652222D01*
X-101489Y-652287D01*
X-101607Y-652349D01*
X-101726Y-652407D01*
X-101847Y-652462D01*
X-101969Y-652513D01*
X-102093Y-652561D01*
X-102218Y-652605D01*
X-102344Y-652645D01*
X-102472Y-652681D01*
X-102600Y-652714D01*
X-102729Y-652743D01*
X-102860Y-652768D01*
X-102990Y-652789D01*
X-103122Y-652807D01*
X-103254Y-652820D01*
X-103386Y-652830D01*
X-103518Y-652836D01*
X-103651Y-652838D01*
X-108167Y-652838D01*
X-108167Y-636582D01*
X-103651Y-636582D01*
X-103532Y-636584D01*
X-103412Y-636590D01*
X-103293Y-636600D01*
X-103175Y-636614D01*
X-103056Y-636631D01*
X-102939Y-636653D01*
X-102822Y-636678D01*
X-102707Y-636708D01*
X-102592Y-636741D01*
X-102478Y-636778D01*
X-102366Y-636818D01*
X-102255Y-636863D01*
X-102146Y-636911D01*
X-102038Y-636962D01*
X-101932Y-637017D01*
X-101828Y-637076D01*
X-101726Y-637138D01*
X-101626Y-637203D01*
X-101528Y-637272D01*
X-101432Y-637344D01*
X-101339Y-637419D01*
X-101249Y-637496D01*
X-101161Y-637577D01*
X-101076Y-637661D01*
X-100994Y-637748D01*
X-100914Y-637837D01*
X-100838Y-637929D01*
X-100764Y-638023D01*
X-100694Y-638120D01*
X-100627Y-638218D01*
X-100563Y-638319D01*
X-100503Y-638423D01*
X-100446Y-638528D01*
X-100393Y-638635D01*
X-100343Y-638743D01*
X-100297Y-638853D01*
X-100255Y-638965D01*
X-100216Y-639078D01*
X-100181Y-639192D01*
X-100150Y-639307D01*
X-100122Y-639424D01*
X-100099Y-639541D01*
X-100079Y-639658D01*
X-100063Y-639777D01*
X-100051Y-639896D01*
X-100043Y-640015D01*
X-100039Y-640134D01*
X-100039Y-640254D01*
X-100043Y-640373D01*
X-100051Y-640492D01*
X-100063Y-640611D01*
X-100079Y-640730D01*
X-100099Y-640847D01*
X-100122Y-640964D01*
X-100150Y-641081D01*
X-100181Y-641196D01*
X-100216Y-641310D01*
X-100255Y-641423D01*
X-100297Y-641535D01*
X-100343Y-641645D01*
X-100393Y-641753D01*
X-100446Y-641860D01*
X-100503Y-641965D01*
X-100563Y-642069D01*
X-100627Y-642170D01*
X-100694Y-642268D01*
X-100764Y-642365D01*
X-100838Y-642459D01*
X-100914Y-642551D01*
X-100994Y-642640D01*
X-101076Y-642727D01*
X-101161Y-642811D01*
X-101249Y-642892D01*
X-101339Y-642969D01*
X-101432Y-643044D01*
X-101528Y-643116D01*
X-101626Y-643185D01*
X-101726Y-643250D01*
X-101828Y-643312D01*
X-101932Y-643371D01*
X-102038Y-643426D01*
X-102146Y-643477D01*
X-102255Y-643525D01*
X-102366Y-643570D01*
X-102478Y-643610D01*
X-102592Y-643647D01*
X-102707Y-643680D01*
X-102822Y-643710D01*
X-102939Y-643735D01*
X-103056Y-643757D01*
X-103175Y-643774D01*
X-103293Y-643788D01*
X-103412Y-643798D01*
X-103532Y-643804D01*
X-103651Y-643806D01*
X-93406Y-645613D02*
X-93406Y-649226D01*
X-93406Y-645613D02*
X-93404Y-645494D01*
X-93398Y-645374D01*
X-93388Y-645255D01*
X-93374Y-645137D01*
X-93357Y-645018D01*
X-93335Y-644901D01*
X-93310Y-644784D01*
X-93280Y-644669D01*
X-93247Y-644554D01*
X-93210Y-644440D01*
X-93170Y-644328D01*
X-93125Y-644217D01*
X-93077Y-644108D01*
X-93026Y-644000D01*
X-92971Y-643894D01*
X-92912Y-643790D01*
X-92850Y-643688D01*
X-92785Y-643588D01*
X-92716Y-643490D01*
X-92644Y-643394D01*
X-92569Y-643301D01*
X-92492Y-643211D01*
X-92411Y-643123D01*
X-92327Y-643038D01*
X-92240Y-642956D01*
X-92151Y-642876D01*
X-92059Y-642800D01*
X-91965Y-642726D01*
X-91868Y-642656D01*
X-91770Y-642589D01*
X-91669Y-642525D01*
X-91565Y-642465D01*
X-91460Y-642408D01*
X-91353Y-642355D01*
X-91245Y-642305D01*
X-91135Y-642259D01*
X-91023Y-642217D01*
X-90910Y-642178D01*
X-90796Y-642143D01*
X-90681Y-642112D01*
X-90564Y-642084D01*
X-90447Y-642061D01*
X-90330Y-642041D01*
X-90211Y-642025D01*
X-90092Y-642013D01*
X-89973Y-642005D01*
X-89854Y-642001D01*
X-89734Y-642001D01*
X-89615Y-642005D01*
X-89496Y-642013D01*
X-89377Y-642025D01*
X-89258Y-642041D01*
X-89141Y-642061D01*
X-89024Y-642084D01*
X-88907Y-642112D01*
X-88792Y-642143D01*
X-88678Y-642178D01*
X-88565Y-642217D01*
X-88453Y-642259D01*
X-88343Y-642305D01*
X-88235Y-642355D01*
X-88128Y-642408D01*
X-88023Y-642465D01*
X-87919Y-642525D01*
X-87818Y-642589D01*
X-87720Y-642656D01*
X-87623Y-642726D01*
X-87529Y-642800D01*
X-87437Y-642876D01*
X-87348Y-642956D01*
X-87261Y-643038D01*
X-87177Y-643123D01*
X-87096Y-643211D01*
X-87019Y-643301D01*
X-86944Y-643394D01*
X-86872Y-643490D01*
X-86803Y-643588D01*
X-86738Y-643688D01*
X-86676Y-643790D01*
X-86617Y-643894D01*
X-86562Y-644000D01*
X-86511Y-644108D01*
X-86463Y-644217D01*
X-86418Y-644328D01*
X-86378Y-644440D01*
X-86341Y-644554D01*
X-86308Y-644669D01*
X-86278Y-644784D01*
X-86253Y-644901D01*
X-86231Y-645018D01*
X-86214Y-645137D01*
X-86200Y-645255D01*
X-86190Y-645374D01*
X-86184Y-645494D01*
X-86182Y-645613D01*
X-86182Y-649226D01*
X-86184Y-649345D01*
X-86190Y-649465D01*
X-86200Y-649584D01*
X-86214Y-649702D01*
X-86231Y-649821D01*
X-86253Y-649938D01*
X-86278Y-650055D01*
X-86308Y-650170D01*
X-86341Y-650285D01*
X-86378Y-650399D01*
X-86418Y-650511D01*
X-86463Y-650622D01*
X-86511Y-650731D01*
X-86562Y-650839D01*
X-86617Y-650945D01*
X-86676Y-651049D01*
X-86738Y-651151D01*
X-86803Y-651251D01*
X-86872Y-651349D01*
X-86944Y-651445D01*
X-87019Y-651538D01*
X-87096Y-651628D01*
X-87177Y-651716D01*
X-87261Y-651801D01*
X-87348Y-651883D01*
X-87437Y-651963D01*
X-87529Y-652039D01*
X-87623Y-652113D01*
X-87720Y-652183D01*
X-87818Y-652250D01*
X-87919Y-652314D01*
X-88023Y-652374D01*
X-88128Y-652431D01*
X-88235Y-652484D01*
X-88343Y-652534D01*
X-88453Y-652580D01*
X-88565Y-652622D01*
X-88678Y-652661D01*
X-88792Y-652696D01*
X-88907Y-652727D01*
X-89024Y-652755D01*
X-89141Y-652778D01*
X-89258Y-652798D01*
X-89377Y-652814D01*
X-89496Y-652826D01*
X-89615Y-652834D01*
X-89734Y-652838D01*
X-89854Y-652838D01*
X-89973Y-652834D01*
X-90092Y-652826D01*
X-90211Y-652814D01*
X-90330Y-652798D01*
X-90447Y-652778D01*
X-90564Y-652755D01*
X-90681Y-652727D01*
X-90796Y-652696D01*
X-90910Y-652661D01*
X-91023Y-652622D01*
X-91135Y-652580D01*
X-91245Y-652534D01*
X-91353Y-652484D01*
X-91460Y-652431D01*
X-91565Y-652374D01*
X-91669Y-652314D01*
X-91770Y-652250D01*
X-91868Y-652183D01*
X-91965Y-652113D01*
X-92059Y-652039D01*
X-92151Y-651963D01*
X-92240Y-651883D01*
X-92327Y-651801D01*
X-92411Y-651716D01*
X-92492Y-651628D01*
X-92569Y-651538D01*
X-92644Y-651445D01*
X-92716Y-651349D01*
X-92785Y-651251D01*
X-92850Y-651151D01*
X-92912Y-651049D01*
X-92971Y-650945D01*
X-93026Y-650839D01*
X-93077Y-650731D01*
X-93125Y-650622D01*
X-93170Y-650511D01*
X-93210Y-650399D01*
X-93247Y-650285D01*
X-93280Y-650170D01*
X-93310Y-650055D01*
X-93335Y-649938D01*
X-93357Y-649821D01*
X-93374Y-649702D01*
X-93388Y-649584D01*
X-93398Y-649465D01*
X-93404Y-649345D01*
X-93406Y-649226D01*
X-81157Y-642001D02*
X-75738Y-642001D01*
X-79350Y-636582D02*
X-79350Y-650129D01*
X-79348Y-650230D01*
X-79342Y-650331D01*
X-79333Y-650432D01*
X-79320Y-650533D01*
X-79303Y-650633D01*
X-79282Y-650732D01*
X-79258Y-650830D01*
X-79230Y-650927D01*
X-79198Y-651024D01*
X-79163Y-651119D01*
X-79124Y-651212D01*
X-79082Y-651304D01*
X-79036Y-651395D01*
X-78987Y-651484D01*
X-78935Y-651570D01*
X-78879Y-651655D01*
X-78821Y-651738D01*
X-78759Y-651818D01*
X-78694Y-651896D01*
X-78627Y-651972D01*
X-78557Y-652045D01*
X-78484Y-652115D01*
X-78408Y-652182D01*
X-78330Y-652247D01*
X-78250Y-652309D01*
X-78167Y-652367D01*
X-78082Y-652423D01*
X-77996Y-652475D01*
X-77907Y-652524D01*
X-77816Y-652570D01*
X-77724Y-652612D01*
X-77631Y-652651D01*
X-77536Y-652686D01*
X-77439Y-652718D01*
X-77342Y-652746D01*
X-77244Y-652770D01*
X-77145Y-652791D01*
X-77045Y-652808D01*
X-76944Y-652821D01*
X-76843Y-652830D01*
X-76742Y-652836D01*
X-76641Y-652838D01*
X-75738Y-652838D01*
X-71257Y-642001D02*
X-65838Y-642001D01*
X-69451Y-636582D02*
X-69451Y-650129D01*
X-69450Y-650129D02*
X-69448Y-650230D01*
X-69442Y-650331D01*
X-69433Y-650432D01*
X-69420Y-650533D01*
X-69403Y-650633D01*
X-69382Y-650732D01*
X-69358Y-650830D01*
X-69330Y-650927D01*
X-69298Y-651024D01*
X-69263Y-651119D01*
X-69224Y-651212D01*
X-69182Y-651304D01*
X-69136Y-651395D01*
X-69087Y-651484D01*
X-69035Y-651570D01*
X-68979Y-651655D01*
X-68921Y-651738D01*
X-68859Y-651818D01*
X-68794Y-651896D01*
X-68727Y-651972D01*
X-68657Y-652045D01*
X-68584Y-652115D01*
X-68508Y-652182D01*
X-68430Y-652247D01*
X-68350Y-652309D01*
X-68267Y-652367D01*
X-68182Y-652423D01*
X-68096Y-652475D01*
X-68007Y-652524D01*
X-67916Y-652570D01*
X-67824Y-652612D01*
X-67731Y-652651D01*
X-67636Y-652686D01*
X-67539Y-652718D01*
X-67442Y-652746D01*
X-67344Y-652770D01*
X-67245Y-652791D01*
X-67145Y-652808D01*
X-67044Y-652821D01*
X-66943Y-652830D01*
X-66842Y-652836D01*
X-66741Y-652838D01*
X-65838Y-652838D01*
X-60060Y-649226D02*
X-60060Y-645613D01*
X-60059Y-645613D02*
X-60057Y-645494D01*
X-60051Y-645374D01*
X-60041Y-645255D01*
X-60027Y-645137D01*
X-60010Y-645018D01*
X-59988Y-644901D01*
X-59963Y-644784D01*
X-59933Y-644669D01*
X-59900Y-644554D01*
X-59863Y-644440D01*
X-59823Y-644328D01*
X-59778Y-644217D01*
X-59730Y-644108D01*
X-59679Y-644000D01*
X-59624Y-643894D01*
X-59565Y-643790D01*
X-59503Y-643688D01*
X-59438Y-643588D01*
X-59369Y-643490D01*
X-59297Y-643394D01*
X-59222Y-643301D01*
X-59145Y-643211D01*
X-59064Y-643123D01*
X-58980Y-643038D01*
X-58893Y-642956D01*
X-58804Y-642876D01*
X-58712Y-642800D01*
X-58618Y-642726D01*
X-58521Y-642656D01*
X-58423Y-642589D01*
X-58322Y-642525D01*
X-58218Y-642465D01*
X-58113Y-642408D01*
X-58006Y-642355D01*
X-57898Y-642305D01*
X-57788Y-642259D01*
X-57676Y-642217D01*
X-57563Y-642178D01*
X-57449Y-642143D01*
X-57334Y-642112D01*
X-57217Y-642084D01*
X-57100Y-642061D01*
X-56983Y-642041D01*
X-56864Y-642025D01*
X-56745Y-642013D01*
X-56626Y-642005D01*
X-56507Y-642001D01*
X-56387Y-642001D01*
X-56268Y-642005D01*
X-56149Y-642013D01*
X-56030Y-642025D01*
X-55911Y-642041D01*
X-55794Y-642061D01*
X-55677Y-642084D01*
X-55560Y-642112D01*
X-55445Y-642143D01*
X-55331Y-642178D01*
X-55218Y-642217D01*
X-55106Y-642259D01*
X-54996Y-642305D01*
X-54888Y-642355D01*
X-54781Y-642408D01*
X-54676Y-642465D01*
X-54572Y-642525D01*
X-54471Y-642589D01*
X-54373Y-642656D01*
X-54276Y-642726D01*
X-54182Y-642800D01*
X-54090Y-642876D01*
X-54001Y-642956D01*
X-53914Y-643038D01*
X-53830Y-643123D01*
X-53749Y-643211D01*
X-53672Y-643301D01*
X-53597Y-643394D01*
X-53525Y-643490D01*
X-53456Y-643588D01*
X-53391Y-643688D01*
X-53329Y-643790D01*
X-53270Y-643894D01*
X-53215Y-644000D01*
X-53164Y-644108D01*
X-53116Y-644217D01*
X-53071Y-644328D01*
X-53031Y-644440D01*
X-52994Y-644554D01*
X-52961Y-644669D01*
X-52931Y-644784D01*
X-52906Y-644901D01*
X-52884Y-645018D01*
X-52867Y-645137D01*
X-52853Y-645255D01*
X-52843Y-645374D01*
X-52837Y-645494D01*
X-52835Y-645613D01*
X-52835Y-649226D01*
X-52837Y-649345D01*
X-52843Y-649465D01*
X-52853Y-649584D01*
X-52867Y-649702D01*
X-52884Y-649821D01*
X-52906Y-649938D01*
X-52931Y-650055D01*
X-52961Y-650170D01*
X-52994Y-650285D01*
X-53031Y-650399D01*
X-53071Y-650511D01*
X-53116Y-650622D01*
X-53164Y-650731D01*
X-53215Y-650839D01*
X-53270Y-650945D01*
X-53329Y-651049D01*
X-53391Y-651151D01*
X-53456Y-651251D01*
X-53525Y-651349D01*
X-53597Y-651445D01*
X-53672Y-651538D01*
X-53749Y-651628D01*
X-53830Y-651716D01*
X-53914Y-651801D01*
X-54001Y-651883D01*
X-54090Y-651963D01*
X-54182Y-652039D01*
X-54276Y-652113D01*
X-54373Y-652183D01*
X-54471Y-652250D01*
X-54572Y-652314D01*
X-54676Y-652374D01*
X-54781Y-652431D01*
X-54888Y-652484D01*
X-54996Y-652534D01*
X-55106Y-652580D01*
X-55218Y-652622D01*
X-55331Y-652661D01*
X-55445Y-652696D01*
X-55560Y-652727D01*
X-55677Y-652755D01*
X-55794Y-652778D01*
X-55911Y-652798D01*
X-56030Y-652814D01*
X-56149Y-652826D01*
X-56268Y-652834D01*
X-56387Y-652838D01*
X-56507Y-652838D01*
X-56626Y-652834D01*
X-56745Y-652826D01*
X-56864Y-652814D01*
X-56983Y-652798D01*
X-57100Y-652778D01*
X-57217Y-652755D01*
X-57334Y-652727D01*
X-57449Y-652696D01*
X-57563Y-652661D01*
X-57676Y-652622D01*
X-57788Y-652580D01*
X-57898Y-652534D01*
X-58006Y-652484D01*
X-58113Y-652431D01*
X-58218Y-652374D01*
X-58322Y-652314D01*
X-58423Y-652250D01*
X-58521Y-652183D01*
X-58618Y-652113D01*
X-58712Y-652039D01*
X-58804Y-651963D01*
X-58893Y-651883D01*
X-58980Y-651801D01*
X-59064Y-651716D01*
X-59145Y-651628D01*
X-59222Y-651538D01*
X-59297Y-651445D01*
X-59369Y-651349D01*
X-59438Y-651251D01*
X-59503Y-651151D01*
X-59565Y-651049D01*
X-59624Y-650945D01*
X-59679Y-650839D01*
X-59730Y-650731D01*
X-59778Y-650622D01*
X-59823Y-650511D01*
X-59863Y-650399D01*
X-59900Y-650285D01*
X-59933Y-650170D01*
X-59963Y-650055D01*
X-59988Y-649938D01*
X-60010Y-649821D01*
X-60027Y-649702D01*
X-60041Y-649584D01*
X-60051Y-649465D01*
X-60057Y-649345D01*
X-60059Y-649226D01*
X-45714Y-652838D02*
X-45714Y-642001D01*
X-37586Y-642001D01*
X-37485Y-642003D01*
X-37384Y-642009D01*
X-37283Y-642018D01*
X-37182Y-642031D01*
X-37082Y-642048D01*
X-36983Y-642069D01*
X-36885Y-642093D01*
X-36788Y-642121D01*
X-36691Y-642153D01*
X-36596Y-642188D01*
X-36503Y-642227D01*
X-36411Y-642269D01*
X-36320Y-642315D01*
X-36232Y-642364D01*
X-36145Y-642416D01*
X-36060Y-642472D01*
X-35977Y-642530D01*
X-35897Y-642592D01*
X-35819Y-642657D01*
X-35743Y-642724D01*
X-35670Y-642794D01*
X-35600Y-642867D01*
X-35533Y-642943D01*
X-35468Y-643021D01*
X-35406Y-643101D01*
X-35348Y-643184D01*
X-35292Y-643269D01*
X-35240Y-643356D01*
X-35191Y-643444D01*
X-35145Y-643535D01*
X-35103Y-643627D01*
X-35064Y-643720D01*
X-35029Y-643815D01*
X-34997Y-643912D01*
X-34969Y-644009D01*
X-34945Y-644107D01*
X-34924Y-644206D01*
X-34907Y-644306D01*
X-34894Y-644407D01*
X-34885Y-644508D01*
X-34879Y-644609D01*
X-34877Y-644710D01*
X-34876Y-644710D02*
X-34876Y-652838D01*
X-40295Y-652838D02*
X-40295Y-642001D01*
X-14382Y-652838D02*
X-14264Y-652836D01*
X-14146Y-652830D01*
X-14028Y-652821D01*
X-13911Y-652807D01*
X-13794Y-652790D01*
X-13677Y-652769D01*
X-13562Y-652744D01*
X-13447Y-652715D01*
X-13333Y-652682D01*
X-13221Y-652646D01*
X-13110Y-652606D01*
X-13000Y-652563D01*
X-12891Y-652516D01*
X-12784Y-652466D01*
X-12679Y-652411D01*
X-12576Y-652354D01*
X-12475Y-652293D01*
X-12375Y-652229D01*
X-12278Y-652162D01*
X-12183Y-652092D01*
X-12091Y-652018D01*
X-12000Y-651942D01*
X-11913Y-651862D01*
X-11828Y-651780D01*
X-11746Y-651695D01*
X-11666Y-651608D01*
X-11590Y-651517D01*
X-11516Y-651425D01*
X-11446Y-651330D01*
X-11379Y-651233D01*
X-11315Y-651133D01*
X-11254Y-651032D01*
X-11197Y-650929D01*
X-11142Y-650824D01*
X-11092Y-650717D01*
X-11045Y-650608D01*
X-11002Y-650498D01*
X-10962Y-650387D01*
X-10926Y-650275D01*
X-10893Y-650161D01*
X-10864Y-650046D01*
X-10839Y-649931D01*
X-10818Y-649814D01*
X-10801Y-649697D01*
X-10787Y-649580D01*
X-10778Y-649462D01*
X-10772Y-649344D01*
X-10770Y-649226D01*
X-14382Y-652838D02*
X-14565Y-652836D01*
X-14747Y-652829D01*
X-14929Y-652818D01*
X-15111Y-652803D01*
X-15293Y-652783D01*
X-15474Y-652759D01*
X-15654Y-652731D01*
X-15834Y-652699D01*
X-16013Y-652662D01*
X-16190Y-652621D01*
X-16367Y-652575D01*
X-16543Y-652526D01*
X-16718Y-652472D01*
X-16891Y-652414D01*
X-17062Y-652352D01*
X-17233Y-652286D01*
X-17401Y-652215D01*
X-17568Y-652141D01*
X-17733Y-652063D01*
X-17896Y-651981D01*
X-18057Y-651895D01*
X-18216Y-651805D01*
X-18373Y-651711D01*
X-18527Y-651614D01*
X-18679Y-651513D01*
X-18829Y-651408D01*
X-18976Y-651300D01*
X-19120Y-651189D01*
X-19262Y-651074D01*
X-19401Y-650955D01*
X-19537Y-650833D01*
X-19670Y-650708D01*
X-19800Y-650580D01*
X-19350Y-640194D02*
X-19348Y-640076D01*
X-19342Y-639958D01*
X-19333Y-639840D01*
X-19319Y-639722D01*
X-19302Y-639605D01*
X-19281Y-639489D01*
X-19256Y-639374D01*
X-19227Y-639259D01*
X-19194Y-639145D01*
X-19158Y-639033D01*
X-19118Y-638921D01*
X-19075Y-638811D01*
X-19028Y-638703D01*
X-18977Y-638596D01*
X-18923Y-638491D01*
X-18866Y-638388D01*
X-18805Y-638286D01*
X-18741Y-638187D01*
X-18674Y-638090D01*
X-18603Y-637995D01*
X-18530Y-637902D01*
X-18453Y-637812D01*
X-18374Y-637724D01*
X-18292Y-637639D01*
X-18207Y-637557D01*
X-18119Y-637478D01*
X-18029Y-637401D01*
X-17936Y-637328D01*
X-17842Y-637257D01*
X-17744Y-637190D01*
X-17645Y-637126D01*
X-17544Y-637065D01*
X-17440Y-637008D01*
X-17335Y-636954D01*
X-17228Y-636903D01*
X-17120Y-636856D01*
X-17010Y-636813D01*
X-16898Y-636773D01*
X-16786Y-636737D01*
X-16672Y-636704D01*
X-16557Y-636675D01*
X-16442Y-636650D01*
X-16326Y-636629D01*
X-16209Y-636612D01*
X-16091Y-636598D01*
X-15973Y-636589D01*
X-15855Y-636583D01*
X-15737Y-636581D01*
X-15737Y-636582D02*
X-15576Y-636584D01*
X-15414Y-636590D01*
X-15253Y-636599D01*
X-15092Y-636613D01*
X-14932Y-636630D01*
X-14772Y-636651D01*
X-14612Y-636676D01*
X-14453Y-636705D01*
X-14295Y-636737D01*
X-14138Y-636773D01*
X-13982Y-636813D01*
X-13826Y-636857D01*
X-13672Y-636905D01*
X-13519Y-636956D01*
X-13367Y-637010D01*
X-13216Y-637069D01*
X-13067Y-637130D01*
X-12920Y-637196D01*
X-12774Y-637265D01*
X-12629Y-637337D01*
X-12487Y-637413D01*
X-12346Y-637492D01*
X-12207Y-637574D01*
X-12071Y-637660D01*
X-11936Y-637749D01*
X-11803Y-637841D01*
X-11673Y-637937D01*
X-17543Y-643355D02*
X-17644Y-643293D01*
X-17744Y-643228D01*
X-17841Y-643159D01*
X-17936Y-643087D01*
X-18029Y-643013D01*
X-18119Y-642935D01*
X-18207Y-642854D01*
X-18292Y-642771D01*
X-18374Y-642685D01*
X-18453Y-642596D01*
X-18530Y-642505D01*
X-18603Y-642411D01*
X-18674Y-642315D01*
X-18741Y-642217D01*
X-18805Y-642117D01*
X-18866Y-642014D01*
X-18923Y-641910D01*
X-18977Y-641804D01*
X-19027Y-641696D01*
X-19074Y-641587D01*
X-19118Y-641476D01*
X-19158Y-641364D01*
X-19194Y-641250D01*
X-19226Y-641136D01*
X-19255Y-641020D01*
X-19280Y-640904D01*
X-19301Y-640787D01*
X-19318Y-640669D01*
X-19332Y-640551D01*
X-19341Y-640432D01*
X-19347Y-640313D01*
X-19349Y-640194D01*
X-12575Y-646065D02*
X-12474Y-646127D01*
X-12374Y-646192D01*
X-12277Y-646261D01*
X-12182Y-646333D01*
X-12089Y-646407D01*
X-11999Y-646485D01*
X-11911Y-646566D01*
X-11826Y-646649D01*
X-11744Y-646735D01*
X-11665Y-646824D01*
X-11588Y-646915D01*
X-11515Y-647009D01*
X-11444Y-647105D01*
X-11377Y-647203D01*
X-11313Y-647303D01*
X-11252Y-647406D01*
X-11195Y-647510D01*
X-11141Y-647616D01*
X-11091Y-647724D01*
X-11044Y-647833D01*
X-11000Y-647944D01*
X-10960Y-648056D01*
X-10924Y-648170D01*
X-10892Y-648284D01*
X-10863Y-648400D01*
X-10838Y-648516D01*
X-10817Y-648633D01*
X-10800Y-648751D01*
X-10786Y-648869D01*
X-10777Y-648988D01*
X-10771Y-649107D01*
X-10769Y-649226D01*
X-12576Y-646065D02*
X-17543Y-643355D01*
X-4864Y-642001D02*
X-4864Y-652838D01*
X-5316Y-637485D02*
X-5316Y-636582D01*
X-4413Y-636582D01*
X-4413Y-637485D01*
X-5316Y-637485D01*
X1660Y-636582D02*
X1660Y-650129D01*
X1662Y-650230D01*
X1668Y-650331D01*
X1677Y-650432D01*
X1690Y-650533D01*
X1707Y-650633D01*
X1728Y-650732D01*
X1752Y-650830D01*
X1780Y-650927D01*
X1812Y-651024D01*
X1847Y-651119D01*
X1886Y-651212D01*
X1928Y-651304D01*
X1974Y-651395D01*
X2023Y-651484D01*
X2075Y-651570D01*
X2131Y-651655D01*
X2189Y-651738D01*
X2251Y-651818D01*
X2316Y-651896D01*
X2383Y-651972D01*
X2453Y-652045D01*
X2526Y-652115D01*
X2602Y-652182D01*
X2680Y-652247D01*
X2760Y-652309D01*
X2843Y-652367D01*
X2928Y-652423D01*
X3015Y-652475D01*
X3103Y-652524D01*
X3194Y-652570D01*
X3286Y-652612D01*
X3379Y-652651D01*
X3474Y-652686D01*
X3571Y-652718D01*
X3668Y-652746D01*
X3766Y-652770D01*
X3865Y-652791D01*
X3965Y-652808D01*
X4066Y-652821D01*
X4167Y-652830D01*
X4268Y-652836D01*
X4369Y-652838D01*
X10449Y-652838D02*
X10449Y-636582D01*
X17674Y-642001D02*
X10449Y-647419D01*
X13610Y-645162D02*
X17674Y-652838D01*
X24661Y-646516D02*
X29177Y-648322D01*
X24661Y-646516D02*
X24573Y-646479D01*
X24487Y-646438D01*
X24402Y-646394D01*
X24319Y-646346D01*
X24239Y-646295D01*
X24160Y-646241D01*
X24084Y-646183D01*
X24010Y-646123D01*
X23938Y-646059D01*
X23870Y-645993D01*
X23804Y-645923D01*
X23741Y-645852D01*
X23680Y-645777D01*
X23623Y-645701D01*
X23570Y-645622D01*
X23519Y-645541D01*
X23472Y-645458D01*
X23428Y-645373D01*
X23388Y-645286D01*
X23351Y-645198D01*
X23318Y-645108D01*
X23288Y-645017D01*
X23263Y-644925D01*
X23241Y-644832D01*
X23223Y-644738D01*
X23208Y-644644D01*
X23198Y-644549D01*
X23192Y-644453D01*
X23189Y-644358D01*
X23190Y-644262D01*
X23196Y-644167D01*
X23205Y-644071D01*
X23218Y-643977D01*
X23234Y-643883D01*
X23255Y-643789D01*
X23280Y-643697D01*
X23308Y-643606D01*
X23340Y-643516D01*
X23375Y-643427D01*
X23414Y-643340D01*
X23457Y-643254D01*
X23503Y-643170D01*
X23553Y-643089D01*
X23605Y-643009D01*
X23661Y-642931D01*
X23721Y-642856D01*
X23783Y-642784D01*
X23848Y-642714D01*
X23916Y-642646D01*
X23986Y-642582D01*
X24059Y-642520D01*
X24135Y-642462D01*
X24213Y-642406D01*
X24293Y-642354D01*
X24375Y-642305D01*
X24459Y-642260D01*
X24545Y-642218D01*
X24632Y-642179D01*
X24721Y-642144D01*
X24812Y-642113D01*
X24903Y-642086D01*
X24996Y-642062D01*
X25089Y-642042D01*
X25183Y-642026D01*
X25278Y-642014D01*
X25373Y-642005D01*
X25469Y-642001D01*
X25564Y-642000D01*
X25811Y-642007D01*
X26057Y-642019D01*
X26303Y-642037D01*
X26549Y-642062D01*
X26793Y-642092D01*
X27037Y-642128D01*
X27280Y-642170D01*
X27522Y-642217D01*
X27763Y-642271D01*
X28002Y-642330D01*
X28240Y-642395D01*
X28477Y-642466D01*
X28711Y-642542D01*
X28944Y-642624D01*
X29174Y-642712D01*
X29402Y-642805D01*
X29629Y-642903D01*
X29177Y-648323D02*
X29265Y-648360D01*
X29351Y-648401D01*
X29436Y-648445D01*
X29519Y-648493D01*
X29599Y-648544D01*
X29678Y-648598D01*
X29754Y-648656D01*
X29828Y-648716D01*
X29900Y-648780D01*
X29968Y-648846D01*
X30034Y-648916D01*
X30097Y-648987D01*
X30158Y-649062D01*
X30215Y-649138D01*
X30268Y-649217D01*
X30319Y-649298D01*
X30366Y-649381D01*
X30410Y-649466D01*
X30450Y-649553D01*
X30487Y-649641D01*
X30520Y-649731D01*
X30550Y-649822D01*
X30575Y-649914D01*
X30597Y-650007D01*
X30615Y-650101D01*
X30630Y-650195D01*
X30640Y-650290D01*
X30646Y-650386D01*
X30649Y-650481D01*
X30648Y-650577D01*
X30642Y-650672D01*
X30633Y-650768D01*
X30620Y-650862D01*
X30604Y-650956D01*
X30583Y-651050D01*
X30558Y-651142D01*
X30530Y-651233D01*
X30498Y-651323D01*
X30463Y-651412D01*
X30424Y-651499D01*
X30381Y-651585D01*
X30335Y-651669D01*
X30285Y-651750D01*
X30233Y-651830D01*
X30177Y-651908D01*
X30117Y-651983D01*
X30055Y-652055D01*
X29990Y-652125D01*
X29922Y-652193D01*
X29852Y-652257D01*
X29779Y-652319D01*
X29703Y-652377D01*
X29625Y-652433D01*
X29545Y-652485D01*
X29463Y-652534D01*
X29379Y-652579D01*
X29293Y-652621D01*
X29206Y-652660D01*
X29117Y-652695D01*
X29026Y-652726D01*
X28935Y-652753D01*
X28842Y-652777D01*
X28749Y-652797D01*
X28655Y-652813D01*
X28560Y-652825D01*
X28465Y-652834D01*
X28369Y-652838D01*
X28274Y-652839D01*
X28274Y-652838D02*
X27912Y-652829D01*
X27550Y-652811D01*
X27189Y-652784D01*
X26829Y-652749D01*
X26469Y-652706D01*
X26110Y-652654D01*
X25753Y-652593D01*
X25398Y-652524D01*
X25044Y-652447D01*
X24692Y-652361D01*
X24342Y-652267D01*
X23994Y-652164D01*
X23649Y-652054D01*
X23307Y-651935D01*
X39581Y-652838D02*
X43193Y-652838D01*
X39581Y-652838D02*
X39480Y-652836D01*
X39379Y-652830D01*
X39278Y-652821D01*
X39177Y-652808D01*
X39077Y-652791D01*
X38978Y-652770D01*
X38880Y-652746D01*
X38783Y-652718D01*
X38686Y-652686D01*
X38591Y-652651D01*
X38498Y-652612D01*
X38406Y-652570D01*
X38315Y-652524D01*
X38227Y-652475D01*
X38140Y-652423D01*
X38055Y-652367D01*
X37972Y-652309D01*
X37892Y-652247D01*
X37814Y-652182D01*
X37738Y-652115D01*
X37665Y-652045D01*
X37595Y-651972D01*
X37528Y-651896D01*
X37463Y-651818D01*
X37401Y-651738D01*
X37343Y-651655D01*
X37287Y-651570D01*
X37235Y-651484D01*
X37186Y-651395D01*
X37140Y-651304D01*
X37098Y-651212D01*
X37059Y-651119D01*
X37024Y-651024D01*
X36992Y-650927D01*
X36964Y-650830D01*
X36940Y-650732D01*
X36919Y-650633D01*
X36902Y-650533D01*
X36889Y-650432D01*
X36880Y-650331D01*
X36874Y-650230D01*
X36872Y-650129D01*
X36871Y-650129D02*
X36871Y-644710D01*
X36872Y-644710D02*
X36874Y-644609D01*
X36880Y-644508D01*
X36889Y-644407D01*
X36902Y-644306D01*
X36919Y-644206D01*
X36940Y-644107D01*
X36964Y-644009D01*
X36992Y-643912D01*
X37024Y-643815D01*
X37059Y-643720D01*
X37098Y-643627D01*
X37140Y-643535D01*
X37186Y-643444D01*
X37235Y-643356D01*
X37287Y-643269D01*
X37343Y-643184D01*
X37401Y-643101D01*
X37463Y-643021D01*
X37528Y-642943D01*
X37595Y-642867D01*
X37665Y-642794D01*
X37738Y-642724D01*
X37814Y-642657D01*
X37892Y-642592D01*
X37972Y-642530D01*
X38055Y-642472D01*
X38140Y-642416D01*
X38227Y-642364D01*
X38315Y-642315D01*
X38406Y-642269D01*
X38498Y-642227D01*
X38591Y-642188D01*
X38686Y-642153D01*
X38783Y-642121D01*
X38880Y-642093D01*
X38978Y-642069D01*
X39077Y-642048D01*
X39177Y-642031D01*
X39278Y-642018D01*
X39379Y-642009D01*
X39480Y-642003D01*
X39581Y-642001D01*
X43193Y-642001D01*
X49444Y-642001D02*
X49444Y-652838D01*
X49444Y-642001D02*
X54862Y-642001D01*
X54862Y-643807D01*
X62489Y-652838D02*
X67004Y-652838D01*
X62489Y-652838D02*
X62388Y-652836D01*
X62287Y-652830D01*
X62186Y-652821D01*
X62085Y-652808D01*
X61985Y-652791D01*
X61886Y-652770D01*
X61788Y-652746D01*
X61691Y-652718D01*
X61594Y-652686D01*
X61499Y-652651D01*
X61406Y-652612D01*
X61314Y-652570D01*
X61223Y-652524D01*
X61135Y-652475D01*
X61048Y-652423D01*
X60963Y-652367D01*
X60880Y-652309D01*
X60800Y-652247D01*
X60722Y-652182D01*
X60646Y-652115D01*
X60573Y-652045D01*
X60503Y-651972D01*
X60436Y-651896D01*
X60371Y-651818D01*
X60309Y-651738D01*
X60251Y-651655D01*
X60195Y-651570D01*
X60143Y-651484D01*
X60094Y-651395D01*
X60048Y-651304D01*
X60006Y-651212D01*
X59967Y-651119D01*
X59932Y-651024D01*
X59900Y-650927D01*
X59872Y-650830D01*
X59848Y-650732D01*
X59827Y-650633D01*
X59810Y-650533D01*
X59797Y-650432D01*
X59788Y-650331D01*
X59782Y-650230D01*
X59780Y-650129D01*
X59780Y-645613D01*
X59782Y-645494D01*
X59788Y-645374D01*
X59798Y-645255D01*
X59812Y-645137D01*
X59829Y-645018D01*
X59851Y-644901D01*
X59876Y-644784D01*
X59906Y-644669D01*
X59939Y-644554D01*
X59976Y-644440D01*
X60016Y-644328D01*
X60061Y-644217D01*
X60109Y-644108D01*
X60160Y-644000D01*
X60215Y-643894D01*
X60274Y-643790D01*
X60336Y-643688D01*
X60401Y-643588D01*
X60470Y-643490D01*
X60542Y-643394D01*
X60617Y-643301D01*
X60694Y-643211D01*
X60775Y-643123D01*
X60859Y-643038D01*
X60946Y-642956D01*
X61035Y-642876D01*
X61127Y-642800D01*
X61221Y-642726D01*
X61318Y-642656D01*
X61416Y-642589D01*
X61517Y-642525D01*
X61621Y-642465D01*
X61726Y-642408D01*
X61833Y-642355D01*
X61941Y-642305D01*
X62051Y-642259D01*
X62163Y-642217D01*
X62276Y-642178D01*
X62390Y-642143D01*
X62505Y-642112D01*
X62622Y-642084D01*
X62739Y-642061D01*
X62856Y-642041D01*
X62975Y-642025D01*
X63094Y-642013D01*
X63213Y-642005D01*
X63332Y-642001D01*
X63452Y-642001D01*
X63571Y-642005D01*
X63690Y-642013D01*
X63809Y-642025D01*
X63928Y-642041D01*
X64045Y-642061D01*
X64162Y-642084D01*
X64279Y-642112D01*
X64394Y-642143D01*
X64508Y-642178D01*
X64621Y-642217D01*
X64733Y-642259D01*
X64843Y-642305D01*
X64951Y-642355D01*
X65058Y-642408D01*
X65163Y-642465D01*
X65267Y-642525D01*
X65368Y-642589D01*
X65466Y-642656D01*
X65563Y-642726D01*
X65657Y-642800D01*
X65749Y-642876D01*
X65838Y-642956D01*
X65925Y-643038D01*
X66009Y-643123D01*
X66090Y-643211D01*
X66167Y-643301D01*
X66242Y-643394D01*
X66314Y-643490D01*
X66383Y-643588D01*
X66448Y-643688D01*
X66510Y-643790D01*
X66569Y-643894D01*
X66624Y-644000D01*
X66675Y-644108D01*
X66723Y-644217D01*
X66768Y-644328D01*
X66808Y-644440D01*
X66845Y-644554D01*
X66878Y-644669D01*
X66908Y-644784D01*
X66933Y-644901D01*
X66955Y-645018D01*
X66972Y-645137D01*
X66986Y-645255D01*
X66996Y-645374D01*
X67002Y-645494D01*
X67004Y-645613D01*
X67004Y-647419D01*
X59780Y-647419D01*
X76036Y-652838D02*
X80552Y-652838D01*
X76036Y-652838D02*
X75935Y-652836D01*
X75834Y-652830D01*
X75733Y-652821D01*
X75632Y-652808D01*
X75532Y-652791D01*
X75433Y-652770D01*
X75335Y-652746D01*
X75238Y-652718D01*
X75141Y-652686D01*
X75046Y-652651D01*
X74953Y-652612D01*
X74861Y-652570D01*
X74770Y-652524D01*
X74682Y-652475D01*
X74595Y-652423D01*
X74510Y-652367D01*
X74427Y-652309D01*
X74347Y-652247D01*
X74269Y-652182D01*
X74193Y-652115D01*
X74120Y-652045D01*
X74050Y-651972D01*
X73983Y-651896D01*
X73918Y-651818D01*
X73856Y-651738D01*
X73798Y-651655D01*
X73742Y-651570D01*
X73690Y-651484D01*
X73641Y-651395D01*
X73595Y-651304D01*
X73553Y-651212D01*
X73514Y-651119D01*
X73479Y-651024D01*
X73447Y-650927D01*
X73419Y-650830D01*
X73395Y-650732D01*
X73374Y-650633D01*
X73357Y-650533D01*
X73344Y-650432D01*
X73335Y-650331D01*
X73329Y-650230D01*
X73327Y-650129D01*
X73327Y-645613D01*
X73329Y-645494D01*
X73335Y-645374D01*
X73345Y-645255D01*
X73359Y-645137D01*
X73376Y-645018D01*
X73398Y-644901D01*
X73423Y-644784D01*
X73453Y-644669D01*
X73486Y-644554D01*
X73523Y-644440D01*
X73563Y-644328D01*
X73608Y-644217D01*
X73656Y-644108D01*
X73707Y-644000D01*
X73762Y-643894D01*
X73821Y-643790D01*
X73883Y-643688D01*
X73948Y-643588D01*
X74017Y-643490D01*
X74089Y-643394D01*
X74164Y-643301D01*
X74241Y-643211D01*
X74322Y-643123D01*
X74406Y-643038D01*
X74493Y-642956D01*
X74582Y-642876D01*
X74674Y-642800D01*
X74768Y-642726D01*
X74865Y-642656D01*
X74963Y-642589D01*
X75064Y-642525D01*
X75168Y-642465D01*
X75273Y-642408D01*
X75380Y-642355D01*
X75488Y-642305D01*
X75598Y-642259D01*
X75710Y-642217D01*
X75823Y-642178D01*
X75937Y-642143D01*
X76052Y-642112D01*
X76169Y-642084D01*
X76286Y-642061D01*
X76403Y-642041D01*
X76522Y-642025D01*
X76641Y-642013D01*
X76760Y-642005D01*
X76879Y-642001D01*
X76999Y-642001D01*
X77118Y-642005D01*
X77237Y-642013D01*
X77356Y-642025D01*
X77475Y-642041D01*
X77592Y-642061D01*
X77709Y-642084D01*
X77826Y-642112D01*
X77941Y-642143D01*
X78055Y-642178D01*
X78168Y-642217D01*
X78280Y-642259D01*
X78390Y-642305D01*
X78498Y-642355D01*
X78605Y-642408D01*
X78710Y-642465D01*
X78814Y-642525D01*
X78915Y-642589D01*
X79013Y-642656D01*
X79110Y-642726D01*
X79204Y-642800D01*
X79296Y-642876D01*
X79385Y-642956D01*
X79472Y-643038D01*
X79556Y-643123D01*
X79637Y-643211D01*
X79714Y-643301D01*
X79789Y-643394D01*
X79861Y-643490D01*
X79930Y-643588D01*
X79995Y-643688D01*
X80057Y-643790D01*
X80116Y-643894D01*
X80171Y-644000D01*
X80222Y-644108D01*
X80270Y-644217D01*
X80315Y-644328D01*
X80355Y-644440D01*
X80392Y-644554D01*
X80425Y-644669D01*
X80455Y-644784D01*
X80480Y-644901D01*
X80502Y-645018D01*
X80519Y-645137D01*
X80533Y-645255D01*
X80543Y-645374D01*
X80549Y-645494D01*
X80551Y-645613D01*
X80552Y-645613D02*
X80552Y-647419D01*
X73327Y-647419D01*
X89583Y-652838D02*
X94099Y-652838D01*
X89583Y-652838D02*
X89482Y-652836D01*
X89381Y-652830D01*
X89280Y-652821D01*
X89179Y-652808D01*
X89079Y-652791D01*
X88980Y-652770D01*
X88882Y-652746D01*
X88785Y-652718D01*
X88688Y-652686D01*
X88593Y-652651D01*
X88500Y-652612D01*
X88408Y-652570D01*
X88317Y-652524D01*
X88229Y-652475D01*
X88142Y-652423D01*
X88057Y-652367D01*
X87974Y-652309D01*
X87894Y-652247D01*
X87816Y-652182D01*
X87740Y-652115D01*
X87667Y-652045D01*
X87597Y-651972D01*
X87530Y-651896D01*
X87465Y-651818D01*
X87403Y-651738D01*
X87345Y-651655D01*
X87289Y-651570D01*
X87237Y-651484D01*
X87188Y-651395D01*
X87142Y-651304D01*
X87100Y-651212D01*
X87061Y-651119D01*
X87026Y-651024D01*
X86994Y-650927D01*
X86966Y-650830D01*
X86942Y-650732D01*
X86921Y-650633D01*
X86904Y-650533D01*
X86891Y-650432D01*
X86882Y-650331D01*
X86876Y-650230D01*
X86874Y-650129D01*
X86874Y-645613D01*
X86876Y-645494D01*
X86882Y-645374D01*
X86892Y-645255D01*
X86906Y-645137D01*
X86923Y-645018D01*
X86945Y-644901D01*
X86970Y-644784D01*
X87000Y-644669D01*
X87033Y-644554D01*
X87070Y-644440D01*
X87110Y-644328D01*
X87155Y-644217D01*
X87203Y-644108D01*
X87254Y-644000D01*
X87309Y-643894D01*
X87368Y-643790D01*
X87430Y-643688D01*
X87495Y-643588D01*
X87564Y-643490D01*
X87636Y-643394D01*
X87711Y-643301D01*
X87788Y-643211D01*
X87869Y-643123D01*
X87953Y-643038D01*
X88040Y-642956D01*
X88129Y-642876D01*
X88221Y-642800D01*
X88315Y-642726D01*
X88412Y-642656D01*
X88510Y-642589D01*
X88611Y-642525D01*
X88715Y-642465D01*
X88820Y-642408D01*
X88927Y-642355D01*
X89035Y-642305D01*
X89145Y-642259D01*
X89257Y-642217D01*
X89370Y-642178D01*
X89484Y-642143D01*
X89599Y-642112D01*
X89716Y-642084D01*
X89833Y-642061D01*
X89950Y-642041D01*
X90069Y-642025D01*
X90188Y-642013D01*
X90307Y-642005D01*
X90426Y-642001D01*
X90546Y-642001D01*
X90665Y-642005D01*
X90784Y-642013D01*
X90903Y-642025D01*
X91022Y-642041D01*
X91139Y-642061D01*
X91256Y-642084D01*
X91373Y-642112D01*
X91488Y-642143D01*
X91602Y-642178D01*
X91715Y-642217D01*
X91827Y-642259D01*
X91937Y-642305D01*
X92045Y-642355D01*
X92152Y-642408D01*
X92257Y-642465D01*
X92361Y-642525D01*
X92462Y-642589D01*
X92560Y-642656D01*
X92657Y-642726D01*
X92751Y-642800D01*
X92843Y-642876D01*
X92932Y-642956D01*
X93019Y-643038D01*
X93103Y-643123D01*
X93184Y-643211D01*
X93261Y-643301D01*
X93336Y-643394D01*
X93408Y-643490D01*
X93477Y-643588D01*
X93542Y-643688D01*
X93604Y-643790D01*
X93663Y-643894D01*
X93718Y-644000D01*
X93769Y-644108D01*
X93817Y-644217D01*
X93862Y-644328D01*
X93902Y-644440D01*
X93939Y-644554D01*
X93972Y-644669D01*
X94002Y-644784D01*
X94027Y-644901D01*
X94049Y-645018D01*
X94066Y-645137D01*
X94080Y-645255D01*
X94090Y-645374D01*
X94096Y-645494D01*
X94098Y-645613D01*
X94099Y-645613D02*
X94099Y-647419D01*
X86874Y-647419D01*
X100942Y-652838D02*
X100942Y-642001D01*
X105457Y-642001D01*
X105561Y-642003D01*
X105664Y-642009D01*
X105768Y-642019D01*
X105871Y-642033D01*
X105973Y-642051D01*
X106074Y-642072D01*
X106175Y-642098D01*
X106274Y-642127D01*
X106373Y-642160D01*
X106470Y-642197D01*
X106565Y-642238D01*
X106659Y-642282D01*
X106751Y-642330D01*
X106841Y-642381D01*
X106930Y-642436D01*
X107016Y-642494D01*
X107099Y-642556D01*
X107181Y-642620D01*
X107259Y-642688D01*
X107335Y-642758D01*
X107409Y-642831D01*
X107479Y-642908D01*
X107547Y-642986D01*
X107611Y-643068D01*
X107673Y-643151D01*
X107731Y-643237D01*
X107786Y-643326D01*
X107837Y-643416D01*
X107885Y-643508D01*
X107929Y-643602D01*
X107970Y-643697D01*
X108007Y-643794D01*
X108040Y-643893D01*
X108069Y-643992D01*
X108095Y-644093D01*
X108116Y-644194D01*
X108134Y-644296D01*
X108148Y-644399D01*
X108158Y-644503D01*
X108164Y-644606D01*
X108166Y-644710D01*
X108167Y-644710D02*
X108167Y-652838D01*
M02*
