M48
;GenerationSoftware,Autodesk,EAGLE,9.3.0*%
;CreationDate,2021-02-26T01:33:47Z*%
FMAT,2
ICI,OFF
METRIC,TZ,000.000
T9C0.200
T8C0.350
T7C0.381
T6C0.500
T5C0.900
T4C1.100
T3C1.261
T2C1.300
T1C2.200
%
G90
M71
T1
X-107000Y-27000
X-107000Y27000
X5700Y-19500
X-5700Y-19500
X37500Y-5500
X-37500Y25500
X-37500Y-5500
X53000Y-27000
X53000Y27000
X107000Y-27000
X107000Y-27000
X107000Y27000
X-53000Y27000
X-53000Y-27000
X-107000Y27000
X37500Y25500
T2
X-2500Y-27000
X2500Y-27000
X-2500Y-12500
X2500Y-12500
X0Y-27000
T3
X-17160Y-10000
X-19700Y-10000
X-12080Y-10000
X-9540Y-10000
X-7000Y-10000
X-22240Y-10000
X-24780Y-10000
X-27320Y-10000
X-29860Y-10000
X-32400Y-10000
X-34940Y-10000
X-14620Y-10000
T4
X-14770Y19000
X-12230Y19000
T5
X-38000Y19000
X-38000Y13000
X-38000Y5000
X-38000Y7000
X-38000Y9000
X-38000Y11000
X-38000Y15000
X-38000Y17000
X-38000Y-1000
X-38000Y1000
X-38000Y3000
X-38000Y21000
X38000Y-1000
X38000Y17000
X38000Y19000
X38000Y21000
X38000Y3000
X38000Y5000
X38000Y9000
X38000Y11000
X38000Y13000
X38000Y15000
X38000Y7000
X38000Y1000
T6
X-21000Y12500
X-20100Y12500
T7
X-30345Y7450
X-15000Y-2250
X-31000Y-2984
X-38445Y-16500
X-750Y-4750
X-31294Y-22275
X28800Y24880
X-33556Y-19000
X-38445Y-19000
X-25655Y7450
X-23000Y13855
T8
X0Y0
X0Y-1000
T9
X-28796Y-16275
X-631Y4250
X114Y3750
X-631Y750
X4115Y11000
X4984Y15250
X17516Y17250
X17016Y15750
X17016Y13250
X12750Y8484
X7750Y8484
X17885Y8500
X22500Y20385
X23791Y20925
X33209Y15725
X34146Y-16500
X7750Y15250
X-750Y15500
X-19000Y-5500
X-14250Y-1500
X4000Y13750
X15500Y-23500
X30000Y-15500
X16000Y10250
X8750Y17500
X7750Y12500
X-2500Y12750
X750Y13750
X-3500Y18250
X31250Y13250
X26500Y8000
X33250Y16500
X32250Y7500
X8446Y3562
X8446Y-112
X33500Y8385
X33250Y14500
X32250Y10000
X30000Y-23000
X31250Y5500
X26000Y17250
X-3250Y2500
X6750Y-3000
X31000Y-21250
X-6750Y2750
X-15750Y2500
X34250Y-18000
X28750Y6000
X21250Y7750
X29500Y7500
X-1000Y8250
X29500Y10000
X29500Y8750
X-6250Y31250
X29750Y5750
X-7000Y31250
X23750Y8250
X-31250Y31250
X20750Y7250
X23750Y7250
X-8446Y-2563
X-8446Y1113
X27000Y23750
X32012Y10775
X-6000Y7500
X17500Y18000
X9500Y4500
X11250Y-750
X9500Y12500
X3500Y14250
X-5250Y-8750
X7500Y13750
X-5750Y-9250
X14000Y11000
X10500Y-14250
X13500Y12000
X13000Y-17250
X18500Y9500
X23250Y-14000
X-250Y5250
X30000Y-17000
X31500Y-15250
X8250Y16500
X-6000Y5750
X-19500Y-5000
X-6750Y6000
X-21750Y-2500
X-7750Y4000
X-18000Y-6250
X-5500Y2750
X-7750Y-8750
X32000Y-23000
X23750Y16750
X-28500Y-11000
X4000Y18000
X750Y20750
X1500Y20000
X-2500Y11250
X5000Y10250
X250Y4750
X31000Y-18750
X-3250Y3250
X6250Y-2500
X30250Y-21250
X-5000Y0
X-5500Y1000
X9000Y12000
X-9250Y20000
X-750Y13250
X15750Y18750
X4500Y16250
X20250Y6750
X11000Y12250
X11750Y500
X13750Y17250
X12750Y16750
X10250Y8250
X12750Y11250
X15500Y-9500
X17000Y9000
X885Y17000
X33500Y11615
X21115Y19500
X-8114Y4750
X-7369Y5250
X-34214Y20194
X-8114Y8750
X-7369Y9250
X-4114Y4750
X-3369Y5250
X-31000Y8500
X-31000Y9500
X-25000Y8500
X-25000Y4500
X-32000Y4500
X-28000Y4500
X-29000Y8500
X-33000Y8500
X-30000Y8500
X-32000Y9500
X-32000Y8500
X-25000Y9500
X-24000Y8500
X-23000Y8500
X-27000Y8500
X-26000Y9500
X-26000Y8500
X-31000Y4500
X-26500Y4500
X-29000Y4500
X-30000Y4500
X-27500Y4500
X22500Y15615
X-28796Y-23725
X-24500Y8115
X-31500Y8115
X22500Y23615
X21115Y8500
X-3369Y-750
X885Y11000
X-22654Y-22600
X-22654Y-15400
X31300Y27371
X8250Y10754
X13250Y10754
X14746Y16750
X7254Y14750
X7254Y16750
X36454Y-21500
X25346Y-22600
X25346Y-15400
X20446Y-27500
X15554Y-27500
X20446Y-20500
X15554Y-20500
X-10554Y-22500
X-15446Y-22500
X26268Y6225
X-1960Y18111
X-10554Y-13500
X-15446Y-13500
X20446Y-13500
X15554Y-13500
X11346Y-22600
X11346Y-15400
X-27654Y6500
X10646Y6175
X10646Y-5175
X10754Y1113
X10754Y-2588
X-10754Y-112
X-10754Y3587
X-10646Y-5175
X-10646Y6175
X31103Y17675
X25896Y20275
X25896Y18325
X26516Y15725
X25896Y15075
M30