G04 EAGLE Gerber X2 export*
%TF.Part,Single*%
%TF.FileFunction,Other,Bottom Inner Metal*%
%TF.FilePolarity,Positive*%
%TF.GenerationSoftware,Autodesk,EAGLE,9.0.0*%
%TF.CreationDate,2018-05-15T07:01:46Z*%
G75*
%MOMM*%
%FSLAX34Y34*%
%LPD*%
%AMOC8*
5,1,8,0,0,1.08239X$1,22.5*%
G01*
%ADD10C,1.650000*%
%ADD11C,1.500000*%
%ADD12C,1.524000*%
%ADD13C,0.352400*%
%ADD14C,0.454000*%

G36*
X-271205Y30647D02*
X-271205Y30647D01*
X-271139Y30649D01*
X-271096Y30667D01*
X-271049Y30675D01*
X-270992Y30709D01*
X-270932Y30734D01*
X-270897Y30765D01*
X-270856Y30790D01*
X-270814Y30841D01*
X-270766Y30885D01*
X-270744Y30927D01*
X-270715Y30964D01*
X-270694Y31026D01*
X-270663Y31085D01*
X-270655Y31139D01*
X-270643Y31176D01*
X-270644Y31216D01*
X-270636Y31270D01*
X-270636Y374076D01*
X-270651Y374163D01*
X-270661Y374252D01*
X-270671Y374273D01*
X-270675Y374297D01*
X-270721Y374373D01*
X-270760Y374453D01*
X-270777Y374469D01*
X-270790Y374490D01*
X-270859Y374546D01*
X-270923Y374607D01*
X-270945Y374616D01*
X-270964Y374631D01*
X-271048Y374660D01*
X-271130Y374694D01*
X-271154Y374695D01*
X-271176Y374703D01*
X-271265Y374700D01*
X-271354Y374704D01*
X-271377Y374697D01*
X-271401Y374696D01*
X-271483Y374663D01*
X-271568Y374636D01*
X-271589Y374620D01*
X-271608Y374612D01*
X-271646Y374578D01*
X-271718Y374524D01*
X-272283Y373959D01*
X-275217Y373959D01*
X-277291Y376033D01*
X-277291Y378967D01*
X-275217Y381041D01*
X-272283Y381041D01*
X-271718Y380476D01*
X-271645Y380425D01*
X-271576Y380369D01*
X-271554Y380361D01*
X-271534Y380348D01*
X-271448Y380326D01*
X-271364Y380297D01*
X-271340Y380298D01*
X-271317Y380292D01*
X-271228Y380301D01*
X-271139Y380304D01*
X-271117Y380313D01*
X-271094Y380315D01*
X-271014Y380355D01*
X-270932Y380388D01*
X-270914Y380404D01*
X-270893Y380414D01*
X-270832Y380479D01*
X-270766Y380539D01*
X-270755Y380560D01*
X-270739Y380578D01*
X-270704Y380660D01*
X-270663Y380739D01*
X-270660Y380765D01*
X-270651Y380784D01*
X-270649Y380835D01*
X-270636Y380924D01*
X-270636Y517730D01*
X-270647Y517795D01*
X-270649Y517861D01*
X-270667Y517904D01*
X-270675Y517951D01*
X-270709Y518008D01*
X-270734Y518068D01*
X-270765Y518103D01*
X-270790Y518144D01*
X-270841Y518186D01*
X-270885Y518234D01*
X-270927Y518256D01*
X-270964Y518285D01*
X-271026Y518306D01*
X-271085Y518337D01*
X-271139Y518345D01*
X-271176Y518357D01*
X-271216Y518356D01*
X-271270Y518364D01*
X-716730Y518364D01*
X-716795Y518353D01*
X-716861Y518351D01*
X-716904Y518333D01*
X-716951Y518325D01*
X-717008Y518291D01*
X-717068Y518266D01*
X-717103Y518235D01*
X-717144Y518210D01*
X-717186Y518159D01*
X-717234Y518115D01*
X-717256Y518073D01*
X-717285Y518036D01*
X-717306Y517974D01*
X-717337Y517915D01*
X-717345Y517861D01*
X-717357Y517824D01*
X-717356Y517784D01*
X-717364Y517730D01*
X-717364Y31270D01*
X-717353Y31205D01*
X-717351Y31139D01*
X-717333Y31096D01*
X-717325Y31049D01*
X-717291Y30992D01*
X-717266Y30932D01*
X-717235Y30897D01*
X-717210Y30856D01*
X-717159Y30814D01*
X-717115Y30766D01*
X-717073Y30744D01*
X-717036Y30715D01*
X-716974Y30694D01*
X-716915Y30663D01*
X-716861Y30655D01*
X-716824Y30643D01*
X-716784Y30644D01*
X-716730Y30636D01*
X-271270Y30636D01*
X-271205Y30647D01*
G37*
%LPC*%
G36*
X-341894Y243979D02*
X-341894Y243979D01*
X-345393Y245429D01*
X-348071Y248107D01*
X-349521Y251606D01*
X-349521Y255394D01*
X-348071Y258893D01*
X-345393Y261571D01*
X-341894Y263021D01*
X-338106Y263021D01*
X-334607Y261571D01*
X-331929Y258893D01*
X-330479Y255394D01*
X-330479Y251606D01*
X-331929Y248107D01*
X-334607Y245429D01*
X-338106Y243979D01*
X-341894Y243979D01*
G37*
%LPD*%
%LPC*%
G36*
X-303894Y162279D02*
X-303894Y162279D01*
X-307393Y163729D01*
X-310071Y166407D01*
X-311521Y169906D01*
X-311521Y173694D01*
X-310071Y177193D01*
X-307393Y179871D01*
X-303894Y181321D01*
X-300106Y181321D01*
X-296607Y179871D01*
X-293929Y177193D01*
X-292479Y173694D01*
X-292479Y169906D01*
X-293929Y166407D01*
X-296607Y163729D01*
X-300106Y162279D01*
X-303894Y162279D01*
G37*
%LPD*%
%LPC*%
G36*
X-341894Y193179D02*
X-341894Y193179D01*
X-345393Y194629D01*
X-348071Y197307D01*
X-349521Y200806D01*
X-349521Y204594D01*
X-348071Y208093D01*
X-345393Y210771D01*
X-341894Y212221D01*
X-338106Y212221D01*
X-334607Y210771D01*
X-331929Y208093D01*
X-330479Y204594D01*
X-330479Y200806D01*
X-331929Y197307D01*
X-334607Y194629D01*
X-338106Y193179D01*
X-341894Y193179D01*
G37*
%LPD*%
%LPC*%
G36*
X-304894Y192979D02*
X-304894Y192979D01*
X-308393Y194429D01*
X-311071Y197107D01*
X-312521Y200606D01*
X-312521Y204394D01*
X-311071Y207893D01*
X-308393Y210571D01*
X-304894Y212021D01*
X-301106Y212021D01*
X-297607Y210571D01*
X-294929Y207893D01*
X-293479Y204394D01*
X-293479Y200606D01*
X-294929Y197107D01*
X-297607Y194429D01*
X-301106Y192979D01*
X-304894Y192979D01*
G37*
%LPD*%
%LPC*%
G36*
X-304894Y243779D02*
X-304894Y243779D01*
X-308393Y245229D01*
X-311071Y247907D01*
X-312521Y251406D01*
X-312521Y255194D01*
X-311071Y258693D01*
X-308393Y261371D01*
X-304894Y262821D01*
X-301106Y262821D01*
X-297607Y261371D01*
X-294929Y258693D01*
X-293479Y255194D01*
X-293479Y251406D01*
X-294929Y247907D01*
X-297607Y245229D01*
X-301106Y243779D01*
X-304894Y243779D01*
G37*
%LPD*%
%LPC*%
G36*
X-439894Y240279D02*
X-439894Y240279D01*
X-443393Y241729D01*
X-446071Y244407D01*
X-447521Y247906D01*
X-447521Y251694D01*
X-446071Y255193D01*
X-443393Y257871D01*
X-439894Y259321D01*
X-436106Y259321D01*
X-432607Y257871D01*
X-429929Y255193D01*
X-428479Y251694D01*
X-428479Y247906D01*
X-429929Y244407D01*
X-432607Y241729D01*
X-436106Y240279D01*
X-439894Y240279D01*
G37*
%LPD*%
%LPC*%
G36*
X-303894Y111479D02*
X-303894Y111479D01*
X-307393Y112929D01*
X-310071Y115607D01*
X-311521Y119106D01*
X-311521Y122894D01*
X-310071Y126393D01*
X-307393Y129071D01*
X-303894Y130521D01*
X-300106Y130521D01*
X-296607Y129071D01*
X-293929Y126393D01*
X-292479Y122894D01*
X-292479Y119106D01*
X-293929Y115607D01*
X-296607Y112929D01*
X-300106Y111479D01*
X-303894Y111479D01*
G37*
%LPD*%
%LPC*%
G36*
X-439894Y189479D02*
X-439894Y189479D01*
X-443393Y190929D01*
X-446071Y193607D01*
X-447521Y197106D01*
X-447521Y200894D01*
X-446071Y204393D01*
X-443393Y207071D01*
X-439894Y208521D01*
X-436106Y208521D01*
X-432607Y207071D01*
X-429929Y204393D01*
X-428479Y200894D01*
X-428479Y197106D01*
X-429929Y193607D01*
X-432607Y190929D01*
X-436106Y189479D01*
X-439894Y189479D01*
G37*
%LPD*%
%LPC*%
G36*
X-673294Y353479D02*
X-673294Y353479D01*
X-676793Y354929D01*
X-679471Y357607D01*
X-680921Y361106D01*
X-680921Y364894D01*
X-679471Y368393D01*
X-676793Y371071D01*
X-673294Y372521D01*
X-669506Y372521D01*
X-666007Y371071D01*
X-663329Y368393D01*
X-661879Y364894D01*
X-661879Y361106D01*
X-663329Y357607D01*
X-666007Y354929D01*
X-669506Y353479D01*
X-673294Y353479D01*
G37*
%LPD*%
%LPC*%
G36*
X-647894Y353479D02*
X-647894Y353479D01*
X-651393Y354929D01*
X-654071Y357607D01*
X-655521Y361106D01*
X-655521Y364894D01*
X-654071Y368393D01*
X-651393Y371071D01*
X-647894Y372521D01*
X-644106Y372521D01*
X-640607Y371071D01*
X-637929Y368393D01*
X-636479Y364894D01*
X-636479Y361106D01*
X-637929Y357607D01*
X-640607Y354929D01*
X-644106Y353479D01*
X-647894Y353479D01*
G37*
%LPD*%
%LPC*%
G36*
X-568094Y166479D02*
X-568094Y166479D01*
X-571593Y167929D01*
X-574271Y170607D01*
X-575721Y174106D01*
X-575721Y177894D01*
X-574271Y181393D01*
X-571593Y184071D01*
X-568094Y185521D01*
X-564306Y185521D01*
X-560807Y184071D01*
X-558129Y181393D01*
X-556679Y177894D01*
X-556679Y174106D01*
X-558129Y170607D01*
X-560807Y167929D01*
X-564306Y166479D01*
X-568094Y166479D01*
G37*
%LPD*%
%LPC*%
G36*
X-618894Y166479D02*
X-618894Y166479D01*
X-622393Y167929D01*
X-625071Y170607D01*
X-626521Y174106D01*
X-626521Y177894D01*
X-625071Y181393D01*
X-622393Y184071D01*
X-618894Y185521D01*
X-615106Y185521D01*
X-611607Y184071D01*
X-608929Y181393D01*
X-607479Y177894D01*
X-607479Y174106D01*
X-608929Y170607D01*
X-611607Y167929D01*
X-615106Y166479D01*
X-618894Y166479D01*
G37*
%LPD*%
%LPC*%
G36*
X-304894Y218379D02*
X-304894Y218379D01*
X-308393Y219829D01*
X-311071Y222507D01*
X-312521Y226006D01*
X-312521Y229794D01*
X-311071Y233293D01*
X-308393Y235971D01*
X-304894Y237421D01*
X-301106Y237421D01*
X-297607Y235971D01*
X-294929Y233293D01*
X-293479Y229794D01*
X-293479Y226006D01*
X-294929Y222507D01*
X-297607Y219829D01*
X-301106Y218379D01*
X-304894Y218379D01*
G37*
%LPD*%
%LPC*%
G36*
X-303894Y136879D02*
X-303894Y136879D01*
X-307393Y138329D01*
X-310071Y141007D01*
X-311521Y144506D01*
X-311521Y148294D01*
X-310071Y151793D01*
X-307393Y154471D01*
X-303894Y155921D01*
X-300106Y155921D01*
X-296607Y154471D01*
X-293929Y151793D01*
X-292479Y148294D01*
X-292479Y144506D01*
X-293929Y141007D01*
X-296607Y138329D01*
X-300106Y136879D01*
X-303894Y136879D01*
G37*
%LPD*%
%LPC*%
G36*
X-439894Y214879D02*
X-439894Y214879D01*
X-443393Y216329D01*
X-446071Y219007D01*
X-447521Y222506D01*
X-447521Y226294D01*
X-446071Y229793D01*
X-443393Y232471D01*
X-439894Y233921D01*
X-436106Y233921D01*
X-432607Y232471D01*
X-429929Y229793D01*
X-428479Y226294D01*
X-428479Y222506D01*
X-429929Y219007D01*
X-432607Y216329D01*
X-436106Y214879D01*
X-439894Y214879D01*
G37*
%LPD*%
%LPC*%
G36*
X-341894Y218579D02*
X-341894Y218579D01*
X-345393Y220029D01*
X-348071Y222707D01*
X-349521Y226206D01*
X-349521Y229994D01*
X-348071Y233493D01*
X-345393Y236171D01*
X-341894Y237621D01*
X-338106Y237621D01*
X-334607Y236171D01*
X-331929Y233493D01*
X-330479Y229994D01*
X-330479Y226206D01*
X-331929Y222707D01*
X-334607Y220029D01*
X-338106Y218579D01*
X-341894Y218579D01*
G37*
%LPD*%
%LPC*%
G36*
X-312668Y37609D02*
X-312668Y37609D01*
X-315936Y38963D01*
X-318437Y41464D01*
X-319791Y44732D01*
X-319791Y48268D01*
X-318437Y51536D01*
X-315936Y54037D01*
X-312668Y55391D01*
X-309132Y55391D01*
X-305864Y54037D01*
X-303363Y51536D01*
X-302009Y48268D01*
X-302009Y44732D01*
X-303363Y41464D01*
X-305864Y38963D01*
X-309132Y37609D01*
X-312668Y37609D01*
G37*
%LPD*%
%LPC*%
G36*
X-704268Y37109D02*
X-704268Y37109D01*
X-707536Y38463D01*
X-710037Y40964D01*
X-711391Y44232D01*
X-711391Y47768D01*
X-710037Y51036D01*
X-707536Y53537D01*
X-704268Y54891D01*
X-700732Y54891D01*
X-697464Y53537D01*
X-694963Y51036D01*
X-693609Y47768D01*
X-693609Y44232D01*
X-694963Y40964D01*
X-697464Y38463D01*
X-700732Y37109D01*
X-704268Y37109D01*
G37*
%LPD*%
%LPC*%
G36*
X-363468Y37609D02*
X-363468Y37609D01*
X-366736Y38963D01*
X-369237Y41464D01*
X-370591Y44732D01*
X-370591Y48268D01*
X-369237Y51536D01*
X-366736Y54037D01*
X-363468Y55391D01*
X-359932Y55391D01*
X-356664Y54037D01*
X-354163Y51536D01*
X-352809Y48268D01*
X-352809Y44732D01*
X-354163Y41464D01*
X-356664Y38963D01*
X-359932Y37609D01*
X-363468Y37609D01*
G37*
%LPD*%
%LPC*%
G36*
X-388868Y37609D02*
X-388868Y37609D01*
X-392136Y38963D01*
X-394637Y41464D01*
X-395991Y44732D01*
X-395991Y48268D01*
X-394637Y51536D01*
X-392136Y54037D01*
X-388868Y55391D01*
X-385332Y55391D01*
X-382064Y54037D01*
X-379563Y51536D01*
X-378209Y48268D01*
X-378209Y44732D01*
X-379563Y41464D01*
X-382064Y38963D01*
X-385332Y37609D01*
X-388868Y37609D01*
G37*
%LPD*%
%LPC*%
G36*
X-414268Y37609D02*
X-414268Y37609D01*
X-417536Y38963D01*
X-420037Y41464D01*
X-421391Y44732D01*
X-421391Y48268D01*
X-420037Y51536D01*
X-417536Y54037D01*
X-414268Y55391D01*
X-410732Y55391D01*
X-407464Y54037D01*
X-404963Y51536D01*
X-403609Y48268D01*
X-403609Y44732D01*
X-404963Y41464D01*
X-407464Y38963D01*
X-410732Y37609D01*
X-414268Y37609D01*
G37*
%LPD*%
%LPC*%
G36*
X-577268Y37109D02*
X-577268Y37109D01*
X-580536Y38463D01*
X-583037Y40964D01*
X-584391Y44232D01*
X-584391Y47768D01*
X-583037Y51036D01*
X-580536Y53537D01*
X-577268Y54891D01*
X-573732Y54891D01*
X-570464Y53537D01*
X-567963Y51036D01*
X-566609Y47768D01*
X-566609Y44232D01*
X-567963Y40964D01*
X-570464Y38463D01*
X-573732Y37109D01*
X-577268Y37109D01*
G37*
%LPD*%
%LPC*%
G36*
X-602668Y37109D02*
X-602668Y37109D01*
X-605936Y38463D01*
X-608437Y40964D01*
X-609791Y44232D01*
X-609791Y47768D01*
X-608437Y51036D01*
X-605936Y53537D01*
X-602668Y54891D01*
X-599132Y54891D01*
X-595864Y53537D01*
X-593363Y51036D01*
X-592009Y47768D01*
X-592009Y44232D01*
X-593363Y40964D01*
X-595864Y38463D01*
X-599132Y37109D01*
X-602668Y37109D01*
G37*
%LPD*%
%LPC*%
G36*
X-653468Y37109D02*
X-653468Y37109D01*
X-656736Y38463D01*
X-659237Y40964D01*
X-660591Y44232D01*
X-660591Y47768D01*
X-659237Y51036D01*
X-656736Y53537D01*
X-653468Y54891D01*
X-649932Y54891D01*
X-646664Y53537D01*
X-644163Y51036D01*
X-642809Y47768D01*
X-642809Y44232D01*
X-644163Y40964D01*
X-646664Y38463D01*
X-649932Y37109D01*
X-653468Y37109D01*
G37*
%LPD*%
%LPC*%
G36*
X-678868Y37109D02*
X-678868Y37109D01*
X-682136Y38463D01*
X-684637Y40964D01*
X-685991Y44232D01*
X-685991Y47768D01*
X-684637Y51036D01*
X-682136Y53537D01*
X-678868Y54891D01*
X-675332Y54891D01*
X-672064Y53537D01*
X-669563Y51036D01*
X-668209Y47768D01*
X-668209Y44232D01*
X-669563Y40964D01*
X-672064Y38463D01*
X-675332Y37109D01*
X-678868Y37109D01*
G37*
%LPD*%
%LPC*%
G36*
X-287268Y37609D02*
X-287268Y37609D01*
X-290536Y38963D01*
X-293037Y41464D01*
X-294391Y44732D01*
X-294391Y48268D01*
X-293037Y51536D01*
X-290536Y54037D01*
X-287268Y55391D01*
X-283732Y55391D01*
X-280464Y54037D01*
X-277963Y51536D01*
X-276609Y48268D01*
X-276609Y44732D01*
X-277963Y41464D01*
X-280464Y38963D01*
X-283732Y37609D01*
X-287268Y37609D01*
G37*
%LPD*%
%LPC*%
G36*
X-572795Y460329D02*
X-572795Y460329D01*
X-576018Y461665D01*
X-578485Y464132D01*
X-579821Y467355D01*
X-579821Y470845D01*
X-578485Y474068D01*
X-576018Y476535D01*
X-572795Y477871D01*
X-569305Y477871D01*
X-566082Y476535D01*
X-563615Y474068D01*
X-562279Y470845D01*
X-562279Y467355D01*
X-563615Y464132D01*
X-566082Y461665D01*
X-569305Y460329D01*
X-572795Y460329D01*
G37*
%LPD*%
%LPC*%
G36*
X-598195Y460329D02*
X-598195Y460329D01*
X-601418Y461665D01*
X-603885Y464132D01*
X-605221Y467355D01*
X-605221Y470845D01*
X-603885Y474068D01*
X-601418Y476535D01*
X-598195Y477871D01*
X-594705Y477871D01*
X-591482Y476535D01*
X-589015Y474068D01*
X-587679Y470845D01*
X-587679Y467355D01*
X-589015Y464132D01*
X-591482Y461665D01*
X-594705Y460329D01*
X-598195Y460329D01*
G37*
%LPD*%
%LPC*%
G36*
X-701293Y464999D02*
X-701293Y464999D01*
X-703682Y465989D01*
X-705511Y467818D01*
X-706501Y470207D01*
X-706501Y472793D01*
X-705511Y475182D01*
X-703682Y477011D01*
X-701293Y478001D01*
X-698707Y478001D01*
X-696318Y477011D01*
X-694489Y475182D01*
X-693499Y472793D01*
X-693499Y470207D01*
X-694489Y467818D01*
X-696318Y465989D01*
X-698707Y464999D01*
X-701293Y464999D01*
G37*
%LPD*%
%LPC*%
G36*
X-529293Y42499D02*
X-529293Y42499D01*
X-531682Y43489D01*
X-533511Y45318D01*
X-534501Y47707D01*
X-534501Y50293D01*
X-533511Y52682D01*
X-531682Y54511D01*
X-529293Y55501D01*
X-526707Y55501D01*
X-524318Y54511D01*
X-522489Y52682D01*
X-521499Y50293D01*
X-521499Y47707D01*
X-522489Y45318D01*
X-524318Y43489D01*
X-526707Y42499D01*
X-529293Y42499D01*
G37*
%LPD*%
%LPC*%
G36*
X-701293Y396999D02*
X-701293Y396999D01*
X-703682Y397989D01*
X-705511Y399818D01*
X-706501Y402207D01*
X-706501Y404793D01*
X-705511Y407182D01*
X-703682Y409011D01*
X-701293Y410001D01*
X-698707Y410001D01*
X-696318Y409011D01*
X-694489Y407182D01*
X-693499Y404793D01*
X-693499Y402207D01*
X-694489Y399818D01*
X-696318Y397989D01*
X-698707Y396999D01*
X-701293Y396999D01*
G37*
%LPD*%
%LPC*%
G36*
X-493293Y462999D02*
X-493293Y462999D01*
X-495682Y463989D01*
X-497511Y465818D01*
X-498501Y468207D01*
X-498501Y470793D01*
X-497511Y473182D01*
X-495682Y475011D01*
X-493293Y476001D01*
X-490707Y476001D01*
X-488318Y475011D01*
X-486489Y473182D01*
X-485499Y470793D01*
X-485499Y468207D01*
X-486489Y465818D01*
X-488318Y463989D01*
X-490707Y462999D01*
X-493293Y462999D01*
G37*
%LPD*%
%LPC*%
G36*
X-449293Y462999D02*
X-449293Y462999D01*
X-451682Y463989D01*
X-453511Y465818D01*
X-454501Y468207D01*
X-454501Y470793D01*
X-453511Y473182D01*
X-451682Y475011D01*
X-449293Y476001D01*
X-446707Y476001D01*
X-444318Y475011D01*
X-442489Y473182D01*
X-441499Y470793D01*
X-441499Y468207D01*
X-442489Y465818D01*
X-444318Y463989D01*
X-446707Y462999D01*
X-449293Y462999D01*
G37*
%LPD*%
%LPC*%
G36*
X-461293Y42499D02*
X-461293Y42499D01*
X-463682Y43489D01*
X-465511Y45318D01*
X-466501Y47707D01*
X-466501Y50293D01*
X-465511Y52682D01*
X-463682Y54511D01*
X-461293Y55501D01*
X-458707Y55501D01*
X-456318Y54511D01*
X-454489Y52682D01*
X-453499Y50293D01*
X-453499Y47707D01*
X-454489Y45318D01*
X-456318Y43489D01*
X-458707Y42499D01*
X-461293Y42499D01*
G37*
%LPD*%
%LPC*%
G36*
X-530217Y126459D02*
X-530217Y126459D01*
X-532291Y128533D01*
X-532291Y131467D01*
X-531081Y132676D01*
X-531043Y132731D01*
X-530998Y132778D01*
X-530980Y132822D01*
X-530953Y132861D01*
X-530936Y132924D01*
X-530911Y132985D01*
X-530909Y133032D01*
X-530897Y133078D01*
X-530904Y133143D01*
X-530901Y133209D01*
X-530915Y133254D01*
X-530920Y133301D01*
X-530949Y133360D01*
X-530969Y133423D01*
X-531002Y133467D01*
X-531019Y133502D01*
X-531048Y133529D01*
X-531081Y133573D01*
X-532291Y134783D01*
X-532291Y137717D01*
X-530217Y139791D01*
X-527283Y139791D01*
X-525209Y137717D01*
X-525209Y134783D01*
X-526419Y133573D01*
X-526457Y133519D01*
X-526502Y133472D01*
X-526520Y133428D01*
X-526547Y133389D01*
X-526564Y133326D01*
X-526589Y133265D01*
X-526591Y133218D01*
X-526603Y133172D01*
X-526596Y133107D01*
X-526599Y133041D01*
X-526585Y132996D01*
X-526580Y132949D01*
X-526551Y132890D01*
X-526531Y132827D01*
X-526498Y132783D01*
X-526481Y132748D01*
X-526452Y132721D01*
X-526419Y132676D01*
X-525209Y131467D01*
X-525209Y128533D01*
X-527283Y126459D01*
X-530217Y126459D01*
G37*
%LPD*%
%LPC*%
G36*
X-350724Y121969D02*
X-350724Y121969D01*
X-350525Y123227D01*
X-350000Y124842D01*
X-349229Y126356D01*
X-348231Y127730D01*
X-347030Y128931D01*
X-345656Y129929D01*
X-344142Y130700D01*
X-342527Y131225D01*
X-341269Y131424D01*
X-341269Y121969D01*
X-350724Y121969D01*
G37*
%LPD*%
%LPC*%
G36*
X-602324Y177269D02*
X-602324Y177269D01*
X-602125Y178527D01*
X-601600Y180142D01*
X-600829Y181656D01*
X-599831Y183030D01*
X-598630Y184231D01*
X-597256Y185229D01*
X-595742Y186000D01*
X-594127Y186525D01*
X-592869Y186724D01*
X-592869Y177269D01*
X-602324Y177269D01*
G37*
%LPD*%
%LPC*%
G36*
X-350724Y147369D02*
X-350724Y147369D01*
X-350525Y148627D01*
X-350000Y150242D01*
X-349229Y151756D01*
X-348231Y153130D01*
X-347030Y154331D01*
X-345656Y155329D01*
X-344142Y156100D01*
X-342527Y156625D01*
X-341269Y156824D01*
X-341269Y147369D01*
X-350724Y147369D01*
G37*
%LPD*%
%LPC*%
G36*
X-350724Y172769D02*
X-350724Y172769D01*
X-350525Y174027D01*
X-350000Y175642D01*
X-349229Y177156D01*
X-348231Y178530D01*
X-347030Y179731D01*
X-345656Y180729D01*
X-344142Y181500D01*
X-342527Y182025D01*
X-341269Y182224D01*
X-341269Y172769D01*
X-350724Y172769D01*
G37*
%LPD*%
%LPC*%
G36*
X-342527Y160975D02*
X-342527Y160975D01*
X-344142Y161500D01*
X-345656Y162271D01*
X-347030Y163269D01*
X-348231Y164470D01*
X-349229Y165844D01*
X-350000Y167358D01*
X-350525Y168973D01*
X-350724Y170231D01*
X-341269Y170231D01*
X-341269Y160776D01*
X-342527Y160975D01*
G37*
%LPD*%
%LPC*%
G36*
X-342527Y135575D02*
X-342527Y135575D01*
X-344142Y136100D01*
X-345656Y136871D01*
X-347030Y137869D01*
X-348231Y139070D01*
X-349229Y140444D01*
X-350000Y141958D01*
X-350525Y143573D01*
X-350724Y144831D01*
X-341269Y144831D01*
X-341269Y135376D01*
X-342527Y135575D01*
G37*
%LPD*%
%LPC*%
G36*
X-338731Y172769D02*
X-338731Y172769D01*
X-338731Y182224D01*
X-337473Y182025D01*
X-335858Y181500D01*
X-334344Y180729D01*
X-332970Y179731D01*
X-331769Y178530D01*
X-330771Y177156D01*
X-330000Y175642D01*
X-329475Y174027D01*
X-329276Y172769D01*
X-338731Y172769D01*
G37*
%LPD*%
%LPC*%
G36*
X-338731Y121969D02*
X-338731Y121969D01*
X-338731Y131424D01*
X-337473Y131225D01*
X-335858Y130700D01*
X-334344Y129929D01*
X-332970Y128931D01*
X-331769Y127730D01*
X-330771Y126356D01*
X-330000Y124842D01*
X-329475Y123227D01*
X-329276Y121969D01*
X-338731Y121969D01*
G37*
%LPD*%
%LPC*%
G36*
X-338731Y147369D02*
X-338731Y147369D01*
X-338731Y156824D01*
X-337473Y156625D01*
X-335858Y156100D01*
X-334344Y155329D01*
X-332970Y154331D01*
X-331769Y153130D01*
X-330771Y151756D01*
X-330000Y150242D01*
X-329475Y148627D01*
X-329276Y147369D01*
X-338731Y147369D01*
G37*
%LPD*%
%LPC*%
G36*
X-594127Y165475D02*
X-594127Y165475D01*
X-595742Y166000D01*
X-597256Y166771D01*
X-598630Y167769D01*
X-599831Y168970D01*
X-600829Y170344D01*
X-601600Y171858D01*
X-602125Y173473D01*
X-602324Y174731D01*
X-592869Y174731D01*
X-592869Y165276D01*
X-594127Y165475D01*
G37*
%LPD*%
%LPC*%
G36*
X-590331Y177269D02*
X-590331Y177269D01*
X-590331Y186724D01*
X-589073Y186525D01*
X-587458Y186000D01*
X-585944Y185229D01*
X-584570Y184231D01*
X-583369Y183030D01*
X-582371Y181656D01*
X-581600Y180142D01*
X-581075Y178527D01*
X-580876Y177269D01*
X-590331Y177269D01*
G37*
%LPD*%
%LPC*%
G36*
X-342527Y110175D02*
X-342527Y110175D01*
X-344142Y110700D01*
X-345656Y111471D01*
X-347030Y112469D01*
X-348231Y113670D01*
X-349229Y115044D01*
X-350000Y116558D01*
X-350525Y118173D01*
X-350724Y119431D01*
X-341269Y119431D01*
X-341269Y109976D01*
X-342527Y110175D01*
G37*
%LPD*%
%LPC*%
G36*
X-338731Y144831D02*
X-338731Y144831D01*
X-329276Y144831D01*
X-329475Y143573D01*
X-330000Y141958D01*
X-330771Y140444D01*
X-331769Y139070D01*
X-332970Y137869D01*
X-334344Y136871D01*
X-335858Y136100D01*
X-337473Y135575D01*
X-338731Y135376D01*
X-338731Y144831D01*
G37*
%LPD*%
%LPC*%
G36*
X-338731Y119431D02*
X-338731Y119431D01*
X-329276Y119431D01*
X-329475Y118173D01*
X-330000Y116558D01*
X-330771Y115044D01*
X-331769Y113670D01*
X-332970Y112469D01*
X-334344Y111471D01*
X-335858Y110700D01*
X-337473Y110175D01*
X-338731Y109976D01*
X-338731Y119431D01*
G37*
%LPD*%
%LPC*%
G36*
X-338731Y170231D02*
X-338731Y170231D01*
X-329276Y170231D01*
X-329475Y168973D01*
X-330000Y167358D01*
X-330771Y165844D01*
X-331769Y164470D01*
X-332970Y163269D01*
X-334344Y162271D01*
X-335858Y161500D01*
X-337473Y160975D01*
X-338731Y160776D01*
X-338731Y170231D01*
G37*
%LPD*%
%LPC*%
G36*
X-590331Y174731D02*
X-590331Y174731D01*
X-580876Y174731D01*
X-581075Y173473D01*
X-581600Y171858D01*
X-582371Y170344D01*
X-583369Y168970D01*
X-584570Y167769D01*
X-585944Y166771D01*
X-587458Y166000D01*
X-589073Y165475D01*
X-590331Y165276D01*
X-590331Y174731D01*
G37*
%LPD*%
%LPC*%
G36*
X-346386Y47769D02*
X-346386Y47769D01*
X-346211Y48879D01*
X-345716Y50400D01*
X-344990Y51825D01*
X-344050Y53119D01*
X-342919Y54250D01*
X-341625Y55190D01*
X-340200Y55916D01*
X-338679Y56411D01*
X-337569Y56586D01*
X-337569Y47769D01*
X-346386Y47769D01*
G37*
%LPD*%
%LPC*%
G36*
X-636386Y47269D02*
X-636386Y47269D01*
X-636211Y48379D01*
X-635716Y49900D01*
X-634990Y51325D01*
X-634050Y52619D01*
X-632919Y53750D01*
X-631625Y54690D01*
X-630200Y55416D01*
X-628679Y55911D01*
X-627569Y56086D01*
X-627569Y47269D01*
X-636386Y47269D01*
G37*
%LPD*%
%LPC*%
G36*
X-628679Y36089D02*
X-628679Y36089D01*
X-630200Y36584D01*
X-631625Y37310D01*
X-632919Y38250D01*
X-634050Y39381D01*
X-634990Y40675D01*
X-635716Y42100D01*
X-636211Y43621D01*
X-636386Y44731D01*
X-627569Y44731D01*
X-627569Y35914D01*
X-628679Y36089D01*
G37*
%LPD*%
%LPC*%
G36*
X-338679Y36589D02*
X-338679Y36589D01*
X-340200Y37084D01*
X-341625Y37810D01*
X-342919Y38750D01*
X-344050Y39881D01*
X-344990Y41175D01*
X-345716Y42600D01*
X-346211Y44121D01*
X-346386Y45231D01*
X-337569Y45231D01*
X-337569Y36414D01*
X-338679Y36589D01*
G37*
%LPD*%
%LPC*%
G36*
X-625031Y47269D02*
X-625031Y47269D01*
X-625031Y56086D01*
X-623921Y55911D01*
X-622400Y55416D01*
X-620975Y54690D01*
X-619681Y53750D01*
X-618550Y52619D01*
X-617610Y51325D01*
X-616884Y49900D01*
X-616389Y48379D01*
X-616214Y47269D01*
X-625031Y47269D01*
G37*
%LPD*%
%LPC*%
G36*
X-335031Y47769D02*
X-335031Y47769D01*
X-335031Y56586D01*
X-333921Y56411D01*
X-332400Y55916D01*
X-330975Y55190D01*
X-329681Y54250D01*
X-328550Y53119D01*
X-327610Y51825D01*
X-326884Y50400D01*
X-326389Y48879D01*
X-326214Y47769D01*
X-335031Y47769D01*
G37*
%LPD*%
%LPC*%
G36*
X-625031Y44731D02*
X-625031Y44731D01*
X-616214Y44731D01*
X-616389Y43621D01*
X-616884Y42100D01*
X-617610Y40675D01*
X-618550Y39381D01*
X-619681Y38250D01*
X-620975Y37310D01*
X-622400Y36584D01*
X-623921Y36089D01*
X-625031Y35914D01*
X-625031Y44731D01*
G37*
%LPD*%
%LPC*%
G36*
X-335031Y45231D02*
X-335031Y45231D01*
X-326214Y45231D01*
X-326389Y44121D01*
X-326884Y42600D01*
X-327610Y41175D01*
X-328550Y39881D01*
X-329681Y38750D01*
X-330975Y37810D01*
X-332400Y37084D01*
X-333921Y36589D01*
X-335031Y36414D01*
X-335031Y45231D01*
G37*
%LPD*%
%LPC*%
G36*
X-601467Y296459D02*
X-601467Y296459D01*
X-603541Y298533D01*
X-603541Y301467D01*
X-601467Y303541D01*
X-598533Y303541D01*
X-596459Y301467D01*
X-596459Y298533D01*
X-598533Y296459D01*
X-601467Y296459D01*
G37*
%LPD*%
%LPC*%
G36*
X-540217Y296459D02*
X-540217Y296459D01*
X-542291Y298533D01*
X-542291Y301467D01*
X-540217Y303541D01*
X-537283Y303541D01*
X-535209Y301467D01*
X-535209Y298533D01*
X-537283Y296459D01*
X-540217Y296459D01*
G37*
%LPD*%
%LPC*%
G36*
X-668967Y173959D02*
X-668967Y173959D01*
X-671041Y176033D01*
X-671041Y178967D01*
X-668967Y181041D01*
X-666033Y181041D01*
X-663959Y178967D01*
X-663959Y176033D01*
X-666033Y173959D01*
X-668967Y173959D01*
G37*
%LPD*%
%LPC*%
G36*
X-482717Y148959D02*
X-482717Y148959D01*
X-484791Y151033D01*
X-484791Y153967D01*
X-482717Y156041D01*
X-479783Y156041D01*
X-477709Y153967D01*
X-477709Y151033D01*
X-479783Y148959D01*
X-482717Y148959D01*
G37*
%LPD*%
%LPC*%
G36*
X-690217Y167709D02*
X-690217Y167709D01*
X-692291Y169783D01*
X-692291Y172717D01*
X-690217Y174791D01*
X-687283Y174791D01*
X-685209Y172717D01*
X-685209Y169783D01*
X-687283Y167709D01*
X-690217Y167709D01*
G37*
%LPD*%
%LPC*%
G36*
X-518967Y176459D02*
X-518967Y176459D01*
X-521041Y178533D01*
X-521041Y181467D01*
X-518967Y183541D01*
X-516033Y183541D01*
X-513959Y181467D01*
X-513959Y178533D01*
X-516033Y176459D01*
X-518967Y176459D01*
G37*
%LPD*%
%LPC*%
G36*
X-497717Y138959D02*
X-497717Y138959D01*
X-499791Y141033D01*
X-499791Y143967D01*
X-497717Y146041D01*
X-494783Y146041D01*
X-492709Y143967D01*
X-492709Y141033D01*
X-494783Y138959D01*
X-497717Y138959D01*
G37*
%LPD*%
%LPC*%
G36*
X-295217Y502709D02*
X-295217Y502709D01*
X-297291Y504783D01*
X-297291Y507717D01*
X-295217Y509791D01*
X-292283Y509791D01*
X-290209Y507717D01*
X-290209Y504783D01*
X-292283Y502709D01*
X-295217Y502709D01*
G37*
%LPD*%
%LPC*%
G36*
X-307717Y465209D02*
X-307717Y465209D01*
X-309791Y467283D01*
X-309791Y470217D01*
X-307717Y472291D01*
X-304783Y472291D01*
X-302709Y470217D01*
X-302709Y467283D01*
X-304783Y465209D01*
X-307717Y465209D01*
G37*
%LPD*%
%LPC*%
G36*
X-318967Y335209D02*
X-318967Y335209D01*
X-321041Y337283D01*
X-321041Y340217D01*
X-318967Y342291D01*
X-316033Y342291D01*
X-313959Y340217D01*
X-313959Y337283D01*
X-316033Y335209D01*
X-318967Y335209D01*
G37*
%LPD*%
%LPC*%
G36*
X-472717Y125209D02*
X-472717Y125209D01*
X-474791Y127283D01*
X-474791Y130217D01*
X-472717Y132291D01*
X-469783Y132291D01*
X-467709Y130217D01*
X-467709Y127283D01*
X-469783Y125209D01*
X-472717Y125209D01*
G37*
%LPD*%
%LPC*%
G36*
X-316467Y432709D02*
X-316467Y432709D01*
X-318541Y434783D01*
X-318541Y437717D01*
X-316467Y439791D01*
X-313533Y439791D01*
X-311459Y437717D01*
X-311459Y434783D01*
X-313533Y432709D01*
X-316467Y432709D01*
G37*
%LPD*%
%LPC*%
G36*
X-288967Y336459D02*
X-288967Y336459D01*
X-291041Y338533D01*
X-291041Y341467D01*
X-288967Y343541D01*
X-286033Y343541D01*
X-283959Y341467D01*
X-283959Y338533D01*
X-286033Y336459D01*
X-288967Y336459D01*
G37*
%LPD*%
%LPC*%
G36*
X-357717Y341459D02*
X-357717Y341459D01*
X-359791Y343533D01*
X-359791Y346467D01*
X-357717Y348541D01*
X-354783Y348541D01*
X-352709Y346467D01*
X-352709Y343533D01*
X-354783Y341459D01*
X-357717Y341459D01*
G37*
%LPD*%
%LPC*%
G36*
X-606467Y121459D02*
X-606467Y121459D01*
X-608541Y123533D01*
X-608541Y126467D01*
X-606467Y128541D01*
X-603533Y128541D01*
X-601459Y126467D01*
X-601459Y123533D01*
X-603533Y121459D01*
X-606467Y121459D01*
G37*
%LPD*%
%LPC*%
G36*
X-506467Y120209D02*
X-506467Y120209D01*
X-508541Y122283D01*
X-508541Y125217D01*
X-506467Y127291D01*
X-503533Y127291D01*
X-501459Y125217D01*
X-501459Y122283D01*
X-503533Y120209D01*
X-506467Y120209D01*
G37*
%LPD*%
%LPC*%
G36*
X-412717Y115209D02*
X-412717Y115209D01*
X-414791Y117283D01*
X-414791Y120217D01*
X-412717Y122291D01*
X-409783Y122291D01*
X-407709Y120217D01*
X-407709Y117283D01*
X-409783Y115209D01*
X-412717Y115209D01*
G37*
%LPD*%
%LPC*%
G36*
X-581467Y430209D02*
X-581467Y430209D01*
X-583541Y432283D01*
X-583541Y435217D01*
X-581467Y437291D01*
X-578533Y437291D01*
X-576459Y435217D01*
X-576459Y432283D01*
X-578533Y430209D01*
X-581467Y430209D01*
G37*
%LPD*%
%LPC*%
G36*
X-390217Y345209D02*
X-390217Y345209D01*
X-392291Y347283D01*
X-392291Y350217D01*
X-390217Y352291D01*
X-387283Y352291D01*
X-385209Y350217D01*
X-385209Y347283D01*
X-387283Y345209D01*
X-390217Y345209D01*
G37*
%LPD*%
%LPC*%
G36*
X-450217Y425209D02*
X-450217Y425209D01*
X-452291Y427283D01*
X-452291Y430217D01*
X-450217Y432291D01*
X-447283Y432291D01*
X-445209Y430217D01*
X-445209Y427283D01*
X-447283Y425209D01*
X-450217Y425209D01*
G37*
%LPD*%
%LPC*%
G36*
X-517717Y107709D02*
X-517717Y107709D01*
X-519791Y109783D01*
X-519791Y112717D01*
X-517717Y114791D01*
X-514783Y114791D01*
X-512709Y112717D01*
X-512709Y109783D01*
X-514783Y107709D01*
X-517717Y107709D01*
G37*
%LPD*%
%LPC*%
G36*
X-682717Y87709D02*
X-682717Y87709D01*
X-684791Y89783D01*
X-684791Y92717D01*
X-682717Y94791D01*
X-679783Y94791D01*
X-677709Y92717D01*
X-677709Y89783D01*
X-679783Y87709D01*
X-682717Y87709D01*
G37*
%LPD*%
%LPC*%
G36*
X-485217Y85209D02*
X-485217Y85209D01*
X-487291Y87283D01*
X-487291Y90217D01*
X-485217Y92291D01*
X-482283Y92291D01*
X-480209Y90217D01*
X-480209Y87283D01*
X-482283Y85209D01*
X-485217Y85209D01*
G37*
%LPD*%
%LPC*%
G36*
X-480217Y73959D02*
X-480217Y73959D01*
X-482291Y76033D01*
X-482291Y78967D01*
X-480217Y81041D01*
X-477283Y81041D01*
X-475209Y78967D01*
X-475209Y76033D01*
X-477283Y73959D01*
X-480217Y73959D01*
G37*
%LPD*%
%LPC*%
G36*
X-617717Y425209D02*
X-617717Y425209D01*
X-619791Y427283D01*
X-619791Y430217D01*
X-617717Y432291D01*
X-614783Y432291D01*
X-612709Y430217D01*
X-612709Y427283D01*
X-614783Y425209D01*
X-617717Y425209D01*
G37*
%LPD*%
%LPC*%
G36*
X-673967Y423959D02*
X-673967Y423959D01*
X-676041Y426033D01*
X-676041Y428967D01*
X-673967Y431041D01*
X-671033Y431041D01*
X-668959Y428967D01*
X-668959Y426033D01*
X-671033Y423959D01*
X-673967Y423959D01*
G37*
%LPD*%
%LPC*%
G36*
X-316467Y412709D02*
X-316467Y412709D01*
X-318541Y414783D01*
X-318541Y417717D01*
X-316467Y419791D01*
X-313533Y419791D01*
X-311459Y417717D01*
X-311459Y414783D01*
X-313533Y412709D01*
X-316467Y412709D01*
G37*
%LPD*%
%LPC*%
G36*
X-316467Y387709D02*
X-316467Y387709D01*
X-318541Y389783D01*
X-318541Y392717D01*
X-316467Y394791D01*
X-313533Y394791D01*
X-311459Y392717D01*
X-311459Y389783D01*
X-313533Y387709D01*
X-316467Y387709D01*
G37*
%LPD*%
%LPC*%
G36*
X-673967Y398959D02*
X-673967Y398959D01*
X-676041Y401033D01*
X-676041Y403967D01*
X-673967Y406041D01*
X-671033Y406041D01*
X-668959Y403967D01*
X-668959Y401033D01*
X-671033Y398959D01*
X-673967Y398959D01*
G37*
%LPD*%
%LPC*%
G36*
X-402717Y401459D02*
X-402717Y401459D01*
X-404791Y403533D01*
X-404791Y406467D01*
X-402717Y408541D01*
X-399783Y408541D01*
X-397709Y406467D01*
X-397709Y403533D01*
X-399783Y401459D01*
X-402717Y401459D01*
G37*
%LPD*%
%LPC*%
G36*
X-586256Y404467D02*
X-586256Y404467D01*
X-588033Y406244D01*
X-588033Y408756D01*
X-586256Y410533D01*
X-583744Y410533D01*
X-581967Y408756D01*
X-581967Y406244D01*
X-583744Y404467D01*
X-586256Y404467D01*
G37*
%LPD*%
%LPC*%
G36*
X-533756Y404467D02*
X-533756Y404467D01*
X-535533Y406244D01*
X-535533Y408756D01*
X-533756Y410533D01*
X-531244Y410533D01*
X-529467Y408756D01*
X-529467Y406244D01*
X-531244Y404467D01*
X-533756Y404467D01*
G37*
%LPD*%
%LPC*%
G36*
X-289256Y310967D02*
X-289256Y310967D01*
X-291033Y312744D01*
X-291033Y315256D01*
X-289256Y317033D01*
X-286744Y317033D01*
X-284967Y315256D01*
X-284967Y312744D01*
X-286744Y310967D01*
X-289256Y310967D01*
G37*
%LPD*%
%LPC*%
G36*
X-611256Y386967D02*
X-611256Y386967D01*
X-613033Y388744D01*
X-613033Y391256D01*
X-611256Y393033D01*
X-608744Y393033D01*
X-606967Y391256D01*
X-606967Y388744D01*
X-608744Y386967D01*
X-611256Y386967D01*
G37*
%LPD*%
%LPC*%
G36*
X-289256Y274967D02*
X-289256Y274967D01*
X-291033Y276744D01*
X-291033Y279256D01*
X-289256Y281033D01*
X-286744Y281033D01*
X-284967Y279256D01*
X-284967Y276744D01*
X-286744Y274967D01*
X-289256Y274967D01*
G37*
%LPD*%
%LPC*%
G36*
X-503756Y384467D02*
X-503756Y384467D01*
X-505533Y386244D01*
X-505533Y388756D01*
X-503756Y390533D01*
X-501244Y390533D01*
X-499467Y388756D01*
X-499467Y386244D01*
X-501244Y384467D01*
X-503756Y384467D01*
G37*
%LPD*%
%LPC*%
G36*
X-521256Y311967D02*
X-521256Y311967D01*
X-523033Y313744D01*
X-523033Y316256D01*
X-521256Y318033D01*
X-518744Y318033D01*
X-516967Y316256D01*
X-516967Y313744D01*
X-518744Y311967D01*
X-521256Y311967D01*
G37*
%LPD*%
%LPC*%
G36*
X-608756Y336967D02*
X-608756Y336967D01*
X-610533Y338744D01*
X-610533Y341256D01*
X-608756Y343033D01*
X-606244Y343033D01*
X-604467Y341256D01*
X-604467Y338744D01*
X-606244Y336967D01*
X-608756Y336967D01*
G37*
%LPD*%
%LPC*%
G36*
X-511256Y334467D02*
X-511256Y334467D01*
X-513033Y336244D01*
X-513033Y338756D01*
X-511256Y340533D01*
X-508744Y340533D01*
X-506967Y338756D01*
X-506967Y336244D01*
X-508744Y334467D01*
X-511256Y334467D01*
G37*
%LPD*%
%LPC*%
G36*
X-591256Y314467D02*
X-591256Y314467D01*
X-593033Y316244D01*
X-593033Y318756D01*
X-591256Y320533D01*
X-588744Y320533D01*
X-586967Y318756D01*
X-586967Y316244D01*
X-588744Y314467D01*
X-591256Y314467D01*
G37*
%LPD*%
%LPC*%
G36*
X-336301Y46499D02*
X-336301Y46499D01*
X-336301Y46501D01*
X-336299Y46501D01*
X-336299Y46499D01*
X-336301Y46499D01*
G37*
%LPD*%
%LPC*%
G36*
X-626301Y45999D02*
X-626301Y45999D01*
X-626301Y46001D01*
X-626299Y46001D01*
X-626299Y45999D01*
X-626301Y45999D01*
G37*
%LPD*%
%LPC*%
G36*
X-340001Y146099D02*
X-340001Y146099D01*
X-340001Y146101D01*
X-339999Y146101D01*
X-339999Y146099D01*
X-340001Y146099D01*
G37*
%LPD*%
%LPC*%
G36*
X-591601Y175999D02*
X-591601Y175999D01*
X-591601Y176001D01*
X-591599Y176001D01*
X-591599Y175999D01*
X-591601Y175999D01*
G37*
%LPD*%
%LPC*%
G36*
X-340001Y120699D02*
X-340001Y120699D01*
X-340001Y120701D01*
X-339999Y120701D01*
X-339999Y120699D01*
X-340001Y120699D01*
G37*
%LPD*%
%LPC*%
G36*
X-340001Y171499D02*
X-340001Y171499D01*
X-340001Y171501D01*
X-339999Y171501D01*
X-339999Y171499D01*
X-340001Y171499D01*
G37*
%LPD*%
D10*
X-303000Y202500D03*
X-303000Y227900D03*
X-303000Y253300D03*
X-340000Y253500D03*
X-340000Y228100D03*
X-340000Y202700D03*
X-340000Y171500D03*
X-340000Y146100D03*
X-340000Y120700D03*
D11*
X-571050Y469100D03*
X-596450Y469100D03*
D12*
X-285500Y46500D03*
X-310900Y46500D03*
X-336300Y46500D03*
X-361700Y46500D03*
X-387100Y46500D03*
X-412500Y46500D03*
D13*
X-510000Y337500D03*
X-520000Y315000D03*
X-607500Y340000D03*
X-590000Y317500D03*
X-610000Y390000D03*
X-585000Y407500D03*
X-532500Y407500D03*
X-502500Y387500D03*
X-288000Y314000D03*
X-288000Y278000D03*
D10*
X-617000Y176000D03*
X-591600Y176000D03*
X-566200Y176000D03*
X-302000Y121000D03*
X-302000Y146400D03*
X-302000Y171800D03*
D12*
X-575500Y46000D03*
X-600900Y46000D03*
X-626300Y46000D03*
X-651700Y46000D03*
X-677100Y46000D03*
X-702500Y46000D03*
D10*
X-646000Y363000D03*
X-671400Y363000D03*
X-438000Y199000D03*
X-438000Y224400D03*
X-438000Y249800D03*
D14*
X-538750Y300000D03*
X-315000Y391250D03*
X-681250Y91250D03*
X-605000Y125000D03*
X-516250Y111250D03*
X-478750Y77500D03*
X-667500Y177500D03*
X-388750Y348750D03*
X-293750Y506250D03*
X-600000Y300000D03*
X-663750Y255000D03*
X-528750Y77500D03*
X-672500Y427500D03*
X-688750Y171250D03*
X-315000Y416250D03*
X-517500Y180000D03*
X-317500Y338750D03*
X-528750Y130000D03*
X-273750Y377500D03*
X-471250Y128750D03*
X-401250Y405000D03*
X-411250Y118750D03*
X-481250Y152500D03*
X-483750Y88750D03*
X-528750Y136250D03*
X-496250Y142500D03*
X-505000Y123750D03*
X-287500Y340000D03*
X-356250Y345000D03*
X-306250Y468750D03*
X-616250Y428750D03*
X-448750Y428750D03*
X-315000Y436250D03*
X-580000Y433750D03*
X-672500Y402500D03*
M02*
