G04 EAGLE Gerber X2 export*
%TF.Part,Single*%
%TF.FileFunction,Other,Solder stop mask SOL*%
%TF.FilePolarity,Positive*%
%TF.GenerationSoftware,Autodesk,EAGLE,9.0.0*%
%TF.CreationDate,2018-05-15T07:01:46Z*%
G75*
%MOMM*%
%FSLAX34Y34*%
%LPD*%
%AMOC8*
5,1,8,0,0,1.08239X$1,22.5*%
G01*
%ADD10C,1.052400*%
%ADD11R,1.802400X1.802400*%
%ADD12C,1.802400*%
%ADD13C,1.652400*%
%ADD14C,2.032000*%
%ADD15C,0.504800*%

G36*
X-637703Y354737D02*
X-637703Y354737D01*
X-637708Y354744D01*
X-637701Y354750D01*
X-637701Y371250D01*
X-637737Y371297D01*
X-637744Y371292D01*
X-637750Y371299D01*
X-654250Y371299D01*
X-654297Y371263D01*
X-654297Y371262D01*
X-654292Y371255D01*
X-654299Y371250D01*
X-654299Y354750D01*
X-654263Y354703D01*
X-654256Y354708D01*
X-654250Y354701D01*
X-637750Y354701D01*
X-637703Y354737D01*
G37*
G36*
X-293703Y112737D02*
X-293703Y112737D01*
X-293708Y112744D01*
X-293701Y112750D01*
X-293701Y129250D01*
X-293737Y129297D01*
X-293744Y129292D01*
X-293750Y129299D01*
X-310250Y129299D01*
X-310297Y129263D01*
X-310297Y129262D01*
X-310292Y129255D01*
X-310299Y129250D01*
X-310299Y112750D01*
X-310263Y112703D01*
X-310256Y112708D01*
X-310250Y112701D01*
X-293750Y112701D01*
X-293703Y112737D01*
G37*
G36*
X-331703Y245237D02*
X-331703Y245237D01*
X-331708Y245244D01*
X-331701Y245250D01*
X-331701Y261750D01*
X-331737Y261797D01*
X-331744Y261792D01*
X-331750Y261799D01*
X-348250Y261799D01*
X-348297Y261763D01*
X-348297Y261762D01*
X-348292Y261755D01*
X-348299Y261750D01*
X-348299Y245250D01*
X-348263Y245203D01*
X-348256Y245208D01*
X-348250Y245201D01*
X-331750Y245201D01*
X-331703Y245237D01*
G37*
G36*
X-331703Y163237D02*
X-331703Y163237D01*
X-331708Y163244D01*
X-331701Y163250D01*
X-331701Y179750D01*
X-331737Y179797D01*
X-331744Y179792D01*
X-331750Y179799D01*
X-348250Y179799D01*
X-348297Y179763D01*
X-348297Y179762D01*
X-348292Y179755D01*
X-348299Y179750D01*
X-348299Y163250D01*
X-348263Y163203D01*
X-348256Y163208D01*
X-348250Y163201D01*
X-331750Y163201D01*
X-331703Y163237D01*
G37*
G36*
X-608703Y167737D02*
X-608703Y167737D01*
X-608708Y167744D01*
X-608701Y167750D01*
X-608701Y184250D01*
X-608737Y184297D01*
X-608744Y184292D01*
X-608750Y184299D01*
X-625250Y184299D01*
X-625297Y184263D01*
X-625297Y184262D01*
X-625292Y184255D01*
X-625299Y184250D01*
X-625299Y167750D01*
X-625263Y167703D01*
X-625256Y167708D01*
X-625250Y167701D01*
X-608750Y167701D01*
X-608703Y167737D01*
G37*
G36*
X-429703Y190737D02*
X-429703Y190737D01*
X-429708Y190744D01*
X-429701Y190750D01*
X-429701Y207250D01*
X-429737Y207297D01*
X-429744Y207292D01*
X-429750Y207299D01*
X-446250Y207299D01*
X-446297Y207263D01*
X-446297Y207262D01*
X-446292Y207255D01*
X-446299Y207250D01*
X-446299Y190750D01*
X-446263Y190703D01*
X-446256Y190708D01*
X-446250Y190701D01*
X-429750Y190701D01*
X-429703Y190737D01*
G37*
G36*
X-294703Y194237D02*
X-294703Y194237D01*
X-294708Y194244D01*
X-294701Y194250D01*
X-294701Y210750D01*
X-294737Y210797D01*
X-294744Y210792D01*
X-294750Y210799D01*
X-311250Y210799D01*
X-311297Y210763D01*
X-311297Y210762D01*
X-311292Y210755D01*
X-311299Y210750D01*
X-311299Y194250D01*
X-311263Y194203D01*
X-311256Y194208D01*
X-311250Y194201D01*
X-294750Y194201D01*
X-294703Y194237D01*
G37*
G36*
X-436572Y216276D02*
X-436572Y216276D01*
X-436567Y216280D01*
X-436563Y216277D01*
X-435182Y216647D01*
X-435178Y216653D01*
X-435174Y216650D01*
X-433879Y217254D01*
X-433876Y217260D01*
X-433872Y217259D01*
X-432701Y218078D01*
X-432699Y218084D01*
X-432694Y218083D01*
X-431683Y219094D01*
X-431682Y219101D01*
X-431678Y219101D01*
X-430859Y220272D01*
X-430859Y220278D01*
X-430854Y220279D01*
X-430250Y221574D01*
X-430252Y221581D01*
X-430247Y221582D01*
X-429877Y222963D01*
X-429880Y222969D01*
X-429876Y222972D01*
X-429751Y224396D01*
X-429754Y224401D01*
X-429751Y224404D01*
X-429876Y225828D01*
X-429880Y225833D01*
X-429877Y225837D01*
X-430247Y227218D01*
X-430253Y227222D01*
X-430250Y227226D01*
X-430854Y228521D01*
X-430860Y228524D01*
X-430859Y228528D01*
X-431678Y229699D01*
X-431684Y229701D01*
X-431683Y229706D01*
X-432694Y230717D01*
X-432701Y230718D01*
X-432701Y230722D01*
X-433872Y231541D01*
X-433878Y231541D01*
X-433879Y231546D01*
X-435174Y232150D01*
X-435181Y232148D01*
X-435182Y232153D01*
X-436563Y232523D01*
X-436569Y232520D01*
X-436572Y232524D01*
X-437996Y232649D01*
X-438001Y232646D01*
X-438004Y232649D01*
X-439428Y232524D01*
X-439433Y232520D01*
X-439437Y232523D01*
X-440818Y232153D01*
X-440822Y232147D01*
X-440826Y232150D01*
X-442121Y231546D01*
X-442124Y231540D01*
X-442128Y231541D01*
X-443299Y230722D01*
X-443301Y230716D01*
X-443306Y230717D01*
X-444317Y229706D01*
X-444318Y229699D01*
X-444322Y229699D01*
X-445141Y228528D01*
X-445141Y228522D01*
X-445146Y228521D01*
X-445750Y227226D01*
X-445748Y227220D01*
X-445753Y227218D01*
X-446123Y225837D01*
X-446120Y225831D01*
X-446124Y225828D01*
X-446249Y224404D01*
X-446246Y224399D01*
X-446249Y224396D01*
X-446124Y222972D01*
X-446120Y222967D01*
X-446123Y222963D01*
X-445753Y221582D01*
X-445747Y221578D01*
X-445750Y221574D01*
X-445146Y220279D01*
X-445140Y220276D01*
X-445141Y220272D01*
X-444322Y219101D01*
X-444316Y219099D01*
X-444317Y219094D01*
X-443306Y218083D01*
X-443299Y218082D01*
X-443299Y218078D01*
X-442128Y217259D01*
X-442122Y217259D01*
X-442121Y217254D01*
X-440826Y216650D01*
X-440820Y216652D01*
X-440818Y216647D01*
X-439437Y216277D01*
X-439431Y216280D01*
X-439428Y216276D01*
X-438004Y216151D01*
X-437999Y216154D01*
X-437996Y216151D01*
X-436572Y216276D01*
G37*
G36*
X-338572Y194576D02*
X-338572Y194576D01*
X-338567Y194580D01*
X-338563Y194577D01*
X-337182Y194947D01*
X-337178Y194953D01*
X-337174Y194950D01*
X-335879Y195554D01*
X-335876Y195560D01*
X-335872Y195559D01*
X-334701Y196378D01*
X-334699Y196384D01*
X-334694Y196383D01*
X-333683Y197394D01*
X-333682Y197401D01*
X-333678Y197401D01*
X-332859Y198572D01*
X-332859Y198578D01*
X-332854Y198579D01*
X-332250Y199874D01*
X-332252Y199881D01*
X-332247Y199882D01*
X-331877Y201263D01*
X-331880Y201269D01*
X-331876Y201272D01*
X-331751Y202696D01*
X-331754Y202701D01*
X-331751Y202704D01*
X-331876Y204128D01*
X-331880Y204133D01*
X-331877Y204137D01*
X-332247Y205518D01*
X-332253Y205522D01*
X-332250Y205526D01*
X-332854Y206821D01*
X-332860Y206824D01*
X-332859Y206828D01*
X-333678Y207999D01*
X-333684Y208001D01*
X-333683Y208006D01*
X-334694Y209017D01*
X-334701Y209018D01*
X-334701Y209022D01*
X-335872Y209841D01*
X-335878Y209841D01*
X-335879Y209846D01*
X-337174Y210450D01*
X-337181Y210448D01*
X-337182Y210453D01*
X-338563Y210823D01*
X-338569Y210820D01*
X-338572Y210824D01*
X-339996Y210949D01*
X-340001Y210946D01*
X-340004Y210949D01*
X-341428Y210824D01*
X-341433Y210820D01*
X-341437Y210823D01*
X-342818Y210453D01*
X-342822Y210447D01*
X-342826Y210450D01*
X-344121Y209846D01*
X-344124Y209840D01*
X-344128Y209841D01*
X-345299Y209022D01*
X-345301Y209016D01*
X-345306Y209017D01*
X-346317Y208006D01*
X-346318Y207999D01*
X-346322Y207999D01*
X-347141Y206828D01*
X-347141Y206822D01*
X-347146Y206821D01*
X-347750Y205526D01*
X-347748Y205520D01*
X-347753Y205518D01*
X-348123Y204137D01*
X-348120Y204131D01*
X-348124Y204128D01*
X-348249Y202704D01*
X-348246Y202699D01*
X-348249Y202696D01*
X-348124Y201272D01*
X-348120Y201267D01*
X-348123Y201263D01*
X-347753Y199882D01*
X-347747Y199878D01*
X-347750Y199874D01*
X-347146Y198579D01*
X-347140Y198576D01*
X-347141Y198572D01*
X-346322Y197401D01*
X-346316Y197399D01*
X-346317Y197394D01*
X-345306Y196383D01*
X-345299Y196382D01*
X-345299Y196378D01*
X-344128Y195559D01*
X-344122Y195559D01*
X-344121Y195554D01*
X-342826Y194950D01*
X-342820Y194952D01*
X-342818Y194947D01*
X-341437Y194577D01*
X-341431Y194580D01*
X-341428Y194576D01*
X-340004Y194451D01*
X-339999Y194454D01*
X-339996Y194451D01*
X-338572Y194576D01*
G37*
G36*
X-301572Y219776D02*
X-301572Y219776D01*
X-301567Y219780D01*
X-301563Y219777D01*
X-300182Y220147D01*
X-300178Y220153D01*
X-300174Y220150D01*
X-298879Y220754D01*
X-298876Y220760D01*
X-298872Y220759D01*
X-297701Y221578D01*
X-297699Y221584D01*
X-297694Y221583D01*
X-296683Y222594D01*
X-296682Y222601D01*
X-296678Y222601D01*
X-295859Y223772D01*
X-295859Y223778D01*
X-295854Y223779D01*
X-295250Y225074D01*
X-295252Y225081D01*
X-295247Y225082D01*
X-294877Y226463D01*
X-294880Y226469D01*
X-294876Y226472D01*
X-294751Y227896D01*
X-294754Y227901D01*
X-294751Y227904D01*
X-294876Y229328D01*
X-294880Y229333D01*
X-294877Y229337D01*
X-295247Y230718D01*
X-295253Y230722D01*
X-295250Y230726D01*
X-295854Y232021D01*
X-295860Y232024D01*
X-295859Y232028D01*
X-296678Y233199D01*
X-296684Y233201D01*
X-296683Y233206D01*
X-297694Y234217D01*
X-297701Y234218D01*
X-297701Y234222D01*
X-298872Y235041D01*
X-298878Y235041D01*
X-298879Y235046D01*
X-300174Y235650D01*
X-300181Y235648D01*
X-300182Y235653D01*
X-301563Y236023D01*
X-301569Y236020D01*
X-301572Y236024D01*
X-302996Y236149D01*
X-303001Y236146D01*
X-303004Y236149D01*
X-304428Y236024D01*
X-304433Y236020D01*
X-304437Y236023D01*
X-305818Y235653D01*
X-305822Y235647D01*
X-305826Y235650D01*
X-307121Y235046D01*
X-307124Y235040D01*
X-307128Y235041D01*
X-308299Y234222D01*
X-308301Y234216D01*
X-308306Y234217D01*
X-309317Y233206D01*
X-309318Y233199D01*
X-309322Y233199D01*
X-310141Y232028D01*
X-310141Y232022D01*
X-310146Y232021D01*
X-310750Y230726D01*
X-310748Y230720D01*
X-310753Y230718D01*
X-311123Y229337D01*
X-311120Y229331D01*
X-311124Y229328D01*
X-311249Y227904D01*
X-311246Y227899D01*
X-311249Y227896D01*
X-311124Y226472D01*
X-311120Y226467D01*
X-311123Y226463D01*
X-310753Y225082D01*
X-310747Y225078D01*
X-310750Y225074D01*
X-310146Y223779D01*
X-310140Y223776D01*
X-310141Y223772D01*
X-309322Y222601D01*
X-309316Y222599D01*
X-309317Y222594D01*
X-308306Y221583D01*
X-308299Y221582D01*
X-308299Y221578D01*
X-307128Y220759D01*
X-307122Y220759D01*
X-307121Y220754D01*
X-305826Y220150D01*
X-305820Y220152D01*
X-305818Y220147D01*
X-304437Y219777D01*
X-304431Y219780D01*
X-304428Y219776D01*
X-303004Y219651D01*
X-302999Y219654D01*
X-302996Y219651D01*
X-301572Y219776D01*
G37*
G36*
X-338572Y219976D02*
X-338572Y219976D01*
X-338567Y219980D01*
X-338563Y219977D01*
X-337182Y220347D01*
X-337178Y220353D01*
X-337174Y220350D01*
X-335879Y220954D01*
X-335876Y220960D01*
X-335872Y220959D01*
X-334701Y221778D01*
X-334699Y221784D01*
X-334694Y221783D01*
X-333683Y222794D01*
X-333682Y222801D01*
X-333678Y222801D01*
X-332859Y223972D01*
X-332859Y223978D01*
X-332854Y223979D01*
X-332250Y225274D01*
X-332252Y225281D01*
X-332247Y225282D01*
X-331877Y226663D01*
X-331880Y226669D01*
X-331876Y226672D01*
X-331751Y228096D01*
X-331754Y228101D01*
X-331751Y228104D01*
X-331876Y229528D01*
X-331880Y229533D01*
X-331877Y229537D01*
X-332247Y230918D01*
X-332253Y230922D01*
X-332250Y230926D01*
X-332854Y232221D01*
X-332860Y232224D01*
X-332859Y232228D01*
X-333678Y233399D01*
X-333684Y233401D01*
X-333683Y233406D01*
X-334694Y234417D01*
X-334701Y234418D01*
X-334701Y234422D01*
X-335872Y235241D01*
X-335878Y235241D01*
X-335879Y235246D01*
X-337174Y235850D01*
X-337181Y235848D01*
X-337182Y235853D01*
X-338563Y236223D01*
X-338569Y236220D01*
X-338572Y236224D01*
X-339996Y236349D01*
X-340001Y236346D01*
X-340004Y236349D01*
X-341428Y236224D01*
X-341433Y236220D01*
X-341437Y236223D01*
X-342818Y235853D01*
X-342822Y235847D01*
X-342826Y235850D01*
X-344121Y235246D01*
X-344124Y235240D01*
X-344128Y235241D01*
X-345299Y234422D01*
X-345301Y234416D01*
X-345306Y234417D01*
X-346317Y233406D01*
X-346318Y233399D01*
X-346322Y233399D01*
X-347141Y232228D01*
X-347141Y232222D01*
X-347146Y232221D01*
X-347750Y230926D01*
X-347748Y230920D01*
X-347753Y230918D01*
X-348123Y229537D01*
X-348120Y229531D01*
X-348124Y229528D01*
X-348249Y228104D01*
X-348246Y228099D01*
X-348249Y228096D01*
X-348124Y226672D01*
X-348120Y226667D01*
X-348123Y226663D01*
X-347753Y225282D01*
X-347747Y225278D01*
X-347750Y225274D01*
X-347146Y223979D01*
X-347140Y223976D01*
X-347141Y223972D01*
X-346322Y222801D01*
X-346316Y222799D01*
X-346317Y222794D01*
X-345306Y221783D01*
X-345299Y221782D01*
X-345299Y221778D01*
X-344128Y220959D01*
X-344122Y220959D01*
X-344121Y220954D01*
X-342826Y220350D01*
X-342820Y220352D01*
X-342818Y220347D01*
X-341437Y219977D01*
X-341431Y219980D01*
X-341428Y219976D01*
X-340004Y219851D01*
X-339999Y219854D01*
X-339996Y219851D01*
X-338572Y219976D01*
G37*
G36*
X-436572Y241676D02*
X-436572Y241676D01*
X-436567Y241680D01*
X-436563Y241677D01*
X-435182Y242047D01*
X-435178Y242053D01*
X-435174Y242050D01*
X-433879Y242654D01*
X-433876Y242660D01*
X-433872Y242659D01*
X-432701Y243478D01*
X-432699Y243484D01*
X-432694Y243483D01*
X-431683Y244494D01*
X-431682Y244501D01*
X-431678Y244501D01*
X-430859Y245672D01*
X-430859Y245678D01*
X-430854Y245679D01*
X-430250Y246974D01*
X-430252Y246981D01*
X-430247Y246982D01*
X-429877Y248363D01*
X-429880Y248369D01*
X-429876Y248372D01*
X-429751Y249796D01*
X-429754Y249801D01*
X-429751Y249804D01*
X-429876Y251228D01*
X-429880Y251233D01*
X-429877Y251237D01*
X-430247Y252618D01*
X-430253Y252622D01*
X-430250Y252626D01*
X-430854Y253921D01*
X-430860Y253924D01*
X-430859Y253928D01*
X-431678Y255099D01*
X-431684Y255101D01*
X-431683Y255106D01*
X-432694Y256117D01*
X-432701Y256118D01*
X-432701Y256122D01*
X-433872Y256941D01*
X-433878Y256941D01*
X-433879Y256946D01*
X-435174Y257550D01*
X-435181Y257548D01*
X-435182Y257553D01*
X-436563Y257923D01*
X-436569Y257920D01*
X-436572Y257924D01*
X-437996Y258049D01*
X-438001Y258046D01*
X-438004Y258049D01*
X-439428Y257924D01*
X-439433Y257920D01*
X-439437Y257923D01*
X-440818Y257553D01*
X-440822Y257547D01*
X-440826Y257550D01*
X-442121Y256946D01*
X-442124Y256940D01*
X-442128Y256941D01*
X-443299Y256122D01*
X-443301Y256116D01*
X-443306Y256117D01*
X-444317Y255106D01*
X-444318Y255099D01*
X-444322Y255099D01*
X-445141Y253928D01*
X-445141Y253922D01*
X-445146Y253921D01*
X-445750Y252626D01*
X-445748Y252620D01*
X-445753Y252618D01*
X-446123Y251237D01*
X-446120Y251231D01*
X-446124Y251228D01*
X-446249Y249804D01*
X-446246Y249799D01*
X-446249Y249796D01*
X-446124Y248372D01*
X-446120Y248367D01*
X-446123Y248363D01*
X-445753Y246982D01*
X-445747Y246978D01*
X-445750Y246974D01*
X-445146Y245679D01*
X-445140Y245676D01*
X-445141Y245672D01*
X-444322Y244501D01*
X-444316Y244499D01*
X-444317Y244494D01*
X-443306Y243483D01*
X-443299Y243482D01*
X-443299Y243478D01*
X-442128Y242659D01*
X-442122Y242659D01*
X-442121Y242654D01*
X-440826Y242050D01*
X-440820Y242052D01*
X-440818Y242047D01*
X-439437Y241677D01*
X-439431Y241680D01*
X-439428Y241676D01*
X-438004Y241551D01*
X-437999Y241554D01*
X-437996Y241551D01*
X-436572Y241676D01*
G37*
G36*
X-590172Y167876D02*
X-590172Y167876D01*
X-590167Y167880D01*
X-590163Y167877D01*
X-588782Y168247D01*
X-588778Y168253D01*
X-588774Y168250D01*
X-587479Y168854D01*
X-587476Y168860D01*
X-587472Y168859D01*
X-586301Y169678D01*
X-586299Y169684D01*
X-586294Y169683D01*
X-585283Y170694D01*
X-585282Y170701D01*
X-585278Y170701D01*
X-584459Y171872D01*
X-584459Y171878D01*
X-584454Y171879D01*
X-583850Y173174D01*
X-583852Y173181D01*
X-583847Y173182D01*
X-583477Y174563D01*
X-583480Y174569D01*
X-583476Y174572D01*
X-583351Y175996D01*
X-583354Y176001D01*
X-583351Y176004D01*
X-583476Y177428D01*
X-583480Y177433D01*
X-583477Y177437D01*
X-583847Y178818D01*
X-583853Y178822D01*
X-583850Y178826D01*
X-584454Y180121D01*
X-584460Y180124D01*
X-584459Y180128D01*
X-585278Y181299D01*
X-585284Y181301D01*
X-585283Y181306D01*
X-586294Y182317D01*
X-586301Y182318D01*
X-586301Y182322D01*
X-587472Y183141D01*
X-587478Y183141D01*
X-587479Y183146D01*
X-588774Y183750D01*
X-588781Y183748D01*
X-588782Y183753D01*
X-590163Y184123D01*
X-590169Y184120D01*
X-590172Y184124D01*
X-591596Y184249D01*
X-591601Y184246D01*
X-591604Y184249D01*
X-593028Y184124D01*
X-593033Y184120D01*
X-593037Y184123D01*
X-594418Y183753D01*
X-594422Y183747D01*
X-594426Y183750D01*
X-595721Y183146D01*
X-595724Y183140D01*
X-595728Y183141D01*
X-596899Y182322D01*
X-596901Y182316D01*
X-596906Y182317D01*
X-597917Y181306D01*
X-597918Y181299D01*
X-597922Y181299D01*
X-598741Y180128D01*
X-598741Y180122D01*
X-598746Y180121D01*
X-599350Y178826D01*
X-599348Y178820D01*
X-599353Y178818D01*
X-599723Y177437D01*
X-599720Y177431D01*
X-599724Y177428D01*
X-599849Y176004D01*
X-599846Y175999D01*
X-599849Y175996D01*
X-599724Y174572D01*
X-599720Y174567D01*
X-599723Y174563D01*
X-599353Y173182D01*
X-599347Y173178D01*
X-599350Y173174D01*
X-598746Y171879D01*
X-598740Y171876D01*
X-598741Y171872D01*
X-597922Y170701D01*
X-597916Y170699D01*
X-597917Y170694D01*
X-596906Y169683D01*
X-596899Y169682D01*
X-596899Y169678D01*
X-595728Y168859D01*
X-595722Y168859D01*
X-595721Y168854D01*
X-594426Y168250D01*
X-594420Y168252D01*
X-594418Y168247D01*
X-593037Y167877D01*
X-593031Y167880D01*
X-593028Y167876D01*
X-591604Y167751D01*
X-591599Y167754D01*
X-591596Y167751D01*
X-590172Y167876D01*
G37*
G36*
X-564772Y167876D02*
X-564772Y167876D01*
X-564767Y167880D01*
X-564763Y167877D01*
X-563382Y168247D01*
X-563378Y168253D01*
X-563374Y168250D01*
X-562079Y168854D01*
X-562076Y168860D01*
X-562072Y168859D01*
X-560901Y169678D01*
X-560899Y169684D01*
X-560894Y169683D01*
X-559883Y170694D01*
X-559882Y170701D01*
X-559878Y170701D01*
X-559059Y171872D01*
X-559059Y171878D01*
X-559054Y171879D01*
X-558450Y173174D01*
X-558452Y173181D01*
X-558447Y173182D01*
X-558077Y174563D01*
X-558080Y174569D01*
X-558076Y174572D01*
X-557951Y175996D01*
X-557954Y176001D01*
X-557951Y176004D01*
X-558076Y177428D01*
X-558080Y177433D01*
X-558077Y177437D01*
X-558447Y178818D01*
X-558453Y178822D01*
X-558450Y178826D01*
X-559054Y180121D01*
X-559060Y180124D01*
X-559059Y180128D01*
X-559878Y181299D01*
X-559884Y181301D01*
X-559883Y181306D01*
X-560894Y182317D01*
X-560901Y182318D01*
X-560901Y182322D01*
X-562072Y183141D01*
X-562078Y183141D01*
X-562079Y183146D01*
X-563374Y183750D01*
X-563381Y183748D01*
X-563382Y183753D01*
X-564763Y184123D01*
X-564769Y184120D01*
X-564772Y184124D01*
X-566196Y184249D01*
X-566201Y184246D01*
X-566204Y184249D01*
X-567628Y184124D01*
X-567633Y184120D01*
X-567637Y184123D01*
X-569018Y183753D01*
X-569022Y183747D01*
X-569026Y183750D01*
X-570321Y183146D01*
X-570324Y183140D01*
X-570328Y183141D01*
X-571499Y182322D01*
X-571501Y182316D01*
X-571506Y182317D01*
X-572517Y181306D01*
X-572518Y181299D01*
X-572522Y181299D01*
X-573341Y180128D01*
X-573341Y180122D01*
X-573346Y180121D01*
X-573950Y178826D01*
X-573948Y178820D01*
X-573953Y178818D01*
X-574323Y177437D01*
X-574320Y177431D01*
X-574324Y177428D01*
X-574449Y176004D01*
X-574446Y175999D01*
X-574449Y175996D01*
X-574324Y174572D01*
X-574320Y174567D01*
X-574323Y174563D01*
X-573953Y173182D01*
X-573947Y173178D01*
X-573950Y173174D01*
X-573346Y171879D01*
X-573340Y171876D01*
X-573341Y171872D01*
X-572522Y170701D01*
X-572516Y170699D01*
X-572517Y170694D01*
X-571506Y169683D01*
X-571499Y169682D01*
X-571499Y169678D01*
X-570328Y168859D01*
X-570322Y168859D01*
X-570321Y168854D01*
X-569026Y168250D01*
X-569020Y168252D01*
X-569018Y168247D01*
X-567637Y167877D01*
X-567631Y167880D01*
X-567628Y167876D01*
X-566204Y167751D01*
X-566199Y167754D01*
X-566196Y167751D01*
X-564772Y167876D01*
G37*
G36*
X-300572Y163676D02*
X-300572Y163676D01*
X-300567Y163680D01*
X-300563Y163677D01*
X-299182Y164047D01*
X-299178Y164053D01*
X-299174Y164050D01*
X-297879Y164654D01*
X-297876Y164660D01*
X-297872Y164659D01*
X-296701Y165478D01*
X-296699Y165484D01*
X-296694Y165483D01*
X-295683Y166494D01*
X-295682Y166501D01*
X-295678Y166501D01*
X-294859Y167672D01*
X-294859Y167678D01*
X-294854Y167679D01*
X-294250Y168974D01*
X-294252Y168981D01*
X-294247Y168982D01*
X-293877Y170363D01*
X-293880Y170369D01*
X-293876Y170372D01*
X-293751Y171796D01*
X-293754Y171801D01*
X-293751Y171804D01*
X-293876Y173228D01*
X-293880Y173233D01*
X-293877Y173237D01*
X-294247Y174618D01*
X-294253Y174622D01*
X-294250Y174626D01*
X-294854Y175921D01*
X-294860Y175924D01*
X-294859Y175928D01*
X-295678Y177099D01*
X-295684Y177101D01*
X-295683Y177106D01*
X-296694Y178117D01*
X-296701Y178118D01*
X-296701Y178122D01*
X-297872Y178941D01*
X-297878Y178941D01*
X-297879Y178946D01*
X-299174Y179550D01*
X-299181Y179548D01*
X-299182Y179553D01*
X-300563Y179923D01*
X-300569Y179920D01*
X-300572Y179924D01*
X-301996Y180049D01*
X-302001Y180046D01*
X-302004Y180049D01*
X-303428Y179924D01*
X-303433Y179920D01*
X-303437Y179923D01*
X-304818Y179553D01*
X-304822Y179547D01*
X-304826Y179550D01*
X-306121Y178946D01*
X-306124Y178940D01*
X-306128Y178941D01*
X-307299Y178122D01*
X-307301Y178116D01*
X-307306Y178117D01*
X-308317Y177106D01*
X-308318Y177099D01*
X-308322Y177099D01*
X-309141Y175928D01*
X-309141Y175922D01*
X-309146Y175921D01*
X-309750Y174626D01*
X-309748Y174620D01*
X-309753Y174618D01*
X-310123Y173237D01*
X-310120Y173231D01*
X-310124Y173228D01*
X-310249Y171804D01*
X-310246Y171799D01*
X-310249Y171796D01*
X-310124Y170372D01*
X-310120Y170367D01*
X-310123Y170363D01*
X-309753Y168982D01*
X-309747Y168978D01*
X-309750Y168974D01*
X-309146Y167679D01*
X-309140Y167676D01*
X-309141Y167672D01*
X-308322Y166501D01*
X-308316Y166499D01*
X-308317Y166494D01*
X-307306Y165483D01*
X-307299Y165482D01*
X-307299Y165478D01*
X-306128Y164659D01*
X-306122Y164659D01*
X-306121Y164654D01*
X-304826Y164050D01*
X-304820Y164052D01*
X-304818Y164047D01*
X-303437Y163677D01*
X-303431Y163680D01*
X-303428Y163676D01*
X-302004Y163551D01*
X-301999Y163554D01*
X-301996Y163551D01*
X-300572Y163676D01*
G37*
G36*
X-301572Y245176D02*
X-301572Y245176D01*
X-301567Y245180D01*
X-301563Y245177D01*
X-300182Y245547D01*
X-300178Y245553D01*
X-300174Y245550D01*
X-298879Y246154D01*
X-298876Y246160D01*
X-298872Y246159D01*
X-297701Y246978D01*
X-297699Y246984D01*
X-297694Y246983D01*
X-296683Y247994D01*
X-296682Y248001D01*
X-296678Y248001D01*
X-295859Y249172D01*
X-295859Y249178D01*
X-295854Y249179D01*
X-295250Y250474D01*
X-295252Y250481D01*
X-295247Y250482D01*
X-294877Y251863D01*
X-294880Y251869D01*
X-294876Y251872D01*
X-294751Y253296D01*
X-294754Y253301D01*
X-294751Y253304D01*
X-294876Y254728D01*
X-294880Y254733D01*
X-294877Y254737D01*
X-295247Y256118D01*
X-295253Y256122D01*
X-295250Y256126D01*
X-295854Y257421D01*
X-295860Y257424D01*
X-295859Y257428D01*
X-296678Y258599D01*
X-296684Y258601D01*
X-296683Y258606D01*
X-297694Y259617D01*
X-297701Y259618D01*
X-297701Y259622D01*
X-298872Y260441D01*
X-298878Y260441D01*
X-298879Y260446D01*
X-300174Y261050D01*
X-300181Y261048D01*
X-300182Y261053D01*
X-301563Y261423D01*
X-301569Y261420D01*
X-301572Y261424D01*
X-302996Y261549D01*
X-303001Y261546D01*
X-303004Y261549D01*
X-304428Y261424D01*
X-304433Y261420D01*
X-304437Y261423D01*
X-305818Y261053D01*
X-305822Y261047D01*
X-305826Y261050D01*
X-307121Y260446D01*
X-307124Y260440D01*
X-307128Y260441D01*
X-308299Y259622D01*
X-308301Y259616D01*
X-308306Y259617D01*
X-309317Y258606D01*
X-309318Y258599D01*
X-309322Y258599D01*
X-310141Y257428D01*
X-310141Y257422D01*
X-310146Y257421D01*
X-310750Y256126D01*
X-310748Y256120D01*
X-310753Y256118D01*
X-311123Y254737D01*
X-311120Y254731D01*
X-311124Y254728D01*
X-311249Y253304D01*
X-311246Y253299D01*
X-311249Y253296D01*
X-311124Y251872D01*
X-311120Y251867D01*
X-311123Y251863D01*
X-310753Y250482D01*
X-310747Y250478D01*
X-310750Y250474D01*
X-310146Y249179D01*
X-310140Y249176D01*
X-310141Y249172D01*
X-309322Y248001D01*
X-309316Y247999D01*
X-309317Y247994D01*
X-308306Y246983D01*
X-308299Y246982D01*
X-308299Y246978D01*
X-307128Y246159D01*
X-307122Y246159D01*
X-307121Y246154D01*
X-305826Y245550D01*
X-305820Y245552D01*
X-305818Y245547D01*
X-304437Y245177D01*
X-304431Y245180D01*
X-304428Y245176D01*
X-303004Y245051D01*
X-302999Y245054D01*
X-302996Y245051D01*
X-301572Y245176D01*
G37*
G36*
X-300572Y138276D02*
X-300572Y138276D01*
X-300567Y138280D01*
X-300563Y138277D01*
X-299182Y138647D01*
X-299178Y138653D01*
X-299174Y138650D01*
X-297879Y139254D01*
X-297876Y139260D01*
X-297872Y139259D01*
X-296701Y140078D01*
X-296699Y140084D01*
X-296694Y140083D01*
X-295683Y141094D01*
X-295682Y141101D01*
X-295678Y141101D01*
X-294859Y142272D01*
X-294859Y142278D01*
X-294854Y142279D01*
X-294250Y143574D01*
X-294252Y143581D01*
X-294247Y143582D01*
X-293877Y144963D01*
X-293880Y144969D01*
X-293876Y144972D01*
X-293751Y146396D01*
X-293754Y146401D01*
X-293751Y146404D01*
X-293876Y147828D01*
X-293880Y147833D01*
X-293877Y147837D01*
X-294247Y149218D01*
X-294253Y149222D01*
X-294250Y149226D01*
X-294854Y150521D01*
X-294860Y150524D01*
X-294859Y150528D01*
X-295678Y151699D01*
X-295684Y151701D01*
X-295683Y151706D01*
X-296694Y152717D01*
X-296701Y152718D01*
X-296701Y152722D01*
X-297872Y153541D01*
X-297878Y153541D01*
X-297879Y153546D01*
X-299174Y154150D01*
X-299181Y154148D01*
X-299182Y154153D01*
X-300563Y154523D01*
X-300569Y154520D01*
X-300572Y154524D01*
X-301996Y154649D01*
X-302001Y154646D01*
X-302004Y154649D01*
X-303428Y154524D01*
X-303433Y154520D01*
X-303437Y154523D01*
X-304818Y154153D01*
X-304822Y154147D01*
X-304826Y154150D01*
X-306121Y153546D01*
X-306124Y153540D01*
X-306128Y153541D01*
X-307299Y152722D01*
X-307301Y152716D01*
X-307306Y152717D01*
X-308317Y151706D01*
X-308318Y151699D01*
X-308322Y151699D01*
X-309141Y150528D01*
X-309141Y150522D01*
X-309146Y150521D01*
X-309750Y149226D01*
X-309748Y149220D01*
X-309753Y149218D01*
X-310123Y147837D01*
X-310120Y147831D01*
X-310124Y147828D01*
X-310249Y146404D01*
X-310246Y146399D01*
X-310249Y146396D01*
X-310124Y144972D01*
X-310120Y144967D01*
X-310123Y144963D01*
X-309753Y143582D01*
X-309747Y143578D01*
X-309750Y143574D01*
X-309146Y142279D01*
X-309140Y142276D01*
X-309141Y142272D01*
X-308322Y141101D01*
X-308316Y141099D01*
X-308317Y141094D01*
X-307306Y140083D01*
X-307299Y140082D01*
X-307299Y140078D01*
X-306128Y139259D01*
X-306122Y139259D01*
X-306121Y139254D01*
X-304826Y138650D01*
X-304820Y138652D01*
X-304818Y138647D01*
X-303437Y138277D01*
X-303431Y138280D01*
X-303428Y138276D01*
X-302004Y138151D01*
X-301999Y138154D01*
X-301996Y138151D01*
X-300572Y138276D01*
G37*
G36*
X-338572Y137976D02*
X-338572Y137976D01*
X-338567Y137980D01*
X-338563Y137977D01*
X-337182Y138347D01*
X-337178Y138353D01*
X-337174Y138350D01*
X-335879Y138954D01*
X-335876Y138960D01*
X-335872Y138959D01*
X-334701Y139778D01*
X-334699Y139784D01*
X-334694Y139783D01*
X-333683Y140794D01*
X-333682Y140801D01*
X-333678Y140801D01*
X-332859Y141972D01*
X-332859Y141978D01*
X-332854Y141979D01*
X-332250Y143274D01*
X-332252Y143281D01*
X-332247Y143282D01*
X-331877Y144663D01*
X-331880Y144669D01*
X-331876Y144672D01*
X-331751Y146096D01*
X-331754Y146101D01*
X-331751Y146104D01*
X-331876Y147528D01*
X-331880Y147533D01*
X-331877Y147537D01*
X-332247Y148918D01*
X-332253Y148922D01*
X-332250Y148926D01*
X-332854Y150221D01*
X-332860Y150224D01*
X-332859Y150228D01*
X-333678Y151399D01*
X-333684Y151401D01*
X-333683Y151406D01*
X-334694Y152417D01*
X-334701Y152418D01*
X-334701Y152422D01*
X-335872Y153241D01*
X-335878Y153241D01*
X-335879Y153246D01*
X-337174Y153850D01*
X-337181Y153848D01*
X-337182Y153853D01*
X-338563Y154223D01*
X-338569Y154220D01*
X-338572Y154224D01*
X-339996Y154349D01*
X-340001Y154346D01*
X-340004Y154349D01*
X-341428Y154224D01*
X-341433Y154220D01*
X-341437Y154223D01*
X-342818Y153853D01*
X-342822Y153847D01*
X-342826Y153850D01*
X-344121Y153246D01*
X-344124Y153240D01*
X-344128Y153241D01*
X-345299Y152422D01*
X-345301Y152416D01*
X-345306Y152417D01*
X-346317Y151406D01*
X-346318Y151399D01*
X-346322Y151399D01*
X-347141Y150228D01*
X-347141Y150222D01*
X-347146Y150221D01*
X-347750Y148926D01*
X-347748Y148920D01*
X-347753Y148918D01*
X-348123Y147537D01*
X-348120Y147531D01*
X-348124Y147528D01*
X-348249Y146104D01*
X-348246Y146099D01*
X-348249Y146096D01*
X-348124Y144672D01*
X-348120Y144667D01*
X-348123Y144663D01*
X-347753Y143282D01*
X-347747Y143278D01*
X-347750Y143274D01*
X-347146Y141979D01*
X-347140Y141976D01*
X-347141Y141972D01*
X-346322Y140801D01*
X-346316Y140799D01*
X-346317Y140794D01*
X-345306Y139783D01*
X-345299Y139782D01*
X-345299Y139778D01*
X-344128Y138959D01*
X-344122Y138959D01*
X-344121Y138954D01*
X-342826Y138350D01*
X-342820Y138352D01*
X-342818Y138347D01*
X-341437Y137977D01*
X-341431Y137980D01*
X-341428Y137976D01*
X-340004Y137851D01*
X-339999Y137854D01*
X-339996Y137851D01*
X-338572Y137976D01*
G37*
G36*
X-669972Y354876D02*
X-669972Y354876D01*
X-669967Y354880D01*
X-669963Y354877D01*
X-668582Y355247D01*
X-668578Y355253D01*
X-668574Y355250D01*
X-667279Y355854D01*
X-667276Y355860D01*
X-667272Y355859D01*
X-666101Y356678D01*
X-666099Y356684D01*
X-666094Y356683D01*
X-665083Y357694D01*
X-665082Y357701D01*
X-665078Y357701D01*
X-664259Y358872D01*
X-664259Y358878D01*
X-664254Y358879D01*
X-663650Y360174D01*
X-663652Y360181D01*
X-663647Y360182D01*
X-663277Y361563D01*
X-663280Y361569D01*
X-663276Y361572D01*
X-663151Y362996D01*
X-663154Y363001D01*
X-663151Y363004D01*
X-663276Y364428D01*
X-663280Y364433D01*
X-663277Y364437D01*
X-663647Y365818D01*
X-663653Y365822D01*
X-663650Y365826D01*
X-664254Y367121D01*
X-664260Y367124D01*
X-664259Y367128D01*
X-665078Y368299D01*
X-665084Y368301D01*
X-665083Y368306D01*
X-666094Y369317D01*
X-666101Y369318D01*
X-666101Y369322D01*
X-667272Y370141D01*
X-667278Y370141D01*
X-667279Y370146D01*
X-668574Y370750D01*
X-668581Y370748D01*
X-668582Y370753D01*
X-669963Y371123D01*
X-669969Y371120D01*
X-669972Y371124D01*
X-671396Y371249D01*
X-671401Y371246D01*
X-671404Y371249D01*
X-672828Y371124D01*
X-672833Y371120D01*
X-672837Y371123D01*
X-674218Y370753D01*
X-674222Y370747D01*
X-674226Y370750D01*
X-675521Y370146D01*
X-675524Y370140D01*
X-675528Y370141D01*
X-676699Y369322D01*
X-676701Y369316D01*
X-676706Y369317D01*
X-677717Y368306D01*
X-677718Y368299D01*
X-677722Y368299D01*
X-678541Y367128D01*
X-678541Y367122D01*
X-678546Y367121D01*
X-679150Y365826D01*
X-679148Y365820D01*
X-679153Y365818D01*
X-679523Y364437D01*
X-679520Y364431D01*
X-679524Y364428D01*
X-679649Y363004D01*
X-679646Y362999D01*
X-679649Y362996D01*
X-679524Y361572D01*
X-679520Y361567D01*
X-679523Y361563D01*
X-679153Y360182D01*
X-679147Y360178D01*
X-679150Y360174D01*
X-678546Y358879D01*
X-678540Y358876D01*
X-678541Y358872D01*
X-677722Y357701D01*
X-677716Y357699D01*
X-677717Y357694D01*
X-676706Y356683D01*
X-676699Y356682D01*
X-676699Y356678D01*
X-675528Y355859D01*
X-675522Y355859D01*
X-675521Y355854D01*
X-674226Y355250D01*
X-674220Y355252D01*
X-674218Y355247D01*
X-672837Y354877D01*
X-672831Y354880D01*
X-672828Y354876D01*
X-671404Y354751D01*
X-671399Y354754D01*
X-671396Y354751D01*
X-669972Y354876D01*
G37*
G36*
X-338572Y112576D02*
X-338572Y112576D01*
X-338567Y112580D01*
X-338563Y112577D01*
X-337182Y112947D01*
X-337178Y112953D01*
X-337174Y112950D01*
X-335879Y113554D01*
X-335876Y113560D01*
X-335872Y113559D01*
X-334701Y114378D01*
X-334699Y114384D01*
X-334694Y114383D01*
X-333683Y115394D01*
X-333682Y115401D01*
X-333678Y115401D01*
X-332859Y116572D01*
X-332859Y116578D01*
X-332854Y116579D01*
X-332250Y117874D01*
X-332252Y117881D01*
X-332247Y117882D01*
X-331877Y119263D01*
X-331880Y119269D01*
X-331876Y119272D01*
X-331751Y120696D01*
X-331754Y120701D01*
X-331751Y120704D01*
X-331876Y122128D01*
X-331880Y122133D01*
X-331877Y122137D01*
X-332247Y123518D01*
X-332253Y123522D01*
X-332250Y123526D01*
X-332854Y124821D01*
X-332860Y124824D01*
X-332859Y124828D01*
X-333678Y125999D01*
X-333684Y126001D01*
X-333683Y126006D01*
X-334694Y127017D01*
X-334701Y127018D01*
X-334701Y127022D01*
X-335872Y127841D01*
X-335878Y127841D01*
X-335879Y127846D01*
X-337174Y128450D01*
X-337181Y128448D01*
X-337182Y128453D01*
X-338563Y128823D01*
X-338569Y128820D01*
X-338572Y128824D01*
X-339996Y128949D01*
X-340001Y128946D01*
X-340004Y128949D01*
X-341428Y128824D01*
X-341433Y128820D01*
X-341437Y128823D01*
X-342818Y128453D01*
X-342822Y128447D01*
X-342826Y128450D01*
X-344121Y127846D01*
X-344124Y127840D01*
X-344128Y127841D01*
X-345299Y127022D01*
X-345301Y127016D01*
X-345306Y127017D01*
X-346317Y126006D01*
X-346318Y125999D01*
X-346322Y125999D01*
X-347141Y124828D01*
X-347141Y124822D01*
X-347146Y124821D01*
X-347750Y123526D01*
X-347748Y123520D01*
X-347753Y123518D01*
X-348123Y122137D01*
X-348120Y122131D01*
X-348124Y122128D01*
X-348249Y120704D01*
X-348246Y120699D01*
X-348249Y120696D01*
X-348124Y119272D01*
X-348120Y119267D01*
X-348123Y119263D01*
X-347753Y117882D01*
X-347747Y117878D01*
X-347750Y117874D01*
X-347146Y116579D01*
X-347140Y116576D01*
X-347141Y116572D01*
X-346322Y115401D01*
X-346316Y115399D01*
X-346317Y115394D01*
X-345306Y114383D01*
X-345299Y114382D01*
X-345299Y114378D01*
X-344128Y113559D01*
X-344122Y113559D01*
X-344121Y113554D01*
X-342826Y112950D01*
X-342820Y112952D01*
X-342818Y112947D01*
X-341437Y112577D01*
X-341431Y112580D01*
X-341428Y112576D01*
X-340004Y112451D01*
X-339999Y112454D01*
X-339996Y112451D01*
X-338572Y112576D01*
G37*
D10*
X-700000Y403500D03*
X-700000Y471500D03*
D11*
X-303000Y202500D03*
D12*
X-303000Y227900D03*
X-303000Y253300D03*
D11*
X-340000Y253500D03*
D12*
X-340000Y228100D03*
X-340000Y202700D03*
D11*
X-340000Y171500D03*
D12*
X-340000Y146100D03*
X-340000Y120700D03*
D13*
X-571050Y461600D02*
X-571050Y476600D01*
X-596450Y476600D02*
X-596450Y461600D01*
D14*
X-285500Y46500D03*
X-310900Y46500D03*
X-336300Y46500D03*
X-361700Y46500D03*
X-387100Y46500D03*
X-412500Y46500D03*
D15*
X-510000Y337500D03*
X-520000Y315000D03*
X-607500Y340000D03*
X-590000Y317500D03*
X-610000Y390000D03*
X-585000Y407500D03*
X-532500Y407500D03*
X-502500Y387500D03*
X-288000Y314000D03*
X-288000Y278000D03*
D11*
X-617000Y176000D03*
D12*
X-591600Y176000D03*
X-566200Y176000D03*
D11*
X-302000Y121000D03*
D12*
X-302000Y146400D03*
X-302000Y171800D03*
D10*
X-448000Y469500D03*
X-492000Y469500D03*
D14*
X-575500Y46000D03*
X-600900Y46000D03*
X-626300Y46000D03*
X-651700Y46000D03*
X-677100Y46000D03*
X-702500Y46000D03*
D10*
X-460000Y49000D03*
X-528000Y49000D03*
D11*
X-438000Y199000D03*
D12*
X-438000Y224400D03*
X-438000Y249800D03*
M02*
