G04 EAGLE Gerber RS-274X export*
G75*
%MOMM*%
%FSLAX34Y34*%
%LPD*%
%INTop Inner Metal*%
%IPPOS*%
%AMOC8*
5,1,8,0,0,1.08239X$1,22.5*%
G01*
%ADD10C,0.352400*%
%ADD11C,1.350000*%
%ADD12C,1.500000*%
%ADD13C,1.950000*%
%ADD14C,0.152400*%
%ADD15C,0.454000*%
%ADD16C,0.127000*%
%ADD17C,0.635000*%

G36*
X380022Y-297495D02*
X380022Y-297495D01*
X380050Y-297497D01*
X383470Y-297228D01*
X383519Y-297215D01*
X383616Y-297199D01*
X390123Y-295085D01*
X390127Y-295082D01*
X390133Y-295082D01*
X390299Y-294995D01*
X395834Y-290974D01*
X395838Y-290970D01*
X395843Y-290967D01*
X395974Y-290834D01*
X399995Y-285299D01*
X399997Y-285294D01*
X400001Y-285290D01*
X400085Y-285123D01*
X402199Y-278616D01*
X402206Y-278568D01*
X402206Y-278565D01*
X402206Y-278564D01*
X402228Y-278470D01*
X402497Y-275050D01*
X402495Y-275028D01*
X402499Y-275000D01*
X402499Y260000D01*
X402495Y260022D01*
X402497Y260050D01*
X402228Y263470D01*
X402215Y263519D01*
X402199Y263616D01*
X400085Y270123D01*
X400082Y270127D01*
X400082Y270133D01*
X399995Y270299D01*
X395974Y275834D01*
X395970Y275838D01*
X395967Y275843D01*
X395834Y275974D01*
X390299Y279995D01*
X390294Y279997D01*
X390290Y280001D01*
X390123Y280085D01*
X383616Y282199D01*
X383567Y282206D01*
X383562Y282207D01*
X383514Y282223D01*
X383494Y282223D01*
X383470Y282228D01*
X380050Y282497D01*
X380028Y282495D01*
X380000Y282499D01*
X335949Y282499D01*
X335859Y282483D01*
X335767Y282473D01*
X335746Y282463D01*
X335728Y282460D01*
X335685Y282434D01*
X335597Y282393D01*
X321645Y273091D01*
X321611Y273058D01*
X321549Y273012D01*
X321036Y272499D01*
X320949Y272499D01*
X320858Y272483D01*
X320767Y272473D01*
X320746Y272463D01*
X320728Y272460D01*
X320685Y272434D01*
X320597Y272393D01*
X320525Y272345D01*
X319814Y272487D01*
X319766Y272488D01*
X319690Y272499D01*
X240310Y272499D01*
X240263Y272491D01*
X240186Y272487D01*
X239475Y272345D01*
X239403Y272393D01*
X239318Y272429D01*
X239236Y272472D01*
X239214Y272475D01*
X239197Y272482D01*
X239147Y272485D01*
X239051Y272499D01*
X238964Y272499D01*
X238451Y273012D01*
X238412Y273040D01*
X238355Y273091D01*
X224403Y282393D01*
X224318Y282429D01*
X224236Y282472D01*
X224214Y282475D01*
X224197Y282482D01*
X224147Y282485D01*
X224051Y282499D01*
X205000Y282499D01*
X204935Y282488D01*
X204869Y282486D01*
X204826Y282468D01*
X204779Y282460D01*
X204722Y282426D01*
X204662Y282401D01*
X204627Y282370D01*
X204586Y282345D01*
X204545Y282294D01*
X204496Y282250D01*
X204474Y282208D01*
X204445Y282171D01*
X204424Y282109D01*
X204393Y282050D01*
X204385Y281996D01*
X204373Y281959D01*
X204374Y281919D01*
X204366Y281865D01*
X204366Y273667D01*
X204377Y273602D01*
X204379Y273536D01*
X204397Y273493D01*
X204405Y273446D01*
X204439Y273389D01*
X204464Y273329D01*
X204495Y273294D01*
X204520Y273253D01*
X204571Y273211D01*
X204615Y273163D01*
X204657Y273141D01*
X204694Y273112D01*
X204756Y273091D01*
X204815Y273060D01*
X204869Y273052D01*
X204906Y273040D01*
X204946Y273041D01*
X205000Y273033D01*
X206256Y273033D01*
X208033Y271256D01*
X208033Y268744D01*
X207219Y267930D01*
X207194Y267895D01*
X207163Y267866D01*
X207131Y267803D01*
X207090Y267745D01*
X207080Y267704D01*
X207060Y267666D01*
X207047Y267577D01*
X207034Y267528D01*
X207037Y267507D01*
X207033Y267481D01*
X207033Y159158D01*
X205842Y157967D01*
X204158Y157967D01*
X202967Y159158D01*
X202967Y210000D01*
X202956Y210065D01*
X202954Y210131D01*
X202936Y210174D01*
X202928Y210221D01*
X202894Y210278D01*
X202869Y210338D01*
X202838Y210373D01*
X202813Y210414D01*
X202762Y210456D01*
X202718Y210504D01*
X202676Y210526D01*
X202639Y210555D01*
X202577Y210576D01*
X202518Y210607D01*
X202464Y210615D01*
X202427Y210627D01*
X202387Y210626D01*
X202333Y210634D01*
X97667Y210634D01*
X97602Y210623D01*
X97536Y210621D01*
X97493Y210603D01*
X97446Y210595D01*
X97389Y210561D01*
X97329Y210536D01*
X97294Y210505D01*
X97253Y210480D01*
X97211Y210429D01*
X97163Y210385D01*
X97141Y210343D01*
X97112Y210306D01*
X97091Y210244D01*
X97060Y210185D01*
X97052Y210131D01*
X97040Y210094D01*
X97041Y210054D01*
X97033Y210000D01*
X97033Y134158D01*
X95842Y132967D01*
X37667Y132967D01*
X37602Y132956D01*
X37536Y132954D01*
X37493Y132936D01*
X37446Y132928D01*
X37389Y132894D01*
X37329Y132869D01*
X37294Y132838D01*
X37253Y132813D01*
X37211Y132762D01*
X37163Y132718D01*
X37141Y132676D01*
X37112Y132639D01*
X37091Y132577D01*
X37060Y132518D01*
X37052Y132464D01*
X37040Y132427D01*
X37041Y132387D01*
X37033Y132333D01*
X37033Y117667D01*
X37044Y117602D01*
X37046Y117536D01*
X37064Y117493D01*
X37072Y117446D01*
X37106Y117389D01*
X37131Y117329D01*
X37163Y117294D01*
X37187Y117253D01*
X37238Y117211D01*
X37282Y117163D01*
X37324Y117141D01*
X37361Y117112D01*
X37423Y117091D01*
X37482Y117060D01*
X37536Y117052D01*
X37573Y117040D01*
X37613Y117041D01*
X37667Y117033D01*
X160842Y117033D01*
X162033Y115842D01*
X162033Y114158D01*
X160842Y112967D01*
X34158Y112967D01*
X32967Y114158D01*
X32967Y135842D01*
X34158Y137033D01*
X92333Y137033D01*
X92398Y137044D01*
X92464Y137046D01*
X92507Y137064D01*
X92554Y137072D01*
X92611Y137106D01*
X92671Y137131D01*
X92706Y137162D01*
X92747Y137187D01*
X92789Y137238D01*
X92837Y137282D01*
X92859Y137324D01*
X92888Y137361D01*
X92909Y137423D01*
X92940Y137482D01*
X92948Y137536D01*
X92960Y137573D01*
X92959Y137613D01*
X92967Y137667D01*
X92967Y280842D01*
X93542Y281417D01*
X93593Y281490D01*
X93649Y281559D01*
X93656Y281581D01*
X93670Y281601D01*
X93692Y281687D01*
X93721Y281771D01*
X93720Y281795D01*
X93726Y281818D01*
X93717Y281907D01*
X93714Y281996D01*
X93705Y282018D01*
X93703Y282041D01*
X93663Y282121D01*
X93630Y282203D01*
X93614Y282221D01*
X93603Y282242D01*
X93538Y282303D01*
X93478Y282369D01*
X93457Y282380D01*
X93440Y282396D01*
X93358Y282431D01*
X93279Y282472D01*
X93253Y282475D01*
X93233Y282484D01*
X93183Y282486D01*
X93093Y282499D01*
X-380000Y282499D01*
X-380022Y282495D01*
X-380050Y282497D01*
X-383470Y282228D01*
X-383519Y282215D01*
X-383616Y282199D01*
X-390123Y280085D01*
X-390127Y280082D01*
X-390133Y280082D01*
X-390299Y279995D01*
X-395834Y275974D01*
X-395838Y275970D01*
X-395843Y275967D01*
X-395974Y275834D01*
X-399995Y270299D01*
X-399997Y270294D01*
X-400001Y270290D01*
X-400085Y270123D01*
X-402199Y263616D01*
X-402206Y263566D01*
X-402228Y263470D01*
X-402497Y260050D01*
X-402495Y260028D01*
X-402499Y260000D01*
X-402499Y-275000D01*
X-402495Y-275022D01*
X-402497Y-275050D01*
X-402228Y-278470D01*
X-402215Y-278519D01*
X-402199Y-278616D01*
X-400085Y-285123D01*
X-400082Y-285127D01*
X-400082Y-285133D01*
X-399995Y-285299D01*
X-395974Y-290834D01*
X-395970Y-290838D01*
X-395967Y-290843D01*
X-395834Y-290974D01*
X-390299Y-294995D01*
X-390294Y-294997D01*
X-390290Y-295001D01*
X-390123Y-295085D01*
X-383616Y-297199D01*
X-383566Y-297206D01*
X-383470Y-297228D01*
X-380050Y-297497D01*
X-380028Y-297495D01*
X-380000Y-297499D01*
X380000Y-297499D01*
X380022Y-297495D01*
G37*
%LPC*%
G36*
X-43289Y-61906D02*
X-43289Y-61906D01*
X-60604Y-44592D01*
X-60632Y-44572D01*
X-60639Y-44564D01*
X-60644Y-44561D01*
X-60667Y-44536D01*
X-60730Y-44504D01*
X-60788Y-44463D01*
X-60829Y-44453D01*
X-60867Y-44433D01*
X-60956Y-44420D01*
X-61005Y-44407D01*
X-61026Y-44410D01*
X-61052Y-44406D01*
X-73289Y-44406D01*
X-203104Y85408D01*
X-204406Y86711D01*
X-204406Y91448D01*
X-204413Y91490D01*
X-204411Y91532D01*
X-204433Y91599D01*
X-204445Y91669D01*
X-204467Y91705D01*
X-204480Y91746D01*
X-204534Y91818D01*
X-204560Y91862D01*
X-204576Y91875D01*
X-204592Y91896D01*
X-278969Y166273D01*
X-279003Y166298D01*
X-279032Y166329D01*
X-279095Y166361D01*
X-279153Y166402D01*
X-279194Y166412D01*
X-279232Y166432D01*
X-279321Y166445D01*
X-279370Y166458D01*
X-279391Y166455D01*
X-279417Y166459D01*
X-281467Y166459D01*
X-283541Y168533D01*
X-283541Y171467D01*
X-281467Y173541D01*
X-278533Y173541D01*
X-276459Y171467D01*
X-276459Y169417D01*
X-276452Y169375D01*
X-276454Y169333D01*
X-276432Y169266D01*
X-276420Y169196D01*
X-276398Y169160D01*
X-276385Y169119D01*
X-276331Y169047D01*
X-276305Y169003D01*
X-276289Y168990D01*
X-276273Y168969D01*
X-200594Y93289D01*
X-200594Y88552D01*
X-200587Y88510D01*
X-200589Y88468D01*
X-200567Y88401D01*
X-200555Y88331D01*
X-200533Y88295D01*
X-200520Y88254D01*
X-200466Y88182D01*
X-200440Y88138D01*
X-200424Y88125D01*
X-200408Y88104D01*
X-74623Y-37681D01*
X-74550Y-37732D01*
X-74481Y-37788D01*
X-74459Y-37796D01*
X-74439Y-37810D01*
X-74353Y-37832D01*
X-74269Y-37860D01*
X-74245Y-37860D01*
X-74222Y-37865D01*
X-74133Y-37856D01*
X-74044Y-37854D01*
X-74022Y-37845D01*
X-73999Y-37842D01*
X-73919Y-37803D01*
X-73837Y-37769D01*
X-73819Y-37753D01*
X-73798Y-37743D01*
X-73737Y-37678D01*
X-73671Y-37618D01*
X-73660Y-37597D01*
X-73644Y-37580D01*
X-73609Y-37498D01*
X-73568Y-37418D01*
X-73565Y-37392D01*
X-73556Y-37373D01*
X-73554Y-37323D01*
X-73541Y-37233D01*
X-73541Y-36033D01*
X-72092Y-34584D01*
X-72067Y-34549D01*
X-72036Y-34521D01*
X-72004Y-34458D01*
X-71963Y-34400D01*
X-71953Y-34359D01*
X-71933Y-34321D01*
X-71920Y-34231D01*
X-71907Y-34183D01*
X-71910Y-34162D01*
X-71906Y-34136D01*
X-71906Y88289D01*
X-54592Y105604D01*
X-54567Y105638D01*
X-54536Y105667D01*
X-54504Y105730D01*
X-54463Y105788D01*
X-54453Y105829D01*
X-54433Y105867D01*
X-54420Y105956D01*
X-54407Y106005D01*
X-54410Y106026D01*
X-54406Y106052D01*
X-54406Y108289D01*
X-38289Y124406D01*
X-31052Y124406D01*
X-31010Y124413D01*
X-30968Y124411D01*
X-30901Y124433D01*
X-30831Y124445D01*
X-30795Y124467D01*
X-30754Y124480D01*
X-30682Y124534D01*
X-30638Y124560D01*
X-30625Y124576D01*
X-30604Y124592D01*
X-12319Y142877D01*
X-12268Y142950D01*
X-12212Y143019D01*
X-12204Y143041D01*
X-12190Y143061D01*
X-12168Y143147D01*
X-12140Y143231D01*
X-12140Y143255D01*
X-12135Y143278D01*
X-12144Y143367D01*
X-12146Y143456D01*
X-12155Y143478D01*
X-12158Y143501D01*
X-12197Y143581D01*
X-12231Y143663D01*
X-12247Y143681D01*
X-12257Y143702D01*
X-12322Y143763D01*
X-12382Y143829D01*
X-12403Y143840D01*
X-12420Y143856D01*
X-12502Y143891D01*
X-12582Y143932D01*
X-12608Y143935D01*
X-12627Y143944D01*
X-12677Y143946D01*
X-12767Y143959D01*
X-13967Y143959D01*
X-16041Y146033D01*
X-16041Y148967D01*
X-13967Y151041D01*
X-11675Y151041D01*
X-11610Y151052D01*
X-11544Y151054D01*
X-11501Y151072D01*
X-11454Y151080D01*
X-11397Y151114D01*
X-11337Y151139D01*
X-11302Y151170D01*
X-11261Y151195D01*
X-11219Y151246D01*
X-11171Y151290D01*
X-11149Y151332D01*
X-11120Y151369D01*
X-11099Y151431D01*
X-11068Y151490D01*
X-11060Y151544D01*
X-11048Y151581D01*
X-11049Y151621D01*
X-11041Y151675D01*
X-11041Y153967D01*
X-8967Y156041D01*
X-7767Y156041D01*
X-7679Y156057D01*
X-7591Y156066D01*
X-7570Y156076D01*
X-7546Y156080D01*
X-7470Y156126D01*
X-7390Y156165D01*
X-7373Y156182D01*
X-7353Y156195D01*
X-7297Y156264D01*
X-7236Y156328D01*
X-7227Y156350D01*
X-7212Y156369D01*
X-7183Y156453D01*
X-7148Y156535D01*
X-7147Y156559D01*
X-7140Y156581D01*
X-7142Y156670D01*
X-7138Y156759D01*
X-7146Y156782D01*
X-7146Y156806D01*
X-7180Y156888D01*
X-7207Y156973D01*
X-7223Y156994D01*
X-7231Y157013D01*
X-7265Y157051D01*
X-7319Y157123D01*
X-83104Y232908D01*
X-83138Y232933D01*
X-83167Y232964D01*
X-83230Y232996D01*
X-83288Y233037D01*
X-83329Y233047D01*
X-83367Y233067D01*
X-83456Y233080D01*
X-83505Y233093D01*
X-83526Y233090D01*
X-83552Y233094D01*
X-259136Y233094D01*
X-259177Y233087D01*
X-259220Y233089D01*
X-259287Y233067D01*
X-259356Y233055D01*
X-259393Y233033D01*
X-259433Y233020D01*
X-259506Y232966D01*
X-259550Y232940D01*
X-259563Y232924D01*
X-259584Y232908D01*
X-261033Y231459D01*
X-263967Y231459D01*
X-266041Y233533D01*
X-266041Y236467D01*
X-263967Y238541D01*
X-261033Y238541D01*
X-259584Y237092D01*
X-259549Y237067D01*
X-259521Y237036D01*
X-259458Y237004D01*
X-259400Y236963D01*
X-259359Y236953D01*
X-259321Y236933D01*
X-259231Y236920D01*
X-259183Y236907D01*
X-259162Y236910D01*
X-259136Y236906D01*
X-198444Y236906D01*
X-198357Y236921D01*
X-198268Y236931D01*
X-198247Y236941D01*
X-198223Y236945D01*
X-198147Y236991D01*
X-198067Y237030D01*
X-198051Y237047D01*
X-198030Y237060D01*
X-197974Y237129D01*
X-197913Y237193D01*
X-197904Y237215D01*
X-197889Y237234D01*
X-197860Y237318D01*
X-197826Y237400D01*
X-197825Y237424D01*
X-197817Y237446D01*
X-197820Y237535D01*
X-197816Y237624D01*
X-197823Y237647D01*
X-197824Y237671D01*
X-197857Y237753D01*
X-197884Y237838D01*
X-197900Y237859D01*
X-197908Y237878D01*
X-197942Y237916D01*
X-197996Y237988D01*
X-198541Y238533D01*
X-198541Y241467D01*
X-196467Y243541D01*
X-193533Y243541D01*
X-191459Y241467D01*
X-191459Y238533D01*
X-192004Y237988D01*
X-192055Y237915D01*
X-192111Y237846D01*
X-192119Y237824D01*
X-192132Y237804D01*
X-192154Y237718D01*
X-192183Y237634D01*
X-192182Y237610D01*
X-192188Y237587D01*
X-192179Y237498D01*
X-192176Y237409D01*
X-192167Y237387D01*
X-192165Y237364D01*
X-192125Y237284D01*
X-192092Y237202D01*
X-192076Y237184D01*
X-192066Y237163D01*
X-192001Y237102D01*
X-191941Y237036D01*
X-191920Y237025D01*
X-191902Y237009D01*
X-191820Y236974D01*
X-191741Y236933D01*
X-191715Y236930D01*
X-191696Y236921D01*
X-191645Y236919D01*
X-191556Y236906D01*
X-81711Y236906D01*
X-80408Y235604D01*
X4406Y150789D01*
X4406Y136052D01*
X4413Y136010D01*
X4411Y135968D01*
X4433Y135901D01*
X4445Y135831D01*
X4467Y135795D01*
X4480Y135754D01*
X4534Y135682D01*
X4560Y135638D01*
X4576Y135625D01*
X4592Y135604D01*
X15377Y124819D01*
X15450Y124768D01*
X15519Y124712D01*
X15541Y124704D01*
X15561Y124690D01*
X15647Y124668D01*
X15731Y124640D01*
X15755Y124640D01*
X15778Y124635D01*
X15867Y124644D01*
X15956Y124646D01*
X15978Y124655D01*
X16001Y124658D01*
X16081Y124697D01*
X16163Y124731D01*
X16181Y124747D01*
X16202Y124757D01*
X16263Y124822D01*
X16329Y124882D01*
X16340Y124903D01*
X16356Y124920D01*
X16391Y125002D01*
X16432Y125082D01*
X16435Y125108D01*
X16444Y125127D01*
X16446Y125177D01*
X16459Y125267D01*
X16459Y126467D01*
X17908Y127916D01*
X17933Y127951D01*
X17964Y127979D01*
X17996Y128042D01*
X18037Y128100D01*
X18047Y128141D01*
X18067Y128179D01*
X18080Y128269D01*
X18093Y128317D01*
X18090Y128338D01*
X18094Y128364D01*
X18094Y140789D01*
X23773Y146469D01*
X23798Y146503D01*
X23829Y146532D01*
X23861Y146595D01*
X23902Y146653D01*
X23912Y146694D01*
X23932Y146732D01*
X23945Y146821D01*
X23958Y146870D01*
X23955Y146891D01*
X23959Y146917D01*
X23959Y148967D01*
X26033Y151041D01*
X28967Y151041D01*
X30802Y149206D01*
X30856Y149168D01*
X30903Y149123D01*
X30947Y149105D01*
X30986Y149078D01*
X31049Y149061D01*
X31110Y149036D01*
X31157Y149034D01*
X31203Y149022D01*
X31268Y149029D01*
X31334Y149026D01*
X31379Y149040D01*
X31426Y149045D01*
X31485Y149074D01*
X31548Y149094D01*
X31592Y149127D01*
X31627Y149144D01*
X31654Y149173D01*
X31699Y149206D01*
X33533Y151041D01*
X36467Y151041D01*
X38541Y148967D01*
X38541Y146033D01*
X36467Y143959D01*
X34417Y143959D01*
X34375Y143952D01*
X34333Y143954D01*
X34266Y143932D01*
X34196Y143920D01*
X34160Y143898D01*
X34119Y143885D01*
X34047Y143831D01*
X34003Y143805D01*
X33990Y143789D01*
X33983Y143785D01*
X33980Y143782D01*
X33969Y143773D01*
X27092Y136896D01*
X27067Y136862D01*
X27036Y136833D01*
X27004Y136770D01*
X26963Y136712D01*
X26953Y136671D01*
X26933Y136633D01*
X26920Y136544D01*
X26907Y136495D01*
X26910Y136474D01*
X26906Y136448D01*
X26906Y118552D01*
X26913Y118510D01*
X26911Y118468D01*
X26919Y118444D01*
X26919Y118438D01*
X26927Y118420D01*
X26933Y118401D01*
X26945Y118331D01*
X26967Y118295D01*
X26980Y118254D01*
X27034Y118182D01*
X27060Y118138D01*
X27076Y118125D01*
X27092Y118104D01*
X35604Y109592D01*
X35638Y109567D01*
X35667Y109536D01*
X35730Y109504D01*
X35788Y109463D01*
X35829Y109453D01*
X35867Y109433D01*
X35956Y109420D01*
X36005Y109407D01*
X36026Y109410D01*
X36052Y109406D01*
X50789Y109406D01*
X52091Y108104D01*
X52092Y108104D01*
X68969Y91227D01*
X69003Y91202D01*
X69032Y91171D01*
X69095Y91139D01*
X69153Y91098D01*
X69194Y91088D01*
X69232Y91068D01*
X69321Y91055D01*
X69370Y91042D01*
X69391Y91045D01*
X69417Y91041D01*
X71467Y91041D01*
X73541Y88967D01*
X73541Y86033D01*
X71467Y83959D01*
X70267Y83959D01*
X70179Y83943D01*
X70091Y83934D01*
X70070Y83924D01*
X70046Y83920D01*
X69970Y83874D01*
X69890Y83835D01*
X69873Y83818D01*
X69853Y83805D01*
X69797Y83736D01*
X69736Y83672D01*
X69727Y83650D01*
X69712Y83631D01*
X69683Y83547D01*
X69648Y83465D01*
X69647Y83441D01*
X69640Y83419D01*
X69642Y83330D01*
X69638Y83241D01*
X69646Y83218D01*
X69646Y83194D01*
X69680Y83112D01*
X69707Y83027D01*
X69723Y83006D01*
X69731Y82987D01*
X69765Y82949D01*
X69819Y82877D01*
X113104Y39592D01*
X113138Y39567D01*
X113167Y39536D01*
X113230Y39504D01*
X113288Y39463D01*
X113329Y39453D01*
X113367Y39433D01*
X113456Y39420D01*
X113505Y39407D01*
X113526Y39410D01*
X113552Y39406D01*
X250789Y39406D01*
X263969Y26227D01*
X264003Y26202D01*
X264032Y26171D01*
X264095Y26139D01*
X264153Y26098D01*
X264194Y26088D01*
X264232Y26068D01*
X264321Y26055D01*
X264370Y26042D01*
X264391Y26045D01*
X264417Y26041D01*
X266467Y26041D01*
X268541Y23967D01*
X268541Y21033D01*
X266467Y18959D01*
X263533Y18959D01*
X261459Y21033D01*
X261459Y23083D01*
X261452Y23125D01*
X261454Y23167D01*
X261432Y23234D01*
X261420Y23304D01*
X261398Y23340D01*
X261385Y23381D01*
X261331Y23453D01*
X261305Y23497D01*
X261289Y23510D01*
X261273Y23531D01*
X249396Y35408D01*
X249362Y35433D01*
X249333Y35464D01*
X249270Y35496D01*
X249212Y35537D01*
X249171Y35547D01*
X249133Y35567D01*
X249044Y35580D01*
X248995Y35593D01*
X248974Y35590D01*
X248948Y35594D01*
X113632Y35594D01*
X113544Y35578D01*
X113456Y35569D01*
X113435Y35559D01*
X113411Y35555D01*
X113335Y35509D01*
X113255Y35470D01*
X113238Y35453D01*
X113218Y35440D01*
X113162Y35371D01*
X113101Y35307D01*
X113092Y35285D01*
X113077Y35266D01*
X113048Y35182D01*
X113013Y35100D01*
X113012Y35076D01*
X113005Y35054D01*
X113007Y34965D01*
X113003Y34876D01*
X113011Y34853D01*
X113011Y34829D01*
X113045Y34747D01*
X113072Y34662D01*
X113088Y34641D01*
X113096Y34622D01*
X113130Y34584D01*
X113184Y34512D01*
X145604Y2092D01*
X145638Y2067D01*
X145667Y2036D01*
X145730Y2004D01*
X145788Y1963D01*
X145829Y1953D01*
X145867Y1933D01*
X145956Y1920D01*
X146005Y1907D01*
X146026Y1910D01*
X146052Y1906D01*
X234056Y1906D01*
X234143Y1921D01*
X234232Y1931D01*
X234253Y1941D01*
X234277Y1945D01*
X234353Y1991D01*
X234433Y2030D01*
X234449Y2047D01*
X234470Y2060D01*
X234526Y2129D01*
X234587Y2193D01*
X234596Y2215D01*
X234611Y2234D01*
X234640Y2318D01*
X234674Y2400D01*
X234675Y2424D01*
X234683Y2446D01*
X234680Y2535D01*
X234684Y2624D01*
X234677Y2647D01*
X234676Y2671D01*
X234643Y2753D01*
X234616Y2838D01*
X234600Y2859D01*
X234592Y2878D01*
X234558Y2916D01*
X234504Y2988D01*
X233959Y3533D01*
X233959Y6467D01*
X235794Y8301D01*
X235832Y8356D01*
X235877Y8403D01*
X235895Y8447D01*
X235922Y8486D01*
X235939Y8549D01*
X235964Y8610D01*
X235966Y8657D01*
X235978Y8703D01*
X235971Y8768D01*
X235974Y8834D01*
X235960Y8879D01*
X235955Y8926D01*
X235926Y8985D01*
X235906Y9048D01*
X235873Y9092D01*
X235856Y9127D01*
X235827Y9154D01*
X235794Y9198D01*
X233959Y11033D01*
X233959Y13967D01*
X236033Y16041D01*
X238967Y16041D01*
X241041Y13967D01*
X241041Y11033D01*
X239206Y9198D01*
X239168Y9144D01*
X239123Y9097D01*
X239105Y9053D01*
X239078Y9014D01*
X239061Y8951D01*
X239036Y8890D01*
X239034Y8843D01*
X239022Y8797D01*
X239029Y8732D01*
X239026Y8666D01*
X239040Y8621D01*
X239045Y8574D01*
X239074Y8515D01*
X239094Y8452D01*
X239127Y8408D01*
X239144Y8373D01*
X239173Y8346D01*
X239206Y8301D01*
X241041Y6467D01*
X241041Y3533D01*
X240496Y2988D01*
X240445Y2915D01*
X240389Y2846D01*
X240381Y2824D01*
X240368Y2804D01*
X240346Y2718D01*
X240317Y2634D01*
X240318Y2610D01*
X240312Y2587D01*
X240321Y2498D01*
X240324Y2409D01*
X240333Y2387D01*
X240335Y2364D01*
X240375Y2284D01*
X240408Y2202D01*
X240424Y2184D01*
X240434Y2163D01*
X240499Y2102D01*
X240559Y2036D01*
X240580Y2025D01*
X240598Y2009D01*
X240680Y1974D01*
X240759Y1933D01*
X240785Y1930D01*
X240804Y1921D01*
X240855Y1919D01*
X240944Y1906D01*
X261636Y1906D01*
X261677Y1913D01*
X261720Y1911D01*
X261787Y1933D01*
X261856Y1945D01*
X261893Y1967D01*
X261933Y1980D01*
X262006Y2034D01*
X262050Y2060D01*
X262063Y2076D01*
X262084Y2092D01*
X263533Y3541D01*
X266467Y3541D01*
X268541Y1467D01*
X268541Y-1467D01*
X266467Y-3541D01*
X263533Y-3541D01*
X262084Y-2092D01*
X262057Y-2073D01*
X262054Y-2069D01*
X262048Y-2066D01*
X262021Y-2036D01*
X261958Y-2004D01*
X261900Y-1963D01*
X261859Y-1953D01*
X261821Y-1933D01*
X261731Y-1920D01*
X261683Y-1907D01*
X261662Y-1910D01*
X261636Y-1906D01*
X144211Y-1906D01*
X142908Y-604D01*
X46896Y95408D01*
X46862Y95433D01*
X46833Y95464D01*
X46770Y95496D01*
X46712Y95537D01*
X46671Y95547D01*
X46633Y95567D01*
X46544Y95580D01*
X46495Y95593D01*
X46474Y95590D01*
X46448Y95594D01*
X-26636Y95594D01*
X-26677Y95587D01*
X-26720Y95589D01*
X-26787Y95567D01*
X-26856Y95555D01*
X-26893Y95533D01*
X-26933Y95520D01*
X-27006Y95466D01*
X-27050Y95440D01*
X-27063Y95424D01*
X-27084Y95409D01*
X-27869Y94623D01*
X-27920Y94550D01*
X-27976Y94481D01*
X-27984Y94459D01*
X-27997Y94439D01*
X-28019Y94353D01*
X-28048Y94269D01*
X-28047Y94245D01*
X-28053Y94222D01*
X-28044Y94133D01*
X-28041Y94044D01*
X-28032Y94022D01*
X-28030Y93999D01*
X-27990Y93919D01*
X-27957Y93837D01*
X-27941Y93819D01*
X-27931Y93798D01*
X-27866Y93737D01*
X-27806Y93671D01*
X-27785Y93660D01*
X-27767Y93644D01*
X-27685Y93609D01*
X-27606Y93568D01*
X-27580Y93565D01*
X-27561Y93556D01*
X-27510Y93554D01*
X-27421Y93541D01*
X-26033Y93541D01*
X-23959Y91467D01*
X-23959Y88533D01*
X-26033Y86459D01*
X-28967Y86459D01*
X-31041Y88533D01*
X-31041Y91467D01*
X-29631Y92877D01*
X-29580Y92950D01*
X-29524Y93019D01*
X-29516Y93041D01*
X-29503Y93061D01*
X-29481Y93147D01*
X-29452Y93231D01*
X-29453Y93255D01*
X-29447Y93278D01*
X-29456Y93367D01*
X-29459Y93456D01*
X-29468Y93478D01*
X-29470Y93501D01*
X-29510Y93581D01*
X-29543Y93663D01*
X-29559Y93681D01*
X-29569Y93702D01*
X-29634Y93763D01*
X-29694Y93829D01*
X-29715Y93840D01*
X-29733Y93856D01*
X-29815Y93891D01*
X-29894Y93932D01*
X-29920Y93935D01*
X-29939Y93944D01*
X-29990Y93946D01*
X-30079Y93959D01*
X-31467Y93959D01*
X-33541Y96033D01*
X-33541Y98967D01*
X-31467Y101041D01*
X-28533Y101041D01*
X-27084Y99592D01*
X-27049Y99567D01*
X-27021Y99536D01*
X-26958Y99504D01*
X-26900Y99463D01*
X-26859Y99453D01*
X-26821Y99433D01*
X-26731Y99420D01*
X-26683Y99407D01*
X-26662Y99410D01*
X-26636Y99406D01*
X33868Y99406D01*
X33956Y99422D01*
X34044Y99431D01*
X34065Y99441D01*
X34089Y99445D01*
X34165Y99491D01*
X34245Y99530D01*
X34262Y99547D01*
X34282Y99560D01*
X34338Y99629D01*
X34399Y99693D01*
X34408Y99715D01*
X34423Y99734D01*
X34452Y99818D01*
X34487Y99900D01*
X34488Y99924D01*
X34495Y99946D01*
X34493Y100035D01*
X34497Y100124D01*
X34489Y100147D01*
X34489Y100171D01*
X34455Y100253D01*
X34428Y100338D01*
X34412Y100359D01*
X34404Y100378D01*
X34370Y100416D01*
X34316Y100488D01*
X1896Y132908D01*
X594Y134211D01*
X594Y144056D01*
X579Y144143D01*
X569Y144232D01*
X559Y144253D01*
X555Y144277D01*
X509Y144353D01*
X470Y144433D01*
X453Y144449D01*
X441Y144470D01*
X371Y144526D01*
X307Y144587D01*
X285Y144596D01*
X266Y144611D01*
X182Y144640D01*
X100Y144674D01*
X76Y144675D01*
X54Y144683D01*
X-35Y144680D01*
X-124Y144684D01*
X-147Y144677D01*
X-171Y144676D01*
X-253Y144643D01*
X-338Y144616D01*
X-359Y144600D01*
X-378Y144592D01*
X-416Y144558D01*
X-488Y144504D01*
X-1033Y143959D01*
X-3967Y143959D01*
X-4512Y144504D01*
X-4585Y144555D01*
X-4654Y144611D01*
X-4676Y144619D01*
X-4696Y144632D01*
X-4782Y144654D01*
X-4866Y144683D01*
X-4890Y144682D01*
X-4913Y144688D01*
X-5002Y144679D01*
X-5091Y144676D01*
X-5113Y144667D01*
X-5136Y144665D01*
X-5216Y144625D01*
X-5298Y144592D01*
X-5316Y144576D01*
X-5337Y144566D01*
X-5398Y144501D01*
X-5464Y144441D01*
X-5475Y144420D01*
X-5491Y144402D01*
X-5526Y144320D01*
X-5567Y144241D01*
X-5567Y144238D01*
X-29211Y120594D01*
X-31556Y120594D01*
X-31643Y120579D01*
X-31732Y120569D01*
X-31753Y120559D01*
X-31777Y120555D01*
X-31853Y120509D01*
X-31933Y120470D01*
X-31949Y120453D01*
X-31970Y120440D01*
X-32026Y120371D01*
X-32087Y120307D01*
X-32096Y120285D01*
X-32111Y120266D01*
X-32140Y120182D01*
X-32174Y120100D01*
X-32175Y120076D01*
X-32183Y120054D01*
X-32180Y119965D01*
X-32184Y119876D01*
X-32177Y119853D01*
X-32176Y119829D01*
X-32143Y119747D01*
X-32116Y119662D01*
X-32100Y119641D01*
X-32092Y119622D01*
X-32058Y119584D01*
X-32004Y119512D01*
X-31459Y118967D01*
X-31459Y116033D01*
X-33294Y114198D01*
X-33332Y114144D01*
X-33377Y114097D01*
X-33395Y114053D01*
X-33422Y114014D01*
X-33439Y113951D01*
X-33464Y113890D01*
X-33466Y113843D01*
X-33478Y113797D01*
X-33471Y113732D01*
X-33474Y113666D01*
X-33460Y113621D01*
X-33455Y113574D01*
X-33426Y113515D01*
X-33406Y113452D01*
X-33373Y113408D01*
X-33356Y113373D01*
X-33327Y113346D01*
X-33294Y113301D01*
X-31459Y111467D01*
X-31459Y108533D01*
X-33533Y106459D01*
X-35583Y106459D01*
X-35625Y106452D01*
X-35667Y106454D01*
X-35734Y106432D01*
X-35804Y106420D01*
X-35840Y106398D01*
X-35881Y106385D01*
X-35953Y106331D01*
X-35997Y106305D01*
X-36010Y106289D01*
X-36031Y106273D01*
X-36711Y105594D01*
X-38948Y105594D01*
X-38990Y105587D01*
X-39032Y105589D01*
X-39099Y105567D01*
X-39169Y105555D01*
X-39205Y105533D01*
X-39246Y105520D01*
X-39318Y105466D01*
X-39362Y105440D01*
X-39375Y105424D01*
X-39396Y105408D01*
X-42908Y101896D01*
X-42933Y101862D01*
X-42964Y101833D01*
X-42991Y101780D01*
X-43015Y101750D01*
X-43020Y101735D01*
X-43037Y101712D01*
X-43047Y101671D01*
X-43067Y101633D01*
X-43076Y101572D01*
X-43087Y101538D01*
X-43087Y101517D01*
X-43093Y101495D01*
X-43090Y101474D01*
X-43094Y101448D01*
X-43094Y81675D01*
X-43083Y81610D01*
X-43081Y81544D01*
X-43063Y81501D01*
X-43055Y81454D01*
X-43021Y81397D01*
X-42996Y81337D01*
X-42965Y81302D01*
X-42940Y81261D01*
X-42889Y81219D01*
X-42845Y81171D01*
X-42803Y81149D01*
X-42766Y81120D01*
X-42704Y81099D01*
X-42645Y81068D01*
X-42591Y81060D01*
X-42554Y81048D01*
X-42514Y81049D01*
X-42460Y81041D01*
X-41033Y81041D01*
X-39584Y79592D01*
X-39549Y79567D01*
X-39521Y79536D01*
X-39458Y79504D01*
X-39400Y79463D01*
X-39359Y79453D01*
X-39321Y79433D01*
X-39231Y79420D01*
X-39183Y79407D01*
X-39162Y79410D01*
X-39136Y79406D01*
X45789Y79406D01*
X67877Y57319D01*
X67950Y57268D01*
X68019Y57212D01*
X68041Y57204D01*
X68061Y57190D01*
X68147Y57168D01*
X68231Y57140D01*
X68255Y57140D01*
X68278Y57135D01*
X68367Y57144D01*
X68456Y57146D01*
X68478Y57155D01*
X68501Y57158D01*
X68581Y57197D01*
X68663Y57231D01*
X68681Y57247D01*
X68702Y57257D01*
X68763Y57322D01*
X68829Y57382D01*
X68840Y57403D01*
X68856Y57420D01*
X68891Y57502D01*
X68932Y57582D01*
X68935Y57608D01*
X68944Y57627D01*
X68946Y57677D01*
X68959Y57767D01*
X68959Y58967D01*
X71033Y61041D01*
X73967Y61041D01*
X76041Y58967D01*
X76041Y56033D01*
X73967Y53959D01*
X72767Y53959D01*
X72679Y53943D01*
X72591Y53934D01*
X72570Y53924D01*
X72546Y53920D01*
X72470Y53874D01*
X72390Y53835D01*
X72373Y53818D01*
X72353Y53805D01*
X72297Y53736D01*
X72236Y53672D01*
X72227Y53650D01*
X72212Y53631D01*
X72183Y53547D01*
X72148Y53465D01*
X72147Y53441D01*
X72140Y53419D01*
X72142Y53330D01*
X72138Y53241D01*
X72146Y53218D01*
X72146Y53194D01*
X72180Y53112D01*
X72207Y53027D01*
X72223Y53006D01*
X72231Y52987D01*
X72265Y52949D01*
X72319Y52877D01*
X140604Y-15408D01*
X140638Y-15433D01*
X140667Y-15464D01*
X140730Y-15496D01*
X140788Y-15537D01*
X140829Y-15547D01*
X140867Y-15567D01*
X140956Y-15580D01*
X141005Y-15593D01*
X141026Y-15590D01*
X141052Y-15594D01*
X144136Y-15594D01*
X144177Y-15587D01*
X144220Y-15589D01*
X144287Y-15567D01*
X144356Y-15555D01*
X144393Y-15533D01*
X144433Y-15520D01*
X144506Y-15466D01*
X144550Y-15440D01*
X144563Y-15424D01*
X144584Y-15408D01*
X146033Y-13959D01*
X148967Y-13959D01*
X151041Y-16033D01*
X151041Y-18967D01*
X148967Y-21041D01*
X146033Y-21041D01*
X144584Y-19592D01*
X144549Y-19567D01*
X144521Y-19536D01*
X144458Y-19504D01*
X144400Y-19463D01*
X144359Y-19453D01*
X144321Y-19433D01*
X144231Y-19420D01*
X144183Y-19407D01*
X144162Y-19410D01*
X144136Y-19406D01*
X139211Y-19406D01*
X137908Y-18104D01*
X44396Y75408D01*
X44362Y75433D01*
X44333Y75464D01*
X44270Y75496D01*
X44212Y75537D01*
X44171Y75547D01*
X44133Y75567D01*
X44044Y75580D01*
X43995Y75593D01*
X43974Y75590D01*
X43948Y75594D01*
X-39136Y75594D01*
X-39177Y75587D01*
X-39220Y75589D01*
X-39287Y75567D01*
X-39356Y75555D01*
X-39393Y75533D01*
X-39433Y75520D01*
X-39506Y75466D01*
X-39550Y75440D01*
X-39563Y75424D01*
X-39584Y75408D01*
X-40700Y74292D01*
X-40738Y74238D01*
X-40783Y74190D01*
X-40801Y74147D01*
X-40828Y74108D01*
X-40845Y74044D01*
X-40870Y73984D01*
X-40873Y73937D01*
X-40884Y73891D01*
X-40877Y73825D01*
X-40880Y73760D01*
X-40866Y73715D01*
X-40861Y73668D01*
X-40832Y73609D01*
X-40812Y73546D01*
X-40779Y73502D01*
X-40762Y73467D01*
X-40733Y73440D01*
X-40700Y73395D01*
X-39396Y72091D01*
X-38094Y70789D01*
X-38094Y-34136D01*
X-38087Y-34177D01*
X-38089Y-34220D01*
X-38067Y-34287D01*
X-38055Y-34356D01*
X-38033Y-34393D01*
X-38020Y-34433D01*
X-37966Y-34506D01*
X-37940Y-34550D01*
X-37924Y-34563D01*
X-37908Y-34584D01*
X-36459Y-36033D01*
X-36459Y-38967D01*
X-38533Y-41041D01*
X-41467Y-41041D01*
X-43301Y-39206D01*
X-43356Y-39168D01*
X-43403Y-39123D01*
X-43447Y-39105D01*
X-43486Y-39078D01*
X-43549Y-39061D01*
X-43610Y-39036D01*
X-43657Y-39034D01*
X-43703Y-39022D01*
X-43768Y-39029D01*
X-43834Y-39026D01*
X-43879Y-39040D01*
X-43926Y-39045D01*
X-43985Y-39074D01*
X-44048Y-39094D01*
X-44092Y-39127D01*
X-44127Y-39144D01*
X-44154Y-39173D01*
X-44198Y-39206D01*
X-46033Y-41041D01*
X-47233Y-41041D01*
X-47321Y-41057D01*
X-47409Y-41066D01*
X-47430Y-41076D01*
X-47454Y-41080D01*
X-47530Y-41126D01*
X-47610Y-41165D01*
X-47627Y-41182D01*
X-47647Y-41195D01*
X-47703Y-41264D01*
X-47764Y-41328D01*
X-47773Y-41350D01*
X-47788Y-41369D01*
X-47817Y-41453D01*
X-47852Y-41535D01*
X-47853Y-41559D01*
X-47860Y-41581D01*
X-47858Y-41670D01*
X-47862Y-41759D01*
X-47854Y-41782D01*
X-47854Y-41806D01*
X-47820Y-41888D01*
X-47793Y-41973D01*
X-47777Y-41994D01*
X-47769Y-42013D01*
X-47735Y-42051D01*
X-47681Y-42123D01*
X-38531Y-51273D01*
X-38497Y-51298D01*
X-38468Y-51329D01*
X-38405Y-51361D01*
X-38347Y-51402D01*
X-38306Y-51412D01*
X-38268Y-51432D01*
X-38179Y-51445D01*
X-38130Y-51458D01*
X-38109Y-51455D01*
X-38083Y-51459D01*
X-36033Y-51459D01*
X-33959Y-53533D01*
X-33959Y-56467D01*
X-34504Y-57012D01*
X-34555Y-57085D01*
X-34611Y-57154D01*
X-34619Y-57176D01*
X-34632Y-57196D01*
X-34654Y-57282D01*
X-34683Y-57366D01*
X-34682Y-57390D01*
X-34688Y-57413D01*
X-34679Y-57502D01*
X-34676Y-57591D01*
X-34667Y-57613D01*
X-34665Y-57636D01*
X-34625Y-57716D01*
X-34592Y-57798D01*
X-34576Y-57816D01*
X-34566Y-57837D01*
X-34501Y-57898D01*
X-34441Y-57964D01*
X-34420Y-57975D01*
X-34402Y-57991D01*
X-34320Y-58026D01*
X-34241Y-58067D01*
X-34215Y-58070D01*
X-34196Y-58079D01*
X-34145Y-58081D01*
X-34056Y-58094D01*
X196448Y-58094D01*
X196490Y-58087D01*
X196532Y-58089D01*
X196599Y-58067D01*
X196669Y-58055D01*
X196705Y-58033D01*
X196746Y-58020D01*
X196818Y-57966D01*
X196862Y-57940D01*
X196875Y-57924D01*
X196896Y-57908D01*
X236273Y-18531D01*
X236298Y-18497D01*
X236329Y-18468D01*
X236361Y-18405D01*
X236402Y-18347D01*
X236412Y-18306D01*
X236432Y-18268D01*
X236445Y-18179D01*
X236458Y-18130D01*
X236455Y-18109D01*
X236459Y-18083D01*
X236459Y-16033D01*
X238533Y-13959D01*
X241467Y-13959D01*
X243541Y-16033D01*
X243541Y-18967D01*
X241467Y-21041D01*
X239417Y-21041D01*
X239375Y-21048D01*
X239333Y-21046D01*
X239266Y-21068D01*
X239196Y-21080D01*
X239160Y-21102D01*
X239119Y-21115D01*
X239047Y-21169D01*
X239003Y-21195D01*
X238990Y-21211D01*
X238969Y-21227D01*
X199592Y-60604D01*
X198289Y-61906D01*
X-43289Y-61906D01*
G37*
%LPD*%
G36*
X-40857Y-58079D02*
X-40857Y-58079D01*
X-40768Y-58069D01*
X-40747Y-58059D01*
X-40723Y-58055D01*
X-40647Y-58009D01*
X-40567Y-57970D01*
X-40551Y-57953D01*
X-40530Y-57940D01*
X-40474Y-57871D01*
X-40413Y-57807D01*
X-40404Y-57785D01*
X-40389Y-57766D01*
X-40360Y-57682D01*
X-40326Y-57600D01*
X-40325Y-57576D01*
X-40317Y-57554D01*
X-40320Y-57465D01*
X-40316Y-57376D01*
X-40323Y-57353D01*
X-40324Y-57329D01*
X-40357Y-57247D01*
X-40384Y-57162D01*
X-40400Y-57141D01*
X-40408Y-57122D01*
X-40442Y-57084D01*
X-40496Y-57012D01*
X-41041Y-56467D01*
X-41041Y-54417D01*
X-41048Y-54375D01*
X-41046Y-54333D01*
X-41068Y-54266D01*
X-41080Y-54196D01*
X-41102Y-54160D01*
X-41115Y-54119D01*
X-41169Y-54047D01*
X-41195Y-54003D01*
X-41211Y-53990D01*
X-41227Y-53969D01*
X-54406Y-40789D01*
X-54406Y-34211D01*
X-52092Y-31896D01*
X-52067Y-31862D01*
X-52036Y-31833D01*
X-52004Y-31770D01*
X-51963Y-31712D01*
X-51953Y-31671D01*
X-51933Y-31633D01*
X-51920Y-31544D01*
X-51907Y-31495D01*
X-51910Y-31474D01*
X-51906Y-31448D01*
X-51906Y26448D01*
X-51913Y26490D01*
X-51911Y26532D01*
X-51933Y26599D01*
X-51945Y26669D01*
X-51967Y26705D01*
X-51980Y26746D01*
X-52034Y26818D01*
X-52060Y26862D01*
X-52076Y26875D01*
X-52092Y26896D01*
X-60377Y35181D01*
X-60450Y35232D01*
X-60519Y35288D01*
X-60541Y35296D01*
X-60561Y35310D01*
X-60647Y35332D01*
X-60731Y35360D01*
X-60755Y35360D01*
X-60778Y35365D01*
X-60867Y35356D01*
X-60956Y35354D01*
X-60978Y35345D01*
X-61001Y35342D01*
X-61081Y35303D01*
X-61163Y35269D01*
X-61181Y35253D01*
X-61202Y35243D01*
X-61263Y35178D01*
X-61329Y35118D01*
X-61340Y35097D01*
X-61356Y35080D01*
X-61391Y34998D01*
X-61432Y34918D01*
X-61435Y34892D01*
X-61444Y34873D01*
X-61446Y34823D01*
X-61459Y34733D01*
X-61459Y33533D01*
X-63533Y31459D01*
X-66467Y31459D01*
X-67012Y32004D01*
X-67085Y32055D01*
X-67154Y32111D01*
X-67176Y32119D01*
X-67196Y32132D01*
X-67282Y32154D01*
X-67366Y32183D01*
X-67390Y32182D01*
X-67413Y32188D01*
X-67502Y32179D01*
X-67591Y32176D01*
X-67613Y32167D01*
X-67636Y32165D01*
X-67716Y32125D01*
X-67798Y32092D01*
X-67816Y32076D01*
X-67837Y32066D01*
X-67898Y32001D01*
X-67964Y31941D01*
X-67975Y31920D01*
X-67991Y31902D01*
X-68026Y31820D01*
X-68067Y31741D01*
X-68070Y31715D01*
X-68079Y31696D01*
X-68081Y31645D01*
X-68094Y31556D01*
X-68094Y-34136D01*
X-68087Y-34177D01*
X-68089Y-34220D01*
X-68067Y-34287D01*
X-68055Y-34356D01*
X-68033Y-34393D01*
X-68020Y-34433D01*
X-67966Y-34506D01*
X-67940Y-34550D01*
X-67924Y-34563D01*
X-67908Y-34584D01*
X-66459Y-36033D01*
X-66459Y-38967D01*
X-67004Y-39512D01*
X-67055Y-39585D01*
X-67111Y-39654D01*
X-67119Y-39676D01*
X-67132Y-39696D01*
X-67154Y-39782D01*
X-67183Y-39866D01*
X-67182Y-39890D01*
X-67188Y-39913D01*
X-67179Y-40002D01*
X-67176Y-40091D01*
X-67167Y-40113D01*
X-67165Y-40136D01*
X-67125Y-40216D01*
X-67092Y-40298D01*
X-67076Y-40316D01*
X-67066Y-40337D01*
X-67001Y-40398D01*
X-66941Y-40464D01*
X-66920Y-40475D01*
X-66902Y-40491D01*
X-66820Y-40526D01*
X-66741Y-40567D01*
X-66715Y-40570D01*
X-66696Y-40579D01*
X-66645Y-40581D01*
X-66556Y-40594D01*
X-59211Y-40594D01*
X-41896Y-57908D01*
X-41862Y-57933D01*
X-41833Y-57964D01*
X-41770Y-57996D01*
X-41712Y-58037D01*
X-41671Y-58047D01*
X-41633Y-58067D01*
X-41544Y-58080D01*
X-41495Y-58093D01*
X-41474Y-58090D01*
X-41448Y-58094D01*
X-40944Y-58094D01*
X-40857Y-58079D01*
G37*
%LPC*%
G36*
X81033Y-41041D02*
X81033Y-41041D01*
X79584Y-39592D01*
X79549Y-39567D01*
X79521Y-39536D01*
X79458Y-39504D01*
X79400Y-39463D01*
X79359Y-39453D01*
X79321Y-39433D01*
X79231Y-39420D01*
X79183Y-39407D01*
X79162Y-39410D01*
X79136Y-39406D01*
X59211Y-39406D01*
X57908Y-38104D01*
X18094Y1711D01*
X18094Y16448D01*
X18087Y16490D01*
X18089Y16532D01*
X18074Y16577D01*
X18074Y16585D01*
X18066Y16605D01*
X18055Y16669D01*
X18033Y16705D01*
X18020Y16746D01*
X17996Y16779D01*
X17990Y16793D01*
X17966Y16819D01*
X17940Y16862D01*
X17924Y16875D01*
X17908Y16896D01*
X-3104Y37908D01*
X-3138Y37933D01*
X-3167Y37964D01*
X-3230Y37996D01*
X-3288Y38037D01*
X-3329Y38047D01*
X-3367Y38067D01*
X-3456Y38080D01*
X-3505Y38093D01*
X-3526Y38090D01*
X-3552Y38094D01*
X-6636Y38094D01*
X-6677Y38087D01*
X-6720Y38089D01*
X-6787Y38067D01*
X-6857Y38055D01*
X-6893Y38033D01*
X-6933Y38020D01*
X-7006Y37966D01*
X-7050Y37940D01*
X-7063Y37924D01*
X-7084Y37908D01*
X-8533Y36459D01*
X-11467Y36459D01*
X-13541Y38533D01*
X-13541Y41467D01*
X-11467Y43541D01*
X-8533Y43541D01*
X-7084Y42092D01*
X-7049Y42067D01*
X-7021Y42036D01*
X-6958Y42004D01*
X-6900Y41963D01*
X-6859Y41953D01*
X-6821Y41933D01*
X-6731Y41920D01*
X-6683Y41907D01*
X-6662Y41910D01*
X-6636Y41906D01*
X-1711Y41906D01*
X-409Y40604D01*
X20604Y19592D01*
X20604Y19591D01*
X21906Y18289D01*
X21906Y3552D01*
X21913Y3510D01*
X21911Y3468D01*
X21933Y3401D01*
X21945Y3331D01*
X21967Y3295D01*
X21980Y3254D01*
X22034Y3182D01*
X22060Y3138D01*
X22076Y3125D01*
X22092Y3104D01*
X60604Y-35408D01*
X60638Y-35433D01*
X60667Y-35464D01*
X60730Y-35496D01*
X60788Y-35537D01*
X60829Y-35547D01*
X60867Y-35567D01*
X60956Y-35580D01*
X61005Y-35593D01*
X61026Y-35590D01*
X61052Y-35594D01*
X79136Y-35594D01*
X79177Y-35587D01*
X79220Y-35589D01*
X79287Y-35567D01*
X79356Y-35555D01*
X79393Y-35533D01*
X79433Y-35520D01*
X79506Y-35466D01*
X79550Y-35440D01*
X79563Y-35424D01*
X79584Y-35408D01*
X81033Y-33959D01*
X83967Y-33959D01*
X86041Y-36033D01*
X86041Y-38967D01*
X83967Y-41041D01*
X81033Y-41041D01*
G37*
%LPD*%
%LPC*%
G36*
X372414Y-68001D02*
X372414Y-68001D01*
X367636Y-66021D01*
X363979Y-62364D01*
X361999Y-57586D01*
X361999Y-52414D01*
X363979Y-47636D01*
X367636Y-43979D01*
X372414Y-41999D01*
X377586Y-41999D01*
X382364Y-43979D01*
X386021Y-47636D01*
X388001Y-52414D01*
X388001Y-57586D01*
X386021Y-62364D01*
X382364Y-66021D01*
X377586Y-68001D01*
X372414Y-68001D01*
G37*
%LPD*%
%LPC*%
G36*
X372414Y241999D02*
X372414Y241999D01*
X367636Y243979D01*
X363979Y247636D01*
X361999Y252414D01*
X361999Y257586D01*
X363979Y262364D01*
X367636Y266021D01*
X372414Y268001D01*
X377586Y268001D01*
X382364Y266021D01*
X386021Y262364D01*
X388001Y257586D01*
X388001Y252414D01*
X386021Y247636D01*
X382364Y243979D01*
X377586Y241999D01*
X372414Y241999D01*
G37*
%LPD*%
%LPC*%
G36*
X-59586Y-203001D02*
X-59586Y-203001D01*
X-64364Y-201021D01*
X-68021Y-197364D01*
X-70001Y-192586D01*
X-70001Y-187414D01*
X-68021Y-182636D01*
X-64364Y-178979D01*
X-59586Y-176999D01*
X-54414Y-176999D01*
X-49636Y-178979D01*
X-45979Y-182636D01*
X-43999Y-187414D01*
X-43999Y-192586D01*
X-45979Y-197364D01*
X-49636Y-201021D01*
X-54414Y-203001D01*
X-59586Y-203001D01*
G37*
%LPD*%
%LPC*%
G36*
X-377586Y241999D02*
X-377586Y241999D01*
X-382364Y243979D01*
X-386021Y247636D01*
X-388001Y252414D01*
X-388001Y257586D01*
X-386021Y262364D01*
X-382364Y266021D01*
X-377586Y268001D01*
X-372414Y268001D01*
X-367636Y266021D01*
X-363979Y262364D01*
X-361999Y257586D01*
X-361999Y252414D01*
X-363979Y247636D01*
X-367636Y243979D01*
X-372414Y241999D01*
X-377586Y241999D01*
G37*
%LPD*%
%LPC*%
G36*
X-377586Y-68001D02*
X-377586Y-68001D01*
X-382364Y-66021D01*
X-386021Y-62364D01*
X-388001Y-57586D01*
X-388001Y-52414D01*
X-386021Y-47636D01*
X-382364Y-43979D01*
X-377586Y-41999D01*
X-372414Y-41999D01*
X-367636Y-43979D01*
X-363979Y-47636D01*
X-361999Y-52414D01*
X-361999Y-57586D01*
X-363979Y-62364D01*
X-367636Y-66021D01*
X-372414Y-68001D01*
X-377586Y-68001D01*
G37*
%LPD*%
%LPC*%
G36*
X54414Y-203001D02*
X54414Y-203001D01*
X49636Y-201021D01*
X45979Y-197364D01*
X43999Y-192586D01*
X43999Y-187414D01*
X45979Y-182636D01*
X49636Y-178979D01*
X54414Y-176999D01*
X59586Y-176999D01*
X64364Y-178979D01*
X68021Y-182636D01*
X70001Y-187414D01*
X70001Y-192586D01*
X68021Y-197364D01*
X64364Y-201021D01*
X59586Y-203001D01*
X54414Y-203001D01*
G37*
%LPD*%
%LPC*%
G36*
X-27192Y-131021D02*
X-27192Y-131021D01*
X-31243Y-129343D01*
X-34343Y-126243D01*
X-36021Y-122192D01*
X-36021Y-117808D01*
X-34343Y-113757D01*
X-31243Y-110657D01*
X-27192Y-108979D01*
X-22808Y-108979D01*
X-18757Y-110657D01*
X-15657Y-113757D01*
X-13979Y-117808D01*
X-13979Y-122192D01*
X-15657Y-126243D01*
X-18757Y-129343D01*
X-22808Y-131021D01*
X-27192Y-131021D01*
G37*
%LPD*%
%LPC*%
G36*
X22808Y-276021D02*
X22808Y-276021D01*
X18757Y-274343D01*
X15657Y-271243D01*
X13979Y-267192D01*
X13979Y-262808D01*
X15657Y-258757D01*
X18757Y-255657D01*
X22808Y-253979D01*
X27192Y-253979D01*
X31243Y-255657D01*
X34343Y-258757D01*
X36021Y-262808D01*
X36021Y-267192D01*
X34343Y-271243D01*
X31243Y-274343D01*
X27192Y-276021D01*
X22808Y-276021D01*
G37*
%LPD*%
%LPC*%
G36*
X-27192Y-276021D02*
X-27192Y-276021D01*
X-31243Y-274343D01*
X-34343Y-271243D01*
X-36021Y-267192D01*
X-36021Y-262808D01*
X-34343Y-258757D01*
X-31243Y-255657D01*
X-27192Y-253979D01*
X-22808Y-253979D01*
X-18757Y-255657D01*
X-15657Y-258757D01*
X-13979Y-262808D01*
X-13979Y-267192D01*
X-15657Y-271243D01*
X-18757Y-274343D01*
X-22808Y-276021D01*
X-27192Y-276021D01*
G37*
%LPD*%
%LPC*%
G36*
X-21467Y-41041D02*
X-21467Y-41041D01*
X-23541Y-38967D01*
X-23541Y-36033D01*
X-22092Y-34584D01*
X-22067Y-34549D01*
X-22036Y-34521D01*
X-22004Y-34458D01*
X-21963Y-34400D01*
X-21953Y-34359D01*
X-21933Y-34321D01*
X-21920Y-34231D01*
X-21907Y-34183D01*
X-21910Y-34162D01*
X-21906Y-34136D01*
X-21906Y23948D01*
X-21913Y23990D01*
X-21911Y24032D01*
X-21933Y24099D01*
X-21945Y24169D01*
X-21967Y24205D01*
X-21980Y24246D01*
X-22034Y24318D01*
X-22060Y24362D01*
X-22076Y24375D01*
X-22092Y24396D01*
X-26906Y29211D01*
X-26906Y34136D01*
X-26913Y34177D01*
X-26911Y34220D01*
X-26933Y34287D01*
X-26945Y34356D01*
X-26967Y34393D01*
X-26980Y34433D01*
X-27034Y34506D01*
X-27060Y34550D01*
X-27076Y34563D01*
X-27092Y34584D01*
X-28541Y36033D01*
X-28541Y38967D01*
X-26467Y41041D01*
X-23533Y41041D01*
X-21459Y38967D01*
X-21459Y36033D01*
X-22908Y34584D01*
X-22933Y34549D01*
X-22964Y34521D01*
X-22996Y34458D01*
X-23037Y34400D01*
X-23047Y34359D01*
X-23067Y34321D01*
X-23080Y34231D01*
X-23093Y34183D01*
X-23090Y34162D01*
X-23094Y34136D01*
X-23094Y31052D01*
X-23087Y31010D01*
X-23089Y30968D01*
X-23071Y30913D01*
X-23071Y30912D01*
X-23070Y30909D01*
X-23067Y30901D01*
X-23055Y30831D01*
X-23033Y30795D01*
X-23020Y30754D01*
X-22991Y30715D01*
X-22987Y30704D01*
X-22966Y30681D01*
X-22940Y30638D01*
X-22924Y30625D01*
X-22908Y30604D01*
X-18094Y25789D01*
X-18094Y-34136D01*
X-18087Y-34177D01*
X-18089Y-34220D01*
X-18067Y-34287D01*
X-18055Y-34356D01*
X-18033Y-34393D01*
X-18020Y-34433D01*
X-17966Y-34506D01*
X-17940Y-34550D01*
X-17924Y-34563D01*
X-17908Y-34584D01*
X-16459Y-36033D01*
X-16459Y-38967D01*
X-18533Y-41041D01*
X-21467Y-41041D01*
G37*
%LPD*%
%LPC*%
G36*
X-246745Y-103771D02*
X-246745Y-103771D01*
X-249968Y-102435D01*
X-252435Y-99968D01*
X-253771Y-96745D01*
X-253771Y-93255D01*
X-252435Y-90032D01*
X-249968Y-87565D01*
X-246745Y-86229D01*
X-245309Y-86229D01*
X-245222Y-86214D01*
X-245133Y-86204D01*
X-245112Y-86194D01*
X-245088Y-86190D01*
X-245012Y-86144D01*
X-244932Y-86105D01*
X-244916Y-86088D01*
X-244895Y-86075D01*
X-244839Y-86006D01*
X-244778Y-85942D01*
X-244769Y-85920D01*
X-244754Y-85901D01*
X-244725Y-85817D01*
X-244691Y-85735D01*
X-244690Y-85711D01*
X-244682Y-85689D01*
X-244685Y-85600D01*
X-244681Y-85511D01*
X-244688Y-85488D01*
X-244689Y-85464D01*
X-244722Y-85382D01*
X-244749Y-85297D01*
X-244765Y-85276D01*
X-244773Y-85257D01*
X-244807Y-85219D01*
X-244861Y-85147D01*
X-246041Y-83967D01*
X-246041Y-81033D01*
X-243967Y-78959D01*
X-241033Y-78959D01*
X-238959Y-81033D01*
X-238959Y-83967D01*
X-241146Y-86154D01*
X-241190Y-86217D01*
X-241241Y-86276D01*
X-241254Y-86309D01*
X-241274Y-86338D01*
X-241294Y-86413D01*
X-241321Y-86485D01*
X-241321Y-86521D01*
X-241330Y-86555D01*
X-241322Y-86632D01*
X-241323Y-86710D01*
X-241311Y-86743D01*
X-241307Y-86778D01*
X-241273Y-86848D01*
X-241246Y-86921D01*
X-241223Y-86948D01*
X-241208Y-86979D01*
X-241151Y-87033D01*
X-241101Y-87092D01*
X-241067Y-87112D01*
X-241044Y-87133D01*
X-241002Y-87151D01*
X-240941Y-87188D01*
X-240032Y-87565D01*
X-237565Y-90032D01*
X-236229Y-93255D01*
X-236229Y-96745D01*
X-237565Y-99968D01*
X-240032Y-102435D01*
X-243255Y-103771D01*
X-246745Y-103771D01*
G37*
%LPD*%
%LPC*%
G36*
X-156745Y-103771D02*
X-156745Y-103771D01*
X-159968Y-102435D01*
X-162435Y-99968D01*
X-163771Y-96745D01*
X-163771Y-93255D01*
X-162435Y-90032D01*
X-159968Y-87565D01*
X-156745Y-86229D01*
X-153255Y-86229D01*
X-150032Y-87565D01*
X-147565Y-90032D01*
X-146229Y-93255D01*
X-146229Y-96745D01*
X-147565Y-99968D01*
X-150032Y-102435D01*
X-153255Y-103771D01*
X-156745Y-103771D01*
G37*
%LPD*%
%LPC*%
G36*
X-111745Y-103771D02*
X-111745Y-103771D01*
X-114968Y-102435D01*
X-117435Y-99968D01*
X-118771Y-96745D01*
X-118771Y-93255D01*
X-117435Y-90032D01*
X-114968Y-87565D01*
X-111745Y-86229D01*
X-108255Y-86229D01*
X-105032Y-87565D01*
X-102565Y-90032D01*
X-101229Y-93255D01*
X-101229Y-96745D01*
X-102565Y-99968D01*
X-105032Y-102435D01*
X-108255Y-103771D01*
X-111745Y-103771D01*
G37*
%LPD*%
%LPC*%
G36*
X-381595Y181979D02*
X-381595Y181979D01*
X-384543Y183200D01*
X-386800Y185457D01*
X-388021Y188405D01*
X-388021Y191595D01*
X-386800Y194543D01*
X-384543Y196800D01*
X-381595Y198021D01*
X-378405Y198021D01*
X-375457Y196800D01*
X-373200Y194543D01*
X-371979Y191595D01*
X-371979Y188405D01*
X-373200Y185457D01*
X-375457Y183200D01*
X-378405Y181979D01*
X-381595Y181979D01*
G37*
%LPD*%
%LPC*%
G36*
X378405Y-18021D02*
X378405Y-18021D01*
X375457Y-16800D01*
X373200Y-14543D01*
X371979Y-11595D01*
X371979Y-8405D01*
X373200Y-5457D01*
X375457Y-3200D01*
X378405Y-1979D01*
X381595Y-1979D01*
X384543Y-3200D01*
X386800Y-5457D01*
X388021Y-8405D01*
X388021Y-11595D01*
X386800Y-14543D01*
X384543Y-16800D01*
X381595Y-18021D01*
X378405Y-18021D01*
G37*
%LPD*%
%LPC*%
G36*
X-381595Y-18021D02*
X-381595Y-18021D01*
X-384543Y-16800D01*
X-386800Y-14543D01*
X-388021Y-11595D01*
X-388021Y-8405D01*
X-386800Y-5457D01*
X-384543Y-3200D01*
X-381595Y-1979D01*
X-378405Y-1979D01*
X-375457Y-3200D01*
X-373200Y-5457D01*
X-371979Y-8405D01*
X-371979Y-11595D01*
X-373200Y-14543D01*
X-375457Y-16800D01*
X-378405Y-18021D01*
X-381595Y-18021D01*
G37*
%LPD*%
%LPC*%
G36*
X-381595Y1979D02*
X-381595Y1979D01*
X-384543Y3200D01*
X-386800Y5457D01*
X-388021Y8405D01*
X-388021Y11595D01*
X-386800Y14543D01*
X-384543Y16800D01*
X-381595Y18021D01*
X-378405Y18021D01*
X-375457Y16800D01*
X-373200Y14543D01*
X-371979Y11595D01*
X-371979Y8405D01*
X-373200Y5457D01*
X-375457Y3200D01*
X-378405Y1979D01*
X-381595Y1979D01*
G37*
%LPD*%
%LPC*%
G36*
X378405Y1979D02*
X378405Y1979D01*
X375457Y3200D01*
X373200Y5457D01*
X371979Y8405D01*
X371979Y11595D01*
X373200Y14543D01*
X375457Y16800D01*
X378405Y18021D01*
X381595Y18021D01*
X384543Y16800D01*
X386800Y14543D01*
X388021Y11595D01*
X388021Y8405D01*
X386800Y5457D01*
X384543Y3200D01*
X381595Y1979D01*
X378405Y1979D01*
G37*
%LPD*%
%LPC*%
G36*
X378405Y181979D02*
X378405Y181979D01*
X375457Y183200D01*
X373200Y185457D01*
X371979Y188405D01*
X371979Y191595D01*
X373200Y194543D01*
X375457Y196800D01*
X378405Y198021D01*
X381595Y198021D01*
X384543Y196800D01*
X386800Y194543D01*
X388021Y191595D01*
X388021Y188405D01*
X386800Y185457D01*
X384543Y183200D01*
X381595Y181979D01*
X378405Y181979D01*
G37*
%LPD*%
%LPC*%
G36*
X378405Y161979D02*
X378405Y161979D01*
X375457Y163200D01*
X373200Y165457D01*
X371979Y168405D01*
X371979Y171595D01*
X373200Y174543D01*
X375457Y176800D01*
X378405Y178021D01*
X381595Y178021D01*
X384543Y176800D01*
X386800Y174543D01*
X388021Y171595D01*
X388021Y168405D01*
X386800Y165457D01*
X384543Y163200D01*
X381595Y161979D01*
X378405Y161979D01*
G37*
%LPD*%
%LPC*%
G36*
X-381595Y21979D02*
X-381595Y21979D01*
X-384543Y23200D01*
X-386800Y25457D01*
X-388021Y28405D01*
X-388021Y31595D01*
X-386800Y34543D01*
X-384543Y36800D01*
X-381595Y38021D01*
X-378405Y38021D01*
X-375457Y36800D01*
X-373200Y34543D01*
X-371979Y31595D01*
X-371979Y28405D01*
X-373200Y25457D01*
X-375457Y23200D01*
X-378405Y21979D01*
X-381595Y21979D01*
G37*
%LPD*%
%LPC*%
G36*
X378405Y201979D02*
X378405Y201979D01*
X375457Y203200D01*
X373200Y205457D01*
X371979Y208405D01*
X371979Y211595D01*
X373200Y214543D01*
X375457Y216800D01*
X378405Y218021D01*
X381595Y218021D01*
X384543Y216800D01*
X386800Y214543D01*
X388021Y211595D01*
X388021Y208405D01*
X386800Y205457D01*
X384543Y203200D01*
X381595Y201979D01*
X378405Y201979D01*
G37*
%LPD*%
%LPC*%
G36*
X-381595Y201979D02*
X-381595Y201979D01*
X-384543Y203200D01*
X-386800Y205457D01*
X-388021Y208405D01*
X-388021Y211595D01*
X-386800Y214543D01*
X-384543Y216800D01*
X-381595Y218021D01*
X-378405Y218021D01*
X-375457Y216800D01*
X-373200Y214543D01*
X-371979Y211595D01*
X-371979Y208405D01*
X-373200Y205457D01*
X-375457Y203200D01*
X-378405Y201979D01*
X-381595Y201979D01*
G37*
%LPD*%
%LPC*%
G36*
X-381595Y41979D02*
X-381595Y41979D01*
X-384543Y43200D01*
X-386800Y45457D01*
X-388021Y48405D01*
X-388021Y51595D01*
X-386800Y54543D01*
X-384543Y56800D01*
X-381595Y58021D01*
X-378405Y58021D01*
X-375457Y56800D01*
X-373200Y54543D01*
X-371979Y51595D01*
X-371979Y48405D01*
X-373200Y45457D01*
X-375457Y43200D01*
X-378405Y41979D01*
X-381595Y41979D01*
G37*
%LPD*%
%LPC*%
G36*
X378405Y41979D02*
X378405Y41979D01*
X375457Y43200D01*
X373200Y45457D01*
X371979Y48405D01*
X371979Y51595D01*
X373200Y54543D01*
X375457Y56800D01*
X378405Y58021D01*
X381595Y58021D01*
X384543Y56800D01*
X386800Y54543D01*
X388021Y51595D01*
X388021Y48405D01*
X386800Y45457D01*
X384543Y43200D01*
X381595Y41979D01*
X378405Y41979D01*
G37*
%LPD*%
%LPC*%
G36*
X378405Y61979D02*
X378405Y61979D01*
X375457Y63200D01*
X373200Y65457D01*
X371979Y68405D01*
X371979Y71595D01*
X373200Y74543D01*
X375457Y76800D01*
X378405Y78021D01*
X381595Y78021D01*
X384543Y76800D01*
X386800Y74543D01*
X388021Y71595D01*
X388021Y68405D01*
X386800Y65457D01*
X384543Y63200D01*
X381595Y61979D01*
X378405Y61979D01*
G37*
%LPD*%
%LPC*%
G36*
X-381595Y61979D02*
X-381595Y61979D01*
X-384543Y63200D01*
X-386800Y65457D01*
X-388021Y68405D01*
X-388021Y71595D01*
X-386800Y74543D01*
X-384543Y76800D01*
X-381595Y78021D01*
X-378405Y78021D01*
X-375457Y76800D01*
X-373200Y74543D01*
X-371979Y71595D01*
X-371979Y68405D01*
X-373200Y65457D01*
X-375457Y63200D01*
X-378405Y61979D01*
X-381595Y61979D01*
G37*
%LPD*%
%LPC*%
G36*
X-381595Y81979D02*
X-381595Y81979D01*
X-384543Y83200D01*
X-386800Y85457D01*
X-388021Y88405D01*
X-388021Y91595D01*
X-386800Y94543D01*
X-384543Y96800D01*
X-381595Y98021D01*
X-378405Y98021D01*
X-375457Y96800D01*
X-373200Y94543D01*
X-371979Y91595D01*
X-371979Y88405D01*
X-373200Y85457D01*
X-375457Y83200D01*
X-378405Y81979D01*
X-381595Y81979D01*
G37*
%LPD*%
%LPC*%
G36*
X378405Y101979D02*
X378405Y101979D01*
X375457Y103200D01*
X373200Y105457D01*
X371979Y108405D01*
X371979Y111595D01*
X373200Y114543D01*
X375457Y116800D01*
X378405Y118021D01*
X381595Y118021D01*
X384543Y116800D01*
X386800Y114543D01*
X388021Y111595D01*
X388021Y108405D01*
X386800Y105457D01*
X384543Y103200D01*
X381595Y101979D01*
X378405Y101979D01*
G37*
%LPD*%
%LPC*%
G36*
X-381595Y121979D02*
X-381595Y121979D01*
X-384543Y123200D01*
X-386800Y125457D01*
X-388021Y128405D01*
X-388021Y131595D01*
X-386800Y134543D01*
X-384543Y136800D01*
X-381595Y138021D01*
X-378405Y138021D01*
X-375457Y136800D01*
X-373200Y134543D01*
X-371979Y131595D01*
X-371979Y128405D01*
X-373200Y125457D01*
X-375457Y123200D01*
X-378405Y121979D01*
X-381595Y121979D01*
G37*
%LPD*%
%LPC*%
G36*
X-381595Y141979D02*
X-381595Y141979D01*
X-384543Y143200D01*
X-386800Y145457D01*
X-388021Y148405D01*
X-388021Y151595D01*
X-386800Y154543D01*
X-384543Y156800D01*
X-381595Y158021D01*
X-378405Y158021D01*
X-375457Y156800D01*
X-373200Y154543D01*
X-371979Y151595D01*
X-371979Y148405D01*
X-373200Y145457D01*
X-375457Y143200D01*
X-378405Y141979D01*
X-381595Y141979D01*
G37*
%LPD*%
%LPC*%
G36*
X378405Y141979D02*
X378405Y141979D01*
X375457Y143200D01*
X373200Y145457D01*
X371979Y148405D01*
X371979Y151595D01*
X373200Y154543D01*
X375457Y156800D01*
X378405Y158021D01*
X381595Y158021D01*
X384543Y156800D01*
X386800Y154543D01*
X388021Y151595D01*
X388021Y148405D01*
X386800Y145457D01*
X384543Y143200D01*
X381595Y141979D01*
X378405Y141979D01*
G37*
%LPD*%
%LPC*%
G36*
X378405Y121979D02*
X378405Y121979D01*
X375457Y123200D01*
X373200Y125457D01*
X371979Y128405D01*
X371979Y131595D01*
X373200Y134543D01*
X375457Y136800D01*
X378405Y138021D01*
X381595Y138021D01*
X384543Y136800D01*
X386800Y134543D01*
X388021Y131595D01*
X388021Y128405D01*
X386800Y125457D01*
X384543Y123200D01*
X381595Y121979D01*
X378405Y121979D01*
G37*
%LPD*%
%LPC*%
G36*
X1269Y-266269D02*
X1269Y-266269D01*
X12243Y-266269D01*
X11988Y-267878D01*
X11390Y-269718D01*
X10512Y-271442D01*
X9375Y-273007D01*
X8007Y-274375D01*
X6442Y-275512D01*
X4718Y-276390D01*
X2878Y-276988D01*
X1269Y-277243D01*
X1269Y-266269D01*
G37*
%LPD*%
%LPC*%
G36*
X26269Y-121269D02*
X26269Y-121269D01*
X37243Y-121269D01*
X36988Y-122878D01*
X36390Y-124718D01*
X35512Y-126442D01*
X34375Y-128007D01*
X33007Y-129375D01*
X31442Y-130512D01*
X29718Y-131390D01*
X27878Y-131988D01*
X26269Y-132243D01*
X26269Y-121269D01*
G37*
%LPD*%
%LPC*%
G36*
X-2878Y-276988D02*
X-2878Y-276988D01*
X-4718Y-276390D01*
X-6442Y-275512D01*
X-8007Y-274375D01*
X-9375Y-273007D01*
X-10512Y-271442D01*
X-11390Y-269718D01*
X-11988Y-267878D01*
X-12243Y-266269D01*
X-1269Y-266269D01*
X-1269Y-277243D01*
X-2878Y-276988D01*
G37*
%LPD*%
%LPC*%
G36*
X26269Y-118731D02*
X26269Y-118731D01*
X26269Y-107757D01*
X27878Y-108012D01*
X29718Y-108610D01*
X31442Y-109488D01*
X33007Y-110625D01*
X34375Y-111993D01*
X35512Y-113558D01*
X36390Y-115282D01*
X36988Y-117122D01*
X37243Y-118731D01*
X26269Y-118731D01*
G37*
%LPD*%
%LPC*%
G36*
X1269Y-263731D02*
X1269Y-263731D01*
X1269Y-252757D01*
X2878Y-253012D01*
X4718Y-253610D01*
X6442Y-254488D01*
X8007Y-255625D01*
X9375Y-256993D01*
X10512Y-258558D01*
X11390Y-260282D01*
X11988Y-262122D01*
X12243Y-263731D01*
X1269Y-263731D01*
G37*
%LPD*%
%LPC*%
G36*
X-12243Y-263731D02*
X-12243Y-263731D01*
X-11988Y-262122D01*
X-11390Y-260282D01*
X-10512Y-258558D01*
X-9375Y-256993D01*
X-8007Y-255625D01*
X-6442Y-254488D01*
X-4718Y-253610D01*
X-2878Y-253012D01*
X-1269Y-252757D01*
X-1269Y-263731D01*
X-12243Y-263731D01*
G37*
%LPD*%
%LPC*%
G36*
X22122Y-131988D02*
X22122Y-131988D01*
X20282Y-131390D01*
X18558Y-130512D01*
X16993Y-129375D01*
X15625Y-128007D01*
X14488Y-126442D01*
X13610Y-124718D01*
X13012Y-122878D01*
X12757Y-121269D01*
X23731Y-121269D01*
X23731Y-132243D01*
X22122Y-131988D01*
G37*
%LPD*%
%LPC*%
G36*
X12757Y-118731D02*
X12757Y-118731D01*
X13012Y-117122D01*
X13610Y-115282D01*
X14488Y-113558D01*
X15625Y-111993D01*
X16993Y-110625D01*
X18558Y-109488D01*
X20282Y-108610D01*
X22122Y-108012D01*
X23731Y-107757D01*
X23731Y-118731D01*
X12757Y-118731D01*
G37*
%LPD*%
%LPC*%
G36*
X-313507Y-166291D02*
X-313507Y-166291D01*
X-315581Y-164217D01*
X-315581Y-161675D01*
X-315592Y-161610D01*
X-315594Y-161544D01*
X-315612Y-161501D01*
X-315620Y-161454D01*
X-315654Y-161397D01*
X-315679Y-161337D01*
X-315710Y-161302D01*
X-315735Y-161261D01*
X-315786Y-161219D01*
X-315830Y-161171D01*
X-315872Y-161149D01*
X-315909Y-161120D01*
X-315971Y-161099D01*
X-316030Y-161068D01*
X-316084Y-161060D01*
X-316121Y-161048D01*
X-316161Y-161049D01*
X-316215Y-161041D01*
X-318967Y-161041D01*
X-321041Y-158967D01*
X-321041Y-156033D01*
X-318967Y-153959D01*
X-316033Y-153959D01*
X-313959Y-156033D01*
X-313959Y-158575D01*
X-313948Y-158640D01*
X-313946Y-158706D01*
X-313928Y-158749D01*
X-313920Y-158796D01*
X-313886Y-158853D01*
X-313861Y-158913D01*
X-313830Y-158948D01*
X-313805Y-158989D01*
X-313754Y-159031D01*
X-313710Y-159079D01*
X-313668Y-159101D01*
X-313631Y-159130D01*
X-313569Y-159151D01*
X-313510Y-159182D01*
X-313456Y-159190D01*
X-313419Y-159202D01*
X-313379Y-159201D01*
X-313325Y-159209D01*
X-310573Y-159209D01*
X-308499Y-161283D01*
X-308499Y-164217D01*
X-310573Y-166291D01*
X-313507Y-166291D01*
G37*
%LPD*%
%LPC*%
G36*
X296033Y-121041D02*
X296033Y-121041D01*
X293959Y-118967D01*
X293959Y-116033D01*
X295794Y-114199D01*
X295832Y-114144D01*
X295877Y-114097D01*
X295895Y-114053D01*
X295922Y-114014D01*
X295939Y-113951D01*
X295964Y-113890D01*
X295966Y-113843D01*
X295978Y-113797D01*
X295971Y-113732D01*
X295974Y-113666D01*
X295960Y-113621D01*
X295955Y-113574D01*
X295926Y-113515D01*
X295906Y-113452D01*
X295873Y-113408D01*
X295856Y-113373D01*
X295827Y-113346D01*
X295794Y-113302D01*
X293959Y-111467D01*
X293959Y-108533D01*
X296033Y-106459D01*
X298967Y-106459D01*
X301041Y-108533D01*
X301041Y-111467D01*
X299206Y-113302D01*
X299168Y-113356D01*
X299123Y-113403D01*
X299105Y-113447D01*
X299078Y-113486D01*
X299061Y-113549D01*
X299036Y-113610D01*
X299034Y-113657D01*
X299022Y-113703D01*
X299029Y-113768D01*
X299026Y-113834D01*
X299040Y-113879D01*
X299045Y-113926D01*
X299074Y-113985D01*
X299094Y-114048D01*
X299127Y-114092D01*
X299144Y-114127D01*
X299173Y-114154D01*
X299206Y-114199D01*
X301041Y-116033D01*
X301041Y-118967D01*
X298967Y-121041D01*
X296033Y-121041D01*
G37*
%LPD*%
%LPC*%
G36*
X16033Y-41041D02*
X16033Y-41041D01*
X13959Y-38967D01*
X13959Y-36033D01*
X16033Y-33959D01*
X18967Y-33959D01*
X20802Y-35794D01*
X20856Y-35832D01*
X20903Y-35877D01*
X20947Y-35895D01*
X20986Y-35922D01*
X21049Y-35939D01*
X21110Y-35964D01*
X21157Y-35966D01*
X21203Y-35978D01*
X21268Y-35971D01*
X21334Y-35974D01*
X21379Y-35960D01*
X21426Y-35955D01*
X21485Y-35926D01*
X21548Y-35906D01*
X21592Y-35873D01*
X21627Y-35856D01*
X21654Y-35827D01*
X21699Y-35794D01*
X23533Y-33959D01*
X26467Y-33959D01*
X28541Y-36033D01*
X28541Y-38967D01*
X26467Y-41041D01*
X23533Y-41041D01*
X21699Y-39206D01*
X21644Y-39168D01*
X21597Y-39123D01*
X21553Y-39105D01*
X21514Y-39078D01*
X21451Y-39061D01*
X21390Y-39036D01*
X21343Y-39034D01*
X21297Y-39022D01*
X21232Y-39029D01*
X21166Y-39026D01*
X21121Y-39040D01*
X21074Y-39045D01*
X21015Y-39074D01*
X20952Y-39094D01*
X20908Y-39127D01*
X20873Y-39144D01*
X20846Y-39173D01*
X20802Y-39206D01*
X18967Y-41041D01*
X16033Y-41041D01*
G37*
%LPD*%
%LPC*%
G36*
X276033Y93959D02*
X276033Y93959D01*
X273959Y96033D01*
X273959Y98325D01*
X273948Y98390D01*
X273946Y98456D01*
X273928Y98499D01*
X273920Y98546D01*
X273886Y98603D01*
X273861Y98663D01*
X273830Y98698D01*
X273805Y98739D01*
X273754Y98781D01*
X273710Y98829D01*
X273668Y98851D01*
X273631Y98880D01*
X273569Y98901D01*
X273510Y98932D01*
X273456Y98940D01*
X273419Y98952D01*
X273379Y98951D01*
X273325Y98959D01*
X271033Y98959D01*
X268959Y101033D01*
X268959Y103967D01*
X271033Y106041D01*
X273967Y106041D01*
X276041Y103967D01*
X276041Y101675D01*
X276052Y101610D01*
X276054Y101544D01*
X276072Y101501D01*
X276080Y101454D01*
X276114Y101397D01*
X276139Y101337D01*
X276170Y101302D01*
X276195Y101261D01*
X276246Y101219D01*
X276290Y101171D01*
X276332Y101149D01*
X276369Y101120D01*
X276431Y101099D01*
X276490Y101068D01*
X276544Y101060D01*
X276581Y101048D01*
X276621Y101049D01*
X276675Y101041D01*
X278967Y101041D01*
X281041Y98967D01*
X281041Y96033D01*
X278967Y93959D01*
X276033Y93959D01*
G37*
%LPD*%
%LPC*%
G36*
X191033Y58959D02*
X191033Y58959D01*
X188959Y61033D01*
X188959Y63967D01*
X191033Y66041D01*
X193325Y66041D01*
X193390Y66052D01*
X193456Y66054D01*
X193499Y66072D01*
X193546Y66080D01*
X193603Y66114D01*
X193663Y66139D01*
X193698Y66170D01*
X193739Y66195D01*
X193781Y66246D01*
X193829Y66290D01*
X193851Y66332D01*
X193880Y66369D01*
X193901Y66431D01*
X193932Y66490D01*
X193940Y66544D01*
X193952Y66581D01*
X193951Y66621D01*
X193959Y66675D01*
X193959Y68967D01*
X196033Y71041D01*
X198967Y71041D01*
X201041Y68967D01*
X201041Y66033D01*
X198967Y63959D01*
X196675Y63959D01*
X196610Y63948D01*
X196544Y63946D01*
X196501Y63928D01*
X196454Y63920D01*
X196397Y63886D01*
X196337Y63861D01*
X196302Y63830D01*
X196261Y63805D01*
X196219Y63754D01*
X196171Y63710D01*
X196149Y63668D01*
X196120Y63631D01*
X196099Y63569D01*
X196068Y63510D01*
X196060Y63456D01*
X196048Y63419D01*
X196049Y63379D01*
X196041Y63325D01*
X196041Y61033D01*
X193967Y58959D01*
X191033Y58959D01*
G37*
%LPD*%
%LPC*%
G36*
X-286467Y-71041D02*
X-286467Y-71041D01*
X-288541Y-68967D01*
X-288541Y-66675D01*
X-288552Y-66610D01*
X-288554Y-66544D01*
X-288572Y-66501D01*
X-288580Y-66454D01*
X-288614Y-66397D01*
X-288639Y-66337D01*
X-288670Y-66302D01*
X-288695Y-66261D01*
X-288746Y-66219D01*
X-288790Y-66171D01*
X-288832Y-66149D01*
X-288869Y-66120D01*
X-288931Y-66099D01*
X-288990Y-66068D01*
X-289044Y-66060D01*
X-289081Y-66048D01*
X-289121Y-66049D01*
X-289175Y-66041D01*
X-291467Y-66041D01*
X-293541Y-63967D01*
X-293541Y-61033D01*
X-291467Y-58959D01*
X-288533Y-58959D01*
X-286459Y-61033D01*
X-286459Y-63325D01*
X-286448Y-63390D01*
X-286446Y-63456D01*
X-286428Y-63499D01*
X-286420Y-63546D01*
X-286386Y-63603D01*
X-286361Y-63663D01*
X-286330Y-63698D01*
X-286305Y-63739D01*
X-286254Y-63781D01*
X-286210Y-63829D01*
X-286168Y-63851D01*
X-286131Y-63880D01*
X-286069Y-63901D01*
X-286010Y-63932D01*
X-285956Y-63940D01*
X-285919Y-63952D01*
X-285879Y-63951D01*
X-285825Y-63959D01*
X-283533Y-63959D01*
X-281459Y-66033D01*
X-281459Y-68967D01*
X-283533Y-71041D01*
X-286467Y-71041D01*
G37*
%LPD*%
%LPC*%
G36*
X-386287Y-169446D02*
X-386287Y-169446D01*
X-388891Y-166842D01*
X-388891Y-163158D01*
X-386287Y-160554D01*
X-382603Y-160554D01*
X-379999Y-163158D01*
X-379999Y-166842D01*
X-382603Y-169446D01*
X-386287Y-169446D01*
G37*
%LPD*%
%LPC*%
G36*
X-204497Y100554D02*
X-204497Y100554D01*
X-207101Y103158D01*
X-207101Y106842D01*
X-204497Y109446D01*
X-200813Y109446D01*
X-198209Y106842D01*
X-198209Y103158D01*
X-200813Y100554D01*
X-204497Y100554D01*
G37*
%LPD*%
%LPC*%
G36*
X-264497Y100554D02*
X-264497Y100554D01*
X-267101Y103158D01*
X-267101Y106842D01*
X-264497Y109446D01*
X-260813Y109446D01*
X-258209Y106842D01*
X-258209Y103158D01*
X-260813Y100554D01*
X-264497Y100554D01*
G37*
%LPD*%
%LPC*%
G36*
X-319187Y100554D02*
X-319187Y100554D01*
X-321791Y103158D01*
X-321791Y106842D01*
X-319187Y109446D01*
X-315503Y109446D01*
X-312899Y106842D01*
X-312899Y103158D01*
X-315503Y100554D01*
X-319187Y100554D01*
G37*
%LPD*%
%LPC*%
G36*
X-285288Y75054D02*
X-285288Y75054D01*
X-287892Y77658D01*
X-287892Y81342D01*
X-285288Y83946D01*
X-281604Y83946D01*
X-279000Y81342D01*
X-279000Y77658D01*
X-281604Y75054D01*
X-285288Y75054D01*
G37*
%LPD*%
%LPC*%
G36*
X-349842Y-182001D02*
X-349842Y-182001D01*
X-352446Y-179397D01*
X-352446Y-175713D01*
X-349842Y-173109D01*
X-346158Y-173109D01*
X-343554Y-175713D01*
X-343554Y-179397D01*
X-346158Y-182001D01*
X-349842Y-182001D01*
G37*
%LPD*%
%LPC*%
G36*
X291158Y219359D02*
X291158Y219359D01*
X288554Y221963D01*
X288554Y225647D01*
X291158Y228251D01*
X294842Y228251D01*
X297446Y225647D01*
X297446Y221963D01*
X294842Y219359D01*
X291158Y219359D01*
G37*
%LPD*%
%LPC*%
G36*
X-238396Y75054D02*
X-238396Y75054D01*
X-241000Y77658D01*
X-241000Y81342D01*
X-238396Y83946D01*
X-234712Y83946D01*
X-232108Y81342D01*
X-232108Y77658D01*
X-234712Y75054D01*
X-238396Y75054D01*
G37*
%LPD*%
%LPC*%
G36*
X230168Y155304D02*
X230168Y155304D01*
X227564Y157908D01*
X227564Y161592D01*
X230168Y164196D01*
X233852Y164196D01*
X236456Y161592D01*
X236456Y157908D01*
X233852Y155304D01*
X230168Y155304D01*
G37*
%LPD*%
%LPC*%
G36*
X218158Y132609D02*
X218158Y132609D01*
X215554Y135213D01*
X215554Y138896D01*
X218158Y141500D01*
X221842Y141500D01*
X224446Y138896D01*
X224446Y135213D01*
X221842Y132609D01*
X218158Y132609D01*
G37*
%LPD*%
%LPC*%
G36*
X-226842Y48500D02*
X-226842Y48500D01*
X-229446Y51104D01*
X-229446Y54787D01*
X-226842Y57391D01*
X-223158Y57391D01*
X-220554Y54787D01*
X-220554Y51104D01*
X-223158Y48500D01*
X-226842Y48500D01*
G37*
%LPD*%
%LPC*%
G36*
X-221842Y139109D02*
X-221842Y139109D01*
X-224446Y141713D01*
X-224446Y145397D01*
X-221842Y148001D01*
X-218158Y148001D01*
X-215554Y145397D01*
X-215554Y141713D01*
X-218158Y139109D01*
X-221842Y139109D01*
G37*
%LPD*%
%LPC*%
G36*
X-314787Y-227196D02*
X-314787Y-227196D01*
X-317391Y-224592D01*
X-317391Y-220908D01*
X-314787Y-218304D01*
X-311103Y-218304D01*
X-308499Y-220908D01*
X-308499Y-224592D01*
X-311103Y-227196D01*
X-314787Y-227196D01*
G37*
%LPD*%
%LPC*%
G36*
X-202351Y-104794D02*
X-202351Y-104794D01*
X-203854Y-104305D01*
X-205262Y-103588D01*
X-206541Y-102659D01*
X-207659Y-101541D01*
X-208588Y-100262D01*
X-209305Y-98854D01*
X-209794Y-97351D01*
X-209965Y-96269D01*
X-201269Y-96269D01*
X-201269Y-104965D01*
X-202351Y-104794D01*
G37*
%LPD*%
%LPC*%
G36*
X-209965Y-93731D02*
X-209965Y-93731D01*
X-209794Y-92649D01*
X-209305Y-91146D01*
X-208588Y-89738D01*
X-207659Y-88459D01*
X-206541Y-87341D01*
X-205262Y-86412D01*
X-203854Y-85695D01*
X-202351Y-85206D01*
X-201269Y-85035D01*
X-201269Y-93731D01*
X-209965Y-93731D01*
G37*
%LPD*%
%LPC*%
G36*
X-198731Y-96269D02*
X-198731Y-96269D01*
X-190035Y-96269D01*
X-190206Y-97351D01*
X-190695Y-98854D01*
X-191412Y-100262D01*
X-192341Y-101541D01*
X-193459Y-102659D01*
X-194738Y-103588D01*
X-196146Y-104305D01*
X-197649Y-104794D01*
X-198731Y-104965D01*
X-198731Y-96269D01*
G37*
%LPD*%
%LPC*%
G36*
X-198731Y-93731D02*
X-198731Y-93731D01*
X-198731Y-85035D01*
X-197649Y-85206D01*
X-196146Y-85695D01*
X-194738Y-86412D01*
X-193459Y-87341D01*
X-192341Y-88459D01*
X-191412Y-89738D01*
X-190695Y-91146D01*
X-190206Y-92649D01*
X-190035Y-93731D01*
X-198731Y-93731D01*
G37*
%LPD*%
%LPC*%
G36*
X381269Y91269D02*
X381269Y91269D01*
X381269Y99220D01*
X382710Y98934D01*
X384401Y98233D01*
X385923Y97217D01*
X387217Y95923D01*
X388233Y94401D01*
X388934Y92710D01*
X389220Y91269D01*
X381269Y91269D01*
G37*
%LPD*%
%LPC*%
G36*
X381269Y31269D02*
X381269Y31269D01*
X381269Y39220D01*
X382710Y38934D01*
X384401Y38233D01*
X385923Y37217D01*
X387217Y35923D01*
X388233Y34401D01*
X388934Y32710D01*
X389220Y31269D01*
X381269Y31269D01*
G37*
%LPD*%
%LPC*%
G36*
X-389220Y171269D02*
X-389220Y171269D01*
X-388934Y172710D01*
X-388233Y174401D01*
X-387217Y175923D01*
X-385923Y177217D01*
X-384401Y178233D01*
X-382710Y178934D01*
X-381269Y179220D01*
X-381269Y171269D01*
X-389220Y171269D01*
G37*
%LPD*%
%LPC*%
G36*
X-389220Y111269D02*
X-389220Y111269D01*
X-388934Y112710D01*
X-388233Y114401D01*
X-387217Y115923D01*
X-385923Y117217D01*
X-384401Y118233D01*
X-382710Y118934D01*
X-381269Y119220D01*
X-381269Y111269D01*
X-389220Y111269D01*
G37*
%LPD*%
%LPC*%
G36*
X-378731Y171269D02*
X-378731Y171269D01*
X-378731Y179220D01*
X-377290Y178934D01*
X-375599Y178233D01*
X-374077Y177217D01*
X-372783Y175923D01*
X-371767Y174401D01*
X-371066Y172710D01*
X-370780Y171269D01*
X-378731Y171269D01*
G37*
%LPD*%
%LPC*%
G36*
X-378731Y111269D02*
X-378731Y111269D01*
X-378731Y119220D01*
X-377290Y118934D01*
X-375599Y118233D01*
X-374077Y117217D01*
X-372783Y115923D01*
X-371767Y114401D01*
X-371066Y112710D01*
X-370780Y111269D01*
X-378731Y111269D01*
G37*
%LPD*%
%LPC*%
G36*
X-382710Y161066D02*
X-382710Y161066D01*
X-384401Y161767D01*
X-385923Y162783D01*
X-387217Y164077D01*
X-388233Y165599D01*
X-388934Y167290D01*
X-389220Y168731D01*
X-381269Y168731D01*
X-381269Y160780D01*
X-382710Y161066D01*
G37*
%LPD*%
%LPC*%
G36*
X-382710Y101066D02*
X-382710Y101066D01*
X-384401Y101767D01*
X-385923Y102783D01*
X-387217Y104077D01*
X-388233Y105599D01*
X-388934Y107290D01*
X-389220Y108731D01*
X-381269Y108731D01*
X-381269Y100780D01*
X-382710Y101066D01*
G37*
%LPD*%
%LPC*%
G36*
X381269Y88731D02*
X381269Y88731D01*
X389220Y88731D01*
X388934Y87290D01*
X388233Y85599D01*
X387217Y84077D01*
X385923Y82783D01*
X384401Y81767D01*
X382710Y81066D01*
X381269Y80780D01*
X381269Y88731D01*
G37*
%LPD*%
%LPC*%
G36*
X370780Y31269D02*
X370780Y31269D01*
X371066Y32710D01*
X371767Y34401D01*
X372783Y35923D01*
X374077Y37217D01*
X375599Y38233D01*
X377290Y38934D01*
X378731Y39220D01*
X378731Y31269D01*
X370780Y31269D01*
G37*
%LPD*%
%LPC*%
G36*
X370780Y91269D02*
X370780Y91269D01*
X371066Y92710D01*
X371767Y94401D01*
X372783Y95923D01*
X374077Y97217D01*
X375599Y98233D01*
X377290Y98934D01*
X378731Y99220D01*
X378731Y91269D01*
X370780Y91269D01*
G37*
%LPD*%
%LPC*%
G36*
X381269Y28731D02*
X381269Y28731D01*
X389220Y28731D01*
X388934Y27290D01*
X388233Y25599D01*
X387217Y24077D01*
X385923Y22783D01*
X384401Y21767D01*
X382710Y21066D01*
X381269Y20780D01*
X381269Y28731D01*
G37*
%LPD*%
%LPC*%
G36*
X377290Y21066D02*
X377290Y21066D01*
X375599Y21767D01*
X374077Y22783D01*
X372783Y24077D01*
X371767Y25599D01*
X371066Y27290D01*
X370780Y28731D01*
X378731Y28731D01*
X378731Y20780D01*
X377290Y21066D01*
G37*
%LPD*%
%LPC*%
G36*
X377290Y81066D02*
X377290Y81066D01*
X375599Y81767D01*
X374077Y82783D01*
X372783Y84077D01*
X371767Y85599D01*
X371066Y87290D01*
X370780Y88731D01*
X378731Y88731D01*
X378731Y80780D01*
X377290Y81066D01*
G37*
%LPD*%
%LPC*%
G36*
X-378731Y168731D02*
X-378731Y168731D01*
X-370780Y168731D01*
X-371066Y167290D01*
X-371767Y165599D01*
X-372783Y164077D01*
X-374077Y162783D01*
X-375599Y161767D01*
X-377290Y161066D01*
X-378731Y160780D01*
X-378731Y168731D01*
G37*
%LPD*%
%LPC*%
G36*
X-378731Y108731D02*
X-378731Y108731D01*
X-370780Y108731D01*
X-371066Y107290D01*
X-371767Y105599D01*
X-372783Y104077D01*
X-374077Y102783D01*
X-375599Y101767D01*
X-377290Y101066D01*
X-378731Y100780D01*
X-378731Y108731D01*
G37*
%LPD*%
%LPC*%
G36*
X11033Y61299D02*
X11033Y61299D01*
X8959Y63373D01*
X8959Y66307D01*
X11033Y68381D01*
X13967Y68381D01*
X16041Y66307D01*
X16041Y63373D01*
X13967Y61299D01*
X11033Y61299D01*
G37*
%LPD*%
%LPC*%
G36*
X-13967Y61299D02*
X-13967Y61299D01*
X-16041Y63373D01*
X-16041Y66307D01*
X-13967Y68381D01*
X-11033Y68381D01*
X-8959Y66307D01*
X-8959Y63373D01*
X-11033Y61299D01*
X-13967Y61299D01*
G37*
%LPD*%
%LPC*%
G36*
X281033Y158959D02*
X281033Y158959D01*
X278959Y161033D01*
X278959Y163967D01*
X281033Y166041D01*
X283967Y166041D01*
X286041Y163967D01*
X286041Y161033D01*
X283967Y158959D01*
X281033Y158959D01*
G37*
%LPD*%
%LPC*%
G36*
X-81467Y138959D02*
X-81467Y138959D01*
X-83541Y141033D01*
X-83541Y143967D01*
X-81467Y146041D01*
X-78533Y146041D01*
X-76459Y143967D01*
X-76459Y141033D01*
X-78533Y138959D01*
X-81467Y138959D01*
G37*
%LPD*%
%LPC*%
G36*
X288533Y50310D02*
X288533Y50310D01*
X286459Y52384D01*
X286459Y55317D01*
X288533Y57391D01*
X291467Y57391D01*
X293541Y55317D01*
X293541Y52384D01*
X291467Y50310D01*
X288533Y50310D01*
G37*
%LPD*%
%LPC*%
G36*
X-41467Y248959D02*
X-41467Y248959D01*
X-43541Y251033D01*
X-43541Y253967D01*
X-41467Y256041D01*
X-38533Y256041D01*
X-36459Y253967D01*
X-36459Y251033D01*
X-38533Y248959D01*
X-41467Y248959D01*
G37*
%LPD*%
%LPC*%
G36*
X211033Y63959D02*
X211033Y63959D01*
X208959Y66033D01*
X208959Y68967D01*
X211033Y71041D01*
X213967Y71041D01*
X216041Y68967D01*
X216041Y66033D01*
X213967Y63959D01*
X211033Y63959D01*
G37*
%LPD*%
%LPC*%
G36*
X-31467Y238959D02*
X-31467Y238959D01*
X-33541Y241033D01*
X-33541Y243967D01*
X-31467Y246041D01*
X-28533Y246041D01*
X-26459Y243967D01*
X-26459Y241033D01*
X-28533Y238959D01*
X-31467Y238959D01*
G37*
%LPD*%
%LPC*%
G36*
X-321867Y143959D02*
X-321867Y143959D01*
X-323941Y146033D01*
X-323941Y148967D01*
X-321867Y151041D01*
X-318933Y151041D01*
X-316859Y148967D01*
X-316859Y146033D01*
X-318933Y143959D01*
X-321867Y143959D01*
G37*
%LPD*%
%LPC*%
G36*
X-81467Y151459D02*
X-81467Y151459D01*
X-83541Y153533D01*
X-83541Y156467D01*
X-81467Y158541D01*
X-78533Y158541D01*
X-76459Y156467D01*
X-76459Y153533D01*
X-78533Y151459D01*
X-81467Y151459D01*
G37*
%LPD*%
%LPC*%
G36*
X-81467Y31459D02*
X-81467Y31459D01*
X-83541Y33533D01*
X-83541Y36467D01*
X-81467Y38541D01*
X-78533Y38541D01*
X-76459Y36467D01*
X-76459Y33533D01*
X-78533Y31459D01*
X-81467Y31459D01*
G37*
%LPD*%
%LPC*%
G36*
X-73967Y166459D02*
X-73967Y166459D01*
X-76041Y168533D01*
X-76041Y171467D01*
X-73967Y173541D01*
X-71033Y173541D01*
X-68959Y171467D01*
X-68959Y168533D01*
X-71033Y166459D01*
X-73967Y166459D01*
G37*
%LPD*%
%LPC*%
G36*
X318650Y29209D02*
X318650Y29209D01*
X316576Y31283D01*
X316576Y34217D01*
X318650Y36291D01*
X321583Y36291D01*
X323657Y34217D01*
X323657Y31283D01*
X321583Y29209D01*
X318650Y29209D01*
G37*
%LPD*%
%LPC*%
G36*
X286033Y-226041D02*
X286033Y-226041D01*
X283959Y-223967D01*
X283959Y-221033D01*
X286033Y-218959D01*
X288967Y-218959D01*
X291041Y-221033D01*
X291041Y-223967D01*
X288967Y-226041D01*
X286033Y-226041D01*
G37*
%LPD*%
%LPC*%
G36*
X325618Y123709D02*
X325618Y123709D01*
X323544Y125783D01*
X323544Y128717D01*
X325618Y130791D01*
X328552Y130791D01*
X330626Y128717D01*
X330626Y125783D01*
X328552Y123709D01*
X325618Y123709D01*
G37*
%LPD*%
%LPC*%
G36*
X-36467Y156459D02*
X-36467Y156459D01*
X-38541Y158533D01*
X-38541Y161467D01*
X-36467Y163541D01*
X-33533Y163541D01*
X-31459Y161467D01*
X-31459Y158533D01*
X-33533Y156459D01*
X-36467Y156459D01*
G37*
%LPD*%
%LPC*%
G36*
X-278967Y-186041D02*
X-278967Y-186041D01*
X-281041Y-183967D01*
X-281041Y-181033D01*
X-278967Y-178959D01*
X-276033Y-178959D01*
X-273959Y-181033D01*
X-273959Y-183967D01*
X-276033Y-186041D01*
X-278967Y-186041D01*
G37*
%LPD*%
%LPC*%
G36*
X6033Y181619D02*
X6033Y181619D01*
X3959Y183693D01*
X3959Y186627D01*
X6033Y188701D01*
X8967Y188701D01*
X11041Y186627D01*
X11041Y183693D01*
X8967Y181619D01*
X6033Y181619D01*
G37*
%LPD*%
%LPC*%
G36*
X231448Y175709D02*
X231448Y175709D01*
X229374Y177783D01*
X229374Y180717D01*
X231448Y182791D01*
X234382Y182791D01*
X236456Y180717D01*
X236456Y177783D01*
X234382Y175709D01*
X231448Y175709D01*
G37*
%LPD*%
%LPC*%
G36*
X-18967Y203959D02*
X-18967Y203959D01*
X-21041Y206033D01*
X-21041Y208967D01*
X-18967Y211041D01*
X-16033Y211041D01*
X-13959Y208967D01*
X-13959Y206033D01*
X-16033Y203959D01*
X-18967Y203959D01*
G37*
%LPD*%
%LPC*%
G36*
X-81467Y178959D02*
X-81467Y178959D01*
X-83541Y181033D01*
X-83541Y183967D01*
X-81467Y186041D01*
X-78533Y186041D01*
X-76459Y183967D01*
X-76459Y181033D01*
X-78533Y178959D01*
X-81467Y178959D01*
G37*
%LPD*%
%LPC*%
G36*
X218533Y180310D02*
X218533Y180310D01*
X216459Y182384D01*
X216459Y185317D01*
X218533Y187391D01*
X221467Y187391D01*
X223541Y185317D01*
X223541Y182384D01*
X221467Y180310D01*
X218533Y180310D01*
G37*
%LPD*%
%LPC*%
G36*
X-33967Y-11041D02*
X-33967Y-11041D01*
X-36041Y-8967D01*
X-36041Y-6033D01*
X-33967Y-3959D01*
X-31033Y-3959D01*
X-28959Y-6033D01*
X-28959Y-8967D01*
X-31033Y-11041D01*
X-33967Y-11041D01*
G37*
%LPD*%
%LPC*%
G36*
X336033Y-13541D02*
X336033Y-13541D01*
X333959Y-11467D01*
X333959Y-8533D01*
X336033Y-6459D01*
X338967Y-6459D01*
X341041Y-8533D01*
X341041Y-11467D01*
X338967Y-13541D01*
X336033Y-13541D01*
G37*
%LPD*%
%LPC*%
G36*
X-61627Y153959D02*
X-61627Y153959D01*
X-63701Y156033D01*
X-63701Y158967D01*
X-61627Y161041D01*
X-58693Y161041D01*
X-56619Y158967D01*
X-56619Y156033D01*
X-58693Y153959D01*
X-61627Y153959D01*
G37*
%LPD*%
%LPC*%
G36*
X66033Y-18541D02*
X66033Y-18541D01*
X63959Y-16467D01*
X63959Y-13533D01*
X66033Y-11459D01*
X68967Y-11459D01*
X71041Y-13533D01*
X71041Y-16467D01*
X68967Y-18541D01*
X66033Y-18541D01*
G37*
%LPD*%
%LPC*%
G36*
X248533Y-31041D02*
X248533Y-31041D01*
X246459Y-28967D01*
X246459Y-26033D01*
X248533Y-23959D01*
X251467Y-23959D01*
X253541Y-26033D01*
X253541Y-28967D01*
X251467Y-31041D01*
X248533Y-31041D01*
G37*
%LPD*%
%LPC*%
G36*
X281033Y-31041D02*
X281033Y-31041D01*
X278959Y-28967D01*
X278959Y-26033D01*
X281033Y-23959D01*
X283967Y-23959D01*
X286041Y-26033D01*
X286041Y-28967D01*
X283967Y-31041D01*
X281033Y-31041D01*
G37*
%LPD*%
%LPC*%
G36*
X98533Y-41041D02*
X98533Y-41041D01*
X96459Y-38967D01*
X96459Y-36033D01*
X98533Y-33959D01*
X101467Y-33959D01*
X103541Y-36033D01*
X103541Y-38967D01*
X101467Y-41041D01*
X98533Y-41041D01*
G37*
%LPD*%
%LPC*%
G36*
X-116467Y-41041D02*
X-116467Y-41041D01*
X-118541Y-38967D01*
X-118541Y-36033D01*
X-116467Y-33959D01*
X-113533Y-33959D01*
X-111459Y-36033D01*
X-111459Y-38967D01*
X-113533Y-41041D01*
X-116467Y-41041D01*
G37*
%LPD*%
%LPC*%
G36*
X-16467Y86459D02*
X-16467Y86459D01*
X-18541Y88533D01*
X-18541Y91467D01*
X-16467Y93541D01*
X-13533Y93541D01*
X-11459Y91467D01*
X-11459Y88533D01*
X-13533Y86459D01*
X-16467Y86459D01*
G37*
%LPD*%
%LPC*%
G36*
X-66467Y138959D02*
X-66467Y138959D01*
X-68541Y141033D01*
X-68541Y143967D01*
X-66467Y146041D01*
X-63533Y146041D01*
X-61459Y143967D01*
X-61459Y141033D01*
X-63533Y138959D01*
X-66467Y138959D01*
G37*
%LPD*%
%LPC*%
G36*
X-66467Y186459D02*
X-66467Y186459D01*
X-68541Y188533D01*
X-68541Y191467D01*
X-66467Y193541D01*
X-63533Y193541D01*
X-61459Y191467D01*
X-61459Y188533D01*
X-63533Y186459D01*
X-66467Y186459D01*
G37*
%LPD*%
%LPC*%
G36*
X108533Y-51041D02*
X108533Y-51041D01*
X106459Y-48967D01*
X106459Y-46033D01*
X108533Y-43959D01*
X111467Y-43959D01*
X113541Y-46033D01*
X113541Y-48967D01*
X111467Y-51041D01*
X108533Y-51041D01*
G37*
%LPD*%
%LPC*%
G36*
X-278967Y-53541D02*
X-278967Y-53541D01*
X-281041Y-51467D01*
X-281041Y-48533D01*
X-278967Y-46459D01*
X-276033Y-46459D01*
X-273959Y-48533D01*
X-273959Y-51467D01*
X-276033Y-53541D01*
X-278967Y-53541D01*
G37*
%LPD*%
%LPC*%
G36*
X322219Y-66041D02*
X322219Y-66041D01*
X320145Y-63967D01*
X320145Y-61033D01*
X322219Y-58959D01*
X325153Y-58959D01*
X327227Y-61033D01*
X327227Y-63967D01*
X325153Y-66041D01*
X322219Y-66041D01*
G37*
%LPD*%
%LPC*%
G36*
X33533Y86459D02*
X33533Y86459D01*
X31459Y88533D01*
X31459Y91467D01*
X33533Y93541D01*
X36467Y93541D01*
X38541Y91467D01*
X38541Y88533D01*
X36467Y86459D01*
X33533Y86459D01*
G37*
%LPD*%
%LPC*%
G36*
X329678Y-71041D02*
X329678Y-71041D01*
X327603Y-68967D01*
X327603Y-66033D01*
X329678Y-63959D01*
X332611Y-63959D01*
X334685Y-66033D01*
X334685Y-68967D01*
X332611Y-71041D01*
X329678Y-71041D01*
G37*
%LPD*%
%LPC*%
G36*
X-253967Y-76041D02*
X-253967Y-76041D01*
X-256041Y-73967D01*
X-256041Y-71033D01*
X-253967Y-68959D01*
X-251033Y-68959D01*
X-248959Y-71033D01*
X-248959Y-73967D01*
X-251033Y-76041D01*
X-253967Y-76041D01*
G37*
%LPD*%
%LPC*%
G36*
X-146067Y-78231D02*
X-146067Y-78231D01*
X-148141Y-76157D01*
X-148141Y-73223D01*
X-146067Y-71149D01*
X-143133Y-71149D01*
X-141059Y-73223D01*
X-141059Y-76157D01*
X-143133Y-78231D01*
X-146067Y-78231D01*
G37*
%LPD*%
%LPC*%
G36*
X-141467Y190070D02*
X-141467Y190070D01*
X-143541Y192144D01*
X-143541Y195077D01*
X-141467Y197151D01*
X-138533Y197151D01*
X-136459Y195077D01*
X-136459Y192144D01*
X-138533Y190070D01*
X-141467Y190070D01*
G37*
%LPD*%
%LPC*%
G36*
X-18967Y156459D02*
X-18967Y156459D01*
X-21041Y158533D01*
X-21041Y161467D01*
X-18967Y163541D01*
X-16033Y163541D01*
X-13959Y161467D01*
X-13959Y158533D01*
X-16033Y156459D01*
X-18967Y156459D01*
G37*
%LPD*%
%LPC*%
G36*
X-291467Y-173541D02*
X-291467Y-173541D01*
X-293541Y-171467D01*
X-293541Y-168533D01*
X-291467Y-166459D01*
X-288533Y-166459D01*
X-286459Y-168533D01*
X-286459Y-171467D01*
X-288533Y-173541D01*
X-291467Y-173541D01*
G37*
%LPD*%
%LPC*%
G36*
X-81467Y190070D02*
X-81467Y190070D01*
X-83541Y192144D01*
X-83541Y195077D01*
X-81467Y197151D01*
X-78533Y197151D01*
X-76459Y195077D01*
X-76459Y192144D01*
X-78533Y190070D01*
X-81467Y190070D01*
G37*
%LPD*%
%LPC*%
G36*
X-31467Y190310D02*
X-31467Y190310D01*
X-33541Y192384D01*
X-33541Y195317D01*
X-31467Y197391D01*
X-28533Y197391D01*
X-26459Y195317D01*
X-26459Y192384D01*
X-28533Y190310D01*
X-31467Y190310D01*
G37*
%LPD*%
%LPC*%
G36*
X-328967Y-171041D02*
X-328967Y-171041D01*
X-331041Y-168967D01*
X-331041Y-166033D01*
X-328967Y-163959D01*
X-326033Y-163959D01*
X-323959Y-166033D01*
X-323959Y-168967D01*
X-326033Y-171041D01*
X-328967Y-171041D01*
G37*
%LPD*%
%LPC*%
G36*
X339993Y-168541D02*
X339993Y-168541D01*
X337919Y-166467D01*
X337919Y-163533D01*
X339993Y-161459D01*
X342927Y-161459D01*
X345001Y-163533D01*
X345001Y-166467D01*
X342927Y-168541D01*
X339993Y-168541D01*
G37*
%LPD*%
%LPC*%
G36*
X281033Y108959D02*
X281033Y108959D01*
X278959Y111033D01*
X278959Y113967D01*
X281033Y116041D01*
X283967Y116041D01*
X286041Y113967D01*
X286041Y111033D01*
X283967Y108959D01*
X281033Y108959D01*
G37*
%LPD*%
%LPC*%
G36*
X-61627Y103959D02*
X-61627Y103959D01*
X-63701Y106033D01*
X-63701Y108967D01*
X-61627Y111041D01*
X-58693Y111041D01*
X-56619Y108967D01*
X-56619Y106033D01*
X-58693Y103959D01*
X-61627Y103959D01*
G37*
%LPD*%
%LPC*%
G36*
X-98967Y196459D02*
X-98967Y196459D01*
X-101041Y198533D01*
X-101041Y201467D01*
X-98967Y203541D01*
X-96033Y203541D01*
X-93959Y201467D01*
X-93959Y198533D01*
X-96033Y196459D01*
X-98967Y196459D01*
G37*
%LPD*%
%LPC*%
G36*
X326033Y-3541D02*
X326033Y-3541D01*
X323959Y-1467D01*
X323959Y1467D01*
X326033Y3541D01*
X328967Y3541D01*
X331041Y1467D01*
X331041Y-1467D01*
X328967Y-3541D01*
X326033Y-3541D01*
G37*
%LPD*%
%LPC*%
G36*
X-1467Y-16041D02*
X-1467Y-16041D01*
X-3541Y-13967D01*
X-3541Y-11033D01*
X-1467Y-8959D01*
X1467Y-8959D01*
X3541Y-11033D01*
X3541Y-13967D01*
X1467Y-16041D01*
X-1467Y-16041D01*
G37*
%LPD*%
%LPC*%
G36*
X-211256Y86967D02*
X-211256Y86967D01*
X-213033Y88744D01*
X-213033Y91256D01*
X-211256Y93033D01*
X-208744Y93033D01*
X-206967Y91256D01*
X-206967Y88744D01*
X-208744Y86967D01*
X-211256Y86967D01*
G37*
%LPD*%
%LPC*%
G36*
X-271256Y86967D02*
X-271256Y86967D01*
X-273033Y88744D01*
X-273033Y91256D01*
X-271256Y93033D01*
X-268744Y93033D01*
X-266967Y91256D01*
X-266967Y88744D01*
X-268744Y86967D01*
X-271256Y86967D01*
G37*
%LPD*%
%LPC*%
G36*
X-291256Y106967D02*
X-291256Y106967D01*
X-293033Y108744D01*
X-293033Y111256D01*
X-291256Y113033D01*
X-288744Y113033D01*
X-286967Y111256D01*
X-286967Y108744D01*
X-288744Y106967D01*
X-291256Y106967D01*
G37*
%LPD*%
%LPC*%
G36*
X-231256Y106967D02*
X-231256Y106967D01*
X-233033Y108744D01*
X-233033Y111256D01*
X-231256Y113033D01*
X-228744Y113033D01*
X-226967Y111256D01*
X-226967Y108744D01*
X-228744Y106967D01*
X-231256Y106967D01*
G37*
%LPD*%
%LPC*%
G36*
X-231256Y96967D02*
X-231256Y96967D01*
X-233033Y98744D01*
X-233033Y101256D01*
X-231256Y103033D01*
X-228744Y103033D01*
X-226967Y101256D01*
X-226967Y98744D01*
X-228744Y96967D01*
X-231256Y96967D01*
G37*
%LPD*%
%LPC*%
G36*
X-291256Y96967D02*
X-291256Y96967D01*
X-293033Y98744D01*
X-293033Y101256D01*
X-291256Y103033D01*
X-288744Y103033D01*
X-286967Y101256D01*
X-286967Y98744D01*
X-288744Y96967D01*
X-291256Y96967D01*
G37*
%LPD*%
%LPC*%
G36*
X-301256Y86967D02*
X-301256Y86967D01*
X-303033Y88744D01*
X-303033Y91256D01*
X-301256Y93033D01*
X-298744Y93033D01*
X-296967Y91256D01*
X-296967Y88744D01*
X-298744Y86967D01*
X-301256Y86967D01*
G37*
%LPD*%
%LPC*%
G36*
X-241256Y86967D02*
X-241256Y86967D01*
X-243033Y88744D01*
X-243033Y91256D01*
X-241256Y93033D01*
X-238744Y93033D01*
X-236967Y91256D01*
X-236967Y88744D01*
X-238744Y86967D01*
X-241256Y86967D01*
G37*
%LPD*%
%LPC*%
G36*
X-221256Y86967D02*
X-221256Y86967D01*
X-223033Y88744D01*
X-223033Y91256D01*
X-221256Y93033D01*
X-218744Y93033D01*
X-216967Y91256D01*
X-216967Y88744D01*
X-218744Y86967D01*
X-221256Y86967D01*
G37*
%LPD*%
%LPC*%
G36*
X-291256Y86967D02*
X-291256Y86967D01*
X-293033Y88744D01*
X-293033Y91256D01*
X-291256Y93033D01*
X-288744Y93033D01*
X-286967Y91256D01*
X-286967Y88744D01*
X-288744Y86967D01*
X-291256Y86967D01*
G37*
%LPD*%
%LPC*%
G36*
X-311256Y86967D02*
X-311256Y86967D01*
X-313033Y88744D01*
X-313033Y91256D01*
X-311256Y93033D01*
X-308744Y93033D01*
X-306967Y91256D01*
X-306967Y88744D01*
X-308744Y86967D01*
X-311256Y86967D01*
G37*
%LPD*%
%LPC*%
G36*
X-251256Y86967D02*
X-251256Y86967D01*
X-253033Y88744D01*
X-253033Y91256D01*
X-251256Y93033D01*
X-248744Y93033D01*
X-246967Y91256D01*
X-246967Y88744D01*
X-248744Y86967D01*
X-251256Y86967D01*
G37*
%LPD*%
%LPC*%
G36*
X-281256Y86967D02*
X-281256Y86967D01*
X-283033Y88744D01*
X-283033Y91256D01*
X-281256Y93033D01*
X-278744Y93033D01*
X-276967Y91256D01*
X-276967Y88744D01*
X-278744Y86967D01*
X-281256Y86967D01*
G37*
%LPD*%
%LPC*%
G36*
X-231256Y86967D02*
X-231256Y86967D01*
X-233033Y88744D01*
X-233033Y91256D01*
X-231256Y93033D01*
X-228744Y93033D01*
X-226967Y91256D01*
X-226967Y88744D01*
X-228744Y86967D01*
X-231256Y86967D01*
G37*
%LPD*%
%LPC*%
G36*
X379999Y29999D02*
X379999Y29999D01*
X379999Y30001D01*
X380001Y30001D01*
X380001Y29999D01*
X379999Y29999D01*
G37*
%LPD*%
%LPC*%
G36*
X379999Y89999D02*
X379999Y89999D01*
X379999Y90001D01*
X380001Y90001D01*
X380001Y89999D01*
X379999Y89999D01*
G37*
%LPD*%
%LPC*%
G36*
X-380001Y169999D02*
X-380001Y169999D01*
X-380001Y170001D01*
X-379999Y170001D01*
X-379999Y169999D01*
X-380001Y169999D01*
G37*
%LPD*%
%LPC*%
G36*
X24999Y-120001D02*
X24999Y-120001D01*
X24999Y-119999D01*
X25001Y-119999D01*
X25001Y-120001D01*
X24999Y-120001D01*
G37*
%LPD*%
%LPC*%
G36*
X-200001Y-95001D02*
X-200001Y-95001D01*
X-200001Y-94999D01*
X-199999Y-94999D01*
X-199999Y-95001D01*
X-200001Y-95001D01*
G37*
%LPD*%
%LPC*%
G36*
X-380001Y109999D02*
X-380001Y109999D01*
X-380001Y110001D01*
X-379999Y110001D01*
X-379999Y109999D01*
X-380001Y109999D01*
G37*
%LPD*%
%LPC*%
G36*
X-1Y-265001D02*
X-1Y-265001D01*
X-1Y-264999D01*
X1Y-264999D01*
X1Y-265001D01*
X-1Y-265001D01*
G37*
%LPD*%
D10*
X-290000Y90000D03*
X-290000Y100000D03*
X-230000Y90000D03*
X-240000Y50000D03*
X-250000Y40000D03*
X-260000Y50000D03*
X-270000Y90000D03*
X-310000Y90000D03*
X-280000Y90000D03*
X-290000Y110000D03*
X-300000Y90000D03*
X-230000Y100000D03*
X-220000Y90000D03*
X-210000Y90000D03*
X-250000Y90000D03*
X-230000Y110000D03*
X-240000Y90000D03*
X-290000Y50000D03*
X-245000Y50000D03*
X-290000Y40000D03*
X-260000Y40000D03*
X-240000Y40000D03*
D11*
X-380000Y210000D03*
X-380000Y30000D03*
X-380000Y10000D03*
X-380000Y-10000D03*
X-380000Y170000D03*
X-380000Y150000D03*
X-380000Y110000D03*
X-380000Y90000D03*
X-380000Y70000D03*
X-380000Y50000D03*
X-380000Y130000D03*
X-380000Y190000D03*
X380000Y-10000D03*
X380000Y170000D03*
X380000Y190000D03*
X380000Y210000D03*
X380000Y30000D03*
X380000Y50000D03*
X380000Y90000D03*
X380000Y110000D03*
X380000Y130000D03*
X380000Y150000D03*
X380000Y70000D03*
X380000Y10000D03*
D12*
X-155000Y-95000D03*
X-245000Y-95000D03*
X-110000Y-95000D03*
X-200000Y-95000D03*
D13*
X-25000Y-265000D03*
X25000Y-265000D03*
X-25000Y-120000D03*
X25000Y-120000D03*
X0Y-265000D03*
D10*
X120000Y190000D03*
X215000Y270000D03*
X205000Y270000D03*
D14*
X-114388Y-527282D02*
X-114388Y-539022D01*
X-114389Y-539022D02*
X-114387Y-539155D01*
X-114381Y-539287D01*
X-114371Y-539419D01*
X-114358Y-539551D01*
X-114340Y-539683D01*
X-114319Y-539813D01*
X-114294Y-539944D01*
X-114265Y-540073D01*
X-114232Y-540201D01*
X-114196Y-540329D01*
X-114156Y-540455D01*
X-114112Y-540580D01*
X-114064Y-540704D01*
X-114013Y-540826D01*
X-113958Y-540947D01*
X-113900Y-541066D01*
X-113838Y-541184D01*
X-113773Y-541299D01*
X-113704Y-541413D01*
X-113633Y-541524D01*
X-113557Y-541633D01*
X-113479Y-541740D01*
X-113398Y-541845D01*
X-113313Y-541947D01*
X-113226Y-542047D01*
X-113136Y-542144D01*
X-113043Y-542239D01*
X-112947Y-542330D01*
X-112849Y-542419D01*
X-112748Y-542505D01*
X-112644Y-542588D01*
X-112538Y-542668D01*
X-112430Y-542744D01*
X-112320Y-542818D01*
X-112207Y-542888D01*
X-112093Y-542955D01*
X-111976Y-543018D01*
X-111858Y-543078D01*
X-111738Y-543135D01*
X-111616Y-543188D01*
X-111493Y-543237D01*
X-111369Y-543283D01*
X-111243Y-543325D01*
X-111116Y-543363D01*
X-110988Y-543398D01*
X-110859Y-543429D01*
X-110730Y-543456D01*
X-110599Y-543479D01*
X-110468Y-543499D01*
X-110336Y-543514D01*
X-110204Y-543526D01*
X-110072Y-543534D01*
X-109939Y-543538D01*
X-109807Y-543538D01*
X-109674Y-543534D01*
X-109542Y-543526D01*
X-109410Y-543514D01*
X-109278Y-543499D01*
X-109147Y-543479D01*
X-109016Y-543456D01*
X-108887Y-543429D01*
X-108758Y-543398D01*
X-108630Y-543363D01*
X-108503Y-543325D01*
X-108377Y-543283D01*
X-108253Y-543237D01*
X-108130Y-543188D01*
X-108008Y-543135D01*
X-107888Y-543078D01*
X-107770Y-543018D01*
X-107653Y-542955D01*
X-107539Y-542888D01*
X-107426Y-542818D01*
X-107316Y-542744D01*
X-107208Y-542668D01*
X-107102Y-542588D01*
X-106998Y-542505D01*
X-106897Y-542419D01*
X-106799Y-542330D01*
X-106703Y-542239D01*
X-106610Y-542144D01*
X-106520Y-542047D01*
X-106433Y-541947D01*
X-106348Y-541845D01*
X-106267Y-541740D01*
X-106189Y-541633D01*
X-106113Y-541524D01*
X-106042Y-541413D01*
X-105973Y-541299D01*
X-105908Y-541184D01*
X-105846Y-541066D01*
X-105788Y-540947D01*
X-105733Y-540826D01*
X-105682Y-540704D01*
X-105634Y-540580D01*
X-105590Y-540455D01*
X-105550Y-540329D01*
X-105514Y-540201D01*
X-105481Y-540073D01*
X-105452Y-539944D01*
X-105427Y-539813D01*
X-105406Y-539683D01*
X-105388Y-539551D01*
X-105375Y-539419D01*
X-105365Y-539287D01*
X-105359Y-539155D01*
X-105357Y-539022D01*
X-105357Y-527282D01*
X-97780Y-532701D02*
X-97780Y-548957D01*
X-97780Y-532701D02*
X-93265Y-532701D01*
X-93161Y-532703D01*
X-93058Y-532709D01*
X-92954Y-532719D01*
X-92851Y-532733D01*
X-92749Y-532751D01*
X-92648Y-532772D01*
X-92547Y-532798D01*
X-92448Y-532827D01*
X-92349Y-532860D01*
X-92252Y-532897D01*
X-92157Y-532938D01*
X-92063Y-532982D01*
X-91971Y-533030D01*
X-91881Y-533081D01*
X-91792Y-533136D01*
X-91706Y-533194D01*
X-91623Y-533256D01*
X-91541Y-533320D01*
X-91463Y-533388D01*
X-91387Y-533458D01*
X-91313Y-533531D01*
X-91243Y-533608D01*
X-91175Y-533686D01*
X-91111Y-533768D01*
X-91049Y-533851D01*
X-90991Y-533937D01*
X-90936Y-534026D01*
X-90885Y-534116D01*
X-90837Y-534208D01*
X-90793Y-534302D01*
X-90752Y-534397D01*
X-90715Y-534494D01*
X-90682Y-534593D01*
X-90653Y-534692D01*
X-90627Y-534793D01*
X-90606Y-534894D01*
X-90588Y-534996D01*
X-90574Y-535099D01*
X-90564Y-535203D01*
X-90558Y-535306D01*
X-90556Y-535410D01*
X-90556Y-540829D01*
X-90558Y-540930D01*
X-90564Y-541031D01*
X-90573Y-541132D01*
X-90586Y-541233D01*
X-90603Y-541333D01*
X-90624Y-541432D01*
X-90648Y-541530D01*
X-90676Y-541627D01*
X-90708Y-541724D01*
X-90743Y-541819D01*
X-90782Y-541912D01*
X-90824Y-542004D01*
X-90870Y-542095D01*
X-90919Y-542184D01*
X-90971Y-542270D01*
X-91027Y-542355D01*
X-91085Y-542438D01*
X-91147Y-542518D01*
X-91212Y-542596D01*
X-91279Y-542672D01*
X-91349Y-542745D01*
X-91422Y-542815D01*
X-91498Y-542882D01*
X-91576Y-542947D01*
X-91656Y-543009D01*
X-91739Y-543067D01*
X-91824Y-543123D01*
X-91911Y-543175D01*
X-91999Y-543224D01*
X-92090Y-543270D01*
X-92182Y-543312D01*
X-92275Y-543351D01*
X-92370Y-543386D01*
X-92467Y-543418D01*
X-92564Y-543446D01*
X-92662Y-543470D01*
X-92761Y-543491D01*
X-92861Y-543508D01*
X-92962Y-543521D01*
X-93063Y-543530D01*
X-93164Y-543536D01*
X-93265Y-543538D01*
X-97780Y-543538D01*
X-83712Y-548957D02*
X-83712Y-532701D01*
X-79197Y-532701D01*
X-79093Y-532703D01*
X-78990Y-532709D01*
X-78886Y-532719D01*
X-78783Y-532733D01*
X-78681Y-532751D01*
X-78580Y-532772D01*
X-78479Y-532798D01*
X-78380Y-532827D01*
X-78281Y-532860D01*
X-78184Y-532897D01*
X-78089Y-532938D01*
X-77995Y-532982D01*
X-77903Y-533030D01*
X-77813Y-533081D01*
X-77724Y-533136D01*
X-77638Y-533194D01*
X-77555Y-533256D01*
X-77473Y-533320D01*
X-77395Y-533388D01*
X-77319Y-533458D01*
X-77245Y-533531D01*
X-77175Y-533608D01*
X-77107Y-533686D01*
X-77043Y-533768D01*
X-76981Y-533851D01*
X-76923Y-533937D01*
X-76868Y-534026D01*
X-76817Y-534116D01*
X-76769Y-534208D01*
X-76725Y-534302D01*
X-76684Y-534397D01*
X-76647Y-534494D01*
X-76614Y-534593D01*
X-76585Y-534692D01*
X-76559Y-534793D01*
X-76538Y-534894D01*
X-76520Y-534996D01*
X-76506Y-535099D01*
X-76496Y-535203D01*
X-76490Y-535306D01*
X-76488Y-535410D01*
X-76487Y-535410D02*
X-76487Y-540829D01*
X-76488Y-540829D02*
X-76490Y-540930D01*
X-76496Y-541031D01*
X-76505Y-541132D01*
X-76518Y-541233D01*
X-76535Y-541333D01*
X-76556Y-541432D01*
X-76580Y-541530D01*
X-76608Y-541627D01*
X-76640Y-541724D01*
X-76675Y-541819D01*
X-76714Y-541912D01*
X-76756Y-542004D01*
X-76802Y-542095D01*
X-76851Y-542184D01*
X-76903Y-542270D01*
X-76959Y-542355D01*
X-77017Y-542438D01*
X-77079Y-542518D01*
X-77144Y-542596D01*
X-77211Y-542672D01*
X-77281Y-542745D01*
X-77354Y-542815D01*
X-77430Y-542882D01*
X-77508Y-542947D01*
X-77588Y-543009D01*
X-77671Y-543067D01*
X-77756Y-543123D01*
X-77843Y-543175D01*
X-77931Y-543224D01*
X-78022Y-543270D01*
X-78114Y-543312D01*
X-78207Y-543351D01*
X-78302Y-543386D01*
X-78399Y-543418D01*
X-78496Y-543446D01*
X-78594Y-543470D01*
X-78693Y-543491D01*
X-78793Y-543508D01*
X-78894Y-543521D01*
X-78995Y-543530D01*
X-79096Y-543536D01*
X-79197Y-543538D01*
X-83712Y-543538D01*
X-67529Y-543538D02*
X-63014Y-543538D01*
X-67529Y-543538D02*
X-67630Y-543536D01*
X-67731Y-543530D01*
X-67832Y-543521D01*
X-67933Y-543508D01*
X-68033Y-543491D01*
X-68132Y-543470D01*
X-68230Y-543446D01*
X-68327Y-543418D01*
X-68424Y-543386D01*
X-68519Y-543351D01*
X-68612Y-543312D01*
X-68704Y-543270D01*
X-68795Y-543224D01*
X-68884Y-543175D01*
X-68970Y-543123D01*
X-69055Y-543067D01*
X-69138Y-543009D01*
X-69218Y-542947D01*
X-69296Y-542882D01*
X-69372Y-542815D01*
X-69445Y-542745D01*
X-69515Y-542672D01*
X-69582Y-542596D01*
X-69647Y-542518D01*
X-69709Y-542438D01*
X-69767Y-542355D01*
X-69823Y-542270D01*
X-69875Y-542184D01*
X-69924Y-542095D01*
X-69970Y-542004D01*
X-70012Y-541912D01*
X-70051Y-541819D01*
X-70086Y-541724D01*
X-70118Y-541627D01*
X-70146Y-541530D01*
X-70170Y-541432D01*
X-70191Y-541333D01*
X-70208Y-541233D01*
X-70221Y-541132D01*
X-70230Y-541031D01*
X-70236Y-540930D01*
X-70238Y-540829D01*
X-70239Y-540829D02*
X-70239Y-536313D01*
X-70238Y-536313D02*
X-70236Y-536194D01*
X-70230Y-536074D01*
X-70220Y-535955D01*
X-70206Y-535837D01*
X-70189Y-535718D01*
X-70167Y-535601D01*
X-70142Y-535484D01*
X-70112Y-535369D01*
X-70079Y-535254D01*
X-70042Y-535140D01*
X-70002Y-535028D01*
X-69957Y-534917D01*
X-69909Y-534808D01*
X-69858Y-534700D01*
X-69803Y-534594D01*
X-69744Y-534490D01*
X-69682Y-534388D01*
X-69617Y-534288D01*
X-69548Y-534190D01*
X-69476Y-534094D01*
X-69401Y-534001D01*
X-69324Y-533911D01*
X-69243Y-533823D01*
X-69159Y-533738D01*
X-69072Y-533656D01*
X-68983Y-533576D01*
X-68891Y-533500D01*
X-68797Y-533426D01*
X-68700Y-533356D01*
X-68602Y-533289D01*
X-68501Y-533225D01*
X-68397Y-533165D01*
X-68292Y-533108D01*
X-68185Y-533055D01*
X-68077Y-533005D01*
X-67967Y-532959D01*
X-67855Y-532917D01*
X-67742Y-532878D01*
X-67628Y-532843D01*
X-67513Y-532812D01*
X-67396Y-532784D01*
X-67279Y-532761D01*
X-67162Y-532741D01*
X-67043Y-532725D01*
X-66924Y-532713D01*
X-66805Y-532705D01*
X-66686Y-532701D01*
X-66566Y-532701D01*
X-66447Y-532705D01*
X-66328Y-532713D01*
X-66209Y-532725D01*
X-66090Y-532741D01*
X-65973Y-532761D01*
X-65856Y-532784D01*
X-65739Y-532812D01*
X-65624Y-532843D01*
X-65510Y-532878D01*
X-65397Y-532917D01*
X-65285Y-532959D01*
X-65175Y-533005D01*
X-65067Y-533055D01*
X-64960Y-533108D01*
X-64855Y-533165D01*
X-64751Y-533225D01*
X-64650Y-533289D01*
X-64552Y-533356D01*
X-64455Y-533426D01*
X-64361Y-533500D01*
X-64269Y-533576D01*
X-64180Y-533656D01*
X-64093Y-533738D01*
X-64009Y-533823D01*
X-63928Y-533911D01*
X-63851Y-534001D01*
X-63776Y-534094D01*
X-63704Y-534190D01*
X-63635Y-534288D01*
X-63570Y-534388D01*
X-63508Y-534490D01*
X-63449Y-534594D01*
X-63394Y-534700D01*
X-63343Y-534808D01*
X-63295Y-534917D01*
X-63250Y-535028D01*
X-63210Y-535140D01*
X-63173Y-535254D01*
X-63140Y-535369D01*
X-63110Y-535484D01*
X-63085Y-535601D01*
X-63063Y-535718D01*
X-63046Y-535837D01*
X-63032Y-535955D01*
X-63022Y-536074D01*
X-63016Y-536194D01*
X-63014Y-536313D01*
X-63014Y-538119D01*
X-70239Y-538119D01*
X-56086Y-543538D02*
X-56086Y-532701D01*
X-50667Y-532701D01*
X-50667Y-534507D01*
X-35885Y-527282D02*
X-35885Y-543538D01*
X-37691Y-543538D02*
X-34079Y-543538D01*
X-34079Y-527282D02*
X-37691Y-527282D01*
X-27513Y-532701D02*
X-27513Y-543538D01*
X-27513Y-532701D02*
X-22998Y-532701D01*
X-22894Y-532703D01*
X-22791Y-532709D01*
X-22687Y-532719D01*
X-22584Y-532733D01*
X-22482Y-532751D01*
X-22381Y-532772D01*
X-22280Y-532798D01*
X-22181Y-532827D01*
X-22082Y-532860D01*
X-21985Y-532897D01*
X-21890Y-532938D01*
X-21796Y-532982D01*
X-21704Y-533030D01*
X-21614Y-533081D01*
X-21525Y-533136D01*
X-21439Y-533194D01*
X-21356Y-533256D01*
X-21274Y-533320D01*
X-21196Y-533388D01*
X-21120Y-533458D01*
X-21046Y-533531D01*
X-20976Y-533608D01*
X-20908Y-533686D01*
X-20844Y-533768D01*
X-20782Y-533851D01*
X-20724Y-533937D01*
X-20669Y-534026D01*
X-20618Y-534116D01*
X-20570Y-534208D01*
X-20526Y-534302D01*
X-20485Y-534397D01*
X-20448Y-534494D01*
X-20415Y-534593D01*
X-20386Y-534692D01*
X-20360Y-534793D01*
X-20339Y-534894D01*
X-20321Y-534996D01*
X-20307Y-535099D01*
X-20297Y-535203D01*
X-20291Y-535306D01*
X-20289Y-535410D01*
X-20288Y-535410D02*
X-20288Y-543538D01*
X-12924Y-543538D02*
X-12924Y-532701D01*
X-8409Y-532701D01*
X-8305Y-532703D01*
X-8202Y-532709D01*
X-8098Y-532719D01*
X-7995Y-532733D01*
X-7893Y-532751D01*
X-7792Y-532772D01*
X-7691Y-532798D01*
X-7592Y-532827D01*
X-7493Y-532860D01*
X-7396Y-532897D01*
X-7301Y-532938D01*
X-7207Y-532982D01*
X-7115Y-533030D01*
X-7025Y-533081D01*
X-6936Y-533136D01*
X-6850Y-533194D01*
X-6767Y-533256D01*
X-6685Y-533320D01*
X-6607Y-533388D01*
X-6531Y-533458D01*
X-6457Y-533531D01*
X-6387Y-533608D01*
X-6319Y-533686D01*
X-6255Y-533768D01*
X-6193Y-533851D01*
X-6135Y-533937D01*
X-6080Y-534026D01*
X-6029Y-534116D01*
X-5981Y-534208D01*
X-5937Y-534302D01*
X-5896Y-534397D01*
X-5859Y-534494D01*
X-5826Y-534593D01*
X-5797Y-534692D01*
X-5771Y-534793D01*
X-5750Y-534894D01*
X-5732Y-534996D01*
X-5718Y-535099D01*
X-5708Y-535203D01*
X-5702Y-535306D01*
X-5700Y-535410D01*
X-5699Y-535410D02*
X-5699Y-543538D01*
X3853Y-543538D02*
X8369Y-543538D01*
X3853Y-543538D02*
X3752Y-543536D01*
X3651Y-543530D01*
X3550Y-543521D01*
X3449Y-543508D01*
X3349Y-543491D01*
X3250Y-543470D01*
X3152Y-543446D01*
X3055Y-543418D01*
X2958Y-543386D01*
X2863Y-543351D01*
X2770Y-543312D01*
X2678Y-543270D01*
X2587Y-543224D01*
X2499Y-543175D01*
X2412Y-543123D01*
X2327Y-543067D01*
X2244Y-543009D01*
X2164Y-542947D01*
X2086Y-542882D01*
X2010Y-542815D01*
X1937Y-542745D01*
X1867Y-542672D01*
X1800Y-542596D01*
X1735Y-542518D01*
X1673Y-542438D01*
X1615Y-542355D01*
X1559Y-542270D01*
X1507Y-542184D01*
X1458Y-542095D01*
X1412Y-542004D01*
X1370Y-541912D01*
X1331Y-541819D01*
X1296Y-541724D01*
X1264Y-541627D01*
X1236Y-541530D01*
X1212Y-541432D01*
X1191Y-541333D01*
X1174Y-541233D01*
X1161Y-541132D01*
X1152Y-541031D01*
X1146Y-540930D01*
X1144Y-540829D01*
X1144Y-536313D01*
X1146Y-536194D01*
X1152Y-536074D01*
X1162Y-535955D01*
X1176Y-535837D01*
X1193Y-535718D01*
X1215Y-535601D01*
X1240Y-535484D01*
X1270Y-535369D01*
X1303Y-535254D01*
X1340Y-535140D01*
X1380Y-535028D01*
X1425Y-534917D01*
X1473Y-534808D01*
X1524Y-534700D01*
X1579Y-534594D01*
X1638Y-534490D01*
X1700Y-534388D01*
X1765Y-534288D01*
X1834Y-534190D01*
X1906Y-534094D01*
X1981Y-534001D01*
X2058Y-533911D01*
X2139Y-533823D01*
X2223Y-533738D01*
X2310Y-533656D01*
X2399Y-533576D01*
X2491Y-533500D01*
X2585Y-533426D01*
X2682Y-533356D01*
X2780Y-533289D01*
X2881Y-533225D01*
X2985Y-533165D01*
X3090Y-533108D01*
X3197Y-533055D01*
X3305Y-533005D01*
X3415Y-532959D01*
X3527Y-532917D01*
X3640Y-532878D01*
X3754Y-532843D01*
X3869Y-532812D01*
X3986Y-532784D01*
X4103Y-532761D01*
X4220Y-532741D01*
X4339Y-532725D01*
X4458Y-532713D01*
X4577Y-532705D01*
X4696Y-532701D01*
X4816Y-532701D01*
X4935Y-532705D01*
X5054Y-532713D01*
X5173Y-532725D01*
X5292Y-532741D01*
X5409Y-532761D01*
X5526Y-532784D01*
X5643Y-532812D01*
X5758Y-532843D01*
X5872Y-532878D01*
X5985Y-532917D01*
X6097Y-532959D01*
X6207Y-533005D01*
X6315Y-533055D01*
X6422Y-533108D01*
X6527Y-533165D01*
X6631Y-533225D01*
X6732Y-533289D01*
X6830Y-533356D01*
X6927Y-533426D01*
X7021Y-533500D01*
X7113Y-533576D01*
X7202Y-533656D01*
X7289Y-533738D01*
X7373Y-533823D01*
X7454Y-533911D01*
X7531Y-534001D01*
X7606Y-534094D01*
X7678Y-534190D01*
X7747Y-534288D01*
X7812Y-534388D01*
X7874Y-534490D01*
X7933Y-534594D01*
X7988Y-534700D01*
X8039Y-534808D01*
X8087Y-534917D01*
X8132Y-535028D01*
X8172Y-535140D01*
X8209Y-535254D01*
X8242Y-535369D01*
X8272Y-535484D01*
X8297Y-535601D01*
X8319Y-535718D01*
X8336Y-535837D01*
X8350Y-535955D01*
X8360Y-536074D01*
X8366Y-536194D01*
X8368Y-536313D01*
X8369Y-536313D02*
X8369Y-538119D01*
X1144Y-538119D01*
X15297Y-543538D02*
X15297Y-532701D01*
X20716Y-532701D01*
X20716Y-534507D01*
X34768Y-527282D02*
X34768Y-543538D01*
X40187Y-536313D02*
X34768Y-527282D01*
X40187Y-536313D02*
X45606Y-527282D01*
X45606Y-543538D01*
X55436Y-543538D02*
X59952Y-543538D01*
X55436Y-543538D02*
X55335Y-543536D01*
X55234Y-543530D01*
X55133Y-543521D01*
X55032Y-543508D01*
X54932Y-543491D01*
X54833Y-543470D01*
X54735Y-543446D01*
X54638Y-543418D01*
X54541Y-543386D01*
X54446Y-543351D01*
X54353Y-543312D01*
X54261Y-543270D01*
X54170Y-543224D01*
X54082Y-543175D01*
X53995Y-543123D01*
X53910Y-543067D01*
X53827Y-543009D01*
X53747Y-542947D01*
X53669Y-542882D01*
X53593Y-542815D01*
X53520Y-542745D01*
X53450Y-542672D01*
X53383Y-542596D01*
X53318Y-542518D01*
X53256Y-542438D01*
X53198Y-542355D01*
X53142Y-542270D01*
X53090Y-542184D01*
X53041Y-542095D01*
X52995Y-542004D01*
X52953Y-541912D01*
X52914Y-541819D01*
X52879Y-541724D01*
X52847Y-541627D01*
X52819Y-541530D01*
X52795Y-541432D01*
X52774Y-541333D01*
X52757Y-541233D01*
X52744Y-541132D01*
X52735Y-541031D01*
X52729Y-540930D01*
X52727Y-540829D01*
X52727Y-536313D01*
X52729Y-536194D01*
X52735Y-536074D01*
X52745Y-535955D01*
X52759Y-535837D01*
X52776Y-535718D01*
X52798Y-535601D01*
X52823Y-535484D01*
X52853Y-535369D01*
X52886Y-535254D01*
X52923Y-535140D01*
X52963Y-535028D01*
X53008Y-534917D01*
X53056Y-534808D01*
X53107Y-534700D01*
X53162Y-534594D01*
X53221Y-534490D01*
X53283Y-534388D01*
X53348Y-534288D01*
X53417Y-534190D01*
X53489Y-534094D01*
X53564Y-534001D01*
X53641Y-533911D01*
X53722Y-533823D01*
X53806Y-533738D01*
X53893Y-533656D01*
X53982Y-533576D01*
X54074Y-533500D01*
X54168Y-533426D01*
X54265Y-533356D01*
X54363Y-533289D01*
X54464Y-533225D01*
X54568Y-533165D01*
X54673Y-533108D01*
X54780Y-533055D01*
X54888Y-533005D01*
X54998Y-532959D01*
X55110Y-532917D01*
X55223Y-532878D01*
X55337Y-532843D01*
X55452Y-532812D01*
X55569Y-532784D01*
X55686Y-532761D01*
X55803Y-532741D01*
X55922Y-532725D01*
X56041Y-532713D01*
X56160Y-532705D01*
X56279Y-532701D01*
X56399Y-532701D01*
X56518Y-532705D01*
X56637Y-532713D01*
X56756Y-532725D01*
X56875Y-532741D01*
X56992Y-532761D01*
X57109Y-532784D01*
X57226Y-532812D01*
X57341Y-532843D01*
X57455Y-532878D01*
X57568Y-532917D01*
X57680Y-532959D01*
X57790Y-533005D01*
X57898Y-533055D01*
X58005Y-533108D01*
X58110Y-533165D01*
X58214Y-533225D01*
X58315Y-533289D01*
X58413Y-533356D01*
X58510Y-533426D01*
X58604Y-533500D01*
X58696Y-533576D01*
X58785Y-533656D01*
X58872Y-533738D01*
X58956Y-533823D01*
X59037Y-533911D01*
X59114Y-534001D01*
X59189Y-534094D01*
X59261Y-534190D01*
X59330Y-534288D01*
X59395Y-534388D01*
X59457Y-534490D01*
X59516Y-534594D01*
X59571Y-534700D01*
X59622Y-534808D01*
X59670Y-534917D01*
X59715Y-535028D01*
X59755Y-535140D01*
X59792Y-535254D01*
X59825Y-535369D01*
X59855Y-535484D01*
X59880Y-535601D01*
X59902Y-535718D01*
X59919Y-535837D01*
X59933Y-535955D01*
X59943Y-536074D01*
X59949Y-536194D01*
X59951Y-536313D01*
X59952Y-536313D02*
X59952Y-538119D01*
X52727Y-538119D01*
X64977Y-532701D02*
X70395Y-532701D01*
X66783Y-527282D02*
X66783Y-540829D01*
X66785Y-540930D01*
X66791Y-541031D01*
X66800Y-541132D01*
X66813Y-541233D01*
X66830Y-541333D01*
X66851Y-541432D01*
X66875Y-541530D01*
X66903Y-541627D01*
X66935Y-541724D01*
X66970Y-541819D01*
X67009Y-541912D01*
X67051Y-542004D01*
X67097Y-542095D01*
X67146Y-542184D01*
X67198Y-542270D01*
X67254Y-542355D01*
X67312Y-542438D01*
X67374Y-542518D01*
X67439Y-542596D01*
X67506Y-542672D01*
X67576Y-542745D01*
X67649Y-542815D01*
X67725Y-542882D01*
X67803Y-542947D01*
X67883Y-543009D01*
X67966Y-543067D01*
X68051Y-543123D01*
X68138Y-543175D01*
X68226Y-543224D01*
X68317Y-543270D01*
X68409Y-543312D01*
X68502Y-543351D01*
X68597Y-543386D01*
X68694Y-543418D01*
X68791Y-543446D01*
X68889Y-543470D01*
X68988Y-543491D01*
X69088Y-543508D01*
X69189Y-543521D01*
X69290Y-543530D01*
X69391Y-543536D01*
X69492Y-543538D01*
X70395Y-543538D01*
X79261Y-537216D02*
X83325Y-537216D01*
X79261Y-537216D02*
X79149Y-537218D01*
X79038Y-537224D01*
X78927Y-537234D01*
X78816Y-537247D01*
X78706Y-537265D01*
X78597Y-537287D01*
X78488Y-537312D01*
X78380Y-537341D01*
X78274Y-537374D01*
X78168Y-537411D01*
X78064Y-537451D01*
X77962Y-537495D01*
X77861Y-537543D01*
X77762Y-537594D01*
X77664Y-537649D01*
X77569Y-537707D01*
X77476Y-537768D01*
X77385Y-537833D01*
X77296Y-537901D01*
X77210Y-537972D01*
X77127Y-538045D01*
X77046Y-538122D01*
X76967Y-538202D01*
X76892Y-538284D01*
X76820Y-538369D01*
X76750Y-538456D01*
X76684Y-538546D01*
X76621Y-538638D01*
X76561Y-538733D01*
X76505Y-538829D01*
X76452Y-538927D01*
X76403Y-539027D01*
X76357Y-539129D01*
X76315Y-539232D01*
X76276Y-539337D01*
X76241Y-539443D01*
X76210Y-539550D01*
X76183Y-539658D01*
X76159Y-539767D01*
X76140Y-539877D01*
X76124Y-539987D01*
X76112Y-540098D01*
X76104Y-540210D01*
X76100Y-540321D01*
X76100Y-540433D01*
X76104Y-540544D01*
X76112Y-540656D01*
X76124Y-540767D01*
X76140Y-540877D01*
X76159Y-540987D01*
X76183Y-541096D01*
X76210Y-541204D01*
X76241Y-541311D01*
X76276Y-541417D01*
X76315Y-541522D01*
X76357Y-541625D01*
X76403Y-541727D01*
X76452Y-541827D01*
X76505Y-541925D01*
X76561Y-542021D01*
X76621Y-542116D01*
X76684Y-542208D01*
X76750Y-542298D01*
X76820Y-542385D01*
X76892Y-542470D01*
X76967Y-542552D01*
X77046Y-542632D01*
X77127Y-542709D01*
X77210Y-542782D01*
X77296Y-542853D01*
X77385Y-542921D01*
X77476Y-542986D01*
X77569Y-543047D01*
X77664Y-543105D01*
X77762Y-543160D01*
X77861Y-543211D01*
X77962Y-543259D01*
X78064Y-543303D01*
X78168Y-543343D01*
X78274Y-543380D01*
X78380Y-543413D01*
X78488Y-543442D01*
X78597Y-543467D01*
X78706Y-543489D01*
X78816Y-543507D01*
X78927Y-543520D01*
X79038Y-543530D01*
X79149Y-543536D01*
X79261Y-543538D01*
X83325Y-543538D01*
X83325Y-535410D01*
X83323Y-535309D01*
X83317Y-535208D01*
X83308Y-535107D01*
X83295Y-535006D01*
X83278Y-534906D01*
X83257Y-534807D01*
X83233Y-534709D01*
X83205Y-534612D01*
X83173Y-534515D01*
X83138Y-534420D01*
X83099Y-534327D01*
X83057Y-534235D01*
X83011Y-534144D01*
X82962Y-534056D01*
X82910Y-533969D01*
X82854Y-533884D01*
X82796Y-533801D01*
X82734Y-533721D01*
X82669Y-533643D01*
X82602Y-533567D01*
X82532Y-533494D01*
X82459Y-533424D01*
X82383Y-533357D01*
X82305Y-533292D01*
X82225Y-533230D01*
X82142Y-533172D01*
X82057Y-533116D01*
X81971Y-533064D01*
X81882Y-533015D01*
X81791Y-532969D01*
X81699Y-532927D01*
X81606Y-532888D01*
X81511Y-532853D01*
X81414Y-532821D01*
X81317Y-532793D01*
X81219Y-532769D01*
X81120Y-532748D01*
X81020Y-532731D01*
X80919Y-532718D01*
X80818Y-532709D01*
X80717Y-532703D01*
X80616Y-532701D01*
X77004Y-532701D01*
X90479Y-527282D02*
X90479Y-540829D01*
X90481Y-540930D01*
X90487Y-541031D01*
X90496Y-541132D01*
X90509Y-541233D01*
X90526Y-541333D01*
X90547Y-541432D01*
X90571Y-541530D01*
X90599Y-541627D01*
X90631Y-541724D01*
X90666Y-541819D01*
X90705Y-541912D01*
X90747Y-542004D01*
X90793Y-542095D01*
X90842Y-542184D01*
X90894Y-542270D01*
X90950Y-542355D01*
X91008Y-542438D01*
X91070Y-542518D01*
X91135Y-542596D01*
X91202Y-542672D01*
X91272Y-542745D01*
X91345Y-542815D01*
X91421Y-542882D01*
X91499Y-542947D01*
X91579Y-543009D01*
X91662Y-543067D01*
X91747Y-543123D01*
X91834Y-543175D01*
X91922Y-543224D01*
X92013Y-543270D01*
X92105Y-543312D01*
X92198Y-543351D01*
X92293Y-543386D01*
X92390Y-543418D01*
X92487Y-543446D01*
X92585Y-543470D01*
X92684Y-543491D01*
X92784Y-543508D01*
X92885Y-543521D01*
X92986Y-543530D01*
X93087Y-543536D01*
X93188Y-543538D01*
D15*
X-195400Y-36110D03*
X-200000Y181540D03*
X-178000Y198460D03*
X-242000Y198460D03*
X-256539Y70000D03*
X-154460Y-125000D03*
X-105540Y-125000D03*
X262683Y-12750D03*
X-226540Y-154000D03*
X-226540Y-226000D03*
X155540Y-275000D03*
X204460Y-275000D03*
X155540Y-205000D03*
X204460Y-205000D03*
X-56960Y22700D03*
X-56960Y-53500D03*
X253460Y-154000D03*
X253460Y-226000D03*
X-275000Y30019D03*
X113460Y-154000D03*
X113460Y-226000D03*
X-154460Y-225000D03*
X-105540Y-225000D03*
X80000Y253253D03*
X364540Y-215000D03*
X-37460Y102500D03*
X-37460Y152500D03*
X22500Y87540D03*
X7500Y87540D03*
X-7500Y87540D03*
X22500Y162460D03*
X2500Y162460D03*
X253965Y120750D03*
X260160Y127250D03*
X253965Y153250D03*
X253965Y172750D03*
X306035Y146750D03*
X56960Y-2700D03*
X56960Y73500D03*
X155540Y-135000D03*
X204460Y-135000D03*
X-30000Y226150D03*
X290000Y86150D03*
X296314Y-52500D03*
X288856Y-57500D03*
X220000Y103851D03*
X-287960Y-237250D03*
X30000Y226150D03*
X55000Y23851D03*
X-35000Y56150D03*
X35000Y56150D03*
X-225000Y86150D03*
X-269600Y147500D03*
X-323686Y-52500D03*
X-331144Y-57500D03*
X220000Y216150D03*
X-295000Y86150D03*
X-45000Y185000D03*
X0Y-12500D03*
X25000Y-37500D03*
X72500Y57500D03*
X197500Y67500D03*
X67500Y-15000D03*
X192500Y62500D03*
X-32500Y-7500D03*
X-15000Y90000D03*
X-80000Y182500D03*
X320117Y32750D03*
X232915Y179250D03*
X327085Y127250D03*
X323686Y-62500D03*
X331144Y-67500D03*
X290000Y53851D03*
X-60160Y107500D03*
X-60160Y157500D03*
X12500Y64840D03*
X-12500Y64840D03*
X7500Y185160D03*
X-320400Y147500D03*
X-30000Y193851D03*
X-144600Y-74690D03*
X341460Y-165000D03*
X220000Y183851D03*
X-312040Y-162750D03*
X-140000Y193611D03*
X-80000Y193611D03*
X-55000Y56150D03*
X-35000Y160000D03*
X-65000Y190000D03*
X-80000Y155000D03*
X-242500Y-82500D03*
X-252500Y-72500D03*
X-17500Y160000D03*
X17500Y-37500D03*
D16*
X70000Y87500D02*
X50000Y107500D01*
X35000Y107500D01*
X25000Y117500D01*
X25000Y137500D01*
X35000Y147500D01*
D15*
X297500Y-117500D03*
X70000Y87500D03*
X35000Y147500D03*
X-65000Y35000D03*
X-80000Y35000D03*
X-27500Y90000D03*
X-115000Y-37500D03*
X-65000Y142500D03*
X-80000Y142500D03*
D17*
X-348000Y-177555D03*
X-262655Y105000D03*
X-202655Y105000D03*
X-225000Y52946D03*
X-220000Y143555D03*
X-236554Y79500D03*
D15*
X282500Y112500D03*
X272500Y102500D03*
X287500Y-222500D03*
X282500Y162500D03*
X-290000Y-62500D03*
X-277500Y-50000D03*
X337500Y-10000D03*
X327500Y0D03*
D16*
X47500Y97500D02*
X-30000Y97500D01*
X47500Y97500D02*
X145000Y0D01*
X265000Y0D01*
D15*
X-30000Y97500D03*
X265000Y0D03*
X-97500Y200000D03*
X277500Y97500D03*
D16*
X250000Y37500D02*
X265000Y22500D01*
X250000Y37500D02*
X112500Y37500D01*
X47500Y102500D01*
X35000Y102500D01*
X2500Y135000D01*
X2500Y150000D01*
X-82500Y235000D01*
X-262500Y235000D01*
D15*
X265000Y22500D03*
X-262500Y235000D03*
D16*
X197500Y-60000D02*
X240000Y-17500D01*
X197500Y-60000D02*
X-42500Y-60000D01*
X-60000Y-42500D01*
X-72500Y-42500D01*
X-202500Y87500D01*
X-202500Y92500D01*
X-280000Y170000D01*
D15*
X240000Y-17500D03*
X-280000Y170000D03*
X237500Y5000D03*
X-195000Y240000D03*
X237500Y12500D03*
X250000Y-27500D03*
D16*
X45000Y77500D02*
X-42500Y77500D01*
X45000Y77500D02*
X140000Y-17500D01*
X147500Y-17500D01*
D15*
X-42500Y77500D03*
X147500Y-17500D03*
D17*
X-317345Y105000D03*
X293000Y223805D03*
X-283446Y79500D03*
X-312945Y-222750D03*
D16*
X-37500Y107500D02*
X-35000Y110000D01*
X-37500Y107500D02*
X-40000Y107500D01*
X-45000Y102500D01*
X-45000Y82500D01*
X-47500Y80000D01*
X-47500Y75000D01*
X-45000Y72500D01*
X-42500Y72500D01*
X-40000Y70000D01*
X-40000Y-37500D01*
D15*
X-35000Y110000D03*
X-40000Y-37500D03*
D16*
X-62500Y90000D02*
X-35000Y117500D01*
X-62500Y90000D02*
X-62500Y40000D01*
X-50000Y27500D01*
X-50000Y-32500D01*
X-52500Y-35000D01*
X-52500Y-40000D01*
X-37500Y-55000D01*
D15*
X-35000Y117500D03*
X-37500Y-55000D03*
X-12500Y147500D03*
X-2500Y147500D03*
X-47500Y-37500D03*
D16*
X-7500Y145000D02*
X-7500Y152500D01*
X-7500Y145000D02*
X-30000Y122500D01*
X-37500Y122500D01*
X-52500Y107500D01*
X-52500Y105000D01*
X-70000Y87500D01*
X-70000Y-37500D01*
D15*
X-7500Y152500D03*
X-70000Y-37500D03*
D16*
X-25000Y30000D02*
X-25000Y37500D01*
X-25000Y30000D02*
X-20000Y25000D01*
X-20000Y-37500D01*
D15*
X-25000Y37500D03*
X-20000Y-37500D03*
X35000Y90000D03*
X110000Y-47500D03*
D16*
X-2500Y40000D02*
X-10000Y40000D01*
X-2500Y40000D02*
X20000Y17500D01*
X20000Y2500D01*
X60000Y-37500D01*
X82500Y-37500D01*
D15*
X-10000Y40000D03*
X82500Y-37500D03*
X100000Y-37500D03*
X-72500Y170000D03*
D16*
X20000Y140000D02*
X20000Y125000D01*
X20000Y140000D02*
X27500Y147500D01*
D15*
X297500Y-110000D03*
X20000Y125000D03*
X27500Y147500D03*
X-290000Y-170000D03*
X-277500Y-182500D03*
X-317500Y-157500D03*
X-327500Y-167500D03*
X282500Y-27500D03*
X212500Y67500D03*
X-285000Y-67500D03*
X-17500Y207500D03*
X-40000Y252500D03*
X-30000Y242500D03*
D17*
X232010Y159750D03*
X-384445Y-165000D03*
X220000Y137055D03*
D14*
X205000Y215000D02*
X205000Y270000D01*
X205000Y215000D02*
X205000Y160000D01*
X160000Y115000D02*
X35000Y115000D01*
X35000Y135000D01*
X95000Y135000D01*
X95000Y215000D01*
X95000Y280000D01*
D16*
X95000Y215000D02*
X205000Y215000D01*
M02*
