M48
;GenerationSoftware,Autodesk,EAGLE,9.3.0*%
;CreationDate,2019-05-17T21:36:53Z*%
FMAT,2
ICI,OFF
METRIC,TZ,000.000
T3C0.381
T2C1.000
T1C3.200
%
G90
M71
T1
X5000Y97000
X5000Y90000
T2
X10000Y74000
X13000Y74000
X19000Y74000
X25000Y74000
X22000Y74000
X16000Y74000
T3
X19200Y99069
X2406Y76400
X2406Y83600
X25309Y83500
X23000Y85635
X19090Y82000
X31049Y86000
X14950Y86000
X25309Y85000
X20691Y86000
X10800Y92755
X7594Y76400
X7594Y83600
X20691Y84500
X19050Y86000
X19090Y78000
X21800Y99069
X24200Y99069
X26800Y99069
X21700Y93880
X36590Y77000
X24300Y93880
X26950Y86000
X31089Y82000
M30