G04 EAGLE Gerber RS-274X export*
G75*
%MOMM*%
%FSLAX34Y34*%
%LPD*%
%INComponent side*%
%IPPOS*%
%AMOC8*
5,1,8,0,0,1.08239X$1,22.5*%
G01*
%ADD10R,1.200000X1.800000*%
%ADD11R,1.500000X1.800000*%
%ADD12C,0.496800*%
%ADD13C,0.479400*%
%ADD14R,0.400000X1.350000*%
%ADD15R,1.900000X1.900000*%
%ADD16R,1.800000X1.900000*%
%ADD17R,2.100000X1.600000*%
%ADD18C,1.500000*%
%ADD19C,0.460000*%
%ADD20R,1.600000X1.000000*%
%ADD21R,0.860000X0.270000*%
%ADD22R,1.650000X2.380000*%
%ADD23C,1.500000*%
%ADD24C,0.254000*%
%ADD25C,0.635000*%
%ADD26C,0.127000*%

G36*
X360022Y622054D02*
X360022Y622054D01*
X360060Y622053D01*
X362749Y622265D01*
X362754Y622266D01*
X362760Y622266D01*
X362924Y622300D01*
X368038Y623961D01*
X368070Y623978D01*
X368105Y623986D01*
X368251Y624069D01*
X372601Y627230D01*
X372626Y627256D01*
X372657Y627275D01*
X372770Y627399D01*
X375931Y631749D01*
X375947Y631781D01*
X375970Y631809D01*
X376039Y631962D01*
X377700Y637076D01*
X377701Y637082D01*
X377704Y637087D01*
X377735Y637251D01*
X377947Y639940D01*
X377945Y639962D01*
X377949Y640000D01*
X377949Y980000D01*
X377946Y980022D01*
X377947Y980060D01*
X377735Y982749D01*
X377734Y982754D01*
X377734Y982760D01*
X377700Y982924D01*
X376039Y988038D01*
X376022Y988070D01*
X376014Y988105D01*
X375931Y988251D01*
X372770Y992601D01*
X372744Y992626D01*
X372725Y992657D01*
X372601Y992770D01*
X368251Y995931D01*
X368219Y995947D01*
X368191Y995970D01*
X368038Y996039D01*
X362924Y997700D01*
X362918Y997701D01*
X362913Y997704D01*
X362749Y997735D01*
X360060Y997947D01*
X360038Y997945D01*
X360000Y997949D01*
X20000Y997949D01*
X19978Y997946D01*
X19940Y997947D01*
X17251Y997735D01*
X17246Y997734D01*
X17240Y997734D01*
X17076Y997700D01*
X11962Y996039D01*
X11930Y996022D01*
X11895Y996014D01*
X11749Y995931D01*
X7399Y992770D01*
X7374Y992744D01*
X7343Y992725D01*
X7230Y992601D01*
X4069Y988251D01*
X4053Y988219D01*
X4030Y988191D01*
X3961Y988038D01*
X2300Y982924D01*
X2299Y982918D01*
X2296Y982913D01*
X2265Y982749D01*
X2053Y980060D01*
X2055Y980038D01*
X2051Y980000D01*
X2051Y640000D01*
X2054Y639978D01*
X2053Y639940D01*
X2265Y637251D01*
X2266Y637246D01*
X2266Y637240D01*
X2300Y637076D01*
X3961Y631962D01*
X3978Y631930D01*
X3986Y631895D01*
X4069Y631749D01*
X7230Y627399D01*
X7256Y627374D01*
X7275Y627343D01*
X7399Y627230D01*
X11749Y624069D01*
X11781Y624053D01*
X11809Y624030D01*
X11962Y623961D01*
X17076Y622300D01*
X17082Y622299D01*
X17087Y622296D01*
X17251Y622265D01*
X19940Y622053D01*
X19962Y622055D01*
X20000Y622051D01*
X360000Y622051D01*
X360022Y622054D01*
G37*
%LPC*%
G36*
X95096Y728344D02*
X95096Y728344D01*
X88264Y735176D01*
X88264Y902833D01*
X88253Y902904D01*
X88251Y902976D01*
X88233Y903025D01*
X88225Y903076D01*
X88191Y903139D01*
X88166Y903207D01*
X88134Y903247D01*
X88109Y903293D01*
X88057Y903343D01*
X88013Y903399D01*
X87969Y903427D01*
X87931Y903463D01*
X87866Y903493D01*
X87806Y903532D01*
X87755Y903545D01*
X87708Y903566D01*
X87637Y903574D01*
X87567Y903592D01*
X87515Y903588D01*
X87464Y903594D01*
X87393Y903578D01*
X87322Y903573D01*
X87274Y903552D01*
X87223Y903541D01*
X87162Y903504D01*
X87096Y903476D01*
X87040Y903432D01*
X87012Y903415D01*
X86997Y903397D01*
X86965Y903372D01*
X80264Y896671D01*
X80211Y896597D01*
X80151Y896527D01*
X80139Y896497D01*
X80120Y896471D01*
X80093Y896384D01*
X80059Y896299D01*
X80055Y896258D01*
X80048Y896236D01*
X80049Y896204D01*
X80041Y896132D01*
X80041Y838833D01*
X80054Y838750D01*
X80059Y838665D01*
X80062Y838659D01*
X80059Y838502D01*
X80073Y838405D01*
X80081Y838307D01*
X80091Y838284D01*
X80095Y838259D01*
X80139Y838171D01*
X80177Y838081D01*
X80197Y838056D01*
X80206Y838039D01*
X80229Y838016D01*
X80282Y837950D01*
X80391Y837842D01*
X80391Y834158D01*
X77787Y831554D01*
X74103Y831554D01*
X72570Y833088D01*
X72512Y833129D01*
X72460Y833179D01*
X72413Y833201D01*
X72371Y833231D01*
X72302Y833252D01*
X72237Y833282D01*
X72185Y833288D01*
X72135Y833303D01*
X72064Y833302D01*
X71993Y833309D01*
X71942Y833298D01*
X71890Y833297D01*
X71822Y833272D01*
X71752Y833257D01*
X71707Y833230D01*
X71659Y833213D01*
X71603Y833168D01*
X71541Y833131D01*
X71507Y833091D01*
X71467Y833059D01*
X71428Y832999D01*
X71381Y832944D01*
X71362Y832896D01*
X71334Y832852D01*
X71316Y832783D01*
X71289Y832716D01*
X71281Y832645D01*
X71273Y832613D01*
X71275Y832590D01*
X71271Y832549D01*
X71271Y826474D01*
X70526Y825729D01*
X65802Y825729D01*
X65782Y825726D01*
X65763Y825728D01*
X65661Y825706D01*
X65559Y825690D01*
X65542Y825680D01*
X65522Y825676D01*
X65433Y825623D01*
X65342Y825574D01*
X65328Y825560D01*
X65311Y825550D01*
X65244Y825471D01*
X65172Y825396D01*
X65164Y825378D01*
X65151Y825363D01*
X65112Y825267D01*
X65069Y825173D01*
X65067Y825153D01*
X65059Y825135D01*
X65041Y824968D01*
X65041Y775032D01*
X65042Y775024D01*
X65042Y775023D01*
X65044Y775013D01*
X65044Y775012D01*
X65042Y774993D01*
X65064Y774891D01*
X65080Y774789D01*
X65090Y774772D01*
X65094Y774752D01*
X65147Y774663D01*
X65196Y774572D01*
X65210Y774558D01*
X65220Y774541D01*
X65299Y774474D01*
X65374Y774402D01*
X65392Y774394D01*
X65407Y774381D01*
X65503Y774342D01*
X65597Y774299D01*
X65617Y774297D01*
X65635Y774289D01*
X65802Y774271D01*
X69026Y774271D01*
X69771Y773526D01*
X69771Y767302D01*
X69774Y767282D01*
X69772Y767263D01*
X69794Y767161D01*
X69810Y767059D01*
X69820Y767042D01*
X69824Y767022D01*
X69877Y766933D01*
X69926Y766842D01*
X69940Y766828D01*
X69950Y766811D01*
X70029Y766744D01*
X70104Y766672D01*
X70122Y766664D01*
X70137Y766651D01*
X70233Y766612D01*
X70327Y766569D01*
X70347Y766567D01*
X70365Y766559D01*
X70532Y766541D01*
X71883Y766541D01*
X71973Y766555D01*
X72064Y766563D01*
X72094Y766575D01*
X72126Y766580D01*
X72207Y766623D01*
X72290Y766659D01*
X72323Y766685D01*
X72343Y766696D01*
X72365Y766719D01*
X72421Y766764D01*
X74103Y768446D01*
X77787Y768446D01*
X80391Y765842D01*
X80391Y762158D01*
X77787Y759554D01*
X74103Y759554D01*
X72421Y761236D01*
X72348Y761289D01*
X72278Y761349D01*
X72248Y761361D01*
X72222Y761380D01*
X72135Y761407D01*
X72050Y761441D01*
X72009Y761445D01*
X71987Y761452D01*
X71954Y761451D01*
X71883Y761459D01*
X70532Y761459D01*
X70512Y761456D01*
X70493Y761458D01*
X70391Y761436D01*
X70289Y761420D01*
X70272Y761410D01*
X70252Y761406D01*
X70163Y761353D01*
X70072Y761304D01*
X70058Y761290D01*
X70041Y761280D01*
X69974Y761201D01*
X69902Y761126D01*
X69894Y761108D01*
X69881Y761093D01*
X69842Y760997D01*
X69799Y760903D01*
X69797Y760883D01*
X69789Y760865D01*
X69771Y760698D01*
X69771Y754474D01*
X69026Y753729D01*
X55974Y753729D01*
X55229Y754474D01*
X55229Y773526D01*
X55974Y774271D01*
X59198Y774271D01*
X59218Y774274D01*
X59237Y774272D01*
X59339Y774294D01*
X59441Y774310D01*
X59458Y774320D01*
X59478Y774324D01*
X59567Y774377D01*
X59658Y774426D01*
X59672Y774440D01*
X59689Y774450D01*
X59756Y774529D01*
X59828Y774604D01*
X59836Y774622D01*
X59849Y774637D01*
X59888Y774733D01*
X59931Y774827D01*
X59933Y774847D01*
X59941Y774865D01*
X59959Y775032D01*
X59959Y824968D01*
X59956Y824988D01*
X59958Y825007D01*
X59936Y825109D01*
X59920Y825211D01*
X59910Y825228D01*
X59906Y825248D01*
X59853Y825337D01*
X59804Y825428D01*
X59790Y825442D01*
X59780Y825459D01*
X59701Y825526D01*
X59626Y825598D01*
X59608Y825606D01*
X59593Y825619D01*
X59497Y825658D01*
X59403Y825701D01*
X59383Y825703D01*
X59365Y825711D01*
X59198Y825729D01*
X54474Y825729D01*
X53729Y826474D01*
X53729Y845526D01*
X54474Y846271D01*
X70526Y846271D01*
X71271Y845526D01*
X71271Y839451D01*
X71282Y839380D01*
X71284Y839308D01*
X71302Y839259D01*
X71310Y839208D01*
X71344Y839145D01*
X71369Y839077D01*
X71401Y839037D01*
X71426Y838991D01*
X71478Y838941D01*
X71522Y838885D01*
X71566Y838857D01*
X71604Y838821D01*
X71669Y838791D01*
X71729Y838752D01*
X71780Y838740D01*
X71827Y838718D01*
X71898Y838710D01*
X71968Y838692D01*
X72020Y838696D01*
X72071Y838691D01*
X72142Y838706D01*
X72213Y838711D01*
X72261Y838732D01*
X72312Y838743D01*
X72373Y838780D01*
X72439Y838808D01*
X72495Y838852D01*
X72523Y838869D01*
X72538Y838887D01*
X72570Y838912D01*
X74103Y840446D01*
X74198Y840446D01*
X74218Y840449D01*
X74237Y840447D01*
X74339Y840469D01*
X74441Y840485D01*
X74458Y840495D01*
X74478Y840499D01*
X74567Y840552D01*
X74658Y840601D01*
X74672Y840615D01*
X74689Y840625D01*
X74756Y840704D01*
X74828Y840779D01*
X74836Y840797D01*
X74849Y840812D01*
X74888Y840908D01*
X74931Y841002D01*
X74933Y841022D01*
X74941Y841040D01*
X74959Y841207D01*
X74959Y898552D01*
X103331Y926924D01*
X103384Y926998D01*
X103444Y927068D01*
X103456Y927098D01*
X103475Y927124D01*
X103502Y927211D01*
X103536Y927296D01*
X103540Y927337D01*
X103547Y927359D01*
X103546Y927391D01*
X103554Y927463D01*
X103554Y929397D01*
X105236Y931079D01*
X105289Y931152D01*
X105349Y931222D01*
X105361Y931252D01*
X105380Y931278D01*
X105407Y931365D01*
X105441Y931450D01*
X105445Y931491D01*
X105452Y931513D01*
X105451Y931546D01*
X105459Y931617D01*
X105459Y932968D01*
X105456Y932988D01*
X105458Y933007D01*
X105436Y933109D01*
X105420Y933211D01*
X105410Y933228D01*
X105406Y933248D01*
X105353Y933337D01*
X105304Y933428D01*
X105290Y933442D01*
X105280Y933459D01*
X105201Y933526D01*
X105126Y933598D01*
X105108Y933606D01*
X105093Y933619D01*
X104997Y933658D01*
X104903Y933701D01*
X104883Y933703D01*
X104865Y933711D01*
X104698Y933729D01*
X99474Y933729D01*
X98729Y934474D01*
X98729Y945526D01*
X99474Y946271D01*
X116526Y946271D01*
X117271Y945526D01*
X117271Y934474D01*
X116526Y933729D01*
X111302Y933729D01*
X111282Y933726D01*
X111263Y933728D01*
X111161Y933706D01*
X111059Y933690D01*
X111042Y933680D01*
X111022Y933676D01*
X110933Y933623D01*
X110842Y933574D01*
X110828Y933560D01*
X110811Y933550D01*
X110744Y933471D01*
X110672Y933396D01*
X110664Y933378D01*
X110651Y933363D01*
X110612Y933267D01*
X110569Y933173D01*
X110567Y933153D01*
X110559Y933135D01*
X110541Y932968D01*
X110541Y931617D01*
X110555Y931527D01*
X110563Y931436D01*
X110575Y931406D01*
X110580Y931374D01*
X110623Y931293D01*
X110659Y931210D01*
X110685Y931177D01*
X110696Y931157D01*
X110719Y931135D01*
X110764Y931079D01*
X112446Y929397D01*
X112446Y929144D01*
X112457Y929073D01*
X112459Y929001D01*
X112477Y928952D01*
X112485Y928901D01*
X112519Y928838D01*
X112544Y928770D01*
X112576Y928730D01*
X112601Y928684D01*
X112653Y928634D01*
X112697Y928578D01*
X112741Y928550D01*
X112779Y928514D01*
X112844Y928484D01*
X112904Y928445D01*
X112955Y928432D01*
X113002Y928411D01*
X113073Y928403D01*
X113143Y928385D01*
X113195Y928389D01*
X113246Y928383D01*
X113317Y928399D01*
X113388Y928404D01*
X113436Y928425D01*
X113487Y928436D01*
X113548Y928473D01*
X113614Y928501D01*
X113670Y928545D01*
X113698Y928562D01*
X113713Y928580D01*
X113745Y928605D01*
X129316Y944176D01*
X129369Y944250D01*
X129429Y944320D01*
X129441Y944350D01*
X129460Y944376D01*
X129487Y944463D01*
X129521Y944548D01*
X129525Y944589D01*
X129532Y944611D01*
X129531Y944643D01*
X129539Y944715D01*
X129539Y957968D01*
X129536Y957988D01*
X129538Y958007D01*
X129516Y958109D01*
X129500Y958211D01*
X129490Y958228D01*
X129486Y958248D01*
X129433Y958337D01*
X129384Y958428D01*
X129370Y958442D01*
X129360Y958459D01*
X129281Y958526D01*
X129206Y958598D01*
X129188Y958606D01*
X129173Y958619D01*
X129077Y958658D01*
X128983Y958701D01*
X128963Y958703D01*
X128945Y958711D01*
X128778Y958729D01*
X123474Y958729D01*
X122729Y959474D01*
X122729Y970526D01*
X123474Y971271D01*
X140526Y971271D01*
X141271Y970526D01*
X141271Y959474D01*
X140526Y958729D01*
X134112Y958729D01*
X134092Y958726D01*
X134073Y958728D01*
X133971Y958706D01*
X133869Y958690D01*
X133852Y958680D01*
X133832Y958676D01*
X133743Y958623D01*
X133652Y958574D01*
X133638Y958560D01*
X133621Y958550D01*
X133554Y958471D01*
X133482Y958396D01*
X133474Y958378D01*
X133461Y958363D01*
X133422Y958267D01*
X133379Y958173D01*
X133377Y958153D01*
X133369Y958135D01*
X133351Y957968D01*
X133351Y942821D01*
X92299Y901769D01*
X92246Y901695D01*
X92186Y901625D01*
X92174Y901595D01*
X92155Y901569D01*
X92128Y901482D01*
X92094Y901397D01*
X92090Y901356D01*
X92083Y901334D01*
X92084Y901302D01*
X92076Y901230D01*
X92076Y746317D01*
X92087Y746247D01*
X92089Y746175D01*
X92107Y746126D01*
X92115Y746074D01*
X92149Y746011D01*
X92174Y745944D01*
X92206Y745903D01*
X92231Y745857D01*
X92283Y745808D01*
X92327Y745752D01*
X92371Y745724D01*
X92409Y745688D01*
X92474Y745658D01*
X92534Y745619D01*
X92585Y745606D01*
X92632Y745584D01*
X92703Y745576D01*
X92773Y745559D01*
X92825Y745563D01*
X92876Y745557D01*
X92947Y745572D01*
X93018Y745578D01*
X93066Y745598D01*
X93117Y745609D01*
X93178Y745646D01*
X93244Y745674D01*
X93300Y745719D01*
X93328Y745735D01*
X93343Y745753D01*
X93375Y745779D01*
X95032Y747435D01*
X98255Y748771D01*
X101745Y748771D01*
X104968Y747435D01*
X107435Y744968D01*
X108339Y742786D01*
X108401Y742686D01*
X108461Y742586D01*
X108466Y742582D01*
X108469Y742577D01*
X108560Y742502D01*
X108648Y742426D01*
X108654Y742424D01*
X108659Y742420D01*
X108767Y742378D01*
X108876Y742334D01*
X108884Y742333D01*
X108888Y742332D01*
X108906Y742331D01*
X109043Y742316D01*
X115735Y742316D01*
X115825Y742330D01*
X115916Y742338D01*
X115946Y742350D01*
X115978Y742355D01*
X116059Y742398D01*
X116143Y742434D01*
X116175Y742460D01*
X116195Y742471D01*
X116207Y742482D01*
X116208Y742483D01*
X116220Y742496D01*
X116274Y742539D01*
X154356Y780621D01*
X154399Y780681D01*
X154440Y780724D01*
X154447Y780739D01*
X154469Y780765D01*
X154481Y780795D01*
X154500Y780821D01*
X154527Y780908D01*
X154535Y780928D01*
X154543Y780947D01*
X154544Y780951D01*
X154561Y780993D01*
X154565Y781034D01*
X154572Y781056D01*
X154571Y781088D01*
X154579Y781160D01*
X154579Y786079D01*
X156671Y788171D01*
X157988Y788171D01*
X158008Y788174D01*
X158027Y788172D01*
X158129Y788194D01*
X158231Y788210D01*
X158248Y788220D01*
X158268Y788224D01*
X158357Y788277D01*
X158448Y788326D01*
X158462Y788340D01*
X158479Y788350D01*
X158546Y788429D01*
X158618Y788504D01*
X158626Y788522D01*
X158639Y788537D01*
X158678Y788633D01*
X158721Y788727D01*
X158723Y788747D01*
X158731Y788765D01*
X158749Y788932D01*
X158749Y811068D01*
X158746Y811088D01*
X158748Y811107D01*
X158726Y811209D01*
X158710Y811311D01*
X158700Y811328D01*
X158696Y811348D01*
X158643Y811437D01*
X158594Y811528D01*
X158580Y811542D01*
X158570Y811559D01*
X158491Y811626D01*
X158416Y811698D01*
X158398Y811706D01*
X158383Y811719D01*
X158287Y811758D01*
X158193Y811801D01*
X158173Y811803D01*
X158155Y811811D01*
X157988Y811829D01*
X156671Y811829D01*
X154579Y813921D01*
X154579Y826079D01*
X156671Y828171D01*
X164229Y828171D01*
X164432Y827968D01*
X164448Y827957D01*
X164460Y827941D01*
X164547Y827885D01*
X164631Y827825D01*
X164650Y827819D01*
X164667Y827808D01*
X164767Y827783D01*
X164866Y827752D01*
X164886Y827753D01*
X164906Y827748D01*
X165009Y827756D01*
X165112Y827759D01*
X165131Y827766D01*
X165151Y827767D01*
X165246Y827808D01*
X165343Y827843D01*
X165359Y827856D01*
X165377Y827863D01*
X165508Y827968D01*
X178916Y841376D01*
X202408Y841376D01*
X202479Y841387D01*
X202551Y841389D01*
X202600Y841407D01*
X202651Y841415D01*
X202714Y841449D01*
X202782Y841474D01*
X202822Y841506D01*
X202868Y841531D01*
X202918Y841583D01*
X202974Y841627D01*
X203002Y841671D01*
X203038Y841709D01*
X203068Y841774D01*
X203107Y841834D01*
X203119Y841885D01*
X203141Y841932D01*
X203149Y842003D01*
X203167Y842073D01*
X203163Y842125D01*
X203168Y842176D01*
X203153Y842247D01*
X203148Y842318D01*
X203127Y842366D01*
X203116Y842417D01*
X203079Y842478D01*
X203051Y842544D01*
X203006Y842600D01*
X202990Y842628D01*
X202972Y842643D01*
X202947Y842675D01*
X202463Y843159D01*
X202463Y843628D01*
X202449Y843718D01*
X202441Y843809D01*
X202429Y843839D01*
X202424Y843871D01*
X202381Y843952D01*
X202345Y844036D01*
X202319Y844068D01*
X202308Y844088D01*
X202285Y844111D01*
X202240Y844167D01*
X191076Y855331D01*
X191002Y855384D01*
X190932Y855444D01*
X190902Y855456D01*
X190876Y855475D01*
X190789Y855502D01*
X190704Y855536D01*
X190663Y855540D01*
X190641Y855547D01*
X190609Y855546D01*
X190537Y855554D01*
X188653Y855554D01*
X186971Y857236D01*
X186898Y857289D01*
X186828Y857349D01*
X186798Y857361D01*
X186772Y857380D01*
X186685Y857407D01*
X186600Y857441D01*
X186559Y857445D01*
X186537Y857452D01*
X186504Y857451D01*
X186433Y857459D01*
X186382Y857459D01*
X186362Y857456D01*
X186343Y857458D01*
X186241Y857436D01*
X186139Y857420D01*
X186122Y857410D01*
X186102Y857406D01*
X186013Y857353D01*
X185922Y857304D01*
X185908Y857290D01*
X185891Y857280D01*
X185824Y857201D01*
X185752Y857126D01*
X185744Y857108D01*
X185731Y857093D01*
X185692Y856997D01*
X185649Y856903D01*
X185647Y856883D01*
X185639Y856865D01*
X185621Y856698D01*
X185621Y853829D01*
X183421Y851629D01*
X174479Y851629D01*
X172279Y853829D01*
X172279Y866171D01*
X174479Y868371D01*
X183421Y868371D01*
X185621Y866171D01*
X185621Y863302D01*
X185624Y863282D01*
X185622Y863263D01*
X185644Y863161D01*
X185660Y863059D01*
X185670Y863042D01*
X185674Y863022D01*
X185727Y862933D01*
X185776Y862842D01*
X185790Y862828D01*
X185800Y862811D01*
X185879Y862744D01*
X185954Y862672D01*
X185972Y862664D01*
X185987Y862651D01*
X186083Y862612D01*
X186177Y862569D01*
X186197Y862567D01*
X186215Y862559D01*
X186382Y862541D01*
X186433Y862541D01*
X186523Y862555D01*
X186614Y862563D01*
X186644Y862575D01*
X186676Y862580D01*
X186757Y862623D01*
X186840Y862659D01*
X186873Y862685D01*
X186893Y862696D01*
X186915Y862719D01*
X186971Y862764D01*
X188653Y864446D01*
X192337Y864446D01*
X194941Y861842D01*
X194941Y861468D01*
X194955Y861378D01*
X194963Y861287D01*
X194975Y861257D01*
X194980Y861225D01*
X195023Y861144D01*
X195041Y861103D01*
X195041Y858868D01*
X195055Y858778D01*
X195063Y858687D01*
X195075Y858657D01*
X195080Y858625D01*
X195123Y858544D01*
X195159Y858460D01*
X195185Y858428D01*
X195196Y858408D01*
X195219Y858385D01*
X195264Y858329D01*
X204069Y849524D01*
X204085Y849512D01*
X204098Y849497D01*
X204185Y849441D01*
X204269Y849380D01*
X204288Y849375D01*
X204305Y849364D01*
X204405Y849338D01*
X204504Y849308D01*
X204524Y849309D01*
X204543Y849304D01*
X204646Y849312D01*
X204750Y849314D01*
X204769Y849321D01*
X204789Y849323D01*
X204884Y849363D01*
X204981Y849399D01*
X204997Y849411D01*
X205015Y849419D01*
X205048Y849446D01*
X208750Y849446D01*
X208784Y849413D01*
X208842Y849371D01*
X208894Y849321D01*
X208941Y849299D01*
X208983Y849269D01*
X209052Y849248D01*
X209117Y849218D01*
X209169Y849212D01*
X209219Y849197D01*
X209290Y849198D01*
X209361Y849191D01*
X209412Y849202D01*
X209464Y849203D01*
X209532Y849228D01*
X209602Y849243D01*
X209647Y849270D01*
X209695Y849287D01*
X209751Y849332D01*
X209813Y849369D01*
X209847Y849409D01*
X209887Y849441D01*
X209926Y849501D01*
X209973Y849556D01*
X209992Y849604D01*
X210020Y849648D01*
X210038Y849717D01*
X210065Y849784D01*
X210073Y849855D01*
X210081Y849886D01*
X210079Y849910D01*
X210083Y849951D01*
X210083Y851662D01*
X210069Y851752D01*
X210061Y851843D01*
X210049Y851873D01*
X210044Y851905D01*
X210001Y851986D01*
X209965Y852070D01*
X209939Y852102D01*
X209928Y852122D01*
X209905Y852145D01*
X209860Y852201D01*
X206730Y855331D01*
X206656Y855384D01*
X206586Y855444D01*
X206556Y855456D01*
X206530Y855475D01*
X206443Y855502D01*
X206358Y855536D01*
X206317Y855540D01*
X206295Y855547D01*
X206263Y855546D01*
X206191Y855554D01*
X205067Y855554D01*
X202463Y858158D01*
X202463Y861842D01*
X205067Y864446D01*
X208751Y864446D01*
X211355Y861842D01*
X211355Y858208D01*
X211369Y858118D01*
X211377Y858027D01*
X211389Y857997D01*
X211394Y857965D01*
X211437Y857884D01*
X211473Y857800D01*
X211499Y857768D01*
X211510Y857748D01*
X211533Y857725D01*
X211578Y857669D01*
X216403Y852844D01*
X216477Y852791D01*
X216547Y852731D01*
X216577Y852719D01*
X216603Y852700D01*
X216690Y852673D01*
X216775Y852639D01*
X216816Y852635D01*
X216838Y852628D01*
X216870Y852629D01*
X216942Y852621D01*
X220480Y852621D01*
X221225Y851876D01*
X221225Y848124D01*
X221139Y848038D01*
X221128Y848022D01*
X221112Y848010D01*
X221056Y847923D01*
X220996Y847839D01*
X220990Y847820D01*
X220979Y847803D01*
X220954Y847702D01*
X220923Y847604D01*
X220924Y847584D01*
X220919Y847564D01*
X220927Y847461D01*
X220930Y847358D01*
X220937Y847339D01*
X220938Y847319D01*
X220979Y847224D01*
X221014Y847127D01*
X221027Y847111D01*
X221035Y847093D01*
X221139Y846962D01*
X221225Y846876D01*
X221225Y843124D01*
X221139Y843038D01*
X221128Y843022D01*
X221112Y843010D01*
X221056Y842923D01*
X220996Y842839D01*
X220990Y842820D01*
X220979Y842803D01*
X220954Y842702D01*
X220923Y842604D01*
X220924Y842584D01*
X220919Y842564D01*
X220927Y842461D01*
X220930Y842358D01*
X220937Y842339D01*
X220938Y842319D01*
X220979Y842224D01*
X221014Y842127D01*
X221027Y842111D01*
X221035Y842093D01*
X221139Y841962D01*
X221225Y841876D01*
X221225Y838124D01*
X221139Y838038D01*
X221128Y838022D01*
X221112Y838010D01*
X221056Y837923D01*
X220996Y837839D01*
X220990Y837820D01*
X220979Y837803D01*
X220954Y837702D01*
X220923Y837604D01*
X220924Y837584D01*
X220919Y837564D01*
X220927Y837461D01*
X220930Y837358D01*
X220937Y837339D01*
X220938Y837319D01*
X220979Y837224D01*
X220984Y837208D01*
X220985Y837205D01*
X220987Y837202D01*
X221014Y837127D01*
X221027Y837111D01*
X221035Y837093D01*
X221104Y837006D01*
X221111Y836994D01*
X221119Y836987D01*
X221139Y836962D01*
X221225Y836876D01*
X221225Y833124D01*
X221139Y833038D01*
X221128Y833022D01*
X221112Y833010D01*
X221056Y832923D01*
X220996Y832839D01*
X220990Y832820D01*
X220979Y832803D01*
X220954Y832702D01*
X220923Y832604D01*
X220924Y832584D01*
X220919Y832564D01*
X220927Y832461D01*
X220930Y832358D01*
X220937Y832339D01*
X220938Y832319D01*
X220979Y832224D01*
X221014Y832127D01*
X221027Y832111D01*
X221035Y832093D01*
X221139Y831962D01*
X221225Y831876D01*
X221225Y828124D01*
X220480Y827379D01*
X210828Y827379D01*
X210083Y828124D01*
X210083Y828485D01*
X210072Y828556D01*
X210070Y828628D01*
X210052Y828677D01*
X210044Y828728D01*
X210010Y828791D01*
X209985Y828859D01*
X209953Y828899D01*
X209928Y828945D01*
X209876Y828995D01*
X209832Y829051D01*
X209788Y829079D01*
X209750Y829115D01*
X209685Y829145D01*
X209625Y829184D01*
X209574Y829197D01*
X209527Y829218D01*
X209456Y829226D01*
X209386Y829244D01*
X209334Y829240D01*
X209283Y829246D01*
X209212Y829230D01*
X209141Y829225D01*
X209093Y829204D01*
X209042Y829193D01*
X208981Y829156D01*
X208915Y829128D01*
X208859Y829084D01*
X208831Y829067D01*
X208816Y829049D01*
X208784Y829024D01*
X198344Y818584D01*
X198291Y818510D01*
X198231Y818440D01*
X198219Y818410D01*
X198200Y818384D01*
X198173Y818297D01*
X198139Y818212D01*
X198135Y818171D01*
X198128Y818149D01*
X198129Y818117D01*
X198121Y818045D01*
X198121Y808836D01*
X178755Y789470D01*
X178714Y789412D01*
X178664Y789360D01*
X178642Y789313D01*
X178612Y789271D01*
X178591Y789202D01*
X178561Y789137D01*
X178555Y789085D01*
X178539Y789035D01*
X178541Y788964D01*
X178533Y788893D01*
X178544Y788842D01*
X178546Y788790D01*
X178570Y788722D01*
X178586Y788652D01*
X178612Y788607D01*
X178630Y788559D01*
X178675Y788503D01*
X178712Y788441D01*
X178751Y788407D01*
X178784Y788367D01*
X178844Y788328D01*
X178899Y788281D01*
X178947Y788262D01*
X178991Y788234D01*
X179060Y788216D01*
X179127Y788189D01*
X179198Y788181D01*
X179229Y788173D01*
X179253Y788175D01*
X179294Y788171D01*
X183329Y788171D01*
X185421Y786079D01*
X185421Y783302D01*
X185424Y783282D01*
X185422Y783263D01*
X185444Y783161D01*
X185460Y783059D01*
X185470Y783042D01*
X185474Y783022D01*
X185527Y782933D01*
X185576Y782842D01*
X185590Y782828D01*
X185600Y782811D01*
X185679Y782744D01*
X185754Y782672D01*
X185772Y782664D01*
X185787Y782651D01*
X185883Y782612D01*
X185977Y782569D01*
X185997Y782567D01*
X186015Y782559D01*
X186182Y782541D01*
X186833Y782541D01*
X186923Y782555D01*
X187014Y782563D01*
X187044Y782575D01*
X187076Y782580D01*
X187157Y782623D01*
X187240Y782659D01*
X187273Y782685D01*
X187293Y782696D01*
X187315Y782719D01*
X187371Y782764D01*
X189053Y784446D01*
X192737Y784446D01*
X195341Y781842D01*
X195341Y778158D01*
X192737Y775554D01*
X189053Y775554D01*
X187371Y777236D01*
X187298Y777289D01*
X187228Y777349D01*
X187198Y777361D01*
X187172Y777380D01*
X187085Y777407D01*
X187000Y777441D01*
X186959Y777445D01*
X186937Y777452D01*
X186904Y777451D01*
X186833Y777459D01*
X186182Y777459D01*
X186162Y777456D01*
X186143Y777458D01*
X186041Y777436D01*
X185939Y777420D01*
X185922Y777410D01*
X185902Y777406D01*
X185813Y777353D01*
X185722Y777304D01*
X185708Y777290D01*
X185691Y777280D01*
X185624Y777201D01*
X185552Y777126D01*
X185544Y777108D01*
X185531Y777093D01*
X185492Y776997D01*
X185449Y776903D01*
X185447Y776883D01*
X185439Y776865D01*
X185421Y776698D01*
X185421Y773921D01*
X183329Y771829D01*
X175771Y771829D01*
X173679Y773921D01*
X173679Y782556D01*
X173668Y782627D01*
X173666Y782699D01*
X173648Y782748D01*
X173640Y782799D01*
X173606Y782862D01*
X173581Y782930D01*
X173549Y782970D01*
X173524Y783016D01*
X173472Y783066D01*
X173428Y783122D01*
X173384Y783150D01*
X173346Y783186D01*
X173281Y783216D01*
X173221Y783255D01*
X173170Y783268D01*
X173123Y783289D01*
X173052Y783297D01*
X172982Y783315D01*
X172930Y783311D01*
X172879Y783317D01*
X172808Y783301D01*
X172737Y783296D01*
X172689Y783275D01*
X172638Y783264D01*
X172577Y783228D01*
X172511Y783199D01*
X172455Y783155D01*
X172427Y783138D01*
X172412Y783120D01*
X172380Y783095D01*
X169134Y779849D01*
X169081Y779775D01*
X169021Y779705D01*
X169009Y779675D01*
X168990Y779649D01*
X168963Y779562D01*
X168929Y779477D01*
X168925Y779436D01*
X168918Y779414D01*
X168919Y779382D01*
X168911Y779310D01*
X168911Y762481D01*
X157612Y751182D01*
X157607Y751175D01*
X157601Y751171D01*
X157536Y751075D01*
X157469Y750982D01*
X157466Y750975D01*
X157462Y750968D01*
X157430Y750857D01*
X157396Y750747D01*
X157396Y750739D01*
X157394Y750731D01*
X157400Y750617D01*
X157403Y750501D01*
X157405Y750494D01*
X157406Y750486D01*
X157447Y750379D01*
X157487Y750270D01*
X157492Y750264D01*
X157495Y750257D01*
X157569Y750168D01*
X157641Y750078D01*
X157647Y750074D01*
X157653Y750068D01*
X157750Y750008D01*
X157848Y749945D01*
X157855Y749943D01*
X157862Y749939D01*
X157975Y749913D01*
X158086Y749885D01*
X158094Y749886D01*
X158102Y749884D01*
X158269Y749892D01*
X158477Y749925D01*
X158477Y741523D01*
X150075Y741523D01*
X150108Y741731D01*
X150108Y741739D01*
X150111Y741746D01*
X150108Y741862D01*
X150107Y741977D01*
X150104Y741984D01*
X150104Y741992D01*
X150065Y742100D01*
X150027Y742209D01*
X150022Y742216D01*
X150020Y742223D01*
X149948Y742313D01*
X149878Y742404D01*
X149871Y742409D01*
X149866Y742415D01*
X149769Y742478D01*
X149673Y742542D01*
X149666Y742544D01*
X149659Y742548D01*
X149547Y742576D01*
X149436Y742607D01*
X149428Y742606D01*
X149421Y742608D01*
X149306Y742599D01*
X149191Y742593D01*
X149183Y742590D01*
X149175Y742589D01*
X149070Y742544D01*
X148962Y742501D01*
X148956Y742496D01*
X148949Y742493D01*
X148818Y742388D01*
X136114Y729684D01*
X134774Y728344D01*
X95096Y728344D01*
G37*
%LPD*%
%LPC*%
G36*
X188255Y731229D02*
X188255Y731229D01*
X185032Y732565D01*
X182565Y735032D01*
X181229Y738255D01*
X181229Y741745D01*
X182565Y744968D01*
X185032Y747435D01*
X188255Y748771D01*
X191745Y748771D01*
X194968Y747435D01*
X197435Y744968D01*
X198339Y742786D01*
X198401Y742686D01*
X198461Y742586D01*
X198466Y742582D01*
X198469Y742577D01*
X198560Y742502D01*
X198648Y742426D01*
X198654Y742424D01*
X198659Y742420D01*
X198767Y742378D01*
X198876Y742334D01*
X198884Y742333D01*
X198888Y742332D01*
X198906Y742331D01*
X199043Y742316D01*
X205905Y742316D01*
X205995Y742330D01*
X206086Y742338D01*
X206116Y742350D01*
X206148Y742355D01*
X206229Y742398D01*
X206313Y742434D01*
X206345Y742460D01*
X206365Y742471D01*
X206377Y742482D01*
X206378Y742483D01*
X206390Y742496D01*
X206444Y742539D01*
X227811Y763906D01*
X275818Y763906D01*
X275838Y763909D01*
X275857Y763907D01*
X275959Y763929D01*
X276061Y763945D01*
X276078Y763955D01*
X276098Y763959D01*
X276187Y764012D01*
X276278Y764061D01*
X276292Y764075D01*
X276309Y764085D01*
X276376Y764164D01*
X276448Y764239D01*
X276456Y764257D01*
X276469Y764272D01*
X276508Y764368D01*
X276551Y764462D01*
X276553Y764482D01*
X276561Y764500D01*
X276579Y764667D01*
X276579Y771970D01*
X276565Y772060D01*
X276557Y772151D01*
X276545Y772181D01*
X276540Y772213D01*
X276497Y772294D01*
X276461Y772378D01*
X276435Y772410D01*
X276424Y772430D01*
X276401Y772453D01*
X276356Y772509D01*
X242569Y806296D01*
X242569Y826618D01*
X242566Y826638D01*
X242568Y826657D01*
X242546Y826759D01*
X242530Y826861D01*
X242520Y826878D01*
X242516Y826898D01*
X242463Y826986D01*
X242414Y827078D01*
X242400Y827092D01*
X242390Y827109D01*
X242311Y827176D01*
X242236Y827248D01*
X242218Y827256D01*
X242203Y827269D01*
X242107Y827308D01*
X242013Y827351D01*
X241993Y827353D01*
X241975Y827361D01*
X241808Y827379D01*
X239520Y827379D01*
X238775Y828124D01*
X238775Y831012D01*
X238761Y831102D01*
X238753Y831193D01*
X238741Y831223D01*
X238736Y831255D01*
X238693Y831336D01*
X238657Y831420D01*
X238631Y831452D01*
X238620Y831472D01*
X238597Y831495D01*
X238552Y831551D01*
X238013Y832090D01*
X237678Y832669D01*
X237505Y833316D01*
X237505Y834239D01*
X244346Y834239D01*
X251187Y834239D01*
X251187Y833316D01*
X251014Y832669D01*
X250679Y832090D01*
X250140Y831551D01*
X250087Y831477D01*
X250027Y831407D01*
X250015Y831377D01*
X249996Y831351D01*
X249969Y831264D01*
X249935Y831179D01*
X249931Y831138D01*
X249924Y831116D01*
X249925Y831084D01*
X249917Y831012D01*
X249917Y828124D01*
X249172Y827379D01*
X247142Y827379D01*
X247122Y827376D01*
X247103Y827378D01*
X247001Y827356D01*
X246899Y827340D01*
X246882Y827330D01*
X246862Y827326D01*
X246773Y827273D01*
X246682Y827224D01*
X246668Y827210D01*
X246651Y827200D01*
X246584Y827121D01*
X246512Y827046D01*
X246504Y827028D01*
X246491Y827013D01*
X246452Y826917D01*
X246409Y826823D01*
X246407Y826803D01*
X246399Y826785D01*
X246381Y826618D01*
X246381Y808190D01*
X246395Y808100D01*
X246403Y808009D01*
X246415Y807979D01*
X246420Y807947D01*
X246463Y807866D01*
X246499Y807782D01*
X246525Y807750D01*
X246536Y807730D01*
X246559Y807707D01*
X246604Y807651D01*
X278811Y775444D01*
X278885Y775391D01*
X278955Y775331D01*
X278985Y775319D01*
X279011Y775300D01*
X279098Y775273D01*
X279183Y775239D01*
X279224Y775235D01*
X279246Y775228D01*
X279278Y775229D01*
X279350Y775221D01*
X286379Y775221D01*
X286413Y775196D01*
X286465Y775147D01*
X286512Y775125D01*
X286554Y775095D01*
X286623Y775074D01*
X286688Y775043D01*
X286740Y775038D01*
X286789Y775022D01*
X286861Y775024D01*
X286932Y775016D01*
X286983Y775027D01*
X287035Y775029D01*
X287103Y775053D01*
X287173Y775069D01*
X287218Y775095D01*
X287266Y775113D01*
X287322Y775158D01*
X287384Y775195D01*
X287418Y775234D01*
X287458Y775267D01*
X287497Y775327D01*
X287544Y775382D01*
X287563Y775430D01*
X287591Y775474D01*
X287609Y775543D01*
X287636Y775610D01*
X287644Y775681D01*
X287652Y775712D01*
X287650Y775736D01*
X287654Y775776D01*
X287654Y809790D01*
X287640Y809880D01*
X287632Y809971D01*
X287620Y810001D01*
X287615Y810033D01*
X287572Y810114D01*
X287536Y810198D01*
X287510Y810230D01*
X287499Y810250D01*
X287476Y810273D01*
X287431Y810329D01*
X285618Y812142D01*
X285602Y812153D01*
X285589Y812169D01*
X285528Y812208D01*
X285476Y812253D01*
X285447Y812264D01*
X285418Y812285D01*
X285399Y812291D01*
X285383Y812302D01*
X285307Y812321D01*
X285248Y812345D01*
X285212Y812349D01*
X285183Y812358D01*
X285163Y812357D01*
X285144Y812362D01*
X285114Y812360D01*
X285081Y812363D01*
X285078Y812363D01*
X285018Y812353D01*
X284937Y812351D01*
X284919Y812344D01*
X284899Y812343D01*
X284864Y812328D01*
X284836Y812323D01*
X284778Y812293D01*
X284706Y812267D01*
X284691Y812254D01*
X284672Y812247D01*
X284638Y812219D01*
X284618Y812208D01*
X284597Y812186D01*
X284542Y812142D01*
X284229Y811829D01*
X276671Y811829D01*
X274579Y813921D01*
X274579Y822865D01*
X274565Y822955D01*
X274557Y823046D01*
X274545Y823076D01*
X274540Y823108D01*
X274497Y823189D01*
X274461Y823273D01*
X274435Y823305D01*
X274424Y823325D01*
X274401Y823348D01*
X274356Y823404D01*
X259784Y837976D01*
X259710Y838029D01*
X259640Y838089D01*
X259610Y838101D01*
X259584Y838120D01*
X259497Y838147D01*
X259412Y838181D01*
X259371Y838185D01*
X259349Y838192D01*
X259317Y838191D01*
X259245Y838199D01*
X251773Y838199D01*
X251656Y838180D01*
X251538Y838162D01*
X251534Y838160D01*
X251530Y838160D01*
X251426Y838104D01*
X251319Y838049D01*
X251316Y838046D01*
X251313Y838044D01*
X251232Y837959D01*
X251148Y837873D01*
X251146Y837869D01*
X251143Y837866D01*
X251094Y837759D01*
X251042Y837651D01*
X251042Y837647D01*
X251040Y837643D01*
X251027Y837527D01*
X251012Y837407D01*
X251013Y837402D01*
X251013Y837399D01*
X251016Y837385D01*
X251038Y837241D01*
X251187Y836684D01*
X251187Y835761D01*
X244346Y835761D01*
X237505Y835761D01*
X237505Y836684D01*
X237678Y837331D01*
X238013Y837910D01*
X238552Y838449D01*
X238605Y838523D01*
X238665Y838593D01*
X238677Y838623D01*
X238696Y838649D01*
X238723Y838736D01*
X238757Y838821D01*
X238761Y838862D01*
X238768Y838884D01*
X238767Y838916D01*
X238775Y838988D01*
X238775Y841876D01*
X238861Y841962D01*
X238872Y841978D01*
X238888Y841990D01*
X238944Y842077D01*
X239004Y842161D01*
X239010Y842180D01*
X239021Y842197D01*
X239046Y842298D01*
X239077Y842396D01*
X239076Y842416D01*
X239081Y842436D01*
X239073Y842539D01*
X239070Y842642D01*
X239063Y842661D01*
X239062Y842681D01*
X239021Y842776D01*
X238986Y842873D01*
X238973Y842889D01*
X238965Y842907D01*
X238861Y843038D01*
X238775Y843124D01*
X238775Y846876D01*
X238861Y846962D01*
X238872Y846978D01*
X238888Y846990D01*
X238944Y847077D01*
X239004Y847161D01*
X239010Y847180D01*
X239021Y847197D01*
X239046Y847298D01*
X239077Y847396D01*
X239076Y847416D01*
X239081Y847436D01*
X239073Y847539D01*
X239070Y847642D01*
X239063Y847661D01*
X239062Y847681D01*
X239021Y847776D01*
X238986Y847873D01*
X238973Y847889D01*
X238965Y847907D01*
X238861Y848038D01*
X238775Y848124D01*
X238775Y851876D01*
X239520Y852621D01*
X241698Y852621D01*
X241718Y852624D01*
X241737Y852622D01*
X241839Y852644D01*
X241941Y852660D01*
X241958Y852670D01*
X241978Y852674D01*
X242067Y852727D01*
X242158Y852776D01*
X242172Y852790D01*
X242189Y852800D01*
X242256Y852879D01*
X242328Y852954D01*
X242336Y852972D01*
X242349Y852987D01*
X242388Y853083D01*
X242431Y853177D01*
X242433Y853197D01*
X242441Y853215D01*
X242459Y853382D01*
X242459Y933598D01*
X242456Y933618D01*
X242458Y933637D01*
X242436Y933739D01*
X242420Y933841D01*
X242410Y933858D01*
X242406Y933878D01*
X242353Y933967D01*
X242304Y934058D01*
X242290Y934072D01*
X242280Y934089D01*
X242201Y934156D01*
X242126Y934228D01*
X242108Y934236D01*
X242093Y934249D01*
X241997Y934288D01*
X241903Y934331D01*
X241883Y934333D01*
X241865Y934341D01*
X241698Y934359D01*
X241158Y934359D01*
X238554Y936963D01*
X238554Y940646D01*
X238587Y940680D01*
X238629Y940738D01*
X238679Y940790D01*
X238701Y940837D01*
X238731Y940879D01*
X238752Y940948D01*
X238782Y941013D01*
X238788Y941065D01*
X238803Y941115D01*
X238802Y941186D01*
X238809Y941257D01*
X238798Y941308D01*
X238797Y941360D01*
X238772Y941428D01*
X238757Y941498D01*
X238730Y941543D01*
X238713Y941591D01*
X238668Y941647D01*
X238631Y941709D01*
X238591Y941743D01*
X238559Y941783D01*
X238499Y941822D01*
X238444Y941869D01*
X238396Y941888D01*
X238352Y941916D01*
X238283Y941934D01*
X238216Y941961D01*
X238145Y941969D01*
X238114Y941977D01*
X238090Y941975D01*
X238049Y941979D01*
X233974Y941979D01*
X233788Y942165D01*
X233772Y942176D01*
X233760Y942192D01*
X233672Y942248D01*
X233589Y942308D01*
X233570Y942314D01*
X233553Y942325D01*
X233452Y942350D01*
X233354Y942381D01*
X233334Y942380D01*
X233314Y942385D01*
X233211Y942377D01*
X233108Y942374D01*
X233089Y942367D01*
X233069Y942366D01*
X232974Y942325D01*
X232877Y942290D01*
X232861Y942277D01*
X232843Y942269D01*
X232712Y942165D01*
X232526Y941979D01*
X227474Y941979D01*
X227288Y942165D01*
X227272Y942176D01*
X227260Y942192D01*
X227172Y942248D01*
X227089Y942308D01*
X227070Y942314D01*
X227053Y942325D01*
X226952Y942350D01*
X226854Y942381D01*
X226834Y942380D01*
X226814Y942385D01*
X226711Y942377D01*
X226608Y942374D01*
X226589Y942367D01*
X226569Y942366D01*
X226474Y942325D01*
X226377Y942290D01*
X226361Y942277D01*
X226343Y942269D01*
X226212Y942165D01*
X226026Y941979D01*
X221638Y941979D01*
X221548Y941965D01*
X221457Y941957D01*
X221427Y941945D01*
X221395Y941940D01*
X221314Y941897D01*
X221230Y941861D01*
X221198Y941835D01*
X221178Y941824D01*
X221155Y941801D01*
X221099Y941756D01*
X220560Y941217D01*
X219981Y940882D01*
X219334Y940709D01*
X217999Y940709D01*
X217999Y949762D01*
X217996Y949781D01*
X217998Y949801D01*
X217976Y949903D01*
X217960Y950005D01*
X217959Y950006D01*
X217971Y950033D01*
X217973Y950053D01*
X217981Y950071D01*
X217999Y950238D01*
X217999Y959291D01*
X219334Y959291D01*
X219981Y959118D01*
X220560Y958783D01*
X221099Y958244D01*
X221173Y958191D01*
X221243Y958131D01*
X221273Y958119D01*
X221299Y958100D01*
X221386Y958073D01*
X221471Y958039D01*
X221512Y958035D01*
X221534Y958028D01*
X221566Y958029D01*
X221638Y958021D01*
X226026Y958021D01*
X226212Y957835D01*
X226228Y957824D01*
X226240Y957808D01*
X226328Y957752D01*
X226411Y957692D01*
X226430Y957686D01*
X226447Y957675D01*
X226548Y957650D01*
X226647Y957619D01*
X226667Y957620D01*
X226686Y957615D01*
X226789Y957623D01*
X226892Y957626D01*
X226911Y957633D01*
X226931Y957634D01*
X227026Y957675D01*
X227123Y957710D01*
X227139Y957723D01*
X227157Y957731D01*
X227288Y957835D01*
X227474Y958021D01*
X232526Y958021D01*
X232712Y957835D01*
X232728Y957824D01*
X232740Y957808D01*
X232828Y957752D01*
X232911Y957692D01*
X232930Y957686D01*
X232947Y957675D01*
X233048Y957650D01*
X233147Y957619D01*
X233167Y957620D01*
X233186Y957615D01*
X233289Y957623D01*
X233392Y957626D01*
X233411Y957633D01*
X233431Y957634D01*
X233526Y957675D01*
X233623Y957710D01*
X233639Y957723D01*
X233657Y957731D01*
X233788Y957835D01*
X233974Y958021D01*
X239026Y958021D01*
X239212Y957835D01*
X239228Y957824D01*
X239240Y957808D01*
X239328Y957752D01*
X239411Y957692D01*
X239430Y957686D01*
X239447Y957675D01*
X239548Y957650D01*
X239646Y957619D01*
X239666Y957620D01*
X239686Y957615D01*
X239789Y957623D01*
X239892Y957626D01*
X239911Y957633D01*
X239931Y957634D01*
X240026Y957675D01*
X240123Y957710D01*
X240139Y957723D01*
X240157Y957731D01*
X240288Y957835D01*
X240474Y958021D01*
X245526Y958021D01*
X246271Y957276D01*
X246271Y942690D01*
X246214Y942611D01*
X246209Y942592D01*
X246198Y942575D01*
X246172Y942475D01*
X246142Y942376D01*
X246143Y942356D01*
X246138Y942337D01*
X246146Y942234D01*
X246148Y942130D01*
X246155Y942111D01*
X246157Y942092D01*
X246197Y941997D01*
X246233Y941899D01*
X246245Y941884D01*
X246253Y941865D01*
X246358Y941734D01*
X247199Y940894D01*
X247218Y940880D01*
X247233Y940861D01*
X247318Y940808D01*
X247398Y940750D01*
X247421Y940743D01*
X247442Y940730D01*
X247446Y940729D01*
X247446Y938963D01*
X247461Y938872D01*
X247468Y938782D01*
X247480Y938752D01*
X247485Y938720D01*
X247528Y938639D01*
X247541Y938610D01*
X247541Y937843D01*
X247543Y937827D01*
X247557Y937687D01*
X247703Y936993D01*
X247664Y936934D01*
X247659Y936923D01*
X247651Y936913D01*
X247610Y936810D01*
X247565Y936709D01*
X247564Y936696D01*
X247559Y936685D01*
X247541Y936518D01*
X247541Y853382D01*
X247544Y853362D01*
X247542Y853343D01*
X247564Y853241D01*
X247580Y853139D01*
X247590Y853122D01*
X247594Y853102D01*
X247647Y853013D01*
X247696Y852922D01*
X247710Y852908D01*
X247720Y852891D01*
X247799Y852824D01*
X247874Y852752D01*
X247892Y852744D01*
X247907Y852731D01*
X248003Y852692D01*
X248097Y852649D01*
X248117Y852647D01*
X248135Y852639D01*
X248302Y852621D01*
X249109Y852621D01*
X249199Y852635D01*
X249290Y852643D01*
X249320Y852655D01*
X249352Y852660D01*
X249433Y852703D01*
X249516Y852739D01*
X249549Y852765D01*
X249569Y852776D01*
X249591Y852799D01*
X249647Y852844D01*
X251249Y854446D01*
X254933Y854446D01*
X257537Y851842D01*
X257537Y848158D01*
X254933Y845554D01*
X251250Y845554D01*
X251216Y845587D01*
X251158Y845629D01*
X251106Y845679D01*
X251059Y845701D01*
X251017Y845731D01*
X250948Y845752D01*
X250883Y845782D01*
X250831Y845788D01*
X250781Y845803D01*
X250710Y845802D01*
X250639Y845809D01*
X250588Y845798D01*
X250536Y845797D01*
X250468Y845772D01*
X250398Y845757D01*
X250353Y845730D01*
X250305Y845713D01*
X250249Y845668D01*
X250187Y845631D01*
X250153Y845591D01*
X250113Y845559D01*
X250074Y845499D01*
X250027Y845444D01*
X250008Y845396D01*
X249980Y845352D01*
X249962Y845283D01*
X249935Y845216D01*
X249927Y845145D01*
X249919Y845114D01*
X249921Y845090D01*
X249917Y845049D01*
X249917Y842995D01*
X249908Y842977D01*
X249903Y842925D01*
X249887Y842876D01*
X249889Y842804D01*
X249881Y842733D01*
X249892Y842682D01*
X249894Y842630D01*
X249918Y842562D01*
X249934Y842492D01*
X249960Y842448D01*
X249978Y842399D01*
X250023Y842343D01*
X250060Y842281D01*
X250099Y842247D01*
X250132Y842207D01*
X250192Y842168D01*
X250247Y842121D01*
X250295Y842102D01*
X250339Y842074D01*
X250408Y842056D01*
X250475Y842029D01*
X250546Y842021D01*
X250577Y842013D01*
X250600Y842015D01*
X250642Y842011D01*
X261139Y842011D01*
X275287Y827863D01*
X275303Y827852D01*
X275316Y827836D01*
X275403Y827780D01*
X275487Y827720D01*
X275506Y827714D01*
X275522Y827703D01*
X275623Y827678D01*
X275722Y827647D01*
X275742Y827648D01*
X275761Y827643D01*
X275864Y827651D01*
X275968Y827654D01*
X275986Y827661D01*
X276006Y827662D01*
X276101Y827703D01*
X276199Y827738D01*
X276214Y827751D01*
X276233Y827758D01*
X276363Y827863D01*
X276671Y828171D01*
X284229Y828171D01*
X286321Y826079D01*
X286321Y817145D01*
X286335Y817055D01*
X286343Y816964D01*
X286355Y816934D01*
X286360Y816902D01*
X286403Y816821D01*
X286439Y816737D01*
X286465Y816705D01*
X286476Y816685D01*
X286499Y816662D01*
X286544Y816606D01*
X291466Y811684D01*
X291466Y763751D01*
X287809Y760094D01*
X229705Y760094D01*
X229615Y760080D01*
X229524Y760072D01*
X229494Y760060D01*
X229462Y760055D01*
X229381Y760012D01*
X229297Y759976D01*
X229265Y759950D01*
X229245Y759939D01*
X229222Y759916D01*
X229166Y759871D01*
X219365Y750070D01*
X219324Y750012D01*
X219274Y749960D01*
X219252Y749913D01*
X219222Y749871D01*
X219201Y749802D01*
X219171Y749737D01*
X219165Y749685D01*
X219149Y749635D01*
X219151Y749564D01*
X219143Y749493D01*
X219154Y749442D01*
X219156Y749390D01*
X219180Y749322D01*
X219196Y749252D01*
X219222Y749207D01*
X219240Y749159D01*
X219285Y749103D01*
X219322Y749041D01*
X219361Y749007D01*
X219394Y748967D01*
X219454Y748928D01*
X219509Y748881D01*
X219557Y748862D01*
X219601Y748834D01*
X219670Y748816D01*
X219737Y748789D01*
X219808Y748781D01*
X219839Y748773D01*
X219863Y748775D01*
X219904Y748771D01*
X221745Y748771D01*
X224968Y747435D01*
X227435Y744968D01*
X228771Y741745D01*
X228771Y738255D01*
X227435Y735032D01*
X224968Y732565D01*
X221745Y731229D01*
X218255Y731229D01*
X215032Y732565D01*
X212565Y735032D01*
X211229Y738255D01*
X211229Y740096D01*
X211218Y740167D01*
X211216Y740239D01*
X211198Y740288D01*
X211190Y740339D01*
X211156Y740402D01*
X211131Y740470D01*
X211099Y740510D01*
X211074Y740556D01*
X211022Y740606D01*
X210978Y740662D01*
X210934Y740690D01*
X210896Y740726D01*
X210831Y740756D01*
X210771Y740795D01*
X210720Y740808D01*
X210673Y740829D01*
X210602Y740837D01*
X210532Y740855D01*
X210480Y740851D01*
X210429Y740857D01*
X210358Y740841D01*
X210287Y740836D01*
X210239Y740815D01*
X210188Y740804D01*
X210127Y740768D01*
X210061Y740739D01*
X210005Y740695D01*
X209977Y740678D01*
X209962Y740660D01*
X209930Y740635D01*
X207799Y738504D01*
X199382Y738504D01*
X199268Y738485D01*
X199152Y738468D01*
X199146Y738466D01*
X199140Y738465D01*
X199037Y738410D01*
X198932Y738357D01*
X198928Y738352D01*
X198922Y738349D01*
X198842Y738265D01*
X198760Y738181D01*
X198756Y738175D01*
X198753Y738171D01*
X198745Y738154D01*
X198679Y738034D01*
X197435Y735032D01*
X194968Y732565D01*
X191745Y731229D01*
X188255Y731229D01*
G37*
%LPD*%
G36*
X167192Y783519D02*
X167192Y783519D01*
X167263Y783524D01*
X167311Y783545D01*
X167362Y783556D01*
X167423Y783593D01*
X167489Y783621D01*
X167545Y783665D01*
X167573Y783682D01*
X167588Y783700D01*
X167620Y783725D01*
X194086Y810191D01*
X194139Y810265D01*
X194199Y810335D01*
X194211Y810365D01*
X194230Y810391D01*
X194257Y810478D01*
X194291Y810563D01*
X194295Y810604D01*
X194302Y810626D01*
X194301Y810658D01*
X194309Y810730D01*
X194309Y819939D01*
X195649Y821279D01*
X209860Y835490D01*
X209913Y835564D01*
X209973Y835634D01*
X209985Y835664D01*
X210004Y835690D01*
X210031Y835777D01*
X210065Y835862D01*
X210069Y835903D01*
X210076Y835925D01*
X210075Y835957D01*
X210083Y836029D01*
X210083Y836803D01*
X210080Y836823D01*
X210082Y836842D01*
X210060Y836944D01*
X210044Y837046D01*
X210034Y837063D01*
X210030Y837083D01*
X209977Y837172D01*
X209928Y837263D01*
X209914Y837277D01*
X209904Y837294D01*
X209825Y837361D01*
X209750Y837433D01*
X209732Y837441D01*
X209717Y837454D01*
X209621Y837493D01*
X209527Y837536D01*
X209507Y837538D01*
X209489Y837546D01*
X209322Y837564D01*
X180810Y837564D01*
X180720Y837550D01*
X180629Y837542D01*
X180599Y837530D01*
X180567Y837525D01*
X180486Y837482D01*
X180402Y837446D01*
X180370Y837420D01*
X180350Y837409D01*
X180327Y837386D01*
X180271Y837341D01*
X166544Y823614D01*
X166491Y823540D01*
X166431Y823470D01*
X166419Y823440D01*
X166400Y823414D01*
X166373Y823327D01*
X166339Y823242D01*
X166335Y823201D01*
X166328Y823179D01*
X166329Y823147D01*
X166321Y823075D01*
X166321Y813921D01*
X164229Y811829D01*
X163322Y811829D01*
X163302Y811826D01*
X163283Y811828D01*
X163181Y811806D01*
X163079Y811790D01*
X163062Y811780D01*
X163042Y811776D01*
X162953Y811723D01*
X162862Y811674D01*
X162848Y811660D01*
X162831Y811650D01*
X162764Y811571D01*
X162692Y811496D01*
X162684Y811478D01*
X162671Y811463D01*
X162632Y811367D01*
X162589Y811273D01*
X162587Y811253D01*
X162579Y811235D01*
X162561Y811068D01*
X162561Y788932D01*
X162564Y788912D01*
X162562Y788893D01*
X162584Y788791D01*
X162600Y788689D01*
X162610Y788672D01*
X162614Y788652D01*
X162667Y788563D01*
X162716Y788472D01*
X162730Y788458D01*
X162740Y788441D01*
X162819Y788374D01*
X162894Y788302D01*
X162912Y788294D01*
X162927Y788281D01*
X163023Y788242D01*
X163117Y788199D01*
X163137Y788197D01*
X163155Y788189D01*
X163322Y788171D01*
X164229Y788171D01*
X166321Y786079D01*
X166321Y784264D01*
X166332Y784193D01*
X166334Y784121D01*
X166352Y784072D01*
X166360Y784021D01*
X166394Y783958D01*
X166419Y783890D01*
X166451Y783850D01*
X166476Y783804D01*
X166528Y783754D01*
X166572Y783698D01*
X166616Y783670D01*
X166654Y783634D01*
X166719Y783604D01*
X166779Y783565D01*
X166830Y783552D01*
X166877Y783531D01*
X166948Y783523D01*
X167018Y783505D01*
X167070Y783509D01*
X167121Y783503D01*
X167192Y783519D01*
G37*
%LPC*%
G36*
X345771Y761829D02*
X345771Y761829D01*
X343679Y763921D01*
X343679Y776079D01*
X345771Y778171D01*
X349198Y778171D01*
X349218Y778174D01*
X349237Y778172D01*
X349339Y778194D01*
X349441Y778210D01*
X349458Y778220D01*
X349478Y778224D01*
X349567Y778277D01*
X349658Y778326D01*
X349672Y778340D01*
X349689Y778350D01*
X349756Y778429D01*
X349828Y778504D01*
X349836Y778522D01*
X349849Y778537D01*
X349888Y778633D01*
X349931Y778727D01*
X349933Y778747D01*
X349941Y778765D01*
X349959Y778932D01*
X349959Y788632D01*
X349945Y788722D01*
X349937Y788813D01*
X349925Y788843D01*
X349920Y788875D01*
X349877Y788956D01*
X349841Y789040D01*
X349815Y789072D01*
X349804Y789092D01*
X349781Y789115D01*
X349736Y789171D01*
X286938Y851969D01*
X286921Y851981D01*
X286909Y851996D01*
X286822Y852052D01*
X286738Y852113D01*
X286719Y852119D01*
X286702Y852129D01*
X286602Y852155D01*
X286503Y852185D01*
X286483Y852185D01*
X286464Y852189D01*
X286361Y852181D01*
X286257Y852179D01*
X286238Y852172D01*
X286218Y852170D01*
X286123Y852130D01*
X286026Y852094D01*
X286010Y852082D01*
X285992Y852074D01*
X285861Y851969D01*
X285521Y851629D01*
X276579Y851629D01*
X274379Y853829D01*
X274379Y856698D01*
X274376Y856718D01*
X274378Y856737D01*
X274356Y856839D01*
X274340Y856941D01*
X274330Y856958D01*
X274326Y856978D01*
X274273Y857067D01*
X274224Y857158D01*
X274210Y857172D01*
X274200Y857189D01*
X274121Y857256D01*
X274046Y857328D01*
X274028Y857336D01*
X274013Y857349D01*
X273917Y857388D01*
X273823Y857431D01*
X273803Y857433D01*
X273785Y857441D01*
X273618Y857459D01*
X273567Y857459D01*
X273477Y857445D01*
X273386Y857437D01*
X273356Y857425D01*
X273324Y857420D01*
X273243Y857377D01*
X273160Y857341D01*
X273127Y857315D01*
X273107Y857304D01*
X273085Y857281D01*
X273029Y857236D01*
X271347Y855554D01*
X267663Y855554D01*
X265059Y858158D01*
X265059Y861842D01*
X267663Y864446D01*
X271347Y864446D01*
X273029Y862764D01*
X273102Y862711D01*
X273172Y862651D01*
X273202Y862639D01*
X273228Y862620D01*
X273315Y862593D01*
X273400Y862559D01*
X273441Y862555D01*
X273463Y862548D01*
X273496Y862549D01*
X273567Y862541D01*
X273618Y862541D01*
X273638Y862544D01*
X273657Y862542D01*
X273759Y862564D01*
X273861Y862580D01*
X273878Y862590D01*
X273898Y862594D01*
X273987Y862647D01*
X274078Y862696D01*
X274092Y862710D01*
X274109Y862720D01*
X274176Y862799D01*
X274248Y862874D01*
X274256Y862892D01*
X274269Y862907D01*
X274308Y863003D01*
X274351Y863097D01*
X274353Y863117D01*
X274361Y863135D01*
X274379Y863302D01*
X274379Y866171D01*
X276579Y868371D01*
X285521Y868371D01*
X287721Y866171D01*
X287721Y858688D01*
X287736Y858597D01*
X287743Y858507D01*
X287755Y858477D01*
X287760Y858445D01*
X287803Y858364D01*
X287839Y858280D01*
X287865Y858248D01*
X287876Y858228D01*
X287899Y858205D01*
X287944Y858149D01*
X289710Y856383D01*
X289768Y856342D01*
X289820Y856292D01*
X289867Y856270D01*
X289909Y856240D01*
X289978Y856219D01*
X290043Y856189D01*
X290095Y856183D01*
X290145Y856167D01*
X290216Y856169D01*
X290287Y856161D01*
X290338Y856173D01*
X290390Y856174D01*
X290458Y856198D01*
X290528Y856214D01*
X290572Y856240D01*
X290621Y856258D01*
X290677Y856303D01*
X290739Y856340D01*
X290773Y856379D01*
X290813Y856412D01*
X290852Y856472D01*
X290899Y856527D01*
X290918Y856575D01*
X290946Y856619D01*
X290964Y856688D01*
X290991Y856755D01*
X290999Y856826D01*
X291007Y856857D01*
X291005Y856881D01*
X291009Y856922D01*
X291009Y858477D01*
X297427Y858477D01*
X297427Y850345D01*
X297380Y850328D01*
X297329Y850320D01*
X297266Y850286D01*
X297198Y850261D01*
X297158Y850229D01*
X297112Y850204D01*
X297062Y850152D01*
X297006Y850108D01*
X296978Y850064D01*
X296942Y850026D01*
X296912Y849961D01*
X296873Y849901D01*
X296860Y849850D01*
X296839Y849803D01*
X296831Y849732D01*
X296813Y849662D01*
X296817Y849610D01*
X296811Y849559D01*
X296827Y849488D01*
X296832Y849417D01*
X296853Y849369D01*
X296864Y849318D01*
X296901Y849257D01*
X296929Y849191D01*
X296973Y849135D01*
X296990Y849107D01*
X297008Y849092D01*
X297033Y849060D01*
X353329Y792764D01*
X355041Y791052D01*
X355041Y776774D01*
X355055Y776684D01*
X355063Y776593D01*
X355075Y776564D01*
X355080Y776532D01*
X355123Y776451D01*
X355159Y776367D01*
X355185Y776335D01*
X355196Y776314D01*
X355219Y776292D01*
X355264Y776236D01*
X355421Y776079D01*
X355421Y773302D01*
X355424Y773282D01*
X355422Y773263D01*
X355444Y773161D01*
X355460Y773059D01*
X355470Y773042D01*
X355474Y773022D01*
X355527Y772933D01*
X355576Y772842D01*
X355590Y772828D01*
X355600Y772811D01*
X355679Y772744D01*
X355754Y772672D01*
X355772Y772664D01*
X355787Y772651D01*
X355883Y772612D01*
X355977Y772569D01*
X355997Y772567D01*
X356015Y772559D01*
X356182Y772541D01*
X361833Y772541D01*
X361923Y772555D01*
X362014Y772563D01*
X362044Y772575D01*
X362076Y772580D01*
X362157Y772623D01*
X362241Y772659D01*
X362273Y772685D01*
X362293Y772696D01*
X362315Y772719D01*
X362371Y772764D01*
X364053Y774446D01*
X367737Y774446D01*
X370341Y771842D01*
X370341Y768158D01*
X367737Y765554D01*
X364053Y765554D01*
X362371Y767236D01*
X362297Y767289D01*
X362228Y767349D01*
X362198Y767361D01*
X362172Y767380D01*
X362085Y767407D01*
X362000Y767441D01*
X361959Y767445D01*
X361937Y767452D01*
X361904Y767451D01*
X361833Y767459D01*
X356182Y767459D01*
X356162Y767456D01*
X356143Y767458D01*
X356041Y767436D01*
X355939Y767420D01*
X355922Y767410D01*
X355902Y767406D01*
X355813Y767353D01*
X355722Y767304D01*
X355708Y767290D01*
X355691Y767280D01*
X355624Y767201D01*
X355552Y767126D01*
X355544Y767108D01*
X355531Y767093D01*
X355492Y766997D01*
X355449Y766903D01*
X355447Y766883D01*
X355439Y766865D01*
X355421Y766698D01*
X355421Y763921D01*
X353329Y761829D01*
X345771Y761829D01*
G37*
%LPD*%
%LPC*%
G36*
X46419Y881999D02*
X46419Y881999D01*
X39803Y884740D01*
X34740Y889803D01*
X31999Y896419D01*
X31999Y903581D01*
X34740Y910197D01*
X39803Y915260D01*
X46419Y918001D01*
X53581Y918001D01*
X60197Y915260D01*
X65260Y910197D01*
X68001Y903581D01*
X68001Y896419D01*
X65260Y889803D01*
X60197Y884740D01*
X53581Y881999D01*
X46419Y881999D01*
G37*
%LPD*%
%LPC*%
G36*
X46419Y951999D02*
X46419Y951999D01*
X39803Y954740D01*
X34740Y959803D01*
X31999Y966419D01*
X31999Y973581D01*
X34740Y980197D01*
X39803Y985260D01*
X46419Y988001D01*
X53581Y988001D01*
X60197Y985260D01*
X65260Y980197D01*
X68001Y973581D01*
X68001Y966419D01*
X65260Y959803D01*
X60197Y954740D01*
X53581Y951999D01*
X46419Y951999D01*
G37*
%LPD*%
%LPC*%
G36*
X304702Y916030D02*
X304702Y916030D01*
X298817Y920092D01*
X295493Y926424D01*
X295493Y933576D01*
X298817Y939908D01*
X304702Y943970D01*
X311801Y944832D01*
X318487Y942296D01*
X323229Y936943D01*
X324941Y930000D01*
X323229Y923057D01*
X318487Y917704D01*
X311801Y915168D01*
X304702Y916030D01*
G37*
%LPD*%
%LPC*%
G36*
X304702Y956030D02*
X304702Y956030D01*
X298817Y960092D01*
X295493Y966424D01*
X295493Y973576D01*
X298817Y979908D01*
X304702Y983970D01*
X311801Y984832D01*
X318487Y982296D01*
X323229Y976943D01*
X324941Y970000D01*
X323229Y963057D01*
X318487Y957704D01*
X311801Y955168D01*
X304702Y956030D01*
G37*
%LPD*%
%LPC*%
G36*
X344702Y916030D02*
X344702Y916030D01*
X338817Y920092D01*
X335493Y926424D01*
X335493Y933576D01*
X338817Y939908D01*
X344702Y943970D01*
X351801Y944832D01*
X358487Y942296D01*
X363229Y936943D01*
X364941Y930000D01*
X363229Y923057D01*
X358487Y917704D01*
X351801Y915168D01*
X344702Y916030D01*
G37*
%LPD*%
%LPC*%
G36*
X344702Y956030D02*
X344702Y956030D01*
X338817Y960092D01*
X335493Y966424D01*
X335493Y973576D01*
X338817Y979908D01*
X344702Y983970D01*
X351801Y984832D01*
X358487Y982296D01*
X363229Y976943D01*
X364941Y970000D01*
X363229Y963057D01*
X358487Y957704D01*
X351801Y955168D01*
X344702Y956030D01*
G37*
%LPD*%
%LPC*%
G36*
X326671Y761829D02*
X326671Y761829D01*
X324579Y763921D01*
X324579Y766953D01*
X324576Y766973D01*
X324578Y766992D01*
X324556Y767094D01*
X324540Y767196D01*
X324530Y767213D01*
X324526Y767233D01*
X324473Y767322D01*
X324424Y767413D01*
X324410Y767427D01*
X324400Y767444D01*
X324321Y767511D01*
X324246Y767583D01*
X324228Y767591D01*
X324213Y767604D01*
X324117Y767643D01*
X324023Y767686D01*
X324003Y767688D01*
X323985Y767696D01*
X323818Y767714D01*
X310182Y767714D01*
X310162Y767711D01*
X310143Y767713D01*
X310041Y767691D01*
X309939Y767675D01*
X309922Y767665D01*
X309902Y767661D01*
X309813Y767608D01*
X309722Y767559D01*
X309708Y767545D01*
X309691Y767535D01*
X309624Y767456D01*
X309552Y767381D01*
X309544Y767363D01*
X309531Y767348D01*
X309492Y767252D01*
X309449Y767158D01*
X309447Y767138D01*
X309439Y767120D01*
X309421Y766953D01*
X309421Y764928D01*
X307272Y762779D01*
X299628Y762779D01*
X297479Y764928D01*
X297479Y773072D01*
X299628Y775221D01*
X307272Y775221D01*
X309421Y773072D01*
X309421Y772287D01*
X309424Y772267D01*
X309422Y772248D01*
X309444Y772146D01*
X309460Y772044D01*
X309470Y772027D01*
X309474Y772007D01*
X309527Y771918D01*
X309576Y771827D01*
X309590Y771813D01*
X309600Y771796D01*
X309679Y771729D01*
X309754Y771657D01*
X309772Y771649D01*
X309787Y771636D01*
X309883Y771597D01*
X309977Y771554D01*
X309997Y771552D01*
X310015Y771544D01*
X310182Y771526D01*
X323818Y771526D01*
X323838Y771529D01*
X323857Y771527D01*
X323959Y771549D01*
X324061Y771565D01*
X324078Y771575D01*
X324098Y771579D01*
X324187Y771632D01*
X324278Y771681D01*
X324292Y771695D01*
X324309Y771705D01*
X324376Y771784D01*
X324448Y771859D01*
X324456Y771877D01*
X324469Y771892D01*
X324508Y771988D01*
X324551Y772082D01*
X324553Y772102D01*
X324561Y772120D01*
X324579Y772287D01*
X324579Y776079D01*
X326671Y778171D01*
X334229Y778171D01*
X336321Y776079D01*
X336321Y763921D01*
X334229Y761829D01*
X326671Y761829D01*
G37*
%LPD*%
%LPC*%
G36*
X324059Y940229D02*
X324059Y940229D01*
X320229Y944059D01*
X320229Y955941D01*
X324059Y959771D01*
X335941Y959771D01*
X339771Y955941D01*
X339771Y944059D01*
X335941Y940229D01*
X324059Y940229D01*
G37*
%LPD*%
%LPC*%
G36*
X200523Y940709D02*
X200523Y940709D01*
X200523Y950488D01*
X200520Y950508D01*
X200522Y950527D01*
X200500Y950629D01*
X200483Y950731D01*
X200474Y950748D01*
X200470Y950768D01*
X200417Y950857D01*
X200368Y950948D01*
X200354Y950962D01*
X200344Y950979D01*
X200265Y951046D01*
X200190Y951117D01*
X200172Y951126D01*
X200157Y951139D01*
X200061Y951178D01*
X199967Y951221D01*
X199947Y951223D01*
X199929Y951231D01*
X199762Y951249D01*
X198999Y951249D01*
X198999Y951251D01*
X199762Y951251D01*
X199782Y951254D01*
X199801Y951252D01*
X199903Y951274D01*
X200005Y951291D01*
X200022Y951300D01*
X200042Y951304D01*
X200131Y951357D01*
X200222Y951406D01*
X200236Y951420D01*
X200253Y951430D01*
X200320Y951509D01*
X200391Y951584D01*
X200400Y951602D01*
X200413Y951617D01*
X200452Y951713D01*
X200495Y951807D01*
X200497Y951827D01*
X200505Y951845D01*
X200523Y952012D01*
X200523Y961791D01*
X209834Y961791D01*
X210481Y961618D01*
X211060Y961283D01*
X211533Y960810D01*
X211868Y960231D01*
X212041Y959584D01*
X212041Y959222D01*
X212052Y959151D01*
X212054Y959079D01*
X212072Y959030D01*
X212080Y958979D01*
X212114Y958916D01*
X212139Y958848D01*
X212171Y958808D01*
X212196Y958762D01*
X212248Y958712D01*
X212292Y958656D01*
X212336Y958628D01*
X212374Y958592D01*
X212439Y958562D01*
X212499Y958523D01*
X212550Y958510D01*
X212597Y958489D01*
X212668Y958481D01*
X212738Y958463D01*
X212790Y958467D01*
X212841Y958461D01*
X212912Y958477D01*
X212983Y958482D01*
X213031Y958503D01*
X213082Y958514D01*
X213143Y958551D01*
X213209Y958579D01*
X213265Y958623D01*
X213293Y958640D01*
X213308Y958658D01*
X213340Y958683D01*
X213440Y958783D01*
X214019Y959118D01*
X214666Y959291D01*
X216001Y959291D01*
X216001Y950238D01*
X216004Y950219D01*
X216002Y950199D01*
X216024Y950097D01*
X216040Y949995D01*
X216041Y949994D01*
X216029Y949967D01*
X216027Y949947D01*
X216019Y949929D01*
X216001Y949762D01*
X216001Y940709D01*
X214666Y940709D01*
X214019Y940882D01*
X213440Y941217D01*
X212967Y941690D01*
X212909Y941790D01*
X212849Y941864D01*
X212794Y941942D01*
X212771Y941958D01*
X212754Y941980D01*
X212673Y942031D01*
X212596Y942087D01*
X212569Y942096D01*
X212545Y942111D01*
X212453Y942133D01*
X212362Y942162D01*
X212333Y942162D01*
X212306Y942168D01*
X212211Y942160D01*
X212116Y942159D01*
X212089Y942149D01*
X212061Y942147D01*
X211974Y942108D01*
X211884Y942077D01*
X211862Y942059D01*
X211836Y942048D01*
X211765Y941984D01*
X211690Y941925D01*
X211669Y941896D01*
X211654Y941882D01*
X211638Y941854D01*
X211591Y941790D01*
X211533Y941690D01*
X211060Y941217D01*
X210481Y940882D01*
X209834Y940709D01*
X200523Y940709D01*
G37*
%LPD*%
G36*
X335095Y941514D02*
X335095Y941514D01*
X335191Y941519D01*
X335234Y941534D01*
X335279Y941541D01*
X335367Y941580D01*
X335458Y941612D01*
X335492Y941637D01*
X335536Y941657D01*
X335634Y941740D01*
X335707Y941793D01*
X338207Y944293D01*
X338264Y944370D01*
X338329Y944442D01*
X338349Y944483D01*
X338376Y944519D01*
X338410Y944609D01*
X338452Y944695D01*
X338458Y944737D01*
X338475Y944783D01*
X338485Y944911D01*
X338499Y945000D01*
X338499Y955000D01*
X338486Y955095D01*
X338481Y955191D01*
X338466Y955234D01*
X338459Y955279D01*
X338420Y955367D01*
X338388Y955458D01*
X338363Y955492D01*
X338343Y955536D01*
X338260Y955634D01*
X338207Y955707D01*
X335707Y958207D01*
X335630Y958264D01*
X335558Y958329D01*
X335517Y958349D01*
X335481Y958376D01*
X335391Y958410D01*
X335305Y958452D01*
X335263Y958458D01*
X335217Y958475D01*
X335090Y958485D01*
X335000Y958499D01*
X325000Y958499D01*
X324905Y958486D01*
X324809Y958481D01*
X324766Y958466D01*
X324721Y958459D01*
X324633Y958420D01*
X324542Y958388D01*
X324508Y958363D01*
X324464Y958343D01*
X324367Y958260D01*
X324293Y958207D01*
X321793Y955707D01*
X321736Y955630D01*
X321671Y955558D01*
X321651Y955517D01*
X321624Y955481D01*
X321590Y955391D01*
X321548Y955305D01*
X321542Y955263D01*
X321525Y955217D01*
X321515Y955090D01*
X321501Y955000D01*
X321501Y945000D01*
X321514Y944905D01*
X321519Y944809D01*
X321534Y944766D01*
X321541Y944721D01*
X321580Y944633D01*
X321612Y944542D01*
X321637Y944508D01*
X321657Y944464D01*
X321740Y944367D01*
X321793Y944293D01*
X324293Y941793D01*
X324370Y941736D01*
X324442Y941671D01*
X324483Y941651D01*
X324519Y941624D01*
X324609Y941590D01*
X324695Y941548D01*
X324737Y941542D01*
X324783Y941525D01*
X324911Y941515D01*
X325000Y941501D01*
X335000Y941501D01*
X335095Y941514D01*
G37*
%LPC*%
G36*
X248255Y731229D02*
X248255Y731229D01*
X245032Y732565D01*
X242565Y735032D01*
X241229Y738255D01*
X241229Y741745D01*
X242565Y744968D01*
X245032Y747435D01*
X248255Y748771D01*
X251745Y748771D01*
X254968Y747435D01*
X257435Y744968D01*
X258771Y741745D01*
X258771Y738255D01*
X257435Y735032D01*
X254968Y732565D01*
X251745Y731229D01*
X248255Y731229D01*
G37*
%LPD*%
%LPC*%
G36*
X123474Y908729D02*
X123474Y908729D01*
X122729Y909474D01*
X122729Y920526D01*
X123474Y921271D01*
X140526Y921271D01*
X141271Y920526D01*
X141271Y909474D01*
X140526Y908729D01*
X123474Y908729D01*
G37*
%LPD*%
%LPC*%
G36*
X219523Y978273D02*
X219523Y978273D01*
X219523Y988791D01*
X227834Y988791D01*
X228481Y988618D01*
X229060Y988283D01*
X229462Y987881D01*
X229478Y987870D01*
X229490Y987854D01*
X229577Y987798D01*
X229661Y987738D01*
X229680Y987732D01*
X229697Y987721D01*
X229798Y987696D01*
X229896Y987666D01*
X229916Y987666D01*
X229936Y987661D01*
X230039Y987669D01*
X230142Y987672D01*
X230161Y987679D01*
X230181Y987680D01*
X230276Y987721D01*
X230373Y987756D01*
X230389Y987769D01*
X230407Y987777D01*
X230538Y987881D01*
X230940Y988283D01*
X231519Y988618D01*
X232166Y988791D01*
X240477Y988791D01*
X240477Y978273D01*
X219523Y978273D01*
G37*
%LPD*%
%LPC*%
G36*
X219523Y964709D02*
X219523Y964709D01*
X219523Y975227D01*
X240477Y975227D01*
X240477Y964709D01*
X232166Y964709D01*
X231519Y964882D01*
X230940Y965217D01*
X230538Y965619D01*
X230522Y965630D01*
X230510Y965646D01*
X230423Y965702D01*
X230339Y965762D01*
X230320Y965768D01*
X230303Y965779D01*
X230202Y965804D01*
X230103Y965834D01*
X230083Y965834D01*
X230064Y965839D01*
X229961Y965831D01*
X229858Y965828D01*
X229839Y965821D01*
X229819Y965820D01*
X229724Y965779D01*
X229627Y965744D01*
X229611Y965731D01*
X229593Y965723D01*
X229462Y965619D01*
X229060Y965217D01*
X228481Y964882D01*
X227834Y964709D01*
X219523Y964709D01*
G37*
%LPD*%
%LPC*%
G36*
X243523Y978273D02*
X243523Y978273D01*
X243523Y988791D01*
X251834Y988791D01*
X252481Y988618D01*
X253060Y988283D01*
X253533Y987810D01*
X253868Y987231D01*
X254041Y986584D01*
X254041Y978273D01*
X243523Y978273D01*
G37*
%LPD*%
%LPC*%
G36*
X243523Y964709D02*
X243523Y964709D01*
X243523Y975227D01*
X254041Y975227D01*
X254041Y966915D01*
X253868Y966269D01*
X253533Y965690D01*
X253060Y965217D01*
X252481Y964882D01*
X251834Y964709D01*
X243523Y964709D01*
G37*
%LPD*%
%LPC*%
G36*
X205959Y978273D02*
X205959Y978273D01*
X205959Y986584D01*
X206132Y987231D01*
X206467Y987810D01*
X206940Y988283D01*
X207519Y988618D01*
X208166Y988791D01*
X216477Y988791D01*
X216477Y978273D01*
X205959Y978273D01*
G37*
%LPD*%
%LPC*%
G36*
X208166Y964709D02*
X208166Y964709D01*
X207519Y964882D01*
X206940Y965217D01*
X206467Y965690D01*
X206132Y966269D01*
X205959Y966915D01*
X205959Y975227D01*
X216477Y975227D01*
X216477Y964709D01*
X208166Y964709D01*
G37*
%LPD*%
%LPC*%
G36*
X193523Y978273D02*
X193523Y978273D01*
X193523Y988791D01*
X201334Y988791D01*
X201981Y988618D01*
X202560Y988283D01*
X203033Y987810D01*
X203368Y987231D01*
X203541Y986584D01*
X203541Y978273D01*
X193523Y978273D01*
G37*
%LPD*%
%LPC*%
G36*
X269523Y978273D02*
X269523Y978273D01*
X269523Y988791D01*
X277334Y988791D01*
X277981Y988618D01*
X278560Y988283D01*
X279033Y987810D01*
X279368Y987231D01*
X279541Y986584D01*
X279541Y978273D01*
X269523Y978273D01*
G37*
%LPD*%
%LPC*%
G36*
X180459Y978273D02*
X180459Y978273D01*
X180459Y986584D01*
X180632Y987231D01*
X180967Y987810D01*
X181440Y988283D01*
X182019Y988618D01*
X182666Y988791D01*
X190477Y988791D01*
X190477Y978273D01*
X180459Y978273D01*
G37*
%LPD*%
%LPC*%
G36*
X256459Y978273D02*
X256459Y978273D01*
X256459Y986584D01*
X256632Y987231D01*
X256967Y987810D01*
X257440Y988283D01*
X258019Y988618D01*
X258666Y988791D01*
X266477Y988791D01*
X266477Y978273D01*
X256459Y978273D01*
G37*
%LPD*%
%LPC*%
G36*
X193523Y964709D02*
X193523Y964709D01*
X193523Y975227D01*
X203541Y975227D01*
X203541Y966915D01*
X203368Y966269D01*
X203033Y965690D01*
X202560Y965217D01*
X201981Y964882D01*
X201334Y964709D01*
X193523Y964709D01*
G37*
%LPD*%
%LPC*%
G36*
X269523Y964709D02*
X269523Y964709D01*
X269523Y975227D01*
X279541Y975227D01*
X279541Y966915D01*
X279368Y966269D01*
X279033Y965690D01*
X278560Y965217D01*
X277981Y964882D01*
X277334Y964709D01*
X269523Y964709D01*
G37*
%LPD*%
%LPC*%
G36*
X258666Y964709D02*
X258666Y964709D01*
X258019Y964882D01*
X257440Y965217D01*
X256967Y965690D01*
X256632Y966269D01*
X256459Y966915D01*
X256459Y975227D01*
X266477Y975227D01*
X266477Y964709D01*
X258666Y964709D01*
G37*
%LPD*%
%LPC*%
G36*
X182666Y964709D02*
X182666Y964709D01*
X182019Y964882D01*
X181440Y965217D01*
X180967Y965690D01*
X180632Y966269D01*
X180459Y966915D01*
X180459Y975227D01*
X190477Y975227D01*
X190477Y964709D01*
X182666Y964709D01*
G37*
%LPD*%
%LPC*%
G36*
X250166Y940709D02*
X250166Y940709D01*
X249519Y940882D01*
X248940Y941217D01*
X248745Y941412D01*
X248687Y941453D01*
X248635Y941503D01*
X248588Y941525D01*
X248546Y941555D01*
X248479Y941576D01*
X248476Y941613D01*
X248467Y941635D01*
X248464Y941659D01*
X248396Y941813D01*
X248132Y942269D01*
X247959Y942916D01*
X247959Y949727D01*
X259477Y949727D01*
X259477Y940709D01*
X250166Y940709D01*
G37*
%LPD*%
%LPC*%
G36*
X262523Y952773D02*
X262523Y952773D01*
X262523Y961791D01*
X271834Y961791D01*
X272481Y961618D01*
X273060Y961283D01*
X273533Y960810D01*
X273868Y960231D01*
X274041Y959584D01*
X274041Y952773D01*
X262523Y952773D01*
G37*
%LPD*%
%LPC*%
G36*
X185959Y952773D02*
X185959Y952773D01*
X185959Y959584D01*
X186132Y960231D01*
X186467Y960810D01*
X186940Y961283D01*
X187519Y961618D01*
X188166Y961791D01*
X197477Y961791D01*
X197477Y952773D01*
X185959Y952773D01*
G37*
%LPD*%
%LPC*%
G36*
X247959Y952773D02*
X247959Y952773D01*
X247959Y959584D01*
X248132Y960231D01*
X248467Y960810D01*
X248940Y961283D01*
X249519Y961618D01*
X250166Y961791D01*
X259477Y961791D01*
X259477Y952773D01*
X247959Y952773D01*
G37*
%LPD*%
%LPC*%
G36*
X262523Y940709D02*
X262523Y940709D01*
X262523Y949727D01*
X274041Y949727D01*
X274041Y942916D01*
X273868Y942269D01*
X273533Y941690D01*
X273060Y941217D01*
X272481Y940882D01*
X271834Y940709D01*
X262523Y940709D01*
G37*
%LPD*%
%LPC*%
G36*
X188166Y940709D02*
X188166Y940709D01*
X187519Y940882D01*
X186940Y941217D01*
X186467Y941690D01*
X186132Y942269D01*
X185959Y942916D01*
X185959Y949727D01*
X197477Y949727D01*
X197477Y940709D01*
X188166Y940709D01*
G37*
%LPD*%
%LPC*%
G36*
X39023Y837523D02*
X39023Y837523D01*
X39023Y847541D01*
X45334Y847541D01*
X45981Y847368D01*
X46560Y847033D01*
X47033Y846560D01*
X47368Y845981D01*
X47541Y845334D01*
X47541Y837523D01*
X39023Y837523D01*
G37*
%LPD*%
%LPC*%
G36*
X39023Y824459D02*
X39023Y824459D01*
X39023Y834477D01*
X47541Y834477D01*
X47541Y826666D01*
X47368Y826019D01*
X47033Y825440D01*
X46560Y824967D01*
X45981Y824632D01*
X45334Y824459D01*
X39023Y824459D01*
G37*
%LPD*%
%LPC*%
G36*
X27459Y837523D02*
X27459Y837523D01*
X27459Y845334D01*
X27632Y845981D01*
X27967Y846560D01*
X28440Y847033D01*
X29019Y847368D01*
X29666Y847541D01*
X35977Y847541D01*
X35977Y837523D01*
X27459Y837523D01*
G37*
%LPD*%
%LPC*%
G36*
X29666Y824459D02*
X29666Y824459D01*
X29019Y824632D01*
X28440Y824967D01*
X27967Y825440D01*
X27632Y826019D01*
X27459Y826666D01*
X27459Y834477D01*
X35977Y834477D01*
X35977Y824459D01*
X29666Y824459D01*
G37*
%LPD*%
%LPC*%
G36*
X39023Y765523D02*
X39023Y765523D01*
X39023Y775541D01*
X43834Y775541D01*
X44481Y775368D01*
X45060Y775033D01*
X45533Y774560D01*
X45868Y773981D01*
X46041Y773334D01*
X46041Y765523D01*
X39023Y765523D01*
G37*
%LPD*%
%LPC*%
G36*
X39023Y752459D02*
X39023Y752459D01*
X39023Y762477D01*
X46041Y762477D01*
X46041Y754666D01*
X45868Y754019D01*
X45533Y753440D01*
X45060Y752967D01*
X44481Y752632D01*
X43834Y752459D01*
X39023Y752459D01*
G37*
%LPD*%
%LPC*%
G36*
X28959Y765523D02*
X28959Y765523D01*
X28959Y773334D01*
X29132Y773981D01*
X29467Y774560D01*
X29940Y775033D01*
X30519Y775368D01*
X31166Y775541D01*
X35977Y775541D01*
X35977Y765523D01*
X28959Y765523D01*
G37*
%LPD*%
%LPC*%
G36*
X31166Y752459D02*
X31166Y752459D01*
X30519Y752632D01*
X29940Y752967D01*
X29467Y753440D01*
X29132Y754019D01*
X28959Y754666D01*
X28959Y762477D01*
X35977Y762477D01*
X35977Y752459D01*
X31166Y752459D01*
G37*
%LPD*%
%LPC*%
G36*
X161523Y741523D02*
X161523Y741523D01*
X161523Y749925D01*
X162351Y749794D01*
X163854Y749305D01*
X165263Y748588D01*
X166541Y747659D01*
X167659Y746541D01*
X168588Y745263D01*
X169305Y743854D01*
X169794Y742351D01*
X169925Y741523D01*
X161523Y741523D01*
G37*
%LPD*%
%LPC*%
G36*
X161523Y738477D02*
X161523Y738477D01*
X169925Y738477D01*
X169794Y737649D01*
X169305Y736146D01*
X168588Y734737D01*
X167659Y733459D01*
X166541Y732341D01*
X165263Y731412D01*
X163854Y730695D01*
X162351Y730206D01*
X161523Y730075D01*
X161523Y738477D01*
G37*
%LPD*%
%LPC*%
G36*
X157649Y730206D02*
X157649Y730206D01*
X156146Y730695D01*
X154737Y731412D01*
X153459Y732341D01*
X152341Y733459D01*
X151412Y734737D01*
X150695Y736146D01*
X150206Y737649D01*
X150075Y738477D01*
X158477Y738477D01*
X158477Y730075D01*
X157649Y730206D01*
G37*
%LPD*%
%LPC*%
G36*
X162573Y861523D02*
X162573Y861523D01*
X162573Y869641D01*
X164628Y869641D01*
X165906Y869298D01*
X167051Y868637D01*
X167987Y867701D01*
X168648Y866556D01*
X168991Y865278D01*
X168991Y861523D01*
X162573Y861523D01*
G37*
%LPD*%
%LPC*%
G36*
X300473Y861523D02*
X300473Y861523D01*
X300473Y869641D01*
X302528Y869641D01*
X303806Y869298D01*
X304951Y868637D01*
X305887Y867701D01*
X306548Y866556D01*
X306891Y865278D01*
X306891Y861523D01*
X300473Y861523D01*
G37*
%LPD*%
%LPC*%
G36*
X162573Y850359D02*
X162573Y850359D01*
X162573Y858477D01*
X168991Y858477D01*
X168991Y854722D01*
X168648Y853444D01*
X167987Y852299D01*
X167051Y851363D01*
X165906Y850702D01*
X164628Y850359D01*
X162573Y850359D01*
G37*
%LPD*%
%LPC*%
G36*
X300473Y850359D02*
X300473Y850359D01*
X300473Y858477D01*
X306891Y858477D01*
X306891Y854722D01*
X306548Y853444D01*
X305887Y852299D01*
X304951Y851363D01*
X303806Y850702D01*
X302528Y850359D01*
X300473Y850359D01*
G37*
%LPD*%
%LPC*%
G36*
X291009Y861523D02*
X291009Y861523D01*
X291009Y865278D01*
X291352Y866556D01*
X292013Y867701D01*
X292949Y868637D01*
X294094Y869298D01*
X295372Y869641D01*
X297427Y869641D01*
X297427Y861523D01*
X291009Y861523D01*
G37*
%LPD*%
%LPC*%
G36*
X153109Y861523D02*
X153109Y861523D01*
X153109Y865278D01*
X153452Y866556D01*
X154113Y867701D01*
X155049Y868637D01*
X156194Y869298D01*
X157472Y869641D01*
X159527Y869641D01*
X159527Y861523D01*
X153109Y861523D01*
G37*
%LPD*%
%LPC*%
G36*
X157472Y850359D02*
X157472Y850359D01*
X156194Y850702D01*
X155049Y851363D01*
X154113Y852299D01*
X153452Y853444D01*
X153109Y854722D01*
X153109Y858477D01*
X159527Y858477D01*
X159527Y850359D01*
X157472Y850359D01*
G37*
%LPD*%
%LPC*%
G36*
X181073Y821523D02*
X181073Y821523D01*
X181073Y829441D01*
X182487Y829441D01*
X183719Y829111D01*
X184822Y828474D01*
X185724Y827572D01*
X186361Y826469D01*
X186691Y825237D01*
X186691Y821523D01*
X181073Y821523D01*
G37*
%LPD*%
%LPC*%
G36*
X301073Y821523D02*
X301073Y821523D01*
X301073Y829441D01*
X302487Y829441D01*
X303719Y829111D01*
X304822Y828474D01*
X305724Y827572D01*
X306361Y826469D01*
X306691Y825237D01*
X306691Y821523D01*
X301073Y821523D01*
G37*
%LPD*%
%LPC*%
G36*
X181073Y810559D02*
X181073Y810559D01*
X181073Y818477D01*
X186691Y818477D01*
X186691Y814763D01*
X186361Y813531D01*
X185724Y812428D01*
X184822Y811526D01*
X183719Y810889D01*
X182487Y810559D01*
X181073Y810559D01*
G37*
%LPD*%
%LPC*%
G36*
X301073Y810559D02*
X301073Y810559D01*
X301073Y818477D01*
X306691Y818477D01*
X306691Y814763D01*
X306361Y813531D01*
X305724Y812428D01*
X304822Y811526D01*
X303719Y810889D01*
X302487Y810559D01*
X301073Y810559D01*
G37*
%LPD*%
%LPC*%
G36*
X172409Y821523D02*
X172409Y821523D01*
X172409Y825237D01*
X172739Y826469D01*
X173376Y827572D01*
X174278Y828474D01*
X175381Y829111D01*
X176613Y829441D01*
X178027Y829441D01*
X178027Y821523D01*
X172409Y821523D01*
G37*
%LPD*%
%LPC*%
G36*
X292409Y821523D02*
X292409Y821523D01*
X292409Y825237D01*
X292739Y826469D01*
X293376Y827572D01*
X294278Y828474D01*
X295381Y829111D01*
X296613Y829441D01*
X298027Y829441D01*
X298027Y821523D01*
X292409Y821523D01*
G37*
%LPD*%
%LPC*%
G36*
X176613Y810559D02*
X176613Y810559D01*
X175381Y810889D01*
X174278Y811526D01*
X173376Y812428D01*
X172739Y813531D01*
X172409Y814763D01*
X172409Y818477D01*
X178027Y818477D01*
X178027Y810559D01*
X176613Y810559D01*
G37*
%LPD*%
%LPC*%
G36*
X296613Y810559D02*
X296613Y810559D01*
X295381Y810889D01*
X294278Y811526D01*
X293376Y812428D01*
X292739Y813531D01*
X292409Y814763D01*
X292409Y818477D01*
X298027Y818477D01*
X298027Y810559D01*
X296613Y810559D01*
G37*
%LPD*%
%LPC*%
G36*
X159999Y739999D02*
X159999Y739999D01*
X159999Y740001D01*
X160001Y740001D01*
X160001Y739999D01*
X159999Y739999D01*
G37*
%LPD*%
%LPC*%
G36*
X37499Y835999D02*
X37499Y835999D01*
X37499Y836001D01*
X37501Y836001D01*
X37501Y835999D01*
X37499Y835999D01*
G37*
%LPD*%
%LPC*%
G36*
X179549Y819999D02*
X179549Y819999D01*
X179549Y820001D01*
X179551Y820001D01*
X179551Y819999D01*
X179549Y819999D01*
G37*
%LPD*%
%LPC*%
G36*
X260999Y951249D02*
X260999Y951249D01*
X260999Y951251D01*
X261001Y951251D01*
X261001Y951249D01*
X260999Y951249D01*
G37*
%LPD*%
%LPC*%
G36*
X37499Y763999D02*
X37499Y763999D01*
X37499Y764001D01*
X37501Y764001D01*
X37501Y763999D01*
X37499Y763999D01*
G37*
%LPD*%
%LPC*%
G36*
X191999Y976749D02*
X191999Y976749D01*
X191999Y976751D01*
X192001Y976751D01*
X192001Y976749D01*
X191999Y976749D01*
G37*
%LPD*%
%LPC*%
G36*
X241999Y976749D02*
X241999Y976749D01*
X241999Y976751D01*
X242001Y976751D01*
X242001Y976749D01*
X241999Y976749D01*
G37*
%LPD*%
%LPC*%
G36*
X267999Y976749D02*
X267999Y976749D01*
X267999Y976751D01*
X268001Y976751D01*
X268001Y976749D01*
X267999Y976749D01*
G37*
%LPD*%
%LPC*%
G36*
X217999Y976749D02*
X217999Y976749D01*
X217999Y976751D01*
X218001Y976751D01*
X218001Y976749D01*
X217999Y976749D01*
G37*
%LPD*%
%LPC*%
G36*
X299549Y819999D02*
X299549Y819999D01*
X299549Y820001D01*
X299551Y820001D01*
X299551Y819999D01*
X299549Y819999D01*
G37*
%LPD*%
%LPC*%
G36*
X298949Y859999D02*
X298949Y859999D01*
X298949Y860001D01*
X298951Y860001D01*
X298951Y859999D01*
X298949Y859999D01*
G37*
%LPD*%
%LPC*%
G36*
X161049Y859999D02*
X161049Y859999D01*
X161049Y860001D01*
X161051Y860001D01*
X161051Y859999D01*
X161049Y859999D01*
G37*
%LPD*%
D10*
X37500Y764000D03*
X62500Y764000D03*
D11*
X62500Y836000D03*
X37500Y836000D03*
D12*
X296034Y855384D02*
X301866Y855384D01*
X296034Y855384D02*
X296034Y864616D01*
X301866Y864616D01*
X301866Y855384D01*
X301866Y860104D02*
X296034Y860104D01*
X283966Y864616D02*
X278134Y864616D01*
X283966Y864616D02*
X283966Y855384D01*
X278134Y855384D01*
X278134Y864616D01*
X278134Y860104D02*
X283966Y860104D01*
X163966Y864616D02*
X158134Y864616D01*
X163966Y864616D02*
X163966Y855384D01*
X158134Y855384D01*
X158134Y864616D01*
X158134Y860104D02*
X163966Y860104D01*
X176034Y855384D02*
X181866Y855384D01*
X176034Y855384D02*
X176034Y864616D01*
X181866Y864616D01*
X181866Y855384D01*
X181866Y860104D02*
X176034Y860104D01*
D13*
X301147Y766447D02*
X305753Y766447D01*
X301147Y766447D02*
X301147Y771553D01*
X305753Y771553D01*
X305753Y766447D01*
X305753Y771001D02*
X301147Y771001D01*
X284853Y771553D02*
X280247Y771553D01*
X284853Y771553D02*
X284853Y766447D01*
X280247Y766447D01*
X280247Y771553D01*
X280247Y771001D02*
X284853Y771001D01*
D14*
X243000Y950000D03*
D15*
X242000Y976750D03*
D16*
X192000Y976750D03*
D14*
X236500Y950000D03*
X230000Y950000D03*
X223500Y950000D03*
X217000Y950000D03*
D17*
X199000Y951250D03*
X261000Y951250D03*
D16*
X268000Y976750D03*
D15*
X218000Y976750D03*
D18*
X160000Y740000D03*
X220000Y740000D03*
X250000Y740000D03*
X190000Y740000D03*
D19*
X162750Y784600D02*
X158150Y784600D01*
X162750Y784600D02*
X162750Y775400D01*
X158150Y775400D01*
X158150Y784600D01*
X158150Y779770D02*
X162750Y779770D01*
X162750Y784140D02*
X158150Y784140D01*
X177250Y775400D02*
X181850Y775400D01*
X177250Y775400D02*
X177250Y784600D01*
X181850Y784600D01*
X181850Y775400D01*
X181850Y779770D02*
X177250Y779770D01*
X177250Y784140D02*
X181850Y784140D01*
X181850Y815400D02*
X177250Y815400D01*
X177250Y824600D01*
X181850Y824600D01*
X181850Y815400D01*
X181850Y819770D02*
X177250Y819770D01*
X177250Y824140D02*
X181850Y824140D01*
X162750Y824600D02*
X158150Y824600D01*
X162750Y824600D02*
X162750Y815400D01*
X158150Y815400D01*
X158150Y824600D01*
X158150Y819770D02*
X162750Y819770D01*
X162750Y824140D02*
X158150Y824140D01*
X328150Y774600D02*
X332750Y774600D01*
X332750Y765400D01*
X328150Y765400D01*
X328150Y774600D01*
X328150Y769770D02*
X332750Y769770D01*
X332750Y774140D02*
X328150Y774140D01*
X347250Y765400D02*
X351850Y765400D01*
X347250Y765400D02*
X347250Y774600D01*
X351850Y774600D01*
X351850Y765400D01*
X351850Y769770D02*
X347250Y769770D01*
X347250Y774140D02*
X351850Y774140D01*
X301850Y815400D02*
X297250Y815400D01*
X297250Y824600D01*
X301850Y824600D01*
X301850Y815400D01*
X301850Y819770D02*
X297250Y819770D01*
X297250Y824140D02*
X301850Y824140D01*
X282750Y824600D02*
X278150Y824600D01*
X282750Y824600D02*
X282750Y815400D01*
X278150Y815400D01*
X278150Y824600D01*
X278150Y819770D02*
X282750Y819770D01*
X282750Y824140D02*
X278150Y824140D01*
D20*
X132000Y915000D03*
X108000Y940000D03*
X132000Y965000D03*
D21*
X215654Y850000D03*
X215654Y845000D03*
X215654Y840000D03*
X215654Y835000D03*
X215654Y830000D03*
X244346Y830000D03*
X244346Y835000D03*
X244346Y840000D03*
X244346Y845000D03*
X244346Y850000D03*
D22*
X230000Y840000D03*
D18*
X130000Y740000D03*
X100000Y740000D03*
D23*
X304410Y970000D02*
X304412Y970149D01*
X304418Y970299D01*
X304428Y970448D01*
X304442Y970597D01*
X304460Y970745D01*
X304482Y970893D01*
X304508Y971040D01*
X304537Y971187D01*
X304571Y971332D01*
X304609Y971477D01*
X304650Y971620D01*
X304695Y971763D01*
X304744Y971904D01*
X304797Y972044D01*
X304854Y972182D01*
X304914Y972319D01*
X304978Y972454D01*
X305045Y972588D01*
X305116Y972719D01*
X305190Y972849D01*
X305268Y972976D01*
X305349Y973102D01*
X305434Y973225D01*
X305522Y973346D01*
X305613Y973464D01*
X305707Y973580D01*
X305804Y973694D01*
X305905Y973805D01*
X306008Y973913D01*
X306114Y974018D01*
X306223Y974121D01*
X306334Y974220D01*
X306448Y974317D01*
X306565Y974410D01*
X306684Y974500D01*
X306806Y974587D01*
X306929Y974671D01*
X307055Y974752D01*
X307183Y974829D01*
X307314Y974902D01*
X307446Y974972D01*
X307579Y975039D01*
X307715Y975102D01*
X307852Y975161D01*
X307991Y975216D01*
X308131Y975268D01*
X308273Y975316D01*
X308415Y975361D01*
X308559Y975401D01*
X308704Y975438D01*
X308850Y975470D01*
X308997Y975499D01*
X309144Y975524D01*
X309292Y975545D01*
X309440Y975562D01*
X309589Y975575D01*
X309739Y975584D01*
X309888Y975589D01*
X310037Y975590D01*
X310187Y975587D01*
X310336Y975580D01*
X310485Y975569D01*
X310634Y975554D01*
X310782Y975535D01*
X310930Y975512D01*
X311077Y975485D01*
X311223Y975455D01*
X311368Y975420D01*
X311513Y975381D01*
X311656Y975339D01*
X311798Y975293D01*
X311939Y975243D01*
X312079Y975189D01*
X312217Y975132D01*
X312353Y975071D01*
X312488Y975006D01*
X312621Y974938D01*
X312752Y974866D01*
X312881Y974790D01*
X313008Y974712D01*
X313133Y974630D01*
X313255Y974544D01*
X313376Y974456D01*
X313494Y974364D01*
X313609Y974269D01*
X313722Y974171D01*
X313832Y974070D01*
X313939Y973966D01*
X314044Y973859D01*
X314146Y973750D01*
X314245Y973638D01*
X314340Y973523D01*
X314433Y973405D01*
X314522Y973286D01*
X314609Y973164D01*
X314692Y973039D01*
X314771Y972913D01*
X314847Y972784D01*
X314920Y972654D01*
X314989Y972521D01*
X315055Y972387D01*
X315117Y972251D01*
X315175Y972113D01*
X315230Y971974D01*
X315281Y971834D01*
X315328Y971692D01*
X315371Y971549D01*
X315411Y971405D01*
X315446Y971259D01*
X315478Y971113D01*
X315506Y970967D01*
X315530Y970819D01*
X315550Y970671D01*
X315566Y970522D01*
X315578Y970373D01*
X315586Y970224D01*
X315590Y970075D01*
X315590Y969925D01*
X315586Y969776D01*
X315578Y969627D01*
X315566Y969478D01*
X315550Y969329D01*
X315530Y969181D01*
X315506Y969033D01*
X315478Y968887D01*
X315446Y968741D01*
X315411Y968595D01*
X315371Y968451D01*
X315328Y968308D01*
X315281Y968166D01*
X315230Y968026D01*
X315175Y967887D01*
X315117Y967749D01*
X315055Y967613D01*
X314989Y967479D01*
X314920Y967346D01*
X314847Y967216D01*
X314771Y967087D01*
X314692Y966961D01*
X314609Y966836D01*
X314522Y966714D01*
X314433Y966595D01*
X314340Y966477D01*
X314245Y966362D01*
X314146Y966250D01*
X314044Y966141D01*
X313939Y966034D01*
X313832Y965930D01*
X313722Y965829D01*
X313609Y965731D01*
X313494Y965636D01*
X313376Y965544D01*
X313255Y965456D01*
X313133Y965370D01*
X313008Y965288D01*
X312881Y965210D01*
X312752Y965134D01*
X312621Y965062D01*
X312488Y964994D01*
X312353Y964929D01*
X312217Y964868D01*
X312079Y964811D01*
X311939Y964757D01*
X311798Y964707D01*
X311656Y964661D01*
X311513Y964619D01*
X311368Y964580D01*
X311223Y964545D01*
X311077Y964515D01*
X310930Y964488D01*
X310782Y964465D01*
X310634Y964446D01*
X310485Y964431D01*
X310336Y964420D01*
X310187Y964413D01*
X310037Y964410D01*
X309888Y964411D01*
X309739Y964416D01*
X309589Y964425D01*
X309440Y964438D01*
X309292Y964455D01*
X309144Y964476D01*
X308997Y964501D01*
X308850Y964530D01*
X308704Y964562D01*
X308559Y964599D01*
X308415Y964639D01*
X308273Y964684D01*
X308131Y964732D01*
X307991Y964784D01*
X307852Y964839D01*
X307715Y964898D01*
X307579Y964961D01*
X307446Y965028D01*
X307314Y965098D01*
X307183Y965171D01*
X307055Y965248D01*
X306929Y965329D01*
X306806Y965413D01*
X306684Y965500D01*
X306565Y965590D01*
X306448Y965683D01*
X306334Y965780D01*
X306223Y965879D01*
X306114Y965982D01*
X306008Y966087D01*
X305905Y966195D01*
X305804Y966306D01*
X305707Y966420D01*
X305613Y966536D01*
X305522Y966654D01*
X305434Y966775D01*
X305349Y966898D01*
X305268Y967024D01*
X305190Y967151D01*
X305116Y967281D01*
X305045Y967412D01*
X304978Y967546D01*
X304914Y967681D01*
X304854Y967818D01*
X304797Y967956D01*
X304744Y968096D01*
X304695Y968237D01*
X304650Y968380D01*
X304609Y968523D01*
X304571Y968668D01*
X304537Y968813D01*
X304508Y968960D01*
X304482Y969107D01*
X304460Y969255D01*
X304442Y969403D01*
X304428Y969552D01*
X304418Y969701D01*
X304412Y969851D01*
X304410Y970000D01*
X344410Y970000D02*
X344412Y970149D01*
X344418Y970299D01*
X344428Y970448D01*
X344442Y970597D01*
X344460Y970745D01*
X344482Y970893D01*
X344508Y971040D01*
X344537Y971187D01*
X344571Y971332D01*
X344609Y971477D01*
X344650Y971620D01*
X344695Y971763D01*
X344744Y971904D01*
X344797Y972044D01*
X344854Y972182D01*
X344914Y972319D01*
X344978Y972454D01*
X345045Y972588D01*
X345116Y972719D01*
X345190Y972849D01*
X345268Y972976D01*
X345349Y973102D01*
X345434Y973225D01*
X345522Y973346D01*
X345613Y973464D01*
X345707Y973580D01*
X345804Y973694D01*
X345905Y973805D01*
X346008Y973913D01*
X346114Y974018D01*
X346223Y974121D01*
X346334Y974220D01*
X346448Y974317D01*
X346565Y974410D01*
X346684Y974500D01*
X346806Y974587D01*
X346929Y974671D01*
X347055Y974752D01*
X347183Y974829D01*
X347314Y974902D01*
X347446Y974972D01*
X347579Y975039D01*
X347715Y975102D01*
X347852Y975161D01*
X347991Y975216D01*
X348131Y975268D01*
X348273Y975316D01*
X348415Y975361D01*
X348559Y975401D01*
X348704Y975438D01*
X348850Y975470D01*
X348997Y975499D01*
X349144Y975524D01*
X349292Y975545D01*
X349440Y975562D01*
X349589Y975575D01*
X349739Y975584D01*
X349888Y975589D01*
X350037Y975590D01*
X350187Y975587D01*
X350336Y975580D01*
X350485Y975569D01*
X350634Y975554D01*
X350782Y975535D01*
X350930Y975512D01*
X351077Y975485D01*
X351223Y975455D01*
X351368Y975420D01*
X351513Y975381D01*
X351656Y975339D01*
X351798Y975293D01*
X351939Y975243D01*
X352079Y975189D01*
X352217Y975132D01*
X352353Y975071D01*
X352488Y975006D01*
X352621Y974938D01*
X352752Y974866D01*
X352881Y974790D01*
X353008Y974712D01*
X353133Y974630D01*
X353255Y974544D01*
X353376Y974456D01*
X353494Y974364D01*
X353609Y974269D01*
X353722Y974171D01*
X353832Y974070D01*
X353939Y973966D01*
X354044Y973859D01*
X354146Y973750D01*
X354245Y973638D01*
X354340Y973523D01*
X354433Y973405D01*
X354522Y973286D01*
X354609Y973164D01*
X354692Y973039D01*
X354771Y972913D01*
X354847Y972784D01*
X354920Y972654D01*
X354989Y972521D01*
X355055Y972387D01*
X355117Y972251D01*
X355175Y972113D01*
X355230Y971974D01*
X355281Y971834D01*
X355328Y971692D01*
X355371Y971549D01*
X355411Y971405D01*
X355446Y971259D01*
X355478Y971113D01*
X355506Y970967D01*
X355530Y970819D01*
X355550Y970671D01*
X355566Y970522D01*
X355578Y970373D01*
X355586Y970224D01*
X355590Y970075D01*
X355590Y969925D01*
X355586Y969776D01*
X355578Y969627D01*
X355566Y969478D01*
X355550Y969329D01*
X355530Y969181D01*
X355506Y969033D01*
X355478Y968887D01*
X355446Y968741D01*
X355411Y968595D01*
X355371Y968451D01*
X355328Y968308D01*
X355281Y968166D01*
X355230Y968026D01*
X355175Y967887D01*
X355117Y967749D01*
X355055Y967613D01*
X354989Y967479D01*
X354920Y967346D01*
X354847Y967216D01*
X354771Y967087D01*
X354692Y966961D01*
X354609Y966836D01*
X354522Y966714D01*
X354433Y966595D01*
X354340Y966477D01*
X354245Y966362D01*
X354146Y966250D01*
X354044Y966141D01*
X353939Y966034D01*
X353832Y965930D01*
X353722Y965829D01*
X353609Y965731D01*
X353494Y965636D01*
X353376Y965544D01*
X353255Y965456D01*
X353133Y965370D01*
X353008Y965288D01*
X352881Y965210D01*
X352752Y965134D01*
X352621Y965062D01*
X352488Y964994D01*
X352353Y964929D01*
X352217Y964868D01*
X352079Y964811D01*
X351939Y964757D01*
X351798Y964707D01*
X351656Y964661D01*
X351513Y964619D01*
X351368Y964580D01*
X351223Y964545D01*
X351077Y964515D01*
X350930Y964488D01*
X350782Y964465D01*
X350634Y964446D01*
X350485Y964431D01*
X350336Y964420D01*
X350187Y964413D01*
X350037Y964410D01*
X349888Y964411D01*
X349739Y964416D01*
X349589Y964425D01*
X349440Y964438D01*
X349292Y964455D01*
X349144Y964476D01*
X348997Y964501D01*
X348850Y964530D01*
X348704Y964562D01*
X348559Y964599D01*
X348415Y964639D01*
X348273Y964684D01*
X348131Y964732D01*
X347991Y964784D01*
X347852Y964839D01*
X347715Y964898D01*
X347579Y964961D01*
X347446Y965028D01*
X347314Y965098D01*
X347183Y965171D01*
X347055Y965248D01*
X346929Y965329D01*
X346806Y965413D01*
X346684Y965500D01*
X346565Y965590D01*
X346448Y965683D01*
X346334Y965780D01*
X346223Y965879D01*
X346114Y965982D01*
X346008Y966087D01*
X345905Y966195D01*
X345804Y966306D01*
X345707Y966420D01*
X345613Y966536D01*
X345522Y966654D01*
X345434Y966775D01*
X345349Y966898D01*
X345268Y967024D01*
X345190Y967151D01*
X345116Y967281D01*
X345045Y967412D01*
X344978Y967546D01*
X344914Y967681D01*
X344854Y967818D01*
X344797Y967956D01*
X344744Y968096D01*
X344695Y968237D01*
X344650Y968380D01*
X344609Y968523D01*
X344571Y968668D01*
X344537Y968813D01*
X344508Y968960D01*
X344482Y969107D01*
X344460Y969255D01*
X344442Y969403D01*
X344428Y969552D01*
X344418Y969701D01*
X344412Y969851D01*
X344410Y970000D01*
X344410Y930000D02*
X344412Y930149D01*
X344418Y930299D01*
X344428Y930448D01*
X344442Y930597D01*
X344460Y930745D01*
X344482Y930893D01*
X344508Y931040D01*
X344537Y931187D01*
X344571Y931332D01*
X344609Y931477D01*
X344650Y931620D01*
X344695Y931763D01*
X344744Y931904D01*
X344797Y932044D01*
X344854Y932182D01*
X344914Y932319D01*
X344978Y932454D01*
X345045Y932588D01*
X345116Y932719D01*
X345190Y932849D01*
X345268Y932976D01*
X345349Y933102D01*
X345434Y933225D01*
X345522Y933346D01*
X345613Y933464D01*
X345707Y933580D01*
X345804Y933694D01*
X345905Y933805D01*
X346008Y933913D01*
X346114Y934018D01*
X346223Y934121D01*
X346334Y934220D01*
X346448Y934317D01*
X346565Y934410D01*
X346684Y934500D01*
X346806Y934587D01*
X346929Y934671D01*
X347055Y934752D01*
X347183Y934829D01*
X347314Y934902D01*
X347446Y934972D01*
X347579Y935039D01*
X347715Y935102D01*
X347852Y935161D01*
X347991Y935216D01*
X348131Y935268D01*
X348273Y935316D01*
X348415Y935361D01*
X348559Y935401D01*
X348704Y935438D01*
X348850Y935470D01*
X348997Y935499D01*
X349144Y935524D01*
X349292Y935545D01*
X349440Y935562D01*
X349589Y935575D01*
X349739Y935584D01*
X349888Y935589D01*
X350037Y935590D01*
X350187Y935587D01*
X350336Y935580D01*
X350485Y935569D01*
X350634Y935554D01*
X350782Y935535D01*
X350930Y935512D01*
X351077Y935485D01*
X351223Y935455D01*
X351368Y935420D01*
X351513Y935381D01*
X351656Y935339D01*
X351798Y935293D01*
X351939Y935243D01*
X352079Y935189D01*
X352217Y935132D01*
X352353Y935071D01*
X352488Y935006D01*
X352621Y934938D01*
X352752Y934866D01*
X352881Y934790D01*
X353008Y934712D01*
X353133Y934630D01*
X353255Y934544D01*
X353376Y934456D01*
X353494Y934364D01*
X353609Y934269D01*
X353722Y934171D01*
X353832Y934070D01*
X353939Y933966D01*
X354044Y933859D01*
X354146Y933750D01*
X354245Y933638D01*
X354340Y933523D01*
X354433Y933405D01*
X354522Y933286D01*
X354609Y933164D01*
X354692Y933039D01*
X354771Y932913D01*
X354847Y932784D01*
X354920Y932654D01*
X354989Y932521D01*
X355055Y932387D01*
X355117Y932251D01*
X355175Y932113D01*
X355230Y931974D01*
X355281Y931834D01*
X355328Y931692D01*
X355371Y931549D01*
X355411Y931405D01*
X355446Y931259D01*
X355478Y931113D01*
X355506Y930967D01*
X355530Y930819D01*
X355550Y930671D01*
X355566Y930522D01*
X355578Y930373D01*
X355586Y930224D01*
X355590Y930075D01*
X355590Y929925D01*
X355586Y929776D01*
X355578Y929627D01*
X355566Y929478D01*
X355550Y929329D01*
X355530Y929181D01*
X355506Y929033D01*
X355478Y928887D01*
X355446Y928741D01*
X355411Y928595D01*
X355371Y928451D01*
X355328Y928308D01*
X355281Y928166D01*
X355230Y928026D01*
X355175Y927887D01*
X355117Y927749D01*
X355055Y927613D01*
X354989Y927479D01*
X354920Y927346D01*
X354847Y927216D01*
X354771Y927087D01*
X354692Y926961D01*
X354609Y926836D01*
X354522Y926714D01*
X354433Y926595D01*
X354340Y926477D01*
X354245Y926362D01*
X354146Y926250D01*
X354044Y926141D01*
X353939Y926034D01*
X353832Y925930D01*
X353722Y925829D01*
X353609Y925731D01*
X353494Y925636D01*
X353376Y925544D01*
X353255Y925456D01*
X353133Y925370D01*
X353008Y925288D01*
X352881Y925210D01*
X352752Y925134D01*
X352621Y925062D01*
X352488Y924994D01*
X352353Y924929D01*
X352217Y924868D01*
X352079Y924811D01*
X351939Y924757D01*
X351798Y924707D01*
X351656Y924661D01*
X351513Y924619D01*
X351368Y924580D01*
X351223Y924545D01*
X351077Y924515D01*
X350930Y924488D01*
X350782Y924465D01*
X350634Y924446D01*
X350485Y924431D01*
X350336Y924420D01*
X350187Y924413D01*
X350037Y924410D01*
X349888Y924411D01*
X349739Y924416D01*
X349589Y924425D01*
X349440Y924438D01*
X349292Y924455D01*
X349144Y924476D01*
X348997Y924501D01*
X348850Y924530D01*
X348704Y924562D01*
X348559Y924599D01*
X348415Y924639D01*
X348273Y924684D01*
X348131Y924732D01*
X347991Y924784D01*
X347852Y924839D01*
X347715Y924898D01*
X347579Y924961D01*
X347446Y925028D01*
X347314Y925098D01*
X347183Y925171D01*
X347055Y925248D01*
X346929Y925329D01*
X346806Y925413D01*
X346684Y925500D01*
X346565Y925590D01*
X346448Y925683D01*
X346334Y925780D01*
X346223Y925879D01*
X346114Y925982D01*
X346008Y926087D01*
X345905Y926195D01*
X345804Y926306D01*
X345707Y926420D01*
X345613Y926536D01*
X345522Y926654D01*
X345434Y926775D01*
X345349Y926898D01*
X345268Y927024D01*
X345190Y927151D01*
X345116Y927281D01*
X345045Y927412D01*
X344978Y927546D01*
X344914Y927681D01*
X344854Y927818D01*
X344797Y927956D01*
X344744Y928096D01*
X344695Y928237D01*
X344650Y928380D01*
X344609Y928523D01*
X344571Y928668D01*
X344537Y928813D01*
X344508Y928960D01*
X344482Y929107D01*
X344460Y929255D01*
X344442Y929403D01*
X344428Y929552D01*
X344418Y929701D01*
X344412Y929851D01*
X344410Y930000D01*
X304410Y930000D02*
X304412Y930149D01*
X304418Y930299D01*
X304428Y930448D01*
X304442Y930597D01*
X304460Y930745D01*
X304482Y930893D01*
X304508Y931040D01*
X304537Y931187D01*
X304571Y931332D01*
X304609Y931477D01*
X304650Y931620D01*
X304695Y931763D01*
X304744Y931904D01*
X304797Y932044D01*
X304854Y932182D01*
X304914Y932319D01*
X304978Y932454D01*
X305045Y932588D01*
X305116Y932719D01*
X305190Y932849D01*
X305268Y932976D01*
X305349Y933102D01*
X305434Y933225D01*
X305522Y933346D01*
X305613Y933464D01*
X305707Y933580D01*
X305804Y933694D01*
X305905Y933805D01*
X306008Y933913D01*
X306114Y934018D01*
X306223Y934121D01*
X306334Y934220D01*
X306448Y934317D01*
X306565Y934410D01*
X306684Y934500D01*
X306806Y934587D01*
X306929Y934671D01*
X307055Y934752D01*
X307183Y934829D01*
X307314Y934902D01*
X307446Y934972D01*
X307579Y935039D01*
X307715Y935102D01*
X307852Y935161D01*
X307991Y935216D01*
X308131Y935268D01*
X308273Y935316D01*
X308415Y935361D01*
X308559Y935401D01*
X308704Y935438D01*
X308850Y935470D01*
X308997Y935499D01*
X309144Y935524D01*
X309292Y935545D01*
X309440Y935562D01*
X309589Y935575D01*
X309739Y935584D01*
X309888Y935589D01*
X310037Y935590D01*
X310187Y935587D01*
X310336Y935580D01*
X310485Y935569D01*
X310634Y935554D01*
X310782Y935535D01*
X310930Y935512D01*
X311077Y935485D01*
X311223Y935455D01*
X311368Y935420D01*
X311513Y935381D01*
X311656Y935339D01*
X311798Y935293D01*
X311939Y935243D01*
X312079Y935189D01*
X312217Y935132D01*
X312353Y935071D01*
X312488Y935006D01*
X312621Y934938D01*
X312752Y934866D01*
X312881Y934790D01*
X313008Y934712D01*
X313133Y934630D01*
X313255Y934544D01*
X313376Y934456D01*
X313494Y934364D01*
X313609Y934269D01*
X313722Y934171D01*
X313832Y934070D01*
X313939Y933966D01*
X314044Y933859D01*
X314146Y933750D01*
X314245Y933638D01*
X314340Y933523D01*
X314433Y933405D01*
X314522Y933286D01*
X314609Y933164D01*
X314692Y933039D01*
X314771Y932913D01*
X314847Y932784D01*
X314920Y932654D01*
X314989Y932521D01*
X315055Y932387D01*
X315117Y932251D01*
X315175Y932113D01*
X315230Y931974D01*
X315281Y931834D01*
X315328Y931692D01*
X315371Y931549D01*
X315411Y931405D01*
X315446Y931259D01*
X315478Y931113D01*
X315506Y930967D01*
X315530Y930819D01*
X315550Y930671D01*
X315566Y930522D01*
X315578Y930373D01*
X315586Y930224D01*
X315590Y930075D01*
X315590Y929925D01*
X315586Y929776D01*
X315578Y929627D01*
X315566Y929478D01*
X315550Y929329D01*
X315530Y929181D01*
X315506Y929033D01*
X315478Y928887D01*
X315446Y928741D01*
X315411Y928595D01*
X315371Y928451D01*
X315328Y928308D01*
X315281Y928166D01*
X315230Y928026D01*
X315175Y927887D01*
X315117Y927749D01*
X315055Y927613D01*
X314989Y927479D01*
X314920Y927346D01*
X314847Y927216D01*
X314771Y927087D01*
X314692Y926961D01*
X314609Y926836D01*
X314522Y926714D01*
X314433Y926595D01*
X314340Y926477D01*
X314245Y926362D01*
X314146Y926250D01*
X314044Y926141D01*
X313939Y926034D01*
X313832Y925930D01*
X313722Y925829D01*
X313609Y925731D01*
X313494Y925636D01*
X313376Y925544D01*
X313255Y925456D01*
X313133Y925370D01*
X313008Y925288D01*
X312881Y925210D01*
X312752Y925134D01*
X312621Y925062D01*
X312488Y924994D01*
X312353Y924929D01*
X312217Y924868D01*
X312079Y924811D01*
X311939Y924757D01*
X311798Y924707D01*
X311656Y924661D01*
X311513Y924619D01*
X311368Y924580D01*
X311223Y924545D01*
X311077Y924515D01*
X310930Y924488D01*
X310782Y924465D01*
X310634Y924446D01*
X310485Y924431D01*
X310336Y924420D01*
X310187Y924413D01*
X310037Y924410D01*
X309888Y924411D01*
X309739Y924416D01*
X309589Y924425D01*
X309440Y924438D01*
X309292Y924455D01*
X309144Y924476D01*
X308997Y924501D01*
X308850Y924530D01*
X308704Y924562D01*
X308559Y924599D01*
X308415Y924639D01*
X308273Y924684D01*
X308131Y924732D01*
X307991Y924784D01*
X307852Y924839D01*
X307715Y924898D01*
X307579Y924961D01*
X307446Y925028D01*
X307314Y925098D01*
X307183Y925171D01*
X307055Y925248D01*
X306929Y925329D01*
X306806Y925413D01*
X306684Y925500D01*
X306565Y925590D01*
X306448Y925683D01*
X306334Y925780D01*
X306223Y925879D01*
X306114Y925982D01*
X306008Y926087D01*
X305905Y926195D01*
X305804Y926306D01*
X305707Y926420D01*
X305613Y926536D01*
X305522Y926654D01*
X305434Y926775D01*
X305349Y926898D01*
X305268Y927024D01*
X305190Y927151D01*
X305116Y927281D01*
X305045Y927412D01*
X304978Y927546D01*
X304914Y927681D01*
X304854Y927818D01*
X304797Y927956D01*
X304744Y928096D01*
X304695Y928237D01*
X304650Y928380D01*
X304609Y928523D01*
X304571Y928668D01*
X304537Y928813D01*
X304508Y928960D01*
X304482Y929107D01*
X304460Y929255D01*
X304442Y929403D01*
X304428Y929552D01*
X304418Y929701D01*
X304412Y929851D01*
X304410Y930000D01*
D24*
X253091Y850000D02*
X245000Y850000D01*
X269505Y860000D02*
X281050Y860000D01*
X243000Y938805D02*
X243000Y950000D01*
X349550Y770000D02*
X365895Y770000D01*
D25*
X253091Y850000D03*
X269505Y860000D03*
X243000Y938805D03*
X365895Y770000D03*
D24*
X245000Y850000D02*
X245000Y937500D01*
X245000Y850000D02*
X244346Y850000D01*
X245000Y937500D02*
X243000Y938805D01*
X282500Y860000D02*
X352500Y790000D01*
X352500Y770000D01*
X282500Y860000D02*
X281050Y860000D01*
X349550Y770000D02*
X352500Y770000D01*
D26*
X217000Y938805D02*
X217000Y950000D01*
X268000Y976750D02*
X268000Y990695D01*
X242000Y990695D02*
X242000Y976750D01*
X218000Y976750D02*
X218000Y990695D01*
X192000Y990695D02*
X192000Y976750D01*
X37500Y764000D02*
X24055Y764000D01*
X24055Y836000D02*
X37500Y836000D01*
X244346Y835000D02*
X253091Y835000D01*
X230000Y840000D02*
X230000Y856345D01*
X190895Y820000D02*
X179550Y820000D01*
X298950Y860000D02*
X310495Y860000D01*
X161050Y860000D02*
X149505Y860000D01*
X299550Y820000D02*
X310895Y820000D01*
D25*
X217000Y938805D03*
X268000Y990695D03*
X242000Y990695D03*
X218000Y990695D03*
X192000Y990695D03*
X24055Y764000D03*
X24055Y836000D03*
X253091Y835000D03*
X230000Y856345D03*
X190895Y820000D03*
X310495Y860000D03*
X149505Y860000D03*
X310895Y820000D03*
D24*
X206909Y858745D02*
X206909Y860000D01*
X206909Y858745D02*
X215654Y850000D01*
X108000Y927555D02*
X108000Y940000D01*
X75945Y764000D02*
X62500Y764000D01*
X62500Y836000D02*
X75945Y836000D01*
D25*
X206909Y860000D03*
X108000Y927555D03*
X75945Y764000D03*
X75945Y836000D03*
D24*
X62500Y836000D02*
X62500Y764000D01*
X77500Y897500D02*
X107500Y927500D01*
X77500Y897500D02*
X77500Y837500D01*
X107500Y927500D02*
X108000Y927555D01*
X77500Y837500D02*
X75945Y836000D01*
X206909Y845000D02*
X215654Y845000D01*
X190495Y860000D02*
X178950Y860000D01*
X179550Y780000D02*
X190895Y780000D01*
D25*
X206909Y845000D03*
X190495Y860000D03*
X190895Y780000D03*
D24*
X205000Y845000D02*
X192500Y857500D01*
X192500Y860000D01*
X205000Y845000D02*
X206909Y845000D01*
X192500Y860000D02*
X190495Y860000D01*
D26*
X244475Y829945D02*
X244475Y807085D01*
X281940Y769620D01*
X244475Y829945D02*
X244346Y830000D01*
X281940Y769620D02*
X282550Y769000D01*
X303530Y769620D02*
X330175Y769620D01*
X303530Y769620D02*
X303450Y769000D01*
X330175Y769620D02*
X330503Y769948D01*
X330450Y770000D02*
X330835Y770255D01*
X330503Y769948D01*
X215265Y834390D02*
X211455Y834390D01*
X196215Y819150D01*
X196215Y809625D01*
X167005Y780415D01*
X167005Y763270D01*
X133985Y730250D01*
X95885Y730250D01*
X90170Y735965D01*
X90170Y902335D01*
X131445Y943610D01*
X131445Y964565D01*
X215654Y835000D02*
X215265Y834390D01*
X131445Y964565D02*
X132000Y965000D01*
X244475Y844550D02*
X244475Y840105D01*
X244346Y840000D01*
X244475Y844550D02*
X244346Y845000D01*
X245110Y840105D02*
X260350Y840105D01*
X280035Y820420D01*
X245110Y840105D02*
X244346Y840000D01*
X280035Y820420D02*
X280450Y820000D01*
X207010Y740410D02*
X190500Y740410D01*
X207010Y740410D02*
X228600Y762000D01*
X287020Y762000D01*
X289560Y764540D01*
X289560Y810895D01*
X280670Y819785D01*
X190500Y740410D02*
X190000Y740000D01*
X280450Y820000D02*
X280670Y819785D01*
X215265Y839470D02*
X179705Y839470D01*
X160655Y820420D01*
X215265Y839470D02*
X215654Y840000D01*
X160655Y820420D02*
X160450Y820000D01*
X160655Y819785D02*
X160655Y780415D01*
X160450Y780000D01*
X160655Y819785D02*
X160450Y820000D01*
X116840Y740410D02*
X100330Y740410D01*
X116840Y740410D02*
X156210Y779780D01*
X160020Y779780D01*
X100330Y740410D02*
X100000Y740000D01*
X160020Y779780D02*
X160450Y780000D01*
M02*
