G04 EAGLE Gerber RS-274X export*
G75*
%MOMM*%
%FSLAX34Y34*%
%LPD*%
%INBottom Inner Metal*%
%IPPOS*%
%AMOC8*
5,1,8,0,0,1.08239X$1,22.5*%
G01*
%ADD10C,0.352400*%
%ADD11C,1.350000*%
%ADD12C,1.500000*%
%ADD13C,1.950000*%
%ADD14C,1.650000*%
%ADD15C,0.152400*%
%ADD16C,0.508000*%
%ADD17C,0.454000*%
%ADD18C,0.127000*%
%ADD19C,0.635000*%

G36*
X370018Y-367496D02*
X370018Y-367496D01*
X370042Y-367498D01*
X376159Y-367097D01*
X376205Y-367085D01*
X376281Y-367077D01*
X388099Y-363910D01*
X388139Y-363891D01*
X388252Y-363847D01*
X398847Y-357730D01*
X398881Y-357701D01*
X398978Y-357629D01*
X407629Y-348978D01*
X407654Y-348941D01*
X407730Y-348847D01*
X413847Y-338252D01*
X413862Y-338209D01*
X413910Y-338099D01*
X417077Y-326281D01*
X417081Y-326233D01*
X417097Y-326159D01*
X417498Y-320041D01*
X417496Y-320023D01*
X417499Y-320000D01*
X417499Y295000D01*
X417496Y295018D01*
X417498Y295041D01*
X417097Y301159D01*
X417085Y301205D01*
X417077Y301281D01*
X413910Y313099D01*
X413891Y313139D01*
X413847Y313252D01*
X407730Y323847D01*
X407701Y323881D01*
X407629Y323978D01*
X398978Y332629D01*
X398941Y332654D01*
X398847Y332730D01*
X388252Y338847D01*
X388246Y338849D01*
X388241Y338853D01*
X388194Y338869D01*
X388099Y338910D01*
X376281Y342077D01*
X376233Y342081D01*
X376159Y342097D01*
X370042Y342498D01*
X370023Y342496D01*
X370000Y342499D01*
X201727Y342499D01*
X201639Y342484D01*
X201551Y342474D01*
X201530Y342464D01*
X201506Y342460D01*
X201429Y342414D01*
X201350Y342375D01*
X201334Y342358D01*
X201313Y342345D01*
X201257Y342276D01*
X201196Y342212D01*
X201187Y342190D01*
X201172Y342171D01*
X201143Y342087D01*
X201108Y342005D01*
X201107Y341981D01*
X201100Y341959D01*
X201102Y341870D01*
X201098Y341781D01*
X201106Y341758D01*
X201106Y341734D01*
X201140Y341652D01*
X201167Y341567D01*
X201183Y341546D01*
X201191Y341527D01*
X201225Y341489D01*
X201279Y341417D01*
X201906Y340789D01*
X201906Y337646D01*
X201913Y337604D01*
X201911Y337562D01*
X201933Y337495D01*
X201945Y337425D01*
X201967Y337389D01*
X201980Y337348D01*
X202034Y337275D01*
X202060Y337232D01*
X202076Y337219D01*
X202092Y337197D01*
X203033Y336256D01*
X203033Y333744D01*
X202092Y332803D01*
X202067Y332768D01*
X202036Y332739D01*
X202004Y332676D01*
X201963Y332618D01*
X201953Y332577D01*
X201933Y332539D01*
X201920Y332450D01*
X201907Y332401D01*
X201910Y332380D01*
X201906Y332354D01*
X201906Y262540D01*
X201917Y262475D01*
X201919Y262409D01*
X201937Y262366D01*
X201945Y262319D01*
X201979Y262262D01*
X202004Y262202D01*
X202035Y262167D01*
X202060Y262126D01*
X202111Y262084D01*
X202155Y262036D01*
X202197Y262014D01*
X202234Y261985D01*
X202296Y261964D01*
X202355Y261933D01*
X202409Y261925D01*
X202446Y261913D01*
X202486Y261914D01*
X202540Y261906D01*
X215789Y261906D01*
X216906Y260789D01*
X216906Y162540D01*
X216917Y162475D01*
X216919Y162409D01*
X216937Y162366D01*
X216945Y162319D01*
X216979Y162262D01*
X217004Y162202D01*
X217035Y162167D01*
X217060Y162126D01*
X217111Y162084D01*
X217155Y162036D01*
X217197Y162014D01*
X217234Y161985D01*
X217296Y161964D01*
X217355Y161933D01*
X217409Y161925D01*
X217446Y161913D01*
X217486Y161914D01*
X217540Y161906D01*
X250789Y161906D01*
X251906Y160789D01*
X251906Y134211D01*
X250789Y133094D01*
X204211Y133094D01*
X128094Y209211D01*
X128094Y257460D01*
X128083Y257525D01*
X128081Y257591D01*
X128063Y257634D01*
X128055Y257681D01*
X128021Y257738D01*
X127996Y257798D01*
X127965Y257833D01*
X127940Y257874D01*
X127889Y257916D01*
X127845Y257964D01*
X127803Y257986D01*
X127766Y258015D01*
X127704Y258036D01*
X127645Y258067D01*
X127591Y258075D01*
X127554Y258087D01*
X127514Y258086D01*
X127460Y258094D01*
X-45789Y258094D01*
X-46906Y259211D01*
X-46906Y340789D01*
X-46279Y341417D01*
X-46228Y341490D01*
X-46172Y341559D01*
X-46164Y341581D01*
X-46150Y341601D01*
X-46128Y341687D01*
X-46100Y341771D01*
X-46100Y341795D01*
X-46095Y341818D01*
X-46104Y341907D01*
X-46106Y341996D01*
X-46115Y342018D01*
X-46118Y342041D01*
X-46157Y342121D01*
X-46191Y342203D01*
X-46207Y342221D01*
X-46217Y342242D01*
X-46282Y342303D01*
X-46342Y342369D01*
X-46363Y342380D01*
X-46380Y342396D01*
X-46462Y342431D01*
X-46542Y342472D01*
X-46568Y342475D01*
X-46587Y342484D01*
X-46637Y342486D01*
X-46727Y342499D01*
X-54051Y342499D01*
X-54141Y342483D01*
X-54233Y342473D01*
X-54254Y342463D01*
X-54272Y342460D01*
X-54315Y342434D01*
X-54403Y342393D01*
X-68355Y333091D01*
X-68389Y333058D01*
X-68451Y333012D01*
X-68964Y332499D01*
X-69051Y332499D01*
X-69142Y332483D01*
X-69233Y332473D01*
X-69254Y332463D01*
X-69272Y332460D01*
X-69315Y332434D01*
X-69403Y332393D01*
X-69475Y332345D01*
X-70186Y332487D01*
X-70234Y332488D01*
X-70310Y332499D01*
X-149690Y332499D01*
X-149737Y332491D01*
X-149814Y332487D01*
X-150525Y332345D01*
X-150597Y332393D01*
X-150682Y332429D01*
X-150764Y332472D01*
X-150786Y332475D01*
X-150803Y332482D01*
X-150853Y332485D01*
X-150949Y332499D01*
X-151036Y332499D01*
X-151549Y333012D01*
X-151588Y333040D01*
X-151645Y333091D01*
X-165597Y342393D01*
X-165682Y342429D01*
X-165764Y342472D01*
X-165786Y342475D01*
X-165803Y342482D01*
X-165853Y342485D01*
X-165949Y342499D01*
X-390000Y342499D01*
X-390018Y342496D01*
X-390041Y342498D01*
X-396159Y342097D01*
X-396205Y342085D01*
X-396281Y342077D01*
X-408099Y338910D01*
X-408139Y338891D01*
X-408252Y338847D01*
X-418847Y332730D01*
X-418881Y332701D01*
X-418978Y332629D01*
X-427629Y323978D01*
X-427654Y323941D01*
X-427730Y323847D01*
X-433847Y313252D01*
X-433862Y313209D01*
X-433910Y313099D01*
X-437077Y301281D01*
X-437081Y301233D01*
X-437097Y301159D01*
X-437498Y295041D01*
X-437496Y295023D01*
X-437499Y295000D01*
X-437499Y-320000D01*
X-437496Y-320018D01*
X-437498Y-320041D01*
X-437097Y-326159D01*
X-437085Y-326205D01*
X-437077Y-326281D01*
X-433910Y-338099D01*
X-433891Y-338139D01*
X-433847Y-338252D01*
X-427730Y-348847D01*
X-427701Y-348881D01*
X-427629Y-348978D01*
X-418978Y-357629D01*
X-418941Y-357654D01*
X-418847Y-357730D01*
X-408252Y-363847D01*
X-408209Y-363862D01*
X-408099Y-363910D01*
X-396281Y-367077D01*
X-396233Y-367081D01*
X-396159Y-367097D01*
X-390041Y-367498D01*
X-390023Y-367496D01*
X-390000Y-367499D01*
X370000Y-367499D01*
X370018Y-367496D01*
G37*
G36*
X247603Y136907D02*
X247603Y136907D01*
X247612Y136906D01*
X247700Y136927D01*
X247790Y136945D01*
X247797Y136950D01*
X247805Y136952D01*
X247878Y137006D01*
X247954Y137058D01*
X247958Y137065D01*
X247965Y137070D01*
X248012Y137148D01*
X248061Y137225D01*
X248062Y137234D01*
X248067Y137241D01*
X248094Y137405D01*
X248094Y157595D01*
X248093Y157603D01*
X248094Y157612D01*
X248073Y157700D01*
X248055Y157790D01*
X248050Y157797D01*
X248048Y157805D01*
X247994Y157878D01*
X247942Y157954D01*
X247935Y157958D01*
X247930Y157965D01*
X247852Y158012D01*
X247775Y158061D01*
X247766Y158062D01*
X247759Y158067D01*
X247595Y158094D01*
X214211Y158094D01*
X213094Y159211D01*
X213094Y257595D01*
X213093Y257603D01*
X213094Y257612D01*
X213073Y257700D01*
X213055Y257790D01*
X213050Y257797D01*
X213048Y257805D01*
X212994Y257878D01*
X212942Y257954D01*
X212935Y257958D01*
X212930Y257965D01*
X212852Y258012D01*
X212775Y258061D01*
X212766Y258062D01*
X212759Y258067D01*
X212595Y258094D01*
X199211Y258094D01*
X198094Y259211D01*
X198094Y260000D01*
X198093Y260008D01*
X198094Y260017D01*
X198073Y260105D01*
X198055Y260195D01*
X198050Y260202D01*
X198048Y260210D01*
X197994Y260283D01*
X197942Y260359D01*
X197935Y260363D01*
X197930Y260370D01*
X197852Y260417D01*
X197775Y260466D01*
X197766Y260467D01*
X197759Y260472D01*
X197595Y260499D01*
X132405Y260499D01*
X132397Y260498D01*
X132388Y260499D01*
X132300Y260478D01*
X132210Y260460D01*
X132203Y260455D01*
X132195Y260453D01*
X132122Y260399D01*
X132046Y260347D01*
X132042Y260340D01*
X132035Y260335D01*
X131988Y260257D01*
X131939Y260180D01*
X131938Y260171D01*
X131933Y260164D01*
X131906Y260000D01*
X131906Y210996D01*
X131908Y210984D01*
X131906Y210971D01*
X131928Y210887D01*
X131945Y210801D01*
X131952Y210791D01*
X131956Y210779D01*
X132052Y210643D01*
X205643Y137052D01*
X205654Y137045D01*
X205661Y137035D01*
X205736Y136990D01*
X205809Y136942D01*
X205821Y136940D01*
X205832Y136933D01*
X205996Y136906D01*
X247595Y136906D01*
X247603Y136907D01*
G37*
%LPC*%
G36*
X218533Y61459D02*
X218533Y61459D01*
X216459Y63533D01*
X216459Y66467D01*
X218533Y68541D01*
X220583Y68541D01*
X220625Y68548D01*
X220667Y68546D01*
X220734Y68568D01*
X220804Y68580D01*
X220840Y68602D01*
X220881Y68615D01*
X220953Y68669D01*
X220997Y68695D01*
X221010Y68711D01*
X221031Y68727D01*
X262908Y110604D01*
X262933Y110638D01*
X262964Y110667D01*
X262996Y110730D01*
X263037Y110788D01*
X263047Y110829D01*
X263067Y110867D01*
X263080Y110956D01*
X263093Y111005D01*
X263090Y111026D01*
X263094Y111052D01*
X263094Y117460D01*
X263083Y117525D01*
X263081Y117591D01*
X263063Y117634D01*
X263055Y117681D01*
X263021Y117738D01*
X262996Y117798D01*
X262965Y117833D01*
X262940Y117874D01*
X262889Y117916D01*
X262845Y117964D01*
X262803Y117986D01*
X262766Y118015D01*
X262704Y118036D01*
X262645Y118067D01*
X262591Y118075D01*
X262554Y118087D01*
X262514Y118086D01*
X262460Y118094D01*
X250944Y118094D01*
X250857Y118079D01*
X250768Y118069D01*
X250747Y118059D01*
X250723Y118055D01*
X250647Y118009D01*
X250567Y117970D01*
X250551Y117953D01*
X250530Y117940D01*
X250474Y117871D01*
X250413Y117807D01*
X250404Y117785D01*
X250389Y117766D01*
X250360Y117682D01*
X250326Y117600D01*
X250325Y117576D01*
X250317Y117554D01*
X250320Y117465D01*
X250316Y117376D01*
X250323Y117353D01*
X250324Y117329D01*
X250357Y117247D01*
X250384Y117162D01*
X250400Y117141D01*
X250408Y117122D01*
X250442Y117084D01*
X250496Y117012D01*
X251041Y116467D01*
X251041Y113533D01*
X248967Y111459D01*
X246033Y111459D01*
X243959Y113533D01*
X243959Y116467D01*
X244504Y117012D01*
X244555Y117085D01*
X244611Y117154D01*
X244619Y117176D01*
X244632Y117196D01*
X244654Y117282D01*
X244683Y117366D01*
X244682Y117390D01*
X244688Y117413D01*
X244679Y117502D01*
X244676Y117591D01*
X244667Y117613D01*
X244665Y117636D01*
X244625Y117716D01*
X244592Y117798D01*
X244576Y117816D01*
X244566Y117837D01*
X244501Y117898D01*
X244441Y117964D01*
X244420Y117975D01*
X244402Y117991D01*
X244320Y118026D01*
X244241Y118067D01*
X244215Y118070D01*
X244196Y118079D01*
X244145Y118081D01*
X244056Y118094D01*
X196711Y118094D01*
X109396Y205408D01*
X109362Y205433D01*
X109333Y205464D01*
X109270Y205496D01*
X109212Y205537D01*
X109171Y205547D01*
X109133Y205567D01*
X109044Y205580D01*
X108995Y205593D01*
X108974Y205590D01*
X108948Y205594D01*
X103364Y205594D01*
X103323Y205587D01*
X103280Y205589D01*
X103213Y205567D01*
X103144Y205555D01*
X103107Y205533D01*
X103067Y205520D01*
X102994Y205466D01*
X102950Y205440D01*
X102937Y205424D01*
X102916Y205408D01*
X101467Y203959D01*
X98533Y203959D01*
X96698Y205794D01*
X96644Y205832D01*
X96597Y205877D01*
X96553Y205895D01*
X96514Y205922D01*
X96451Y205939D01*
X96390Y205964D01*
X96343Y205966D01*
X96297Y205978D01*
X96232Y205971D01*
X96166Y205974D01*
X96121Y205960D01*
X96074Y205955D01*
X96015Y205926D01*
X95952Y205906D01*
X95908Y205873D01*
X95873Y205856D01*
X95846Y205827D01*
X95801Y205794D01*
X93967Y203959D01*
X91033Y203959D01*
X88959Y206033D01*
X88959Y208967D01*
X91033Y211041D01*
X93083Y211041D01*
X93125Y211048D01*
X93167Y211046D01*
X93234Y211068D01*
X93304Y211080D01*
X93340Y211102D01*
X93381Y211115D01*
X93453Y211169D01*
X93497Y211195D01*
X93510Y211211D01*
X93531Y211227D01*
X96711Y214406D01*
X110789Y214406D01*
X112092Y213104D01*
X195107Y130089D01*
X195180Y130038D01*
X195249Y129982D01*
X195271Y129974D01*
X195291Y129960D01*
X195377Y129938D01*
X195461Y129910D01*
X195485Y129910D01*
X195508Y129905D01*
X195597Y129914D01*
X195686Y129916D01*
X195708Y129925D01*
X195731Y129928D01*
X195811Y129967D01*
X195893Y130001D01*
X195911Y130017D01*
X195932Y130027D01*
X195993Y130092D01*
X196059Y130152D01*
X196070Y130173D01*
X196086Y130190D01*
X196121Y130272D01*
X196162Y130352D01*
X196165Y130378D01*
X196174Y130397D01*
X196176Y130447D01*
X196189Y130537D01*
X196189Y131438D01*
X198422Y133671D01*
X201578Y133671D01*
X203811Y131438D01*
X203811Y128282D01*
X203518Y127988D01*
X203467Y127915D01*
X203411Y127846D01*
X203403Y127824D01*
X203390Y127804D01*
X203367Y127718D01*
X203339Y127634D01*
X203340Y127610D01*
X203334Y127587D01*
X203343Y127498D01*
X203345Y127409D01*
X203354Y127388D01*
X203357Y127364D01*
X203396Y127284D01*
X203430Y127202D01*
X203446Y127184D01*
X203456Y127163D01*
X203521Y127102D01*
X203581Y127036D01*
X203602Y127025D01*
X203620Y127009D01*
X203702Y126974D01*
X203781Y126933D01*
X203807Y126930D01*
X203826Y126921D01*
X203877Y126919D01*
X203966Y126906D01*
X246448Y126906D01*
X246490Y126913D01*
X246532Y126911D01*
X246599Y126933D01*
X246669Y126945D01*
X246705Y126967D01*
X246746Y126980D01*
X246818Y127034D01*
X246862Y127060D01*
X246875Y127076D01*
X246896Y127092D01*
X254211Y134406D01*
X266556Y134406D01*
X266643Y134421D01*
X266732Y134431D01*
X266753Y134441D01*
X266777Y134445D01*
X266853Y134491D01*
X266933Y134530D01*
X266949Y134547D01*
X266970Y134560D01*
X267026Y134629D01*
X267087Y134693D01*
X267096Y134715D01*
X267111Y134734D01*
X267140Y134818D01*
X267174Y134900D01*
X267175Y134924D01*
X267183Y134946D01*
X267180Y135035D01*
X267184Y135124D01*
X267177Y135147D01*
X267176Y135171D01*
X267143Y135253D01*
X267116Y135338D01*
X267100Y135359D01*
X267092Y135378D01*
X267058Y135416D01*
X267004Y135488D01*
X266459Y136033D01*
X266459Y138967D01*
X268533Y141041D01*
X270825Y141041D01*
X270890Y141052D01*
X270956Y141054D01*
X270999Y141072D01*
X271046Y141080D01*
X271103Y141114D01*
X271163Y141139D01*
X271198Y141170D01*
X271239Y141195D01*
X271281Y141246D01*
X271329Y141290D01*
X271351Y141332D01*
X271380Y141369D01*
X271401Y141431D01*
X271432Y141490D01*
X271440Y141544D01*
X271452Y141581D01*
X271451Y141621D01*
X271459Y141675D01*
X271459Y143967D01*
X273533Y146041D01*
X276467Y146041D01*
X278301Y144206D01*
X278356Y144168D01*
X278403Y144123D01*
X278447Y144105D01*
X278486Y144078D01*
X278549Y144061D01*
X278610Y144036D01*
X278657Y144034D01*
X278703Y144022D01*
X278768Y144029D01*
X278834Y144026D01*
X278879Y144040D01*
X278926Y144045D01*
X278985Y144074D01*
X279048Y144094D01*
X279092Y144127D01*
X279127Y144144D01*
X279154Y144173D01*
X279198Y144206D01*
X281033Y146041D01*
X283325Y146041D01*
X283390Y146052D01*
X283456Y146054D01*
X283499Y146072D01*
X283546Y146080D01*
X283603Y146114D01*
X283663Y146139D01*
X283698Y146170D01*
X283739Y146195D01*
X283781Y146246D01*
X283829Y146290D01*
X283851Y146332D01*
X283880Y146369D01*
X283901Y146431D01*
X283932Y146490D01*
X283940Y146544D01*
X283952Y146581D01*
X283951Y146621D01*
X283959Y146675D01*
X283959Y148967D01*
X286033Y151041D01*
X288967Y151041D01*
X291041Y148967D01*
X291041Y146033D01*
X288967Y143959D01*
X286675Y143959D01*
X286610Y143948D01*
X286544Y143946D01*
X286501Y143928D01*
X286454Y143920D01*
X286397Y143886D01*
X286337Y143861D01*
X286302Y143830D01*
X286261Y143805D01*
X286219Y143754D01*
X286171Y143710D01*
X286149Y143668D01*
X286120Y143631D01*
X286099Y143569D01*
X286068Y143510D01*
X286060Y143456D01*
X286048Y143419D01*
X286049Y143379D01*
X286041Y143325D01*
X286041Y141033D01*
X283967Y138959D01*
X281917Y138959D01*
X281875Y138952D01*
X281833Y138954D01*
X281766Y138932D01*
X281696Y138920D01*
X281660Y138898D01*
X281619Y138885D01*
X281547Y138831D01*
X281503Y138805D01*
X281490Y138789D01*
X281469Y138773D01*
X273261Y130566D01*
X273247Y130559D01*
X273223Y130555D01*
X273147Y130509D01*
X273067Y130470D01*
X273051Y130453D01*
X273030Y130440D01*
X272974Y130371D01*
X272913Y130307D01*
X272904Y130285D01*
X272889Y130266D01*
X272860Y130182D01*
X272826Y130100D01*
X272825Y130076D01*
X272817Y130054D01*
X272820Y129965D01*
X272816Y129876D01*
X272823Y129853D01*
X272824Y129829D01*
X272857Y129747D01*
X272884Y129662D01*
X272900Y129641D01*
X272908Y129622D01*
X272942Y129584D01*
X272996Y129512D01*
X273541Y128967D01*
X273541Y127767D01*
X273557Y127679D01*
X273566Y127591D01*
X273576Y127570D01*
X273580Y127546D01*
X273626Y127470D01*
X273665Y127390D01*
X273682Y127373D01*
X273695Y127353D01*
X273764Y127297D01*
X273828Y127236D01*
X273850Y127227D01*
X273869Y127212D01*
X273953Y127183D01*
X274035Y127148D01*
X274059Y127147D01*
X274081Y127140D01*
X274170Y127142D01*
X274259Y127138D01*
X274282Y127146D01*
X274306Y127146D01*
X274388Y127180D01*
X274473Y127207D01*
X274494Y127223D01*
X274513Y127231D01*
X274551Y127265D01*
X274623Y127319D01*
X293773Y146469D01*
X293798Y146503D01*
X293829Y146532D01*
X293861Y146595D01*
X293902Y146653D01*
X293912Y146694D01*
X293932Y146732D01*
X293945Y146821D01*
X293958Y146870D01*
X293955Y146891D01*
X293959Y146917D01*
X293959Y148967D01*
X296033Y151041D01*
X298967Y151041D01*
X301041Y148967D01*
X301041Y146033D01*
X298967Y143959D01*
X296917Y143959D01*
X296875Y143952D01*
X296833Y143954D01*
X296766Y143932D01*
X296696Y143920D01*
X296660Y143898D01*
X296619Y143885D01*
X296547Y143831D01*
X296503Y143805D01*
X296490Y143789D01*
X296469Y143773D01*
X270789Y118094D01*
X268552Y118094D01*
X268510Y118087D01*
X268468Y118089D01*
X268401Y118067D01*
X268331Y118055D01*
X268295Y118033D01*
X268254Y118020D01*
X268182Y117966D01*
X268138Y117940D01*
X268125Y117924D01*
X268104Y117908D01*
X267092Y116896D01*
X267067Y116862D01*
X267036Y116833D01*
X267004Y116770D01*
X266963Y116712D01*
X266953Y116671D01*
X266933Y116633D01*
X266921Y116553D01*
X266913Y116527D01*
X266913Y116516D01*
X266907Y116495D01*
X266910Y116474D01*
X266906Y116448D01*
X266906Y109211D01*
X223727Y66031D01*
X223702Y65997D01*
X223671Y65968D01*
X223639Y65905D01*
X223598Y65847D01*
X223588Y65806D01*
X223568Y65768D01*
X223555Y65679D01*
X223542Y65630D01*
X223545Y65609D01*
X223541Y65583D01*
X223541Y63533D01*
X221467Y61459D01*
X218533Y61459D01*
G37*
%LPD*%
%LPC*%
G36*
X91033Y-116041D02*
X91033Y-116041D01*
X88959Y-113967D01*
X88959Y-111675D01*
X88948Y-111610D01*
X88946Y-111544D01*
X88928Y-111501D01*
X88920Y-111454D01*
X88886Y-111397D01*
X88861Y-111337D01*
X88830Y-111302D01*
X88805Y-111261D01*
X88754Y-111219D01*
X88710Y-111171D01*
X88668Y-111149D01*
X88631Y-111120D01*
X88569Y-111099D01*
X88510Y-111068D01*
X88456Y-111060D01*
X88419Y-111048D01*
X88379Y-111049D01*
X88325Y-111041D01*
X86033Y-111041D01*
X83959Y-108967D01*
X83959Y-106033D01*
X86033Y-103959D01*
X88083Y-103959D01*
X88125Y-103952D01*
X88167Y-103954D01*
X88234Y-103932D01*
X88304Y-103920D01*
X88340Y-103898D01*
X88381Y-103885D01*
X88453Y-103831D01*
X88497Y-103805D01*
X88510Y-103789D01*
X88531Y-103773D01*
X268773Y76469D01*
X268798Y76503D01*
X268829Y76532D01*
X268861Y76595D01*
X268902Y76653D01*
X268912Y76694D01*
X268932Y76732D01*
X268945Y76821D01*
X268958Y76870D01*
X268955Y76891D01*
X268959Y76917D01*
X268959Y78967D01*
X271033Y81041D01*
X273967Y81041D01*
X276041Y78967D01*
X276041Y76033D01*
X273967Y73959D01*
X271917Y73959D01*
X271875Y73952D01*
X271833Y73954D01*
X271766Y73932D01*
X271696Y73920D01*
X271660Y73898D01*
X271619Y73885D01*
X271547Y73831D01*
X271503Y73805D01*
X271490Y73789D01*
X271483Y73785D01*
X271480Y73782D01*
X271469Y73773D01*
X91227Y-106469D01*
X91202Y-106503D01*
X91171Y-106532D01*
X91139Y-106595D01*
X91098Y-106653D01*
X91088Y-106694D01*
X91068Y-106732D01*
X91055Y-106821D01*
X91042Y-106870D01*
X91045Y-106891D01*
X91041Y-106917D01*
X91041Y-108325D01*
X91052Y-108390D01*
X91054Y-108456D01*
X91072Y-108499D01*
X91080Y-108546D01*
X91114Y-108603D01*
X91139Y-108663D01*
X91170Y-108698D01*
X91195Y-108739D01*
X91246Y-108781D01*
X91290Y-108829D01*
X91332Y-108851D01*
X91369Y-108880D01*
X91431Y-108901D01*
X91490Y-108932D01*
X91544Y-108940D01*
X91581Y-108952D01*
X91621Y-108951D01*
X91675Y-108959D01*
X93083Y-108959D01*
X93125Y-108952D01*
X93167Y-108954D01*
X93234Y-108932D01*
X93304Y-108920D01*
X93340Y-108898D01*
X93381Y-108885D01*
X93453Y-108831D01*
X93497Y-108805D01*
X93510Y-108789D01*
X93531Y-108773D01*
X268773Y66469D01*
X268798Y66503D01*
X268829Y66532D01*
X268861Y66595D01*
X268902Y66653D01*
X268912Y66694D01*
X268932Y66732D01*
X268945Y66821D01*
X268958Y66870D01*
X268955Y66891D01*
X268959Y66917D01*
X268959Y68967D01*
X271033Y71041D01*
X273967Y71041D01*
X276041Y68967D01*
X276041Y66033D01*
X273967Y63959D01*
X271917Y63959D01*
X271875Y63952D01*
X271833Y63954D01*
X271766Y63932D01*
X271696Y63920D01*
X271660Y63898D01*
X271619Y63885D01*
X271547Y63831D01*
X271503Y63805D01*
X271490Y63789D01*
X271469Y63773D01*
X96227Y-111469D01*
X96202Y-111503D01*
X96171Y-111532D01*
X96143Y-111587D01*
X96140Y-111590D01*
X96139Y-111595D01*
X96098Y-111653D01*
X96088Y-111694D01*
X96068Y-111732D01*
X96055Y-111821D01*
X96042Y-111870D01*
X96045Y-111891D01*
X96041Y-111917D01*
X96041Y-113967D01*
X93967Y-116041D01*
X91033Y-116041D01*
G37*
%LPD*%
%LPC*%
G36*
X-156467Y-206041D02*
X-156467Y-206041D01*
X-158541Y-203967D01*
X-158541Y-201033D01*
X-156467Y-198959D01*
X-153533Y-198959D01*
X-152084Y-200408D01*
X-152049Y-200433D01*
X-152021Y-200464D01*
X-151958Y-200496D01*
X-151900Y-200537D01*
X-151859Y-200547D01*
X-151821Y-200567D01*
X-151731Y-200580D01*
X-151683Y-200593D01*
X-151662Y-200590D01*
X-151636Y-200594D01*
X-113552Y-200594D01*
X-113510Y-200587D01*
X-113468Y-200589D01*
X-113401Y-200567D01*
X-113331Y-200555D01*
X-113295Y-200533D01*
X-113254Y-200520D01*
X-113182Y-200466D01*
X-113138Y-200440D01*
X-113125Y-200424D01*
X-113104Y-200408D01*
X187681Y100377D01*
X187732Y100450D01*
X187788Y100519D01*
X187796Y100541D01*
X187810Y100561D01*
X187832Y100647D01*
X187860Y100731D01*
X187860Y100755D01*
X187865Y100778D01*
X187856Y100867D01*
X187854Y100956D01*
X187845Y100978D01*
X187842Y101001D01*
X187803Y101081D01*
X187769Y101163D01*
X187753Y101181D01*
X187743Y101202D01*
X187678Y101263D01*
X187618Y101329D01*
X187597Y101340D01*
X187580Y101356D01*
X187498Y101391D01*
X187418Y101432D01*
X187392Y101435D01*
X187373Y101444D01*
X187323Y101446D01*
X187233Y101459D01*
X186033Y101459D01*
X183959Y103533D01*
X183959Y106467D01*
X186033Y108541D01*
X188967Y108541D01*
X191041Y106467D01*
X191041Y105040D01*
X191052Y104975D01*
X191054Y104909D01*
X191072Y104866D01*
X191080Y104819D01*
X191114Y104762D01*
X191139Y104702D01*
X191170Y104667D01*
X191195Y104626D01*
X191246Y104584D01*
X191290Y104536D01*
X191332Y104514D01*
X191369Y104485D01*
X191431Y104464D01*
X191490Y104433D01*
X191544Y104425D01*
X191581Y104413D01*
X191621Y104414D01*
X191675Y104406D01*
X216636Y104406D01*
X216677Y104413D01*
X216720Y104411D01*
X216787Y104433D01*
X216856Y104445D01*
X216893Y104467D01*
X216933Y104480D01*
X217006Y104534D01*
X217050Y104560D01*
X217063Y104576D01*
X217084Y104592D01*
X218533Y106041D01*
X221467Y106041D01*
X223541Y103967D01*
X223541Y101033D01*
X221706Y99198D01*
X221668Y99144D01*
X221623Y99097D01*
X221605Y99053D01*
X221578Y99014D01*
X221561Y98951D01*
X221536Y98890D01*
X221534Y98843D01*
X221522Y98797D01*
X221529Y98732D01*
X221526Y98666D01*
X221540Y98621D01*
X221545Y98574D01*
X221574Y98515D01*
X221594Y98452D01*
X221627Y98408D01*
X221644Y98373D01*
X221673Y98346D01*
X221706Y98301D01*
X223541Y96467D01*
X223541Y93533D01*
X221467Y91459D01*
X218533Y91459D01*
X216459Y93533D01*
X216459Y96467D01*
X218294Y98301D01*
X218332Y98356D01*
X218377Y98403D01*
X218395Y98447D01*
X218422Y98486D01*
X218439Y98549D01*
X218464Y98610D01*
X218466Y98657D01*
X218478Y98703D01*
X218471Y98768D01*
X218474Y98834D01*
X218460Y98879D01*
X218455Y98926D01*
X218426Y98985D01*
X218406Y99048D01*
X218373Y99092D01*
X218356Y99127D01*
X218327Y99154D01*
X218294Y99198D01*
X217084Y100408D01*
X217053Y100430D01*
X217038Y100447D01*
X217035Y100448D01*
X217021Y100464D01*
X216958Y100496D01*
X216900Y100537D01*
X216859Y100547D01*
X216821Y100567D01*
X216731Y100580D01*
X216683Y100593D01*
X216662Y100590D01*
X216636Y100594D01*
X193552Y100594D01*
X193510Y100587D01*
X193468Y100589D01*
X193401Y100567D01*
X193331Y100555D01*
X193295Y100533D01*
X193254Y100520D01*
X193182Y100466D01*
X193138Y100440D01*
X193127Y100427D01*
X193121Y100423D01*
X193117Y100418D01*
X193104Y100408D01*
X-111711Y-204406D01*
X-151636Y-204406D01*
X-151677Y-204413D01*
X-151720Y-204411D01*
X-151787Y-204433D01*
X-151856Y-204445D01*
X-151893Y-204467D01*
X-151933Y-204480D01*
X-152006Y-204534D01*
X-152050Y-204560D01*
X-152063Y-204576D01*
X-152084Y-204592D01*
X-153533Y-206041D01*
X-156467Y-206041D01*
G37*
%LPD*%
%LPC*%
G36*
X-73581Y141999D02*
X-73581Y141999D01*
X-80197Y144740D01*
X-85260Y149803D01*
X-88001Y156419D01*
X-88001Y163581D01*
X-85260Y170197D01*
X-80197Y175260D01*
X-73581Y178001D01*
X-66419Y178001D01*
X-59803Y175260D01*
X-54740Y170197D01*
X-51999Y163581D01*
X-51999Y156419D01*
X-54740Y149803D01*
X-59803Y144740D01*
X-66419Y141999D01*
X-73581Y141999D01*
G37*
%LPD*%
%LPC*%
G36*
X-3581Y141999D02*
X-3581Y141999D01*
X-10197Y144740D01*
X-15260Y149803D01*
X-18001Y156419D01*
X-18001Y163581D01*
X-15260Y170197D01*
X-10197Y175260D01*
X-3581Y178001D01*
X3581Y178001D01*
X10197Y175260D01*
X15260Y170197D01*
X18001Y163581D01*
X18001Y156419D01*
X15260Y149803D01*
X10197Y144740D01*
X3581Y141999D01*
X-3581Y141999D01*
G37*
%LPD*%
%LPC*%
G36*
X-151467Y-81041D02*
X-151467Y-81041D01*
X-153541Y-78967D01*
X-153541Y-76033D01*
X-151467Y-73959D01*
X-149417Y-73959D01*
X-149375Y-73952D01*
X-149333Y-73954D01*
X-149266Y-73932D01*
X-149196Y-73920D01*
X-149160Y-73898D01*
X-149119Y-73885D01*
X-149047Y-73831D01*
X-149003Y-73805D01*
X-148990Y-73789D01*
X-148969Y-73773D01*
X-94819Y-19623D01*
X-94768Y-19550D01*
X-94712Y-19481D01*
X-94704Y-19459D01*
X-94690Y-19439D01*
X-94668Y-19353D01*
X-94640Y-19269D01*
X-94640Y-19245D01*
X-94635Y-19222D01*
X-94644Y-19133D01*
X-94646Y-19044D01*
X-94655Y-19022D01*
X-94658Y-18999D01*
X-94697Y-18919D01*
X-94731Y-18837D01*
X-94747Y-18819D01*
X-94757Y-18798D01*
X-94822Y-18737D01*
X-94882Y-18671D01*
X-94903Y-18660D01*
X-94920Y-18644D01*
X-95002Y-18609D01*
X-95082Y-18568D01*
X-95108Y-18565D01*
X-95127Y-18556D01*
X-95177Y-18554D01*
X-95267Y-18541D01*
X-96467Y-18541D01*
X-98541Y-16467D01*
X-98541Y-13533D01*
X-96467Y-11459D01*
X-93533Y-11459D01*
X-91459Y-13533D01*
X-91459Y-14733D01*
X-91443Y-14821D01*
X-91434Y-14909D01*
X-91424Y-14930D01*
X-91420Y-14954D01*
X-91374Y-15030D01*
X-91335Y-15110D01*
X-91318Y-15127D01*
X-91305Y-15147D01*
X-91236Y-15203D01*
X-91172Y-15264D01*
X-91150Y-15273D01*
X-91131Y-15288D01*
X-91047Y-15317D01*
X-90965Y-15352D01*
X-90941Y-15353D01*
X-90919Y-15360D01*
X-90830Y-15358D01*
X-90741Y-15362D01*
X-90718Y-15354D01*
X-90694Y-15354D01*
X-90612Y-15320D01*
X-90527Y-15293D01*
X-90506Y-15277D01*
X-90487Y-15269D01*
X-90449Y-15235D01*
X-90377Y-15181D01*
X-38727Y36469D01*
X-38702Y36503D01*
X-38671Y36532D01*
X-38639Y36595D01*
X-38598Y36653D01*
X-38588Y36694D01*
X-38568Y36732D01*
X-38555Y36821D01*
X-38542Y36870D01*
X-38545Y36891D01*
X-38541Y36917D01*
X-38541Y38967D01*
X-36467Y41041D01*
X-33533Y41041D01*
X-31459Y38967D01*
X-31459Y36033D01*
X-33533Y33959D01*
X-35583Y33959D01*
X-35625Y33952D01*
X-35667Y33954D01*
X-35734Y33932D01*
X-35804Y33920D01*
X-35840Y33898D01*
X-35881Y33885D01*
X-35953Y33831D01*
X-35997Y33805D01*
X-36010Y33789D01*
X-36031Y33773D01*
X-146273Y-76469D01*
X-146298Y-76503D01*
X-146329Y-76532D01*
X-146361Y-76595D01*
X-146402Y-76653D01*
X-146412Y-76694D01*
X-146432Y-76732D01*
X-146445Y-76821D01*
X-146458Y-76870D01*
X-146455Y-76891D01*
X-146459Y-76917D01*
X-146459Y-78967D01*
X-148533Y-81041D01*
X-151467Y-81041D01*
G37*
%LPD*%
%LPC*%
G36*
X44414Y-263001D02*
X44414Y-263001D01*
X39636Y-261021D01*
X35979Y-257364D01*
X33999Y-252586D01*
X33999Y-247414D01*
X35979Y-242636D01*
X39636Y-238979D01*
X44414Y-236999D01*
X49586Y-236999D01*
X54364Y-238979D01*
X58021Y-242636D01*
X60001Y-247414D01*
X60001Y-252586D01*
X58021Y-257364D01*
X54364Y-261021D01*
X49586Y-263001D01*
X44414Y-263001D01*
G37*
%LPD*%
%LPC*%
G36*
X-69586Y-263001D02*
X-69586Y-263001D01*
X-74364Y-261021D01*
X-78021Y-257364D01*
X-80001Y-252586D01*
X-80001Y-247414D01*
X-78021Y-242636D01*
X-74364Y-238979D01*
X-69586Y-236999D01*
X-64414Y-236999D01*
X-59636Y-238979D01*
X-55979Y-242636D01*
X-53999Y-247414D01*
X-53999Y-252586D01*
X-55979Y-257364D01*
X-59636Y-261021D01*
X-64414Y-263001D01*
X-69586Y-263001D01*
G37*
%LPD*%
%LPC*%
G36*
X-387586Y211999D02*
X-387586Y211999D01*
X-392364Y213979D01*
X-396021Y217636D01*
X-398001Y222414D01*
X-398001Y227586D01*
X-396021Y232364D01*
X-392364Y236021D01*
X-387586Y238001D01*
X-382414Y238001D01*
X-377636Y236021D01*
X-373979Y232364D01*
X-371999Y227586D01*
X-371999Y222414D01*
X-373979Y217636D01*
X-377636Y213979D01*
X-382414Y211999D01*
X-387586Y211999D01*
G37*
%LPD*%
%LPC*%
G36*
X362414Y211999D02*
X362414Y211999D01*
X357636Y213979D01*
X353979Y217636D01*
X351999Y222414D01*
X351999Y227586D01*
X353979Y232364D01*
X357636Y236021D01*
X362414Y238001D01*
X367586Y238001D01*
X372364Y236021D01*
X376021Y232364D01*
X378001Y227586D01*
X378001Y222414D01*
X376021Y217636D01*
X372364Y213979D01*
X367586Y211999D01*
X362414Y211999D01*
G37*
%LPD*%
%LPC*%
G36*
X-387586Y-98001D02*
X-387586Y-98001D01*
X-392364Y-96021D01*
X-396021Y-92364D01*
X-398001Y-87586D01*
X-398001Y-82414D01*
X-396021Y-77636D01*
X-392364Y-73979D01*
X-387586Y-71999D01*
X-382414Y-71999D01*
X-377636Y-73979D01*
X-373979Y-77636D01*
X-371999Y-82414D01*
X-371999Y-87586D01*
X-373979Y-92364D01*
X-377636Y-96021D01*
X-382414Y-98001D01*
X-387586Y-98001D01*
G37*
%LPD*%
%LPC*%
G36*
X362414Y-98001D02*
X362414Y-98001D01*
X357636Y-96021D01*
X353979Y-92364D01*
X351999Y-87586D01*
X351999Y-82414D01*
X353979Y-77636D01*
X357636Y-73979D01*
X362414Y-71999D01*
X367586Y-71999D01*
X372364Y-73979D01*
X376021Y-77636D01*
X378001Y-82414D01*
X378001Y-87586D01*
X376021Y-92364D01*
X372364Y-96021D01*
X367586Y-98001D01*
X362414Y-98001D01*
G37*
%LPD*%
%LPC*%
G36*
X-37192Y-191021D02*
X-37192Y-191021D01*
X-41243Y-189343D01*
X-44343Y-186243D01*
X-46021Y-182192D01*
X-46021Y-177808D01*
X-44343Y-173757D01*
X-41243Y-170657D01*
X-37192Y-168979D01*
X-32808Y-168979D01*
X-28757Y-170657D01*
X-25657Y-173757D01*
X-23979Y-177808D01*
X-23979Y-182192D01*
X-25657Y-186243D01*
X-28757Y-189343D01*
X-32808Y-191021D01*
X-37192Y-191021D01*
G37*
%LPD*%
%LPC*%
G36*
X12808Y-191021D02*
X12808Y-191021D01*
X8757Y-189343D01*
X5657Y-186243D01*
X3979Y-182192D01*
X3979Y-177808D01*
X5657Y-173757D01*
X8757Y-170657D01*
X12808Y-168979D01*
X17192Y-168979D01*
X21243Y-170657D01*
X24343Y-173757D01*
X26021Y-177808D01*
X26021Y-182192D01*
X24343Y-186243D01*
X21243Y-189343D01*
X17192Y-191021D01*
X12808Y-191021D01*
G37*
%LPD*%
%LPC*%
G36*
X12808Y-336021D02*
X12808Y-336021D01*
X8757Y-334343D01*
X5657Y-331243D01*
X3979Y-327192D01*
X3979Y-322808D01*
X5657Y-318757D01*
X8757Y-315657D01*
X12808Y-313979D01*
X17192Y-313979D01*
X21243Y-315657D01*
X24343Y-318757D01*
X26021Y-322808D01*
X26021Y-327192D01*
X24343Y-331243D01*
X21243Y-334343D01*
X17192Y-336021D01*
X12808Y-336021D01*
G37*
%LPD*%
%LPC*%
G36*
X-37192Y-336021D02*
X-37192Y-336021D01*
X-41243Y-334343D01*
X-44343Y-331243D01*
X-46021Y-327192D01*
X-46021Y-322808D01*
X-44343Y-318757D01*
X-41243Y-315657D01*
X-37192Y-313979D01*
X-32808Y-313979D01*
X-28757Y-315657D01*
X-25657Y-318757D01*
X-23979Y-322808D01*
X-23979Y-327192D01*
X-25657Y-331243D01*
X-28757Y-334343D01*
X-32808Y-336021D01*
X-37192Y-336021D01*
G37*
%LPD*%
%LPC*%
G36*
X-12192Y-336021D02*
X-12192Y-336021D01*
X-16243Y-334343D01*
X-19343Y-331243D01*
X-21021Y-327192D01*
X-21021Y-322808D01*
X-19343Y-318757D01*
X-16243Y-315657D01*
X-12192Y-313979D01*
X-7808Y-313979D01*
X-3757Y-315657D01*
X-657Y-318757D01*
X1021Y-322808D01*
X1021Y-327192D01*
X-657Y-331243D01*
X-3757Y-334343D01*
X-7808Y-336021D01*
X-12192Y-336021D01*
G37*
%LPD*%
%LPC*%
G36*
X-171894Y163179D02*
X-171894Y163179D01*
X-175393Y164629D01*
X-178071Y167307D01*
X-179521Y170806D01*
X-179521Y174594D01*
X-178071Y178093D01*
X-175393Y180771D01*
X-171894Y182221D01*
X-168106Y182221D01*
X-164607Y180771D01*
X-161929Y178093D01*
X-160479Y174594D01*
X-160479Y170806D01*
X-161929Y167307D01*
X-164607Y164629D01*
X-168106Y163179D01*
X-171894Y163179D01*
G37*
%LPD*%
%LPC*%
G36*
X-171894Y137779D02*
X-171894Y137779D01*
X-175393Y139229D01*
X-178071Y141907D01*
X-179521Y145406D01*
X-179521Y149194D01*
X-178071Y152693D01*
X-175393Y155371D01*
X-171894Y156821D01*
X-168106Y156821D01*
X-164607Y155371D01*
X-161929Y152693D01*
X-160479Y149194D01*
X-160479Y145406D01*
X-161929Y141907D01*
X-164607Y139229D01*
X-168106Y137779D01*
X-171894Y137779D01*
G37*
%LPD*%
%LPC*%
G36*
X8255Y-148771D02*
X8255Y-148771D01*
X5032Y-147435D01*
X2565Y-144968D01*
X1229Y-141745D01*
X1229Y-138255D01*
X2565Y-135032D01*
X5032Y-132565D01*
X8255Y-131229D01*
X11745Y-131229D01*
X14968Y-132565D01*
X17435Y-135032D01*
X18771Y-138255D01*
X18771Y-141745D01*
X17435Y-144968D01*
X14968Y-147435D01*
X11745Y-148771D01*
X8255Y-148771D01*
G37*
%LPD*%
%LPC*%
G36*
X-71745Y-148771D02*
X-71745Y-148771D01*
X-74968Y-147435D01*
X-77435Y-144968D01*
X-78771Y-141745D01*
X-78771Y-138255D01*
X-77435Y-135032D01*
X-74968Y-132565D01*
X-71745Y-131229D01*
X-68255Y-131229D01*
X-65032Y-132565D01*
X-62565Y-135032D01*
X-61229Y-138255D01*
X-61229Y-141745D01*
X-62565Y-144968D01*
X-65032Y-147435D01*
X-68255Y-148771D01*
X-71745Y-148771D01*
G37*
%LPD*%
%LPC*%
G36*
X48255Y-148771D02*
X48255Y-148771D01*
X45032Y-147435D01*
X42565Y-144968D01*
X41229Y-141745D01*
X41229Y-138255D01*
X42565Y-135032D01*
X45032Y-132565D01*
X48255Y-131229D01*
X51745Y-131229D01*
X54968Y-132565D01*
X57435Y-135032D01*
X58771Y-138255D01*
X58771Y-141745D01*
X57435Y-144968D01*
X54968Y-147435D01*
X51745Y-148771D01*
X48255Y-148771D01*
G37*
%LPD*%
%LPC*%
G36*
X-411595Y171479D02*
X-411595Y171479D01*
X-414543Y172700D01*
X-416800Y174957D01*
X-418021Y177905D01*
X-418021Y181095D01*
X-416800Y184043D01*
X-414543Y186300D01*
X-411595Y187521D01*
X-408405Y187521D01*
X-405457Y186300D01*
X-403200Y184043D01*
X-401979Y181095D01*
X-401979Y177905D01*
X-403200Y174957D01*
X-405457Y172700D01*
X-408405Y171479D01*
X-411595Y171479D01*
G37*
%LPD*%
%LPC*%
G36*
X388405Y171979D02*
X388405Y171979D01*
X385457Y173200D01*
X383200Y175457D01*
X381979Y178405D01*
X381979Y181595D01*
X383200Y184543D01*
X385457Y186800D01*
X388405Y188021D01*
X391595Y188021D01*
X394543Y186800D01*
X396800Y184543D01*
X398021Y181595D01*
X398021Y178405D01*
X396800Y175457D01*
X394543Y173200D01*
X391595Y171979D01*
X388405Y171979D01*
G37*
%LPD*%
%LPC*%
G36*
X388405Y91979D02*
X388405Y91979D01*
X385457Y93200D01*
X383200Y95457D01*
X381979Y98405D01*
X381979Y101595D01*
X383200Y104543D01*
X385457Y106800D01*
X388405Y108021D01*
X391595Y108021D01*
X394543Y106800D01*
X396800Y104543D01*
X398021Y101595D01*
X398021Y98405D01*
X396800Y95457D01*
X394543Y93200D01*
X391595Y91979D01*
X388405Y91979D01*
G37*
%LPD*%
%LPC*%
G36*
X-411595Y91479D02*
X-411595Y91479D01*
X-414543Y92700D01*
X-416800Y94957D01*
X-418021Y97905D01*
X-418021Y101095D01*
X-416800Y104043D01*
X-414543Y106300D01*
X-411595Y107521D01*
X-408405Y107521D01*
X-405457Y106300D01*
X-403200Y104043D01*
X-401979Y101095D01*
X-401979Y97905D01*
X-403200Y94957D01*
X-405457Y92700D01*
X-408405Y91479D01*
X-411595Y91479D01*
G37*
%LPD*%
%LPC*%
G36*
X-411595Y111479D02*
X-411595Y111479D01*
X-414543Y112700D01*
X-416800Y114957D01*
X-418021Y117905D01*
X-418021Y121095D01*
X-416800Y124043D01*
X-414543Y126300D01*
X-411595Y127521D01*
X-408405Y127521D01*
X-405457Y126300D01*
X-403200Y124043D01*
X-401979Y121095D01*
X-401979Y117905D01*
X-403200Y114957D01*
X-405457Y112700D01*
X-408405Y111479D01*
X-411595Y111479D01*
G37*
%LPD*%
%LPC*%
G36*
X388405Y111979D02*
X388405Y111979D01*
X385457Y113200D01*
X383200Y115457D01*
X381979Y118405D01*
X381979Y121595D01*
X383200Y124543D01*
X385457Y126800D01*
X388405Y128021D01*
X391595Y128021D01*
X394543Y126800D01*
X396800Y124543D01*
X398021Y121595D01*
X398021Y118405D01*
X396800Y115457D01*
X394543Y113200D01*
X391595Y111979D01*
X388405Y111979D01*
G37*
%LPD*%
%LPC*%
G36*
X388405Y71979D02*
X388405Y71979D01*
X385457Y73200D01*
X383200Y75457D01*
X381979Y78405D01*
X381979Y81595D01*
X383200Y84543D01*
X385457Y86800D01*
X388405Y88021D01*
X391595Y88021D01*
X394543Y86800D01*
X396800Y84543D01*
X398021Y81595D01*
X398021Y78405D01*
X396800Y75457D01*
X394543Y73200D01*
X391595Y71979D01*
X388405Y71979D01*
G37*
%LPD*%
%LPC*%
G36*
X-411595Y71479D02*
X-411595Y71479D01*
X-414543Y72700D01*
X-416800Y74957D01*
X-418021Y77905D01*
X-418021Y81095D01*
X-416800Y84043D01*
X-414543Y86300D01*
X-411595Y87521D01*
X-408405Y87521D01*
X-405457Y86300D01*
X-403200Y84043D01*
X-401979Y81095D01*
X-401979Y77905D01*
X-403200Y74957D01*
X-405457Y72700D01*
X-408405Y71479D01*
X-411595Y71479D01*
G37*
%LPD*%
%LPC*%
G36*
X388405Y51979D02*
X388405Y51979D01*
X385457Y53200D01*
X383200Y55457D01*
X381979Y58405D01*
X381979Y61595D01*
X383200Y64543D01*
X385457Y66800D01*
X388405Y68021D01*
X391595Y68021D01*
X394543Y66800D01*
X396800Y64543D01*
X398021Y61595D01*
X398021Y58405D01*
X396800Y55457D01*
X394543Y53200D01*
X391595Y51979D01*
X388405Y51979D01*
G37*
%LPD*%
%LPC*%
G36*
X-411595Y-48521D02*
X-411595Y-48521D01*
X-414543Y-47300D01*
X-416800Y-45043D01*
X-418021Y-42095D01*
X-418021Y-38905D01*
X-416800Y-35957D01*
X-414543Y-33700D01*
X-411595Y-32479D01*
X-408405Y-32479D01*
X-405457Y-33700D01*
X-403200Y-35957D01*
X-401979Y-38905D01*
X-401979Y-42095D01*
X-403200Y-45043D01*
X-405457Y-47300D01*
X-408405Y-48521D01*
X-411595Y-48521D01*
G37*
%LPD*%
%LPC*%
G36*
X388405Y-48021D02*
X388405Y-48021D01*
X385457Y-46800D01*
X383200Y-44543D01*
X381979Y-41595D01*
X381979Y-38405D01*
X383200Y-35457D01*
X385457Y-33200D01*
X388405Y-31979D01*
X391595Y-31979D01*
X394543Y-33200D01*
X396800Y-35457D01*
X398021Y-38405D01*
X398021Y-41595D01*
X396800Y-44543D01*
X394543Y-46800D01*
X391595Y-48021D01*
X388405Y-48021D01*
G37*
%LPD*%
%LPC*%
G36*
X388405Y151979D02*
X388405Y151979D01*
X385457Y153200D01*
X383200Y155457D01*
X381979Y158405D01*
X381979Y161595D01*
X383200Y164543D01*
X385457Y166800D01*
X388405Y168021D01*
X391595Y168021D01*
X394543Y166800D01*
X396800Y164543D01*
X398021Y161595D01*
X398021Y158405D01*
X396800Y155457D01*
X394543Y153200D01*
X391595Y151979D01*
X388405Y151979D01*
G37*
%LPD*%
%LPC*%
G36*
X-411595Y151479D02*
X-411595Y151479D01*
X-414543Y152700D01*
X-416800Y154957D01*
X-418021Y157905D01*
X-418021Y161095D01*
X-416800Y164043D01*
X-414543Y166300D01*
X-411595Y167521D01*
X-408405Y167521D01*
X-405457Y166300D01*
X-403200Y164043D01*
X-401979Y161095D01*
X-401979Y157905D01*
X-403200Y154957D01*
X-405457Y152700D01*
X-408405Y151479D01*
X-411595Y151479D01*
G37*
%LPD*%
%LPC*%
G36*
X-411595Y51479D02*
X-411595Y51479D01*
X-414543Y52700D01*
X-416800Y54957D01*
X-418021Y57905D01*
X-418021Y61095D01*
X-416800Y64043D01*
X-414543Y66300D01*
X-411595Y67521D01*
X-408405Y67521D01*
X-405457Y66300D01*
X-403200Y64043D01*
X-401979Y61095D01*
X-401979Y57905D01*
X-403200Y54957D01*
X-405457Y52700D01*
X-408405Y51479D01*
X-411595Y51479D01*
G37*
%LPD*%
%LPC*%
G36*
X-411595Y-28521D02*
X-411595Y-28521D01*
X-414543Y-27300D01*
X-416800Y-25043D01*
X-418021Y-22095D01*
X-418021Y-18905D01*
X-416800Y-15957D01*
X-414543Y-13700D01*
X-411595Y-12479D01*
X-408405Y-12479D01*
X-405457Y-13700D01*
X-403200Y-15957D01*
X-401979Y-18905D01*
X-401979Y-22095D01*
X-403200Y-25043D01*
X-405457Y-27300D01*
X-408405Y-28521D01*
X-411595Y-28521D01*
G37*
%LPD*%
%LPC*%
G36*
X388405Y-28021D02*
X388405Y-28021D01*
X385457Y-26800D01*
X383200Y-24543D01*
X381979Y-21595D01*
X381979Y-18405D01*
X383200Y-15457D01*
X385457Y-13200D01*
X388405Y-11979D01*
X391595Y-11979D01*
X394543Y-13200D01*
X396800Y-15457D01*
X398021Y-18405D01*
X398021Y-21595D01*
X396800Y-24543D01*
X394543Y-26800D01*
X391595Y-28021D01*
X388405Y-28021D01*
G37*
%LPD*%
%LPC*%
G36*
X388405Y31979D02*
X388405Y31979D01*
X385457Y33200D01*
X383200Y35457D01*
X381979Y38405D01*
X381979Y41595D01*
X383200Y44543D01*
X385457Y46800D01*
X388405Y48021D01*
X391595Y48021D01*
X394543Y46800D01*
X396800Y44543D01*
X398021Y41595D01*
X398021Y38405D01*
X396800Y35457D01*
X394543Y33200D01*
X391595Y31979D01*
X388405Y31979D01*
G37*
%LPD*%
%LPC*%
G36*
X-411595Y31479D02*
X-411595Y31479D01*
X-414543Y32700D01*
X-416800Y34957D01*
X-418021Y37905D01*
X-418021Y41095D01*
X-416800Y44043D01*
X-414543Y46300D01*
X-411595Y47521D01*
X-408405Y47521D01*
X-405457Y46300D01*
X-403200Y44043D01*
X-401979Y41095D01*
X-401979Y37905D01*
X-403200Y34957D01*
X-405457Y32700D01*
X-408405Y31479D01*
X-411595Y31479D01*
G37*
%LPD*%
%LPC*%
G36*
X-411595Y11479D02*
X-411595Y11479D01*
X-414543Y12700D01*
X-416800Y14957D01*
X-418021Y17905D01*
X-418021Y21095D01*
X-416800Y24043D01*
X-414543Y26300D01*
X-411595Y27521D01*
X-408405Y27521D01*
X-405457Y26300D01*
X-403200Y24043D01*
X-401979Y21095D01*
X-401979Y17905D01*
X-403200Y14957D01*
X-405457Y12700D01*
X-408405Y11479D01*
X-411595Y11479D01*
G37*
%LPD*%
%LPC*%
G36*
X-411595Y131479D02*
X-411595Y131479D01*
X-414543Y132700D01*
X-416800Y134957D01*
X-418021Y137905D01*
X-418021Y141095D01*
X-416800Y144043D01*
X-414543Y146300D01*
X-411595Y147521D01*
X-408405Y147521D01*
X-405457Y146300D01*
X-403200Y144043D01*
X-401979Y141095D01*
X-401979Y137905D01*
X-403200Y134957D01*
X-405457Y132700D01*
X-408405Y131479D01*
X-411595Y131479D01*
G37*
%LPD*%
%LPC*%
G36*
X388405Y131979D02*
X388405Y131979D01*
X385457Y133200D01*
X383200Y135457D01*
X381979Y138405D01*
X381979Y141595D01*
X383200Y144543D01*
X385457Y146800D01*
X388405Y148021D01*
X391595Y148021D01*
X394543Y146800D01*
X396800Y144543D01*
X398021Y141595D01*
X398021Y138405D01*
X396800Y135457D01*
X394543Y133200D01*
X391595Y131979D01*
X388405Y131979D01*
G37*
%LPD*%
%LPC*%
G36*
X388405Y11979D02*
X388405Y11979D01*
X385457Y13200D01*
X383200Y15457D01*
X381979Y18405D01*
X381979Y21595D01*
X383200Y24543D01*
X385457Y26800D01*
X388405Y28021D01*
X391595Y28021D01*
X394543Y26800D01*
X396800Y24543D01*
X398021Y21595D01*
X398021Y18405D01*
X396800Y15457D01*
X394543Y13200D01*
X391595Y11979D01*
X388405Y11979D01*
G37*
%LPD*%
%LPC*%
G36*
X-411595Y-8521D02*
X-411595Y-8521D01*
X-414543Y-7300D01*
X-416800Y-5043D01*
X-418021Y-2095D01*
X-418021Y1095D01*
X-416800Y4043D01*
X-414543Y6300D01*
X-411595Y7521D01*
X-408405Y7521D01*
X-405457Y6300D01*
X-403200Y4043D01*
X-401979Y1095D01*
X-401979Y-2095D01*
X-403200Y-5043D01*
X-405457Y-7300D01*
X-408405Y-8521D01*
X-411595Y-8521D01*
G37*
%LPD*%
%LPC*%
G36*
X388405Y-8021D02*
X388405Y-8021D01*
X385457Y-6800D01*
X383200Y-4543D01*
X381979Y-1595D01*
X381979Y1595D01*
X383200Y4543D01*
X385457Y6800D01*
X388405Y8021D01*
X391595Y8021D01*
X394543Y6800D01*
X396800Y4543D01*
X398021Y1595D01*
X398021Y-1595D01*
X396800Y-4543D01*
X394543Y-6800D01*
X391595Y-8021D01*
X388405Y-8021D01*
G37*
%LPD*%
%LPC*%
G36*
X58158Y86049D02*
X58158Y86049D01*
X55554Y88653D01*
X55554Y92336D01*
X57769Y94551D01*
X57807Y94606D01*
X57852Y94653D01*
X57870Y94697D01*
X57897Y94736D01*
X57914Y94799D01*
X57939Y94860D01*
X57942Y94907D01*
X57953Y94953D01*
X57947Y95018D01*
X57949Y95084D01*
X57935Y95129D01*
X57930Y95176D01*
X57901Y95235D01*
X57881Y95298D01*
X57848Y95342D01*
X57831Y95377D01*
X57802Y95404D01*
X57769Y95448D01*
X55554Y97663D01*
X55554Y101347D01*
X58158Y103951D01*
X61842Y103951D01*
X64446Y101347D01*
X64446Y97663D01*
X62231Y95448D01*
X62193Y95394D01*
X62148Y95347D01*
X62130Y95303D01*
X62103Y95264D01*
X62086Y95201D01*
X62061Y95140D01*
X62058Y95093D01*
X62047Y95047D01*
X62053Y94982D01*
X62051Y94916D01*
X62065Y94871D01*
X62070Y94824D01*
X62099Y94765D01*
X62119Y94702D01*
X62152Y94658D01*
X62169Y94623D01*
X62198Y94596D01*
X62231Y94551D01*
X64446Y92336D01*
X64446Y88653D01*
X61842Y86049D01*
X58158Y86049D01*
G37*
%LPD*%
%LPC*%
G36*
X73533Y86459D02*
X73533Y86459D01*
X71459Y88533D01*
X71459Y91467D01*
X73533Y93541D01*
X76467Y93541D01*
X77808Y92199D01*
X77862Y92162D01*
X77910Y92117D01*
X77954Y92098D01*
X77992Y92071D01*
X78056Y92055D01*
X78117Y92029D01*
X78164Y92027D01*
X78210Y92015D01*
X78275Y92022D01*
X78341Y92019D01*
X78386Y92034D01*
X78433Y92038D01*
X78492Y92068D01*
X78554Y92088D01*
X78599Y92120D01*
X78634Y92138D01*
X78661Y92167D01*
X78705Y92199D01*
X81067Y94561D01*
X84223Y94561D01*
X86456Y92328D01*
X86456Y89172D01*
X84223Y86939D01*
X81067Y86939D01*
X79455Y88551D01*
X79401Y88588D01*
X79353Y88633D01*
X79310Y88652D01*
X79271Y88679D01*
X79207Y88695D01*
X79147Y88721D01*
X79099Y88723D01*
X79054Y88735D01*
X78988Y88728D01*
X78922Y88731D01*
X78877Y88716D01*
X78830Y88712D01*
X78771Y88682D01*
X78709Y88662D01*
X78665Y88630D01*
X78629Y88612D01*
X78602Y88583D01*
X78558Y88551D01*
X76467Y86459D01*
X73533Y86459D01*
G37*
%LPD*%
%LPC*%
G36*
X253533Y176459D02*
X253533Y176459D01*
X251459Y178533D01*
X251459Y181467D01*
X253533Y183541D01*
X254229Y183541D01*
X254317Y183556D01*
X254405Y183566D01*
X254426Y183576D01*
X254450Y183580D01*
X254527Y183626D01*
X254606Y183665D01*
X254622Y183682D01*
X254643Y183695D01*
X254699Y183764D01*
X254760Y183828D01*
X254769Y183850D01*
X254784Y183869D01*
X254813Y183953D01*
X254848Y184035D01*
X254849Y184059D01*
X254856Y184081D01*
X254854Y184170D01*
X254858Y184259D01*
X254850Y184282D01*
X254850Y184306D01*
X254816Y184388D01*
X254789Y184473D01*
X254773Y184494D01*
X254765Y184513D01*
X254731Y184551D01*
X254677Y184623D01*
X253689Y185612D01*
X253689Y188768D01*
X255922Y191001D01*
X259078Y191001D01*
X261311Y188768D01*
X261311Y185612D01*
X259078Y183379D01*
X258159Y183379D01*
X258072Y183364D01*
X257983Y183354D01*
X257962Y183344D01*
X257938Y183340D01*
X257862Y183294D01*
X257782Y183255D01*
X257766Y183238D01*
X257745Y183225D01*
X257689Y183156D01*
X257628Y183092D01*
X257619Y183070D01*
X257604Y183051D01*
X257575Y182967D01*
X257541Y182885D01*
X257540Y182861D01*
X257532Y182839D01*
X257535Y182750D01*
X257531Y182661D01*
X257538Y182638D01*
X257539Y182614D01*
X257572Y182532D01*
X257599Y182447D01*
X257615Y182426D01*
X257623Y182407D01*
X257657Y182369D01*
X257711Y182297D01*
X258541Y181467D01*
X258541Y178533D01*
X256467Y176459D01*
X253533Y176459D01*
G37*
%LPD*%
%LPC*%
G36*
X275922Y108999D02*
X275922Y108999D01*
X273689Y111232D01*
X273689Y114388D01*
X275922Y116621D01*
X278325Y116621D01*
X278390Y116632D01*
X278456Y116634D01*
X278499Y116652D01*
X278546Y116660D01*
X278603Y116694D01*
X278663Y116719D01*
X278698Y116750D01*
X278739Y116775D01*
X278781Y116826D01*
X278829Y116870D01*
X278851Y116912D01*
X278880Y116949D01*
X278901Y117011D01*
X278932Y117070D01*
X278940Y117124D01*
X278952Y117161D01*
X278951Y117201D01*
X278959Y117255D01*
X278959Y118967D01*
X281033Y121041D01*
X283967Y121041D01*
X286041Y118967D01*
X286041Y116033D01*
X283967Y113959D01*
X281945Y113959D01*
X281880Y113948D01*
X281814Y113946D01*
X281771Y113928D01*
X281724Y113920D01*
X281667Y113886D01*
X281607Y113861D01*
X281572Y113830D01*
X281531Y113805D01*
X281489Y113754D01*
X281441Y113710D01*
X281419Y113668D01*
X281390Y113631D01*
X281369Y113569D01*
X281338Y113510D01*
X281330Y113456D01*
X281318Y113419D01*
X281319Y113379D01*
X281311Y113325D01*
X281311Y111232D01*
X279078Y108999D01*
X275922Y108999D01*
G37*
%LPD*%
%LPC*%
G36*
X286033Y-28541D02*
X286033Y-28541D01*
X283959Y-26467D01*
X283959Y-23533D01*
X286033Y-21459D01*
X288967Y-21459D01*
X290377Y-22869D01*
X290450Y-22920D01*
X290519Y-22976D01*
X290541Y-22984D01*
X290561Y-22997D01*
X290647Y-23019D01*
X290731Y-23048D01*
X290755Y-23047D01*
X290778Y-23053D01*
X290867Y-23044D01*
X290956Y-23041D01*
X290978Y-23032D01*
X291001Y-23030D01*
X291081Y-22990D01*
X291163Y-22957D01*
X291181Y-22941D01*
X291202Y-22931D01*
X291263Y-22866D01*
X291329Y-22806D01*
X291340Y-22785D01*
X291356Y-22767D01*
X291391Y-22685D01*
X291432Y-22606D01*
X291435Y-22580D01*
X291444Y-22561D01*
X291446Y-22510D01*
X291459Y-22421D01*
X291459Y-21033D01*
X293533Y-18959D01*
X296467Y-18959D01*
X298541Y-21033D01*
X298541Y-23967D01*
X296467Y-26041D01*
X293533Y-26041D01*
X292123Y-24631D01*
X292050Y-24580D01*
X291981Y-24524D01*
X291959Y-24516D01*
X291939Y-24503D01*
X291853Y-24481D01*
X291769Y-24452D01*
X291745Y-24453D01*
X291722Y-24447D01*
X291633Y-24456D01*
X291544Y-24459D01*
X291522Y-24468D01*
X291499Y-24470D01*
X291419Y-24510D01*
X291337Y-24543D01*
X291319Y-24559D01*
X291298Y-24569D01*
X291237Y-24634D01*
X291171Y-24694D01*
X291160Y-24715D01*
X291144Y-24733D01*
X291109Y-24815D01*
X291068Y-24894D01*
X291065Y-24920D01*
X291056Y-24939D01*
X291054Y-24990D01*
X291041Y-25079D01*
X291041Y-26467D01*
X288967Y-28541D01*
X286033Y-28541D01*
G37*
%LPD*%
%LPC*%
G36*
X-311842Y196049D02*
X-311842Y196049D01*
X-314446Y198653D01*
X-314446Y202337D01*
X-311842Y204941D01*
X-308158Y204941D01*
X-305554Y202337D01*
X-305554Y198653D01*
X-308158Y196049D01*
X-311842Y196049D01*
G37*
%LPD*%
%LPC*%
G36*
X-241842Y68209D02*
X-241842Y68209D01*
X-244446Y70813D01*
X-244446Y74497D01*
X-241842Y77101D01*
X-238158Y77101D01*
X-235554Y74497D01*
X-235554Y70813D01*
X-238158Y68209D01*
X-241842Y68209D01*
G37*
%LPD*%
%LPC*%
G36*
X-270787Y-276946D02*
X-270787Y-276946D01*
X-273391Y-274342D01*
X-273391Y-270658D01*
X-270787Y-268054D01*
X-267103Y-268054D01*
X-264499Y-270658D01*
X-264499Y-274342D01*
X-267103Y-276946D01*
X-270787Y-276946D01*
G37*
%LPD*%
%LPC*%
G36*
X-271842Y128209D02*
X-271842Y128209D01*
X-274446Y130813D01*
X-274446Y134497D01*
X-271842Y137101D01*
X-268158Y137101D01*
X-265554Y134497D01*
X-265554Y130813D01*
X-268158Y128209D01*
X-271842Y128209D01*
G37*
%LPD*%
%LPC*%
G36*
X-302342Y128110D02*
X-302342Y128110D01*
X-304946Y130714D01*
X-304946Y134398D01*
X-302342Y137002D01*
X-298658Y137002D01*
X-296054Y134398D01*
X-296054Y130714D01*
X-298658Y128110D01*
X-302342Y128110D01*
G37*
%LPD*%
%LPC*%
G36*
X-302342Y102108D02*
X-302342Y102108D01*
X-304946Y104712D01*
X-304946Y108396D01*
X-302342Y111000D01*
X-298658Y111000D01*
X-296054Y108396D01*
X-296054Y104712D01*
X-298658Y102108D01*
X-302342Y102108D01*
G37*
%LPD*%
%LPC*%
G36*
X80168Y125304D02*
X80168Y125304D01*
X77564Y127908D01*
X77564Y131592D01*
X80168Y134196D01*
X83852Y134196D01*
X86456Y131592D01*
X86456Y127908D01*
X83852Y125304D01*
X80168Y125304D01*
G37*
%LPD*%
%LPC*%
G36*
X-241842Y122899D02*
X-241842Y122899D01*
X-244446Y125503D01*
X-244446Y129187D01*
X-241842Y131791D01*
X-238158Y131791D01*
X-235554Y129187D01*
X-235554Y125503D01*
X-238158Y122899D01*
X-241842Y122899D01*
G37*
%LPD*%
%LPC*%
G36*
X-149287Y143054D02*
X-149287Y143054D01*
X-151891Y145658D01*
X-151891Y149342D01*
X-149287Y151946D01*
X-145603Y151946D01*
X-142999Y149342D01*
X-142999Y145658D01*
X-145603Y143054D01*
X-149287Y143054D01*
G37*
%LPD*%
%LPC*%
G36*
X-271842Y182899D02*
X-271842Y182899D01*
X-274446Y185503D01*
X-274446Y189187D01*
X-271842Y191791D01*
X-268158Y191791D01*
X-265554Y189187D01*
X-265554Y185503D01*
X-268158Y182899D01*
X-271842Y182899D01*
G37*
%LPD*%
%LPC*%
G36*
X-98842Y279359D02*
X-98842Y279359D01*
X-101446Y281963D01*
X-101446Y285647D01*
X-98842Y288251D01*
X-95158Y288251D01*
X-92554Y285647D01*
X-92554Y281963D01*
X-95158Y279359D01*
X-98842Y279359D01*
G37*
%LPD*%
%LPC*%
G36*
X-413842Y-266891D02*
X-413842Y-266891D01*
X-416446Y-264287D01*
X-416446Y-260603D01*
X-413842Y-257999D01*
X-410158Y-257999D01*
X-407554Y-260603D01*
X-407554Y-264287D01*
X-410158Y-266891D01*
X-413842Y-266891D01*
G37*
%LPD*%
%LPC*%
G36*
X-194397Y143054D02*
X-194397Y143054D01*
X-197001Y145658D01*
X-197001Y149342D01*
X-194397Y151946D01*
X-190713Y151946D01*
X-188109Y149342D01*
X-188109Y145658D01*
X-190713Y143054D01*
X-194397Y143054D01*
G37*
%LPD*%
%LPC*%
G36*
X-377397Y-279446D02*
X-377397Y-279446D01*
X-380001Y-276842D01*
X-380001Y-273158D01*
X-377397Y-270554D01*
X-373713Y-270554D01*
X-371109Y-273158D01*
X-371109Y-276842D01*
X-373713Y-279446D01*
X-377397Y-279446D01*
G37*
%LPD*%
%LPC*%
G36*
X-32351Y-149794D02*
X-32351Y-149794D01*
X-33854Y-149305D01*
X-35262Y-148588D01*
X-36541Y-147659D01*
X-37659Y-146541D01*
X-38588Y-145262D01*
X-39305Y-143854D01*
X-39794Y-142351D01*
X-39965Y-141269D01*
X-31269Y-141269D01*
X-31269Y-149965D01*
X-32351Y-149794D01*
G37*
%LPD*%
%LPC*%
G36*
X-39965Y-138731D02*
X-39965Y-138731D01*
X-39794Y-137649D01*
X-39305Y-136146D01*
X-38588Y-134738D01*
X-37659Y-133459D01*
X-36541Y-132341D01*
X-35262Y-131412D01*
X-33854Y-130695D01*
X-32351Y-130206D01*
X-31269Y-130035D01*
X-31269Y-138731D01*
X-39965Y-138731D01*
G37*
%LPD*%
%LPC*%
G36*
X-28731Y-141269D02*
X-28731Y-141269D01*
X-20035Y-141269D01*
X-20206Y-142351D01*
X-20695Y-143854D01*
X-21412Y-145262D01*
X-22341Y-146541D01*
X-23459Y-147659D01*
X-24738Y-148588D01*
X-26146Y-149305D01*
X-27649Y-149794D01*
X-28731Y-149965D01*
X-28731Y-141269D01*
G37*
%LPD*%
%LPC*%
G36*
X-28731Y-138731D02*
X-28731Y-138731D01*
X-28731Y-130035D01*
X-27649Y-130206D01*
X-26146Y-130695D01*
X-24738Y-131412D01*
X-23459Y-132341D01*
X-22341Y-133459D01*
X-21412Y-134738D01*
X-20695Y-136146D01*
X-20206Y-137649D01*
X-20035Y-138731D01*
X-28731Y-138731D01*
G37*
%LPD*%
%LPC*%
G36*
X255922Y108999D02*
X255922Y108999D01*
X253689Y111232D01*
X253689Y114388D01*
X255922Y116621D01*
X259078Y116621D01*
X261311Y114388D01*
X261311Y111232D01*
X259078Y108999D01*
X255922Y108999D01*
G37*
%LPD*%
%LPC*%
G36*
X226232Y-338811D02*
X226232Y-338811D01*
X223999Y-336578D01*
X223999Y-333422D01*
X226232Y-331189D01*
X229388Y-331189D01*
X231621Y-333422D01*
X231621Y-336578D01*
X229388Y-338811D01*
X226232Y-338811D01*
G37*
%LPD*%
%LPC*%
G36*
X318422Y306049D02*
X318422Y306049D01*
X316189Y308282D01*
X316189Y311438D01*
X318422Y313671D01*
X321578Y313671D01*
X323811Y311438D01*
X323811Y308282D01*
X321578Y306049D01*
X318422Y306049D01*
G37*
%LPD*%
%LPC*%
G36*
X228422Y306049D02*
X228422Y306049D01*
X226189Y308282D01*
X226189Y311438D01*
X228422Y313671D01*
X231578Y313671D01*
X233811Y311438D01*
X233811Y308282D01*
X231578Y306049D01*
X228422Y306049D01*
G37*
%LPD*%
%LPC*%
G36*
X175777Y112939D02*
X175777Y112939D01*
X173544Y115172D01*
X173544Y118328D01*
X175777Y120561D01*
X178933Y120561D01*
X181166Y118328D01*
X181166Y115172D01*
X178933Y112939D01*
X175777Y112939D01*
G37*
%LPD*%
%LPC*%
G36*
X-358388Y-289811D02*
X-358388Y-289811D01*
X-360621Y-287578D01*
X-360621Y-284422D01*
X-358388Y-282189D01*
X-355232Y-282189D01*
X-352999Y-284422D01*
X-352999Y-287578D01*
X-355232Y-289811D01*
X-358388Y-289811D01*
G37*
%LPD*%
%LPC*%
G36*
X81612Y-289811D02*
X81612Y-289811D01*
X79379Y-287578D01*
X79379Y-284422D01*
X81612Y-282189D01*
X84768Y-282189D01*
X87001Y-284422D01*
X87001Y-287578D01*
X84768Y-289811D01*
X81612Y-289811D01*
G37*
%LPD*%
%LPC*%
G36*
X251612Y-289811D02*
X251612Y-289811D01*
X249379Y-287578D01*
X249379Y-284422D01*
X251612Y-282189D01*
X254768Y-282189D01*
X257001Y-284422D01*
X257001Y-287578D01*
X254768Y-289811D01*
X251612Y-289811D01*
G37*
%LPD*%
%LPC*%
G36*
X315612Y118689D02*
X315612Y118689D01*
X313379Y120922D01*
X313379Y124078D01*
X315612Y126311D01*
X318768Y126311D01*
X321001Y124078D01*
X321001Y120922D01*
X318768Y118689D01*
X315612Y118689D01*
G37*
%LPD*%
%LPC*%
G36*
X-311578Y96049D02*
X-311578Y96049D01*
X-313811Y98282D01*
X-313811Y101438D01*
X-311578Y103671D01*
X-308422Y103671D01*
X-306189Y101438D01*
X-306189Y98282D01*
X-308422Y96049D01*
X-311578Y96049D01*
G37*
%LPD*%
%LPC*%
G36*
X-175768Y-288811D02*
X-175768Y-288811D01*
X-178001Y-286578D01*
X-178001Y-283422D01*
X-175768Y-281189D01*
X-172612Y-281189D01*
X-170379Y-283422D01*
X-170379Y-286578D01*
X-172612Y-288811D01*
X-175768Y-288811D01*
G37*
%LPD*%
%LPC*%
G36*
X-127388Y-288811D02*
X-127388Y-288811D01*
X-129621Y-286578D01*
X-129621Y-283422D01*
X-127388Y-281189D01*
X-124232Y-281189D01*
X-121999Y-283422D01*
X-121999Y-286578D01*
X-124232Y-288811D01*
X-127388Y-288811D01*
G37*
%LPD*%
%LPC*%
G36*
X378232Y-278811D02*
X378232Y-278811D01*
X375999Y-276578D01*
X375999Y-273422D01*
X378232Y-271189D01*
X381388Y-271189D01*
X383621Y-273422D01*
X383621Y-276578D01*
X381388Y-278811D01*
X378232Y-278811D01*
G37*
%LPD*%
%LPC*%
G36*
X102657Y93439D02*
X102657Y93439D01*
X100424Y95672D01*
X100424Y98828D01*
X102657Y101061D01*
X105813Y101061D01*
X108046Y98828D01*
X108046Y95672D01*
X105813Y93439D01*
X102657Y93439D01*
G37*
%LPD*%
%LPC*%
G36*
X-99578Y304629D02*
X-99578Y304629D01*
X-101811Y306862D01*
X-101811Y310018D01*
X-99578Y312251D01*
X-96422Y312251D01*
X-94189Y310018D01*
X-94189Y306862D01*
X-96422Y304629D01*
X-99578Y304629D01*
G37*
%LPD*%
%LPC*%
G36*
X102657Y119439D02*
X102657Y119439D01*
X100424Y121672D01*
X100424Y124828D01*
X102657Y127061D01*
X105813Y127061D01*
X108046Y124828D01*
X108046Y121672D01*
X105813Y119439D01*
X102657Y119439D01*
G37*
%LPD*%
%LPC*%
G36*
X-149578Y304629D02*
X-149578Y304629D01*
X-151811Y306862D01*
X-151811Y310018D01*
X-149578Y312251D01*
X-146422Y312251D01*
X-144189Y310018D01*
X-144189Y306862D01*
X-146422Y304629D01*
X-149578Y304629D01*
G37*
%LPD*%
%LPC*%
G36*
X130612Y-268811D02*
X130612Y-268811D01*
X128379Y-266578D01*
X128379Y-263422D01*
X130612Y-261189D01*
X133768Y-261189D01*
X136001Y-263422D01*
X136001Y-266578D01*
X133768Y-268811D01*
X130612Y-268811D01*
G37*
%LPD*%
%LPC*%
G36*
X226232Y-268811D02*
X226232Y-268811D01*
X223999Y-266578D01*
X223999Y-263422D01*
X226232Y-261189D01*
X229388Y-261189D01*
X231621Y-263422D01*
X231621Y-266578D01*
X229388Y-268811D01*
X226232Y-268811D01*
G37*
%LPD*%
%LPC*%
G36*
X-311578Y122998D02*
X-311578Y122998D01*
X-313811Y125231D01*
X-313811Y128387D01*
X-311578Y130620D01*
X-308422Y130620D01*
X-306189Y128387D01*
X-306189Y125231D01*
X-308422Y122998D01*
X-311578Y122998D01*
G37*
%LPD*%
%LPC*%
G36*
X-124578Y280629D02*
X-124578Y280629D01*
X-126811Y282862D01*
X-126811Y286018D01*
X-124578Y288251D01*
X-121422Y288251D01*
X-119189Y286018D01*
X-119189Y282862D01*
X-121422Y280629D01*
X-124578Y280629D01*
G37*
%LPD*%
%LPC*%
G36*
X-335078Y247199D02*
X-335078Y247199D01*
X-337311Y249432D01*
X-337311Y252588D01*
X-335078Y254821D01*
X-331922Y254821D01*
X-329689Y252588D01*
X-329689Y249432D01*
X-331922Y247199D01*
X-335078Y247199D01*
G37*
%LPD*%
%LPC*%
G36*
X228422Y216329D02*
X228422Y216329D01*
X226189Y218562D01*
X226189Y221718D01*
X228422Y223951D01*
X231578Y223951D01*
X233811Y221718D01*
X233811Y218562D01*
X231578Y216329D01*
X228422Y216329D01*
G37*
%LPD*%
%LPC*%
G36*
X-334768Y-217811D02*
X-334768Y-217811D01*
X-337001Y-215578D01*
X-337001Y-212422D01*
X-334768Y-210189D01*
X-331612Y-210189D01*
X-329379Y-212422D01*
X-329379Y-215578D01*
X-331612Y-217811D01*
X-334768Y-217811D01*
G37*
%LPD*%
%LPC*%
G36*
X275232Y-217811D02*
X275232Y-217811D01*
X272999Y-215578D01*
X272999Y-212422D01*
X275232Y-210189D01*
X278388Y-210189D01*
X280621Y-212422D01*
X280621Y-215578D01*
X278388Y-217811D01*
X275232Y-217811D01*
G37*
%LPD*%
%LPC*%
G36*
X130612Y-338811D02*
X130612Y-338811D01*
X128379Y-336578D01*
X128379Y-333422D01*
X130612Y-331189D01*
X133768Y-331189D01*
X136001Y-333422D01*
X136001Y-336578D01*
X133768Y-338811D01*
X130612Y-338811D01*
G37*
%LPD*%
%LPC*%
G36*
X105232Y-217811D02*
X105232Y-217811D01*
X102999Y-215578D01*
X102999Y-212422D01*
X105232Y-210189D01*
X108388Y-210189D01*
X110621Y-212422D01*
X110621Y-215578D01*
X108388Y-217811D01*
X105232Y-217811D01*
G37*
%LPD*%
%LPC*%
G36*
X226232Y-198811D02*
X226232Y-198811D01*
X223999Y-196578D01*
X223999Y-193422D01*
X226232Y-191189D01*
X229388Y-191189D01*
X231621Y-193422D01*
X231621Y-196578D01*
X229388Y-198811D01*
X226232Y-198811D01*
G37*
%LPD*%
%LPC*%
G36*
X130612Y-198811D02*
X130612Y-198811D01*
X128379Y-196578D01*
X128379Y-193422D01*
X130612Y-191189D01*
X133768Y-191189D01*
X136001Y-193422D01*
X136001Y-196578D01*
X133768Y-198811D01*
X130612Y-198811D01*
G37*
%LPD*%
%LPC*%
G36*
X-175768Y-188811D02*
X-175768Y-188811D01*
X-178001Y-186578D01*
X-178001Y-183422D01*
X-175768Y-181189D01*
X-172612Y-181189D01*
X-170379Y-183422D01*
X-170379Y-186578D01*
X-172612Y-188811D01*
X-175768Y-188811D01*
G37*
%LPD*%
%LPC*%
G36*
X33382Y50789D02*
X33382Y50789D01*
X31149Y53022D01*
X31149Y56178D01*
X33382Y58411D01*
X36538Y58411D01*
X38771Y56178D01*
X38771Y53022D01*
X36538Y50789D01*
X33382Y50789D01*
G37*
%LPD*%
%LPC*%
G36*
X58422Y46329D02*
X58422Y46329D01*
X56189Y48562D01*
X56189Y51718D01*
X58422Y53951D01*
X61578Y53951D01*
X63811Y51718D01*
X63811Y48562D01*
X61578Y46329D01*
X58422Y46329D01*
G37*
%LPD*%
%LPC*%
G36*
X-127388Y-188811D02*
X-127388Y-188811D01*
X-129621Y-186578D01*
X-129621Y-183422D01*
X-127388Y-181189D01*
X-124232Y-181189D01*
X-121999Y-183422D01*
X-121999Y-186578D01*
X-124232Y-188811D01*
X-127388Y-188811D01*
G37*
%LPD*%
%LPC*%
G36*
X318422Y216329D02*
X318422Y216329D01*
X316189Y218562D01*
X316189Y221718D01*
X318422Y223951D01*
X321578Y223951D01*
X323811Y221718D01*
X323811Y218562D01*
X321578Y216329D01*
X318422Y216329D01*
G37*
%LPD*%
%LPC*%
G36*
X68422Y199392D02*
X68422Y199392D01*
X66189Y201624D01*
X66189Y204781D01*
X68422Y207013D01*
X71578Y207013D01*
X73811Y204781D01*
X73811Y201624D01*
X71578Y199392D01*
X68422Y199392D01*
G37*
%LPD*%
%LPC*%
G36*
X58422Y136049D02*
X58422Y136049D01*
X56189Y138282D01*
X56189Y141438D01*
X58422Y143671D01*
X61578Y143671D01*
X63811Y141438D01*
X63811Y138282D01*
X61578Y136049D01*
X58422Y136049D01*
G37*
%LPD*%
%LPC*%
G36*
X-351578Y196449D02*
X-351578Y196449D01*
X-353811Y198682D01*
X-353811Y201838D01*
X-351578Y204071D01*
X-348422Y204071D01*
X-346189Y201838D01*
X-346189Y198682D01*
X-348422Y196449D01*
X-351578Y196449D01*
G37*
%LPD*%
%LPC*%
G36*
X258422Y36329D02*
X258422Y36329D01*
X256189Y38562D01*
X256189Y41718D01*
X258422Y43951D01*
X261578Y43951D01*
X263811Y41718D01*
X263811Y38562D01*
X261578Y36329D01*
X258422Y36329D01*
G37*
%LPD*%
%LPC*%
G36*
X298422Y36329D02*
X298422Y36329D01*
X296189Y38562D01*
X296189Y41718D01*
X298422Y43951D01*
X301578Y43951D01*
X303811Y41718D01*
X303811Y38562D01*
X301578Y36329D01*
X298422Y36329D01*
G37*
%LPD*%
%LPC*%
G36*
X58422Y186049D02*
X58422Y186049D01*
X56189Y188282D01*
X56189Y191438D01*
X58422Y193671D01*
X61578Y193671D01*
X63811Y191438D01*
X63811Y188282D01*
X61578Y186049D01*
X58422Y186049D01*
G37*
%LPD*%
%LPC*%
G36*
X81067Y138939D02*
X81067Y138939D01*
X78834Y141172D01*
X78834Y144328D01*
X81067Y146561D01*
X84223Y146561D01*
X86456Y144328D01*
X86456Y141172D01*
X84223Y138939D01*
X81067Y138939D01*
G37*
%LPD*%
%LPC*%
G36*
X285922Y183379D02*
X285922Y183379D01*
X283689Y185612D01*
X283689Y188768D01*
X285922Y191001D01*
X289078Y191001D01*
X291311Y188768D01*
X291311Y185612D01*
X289078Y183379D01*
X285922Y183379D01*
G37*
%LPD*%
%LPC*%
G36*
X248422Y-133551D02*
X248422Y-133551D01*
X246189Y-131318D01*
X246189Y-128162D01*
X248422Y-125929D01*
X251578Y-125929D01*
X253811Y-128162D01*
X253811Y-131318D01*
X251578Y-133551D01*
X248422Y-133551D01*
G37*
%LPD*%
%LPC*%
G36*
X288422Y-133551D02*
X288422Y-133551D01*
X286189Y-131318D01*
X286189Y-128162D01*
X288422Y-125929D01*
X291578Y-125929D01*
X293811Y-128162D01*
X293811Y-131318D01*
X291578Y-133551D01*
X288422Y-133551D01*
G37*
%LPD*%
%LPC*%
G36*
X-251578Y-133551D02*
X-251578Y-133551D01*
X-253811Y-131318D01*
X-253811Y-128162D01*
X-251578Y-125929D01*
X-248422Y-125929D01*
X-246189Y-128162D01*
X-246189Y-131318D01*
X-248422Y-133551D01*
X-251578Y-133551D01*
G37*
%LPD*%
%LPC*%
G36*
X-211578Y-133551D02*
X-211578Y-133551D01*
X-213811Y-131318D01*
X-213811Y-128162D01*
X-211578Y-125929D01*
X-208422Y-125929D01*
X-206189Y-128162D01*
X-206189Y-131318D01*
X-208422Y-133551D01*
X-211578Y-133551D01*
G37*
%LPD*%
%LPC*%
G36*
X-68268Y19689D02*
X-68268Y19689D01*
X-70501Y21922D01*
X-70501Y25078D01*
X-68268Y27311D01*
X-65112Y27311D01*
X-62879Y25078D01*
X-62879Y21922D01*
X-65112Y19689D01*
X-68268Y19689D01*
G37*
%LPD*%
%LPC*%
G36*
X45112Y-107311D02*
X45112Y-107311D01*
X42879Y-105078D01*
X42879Y-101922D01*
X45112Y-99689D01*
X48268Y-99689D01*
X50501Y-101922D01*
X50501Y-105078D01*
X48268Y-107311D01*
X45112Y-107311D01*
G37*
%LPD*%
%LPC*%
G36*
X-220388Y168689D02*
X-220388Y168689D01*
X-222621Y170922D01*
X-222621Y174078D01*
X-220388Y176311D01*
X-217232Y176311D01*
X-214999Y174078D01*
X-214999Y170922D01*
X-217232Y168689D01*
X-220388Y168689D01*
G37*
%LPD*%
%LPC*%
G36*
X-122768Y168689D02*
X-122768Y168689D01*
X-125001Y170922D01*
X-125001Y174078D01*
X-122768Y176311D01*
X-119612Y176311D01*
X-117379Y174078D01*
X-117379Y170922D01*
X-119612Y168689D01*
X-122768Y168689D01*
G37*
%LPD*%
%LPC*%
G36*
X11172Y-60858D02*
X11172Y-60858D01*
X8939Y-58626D01*
X8939Y-55469D01*
X11172Y-53237D01*
X14328Y-53237D01*
X16561Y-55469D01*
X16561Y-58626D01*
X14328Y-60858D01*
X11172Y-60858D01*
G37*
%LPD*%
%LPC*%
G36*
X-107588Y-56511D02*
X-107588Y-56511D01*
X-109821Y-54278D01*
X-109821Y-51122D01*
X-107588Y-48889D01*
X-104432Y-48889D01*
X-102199Y-51122D01*
X-102199Y-54278D01*
X-104432Y-56511D01*
X-107588Y-56511D01*
G37*
%LPD*%
%LPC*%
G36*
X315612Y168689D02*
X315612Y168689D01*
X313379Y170922D01*
X313379Y174078D01*
X315612Y176311D01*
X318768Y176311D01*
X321001Y174078D01*
X321001Y170922D01*
X318768Y168689D01*
X315612Y168689D01*
G37*
%LPD*%
%LPC*%
G36*
X84432Y-31111D02*
X84432Y-31111D01*
X82199Y-28878D01*
X82199Y-25722D01*
X84432Y-23489D01*
X87588Y-23489D01*
X89821Y-25722D01*
X89821Y-28878D01*
X87588Y-31111D01*
X84432Y-31111D01*
G37*
%LPD*%
%LPC*%
G36*
X-311578Y156329D02*
X-311578Y156329D01*
X-313811Y158562D01*
X-313811Y161718D01*
X-311578Y163951D01*
X-308422Y163951D01*
X-306189Y161718D01*
X-306189Y158562D01*
X-308422Y156329D01*
X-311578Y156329D01*
G37*
%LPD*%
%LPC*%
G36*
X263533Y-28541D02*
X263533Y-28541D01*
X261459Y-26467D01*
X261459Y-23533D01*
X263533Y-21459D01*
X266467Y-21459D01*
X268541Y-23533D01*
X268541Y-26467D01*
X266467Y-28541D01*
X263533Y-28541D01*
G37*
%LPD*%
%LPC*%
G36*
X31033Y-21041D02*
X31033Y-21041D01*
X28959Y-18967D01*
X28959Y-16033D01*
X31033Y-13959D01*
X33967Y-13959D01*
X36041Y-16033D01*
X36041Y-18967D01*
X33967Y-21041D01*
X31033Y-21041D01*
G37*
%LPD*%
%LPC*%
G36*
X-141467Y-26041D02*
X-141467Y-26041D01*
X-143541Y-23967D01*
X-143541Y-21033D01*
X-141467Y-18959D01*
X-138533Y-18959D01*
X-136459Y-21033D01*
X-136459Y-23967D01*
X-138533Y-26041D01*
X-141467Y-26041D01*
G37*
%LPD*%
%LPC*%
G36*
X273533Y-26041D02*
X273533Y-26041D01*
X271459Y-23967D01*
X271459Y-21033D01*
X273533Y-18959D01*
X276467Y-18959D01*
X278541Y-21033D01*
X278541Y-23967D01*
X276467Y-26041D01*
X273533Y-26041D01*
G37*
%LPD*%
%LPC*%
G36*
X306033Y-26041D02*
X306033Y-26041D01*
X303959Y-23967D01*
X303959Y-21033D01*
X306033Y-18959D01*
X308967Y-18959D01*
X311041Y-21033D01*
X311041Y-23967D01*
X308967Y-26041D01*
X306033Y-26041D01*
G37*
%LPD*%
%LPC*%
G36*
X-53967Y66459D02*
X-53967Y66459D01*
X-56041Y68533D01*
X-56041Y71467D01*
X-53967Y73541D01*
X-51033Y73541D01*
X-48959Y71467D01*
X-48959Y68533D01*
X-51033Y66459D01*
X-53967Y66459D01*
G37*
%LPD*%
%LPC*%
G36*
X46033Y106459D02*
X46033Y106459D01*
X43959Y108533D01*
X43959Y111467D01*
X46033Y113541D01*
X48967Y113541D01*
X51041Y111467D01*
X51041Y108533D01*
X48967Y106459D01*
X46033Y106459D01*
G37*
%LPD*%
%LPC*%
G36*
X31033Y-8541D02*
X31033Y-8541D01*
X28959Y-6467D01*
X28959Y-3533D01*
X31033Y-1459D01*
X33967Y-1459D01*
X36041Y-3533D01*
X36041Y-6467D01*
X33967Y-8541D01*
X31033Y-8541D01*
G37*
%LPD*%
%LPC*%
G36*
X-41467Y-31041D02*
X-41467Y-31041D01*
X-43541Y-28967D01*
X-43541Y-26033D01*
X-41467Y-23959D01*
X-38533Y-23959D01*
X-36459Y-26033D01*
X-36459Y-28967D01*
X-38533Y-31041D01*
X-41467Y-31041D01*
G37*
%LPD*%
%LPC*%
G36*
X-18967Y-38541D02*
X-18967Y-38541D01*
X-21041Y-36467D01*
X-21041Y-33533D01*
X-18967Y-31459D01*
X-16033Y-31459D01*
X-13959Y-33533D01*
X-13959Y-36467D01*
X-16033Y-38541D01*
X-18967Y-38541D01*
G37*
%LPD*%
%LPC*%
G36*
X263533Y166459D02*
X263533Y166459D01*
X261459Y168533D01*
X261459Y171467D01*
X263533Y173541D01*
X266467Y173541D01*
X268541Y171467D01*
X268541Y168533D01*
X266467Y166459D01*
X263533Y166459D01*
G37*
%LPD*%
%LPC*%
G36*
X251033Y-8541D02*
X251033Y-8541D01*
X248959Y-6467D01*
X248959Y-3533D01*
X251033Y-1459D01*
X253967Y-1459D01*
X256041Y-3533D01*
X256041Y-6467D01*
X253967Y-8541D01*
X251033Y-8541D01*
G37*
%LPD*%
%LPC*%
G36*
X258533Y-48541D02*
X258533Y-48541D01*
X256459Y-46467D01*
X256459Y-43533D01*
X258533Y-41459D01*
X261467Y-41459D01*
X263541Y-43533D01*
X263541Y-46467D01*
X261467Y-48541D01*
X258533Y-48541D01*
G37*
%LPD*%
%LPC*%
G36*
X278533Y-8541D02*
X278533Y-8541D01*
X276459Y-6467D01*
X276459Y-3533D01*
X278533Y-1459D01*
X281467Y-1459D01*
X283541Y-3533D01*
X283541Y-6467D01*
X281467Y-8541D01*
X278533Y-8541D01*
G37*
%LPD*%
%LPC*%
G36*
X-73967Y96459D02*
X-73967Y96459D01*
X-76041Y98533D01*
X-76041Y101467D01*
X-73967Y103541D01*
X-71033Y103541D01*
X-68959Y101467D01*
X-68959Y98533D01*
X-71033Y96459D01*
X-73967Y96459D01*
G37*
%LPD*%
%LPC*%
G36*
X113533Y93959D02*
X113533Y93959D01*
X111459Y96033D01*
X111459Y98967D01*
X113533Y101041D01*
X116467Y101041D01*
X118541Y98967D01*
X118541Y96033D01*
X116467Y93959D01*
X113533Y93959D01*
G37*
%LPD*%
%LPC*%
G36*
X291033Y83959D02*
X291033Y83959D01*
X288959Y86033D01*
X288959Y88967D01*
X291033Y91041D01*
X293967Y91041D01*
X296041Y88967D01*
X296041Y86033D01*
X293967Y83959D01*
X291033Y83959D01*
G37*
%LPD*%
%LPC*%
G36*
X43533Y-86041D02*
X43533Y-86041D01*
X41459Y-83967D01*
X41459Y-81033D01*
X43533Y-78959D01*
X46467Y-78959D01*
X48541Y-81033D01*
X48541Y-83967D01*
X46467Y-86041D01*
X43533Y-86041D01*
G37*
%LPD*%
%LPC*%
G36*
X73533Y-96041D02*
X73533Y-96041D01*
X71459Y-93967D01*
X71459Y-91033D01*
X73533Y-88959D01*
X76467Y-88959D01*
X78541Y-91033D01*
X78541Y-93967D01*
X76467Y-96041D01*
X73533Y-96041D01*
G37*
%LPD*%
%LPC*%
G36*
X-103967Y3959D02*
X-103967Y3959D01*
X-106041Y6033D01*
X-106041Y8967D01*
X-103967Y11041D01*
X-101033Y11041D01*
X-98959Y8967D01*
X-98959Y6033D01*
X-101033Y3959D01*
X-103967Y3959D01*
G37*
%LPD*%
%LPC*%
G36*
X343533Y128959D02*
X343533Y128959D01*
X341459Y131033D01*
X341459Y133967D01*
X343533Y136041D01*
X346467Y136041D01*
X348541Y133967D01*
X348541Y131033D01*
X346467Y128959D01*
X343533Y128959D01*
G37*
%LPD*%
%LPC*%
G36*
X313533Y143959D02*
X313533Y143959D01*
X311459Y146033D01*
X311459Y148967D01*
X313533Y151041D01*
X316467Y151041D01*
X318541Y148967D01*
X318541Y146033D01*
X316467Y143959D01*
X313533Y143959D01*
G37*
%LPD*%
%LPC*%
G36*
X328533Y21459D02*
X328533Y21459D01*
X326459Y23533D01*
X326459Y26467D01*
X328533Y28541D01*
X331467Y28541D01*
X333541Y26467D01*
X333541Y23533D01*
X331467Y21459D01*
X328533Y21459D01*
G37*
%LPD*%
%LPC*%
G36*
X286033Y21459D02*
X286033Y21459D01*
X283959Y23533D01*
X283959Y26467D01*
X286033Y28541D01*
X288967Y28541D01*
X291041Y26467D01*
X291041Y23533D01*
X288967Y21459D01*
X286033Y21459D01*
G37*
%LPD*%
%LPC*%
G36*
X-248967Y-256041D02*
X-248967Y-256041D01*
X-251041Y-253967D01*
X-251041Y-251033D01*
X-248967Y-248959D01*
X-246033Y-248959D01*
X-243959Y-251033D01*
X-243959Y-253967D01*
X-246033Y-256041D01*
X-248967Y-256041D01*
G37*
%LPD*%
%LPC*%
G36*
X118533Y131459D02*
X118533Y131459D01*
X116459Y133533D01*
X116459Y136467D01*
X118533Y138541D01*
X121467Y138541D01*
X123541Y136467D01*
X123541Y133533D01*
X121467Y131459D01*
X118533Y131459D01*
G37*
%LPD*%
%LPC*%
G36*
X306033Y178959D02*
X306033Y178959D01*
X303959Y181033D01*
X303959Y183967D01*
X306033Y186041D01*
X308967Y186041D01*
X311041Y183967D01*
X311041Y181033D01*
X308967Y178959D01*
X306033Y178959D01*
G37*
%LPD*%
%LPC*%
G36*
X268533Y26459D02*
X268533Y26459D01*
X266459Y28533D01*
X266459Y31467D01*
X268533Y33541D01*
X271467Y33541D01*
X273541Y31467D01*
X273541Y28533D01*
X271467Y26459D01*
X268533Y26459D01*
G37*
%LPD*%
%LPC*%
G36*
X83533Y36459D02*
X83533Y36459D01*
X81459Y38533D01*
X81459Y41467D01*
X83533Y43541D01*
X86467Y43541D01*
X88541Y41467D01*
X88541Y38533D01*
X86467Y36459D01*
X83533Y36459D01*
G37*
%LPD*%
%LPC*%
G36*
X268533Y-146041D02*
X268533Y-146041D01*
X266459Y-143967D01*
X266459Y-141033D01*
X268533Y-138959D01*
X271467Y-138959D01*
X273541Y-141033D01*
X273541Y-143967D01*
X271467Y-146041D01*
X268533Y-146041D01*
G37*
%LPD*%
%LPC*%
G36*
X-96467Y73959D02*
X-96467Y73959D01*
X-98541Y76033D01*
X-98541Y78967D01*
X-96467Y81041D01*
X-93533Y81041D01*
X-91459Y78967D01*
X-91459Y76033D01*
X-93533Y73959D01*
X-96467Y73959D01*
G37*
%LPD*%
%LPC*%
G36*
X268533Y38959D02*
X268533Y38959D01*
X266459Y41033D01*
X266459Y43967D01*
X268533Y46041D01*
X271467Y46041D01*
X273541Y43967D01*
X273541Y41033D01*
X271467Y38959D01*
X268533Y38959D01*
G37*
%LPD*%
%LPC*%
G36*
X283533Y68959D02*
X283533Y68959D01*
X281459Y71033D01*
X281459Y73967D01*
X283533Y76041D01*
X286467Y76041D01*
X288541Y73967D01*
X288541Y71033D01*
X286467Y68959D01*
X283533Y68959D01*
G37*
%LPD*%
%LPC*%
G36*
X-316467Y-151041D02*
X-316467Y-151041D01*
X-318541Y-148967D01*
X-318541Y-146033D01*
X-316467Y-143959D01*
X-313533Y-143959D01*
X-311459Y-146033D01*
X-311459Y-148967D01*
X-313533Y-151041D01*
X-316467Y-151041D01*
G37*
%LPD*%
%LPC*%
G36*
X-281467Y-156041D02*
X-281467Y-156041D01*
X-283541Y-153967D01*
X-283541Y-151033D01*
X-281467Y-148959D01*
X-278533Y-148959D01*
X-276459Y-151033D01*
X-276459Y-153967D01*
X-278533Y-156041D01*
X-281467Y-156041D01*
G37*
%LPD*%
%LPC*%
G36*
X-318967Y-166041D02*
X-318967Y-166041D01*
X-321041Y-163967D01*
X-321041Y-161033D01*
X-318967Y-158959D01*
X-316033Y-158959D01*
X-313959Y-161033D01*
X-313959Y-163967D01*
X-316033Y-166041D01*
X-318967Y-166041D01*
G37*
%LPD*%
%LPC*%
G36*
X-246467Y208959D02*
X-246467Y208959D01*
X-248541Y211033D01*
X-248541Y213967D01*
X-246467Y216041D01*
X-243533Y216041D01*
X-241459Y213967D01*
X-241459Y211033D01*
X-243533Y208959D01*
X-246467Y208959D01*
G37*
%LPD*%
%LPC*%
G36*
X-26467Y41459D02*
X-26467Y41459D01*
X-28541Y43533D01*
X-28541Y46467D01*
X-26467Y48541D01*
X-23533Y48541D01*
X-21459Y46467D01*
X-21459Y43533D01*
X-23533Y41459D01*
X-26467Y41459D01*
G37*
%LPD*%
%LPC*%
G36*
X-318967Y-181041D02*
X-318967Y-181041D01*
X-321041Y-178967D01*
X-321041Y-176033D01*
X-318967Y-173959D01*
X-316033Y-173959D01*
X-313959Y-176033D01*
X-313959Y-178967D01*
X-316033Y-181041D01*
X-318967Y-181041D01*
G37*
%LPD*%
%LPC*%
G36*
X93533Y46459D02*
X93533Y46459D01*
X91459Y48533D01*
X91459Y51467D01*
X93533Y53541D01*
X96467Y53541D01*
X98541Y51467D01*
X98541Y48533D01*
X96467Y46459D01*
X93533Y46459D01*
G37*
%LPD*%
%LPC*%
G36*
X143533Y-211041D02*
X143533Y-211041D01*
X141459Y-208967D01*
X141459Y-206033D01*
X143533Y-203959D01*
X146467Y-203959D01*
X148541Y-206033D01*
X148541Y-208967D01*
X146467Y-211041D01*
X143533Y-211041D01*
G37*
%LPD*%
%LPC*%
G36*
X-41467Y-1041D02*
X-41467Y-1041D01*
X-43541Y1033D01*
X-43541Y3967D01*
X-41467Y6041D01*
X-38533Y6041D01*
X-36459Y3967D01*
X-36459Y1033D01*
X-38533Y-1041D01*
X-41467Y-1041D01*
G37*
%LPD*%
%LPC*%
G36*
X-291256Y66967D02*
X-291256Y66967D01*
X-293033Y68744D01*
X-293033Y71256D01*
X-291256Y73033D01*
X-288744Y73033D01*
X-286967Y71256D01*
X-286967Y68744D01*
X-288744Y66967D01*
X-291256Y66967D01*
G37*
%LPD*%
%LPC*%
G36*
X-361256Y136967D02*
X-361256Y136967D01*
X-363033Y138744D01*
X-363033Y141256D01*
X-361256Y143033D01*
X-358744Y143033D01*
X-356967Y141256D01*
X-356967Y138744D01*
X-358744Y136967D01*
X-361256Y136967D01*
G37*
%LPD*%
%LPC*%
G36*
X-271256Y66967D02*
X-271256Y66967D01*
X-273033Y68744D01*
X-273033Y71256D01*
X-271256Y73033D01*
X-268744Y73033D01*
X-266967Y71256D01*
X-266967Y68744D01*
X-268744Y66967D01*
X-271256Y66967D01*
G37*
%LPD*%
%LPC*%
G36*
X-251256Y136967D02*
X-251256Y136967D01*
X-253033Y138744D01*
X-253033Y141256D01*
X-251256Y143033D01*
X-248744Y143033D01*
X-246967Y141256D01*
X-246967Y138744D01*
X-248744Y136967D01*
X-251256Y136967D01*
G37*
%LPD*%
%LPC*%
G36*
X-291256Y136967D02*
X-291256Y136967D01*
X-293033Y138744D01*
X-293033Y141256D01*
X-291256Y143033D01*
X-288744Y143033D01*
X-286967Y141256D01*
X-286967Y138744D01*
X-288744Y136967D01*
X-291256Y136967D01*
G37*
%LPD*%
%LPC*%
G36*
X-341256Y156967D02*
X-341256Y156967D01*
X-343033Y158744D01*
X-343033Y161256D01*
X-341256Y163033D01*
X-338744Y163033D01*
X-336967Y161256D01*
X-336967Y158744D01*
X-338744Y156967D01*
X-341256Y156967D01*
G37*
%LPD*%
%LPC*%
G36*
X-291256Y176967D02*
X-291256Y176967D01*
X-293033Y178744D01*
X-293033Y181256D01*
X-291256Y183033D01*
X-288744Y183033D01*
X-286967Y181256D01*
X-286967Y178744D01*
X-288744Y176967D01*
X-291256Y176967D01*
G37*
%LPD*%
%LPC*%
G36*
X-251256Y176967D02*
X-251256Y176967D01*
X-253033Y178744D01*
X-253033Y181256D01*
X-251256Y183033D01*
X-248744Y183033D01*
X-246967Y181256D01*
X-246967Y178744D01*
X-248744Y176967D01*
X-251256Y176967D01*
G37*
%LPD*%
%LPC*%
G36*
X-271256Y156967D02*
X-271256Y156967D01*
X-273033Y158744D01*
X-273033Y161256D01*
X-271256Y163033D01*
X-268744Y163033D01*
X-266967Y161256D01*
X-266967Y158744D01*
X-268744Y156967D01*
X-271256Y156967D01*
G37*
%LPD*%
%LPC*%
G36*
X-251256Y156967D02*
X-251256Y156967D01*
X-253033Y158744D01*
X-253033Y161256D01*
X-251256Y163033D01*
X-248744Y163033D01*
X-246967Y161256D01*
X-246967Y158744D01*
X-248744Y156967D01*
X-251256Y156967D01*
G37*
%LPD*%
%LPC*%
G36*
X-271256Y86967D02*
X-271256Y86967D01*
X-273033Y88744D01*
X-273033Y91256D01*
X-271256Y93033D01*
X-268744Y93033D01*
X-266967Y91256D01*
X-266967Y88744D01*
X-268744Y86967D01*
X-271256Y86967D01*
G37*
%LPD*%
%LPC*%
G36*
X-291256Y86967D02*
X-291256Y86967D01*
X-293033Y88744D01*
X-293033Y91256D01*
X-291256Y93033D01*
X-288744Y93033D01*
X-286967Y91256D01*
X-286967Y88744D01*
X-288744Y86967D01*
X-291256Y86967D01*
G37*
%LPD*%
%LPC*%
G36*
X-291256Y156967D02*
X-291256Y156967D01*
X-293033Y158744D01*
X-293033Y161256D01*
X-291256Y163033D01*
X-288744Y163033D01*
X-286967Y161256D01*
X-286967Y158744D01*
X-288744Y156967D01*
X-291256Y156967D01*
G37*
%LPD*%
%LPC*%
G36*
X-341256Y96967D02*
X-341256Y96967D01*
X-343033Y98744D01*
X-343033Y101256D01*
X-341256Y103033D01*
X-338744Y103033D01*
X-336967Y101256D01*
X-336967Y98744D01*
X-338744Y96967D01*
X-341256Y96967D01*
G37*
%LPD*%
%LPC*%
G36*
X-361256Y96967D02*
X-361256Y96967D01*
X-363033Y98744D01*
X-363033Y101256D01*
X-361256Y103033D01*
X-358744Y103033D01*
X-356967Y101256D01*
X-356967Y98744D01*
X-358744Y96967D01*
X-361256Y96967D01*
G37*
%LPD*%
%LPC*%
G36*
X-341256Y136967D02*
X-341256Y136967D01*
X-343033Y138744D01*
X-343033Y141256D01*
X-341256Y143033D01*
X-338744Y143033D01*
X-336967Y141256D01*
X-336967Y138744D01*
X-338744Y136967D01*
X-341256Y136967D01*
G37*
%LPD*%
%LPC*%
G36*
X-281256Y116967D02*
X-281256Y116967D01*
X-283033Y118744D01*
X-283033Y121256D01*
X-281256Y123033D01*
X-278744Y123033D01*
X-276967Y121256D01*
X-276967Y118744D01*
X-278744Y116967D01*
X-281256Y116967D01*
G37*
%LPD*%
%LPC*%
G36*
X-361256Y116967D02*
X-361256Y116967D01*
X-363033Y118744D01*
X-363033Y121256D01*
X-361256Y123033D01*
X-358744Y123033D01*
X-356967Y121256D01*
X-356967Y118744D01*
X-358744Y116967D01*
X-361256Y116967D01*
G37*
%LPD*%
%LPC*%
G36*
X-341256Y116967D02*
X-341256Y116967D01*
X-343033Y118744D01*
X-343033Y121256D01*
X-341256Y123033D01*
X-338744Y123033D01*
X-336967Y121256D01*
X-336967Y118744D01*
X-338744Y116967D01*
X-341256Y116967D01*
G37*
%LPD*%
%LPC*%
G36*
X-271256Y106967D02*
X-271256Y106967D01*
X-273033Y108744D01*
X-273033Y111256D01*
X-271256Y113033D01*
X-268744Y113033D01*
X-266967Y111256D01*
X-266967Y108744D01*
X-268744Y106967D01*
X-271256Y106967D01*
G37*
%LPD*%
%LPC*%
G36*
X-291256Y106967D02*
X-291256Y106967D01*
X-293033Y108744D01*
X-293033Y111256D01*
X-291256Y113033D01*
X-288744Y113033D01*
X-286967Y111256D01*
X-286967Y108744D01*
X-288744Y106967D01*
X-291256Y106967D01*
G37*
%LPD*%
%LPC*%
G36*
X208744Y331967D02*
X208744Y331967D01*
X206967Y333744D01*
X206967Y336256D01*
X208744Y338033D01*
X211256Y338033D01*
X213033Y336256D01*
X213033Y333744D01*
X211256Y331967D01*
X208744Y331967D01*
G37*
%LPD*%
%LPC*%
G36*
X-361256Y156967D02*
X-361256Y156967D01*
X-363033Y158744D01*
X-363033Y161256D01*
X-361256Y163033D01*
X-358744Y163033D01*
X-356967Y161256D01*
X-356967Y158744D01*
X-358744Y156967D01*
X-361256Y156967D01*
G37*
%LPD*%
%LPC*%
G36*
X-30001Y-140001D02*
X-30001Y-140001D01*
X-30001Y-139999D01*
X-29999Y-139999D01*
X-29999Y-140001D01*
X-30001Y-140001D01*
G37*
%LPD*%
D10*
X-290000Y180000D03*
X-250000Y180000D03*
X-290000Y90000D03*
X-360000Y100000D03*
X-360000Y140000D03*
X-340000Y160000D03*
X-290000Y140000D03*
X-250000Y140000D03*
X-290000Y160000D03*
X-270000Y160000D03*
X-250000Y160000D03*
X-270000Y90000D03*
X-290000Y70000D03*
X-270000Y70000D03*
X-280000Y120000D03*
X-270000Y110000D03*
X-290000Y110000D03*
X-340000Y120000D03*
X-340000Y140000D03*
X-360000Y120000D03*
X-360000Y160000D03*
X-340000Y100000D03*
D11*
X-410000Y179500D03*
X-410000Y-500D03*
X-410000Y-20500D03*
X-410000Y-40500D03*
X-410000Y139500D03*
X-410000Y119500D03*
X-410000Y79500D03*
X-410000Y59500D03*
X-410000Y39500D03*
X-410000Y19500D03*
X-410000Y99500D03*
X-410000Y159500D03*
X390000Y-40000D03*
X390000Y140000D03*
X390000Y160000D03*
X390000Y180000D03*
X390000Y0D03*
X390000Y20000D03*
X390000Y60000D03*
X390000Y80000D03*
X390000Y100000D03*
X390000Y120000D03*
X390000Y40000D03*
X390000Y-20000D03*
D12*
X-30000Y-140000D03*
X50000Y-140000D03*
X-70000Y-140000D03*
X10000Y-140000D03*
D13*
X-35000Y-325000D03*
X15000Y-325000D03*
X-35000Y-180000D03*
X15000Y-180000D03*
X-10000Y-325000D03*
D10*
X140000Y250000D03*
D14*
X-170000Y172700D03*
X-170000Y147300D03*
D10*
X210000Y335000D03*
X200000Y335000D03*
D15*
X-110552Y-532682D02*
X-110552Y-548938D01*
X-103327Y-548938D01*
X-97695Y-545326D02*
X-97695Y-541713D01*
X-97694Y-541713D02*
X-97692Y-541594D01*
X-97686Y-541474D01*
X-97676Y-541355D01*
X-97662Y-541237D01*
X-97645Y-541118D01*
X-97623Y-541001D01*
X-97598Y-540884D01*
X-97568Y-540769D01*
X-97535Y-540654D01*
X-97498Y-540540D01*
X-97458Y-540428D01*
X-97413Y-540317D01*
X-97365Y-540208D01*
X-97314Y-540100D01*
X-97259Y-539994D01*
X-97200Y-539890D01*
X-97138Y-539788D01*
X-97073Y-539688D01*
X-97004Y-539590D01*
X-96932Y-539494D01*
X-96857Y-539401D01*
X-96780Y-539311D01*
X-96699Y-539223D01*
X-96615Y-539138D01*
X-96528Y-539056D01*
X-96439Y-538976D01*
X-96347Y-538900D01*
X-96253Y-538826D01*
X-96156Y-538756D01*
X-96058Y-538689D01*
X-95957Y-538625D01*
X-95853Y-538565D01*
X-95748Y-538508D01*
X-95641Y-538455D01*
X-95533Y-538405D01*
X-95423Y-538359D01*
X-95311Y-538317D01*
X-95198Y-538278D01*
X-95084Y-538243D01*
X-94969Y-538212D01*
X-94852Y-538184D01*
X-94735Y-538161D01*
X-94618Y-538141D01*
X-94499Y-538125D01*
X-94380Y-538113D01*
X-94261Y-538105D01*
X-94142Y-538101D01*
X-94022Y-538101D01*
X-93903Y-538105D01*
X-93784Y-538113D01*
X-93665Y-538125D01*
X-93546Y-538141D01*
X-93429Y-538161D01*
X-93312Y-538184D01*
X-93195Y-538212D01*
X-93080Y-538243D01*
X-92966Y-538278D01*
X-92853Y-538317D01*
X-92741Y-538359D01*
X-92631Y-538405D01*
X-92523Y-538455D01*
X-92416Y-538508D01*
X-92311Y-538565D01*
X-92207Y-538625D01*
X-92106Y-538689D01*
X-92008Y-538756D01*
X-91911Y-538826D01*
X-91817Y-538900D01*
X-91725Y-538976D01*
X-91636Y-539056D01*
X-91549Y-539138D01*
X-91465Y-539223D01*
X-91384Y-539311D01*
X-91307Y-539401D01*
X-91232Y-539494D01*
X-91160Y-539590D01*
X-91091Y-539688D01*
X-91026Y-539788D01*
X-90964Y-539890D01*
X-90905Y-539994D01*
X-90850Y-540100D01*
X-90799Y-540208D01*
X-90751Y-540317D01*
X-90706Y-540428D01*
X-90666Y-540540D01*
X-90629Y-540654D01*
X-90596Y-540769D01*
X-90566Y-540884D01*
X-90541Y-541001D01*
X-90519Y-541118D01*
X-90502Y-541237D01*
X-90488Y-541355D01*
X-90478Y-541474D01*
X-90472Y-541594D01*
X-90470Y-541713D01*
X-90470Y-545326D01*
X-90472Y-545445D01*
X-90478Y-545565D01*
X-90488Y-545684D01*
X-90502Y-545802D01*
X-90519Y-545921D01*
X-90541Y-546038D01*
X-90566Y-546155D01*
X-90596Y-546270D01*
X-90629Y-546385D01*
X-90666Y-546499D01*
X-90706Y-546611D01*
X-90751Y-546722D01*
X-90799Y-546831D01*
X-90850Y-546939D01*
X-90905Y-547045D01*
X-90964Y-547149D01*
X-91026Y-547251D01*
X-91091Y-547351D01*
X-91160Y-547449D01*
X-91232Y-547545D01*
X-91307Y-547638D01*
X-91384Y-547728D01*
X-91465Y-547816D01*
X-91549Y-547901D01*
X-91636Y-547983D01*
X-91725Y-548063D01*
X-91817Y-548139D01*
X-91911Y-548213D01*
X-92008Y-548283D01*
X-92106Y-548350D01*
X-92207Y-548414D01*
X-92311Y-548474D01*
X-92416Y-548531D01*
X-92523Y-548584D01*
X-92631Y-548634D01*
X-92741Y-548680D01*
X-92853Y-548722D01*
X-92966Y-548761D01*
X-93080Y-548796D01*
X-93195Y-548827D01*
X-93312Y-548855D01*
X-93429Y-548878D01*
X-93546Y-548898D01*
X-93665Y-548914D01*
X-93784Y-548926D01*
X-93903Y-548934D01*
X-94022Y-548938D01*
X-94142Y-548938D01*
X-94261Y-548934D01*
X-94380Y-548926D01*
X-94499Y-548914D01*
X-94618Y-548898D01*
X-94735Y-548878D01*
X-94852Y-548855D01*
X-94969Y-548827D01*
X-95084Y-548796D01*
X-95198Y-548761D01*
X-95311Y-548722D01*
X-95423Y-548680D01*
X-95533Y-548634D01*
X-95641Y-548584D01*
X-95748Y-548531D01*
X-95853Y-548474D01*
X-95957Y-548414D01*
X-96058Y-548350D01*
X-96156Y-548283D01*
X-96253Y-548213D01*
X-96347Y-548139D01*
X-96439Y-548063D01*
X-96528Y-547983D01*
X-96615Y-547901D01*
X-96699Y-547816D01*
X-96780Y-547728D01*
X-96857Y-547638D01*
X-96932Y-547545D01*
X-97004Y-547449D01*
X-97073Y-547351D01*
X-97138Y-547251D01*
X-97200Y-547149D01*
X-97259Y-547045D01*
X-97314Y-546939D01*
X-97365Y-546831D01*
X-97413Y-546722D01*
X-97458Y-546611D01*
X-97498Y-546499D01*
X-97535Y-546385D01*
X-97568Y-546270D01*
X-97598Y-546155D01*
X-97623Y-546038D01*
X-97645Y-545921D01*
X-97662Y-545802D01*
X-97676Y-545684D01*
X-97686Y-545565D01*
X-97692Y-545445D01*
X-97694Y-545326D01*
X-84391Y-538101D02*
X-81682Y-548938D01*
X-78972Y-541713D01*
X-76263Y-548938D01*
X-73554Y-538101D01*
X-64765Y-548938D02*
X-60250Y-548938D01*
X-64765Y-548938D02*
X-64866Y-548936D01*
X-64967Y-548930D01*
X-65068Y-548921D01*
X-65169Y-548908D01*
X-65269Y-548891D01*
X-65368Y-548870D01*
X-65466Y-548846D01*
X-65563Y-548818D01*
X-65660Y-548786D01*
X-65755Y-548751D01*
X-65848Y-548712D01*
X-65940Y-548670D01*
X-66031Y-548624D01*
X-66120Y-548575D01*
X-66206Y-548523D01*
X-66291Y-548467D01*
X-66374Y-548409D01*
X-66454Y-548347D01*
X-66532Y-548282D01*
X-66608Y-548215D01*
X-66681Y-548145D01*
X-66751Y-548072D01*
X-66818Y-547996D01*
X-66883Y-547918D01*
X-66945Y-547838D01*
X-67003Y-547755D01*
X-67059Y-547670D01*
X-67111Y-547584D01*
X-67160Y-547495D01*
X-67206Y-547404D01*
X-67248Y-547312D01*
X-67287Y-547219D01*
X-67322Y-547124D01*
X-67354Y-547027D01*
X-67382Y-546930D01*
X-67406Y-546832D01*
X-67427Y-546733D01*
X-67444Y-546633D01*
X-67457Y-546532D01*
X-67466Y-546431D01*
X-67472Y-546330D01*
X-67474Y-546229D01*
X-67475Y-546229D02*
X-67475Y-541713D01*
X-67474Y-541713D02*
X-67472Y-541594D01*
X-67466Y-541474D01*
X-67456Y-541355D01*
X-67442Y-541237D01*
X-67425Y-541118D01*
X-67403Y-541001D01*
X-67378Y-540884D01*
X-67348Y-540769D01*
X-67315Y-540654D01*
X-67278Y-540540D01*
X-67238Y-540428D01*
X-67193Y-540317D01*
X-67145Y-540208D01*
X-67094Y-540100D01*
X-67039Y-539994D01*
X-66980Y-539890D01*
X-66918Y-539788D01*
X-66853Y-539688D01*
X-66784Y-539590D01*
X-66712Y-539494D01*
X-66637Y-539401D01*
X-66560Y-539311D01*
X-66479Y-539223D01*
X-66395Y-539138D01*
X-66308Y-539056D01*
X-66219Y-538976D01*
X-66127Y-538900D01*
X-66033Y-538826D01*
X-65936Y-538756D01*
X-65838Y-538689D01*
X-65737Y-538625D01*
X-65633Y-538565D01*
X-65528Y-538508D01*
X-65421Y-538455D01*
X-65313Y-538405D01*
X-65203Y-538359D01*
X-65091Y-538317D01*
X-64978Y-538278D01*
X-64864Y-538243D01*
X-64749Y-538212D01*
X-64632Y-538184D01*
X-64515Y-538161D01*
X-64398Y-538141D01*
X-64279Y-538125D01*
X-64160Y-538113D01*
X-64041Y-538105D01*
X-63922Y-538101D01*
X-63802Y-538101D01*
X-63683Y-538105D01*
X-63564Y-538113D01*
X-63445Y-538125D01*
X-63326Y-538141D01*
X-63209Y-538161D01*
X-63092Y-538184D01*
X-62975Y-538212D01*
X-62860Y-538243D01*
X-62746Y-538278D01*
X-62633Y-538317D01*
X-62521Y-538359D01*
X-62411Y-538405D01*
X-62303Y-538455D01*
X-62196Y-538508D01*
X-62091Y-538565D01*
X-61987Y-538625D01*
X-61886Y-538689D01*
X-61788Y-538756D01*
X-61691Y-538826D01*
X-61597Y-538900D01*
X-61505Y-538976D01*
X-61416Y-539056D01*
X-61329Y-539138D01*
X-61245Y-539223D01*
X-61164Y-539311D01*
X-61087Y-539401D01*
X-61012Y-539494D01*
X-60940Y-539590D01*
X-60871Y-539688D01*
X-60806Y-539788D01*
X-60744Y-539890D01*
X-60685Y-539994D01*
X-60630Y-540100D01*
X-60579Y-540208D01*
X-60531Y-540317D01*
X-60486Y-540428D01*
X-60446Y-540540D01*
X-60409Y-540654D01*
X-60376Y-540769D01*
X-60346Y-540884D01*
X-60321Y-541001D01*
X-60299Y-541118D01*
X-60282Y-541237D01*
X-60268Y-541355D01*
X-60258Y-541474D01*
X-60252Y-541594D01*
X-60250Y-541713D01*
X-60250Y-543519D01*
X-67475Y-543519D01*
X-53322Y-548938D02*
X-53322Y-538101D01*
X-47903Y-538101D01*
X-47903Y-539907D01*
X-33121Y-532682D02*
X-33121Y-548938D01*
X-34927Y-548938D02*
X-31315Y-548938D01*
X-31315Y-532682D02*
X-34927Y-532682D01*
X-24749Y-538101D02*
X-24749Y-548938D01*
X-24749Y-538101D02*
X-20234Y-538101D01*
X-20130Y-538103D01*
X-20027Y-538109D01*
X-19923Y-538119D01*
X-19820Y-538133D01*
X-19718Y-538151D01*
X-19617Y-538172D01*
X-19516Y-538198D01*
X-19417Y-538227D01*
X-19318Y-538260D01*
X-19221Y-538297D01*
X-19126Y-538338D01*
X-19032Y-538382D01*
X-18940Y-538430D01*
X-18850Y-538481D01*
X-18761Y-538536D01*
X-18675Y-538594D01*
X-18592Y-538656D01*
X-18510Y-538720D01*
X-18432Y-538788D01*
X-18356Y-538858D01*
X-18282Y-538931D01*
X-18212Y-539008D01*
X-18144Y-539086D01*
X-18080Y-539168D01*
X-18018Y-539251D01*
X-17960Y-539337D01*
X-17905Y-539426D01*
X-17854Y-539516D01*
X-17806Y-539608D01*
X-17762Y-539702D01*
X-17721Y-539797D01*
X-17684Y-539894D01*
X-17651Y-539993D01*
X-17622Y-540092D01*
X-17596Y-540193D01*
X-17575Y-540294D01*
X-17557Y-540396D01*
X-17543Y-540499D01*
X-17533Y-540603D01*
X-17527Y-540706D01*
X-17525Y-540810D01*
X-17524Y-540810D02*
X-17524Y-548938D01*
X-10160Y-548938D02*
X-10160Y-538101D01*
X-5645Y-538101D01*
X-5541Y-538103D01*
X-5438Y-538109D01*
X-5334Y-538119D01*
X-5231Y-538133D01*
X-5129Y-538151D01*
X-5028Y-538172D01*
X-4927Y-538198D01*
X-4828Y-538227D01*
X-4729Y-538260D01*
X-4632Y-538297D01*
X-4537Y-538338D01*
X-4443Y-538382D01*
X-4351Y-538430D01*
X-4261Y-538481D01*
X-4172Y-538536D01*
X-4086Y-538594D01*
X-4003Y-538656D01*
X-3921Y-538720D01*
X-3843Y-538788D01*
X-3767Y-538858D01*
X-3693Y-538931D01*
X-3623Y-539008D01*
X-3555Y-539086D01*
X-3491Y-539168D01*
X-3429Y-539251D01*
X-3371Y-539337D01*
X-3316Y-539426D01*
X-3265Y-539516D01*
X-3217Y-539608D01*
X-3173Y-539702D01*
X-3132Y-539797D01*
X-3095Y-539894D01*
X-3062Y-539993D01*
X-3033Y-540092D01*
X-3007Y-540193D01*
X-2986Y-540294D01*
X-2968Y-540396D01*
X-2954Y-540499D01*
X-2944Y-540603D01*
X-2938Y-540706D01*
X-2936Y-540810D01*
X-2935Y-540810D02*
X-2935Y-548938D01*
X6617Y-548938D02*
X11133Y-548938D01*
X6617Y-548938D02*
X6516Y-548936D01*
X6415Y-548930D01*
X6314Y-548921D01*
X6213Y-548908D01*
X6113Y-548891D01*
X6014Y-548870D01*
X5916Y-548846D01*
X5819Y-548818D01*
X5722Y-548786D01*
X5627Y-548751D01*
X5534Y-548712D01*
X5442Y-548670D01*
X5351Y-548624D01*
X5263Y-548575D01*
X5176Y-548523D01*
X5091Y-548467D01*
X5008Y-548409D01*
X4928Y-548347D01*
X4850Y-548282D01*
X4774Y-548215D01*
X4701Y-548145D01*
X4631Y-548072D01*
X4564Y-547996D01*
X4499Y-547918D01*
X4437Y-547838D01*
X4379Y-547755D01*
X4323Y-547670D01*
X4271Y-547584D01*
X4222Y-547495D01*
X4176Y-547404D01*
X4134Y-547312D01*
X4095Y-547219D01*
X4060Y-547124D01*
X4028Y-547027D01*
X4000Y-546930D01*
X3976Y-546832D01*
X3955Y-546733D01*
X3938Y-546633D01*
X3925Y-546532D01*
X3916Y-546431D01*
X3910Y-546330D01*
X3908Y-546229D01*
X3908Y-541713D01*
X3910Y-541594D01*
X3916Y-541474D01*
X3926Y-541355D01*
X3940Y-541237D01*
X3957Y-541118D01*
X3979Y-541001D01*
X4004Y-540884D01*
X4034Y-540769D01*
X4067Y-540654D01*
X4104Y-540540D01*
X4144Y-540428D01*
X4189Y-540317D01*
X4237Y-540208D01*
X4288Y-540100D01*
X4343Y-539994D01*
X4402Y-539890D01*
X4464Y-539788D01*
X4529Y-539688D01*
X4598Y-539590D01*
X4670Y-539494D01*
X4745Y-539401D01*
X4822Y-539311D01*
X4903Y-539223D01*
X4987Y-539138D01*
X5074Y-539056D01*
X5163Y-538976D01*
X5255Y-538900D01*
X5349Y-538826D01*
X5446Y-538756D01*
X5544Y-538689D01*
X5645Y-538625D01*
X5749Y-538565D01*
X5854Y-538508D01*
X5961Y-538455D01*
X6069Y-538405D01*
X6179Y-538359D01*
X6291Y-538317D01*
X6404Y-538278D01*
X6518Y-538243D01*
X6633Y-538212D01*
X6750Y-538184D01*
X6867Y-538161D01*
X6984Y-538141D01*
X7103Y-538125D01*
X7222Y-538113D01*
X7341Y-538105D01*
X7460Y-538101D01*
X7580Y-538101D01*
X7699Y-538105D01*
X7818Y-538113D01*
X7937Y-538125D01*
X8056Y-538141D01*
X8173Y-538161D01*
X8290Y-538184D01*
X8407Y-538212D01*
X8522Y-538243D01*
X8636Y-538278D01*
X8749Y-538317D01*
X8861Y-538359D01*
X8971Y-538405D01*
X9079Y-538455D01*
X9186Y-538508D01*
X9291Y-538565D01*
X9395Y-538625D01*
X9496Y-538689D01*
X9594Y-538756D01*
X9691Y-538826D01*
X9785Y-538900D01*
X9877Y-538976D01*
X9966Y-539056D01*
X10053Y-539138D01*
X10137Y-539223D01*
X10218Y-539311D01*
X10295Y-539401D01*
X10370Y-539494D01*
X10442Y-539590D01*
X10511Y-539688D01*
X10576Y-539788D01*
X10638Y-539890D01*
X10697Y-539994D01*
X10752Y-540100D01*
X10803Y-540208D01*
X10851Y-540317D01*
X10896Y-540428D01*
X10936Y-540540D01*
X10973Y-540654D01*
X11006Y-540769D01*
X11036Y-540884D01*
X11061Y-541001D01*
X11083Y-541118D01*
X11100Y-541237D01*
X11114Y-541355D01*
X11124Y-541474D01*
X11130Y-541594D01*
X11132Y-541713D01*
X11133Y-541713D02*
X11133Y-543519D01*
X3908Y-543519D01*
X18061Y-548938D02*
X18061Y-538101D01*
X23480Y-538101D01*
X23480Y-539907D01*
X37533Y-532682D02*
X37533Y-548938D01*
X42951Y-541713D02*
X37533Y-532682D01*
X42951Y-541713D02*
X48370Y-532682D01*
X48370Y-548938D01*
X58200Y-548938D02*
X62716Y-548938D01*
X58200Y-548938D02*
X58099Y-548936D01*
X57998Y-548930D01*
X57897Y-548921D01*
X57796Y-548908D01*
X57696Y-548891D01*
X57597Y-548870D01*
X57499Y-548846D01*
X57402Y-548818D01*
X57305Y-548786D01*
X57210Y-548751D01*
X57117Y-548712D01*
X57025Y-548670D01*
X56934Y-548624D01*
X56846Y-548575D01*
X56759Y-548523D01*
X56674Y-548467D01*
X56591Y-548409D01*
X56511Y-548347D01*
X56433Y-548282D01*
X56357Y-548215D01*
X56284Y-548145D01*
X56214Y-548072D01*
X56147Y-547996D01*
X56082Y-547918D01*
X56020Y-547838D01*
X55962Y-547755D01*
X55906Y-547670D01*
X55854Y-547584D01*
X55805Y-547495D01*
X55759Y-547404D01*
X55717Y-547312D01*
X55678Y-547219D01*
X55643Y-547124D01*
X55611Y-547027D01*
X55583Y-546930D01*
X55559Y-546832D01*
X55538Y-546733D01*
X55521Y-546633D01*
X55508Y-546532D01*
X55499Y-546431D01*
X55493Y-546330D01*
X55491Y-546229D01*
X55491Y-541713D01*
X55493Y-541594D01*
X55499Y-541474D01*
X55509Y-541355D01*
X55523Y-541237D01*
X55540Y-541118D01*
X55562Y-541001D01*
X55587Y-540884D01*
X55617Y-540769D01*
X55650Y-540654D01*
X55687Y-540540D01*
X55727Y-540428D01*
X55772Y-540317D01*
X55820Y-540208D01*
X55871Y-540100D01*
X55926Y-539994D01*
X55985Y-539890D01*
X56047Y-539788D01*
X56112Y-539688D01*
X56181Y-539590D01*
X56253Y-539494D01*
X56328Y-539401D01*
X56405Y-539311D01*
X56486Y-539223D01*
X56570Y-539138D01*
X56657Y-539056D01*
X56746Y-538976D01*
X56838Y-538900D01*
X56932Y-538826D01*
X57029Y-538756D01*
X57127Y-538689D01*
X57228Y-538625D01*
X57332Y-538565D01*
X57437Y-538508D01*
X57544Y-538455D01*
X57652Y-538405D01*
X57762Y-538359D01*
X57874Y-538317D01*
X57987Y-538278D01*
X58101Y-538243D01*
X58216Y-538212D01*
X58333Y-538184D01*
X58450Y-538161D01*
X58567Y-538141D01*
X58686Y-538125D01*
X58805Y-538113D01*
X58924Y-538105D01*
X59043Y-538101D01*
X59163Y-538101D01*
X59282Y-538105D01*
X59401Y-538113D01*
X59520Y-538125D01*
X59639Y-538141D01*
X59756Y-538161D01*
X59873Y-538184D01*
X59990Y-538212D01*
X60105Y-538243D01*
X60219Y-538278D01*
X60332Y-538317D01*
X60444Y-538359D01*
X60554Y-538405D01*
X60662Y-538455D01*
X60769Y-538508D01*
X60874Y-538565D01*
X60978Y-538625D01*
X61079Y-538689D01*
X61177Y-538756D01*
X61274Y-538826D01*
X61368Y-538900D01*
X61460Y-538976D01*
X61549Y-539056D01*
X61636Y-539138D01*
X61720Y-539223D01*
X61801Y-539311D01*
X61878Y-539401D01*
X61953Y-539494D01*
X62025Y-539590D01*
X62094Y-539688D01*
X62159Y-539788D01*
X62221Y-539890D01*
X62280Y-539994D01*
X62335Y-540100D01*
X62386Y-540208D01*
X62434Y-540317D01*
X62479Y-540428D01*
X62519Y-540540D01*
X62556Y-540654D01*
X62589Y-540769D01*
X62619Y-540884D01*
X62644Y-541001D01*
X62666Y-541118D01*
X62683Y-541237D01*
X62697Y-541355D01*
X62707Y-541474D01*
X62713Y-541594D01*
X62715Y-541713D01*
X62716Y-541713D02*
X62716Y-543519D01*
X55491Y-543519D01*
X67741Y-538101D02*
X73159Y-538101D01*
X69547Y-532682D02*
X69547Y-546229D01*
X69549Y-546330D01*
X69555Y-546431D01*
X69564Y-546532D01*
X69577Y-546633D01*
X69594Y-546733D01*
X69615Y-546832D01*
X69639Y-546930D01*
X69667Y-547027D01*
X69699Y-547124D01*
X69734Y-547219D01*
X69773Y-547312D01*
X69815Y-547404D01*
X69861Y-547495D01*
X69910Y-547584D01*
X69962Y-547670D01*
X70018Y-547755D01*
X70076Y-547838D01*
X70138Y-547918D01*
X70203Y-547996D01*
X70270Y-548072D01*
X70340Y-548145D01*
X70413Y-548215D01*
X70489Y-548282D01*
X70567Y-548347D01*
X70647Y-548409D01*
X70730Y-548467D01*
X70815Y-548523D01*
X70902Y-548575D01*
X70990Y-548624D01*
X71081Y-548670D01*
X71173Y-548712D01*
X71266Y-548751D01*
X71361Y-548786D01*
X71458Y-548818D01*
X71555Y-548846D01*
X71653Y-548870D01*
X71752Y-548891D01*
X71852Y-548908D01*
X71953Y-548921D01*
X72054Y-548930D01*
X72155Y-548936D01*
X72256Y-548938D01*
X73159Y-548938D01*
X82025Y-542616D02*
X86089Y-542616D01*
X82025Y-542616D02*
X81913Y-542618D01*
X81802Y-542624D01*
X81691Y-542634D01*
X81580Y-542647D01*
X81470Y-542665D01*
X81361Y-542687D01*
X81252Y-542712D01*
X81144Y-542741D01*
X81038Y-542774D01*
X80932Y-542811D01*
X80828Y-542851D01*
X80726Y-542895D01*
X80625Y-542943D01*
X80526Y-542994D01*
X80428Y-543049D01*
X80333Y-543107D01*
X80240Y-543168D01*
X80149Y-543233D01*
X80060Y-543301D01*
X79974Y-543372D01*
X79891Y-543445D01*
X79810Y-543522D01*
X79731Y-543602D01*
X79656Y-543684D01*
X79584Y-543769D01*
X79514Y-543856D01*
X79448Y-543946D01*
X79385Y-544038D01*
X79325Y-544133D01*
X79269Y-544229D01*
X79216Y-544327D01*
X79167Y-544427D01*
X79121Y-544529D01*
X79079Y-544632D01*
X79040Y-544737D01*
X79005Y-544843D01*
X78974Y-544950D01*
X78947Y-545058D01*
X78923Y-545167D01*
X78904Y-545277D01*
X78888Y-545387D01*
X78876Y-545498D01*
X78868Y-545610D01*
X78864Y-545721D01*
X78864Y-545833D01*
X78868Y-545944D01*
X78876Y-546056D01*
X78888Y-546167D01*
X78904Y-546277D01*
X78923Y-546387D01*
X78947Y-546496D01*
X78974Y-546604D01*
X79005Y-546711D01*
X79040Y-546817D01*
X79079Y-546922D01*
X79121Y-547025D01*
X79167Y-547127D01*
X79216Y-547227D01*
X79269Y-547325D01*
X79325Y-547421D01*
X79385Y-547516D01*
X79448Y-547608D01*
X79514Y-547698D01*
X79584Y-547785D01*
X79656Y-547870D01*
X79731Y-547952D01*
X79810Y-548032D01*
X79891Y-548109D01*
X79974Y-548182D01*
X80060Y-548253D01*
X80149Y-548321D01*
X80240Y-548386D01*
X80333Y-548447D01*
X80428Y-548505D01*
X80526Y-548560D01*
X80625Y-548611D01*
X80726Y-548659D01*
X80828Y-548703D01*
X80932Y-548743D01*
X81038Y-548780D01*
X81144Y-548813D01*
X81252Y-548842D01*
X81361Y-548867D01*
X81470Y-548889D01*
X81580Y-548907D01*
X81691Y-548920D01*
X81802Y-548930D01*
X81913Y-548936D01*
X82025Y-548938D01*
X86089Y-548938D01*
X86089Y-540810D01*
X86087Y-540709D01*
X86081Y-540608D01*
X86072Y-540507D01*
X86059Y-540406D01*
X86042Y-540306D01*
X86021Y-540207D01*
X85997Y-540109D01*
X85969Y-540012D01*
X85937Y-539915D01*
X85902Y-539820D01*
X85863Y-539727D01*
X85821Y-539635D01*
X85775Y-539544D01*
X85726Y-539456D01*
X85674Y-539369D01*
X85618Y-539284D01*
X85560Y-539201D01*
X85498Y-539121D01*
X85433Y-539043D01*
X85366Y-538967D01*
X85296Y-538894D01*
X85223Y-538824D01*
X85147Y-538757D01*
X85069Y-538692D01*
X84989Y-538630D01*
X84906Y-538572D01*
X84821Y-538516D01*
X84735Y-538464D01*
X84646Y-538415D01*
X84555Y-538369D01*
X84463Y-538327D01*
X84370Y-538288D01*
X84275Y-538253D01*
X84178Y-538221D01*
X84081Y-538193D01*
X83983Y-538169D01*
X83884Y-538148D01*
X83784Y-538131D01*
X83683Y-538118D01*
X83582Y-538109D01*
X83481Y-538103D01*
X83380Y-538101D01*
X79768Y-538101D01*
X93243Y-532682D02*
X93243Y-546229D01*
X93245Y-546330D01*
X93251Y-546431D01*
X93260Y-546532D01*
X93273Y-546633D01*
X93290Y-546733D01*
X93311Y-546832D01*
X93335Y-546930D01*
X93363Y-547027D01*
X93395Y-547124D01*
X93430Y-547219D01*
X93469Y-547312D01*
X93511Y-547404D01*
X93557Y-547495D01*
X93606Y-547584D01*
X93658Y-547670D01*
X93714Y-547755D01*
X93772Y-547838D01*
X93834Y-547918D01*
X93899Y-547996D01*
X93966Y-548072D01*
X94036Y-548145D01*
X94109Y-548215D01*
X94185Y-548282D01*
X94263Y-548347D01*
X94343Y-548409D01*
X94426Y-548467D01*
X94511Y-548523D01*
X94598Y-548575D01*
X94686Y-548624D01*
X94777Y-548670D01*
X94869Y-548712D01*
X94962Y-548751D01*
X95057Y-548786D01*
X95154Y-548818D01*
X95251Y-548846D01*
X95349Y-548870D01*
X95448Y-548891D01*
X95548Y-548908D01*
X95649Y-548921D01*
X95750Y-548930D01*
X95851Y-548936D01*
X95952Y-548938D01*
D16*
X300000Y40140D03*
X317190Y172500D03*
X317190Y122500D03*
X257500Y112810D03*
X277500Y112810D03*
X257500Y187190D03*
X287500Y187190D03*
X200000Y129860D03*
X34960Y54600D03*
X60000Y189860D03*
X60000Y139860D03*
X82645Y90750D03*
X82645Y142750D03*
X104235Y97250D03*
X104235Y123250D03*
X177355Y116750D03*
X-218810Y172500D03*
X-121190Y172500D03*
X-123000Y284440D03*
X-98000Y308440D03*
X-148000Y308440D03*
X250000Y-129740D03*
X-310000Y126809D03*
X-310000Y160140D03*
X320000Y309860D03*
X86010Y-27300D03*
X46690Y-103500D03*
X12750Y-57048D03*
X83190Y-286000D03*
X106810Y-214000D03*
X230000Y309860D03*
X320000Y220140D03*
X276810Y-214000D03*
X253190Y-286000D03*
X260000Y40140D03*
X-174190Y-285000D03*
X-125810Y-285000D03*
X-356810Y-286000D03*
X-333190Y-214000D03*
X132190Y-265000D03*
X227810Y-265000D03*
X-250000Y-129740D03*
X70000Y203203D03*
X132190Y-335000D03*
X227810Y-335000D03*
X-106010Y-52700D03*
X-66690Y23500D03*
X230000Y220140D03*
X132190Y-195000D03*
X227810Y-195000D03*
X60000Y50140D03*
X379810Y-275000D03*
X-310000Y99860D03*
X290000Y-129740D03*
X-174190Y-185000D03*
X-125810Y-185000D03*
X-333500Y251010D03*
X-350000Y200260D03*
X-210000Y-129740D03*
D17*
X270000Y30000D03*
X270000Y-142500D03*
X275000Y142500D03*
X-40000Y2500D03*
X255000Y180000D03*
X252500Y-5000D03*
X-140000Y-22500D03*
D16*
X104235Y149250D03*
X155765Y97250D03*
X356190Y-225000D03*
X320000Y259860D03*
X-32750Y387D03*
X60000Y150140D03*
X34960Y105400D03*
X-282700Y251010D03*
X200000Y90140D03*
X-268310Y-192500D03*
X340430Y167500D03*
X340430Y117500D03*
X272500Y89570D03*
X292500Y210430D03*
X267500Y187190D03*
X330000Y-129740D03*
X300000Y79860D03*
X-170000Y-129740D03*
X-410000Y-129740D03*
X370000Y-129740D03*
D18*
X-35000Y37500D02*
X-150000Y-77500D01*
D17*
X-35000Y37500D03*
X-150000Y-77500D03*
X292500Y87500D03*
X295000Y-22500D03*
X275000Y-22500D03*
X247500Y115000D03*
D18*
X272500Y132500D02*
X282500Y142500D01*
X272500Y132500D02*
X255000Y132500D01*
X247500Y125000D01*
X197500Y125000D01*
X110000Y212500D01*
X97500Y212500D01*
X92500Y207500D01*
D17*
X282500Y142500D03*
X92500Y207500D03*
X270000Y137500D03*
X47500Y110000D03*
X270000Y42500D03*
X-52500Y70000D03*
D19*
X-240000Y127345D03*
X-412000Y-262445D03*
X-270000Y132655D03*
D17*
X95000Y50000D03*
X85000Y40000D03*
D19*
X-192555Y147500D03*
X-147445Y147500D03*
X-240000Y72655D03*
X-300500Y106554D03*
D17*
X115000Y97500D03*
X-17500Y-35000D03*
X75000Y90000D03*
X75000Y-92500D03*
X45000Y-82500D03*
X32500Y-17500D03*
X287500Y147500D03*
X285000Y72500D03*
X32500Y-5000D03*
X-315000Y-147500D03*
X-102500Y7500D03*
X-25000Y45000D03*
X-72500Y100000D03*
X-95000Y-15000D03*
X-95000Y77500D03*
X-40000Y-27500D03*
X-245000Y212500D03*
D18*
X270000Y120000D02*
X297500Y147500D01*
X270000Y120000D02*
X267500Y120000D01*
X265000Y117500D01*
X265000Y110000D01*
X220000Y65000D01*
D17*
X297500Y147500D03*
X220000Y65000D03*
D19*
X-268945Y-272500D03*
X-310000Y200495D03*
X-97000Y283805D03*
X-270000Y187345D03*
X-300500Y132556D03*
D17*
X315000Y147500D03*
X345000Y132500D03*
X282500Y117500D03*
X280000Y-5000D03*
D18*
X272500Y77500D02*
X87500Y-107500D01*
D17*
X272500Y77500D03*
X87500Y-107500D03*
D18*
X92500Y-112500D02*
X272500Y67500D01*
D17*
X272500Y67500D03*
X92500Y-112500D03*
X307500Y182500D03*
X307500Y-22500D03*
X330000Y25000D03*
X260000Y-45000D03*
X265000Y170000D03*
X265000Y-25000D03*
X287500Y-25000D03*
X287500Y25000D03*
X-280000Y-152500D03*
X-247500Y-252500D03*
X-317500Y-162500D03*
X-317500Y-177500D03*
X120000Y135000D03*
X145000Y-207500D03*
D18*
X-112500Y-202500D02*
X-155000Y-202500D01*
X-112500Y-202500D02*
X192500Y102500D01*
X220000Y102500D01*
D17*
X-155000Y-202500D03*
X220000Y102500D03*
D18*
X110000Y207500D02*
X100000Y207500D01*
X110000Y207500D02*
X197500Y120000D01*
X262500Y120000D01*
X270000Y127500D01*
D17*
X100000Y207500D03*
X270000Y127500D03*
X187500Y105000D03*
X220000Y95000D03*
D19*
X-375555Y-275000D03*
X60000Y90495D03*
X82010Y129750D03*
X60000Y99505D03*
D18*
X200000Y260000D02*
X200000Y340000D01*
X200000Y260000D02*
X215000Y260000D01*
X215000Y160000D01*
X250000Y160000D01*
X250000Y135000D01*
X205000Y135000D01*
X130000Y210000D01*
X130000Y260000D01*
X-45000Y260000D01*
X-45000Y340000D01*
M02*
