G04 EAGLE Gerber RS-274X export*
G75*
%MOMM*%
%FSLAX34Y34*%
%LPD*%
%INTop Inner Metal*%
%IPPOS*%
%AMOC8*
5,1,8,0,0,1.08239X$1,22.5*%
G01*
%ADD10C,3.516000*%
%ADD11C,0.750000*%
%ADD12C,0.635000*%

G36*
X80022Y-217945D02*
X80022Y-217945D01*
X80050Y-217947D01*
X82758Y-217734D01*
X82807Y-217721D01*
X82905Y-217705D01*
X88057Y-216031D01*
X88062Y-216028D01*
X88067Y-216027D01*
X88234Y-215941D01*
X92616Y-212757D01*
X92620Y-212753D01*
X92625Y-212750D01*
X92645Y-212730D01*
X92659Y-212721D01*
X92688Y-212686D01*
X92757Y-212616D01*
X95941Y-208234D01*
X95943Y-208229D01*
X95947Y-208225D01*
X96031Y-208057D01*
X97705Y-202905D01*
X97712Y-202855D01*
X97712Y-202853D01*
X97723Y-202821D01*
X97723Y-202808D01*
X97734Y-202758D01*
X97947Y-200050D01*
X97945Y-200028D01*
X97949Y-200000D01*
X97949Y215000D01*
X97945Y215022D01*
X97947Y215050D01*
X97734Y217758D01*
X97721Y217807D01*
X97705Y217905D01*
X96031Y223057D01*
X96028Y223062D01*
X96027Y223067D01*
X95981Y223157D01*
X95966Y223193D01*
X95957Y223203D01*
X95941Y223234D01*
X92757Y227616D01*
X92753Y227620D01*
X92750Y227625D01*
X92616Y227757D01*
X88234Y230941D01*
X88229Y230943D01*
X88225Y230947D01*
X88057Y231031D01*
X82905Y232705D01*
X82855Y232712D01*
X82758Y232734D01*
X80050Y232947D01*
X80028Y232945D01*
X80000Y232949D01*
X-80000Y232949D01*
X-80022Y232945D01*
X-80050Y232947D01*
X-82758Y232734D01*
X-82807Y232721D01*
X-82905Y232705D01*
X-88057Y231031D01*
X-88062Y231028D01*
X-88067Y231027D01*
X-88234Y230941D01*
X-92616Y227757D01*
X-92620Y227753D01*
X-92625Y227750D01*
X-92757Y227616D01*
X-95941Y223234D01*
X-95943Y223229D01*
X-95947Y223225D01*
X-95970Y223180D01*
X-95985Y223161D01*
X-95998Y223123D01*
X-96031Y223057D01*
X-97705Y217905D01*
X-97712Y217855D01*
X-97734Y217758D01*
X-97947Y215050D01*
X-97945Y215028D01*
X-97949Y215000D01*
X-97949Y-200000D01*
X-97945Y-200022D01*
X-97947Y-200050D01*
X-97734Y-202758D01*
X-97721Y-202807D01*
X-97717Y-202832D01*
X-97716Y-202858D01*
X-97710Y-202873D01*
X-97705Y-202905D01*
X-96031Y-208057D01*
X-96028Y-208062D01*
X-96027Y-208067D01*
X-95941Y-208234D01*
X-92757Y-212616D01*
X-92753Y-212620D01*
X-92750Y-212625D01*
X-92650Y-212724D01*
X-92630Y-212745D01*
X-92626Y-212747D01*
X-92616Y-212757D01*
X-88234Y-215941D01*
X-88229Y-215943D01*
X-88225Y-215947D01*
X-88057Y-216031D01*
X-82905Y-217705D01*
X-82855Y-217712D01*
X-82758Y-217734D01*
X-80050Y-217947D01*
X-80028Y-217945D01*
X-80000Y-217949D01*
X80000Y-217949D01*
X80022Y-217945D01*
G37*
%LPC*%
G36*
X-59819Y-212621D02*
X-59819Y-212621D01*
X-62434Y-212276D01*
X-64981Y-211594D01*
X-67418Y-210584D01*
X-69703Y-209266D01*
X-71795Y-207660D01*
X-73660Y-205795D01*
X-75266Y-203703D01*
X-76584Y-201418D01*
X-77594Y-198981D01*
X-78276Y-196434D01*
X-78621Y-193819D01*
X-78621Y-193769D01*
X-59769Y-193769D01*
X-59769Y-212621D01*
X-59819Y-212621D01*
G37*
%LPD*%
%LPC*%
G36*
X59769Y-212621D02*
X59769Y-212621D01*
X59769Y-193769D01*
X78621Y-193769D01*
X78621Y-193819D01*
X78276Y-196434D01*
X77594Y-198981D01*
X76584Y-201418D01*
X75266Y-203703D01*
X73660Y-205795D01*
X71795Y-207660D01*
X69703Y-209266D01*
X67418Y-210584D01*
X64981Y-211594D01*
X62434Y-212276D01*
X59819Y-212621D01*
X59769Y-212621D01*
G37*
%LPD*%
%LPC*%
G36*
X-57231Y-212621D02*
X-57231Y-212621D01*
X-57231Y-193769D01*
X-38379Y-193769D01*
X-38379Y-193819D01*
X-38724Y-196434D01*
X-39406Y-198981D01*
X-40416Y-201418D01*
X-41734Y-203703D01*
X-43340Y-205795D01*
X-45205Y-207660D01*
X-47297Y-209266D01*
X-49582Y-210584D01*
X-52019Y-211594D01*
X-54566Y-212276D01*
X-57181Y-212621D01*
X-57231Y-212621D01*
G37*
%LPD*%
%LPC*%
G36*
X57181Y-212621D02*
X57181Y-212621D01*
X54566Y-212276D01*
X52019Y-211594D01*
X49582Y-210584D01*
X47297Y-209266D01*
X45205Y-207660D01*
X43340Y-205795D01*
X41734Y-203703D01*
X40416Y-201418D01*
X39406Y-198981D01*
X38724Y-196434D01*
X38379Y-193819D01*
X38379Y-193769D01*
X57231Y-193769D01*
X57231Y-212621D01*
X57181Y-212621D01*
G37*
%LPD*%
%LPC*%
G36*
X-78621Y-191231D02*
X-78621Y-191231D01*
X-78621Y-191181D01*
X-78276Y-188566D01*
X-77594Y-186019D01*
X-76584Y-183582D01*
X-75266Y-181297D01*
X-73660Y-179205D01*
X-71795Y-177340D01*
X-69703Y-175734D01*
X-67418Y-174416D01*
X-64981Y-173406D01*
X-62434Y-172724D01*
X-59819Y-172379D01*
X-59769Y-172379D01*
X-59769Y-191231D01*
X-78621Y-191231D01*
G37*
%LPD*%
%LPC*%
G36*
X59769Y-191231D02*
X59769Y-191231D01*
X59769Y-172379D01*
X59819Y-172379D01*
X62434Y-172724D01*
X64981Y-173406D01*
X67418Y-174416D01*
X69703Y-175734D01*
X71795Y-177340D01*
X73660Y-179205D01*
X75266Y-181297D01*
X76584Y-183582D01*
X77594Y-186019D01*
X78276Y-188566D01*
X78621Y-191181D01*
X78621Y-191231D01*
X59769Y-191231D01*
G37*
%LPD*%
%LPC*%
G36*
X38379Y-191231D02*
X38379Y-191231D01*
X38379Y-191181D01*
X38724Y-188566D01*
X39406Y-186019D01*
X40416Y-183582D01*
X41734Y-181297D01*
X43340Y-179205D01*
X45205Y-177340D01*
X47297Y-175734D01*
X49582Y-174416D01*
X52019Y-173406D01*
X54566Y-172724D01*
X57181Y-172379D01*
X57231Y-172379D01*
X57231Y-191231D01*
X38379Y-191231D01*
G37*
%LPD*%
%LPC*%
G36*
X-57231Y-191231D02*
X-57231Y-191231D01*
X-57231Y-172379D01*
X-57181Y-172379D01*
X-54566Y-172724D01*
X-52019Y-173406D01*
X-49582Y-174416D01*
X-47297Y-175734D01*
X-45205Y-177340D01*
X-43340Y-179205D01*
X-41734Y-181297D01*
X-40416Y-183582D01*
X-39406Y-186019D01*
X-38724Y-188566D01*
X-38379Y-191181D01*
X-38379Y-191231D01*
X-57231Y-191231D01*
G37*
%LPD*%
%LPC*%
G36*
X21508Y-200001D02*
X21508Y-200001D01*
X18751Y-198859D01*
X16641Y-196749D01*
X15499Y-193992D01*
X15499Y-191008D01*
X16641Y-188251D01*
X18751Y-186141D01*
X21508Y-184999D01*
X24492Y-184999D01*
X27249Y-186141D01*
X29359Y-188251D01*
X30501Y-191008D01*
X30501Y-193992D01*
X29359Y-196749D01*
X27249Y-198859D01*
X24492Y-200001D01*
X21508Y-200001D01*
G37*
%LPD*%
%LPC*%
G36*
X-24492Y-200001D02*
X-24492Y-200001D01*
X-27249Y-198859D01*
X-29359Y-196749D01*
X-30501Y-193992D01*
X-30501Y-191008D01*
X-29359Y-188251D01*
X-27249Y-186141D01*
X-24492Y-184999D01*
X-21508Y-184999D01*
X-18751Y-186141D01*
X-16641Y-188251D01*
X-15499Y-191008D01*
X-15499Y-193992D01*
X-16641Y-196749D01*
X-18751Y-198859D01*
X-21508Y-200001D01*
X-24492Y-200001D01*
G37*
%LPD*%
%LPC*%
G36*
X-87080Y-115021D02*
X-87080Y-115021D01*
X-90021Y-112080D01*
X-90021Y-107920D01*
X-87080Y-104979D01*
X-82920Y-104979D01*
X-79979Y-107920D01*
X-79979Y-112080D01*
X-82920Y-115021D01*
X-87080Y-115021D01*
G37*
%LPD*%
%LPC*%
G36*
X-87080Y69979D02*
X-87080Y69979D01*
X-90021Y72920D01*
X-90021Y77080D01*
X-87080Y80021D01*
X-82920Y80021D01*
X-79979Y77080D01*
X-79979Y72920D01*
X-82920Y69979D01*
X-87080Y69979D01*
G37*
%LPD*%
%LPC*%
G36*
X82920Y69979D02*
X82920Y69979D01*
X79979Y72920D01*
X79979Y77080D01*
X82920Y80021D01*
X87080Y80021D01*
X90021Y77080D01*
X90021Y72920D01*
X87080Y69979D01*
X82920Y69979D01*
G37*
%LPD*%
%LPC*%
G36*
X28158Y103054D02*
X28158Y103054D01*
X25554Y105658D01*
X25554Y109342D01*
X28158Y111946D01*
X31842Y111946D01*
X34446Y109342D01*
X34446Y105658D01*
X31842Y103054D01*
X28158Y103054D01*
G37*
%LPD*%
%LPC*%
G36*
X53158Y10554D02*
X53158Y10554D01*
X50554Y13158D01*
X50554Y16842D01*
X53158Y19446D01*
X56842Y19446D01*
X59446Y16842D01*
X59446Y13158D01*
X56842Y10554D01*
X53158Y10554D01*
G37*
%LPD*%
%LPC*%
G36*
X50658Y58054D02*
X50658Y58054D01*
X48054Y60658D01*
X48054Y64342D01*
X50658Y66946D01*
X54342Y66946D01*
X56946Y64342D01*
X56946Y60658D01*
X54342Y58054D01*
X50658Y58054D01*
G37*
%LPD*%
%LPC*%
G36*
X-79342Y58054D02*
X-79342Y58054D01*
X-81946Y60658D01*
X-81946Y64342D01*
X-79342Y66946D01*
X-75658Y66946D01*
X-73054Y64342D01*
X-73054Y60658D01*
X-75658Y58054D01*
X-79342Y58054D01*
G37*
%LPD*%
%LPC*%
G36*
X-84342Y-9446D02*
X-84342Y-9446D01*
X-86946Y-6842D01*
X-86946Y-3159D01*
X-84341Y-554D01*
X-80659Y-554D01*
X-78054Y-3159D01*
X-78054Y-6842D01*
X-80658Y-9446D01*
X-84342Y-9446D01*
G37*
%LPD*%
%LPC*%
G36*
X58158Y-9446D02*
X58158Y-9446D01*
X55554Y-6842D01*
X55554Y-3159D01*
X58159Y-554D01*
X61841Y-554D01*
X64446Y-3159D01*
X64446Y-6842D01*
X61842Y-9446D01*
X58158Y-9446D01*
G37*
%LPD*%
%LPC*%
G36*
X86249Y-111249D02*
X86249Y-111249D01*
X91165Y-111249D01*
X91049Y-111835D01*
X90575Y-112980D01*
X89886Y-114010D01*
X89010Y-114886D01*
X87980Y-115575D01*
X86835Y-116049D01*
X86249Y-116165D01*
X86249Y-111249D01*
G37*
%LPD*%
%LPC*%
G36*
X86249Y-108751D02*
X86249Y-108751D01*
X86249Y-103835D01*
X86835Y-103951D01*
X87980Y-104425D01*
X89010Y-105114D01*
X89886Y-105990D01*
X90575Y-107020D01*
X91049Y-108165D01*
X91165Y-108751D01*
X86249Y-108751D01*
G37*
%LPD*%
%LPC*%
G36*
X83165Y-116049D02*
X83165Y-116049D01*
X82020Y-115575D01*
X80990Y-114886D01*
X80114Y-114010D01*
X79425Y-112980D01*
X78951Y-111835D01*
X78835Y-111249D01*
X83751Y-111249D01*
X83751Y-116165D01*
X83165Y-116049D01*
G37*
%LPD*%
%LPC*%
G36*
X78835Y-108751D02*
X78835Y-108751D01*
X78951Y-108165D01*
X79425Y-107020D01*
X80114Y-105990D01*
X80990Y-105114D01*
X82020Y-104425D01*
X83165Y-103951D01*
X83751Y-103835D01*
X83751Y-108751D01*
X78835Y-108751D01*
G37*
%LPD*%
%LPC*%
G36*
X-58501Y-192501D02*
X-58501Y-192501D01*
X-58501Y-192499D01*
X-58499Y-192499D01*
X-58499Y-192501D01*
X-58501Y-192501D01*
G37*
%LPD*%
%LPC*%
G36*
X58499Y-192501D02*
X58499Y-192501D01*
X58499Y-192499D01*
X58501Y-192499D01*
X58501Y-192501D01*
X58499Y-192501D01*
G37*
%LPD*%
D10*
X58500Y-192500D03*
X-58500Y-192500D03*
D11*
X-85000Y75000D03*
X85000Y75000D03*
X-85000Y-110000D03*
X85000Y-110000D03*
D12*
X-82500Y-5000D03*
X60000Y-5000D03*
X55000Y15000D03*
X30000Y107500D03*
X-77500Y62500D03*
X52500Y62500D03*
M02*
