M48
;GenerationSoftware,Autodesk,EAGLE,9.3.0*%
;CreationDate,2019-06-18T05:29:42Z*%
FMAT,2
ICI,OFF
METRIC,TZ,000.000
T9C0.200
T8C0.254
T7C0.381
T6C0.900
T5C1.000
T4C1.300
T3C1.500
T2C2.200
T1C3.200
%
G90
M71
T1
X0Y-1000
T2
X-107000Y-27000
X-107000Y27000
X-107000Y27000
X-53000Y-27000
X-53000Y27000
X107000Y27000
X107000Y-27000
X107000Y-27000
X53000Y27000
X53000Y-27000
X-5700Y-19000
X5700Y-19000
X-37500Y-5500
X-37500Y25500
X37500Y-5500
X37500Y25500
T3
X1270Y-6365
X-1270Y-6365
T4
X2500Y-26500
X-2500Y-12000
X2500Y-12000
X0Y-26500
X-2500Y-26500
T5
X-20000Y-9500
X-11000Y-9500
X-24500Y-9500
X-15500Y-9500
T6
X-37000Y16950
X-37000Y14950
X-37000Y10950
X-37000Y8950
X-37000Y6950
X-37000Y20950
X-37000Y2950
X-37000Y950
X-37000Y-1050
X37000Y1000
X-37000Y4950
X-37000Y12950
X-37000Y18950
X37000Y-1000
X37000Y17000
X37000Y19000
X37000Y21000
X37000Y3000
X37000Y5000
X37000Y9000
X37000Y11000
X37000Y13000
X37000Y15000
X37000Y7000
T7
X-34800Y-17756
X-26265Y10500
X-22500Y5295
X-20266Y10500
X-23655Y7950
X-31734Y10500
X-31294Y-22275
X29300Y22380
X-28345Y7950
X23201Y15975
X22000Y13705
X-38445Y-16500
T8
X29000Y8642
X-3500Y5642
X22000Y10358
X22000Y21642
X3000Y22642
X-22500Y8642
X-3000Y19358
X-19540Y-3584
X-23730Y19101
X23264Y17925
X32735Y12725
X-6043Y10750
X-6043Y15750
X1250Y6457
X-1250Y6457
X750Y18543
X22000Y18358
X32396Y-6250
X33206Y-6750
X32039Y3275
X29000Y5358
X-31231Y-16275
X34119Y-16500
X-14000Y19334
X-14460Y-7496
X-8000Y19334
X-28769Y-23725
X-29500Y8642
X5500Y2358
X3500Y2358
X-3000Y22642
X-33206Y-5750
X-32396Y-5250
X28794Y-5750
X29604Y-5250
X30576Y14675
X25423Y17275
X25423Y15325
X26119Y12725
X25423Y12075
X250Y16219
X2250Y16219
X-750Y8781
X750Y8781
X2250Y8781
X-3719Y15250
X-3719Y10250
X-22681Y-22600
X-22681Y-15400
X8000Y25352
X5669Y7350
X5669Y-270
X20419Y-20500
X15581Y-20500
X-10581Y-12500
X-15419Y-12500
X20419Y-13500
X15581Y-13500
X-5669Y-5350
X-5669Y2270
X11319Y-22600
X11319Y-15400
X25319Y-22600
X25319Y-15400
X-10581Y-22500
X-15419Y-22500
X24200Y24844
X29200Y24844
X31800Y24844
X26700Y24556
X20419Y-27500
X15581Y-27500
X-25681Y7000
X-27500Y2975
X-18650Y15169
X26295Y-1275
X36481Y-21500
X-5500Y5642
T9
X3500Y-9000
X3500Y10250
X4500Y-8500
X2000Y9500
X14750Y-2750
X10250Y-6000
X-7500Y8250
X10000Y-750
X-4750Y1250
X31500Y-7500
X9000Y14500
X-29000Y-17000
X-29000Y-19750
X-33500Y-6500
X-33750Y-4750
X17500Y-2750
X17500Y3250
X-30500Y-14500
X2000Y15250
X-4750Y26250
X-4750Y25250
X2500Y11000
X14500Y-3750
X250Y12750
X3500Y-9750
X3000Y14750
X-500Y12000
X3000Y-10250
X-2750Y12000
X-6250Y12750
X15000Y-1250
X-3250Y9000
X-15000Y16250
X23750Y4750
X-19500Y15000
X23250Y750
X32250Y-2750
X32250Y-1000
X-6000Y22750
X25750Y5000
X23750Y5500
X-29000Y9000
X-29000Y10000
X-23000Y9000
X-24000Y5000
X-25000Y4000
X-26000Y5000
X-27000Y9000
X-31000Y9000
X-28000Y9000
X-29000Y11000
X-30000Y9000
X-23000Y10000
X-22000Y9000
X-21000Y9000
X-25000Y9000
X-23000Y11000
X-24000Y9000
X-29000Y5000
X-24500Y5000
X-29000Y4000
X-26000Y4000
X-24000Y4000
X-9750Y20500
X29000Y250
X-4250Y7000
X-28250Y-6250
X-22000Y250
X25500Y13250
X30500Y-24750
X27250Y10250
X27250Y11250
X-1250Y750
X-1750Y11250
X-16500Y-3500
X-3250Y10750
X-3250Y-2000
X-1750Y4000
X7000Y14500
X19250Y-2750
X13750Y-3000
X-1750Y14500
X-4000Y-10750
X-7750Y16000
X-3750Y-1500
X-2250Y10250
X-11250Y19000
X-35500Y21250
X-500Y9750
X-13750Y16500
X-5750Y-1000
X4250Y6500
X5000Y1250
X26250Y11750
X5000Y5750
X7250Y5750
X12000Y19000
X9750Y-6500
X-750Y6000
X21500Y28000
X20500Y28000
M30