G04 EAGLE Gerber RS-274X export*
G75*
%MOMM*%
%FSLAX34Y34*%
%LPD*%
%INTop Inner Metal*%
%IPPOS*%
%AMOC8*
5,1,8,0,0,1.08239X$1,22.5*%
G01*
%ADD10C,0.352400*%
%ADD11C,1.350000*%
%ADD12C,1.500000*%
%ADD13C,1.950000*%
%ADD14C,2.250000*%
%ADD15C,0.152400*%
%ADD16C,0.508000*%
%ADD17C,0.127000*%
%ADD18C,0.454000*%
%ADD19C,0.635000*%

G36*
X380022Y-297495D02*
X380022Y-297495D01*
X380050Y-297497D01*
X383470Y-297228D01*
X383519Y-297215D01*
X383616Y-297199D01*
X390123Y-295085D01*
X390127Y-295082D01*
X390133Y-295082D01*
X390299Y-294995D01*
X395834Y-290974D01*
X395838Y-290970D01*
X395843Y-290967D01*
X395974Y-290834D01*
X399995Y-285299D01*
X399997Y-285294D01*
X400001Y-285290D01*
X400085Y-285123D01*
X402199Y-278616D01*
X402206Y-278568D01*
X402206Y-278565D01*
X402206Y-278564D01*
X402228Y-278470D01*
X402497Y-275050D01*
X402495Y-275028D01*
X402499Y-275000D01*
X402499Y260000D01*
X402495Y260022D01*
X402497Y260050D01*
X402228Y263470D01*
X402215Y263519D01*
X402199Y263616D01*
X400085Y270123D01*
X400082Y270127D01*
X400082Y270133D01*
X399995Y270299D01*
X395974Y275834D01*
X395970Y275838D01*
X395967Y275843D01*
X395834Y275974D01*
X390299Y279995D01*
X390294Y279997D01*
X390290Y280001D01*
X390256Y280019D01*
X390233Y280037D01*
X390188Y280052D01*
X390123Y280085D01*
X383616Y282199D01*
X383566Y282206D01*
X383470Y282228D01*
X380050Y282497D01*
X380028Y282495D01*
X380000Y282499D01*
X335949Y282499D01*
X335859Y282483D01*
X335767Y282473D01*
X335746Y282463D01*
X335728Y282460D01*
X335685Y282434D01*
X335597Y282393D01*
X321645Y273091D01*
X321611Y273058D01*
X321549Y273012D01*
X321036Y272499D01*
X320949Y272499D01*
X320858Y272483D01*
X320767Y272473D01*
X320746Y272463D01*
X320728Y272460D01*
X320685Y272434D01*
X320597Y272393D01*
X320525Y272345D01*
X319814Y272487D01*
X319766Y272488D01*
X319690Y272499D01*
X240310Y272499D01*
X240263Y272491D01*
X240186Y272487D01*
X239475Y272345D01*
X239403Y272393D01*
X239318Y272429D01*
X239236Y272472D01*
X239214Y272475D01*
X239197Y272482D01*
X239147Y272485D01*
X239051Y272499D01*
X238964Y272499D01*
X238451Y273012D01*
X238412Y273040D01*
X238355Y273091D01*
X224403Y282393D01*
X224318Y282429D01*
X224236Y282472D01*
X224214Y282475D01*
X224197Y282482D01*
X224147Y282485D01*
X224051Y282499D01*
X208321Y282499D01*
X208233Y282484D01*
X208145Y282474D01*
X208123Y282464D01*
X208100Y282460D01*
X208023Y282414D01*
X207944Y282375D01*
X207927Y282358D01*
X207907Y282345D01*
X207851Y282276D01*
X207790Y282212D01*
X207780Y282190D01*
X207765Y282171D01*
X207737Y282087D01*
X207702Y282005D01*
X207701Y281981D01*
X207694Y281959D01*
X207696Y281870D01*
X207692Y281781D01*
X207700Y281758D01*
X207700Y281734D01*
X207734Y281652D01*
X207761Y281567D01*
X207777Y281546D01*
X207784Y281527D01*
X207818Y281489D01*
X207872Y281417D01*
X208033Y281256D01*
X208033Y278744D01*
X206256Y276967D01*
X205000Y276967D01*
X204935Y276956D01*
X204869Y276954D01*
X204826Y276936D01*
X204779Y276928D01*
X204722Y276894D01*
X204662Y276869D01*
X204627Y276838D01*
X204586Y276813D01*
X204545Y276762D01*
X204496Y276718D01*
X204474Y276676D01*
X204445Y276639D01*
X204424Y276577D01*
X204393Y276518D01*
X204385Y276464D01*
X204373Y276427D01*
X204374Y276387D01*
X204366Y276333D01*
X204366Y215634D01*
X95634Y215634D01*
X95634Y281865D01*
X95623Y281930D01*
X95621Y281996D01*
X95603Y282039D01*
X95595Y282086D01*
X95561Y282143D01*
X95536Y282203D01*
X95505Y282238D01*
X95480Y282279D01*
X95429Y282321D01*
X95385Y282369D01*
X95343Y282391D01*
X95306Y282420D01*
X95244Y282441D01*
X95185Y282472D01*
X95131Y282480D01*
X95094Y282492D01*
X95054Y282491D01*
X95000Y282499D01*
X-380000Y282499D01*
X-380022Y282495D01*
X-380050Y282497D01*
X-383470Y282228D01*
X-383519Y282215D01*
X-383616Y282199D01*
X-390123Y280085D01*
X-390127Y280082D01*
X-390133Y280082D01*
X-390299Y279995D01*
X-395834Y275974D01*
X-395838Y275970D01*
X-395843Y275967D01*
X-395974Y275834D01*
X-399995Y270299D01*
X-399997Y270294D01*
X-400001Y270290D01*
X-400085Y270123D01*
X-402199Y263616D01*
X-402206Y263566D01*
X-402228Y263470D01*
X-402497Y260050D01*
X-402495Y260028D01*
X-402499Y260000D01*
X-402499Y-275000D01*
X-402495Y-275022D01*
X-402497Y-275050D01*
X-402228Y-278470D01*
X-402215Y-278519D01*
X-402199Y-278616D01*
X-400085Y-285123D01*
X-400082Y-285127D01*
X-400082Y-285133D01*
X-399995Y-285299D01*
X-395974Y-290834D01*
X-395970Y-290838D01*
X-395967Y-290843D01*
X-395834Y-290974D01*
X-390299Y-294995D01*
X-390294Y-294997D01*
X-390290Y-295001D01*
X-390123Y-295085D01*
X-383616Y-297199D01*
X-383566Y-297206D01*
X-383470Y-297228D01*
X-380050Y-297497D01*
X-380028Y-297495D01*
X-380000Y-297499D01*
X380000Y-297499D01*
X380022Y-297495D01*
G37*
%LPC*%
G36*
X-306467Y-148541D02*
X-306467Y-148541D01*
X-308541Y-146467D01*
X-308541Y-143533D01*
X-307092Y-142084D01*
X-307067Y-142049D01*
X-307036Y-142021D01*
X-307004Y-141958D01*
X-306963Y-141900D01*
X-306953Y-141859D01*
X-306933Y-141821D01*
X-306920Y-141731D01*
X-306907Y-141683D01*
X-306910Y-141662D01*
X-306906Y-141636D01*
X-306906Y-136711D01*
X-69592Y100604D01*
X-68289Y101906D01*
X-56052Y101906D01*
X-56010Y101913D01*
X-55968Y101911D01*
X-55901Y101933D01*
X-55831Y101945D01*
X-55795Y101967D01*
X-55754Y101980D01*
X-55682Y102034D01*
X-55638Y102060D01*
X-55625Y102076D01*
X-55604Y102092D01*
X-17319Y140377D01*
X-17268Y140450D01*
X-17212Y140519D01*
X-17204Y140541D01*
X-17190Y140561D01*
X-17168Y140647D01*
X-17140Y140731D01*
X-17140Y140755D01*
X-17135Y140778D01*
X-17144Y140867D01*
X-17146Y140956D01*
X-17155Y140978D01*
X-17158Y141001D01*
X-17197Y141081D01*
X-17231Y141163D01*
X-17247Y141181D01*
X-17257Y141202D01*
X-17322Y141263D01*
X-17382Y141329D01*
X-17403Y141340D01*
X-17420Y141356D01*
X-17502Y141391D01*
X-17582Y141432D01*
X-17608Y141435D01*
X-17627Y141444D01*
X-17677Y141446D01*
X-17767Y141459D01*
X-18967Y141459D01*
X-21041Y143533D01*
X-21041Y146467D01*
X-18967Y148541D01*
X-16033Y148541D01*
X-13959Y146467D01*
X-13959Y145267D01*
X-13943Y145179D01*
X-13934Y145091D01*
X-13924Y145070D01*
X-13920Y145046D01*
X-13874Y144970D01*
X-13835Y144890D01*
X-13818Y144873D01*
X-13805Y144853D01*
X-13736Y144797D01*
X-13672Y144736D01*
X-13650Y144727D01*
X-13631Y144712D01*
X-13547Y144683D01*
X-13465Y144648D01*
X-13441Y144647D01*
X-13419Y144640D01*
X-13330Y144642D01*
X-13241Y144638D01*
X-13218Y144646D01*
X-13194Y144646D01*
X-13112Y144680D01*
X-13027Y144707D01*
X-13006Y144723D01*
X-12987Y144731D01*
X-12949Y144765D01*
X-12877Y144819D01*
X-4592Y153104D01*
X-3184Y154512D01*
X-3133Y154585D01*
X-3077Y154654D01*
X-3069Y154676D01*
X-3055Y154696D01*
X-3033Y154782D01*
X-3005Y154866D01*
X-3005Y154890D01*
X-3000Y154913D01*
X-3009Y155002D01*
X-3011Y155091D01*
X-3020Y155113D01*
X-3023Y155136D01*
X-3062Y155216D01*
X-3096Y155298D01*
X-3112Y155316D01*
X-3122Y155337D01*
X-3187Y155398D01*
X-3247Y155464D01*
X-3268Y155475D01*
X-3285Y155491D01*
X-3367Y155526D01*
X-3447Y155567D01*
X-3473Y155570D01*
X-3492Y155579D01*
X-3542Y155581D01*
X-3632Y155594D01*
X-50789Y155594D01*
X-63104Y167908D01*
X-63138Y167933D01*
X-63167Y167964D01*
X-63230Y167996D01*
X-63288Y168037D01*
X-63329Y168047D01*
X-63367Y168067D01*
X-63456Y168080D01*
X-63505Y168093D01*
X-63526Y168090D01*
X-63552Y168094D01*
X-134056Y168094D01*
X-134143Y168079D01*
X-134232Y168069D01*
X-134253Y168059D01*
X-134277Y168055D01*
X-134353Y168009D01*
X-134433Y167970D01*
X-134449Y167953D01*
X-134470Y167940D01*
X-134526Y167871D01*
X-134587Y167807D01*
X-134596Y167785D01*
X-134611Y167766D01*
X-134640Y167682D01*
X-134674Y167600D01*
X-134675Y167576D01*
X-134683Y167554D01*
X-134680Y167465D01*
X-134684Y167376D01*
X-134677Y167353D01*
X-134676Y167329D01*
X-134643Y167247D01*
X-134616Y167162D01*
X-134600Y167141D01*
X-134592Y167122D01*
X-134558Y167084D01*
X-134504Y167012D01*
X-133959Y166467D01*
X-133959Y163533D01*
X-136033Y161459D01*
X-138967Y161459D01*
X-141041Y163533D01*
X-141041Y166467D01*
X-140496Y167012D01*
X-140445Y167085D01*
X-140389Y167154D01*
X-140381Y167176D01*
X-140368Y167196D01*
X-140346Y167282D01*
X-140317Y167366D01*
X-140318Y167390D01*
X-140312Y167413D01*
X-140321Y167502D01*
X-140324Y167591D01*
X-140333Y167613D01*
X-140335Y167636D01*
X-140375Y167716D01*
X-140408Y167798D01*
X-140424Y167816D01*
X-140434Y167837D01*
X-140499Y167898D01*
X-140559Y167964D01*
X-140580Y167975D01*
X-140598Y167991D01*
X-140680Y168026D01*
X-140759Y168067D01*
X-140785Y168070D01*
X-140804Y168079D01*
X-140855Y168081D01*
X-140944Y168094D01*
X-141448Y168094D01*
X-141490Y168087D01*
X-141532Y168089D01*
X-141599Y168067D01*
X-141669Y168055D01*
X-141705Y168033D01*
X-141746Y168020D01*
X-141818Y167966D01*
X-141862Y167940D01*
X-141875Y167924D01*
X-141896Y167908D01*
X-146273Y163531D01*
X-146298Y163497D01*
X-146329Y163468D01*
X-146361Y163405D01*
X-146402Y163347D01*
X-146412Y163306D01*
X-146432Y163268D01*
X-146445Y163179D01*
X-146458Y163130D01*
X-146455Y163109D01*
X-146459Y163083D01*
X-146459Y161033D01*
X-148533Y158959D01*
X-151467Y158959D01*
X-153541Y161033D01*
X-153541Y163967D01*
X-151467Y166041D01*
X-149417Y166041D01*
X-149375Y166048D01*
X-149333Y166046D01*
X-149266Y166068D01*
X-149196Y166080D01*
X-149160Y166102D01*
X-149119Y166115D01*
X-149047Y166169D01*
X-149003Y166195D01*
X-148990Y166211D01*
X-148969Y166227D01*
X-143289Y171906D01*
X-61711Y171906D01*
X-49396Y159592D01*
X-49362Y159567D01*
X-49333Y159536D01*
X-49270Y159504D01*
X-49212Y159463D01*
X-49171Y159453D01*
X-49133Y159433D01*
X-49044Y159420D01*
X-48995Y159407D01*
X-48974Y159410D01*
X-48948Y159406D01*
X65789Y159406D01*
X67092Y158104D01*
X82012Y143184D01*
X82085Y143133D01*
X82154Y143077D01*
X82176Y143069D01*
X82196Y143055D01*
X82282Y143033D01*
X82366Y143005D01*
X82390Y143005D01*
X82413Y143000D01*
X82502Y143009D01*
X82591Y143011D01*
X82613Y143020D01*
X82636Y143023D01*
X82716Y143062D01*
X82798Y143096D01*
X82816Y143112D01*
X82837Y143122D01*
X82898Y143187D01*
X82964Y143247D01*
X82975Y143268D01*
X82991Y143285D01*
X83026Y143367D01*
X83067Y143447D01*
X83070Y143473D01*
X83079Y143492D01*
X83081Y143542D01*
X83094Y143632D01*
X83094Y143948D01*
X83087Y143990D01*
X83089Y144032D01*
X83081Y144056D01*
X83081Y144069D01*
X83066Y144106D01*
X83055Y144169D01*
X83033Y144205D01*
X83020Y144246D01*
X82966Y144318D01*
X82940Y144362D01*
X82924Y144375D01*
X82908Y144396D01*
X24396Y202908D01*
X24362Y202933D01*
X24333Y202964D01*
X24270Y202996D01*
X24212Y203037D01*
X24171Y203047D01*
X24133Y203067D01*
X24044Y203080D01*
X23995Y203093D01*
X23974Y203090D01*
X23948Y203094D01*
X-94136Y203094D01*
X-94177Y203087D01*
X-94220Y203089D01*
X-94287Y203067D01*
X-94356Y203055D01*
X-94393Y203033D01*
X-94433Y203020D01*
X-94506Y202966D01*
X-94550Y202940D01*
X-94563Y202924D01*
X-94584Y202908D01*
X-96033Y201459D01*
X-98967Y201459D01*
X-101041Y203533D01*
X-101041Y206467D01*
X-98967Y208541D01*
X-96033Y208541D01*
X-94584Y207092D01*
X-94549Y207067D01*
X-94521Y207036D01*
X-94458Y207004D01*
X-94400Y206963D01*
X-94359Y206953D01*
X-94321Y206933D01*
X-94231Y206920D01*
X-94183Y206907D01*
X-94162Y206910D01*
X-94136Y206906D01*
X-43632Y206906D01*
X-43544Y206922D01*
X-43456Y206931D01*
X-43435Y206941D01*
X-43411Y206945D01*
X-43335Y206991D01*
X-43255Y207030D01*
X-43238Y207047D01*
X-43218Y207060D01*
X-43162Y207129D01*
X-43101Y207193D01*
X-43092Y207215D01*
X-43077Y207234D01*
X-43048Y207318D01*
X-43013Y207400D01*
X-43012Y207424D01*
X-43005Y207446D01*
X-43007Y207535D01*
X-43003Y207624D01*
X-43011Y207647D01*
X-43011Y207671D01*
X-43045Y207753D01*
X-43072Y207838D01*
X-43088Y207859D01*
X-43096Y207878D01*
X-43130Y207916D01*
X-43184Y207988D01*
X-58969Y223773D01*
X-59003Y223798D01*
X-59032Y223829D01*
X-59095Y223861D01*
X-59153Y223902D01*
X-59194Y223912D01*
X-59232Y223932D01*
X-59321Y223945D01*
X-59370Y223958D01*
X-59391Y223955D01*
X-59417Y223959D01*
X-61467Y223959D01*
X-63541Y226033D01*
X-63541Y228967D01*
X-61467Y231041D01*
X-58533Y231041D01*
X-56459Y228967D01*
X-56459Y226917D01*
X-56452Y226875D01*
X-56454Y226833D01*
X-56432Y226766D01*
X-56420Y226696D01*
X-56398Y226660D01*
X-56385Y226619D01*
X-56331Y226547D01*
X-56305Y226503D01*
X-56289Y226490D01*
X-56273Y226469D01*
X-41896Y212092D01*
X-41862Y212067D01*
X-41833Y212036D01*
X-41770Y212004D01*
X-41712Y211963D01*
X-41671Y211953D01*
X-41633Y211933D01*
X-41544Y211920D01*
X-41495Y211907D01*
X-41474Y211910D01*
X-41448Y211906D01*
X25789Y211906D01*
X85604Y152092D01*
X85638Y152067D01*
X85667Y152036D01*
X85730Y152004D01*
X85788Y151963D01*
X85829Y151953D01*
X85867Y151933D01*
X85956Y151920D01*
X86005Y151907D01*
X86026Y151910D01*
X86052Y151906D01*
X158289Y151906D01*
X256469Y53727D01*
X256503Y53702D01*
X256532Y53671D01*
X256595Y53639D01*
X256653Y53598D01*
X256694Y53588D01*
X256732Y53568D01*
X256821Y53555D01*
X256870Y53542D01*
X256891Y53545D01*
X256917Y53541D01*
X258967Y53541D01*
X261041Y51467D01*
X261041Y48533D01*
X258967Y46459D01*
X257767Y46459D01*
X257679Y46443D01*
X257591Y46434D01*
X257570Y46424D01*
X257546Y46420D01*
X257470Y46374D01*
X257390Y46335D01*
X257373Y46318D01*
X257353Y46305D01*
X257297Y46236D01*
X257236Y46172D01*
X257227Y46150D01*
X257212Y46131D01*
X257183Y46047D01*
X257148Y45965D01*
X257147Y45941D01*
X257140Y45919D01*
X257142Y45830D01*
X257138Y45741D01*
X257146Y45718D01*
X257146Y45694D01*
X257180Y45612D01*
X257207Y45527D01*
X257223Y45506D01*
X257231Y45487D01*
X257265Y45449D01*
X257319Y45377D01*
X296906Y5789D01*
X296906Y-28948D01*
X296913Y-28990D01*
X296911Y-29032D01*
X296933Y-29099D01*
X296945Y-29169D01*
X296967Y-29205D01*
X296980Y-29246D01*
X297034Y-29318D01*
X297060Y-29362D01*
X297076Y-29375D01*
X297092Y-29396D01*
X316906Y-49211D01*
X316906Y-71636D01*
X316913Y-71677D01*
X316911Y-71720D01*
X316933Y-71787D01*
X316945Y-71856D01*
X316967Y-71893D01*
X316980Y-71933D01*
X317034Y-72006D01*
X317060Y-72050D01*
X317076Y-72063D01*
X317092Y-72084D01*
X318541Y-73533D01*
X318541Y-76467D01*
X316467Y-78541D01*
X313533Y-78541D01*
X311459Y-76467D01*
X311459Y-73533D01*
X312908Y-72084D01*
X312933Y-72049D01*
X312964Y-72021D01*
X312996Y-71958D01*
X313037Y-71900D01*
X313047Y-71859D01*
X313067Y-71821D01*
X313080Y-71731D01*
X313093Y-71683D01*
X313090Y-71662D01*
X313094Y-71636D01*
X313094Y-51052D01*
X313087Y-51010D01*
X313089Y-50968D01*
X313067Y-50901D01*
X313055Y-50831D01*
X313033Y-50795D01*
X313020Y-50754D01*
X312966Y-50682D01*
X312940Y-50638D01*
X312924Y-50625D01*
X312908Y-50604D01*
X293094Y-30789D01*
X293094Y-944D01*
X293079Y-857D01*
X293069Y-768D01*
X293059Y-747D01*
X293055Y-723D01*
X293009Y-647D01*
X292970Y-567D01*
X292953Y-551D01*
X292940Y-530D01*
X292871Y-474D01*
X292807Y-413D01*
X292785Y-404D01*
X292766Y-389D01*
X292682Y-360D01*
X292600Y-326D01*
X292576Y-325D01*
X292554Y-317D01*
X292465Y-320D01*
X292376Y-316D01*
X292353Y-323D01*
X292329Y-324D01*
X292247Y-357D01*
X292162Y-384D01*
X292141Y-400D01*
X292122Y-408D01*
X292084Y-442D01*
X292012Y-496D01*
X291467Y-1041D01*
X289417Y-1041D01*
X289375Y-1048D01*
X289333Y-1046D01*
X289266Y-1068D01*
X289196Y-1080D01*
X289160Y-1102D01*
X289119Y-1115D01*
X289047Y-1169D01*
X289003Y-1195D01*
X288990Y-1211D01*
X288969Y-1227D01*
X255789Y-34406D01*
X148444Y-34406D01*
X148357Y-34421D01*
X148268Y-34431D01*
X148247Y-34441D01*
X148223Y-34445D01*
X148147Y-34491D01*
X148067Y-34530D01*
X148051Y-34547D01*
X148030Y-34560D01*
X147974Y-34629D01*
X147913Y-34693D01*
X147904Y-34715D01*
X147889Y-34734D01*
X147860Y-34818D01*
X147826Y-34900D01*
X147825Y-34924D01*
X147817Y-34946D01*
X147820Y-35035D01*
X147816Y-35124D01*
X147823Y-35147D01*
X147824Y-35171D01*
X147857Y-35253D01*
X147884Y-35338D01*
X147900Y-35359D01*
X147908Y-35378D01*
X147942Y-35416D01*
X147996Y-35488D01*
X148541Y-36033D01*
X148541Y-38967D01*
X146467Y-41041D01*
X143533Y-41041D01*
X141459Y-38967D01*
X141459Y-36033D01*
X143200Y-34292D01*
X143238Y-34238D01*
X143283Y-34190D01*
X143301Y-34147D01*
X143328Y-34108D01*
X143345Y-34044D01*
X143370Y-33984D01*
X143373Y-33937D01*
X143384Y-33891D01*
X143377Y-33825D01*
X143380Y-33760D01*
X143366Y-33715D01*
X143361Y-33668D01*
X143332Y-33609D01*
X143312Y-33546D01*
X143279Y-33502D01*
X143262Y-33467D01*
X143233Y-33440D01*
X143200Y-33395D01*
X142909Y-33104D01*
X141605Y-31800D01*
X141551Y-31762D01*
X141503Y-31717D01*
X141459Y-31699D01*
X141420Y-31672D01*
X141357Y-31655D01*
X141296Y-31630D01*
X141249Y-31627D01*
X141203Y-31616D01*
X141138Y-31623D01*
X141072Y-31620D01*
X141027Y-31634D01*
X140980Y-31639D01*
X140921Y-31668D01*
X140858Y-31688D01*
X140814Y-31721D01*
X140779Y-31738D01*
X140752Y-31767D01*
X140708Y-31800D01*
X138967Y-33541D01*
X136033Y-33541D01*
X133959Y-31467D01*
X133959Y-28533D01*
X136033Y-26459D01*
X137233Y-26459D01*
X137321Y-26443D01*
X137409Y-26434D01*
X137430Y-26424D01*
X137454Y-26420D01*
X137530Y-26374D01*
X137610Y-26335D01*
X137627Y-26318D01*
X137647Y-26305D01*
X137703Y-26236D01*
X137764Y-26172D01*
X137773Y-26150D01*
X137788Y-26131D01*
X137817Y-26047D01*
X137852Y-25965D01*
X137853Y-25941D01*
X137860Y-25919D01*
X137858Y-25830D01*
X137862Y-25741D01*
X137854Y-25718D01*
X137854Y-25694D01*
X137820Y-25612D01*
X137793Y-25527D01*
X137777Y-25506D01*
X137769Y-25487D01*
X137735Y-25449D01*
X137681Y-25377D01*
X54623Y57681D01*
X54550Y57732D01*
X54481Y57788D01*
X54459Y57796D01*
X54439Y57810D01*
X54353Y57832D01*
X54269Y57860D01*
X54245Y57860D01*
X54222Y57865D01*
X54133Y57856D01*
X54044Y57854D01*
X54022Y57845D01*
X53999Y57842D01*
X53919Y57803D01*
X53837Y57769D01*
X53819Y57753D01*
X53798Y57743D01*
X53737Y57678D01*
X53671Y57618D01*
X53660Y57597D01*
X53644Y57580D01*
X53609Y57498D01*
X53568Y57418D01*
X53565Y57392D01*
X53556Y57373D01*
X53554Y57323D01*
X53541Y57233D01*
X53541Y56033D01*
X51467Y53959D01*
X48533Y53959D01*
X46459Y56033D01*
X46459Y58967D01*
X48533Y61041D01*
X49733Y61041D01*
X49821Y61057D01*
X49909Y61066D01*
X49930Y61076D01*
X49954Y61080D01*
X50030Y61126D01*
X50110Y61165D01*
X50127Y61182D01*
X50147Y61195D01*
X50203Y61264D01*
X50264Y61328D01*
X50273Y61350D01*
X50288Y61369D01*
X50317Y61453D01*
X50352Y61535D01*
X50353Y61559D01*
X50360Y61581D01*
X50358Y61670D01*
X50362Y61759D01*
X50354Y61782D01*
X50354Y61806D01*
X50320Y61888D01*
X50293Y61973D01*
X50277Y61994D01*
X50269Y62013D01*
X50235Y62051D01*
X50181Y62123D01*
X47123Y65181D01*
X47050Y65232D01*
X46981Y65288D01*
X46959Y65296D01*
X46939Y65310D01*
X46853Y65332D01*
X46769Y65360D01*
X46745Y65360D01*
X46722Y65365D01*
X46633Y65356D01*
X46544Y65354D01*
X46522Y65345D01*
X46499Y65342D01*
X46419Y65303D01*
X46337Y65269D01*
X46319Y65253D01*
X46298Y65243D01*
X46237Y65178D01*
X46171Y65118D01*
X46160Y65097D01*
X46144Y65080D01*
X46109Y64998D01*
X46068Y64918D01*
X46065Y64892D01*
X46056Y64873D01*
X46054Y64823D01*
X46041Y64733D01*
X46041Y63533D01*
X43967Y61459D01*
X41033Y61459D01*
X38959Y63533D01*
X38959Y65583D01*
X38952Y65625D01*
X38954Y65667D01*
X38932Y65734D01*
X38920Y65804D01*
X38898Y65840D01*
X38885Y65881D01*
X38831Y65953D01*
X38805Y65997D01*
X38789Y66010D01*
X38773Y66031D01*
X34396Y70408D01*
X34362Y70433D01*
X34333Y70464D01*
X34270Y70496D01*
X34212Y70537D01*
X34171Y70547D01*
X34133Y70567D01*
X34044Y70580D01*
X33995Y70593D01*
X33974Y70590D01*
X33948Y70594D01*
X-13948Y70594D01*
X-13990Y70587D01*
X-14032Y70589D01*
X-14099Y70567D01*
X-14169Y70555D01*
X-14205Y70533D01*
X-14246Y70520D01*
X-14318Y70466D01*
X-14362Y70440D01*
X-14375Y70424D01*
X-14396Y70408D01*
X-27908Y56896D01*
X-27933Y56862D01*
X-27964Y56833D01*
X-27996Y56770D01*
X-28037Y56712D01*
X-28047Y56671D01*
X-28067Y56633D01*
X-28080Y56544D01*
X-28093Y56495D01*
X-28090Y56474D01*
X-28094Y56448D01*
X-28094Y16711D01*
X-53773Y-8969D01*
X-53798Y-9003D01*
X-53829Y-9032D01*
X-53861Y-9095D01*
X-53902Y-9153D01*
X-53912Y-9194D01*
X-53932Y-9232D01*
X-53945Y-9321D01*
X-53958Y-9370D01*
X-53955Y-9391D01*
X-53959Y-9417D01*
X-53959Y-11467D01*
X-56033Y-13541D01*
X-58967Y-13541D01*
X-61041Y-11467D01*
X-61041Y-8533D01*
X-58967Y-6459D01*
X-56917Y-6459D01*
X-56875Y-6452D01*
X-56833Y-6454D01*
X-56766Y-6432D01*
X-56696Y-6420D01*
X-56660Y-6398D01*
X-56619Y-6385D01*
X-56547Y-6331D01*
X-56503Y-6305D01*
X-56490Y-6289D01*
X-56469Y-6273D01*
X-32092Y18104D01*
X-32067Y18138D01*
X-32036Y18167D01*
X-32004Y18230D01*
X-31963Y18288D01*
X-31953Y18329D01*
X-31933Y18367D01*
X-31920Y18456D01*
X-31907Y18505D01*
X-31910Y18526D01*
X-31906Y18552D01*
X-31906Y58289D01*
X-30604Y59592D01*
X-23184Y67012D01*
X-23133Y67085D01*
X-23077Y67154D01*
X-23069Y67176D01*
X-23055Y67196D01*
X-23033Y67282D01*
X-23005Y67366D01*
X-23005Y67390D01*
X-23000Y67413D01*
X-23009Y67502D01*
X-23011Y67591D01*
X-23020Y67613D01*
X-23023Y67636D01*
X-23062Y67716D01*
X-23096Y67798D01*
X-23112Y67816D01*
X-23122Y67837D01*
X-23187Y67898D01*
X-23247Y67964D01*
X-23268Y67975D01*
X-23285Y67991D01*
X-23367Y68026D01*
X-23447Y68067D01*
X-23473Y68070D01*
X-23492Y68079D01*
X-23542Y68081D01*
X-23632Y68094D01*
X-39136Y68094D01*
X-39177Y68087D01*
X-39220Y68089D01*
X-39287Y68067D01*
X-39356Y68055D01*
X-39393Y68033D01*
X-39433Y68020D01*
X-39506Y67966D01*
X-39550Y67940D01*
X-39563Y67924D01*
X-39584Y67908D01*
X-41033Y66459D01*
X-43967Y66459D01*
X-46041Y68533D01*
X-46041Y71467D01*
X-43967Y73541D01*
X-41033Y73541D01*
X-39584Y72092D01*
X-39549Y72067D01*
X-39521Y72036D01*
X-39458Y72004D01*
X-39400Y71963D01*
X-39359Y71953D01*
X-39321Y71933D01*
X-39231Y71920D01*
X-39183Y71907D01*
X-39162Y71910D01*
X-39136Y71906D01*
X-23552Y71906D01*
X-23510Y71913D01*
X-23468Y71911D01*
X-23401Y71933D01*
X-23331Y71945D01*
X-23295Y71967D01*
X-23254Y71980D01*
X-23182Y72034D01*
X-23138Y72060D01*
X-23125Y72076D01*
X-23104Y72092D01*
X-15789Y79406D01*
X36368Y79406D01*
X36456Y79422D01*
X36544Y79431D01*
X36565Y79441D01*
X36589Y79445D01*
X36665Y79491D01*
X36745Y79530D01*
X36762Y79547D01*
X36782Y79560D01*
X36838Y79629D01*
X36899Y79693D01*
X36908Y79715D01*
X36923Y79734D01*
X36952Y79818D01*
X36987Y79900D01*
X36988Y79924D01*
X36995Y79946D01*
X36993Y80035D01*
X36997Y80124D01*
X36989Y80147D01*
X36989Y80171D01*
X36955Y80253D01*
X36928Y80338D01*
X36912Y80359D01*
X36904Y80378D01*
X36870Y80416D01*
X36816Y80488D01*
X24396Y92908D01*
X24362Y92933D01*
X24333Y92964D01*
X24270Y92996D01*
X24212Y93037D01*
X24171Y93047D01*
X24133Y93067D01*
X24044Y93080D01*
X23995Y93093D01*
X23974Y93090D01*
X23948Y93094D01*
X23364Y93094D01*
X23323Y93087D01*
X23280Y93089D01*
X23213Y93067D01*
X23143Y93055D01*
X23107Y93033D01*
X23067Y93020D01*
X22994Y92966D01*
X22950Y92940D01*
X22937Y92924D01*
X22916Y92908D01*
X21467Y91459D01*
X18533Y91459D01*
X16459Y93533D01*
X16459Y96467D01*
X18533Y98541D01*
X21467Y98541D01*
X22916Y97092D01*
X22951Y97067D01*
X22979Y97036D01*
X23042Y97004D01*
X23100Y96963D01*
X23141Y96953D01*
X23179Y96933D01*
X23269Y96920D01*
X23317Y96907D01*
X23338Y96910D01*
X23364Y96906D01*
X23868Y96906D01*
X23956Y96922D01*
X24044Y96931D01*
X24065Y96941D01*
X24089Y96945D01*
X24165Y96991D01*
X24245Y97030D01*
X24262Y97047D01*
X24282Y97060D01*
X24338Y97129D01*
X24399Y97193D01*
X24408Y97215D01*
X24423Y97234D01*
X24452Y97318D01*
X24487Y97400D01*
X24488Y97424D01*
X24495Y97446D01*
X24493Y97535D01*
X24497Y97624D01*
X24489Y97647D01*
X24489Y97671D01*
X24455Y97753D01*
X24428Y97838D01*
X24412Y97859D01*
X24404Y97878D01*
X24370Y97916D01*
X24316Y97988D01*
X21896Y100409D01*
X21862Y100433D01*
X21833Y100464D01*
X21770Y100496D01*
X21712Y100537D01*
X21671Y100547D01*
X21633Y100567D01*
X21544Y100580D01*
X21495Y100593D01*
X21474Y100590D01*
X21448Y100594D01*
X-1556Y100594D01*
X-1643Y100579D01*
X-1732Y100569D01*
X-1753Y100559D01*
X-1777Y100555D01*
X-1853Y100509D01*
X-1933Y100470D01*
X-1949Y100453D01*
X-1970Y100440D01*
X-2026Y100371D01*
X-2087Y100307D01*
X-2096Y100285D01*
X-2111Y100266D01*
X-2140Y100182D01*
X-2174Y100100D01*
X-2175Y100076D01*
X-2183Y100054D01*
X-2180Y99965D01*
X-2184Y99876D01*
X-2177Y99853D01*
X-2176Y99829D01*
X-2143Y99747D01*
X-2116Y99662D01*
X-2100Y99641D01*
X-2092Y99622D01*
X-2058Y99584D01*
X-2004Y99512D01*
X-1459Y98967D01*
X-1459Y96033D01*
X-3533Y93959D01*
X-6467Y93959D01*
X-8541Y96033D01*
X-8541Y97233D01*
X-8557Y97321D01*
X-8566Y97409D01*
X-8576Y97430D01*
X-8580Y97454D01*
X-8626Y97530D01*
X-8665Y97610D01*
X-8682Y97627D01*
X-8695Y97647D01*
X-8764Y97703D01*
X-8828Y97764D01*
X-8850Y97773D01*
X-8869Y97788D01*
X-8953Y97817D01*
X-9035Y97852D01*
X-9059Y97853D01*
X-9081Y97860D01*
X-9170Y97858D01*
X-9259Y97862D01*
X-9282Y97854D01*
X-9306Y97854D01*
X-9388Y97820D01*
X-9473Y97793D01*
X-9494Y97777D01*
X-9513Y97769D01*
X-9551Y97735D01*
X-9623Y97681D01*
X-19211Y88094D01*
X-29136Y88094D01*
X-29177Y88087D01*
X-29220Y88089D01*
X-29287Y88067D01*
X-29356Y88055D01*
X-29393Y88033D01*
X-29433Y88020D01*
X-29506Y87966D01*
X-29550Y87940D01*
X-29563Y87924D01*
X-29584Y87908D01*
X-31033Y86459D01*
X-33967Y86459D01*
X-36041Y88533D01*
X-36041Y89733D01*
X-36057Y89821D01*
X-36066Y89909D01*
X-36076Y89930D01*
X-36080Y89954D01*
X-36126Y90030D01*
X-36165Y90110D01*
X-36182Y90127D01*
X-36195Y90147D01*
X-36264Y90203D01*
X-36328Y90264D01*
X-36350Y90273D01*
X-36369Y90288D01*
X-36453Y90317D01*
X-36535Y90352D01*
X-36559Y90353D01*
X-36581Y90360D01*
X-36670Y90358D01*
X-36759Y90362D01*
X-36782Y90354D01*
X-36806Y90354D01*
X-36888Y90320D01*
X-36973Y90293D01*
X-36994Y90277D01*
X-37013Y90269D01*
X-37051Y90235D01*
X-37123Y90181D01*
X-161273Y-33969D01*
X-161298Y-34003D01*
X-161329Y-34032D01*
X-161361Y-34095D01*
X-161402Y-34153D01*
X-161412Y-34194D01*
X-161432Y-34232D01*
X-161445Y-34321D01*
X-161458Y-34370D01*
X-161455Y-34391D01*
X-161459Y-34417D01*
X-161459Y-36467D01*
X-163533Y-38541D01*
X-166467Y-38541D01*
X-168541Y-36467D01*
X-168541Y-33533D01*
X-166467Y-31459D01*
X-164417Y-31459D01*
X-164375Y-31452D01*
X-164333Y-31454D01*
X-164266Y-31432D01*
X-164196Y-31420D01*
X-164160Y-31398D01*
X-164119Y-31385D01*
X-164047Y-31331D01*
X-164003Y-31305D01*
X-163990Y-31289D01*
X-163969Y-31273D01*
X-34592Y98104D01*
X-34567Y98138D01*
X-34536Y98167D01*
X-34504Y98230D01*
X-34463Y98288D01*
X-34453Y98329D01*
X-34433Y98367D01*
X-34420Y98456D01*
X-34407Y98505D01*
X-34410Y98526D01*
X-34406Y98552D01*
X-34406Y104136D01*
X-34413Y104177D01*
X-34411Y104220D01*
X-34433Y104287D01*
X-34445Y104356D01*
X-34467Y104393D01*
X-34480Y104433D01*
X-34534Y104506D01*
X-34560Y104550D01*
X-34576Y104563D01*
X-34592Y104584D01*
X-36041Y106033D01*
X-36041Y108967D01*
X-33967Y111041D01*
X-31033Y111041D01*
X-28959Y108967D01*
X-28959Y106033D01*
X-30408Y104584D01*
X-30433Y104549D01*
X-30464Y104521D01*
X-30496Y104458D01*
X-30537Y104400D01*
X-30547Y104359D01*
X-30567Y104321D01*
X-30580Y104231D01*
X-30593Y104183D01*
X-30590Y104162D01*
X-30594Y104136D01*
X-30594Y96711D01*
X-32681Y94623D01*
X-32732Y94550D01*
X-32788Y94481D01*
X-32796Y94459D01*
X-32810Y94439D01*
X-32832Y94353D01*
X-32860Y94269D01*
X-32860Y94245D01*
X-32865Y94222D01*
X-32856Y94133D01*
X-32854Y94044D01*
X-32845Y94022D01*
X-32842Y93999D01*
X-32803Y93919D01*
X-32769Y93837D01*
X-32753Y93819D01*
X-32743Y93798D01*
X-32678Y93737D01*
X-32618Y93671D01*
X-32597Y93660D01*
X-32580Y93644D01*
X-32498Y93609D01*
X-32418Y93568D01*
X-32392Y93565D01*
X-32373Y93556D01*
X-32323Y93554D01*
X-32233Y93541D01*
X-31033Y93541D01*
X-29584Y92092D01*
X-29555Y92071D01*
X-29545Y92060D01*
X-29541Y92058D01*
X-29521Y92036D01*
X-29458Y92004D01*
X-29400Y91963D01*
X-29359Y91953D01*
X-29321Y91933D01*
X-29231Y91920D01*
X-29183Y91907D01*
X-29162Y91910D01*
X-29136Y91906D01*
X-21052Y91906D01*
X-21010Y91913D01*
X-20968Y91911D01*
X-20901Y91933D01*
X-20831Y91945D01*
X-20795Y91967D01*
X-20754Y91980D01*
X-20682Y92034D01*
X-20638Y92060D01*
X-20625Y92076D01*
X-20614Y92084D01*
X-20613Y92084D01*
X-20604Y92092D01*
X-8289Y104406D01*
X23289Y104406D01*
X45604Y82092D01*
X45638Y82067D01*
X45667Y82036D01*
X45730Y82004D01*
X45788Y81963D01*
X45829Y81953D01*
X45867Y81933D01*
X45956Y81920D01*
X46005Y81907D01*
X46026Y81910D01*
X46052Y81906D01*
X58289Y81906D01*
X148969Y-8773D01*
X149003Y-8798D01*
X149032Y-8829D01*
X149095Y-8861D01*
X149153Y-8902D01*
X149194Y-8912D01*
X149232Y-8932D01*
X149321Y-8945D01*
X149370Y-8958D01*
X149391Y-8955D01*
X149417Y-8959D01*
X151467Y-8959D01*
X153541Y-11033D01*
X153541Y-13967D01*
X151467Y-16041D01*
X148533Y-16041D01*
X146459Y-13967D01*
X146459Y-11917D01*
X146452Y-11875D01*
X146454Y-11833D01*
X146432Y-11766D01*
X146420Y-11696D01*
X146398Y-11660D01*
X146385Y-11619D01*
X146331Y-11547D01*
X146305Y-11503D01*
X146289Y-11490D01*
X146273Y-11469D01*
X77123Y57681D01*
X77050Y57732D01*
X76981Y57788D01*
X76959Y57796D01*
X76939Y57810D01*
X76853Y57832D01*
X76769Y57860D01*
X76745Y57860D01*
X76722Y57865D01*
X76633Y57856D01*
X76544Y57854D01*
X76522Y57845D01*
X76499Y57842D01*
X76419Y57803D01*
X76337Y57769D01*
X76319Y57753D01*
X76298Y57743D01*
X76237Y57678D01*
X76171Y57618D01*
X76160Y57597D01*
X76144Y57580D01*
X76109Y57498D01*
X76068Y57418D01*
X76065Y57392D01*
X76056Y57373D01*
X76054Y57323D01*
X76041Y57233D01*
X76041Y56033D01*
X73967Y53959D01*
X71033Y53959D01*
X68959Y56033D01*
X68959Y58967D01*
X71033Y61041D01*
X72233Y61041D01*
X72321Y61057D01*
X72409Y61066D01*
X72430Y61076D01*
X72454Y61080D01*
X72530Y61126D01*
X72610Y61165D01*
X72627Y61182D01*
X72647Y61195D01*
X72703Y61264D01*
X72764Y61328D01*
X72773Y61350D01*
X72788Y61369D01*
X72817Y61453D01*
X72852Y61535D01*
X72853Y61559D01*
X72860Y61581D01*
X72858Y61670D01*
X72862Y61759D01*
X72854Y61782D01*
X72854Y61806D01*
X72820Y61888D01*
X72793Y61973D01*
X72777Y61994D01*
X72769Y62013D01*
X72735Y62051D01*
X72681Y62123D01*
X56896Y77908D01*
X56862Y77933D01*
X56833Y77964D01*
X56770Y77996D01*
X56712Y78037D01*
X56671Y78047D01*
X56633Y78067D01*
X56544Y78080D01*
X56495Y78093D01*
X56474Y78090D01*
X56448Y78094D01*
X46132Y78094D01*
X46044Y78078D01*
X45956Y78069D01*
X45935Y78059D01*
X45911Y78055D01*
X45835Y78009D01*
X45755Y77970D01*
X45738Y77953D01*
X45718Y77940D01*
X45662Y77871D01*
X45601Y77807D01*
X45592Y77785D01*
X45577Y77766D01*
X45548Y77682D01*
X45513Y77600D01*
X45512Y77576D01*
X45505Y77554D01*
X45507Y77465D01*
X45503Y77376D01*
X45511Y77353D01*
X45511Y77329D01*
X45545Y77247D01*
X45572Y77162D01*
X45588Y77141D01*
X45596Y77122D01*
X45630Y77084D01*
X45684Y77012D01*
X146469Y-23773D01*
X146503Y-23798D01*
X146532Y-23829D01*
X146595Y-23861D01*
X146653Y-23902D01*
X146694Y-23912D01*
X146732Y-23932D01*
X146821Y-23945D01*
X146870Y-23958D01*
X146891Y-23955D01*
X146917Y-23959D01*
X148967Y-23959D01*
X151041Y-26033D01*
X151041Y-28967D01*
X150496Y-29512D01*
X150445Y-29585D01*
X150389Y-29654D01*
X150381Y-29676D01*
X150368Y-29696D01*
X150346Y-29782D01*
X150317Y-29866D01*
X150318Y-29890D01*
X150312Y-29913D01*
X150321Y-30002D01*
X150324Y-30091D01*
X150333Y-30113D01*
X150335Y-30136D01*
X150375Y-30216D01*
X150408Y-30298D01*
X150424Y-30316D01*
X150434Y-30337D01*
X150499Y-30398D01*
X150559Y-30464D01*
X150580Y-30475D01*
X150598Y-30491D01*
X150680Y-30526D01*
X150759Y-30567D01*
X150785Y-30570D01*
X150804Y-30579D01*
X150855Y-30581D01*
X150944Y-30594D01*
X171556Y-30594D01*
X171643Y-30579D01*
X171732Y-30569D01*
X171753Y-30559D01*
X171777Y-30555D01*
X171853Y-30509D01*
X171933Y-30470D01*
X171949Y-30453D01*
X171970Y-30440D01*
X172026Y-30371D01*
X172087Y-30307D01*
X172096Y-30285D01*
X172111Y-30266D01*
X172140Y-30182D01*
X172174Y-30100D01*
X172175Y-30076D01*
X172183Y-30054D01*
X172180Y-29965D01*
X172184Y-29876D01*
X172177Y-29853D01*
X172176Y-29829D01*
X172143Y-29747D01*
X172116Y-29662D01*
X172100Y-29641D01*
X172092Y-29622D01*
X172058Y-29584D01*
X172004Y-29512D01*
X171459Y-28967D01*
X171459Y-26033D01*
X173533Y-23959D01*
X176467Y-23959D01*
X178541Y-26033D01*
X178541Y-28967D01*
X177996Y-29512D01*
X177945Y-29585D01*
X177889Y-29654D01*
X177881Y-29676D01*
X177868Y-29696D01*
X177846Y-29782D01*
X177817Y-29866D01*
X177818Y-29890D01*
X177812Y-29913D01*
X177821Y-30002D01*
X177824Y-30091D01*
X177833Y-30113D01*
X177835Y-30136D01*
X177875Y-30216D01*
X177908Y-30298D01*
X177924Y-30316D01*
X177934Y-30337D01*
X177999Y-30398D01*
X178059Y-30464D01*
X178080Y-30475D01*
X178098Y-30491D01*
X178180Y-30526D01*
X178259Y-30567D01*
X178285Y-30570D01*
X178304Y-30579D01*
X178355Y-30581D01*
X178444Y-30594D01*
X189056Y-30594D01*
X189143Y-30579D01*
X189232Y-30569D01*
X189253Y-30559D01*
X189277Y-30555D01*
X189353Y-30509D01*
X189433Y-30470D01*
X189449Y-30453D01*
X189470Y-30440D01*
X189526Y-30371D01*
X189587Y-30307D01*
X189596Y-30285D01*
X189611Y-30266D01*
X189640Y-30182D01*
X189674Y-30100D01*
X189675Y-30076D01*
X189683Y-30054D01*
X189680Y-29965D01*
X189684Y-29876D01*
X189677Y-29853D01*
X189676Y-29829D01*
X189643Y-29747D01*
X189616Y-29662D01*
X189600Y-29641D01*
X189592Y-29622D01*
X189558Y-29584D01*
X189504Y-29512D01*
X188959Y-28967D01*
X188959Y-26917D01*
X188952Y-26875D01*
X188954Y-26833D01*
X188932Y-26766D01*
X188920Y-26696D01*
X188898Y-26660D01*
X188885Y-26619D01*
X188831Y-26547D01*
X188805Y-26503D01*
X188789Y-26490D01*
X188773Y-26469D01*
X69396Y92908D01*
X68094Y94211D01*
X68094Y141636D01*
X68087Y141677D01*
X68089Y141720D01*
X68067Y141787D01*
X68055Y141856D01*
X68033Y141893D01*
X68020Y141933D01*
X67966Y142006D01*
X67940Y142050D01*
X67924Y142063D01*
X67908Y142084D01*
X66459Y143533D01*
X66459Y146467D01*
X68533Y148541D01*
X69733Y148541D01*
X69821Y148557D01*
X69909Y148566D01*
X69930Y148576D01*
X69954Y148580D01*
X70030Y148626D01*
X70110Y148665D01*
X70127Y148682D01*
X70147Y148695D01*
X70203Y148764D01*
X70264Y148828D01*
X70273Y148850D01*
X70288Y148869D01*
X70317Y148953D01*
X70352Y149035D01*
X70353Y149059D01*
X70360Y149081D01*
X70358Y149170D01*
X70362Y149259D01*
X70354Y149282D01*
X70354Y149306D01*
X70320Y149388D01*
X70293Y149473D01*
X70277Y149494D01*
X70269Y149513D01*
X70235Y149551D01*
X70181Y149623D01*
X64396Y155408D01*
X64362Y155433D01*
X64333Y155464D01*
X64270Y155496D01*
X64212Y155537D01*
X64171Y155547D01*
X64133Y155567D01*
X64044Y155580D01*
X63995Y155593D01*
X63974Y155590D01*
X63948Y155594D01*
X23444Y155594D01*
X23357Y155579D01*
X23268Y155569D01*
X23247Y155559D01*
X23223Y155555D01*
X23147Y155509D01*
X23067Y155470D01*
X23051Y155453D01*
X23030Y155440D01*
X22974Y155371D01*
X22913Y155307D01*
X22904Y155285D01*
X22889Y155266D01*
X22860Y155182D01*
X22826Y155100D01*
X22825Y155076D01*
X22817Y155054D01*
X22820Y154965D01*
X22816Y154876D01*
X22823Y154853D01*
X22824Y154829D01*
X22857Y154747D01*
X22884Y154662D01*
X22900Y154641D01*
X22908Y154622D01*
X22942Y154584D01*
X22996Y154512D01*
X23541Y153967D01*
X23541Y151033D01*
X21467Y148959D01*
X18533Y148959D01*
X17084Y150408D01*
X17049Y150433D01*
X17021Y150464D01*
X16958Y150496D01*
X16900Y150537D01*
X16859Y150547D01*
X16821Y150567D01*
X16731Y150580D01*
X16683Y150593D01*
X16662Y150590D01*
X16636Y150594D01*
X-1448Y150594D01*
X-1490Y150587D01*
X-1532Y150589D01*
X-1599Y150567D01*
X-1669Y150555D01*
X-1705Y150533D01*
X-1746Y150520D01*
X-1818Y150466D01*
X-1862Y150440D01*
X-1875Y150424D01*
X-1896Y150408D01*
X-27681Y124623D01*
X-27732Y124550D01*
X-27788Y124481D01*
X-27796Y124459D01*
X-27810Y124439D01*
X-27832Y124353D01*
X-27860Y124269D01*
X-27860Y124245D01*
X-27865Y124222D01*
X-27856Y124133D01*
X-27854Y124044D01*
X-27845Y124022D01*
X-27842Y123999D01*
X-27803Y123919D01*
X-27769Y123837D01*
X-27753Y123819D01*
X-27743Y123798D01*
X-27678Y123736D01*
X-27618Y123671D01*
X-27597Y123660D01*
X-27580Y123644D01*
X-27498Y123609D01*
X-27418Y123568D01*
X-27392Y123565D01*
X-27373Y123556D01*
X-27323Y123554D01*
X-27233Y123541D01*
X-26033Y123541D01*
X-23959Y121467D01*
X-23959Y118533D01*
X-26033Y116459D01*
X-28967Y116459D01*
X-31041Y118533D01*
X-31041Y119733D01*
X-31057Y119821D01*
X-31066Y119909D01*
X-31076Y119930D01*
X-31080Y119954D01*
X-31126Y120030D01*
X-31165Y120110D01*
X-31182Y120127D01*
X-31195Y120147D01*
X-31264Y120203D01*
X-31328Y120264D01*
X-31350Y120273D01*
X-31369Y120288D01*
X-31453Y120317D01*
X-31535Y120352D01*
X-31559Y120353D01*
X-31581Y120360D01*
X-31670Y120358D01*
X-31759Y120362D01*
X-31782Y120354D01*
X-31806Y120354D01*
X-31888Y120320D01*
X-31973Y120293D01*
X-31994Y120277D01*
X-32013Y120269D01*
X-32051Y120235D01*
X-32123Y120181D01*
X-54211Y98094D01*
X-66448Y98094D01*
X-66490Y98087D01*
X-66532Y98089D01*
X-66599Y98067D01*
X-66669Y98055D01*
X-66705Y98033D01*
X-66746Y98020D01*
X-66818Y97966D01*
X-66862Y97940D01*
X-66875Y97924D01*
X-66896Y97908D01*
X-302908Y-138104D01*
X-302933Y-138138D01*
X-302964Y-138167D01*
X-302996Y-138230D01*
X-303037Y-138288D01*
X-303047Y-138329D01*
X-303067Y-138367D01*
X-303080Y-138456D01*
X-303093Y-138505D01*
X-303090Y-138526D01*
X-303094Y-138552D01*
X-303094Y-141636D01*
X-303087Y-141677D01*
X-303089Y-141720D01*
X-303067Y-141787D01*
X-303055Y-141856D01*
X-303033Y-141893D01*
X-303020Y-141933D01*
X-302966Y-142006D01*
X-302940Y-142050D01*
X-302924Y-142063D01*
X-302908Y-142084D01*
X-301459Y-143533D01*
X-301459Y-146467D01*
X-303533Y-148541D01*
X-306467Y-148541D01*
G37*
%LPD*%
G36*
X253990Y-30587D02*
X253990Y-30587D01*
X254032Y-30589D01*
X254099Y-30567D01*
X254169Y-30555D01*
X254205Y-30533D01*
X254246Y-30520D01*
X254318Y-30466D01*
X254362Y-30440D01*
X254375Y-30424D01*
X254396Y-30408D01*
X286273Y1469D01*
X286298Y1503D01*
X286329Y1532D01*
X286361Y1595D01*
X286402Y1653D01*
X286412Y1694D01*
X286432Y1732D01*
X286445Y1821D01*
X286458Y1870D01*
X286455Y1891D01*
X286459Y1917D01*
X286459Y3967D01*
X288533Y6041D01*
X289733Y6041D01*
X289821Y6057D01*
X289909Y6066D01*
X289930Y6076D01*
X289954Y6080D01*
X290030Y6126D01*
X290110Y6165D01*
X290127Y6182D01*
X290147Y6195D01*
X290203Y6264D01*
X290264Y6328D01*
X290273Y6350D01*
X290288Y6369D01*
X290317Y6453D01*
X290352Y6535D01*
X290353Y6559D01*
X290360Y6581D01*
X290358Y6670D01*
X290362Y6759D01*
X290354Y6782D01*
X290354Y6806D01*
X290320Y6888D01*
X290293Y6973D01*
X290277Y6994D01*
X290269Y7013D01*
X290235Y7051D01*
X290181Y7123D01*
X242123Y55181D01*
X242050Y55232D01*
X241981Y55288D01*
X241959Y55296D01*
X241939Y55310D01*
X241853Y55332D01*
X241769Y55360D01*
X241745Y55360D01*
X241722Y55365D01*
X241633Y55356D01*
X241544Y55354D01*
X241522Y55345D01*
X241499Y55342D01*
X241419Y55303D01*
X241337Y55269D01*
X241319Y55253D01*
X241298Y55243D01*
X241237Y55178D01*
X241171Y55118D01*
X241160Y55097D01*
X241144Y55080D01*
X241109Y54998D01*
X241068Y54918D01*
X241065Y54892D01*
X241056Y54873D01*
X241054Y54823D01*
X241041Y54733D01*
X241041Y53533D01*
X239206Y51698D01*
X239168Y51644D01*
X239123Y51597D01*
X239105Y51553D01*
X239078Y51514D01*
X239061Y51451D01*
X239036Y51390D01*
X239034Y51343D01*
X239022Y51297D01*
X239029Y51232D01*
X239026Y51166D01*
X239040Y51121D01*
X239045Y51074D01*
X239074Y51015D01*
X239094Y50952D01*
X239127Y50908D01*
X239144Y50873D01*
X239173Y50846D01*
X239206Y50801D01*
X241041Y48967D01*
X241041Y46033D01*
X238967Y43959D01*
X236033Y43959D01*
X233959Y46033D01*
X233959Y48083D01*
X233952Y48125D01*
X233954Y48167D01*
X233932Y48234D01*
X233920Y48304D01*
X233898Y48340D01*
X233885Y48381D01*
X233831Y48453D01*
X233805Y48497D01*
X233789Y48510D01*
X233773Y48531D01*
X230594Y51711D01*
X230594Y56448D01*
X230587Y56490D01*
X230589Y56532D01*
X230567Y56599D01*
X230555Y56669D01*
X230533Y56705D01*
X230520Y56746D01*
X230466Y56818D01*
X230440Y56862D01*
X230424Y56875D01*
X230408Y56896D01*
X154396Y132908D01*
X154362Y132933D01*
X154333Y132964D01*
X154270Y132996D01*
X154212Y133037D01*
X154171Y133047D01*
X154133Y133067D01*
X154044Y133080D01*
X153995Y133093D01*
X153974Y133090D01*
X153948Y133094D01*
X86711Y133094D01*
X74623Y145181D01*
X74550Y145232D01*
X74481Y145288D01*
X74459Y145296D01*
X74439Y145310D01*
X74353Y145332D01*
X74269Y145360D01*
X74245Y145360D01*
X74222Y145365D01*
X74133Y145356D01*
X74044Y145354D01*
X74022Y145345D01*
X73999Y145342D01*
X73919Y145303D01*
X73837Y145269D01*
X73819Y145253D01*
X73798Y145243D01*
X73737Y145178D01*
X73671Y145118D01*
X73660Y145097D01*
X73644Y145080D01*
X73609Y144998D01*
X73568Y144918D01*
X73565Y144892D01*
X73556Y144873D01*
X73554Y144823D01*
X73541Y144733D01*
X73541Y143533D01*
X72092Y142084D01*
X72067Y142049D01*
X72036Y142021D01*
X72004Y141958D01*
X71963Y141900D01*
X71953Y141859D01*
X71933Y141821D01*
X71920Y141731D01*
X71907Y141683D01*
X71910Y141662D01*
X71906Y141636D01*
X71906Y96052D01*
X71913Y96010D01*
X71911Y95968D01*
X71933Y95901D01*
X71945Y95831D01*
X71967Y95795D01*
X71980Y95754D01*
X72034Y95682D01*
X72060Y95638D01*
X72076Y95625D01*
X72092Y95604D01*
X191469Y-23773D01*
X191503Y-23798D01*
X191532Y-23829D01*
X191595Y-23861D01*
X191653Y-23902D01*
X191694Y-23912D01*
X191732Y-23932D01*
X191821Y-23945D01*
X191870Y-23958D01*
X191891Y-23955D01*
X191917Y-23959D01*
X193967Y-23959D01*
X196041Y-26033D01*
X196041Y-28967D01*
X195496Y-29512D01*
X195445Y-29585D01*
X195389Y-29654D01*
X195381Y-29676D01*
X195368Y-29696D01*
X195346Y-29782D01*
X195317Y-29866D01*
X195318Y-29890D01*
X195312Y-29913D01*
X195321Y-30002D01*
X195324Y-30091D01*
X195333Y-30113D01*
X195335Y-30136D01*
X195375Y-30216D01*
X195408Y-30298D01*
X195424Y-30316D01*
X195434Y-30337D01*
X195499Y-30398D01*
X195559Y-30464D01*
X195580Y-30475D01*
X195598Y-30491D01*
X195680Y-30526D01*
X195759Y-30567D01*
X195785Y-30570D01*
X195804Y-30579D01*
X195855Y-30581D01*
X195944Y-30594D01*
X253948Y-30594D01*
X253990Y-30587D01*
G37*
%LPC*%
G36*
X-3581Y-28001D02*
X-3581Y-28001D01*
X-10197Y-25260D01*
X-15260Y-20197D01*
X-18001Y-13581D01*
X-18001Y-6419D01*
X-15260Y197D01*
X-12580Y2877D01*
X-12529Y2950D01*
X-12473Y3019D01*
X-12466Y3041D01*
X-12452Y3061D01*
X-12430Y3147D01*
X-12402Y3231D01*
X-12402Y3255D01*
X-12396Y3278D01*
X-12406Y3367D01*
X-12408Y3456D01*
X-12417Y3478D01*
X-12420Y3501D01*
X-12459Y3581D01*
X-12492Y3663D01*
X-12508Y3681D01*
X-12519Y3702D01*
X-12584Y3763D01*
X-12644Y3829D01*
X-12665Y3840D01*
X-12682Y3856D01*
X-12764Y3891D01*
X-12843Y3932D01*
X-12870Y3935D01*
X-12889Y3944D01*
X-12939Y3946D01*
X-13029Y3959D01*
X-13967Y3959D01*
X-16041Y6033D01*
X-16041Y8967D01*
X-13967Y11041D01*
X-11033Y11041D01*
X-8959Y8967D01*
X-8959Y6722D01*
X-8946Y6646D01*
X-8940Y6569D01*
X-8926Y6536D01*
X-8920Y6501D01*
X-8880Y6435D01*
X-8848Y6364D01*
X-8824Y6339D01*
X-8805Y6308D01*
X-8745Y6259D01*
X-8691Y6204D01*
X-8659Y6189D01*
X-8631Y6167D01*
X-8558Y6142D01*
X-8488Y6109D01*
X-8452Y6106D01*
X-8419Y6095D01*
X-8341Y6097D01*
X-8264Y6091D01*
X-8225Y6100D01*
X-8194Y6101D01*
X-8151Y6119D01*
X-8082Y6136D01*
X-3581Y8001D01*
X3581Y8001D01*
X10197Y5260D01*
X15260Y197D01*
X18001Y-6419D01*
X18001Y-13581D01*
X15260Y-20197D01*
X10197Y-25260D01*
X3581Y-28001D01*
X-3581Y-28001D01*
G37*
%LPD*%
%LPC*%
G36*
X96033Y-68541D02*
X96033Y-68541D01*
X93959Y-66467D01*
X93959Y-64417D01*
X93952Y-64375D01*
X93954Y-64333D01*
X93932Y-64266D01*
X93920Y-64196D01*
X93898Y-64160D01*
X93885Y-64119D01*
X93831Y-64047D01*
X93805Y-64003D01*
X93789Y-63990D01*
X93773Y-63969D01*
X-9406Y39211D01*
X-9406Y56636D01*
X-9413Y56677D01*
X-9411Y56720D01*
X-9433Y56787D01*
X-9445Y56856D01*
X-9467Y56893D01*
X-9480Y56933D01*
X-9534Y57006D01*
X-9560Y57050D01*
X-9576Y57063D01*
X-9592Y57084D01*
X-11041Y58533D01*
X-11041Y60125D01*
X-11052Y60190D01*
X-11054Y60256D01*
X-11072Y60299D01*
X-11080Y60346D01*
X-11114Y60403D01*
X-11139Y60463D01*
X-11170Y60498D01*
X-11195Y60539D01*
X-11246Y60581D01*
X-11290Y60629D01*
X-11332Y60651D01*
X-11369Y60680D01*
X-11431Y60701D01*
X-11490Y60732D01*
X-11544Y60740D01*
X-11581Y60752D01*
X-11621Y60751D01*
X-11675Y60759D01*
X-14078Y60759D01*
X-16311Y62992D01*
X-16311Y66148D01*
X-14078Y68381D01*
X-10922Y68381D01*
X-8689Y66148D01*
X-8689Y64175D01*
X-8678Y64110D01*
X-8676Y64044D01*
X-8658Y64001D01*
X-8650Y63954D01*
X-8616Y63897D01*
X-8591Y63837D01*
X-8560Y63802D01*
X-8535Y63761D01*
X-8484Y63719D01*
X-8440Y63671D01*
X-8398Y63649D01*
X-8361Y63620D01*
X-8299Y63599D01*
X-8240Y63568D01*
X-8186Y63560D01*
X-8149Y63548D01*
X-8109Y63549D01*
X-8055Y63541D01*
X-6033Y63541D01*
X-3959Y61467D01*
X-3959Y58533D01*
X-5408Y57084D01*
X-5433Y57049D01*
X-5464Y57021D01*
X-5496Y56958D01*
X-5537Y56900D01*
X-5547Y56859D01*
X-5567Y56821D01*
X-5580Y56731D01*
X-5593Y56683D01*
X-5590Y56662D01*
X-5594Y56636D01*
X-5594Y41052D01*
X-5587Y41010D01*
X-5589Y40968D01*
X-5567Y40901D01*
X-5555Y40831D01*
X-5533Y40795D01*
X-5520Y40754D01*
X-5466Y40682D01*
X-5440Y40638D01*
X-5424Y40625D01*
X-5408Y40604D01*
X96469Y-61273D01*
X96503Y-61298D01*
X96532Y-61329D01*
X96595Y-61361D01*
X96653Y-61402D01*
X96694Y-61412D01*
X96732Y-61432D01*
X96821Y-61445D01*
X96870Y-61458D01*
X96891Y-61455D01*
X96917Y-61459D01*
X98325Y-61459D01*
X98390Y-61448D01*
X98456Y-61446D01*
X98499Y-61428D01*
X98546Y-61420D01*
X98603Y-61386D01*
X98663Y-61361D01*
X98698Y-61330D01*
X98739Y-61305D01*
X98781Y-61254D01*
X98829Y-61210D01*
X98851Y-61168D01*
X98880Y-61131D01*
X98901Y-61069D01*
X98932Y-61010D01*
X98940Y-60956D01*
X98952Y-60919D01*
X98951Y-60879D01*
X98959Y-60825D01*
X98959Y-58533D01*
X101033Y-56459D01*
X103967Y-56459D01*
X106041Y-58533D01*
X106041Y-61467D01*
X103967Y-63541D01*
X101675Y-63541D01*
X101610Y-63552D01*
X101544Y-63554D01*
X101501Y-63572D01*
X101454Y-63580D01*
X101397Y-63614D01*
X101337Y-63639D01*
X101302Y-63670D01*
X101261Y-63695D01*
X101219Y-63746D01*
X101171Y-63790D01*
X101149Y-63832D01*
X101120Y-63869D01*
X101099Y-63931D01*
X101068Y-63990D01*
X101060Y-64044D01*
X101048Y-64081D01*
X101049Y-64121D01*
X101041Y-64175D01*
X101041Y-66467D01*
X98967Y-68541D01*
X96033Y-68541D01*
G37*
%LPD*%
%LPC*%
G36*
X-11431Y-64285D02*
X-11431Y-64285D01*
X-11442Y-64220D01*
X-11444Y-64155D01*
X-11462Y-64111D01*
X-11470Y-64064D01*
X-11504Y-64008D01*
X-11529Y-63947D01*
X-11560Y-63912D01*
X-11585Y-63871D01*
X-11636Y-63830D01*
X-11680Y-63781D01*
X-11722Y-63759D01*
X-11759Y-63730D01*
X-11821Y-63709D01*
X-11880Y-63679D01*
X-11934Y-63670D01*
X-11971Y-63658D01*
X-12011Y-63659D01*
X-12065Y-63651D01*
X-12701Y-63651D01*
X-12701Y-63649D01*
X-12065Y-63649D01*
X-12000Y-63637D01*
X-11934Y-63636D01*
X-11891Y-63618D01*
X-11844Y-63609D01*
X-11787Y-63576D01*
X-11727Y-63551D01*
X-11692Y-63519D01*
X-11651Y-63495D01*
X-11610Y-63444D01*
X-11561Y-63400D01*
X-11539Y-63358D01*
X-11510Y-63321D01*
X-11489Y-63259D01*
X-11458Y-63200D01*
X-11450Y-63146D01*
X-11438Y-63109D01*
X-11439Y-63069D01*
X-11431Y-63015D01*
X-11431Y-49888D01*
X-9471Y-50199D01*
X-7406Y-50870D01*
X-5472Y-51855D01*
X-3716Y-53131D01*
X-2181Y-54666D01*
X-905Y-56422D01*
X80Y-58356D01*
X103Y-58426D01*
X104Y-58427D01*
X104Y-58429D01*
X157Y-58526D01*
X209Y-58624D01*
X210Y-58625D01*
X211Y-58626D01*
X295Y-58700D01*
X377Y-58772D01*
X378Y-58773D01*
X380Y-58774D01*
X484Y-58813D01*
X587Y-58853D01*
X588Y-58853D01*
X589Y-58853D01*
X701Y-58854D01*
X811Y-58855D01*
X812Y-58855D01*
X814Y-58855D01*
X917Y-58817D01*
X1022Y-58780D01*
X1023Y-58779D01*
X1025Y-58778D01*
X1109Y-58707D01*
X1194Y-58635D01*
X1195Y-58634D01*
X1196Y-58633D01*
X1292Y-58473D01*
X2085Y-56558D01*
X5608Y-53035D01*
X10209Y-51129D01*
X15191Y-51129D01*
X19792Y-53035D01*
X23315Y-56558D01*
X25221Y-61159D01*
X25221Y-66141D01*
X23315Y-70742D01*
X19792Y-74265D01*
X15191Y-76171D01*
X10209Y-76171D01*
X5608Y-74265D01*
X2085Y-70742D01*
X1292Y-68827D01*
X1291Y-68826D01*
X1291Y-68825D01*
X1232Y-68733D01*
X1171Y-68639D01*
X1170Y-68638D01*
X1169Y-68636D01*
X1081Y-68571D01*
X992Y-68504D01*
X990Y-68503D01*
X989Y-68502D01*
X886Y-68472D01*
X777Y-68440D01*
X775Y-68440D01*
X774Y-68439D01*
X666Y-68447D01*
X553Y-68455D01*
X551Y-68455D01*
X550Y-68455D01*
X450Y-68501D01*
X348Y-68547D01*
X347Y-68548D01*
X346Y-68548D01*
X268Y-68626D01*
X188Y-68704D01*
X188Y-68705D01*
X187Y-68706D01*
X103Y-68874D01*
X80Y-68944D01*
X-905Y-70878D01*
X-2181Y-72634D01*
X-3716Y-74169D01*
X-5472Y-75445D01*
X-7406Y-76430D01*
X-9471Y-77101D01*
X-11431Y-77412D01*
X-11431Y-64285D01*
G37*
%LPD*%
%LPC*%
G36*
X-59586Y-203001D02*
X-59586Y-203001D01*
X-64364Y-201021D01*
X-68021Y-197364D01*
X-70001Y-192586D01*
X-70001Y-187414D01*
X-68021Y-182636D01*
X-64364Y-178979D01*
X-59586Y-176999D01*
X-54414Y-176999D01*
X-49636Y-178979D01*
X-45979Y-182636D01*
X-43999Y-187414D01*
X-43999Y-192586D01*
X-45979Y-197364D01*
X-49636Y-201021D01*
X-54414Y-203001D01*
X-59586Y-203001D01*
G37*
%LPD*%
%LPC*%
G36*
X372414Y241999D02*
X372414Y241999D01*
X367636Y243979D01*
X363979Y247636D01*
X361999Y252414D01*
X361999Y257586D01*
X363979Y262364D01*
X367636Y266021D01*
X372414Y268001D01*
X377586Y268001D01*
X382364Y266021D01*
X386021Y262364D01*
X388001Y257586D01*
X388001Y252414D01*
X386021Y247636D01*
X382364Y243979D01*
X377586Y241999D01*
X372414Y241999D01*
G37*
%LPD*%
%LPC*%
G36*
X-377586Y241999D02*
X-377586Y241999D01*
X-382364Y243979D01*
X-386021Y247636D01*
X-388001Y252414D01*
X-388001Y257586D01*
X-386021Y262364D01*
X-382364Y266021D01*
X-377586Y268001D01*
X-372414Y268001D01*
X-367636Y266021D01*
X-363979Y262364D01*
X-361999Y257586D01*
X-361999Y252414D01*
X-363979Y247636D01*
X-367636Y243979D01*
X-372414Y241999D01*
X-377586Y241999D01*
G37*
%LPD*%
%LPC*%
G36*
X54414Y-203001D02*
X54414Y-203001D01*
X49636Y-201021D01*
X45979Y-197364D01*
X43999Y-192586D01*
X43999Y-187414D01*
X45979Y-182636D01*
X49636Y-178979D01*
X54414Y-176999D01*
X59586Y-176999D01*
X64364Y-178979D01*
X68021Y-182636D01*
X70001Y-187414D01*
X70001Y-192586D01*
X68021Y-197364D01*
X64364Y-201021D01*
X59586Y-203001D01*
X54414Y-203001D01*
G37*
%LPD*%
%LPC*%
G36*
X372414Y-68001D02*
X372414Y-68001D01*
X367636Y-66021D01*
X363979Y-62364D01*
X361999Y-57586D01*
X361999Y-52414D01*
X363979Y-47636D01*
X367636Y-43979D01*
X372414Y-41999D01*
X377586Y-41999D01*
X382364Y-43979D01*
X386021Y-47636D01*
X388001Y-52414D01*
X388001Y-57586D01*
X386021Y-62364D01*
X382364Y-66021D01*
X377586Y-68001D01*
X372414Y-68001D01*
G37*
%LPD*%
%LPC*%
G36*
X-377586Y-68001D02*
X-377586Y-68001D01*
X-382364Y-66021D01*
X-386021Y-62364D01*
X-388001Y-57586D01*
X-388001Y-52414D01*
X-386021Y-47636D01*
X-382364Y-43979D01*
X-377586Y-41999D01*
X-372414Y-41999D01*
X-367636Y-43979D01*
X-363979Y-47636D01*
X-361999Y-52414D01*
X-361999Y-57586D01*
X-363979Y-62364D01*
X-367636Y-66021D01*
X-372414Y-68001D01*
X-377586Y-68001D01*
G37*
%LPD*%
%LPC*%
G36*
X-283967Y-66041D02*
X-283967Y-66041D01*
X-286041Y-63967D01*
X-286041Y-61033D01*
X-284592Y-59584D01*
X-284567Y-59549D01*
X-284536Y-59521D01*
X-284504Y-59458D01*
X-284463Y-59400D01*
X-284453Y-59359D01*
X-284433Y-59321D01*
X-284420Y-59231D01*
X-284418Y-59223D01*
X-283104Y-57909D01*
X-283104Y-57908D01*
X-223727Y1469D01*
X-223702Y1503D01*
X-223671Y1532D01*
X-223639Y1595D01*
X-223598Y1653D01*
X-223588Y1694D01*
X-223568Y1732D01*
X-223555Y1821D01*
X-223542Y1870D01*
X-223545Y1891D01*
X-223541Y1917D01*
X-223541Y3967D01*
X-221467Y6041D01*
X-218533Y6041D01*
X-216459Y3967D01*
X-216459Y1033D01*
X-218533Y-1041D01*
X-220583Y-1041D01*
X-220625Y-1048D01*
X-220667Y-1046D01*
X-220734Y-1068D01*
X-220804Y-1080D01*
X-220840Y-1102D01*
X-220881Y-1115D01*
X-220953Y-1169D01*
X-220997Y-1195D01*
X-221010Y-1211D01*
X-221031Y-1227D01*
X-279450Y-59645D01*
X-279488Y-59699D01*
X-279533Y-59747D01*
X-279551Y-59791D01*
X-279578Y-59830D01*
X-279595Y-59893D01*
X-279620Y-59954D01*
X-279623Y-60001D01*
X-279634Y-60047D01*
X-279627Y-60112D01*
X-279630Y-60178D01*
X-279616Y-60223D01*
X-279611Y-60270D01*
X-279582Y-60329D01*
X-279562Y-60392D01*
X-279529Y-60436D01*
X-279512Y-60471D01*
X-279483Y-60498D01*
X-279450Y-60542D01*
X-278959Y-61033D01*
X-278959Y-63967D01*
X-281033Y-66041D01*
X-283967Y-66041D01*
G37*
%LPD*%
%LPC*%
G36*
X-27192Y-131021D02*
X-27192Y-131021D01*
X-31243Y-129343D01*
X-34343Y-126243D01*
X-36021Y-122192D01*
X-36021Y-117808D01*
X-34343Y-113757D01*
X-31243Y-110657D01*
X-27192Y-108979D01*
X-22808Y-108979D01*
X-18757Y-110657D01*
X-15657Y-113757D01*
X-13979Y-117808D01*
X-13979Y-122192D01*
X-15657Y-126243D01*
X-18757Y-129343D01*
X-22808Y-131021D01*
X-27192Y-131021D01*
G37*
%LPD*%
%LPC*%
G36*
X22808Y-276021D02*
X22808Y-276021D01*
X18757Y-274343D01*
X15657Y-271243D01*
X13979Y-267192D01*
X13979Y-262808D01*
X15657Y-258757D01*
X18757Y-255657D01*
X22808Y-253979D01*
X27192Y-253979D01*
X31243Y-255657D01*
X34343Y-258757D01*
X36021Y-262808D01*
X36021Y-267192D01*
X34343Y-271243D01*
X31243Y-274343D01*
X27192Y-276021D01*
X22808Y-276021D01*
G37*
%LPD*%
%LPC*%
G36*
X-27192Y-276021D02*
X-27192Y-276021D01*
X-31243Y-274343D01*
X-34343Y-271243D01*
X-36021Y-267192D01*
X-36021Y-262808D01*
X-34343Y-258757D01*
X-31243Y-255657D01*
X-27192Y-253979D01*
X-22808Y-253979D01*
X-18757Y-255657D01*
X-15657Y-258757D01*
X-13979Y-262808D01*
X-13979Y-267192D01*
X-15657Y-271243D01*
X-18757Y-274343D01*
X-22808Y-276021D01*
X-27192Y-276021D01*
G37*
%LPD*%
%LPC*%
G36*
X-246745Y-103771D02*
X-246745Y-103771D01*
X-249968Y-102435D01*
X-252435Y-99968D01*
X-253771Y-96745D01*
X-253771Y-93255D01*
X-252435Y-90032D01*
X-249968Y-87565D01*
X-246745Y-86229D01*
X-243255Y-86229D01*
X-240032Y-87565D01*
X-237565Y-90032D01*
X-236229Y-93255D01*
X-236229Y-96745D01*
X-237565Y-99968D01*
X-240032Y-102435D01*
X-243255Y-103771D01*
X-246745Y-103771D01*
G37*
%LPD*%
%LPC*%
G36*
X-111745Y-103771D02*
X-111745Y-103771D01*
X-114968Y-102435D01*
X-117435Y-99968D01*
X-118771Y-96745D01*
X-118771Y-93255D01*
X-117435Y-90032D01*
X-114968Y-87565D01*
X-111745Y-86229D01*
X-108255Y-86229D01*
X-105032Y-87565D01*
X-102565Y-90032D01*
X-101229Y-93255D01*
X-101229Y-96745D01*
X-102565Y-99968D01*
X-105032Y-102435D01*
X-108255Y-103771D01*
X-111745Y-103771D01*
G37*
%LPD*%
%LPC*%
G36*
X-156745Y-103771D02*
X-156745Y-103771D01*
X-159968Y-102435D01*
X-162435Y-99968D01*
X-163771Y-96745D01*
X-163771Y-93255D01*
X-162435Y-90032D01*
X-159968Y-87565D01*
X-156745Y-86229D01*
X-153255Y-86229D01*
X-150032Y-87565D01*
X-147565Y-90032D01*
X-146229Y-93255D01*
X-146229Y-96745D01*
X-147565Y-99968D01*
X-150032Y-102435D01*
X-153255Y-103771D01*
X-156745Y-103771D01*
G37*
%LPD*%
%LPC*%
G36*
X368405Y-18021D02*
X368405Y-18021D01*
X365457Y-16800D01*
X363200Y-14543D01*
X361979Y-11595D01*
X361979Y-8405D01*
X363200Y-5457D01*
X365457Y-3200D01*
X368405Y-1979D01*
X371595Y-1979D01*
X374543Y-3200D01*
X376800Y-5457D01*
X378021Y-8405D01*
X378021Y-11595D01*
X376800Y-14543D01*
X374543Y-16800D01*
X371595Y-18021D01*
X368405Y-18021D01*
G37*
%LPD*%
%LPC*%
G36*
X-371595Y21479D02*
X-371595Y21479D01*
X-374543Y22700D01*
X-376800Y24957D01*
X-378021Y27905D01*
X-378021Y31095D01*
X-376800Y34043D01*
X-374543Y36300D01*
X-371595Y37521D01*
X-368405Y37521D01*
X-365457Y36300D01*
X-363200Y34043D01*
X-361979Y31095D01*
X-361979Y27905D01*
X-363200Y24957D01*
X-365457Y22700D01*
X-368405Y21479D01*
X-371595Y21479D01*
G37*
%LPD*%
%LPC*%
G36*
X-371595Y81479D02*
X-371595Y81479D01*
X-374543Y82700D01*
X-376800Y84957D01*
X-378021Y87905D01*
X-378021Y91095D01*
X-376800Y94043D01*
X-374543Y96300D01*
X-371595Y97521D01*
X-368405Y97521D01*
X-365457Y96300D01*
X-363200Y94043D01*
X-361979Y91095D01*
X-361979Y87905D01*
X-363200Y84957D01*
X-365457Y82700D01*
X-368405Y81479D01*
X-371595Y81479D01*
G37*
%LPD*%
%LPC*%
G36*
X368405Y161979D02*
X368405Y161979D01*
X365457Y163200D01*
X363200Y165457D01*
X361979Y168405D01*
X361979Y171595D01*
X363200Y174543D01*
X365457Y176800D01*
X368405Y178021D01*
X371595Y178021D01*
X374543Y176800D01*
X376800Y174543D01*
X378021Y171595D01*
X378021Y168405D01*
X376800Y165457D01*
X374543Y163200D01*
X371595Y161979D01*
X368405Y161979D01*
G37*
%LPD*%
%LPC*%
G36*
X-371595Y-18521D02*
X-371595Y-18521D01*
X-374543Y-17300D01*
X-376800Y-15043D01*
X-378021Y-12095D01*
X-378021Y-8905D01*
X-376800Y-5957D01*
X-374543Y-3700D01*
X-371595Y-2479D01*
X-368405Y-2479D01*
X-365457Y-3700D01*
X-363200Y-5957D01*
X-361979Y-8905D01*
X-361979Y-12095D01*
X-363200Y-15043D01*
X-365457Y-17300D01*
X-368405Y-18521D01*
X-371595Y-18521D01*
G37*
%LPD*%
%LPC*%
G36*
X368405Y61979D02*
X368405Y61979D01*
X365457Y63200D01*
X363200Y65457D01*
X361979Y68405D01*
X361979Y71595D01*
X363200Y74543D01*
X365457Y76800D01*
X368405Y78021D01*
X371595Y78021D01*
X374543Y76800D01*
X376800Y74543D01*
X378021Y71595D01*
X378021Y68405D01*
X376800Y65457D01*
X374543Y63200D01*
X371595Y61979D01*
X368405Y61979D01*
G37*
%LPD*%
%LPC*%
G36*
X-371595Y181479D02*
X-371595Y181479D01*
X-374543Y182700D01*
X-376800Y184957D01*
X-378021Y187905D01*
X-378021Y191095D01*
X-376800Y194043D01*
X-374543Y196300D01*
X-371595Y197521D01*
X-368405Y197521D01*
X-365457Y196300D01*
X-363200Y194043D01*
X-361979Y191095D01*
X-361979Y187905D01*
X-363200Y184957D01*
X-365457Y182700D01*
X-368405Y181479D01*
X-371595Y181479D01*
G37*
%LPD*%
%LPC*%
G36*
X368405Y181979D02*
X368405Y181979D01*
X365457Y183200D01*
X363200Y185457D01*
X361979Y188405D01*
X361979Y191595D01*
X363200Y194543D01*
X365457Y196800D01*
X368405Y198021D01*
X371595Y198021D01*
X374543Y196800D01*
X376800Y194543D01*
X378021Y191595D01*
X378021Y188405D01*
X376800Y185457D01*
X374543Y183200D01*
X371595Y181979D01*
X368405Y181979D01*
G37*
%LPD*%
%LPC*%
G36*
X-371595Y1479D02*
X-371595Y1479D01*
X-374543Y2700D01*
X-376800Y4957D01*
X-378021Y7905D01*
X-378021Y11095D01*
X-376800Y14043D01*
X-374543Y16300D01*
X-371595Y17521D01*
X-368405Y17521D01*
X-365457Y16300D01*
X-363200Y14043D01*
X-361979Y11095D01*
X-361979Y7905D01*
X-363200Y4957D01*
X-365457Y2700D01*
X-368405Y1479D01*
X-371595Y1479D01*
G37*
%LPD*%
%LPC*%
G36*
X368405Y1979D02*
X368405Y1979D01*
X365457Y3200D01*
X363200Y5457D01*
X361979Y8405D01*
X361979Y11595D01*
X363200Y14543D01*
X365457Y16800D01*
X368405Y18021D01*
X371595Y18021D01*
X374543Y16800D01*
X376800Y14543D01*
X378021Y11595D01*
X378021Y8405D01*
X376800Y5457D01*
X374543Y3200D01*
X371595Y1979D01*
X368405Y1979D01*
G37*
%LPD*%
%LPC*%
G36*
X368405Y141979D02*
X368405Y141979D01*
X365457Y143200D01*
X363200Y145457D01*
X361979Y148405D01*
X361979Y151595D01*
X363200Y154543D01*
X365457Y156800D01*
X368405Y158021D01*
X371595Y158021D01*
X374543Y156800D01*
X376800Y154543D01*
X378021Y151595D01*
X378021Y148405D01*
X376800Y145457D01*
X374543Y143200D01*
X371595Y141979D01*
X368405Y141979D01*
G37*
%LPD*%
%LPC*%
G36*
X-371595Y141479D02*
X-371595Y141479D01*
X-374543Y142700D01*
X-376800Y144957D01*
X-378021Y147905D01*
X-378021Y151095D01*
X-376800Y154043D01*
X-374543Y156300D01*
X-371595Y157521D01*
X-368405Y157521D01*
X-365457Y156300D01*
X-363200Y154043D01*
X-361979Y151095D01*
X-361979Y147905D01*
X-363200Y144957D01*
X-365457Y142700D01*
X-368405Y141479D01*
X-371595Y141479D01*
G37*
%LPD*%
%LPC*%
G36*
X368405Y101979D02*
X368405Y101979D01*
X365457Y103200D01*
X363200Y105457D01*
X361979Y108405D01*
X361979Y111595D01*
X363200Y114543D01*
X365457Y116800D01*
X368405Y118021D01*
X371595Y118021D01*
X374543Y116800D01*
X376800Y114543D01*
X378021Y111595D01*
X378021Y108405D01*
X376800Y105457D01*
X374543Y103200D01*
X371595Y101979D01*
X368405Y101979D01*
G37*
%LPD*%
%LPC*%
G36*
X-371595Y41479D02*
X-371595Y41479D01*
X-374543Y42700D01*
X-376800Y44957D01*
X-378021Y47905D01*
X-378021Y51095D01*
X-376800Y54043D01*
X-374543Y56300D01*
X-371595Y57521D01*
X-368405Y57521D01*
X-365457Y56300D01*
X-363200Y54043D01*
X-361979Y51095D01*
X-361979Y47905D01*
X-363200Y44957D01*
X-365457Y42700D01*
X-368405Y41479D01*
X-371595Y41479D01*
G37*
%LPD*%
%LPC*%
G36*
X-371595Y201479D02*
X-371595Y201479D01*
X-374543Y202700D01*
X-376800Y204957D01*
X-378021Y207905D01*
X-378021Y211095D01*
X-376800Y214043D01*
X-374543Y216300D01*
X-371595Y217521D01*
X-368405Y217521D01*
X-365457Y216300D01*
X-363200Y214043D01*
X-361979Y211095D01*
X-361979Y207905D01*
X-363200Y204957D01*
X-365457Y202700D01*
X-368405Y201479D01*
X-371595Y201479D01*
G37*
%LPD*%
%LPC*%
G36*
X368405Y41979D02*
X368405Y41979D01*
X365457Y43200D01*
X363200Y45457D01*
X361979Y48405D01*
X361979Y51595D01*
X363200Y54543D01*
X365457Y56800D01*
X368405Y58021D01*
X371595Y58021D01*
X374543Y56800D01*
X376800Y54543D01*
X378021Y51595D01*
X378021Y48405D01*
X376800Y45457D01*
X374543Y43200D01*
X371595Y41979D01*
X368405Y41979D01*
G37*
%LPD*%
%LPC*%
G36*
X368405Y121979D02*
X368405Y121979D01*
X365457Y123200D01*
X363200Y125457D01*
X361979Y128405D01*
X361979Y131595D01*
X363200Y134543D01*
X365457Y136800D01*
X368405Y138021D01*
X371595Y138021D01*
X374543Y136800D01*
X376800Y134543D01*
X378021Y131595D01*
X378021Y128405D01*
X376800Y125457D01*
X374543Y123200D01*
X371595Y121979D01*
X368405Y121979D01*
G37*
%LPD*%
%LPC*%
G36*
X-371595Y121479D02*
X-371595Y121479D01*
X-374543Y122700D01*
X-376800Y124957D01*
X-378021Y127905D01*
X-378021Y131095D01*
X-376800Y134043D01*
X-374543Y136300D01*
X-371595Y137521D01*
X-368405Y137521D01*
X-365457Y136300D01*
X-363200Y134043D01*
X-361979Y131095D01*
X-361979Y127905D01*
X-363200Y124957D01*
X-365457Y122700D01*
X-368405Y121479D01*
X-371595Y121479D01*
G37*
%LPD*%
%LPC*%
G36*
X368405Y201979D02*
X368405Y201979D01*
X365457Y203200D01*
X363200Y205457D01*
X361979Y208405D01*
X361979Y211595D01*
X363200Y214543D01*
X365457Y216800D01*
X368405Y218021D01*
X371595Y218021D01*
X374543Y216800D01*
X376800Y214543D01*
X378021Y211595D01*
X378021Y208405D01*
X376800Y205457D01*
X374543Y203200D01*
X371595Y201979D01*
X368405Y201979D01*
G37*
%LPD*%
%LPC*%
G36*
X-371595Y61479D02*
X-371595Y61479D01*
X-374543Y62700D01*
X-376800Y64957D01*
X-378021Y67905D01*
X-378021Y71095D01*
X-376800Y74043D01*
X-374543Y76300D01*
X-371595Y77521D01*
X-368405Y77521D01*
X-365457Y76300D01*
X-363200Y74043D01*
X-361979Y71095D01*
X-361979Y67905D01*
X-363200Y64957D01*
X-365457Y62700D01*
X-368405Y61479D01*
X-371595Y61479D01*
G37*
%LPD*%
%LPC*%
G36*
X28533Y-106041D02*
X28533Y-106041D01*
X26459Y-103967D01*
X26459Y-101033D01*
X28533Y-98959D01*
X30825Y-98959D01*
X30890Y-98948D01*
X30956Y-98946D01*
X30999Y-98928D01*
X31046Y-98920D01*
X31103Y-98886D01*
X31163Y-98861D01*
X31198Y-98830D01*
X31239Y-98805D01*
X31281Y-98754D01*
X31329Y-98710D01*
X31351Y-98668D01*
X31380Y-98631D01*
X31401Y-98569D01*
X31432Y-98510D01*
X31440Y-98456D01*
X31452Y-98419D01*
X31451Y-98379D01*
X31459Y-98325D01*
X31459Y-96033D01*
X33294Y-94199D01*
X33332Y-94144D01*
X33377Y-94097D01*
X33395Y-94053D01*
X33422Y-94014D01*
X33439Y-93951D01*
X33464Y-93890D01*
X33466Y-93843D01*
X33478Y-93797D01*
X33471Y-93732D01*
X33474Y-93666D01*
X33460Y-93621D01*
X33455Y-93574D01*
X33426Y-93515D01*
X33406Y-93452D01*
X33373Y-93408D01*
X33356Y-93373D01*
X33327Y-93346D01*
X33294Y-93302D01*
X31459Y-91467D01*
X31459Y-88533D01*
X33533Y-86459D01*
X36467Y-86459D01*
X38541Y-88533D01*
X38541Y-91467D01*
X36706Y-93302D01*
X36668Y-93356D01*
X36623Y-93403D01*
X36605Y-93447D01*
X36578Y-93486D01*
X36561Y-93549D01*
X36536Y-93610D01*
X36534Y-93657D01*
X36522Y-93703D01*
X36529Y-93768D01*
X36526Y-93834D01*
X36540Y-93879D01*
X36545Y-93926D01*
X36574Y-93985D01*
X36594Y-94048D01*
X36627Y-94092D01*
X36644Y-94127D01*
X36673Y-94154D01*
X36706Y-94199D01*
X38541Y-96033D01*
X38541Y-98967D01*
X36467Y-101041D01*
X34175Y-101041D01*
X34110Y-101052D01*
X34044Y-101054D01*
X34001Y-101072D01*
X33954Y-101080D01*
X33897Y-101114D01*
X33837Y-101139D01*
X33802Y-101170D01*
X33761Y-101195D01*
X33719Y-101246D01*
X33671Y-101290D01*
X33649Y-101332D01*
X33620Y-101369D01*
X33599Y-101431D01*
X33568Y-101490D01*
X33560Y-101544D01*
X33548Y-101581D01*
X33549Y-101621D01*
X33541Y-101675D01*
X33541Y-103967D01*
X31467Y-106041D01*
X28533Y-106041D01*
G37*
%LPD*%
%LPC*%
G36*
X-15929Y-77101D02*
X-15929Y-77101D01*
X-17994Y-76430D01*
X-19928Y-75445D01*
X-21684Y-74169D01*
X-23219Y-72634D01*
X-24495Y-70878D01*
X-25480Y-68944D01*
X-26151Y-66879D01*
X-26462Y-64919D01*
X-13969Y-64919D01*
X-13969Y-77412D01*
X-15929Y-77101D01*
G37*
%LPD*%
%LPC*%
G36*
X-26462Y-62381D02*
X-26462Y-62381D01*
X-26151Y-60421D01*
X-25480Y-58356D01*
X-24495Y-56422D01*
X-23219Y-54666D01*
X-21684Y-53131D01*
X-19928Y-51855D01*
X-17994Y-50870D01*
X-15929Y-50199D01*
X-13969Y-49888D01*
X-13969Y-62381D01*
X-26462Y-62381D01*
G37*
%LPD*%
%LPC*%
G36*
X-2878Y-276988D02*
X-2878Y-276988D01*
X-4718Y-276390D01*
X-6442Y-275512D01*
X-8007Y-274375D01*
X-9375Y-273007D01*
X-10512Y-271442D01*
X-11390Y-269718D01*
X-11988Y-267878D01*
X-12243Y-266269D01*
X-1269Y-266269D01*
X-1269Y-277243D01*
X-2878Y-276988D01*
G37*
%LPD*%
%LPC*%
G36*
X26269Y-121269D02*
X26269Y-121269D01*
X37243Y-121269D01*
X36988Y-122878D01*
X36390Y-124718D01*
X35512Y-126442D01*
X34375Y-128007D01*
X33007Y-129375D01*
X31442Y-130512D01*
X29718Y-131390D01*
X27878Y-131988D01*
X26269Y-132243D01*
X26269Y-121269D01*
G37*
%LPD*%
%LPC*%
G36*
X1269Y-266269D02*
X1269Y-266269D01*
X12243Y-266269D01*
X11988Y-267878D01*
X11390Y-269718D01*
X10512Y-271442D01*
X9375Y-273007D01*
X8007Y-274375D01*
X6442Y-275512D01*
X4718Y-276390D01*
X2878Y-276988D01*
X1269Y-277243D01*
X1269Y-266269D01*
G37*
%LPD*%
%LPC*%
G36*
X-12243Y-263731D02*
X-12243Y-263731D01*
X-11988Y-262122D01*
X-11390Y-260282D01*
X-10512Y-258558D01*
X-9375Y-256993D01*
X-8007Y-255625D01*
X-6442Y-254488D01*
X-4718Y-253610D01*
X-2878Y-253012D01*
X-1269Y-252757D01*
X-1269Y-263731D01*
X-12243Y-263731D01*
G37*
%LPD*%
%LPC*%
G36*
X1269Y-263731D02*
X1269Y-263731D01*
X1269Y-252757D01*
X2878Y-253012D01*
X4718Y-253610D01*
X6442Y-254488D01*
X8007Y-255625D01*
X9375Y-256993D01*
X10512Y-258558D01*
X11390Y-260282D01*
X11988Y-262122D01*
X12243Y-263731D01*
X1269Y-263731D01*
G37*
%LPD*%
%LPC*%
G36*
X26269Y-118731D02*
X26269Y-118731D01*
X26269Y-107757D01*
X27878Y-108012D01*
X29718Y-108610D01*
X31442Y-109488D01*
X33007Y-110625D01*
X34375Y-111993D01*
X35512Y-113558D01*
X36390Y-115282D01*
X36988Y-117122D01*
X37243Y-118731D01*
X26269Y-118731D01*
G37*
%LPD*%
%LPC*%
G36*
X22122Y-131988D02*
X22122Y-131988D01*
X20282Y-131390D01*
X18558Y-130512D01*
X16993Y-129375D01*
X15625Y-128007D01*
X14488Y-126442D01*
X13610Y-124718D01*
X13012Y-122878D01*
X12757Y-121269D01*
X23731Y-121269D01*
X23731Y-132243D01*
X22122Y-131988D01*
G37*
%LPD*%
%LPC*%
G36*
X12757Y-118731D02*
X12757Y-118731D01*
X13012Y-117122D01*
X13610Y-115282D01*
X14488Y-113558D01*
X15625Y-111993D01*
X16993Y-110625D01*
X18558Y-109488D01*
X20282Y-108610D01*
X22122Y-108012D01*
X23731Y-107757D01*
X23731Y-118731D01*
X12757Y-118731D01*
G37*
%LPD*%
%LPC*%
G36*
X-33967Y-23541D02*
X-33967Y-23541D01*
X-36041Y-21467D01*
X-36041Y-19175D01*
X-36052Y-19110D01*
X-36054Y-19044D01*
X-36072Y-19001D01*
X-36080Y-18954D01*
X-36114Y-18897D01*
X-36139Y-18837D01*
X-36170Y-18802D01*
X-36195Y-18761D01*
X-36246Y-18719D01*
X-36290Y-18671D01*
X-36332Y-18649D01*
X-36369Y-18620D01*
X-36431Y-18599D01*
X-36490Y-18568D01*
X-36544Y-18560D01*
X-36581Y-18548D01*
X-36621Y-18549D01*
X-36675Y-18541D01*
X-38967Y-18541D01*
X-41041Y-16467D01*
X-41041Y-13533D01*
X-38967Y-11459D01*
X-36033Y-11459D01*
X-33959Y-13533D01*
X-33959Y-15825D01*
X-33948Y-15890D01*
X-33946Y-15956D01*
X-33928Y-15999D01*
X-33920Y-16046D01*
X-33886Y-16103D01*
X-33861Y-16163D01*
X-33830Y-16198D01*
X-33805Y-16239D01*
X-33754Y-16281D01*
X-33710Y-16329D01*
X-33668Y-16351D01*
X-33631Y-16380D01*
X-33569Y-16401D01*
X-33510Y-16432D01*
X-33456Y-16440D01*
X-33419Y-16452D01*
X-33379Y-16451D01*
X-33325Y-16459D01*
X-31033Y-16459D01*
X-28959Y-18533D01*
X-28959Y-21467D01*
X-31033Y-23541D01*
X-33967Y-23541D01*
G37*
%LPD*%
%LPC*%
G36*
X-238396Y75054D02*
X-238396Y75054D01*
X-241000Y77658D01*
X-241000Y81342D01*
X-238396Y83946D01*
X-234712Y83946D01*
X-232108Y81342D01*
X-232108Y77658D01*
X-234712Y75054D01*
X-238396Y75054D01*
G37*
%LPD*%
%LPC*%
G36*
X-285288Y75054D02*
X-285288Y75054D01*
X-287892Y77658D01*
X-287892Y81342D01*
X-285288Y83946D01*
X-281604Y83946D01*
X-279000Y81342D01*
X-279000Y77658D01*
X-281604Y75054D01*
X-285288Y75054D01*
G37*
%LPD*%
%LPC*%
G36*
X-204497Y100554D02*
X-204497Y100554D01*
X-207101Y103158D01*
X-207101Y106842D01*
X-204497Y109446D01*
X-200813Y109446D01*
X-198209Y106842D01*
X-198209Y103158D01*
X-200813Y100554D01*
X-204497Y100554D01*
G37*
%LPD*%
%LPC*%
G36*
X-264497Y100554D02*
X-264497Y100554D01*
X-267101Y103158D01*
X-267101Y106842D01*
X-264497Y109446D01*
X-260813Y109446D01*
X-258209Y106842D01*
X-258209Y103158D01*
X-260813Y100554D01*
X-264497Y100554D01*
G37*
%LPD*%
%LPC*%
G36*
X-319187Y100554D02*
X-319187Y100554D01*
X-321791Y103158D01*
X-321791Y106842D01*
X-319187Y109446D01*
X-315503Y109446D01*
X-312899Y106842D01*
X-312899Y103158D01*
X-315503Y100554D01*
X-319187Y100554D01*
G37*
%LPD*%
%LPC*%
G36*
X-386287Y-169446D02*
X-386287Y-169446D01*
X-388891Y-166842D01*
X-388891Y-163158D01*
X-386287Y-160554D01*
X-382603Y-160554D01*
X-379999Y-163158D01*
X-379999Y-166842D01*
X-382603Y-169446D01*
X-386287Y-169446D01*
G37*
%LPD*%
%LPC*%
G36*
X230168Y155304D02*
X230168Y155304D01*
X227564Y157908D01*
X227564Y161592D01*
X230168Y164196D01*
X233852Y164196D01*
X236456Y161592D01*
X236456Y157908D01*
X233852Y155304D01*
X230168Y155304D01*
G37*
%LPD*%
%LPC*%
G36*
X-349842Y-182001D02*
X-349842Y-182001D01*
X-352446Y-179397D01*
X-352446Y-175713D01*
X-349842Y-173109D01*
X-346158Y-173109D01*
X-343554Y-175713D01*
X-343554Y-179397D01*
X-346158Y-182001D01*
X-349842Y-182001D01*
G37*
%LPD*%
%LPC*%
G36*
X291158Y219359D02*
X291158Y219359D01*
X288554Y221963D01*
X288554Y225647D01*
X291158Y228251D01*
X294842Y228251D01*
X297446Y225647D01*
X297446Y221963D01*
X294842Y219359D01*
X291158Y219359D01*
G37*
%LPD*%
%LPC*%
G36*
X-314787Y-227196D02*
X-314787Y-227196D01*
X-317391Y-224592D01*
X-317391Y-220908D01*
X-314787Y-218304D01*
X-311103Y-218304D01*
X-308499Y-220908D01*
X-308499Y-224592D01*
X-311103Y-227196D01*
X-314787Y-227196D01*
G37*
%LPD*%
%LPC*%
G36*
X218158Y132609D02*
X218158Y132609D01*
X215554Y135213D01*
X215554Y138896D01*
X218158Y141500D01*
X221842Y141500D01*
X224446Y138896D01*
X224446Y135213D01*
X221842Y132609D01*
X218158Y132609D01*
G37*
%LPD*%
%LPC*%
G36*
X-226842Y48500D02*
X-226842Y48500D01*
X-229446Y51104D01*
X-229446Y54787D01*
X-226842Y57391D01*
X-223158Y57391D01*
X-220554Y54787D01*
X-220554Y51104D01*
X-223158Y48500D01*
X-226842Y48500D01*
G37*
%LPD*%
%LPC*%
G36*
X-202351Y-104794D02*
X-202351Y-104794D01*
X-203854Y-104305D01*
X-205262Y-103588D01*
X-206541Y-102659D01*
X-207659Y-101541D01*
X-208588Y-100262D01*
X-209305Y-98854D01*
X-209794Y-97351D01*
X-209965Y-96269D01*
X-201269Y-96269D01*
X-201269Y-104965D01*
X-202351Y-104794D01*
G37*
%LPD*%
%LPC*%
G36*
X-198731Y-96269D02*
X-198731Y-96269D01*
X-190035Y-96269D01*
X-190206Y-97351D01*
X-190695Y-98854D01*
X-191412Y-100262D01*
X-192341Y-101541D01*
X-193459Y-102659D01*
X-194738Y-103588D01*
X-196146Y-104305D01*
X-197649Y-104794D01*
X-198731Y-104965D01*
X-198731Y-96269D01*
G37*
%LPD*%
%LPC*%
G36*
X-209965Y-93731D02*
X-209965Y-93731D01*
X-209794Y-92649D01*
X-209305Y-91146D01*
X-208588Y-89738D01*
X-207659Y-88459D01*
X-206541Y-87341D01*
X-205262Y-86412D01*
X-203854Y-85695D01*
X-202351Y-85206D01*
X-201269Y-85035D01*
X-201269Y-93731D01*
X-209965Y-93731D01*
G37*
%LPD*%
%LPC*%
G36*
X-198731Y-93731D02*
X-198731Y-93731D01*
X-198731Y-85035D01*
X-197649Y-85206D01*
X-196146Y-85695D01*
X-194738Y-86412D01*
X-193459Y-87341D01*
X-192341Y-88459D01*
X-191412Y-89738D01*
X-190695Y-91146D01*
X-190206Y-92649D01*
X-190035Y-93731D01*
X-198731Y-93731D01*
G37*
%LPD*%
%LPC*%
G36*
X-141578Y189530D02*
X-141578Y189530D01*
X-143811Y191762D01*
X-143811Y194919D01*
X-141578Y197151D01*
X-138422Y197151D01*
X-136189Y194919D01*
X-136189Y191762D01*
X-138422Y189530D01*
X-141578Y189530D01*
G37*
%LPD*%
%LPC*%
G36*
X-238878Y187199D02*
X-238878Y187199D01*
X-241111Y189432D01*
X-241111Y192588D01*
X-238878Y194821D01*
X-235722Y194821D01*
X-233489Y192588D01*
X-233489Y189432D01*
X-235722Y187199D01*
X-238878Y187199D01*
G37*
%LPD*%
%LPC*%
G36*
X-81578Y189530D02*
X-81578Y189530D01*
X-83811Y191762D01*
X-83811Y194919D01*
X-81578Y197151D01*
X-78422Y197151D01*
X-76189Y194919D01*
X-76189Y191762D01*
X-78422Y189530D01*
X-81578Y189530D01*
G37*
%LPD*%
%LPC*%
G36*
X288422Y49770D02*
X288422Y49770D01*
X286189Y52002D01*
X286189Y55159D01*
X288422Y57391D01*
X291578Y57391D01*
X293811Y55159D01*
X293811Y52002D01*
X291578Y49770D01*
X288422Y49770D01*
G37*
%LPD*%
%LPC*%
G36*
X-146178Y-78771D02*
X-146178Y-78771D01*
X-148411Y-76538D01*
X-148411Y-73382D01*
X-146178Y-71149D01*
X-143022Y-71149D01*
X-140789Y-73382D01*
X-140789Y-76538D01*
X-143022Y-78771D01*
X-146178Y-78771D01*
G37*
%LPD*%
%LPC*%
G36*
X5922Y181619D02*
X5922Y181619D01*
X3689Y183852D01*
X3689Y187008D01*
X5922Y189241D01*
X9078Y189241D01*
X11311Y187008D01*
X11311Y183852D01*
X9078Y181619D01*
X5922Y181619D01*
G37*
%LPD*%
%LPC*%
G36*
X330478Y-71311D02*
X330478Y-71311D01*
X328246Y-69078D01*
X328246Y-65922D01*
X330478Y-63689D01*
X333635Y-63689D01*
X335867Y-65922D01*
X335867Y-69078D01*
X333635Y-71311D01*
X330478Y-71311D01*
G37*
%LPD*%
%LPC*%
G36*
X322378Y-66311D02*
X322378Y-66311D01*
X320145Y-64078D01*
X320145Y-60922D01*
X322378Y-58689D01*
X325534Y-58689D01*
X327767Y-60922D01*
X327767Y-64078D01*
X325534Y-66311D01*
X322378Y-66311D01*
G37*
%LPD*%
%LPC*%
G36*
X218422Y179770D02*
X218422Y179770D01*
X216189Y182002D01*
X216189Y185159D01*
X218422Y187391D01*
X221578Y187391D01*
X223811Y185159D01*
X223811Y182002D01*
X221578Y179770D01*
X218422Y179770D01*
G37*
%LPD*%
%LPC*%
G36*
X231067Y175439D02*
X231067Y175439D01*
X228834Y177672D01*
X228834Y180828D01*
X231067Y183061D01*
X234223Y183061D01*
X236456Y180828D01*
X236456Y177672D01*
X234223Y175439D01*
X231067Y175439D01*
G37*
%LPD*%
%LPC*%
G36*
X-62008Y153689D02*
X-62008Y153689D01*
X-64241Y155922D01*
X-64241Y159078D01*
X-62008Y161311D01*
X-58852Y161311D01*
X-56619Y159078D01*
X-56619Y155922D01*
X-58852Y153689D01*
X-62008Y153689D01*
G37*
%LPD*%
%LPC*%
G36*
X-31578Y189770D02*
X-31578Y189770D01*
X-33811Y192002D01*
X-33811Y195159D01*
X-31578Y197391D01*
X-28422Y197391D01*
X-26189Y195159D01*
X-26189Y192002D01*
X-28422Y189770D01*
X-31578Y189770D01*
G37*
%LPD*%
%LPC*%
G36*
X-313888Y-166561D02*
X-313888Y-166561D01*
X-316121Y-164328D01*
X-316121Y-161172D01*
X-313888Y-158939D01*
X-310732Y-158939D01*
X-308499Y-161172D01*
X-308499Y-164328D01*
X-310732Y-166561D01*
X-313888Y-166561D01*
G37*
%LPD*%
%LPC*%
G36*
X339612Y-168811D02*
X339612Y-168811D01*
X337379Y-166578D01*
X337379Y-163422D01*
X339612Y-161189D01*
X342768Y-161189D01*
X345001Y-163422D01*
X345001Y-166578D01*
X342768Y-168811D01*
X339612Y-168811D01*
G37*
%LPD*%
%LPC*%
G36*
X-62008Y103689D02*
X-62008Y103689D01*
X-64241Y105922D01*
X-64241Y109078D01*
X-62008Y111311D01*
X-58852Y111311D01*
X-56619Y109078D01*
X-56619Y105922D01*
X-58852Y103689D01*
X-62008Y103689D01*
G37*
%LPD*%
%LPC*%
G36*
X318808Y28939D02*
X318808Y28939D01*
X316576Y31172D01*
X316576Y34328D01*
X318808Y36561D01*
X321965Y36561D01*
X324197Y34328D01*
X324197Y31172D01*
X321965Y28939D01*
X318808Y28939D01*
G37*
%LPD*%
%LPC*%
G36*
X325777Y123439D02*
X325777Y123439D01*
X323544Y125672D01*
X323544Y128828D01*
X325777Y131061D01*
X328933Y131061D01*
X331166Y128828D01*
X331166Y125672D01*
X328933Y123439D01*
X325777Y123439D01*
G37*
%LPD*%
%LPC*%
G36*
X10922Y60759D02*
X10922Y60759D01*
X8689Y62992D01*
X8689Y66148D01*
X10922Y68381D01*
X14078Y68381D01*
X16311Y66148D01*
X16311Y62992D01*
X14078Y60759D01*
X10922Y60759D01*
G37*
%LPD*%
%LPC*%
G36*
X-56578Y52609D02*
X-56578Y52609D01*
X-58811Y54841D01*
X-58811Y57998D01*
X-56578Y60230D01*
X-53422Y60230D01*
X-51189Y57998D01*
X-51189Y54841D01*
X-53422Y52609D01*
X-56578Y52609D01*
G37*
%LPD*%
%LPC*%
G36*
X371269Y31269D02*
X371269Y31269D01*
X371269Y39220D01*
X372710Y38934D01*
X374401Y38233D01*
X375923Y37217D01*
X377217Y35923D01*
X378233Y34401D01*
X378934Y32710D01*
X379220Y31269D01*
X371269Y31269D01*
G37*
%LPD*%
%LPC*%
G36*
X-379220Y110769D02*
X-379220Y110769D01*
X-378934Y112210D01*
X-378233Y113901D01*
X-377217Y115423D01*
X-375923Y116717D01*
X-374401Y117733D01*
X-372710Y118434D01*
X-371269Y118720D01*
X-371269Y110769D01*
X-379220Y110769D01*
G37*
%LPD*%
%LPC*%
G36*
X-379220Y170769D02*
X-379220Y170769D01*
X-378934Y172210D01*
X-378233Y173901D01*
X-377217Y175423D01*
X-375923Y176717D01*
X-374401Y177733D01*
X-372710Y178434D01*
X-371269Y178720D01*
X-371269Y170769D01*
X-379220Y170769D01*
G37*
%LPD*%
%LPC*%
G36*
X371269Y91269D02*
X371269Y91269D01*
X371269Y99220D01*
X372710Y98934D01*
X374401Y98233D01*
X375923Y97217D01*
X377217Y95923D01*
X378233Y94401D01*
X378934Y92710D01*
X379220Y91269D01*
X371269Y91269D01*
G37*
%LPD*%
%LPC*%
G36*
X-368731Y110769D02*
X-368731Y110769D01*
X-368731Y118720D01*
X-367290Y118434D01*
X-365599Y117733D01*
X-364077Y116717D01*
X-362783Y115423D01*
X-361767Y113901D01*
X-361066Y112210D01*
X-360780Y110769D01*
X-368731Y110769D01*
G37*
%LPD*%
%LPC*%
G36*
X371269Y88731D02*
X371269Y88731D01*
X379220Y88731D01*
X378934Y87290D01*
X378233Y85599D01*
X377217Y84077D01*
X375923Y82783D01*
X374401Y81767D01*
X372710Y81066D01*
X371269Y80780D01*
X371269Y88731D01*
G37*
%LPD*%
%LPC*%
G36*
X371269Y28731D02*
X371269Y28731D01*
X379220Y28731D01*
X378934Y27290D01*
X378233Y25599D01*
X377217Y24077D01*
X375923Y22783D01*
X374401Y21767D01*
X372710Y21066D01*
X371269Y20780D01*
X371269Y28731D01*
G37*
%LPD*%
%LPC*%
G36*
X360780Y31269D02*
X360780Y31269D01*
X361066Y32710D01*
X361767Y34401D01*
X362783Y35923D01*
X364077Y37217D01*
X365599Y38233D01*
X367290Y38934D01*
X368731Y39220D01*
X368731Y31269D01*
X360780Y31269D01*
G37*
%LPD*%
%LPC*%
G36*
X-372710Y100566D02*
X-372710Y100566D01*
X-374401Y101267D01*
X-375923Y102283D01*
X-377217Y103577D01*
X-378233Y105099D01*
X-378934Y106790D01*
X-379220Y108231D01*
X-371269Y108231D01*
X-371269Y100280D01*
X-372710Y100566D01*
G37*
%LPD*%
%LPC*%
G36*
X360780Y91269D02*
X360780Y91269D01*
X361066Y92710D01*
X361767Y94401D01*
X362783Y95923D01*
X364077Y97217D01*
X365599Y98233D01*
X367290Y98934D01*
X368731Y99220D01*
X368731Y91269D01*
X360780Y91269D01*
G37*
%LPD*%
%LPC*%
G36*
X-372710Y160566D02*
X-372710Y160566D01*
X-374401Y161267D01*
X-375923Y162283D01*
X-377217Y163577D01*
X-378233Y165099D01*
X-378934Y166790D01*
X-379220Y168231D01*
X-371269Y168231D01*
X-371269Y160280D01*
X-372710Y160566D01*
G37*
%LPD*%
%LPC*%
G36*
X-368731Y170769D02*
X-368731Y170769D01*
X-368731Y178720D01*
X-367290Y178434D01*
X-365599Y177733D01*
X-364077Y176717D01*
X-362783Y175423D01*
X-361767Y173901D01*
X-361066Y172210D01*
X-360780Y170769D01*
X-368731Y170769D01*
G37*
%LPD*%
%LPC*%
G36*
X-368731Y108231D02*
X-368731Y108231D01*
X-360780Y108231D01*
X-361066Y106790D01*
X-361767Y105099D01*
X-362783Y103577D01*
X-364077Y102283D01*
X-365599Y101267D01*
X-367290Y100566D01*
X-368731Y100280D01*
X-368731Y108231D01*
G37*
%LPD*%
%LPC*%
G36*
X367290Y21066D02*
X367290Y21066D01*
X365599Y21767D01*
X364077Y22783D01*
X362783Y24077D01*
X361767Y25599D01*
X361066Y27290D01*
X360780Y28731D01*
X368731Y28731D01*
X368731Y20780D01*
X367290Y21066D01*
G37*
%LPD*%
%LPC*%
G36*
X-368731Y168231D02*
X-368731Y168231D01*
X-360780Y168231D01*
X-361066Y166790D01*
X-361767Y165099D01*
X-362783Y163577D01*
X-364077Y162283D01*
X-365599Y161267D01*
X-367290Y160566D01*
X-368731Y160280D01*
X-368731Y168231D01*
G37*
%LPD*%
%LPC*%
G36*
X367290Y81066D02*
X367290Y81066D01*
X365599Y81767D01*
X364077Y82783D01*
X362783Y84077D01*
X361767Y85599D01*
X361066Y87290D01*
X360780Y88731D01*
X368731Y88731D01*
X368731Y80780D01*
X367290Y81066D01*
G37*
%LPD*%
%LPC*%
G36*
X48533Y8959D02*
X48533Y8959D01*
X46459Y11033D01*
X46459Y13967D01*
X48533Y16041D01*
X51467Y16041D01*
X53541Y13967D01*
X53541Y11033D01*
X51467Y8959D01*
X48533Y8959D01*
G37*
%LPD*%
%LPC*%
G36*
X-48967Y8959D02*
X-48967Y8959D01*
X-51041Y11033D01*
X-51041Y13967D01*
X-48967Y16041D01*
X-46033Y16041D01*
X-43959Y13967D01*
X-43959Y11033D01*
X-46033Y8959D01*
X-48967Y8959D01*
G37*
%LPD*%
%LPC*%
G36*
X231033Y3959D02*
X231033Y3959D01*
X228959Y6033D01*
X228959Y8967D01*
X231033Y11041D01*
X233967Y11041D01*
X236041Y8967D01*
X236041Y6033D01*
X233967Y3959D01*
X231033Y3959D01*
G37*
%LPD*%
%LPC*%
G36*
X-76467Y78959D02*
X-76467Y78959D01*
X-78541Y81033D01*
X-78541Y83967D01*
X-76467Y86041D01*
X-73533Y86041D01*
X-71459Y83967D01*
X-71459Y81033D01*
X-73533Y78959D01*
X-76467Y78959D01*
G37*
%LPD*%
%LPC*%
G36*
X-78967Y156459D02*
X-78967Y156459D01*
X-81041Y158533D01*
X-81041Y161467D01*
X-78967Y163541D01*
X-76033Y163541D01*
X-73959Y161467D01*
X-73959Y158533D01*
X-76033Y156459D01*
X-78967Y156459D01*
G37*
%LPD*%
%LPC*%
G36*
X28533Y143959D02*
X28533Y143959D01*
X26459Y146033D01*
X26459Y148967D01*
X28533Y151041D01*
X31467Y151041D01*
X33541Y148967D01*
X33541Y146033D01*
X31467Y143959D01*
X28533Y143959D01*
G37*
%LPD*%
%LPC*%
G36*
X-6467Y116459D02*
X-6467Y116459D01*
X-8541Y118533D01*
X-8541Y121467D01*
X-6467Y123541D01*
X-3533Y123541D01*
X-1459Y121467D01*
X-1459Y118533D01*
X-3533Y116459D01*
X-6467Y116459D01*
G37*
%LPD*%
%LPC*%
G36*
X98533Y-11041D02*
X98533Y-11041D01*
X96459Y-8967D01*
X96459Y-6033D01*
X98533Y-3959D01*
X101467Y-3959D01*
X103541Y-6033D01*
X103541Y-8967D01*
X101467Y-11041D01*
X98533Y-11041D01*
G37*
%LPD*%
%LPC*%
G36*
X321033Y-13541D02*
X321033Y-13541D01*
X318959Y-11467D01*
X318959Y-8533D01*
X321033Y-6459D01*
X323967Y-6459D01*
X326041Y-8533D01*
X326041Y-11467D01*
X323967Y-13541D01*
X321033Y-13541D01*
G37*
%LPD*%
%LPC*%
G36*
X261033Y113959D02*
X261033Y113959D01*
X258959Y116033D01*
X258959Y118967D01*
X261033Y121041D01*
X263967Y121041D01*
X266041Y118967D01*
X266041Y116033D01*
X263967Y113959D01*
X261033Y113959D01*
G37*
%LPD*%
%LPC*%
G36*
X321033Y-31041D02*
X321033Y-31041D01*
X318959Y-28967D01*
X318959Y-26033D01*
X321033Y-23959D01*
X323967Y-23959D01*
X326041Y-26033D01*
X326041Y-28967D01*
X323967Y-31041D01*
X321033Y-31041D01*
G37*
%LPD*%
%LPC*%
G36*
X-48967Y258959D02*
X-48967Y258959D01*
X-51041Y261033D01*
X-51041Y263967D01*
X-48967Y266041D01*
X-46033Y266041D01*
X-43959Y263967D01*
X-43959Y261033D01*
X-46033Y258959D01*
X-48967Y258959D01*
G37*
%LPD*%
%LPC*%
G36*
X173533Y28959D02*
X173533Y28959D01*
X171459Y31033D01*
X171459Y33967D01*
X173533Y36041D01*
X176467Y36041D01*
X178541Y33967D01*
X178541Y31033D01*
X176467Y28959D01*
X173533Y28959D01*
G37*
%LPD*%
%LPC*%
G36*
X-338967Y-51041D02*
X-338967Y-51041D01*
X-341041Y-48967D01*
X-341041Y-46033D01*
X-338967Y-43959D01*
X-336033Y-43959D01*
X-333959Y-46033D01*
X-333959Y-48967D01*
X-336033Y-51041D01*
X-338967Y-51041D01*
G37*
%LPD*%
%LPC*%
G36*
X-48967Y248959D02*
X-48967Y248959D01*
X-51041Y251033D01*
X-51041Y253967D01*
X-48967Y256041D01*
X-46033Y256041D01*
X-43959Y253967D01*
X-43959Y251033D01*
X-46033Y248959D01*
X-48967Y248959D01*
G37*
%LPD*%
%LPC*%
G36*
X-18967Y108959D02*
X-18967Y108959D01*
X-21041Y111033D01*
X-21041Y113967D01*
X-18967Y116041D01*
X-16033Y116041D01*
X-13959Y113967D01*
X-13959Y111033D01*
X-16033Y108959D01*
X-18967Y108959D01*
G37*
%LPD*%
%LPC*%
G36*
X271033Y108959D02*
X271033Y108959D01*
X268959Y111033D01*
X268959Y113967D01*
X271033Y116041D01*
X273967Y116041D01*
X276041Y113967D01*
X276041Y111033D01*
X273967Y108959D01*
X271033Y108959D01*
G37*
%LPD*%
%LPC*%
G36*
X-336467Y-68541D02*
X-336467Y-68541D01*
X-338541Y-66467D01*
X-338541Y-63533D01*
X-336467Y-61459D01*
X-333533Y-61459D01*
X-331459Y-63533D01*
X-331459Y-66467D01*
X-333533Y-68541D01*
X-336467Y-68541D01*
G37*
%LPD*%
%LPC*%
G36*
X303533Y-251041D02*
X303533Y-251041D01*
X301459Y-248967D01*
X301459Y-246033D01*
X303533Y-243959D01*
X306467Y-243959D01*
X308541Y-246033D01*
X308541Y-248967D01*
X306467Y-251041D01*
X303533Y-251041D01*
G37*
%LPD*%
%LPC*%
G36*
X23533Y106459D02*
X23533Y106459D01*
X21459Y108533D01*
X21459Y111467D01*
X23533Y113541D01*
X26467Y113541D01*
X28541Y111467D01*
X28541Y108533D01*
X26467Y106459D01*
X23533Y106459D01*
G37*
%LPD*%
%LPC*%
G36*
X-291467Y-201041D02*
X-291467Y-201041D01*
X-293541Y-198967D01*
X-293541Y-196033D01*
X-291467Y-193959D01*
X-288533Y-193959D01*
X-286459Y-196033D01*
X-286459Y-198967D01*
X-288533Y-201041D01*
X-291467Y-201041D01*
G37*
%LPD*%
%LPC*%
G36*
X43533Y-88541D02*
X43533Y-88541D01*
X41459Y-86467D01*
X41459Y-83533D01*
X43533Y-81459D01*
X46467Y-81459D01*
X48541Y-83533D01*
X48541Y-86467D01*
X46467Y-88541D01*
X43533Y-88541D01*
G37*
%LPD*%
%LPC*%
G36*
X-18967Y36459D02*
X-18967Y36459D01*
X-21041Y38533D01*
X-21041Y41467D01*
X-18967Y43541D01*
X-16033Y43541D01*
X-13959Y41467D01*
X-13959Y38533D01*
X-16033Y36459D01*
X-18967Y36459D01*
G37*
%LPD*%
%LPC*%
G36*
X-356467Y208959D02*
X-356467Y208959D01*
X-358541Y211033D01*
X-358541Y213967D01*
X-356467Y216041D01*
X-353533Y216041D01*
X-351459Y213967D01*
X-351459Y211033D01*
X-353533Y208959D01*
X-356467Y208959D01*
G37*
%LPD*%
%LPC*%
G36*
X-113967Y186459D02*
X-113967Y186459D01*
X-116041Y188533D01*
X-116041Y191467D01*
X-113967Y193541D01*
X-111033Y193541D01*
X-108959Y191467D01*
X-108959Y188533D01*
X-111033Y186459D01*
X-113967Y186459D01*
G37*
%LPD*%
%LPC*%
G36*
X-291467Y-173541D02*
X-291467Y-173541D01*
X-293541Y-171467D01*
X-293541Y-168533D01*
X-291467Y-166459D01*
X-288533Y-166459D01*
X-286459Y-168533D01*
X-286459Y-171467D01*
X-288533Y-173541D01*
X-291467Y-173541D01*
G37*
%LPD*%
%LPC*%
G36*
X253533Y128959D02*
X253533Y128959D01*
X251459Y131033D01*
X251459Y133967D01*
X253533Y136041D01*
X256467Y136041D01*
X258541Y133967D01*
X258541Y131033D01*
X256467Y128959D01*
X253533Y128959D01*
G37*
%LPD*%
%LPC*%
G36*
X-196467Y146459D02*
X-196467Y146459D01*
X-198541Y148533D01*
X-198541Y151467D01*
X-196467Y153541D01*
X-193533Y153541D01*
X-191459Y151467D01*
X-191459Y148533D01*
X-193533Y146459D01*
X-196467Y146459D01*
G37*
%LPD*%
%LPC*%
G36*
X-23967Y98959D02*
X-23967Y98959D01*
X-26041Y101033D01*
X-26041Y103967D01*
X-23967Y106041D01*
X-21033Y106041D01*
X-18959Y103967D01*
X-18959Y101033D01*
X-21033Y98959D01*
X-23967Y98959D01*
G37*
%LPD*%
%LPC*%
G36*
X-63967Y123959D02*
X-63967Y123959D01*
X-66041Y126033D01*
X-66041Y128967D01*
X-63967Y131041D01*
X-61033Y131041D01*
X-58959Y128967D01*
X-58959Y126033D01*
X-61033Y123959D01*
X-63967Y123959D01*
G37*
%LPD*%
%LPC*%
G36*
X271033Y98959D02*
X271033Y98959D01*
X268959Y101033D01*
X268959Y103967D01*
X271033Y106041D01*
X273967Y106041D01*
X276041Y103967D01*
X276041Y101033D01*
X273967Y98959D01*
X271033Y98959D01*
G37*
%LPD*%
%LPC*%
G36*
X-41467Y-111041D02*
X-41467Y-111041D01*
X-43541Y-108967D01*
X-43541Y-106033D01*
X-41467Y-103959D01*
X-38533Y-103959D01*
X-36459Y-106033D01*
X-36459Y-108967D01*
X-38533Y-111041D01*
X-41467Y-111041D01*
G37*
%LPD*%
%LPC*%
G36*
X33533Y98959D02*
X33533Y98959D01*
X31459Y101033D01*
X31459Y103967D01*
X33533Y106041D01*
X36467Y106041D01*
X38541Y103967D01*
X38541Y101033D01*
X36467Y98959D01*
X33533Y98959D01*
G37*
%LPD*%
%LPC*%
G36*
X1033Y123959D02*
X1033Y123959D01*
X-1041Y126033D01*
X-1041Y128967D01*
X1033Y131041D01*
X3967Y131041D01*
X6041Y128967D01*
X6041Y126033D01*
X3967Y123959D01*
X1033Y123959D01*
G37*
%LPD*%
%LPC*%
G36*
X-291256Y96967D02*
X-291256Y96967D01*
X-293033Y98744D01*
X-293033Y101256D01*
X-291256Y103033D01*
X-288744Y103033D01*
X-286967Y101256D01*
X-286967Y98744D01*
X-288744Y96967D01*
X-291256Y96967D01*
G37*
%LPD*%
%LPC*%
G36*
X-271256Y86967D02*
X-271256Y86967D01*
X-273033Y88744D01*
X-273033Y91256D01*
X-271256Y93033D01*
X-268744Y93033D01*
X-266967Y91256D01*
X-266967Y88744D01*
X-268744Y86967D01*
X-271256Y86967D01*
G37*
%LPD*%
%LPC*%
G36*
X-231256Y96967D02*
X-231256Y96967D01*
X-233033Y98744D01*
X-233033Y101256D01*
X-231256Y103033D01*
X-228744Y103033D01*
X-226967Y101256D01*
X-226967Y98744D01*
X-228744Y96967D01*
X-231256Y96967D01*
G37*
%LPD*%
%LPC*%
G36*
X-251256Y86967D02*
X-251256Y86967D01*
X-253033Y88744D01*
X-253033Y91256D01*
X-251256Y93033D01*
X-248744Y93033D01*
X-246967Y91256D01*
X-246967Y88744D01*
X-248744Y86967D01*
X-251256Y86967D01*
G37*
%LPD*%
%LPC*%
G36*
X-211256Y86967D02*
X-211256Y86967D01*
X-213033Y88744D01*
X-213033Y91256D01*
X-211256Y93033D01*
X-208744Y93033D01*
X-206967Y91256D01*
X-206967Y88744D01*
X-208744Y86967D01*
X-211256Y86967D01*
G37*
%LPD*%
%LPC*%
G36*
X-221256Y86967D02*
X-221256Y86967D01*
X-223033Y88744D01*
X-223033Y91256D01*
X-221256Y93033D01*
X-218744Y93033D01*
X-216967Y91256D01*
X-216967Y88744D01*
X-218744Y86967D01*
X-221256Y86967D01*
G37*
%LPD*%
%LPC*%
G36*
X-311256Y86967D02*
X-311256Y86967D01*
X-313033Y88744D01*
X-313033Y91256D01*
X-311256Y93033D01*
X-308744Y93033D01*
X-306967Y91256D01*
X-306967Y88744D01*
X-308744Y86967D01*
X-311256Y86967D01*
G37*
%LPD*%
%LPC*%
G36*
X-231256Y86967D02*
X-231256Y86967D01*
X-233033Y88744D01*
X-233033Y91256D01*
X-231256Y93033D01*
X-228744Y93033D01*
X-226967Y91256D01*
X-226967Y88744D01*
X-228744Y86967D01*
X-231256Y86967D01*
G37*
%LPD*%
%LPC*%
G36*
X-291256Y106967D02*
X-291256Y106967D01*
X-293033Y108744D01*
X-293033Y111256D01*
X-291256Y113033D01*
X-288744Y113033D01*
X-286967Y111256D01*
X-286967Y108744D01*
X-288744Y106967D01*
X-291256Y106967D01*
G37*
%LPD*%
%LPC*%
G36*
X-241256Y86967D02*
X-241256Y86967D01*
X-243033Y88744D01*
X-243033Y91256D01*
X-241256Y93033D01*
X-238744Y93033D01*
X-236967Y91256D01*
X-236967Y88744D01*
X-238744Y86967D01*
X-241256Y86967D01*
G37*
%LPD*%
%LPC*%
G36*
X-231256Y106967D02*
X-231256Y106967D01*
X-233033Y108744D01*
X-233033Y111256D01*
X-231256Y113033D01*
X-228744Y113033D01*
X-226967Y111256D01*
X-226967Y108744D01*
X-228744Y106967D01*
X-231256Y106967D01*
G37*
%LPD*%
%LPC*%
G36*
X-301256Y86967D02*
X-301256Y86967D01*
X-303033Y88744D01*
X-303033Y91256D01*
X-301256Y93033D01*
X-298744Y93033D01*
X-296967Y91256D01*
X-296967Y88744D01*
X-298744Y86967D01*
X-301256Y86967D01*
G37*
%LPD*%
%LPC*%
G36*
X-281256Y86967D02*
X-281256Y86967D01*
X-283033Y88744D01*
X-283033Y91256D01*
X-281256Y93033D01*
X-278744Y93033D01*
X-276967Y91256D01*
X-276967Y88744D01*
X-278744Y86967D01*
X-281256Y86967D01*
G37*
%LPD*%
%LPC*%
G36*
X-291256Y86967D02*
X-291256Y86967D01*
X-293033Y88744D01*
X-293033Y91256D01*
X-291256Y93033D01*
X-288744Y93033D01*
X-286967Y91256D01*
X-286967Y88744D01*
X-288744Y86967D01*
X-291256Y86967D01*
G37*
%LPD*%
%LPC*%
G36*
X24999Y-120001D02*
X24999Y-120001D01*
X24999Y-119999D01*
X25001Y-119999D01*
X25001Y-120001D01*
X24999Y-120001D01*
G37*
%LPD*%
%LPC*%
G36*
X-370001Y109499D02*
X-370001Y109499D01*
X-370001Y109501D01*
X-369999Y109501D01*
X-369999Y109499D01*
X-370001Y109499D01*
G37*
%LPD*%
%LPC*%
G36*
X369999Y89999D02*
X369999Y89999D01*
X369999Y90001D01*
X370001Y90001D01*
X370001Y89999D01*
X369999Y89999D01*
G37*
%LPD*%
%LPC*%
G36*
X369999Y29999D02*
X369999Y29999D01*
X369999Y30001D01*
X370001Y30001D01*
X370001Y29999D01*
X369999Y29999D01*
G37*
%LPD*%
%LPC*%
G36*
X-370001Y169499D02*
X-370001Y169499D01*
X-370001Y169501D01*
X-369999Y169501D01*
X-369999Y169499D01*
X-370001Y169499D01*
G37*
%LPD*%
%LPC*%
G36*
X-200001Y-95001D02*
X-200001Y-95001D01*
X-200001Y-94999D01*
X-199999Y-94999D01*
X-199999Y-95001D01*
X-200001Y-95001D01*
G37*
%LPD*%
%LPC*%
G36*
X-1Y-265001D02*
X-1Y-265001D01*
X-1Y-264999D01*
X1Y-264999D01*
X1Y-265001D01*
X-1Y-265001D01*
G37*
%LPD*%
D10*
X-290000Y90000D03*
X-290000Y100000D03*
X-230000Y90000D03*
X-240000Y50000D03*
X-250000Y40000D03*
X-260000Y50000D03*
X-270000Y90000D03*
X-310000Y90000D03*
X-280000Y90000D03*
X-290000Y110000D03*
X-300000Y90000D03*
X-230000Y100000D03*
X-220000Y90000D03*
X-210000Y90000D03*
X-250000Y90000D03*
X-230000Y110000D03*
X-240000Y90000D03*
X-290000Y50000D03*
X-245000Y50000D03*
X-290000Y40000D03*
X-260000Y40000D03*
X-240000Y40000D03*
D11*
X-370000Y209500D03*
X-370000Y29500D03*
X-370000Y9500D03*
X-370000Y-10500D03*
X-370000Y169500D03*
X-370000Y149500D03*
X-370000Y109500D03*
X-370000Y89500D03*
X-370000Y69500D03*
X-370000Y49500D03*
X-370000Y129500D03*
X-370000Y189500D03*
X370000Y-10000D03*
X370000Y170000D03*
X370000Y190000D03*
X370000Y210000D03*
X370000Y30000D03*
X370000Y50000D03*
X370000Y90000D03*
X370000Y110000D03*
X370000Y130000D03*
X370000Y150000D03*
X370000Y70000D03*
X370000Y10000D03*
D12*
X-155000Y-95000D03*
X-245000Y-95000D03*
X-110000Y-95000D03*
X-200000Y-95000D03*
D13*
X-25000Y-265000D03*
X25000Y-265000D03*
X-25000Y-120000D03*
X25000Y-120000D03*
X0Y-265000D03*
D10*
X120000Y190000D03*
D14*
X12700Y-63650D03*
X-12700Y-63650D03*
D10*
X215000Y280000D03*
X205000Y280000D03*
D15*
X-114388Y-527282D02*
X-114388Y-539022D01*
X-114389Y-539022D02*
X-114387Y-539155D01*
X-114381Y-539287D01*
X-114371Y-539419D01*
X-114358Y-539551D01*
X-114340Y-539683D01*
X-114319Y-539813D01*
X-114294Y-539944D01*
X-114265Y-540073D01*
X-114232Y-540201D01*
X-114196Y-540329D01*
X-114156Y-540455D01*
X-114112Y-540580D01*
X-114064Y-540704D01*
X-114013Y-540826D01*
X-113958Y-540947D01*
X-113900Y-541066D01*
X-113838Y-541184D01*
X-113773Y-541299D01*
X-113704Y-541413D01*
X-113633Y-541524D01*
X-113557Y-541633D01*
X-113479Y-541740D01*
X-113398Y-541845D01*
X-113313Y-541947D01*
X-113226Y-542047D01*
X-113136Y-542144D01*
X-113043Y-542239D01*
X-112947Y-542330D01*
X-112849Y-542419D01*
X-112748Y-542505D01*
X-112644Y-542588D01*
X-112538Y-542668D01*
X-112430Y-542744D01*
X-112320Y-542818D01*
X-112207Y-542888D01*
X-112093Y-542955D01*
X-111976Y-543018D01*
X-111858Y-543078D01*
X-111738Y-543135D01*
X-111616Y-543188D01*
X-111493Y-543237D01*
X-111369Y-543283D01*
X-111243Y-543325D01*
X-111116Y-543363D01*
X-110988Y-543398D01*
X-110859Y-543429D01*
X-110730Y-543456D01*
X-110599Y-543479D01*
X-110468Y-543499D01*
X-110336Y-543514D01*
X-110204Y-543526D01*
X-110072Y-543534D01*
X-109939Y-543538D01*
X-109807Y-543538D01*
X-109674Y-543534D01*
X-109542Y-543526D01*
X-109410Y-543514D01*
X-109278Y-543499D01*
X-109147Y-543479D01*
X-109016Y-543456D01*
X-108887Y-543429D01*
X-108758Y-543398D01*
X-108630Y-543363D01*
X-108503Y-543325D01*
X-108377Y-543283D01*
X-108253Y-543237D01*
X-108130Y-543188D01*
X-108008Y-543135D01*
X-107888Y-543078D01*
X-107770Y-543018D01*
X-107653Y-542955D01*
X-107539Y-542888D01*
X-107426Y-542818D01*
X-107316Y-542744D01*
X-107208Y-542668D01*
X-107102Y-542588D01*
X-106998Y-542505D01*
X-106897Y-542419D01*
X-106799Y-542330D01*
X-106703Y-542239D01*
X-106610Y-542144D01*
X-106520Y-542047D01*
X-106433Y-541947D01*
X-106348Y-541845D01*
X-106267Y-541740D01*
X-106189Y-541633D01*
X-106113Y-541524D01*
X-106042Y-541413D01*
X-105973Y-541299D01*
X-105908Y-541184D01*
X-105846Y-541066D01*
X-105788Y-540947D01*
X-105733Y-540826D01*
X-105682Y-540704D01*
X-105634Y-540580D01*
X-105590Y-540455D01*
X-105550Y-540329D01*
X-105514Y-540201D01*
X-105481Y-540073D01*
X-105452Y-539944D01*
X-105427Y-539813D01*
X-105406Y-539683D01*
X-105388Y-539551D01*
X-105375Y-539419D01*
X-105365Y-539287D01*
X-105359Y-539155D01*
X-105357Y-539022D01*
X-105357Y-527282D01*
X-97780Y-532701D02*
X-97780Y-548957D01*
X-97780Y-532701D02*
X-93265Y-532701D01*
X-93161Y-532703D01*
X-93058Y-532709D01*
X-92954Y-532719D01*
X-92851Y-532733D01*
X-92749Y-532751D01*
X-92648Y-532772D01*
X-92547Y-532798D01*
X-92448Y-532827D01*
X-92349Y-532860D01*
X-92252Y-532897D01*
X-92157Y-532938D01*
X-92063Y-532982D01*
X-91971Y-533030D01*
X-91881Y-533081D01*
X-91792Y-533136D01*
X-91706Y-533194D01*
X-91623Y-533256D01*
X-91541Y-533320D01*
X-91463Y-533388D01*
X-91387Y-533458D01*
X-91313Y-533531D01*
X-91243Y-533608D01*
X-91175Y-533686D01*
X-91111Y-533768D01*
X-91049Y-533851D01*
X-90991Y-533937D01*
X-90936Y-534026D01*
X-90885Y-534116D01*
X-90837Y-534208D01*
X-90793Y-534302D01*
X-90752Y-534397D01*
X-90715Y-534494D01*
X-90682Y-534593D01*
X-90653Y-534692D01*
X-90627Y-534793D01*
X-90606Y-534894D01*
X-90588Y-534996D01*
X-90574Y-535099D01*
X-90564Y-535203D01*
X-90558Y-535306D01*
X-90556Y-535410D01*
X-90556Y-540829D01*
X-90558Y-540930D01*
X-90564Y-541031D01*
X-90573Y-541132D01*
X-90586Y-541233D01*
X-90603Y-541333D01*
X-90624Y-541432D01*
X-90648Y-541530D01*
X-90676Y-541627D01*
X-90708Y-541724D01*
X-90743Y-541819D01*
X-90782Y-541912D01*
X-90824Y-542004D01*
X-90870Y-542095D01*
X-90919Y-542184D01*
X-90971Y-542270D01*
X-91027Y-542355D01*
X-91085Y-542438D01*
X-91147Y-542518D01*
X-91212Y-542596D01*
X-91279Y-542672D01*
X-91349Y-542745D01*
X-91422Y-542815D01*
X-91498Y-542882D01*
X-91576Y-542947D01*
X-91656Y-543009D01*
X-91739Y-543067D01*
X-91824Y-543123D01*
X-91911Y-543175D01*
X-91999Y-543224D01*
X-92090Y-543270D01*
X-92182Y-543312D01*
X-92275Y-543351D01*
X-92370Y-543386D01*
X-92467Y-543418D01*
X-92564Y-543446D01*
X-92662Y-543470D01*
X-92761Y-543491D01*
X-92861Y-543508D01*
X-92962Y-543521D01*
X-93063Y-543530D01*
X-93164Y-543536D01*
X-93265Y-543538D01*
X-97780Y-543538D01*
X-83712Y-548957D02*
X-83712Y-532701D01*
X-79197Y-532701D01*
X-79093Y-532703D01*
X-78990Y-532709D01*
X-78886Y-532719D01*
X-78783Y-532733D01*
X-78681Y-532751D01*
X-78580Y-532772D01*
X-78479Y-532798D01*
X-78380Y-532827D01*
X-78281Y-532860D01*
X-78184Y-532897D01*
X-78089Y-532938D01*
X-77995Y-532982D01*
X-77903Y-533030D01*
X-77813Y-533081D01*
X-77724Y-533136D01*
X-77638Y-533194D01*
X-77555Y-533256D01*
X-77473Y-533320D01*
X-77395Y-533388D01*
X-77319Y-533458D01*
X-77245Y-533531D01*
X-77175Y-533608D01*
X-77107Y-533686D01*
X-77043Y-533768D01*
X-76981Y-533851D01*
X-76923Y-533937D01*
X-76868Y-534026D01*
X-76817Y-534116D01*
X-76769Y-534208D01*
X-76725Y-534302D01*
X-76684Y-534397D01*
X-76647Y-534494D01*
X-76614Y-534593D01*
X-76585Y-534692D01*
X-76559Y-534793D01*
X-76538Y-534894D01*
X-76520Y-534996D01*
X-76506Y-535099D01*
X-76496Y-535203D01*
X-76490Y-535306D01*
X-76488Y-535410D01*
X-76487Y-535410D02*
X-76487Y-540829D01*
X-76488Y-540829D02*
X-76490Y-540930D01*
X-76496Y-541031D01*
X-76505Y-541132D01*
X-76518Y-541233D01*
X-76535Y-541333D01*
X-76556Y-541432D01*
X-76580Y-541530D01*
X-76608Y-541627D01*
X-76640Y-541724D01*
X-76675Y-541819D01*
X-76714Y-541912D01*
X-76756Y-542004D01*
X-76802Y-542095D01*
X-76851Y-542184D01*
X-76903Y-542270D01*
X-76959Y-542355D01*
X-77017Y-542438D01*
X-77079Y-542518D01*
X-77144Y-542596D01*
X-77211Y-542672D01*
X-77281Y-542745D01*
X-77354Y-542815D01*
X-77430Y-542882D01*
X-77508Y-542947D01*
X-77588Y-543009D01*
X-77671Y-543067D01*
X-77756Y-543123D01*
X-77843Y-543175D01*
X-77931Y-543224D01*
X-78022Y-543270D01*
X-78114Y-543312D01*
X-78207Y-543351D01*
X-78302Y-543386D01*
X-78399Y-543418D01*
X-78496Y-543446D01*
X-78594Y-543470D01*
X-78693Y-543491D01*
X-78793Y-543508D01*
X-78894Y-543521D01*
X-78995Y-543530D01*
X-79096Y-543536D01*
X-79197Y-543538D01*
X-83712Y-543538D01*
X-67529Y-543538D02*
X-63014Y-543538D01*
X-67529Y-543538D02*
X-67630Y-543536D01*
X-67731Y-543530D01*
X-67832Y-543521D01*
X-67933Y-543508D01*
X-68033Y-543491D01*
X-68132Y-543470D01*
X-68230Y-543446D01*
X-68327Y-543418D01*
X-68424Y-543386D01*
X-68519Y-543351D01*
X-68612Y-543312D01*
X-68704Y-543270D01*
X-68795Y-543224D01*
X-68884Y-543175D01*
X-68970Y-543123D01*
X-69055Y-543067D01*
X-69138Y-543009D01*
X-69218Y-542947D01*
X-69296Y-542882D01*
X-69372Y-542815D01*
X-69445Y-542745D01*
X-69515Y-542672D01*
X-69582Y-542596D01*
X-69647Y-542518D01*
X-69709Y-542438D01*
X-69767Y-542355D01*
X-69823Y-542270D01*
X-69875Y-542184D01*
X-69924Y-542095D01*
X-69970Y-542004D01*
X-70012Y-541912D01*
X-70051Y-541819D01*
X-70086Y-541724D01*
X-70118Y-541627D01*
X-70146Y-541530D01*
X-70170Y-541432D01*
X-70191Y-541333D01*
X-70208Y-541233D01*
X-70221Y-541132D01*
X-70230Y-541031D01*
X-70236Y-540930D01*
X-70238Y-540829D01*
X-70239Y-540829D02*
X-70239Y-536313D01*
X-70238Y-536313D02*
X-70236Y-536194D01*
X-70230Y-536074D01*
X-70220Y-535955D01*
X-70206Y-535837D01*
X-70189Y-535718D01*
X-70167Y-535601D01*
X-70142Y-535484D01*
X-70112Y-535369D01*
X-70079Y-535254D01*
X-70042Y-535140D01*
X-70002Y-535028D01*
X-69957Y-534917D01*
X-69909Y-534808D01*
X-69858Y-534700D01*
X-69803Y-534594D01*
X-69744Y-534490D01*
X-69682Y-534388D01*
X-69617Y-534288D01*
X-69548Y-534190D01*
X-69476Y-534094D01*
X-69401Y-534001D01*
X-69324Y-533911D01*
X-69243Y-533823D01*
X-69159Y-533738D01*
X-69072Y-533656D01*
X-68983Y-533576D01*
X-68891Y-533500D01*
X-68797Y-533426D01*
X-68700Y-533356D01*
X-68602Y-533289D01*
X-68501Y-533225D01*
X-68397Y-533165D01*
X-68292Y-533108D01*
X-68185Y-533055D01*
X-68077Y-533005D01*
X-67967Y-532959D01*
X-67855Y-532917D01*
X-67742Y-532878D01*
X-67628Y-532843D01*
X-67513Y-532812D01*
X-67396Y-532784D01*
X-67279Y-532761D01*
X-67162Y-532741D01*
X-67043Y-532725D01*
X-66924Y-532713D01*
X-66805Y-532705D01*
X-66686Y-532701D01*
X-66566Y-532701D01*
X-66447Y-532705D01*
X-66328Y-532713D01*
X-66209Y-532725D01*
X-66090Y-532741D01*
X-65973Y-532761D01*
X-65856Y-532784D01*
X-65739Y-532812D01*
X-65624Y-532843D01*
X-65510Y-532878D01*
X-65397Y-532917D01*
X-65285Y-532959D01*
X-65175Y-533005D01*
X-65067Y-533055D01*
X-64960Y-533108D01*
X-64855Y-533165D01*
X-64751Y-533225D01*
X-64650Y-533289D01*
X-64552Y-533356D01*
X-64455Y-533426D01*
X-64361Y-533500D01*
X-64269Y-533576D01*
X-64180Y-533656D01*
X-64093Y-533738D01*
X-64009Y-533823D01*
X-63928Y-533911D01*
X-63851Y-534001D01*
X-63776Y-534094D01*
X-63704Y-534190D01*
X-63635Y-534288D01*
X-63570Y-534388D01*
X-63508Y-534490D01*
X-63449Y-534594D01*
X-63394Y-534700D01*
X-63343Y-534808D01*
X-63295Y-534917D01*
X-63250Y-535028D01*
X-63210Y-535140D01*
X-63173Y-535254D01*
X-63140Y-535369D01*
X-63110Y-535484D01*
X-63085Y-535601D01*
X-63063Y-535718D01*
X-63046Y-535837D01*
X-63032Y-535955D01*
X-63022Y-536074D01*
X-63016Y-536194D01*
X-63014Y-536313D01*
X-63014Y-538119D01*
X-70239Y-538119D01*
X-56086Y-543538D02*
X-56086Y-532701D01*
X-50667Y-532701D01*
X-50667Y-534507D01*
X-35885Y-527282D02*
X-35885Y-543538D01*
X-37691Y-543538D02*
X-34079Y-543538D01*
X-34079Y-527282D02*
X-37691Y-527282D01*
X-27513Y-532701D02*
X-27513Y-543538D01*
X-27513Y-532701D02*
X-22998Y-532701D01*
X-22894Y-532703D01*
X-22791Y-532709D01*
X-22687Y-532719D01*
X-22584Y-532733D01*
X-22482Y-532751D01*
X-22381Y-532772D01*
X-22280Y-532798D01*
X-22181Y-532827D01*
X-22082Y-532860D01*
X-21985Y-532897D01*
X-21890Y-532938D01*
X-21796Y-532982D01*
X-21704Y-533030D01*
X-21614Y-533081D01*
X-21525Y-533136D01*
X-21439Y-533194D01*
X-21356Y-533256D01*
X-21274Y-533320D01*
X-21196Y-533388D01*
X-21120Y-533458D01*
X-21046Y-533531D01*
X-20976Y-533608D01*
X-20908Y-533686D01*
X-20844Y-533768D01*
X-20782Y-533851D01*
X-20724Y-533937D01*
X-20669Y-534026D01*
X-20618Y-534116D01*
X-20570Y-534208D01*
X-20526Y-534302D01*
X-20485Y-534397D01*
X-20448Y-534494D01*
X-20415Y-534593D01*
X-20386Y-534692D01*
X-20360Y-534793D01*
X-20339Y-534894D01*
X-20321Y-534996D01*
X-20307Y-535099D01*
X-20297Y-535203D01*
X-20291Y-535306D01*
X-20289Y-535410D01*
X-20288Y-535410D02*
X-20288Y-543538D01*
X-12924Y-543538D02*
X-12924Y-532701D01*
X-8409Y-532701D01*
X-8305Y-532703D01*
X-8202Y-532709D01*
X-8098Y-532719D01*
X-7995Y-532733D01*
X-7893Y-532751D01*
X-7792Y-532772D01*
X-7691Y-532798D01*
X-7592Y-532827D01*
X-7493Y-532860D01*
X-7396Y-532897D01*
X-7301Y-532938D01*
X-7207Y-532982D01*
X-7115Y-533030D01*
X-7025Y-533081D01*
X-6936Y-533136D01*
X-6850Y-533194D01*
X-6767Y-533256D01*
X-6685Y-533320D01*
X-6607Y-533388D01*
X-6531Y-533458D01*
X-6457Y-533531D01*
X-6387Y-533608D01*
X-6319Y-533686D01*
X-6255Y-533768D01*
X-6193Y-533851D01*
X-6135Y-533937D01*
X-6080Y-534026D01*
X-6029Y-534116D01*
X-5981Y-534208D01*
X-5937Y-534302D01*
X-5896Y-534397D01*
X-5859Y-534494D01*
X-5826Y-534593D01*
X-5797Y-534692D01*
X-5771Y-534793D01*
X-5750Y-534894D01*
X-5732Y-534996D01*
X-5718Y-535099D01*
X-5708Y-535203D01*
X-5702Y-535306D01*
X-5700Y-535410D01*
X-5699Y-535410D02*
X-5699Y-543538D01*
X3853Y-543538D02*
X8369Y-543538D01*
X3853Y-543538D02*
X3752Y-543536D01*
X3651Y-543530D01*
X3550Y-543521D01*
X3449Y-543508D01*
X3349Y-543491D01*
X3250Y-543470D01*
X3152Y-543446D01*
X3055Y-543418D01*
X2958Y-543386D01*
X2863Y-543351D01*
X2770Y-543312D01*
X2678Y-543270D01*
X2587Y-543224D01*
X2499Y-543175D01*
X2412Y-543123D01*
X2327Y-543067D01*
X2244Y-543009D01*
X2164Y-542947D01*
X2086Y-542882D01*
X2010Y-542815D01*
X1937Y-542745D01*
X1867Y-542672D01*
X1800Y-542596D01*
X1735Y-542518D01*
X1673Y-542438D01*
X1615Y-542355D01*
X1559Y-542270D01*
X1507Y-542184D01*
X1458Y-542095D01*
X1412Y-542004D01*
X1370Y-541912D01*
X1331Y-541819D01*
X1296Y-541724D01*
X1264Y-541627D01*
X1236Y-541530D01*
X1212Y-541432D01*
X1191Y-541333D01*
X1174Y-541233D01*
X1161Y-541132D01*
X1152Y-541031D01*
X1146Y-540930D01*
X1144Y-540829D01*
X1144Y-536313D01*
X1146Y-536194D01*
X1152Y-536074D01*
X1162Y-535955D01*
X1176Y-535837D01*
X1193Y-535718D01*
X1215Y-535601D01*
X1240Y-535484D01*
X1270Y-535369D01*
X1303Y-535254D01*
X1340Y-535140D01*
X1380Y-535028D01*
X1425Y-534917D01*
X1473Y-534808D01*
X1524Y-534700D01*
X1579Y-534594D01*
X1638Y-534490D01*
X1700Y-534388D01*
X1765Y-534288D01*
X1834Y-534190D01*
X1906Y-534094D01*
X1981Y-534001D01*
X2058Y-533911D01*
X2139Y-533823D01*
X2223Y-533738D01*
X2310Y-533656D01*
X2399Y-533576D01*
X2491Y-533500D01*
X2585Y-533426D01*
X2682Y-533356D01*
X2780Y-533289D01*
X2881Y-533225D01*
X2985Y-533165D01*
X3090Y-533108D01*
X3197Y-533055D01*
X3305Y-533005D01*
X3415Y-532959D01*
X3527Y-532917D01*
X3640Y-532878D01*
X3754Y-532843D01*
X3869Y-532812D01*
X3986Y-532784D01*
X4103Y-532761D01*
X4220Y-532741D01*
X4339Y-532725D01*
X4458Y-532713D01*
X4577Y-532705D01*
X4696Y-532701D01*
X4816Y-532701D01*
X4935Y-532705D01*
X5054Y-532713D01*
X5173Y-532725D01*
X5292Y-532741D01*
X5409Y-532761D01*
X5526Y-532784D01*
X5643Y-532812D01*
X5758Y-532843D01*
X5872Y-532878D01*
X5985Y-532917D01*
X6097Y-532959D01*
X6207Y-533005D01*
X6315Y-533055D01*
X6422Y-533108D01*
X6527Y-533165D01*
X6631Y-533225D01*
X6732Y-533289D01*
X6830Y-533356D01*
X6927Y-533426D01*
X7021Y-533500D01*
X7113Y-533576D01*
X7202Y-533656D01*
X7289Y-533738D01*
X7373Y-533823D01*
X7454Y-533911D01*
X7531Y-534001D01*
X7606Y-534094D01*
X7678Y-534190D01*
X7747Y-534288D01*
X7812Y-534388D01*
X7874Y-534490D01*
X7933Y-534594D01*
X7988Y-534700D01*
X8039Y-534808D01*
X8087Y-534917D01*
X8132Y-535028D01*
X8172Y-535140D01*
X8209Y-535254D01*
X8242Y-535369D01*
X8272Y-535484D01*
X8297Y-535601D01*
X8319Y-535718D01*
X8336Y-535837D01*
X8350Y-535955D01*
X8360Y-536074D01*
X8366Y-536194D01*
X8368Y-536313D01*
X8369Y-536313D02*
X8369Y-538119D01*
X1144Y-538119D01*
X15297Y-543538D02*
X15297Y-532701D01*
X20716Y-532701D01*
X20716Y-534507D01*
X34768Y-527282D02*
X34768Y-543538D01*
X40187Y-536313D02*
X34768Y-527282D01*
X40187Y-536313D02*
X45606Y-527282D01*
X45606Y-543538D01*
X55436Y-543538D02*
X59952Y-543538D01*
X55436Y-543538D02*
X55335Y-543536D01*
X55234Y-543530D01*
X55133Y-543521D01*
X55032Y-543508D01*
X54932Y-543491D01*
X54833Y-543470D01*
X54735Y-543446D01*
X54638Y-543418D01*
X54541Y-543386D01*
X54446Y-543351D01*
X54353Y-543312D01*
X54261Y-543270D01*
X54170Y-543224D01*
X54082Y-543175D01*
X53995Y-543123D01*
X53910Y-543067D01*
X53827Y-543009D01*
X53747Y-542947D01*
X53669Y-542882D01*
X53593Y-542815D01*
X53520Y-542745D01*
X53450Y-542672D01*
X53383Y-542596D01*
X53318Y-542518D01*
X53256Y-542438D01*
X53198Y-542355D01*
X53142Y-542270D01*
X53090Y-542184D01*
X53041Y-542095D01*
X52995Y-542004D01*
X52953Y-541912D01*
X52914Y-541819D01*
X52879Y-541724D01*
X52847Y-541627D01*
X52819Y-541530D01*
X52795Y-541432D01*
X52774Y-541333D01*
X52757Y-541233D01*
X52744Y-541132D01*
X52735Y-541031D01*
X52729Y-540930D01*
X52727Y-540829D01*
X52727Y-536313D01*
X52729Y-536194D01*
X52735Y-536074D01*
X52745Y-535955D01*
X52759Y-535837D01*
X52776Y-535718D01*
X52798Y-535601D01*
X52823Y-535484D01*
X52853Y-535369D01*
X52886Y-535254D01*
X52923Y-535140D01*
X52963Y-535028D01*
X53008Y-534917D01*
X53056Y-534808D01*
X53107Y-534700D01*
X53162Y-534594D01*
X53221Y-534490D01*
X53283Y-534388D01*
X53348Y-534288D01*
X53417Y-534190D01*
X53489Y-534094D01*
X53564Y-534001D01*
X53641Y-533911D01*
X53722Y-533823D01*
X53806Y-533738D01*
X53893Y-533656D01*
X53982Y-533576D01*
X54074Y-533500D01*
X54168Y-533426D01*
X54265Y-533356D01*
X54363Y-533289D01*
X54464Y-533225D01*
X54568Y-533165D01*
X54673Y-533108D01*
X54780Y-533055D01*
X54888Y-533005D01*
X54998Y-532959D01*
X55110Y-532917D01*
X55223Y-532878D01*
X55337Y-532843D01*
X55452Y-532812D01*
X55569Y-532784D01*
X55686Y-532761D01*
X55803Y-532741D01*
X55922Y-532725D01*
X56041Y-532713D01*
X56160Y-532705D01*
X56279Y-532701D01*
X56399Y-532701D01*
X56518Y-532705D01*
X56637Y-532713D01*
X56756Y-532725D01*
X56875Y-532741D01*
X56992Y-532761D01*
X57109Y-532784D01*
X57226Y-532812D01*
X57341Y-532843D01*
X57455Y-532878D01*
X57568Y-532917D01*
X57680Y-532959D01*
X57790Y-533005D01*
X57898Y-533055D01*
X58005Y-533108D01*
X58110Y-533165D01*
X58214Y-533225D01*
X58315Y-533289D01*
X58413Y-533356D01*
X58510Y-533426D01*
X58604Y-533500D01*
X58696Y-533576D01*
X58785Y-533656D01*
X58872Y-533738D01*
X58956Y-533823D01*
X59037Y-533911D01*
X59114Y-534001D01*
X59189Y-534094D01*
X59261Y-534190D01*
X59330Y-534288D01*
X59395Y-534388D01*
X59457Y-534490D01*
X59516Y-534594D01*
X59571Y-534700D01*
X59622Y-534808D01*
X59670Y-534917D01*
X59715Y-535028D01*
X59755Y-535140D01*
X59792Y-535254D01*
X59825Y-535369D01*
X59855Y-535484D01*
X59880Y-535601D01*
X59902Y-535718D01*
X59919Y-535837D01*
X59933Y-535955D01*
X59943Y-536074D01*
X59949Y-536194D01*
X59951Y-536313D01*
X59952Y-536313D02*
X59952Y-538119D01*
X52727Y-538119D01*
X64977Y-532701D02*
X70395Y-532701D01*
X66783Y-527282D02*
X66783Y-540829D01*
X66785Y-540930D01*
X66791Y-541031D01*
X66800Y-541132D01*
X66813Y-541233D01*
X66830Y-541333D01*
X66851Y-541432D01*
X66875Y-541530D01*
X66903Y-541627D01*
X66935Y-541724D01*
X66970Y-541819D01*
X67009Y-541912D01*
X67051Y-542004D01*
X67097Y-542095D01*
X67146Y-542184D01*
X67198Y-542270D01*
X67254Y-542355D01*
X67312Y-542438D01*
X67374Y-542518D01*
X67439Y-542596D01*
X67506Y-542672D01*
X67576Y-542745D01*
X67649Y-542815D01*
X67725Y-542882D01*
X67803Y-542947D01*
X67883Y-543009D01*
X67966Y-543067D01*
X68051Y-543123D01*
X68138Y-543175D01*
X68226Y-543224D01*
X68317Y-543270D01*
X68409Y-543312D01*
X68502Y-543351D01*
X68597Y-543386D01*
X68694Y-543418D01*
X68791Y-543446D01*
X68889Y-543470D01*
X68988Y-543491D01*
X69088Y-543508D01*
X69189Y-543521D01*
X69290Y-543530D01*
X69391Y-543536D01*
X69492Y-543538D01*
X70395Y-543538D01*
X79261Y-537216D02*
X83325Y-537216D01*
X79261Y-537216D02*
X79149Y-537218D01*
X79038Y-537224D01*
X78927Y-537234D01*
X78816Y-537247D01*
X78706Y-537265D01*
X78597Y-537287D01*
X78488Y-537312D01*
X78380Y-537341D01*
X78274Y-537374D01*
X78168Y-537411D01*
X78064Y-537451D01*
X77962Y-537495D01*
X77861Y-537543D01*
X77762Y-537594D01*
X77664Y-537649D01*
X77569Y-537707D01*
X77476Y-537768D01*
X77385Y-537833D01*
X77296Y-537901D01*
X77210Y-537972D01*
X77127Y-538045D01*
X77046Y-538122D01*
X76967Y-538202D01*
X76892Y-538284D01*
X76820Y-538369D01*
X76750Y-538456D01*
X76684Y-538546D01*
X76621Y-538638D01*
X76561Y-538733D01*
X76505Y-538829D01*
X76452Y-538927D01*
X76403Y-539027D01*
X76357Y-539129D01*
X76315Y-539232D01*
X76276Y-539337D01*
X76241Y-539443D01*
X76210Y-539550D01*
X76183Y-539658D01*
X76159Y-539767D01*
X76140Y-539877D01*
X76124Y-539987D01*
X76112Y-540098D01*
X76104Y-540210D01*
X76100Y-540321D01*
X76100Y-540433D01*
X76104Y-540544D01*
X76112Y-540656D01*
X76124Y-540767D01*
X76140Y-540877D01*
X76159Y-540987D01*
X76183Y-541096D01*
X76210Y-541204D01*
X76241Y-541311D01*
X76276Y-541417D01*
X76315Y-541522D01*
X76357Y-541625D01*
X76403Y-541727D01*
X76452Y-541827D01*
X76505Y-541925D01*
X76561Y-542021D01*
X76621Y-542116D01*
X76684Y-542208D01*
X76750Y-542298D01*
X76820Y-542385D01*
X76892Y-542470D01*
X76967Y-542552D01*
X77046Y-542632D01*
X77127Y-542709D01*
X77210Y-542782D01*
X77296Y-542853D01*
X77385Y-542921D01*
X77476Y-542986D01*
X77569Y-543047D01*
X77664Y-543105D01*
X77762Y-543160D01*
X77861Y-543211D01*
X77962Y-543259D01*
X78064Y-543303D01*
X78168Y-543343D01*
X78274Y-543380D01*
X78380Y-543413D01*
X78488Y-543442D01*
X78597Y-543467D01*
X78706Y-543489D01*
X78816Y-543507D01*
X78927Y-543520D01*
X79038Y-543530D01*
X79149Y-543536D01*
X79261Y-543538D01*
X83325Y-543538D01*
X83325Y-535410D01*
X83323Y-535309D01*
X83317Y-535208D01*
X83308Y-535107D01*
X83295Y-535006D01*
X83278Y-534906D01*
X83257Y-534807D01*
X83233Y-534709D01*
X83205Y-534612D01*
X83173Y-534515D01*
X83138Y-534420D01*
X83099Y-534327D01*
X83057Y-534235D01*
X83011Y-534144D01*
X82962Y-534056D01*
X82910Y-533969D01*
X82854Y-533884D01*
X82796Y-533801D01*
X82734Y-533721D01*
X82669Y-533643D01*
X82602Y-533567D01*
X82532Y-533494D01*
X82459Y-533424D01*
X82383Y-533357D01*
X82305Y-533292D01*
X82225Y-533230D01*
X82142Y-533172D01*
X82057Y-533116D01*
X81971Y-533064D01*
X81882Y-533015D01*
X81791Y-532969D01*
X81699Y-532927D01*
X81606Y-532888D01*
X81511Y-532853D01*
X81414Y-532821D01*
X81317Y-532793D01*
X81219Y-532769D01*
X81120Y-532748D01*
X81020Y-532731D01*
X80919Y-532718D01*
X80818Y-532709D01*
X80717Y-532703D01*
X80616Y-532701D01*
X77004Y-532701D01*
X90479Y-527282D02*
X90479Y-540829D01*
X90481Y-540930D01*
X90487Y-541031D01*
X90496Y-541132D01*
X90509Y-541233D01*
X90526Y-541333D01*
X90547Y-541432D01*
X90571Y-541530D01*
X90599Y-541627D01*
X90631Y-541724D01*
X90666Y-541819D01*
X90705Y-541912D01*
X90747Y-542004D01*
X90793Y-542095D01*
X90842Y-542184D01*
X90894Y-542270D01*
X90950Y-542355D01*
X91008Y-542438D01*
X91070Y-542518D01*
X91135Y-542596D01*
X91202Y-542672D01*
X91272Y-542745D01*
X91345Y-542815D01*
X91421Y-542882D01*
X91499Y-542947D01*
X91579Y-543009D01*
X91662Y-543067D01*
X91747Y-543123D01*
X91834Y-543175D01*
X91922Y-543224D01*
X92013Y-543270D01*
X92105Y-543312D01*
X92198Y-543351D01*
X92293Y-543386D01*
X92390Y-543418D01*
X92487Y-543446D01*
X92585Y-543470D01*
X92684Y-543491D01*
X92784Y-543508D01*
X92885Y-543521D01*
X92986Y-543530D01*
X93087Y-543536D01*
X93188Y-543538D01*
D16*
X-195400Y-35840D03*
X364810Y-215000D03*
X262953Y-12750D03*
X-186500Y151690D03*
X-275000Y29749D03*
X-256809Y70000D03*
X155810Y-275000D03*
X204190Y-275000D03*
X267000Y245560D03*
X318000Y248440D03*
X292000Y248440D03*
X242000Y248440D03*
X-154190Y-225000D03*
X-105810Y-225000D03*
X253190Y-154000D03*
X253190Y-226000D03*
X113190Y-154000D03*
X113190Y-226000D03*
X-56690Y22700D03*
X-56690Y-53500D03*
X155810Y-135000D03*
X204190Y-135000D03*
X-154190Y-125000D03*
X-105810Y-125000D03*
X155810Y-205000D03*
X204190Y-205000D03*
X56690Y-2700D03*
X56690Y73500D03*
X80000Y253523D03*
X-226810Y-154000D03*
X-226810Y-226000D03*
X-37190Y102500D03*
X-37190Y152500D03*
X22500Y87810D03*
X7500Y87810D03*
X-7500Y87810D03*
X22500Y162190D03*
X2500Y162190D03*
X254235Y120750D03*
X261189Y127250D03*
X254235Y153250D03*
X254235Y172750D03*
X305765Y146750D03*
X296044Y-52500D03*
X287944Y-57500D03*
X-323956Y-52500D03*
X-332056Y-57500D03*
X-30000Y226420D03*
X35000Y23581D03*
X55000Y23581D03*
X-295000Y86420D03*
X-287690Y-237250D03*
X-225000Y86420D03*
X30000Y226420D03*
X220000Y216420D03*
X220000Y103581D03*
X-35000Y56420D03*
X290000Y86420D03*
D17*
X-7500Y60000D02*
X-7500Y40000D01*
X97500Y-65000D01*
D18*
X-7500Y60000D03*
X97500Y-65000D03*
X72500Y57500D03*
X50000Y57500D03*
X262500Y117500D03*
X50000Y12500D03*
D17*
X42500Y65000D02*
X35000Y72500D01*
X-15000Y72500D01*
X-30000Y57500D01*
X-30000Y17500D01*
X-57500Y-10000D01*
D18*
X42500Y65000D03*
X-57500Y-10000D03*
X-137500Y165000D03*
X-5000Y97500D03*
X-355000Y212500D03*
X-112500Y190000D03*
D16*
X-30000Y193581D03*
X-55000Y56420D03*
X-237300Y191010D03*
X232645Y179250D03*
X327355Y127250D03*
X-60430Y107500D03*
X-60430Y157500D03*
X12500Y64570D03*
X-12500Y64570D03*
X7500Y185430D03*
X220000Y183581D03*
X323956Y-62500D03*
X332056Y-67500D03*
X320387Y32750D03*
X290000Y53581D03*
X-312310Y-162750D03*
X341190Y-165000D03*
X-140000Y193341D03*
X-144600Y-74960D03*
X-80000Y193341D03*
D18*
X-22500Y102500D03*
X-37500Y-15000D03*
X-77500Y160000D03*
X-40000Y-107500D03*
X-17500Y145000D03*
X137500Y-30000D03*
D17*
X192500Y-27500D02*
X70000Y95000D01*
X70000Y145000D01*
D18*
X192500Y-27500D03*
X70000Y145000D03*
X-17500Y40000D03*
X-32500Y-20000D03*
D17*
X-32500Y97500D02*
X-32500Y107500D01*
X-32500Y97500D02*
X-165000Y-35000D01*
D18*
X-32500Y107500D03*
X-165000Y-35000D03*
X-17500Y112500D03*
X-12500Y7500D03*
D19*
X-348000Y-177555D03*
X-262655Y105000D03*
X-225000Y52946D03*
X-202655Y105000D03*
X-236554Y79500D03*
D18*
X272500Y112500D03*
X272500Y102500D03*
X305000Y-247500D03*
X255000Y132500D03*
D17*
X-220000Y2500D02*
X-282500Y-60000D01*
X-282500Y-62500D01*
D18*
X-220000Y2500D03*
X-282500Y-62500D03*
D17*
X-42500Y70000D02*
X-22500Y70000D01*
X-15000Y77500D01*
X37500Y77500D01*
X142500Y-27500D01*
X142500Y-30000D01*
X145000Y-32500D01*
X255000Y-32500D01*
X290000Y2500D01*
D18*
X-42500Y70000D03*
X290000Y2500D03*
D17*
X25000Y205000D02*
X-97500Y205000D01*
X25000Y205000D02*
X85000Y145000D01*
X85000Y142500D01*
X87500Y140000D01*
X155000Y140000D01*
X237500Y57500D01*
X237500Y55000D01*
D18*
X-97500Y205000D03*
X237500Y55000D03*
D17*
X257500Y50000D02*
X157500Y150000D01*
X85000Y150000D01*
X25000Y210000D01*
X-42500Y210000D01*
X-60000Y227500D01*
D18*
X257500Y50000D03*
X-60000Y227500D03*
X322500Y-10000D03*
X322500Y-27500D03*
X232500Y7500D03*
X-195000Y150000D03*
D17*
X232500Y52500D02*
X237500Y47500D01*
X232500Y52500D02*
X232500Y57500D01*
X155000Y135000D01*
X87500Y135000D01*
X65000Y157500D01*
X-50000Y157500D01*
X-62500Y170000D01*
X-142500Y170000D01*
X-150000Y162500D01*
D18*
X237500Y47500D03*
X-150000Y162500D03*
D17*
X-32500Y90000D02*
X-20000Y90000D01*
X-7500Y102500D01*
X22500Y102500D01*
X45000Y80000D01*
X57500Y80000D01*
X150000Y-12500D01*
D18*
X-32500Y90000D03*
X150000Y-12500D03*
D19*
X-317345Y105000D03*
X-312945Y-222750D03*
X293000Y223805D03*
X-283446Y79500D03*
D18*
X-62500Y127500D03*
X-27500Y120000D03*
X30000Y-102500D03*
X-5000Y120000D03*
X30000Y147500D03*
X35000Y-97500D03*
X2500Y127500D03*
X145000Y-37500D03*
X25000Y110000D03*
X35000Y-90000D03*
X35000Y102500D03*
X45000Y-85000D03*
D17*
X25000Y95000D02*
X20000Y95000D01*
X25000Y95000D02*
X147500Y-27500D01*
D18*
X20000Y95000D03*
X147500Y-27500D03*
X102500Y-60000D03*
X-75000Y82500D03*
X100000Y-7500D03*
X-47500Y12500D03*
D17*
X315000Y-50000D02*
X315000Y-75000D01*
X315000Y-50000D02*
X295000Y-30000D01*
X295000Y5000D01*
X155000Y145000D01*
X90000Y145000D01*
D18*
X315000Y-75000D03*
X90000Y145000D03*
X-290000Y-170000D03*
X-290000Y-197500D03*
X-335000Y-65000D03*
X-337500Y-47500D03*
X175000Y-27500D03*
X175000Y32500D03*
D17*
X-305000Y-137500D02*
X-305000Y-145000D01*
X-305000Y-137500D02*
X-67500Y100000D01*
X-55000Y100000D01*
X-2500Y152500D01*
X20000Y152500D01*
D18*
X-305000Y-145000D03*
X20000Y152500D03*
X-47500Y262500D03*
X-47500Y252500D03*
D19*
X-384445Y-165000D03*
X220000Y137055D03*
X232010Y159750D03*
M02*
