G04 EAGLE Gerber RS-274X export*
G75*
%MOMM*%
%FSLAX34Y34*%
%LPD*%
%INTop Inner Metal*%
%IPPOS*%
%AMOC8*
5,1,8,0,0,1.08239X$1,22.5*%
G01*
%ADD10C,0.352400*%
%ADD11C,1.350000*%
%ADD12C,1.500000*%
%ADD13C,1.950000*%
%ADD14C,0.152400*%
%ADD15C,1.650000*%
%ADD16C,0.457200*%
%ADD17C,0.635000*%
%ADD18C,0.454000*%
%ADD19C,0.127000*%
%ADD20C,0.508000*%

G36*
X380018Y-397496D02*
X380018Y-397496D01*
X380042Y-397498D01*
X386159Y-397097D01*
X386205Y-397085D01*
X386281Y-397077D01*
X398099Y-393910D01*
X398139Y-393891D01*
X398252Y-393847D01*
X408847Y-387730D01*
X408881Y-387701D01*
X408978Y-387629D01*
X417629Y-378978D01*
X417654Y-378941D01*
X417730Y-378847D01*
X423847Y-368252D01*
X423862Y-368209D01*
X423910Y-368099D01*
X427077Y-356281D01*
X427081Y-356233D01*
X427097Y-356159D01*
X427498Y-350041D01*
X427496Y-350023D01*
X427499Y-350000D01*
X427499Y265000D01*
X427496Y265018D01*
X427498Y265041D01*
X427097Y271159D01*
X427085Y271205D01*
X427077Y271281D01*
X423910Y283099D01*
X423891Y283139D01*
X423847Y283252D01*
X417730Y293847D01*
X417701Y293881D01*
X417629Y293978D01*
X408978Y302629D01*
X408941Y302654D01*
X408847Y302730D01*
X398252Y308847D01*
X398246Y308849D01*
X398241Y308853D01*
X398194Y308869D01*
X398099Y308910D01*
X386281Y312077D01*
X386233Y312081D01*
X386159Y312097D01*
X380042Y312498D01*
X380023Y312496D01*
X380000Y312499D01*
X210000Y312499D01*
X209935Y312488D01*
X209869Y312486D01*
X209826Y312468D01*
X209779Y312460D01*
X209722Y312426D01*
X209662Y312401D01*
X209627Y312370D01*
X209586Y312345D01*
X209545Y312294D01*
X209496Y312250D01*
X209474Y312208D01*
X209445Y312171D01*
X209424Y312109D01*
X209393Y312050D01*
X209385Y311996D01*
X209373Y311959D01*
X209374Y311919D01*
X209366Y311865D01*
X209366Y308667D01*
X209377Y308602D01*
X209379Y308536D01*
X209397Y308493D01*
X209405Y308446D01*
X209439Y308389D01*
X209464Y308329D01*
X209495Y308294D01*
X209520Y308253D01*
X209571Y308211D01*
X209615Y308163D01*
X209657Y308141D01*
X209694Y308112D01*
X209756Y308091D01*
X209815Y308060D01*
X209869Y308052D01*
X209906Y308040D01*
X209946Y308041D01*
X210000Y308033D01*
X211256Y308033D01*
X213033Y306256D01*
X213033Y303744D01*
X211256Y301967D01*
X210000Y301967D01*
X209935Y301956D01*
X209869Y301954D01*
X209826Y301936D01*
X209779Y301928D01*
X209722Y301894D01*
X209662Y301869D01*
X209627Y301838D01*
X209586Y301813D01*
X209545Y301762D01*
X209496Y301718D01*
X209474Y301676D01*
X209445Y301639D01*
X209424Y301577D01*
X209393Y301518D01*
X209385Y301464D01*
X209373Y301427D01*
X209374Y301387D01*
X209366Y301333D01*
X209366Y230634D01*
X-34366Y230634D01*
X-34366Y311865D01*
X-34377Y311930D01*
X-34379Y311996D01*
X-34397Y312039D01*
X-34405Y312086D01*
X-34439Y312143D01*
X-34464Y312203D01*
X-34495Y312238D01*
X-34520Y312279D01*
X-34571Y312321D01*
X-34615Y312369D01*
X-34657Y312391D01*
X-34694Y312420D01*
X-34756Y312441D01*
X-34815Y312472D01*
X-34869Y312480D01*
X-34906Y312492D01*
X-34946Y312491D01*
X-35000Y312499D01*
X-44051Y312499D01*
X-44141Y312483D01*
X-44233Y312473D01*
X-44254Y312463D01*
X-44272Y312460D01*
X-44315Y312434D01*
X-44403Y312393D01*
X-58355Y303091D01*
X-58389Y303058D01*
X-58451Y303012D01*
X-58964Y302499D01*
X-59051Y302499D01*
X-59142Y302483D01*
X-59233Y302473D01*
X-59254Y302463D01*
X-59272Y302460D01*
X-59315Y302434D01*
X-59403Y302393D01*
X-59475Y302345D01*
X-60186Y302487D01*
X-60234Y302488D01*
X-60310Y302499D01*
X-139690Y302499D01*
X-139737Y302491D01*
X-139814Y302487D01*
X-140525Y302345D01*
X-140597Y302393D01*
X-140682Y302429D01*
X-140764Y302472D01*
X-140786Y302475D01*
X-140803Y302482D01*
X-140853Y302485D01*
X-140949Y302499D01*
X-141036Y302499D01*
X-141549Y303012D01*
X-141588Y303040D01*
X-141645Y303091D01*
X-155597Y312393D01*
X-155682Y312429D01*
X-155764Y312472D01*
X-155786Y312475D01*
X-155803Y312482D01*
X-155853Y312485D01*
X-155949Y312499D01*
X-380000Y312499D01*
X-380018Y312496D01*
X-380041Y312498D01*
X-386159Y312097D01*
X-386205Y312085D01*
X-386281Y312077D01*
X-398099Y308910D01*
X-398139Y308891D01*
X-398252Y308847D01*
X-408847Y302730D01*
X-408881Y302701D01*
X-408978Y302629D01*
X-417629Y293978D01*
X-417654Y293941D01*
X-417730Y293847D01*
X-423847Y283252D01*
X-423862Y283209D01*
X-423910Y283099D01*
X-427077Y271281D01*
X-427081Y271233D01*
X-427097Y271159D01*
X-427498Y265041D01*
X-427496Y265023D01*
X-427499Y265000D01*
X-427499Y-350000D01*
X-427496Y-350018D01*
X-427498Y-350041D01*
X-427097Y-356159D01*
X-427085Y-356205D01*
X-427077Y-356281D01*
X-423910Y-368099D01*
X-423891Y-368139D01*
X-423847Y-368252D01*
X-417730Y-378847D01*
X-417701Y-378881D01*
X-417629Y-378978D01*
X-408978Y-387629D01*
X-408941Y-387654D01*
X-408847Y-387730D01*
X-398252Y-393847D01*
X-398209Y-393862D01*
X-398099Y-393910D01*
X-386281Y-397077D01*
X-386233Y-397081D01*
X-386159Y-397097D01*
X-380041Y-397498D01*
X-380023Y-397496D01*
X-380000Y-397499D01*
X380000Y-397499D01*
X380018Y-397496D01*
G37*
%LPC*%
G36*
X-218967Y-186041D02*
X-218967Y-186041D01*
X-221041Y-183967D01*
X-221041Y-181675D01*
X-221052Y-181610D01*
X-221054Y-181544D01*
X-221072Y-181501D01*
X-221080Y-181454D01*
X-221114Y-181397D01*
X-221139Y-181337D01*
X-221170Y-181302D01*
X-221195Y-181261D01*
X-221246Y-181219D01*
X-221290Y-181171D01*
X-221332Y-181149D01*
X-221369Y-181120D01*
X-221431Y-181099D01*
X-221490Y-181068D01*
X-221544Y-181060D01*
X-221581Y-181048D01*
X-221621Y-181049D01*
X-221675Y-181041D01*
X-223967Y-181041D01*
X-226041Y-178967D01*
X-226041Y-176033D01*
X-223967Y-173959D01*
X-221033Y-173959D01*
X-220488Y-174504D01*
X-220415Y-174555D01*
X-220346Y-174611D01*
X-220324Y-174619D01*
X-220304Y-174632D01*
X-220218Y-174654D01*
X-220134Y-174683D01*
X-220110Y-174682D01*
X-220087Y-174688D01*
X-219998Y-174679D01*
X-219909Y-174676D01*
X-219887Y-174667D01*
X-219864Y-174665D01*
X-219784Y-174625D01*
X-219702Y-174592D01*
X-219684Y-174576D01*
X-219663Y-174566D01*
X-219602Y-174501D01*
X-219536Y-174441D01*
X-219525Y-174420D01*
X-219509Y-174402D01*
X-219474Y-174320D01*
X-219433Y-174241D01*
X-219430Y-174215D01*
X-219421Y-174196D01*
X-219419Y-174145D01*
X-219406Y-174056D01*
X-219406Y-171711D01*
X-11227Y36469D01*
X-11202Y36503D01*
X-11171Y36532D01*
X-11139Y36595D01*
X-11098Y36653D01*
X-11088Y36694D01*
X-11068Y36732D01*
X-11055Y36821D01*
X-11042Y36870D01*
X-11045Y36891D01*
X-11041Y36917D01*
X-11041Y38967D01*
X-8967Y41041D01*
X-6033Y41041D01*
X-4584Y39592D01*
X-4549Y39567D01*
X-4521Y39536D01*
X-4458Y39504D01*
X-4400Y39463D01*
X-4359Y39453D01*
X-4321Y39433D01*
X-4231Y39420D01*
X-4183Y39407D01*
X-4162Y39410D01*
X-4136Y39406D01*
X91636Y39406D01*
X91677Y39413D01*
X91720Y39411D01*
X91787Y39433D01*
X91856Y39445D01*
X91893Y39467D01*
X91933Y39480D01*
X92006Y39534D01*
X92050Y39560D01*
X92063Y39576D01*
X92084Y39592D01*
X93533Y41041D01*
X96467Y41041D01*
X97012Y40496D01*
X97085Y40445D01*
X97154Y40389D01*
X97176Y40381D01*
X97196Y40368D01*
X97282Y40346D01*
X97366Y40317D01*
X97390Y40318D01*
X97413Y40312D01*
X97502Y40321D01*
X97591Y40324D01*
X97613Y40333D01*
X97636Y40335D01*
X97716Y40375D01*
X97798Y40408D01*
X97816Y40424D01*
X97837Y40434D01*
X97898Y40499D01*
X97964Y40559D01*
X97975Y40580D01*
X97991Y40598D01*
X98026Y40680D01*
X98067Y40759D01*
X98070Y40785D01*
X98079Y40804D01*
X98081Y40855D01*
X98094Y40944D01*
X98094Y48289D01*
X119211Y69406D01*
X121636Y69406D01*
X121677Y69413D01*
X121720Y69411D01*
X121787Y69433D01*
X121856Y69445D01*
X121893Y69467D01*
X121933Y69480D01*
X122006Y69534D01*
X122050Y69560D01*
X122063Y69576D01*
X122084Y69592D01*
X123533Y71041D01*
X126467Y71041D01*
X128541Y68967D01*
X128541Y66033D01*
X126467Y63959D01*
X123533Y63959D01*
X122084Y65408D01*
X122049Y65433D01*
X122021Y65464D01*
X121958Y65496D01*
X121900Y65537D01*
X121859Y65547D01*
X121821Y65567D01*
X121731Y65580D01*
X121683Y65593D01*
X121662Y65590D01*
X121636Y65594D01*
X121052Y65594D01*
X121010Y65587D01*
X120968Y65589D01*
X120901Y65567D01*
X120831Y65555D01*
X120795Y65533D01*
X120754Y65520D01*
X120682Y65466D01*
X120638Y65440D01*
X120625Y65424D01*
X120604Y65409D01*
X119819Y64623D01*
X119768Y64550D01*
X119712Y64481D01*
X119704Y64459D01*
X119690Y64439D01*
X119668Y64353D01*
X119640Y64269D01*
X119640Y64245D01*
X119635Y64222D01*
X119644Y64133D01*
X119646Y64044D01*
X119655Y64022D01*
X119658Y63999D01*
X119697Y63919D01*
X119731Y63837D01*
X119747Y63819D01*
X119757Y63798D01*
X119822Y63737D01*
X119882Y63671D01*
X119903Y63660D01*
X119920Y63644D01*
X120002Y63609D01*
X120082Y63568D01*
X120108Y63565D01*
X120127Y63556D01*
X120177Y63554D01*
X120267Y63541D01*
X121467Y63541D01*
X123541Y61467D01*
X123541Y58533D01*
X121467Y56459D01*
X118533Y56459D01*
X116459Y58533D01*
X116459Y59733D01*
X116443Y59821D01*
X116434Y59909D01*
X116424Y59930D01*
X116420Y59954D01*
X116374Y60030D01*
X116335Y60110D01*
X116318Y60127D01*
X116305Y60147D01*
X116236Y60203D01*
X116172Y60264D01*
X116150Y60273D01*
X116131Y60288D01*
X116047Y60317D01*
X115965Y60352D01*
X115941Y60353D01*
X115919Y60360D01*
X115830Y60358D01*
X115741Y60362D01*
X115718Y60354D01*
X115694Y60354D01*
X115612Y60320D01*
X115527Y60293D01*
X115506Y60277D01*
X115487Y60269D01*
X115449Y60235D01*
X115377Y60181D01*
X102092Y46896D01*
X102067Y46862D01*
X102036Y46833D01*
X102004Y46770D01*
X101963Y46712D01*
X101953Y46671D01*
X101933Y46633D01*
X101920Y46544D01*
X101907Y46495D01*
X101910Y46474D01*
X101906Y46448D01*
X101906Y36132D01*
X101922Y36044D01*
X101931Y35956D01*
X101941Y35935D01*
X101945Y35911D01*
X101991Y35835D01*
X102030Y35755D01*
X102047Y35738D01*
X102060Y35718D01*
X102129Y35662D01*
X102193Y35601D01*
X102215Y35592D01*
X102234Y35577D01*
X102318Y35548D01*
X102400Y35513D01*
X102424Y35512D01*
X102446Y35505D01*
X102535Y35507D01*
X102624Y35503D01*
X102647Y35511D01*
X102671Y35511D01*
X102753Y35545D01*
X102838Y35572D01*
X102859Y35588D01*
X102878Y35596D01*
X102916Y35630D01*
X102988Y35684D01*
X108773Y41469D01*
X108798Y41503D01*
X108829Y41532D01*
X108861Y41595D01*
X108902Y41653D01*
X108912Y41694D01*
X108932Y41732D01*
X108945Y41821D01*
X108958Y41870D01*
X108955Y41891D01*
X108959Y41917D01*
X108959Y43967D01*
X111033Y46041D01*
X113967Y46041D01*
X115802Y44206D01*
X115856Y44168D01*
X115903Y44123D01*
X115947Y44105D01*
X115986Y44078D01*
X116049Y44061D01*
X116110Y44036D01*
X116157Y44034D01*
X116203Y44022D01*
X116268Y44029D01*
X116334Y44026D01*
X116379Y44040D01*
X116426Y44045D01*
X116485Y44074D01*
X116548Y44094D01*
X116592Y44127D01*
X116627Y44144D01*
X116654Y44173D01*
X116699Y44206D01*
X118533Y46041D01*
X121467Y46041D01*
X123541Y43967D01*
X123541Y41033D01*
X121467Y38959D01*
X118533Y38959D01*
X116699Y40794D01*
X116644Y40832D01*
X116597Y40877D01*
X116553Y40895D01*
X116514Y40922D01*
X116451Y40939D01*
X116390Y40964D01*
X116343Y40966D01*
X116297Y40978D01*
X116232Y40971D01*
X116166Y40974D01*
X116121Y40960D01*
X116074Y40955D01*
X116015Y40926D01*
X115952Y40906D01*
X115908Y40873D01*
X115873Y40856D01*
X115846Y40827D01*
X115802Y40794D01*
X113967Y38959D01*
X111917Y38959D01*
X111875Y38952D01*
X111833Y38954D01*
X111766Y38932D01*
X111696Y38920D01*
X111660Y38898D01*
X111619Y38885D01*
X111547Y38831D01*
X111503Y38805D01*
X111490Y38789D01*
X111469Y38773D01*
X63184Y-9512D01*
X63133Y-9585D01*
X63077Y-9654D01*
X63069Y-9676D01*
X63055Y-9696D01*
X63033Y-9782D01*
X63005Y-9866D01*
X63005Y-9890D01*
X63000Y-9913D01*
X63009Y-10002D01*
X63011Y-10091D01*
X63020Y-10113D01*
X63023Y-10136D01*
X63062Y-10216D01*
X63096Y-10298D01*
X63112Y-10316D01*
X63122Y-10337D01*
X63187Y-10398D01*
X63247Y-10464D01*
X63268Y-10475D01*
X63285Y-10491D01*
X63367Y-10526D01*
X63447Y-10567D01*
X63473Y-10570D01*
X63492Y-10579D01*
X63542Y-10581D01*
X63632Y-10594D01*
X93948Y-10594D01*
X93990Y-10587D01*
X94032Y-10589D01*
X94099Y-10567D01*
X94169Y-10555D01*
X94205Y-10533D01*
X94246Y-10520D01*
X94318Y-10466D01*
X94362Y-10440D01*
X94375Y-10424D01*
X94396Y-10408D01*
X191711Y86906D01*
X246636Y86906D01*
X246677Y86913D01*
X246720Y86911D01*
X246787Y86933D01*
X246856Y86945D01*
X246893Y86967D01*
X246933Y86980D01*
X247006Y87034D01*
X247050Y87060D01*
X247063Y87076D01*
X247084Y87092D01*
X248533Y88541D01*
X249921Y88541D01*
X250008Y88556D01*
X250097Y88566D01*
X250118Y88576D01*
X250142Y88580D01*
X250218Y88626D01*
X250298Y88665D01*
X250314Y88682D01*
X250335Y88695D01*
X250391Y88764D01*
X250452Y88828D01*
X250461Y88850D01*
X250476Y88869D01*
X250505Y88953D01*
X250539Y89035D01*
X250540Y89059D01*
X250548Y89081D01*
X250545Y89170D01*
X250549Y89259D01*
X250542Y89282D01*
X250541Y89306D01*
X250508Y89388D01*
X250481Y89473D01*
X250465Y89494D01*
X250457Y89513D01*
X250423Y89551D01*
X250369Y89623D01*
X249584Y90409D01*
X249549Y90433D01*
X249521Y90464D01*
X249458Y90496D01*
X249400Y90537D01*
X249359Y90547D01*
X249321Y90567D01*
X249231Y90580D01*
X249183Y90593D01*
X249162Y90590D01*
X249136Y90594D01*
X101052Y90594D01*
X101010Y90587D01*
X100968Y90589D01*
X100901Y90567D01*
X100831Y90555D01*
X100795Y90533D01*
X100754Y90520D01*
X100682Y90466D01*
X100638Y90440D01*
X100625Y90424D01*
X100604Y90408D01*
X83289Y73094D01*
X74229Y73094D01*
X74141Y73079D01*
X74053Y73069D01*
X74032Y73059D01*
X74008Y73055D01*
X73931Y73009D01*
X73852Y72970D01*
X73836Y72953D01*
X73815Y72940D01*
X73759Y72871D01*
X73698Y72807D01*
X73689Y72785D01*
X73674Y72766D01*
X73645Y72682D01*
X73611Y72600D01*
X73609Y72576D01*
X73602Y72554D01*
X73604Y72465D01*
X73601Y72376D01*
X73608Y72353D01*
X73608Y72329D01*
X73642Y72247D01*
X73669Y72162D01*
X73685Y72141D01*
X73693Y72122D01*
X73727Y72084D01*
X73781Y72012D01*
X74446Y71346D01*
X74446Y67663D01*
X72231Y65448D01*
X72193Y65394D01*
X72148Y65347D01*
X72130Y65303D01*
X72103Y65264D01*
X72086Y65201D01*
X72061Y65140D01*
X72058Y65093D01*
X72047Y65047D01*
X72053Y64982D01*
X72051Y64916D01*
X72065Y64871D01*
X72070Y64824D01*
X72099Y64765D01*
X72119Y64702D01*
X72152Y64658D01*
X72169Y64623D01*
X72198Y64596D01*
X72231Y64551D01*
X74446Y62336D01*
X74446Y58653D01*
X71842Y56049D01*
X68158Y56049D01*
X65554Y58653D01*
X65554Y62336D01*
X67769Y64551D01*
X67807Y64606D01*
X67852Y64653D01*
X67870Y64697D01*
X67897Y64736D01*
X67914Y64799D01*
X67939Y64860D01*
X67942Y64907D01*
X67953Y64953D01*
X67947Y65018D01*
X67949Y65084D01*
X67935Y65129D01*
X67930Y65176D01*
X67901Y65235D01*
X67881Y65298D01*
X67848Y65342D01*
X67831Y65377D01*
X67802Y65404D01*
X67769Y65448D01*
X65554Y67663D01*
X65554Y71346D01*
X66219Y72012D01*
X66270Y72085D01*
X66326Y72154D01*
X66334Y72176D01*
X66347Y72196D01*
X66370Y72282D01*
X66398Y72366D01*
X66397Y72390D01*
X66403Y72413D01*
X66394Y72502D01*
X66392Y72591D01*
X66383Y72613D01*
X66380Y72636D01*
X66341Y72716D01*
X66307Y72798D01*
X66291Y72816D01*
X66281Y72837D01*
X66216Y72898D01*
X66156Y72964D01*
X66135Y72975D01*
X66117Y72991D01*
X66035Y73026D01*
X65956Y73067D01*
X65930Y73070D01*
X65911Y73079D01*
X65860Y73081D01*
X65771Y73094D01*
X60864Y73094D01*
X60823Y73087D01*
X60780Y73089D01*
X60713Y73067D01*
X60644Y73055D01*
X60607Y73033D01*
X60567Y73020D01*
X60494Y72966D01*
X60450Y72940D01*
X60437Y72924D01*
X60416Y72908D01*
X58967Y71459D01*
X56033Y71459D01*
X53959Y73533D01*
X53959Y76467D01*
X56033Y78541D01*
X58967Y78541D01*
X60416Y77092D01*
X60447Y77070D01*
X60465Y77050D01*
X60468Y77049D01*
X60479Y77036D01*
X60542Y77004D01*
X60600Y76963D01*
X60641Y76953D01*
X60679Y76933D01*
X60769Y76920D01*
X60817Y76907D01*
X60838Y76910D01*
X60864Y76906D01*
X81448Y76906D01*
X81490Y76913D01*
X81532Y76911D01*
X81599Y76933D01*
X81669Y76945D01*
X81705Y76967D01*
X81746Y76980D01*
X81818Y77034D01*
X81862Y77060D01*
X81871Y77071D01*
X81876Y77074D01*
X81882Y77081D01*
X81896Y77092D01*
X99211Y94406D01*
X249136Y94406D01*
X249177Y94413D01*
X249220Y94411D01*
X249287Y94433D01*
X249356Y94445D01*
X249393Y94467D01*
X249433Y94480D01*
X249506Y94534D01*
X249550Y94560D01*
X249563Y94576D01*
X249584Y94592D01*
X251033Y96041D01*
X253967Y96041D01*
X256041Y93967D01*
X256041Y91033D01*
X253967Y88959D01*
X252579Y88959D01*
X252492Y88943D01*
X252403Y88934D01*
X252382Y88924D01*
X252358Y88920D01*
X252282Y88874D01*
X252202Y88835D01*
X252186Y88818D01*
X252165Y88805D01*
X252109Y88736D01*
X252048Y88672D01*
X252039Y88650D01*
X252024Y88631D01*
X251995Y88547D01*
X251961Y88465D01*
X251960Y88441D01*
X251952Y88419D01*
X251955Y88330D01*
X251951Y88241D01*
X251958Y88218D01*
X251959Y88194D01*
X251992Y88112D01*
X252019Y88027D01*
X252035Y88006D01*
X252043Y87987D01*
X252077Y87949D01*
X252131Y87877D01*
X253541Y86467D01*
X253541Y85267D01*
X253557Y85179D01*
X253566Y85091D01*
X253576Y85070D01*
X253580Y85046D01*
X253626Y84969D01*
X253665Y84890D01*
X253682Y84874D01*
X253695Y84853D01*
X253764Y84797D01*
X253828Y84736D01*
X253850Y84727D01*
X253869Y84712D01*
X253953Y84683D01*
X254035Y84648D01*
X254059Y84647D01*
X254081Y84640D01*
X254170Y84642D01*
X254259Y84638D01*
X254282Y84646D01*
X254306Y84646D01*
X254388Y84680D01*
X254473Y84707D01*
X254494Y84723D01*
X254513Y84731D01*
X254551Y84765D01*
X254623Y84819D01*
X256274Y86469D01*
X256298Y86503D01*
X256329Y86532D01*
X256361Y86595D01*
X256402Y86653D01*
X256412Y86694D01*
X256432Y86732D01*
X256445Y86821D01*
X256458Y86870D01*
X256455Y86891D01*
X256459Y86917D01*
X256459Y88967D01*
X258533Y91041D01*
X259733Y91041D01*
X259821Y91057D01*
X259909Y91066D01*
X259930Y91076D01*
X259954Y91080D01*
X260030Y91126D01*
X260110Y91165D01*
X260127Y91182D01*
X260147Y91195D01*
X260203Y91264D01*
X260264Y91328D01*
X260273Y91350D01*
X260288Y91369D01*
X260317Y91453D01*
X260352Y91535D01*
X260353Y91559D01*
X260360Y91581D01*
X260358Y91670D01*
X260362Y91759D01*
X260354Y91782D01*
X260354Y91806D01*
X260320Y91888D01*
X260293Y91973D01*
X260277Y91994D01*
X260269Y92013D01*
X260235Y92051D01*
X260181Y92123D01*
X258094Y94211D01*
X258094Y99056D01*
X258079Y99143D01*
X258069Y99232D01*
X258059Y99253D01*
X258055Y99277D01*
X258009Y99353D01*
X257970Y99433D01*
X257953Y99449D01*
X257940Y99470D01*
X257871Y99526D01*
X257807Y99587D01*
X257785Y99596D01*
X257766Y99611D01*
X257682Y99640D01*
X257600Y99674D01*
X257576Y99675D01*
X257554Y99683D01*
X257465Y99680D01*
X257376Y99684D01*
X257353Y99677D01*
X257329Y99676D01*
X257247Y99643D01*
X257162Y99616D01*
X257141Y99600D01*
X257122Y99592D01*
X257084Y99558D01*
X257012Y99504D01*
X256467Y98959D01*
X253533Y98959D01*
X251459Y101033D01*
X251459Y103967D01*
X253533Y106041D01*
X255825Y106041D01*
X255890Y106052D01*
X255956Y106054D01*
X255999Y106072D01*
X256046Y106080D01*
X256103Y106114D01*
X256163Y106139D01*
X256198Y106170D01*
X256239Y106195D01*
X256281Y106246D01*
X256329Y106290D01*
X256351Y106332D01*
X256380Y106369D01*
X256401Y106431D01*
X256432Y106490D01*
X256440Y106544D01*
X256452Y106581D01*
X256451Y106621D01*
X256459Y106675D01*
X256459Y108967D01*
X258533Y111041D01*
X261467Y111041D01*
X263541Y108967D01*
X263541Y106033D01*
X262092Y104584D01*
X262067Y104549D01*
X262036Y104521D01*
X262004Y104458D01*
X261963Y104400D01*
X261953Y104359D01*
X261933Y104321D01*
X261920Y104231D01*
X261907Y104183D01*
X261910Y104162D01*
X261906Y104136D01*
X261906Y100944D01*
X261921Y100857D01*
X261931Y100768D01*
X261941Y100747D01*
X261945Y100723D01*
X261991Y100647D01*
X262030Y100567D01*
X262047Y100551D01*
X262060Y100530D01*
X262129Y100474D01*
X262193Y100413D01*
X262215Y100404D01*
X262234Y100389D01*
X262318Y100360D01*
X262400Y100326D01*
X262424Y100325D01*
X262446Y100317D01*
X262535Y100320D01*
X262624Y100316D01*
X262647Y100323D01*
X262671Y100324D01*
X262753Y100357D01*
X262838Y100384D01*
X262859Y100400D01*
X262878Y100408D01*
X262916Y100442D01*
X262988Y100496D01*
X263533Y101041D01*
X266467Y101041D01*
X268541Y98967D01*
X268541Y96033D01*
X266467Y93959D01*
X265267Y93959D01*
X265179Y93944D01*
X265091Y93934D01*
X265070Y93924D01*
X265046Y93920D01*
X264969Y93874D01*
X264890Y93835D01*
X264874Y93818D01*
X264853Y93805D01*
X264797Y93736D01*
X264736Y93672D01*
X264727Y93650D01*
X264712Y93631D01*
X264683Y93547D01*
X264648Y93465D01*
X264647Y93441D01*
X264640Y93419D01*
X264642Y93330D01*
X264638Y93241D01*
X264646Y93218D01*
X264646Y93194D01*
X264680Y93112D01*
X264707Y93027D01*
X264723Y93006D01*
X264731Y92987D01*
X264765Y92949D01*
X264819Y92877D01*
X265604Y92091D01*
X266906Y90789D01*
X266906Y76132D01*
X266922Y76044D01*
X266931Y75956D01*
X266941Y75935D01*
X266945Y75911D01*
X266991Y75835D01*
X267030Y75755D01*
X267047Y75738D01*
X267060Y75718D01*
X267129Y75662D01*
X267193Y75601D01*
X267215Y75592D01*
X267234Y75577D01*
X267318Y75548D01*
X267400Y75513D01*
X267424Y75512D01*
X267446Y75505D01*
X267535Y75507D01*
X267624Y75503D01*
X267647Y75511D01*
X267671Y75511D01*
X267753Y75545D01*
X267838Y75572D01*
X267859Y75588D01*
X267878Y75596D01*
X267916Y75630D01*
X267988Y75684D01*
X290181Y97877D01*
X290232Y97950D01*
X290288Y98019D01*
X290296Y98041D01*
X290310Y98061D01*
X290332Y98147D01*
X290360Y98231D01*
X290360Y98255D01*
X290365Y98278D01*
X290356Y98367D01*
X290354Y98456D01*
X290345Y98478D01*
X290342Y98501D01*
X290303Y98581D01*
X290269Y98663D01*
X290253Y98681D01*
X290243Y98702D01*
X290178Y98763D01*
X290118Y98829D01*
X290097Y98840D01*
X290080Y98856D01*
X289998Y98891D01*
X289918Y98932D01*
X289892Y98935D01*
X289873Y98944D01*
X289823Y98946D01*
X289733Y98959D01*
X288533Y98959D01*
X286459Y101033D01*
X286459Y103967D01*
X288533Y106041D01*
X291467Y106041D01*
X293541Y103967D01*
X293541Y102767D01*
X293557Y102679D01*
X293566Y102591D01*
X293576Y102570D01*
X293580Y102546D01*
X293626Y102470D01*
X293665Y102390D01*
X293682Y102373D01*
X293695Y102353D01*
X293764Y102297D01*
X293828Y102236D01*
X293850Y102227D01*
X293869Y102212D01*
X293953Y102183D01*
X294035Y102148D01*
X294059Y102147D01*
X294081Y102140D01*
X294170Y102142D01*
X294259Y102138D01*
X294282Y102146D01*
X294306Y102146D01*
X294388Y102180D01*
X294473Y102207D01*
X294494Y102223D01*
X294513Y102231D01*
X294551Y102265D01*
X294623Y102319D01*
X305408Y113104D01*
X305433Y113138D01*
X305464Y113167D01*
X305496Y113230D01*
X305537Y113288D01*
X305547Y113329D01*
X305567Y113367D01*
X305580Y113456D01*
X305593Y113505D01*
X305590Y113526D01*
X305594Y113552D01*
X305594Y149136D01*
X305587Y149177D01*
X305589Y149220D01*
X305567Y149287D01*
X305555Y149357D01*
X305533Y149393D01*
X305520Y149433D01*
X305466Y149506D01*
X305440Y149550D01*
X305424Y149563D01*
X305408Y149584D01*
X303959Y151033D01*
X303959Y153967D01*
X306033Y156041D01*
X308967Y156041D01*
X311041Y153967D01*
X311041Y151033D01*
X309592Y149584D01*
X309567Y149549D01*
X309536Y149521D01*
X309504Y149458D01*
X309463Y149400D01*
X309453Y149359D01*
X309433Y149321D01*
X309420Y149231D01*
X309407Y149183D01*
X309410Y149162D01*
X309406Y149136D01*
X309406Y111711D01*
X308104Y110409D01*
X308104Y110408D01*
X230550Y32855D01*
X230512Y32801D01*
X230467Y32753D01*
X230449Y32709D01*
X230422Y32670D01*
X230405Y32607D01*
X230380Y32546D01*
X230377Y32499D01*
X230366Y32453D01*
X230373Y32388D01*
X230370Y32322D01*
X230384Y32277D01*
X230389Y32230D01*
X230418Y32171D01*
X230438Y32108D01*
X230471Y32064D01*
X230488Y32029D01*
X230517Y32002D01*
X230550Y31958D01*
X231041Y31467D01*
X231041Y28533D01*
X228967Y26459D01*
X226033Y26459D01*
X223959Y28533D01*
X223959Y29733D01*
X223943Y29821D01*
X223934Y29909D01*
X223924Y29930D01*
X223920Y29954D01*
X223874Y30030D01*
X223835Y30110D01*
X223818Y30127D01*
X223805Y30147D01*
X223736Y30203D01*
X223672Y30264D01*
X223650Y30273D01*
X223631Y30288D01*
X223547Y30317D01*
X223465Y30352D01*
X223441Y30353D01*
X223419Y30360D01*
X223330Y30358D01*
X223241Y30362D01*
X223218Y30354D01*
X223194Y30354D01*
X223112Y30320D01*
X223027Y30293D01*
X223006Y30277D01*
X222987Y30269D01*
X222949Y30235D01*
X222877Y30181D01*
X174592Y-18104D01*
X173184Y-19512D01*
X173133Y-19585D01*
X173077Y-19654D01*
X173069Y-19676D01*
X173055Y-19696D01*
X173033Y-19782D01*
X173005Y-19866D01*
X173005Y-19890D01*
X173000Y-19913D01*
X173009Y-20002D01*
X173011Y-20091D01*
X173020Y-20113D01*
X173023Y-20136D01*
X173062Y-20216D01*
X173096Y-20298D01*
X173112Y-20316D01*
X173122Y-20337D01*
X173187Y-20398D01*
X173247Y-20464D01*
X173268Y-20475D01*
X173285Y-20491D01*
X173367Y-20526D01*
X173447Y-20567D01*
X173473Y-20570D01*
X173492Y-20579D01*
X173542Y-20581D01*
X173632Y-20594D01*
X279056Y-20594D01*
X279143Y-20579D01*
X279232Y-20569D01*
X279253Y-20559D01*
X279277Y-20555D01*
X279353Y-20509D01*
X279433Y-20470D01*
X279449Y-20453D01*
X279470Y-20440D01*
X279526Y-20371D01*
X279587Y-20307D01*
X279596Y-20285D01*
X279611Y-20266D01*
X279640Y-20182D01*
X279674Y-20100D01*
X279675Y-20076D01*
X279683Y-20054D01*
X279680Y-19965D01*
X279684Y-19876D01*
X279677Y-19853D01*
X279676Y-19829D01*
X279643Y-19747D01*
X279616Y-19662D01*
X279600Y-19641D01*
X279592Y-19622D01*
X279558Y-19584D01*
X279504Y-19512D01*
X278959Y-18967D01*
X278959Y-16033D01*
X281033Y-13959D01*
X283967Y-13959D01*
X285802Y-15794D01*
X285856Y-15832D01*
X285903Y-15877D01*
X285947Y-15895D01*
X285986Y-15922D01*
X286049Y-15939D01*
X286110Y-15964D01*
X286157Y-15966D01*
X286203Y-15978D01*
X286268Y-15971D01*
X286334Y-15974D01*
X286379Y-15960D01*
X286426Y-15955D01*
X286485Y-15926D01*
X286548Y-15906D01*
X286592Y-15873D01*
X286627Y-15856D01*
X286654Y-15827D01*
X286699Y-15794D01*
X288533Y-13959D01*
X291467Y-13959D01*
X293541Y-16033D01*
X293541Y-18967D01*
X292996Y-19512D01*
X292945Y-19585D01*
X292889Y-19654D01*
X292881Y-19676D01*
X292868Y-19696D01*
X292846Y-19782D01*
X292817Y-19866D01*
X292818Y-19890D01*
X292812Y-19913D01*
X292821Y-20002D01*
X292824Y-20091D01*
X292833Y-20113D01*
X292835Y-20136D01*
X292875Y-20216D01*
X292908Y-20298D01*
X292924Y-20316D01*
X292934Y-20337D01*
X292999Y-20398D01*
X293059Y-20464D01*
X293080Y-20475D01*
X293098Y-20491D01*
X293180Y-20526D01*
X293259Y-20567D01*
X293285Y-20570D01*
X293304Y-20579D01*
X293355Y-20581D01*
X293444Y-20594D01*
X358948Y-20594D01*
X358990Y-20587D01*
X359032Y-20589D01*
X359099Y-20567D01*
X359169Y-20555D01*
X359205Y-20533D01*
X359246Y-20520D01*
X359318Y-20466D01*
X359362Y-20440D01*
X359375Y-20424D01*
X359396Y-20408D01*
X390408Y10604D01*
X391716Y11912D01*
X391737Y11915D01*
X391791Y11915D01*
X391847Y11935D01*
X391905Y11945D01*
X391951Y11973D01*
X392002Y11991D01*
X392047Y12030D01*
X392098Y12060D01*
X392132Y12102D01*
X392173Y12137D01*
X392210Y12198D01*
X392239Y12234D01*
X392249Y12263D01*
X392270Y12297D01*
X393200Y14543D01*
X395457Y16800D01*
X396382Y17183D01*
X396447Y17225D01*
X396516Y17259D01*
X396541Y17285D01*
X396571Y17304D01*
X396617Y17366D01*
X396670Y17422D01*
X396684Y17455D01*
X396705Y17483D01*
X396728Y17558D01*
X396758Y17629D01*
X396759Y17664D01*
X396769Y17698D01*
X396764Y17776D01*
X396768Y17853D01*
X396757Y17887D01*
X396754Y17922D01*
X396723Y17993D01*
X396699Y18067D01*
X396675Y18099D01*
X396663Y18127D01*
X396630Y18160D01*
X396588Y18217D01*
X395408Y19396D01*
X318094Y96711D01*
X318094Y139136D01*
X318087Y139177D01*
X318089Y139220D01*
X318067Y139287D01*
X318055Y139357D01*
X318033Y139393D01*
X318020Y139433D01*
X317966Y139506D01*
X317940Y139550D01*
X317924Y139563D01*
X317908Y139584D01*
X316459Y141033D01*
X316459Y143967D01*
X318533Y146041D01*
X321467Y146041D01*
X323541Y143967D01*
X323541Y141033D01*
X322092Y139584D01*
X322067Y139549D01*
X322036Y139521D01*
X322004Y139458D01*
X321963Y139400D01*
X321953Y139359D01*
X321933Y139321D01*
X321920Y139231D01*
X321907Y139183D01*
X321910Y139162D01*
X321906Y139136D01*
X321906Y98552D01*
X321913Y98510D01*
X321911Y98468D01*
X321933Y98401D01*
X321945Y98331D01*
X321967Y98295D01*
X321980Y98254D01*
X322034Y98182D01*
X322060Y98138D01*
X322076Y98125D01*
X322092Y98104D01*
X389633Y30562D01*
X389655Y30547D01*
X389673Y30525D01*
X389747Y30483D01*
X389817Y30434D01*
X389844Y30427D01*
X389867Y30414D01*
X389952Y30399D01*
X390035Y30378D01*
X390062Y30381D01*
X390089Y30376D01*
X390173Y30392D01*
X390258Y30401D01*
X390282Y30413D01*
X390309Y30418D01*
X390382Y30463D01*
X390459Y30501D01*
X390478Y30521D01*
X390501Y30535D01*
X390554Y30602D01*
X390613Y30664D01*
X390623Y30689D01*
X390640Y30710D01*
X390684Y30833D01*
X390700Y30871D01*
X390701Y30878D01*
X390704Y30887D01*
X391066Y32710D01*
X391767Y34401D01*
X392783Y35923D01*
X394077Y37217D01*
X395599Y38233D01*
X397290Y38934D01*
X398731Y39220D01*
X398731Y30635D01*
X398742Y30570D01*
X398744Y30505D01*
X398762Y30461D01*
X398770Y30414D01*
X398804Y30358D01*
X398829Y30297D01*
X398860Y30262D01*
X398885Y30221D01*
X398936Y30180D01*
X398980Y30131D01*
X399022Y30109D01*
X399059Y30080D01*
X399121Y30059D01*
X399180Y30029D01*
X399234Y30020D01*
X399271Y30008D01*
X399311Y30009D01*
X399365Y30001D01*
X400001Y30001D01*
X400001Y29365D01*
X400013Y29300D01*
X400014Y29234D01*
X400032Y29191D01*
X400041Y29144D01*
X400074Y29087D01*
X400099Y29027D01*
X400131Y28992D01*
X400155Y28951D01*
X400206Y28910D01*
X400250Y28861D01*
X400292Y28839D01*
X400329Y28810D01*
X400391Y28789D01*
X400450Y28758D01*
X400504Y28750D01*
X400541Y28738D01*
X400581Y28739D01*
X400635Y28731D01*
X409220Y28731D01*
X408934Y27290D01*
X408233Y25599D01*
X407217Y24077D01*
X405923Y22783D01*
X404461Y21807D01*
X404449Y21796D01*
X404436Y21789D01*
X404369Y21718D01*
X404299Y21651D01*
X404292Y21637D01*
X404282Y21626D01*
X404244Y21536D01*
X404202Y21449D01*
X404200Y21433D01*
X404194Y21419D01*
X404190Y21322D01*
X404181Y21225D01*
X404185Y21210D01*
X404184Y21195D01*
X404214Y21102D01*
X404239Y21009D01*
X404248Y20996D01*
X404253Y20981D01*
X404364Y20831D01*
X410604Y14592D01*
X411906Y13289D01*
X411906Y6711D01*
X403412Y-1783D01*
X403368Y-1846D01*
X403317Y-1905D01*
X403305Y-1938D01*
X403284Y-1967D01*
X403265Y-2042D01*
X403238Y-2114D01*
X403237Y-2150D01*
X403228Y-2184D01*
X403236Y-2261D01*
X403236Y-2339D01*
X403248Y-2372D01*
X403252Y-2407D01*
X403286Y-2477D01*
X403312Y-2550D01*
X403335Y-2577D01*
X403351Y-2608D01*
X403407Y-2661D01*
X403458Y-2721D01*
X403492Y-2741D01*
X403514Y-2762D01*
X403557Y-2780D01*
X403618Y-2817D01*
X404543Y-3200D01*
X406800Y-5457D01*
X408021Y-8405D01*
X408021Y-11595D01*
X406800Y-14543D01*
X404543Y-16800D01*
X401595Y-18021D01*
X398405Y-18021D01*
X395457Y-16800D01*
X393200Y-14543D01*
X391979Y-11595D01*
X391979Y-8405D01*
X393200Y-5457D01*
X395457Y-3200D01*
X395636Y-3126D01*
X395721Y-3072D01*
X395808Y-3020D01*
X395815Y-3011D01*
X395825Y-3005D01*
X395885Y-2924D01*
X395949Y-2846D01*
X395953Y-2835D01*
X395960Y-2825D01*
X395989Y-2729D01*
X396021Y-2634D01*
X396020Y-2622D01*
X396024Y-2610D01*
X396017Y-2510D01*
X396014Y-2409D01*
X396010Y-2398D01*
X396009Y-2387D01*
X395968Y-2295D01*
X395930Y-2202D01*
X395922Y-2193D01*
X395917Y-2182D01*
X395846Y-2110D01*
X395778Y-2036D01*
X395768Y-2030D01*
X395760Y-2022D01*
X395669Y-1980D01*
X395579Y-1933D01*
X395566Y-1931D01*
X395556Y-1927D01*
X395511Y-1923D01*
X395394Y-1906D01*
X388552Y-1906D01*
X388510Y-1913D01*
X388468Y-1911D01*
X388401Y-1933D01*
X388331Y-1945D01*
X388295Y-1967D01*
X388254Y-1980D01*
X388182Y-2034D01*
X388138Y-2060D01*
X388125Y-2076D01*
X388104Y-2092D01*
X319592Y-70604D01*
X319591Y-70604D01*
X318289Y-71906D01*
X45864Y-71906D01*
X45823Y-71913D01*
X45780Y-71911D01*
X45713Y-71933D01*
X45644Y-71945D01*
X45607Y-71967D01*
X45567Y-71980D01*
X45494Y-72034D01*
X45450Y-72060D01*
X45437Y-72076D01*
X45416Y-72092D01*
X43967Y-73541D01*
X41033Y-73541D01*
X38959Y-71467D01*
X38959Y-68533D01*
X41033Y-66459D01*
X43967Y-66459D01*
X45416Y-67908D01*
X45451Y-67933D01*
X45479Y-67964D01*
X45542Y-67996D01*
X45600Y-68037D01*
X45641Y-68047D01*
X45679Y-68067D01*
X45769Y-68080D01*
X45817Y-68093D01*
X45838Y-68090D01*
X45864Y-68094D01*
X111556Y-68094D01*
X111643Y-68079D01*
X111732Y-68069D01*
X111753Y-68059D01*
X111777Y-68055D01*
X111853Y-68009D01*
X111933Y-67970D01*
X111949Y-67953D01*
X111970Y-67940D01*
X112026Y-67871D01*
X112087Y-67807D01*
X112096Y-67785D01*
X112111Y-67766D01*
X112140Y-67682D01*
X112174Y-67600D01*
X112175Y-67576D01*
X112183Y-67554D01*
X112180Y-67465D01*
X112184Y-67376D01*
X112177Y-67353D01*
X112176Y-67329D01*
X112143Y-67247D01*
X112116Y-67162D01*
X112100Y-67141D01*
X112092Y-67122D01*
X112058Y-67084D01*
X112004Y-67012D01*
X111459Y-66467D01*
X111459Y-63533D01*
X113533Y-61459D01*
X116467Y-61459D01*
X118541Y-63533D01*
X118541Y-66467D01*
X117996Y-67012D01*
X117945Y-67085D01*
X117889Y-67154D01*
X117881Y-67176D01*
X117868Y-67196D01*
X117846Y-67282D01*
X117817Y-67366D01*
X117818Y-67390D01*
X117812Y-67413D01*
X117821Y-67502D01*
X117824Y-67591D01*
X117833Y-67613D01*
X117835Y-67636D01*
X117875Y-67716D01*
X117908Y-67798D01*
X117924Y-67816D01*
X117934Y-67837D01*
X117999Y-67898D01*
X118059Y-67964D01*
X118080Y-67975D01*
X118098Y-67991D01*
X118180Y-68026D01*
X118259Y-68067D01*
X118285Y-68070D01*
X118304Y-68079D01*
X118355Y-68081D01*
X118444Y-68094D01*
X316448Y-68094D01*
X316490Y-68087D01*
X316532Y-68089D01*
X316599Y-68067D01*
X316669Y-68055D01*
X316705Y-68033D01*
X316746Y-68020D01*
X316818Y-67966D01*
X316862Y-67940D01*
X316875Y-67924D01*
X316896Y-67908D01*
X359316Y-25488D01*
X359367Y-25415D01*
X359423Y-25346D01*
X359431Y-25324D01*
X359445Y-25304D01*
X359467Y-25218D01*
X359495Y-25134D01*
X359495Y-25110D01*
X359500Y-25087D01*
X359491Y-24998D01*
X359489Y-24909D01*
X359480Y-24887D01*
X359477Y-24864D01*
X359438Y-24784D01*
X359404Y-24702D01*
X359388Y-24684D01*
X359378Y-24663D01*
X359313Y-24602D01*
X359253Y-24536D01*
X359232Y-24525D01*
X359215Y-24509D01*
X359133Y-24474D01*
X359053Y-24433D01*
X359027Y-24430D01*
X359008Y-24421D01*
X358958Y-24419D01*
X358868Y-24406D01*
X303444Y-24406D01*
X303357Y-24421D01*
X303268Y-24431D01*
X303247Y-24441D01*
X303223Y-24445D01*
X303147Y-24491D01*
X303067Y-24530D01*
X303051Y-24547D01*
X303030Y-24560D01*
X302974Y-24629D01*
X302913Y-24693D01*
X302904Y-24715D01*
X302889Y-24734D01*
X302860Y-24818D01*
X302826Y-24900D01*
X302825Y-24924D01*
X302817Y-24946D01*
X302820Y-25035D01*
X302816Y-25124D01*
X302823Y-25147D01*
X302824Y-25171D01*
X302857Y-25253D01*
X302884Y-25338D01*
X302900Y-25359D01*
X302908Y-25378D01*
X302942Y-25416D01*
X302996Y-25488D01*
X303541Y-26033D01*
X303541Y-28967D01*
X301467Y-31041D01*
X298533Y-31041D01*
X296459Y-28967D01*
X296459Y-26033D01*
X297004Y-25488D01*
X297055Y-25415D01*
X297111Y-25346D01*
X297119Y-25324D01*
X297132Y-25304D01*
X297154Y-25218D01*
X297183Y-25134D01*
X297182Y-25110D01*
X297188Y-25087D01*
X297179Y-24998D01*
X297176Y-24909D01*
X297167Y-24887D01*
X297165Y-24864D01*
X297125Y-24784D01*
X297092Y-24702D01*
X297076Y-24684D01*
X297066Y-24663D01*
X297001Y-24602D01*
X296941Y-24536D01*
X296920Y-24525D01*
X296902Y-24509D01*
X296820Y-24474D01*
X296741Y-24433D01*
X296715Y-24430D01*
X296696Y-24421D01*
X296645Y-24419D01*
X296556Y-24406D01*
X210944Y-24406D01*
X210857Y-24421D01*
X210768Y-24431D01*
X210747Y-24441D01*
X210723Y-24445D01*
X210647Y-24491D01*
X210567Y-24530D01*
X210551Y-24547D01*
X210530Y-24560D01*
X210474Y-24629D01*
X210413Y-24693D01*
X210404Y-24715D01*
X210389Y-24734D01*
X210360Y-24818D01*
X210326Y-24900D01*
X210325Y-24924D01*
X210317Y-24946D01*
X210320Y-25035D01*
X210316Y-25124D01*
X210323Y-25147D01*
X210324Y-25171D01*
X210357Y-25253D01*
X210384Y-25338D01*
X210400Y-25359D01*
X210408Y-25378D01*
X210442Y-25416D01*
X210496Y-25488D01*
X211041Y-26033D01*
X211041Y-28967D01*
X208967Y-31041D01*
X206033Y-31041D01*
X203959Y-28967D01*
X203959Y-26033D01*
X204504Y-25488D01*
X204555Y-25415D01*
X204611Y-25346D01*
X204619Y-25324D01*
X204632Y-25304D01*
X204654Y-25218D01*
X204683Y-25134D01*
X204682Y-25110D01*
X204688Y-25087D01*
X204679Y-24998D01*
X204676Y-24909D01*
X204667Y-24887D01*
X204665Y-24864D01*
X204625Y-24784D01*
X204592Y-24702D01*
X204576Y-24684D01*
X204566Y-24663D01*
X204501Y-24602D01*
X204441Y-24536D01*
X204420Y-24525D01*
X204402Y-24509D01*
X204320Y-24474D01*
X204241Y-24433D01*
X204215Y-24430D01*
X204196Y-24421D01*
X204145Y-24419D01*
X204056Y-24406D01*
X200944Y-24406D01*
X200857Y-24421D01*
X200768Y-24431D01*
X200747Y-24441D01*
X200723Y-24445D01*
X200647Y-24491D01*
X200567Y-24530D01*
X200551Y-24547D01*
X200530Y-24560D01*
X200474Y-24629D01*
X200413Y-24693D01*
X200404Y-24715D01*
X200389Y-24734D01*
X200360Y-24818D01*
X200326Y-24900D01*
X200325Y-24924D01*
X200317Y-24946D01*
X200320Y-25035D01*
X200316Y-25124D01*
X200323Y-25147D01*
X200324Y-25171D01*
X200357Y-25253D01*
X200384Y-25338D01*
X200400Y-25359D01*
X200408Y-25378D01*
X200442Y-25416D01*
X200496Y-25488D01*
X201041Y-26033D01*
X201041Y-28967D01*
X198967Y-31041D01*
X196033Y-31041D01*
X193959Y-28967D01*
X193959Y-26033D01*
X194504Y-25488D01*
X194555Y-25415D01*
X194611Y-25346D01*
X194619Y-25324D01*
X194632Y-25304D01*
X194654Y-25218D01*
X194683Y-25134D01*
X194682Y-25110D01*
X194688Y-25087D01*
X194679Y-24998D01*
X194676Y-24909D01*
X194667Y-24887D01*
X194665Y-24864D01*
X194625Y-24784D01*
X194592Y-24702D01*
X194576Y-24684D01*
X194566Y-24663D01*
X194501Y-24602D01*
X194441Y-24536D01*
X194420Y-24525D01*
X194402Y-24509D01*
X194320Y-24474D01*
X194241Y-24433D01*
X194215Y-24430D01*
X194196Y-24421D01*
X194145Y-24419D01*
X194056Y-24406D01*
X98364Y-24406D01*
X98323Y-24413D01*
X98280Y-24411D01*
X98213Y-24433D01*
X98144Y-24445D01*
X98107Y-24467D01*
X98067Y-24480D01*
X97994Y-24534D01*
X97950Y-24560D01*
X97937Y-24576D01*
X97916Y-24592D01*
X96467Y-26041D01*
X93533Y-26041D01*
X91459Y-23967D01*
X91459Y-21033D01*
X92004Y-20488D01*
X92055Y-20415D01*
X92111Y-20346D01*
X92119Y-20324D01*
X92132Y-20304D01*
X92154Y-20218D01*
X92183Y-20134D01*
X92182Y-20110D01*
X92188Y-20087D01*
X92179Y-19998D01*
X92176Y-19909D01*
X92167Y-19887D01*
X92165Y-19864D01*
X92125Y-19784D01*
X92092Y-19702D01*
X92076Y-19684D01*
X92066Y-19663D01*
X92001Y-19602D01*
X91941Y-19536D01*
X91920Y-19525D01*
X91902Y-19509D01*
X91820Y-19474D01*
X91741Y-19433D01*
X91715Y-19430D01*
X91696Y-19421D01*
X91645Y-19419D01*
X91556Y-19406D01*
X71052Y-19406D01*
X71010Y-19413D01*
X70968Y-19411D01*
X70901Y-19433D01*
X70831Y-19445D01*
X70795Y-19467D01*
X70754Y-19480D01*
X70682Y-19534D01*
X70638Y-19560D01*
X70625Y-19576D01*
X70604Y-19592D01*
X-408Y-90604D01*
X-409Y-90604D01*
X-1711Y-91906D01*
X-54136Y-91906D01*
X-54177Y-91913D01*
X-54220Y-91911D01*
X-54287Y-91933D01*
X-54356Y-91945D01*
X-54393Y-91967D01*
X-54433Y-91980D01*
X-54506Y-92034D01*
X-54550Y-92060D01*
X-54563Y-92076D01*
X-54584Y-92092D01*
X-56033Y-93541D01*
X-58967Y-93541D01*
X-59512Y-92996D01*
X-59585Y-92945D01*
X-59654Y-92889D01*
X-59676Y-92881D01*
X-59696Y-92868D01*
X-59782Y-92846D01*
X-59866Y-92817D01*
X-59890Y-92818D01*
X-59913Y-92812D01*
X-60002Y-92821D01*
X-60091Y-92824D01*
X-60113Y-92833D01*
X-60136Y-92835D01*
X-60216Y-92875D01*
X-60298Y-92908D01*
X-60316Y-92924D01*
X-60337Y-92934D01*
X-60398Y-92999D01*
X-60464Y-93059D01*
X-60475Y-93080D01*
X-60491Y-93098D01*
X-60526Y-93180D01*
X-60567Y-93259D01*
X-60570Y-93285D01*
X-60579Y-93304D01*
X-60581Y-93355D01*
X-60594Y-93444D01*
X-60594Y-126448D01*
X-60587Y-126490D01*
X-60589Y-126532D01*
X-60567Y-126599D01*
X-60555Y-126669D01*
X-60533Y-126705D01*
X-60520Y-126746D01*
X-60466Y-126818D01*
X-60440Y-126862D01*
X-60424Y-126875D01*
X-60408Y-126896D01*
X-51031Y-136273D01*
X-50997Y-136298D01*
X-50968Y-136329D01*
X-50905Y-136361D01*
X-50847Y-136402D01*
X-50806Y-136412D01*
X-50768Y-136432D01*
X-50679Y-136445D01*
X-50630Y-136458D01*
X-50609Y-136455D01*
X-50583Y-136459D01*
X-48533Y-136459D01*
X-46459Y-138533D01*
X-46459Y-141467D01*
X-48533Y-143541D01*
X-51467Y-143541D01*
X-53541Y-141467D01*
X-53541Y-139417D01*
X-53548Y-139375D01*
X-53546Y-139333D01*
X-53568Y-139266D01*
X-53580Y-139196D01*
X-53602Y-139160D01*
X-53615Y-139119D01*
X-53669Y-139047D01*
X-53695Y-139003D01*
X-53711Y-138990D01*
X-53727Y-138969D01*
X-64406Y-128289D01*
X-64406Y-86711D01*
X-10789Y-33094D01*
X38948Y-33094D01*
X38990Y-33087D01*
X39032Y-33089D01*
X39099Y-33067D01*
X39169Y-33055D01*
X39205Y-33033D01*
X39246Y-33020D01*
X39318Y-32966D01*
X39362Y-32940D01*
X39375Y-32924D01*
X39396Y-32908D01*
X46816Y-25488D01*
X46867Y-25415D01*
X46923Y-25346D01*
X46931Y-25324D01*
X46945Y-25304D01*
X46967Y-25218D01*
X46995Y-25134D01*
X46995Y-25110D01*
X47000Y-25087D01*
X46991Y-24998D01*
X46989Y-24909D01*
X46980Y-24887D01*
X46977Y-24864D01*
X46938Y-24784D01*
X46904Y-24702D01*
X46888Y-24684D01*
X46878Y-24663D01*
X46813Y-24602D01*
X46753Y-24536D01*
X46732Y-24525D01*
X46715Y-24509D01*
X46633Y-24474D01*
X46553Y-24433D01*
X46527Y-24430D01*
X46508Y-24421D01*
X46458Y-24419D01*
X46368Y-24406D01*
X28444Y-24406D01*
X28357Y-24421D01*
X28268Y-24431D01*
X28247Y-24441D01*
X28223Y-24445D01*
X28147Y-24491D01*
X28067Y-24530D01*
X28051Y-24547D01*
X28030Y-24560D01*
X27974Y-24629D01*
X27913Y-24693D01*
X27904Y-24715D01*
X27889Y-24734D01*
X27860Y-24818D01*
X27826Y-24900D01*
X27825Y-24924D01*
X27817Y-24946D01*
X27820Y-25035D01*
X27816Y-25124D01*
X27823Y-25147D01*
X27824Y-25171D01*
X27857Y-25253D01*
X27884Y-25338D01*
X27900Y-25359D01*
X27908Y-25378D01*
X27942Y-25416D01*
X27996Y-25488D01*
X28541Y-26033D01*
X28541Y-28967D01*
X26467Y-31041D01*
X23533Y-31041D01*
X21459Y-28967D01*
X21459Y-26675D01*
X21448Y-26610D01*
X21446Y-26544D01*
X21428Y-26501D01*
X21420Y-26454D01*
X21386Y-26397D01*
X21361Y-26337D01*
X21330Y-26302D01*
X21305Y-26261D01*
X21254Y-26219D01*
X21210Y-26171D01*
X21168Y-26149D01*
X21131Y-26120D01*
X21069Y-26099D01*
X21010Y-26068D01*
X20956Y-26060D01*
X20919Y-26048D01*
X20879Y-26049D01*
X20825Y-26041D01*
X18533Y-26041D01*
X16459Y-23967D01*
X16459Y-21033D01*
X18533Y-18959D01*
X21467Y-18959D01*
X22916Y-20408D01*
X22951Y-20433D01*
X22979Y-20464D01*
X23042Y-20496D01*
X23100Y-20537D01*
X23141Y-20547D01*
X23179Y-20567D01*
X23269Y-20580D01*
X23317Y-20593D01*
X23338Y-20590D01*
X23364Y-20594D01*
X46448Y-20594D01*
X46490Y-20587D01*
X46532Y-20589D01*
X46599Y-20567D01*
X46669Y-20555D01*
X46705Y-20533D01*
X46746Y-20520D01*
X46818Y-20466D01*
X46862Y-20440D01*
X46875Y-20424D01*
X46896Y-20408D01*
X56816Y-10488D01*
X56867Y-10415D01*
X56923Y-10346D01*
X56931Y-10324D01*
X56945Y-10304D01*
X56967Y-10218D01*
X56995Y-10134D01*
X56995Y-10110D01*
X57000Y-10087D01*
X56991Y-9998D01*
X56989Y-9909D01*
X56980Y-9887D01*
X56977Y-9864D01*
X56938Y-9784D01*
X56904Y-9702D01*
X56888Y-9684D01*
X56878Y-9663D01*
X56813Y-9602D01*
X56753Y-9536D01*
X56732Y-9525D01*
X56715Y-9509D01*
X56633Y-9474D01*
X56553Y-9433D01*
X56527Y-9430D01*
X56508Y-9421D01*
X56458Y-9419D01*
X56368Y-9406D01*
X-4136Y-9406D01*
X-4177Y-9413D01*
X-4220Y-9411D01*
X-4287Y-9433D01*
X-4356Y-9445D01*
X-4393Y-9467D01*
X-4433Y-9480D01*
X-4506Y-9534D01*
X-4550Y-9560D01*
X-4563Y-9576D01*
X-4584Y-9592D01*
X-6033Y-11041D01*
X-8967Y-11041D01*
X-11041Y-8967D01*
X-11041Y-6033D01*
X-8967Y-3959D01*
X-6033Y-3959D01*
X-4584Y-5408D01*
X-4549Y-5433D01*
X-4521Y-5464D01*
X-4458Y-5496D01*
X-4400Y-5537D01*
X-4359Y-5547D01*
X-4321Y-5567D01*
X-4231Y-5580D01*
X-4183Y-5593D01*
X-4162Y-5590D01*
X-4136Y-5594D01*
X56448Y-5594D01*
X56490Y-5587D01*
X56532Y-5589D01*
X56599Y-5567D01*
X56669Y-5555D01*
X56705Y-5533D01*
X56746Y-5520D01*
X56818Y-5466D01*
X56862Y-5440D01*
X56875Y-5424D01*
X56896Y-5408D01*
X95181Y32877D01*
X95232Y32950D01*
X95288Y33019D01*
X95296Y33041D01*
X95310Y33061D01*
X95332Y33147D01*
X95360Y33231D01*
X95360Y33255D01*
X95365Y33278D01*
X95356Y33367D01*
X95354Y33456D01*
X95345Y33478D01*
X95342Y33501D01*
X95303Y33581D01*
X95269Y33663D01*
X95253Y33681D01*
X95243Y33702D01*
X95178Y33763D01*
X95118Y33829D01*
X95097Y33840D01*
X95080Y33856D01*
X94998Y33891D01*
X94918Y33932D01*
X94892Y33935D01*
X94873Y33944D01*
X94823Y33946D01*
X94733Y33959D01*
X93533Y33959D01*
X92084Y35408D01*
X92049Y35433D01*
X92021Y35464D01*
X91958Y35496D01*
X91900Y35537D01*
X91859Y35547D01*
X91821Y35567D01*
X91731Y35580D01*
X91683Y35593D01*
X91662Y35590D01*
X91636Y35594D01*
X-4136Y35594D01*
X-4177Y35587D01*
X-4220Y35589D01*
X-4287Y35567D01*
X-4356Y35555D01*
X-4393Y35533D01*
X-4433Y35520D01*
X-4506Y35466D01*
X-4550Y35440D01*
X-4563Y35424D01*
X-4584Y35408D01*
X-6033Y33959D01*
X-8083Y33959D01*
X-8125Y33952D01*
X-8167Y33954D01*
X-8234Y33932D01*
X-8304Y33920D01*
X-8340Y33898D01*
X-8381Y33885D01*
X-8453Y33831D01*
X-8497Y33805D01*
X-8510Y33789D01*
X-8531Y33773D01*
X-215408Y-173104D01*
X-215433Y-173138D01*
X-215464Y-173167D01*
X-215496Y-173230D01*
X-215537Y-173288D01*
X-215547Y-173329D01*
X-215567Y-173367D01*
X-215580Y-173456D01*
X-215593Y-173505D01*
X-215590Y-173526D01*
X-215594Y-173552D01*
X-215594Y-179136D01*
X-215587Y-179177D01*
X-215589Y-179220D01*
X-215567Y-179287D01*
X-215555Y-179356D01*
X-215533Y-179393D01*
X-215520Y-179433D01*
X-215466Y-179506D01*
X-215440Y-179550D01*
X-215424Y-179563D01*
X-215408Y-179584D01*
X-213959Y-181033D01*
X-213959Y-183967D01*
X-216033Y-186041D01*
X-218967Y-186041D01*
G37*
%LPD*%
%LPC*%
G36*
X-38967Y-108541D02*
X-38967Y-108541D01*
X-41041Y-106467D01*
X-41041Y-103533D01*
X-38967Y-101459D01*
X-36033Y-101459D01*
X-34584Y-102908D01*
X-34549Y-102933D01*
X-34521Y-102964D01*
X-34458Y-102996D01*
X-34400Y-103037D01*
X-34359Y-103047D01*
X-34321Y-103067D01*
X-34231Y-103080D01*
X-34183Y-103093D01*
X-34162Y-103090D01*
X-34136Y-103094D01*
X39056Y-103094D01*
X39143Y-103079D01*
X39232Y-103069D01*
X39253Y-103059D01*
X39277Y-103055D01*
X39353Y-103009D01*
X39433Y-102970D01*
X39449Y-102953D01*
X39470Y-102940D01*
X39526Y-102871D01*
X39587Y-102807D01*
X39596Y-102785D01*
X39611Y-102766D01*
X39640Y-102682D01*
X39674Y-102600D01*
X39675Y-102576D01*
X39683Y-102554D01*
X39680Y-102465D01*
X39684Y-102376D01*
X39677Y-102353D01*
X39676Y-102329D01*
X39643Y-102247D01*
X39616Y-102162D01*
X39600Y-102141D01*
X39592Y-102122D01*
X39558Y-102084D01*
X39504Y-102012D01*
X38959Y-101467D01*
X38959Y-98533D01*
X41033Y-96459D01*
X43967Y-96459D01*
X46041Y-98533D01*
X46041Y-101467D01*
X45496Y-102012D01*
X45445Y-102085D01*
X45389Y-102154D01*
X45381Y-102176D01*
X45368Y-102196D01*
X45346Y-102282D01*
X45317Y-102366D01*
X45318Y-102390D01*
X45312Y-102413D01*
X45321Y-102502D01*
X45324Y-102591D01*
X45333Y-102613D01*
X45335Y-102636D01*
X45375Y-102716D01*
X45408Y-102798D01*
X45424Y-102816D01*
X45434Y-102837D01*
X45499Y-102898D01*
X45559Y-102964D01*
X45580Y-102975D01*
X45598Y-102991D01*
X45680Y-103026D01*
X45759Y-103067D01*
X45785Y-103070D01*
X45804Y-103079D01*
X45855Y-103081D01*
X45944Y-103094D01*
X53948Y-103094D01*
X53990Y-103087D01*
X54032Y-103089D01*
X54099Y-103067D01*
X54169Y-103055D01*
X54205Y-103033D01*
X54246Y-103020D01*
X54318Y-102966D01*
X54362Y-102940D01*
X54375Y-102924D01*
X54396Y-102908D01*
X66711Y-90594D01*
X91636Y-90594D01*
X91677Y-90587D01*
X91720Y-90589D01*
X91787Y-90567D01*
X91856Y-90555D01*
X91893Y-90533D01*
X91933Y-90520D01*
X92006Y-90466D01*
X92050Y-90440D01*
X92063Y-90424D01*
X92084Y-90408D01*
X93533Y-88959D01*
X96467Y-88959D01*
X98541Y-91033D01*
X98541Y-93083D01*
X98548Y-93125D01*
X98546Y-93167D01*
X98568Y-93234D01*
X98580Y-93304D01*
X98602Y-93340D01*
X98615Y-93381D01*
X98669Y-93453D01*
X98695Y-93497D01*
X98711Y-93510D01*
X98727Y-93531D01*
X100604Y-95408D01*
X100638Y-95433D01*
X100667Y-95464D01*
X100730Y-95496D01*
X100788Y-95537D01*
X100829Y-95547D01*
X100867Y-95567D01*
X100956Y-95580D01*
X101005Y-95593D01*
X101026Y-95590D01*
X101052Y-95594D01*
X111556Y-95594D01*
X111643Y-95579D01*
X111732Y-95569D01*
X111753Y-95559D01*
X111777Y-95555D01*
X111853Y-95509D01*
X111933Y-95470D01*
X111949Y-95453D01*
X111970Y-95440D01*
X112026Y-95371D01*
X112087Y-95307D01*
X112096Y-95285D01*
X112111Y-95266D01*
X112140Y-95182D01*
X112174Y-95100D01*
X112175Y-95076D01*
X112183Y-95054D01*
X112180Y-94965D01*
X112184Y-94876D01*
X112177Y-94853D01*
X112176Y-94829D01*
X112143Y-94747D01*
X112116Y-94662D01*
X112100Y-94641D01*
X112092Y-94622D01*
X112058Y-94584D01*
X112004Y-94512D01*
X111459Y-93967D01*
X111459Y-91033D01*
X113533Y-88959D01*
X116467Y-88959D01*
X118541Y-91033D01*
X118541Y-93967D01*
X117996Y-94512D01*
X117945Y-94585D01*
X117889Y-94654D01*
X117881Y-94676D01*
X117868Y-94696D01*
X117846Y-94782D01*
X117817Y-94866D01*
X117818Y-94890D01*
X117812Y-94913D01*
X117821Y-95002D01*
X117824Y-95091D01*
X117833Y-95113D01*
X117835Y-95136D01*
X117875Y-95216D01*
X117908Y-95298D01*
X117924Y-95316D01*
X117934Y-95337D01*
X117999Y-95398D01*
X118059Y-95464D01*
X118080Y-95475D01*
X118098Y-95491D01*
X118180Y-95526D01*
X118259Y-95567D01*
X118285Y-95570D01*
X118304Y-95579D01*
X118355Y-95581D01*
X118444Y-95594D01*
X343948Y-95594D01*
X343990Y-95587D01*
X344032Y-95589D01*
X344099Y-95567D01*
X344169Y-95555D01*
X344205Y-95533D01*
X344246Y-95520D01*
X344318Y-95466D01*
X344362Y-95440D01*
X344375Y-95424D01*
X344396Y-95408D01*
X376711Y-63094D01*
X388289Y-63094D01*
X389591Y-64396D01*
X391783Y-66588D01*
X391846Y-66632D01*
X391905Y-66683D01*
X391938Y-66695D01*
X391967Y-66716D01*
X392042Y-66735D01*
X392114Y-66762D01*
X392150Y-66763D01*
X392184Y-66772D01*
X392261Y-66764D01*
X392339Y-66764D01*
X392372Y-66752D01*
X392407Y-66748D01*
X392477Y-66714D01*
X392550Y-66688D01*
X392577Y-66665D01*
X392608Y-66649D01*
X392661Y-66593D01*
X392721Y-66542D01*
X392741Y-66508D01*
X392762Y-66486D01*
X392780Y-66443D01*
X392817Y-66382D01*
X393200Y-65457D01*
X395457Y-63200D01*
X398405Y-61979D01*
X401595Y-61979D01*
X404543Y-63200D01*
X406800Y-65457D01*
X408021Y-68405D01*
X408021Y-71595D01*
X406800Y-74543D01*
X404543Y-76800D01*
X401595Y-78021D01*
X398405Y-78021D01*
X395457Y-76800D01*
X393200Y-74543D01*
X392270Y-72297D01*
X392241Y-72252D01*
X392220Y-72202D01*
X392181Y-72158D01*
X392149Y-72108D01*
X392106Y-72076D01*
X392069Y-72036D01*
X392017Y-72009D01*
X391969Y-71974D01*
X391918Y-71958D01*
X391869Y-71933D01*
X391799Y-71923D01*
X391754Y-71910D01*
X391724Y-71912D01*
X391715Y-71910D01*
X386896Y-67092D01*
X386862Y-67067D01*
X386833Y-67036D01*
X386770Y-67004D01*
X386712Y-66963D01*
X386671Y-66953D01*
X386633Y-66933D01*
X386544Y-66920D01*
X386495Y-66907D01*
X386474Y-66910D01*
X386448Y-66906D01*
X378552Y-66906D01*
X378510Y-66913D01*
X378468Y-66911D01*
X378401Y-66933D01*
X378331Y-66945D01*
X378295Y-66967D01*
X378254Y-66980D01*
X378182Y-67034D01*
X378138Y-67060D01*
X378125Y-67076D01*
X378104Y-67092D01*
X345789Y-99406D01*
X99175Y-99406D01*
X99110Y-99417D01*
X99044Y-99419D01*
X99001Y-99437D01*
X98954Y-99445D01*
X98897Y-99479D01*
X98837Y-99504D01*
X98802Y-99535D01*
X98761Y-99560D01*
X98719Y-99611D01*
X98671Y-99655D01*
X98649Y-99697D01*
X98620Y-99734D01*
X98599Y-99796D01*
X98568Y-99855D01*
X98560Y-99909D01*
X98548Y-99946D01*
X98549Y-99986D01*
X98541Y-100040D01*
X98541Y-101467D01*
X96467Y-103541D01*
X93533Y-103541D01*
X91459Y-101467D01*
X91459Y-98533D01*
X93294Y-96698D01*
X93332Y-96644D01*
X93377Y-96597D01*
X93395Y-96553D01*
X93422Y-96514D01*
X93439Y-96451D01*
X93464Y-96390D01*
X93466Y-96343D01*
X93478Y-96297D01*
X93471Y-96232D01*
X93474Y-96166D01*
X93460Y-96121D01*
X93455Y-96074D01*
X93426Y-96015D01*
X93406Y-95952D01*
X93373Y-95908D01*
X93356Y-95873D01*
X93327Y-95846D01*
X93294Y-95801D01*
X92084Y-94591D01*
X92049Y-94567D01*
X92021Y-94536D01*
X91958Y-94504D01*
X91900Y-94463D01*
X91859Y-94453D01*
X91821Y-94433D01*
X91731Y-94420D01*
X91683Y-94407D01*
X91662Y-94410D01*
X91636Y-94406D01*
X85944Y-94406D01*
X85857Y-94421D01*
X85768Y-94431D01*
X85747Y-94441D01*
X85723Y-94445D01*
X85647Y-94491D01*
X85567Y-94530D01*
X85551Y-94547D01*
X85530Y-94560D01*
X85474Y-94629D01*
X85413Y-94693D01*
X85404Y-94715D01*
X85389Y-94734D01*
X85360Y-94818D01*
X85326Y-94900D01*
X85325Y-94924D01*
X85317Y-94946D01*
X85320Y-95035D01*
X85316Y-95124D01*
X85323Y-95147D01*
X85324Y-95171D01*
X85357Y-95253D01*
X85384Y-95338D01*
X85400Y-95359D01*
X85408Y-95378D01*
X85442Y-95416D01*
X85496Y-95488D01*
X86041Y-96033D01*
X86041Y-98967D01*
X83967Y-101041D01*
X81033Y-101041D01*
X78959Y-98967D01*
X78959Y-96033D01*
X79504Y-95488D01*
X79555Y-95415D01*
X79611Y-95346D01*
X79619Y-95324D01*
X79632Y-95304D01*
X79654Y-95218D01*
X79683Y-95134D01*
X79682Y-95110D01*
X79688Y-95087D01*
X79679Y-94998D01*
X79676Y-94909D01*
X79667Y-94887D01*
X79665Y-94864D01*
X79625Y-94784D01*
X79592Y-94702D01*
X79576Y-94684D01*
X79566Y-94663D01*
X79501Y-94602D01*
X79441Y-94536D01*
X79420Y-94525D01*
X79402Y-94509D01*
X79320Y-94474D01*
X79241Y-94433D01*
X79215Y-94430D01*
X79196Y-94421D01*
X79145Y-94419D01*
X79056Y-94406D01*
X68552Y-94406D01*
X68510Y-94413D01*
X68468Y-94411D01*
X68401Y-94433D01*
X68331Y-94445D01*
X68295Y-94467D01*
X68254Y-94480D01*
X68182Y-94534D01*
X68138Y-94560D01*
X68125Y-94576D01*
X68104Y-94592D01*
X55789Y-106906D01*
X-34136Y-106906D01*
X-34177Y-106913D01*
X-34220Y-106911D01*
X-34287Y-106933D01*
X-34356Y-106945D01*
X-34393Y-106967D01*
X-34433Y-106980D01*
X-34506Y-107034D01*
X-34550Y-107060D01*
X-34563Y-107076D01*
X-34584Y-107092D01*
X-36033Y-108541D01*
X-38967Y-108541D01*
G37*
%LPD*%
%LPC*%
G36*
X-240078Y152689D02*
X-240078Y152689D01*
X-242311Y154922D01*
X-242311Y158078D01*
X-239078Y161311D01*
X-201841Y161311D01*
X-201799Y161318D01*
X-201757Y161316D01*
X-201690Y161338D01*
X-201620Y161350D01*
X-201584Y161372D01*
X-201543Y161385D01*
X-201471Y161439D01*
X-201427Y161465D01*
X-201414Y161481D01*
X-201393Y161497D01*
X-180013Y182877D01*
X-179962Y182950D01*
X-179906Y183019D01*
X-179898Y183041D01*
X-179885Y183061D01*
X-179862Y183147D01*
X-179834Y183231D01*
X-179835Y183255D01*
X-179829Y183278D01*
X-179838Y183367D01*
X-179840Y183456D01*
X-179849Y183478D01*
X-179852Y183501D01*
X-179891Y183581D01*
X-179925Y183663D01*
X-179941Y183681D01*
X-179951Y183702D01*
X-180016Y183763D01*
X-180076Y183829D01*
X-180097Y183840D01*
X-180115Y183856D01*
X-180196Y183891D01*
X-180276Y183932D01*
X-180302Y183935D01*
X-180321Y183944D01*
X-180372Y183946D01*
X-180461Y183959D01*
X-181467Y183959D01*
X-183541Y186033D01*
X-183541Y188967D01*
X-181467Y191041D01*
X-179175Y191041D01*
X-179110Y191052D01*
X-179044Y191054D01*
X-179001Y191072D01*
X-178954Y191080D01*
X-178897Y191114D01*
X-178837Y191139D01*
X-178802Y191170D01*
X-178761Y191195D01*
X-178719Y191246D01*
X-178671Y191290D01*
X-178649Y191332D01*
X-178620Y191369D01*
X-178599Y191431D01*
X-178568Y191490D01*
X-178560Y191544D01*
X-178548Y191581D01*
X-178549Y191621D01*
X-178549Y191623D01*
X-178548Y191625D01*
X-178548Y191628D01*
X-178541Y191675D01*
X-178541Y193967D01*
X-176467Y196041D01*
X-174175Y196041D01*
X-174110Y196052D01*
X-174044Y196054D01*
X-174001Y196072D01*
X-173954Y196080D01*
X-173897Y196114D01*
X-173837Y196139D01*
X-173802Y196170D01*
X-173761Y196195D01*
X-173719Y196246D01*
X-173671Y196290D01*
X-173649Y196332D01*
X-173620Y196369D01*
X-173599Y196431D01*
X-173568Y196490D01*
X-173560Y196544D01*
X-173548Y196581D01*
X-173549Y196621D01*
X-173541Y196675D01*
X-173541Y198967D01*
X-171467Y201041D01*
X-168533Y201041D01*
X-166459Y198967D01*
X-166459Y197961D01*
X-166443Y197873D01*
X-166434Y197785D01*
X-166424Y197764D01*
X-166420Y197740D01*
X-166374Y197664D01*
X-166335Y197584D01*
X-166318Y197568D01*
X-166305Y197547D01*
X-166236Y197491D01*
X-166172Y197430D01*
X-166150Y197421D01*
X-166131Y197406D01*
X-166047Y197377D01*
X-165965Y197342D01*
X-165941Y197341D01*
X-165919Y197334D01*
X-165830Y197336D01*
X-165741Y197332D01*
X-165718Y197340D01*
X-165694Y197340D01*
X-165612Y197374D01*
X-165527Y197401D01*
X-165506Y197417D01*
X-165487Y197425D01*
X-165449Y197459D01*
X-165377Y197513D01*
X-106578Y256311D01*
X-91044Y256311D01*
X-91002Y256318D01*
X-90960Y256316D01*
X-90893Y256338D01*
X-90823Y256350D01*
X-90787Y256372D01*
X-90746Y256385D01*
X-90674Y256439D01*
X-90630Y256465D01*
X-90617Y256481D01*
X-90596Y256497D01*
X-88842Y258251D01*
X-85158Y258251D01*
X-82554Y255647D01*
X-82554Y251963D01*
X-84194Y250324D01*
X-84216Y250292D01*
X-84246Y250265D01*
X-84293Y250181D01*
X-84322Y250140D01*
X-84327Y250122D01*
X-84338Y250102D01*
X-84506Y249663D01*
X-85029Y249430D01*
X-85047Y249417D01*
X-85068Y249410D01*
X-85185Y249324D01*
X-85210Y249320D01*
X-85246Y249298D01*
X-85287Y249285D01*
X-85359Y249231D01*
X-85403Y249205D01*
X-85416Y249189D01*
X-85437Y249173D01*
X-85922Y248689D01*
X-86554Y248689D01*
X-86592Y248682D01*
X-86631Y248684D01*
X-86725Y248659D01*
X-86775Y248650D01*
X-86790Y248640D01*
X-86812Y248634D01*
X-87389Y248377D01*
X-88095Y248647D01*
X-88117Y248651D01*
X-88137Y248662D01*
X-88293Y248685D01*
X-88316Y248689D01*
X-88319Y248689D01*
X-88322Y248689D01*
X-103159Y248689D01*
X-103201Y248682D01*
X-103243Y248684D01*
X-103310Y248662D01*
X-103380Y248650D01*
X-103416Y248628D01*
X-103457Y248615D01*
X-103529Y248561D01*
X-103573Y248535D01*
X-103586Y248519D01*
X-103607Y248503D01*
X-198422Y153689D01*
X-235659Y153689D01*
X-235701Y153682D01*
X-235743Y153684D01*
X-235810Y153662D01*
X-235880Y153650D01*
X-235916Y153628D01*
X-235957Y153615D01*
X-236029Y153561D01*
X-236073Y153535D01*
X-236086Y153519D01*
X-236107Y153503D01*
X-236922Y152689D01*
X-240078Y152689D01*
G37*
%LPD*%
%LPC*%
G36*
X-63581Y111999D02*
X-63581Y111999D01*
X-70197Y114740D01*
X-75260Y119803D01*
X-78001Y126419D01*
X-78001Y133581D01*
X-75260Y140197D01*
X-70197Y145260D01*
X-63581Y148001D01*
X-56419Y148001D01*
X-49803Y145260D01*
X-44740Y140197D01*
X-41999Y133581D01*
X-41999Y126419D01*
X-44740Y119803D01*
X-49803Y114740D01*
X-56419Y111999D01*
X-63581Y111999D01*
G37*
%LPD*%
%LPC*%
G36*
X6419Y111999D02*
X6419Y111999D01*
X-197Y114740D01*
X-5260Y119803D01*
X-8001Y126419D01*
X-8001Y133581D01*
X-5260Y140197D01*
X-197Y145260D01*
X6419Y148001D01*
X13581Y148001D01*
X20197Y145260D01*
X25260Y140197D01*
X28001Y133581D01*
X28001Y126419D01*
X25260Y119803D01*
X20197Y114740D01*
X13581Y111999D01*
X6419Y111999D01*
G37*
%LPD*%
%LPC*%
G36*
X-260078Y72689D02*
X-260078Y72689D01*
X-262311Y74922D01*
X-262311Y78078D01*
X-219078Y121311D01*
X-212184Y121311D01*
X-212142Y121318D01*
X-212100Y121316D01*
X-212033Y121338D01*
X-211963Y121350D01*
X-211927Y121372D01*
X-211886Y121385D01*
X-211814Y121439D01*
X-211770Y121465D01*
X-211766Y121470D01*
X-211764Y121471D01*
X-211754Y121483D01*
X-211736Y121497D01*
X-211286Y121946D01*
X-207603Y121946D01*
X-204999Y119342D01*
X-204999Y115658D01*
X-207603Y113054D01*
X-211286Y113054D01*
X-211736Y113503D01*
X-211771Y113528D01*
X-211799Y113559D01*
X-211862Y113591D01*
X-211920Y113632D01*
X-211961Y113642D01*
X-211999Y113662D01*
X-212088Y113675D01*
X-212137Y113688D01*
X-212158Y113685D01*
X-212184Y113689D01*
X-215659Y113689D01*
X-215701Y113682D01*
X-215743Y113684D01*
X-215810Y113662D01*
X-215880Y113650D01*
X-215916Y113628D01*
X-215957Y113615D01*
X-216029Y113561D01*
X-216073Y113535D01*
X-216086Y113519D01*
X-216107Y113503D01*
X-236737Y92873D01*
X-236788Y92800D01*
X-236844Y92731D01*
X-236852Y92709D01*
X-236865Y92689D01*
X-236888Y92603D01*
X-236916Y92519D01*
X-236915Y92495D01*
X-236921Y92472D01*
X-236912Y92383D01*
X-236910Y92294D01*
X-236901Y92272D01*
X-236898Y92249D01*
X-236859Y92169D01*
X-236825Y92087D01*
X-236809Y92069D01*
X-236799Y92048D01*
X-236734Y91987D01*
X-236674Y91921D01*
X-236653Y91910D01*
X-236635Y91894D01*
X-236554Y91859D01*
X-236474Y91818D01*
X-236448Y91815D01*
X-236429Y91806D01*
X-236378Y91804D01*
X-236289Y91791D01*
X-233158Y91791D01*
X-230554Y89187D01*
X-230554Y85503D01*
X-233158Y82899D01*
X-236842Y82899D01*
X-239446Y85503D01*
X-239446Y88634D01*
X-239462Y88722D01*
X-239471Y88810D01*
X-239481Y88831D01*
X-239485Y88855D01*
X-239531Y88931D01*
X-239570Y89011D01*
X-239587Y89027D01*
X-239600Y89048D01*
X-239669Y89104D01*
X-239733Y89165D01*
X-239755Y89174D01*
X-239774Y89189D01*
X-239858Y89218D01*
X-239940Y89253D01*
X-239964Y89254D01*
X-239986Y89261D01*
X-240075Y89259D01*
X-240164Y89263D01*
X-240187Y89255D01*
X-240211Y89255D01*
X-240293Y89221D01*
X-240378Y89194D01*
X-240399Y89178D01*
X-240418Y89170D01*
X-240456Y89136D01*
X-240528Y89082D01*
X-256922Y72689D01*
X-260078Y72689D01*
G37*
%LPD*%
%LPC*%
G36*
X54414Y-293001D02*
X54414Y-293001D01*
X49636Y-291021D01*
X45979Y-287364D01*
X43999Y-282586D01*
X43999Y-277414D01*
X45979Y-272636D01*
X49636Y-268979D01*
X54414Y-266999D01*
X59586Y-266999D01*
X64364Y-268979D01*
X68021Y-272636D01*
X70001Y-277414D01*
X70001Y-282586D01*
X68021Y-287364D01*
X64364Y-291021D01*
X59586Y-293001D01*
X54414Y-293001D01*
G37*
%LPD*%
%LPC*%
G36*
X-59586Y-293001D02*
X-59586Y-293001D01*
X-64364Y-291021D01*
X-68021Y-287364D01*
X-70001Y-282586D01*
X-70001Y-277414D01*
X-68021Y-272636D01*
X-64364Y-268979D01*
X-59586Y-266999D01*
X-54414Y-266999D01*
X-49636Y-268979D01*
X-45979Y-272636D01*
X-43999Y-277414D01*
X-43999Y-282586D01*
X-45979Y-287364D01*
X-49636Y-291021D01*
X-54414Y-293001D01*
X-59586Y-293001D01*
G37*
%LPD*%
%LPC*%
G36*
X372414Y-128001D02*
X372414Y-128001D01*
X367636Y-126021D01*
X363979Y-122364D01*
X361999Y-117586D01*
X361999Y-112414D01*
X363979Y-107636D01*
X367636Y-103979D01*
X372414Y-101999D01*
X377586Y-101999D01*
X382364Y-103979D01*
X386021Y-107636D01*
X388001Y-112414D01*
X388001Y-117586D01*
X386021Y-122364D01*
X382364Y-126021D01*
X377586Y-128001D01*
X372414Y-128001D01*
G37*
%LPD*%
%LPC*%
G36*
X372414Y181999D02*
X372414Y181999D01*
X367636Y183979D01*
X363979Y187636D01*
X361999Y192414D01*
X361999Y197586D01*
X363979Y202364D01*
X367636Y206021D01*
X372414Y208001D01*
X377586Y208001D01*
X382364Y206021D01*
X386021Y202364D01*
X388001Y197586D01*
X388001Y192414D01*
X386021Y187636D01*
X382364Y183979D01*
X377586Y181999D01*
X372414Y181999D01*
G37*
%LPD*%
%LPC*%
G36*
X-377586Y181999D02*
X-377586Y181999D01*
X-382364Y183979D01*
X-386021Y187636D01*
X-388001Y192414D01*
X-388001Y197586D01*
X-386021Y202364D01*
X-382364Y206021D01*
X-377586Y208001D01*
X-372414Y208001D01*
X-367636Y206021D01*
X-363979Y202364D01*
X-361999Y197586D01*
X-361999Y192414D01*
X-363979Y187636D01*
X-367636Y183979D01*
X-372414Y181999D01*
X-377586Y181999D01*
G37*
%LPD*%
%LPC*%
G36*
X-377586Y-128001D02*
X-377586Y-128001D01*
X-382364Y-126021D01*
X-386021Y-122364D01*
X-388001Y-117586D01*
X-388001Y-112414D01*
X-386021Y-107636D01*
X-382364Y-103979D01*
X-377586Y-101999D01*
X-372414Y-101999D01*
X-367636Y-103979D01*
X-363979Y-107636D01*
X-361999Y-112414D01*
X-361999Y-117586D01*
X-363979Y-122364D01*
X-367636Y-126021D01*
X-372414Y-128001D01*
X-377586Y-128001D01*
G37*
%LPD*%
%LPC*%
G36*
X-27192Y-221021D02*
X-27192Y-221021D01*
X-31243Y-219343D01*
X-34343Y-216243D01*
X-36021Y-212192D01*
X-36021Y-207808D01*
X-34343Y-203757D01*
X-31243Y-200657D01*
X-27192Y-198979D01*
X-22808Y-198979D01*
X-18757Y-200657D01*
X-15657Y-203757D01*
X-13979Y-207808D01*
X-13979Y-212192D01*
X-15657Y-216243D01*
X-18757Y-219343D01*
X-22808Y-221021D01*
X-27192Y-221021D01*
G37*
%LPD*%
%LPC*%
G36*
X-27192Y-366021D02*
X-27192Y-366021D01*
X-31243Y-364343D01*
X-34343Y-361243D01*
X-36021Y-357192D01*
X-36021Y-352808D01*
X-34343Y-348757D01*
X-31243Y-345657D01*
X-27192Y-343979D01*
X-22808Y-343979D01*
X-18757Y-345657D01*
X-15657Y-348757D01*
X-13979Y-352808D01*
X-13979Y-357192D01*
X-15657Y-361243D01*
X-18757Y-364343D01*
X-22808Y-366021D01*
X-27192Y-366021D01*
G37*
%LPD*%
%LPC*%
G36*
X22808Y-366021D02*
X22808Y-366021D01*
X18757Y-364343D01*
X15657Y-361243D01*
X13979Y-357192D01*
X13979Y-352808D01*
X15657Y-348757D01*
X18757Y-345657D01*
X22808Y-343979D01*
X27192Y-343979D01*
X31243Y-345657D01*
X34343Y-348757D01*
X36021Y-352808D01*
X36021Y-357192D01*
X34343Y-361243D01*
X31243Y-364343D01*
X27192Y-366021D01*
X22808Y-366021D01*
G37*
%LPD*%
%LPC*%
G36*
X-161894Y107779D02*
X-161894Y107779D01*
X-165393Y109229D01*
X-168071Y111907D01*
X-169521Y115406D01*
X-169521Y119194D01*
X-168071Y122693D01*
X-165393Y125371D01*
X-161894Y126821D01*
X-158106Y126821D01*
X-154607Y125371D01*
X-151929Y122693D01*
X-150479Y119194D01*
X-150479Y115406D01*
X-151929Y111907D01*
X-154607Y109229D01*
X-158106Y107779D01*
X-161894Y107779D01*
G37*
%LPD*%
%LPC*%
G36*
X-61745Y-178771D02*
X-61745Y-178771D01*
X-64968Y-177435D01*
X-67435Y-174968D01*
X-68771Y-171745D01*
X-68771Y-168255D01*
X-67435Y-165032D01*
X-64968Y-162565D01*
X-61745Y-161229D01*
X-58255Y-161229D01*
X-55032Y-162565D01*
X-52565Y-165032D01*
X-51229Y-168255D01*
X-51229Y-171745D01*
X-52565Y-174968D01*
X-55032Y-177435D01*
X-58255Y-178771D01*
X-61745Y-178771D01*
G37*
%LPD*%
%LPC*%
G36*
X58255Y-178771D02*
X58255Y-178771D01*
X55032Y-177435D01*
X52565Y-174968D01*
X51229Y-171745D01*
X51229Y-168255D01*
X52565Y-165032D01*
X55032Y-162565D01*
X58255Y-161229D01*
X61745Y-161229D01*
X64968Y-162565D01*
X67435Y-165032D01*
X68771Y-168255D01*
X68771Y-171745D01*
X67435Y-174968D01*
X64968Y-177435D01*
X61745Y-178771D01*
X58255Y-178771D01*
G37*
%LPD*%
%LPC*%
G36*
X-21745Y-178771D02*
X-21745Y-178771D01*
X-24968Y-177435D01*
X-27435Y-174968D01*
X-28771Y-171745D01*
X-28771Y-168255D01*
X-27435Y-165032D01*
X-24968Y-162565D01*
X-21745Y-161229D01*
X-18255Y-161229D01*
X-15032Y-162565D01*
X-12565Y-165032D01*
X-11229Y-168255D01*
X-11229Y-171745D01*
X-12565Y-174968D01*
X-15032Y-177435D01*
X-18255Y-178771D01*
X-21745Y-178771D01*
G37*
%LPD*%
%LPC*%
G36*
X398405Y41979D02*
X398405Y41979D01*
X395457Y43200D01*
X393200Y45457D01*
X391979Y48405D01*
X391979Y51595D01*
X393200Y54543D01*
X395457Y56800D01*
X398405Y58021D01*
X401595Y58021D01*
X404543Y56800D01*
X406800Y54543D01*
X408021Y51595D01*
X408021Y48405D01*
X406800Y45457D01*
X404543Y43200D01*
X401595Y41979D01*
X398405Y41979D01*
G37*
%LPD*%
%LPC*%
G36*
X398405Y81979D02*
X398405Y81979D01*
X395457Y83200D01*
X393200Y85457D01*
X391979Y88405D01*
X391979Y91595D01*
X393200Y94543D01*
X395457Y96800D01*
X398405Y98021D01*
X401595Y98021D01*
X404543Y96800D01*
X406800Y94543D01*
X408021Y91595D01*
X408021Y88405D01*
X406800Y85457D01*
X404543Y83200D01*
X401595Y81979D01*
X398405Y81979D01*
G37*
%LPD*%
%LPC*%
G36*
X-401595Y81479D02*
X-401595Y81479D01*
X-404543Y82700D01*
X-406800Y84957D01*
X-408021Y87905D01*
X-408021Y91095D01*
X-406800Y94043D01*
X-404543Y96300D01*
X-401595Y97521D01*
X-398405Y97521D01*
X-395457Y96300D01*
X-393200Y94043D01*
X-391979Y91095D01*
X-391979Y87905D01*
X-393200Y84957D01*
X-395457Y82700D01*
X-398405Y81479D01*
X-401595Y81479D01*
G37*
%LPD*%
%LPC*%
G36*
X398405Y61979D02*
X398405Y61979D01*
X395457Y63200D01*
X393200Y65457D01*
X391979Y68405D01*
X391979Y71595D01*
X393200Y74543D01*
X395457Y76800D01*
X398405Y78021D01*
X401595Y78021D01*
X404543Y76800D01*
X406800Y74543D01*
X408021Y71595D01*
X408021Y68405D01*
X406800Y65457D01*
X404543Y63200D01*
X401595Y61979D01*
X398405Y61979D01*
G37*
%LPD*%
%LPC*%
G36*
X398405Y141979D02*
X398405Y141979D01*
X395457Y143200D01*
X393200Y145457D01*
X391979Y148405D01*
X391979Y151595D01*
X393200Y154543D01*
X395457Y156800D01*
X398405Y158021D01*
X401595Y158021D01*
X404543Y156800D01*
X406800Y154543D01*
X408021Y151595D01*
X408021Y148405D01*
X406800Y145457D01*
X404543Y143200D01*
X401595Y141979D01*
X398405Y141979D01*
G37*
%LPD*%
%LPC*%
G36*
X398405Y121979D02*
X398405Y121979D01*
X395457Y123200D01*
X393200Y125457D01*
X391979Y128405D01*
X391979Y131595D01*
X393200Y134543D01*
X395457Y136800D01*
X398405Y138021D01*
X401595Y138021D01*
X404543Y136800D01*
X406800Y134543D01*
X408021Y131595D01*
X408021Y128405D01*
X406800Y125457D01*
X404543Y123200D01*
X401595Y121979D01*
X398405Y121979D01*
G37*
%LPD*%
%LPC*%
G36*
X-401595Y121479D02*
X-401595Y121479D01*
X-404543Y122700D01*
X-406800Y124957D01*
X-408021Y127905D01*
X-408021Y131095D01*
X-406800Y134043D01*
X-404543Y136300D01*
X-401595Y137521D01*
X-398405Y137521D01*
X-395457Y136300D01*
X-393200Y134043D01*
X-391979Y131095D01*
X-391979Y127905D01*
X-393200Y124957D01*
X-395457Y122700D01*
X-398405Y121479D01*
X-401595Y121479D01*
G37*
%LPD*%
%LPC*%
G36*
X-401595Y141479D02*
X-401595Y141479D01*
X-404543Y142700D01*
X-406800Y144957D01*
X-408021Y147905D01*
X-408021Y151095D01*
X-406800Y154043D01*
X-404543Y156300D01*
X-401595Y157521D01*
X-398405Y157521D01*
X-395457Y156300D01*
X-393200Y154043D01*
X-391979Y151095D01*
X-391979Y147905D01*
X-393200Y144957D01*
X-395457Y142700D01*
X-398405Y141479D01*
X-401595Y141479D01*
G37*
%LPD*%
%LPC*%
G36*
X-401595Y-78521D02*
X-401595Y-78521D01*
X-404543Y-77300D01*
X-406800Y-75043D01*
X-408021Y-72095D01*
X-408021Y-68905D01*
X-406800Y-65957D01*
X-404543Y-63700D01*
X-401595Y-62479D01*
X-398405Y-62479D01*
X-395457Y-63700D01*
X-393200Y-65957D01*
X-391979Y-68905D01*
X-391979Y-72095D01*
X-393200Y-75043D01*
X-395457Y-77300D01*
X-398405Y-78521D01*
X-401595Y-78521D01*
G37*
%LPD*%
%LPC*%
G36*
X-401595Y-58521D02*
X-401595Y-58521D01*
X-404543Y-57300D01*
X-406800Y-55043D01*
X-408021Y-52095D01*
X-408021Y-48905D01*
X-406800Y-45957D01*
X-404543Y-43700D01*
X-401595Y-42479D01*
X-398405Y-42479D01*
X-395457Y-43700D01*
X-393200Y-45957D01*
X-391979Y-48905D01*
X-391979Y-52095D01*
X-393200Y-55043D01*
X-395457Y-57300D01*
X-398405Y-58521D01*
X-401595Y-58521D01*
G37*
%LPD*%
%LPC*%
G36*
X398405Y-58021D02*
X398405Y-58021D01*
X395457Y-56800D01*
X393200Y-54543D01*
X391979Y-51595D01*
X391979Y-48405D01*
X393200Y-45457D01*
X395457Y-43200D01*
X398405Y-41979D01*
X401595Y-41979D01*
X404543Y-43200D01*
X406800Y-45457D01*
X408021Y-48405D01*
X408021Y-51595D01*
X406800Y-54543D01*
X404543Y-56800D01*
X401595Y-58021D01*
X398405Y-58021D01*
G37*
%LPD*%
%LPC*%
G36*
X-401595Y61479D02*
X-401595Y61479D01*
X-404543Y62700D01*
X-406800Y64957D01*
X-408021Y67905D01*
X-408021Y71095D01*
X-406800Y74043D01*
X-404543Y76300D01*
X-401595Y77521D01*
X-398405Y77521D01*
X-395457Y76300D01*
X-393200Y74043D01*
X-391979Y71095D01*
X-391979Y67905D01*
X-393200Y64957D01*
X-395457Y62700D01*
X-398405Y61479D01*
X-401595Y61479D01*
G37*
%LPD*%
%LPC*%
G36*
X-401595Y-38521D02*
X-401595Y-38521D01*
X-404543Y-37300D01*
X-406800Y-35043D01*
X-408021Y-32095D01*
X-408021Y-28905D01*
X-406800Y-25957D01*
X-404543Y-23700D01*
X-401595Y-22479D01*
X-398405Y-22479D01*
X-395457Y-23700D01*
X-393200Y-25957D01*
X-391979Y-28905D01*
X-391979Y-32095D01*
X-393200Y-35043D01*
X-395457Y-37300D01*
X-398405Y-38521D01*
X-401595Y-38521D01*
G37*
%LPD*%
%LPC*%
G36*
X-401595Y1479D02*
X-401595Y1479D01*
X-404543Y2700D01*
X-406800Y4957D01*
X-408021Y7905D01*
X-408021Y11095D01*
X-406800Y14043D01*
X-404543Y16300D01*
X-401595Y17521D01*
X-398405Y17521D01*
X-395457Y16300D01*
X-393200Y14043D01*
X-391979Y11095D01*
X-391979Y7905D01*
X-393200Y4957D01*
X-395457Y2700D01*
X-398405Y1479D01*
X-401595Y1479D01*
G37*
%LPD*%
%LPC*%
G36*
X398405Y101979D02*
X398405Y101979D01*
X395457Y103200D01*
X393200Y105457D01*
X391979Y108405D01*
X391979Y111595D01*
X393200Y114543D01*
X395457Y116800D01*
X398405Y118021D01*
X401595Y118021D01*
X404543Y116800D01*
X406800Y114543D01*
X408021Y111595D01*
X408021Y108405D01*
X406800Y105457D01*
X404543Y103200D01*
X401595Y101979D01*
X398405Y101979D01*
G37*
%LPD*%
%LPC*%
G36*
X-401595Y-18521D02*
X-401595Y-18521D01*
X-404543Y-17300D01*
X-406800Y-15043D01*
X-408021Y-12095D01*
X-408021Y-8905D01*
X-406800Y-5957D01*
X-404543Y-3700D01*
X-401595Y-2479D01*
X-398405Y-2479D01*
X-395457Y-3700D01*
X-393200Y-5957D01*
X-391979Y-8905D01*
X-391979Y-12095D01*
X-393200Y-15043D01*
X-395457Y-17300D01*
X-398405Y-18521D01*
X-401595Y-18521D01*
G37*
%LPD*%
%LPC*%
G36*
X-401595Y21479D02*
X-401595Y21479D01*
X-404543Y22700D01*
X-406800Y24957D01*
X-408021Y27905D01*
X-408021Y31095D01*
X-406800Y34043D01*
X-404543Y36300D01*
X-401595Y37521D01*
X-398405Y37521D01*
X-395457Y36300D01*
X-393200Y34043D01*
X-391979Y31095D01*
X-391979Y27905D01*
X-393200Y24957D01*
X-395457Y22700D01*
X-398405Y21479D01*
X-401595Y21479D01*
G37*
%LPD*%
%LPC*%
G36*
X-223967Y-296041D02*
X-223967Y-296041D01*
X-226041Y-293967D01*
X-226041Y-291033D01*
X-223967Y-288959D01*
X-221917Y-288959D01*
X-221875Y-288952D01*
X-221833Y-288954D01*
X-221766Y-288932D01*
X-221696Y-288920D01*
X-221660Y-288898D01*
X-221619Y-288885D01*
X-221547Y-288831D01*
X-221503Y-288805D01*
X-221490Y-288789D01*
X-221469Y-288773D01*
X-203727Y-271031D01*
X-203702Y-270997D01*
X-203671Y-270968D01*
X-203639Y-270905D01*
X-203598Y-270847D01*
X-203588Y-270806D01*
X-203568Y-270768D01*
X-203555Y-270679D01*
X-203542Y-270630D01*
X-203545Y-270609D01*
X-203541Y-270583D01*
X-203541Y-268533D01*
X-201467Y-266459D01*
X-198533Y-266459D01*
X-196459Y-268533D01*
X-196459Y-271467D01*
X-198533Y-273541D01*
X-200583Y-273541D01*
X-200625Y-273548D01*
X-200667Y-273546D01*
X-200734Y-273568D01*
X-200804Y-273580D01*
X-200840Y-273602D01*
X-200881Y-273615D01*
X-200953Y-273669D01*
X-200997Y-273695D01*
X-201010Y-273711D01*
X-201031Y-273727D01*
X-218773Y-291469D01*
X-218798Y-291503D01*
X-218829Y-291532D01*
X-218861Y-291595D01*
X-218902Y-291653D01*
X-218912Y-291694D01*
X-218932Y-291732D01*
X-218945Y-291821D01*
X-218958Y-291870D01*
X-218955Y-291891D01*
X-218959Y-291917D01*
X-218959Y-293967D01*
X-221033Y-296041D01*
X-223967Y-296041D01*
G37*
%LPD*%
%LPC*%
G36*
X-296467Y-291041D02*
X-296467Y-291041D01*
X-298541Y-288967D01*
X-298541Y-286033D01*
X-297092Y-284584D01*
X-297067Y-284549D01*
X-297036Y-284521D01*
X-297004Y-284458D01*
X-296963Y-284400D01*
X-296953Y-284359D01*
X-296933Y-284321D01*
X-296920Y-284231D01*
X-296907Y-284183D01*
X-296910Y-284162D01*
X-296906Y-284136D01*
X-296906Y-275864D01*
X-296913Y-275823D01*
X-296911Y-275780D01*
X-296933Y-275713D01*
X-296945Y-275644D01*
X-296967Y-275607D01*
X-296980Y-275567D01*
X-297034Y-275494D01*
X-297060Y-275450D01*
X-297076Y-275437D01*
X-297092Y-275416D01*
X-298541Y-273967D01*
X-298541Y-271033D01*
X-296467Y-268959D01*
X-293533Y-268959D01*
X-291459Y-271033D01*
X-291459Y-273967D01*
X-292908Y-275416D01*
X-292933Y-275451D01*
X-292964Y-275479D01*
X-292996Y-275542D01*
X-293037Y-275600D01*
X-293047Y-275641D01*
X-293067Y-275679D01*
X-293080Y-275769D01*
X-293093Y-275817D01*
X-293090Y-275838D01*
X-293094Y-275864D01*
X-293094Y-284136D01*
X-293087Y-284177D01*
X-293089Y-284220D01*
X-293067Y-284287D01*
X-293055Y-284356D01*
X-293033Y-284393D01*
X-293020Y-284433D01*
X-292966Y-284506D01*
X-292940Y-284550D01*
X-292924Y-284563D01*
X-292908Y-284584D01*
X-291459Y-286033D01*
X-291459Y-288967D01*
X-293533Y-291041D01*
X-296467Y-291041D01*
G37*
%LPD*%
%LPC*%
G36*
X-2878Y-366988D02*
X-2878Y-366988D01*
X-4718Y-366390D01*
X-6442Y-365512D01*
X-8007Y-364375D01*
X-9375Y-363007D01*
X-10512Y-361442D01*
X-11390Y-359718D01*
X-11988Y-357878D01*
X-12243Y-356269D01*
X-1269Y-356269D01*
X-1269Y-367243D01*
X-2878Y-366988D01*
G37*
%LPD*%
%LPC*%
G36*
X26269Y-211269D02*
X26269Y-211269D01*
X37243Y-211269D01*
X36988Y-212878D01*
X36390Y-214718D01*
X35512Y-216442D01*
X34375Y-218007D01*
X33007Y-219375D01*
X31442Y-220512D01*
X29718Y-221390D01*
X27878Y-221988D01*
X26269Y-222243D01*
X26269Y-211269D01*
G37*
%LPD*%
%LPC*%
G36*
X1269Y-356269D02*
X1269Y-356269D01*
X12243Y-356269D01*
X11988Y-357878D01*
X11390Y-359718D01*
X10512Y-361442D01*
X9375Y-363007D01*
X8007Y-364375D01*
X6442Y-365512D01*
X4718Y-366390D01*
X2878Y-366988D01*
X1269Y-367243D01*
X1269Y-356269D01*
G37*
%LPD*%
%LPC*%
G36*
X1269Y-353731D02*
X1269Y-353731D01*
X1269Y-342757D01*
X2878Y-343012D01*
X4718Y-343610D01*
X6442Y-344488D01*
X8007Y-345625D01*
X9375Y-346993D01*
X10512Y-348558D01*
X11390Y-350282D01*
X11988Y-352122D01*
X12243Y-353731D01*
X1269Y-353731D01*
G37*
%LPD*%
%LPC*%
G36*
X22122Y-221988D02*
X22122Y-221988D01*
X20282Y-221390D01*
X18558Y-220512D01*
X16993Y-219375D01*
X15625Y-218007D01*
X14488Y-216442D01*
X13610Y-214718D01*
X13012Y-212878D01*
X12757Y-211269D01*
X23731Y-211269D01*
X23731Y-222243D01*
X22122Y-221988D01*
G37*
%LPD*%
%LPC*%
G36*
X26269Y-208731D02*
X26269Y-208731D01*
X26269Y-197757D01*
X27878Y-198012D01*
X29718Y-198610D01*
X31442Y-199488D01*
X33007Y-200625D01*
X34375Y-201993D01*
X35512Y-203558D01*
X36390Y-205282D01*
X36988Y-207122D01*
X37243Y-208731D01*
X26269Y-208731D01*
G37*
%LPD*%
%LPC*%
G36*
X-12243Y-353731D02*
X-12243Y-353731D01*
X-11988Y-352122D01*
X-11390Y-350282D01*
X-10512Y-348558D01*
X-9375Y-346993D01*
X-8007Y-345625D01*
X-6442Y-344488D01*
X-4718Y-343610D01*
X-2878Y-343012D01*
X-1269Y-342757D01*
X-1269Y-353731D01*
X-12243Y-353731D01*
G37*
%LPD*%
%LPC*%
G36*
X12757Y-208731D02*
X12757Y-208731D01*
X13012Y-207122D01*
X13610Y-205282D01*
X14488Y-203558D01*
X15625Y-201993D01*
X16993Y-200625D01*
X18558Y-199488D01*
X20282Y-198610D01*
X22122Y-198012D01*
X23731Y-197757D01*
X23731Y-208731D01*
X12757Y-208731D01*
G37*
%LPD*%
%LPC*%
G36*
X-8967Y81459D02*
X-8967Y81459D01*
X-11041Y83533D01*
X-11041Y85825D01*
X-11052Y85890D01*
X-11054Y85956D01*
X-11072Y85999D01*
X-11080Y86046D01*
X-11114Y86103D01*
X-11139Y86163D01*
X-11170Y86198D01*
X-11195Y86239D01*
X-11246Y86281D01*
X-11290Y86329D01*
X-11332Y86351D01*
X-11369Y86380D01*
X-11431Y86401D01*
X-11490Y86432D01*
X-11544Y86440D01*
X-11581Y86452D01*
X-11621Y86451D01*
X-11675Y86459D01*
X-13967Y86459D01*
X-16041Y88533D01*
X-16041Y91467D01*
X-13967Y93541D01*
X-11033Y93541D01*
X-8959Y91467D01*
X-8959Y89175D01*
X-8948Y89110D01*
X-8946Y89044D01*
X-8928Y89001D01*
X-8920Y88954D01*
X-8886Y88897D01*
X-8861Y88837D01*
X-8830Y88802D01*
X-8805Y88761D01*
X-8754Y88719D01*
X-8710Y88671D01*
X-8668Y88649D01*
X-8631Y88620D01*
X-8569Y88599D01*
X-8510Y88568D01*
X-8456Y88560D01*
X-8419Y88548D01*
X-8379Y88549D01*
X-8325Y88541D01*
X-6033Y88541D01*
X-3959Y86467D01*
X-3959Y83533D01*
X-6033Y81459D01*
X-8967Y81459D01*
G37*
%LPD*%
%LPC*%
G36*
X-170724Y143969D02*
X-170724Y143969D01*
X-170525Y145227D01*
X-170000Y146842D01*
X-169229Y148356D01*
X-168231Y149730D01*
X-167030Y150931D01*
X-165656Y151929D01*
X-164142Y152700D01*
X-162527Y153225D01*
X-161269Y153424D01*
X-161269Y143969D01*
X-170724Y143969D01*
G37*
%LPD*%
%LPC*%
G36*
X-158731Y143969D02*
X-158731Y143969D01*
X-158731Y153424D01*
X-157473Y153225D01*
X-155858Y152700D01*
X-154344Y151929D01*
X-152970Y150931D01*
X-151769Y149730D01*
X-150771Y148356D01*
X-150000Y146842D01*
X-149475Y145227D01*
X-149276Y143969D01*
X-158731Y143969D01*
G37*
%LPD*%
%LPC*%
G36*
X-162527Y132175D02*
X-162527Y132175D01*
X-164142Y132700D01*
X-165656Y133471D01*
X-167030Y134469D01*
X-168231Y135670D01*
X-169229Y137044D01*
X-170000Y138558D01*
X-170525Y140173D01*
X-170724Y141431D01*
X-161269Y141431D01*
X-161269Y131976D01*
X-162527Y132175D01*
G37*
%LPD*%
%LPC*%
G36*
X-158731Y141431D02*
X-158731Y141431D01*
X-149276Y141431D01*
X-149475Y140173D01*
X-150000Y138558D01*
X-150771Y137044D01*
X-151769Y135670D01*
X-152970Y134469D01*
X-154344Y133471D01*
X-155858Y132700D01*
X-157473Y132175D01*
X-158731Y131976D01*
X-158731Y141431D01*
G37*
%LPD*%
%LPC*%
G36*
X-403842Y-296891D02*
X-403842Y-296891D01*
X-406446Y-294287D01*
X-406446Y-290603D01*
X-403842Y-287999D01*
X-400158Y-287999D01*
X-397554Y-290603D01*
X-397554Y-294287D01*
X-400158Y-296891D01*
X-403842Y-296891D01*
G37*
%LPD*%
%LPC*%
G36*
X-296842Y166049D02*
X-296842Y166049D01*
X-299446Y168653D01*
X-299446Y172337D01*
X-296842Y174941D01*
X-293158Y174941D01*
X-290554Y172337D01*
X-290554Y168653D01*
X-293158Y166049D01*
X-296842Y166049D01*
G37*
%LPD*%
%LPC*%
G36*
X-367397Y-309446D02*
X-367397Y-309446D01*
X-370001Y-306842D01*
X-370001Y-303158D01*
X-367397Y-300554D01*
X-363713Y-300554D01*
X-361109Y-303158D01*
X-361109Y-306842D01*
X-363713Y-309446D01*
X-367397Y-309446D01*
G37*
%LPD*%
%LPC*%
G36*
X-236842Y28209D02*
X-236842Y28209D01*
X-239446Y30813D01*
X-239446Y34497D01*
X-236842Y37101D01*
X-233158Y37101D01*
X-230554Y34497D01*
X-230554Y30813D01*
X-233158Y28209D01*
X-236842Y28209D01*
G37*
%LPD*%
%LPC*%
G36*
X-112397Y113054D02*
X-112397Y113054D01*
X-115001Y115658D01*
X-115001Y119342D01*
X-112397Y121946D01*
X-108713Y121946D01*
X-106109Y119342D01*
X-106109Y115658D01*
X-108713Y113054D01*
X-112397Y113054D01*
G37*
%LPD*%
%LPC*%
G36*
X-287342Y119000D02*
X-287342Y119000D01*
X-289946Y121604D01*
X-289946Y125288D01*
X-287342Y127892D01*
X-283658Y127892D01*
X-281054Y125288D01*
X-281054Y121604D01*
X-283658Y119000D01*
X-287342Y119000D01*
G37*
%LPD*%
%LPC*%
G36*
X-261842Y108209D02*
X-261842Y108209D01*
X-264446Y110813D01*
X-264446Y114497D01*
X-261842Y117101D01*
X-258158Y117101D01*
X-255554Y114497D01*
X-255554Y110813D01*
X-258158Y108209D01*
X-261842Y108209D01*
G37*
%LPD*%
%LPC*%
G36*
X-260787Y-306946D02*
X-260787Y-306946D01*
X-263391Y-304342D01*
X-263391Y-300658D01*
X-260787Y-298054D01*
X-257103Y-298054D01*
X-254499Y-300658D01*
X-254499Y-304342D01*
X-257103Y-306946D01*
X-260787Y-306946D01*
G37*
%LPD*%
%LPC*%
G36*
X21269Y-171269D02*
X21269Y-171269D01*
X29965Y-171269D01*
X29794Y-172351D01*
X29305Y-173854D01*
X28588Y-175262D01*
X27659Y-176541D01*
X26541Y-177659D01*
X25262Y-178588D01*
X23854Y-179305D01*
X22351Y-179794D01*
X21269Y-179965D01*
X21269Y-171269D01*
G37*
%LPD*%
%LPC*%
G36*
X21269Y-168731D02*
X21269Y-168731D01*
X21269Y-160035D01*
X22351Y-160206D01*
X23854Y-160695D01*
X25262Y-161412D01*
X26541Y-162341D01*
X27659Y-163459D01*
X28588Y-164738D01*
X29305Y-166146D01*
X29794Y-167649D01*
X29965Y-168731D01*
X21269Y-168731D01*
G37*
%LPD*%
%LPC*%
G36*
X17649Y-179794D02*
X17649Y-179794D01*
X16146Y-179305D01*
X14738Y-178588D01*
X13459Y-177659D01*
X12341Y-176541D01*
X11412Y-175262D01*
X10695Y-173854D01*
X10206Y-172351D01*
X10035Y-171269D01*
X18731Y-171269D01*
X18731Y-179965D01*
X17649Y-179794D01*
G37*
%LPD*%
%LPC*%
G36*
X10035Y-168731D02*
X10035Y-168731D01*
X10206Y-167649D01*
X10695Y-166146D01*
X11412Y-164738D01*
X12341Y-163459D01*
X13459Y-162341D01*
X14738Y-161412D01*
X16146Y-160695D01*
X17649Y-160206D01*
X18731Y-160035D01*
X18731Y-168731D01*
X10035Y-168731D01*
G37*
%LPD*%
%LPC*%
G36*
X-409220Y110769D02*
X-409220Y110769D01*
X-408934Y112210D01*
X-408233Y113901D01*
X-407217Y115423D01*
X-405923Y116717D01*
X-404401Y117733D01*
X-402710Y118434D01*
X-401269Y118720D01*
X-401269Y110769D01*
X-409220Y110769D01*
G37*
%LPD*%
%LPC*%
G36*
X401269Y-31269D02*
X401269Y-31269D01*
X409220Y-31269D01*
X408934Y-32710D01*
X408233Y-34401D01*
X407217Y-35923D01*
X405923Y-37217D01*
X404401Y-38233D01*
X402710Y-38934D01*
X401269Y-39220D01*
X401269Y-31269D01*
G37*
%LPD*%
%LPC*%
G36*
X-409220Y50769D02*
X-409220Y50769D01*
X-408934Y52210D01*
X-408233Y53901D01*
X-407217Y55423D01*
X-405923Y56717D01*
X-404401Y57733D01*
X-402710Y58434D01*
X-401269Y58720D01*
X-401269Y50769D01*
X-409220Y50769D01*
G37*
%LPD*%
%LPC*%
G36*
X401269Y31269D02*
X401269Y31269D01*
X401269Y39220D01*
X402710Y38934D01*
X404401Y38233D01*
X405923Y37217D01*
X407217Y35923D01*
X408233Y34401D01*
X408934Y32710D01*
X409220Y31269D01*
X401269Y31269D01*
G37*
%LPD*%
%LPC*%
G36*
X-402710Y40566D02*
X-402710Y40566D01*
X-404401Y41267D01*
X-405923Y42283D01*
X-407217Y43577D01*
X-408233Y45099D01*
X-408934Y46790D01*
X-409220Y48231D01*
X-401269Y48231D01*
X-401269Y40280D01*
X-402710Y40566D01*
G37*
%LPD*%
%LPC*%
G36*
X-402710Y100566D02*
X-402710Y100566D01*
X-404401Y101267D01*
X-405923Y102283D01*
X-407217Y103577D01*
X-408233Y105099D01*
X-408934Y106790D01*
X-409220Y108231D01*
X-401269Y108231D01*
X-401269Y100280D01*
X-402710Y100566D01*
G37*
%LPD*%
%LPC*%
G36*
X401269Y-28731D02*
X401269Y-28731D01*
X401269Y-20780D01*
X402710Y-21066D01*
X404401Y-21767D01*
X405923Y-22783D01*
X407217Y-24077D01*
X408233Y-25599D01*
X408934Y-27290D01*
X409220Y-28731D01*
X401269Y-28731D01*
G37*
%LPD*%
%LPC*%
G36*
X-398731Y50769D02*
X-398731Y50769D01*
X-398731Y58720D01*
X-397290Y58434D01*
X-395599Y57733D01*
X-394077Y56717D01*
X-392783Y55423D01*
X-391767Y53901D01*
X-391066Y52210D01*
X-390780Y50769D01*
X-398731Y50769D01*
G37*
%LPD*%
%LPC*%
G36*
X397290Y-38934D02*
X397290Y-38934D01*
X395599Y-38233D01*
X394077Y-37217D01*
X392783Y-35923D01*
X391767Y-34401D01*
X391066Y-32710D01*
X390780Y-31269D01*
X398731Y-31269D01*
X398731Y-39220D01*
X397290Y-38934D01*
G37*
%LPD*%
%LPC*%
G36*
X-398731Y110769D02*
X-398731Y110769D01*
X-398731Y118720D01*
X-397290Y118434D01*
X-395599Y117733D01*
X-394077Y116717D01*
X-392783Y115423D01*
X-391767Y113901D01*
X-391066Y112210D01*
X-390780Y110769D01*
X-398731Y110769D01*
G37*
%LPD*%
%LPC*%
G36*
X-398731Y48231D02*
X-398731Y48231D01*
X-390780Y48231D01*
X-391066Y46790D01*
X-391767Y45099D01*
X-392783Y43577D01*
X-394077Y42283D01*
X-395599Y41267D01*
X-397290Y40566D01*
X-398731Y40280D01*
X-398731Y48231D01*
G37*
%LPD*%
%LPC*%
G36*
X-398731Y108231D02*
X-398731Y108231D01*
X-390780Y108231D01*
X-391066Y106790D01*
X-391767Y105099D01*
X-392783Y103577D01*
X-394077Y102283D01*
X-395599Y101267D01*
X-397290Y100566D01*
X-398731Y100280D01*
X-398731Y108231D01*
G37*
%LPD*%
%LPC*%
G36*
X390780Y-28731D02*
X390780Y-28731D01*
X391066Y-27290D01*
X391767Y-25599D01*
X392783Y-24077D01*
X394077Y-22783D01*
X395599Y-21767D01*
X397290Y-21066D01*
X398731Y-20780D01*
X398731Y-28731D01*
X390780Y-28731D01*
G37*
%LPD*%
%LPC*%
G36*
X338527Y-163551D02*
X338527Y-163551D01*
X336443Y-161467D01*
X336443Y-158521D01*
X338527Y-156437D01*
X341473Y-156437D01*
X343557Y-158521D01*
X343557Y-161467D01*
X341473Y-163551D01*
X338527Y-163551D01*
G37*
%LPD*%
%LPC*%
G36*
X303527Y51049D02*
X303527Y51049D01*
X301443Y53133D01*
X301443Y56079D01*
X303527Y58163D01*
X306473Y58163D01*
X308557Y56079D01*
X308557Y53133D01*
X306473Y51049D01*
X303527Y51049D01*
G37*
%LPD*%
%LPC*%
G36*
X364971Y-258557D02*
X364971Y-258557D01*
X362887Y-256473D01*
X362887Y-253527D01*
X364971Y-251443D01*
X367917Y-251443D01*
X370001Y-253527D01*
X370001Y-256473D01*
X367917Y-258557D01*
X364971Y-258557D01*
G37*
%LPD*%
%LPC*%
G36*
X-274173Y217199D02*
X-274173Y217199D01*
X-276257Y219283D01*
X-276257Y222229D01*
X-274173Y224313D01*
X-271227Y224313D01*
X-269143Y222229D01*
X-269143Y219283D01*
X-271227Y217199D01*
X-274173Y217199D01*
G37*
%LPD*%
%LPC*%
G36*
X-401473Y-163551D02*
X-401473Y-163551D01*
X-403557Y-161467D01*
X-403557Y-158521D01*
X-401473Y-156437D01*
X-398527Y-156437D01*
X-396443Y-158521D01*
X-396443Y-161467D01*
X-398527Y-163551D01*
X-401473Y-163551D01*
G37*
%LPD*%
%LPC*%
G36*
X-24223Y-33424D02*
X-24223Y-33424D01*
X-26307Y-31341D01*
X-26307Y-28394D01*
X-24223Y-26311D01*
X-21277Y-26311D01*
X-19193Y-28394D01*
X-19193Y-31341D01*
X-21277Y-33424D01*
X-24223Y-33424D01*
G37*
%LPD*%
%LPC*%
G36*
X333527Y221049D02*
X333527Y221049D01*
X331443Y223133D01*
X331443Y226079D01*
X333527Y228163D01*
X336473Y228163D01*
X338557Y226079D01*
X338557Y223133D01*
X336473Y221049D01*
X333527Y221049D01*
G37*
%LPD*%
%LPC*%
G36*
X-161473Y-163551D02*
X-161473Y-163551D01*
X-163557Y-161467D01*
X-163557Y-158521D01*
X-161473Y-156437D01*
X-158527Y-156437D01*
X-156443Y-158521D01*
X-156443Y-161467D01*
X-158527Y-163551D01*
X-161473Y-163551D01*
G37*
%LPD*%
%LPC*%
G36*
X378527Y-163551D02*
X378527Y-163551D01*
X376443Y-161467D01*
X376443Y-158521D01*
X378527Y-156437D01*
X381473Y-156437D01*
X383557Y-158521D01*
X383557Y-161467D01*
X381473Y-163551D01*
X378527Y-163551D01*
G37*
%LPD*%
%LPC*%
G36*
X-259529Y-226057D02*
X-259529Y-226057D01*
X-261613Y-223973D01*
X-261613Y-221027D01*
X-259529Y-218943D01*
X-256583Y-218943D01*
X-254499Y-221027D01*
X-254499Y-223973D01*
X-256583Y-226057D01*
X-259529Y-226057D01*
G37*
%LPD*%
%LPC*%
G36*
X43233Y71843D02*
X43233Y71843D01*
X41149Y73927D01*
X41149Y76873D01*
X43233Y78957D01*
X46179Y78957D01*
X48263Y76873D01*
X48263Y73927D01*
X46179Y71843D01*
X43233Y71843D01*
G37*
%LPD*%
%LPC*%
G36*
X91426Y115693D02*
X91426Y115693D01*
X89342Y117777D01*
X89342Y120723D01*
X91426Y122807D01*
X94372Y122807D01*
X96456Y120723D01*
X96456Y117777D01*
X94372Y115693D01*
X91426Y115693D01*
G37*
%LPD*%
%LPC*%
G36*
X68527Y116837D02*
X68527Y116837D01*
X66443Y118921D01*
X66443Y121867D01*
X68527Y123951D01*
X71473Y123951D01*
X73557Y121867D01*
X73557Y118921D01*
X71473Y116837D01*
X68527Y116837D01*
G37*
%LPD*%
%LPC*%
G36*
X41033Y-63541D02*
X41033Y-63541D01*
X38959Y-61467D01*
X38959Y-58533D01*
X41033Y-56459D01*
X43967Y-56459D01*
X46041Y-58533D01*
X46041Y-61467D01*
X43967Y-63541D01*
X41033Y-63541D01*
G37*
%LPD*%
%LPC*%
G36*
X283533Y-46041D02*
X283533Y-46041D01*
X281459Y-43967D01*
X281459Y-41033D01*
X283533Y-38959D01*
X286467Y-38959D01*
X288541Y-41033D01*
X288541Y-43967D01*
X286467Y-46041D01*
X283533Y-46041D01*
G37*
%LPD*%
%LPC*%
G36*
X128533Y-38541D02*
X128533Y-38541D01*
X126459Y-36467D01*
X126459Y-33533D01*
X128533Y-31459D01*
X131467Y-31459D01*
X133541Y-33533D01*
X133541Y-36467D01*
X131467Y-38541D01*
X128533Y-38541D01*
G37*
%LPD*%
%LPC*%
G36*
X-8967Y-31041D02*
X-8967Y-31041D01*
X-11041Y-28967D01*
X-11041Y-26033D01*
X-8967Y-23959D01*
X-6033Y-23959D01*
X-3959Y-26033D01*
X-3959Y-28967D01*
X-6033Y-31041D01*
X-8967Y-31041D01*
G37*
%LPD*%
%LPC*%
G36*
X118533Y146459D02*
X118533Y146459D01*
X116459Y148533D01*
X116459Y151467D01*
X118533Y153541D01*
X121467Y153541D01*
X123541Y151467D01*
X123541Y148533D01*
X121467Y146459D01*
X118533Y146459D01*
G37*
%LPD*%
%LPC*%
G36*
X196033Y98959D02*
X196033Y98959D01*
X193959Y101033D01*
X193959Y103967D01*
X196033Y106041D01*
X198967Y106041D01*
X201041Y103967D01*
X201041Y101033D01*
X198967Y98959D01*
X196033Y98959D01*
G37*
%LPD*%
%LPC*%
G36*
X291033Y108959D02*
X291033Y108959D01*
X288959Y111033D01*
X288959Y113967D01*
X291033Y116041D01*
X293967Y116041D01*
X296041Y113967D01*
X296041Y111033D01*
X293967Y108959D01*
X291033Y108959D01*
G37*
%LPD*%
%LPC*%
G36*
X313533Y48959D02*
X313533Y48959D01*
X311459Y51033D01*
X311459Y53967D01*
X313533Y56041D01*
X316467Y56041D01*
X318541Y53967D01*
X318541Y51033D01*
X316467Y48959D01*
X313533Y48959D01*
G37*
%LPD*%
%LPC*%
G36*
X306033Y93959D02*
X306033Y93959D01*
X303959Y96033D01*
X303959Y98967D01*
X306033Y101041D01*
X308967Y101041D01*
X311041Y98967D01*
X311041Y96033D01*
X308967Y93959D01*
X306033Y93959D01*
G37*
%LPD*%
%LPC*%
G36*
X-151467Y178959D02*
X-151467Y178959D01*
X-153541Y181033D01*
X-153541Y183967D01*
X-151467Y186041D01*
X-148533Y186041D01*
X-146459Y183967D01*
X-146459Y181033D01*
X-148533Y178959D01*
X-151467Y178959D01*
G37*
%LPD*%
%LPC*%
G36*
X346033Y101459D02*
X346033Y101459D01*
X343959Y103533D01*
X343959Y106467D01*
X346033Y108541D01*
X348967Y108541D01*
X351041Y106467D01*
X351041Y103533D01*
X348967Y101459D01*
X346033Y101459D01*
G37*
%LPD*%
%LPC*%
G36*
X318533Y148959D02*
X318533Y148959D01*
X316459Y151033D01*
X316459Y153967D01*
X318533Y156041D01*
X321467Y156041D01*
X323541Y153967D01*
X323541Y151033D01*
X321467Y148959D01*
X318533Y148959D01*
G37*
%LPD*%
%LPC*%
G36*
X-8967Y56459D02*
X-8967Y56459D01*
X-11041Y58533D01*
X-11041Y61467D01*
X-8967Y63541D01*
X-6033Y63541D01*
X-3959Y61467D01*
X-3959Y58533D01*
X-6033Y56459D01*
X-8967Y56459D01*
G37*
%LPD*%
%LPC*%
G36*
X346033Y131459D02*
X346033Y131459D01*
X343959Y133533D01*
X343959Y136467D01*
X346033Y138541D01*
X348967Y138541D01*
X351041Y136467D01*
X351041Y133533D01*
X348967Y131459D01*
X346033Y131459D01*
G37*
%LPD*%
%LPC*%
G36*
X-53967Y61459D02*
X-53967Y61459D01*
X-56041Y63533D01*
X-56041Y66467D01*
X-53967Y68541D01*
X-51033Y68541D01*
X-48959Y66467D01*
X-48959Y63533D01*
X-51033Y61459D01*
X-53967Y61459D01*
G37*
%LPD*%
%LPC*%
G36*
X-91467Y81459D02*
X-91467Y81459D01*
X-93541Y83533D01*
X-93541Y86467D01*
X-91467Y88541D01*
X-88533Y88541D01*
X-86459Y86467D01*
X-86459Y83533D01*
X-88533Y81459D01*
X-91467Y81459D01*
G37*
%LPD*%
%LPC*%
G36*
X301033Y81459D02*
X301033Y81459D01*
X298959Y83533D01*
X298959Y86467D01*
X301033Y88541D01*
X303967Y88541D01*
X306041Y86467D01*
X306041Y83533D01*
X303967Y81459D01*
X301033Y81459D01*
G37*
%LPD*%
%LPC*%
G36*
X-43967Y-23541D02*
X-43967Y-23541D01*
X-46041Y-21467D01*
X-46041Y-18533D01*
X-43967Y-16459D01*
X-41033Y-16459D01*
X-38959Y-18533D01*
X-38959Y-21467D01*
X-41033Y-23541D01*
X-43967Y-23541D01*
G37*
%LPD*%
%LPC*%
G36*
X273533Y-1041D02*
X273533Y-1041D01*
X271459Y1033D01*
X271459Y3967D01*
X273533Y6041D01*
X276467Y6041D01*
X278541Y3967D01*
X278541Y1033D01*
X276467Y-1041D01*
X273533Y-1041D01*
G37*
%LPD*%
%LPC*%
G36*
X-279756Y153467D02*
X-279756Y153467D01*
X-281533Y155244D01*
X-281533Y157756D01*
X-279756Y159533D01*
X-277244Y159533D01*
X-275467Y157756D01*
X-275467Y155244D01*
X-277244Y153467D01*
X-279756Y153467D01*
G37*
%LPD*%
%LPC*%
G36*
X-239756Y133467D02*
X-239756Y133467D01*
X-241533Y135244D01*
X-241533Y137756D01*
X-239756Y139533D01*
X-237244Y139533D01*
X-235467Y137756D01*
X-235467Y135244D01*
X-237244Y133467D01*
X-239756Y133467D01*
G37*
%LPD*%
%LPC*%
G36*
X-259756Y133467D02*
X-259756Y133467D01*
X-261533Y135244D01*
X-261533Y137756D01*
X-259756Y139533D01*
X-257244Y139533D01*
X-255467Y137756D01*
X-255467Y135244D01*
X-257244Y133467D01*
X-259756Y133467D01*
G37*
%LPD*%
%LPC*%
G36*
X-279756Y133467D02*
X-279756Y133467D01*
X-281533Y135244D01*
X-281533Y137756D01*
X-279756Y139533D01*
X-277244Y139533D01*
X-275467Y137756D01*
X-275467Y135244D01*
X-277244Y133467D01*
X-279756Y133467D01*
G37*
%LPD*%
%LPC*%
G36*
X-279756Y33467D02*
X-279756Y33467D01*
X-281533Y35244D01*
X-281533Y37756D01*
X-279756Y39533D01*
X-277244Y39533D01*
X-275467Y37756D01*
X-275467Y35244D01*
X-277244Y33467D01*
X-279756Y33467D01*
G37*
%LPD*%
%LPC*%
G36*
X-259756Y33467D02*
X-259756Y33467D01*
X-261533Y35244D01*
X-261533Y37756D01*
X-259756Y39533D01*
X-257244Y39533D01*
X-255467Y37756D01*
X-255467Y35244D01*
X-257244Y33467D01*
X-259756Y33467D01*
G37*
%LPD*%
%LPC*%
G36*
X-239756Y113467D02*
X-239756Y113467D01*
X-241533Y115244D01*
X-241533Y117756D01*
X-239756Y119533D01*
X-237244Y119533D01*
X-235467Y117756D01*
X-235467Y115244D01*
X-237244Y113467D01*
X-239756Y113467D01*
G37*
%LPD*%
%LPC*%
G36*
X-259756Y53467D02*
X-259756Y53467D01*
X-261533Y55244D01*
X-261533Y57756D01*
X-259756Y59533D01*
X-257244Y59533D01*
X-255467Y57756D01*
X-255467Y55244D01*
X-257244Y53467D01*
X-259756Y53467D01*
G37*
%LPD*%
%LPC*%
G36*
X-279756Y53467D02*
X-279756Y53467D01*
X-281533Y55244D01*
X-281533Y57756D01*
X-279756Y59533D01*
X-277244Y59533D01*
X-275467Y57756D01*
X-275467Y55244D01*
X-277244Y53467D01*
X-279756Y53467D01*
G37*
%LPD*%
%LPC*%
G36*
X-236256Y56967D02*
X-236256Y56967D01*
X-238033Y58744D01*
X-238033Y61256D01*
X-236256Y63033D01*
X-233744Y63033D01*
X-231967Y61256D01*
X-231967Y58744D01*
X-233744Y56967D01*
X-236256Y56967D01*
G37*
%LPD*%
%LPC*%
G36*
X-279756Y73467D02*
X-279756Y73467D01*
X-281533Y75244D01*
X-281533Y77756D01*
X-279756Y79533D01*
X-277244Y79533D01*
X-275467Y77756D01*
X-275467Y75244D01*
X-277244Y73467D01*
X-279756Y73467D01*
G37*
%LPD*%
%LPC*%
G36*
X-269756Y83467D02*
X-269756Y83467D01*
X-271533Y85244D01*
X-271533Y87756D01*
X-269756Y89533D01*
X-267244Y89533D01*
X-265467Y87756D01*
X-265467Y85244D01*
X-267244Y83467D01*
X-269756Y83467D01*
G37*
%LPD*%
%LPC*%
G36*
X-279756Y113467D02*
X-279756Y113467D01*
X-281533Y115244D01*
X-281533Y117756D01*
X-279756Y119533D01*
X-277244Y119533D01*
X-275467Y117756D01*
X-275467Y115244D01*
X-277244Y113467D01*
X-279756Y113467D01*
G37*
%LPD*%
%LPC*%
G36*
X-400001Y109499D02*
X-400001Y109499D01*
X-400001Y109501D01*
X-399999Y109501D01*
X-399999Y109499D01*
X-400001Y109499D01*
G37*
%LPD*%
%LPC*%
G36*
X-400001Y49499D02*
X-400001Y49499D01*
X-400001Y49501D01*
X-399999Y49501D01*
X-399999Y49499D01*
X-400001Y49499D01*
G37*
%LPD*%
%LPC*%
G36*
X-160001Y142699D02*
X-160001Y142699D01*
X-160001Y142701D01*
X-159999Y142701D01*
X-159999Y142699D01*
X-160001Y142699D01*
G37*
%LPD*%
%LPC*%
G36*
X19999Y-170001D02*
X19999Y-170001D01*
X19999Y-169999D01*
X20001Y-169999D01*
X20001Y-170001D01*
X19999Y-170001D01*
G37*
%LPD*%
%LPC*%
G36*
X24999Y-210001D02*
X24999Y-210001D01*
X24999Y-209999D01*
X25001Y-209999D01*
X25001Y-210001D01*
X24999Y-210001D01*
G37*
%LPD*%
%LPC*%
G36*
X399999Y-30001D02*
X399999Y-30001D01*
X399999Y-29999D01*
X400001Y-29999D01*
X400001Y-30001D01*
X399999Y-30001D01*
G37*
%LPD*%
%LPC*%
G36*
X-1Y-355001D02*
X-1Y-355001D01*
X-1Y-354999D01*
X1Y-354999D01*
X1Y-355001D01*
X-1Y-355001D01*
G37*
%LPD*%
D10*
X-278500Y156500D03*
X-238500Y156500D03*
X-278500Y56500D03*
X-346000Y66500D03*
X-346000Y106500D03*
X-326000Y126500D03*
X-278500Y116500D03*
X-238500Y116500D03*
X-278500Y136500D03*
X-258500Y136500D03*
X-238500Y136500D03*
X-258500Y56500D03*
X-278500Y36500D03*
X-258500Y36500D03*
X-268500Y86500D03*
X-258500Y76500D03*
X-278500Y76500D03*
X-326000Y86500D03*
X-326000Y106500D03*
X-346000Y86500D03*
X-346000Y126500D03*
X-326000Y66500D03*
D11*
X-400000Y149500D03*
X-400000Y-30500D03*
X-400000Y-50500D03*
X-400000Y-70500D03*
X-400000Y109500D03*
X-400000Y89500D03*
X-400000Y49500D03*
X-400000Y29500D03*
X-400000Y9500D03*
X-400000Y-10500D03*
X-400000Y69500D03*
X-400000Y129500D03*
X400000Y-70000D03*
X400000Y110000D03*
X400000Y130000D03*
X400000Y150000D03*
X400000Y-30000D03*
X400000Y-10000D03*
X400000Y30000D03*
X400000Y50000D03*
X400000Y70000D03*
X400000Y90000D03*
X400000Y10000D03*
X400000Y-50000D03*
D12*
X-20000Y-170000D03*
X60000Y-170000D03*
X-60000Y-170000D03*
X20000Y-170000D03*
D13*
X-25000Y-355000D03*
X25000Y-355000D03*
X-25000Y-210000D03*
X25000Y-210000D03*
X0Y-355000D03*
D14*
X-109388Y-537282D02*
X-109388Y-549022D01*
X-109389Y-549022D02*
X-109387Y-549155D01*
X-109381Y-549287D01*
X-109371Y-549419D01*
X-109358Y-549551D01*
X-109340Y-549683D01*
X-109319Y-549813D01*
X-109294Y-549944D01*
X-109265Y-550073D01*
X-109232Y-550201D01*
X-109196Y-550329D01*
X-109156Y-550455D01*
X-109112Y-550580D01*
X-109064Y-550704D01*
X-109013Y-550826D01*
X-108958Y-550947D01*
X-108900Y-551066D01*
X-108838Y-551184D01*
X-108773Y-551299D01*
X-108704Y-551413D01*
X-108633Y-551524D01*
X-108557Y-551633D01*
X-108479Y-551740D01*
X-108398Y-551845D01*
X-108313Y-551947D01*
X-108226Y-552047D01*
X-108136Y-552144D01*
X-108043Y-552239D01*
X-107947Y-552330D01*
X-107849Y-552419D01*
X-107748Y-552505D01*
X-107644Y-552588D01*
X-107538Y-552668D01*
X-107430Y-552744D01*
X-107320Y-552818D01*
X-107207Y-552888D01*
X-107093Y-552955D01*
X-106976Y-553018D01*
X-106858Y-553078D01*
X-106738Y-553135D01*
X-106616Y-553188D01*
X-106493Y-553237D01*
X-106369Y-553283D01*
X-106243Y-553325D01*
X-106116Y-553363D01*
X-105988Y-553398D01*
X-105859Y-553429D01*
X-105730Y-553456D01*
X-105599Y-553479D01*
X-105468Y-553499D01*
X-105336Y-553514D01*
X-105204Y-553526D01*
X-105072Y-553534D01*
X-104939Y-553538D01*
X-104807Y-553538D01*
X-104674Y-553534D01*
X-104542Y-553526D01*
X-104410Y-553514D01*
X-104278Y-553499D01*
X-104147Y-553479D01*
X-104016Y-553456D01*
X-103887Y-553429D01*
X-103758Y-553398D01*
X-103630Y-553363D01*
X-103503Y-553325D01*
X-103377Y-553283D01*
X-103253Y-553237D01*
X-103130Y-553188D01*
X-103008Y-553135D01*
X-102888Y-553078D01*
X-102770Y-553018D01*
X-102653Y-552955D01*
X-102539Y-552888D01*
X-102426Y-552818D01*
X-102316Y-552744D01*
X-102208Y-552668D01*
X-102102Y-552588D01*
X-101998Y-552505D01*
X-101897Y-552419D01*
X-101799Y-552330D01*
X-101703Y-552239D01*
X-101610Y-552144D01*
X-101520Y-552047D01*
X-101433Y-551947D01*
X-101348Y-551845D01*
X-101267Y-551740D01*
X-101189Y-551633D01*
X-101113Y-551524D01*
X-101042Y-551413D01*
X-100973Y-551299D01*
X-100908Y-551184D01*
X-100846Y-551066D01*
X-100788Y-550947D01*
X-100733Y-550826D01*
X-100682Y-550704D01*
X-100634Y-550580D01*
X-100590Y-550455D01*
X-100550Y-550329D01*
X-100514Y-550201D01*
X-100481Y-550073D01*
X-100452Y-549944D01*
X-100427Y-549813D01*
X-100406Y-549683D01*
X-100388Y-549551D01*
X-100375Y-549419D01*
X-100365Y-549287D01*
X-100359Y-549155D01*
X-100357Y-549022D01*
X-100357Y-537282D01*
X-92780Y-542701D02*
X-92780Y-558957D01*
X-92780Y-542701D02*
X-88265Y-542701D01*
X-88161Y-542703D01*
X-88058Y-542709D01*
X-87954Y-542719D01*
X-87851Y-542733D01*
X-87749Y-542751D01*
X-87648Y-542772D01*
X-87547Y-542798D01*
X-87448Y-542827D01*
X-87349Y-542860D01*
X-87252Y-542897D01*
X-87157Y-542938D01*
X-87063Y-542982D01*
X-86971Y-543030D01*
X-86881Y-543081D01*
X-86792Y-543136D01*
X-86706Y-543194D01*
X-86623Y-543256D01*
X-86541Y-543320D01*
X-86463Y-543388D01*
X-86387Y-543458D01*
X-86313Y-543531D01*
X-86243Y-543608D01*
X-86175Y-543686D01*
X-86111Y-543768D01*
X-86049Y-543851D01*
X-85991Y-543937D01*
X-85936Y-544026D01*
X-85885Y-544116D01*
X-85837Y-544208D01*
X-85793Y-544302D01*
X-85752Y-544397D01*
X-85715Y-544494D01*
X-85682Y-544593D01*
X-85653Y-544692D01*
X-85627Y-544793D01*
X-85606Y-544894D01*
X-85588Y-544996D01*
X-85574Y-545099D01*
X-85564Y-545203D01*
X-85558Y-545306D01*
X-85556Y-545410D01*
X-85556Y-550829D01*
X-85558Y-550930D01*
X-85564Y-551031D01*
X-85573Y-551132D01*
X-85586Y-551233D01*
X-85603Y-551333D01*
X-85624Y-551432D01*
X-85648Y-551530D01*
X-85676Y-551627D01*
X-85708Y-551724D01*
X-85743Y-551819D01*
X-85782Y-551912D01*
X-85824Y-552004D01*
X-85870Y-552095D01*
X-85919Y-552184D01*
X-85971Y-552270D01*
X-86027Y-552355D01*
X-86085Y-552438D01*
X-86147Y-552518D01*
X-86212Y-552596D01*
X-86279Y-552672D01*
X-86349Y-552745D01*
X-86422Y-552815D01*
X-86498Y-552882D01*
X-86576Y-552947D01*
X-86656Y-553009D01*
X-86739Y-553067D01*
X-86824Y-553123D01*
X-86911Y-553175D01*
X-86999Y-553224D01*
X-87090Y-553270D01*
X-87182Y-553312D01*
X-87275Y-553351D01*
X-87370Y-553386D01*
X-87467Y-553418D01*
X-87564Y-553446D01*
X-87662Y-553470D01*
X-87761Y-553491D01*
X-87861Y-553508D01*
X-87962Y-553521D01*
X-88063Y-553530D01*
X-88164Y-553536D01*
X-88265Y-553538D01*
X-92780Y-553538D01*
X-78712Y-558957D02*
X-78712Y-542701D01*
X-74197Y-542701D01*
X-74093Y-542703D01*
X-73990Y-542709D01*
X-73886Y-542719D01*
X-73783Y-542733D01*
X-73681Y-542751D01*
X-73580Y-542772D01*
X-73479Y-542798D01*
X-73380Y-542827D01*
X-73281Y-542860D01*
X-73184Y-542897D01*
X-73089Y-542938D01*
X-72995Y-542982D01*
X-72903Y-543030D01*
X-72813Y-543081D01*
X-72724Y-543136D01*
X-72638Y-543194D01*
X-72555Y-543256D01*
X-72473Y-543320D01*
X-72395Y-543388D01*
X-72319Y-543458D01*
X-72245Y-543531D01*
X-72175Y-543608D01*
X-72107Y-543686D01*
X-72043Y-543768D01*
X-71981Y-543851D01*
X-71923Y-543937D01*
X-71868Y-544026D01*
X-71817Y-544116D01*
X-71769Y-544208D01*
X-71725Y-544302D01*
X-71684Y-544397D01*
X-71647Y-544494D01*
X-71614Y-544593D01*
X-71585Y-544692D01*
X-71559Y-544793D01*
X-71538Y-544894D01*
X-71520Y-544996D01*
X-71506Y-545099D01*
X-71496Y-545203D01*
X-71490Y-545306D01*
X-71488Y-545410D01*
X-71487Y-545410D02*
X-71487Y-550829D01*
X-71488Y-550829D02*
X-71490Y-550930D01*
X-71496Y-551031D01*
X-71505Y-551132D01*
X-71518Y-551233D01*
X-71535Y-551333D01*
X-71556Y-551432D01*
X-71580Y-551530D01*
X-71608Y-551627D01*
X-71640Y-551724D01*
X-71675Y-551819D01*
X-71714Y-551912D01*
X-71756Y-552004D01*
X-71802Y-552095D01*
X-71851Y-552184D01*
X-71903Y-552270D01*
X-71959Y-552355D01*
X-72017Y-552438D01*
X-72079Y-552518D01*
X-72144Y-552596D01*
X-72211Y-552672D01*
X-72281Y-552745D01*
X-72354Y-552815D01*
X-72430Y-552882D01*
X-72508Y-552947D01*
X-72588Y-553009D01*
X-72671Y-553067D01*
X-72756Y-553123D01*
X-72843Y-553175D01*
X-72931Y-553224D01*
X-73022Y-553270D01*
X-73114Y-553312D01*
X-73207Y-553351D01*
X-73302Y-553386D01*
X-73399Y-553418D01*
X-73496Y-553446D01*
X-73594Y-553470D01*
X-73693Y-553491D01*
X-73793Y-553508D01*
X-73894Y-553521D01*
X-73995Y-553530D01*
X-74096Y-553536D01*
X-74197Y-553538D01*
X-78712Y-553538D01*
X-62529Y-553538D02*
X-58014Y-553538D01*
X-62529Y-553538D02*
X-62630Y-553536D01*
X-62731Y-553530D01*
X-62832Y-553521D01*
X-62933Y-553508D01*
X-63033Y-553491D01*
X-63132Y-553470D01*
X-63230Y-553446D01*
X-63327Y-553418D01*
X-63424Y-553386D01*
X-63519Y-553351D01*
X-63612Y-553312D01*
X-63704Y-553270D01*
X-63795Y-553224D01*
X-63884Y-553175D01*
X-63970Y-553123D01*
X-64055Y-553067D01*
X-64138Y-553009D01*
X-64218Y-552947D01*
X-64296Y-552882D01*
X-64372Y-552815D01*
X-64445Y-552745D01*
X-64515Y-552672D01*
X-64582Y-552596D01*
X-64647Y-552518D01*
X-64709Y-552438D01*
X-64767Y-552355D01*
X-64823Y-552270D01*
X-64875Y-552184D01*
X-64924Y-552095D01*
X-64970Y-552004D01*
X-65012Y-551912D01*
X-65051Y-551819D01*
X-65086Y-551724D01*
X-65118Y-551627D01*
X-65146Y-551530D01*
X-65170Y-551432D01*
X-65191Y-551333D01*
X-65208Y-551233D01*
X-65221Y-551132D01*
X-65230Y-551031D01*
X-65236Y-550930D01*
X-65238Y-550829D01*
X-65239Y-550829D02*
X-65239Y-546313D01*
X-65238Y-546313D02*
X-65236Y-546194D01*
X-65230Y-546074D01*
X-65220Y-545955D01*
X-65206Y-545837D01*
X-65189Y-545718D01*
X-65167Y-545601D01*
X-65142Y-545484D01*
X-65112Y-545369D01*
X-65079Y-545254D01*
X-65042Y-545140D01*
X-65002Y-545028D01*
X-64957Y-544917D01*
X-64909Y-544808D01*
X-64858Y-544700D01*
X-64803Y-544594D01*
X-64744Y-544490D01*
X-64682Y-544388D01*
X-64617Y-544288D01*
X-64548Y-544190D01*
X-64476Y-544094D01*
X-64401Y-544001D01*
X-64324Y-543911D01*
X-64243Y-543823D01*
X-64159Y-543738D01*
X-64072Y-543656D01*
X-63983Y-543576D01*
X-63891Y-543500D01*
X-63797Y-543426D01*
X-63700Y-543356D01*
X-63602Y-543289D01*
X-63501Y-543225D01*
X-63397Y-543165D01*
X-63292Y-543108D01*
X-63185Y-543055D01*
X-63077Y-543005D01*
X-62967Y-542959D01*
X-62855Y-542917D01*
X-62742Y-542878D01*
X-62628Y-542843D01*
X-62513Y-542812D01*
X-62396Y-542784D01*
X-62279Y-542761D01*
X-62162Y-542741D01*
X-62043Y-542725D01*
X-61924Y-542713D01*
X-61805Y-542705D01*
X-61686Y-542701D01*
X-61566Y-542701D01*
X-61447Y-542705D01*
X-61328Y-542713D01*
X-61209Y-542725D01*
X-61090Y-542741D01*
X-60973Y-542761D01*
X-60856Y-542784D01*
X-60739Y-542812D01*
X-60624Y-542843D01*
X-60510Y-542878D01*
X-60397Y-542917D01*
X-60285Y-542959D01*
X-60175Y-543005D01*
X-60067Y-543055D01*
X-59960Y-543108D01*
X-59855Y-543165D01*
X-59751Y-543225D01*
X-59650Y-543289D01*
X-59552Y-543356D01*
X-59455Y-543426D01*
X-59361Y-543500D01*
X-59269Y-543576D01*
X-59180Y-543656D01*
X-59093Y-543738D01*
X-59009Y-543823D01*
X-58928Y-543911D01*
X-58851Y-544001D01*
X-58776Y-544094D01*
X-58704Y-544190D01*
X-58635Y-544288D01*
X-58570Y-544388D01*
X-58508Y-544490D01*
X-58449Y-544594D01*
X-58394Y-544700D01*
X-58343Y-544808D01*
X-58295Y-544917D01*
X-58250Y-545028D01*
X-58210Y-545140D01*
X-58173Y-545254D01*
X-58140Y-545369D01*
X-58110Y-545484D01*
X-58085Y-545601D01*
X-58063Y-545718D01*
X-58046Y-545837D01*
X-58032Y-545955D01*
X-58022Y-546074D01*
X-58016Y-546194D01*
X-58014Y-546313D01*
X-58014Y-548119D01*
X-65239Y-548119D01*
X-51086Y-553538D02*
X-51086Y-542701D01*
X-45667Y-542701D01*
X-45667Y-544507D01*
X-30885Y-537282D02*
X-30885Y-553538D01*
X-32691Y-553538D02*
X-29079Y-553538D01*
X-29079Y-537282D02*
X-32691Y-537282D01*
X-22513Y-542701D02*
X-22513Y-553538D01*
X-22513Y-542701D02*
X-17998Y-542701D01*
X-17894Y-542703D01*
X-17791Y-542709D01*
X-17687Y-542719D01*
X-17584Y-542733D01*
X-17482Y-542751D01*
X-17381Y-542772D01*
X-17280Y-542798D01*
X-17181Y-542827D01*
X-17082Y-542860D01*
X-16985Y-542897D01*
X-16890Y-542938D01*
X-16796Y-542982D01*
X-16704Y-543030D01*
X-16614Y-543081D01*
X-16525Y-543136D01*
X-16439Y-543194D01*
X-16356Y-543256D01*
X-16274Y-543320D01*
X-16196Y-543388D01*
X-16120Y-543458D01*
X-16046Y-543531D01*
X-15976Y-543608D01*
X-15908Y-543686D01*
X-15844Y-543768D01*
X-15782Y-543851D01*
X-15724Y-543937D01*
X-15669Y-544026D01*
X-15618Y-544116D01*
X-15570Y-544208D01*
X-15526Y-544302D01*
X-15485Y-544397D01*
X-15448Y-544494D01*
X-15415Y-544593D01*
X-15386Y-544692D01*
X-15360Y-544793D01*
X-15339Y-544894D01*
X-15321Y-544996D01*
X-15307Y-545099D01*
X-15297Y-545203D01*
X-15291Y-545306D01*
X-15289Y-545410D01*
X-15288Y-545410D02*
X-15288Y-553538D01*
X-7924Y-553538D02*
X-7924Y-542701D01*
X-3409Y-542701D01*
X-3305Y-542703D01*
X-3202Y-542709D01*
X-3098Y-542719D01*
X-2995Y-542733D01*
X-2893Y-542751D01*
X-2792Y-542772D01*
X-2691Y-542798D01*
X-2592Y-542827D01*
X-2493Y-542860D01*
X-2396Y-542897D01*
X-2301Y-542938D01*
X-2207Y-542982D01*
X-2115Y-543030D01*
X-2025Y-543081D01*
X-1936Y-543136D01*
X-1850Y-543194D01*
X-1767Y-543256D01*
X-1685Y-543320D01*
X-1607Y-543388D01*
X-1531Y-543458D01*
X-1457Y-543531D01*
X-1387Y-543608D01*
X-1319Y-543686D01*
X-1255Y-543768D01*
X-1193Y-543851D01*
X-1135Y-543937D01*
X-1080Y-544026D01*
X-1029Y-544116D01*
X-981Y-544208D01*
X-937Y-544302D01*
X-896Y-544397D01*
X-859Y-544494D01*
X-826Y-544593D01*
X-797Y-544692D01*
X-771Y-544793D01*
X-750Y-544894D01*
X-732Y-544996D01*
X-718Y-545099D01*
X-708Y-545203D01*
X-702Y-545306D01*
X-700Y-545410D01*
X-699Y-545410D02*
X-699Y-553538D01*
X8853Y-553538D02*
X13369Y-553538D01*
X8853Y-553538D02*
X8752Y-553536D01*
X8651Y-553530D01*
X8550Y-553521D01*
X8449Y-553508D01*
X8349Y-553491D01*
X8250Y-553470D01*
X8152Y-553446D01*
X8055Y-553418D01*
X7958Y-553386D01*
X7863Y-553351D01*
X7770Y-553312D01*
X7678Y-553270D01*
X7587Y-553224D01*
X7499Y-553175D01*
X7412Y-553123D01*
X7327Y-553067D01*
X7244Y-553009D01*
X7164Y-552947D01*
X7086Y-552882D01*
X7010Y-552815D01*
X6937Y-552745D01*
X6867Y-552672D01*
X6800Y-552596D01*
X6735Y-552518D01*
X6673Y-552438D01*
X6615Y-552355D01*
X6559Y-552270D01*
X6507Y-552184D01*
X6458Y-552095D01*
X6412Y-552004D01*
X6370Y-551912D01*
X6331Y-551819D01*
X6296Y-551724D01*
X6264Y-551627D01*
X6236Y-551530D01*
X6212Y-551432D01*
X6191Y-551333D01*
X6174Y-551233D01*
X6161Y-551132D01*
X6152Y-551031D01*
X6146Y-550930D01*
X6144Y-550829D01*
X6144Y-546313D01*
X6146Y-546194D01*
X6152Y-546074D01*
X6162Y-545955D01*
X6176Y-545837D01*
X6193Y-545718D01*
X6215Y-545601D01*
X6240Y-545484D01*
X6270Y-545369D01*
X6303Y-545254D01*
X6340Y-545140D01*
X6380Y-545028D01*
X6425Y-544917D01*
X6473Y-544808D01*
X6524Y-544700D01*
X6579Y-544594D01*
X6638Y-544490D01*
X6700Y-544388D01*
X6765Y-544288D01*
X6834Y-544190D01*
X6906Y-544094D01*
X6981Y-544001D01*
X7058Y-543911D01*
X7139Y-543823D01*
X7223Y-543738D01*
X7310Y-543656D01*
X7399Y-543576D01*
X7491Y-543500D01*
X7585Y-543426D01*
X7682Y-543356D01*
X7780Y-543289D01*
X7881Y-543225D01*
X7985Y-543165D01*
X8090Y-543108D01*
X8197Y-543055D01*
X8305Y-543005D01*
X8415Y-542959D01*
X8527Y-542917D01*
X8640Y-542878D01*
X8754Y-542843D01*
X8869Y-542812D01*
X8986Y-542784D01*
X9103Y-542761D01*
X9220Y-542741D01*
X9339Y-542725D01*
X9458Y-542713D01*
X9577Y-542705D01*
X9696Y-542701D01*
X9816Y-542701D01*
X9935Y-542705D01*
X10054Y-542713D01*
X10173Y-542725D01*
X10292Y-542741D01*
X10409Y-542761D01*
X10526Y-542784D01*
X10643Y-542812D01*
X10758Y-542843D01*
X10872Y-542878D01*
X10985Y-542917D01*
X11097Y-542959D01*
X11207Y-543005D01*
X11315Y-543055D01*
X11422Y-543108D01*
X11527Y-543165D01*
X11631Y-543225D01*
X11732Y-543289D01*
X11830Y-543356D01*
X11927Y-543426D01*
X12021Y-543500D01*
X12113Y-543576D01*
X12202Y-543656D01*
X12289Y-543738D01*
X12373Y-543823D01*
X12454Y-543911D01*
X12531Y-544001D01*
X12606Y-544094D01*
X12678Y-544190D01*
X12747Y-544288D01*
X12812Y-544388D01*
X12874Y-544490D01*
X12933Y-544594D01*
X12988Y-544700D01*
X13039Y-544808D01*
X13087Y-544917D01*
X13132Y-545028D01*
X13172Y-545140D01*
X13209Y-545254D01*
X13242Y-545369D01*
X13272Y-545484D01*
X13297Y-545601D01*
X13319Y-545718D01*
X13336Y-545837D01*
X13350Y-545955D01*
X13360Y-546074D01*
X13366Y-546194D01*
X13368Y-546313D01*
X13369Y-546313D02*
X13369Y-548119D01*
X6144Y-548119D01*
X20297Y-553538D02*
X20297Y-542701D01*
X25716Y-542701D01*
X25716Y-544507D01*
X39768Y-537282D02*
X39768Y-553538D01*
X45187Y-546313D02*
X39768Y-537282D01*
X45187Y-546313D02*
X50606Y-537282D01*
X50606Y-553538D01*
X60436Y-553538D02*
X64952Y-553538D01*
X60436Y-553538D02*
X60335Y-553536D01*
X60234Y-553530D01*
X60133Y-553521D01*
X60032Y-553508D01*
X59932Y-553491D01*
X59833Y-553470D01*
X59735Y-553446D01*
X59638Y-553418D01*
X59541Y-553386D01*
X59446Y-553351D01*
X59353Y-553312D01*
X59261Y-553270D01*
X59170Y-553224D01*
X59082Y-553175D01*
X58995Y-553123D01*
X58910Y-553067D01*
X58827Y-553009D01*
X58747Y-552947D01*
X58669Y-552882D01*
X58593Y-552815D01*
X58520Y-552745D01*
X58450Y-552672D01*
X58383Y-552596D01*
X58318Y-552518D01*
X58256Y-552438D01*
X58198Y-552355D01*
X58142Y-552270D01*
X58090Y-552184D01*
X58041Y-552095D01*
X57995Y-552004D01*
X57953Y-551912D01*
X57914Y-551819D01*
X57879Y-551724D01*
X57847Y-551627D01*
X57819Y-551530D01*
X57795Y-551432D01*
X57774Y-551333D01*
X57757Y-551233D01*
X57744Y-551132D01*
X57735Y-551031D01*
X57729Y-550930D01*
X57727Y-550829D01*
X57727Y-546313D01*
X57729Y-546194D01*
X57735Y-546074D01*
X57745Y-545955D01*
X57759Y-545837D01*
X57776Y-545718D01*
X57798Y-545601D01*
X57823Y-545484D01*
X57853Y-545369D01*
X57886Y-545254D01*
X57923Y-545140D01*
X57963Y-545028D01*
X58008Y-544917D01*
X58056Y-544808D01*
X58107Y-544700D01*
X58162Y-544594D01*
X58221Y-544490D01*
X58283Y-544388D01*
X58348Y-544288D01*
X58417Y-544190D01*
X58489Y-544094D01*
X58564Y-544001D01*
X58641Y-543911D01*
X58722Y-543823D01*
X58806Y-543738D01*
X58893Y-543656D01*
X58982Y-543576D01*
X59074Y-543500D01*
X59168Y-543426D01*
X59265Y-543356D01*
X59363Y-543289D01*
X59464Y-543225D01*
X59568Y-543165D01*
X59673Y-543108D01*
X59780Y-543055D01*
X59888Y-543005D01*
X59998Y-542959D01*
X60110Y-542917D01*
X60223Y-542878D01*
X60337Y-542843D01*
X60452Y-542812D01*
X60569Y-542784D01*
X60686Y-542761D01*
X60803Y-542741D01*
X60922Y-542725D01*
X61041Y-542713D01*
X61160Y-542705D01*
X61279Y-542701D01*
X61399Y-542701D01*
X61518Y-542705D01*
X61637Y-542713D01*
X61756Y-542725D01*
X61875Y-542741D01*
X61992Y-542761D01*
X62109Y-542784D01*
X62226Y-542812D01*
X62341Y-542843D01*
X62455Y-542878D01*
X62568Y-542917D01*
X62680Y-542959D01*
X62790Y-543005D01*
X62898Y-543055D01*
X63005Y-543108D01*
X63110Y-543165D01*
X63214Y-543225D01*
X63315Y-543289D01*
X63413Y-543356D01*
X63510Y-543426D01*
X63604Y-543500D01*
X63696Y-543576D01*
X63785Y-543656D01*
X63872Y-543738D01*
X63956Y-543823D01*
X64037Y-543911D01*
X64114Y-544001D01*
X64189Y-544094D01*
X64261Y-544190D01*
X64330Y-544288D01*
X64395Y-544388D01*
X64457Y-544490D01*
X64516Y-544594D01*
X64571Y-544700D01*
X64622Y-544808D01*
X64670Y-544917D01*
X64715Y-545028D01*
X64755Y-545140D01*
X64792Y-545254D01*
X64825Y-545369D01*
X64855Y-545484D01*
X64880Y-545601D01*
X64902Y-545718D01*
X64919Y-545837D01*
X64933Y-545955D01*
X64943Y-546074D01*
X64949Y-546194D01*
X64951Y-546313D01*
X64952Y-546313D02*
X64952Y-548119D01*
X57727Y-548119D01*
X69977Y-542701D02*
X75395Y-542701D01*
X71783Y-537282D02*
X71783Y-550829D01*
X71785Y-550930D01*
X71791Y-551031D01*
X71800Y-551132D01*
X71813Y-551233D01*
X71830Y-551333D01*
X71851Y-551432D01*
X71875Y-551530D01*
X71903Y-551627D01*
X71935Y-551724D01*
X71970Y-551819D01*
X72009Y-551912D01*
X72051Y-552004D01*
X72097Y-552095D01*
X72146Y-552184D01*
X72198Y-552270D01*
X72254Y-552355D01*
X72312Y-552438D01*
X72374Y-552518D01*
X72439Y-552596D01*
X72506Y-552672D01*
X72576Y-552745D01*
X72649Y-552815D01*
X72725Y-552882D01*
X72803Y-552947D01*
X72883Y-553009D01*
X72966Y-553067D01*
X73051Y-553123D01*
X73138Y-553175D01*
X73226Y-553224D01*
X73317Y-553270D01*
X73409Y-553312D01*
X73502Y-553351D01*
X73597Y-553386D01*
X73694Y-553418D01*
X73791Y-553446D01*
X73889Y-553470D01*
X73988Y-553491D01*
X74088Y-553508D01*
X74189Y-553521D01*
X74290Y-553530D01*
X74391Y-553536D01*
X74492Y-553538D01*
X75395Y-553538D01*
X84261Y-547216D02*
X88325Y-547216D01*
X84261Y-547216D02*
X84149Y-547218D01*
X84038Y-547224D01*
X83927Y-547234D01*
X83816Y-547247D01*
X83706Y-547265D01*
X83597Y-547287D01*
X83488Y-547312D01*
X83380Y-547341D01*
X83274Y-547374D01*
X83168Y-547411D01*
X83064Y-547451D01*
X82962Y-547495D01*
X82861Y-547543D01*
X82762Y-547594D01*
X82664Y-547649D01*
X82569Y-547707D01*
X82476Y-547768D01*
X82385Y-547833D01*
X82296Y-547901D01*
X82210Y-547972D01*
X82127Y-548045D01*
X82046Y-548122D01*
X81967Y-548202D01*
X81892Y-548284D01*
X81820Y-548369D01*
X81750Y-548456D01*
X81684Y-548546D01*
X81621Y-548638D01*
X81561Y-548733D01*
X81505Y-548829D01*
X81452Y-548927D01*
X81403Y-549027D01*
X81357Y-549129D01*
X81315Y-549232D01*
X81276Y-549337D01*
X81241Y-549443D01*
X81210Y-549550D01*
X81183Y-549658D01*
X81159Y-549767D01*
X81140Y-549877D01*
X81124Y-549987D01*
X81112Y-550098D01*
X81104Y-550210D01*
X81100Y-550321D01*
X81100Y-550433D01*
X81104Y-550544D01*
X81112Y-550656D01*
X81124Y-550767D01*
X81140Y-550877D01*
X81159Y-550987D01*
X81183Y-551096D01*
X81210Y-551204D01*
X81241Y-551311D01*
X81276Y-551417D01*
X81315Y-551522D01*
X81357Y-551625D01*
X81403Y-551727D01*
X81452Y-551827D01*
X81505Y-551925D01*
X81561Y-552021D01*
X81621Y-552116D01*
X81684Y-552208D01*
X81750Y-552298D01*
X81820Y-552385D01*
X81892Y-552470D01*
X81967Y-552552D01*
X82046Y-552632D01*
X82127Y-552709D01*
X82210Y-552782D01*
X82296Y-552853D01*
X82385Y-552921D01*
X82476Y-552986D01*
X82569Y-553047D01*
X82664Y-553105D01*
X82762Y-553160D01*
X82861Y-553211D01*
X82962Y-553259D01*
X83064Y-553303D01*
X83168Y-553343D01*
X83274Y-553380D01*
X83380Y-553413D01*
X83488Y-553442D01*
X83597Y-553467D01*
X83706Y-553489D01*
X83816Y-553507D01*
X83927Y-553520D01*
X84038Y-553530D01*
X84149Y-553536D01*
X84261Y-553538D01*
X88325Y-553538D01*
X88325Y-545410D01*
X88323Y-545309D01*
X88317Y-545208D01*
X88308Y-545107D01*
X88295Y-545006D01*
X88278Y-544906D01*
X88257Y-544807D01*
X88233Y-544709D01*
X88205Y-544612D01*
X88173Y-544515D01*
X88138Y-544420D01*
X88099Y-544327D01*
X88057Y-544235D01*
X88011Y-544144D01*
X87962Y-544056D01*
X87910Y-543969D01*
X87854Y-543884D01*
X87796Y-543801D01*
X87734Y-543721D01*
X87669Y-543643D01*
X87602Y-543567D01*
X87532Y-543494D01*
X87459Y-543424D01*
X87383Y-543357D01*
X87305Y-543292D01*
X87225Y-543230D01*
X87142Y-543172D01*
X87057Y-543116D01*
X86971Y-543064D01*
X86882Y-543015D01*
X86791Y-542969D01*
X86699Y-542927D01*
X86606Y-542888D01*
X86511Y-542853D01*
X86414Y-542821D01*
X86317Y-542793D01*
X86219Y-542769D01*
X86120Y-542748D01*
X86020Y-542731D01*
X85919Y-542718D01*
X85818Y-542709D01*
X85717Y-542703D01*
X85616Y-542701D01*
X82004Y-542701D01*
X95479Y-537282D02*
X95479Y-550829D01*
X95481Y-550930D01*
X95487Y-551031D01*
X95496Y-551132D01*
X95509Y-551233D01*
X95526Y-551333D01*
X95547Y-551432D01*
X95571Y-551530D01*
X95599Y-551627D01*
X95631Y-551724D01*
X95666Y-551819D01*
X95705Y-551912D01*
X95747Y-552004D01*
X95793Y-552095D01*
X95842Y-552184D01*
X95894Y-552270D01*
X95950Y-552355D01*
X96008Y-552438D01*
X96070Y-552518D01*
X96135Y-552596D01*
X96202Y-552672D01*
X96272Y-552745D01*
X96345Y-552815D01*
X96421Y-552882D01*
X96499Y-552947D01*
X96579Y-553009D01*
X96662Y-553067D01*
X96747Y-553123D01*
X96834Y-553175D01*
X96922Y-553224D01*
X97013Y-553270D01*
X97105Y-553312D01*
X97198Y-553351D01*
X97293Y-553386D01*
X97390Y-553418D01*
X97487Y-553446D01*
X97585Y-553470D01*
X97684Y-553491D01*
X97784Y-553508D01*
X97885Y-553521D01*
X97986Y-553530D01*
X98087Y-553536D01*
X98188Y-553538D01*
D10*
X145000Y225000D03*
X-235000Y60000D03*
D15*
X-160000Y142700D03*
X-160000Y117300D03*
D10*
X220000Y305000D03*
X210000Y305000D03*
D16*
X305000Y15394D03*
X44706Y24600D03*
X70000Y159606D03*
X345176Y142500D03*
X345176Y92500D03*
X345176Y82500D03*
X262500Y59824D03*
X282500Y59824D03*
X262500Y180176D03*
X277500Y180176D03*
X292500Y180176D03*
X210000Y99606D03*
X70000Y109606D03*
X92899Y60750D03*
X86658Y67250D03*
X92899Y93250D03*
X187101Y86750D03*
X-208556Y142500D03*
X-111444Y142500D03*
X-113000Y254694D03*
X366444Y-305000D03*
X-295000Y69606D03*
X300000Y-159994D03*
X-280000Y-159994D03*
X-95756Y-82700D03*
X-95756Y-6500D03*
X-240000Y-159994D03*
X142444Y-295000D03*
X237556Y-295000D03*
X142444Y-365000D03*
X237556Y-365000D03*
X-346556Y-316000D03*
X-346556Y-244000D03*
X-187556Y-315000D03*
X-92444Y-315000D03*
X-295000Y77443D03*
X-295000Y130394D03*
X335000Y274606D03*
X260000Y-159994D03*
X270000Y15394D03*
X235000Y274606D03*
X70000Y20394D03*
X235000Y185394D03*
X142444Y-225000D03*
X237556Y-225000D03*
X335000Y185394D03*
X286556Y-244000D03*
X286556Y-316000D03*
X22750Y-110133D03*
X93444Y-316000D03*
X93444Y-244000D03*
X-221944Y-337500D03*
X95756Y-57300D03*
X95756Y-133500D03*
X-335000Y170006D03*
X-187556Y-215000D03*
X-92444Y-215000D03*
X-323500Y220756D03*
D17*
X65000Y185000D03*
D18*
X95000Y-100000D03*
D19*
X95000Y-22500D02*
X360000Y-22500D01*
X392500Y10000D01*
X400000Y10000D01*
D18*
X95000Y-22500D03*
X255000Y102500D03*
X-12500Y90000D03*
D19*
X260000Y95000D02*
X260000Y107500D01*
X260000Y95000D02*
X265000Y90000D01*
X265000Y75000D01*
X172500Y-17500D01*
X70000Y-17500D01*
X-2500Y-90000D01*
X-57500Y-90000D01*
D18*
X260000Y107500D03*
X-57500Y-90000D03*
D16*
X92899Y119250D03*
X187101Y67250D03*
X-22750Y-29868D03*
X335000Y224606D03*
X366444Y-255000D03*
X-272700Y220756D03*
X210000Y60394D03*
X-258056Y-222500D03*
X70000Y120394D03*
X44706Y75400D03*
X340000Y-159994D03*
X305000Y54606D03*
X-160000Y-159994D03*
X-400000Y-159994D03*
X380000Y-159994D03*
D19*
X95000Y37500D02*
X-7500Y37500D01*
X-217500Y-172500D02*
X-217500Y-182500D01*
X-217500Y-172500D02*
X-7500Y37500D01*
D18*
X95000Y37500D03*
X-7500Y37500D03*
X-217500Y-182500D03*
X302500Y85000D03*
X207500Y-27500D03*
X285000Y-42500D03*
X282500Y-17500D03*
X292500Y112500D03*
X-7500Y85000D03*
D19*
X100000Y92500D02*
X252500Y92500D01*
X100000Y92500D02*
X82500Y75000D01*
X57500Y75000D01*
D18*
X252500Y92500D03*
X57500Y75000D03*
X290000Y102500D03*
X-7500Y60000D03*
D17*
X-402000Y-292445D03*
X-235000Y87345D03*
X-260000Y112655D03*
D18*
X187500Y52500D03*
X42500Y-60000D03*
D19*
X47500Y-22500D02*
X112500Y42500D01*
X47500Y-22500D02*
X20000Y-22500D01*
D18*
X112500Y42500D03*
X20000Y-22500D03*
D17*
X-209445Y117500D03*
X-110555Y117500D03*
X-235000Y32655D03*
D20*
X-217500Y117500D02*
X-209445Y117500D01*
X-217500Y117500D02*
X-258500Y76500D01*
D19*
X120000Y67500D02*
X125000Y67500D01*
X120000Y67500D02*
X100000Y47500D01*
X100000Y35000D01*
X57500Y-7500D01*
X-7500Y-7500D01*
D18*
X125000Y67500D03*
X-7500Y-7500D03*
X120000Y42500D03*
X-7500Y-27500D03*
X120000Y60000D03*
X147500Y32500D03*
X130000Y-35000D03*
X7500Y-72500D03*
X347500Y135000D03*
X40000Y-40000D03*
X-222500Y-177500D03*
X-25000Y-60000D03*
X-90000Y85000D03*
X-180000Y187500D03*
X25000Y-27500D03*
X-150000Y182500D03*
X-52500Y65000D03*
X-175000Y192500D03*
X-42500Y-20000D03*
X-170000Y197500D03*
D19*
X320000Y142500D02*
X320000Y97500D01*
X397500Y20000D01*
X402500Y20000D01*
X410000Y12500D01*
X410000Y7500D01*
X402500Y0D01*
X387500Y0D01*
X317500Y-70000D01*
X42500Y-70000D01*
D18*
X320000Y142500D03*
X42500Y-70000D03*
D17*
X-258945Y-302500D03*
X-295000Y170495D03*
X-87000Y253805D03*
X-285500Y123446D03*
D20*
X-105000Y252500D02*
X-87500Y252500D01*
X-105000Y252500D02*
X-200000Y157500D01*
X-237500Y157500D01*
X-87500Y252500D02*
X-87000Y253805D01*
X-237500Y157500D02*
X-238500Y156500D01*
D18*
X347500Y105000D03*
X115000Y-65000D03*
X275000Y2500D03*
X115000Y-92500D03*
D19*
X160000Y-12500D02*
X260000Y87500D01*
D18*
X260000Y87500D03*
X160000Y-12500D03*
D19*
X192500Y85000D02*
X250000Y85000D01*
X192500Y85000D02*
X95000Y-12500D01*
X62500Y-12500D01*
X40000Y-35000D01*
X-10000Y-35000D01*
X-62500Y-87500D01*
X-62500Y-127500D01*
X-50000Y-140000D01*
D18*
X250000Y85000D03*
X-50000Y-140000D03*
X315000Y52500D03*
X82500Y-97500D03*
X320000Y152500D03*
X197500Y-27500D03*
D19*
X307500Y112500D02*
X307500Y152500D01*
X307500Y112500D02*
X227500Y32500D01*
X227500Y30000D01*
D18*
X307500Y152500D03*
X227500Y30000D03*
D19*
X392500Y-70000D02*
X400000Y-70000D01*
X392500Y-70000D02*
X387500Y-65000D01*
X377500Y-65000D01*
X345000Y-97500D01*
X100000Y-97500D01*
X95000Y-92500D01*
X67500Y-92500D01*
X55000Y-105000D01*
X-37500Y-105000D01*
D18*
X95000Y-92500D03*
X-37500Y-105000D03*
X300000Y-27500D03*
X290000Y-17500D03*
D19*
X-200000Y-270000D02*
X-222500Y-292500D01*
D18*
X-200000Y-270000D03*
X-222500Y-292500D03*
D19*
X-295000Y-287500D02*
X-295000Y-272500D01*
D18*
X-295000Y-272500D03*
X-295000Y-287500D03*
X42500Y-100000D03*
X230000Y47500D03*
X197500Y102500D03*
X265000Y97500D03*
X120000Y150000D03*
X307500Y97500D03*
D17*
X-365555Y-305000D03*
X70000Y60495D03*
X70000Y69505D03*
M02*
