G04 EAGLE Gerber RS-274X export*
G75*
%MOMM*%
%FSLAX34Y34*%
%LPD*%
%INBottom Inner Metal*%
%IPPOS*%
%AMOC8*
5,1,8,0,0,1.08239X$1,22.5*%
G01*
%ADD10C,0.352400*%
%ADD11C,1.350000*%
%ADD12C,1.500000*%
%ADD13C,1.950000*%
%ADD14C,0.152400*%
%ADD15C,0.454000*%
%ADD16C,0.127000*%

G36*
X380022Y-297495D02*
X380022Y-297495D01*
X380050Y-297497D01*
X383470Y-297228D01*
X383519Y-297215D01*
X383616Y-297199D01*
X390123Y-295085D01*
X390127Y-295082D01*
X390133Y-295082D01*
X390299Y-294995D01*
X395834Y-290974D01*
X395838Y-290970D01*
X395843Y-290967D01*
X395974Y-290834D01*
X399995Y-285299D01*
X399997Y-285294D01*
X400001Y-285290D01*
X400085Y-285123D01*
X402199Y-278616D01*
X402206Y-278568D01*
X402206Y-278565D01*
X402206Y-278564D01*
X402228Y-278470D01*
X402497Y-275050D01*
X402495Y-275028D01*
X402499Y-275000D01*
X402499Y260000D01*
X402495Y260022D01*
X402497Y260050D01*
X402228Y263470D01*
X402215Y263519D01*
X402199Y263616D01*
X400085Y270123D01*
X400082Y270127D01*
X400082Y270133D01*
X399995Y270299D01*
X395974Y275834D01*
X395970Y275838D01*
X395967Y275843D01*
X395834Y275974D01*
X390299Y279995D01*
X390294Y279997D01*
X390290Y280001D01*
X390123Y280085D01*
X383616Y282199D01*
X383567Y282206D01*
X383562Y282207D01*
X383514Y282223D01*
X383494Y282223D01*
X383470Y282228D01*
X380050Y282497D01*
X380028Y282495D01*
X380000Y282499D01*
X335949Y282499D01*
X335859Y282483D01*
X335767Y282473D01*
X335746Y282463D01*
X335728Y282460D01*
X335685Y282434D01*
X335597Y282393D01*
X321645Y273091D01*
X321611Y273058D01*
X321549Y273012D01*
X321036Y272499D01*
X320949Y272499D01*
X320858Y272483D01*
X320767Y272473D01*
X320746Y272463D01*
X320728Y272460D01*
X320685Y272434D01*
X320597Y272393D01*
X320525Y272345D01*
X319814Y272487D01*
X319766Y272488D01*
X319690Y272499D01*
X240310Y272499D01*
X240263Y272491D01*
X240186Y272487D01*
X239475Y272345D01*
X239403Y272393D01*
X239318Y272429D01*
X239236Y272472D01*
X239214Y272475D01*
X239197Y272482D01*
X239147Y272485D01*
X239051Y272499D01*
X238964Y272499D01*
X238451Y273012D01*
X238412Y273040D01*
X238355Y273091D01*
X224403Y282393D01*
X224318Y282429D01*
X224236Y282472D01*
X224214Y282475D01*
X224197Y282482D01*
X224147Y282485D01*
X224051Y282499D01*
X218321Y282499D01*
X218233Y282484D01*
X218145Y282474D01*
X218123Y282464D01*
X218100Y282460D01*
X218023Y282414D01*
X217944Y282375D01*
X217927Y282358D01*
X217907Y282345D01*
X217851Y282276D01*
X217790Y282212D01*
X217780Y282190D01*
X217765Y282171D01*
X217737Y282087D01*
X217702Y282005D01*
X217701Y281981D01*
X217694Y281959D01*
X217696Y281870D01*
X217692Y281781D01*
X217700Y281758D01*
X217700Y281734D01*
X217734Y281652D01*
X217761Y281567D01*
X217777Y281546D01*
X217784Y281527D01*
X217818Y281489D01*
X217872Y281417D01*
X218033Y281256D01*
X218033Y278744D01*
X216256Y276967D01*
X213744Y276967D01*
X211967Y278744D01*
X211967Y281256D01*
X212128Y281417D01*
X212178Y281490D01*
X212235Y281559D01*
X212242Y281581D01*
X212256Y281601D01*
X212278Y281687D01*
X212306Y281771D01*
X212306Y281795D01*
X212312Y281818D01*
X212302Y281907D01*
X212300Y281996D01*
X212291Y282017D01*
X212288Y282041D01*
X212249Y282121D01*
X212216Y282203D01*
X212200Y282221D01*
X212189Y282242D01*
X212124Y282303D01*
X212064Y282369D01*
X212043Y282380D01*
X212026Y282396D01*
X211944Y282431D01*
X211865Y282472D01*
X211838Y282475D01*
X211819Y282484D01*
X211769Y282486D01*
X211679Y282499D01*
X208321Y282499D01*
X208233Y282484D01*
X208145Y282474D01*
X208123Y282464D01*
X208100Y282460D01*
X208023Y282414D01*
X207944Y282375D01*
X207927Y282358D01*
X207907Y282345D01*
X207851Y282276D01*
X207790Y282212D01*
X207780Y282190D01*
X207765Y282171D01*
X207737Y282087D01*
X207702Y282005D01*
X207701Y281981D01*
X207694Y281959D01*
X207696Y281870D01*
X207692Y281781D01*
X207700Y281758D01*
X207700Y281734D01*
X207734Y281652D01*
X207761Y281567D01*
X207777Y281546D01*
X207784Y281527D01*
X207818Y281489D01*
X207872Y281417D01*
X208033Y281256D01*
X208033Y278744D01*
X207219Y277930D01*
X207194Y277895D01*
X207163Y277866D01*
X207131Y277803D01*
X207090Y277745D01*
X207080Y277704D01*
X207060Y277666D01*
X207047Y277577D01*
X207034Y277528D01*
X207037Y277507D01*
X207033Y277481D01*
X207033Y159158D01*
X160842Y112967D01*
X34158Y112967D01*
X32967Y114158D01*
X32967Y135842D01*
X34158Y137033D01*
X92333Y137033D01*
X92398Y137044D01*
X92464Y137046D01*
X92507Y137064D01*
X92554Y137072D01*
X92611Y137106D01*
X92671Y137131D01*
X92706Y137162D01*
X92747Y137187D01*
X92789Y137238D01*
X92837Y137282D01*
X92859Y137324D01*
X92888Y137361D01*
X92909Y137423D01*
X92940Y137482D01*
X92948Y137536D01*
X92960Y137573D01*
X92959Y137613D01*
X92967Y137667D01*
X92967Y280842D01*
X93542Y281417D01*
X93593Y281490D01*
X93649Y281559D01*
X93656Y281581D01*
X93670Y281601D01*
X93692Y281687D01*
X93721Y281771D01*
X93720Y281795D01*
X93726Y281818D01*
X93717Y281907D01*
X93714Y281996D01*
X93705Y282018D01*
X93703Y282041D01*
X93663Y282121D01*
X93630Y282203D01*
X93614Y282221D01*
X93603Y282242D01*
X93538Y282303D01*
X93478Y282369D01*
X93457Y282380D01*
X93440Y282396D01*
X93358Y282431D01*
X93279Y282472D01*
X93253Y282475D01*
X93233Y282484D01*
X93183Y282486D01*
X93093Y282499D01*
X-380000Y282499D01*
X-380022Y282495D01*
X-380050Y282497D01*
X-383470Y282228D01*
X-383519Y282215D01*
X-383616Y282199D01*
X-390123Y280085D01*
X-390127Y280082D01*
X-390133Y280082D01*
X-390299Y279995D01*
X-395834Y275974D01*
X-395838Y275970D01*
X-395843Y275967D01*
X-395974Y275834D01*
X-399995Y270299D01*
X-399997Y270294D01*
X-400001Y270290D01*
X-400085Y270123D01*
X-402199Y263616D01*
X-402206Y263566D01*
X-402228Y263470D01*
X-402497Y260050D01*
X-402495Y260028D01*
X-402499Y260000D01*
X-402499Y-275000D01*
X-402495Y-275022D01*
X-402497Y-275050D01*
X-402228Y-278470D01*
X-402215Y-278519D01*
X-402199Y-278616D01*
X-400085Y-285123D01*
X-400082Y-285127D01*
X-400082Y-285133D01*
X-399995Y-285299D01*
X-395974Y-290834D01*
X-395970Y-290838D01*
X-395967Y-290843D01*
X-395834Y-290974D01*
X-390299Y-294995D01*
X-390294Y-294997D01*
X-390290Y-295001D01*
X-390123Y-295085D01*
X-383616Y-297199D01*
X-383566Y-297206D01*
X-383470Y-297228D01*
X-380050Y-297497D01*
X-380028Y-297495D01*
X-380000Y-297499D01*
X380000Y-297499D01*
X380022Y-297495D01*
G37*
%LPC*%
G36*
X22808Y-276021D02*
X22808Y-276021D01*
X18757Y-274343D01*
X15657Y-271243D01*
X13979Y-267192D01*
X13979Y-262808D01*
X15614Y-258862D01*
X15625Y-258810D01*
X15646Y-258760D01*
X15649Y-258701D01*
X15661Y-258643D01*
X15654Y-258590D01*
X15656Y-258535D01*
X15638Y-258479D01*
X15630Y-258421D01*
X15604Y-258373D01*
X15588Y-258322D01*
X15545Y-258265D01*
X15523Y-258224D01*
X15500Y-258204D01*
X15476Y-258171D01*
X13094Y-255789D01*
X13094Y-138552D01*
X13087Y-138510D01*
X13089Y-138468D01*
X13067Y-138401D01*
X13055Y-138331D01*
X13033Y-138295D01*
X13020Y-138254D01*
X12966Y-138182D01*
X12940Y-138138D01*
X12924Y-138125D01*
X12908Y-138104D01*
X-24406Y-100789D01*
X-24406Y-45944D01*
X-24421Y-45857D01*
X-24431Y-45768D01*
X-24441Y-45747D01*
X-24445Y-45723D01*
X-24491Y-45647D01*
X-24530Y-45567D01*
X-24547Y-45551D01*
X-24560Y-45530D01*
X-24629Y-45474D01*
X-24693Y-45413D01*
X-24715Y-45404D01*
X-24734Y-45389D01*
X-24818Y-45360D01*
X-24900Y-45326D01*
X-24924Y-45325D01*
X-24946Y-45317D01*
X-25035Y-45320D01*
X-25124Y-45316D01*
X-25147Y-45323D01*
X-25171Y-45324D01*
X-25253Y-45357D01*
X-25338Y-45384D01*
X-25359Y-45400D01*
X-25378Y-45408D01*
X-25416Y-45442D01*
X-25488Y-45496D01*
X-26033Y-46041D01*
X-28967Y-46041D01*
X-29512Y-45496D01*
X-29585Y-45445D01*
X-29654Y-45389D01*
X-29676Y-45381D01*
X-29696Y-45368D01*
X-29782Y-45346D01*
X-29866Y-45317D01*
X-29890Y-45318D01*
X-29913Y-45312D01*
X-30002Y-45321D01*
X-30091Y-45324D01*
X-30113Y-45333D01*
X-30136Y-45335D01*
X-30216Y-45375D01*
X-30298Y-45408D01*
X-30316Y-45424D01*
X-30337Y-45434D01*
X-30398Y-45499D01*
X-30464Y-45559D01*
X-30475Y-45580D01*
X-30491Y-45598D01*
X-30526Y-45680D01*
X-30567Y-45759D01*
X-30570Y-45785D01*
X-30579Y-45804D01*
X-30581Y-45855D01*
X-30594Y-45944D01*
X-30594Y-106448D01*
X-30587Y-106490D01*
X-30589Y-106532D01*
X-30567Y-106599D01*
X-30555Y-106669D01*
X-30533Y-106705D01*
X-30520Y-106746D01*
X-30466Y-106819D01*
X-30440Y-106862D01*
X-30424Y-106875D01*
X-30409Y-106896D01*
X-28293Y-109012D01*
X-28249Y-109043D01*
X-28211Y-109081D01*
X-28158Y-109106D01*
X-28109Y-109140D01*
X-28057Y-109153D01*
X-28008Y-109176D01*
X-27949Y-109181D01*
X-27892Y-109196D01*
X-27838Y-109190D01*
X-27784Y-109194D01*
X-27715Y-109177D01*
X-27669Y-109172D01*
X-27641Y-109159D01*
X-27602Y-109149D01*
X-27192Y-108979D01*
X-22808Y-108979D01*
X-18757Y-110657D01*
X-15657Y-113757D01*
X-13979Y-117808D01*
X-13979Y-122192D01*
X-15657Y-126243D01*
X-18757Y-129343D01*
X-22808Y-131021D01*
X-27192Y-131021D01*
X-31243Y-129343D01*
X-34343Y-126243D01*
X-36021Y-122192D01*
X-36021Y-117808D01*
X-34343Y-113757D01*
X-32089Y-111503D01*
X-32051Y-111449D01*
X-32006Y-111401D01*
X-31988Y-111358D01*
X-31961Y-111319D01*
X-31944Y-111255D01*
X-31919Y-111195D01*
X-31917Y-111147D01*
X-31905Y-111102D01*
X-31912Y-111036D01*
X-31909Y-110971D01*
X-31923Y-110926D01*
X-31928Y-110879D01*
X-31957Y-110820D01*
X-31977Y-110757D01*
X-32010Y-110713D01*
X-32027Y-110677D01*
X-32056Y-110650D01*
X-32089Y-110606D01*
X-34406Y-108289D01*
X-34406Y-45944D01*
X-34421Y-45857D01*
X-34431Y-45768D01*
X-34441Y-45747D01*
X-34445Y-45723D01*
X-34491Y-45647D01*
X-34530Y-45567D01*
X-34547Y-45551D01*
X-34560Y-45530D01*
X-34629Y-45474D01*
X-34693Y-45413D01*
X-34715Y-45404D01*
X-34734Y-45389D01*
X-34818Y-45360D01*
X-34900Y-45326D01*
X-34924Y-45325D01*
X-34946Y-45317D01*
X-35035Y-45320D01*
X-35124Y-45316D01*
X-35147Y-45323D01*
X-35171Y-45324D01*
X-35253Y-45357D01*
X-35338Y-45384D01*
X-35359Y-45400D01*
X-35378Y-45408D01*
X-35416Y-45442D01*
X-35488Y-45496D01*
X-36033Y-46041D01*
X-38967Y-46041D01*
X-41041Y-43967D01*
X-41041Y-41033D01*
X-38967Y-38959D01*
X-36033Y-38959D01*
X-35488Y-39504D01*
X-35415Y-39555D01*
X-35346Y-39611D01*
X-35324Y-39619D01*
X-35304Y-39632D01*
X-35218Y-39654D01*
X-35134Y-39683D01*
X-35110Y-39682D01*
X-35087Y-39688D01*
X-34998Y-39679D01*
X-34909Y-39676D01*
X-34887Y-39667D01*
X-34864Y-39665D01*
X-34784Y-39625D01*
X-34702Y-39592D01*
X-34684Y-39576D01*
X-34663Y-39566D01*
X-34602Y-39501D01*
X-34536Y-39441D01*
X-34525Y-39420D01*
X-34509Y-39402D01*
X-34474Y-39320D01*
X-34433Y-39241D01*
X-34430Y-39215D01*
X-34421Y-39196D01*
X-34419Y-39145D01*
X-34406Y-39056D01*
X-34406Y30789D01*
X-33104Y32091D01*
X-33104Y32092D01*
X-14592Y50604D01*
X-14567Y50638D01*
X-14536Y50667D01*
X-14504Y50730D01*
X-14463Y50788D01*
X-14453Y50829D01*
X-14433Y50867D01*
X-14420Y50956D01*
X-14407Y51005D01*
X-14410Y51026D01*
X-14406Y51052D01*
X-14406Y86556D01*
X-14421Y86643D01*
X-14431Y86732D01*
X-14441Y86753D01*
X-14445Y86777D01*
X-14491Y86853D01*
X-14530Y86933D01*
X-14547Y86949D01*
X-14560Y86970D01*
X-14629Y87026D01*
X-14693Y87087D01*
X-14715Y87096D01*
X-14734Y87111D01*
X-14818Y87140D01*
X-14900Y87174D01*
X-14924Y87175D01*
X-14946Y87183D01*
X-15035Y87180D01*
X-15124Y87184D01*
X-15147Y87177D01*
X-15171Y87176D01*
X-15253Y87143D01*
X-15338Y87116D01*
X-15359Y87100D01*
X-15378Y87092D01*
X-15416Y87058D01*
X-15488Y87004D01*
X-16033Y86459D01*
X-18967Y86459D01*
X-20802Y88294D01*
X-20856Y88332D01*
X-20903Y88377D01*
X-20947Y88395D01*
X-20986Y88422D01*
X-21049Y88439D01*
X-21110Y88464D01*
X-21157Y88466D01*
X-21203Y88478D01*
X-21268Y88471D01*
X-21334Y88474D01*
X-21379Y88460D01*
X-21426Y88455D01*
X-21485Y88426D01*
X-21548Y88406D01*
X-21592Y88373D01*
X-21627Y88356D01*
X-21654Y88327D01*
X-21699Y88294D01*
X-23533Y86459D01*
X-26467Y86459D01*
X-28301Y88294D01*
X-28356Y88332D01*
X-28403Y88377D01*
X-28447Y88395D01*
X-28486Y88422D01*
X-28549Y88439D01*
X-28610Y88464D01*
X-28657Y88466D01*
X-28703Y88478D01*
X-28768Y88471D01*
X-28834Y88474D01*
X-28879Y88460D01*
X-28926Y88455D01*
X-28985Y88426D01*
X-29048Y88406D01*
X-29092Y88373D01*
X-29127Y88356D01*
X-29154Y88327D01*
X-29198Y88294D01*
X-31033Y86459D01*
X-33967Y86459D01*
X-36041Y88533D01*
X-36041Y89733D01*
X-36057Y89821D01*
X-36066Y89909D01*
X-36076Y89930D01*
X-36080Y89954D01*
X-36126Y90030D01*
X-36165Y90110D01*
X-36182Y90127D01*
X-36195Y90147D01*
X-36264Y90203D01*
X-36328Y90264D01*
X-36350Y90273D01*
X-36369Y90288D01*
X-36453Y90317D01*
X-36535Y90352D01*
X-36559Y90353D01*
X-36581Y90360D01*
X-36670Y90358D01*
X-36759Y90362D01*
X-36782Y90354D01*
X-36806Y90354D01*
X-36888Y90320D01*
X-36973Y90293D01*
X-36994Y90277D01*
X-37013Y90269D01*
X-37051Y90235D01*
X-37123Y90181D01*
X-101273Y26031D01*
X-101298Y25997D01*
X-101329Y25968D01*
X-101361Y25905D01*
X-101402Y25847D01*
X-101412Y25806D01*
X-101432Y25768D01*
X-101445Y25679D01*
X-101458Y25630D01*
X-101455Y25609D01*
X-101459Y25583D01*
X-101459Y23533D01*
X-103533Y21459D01*
X-106467Y21459D01*
X-108541Y23533D01*
X-108541Y26467D01*
X-106467Y28541D01*
X-104417Y28541D01*
X-104375Y28548D01*
X-104333Y28546D01*
X-104266Y28568D01*
X-104196Y28580D01*
X-104160Y28602D01*
X-104119Y28615D01*
X-104047Y28669D01*
X-104003Y28695D01*
X-103990Y28711D01*
X-103969Y28727D01*
X-19592Y113104D01*
X-19567Y113138D01*
X-19536Y113167D01*
X-19504Y113230D01*
X-19463Y113288D01*
X-19453Y113329D01*
X-19433Y113367D01*
X-19420Y113456D01*
X-19407Y113505D01*
X-19410Y113526D01*
X-19406Y113552D01*
X-19406Y114136D01*
X-19413Y114177D01*
X-19411Y114220D01*
X-19419Y114243D01*
X-19419Y114260D01*
X-19435Y114298D01*
X-19445Y114356D01*
X-19467Y114393D01*
X-19480Y114433D01*
X-19502Y114463D01*
X-19504Y114467D01*
X-19512Y114476D01*
X-19534Y114506D01*
X-19560Y114550D01*
X-19576Y114563D01*
X-19592Y114584D01*
X-21041Y116033D01*
X-21041Y118967D01*
X-18967Y121041D01*
X-16033Y121041D01*
X-15488Y120496D01*
X-15415Y120445D01*
X-15346Y120389D01*
X-15324Y120381D01*
X-15304Y120368D01*
X-15218Y120346D01*
X-15134Y120317D01*
X-15110Y120318D01*
X-15087Y120312D01*
X-14998Y120321D01*
X-14909Y120324D01*
X-14887Y120333D01*
X-14864Y120335D01*
X-14784Y120375D01*
X-14702Y120408D01*
X-14684Y120424D01*
X-14663Y120434D01*
X-14602Y120499D01*
X-14536Y120559D01*
X-14525Y120580D01*
X-14509Y120598D01*
X-14474Y120680D01*
X-14433Y120759D01*
X-14430Y120785D01*
X-14421Y120804D01*
X-14419Y120855D01*
X-14406Y120944D01*
X-14406Y144136D01*
X-14413Y144177D01*
X-14411Y144220D01*
X-14433Y144287D01*
X-14445Y144356D01*
X-14467Y144393D01*
X-14480Y144433D01*
X-14534Y144506D01*
X-14560Y144550D01*
X-14576Y144563D01*
X-14592Y144584D01*
X-16041Y146033D01*
X-16041Y148967D01*
X-13967Y151041D01*
X-11033Y151041D01*
X-10488Y150496D01*
X-10415Y150445D01*
X-10346Y150389D01*
X-10324Y150381D01*
X-10304Y150368D01*
X-10218Y150346D01*
X-10134Y150317D01*
X-10110Y150318D01*
X-10087Y150312D01*
X-9998Y150321D01*
X-9909Y150324D01*
X-9887Y150333D01*
X-9864Y150335D01*
X-9784Y150375D01*
X-9702Y150408D01*
X-9684Y150424D01*
X-9663Y150434D01*
X-9602Y150499D01*
X-9536Y150559D01*
X-9525Y150580D01*
X-9509Y150598D01*
X-9474Y150680D01*
X-9433Y150759D01*
X-9430Y150785D01*
X-9421Y150804D01*
X-9419Y150855D01*
X-9406Y150944D01*
X-9406Y184136D01*
X-9413Y184177D01*
X-9411Y184220D01*
X-9433Y184287D01*
X-9445Y184356D01*
X-9467Y184393D01*
X-9480Y184433D01*
X-9534Y184506D01*
X-9560Y184550D01*
X-9576Y184563D01*
X-9592Y184584D01*
X-11041Y186033D01*
X-11041Y188967D01*
X-8967Y191041D01*
X-6033Y191041D01*
X-3959Y188967D01*
X-3959Y186033D01*
X-5408Y184584D01*
X-5433Y184549D01*
X-5464Y184521D01*
X-5496Y184458D01*
X-5537Y184400D01*
X-5547Y184359D01*
X-5567Y184321D01*
X-5580Y184231D01*
X-5593Y184183D01*
X-5590Y184162D01*
X-5594Y184136D01*
X-5594Y150944D01*
X-5579Y150857D01*
X-5569Y150768D01*
X-5559Y150747D01*
X-5555Y150723D01*
X-5509Y150647D01*
X-5470Y150567D01*
X-5453Y150551D01*
X-5440Y150530D01*
X-5371Y150474D01*
X-5307Y150413D01*
X-5285Y150404D01*
X-5266Y150389D01*
X-5182Y150360D01*
X-5100Y150326D01*
X-5076Y150325D01*
X-5054Y150317D01*
X-4965Y150320D01*
X-4876Y150316D01*
X-4853Y150323D01*
X-4829Y150324D01*
X-4747Y150357D01*
X-4662Y150384D01*
X-4641Y150400D01*
X-4622Y150408D01*
X-4584Y150442D01*
X-4512Y150496D01*
X-3967Y151041D01*
X-1675Y151041D01*
X-1610Y151052D01*
X-1544Y151054D01*
X-1501Y151072D01*
X-1454Y151080D01*
X-1397Y151114D01*
X-1337Y151139D01*
X-1302Y151170D01*
X-1261Y151195D01*
X-1219Y151246D01*
X-1171Y151290D01*
X-1149Y151332D01*
X-1120Y151369D01*
X-1099Y151431D01*
X-1068Y151490D01*
X-1060Y151544D01*
X-1048Y151581D01*
X-1049Y151621D01*
X-1041Y151675D01*
X-1041Y153967D01*
X1033Y156041D01*
X3967Y156041D01*
X6041Y153967D01*
X6041Y151033D01*
X3967Y148959D01*
X1675Y148959D01*
X1610Y148948D01*
X1544Y148946D01*
X1501Y148928D01*
X1454Y148920D01*
X1397Y148886D01*
X1337Y148861D01*
X1302Y148830D01*
X1261Y148805D01*
X1219Y148754D01*
X1171Y148710D01*
X1149Y148668D01*
X1120Y148631D01*
X1099Y148569D01*
X1068Y148510D01*
X1060Y148456D01*
X1048Y148419D01*
X1049Y148379D01*
X1041Y148325D01*
X1041Y146033D01*
X-1033Y143959D01*
X-3967Y143959D01*
X-4512Y144504D01*
X-4585Y144555D01*
X-4654Y144611D01*
X-4676Y144619D01*
X-4696Y144632D01*
X-4782Y144654D01*
X-4866Y144683D01*
X-4890Y144682D01*
X-4913Y144688D01*
X-5002Y144679D01*
X-5091Y144676D01*
X-5113Y144667D01*
X-5136Y144665D01*
X-5216Y144625D01*
X-5298Y144592D01*
X-5316Y144576D01*
X-5337Y144566D01*
X-5398Y144501D01*
X-5464Y144441D01*
X-5475Y144420D01*
X-5491Y144402D01*
X-5526Y144320D01*
X-5567Y144241D01*
X-5570Y144215D01*
X-5579Y144196D01*
X-5581Y144145D01*
X-5594Y144056D01*
X-5594Y49211D01*
X-10181Y44623D01*
X-10232Y44550D01*
X-10288Y44481D01*
X-10296Y44459D01*
X-10310Y44439D01*
X-10332Y44353D01*
X-10360Y44269D01*
X-10360Y44245D01*
X-10365Y44222D01*
X-10356Y44133D01*
X-10354Y44044D01*
X-10345Y44022D01*
X-10342Y43999D01*
X-10303Y43919D01*
X-10269Y43837D01*
X-10253Y43819D01*
X-10243Y43798D01*
X-10178Y43737D01*
X-10118Y43671D01*
X-10097Y43660D01*
X-10080Y43644D01*
X-9998Y43609D01*
X-9918Y43568D01*
X-9892Y43565D01*
X-9873Y43556D01*
X-9823Y43554D01*
X-9733Y43541D01*
X-8533Y43541D01*
X-6459Y41467D01*
X-6459Y38533D01*
X-8533Y36459D01*
X-11467Y36459D01*
X-13541Y38533D01*
X-13541Y39733D01*
X-13557Y39821D01*
X-13566Y39909D01*
X-13576Y39930D01*
X-13580Y39954D01*
X-13626Y40030D01*
X-13665Y40110D01*
X-13682Y40127D01*
X-13695Y40147D01*
X-13764Y40203D01*
X-13828Y40264D01*
X-13850Y40273D01*
X-13869Y40288D01*
X-13953Y40317D01*
X-14035Y40352D01*
X-14059Y40353D01*
X-14081Y40360D01*
X-14170Y40358D01*
X-14259Y40362D01*
X-14282Y40354D01*
X-14306Y40354D01*
X-14388Y40320D01*
X-14473Y40293D01*
X-14494Y40277D01*
X-14513Y40269D01*
X-14551Y40235D01*
X-14623Y40181D01*
X-25408Y29396D01*
X-25433Y29362D01*
X-25464Y29333D01*
X-25496Y29270D01*
X-25537Y29212D01*
X-25547Y29171D01*
X-25567Y29133D01*
X-25580Y29044D01*
X-25593Y28995D01*
X-25590Y28974D01*
X-25594Y28948D01*
X-25594Y1132D01*
X-25579Y1044D01*
X-25569Y956D01*
X-25559Y935D01*
X-25555Y911D01*
X-25509Y834D01*
X-25470Y755D01*
X-25453Y739D01*
X-25440Y718D01*
X-25371Y662D01*
X-25307Y601D01*
X-25285Y592D01*
X-25266Y577D01*
X-25182Y548D01*
X-25100Y513D01*
X-25076Y512D01*
X-25054Y505D01*
X-24965Y507D01*
X-24876Y503D01*
X-24853Y511D01*
X-24829Y511D01*
X-24747Y545D01*
X-24662Y572D01*
X-24641Y588D01*
X-24622Y596D01*
X-24584Y630D01*
X-24512Y684D01*
X-23104Y2092D01*
X-2092Y23104D01*
X-2067Y23138D01*
X-2036Y23167D01*
X-2004Y23230D01*
X-1963Y23288D01*
X-1953Y23329D01*
X-1933Y23367D01*
X-1920Y23456D01*
X-1907Y23505D01*
X-1910Y23526D01*
X-1906Y23552D01*
X-1906Y89136D01*
X-1913Y89177D01*
X-1911Y89220D01*
X-1933Y89287D01*
X-1945Y89356D01*
X-1967Y89393D01*
X-1980Y89433D01*
X-2034Y89506D01*
X-2060Y89550D01*
X-2076Y89563D01*
X-2092Y89584D01*
X-3541Y91033D01*
X-3541Y93967D01*
X-1467Y96041D01*
X1467Y96041D01*
X3541Y93967D01*
X3541Y91033D01*
X2092Y89584D01*
X2067Y89549D01*
X2036Y89521D01*
X2004Y89458D01*
X1963Y89400D01*
X1953Y89359D01*
X1933Y89321D01*
X1920Y89231D01*
X1907Y89183D01*
X1910Y89162D01*
X1906Y89136D01*
X1906Y21711D01*
X-20408Y-604D01*
X-20433Y-638D01*
X-20464Y-667D01*
X-20496Y-730D01*
X-20537Y-788D01*
X-20547Y-829D01*
X-20567Y-867D01*
X-20580Y-956D01*
X-20593Y-1005D01*
X-20590Y-1026D01*
X-20594Y-1052D01*
X-20594Y-98948D01*
X-20587Y-98990D01*
X-20589Y-99032D01*
X-20567Y-99099D01*
X-20555Y-99169D01*
X-20533Y-99205D01*
X-20520Y-99246D01*
X-20466Y-99318D01*
X-20440Y-99362D01*
X-20424Y-99375D01*
X-20408Y-99396D01*
X15604Y-135408D01*
X16906Y-136711D01*
X16906Y-253948D01*
X16913Y-253990D01*
X16911Y-254032D01*
X16933Y-254099D01*
X16945Y-254169D01*
X16967Y-254205D01*
X16980Y-254246D01*
X17034Y-254318D01*
X17060Y-254362D01*
X17076Y-254375D01*
X17092Y-254396D01*
X18171Y-255476D01*
X18201Y-255496D01*
X18212Y-255509D01*
X18223Y-255514D01*
X18254Y-255546D01*
X18307Y-255571D01*
X18355Y-255604D01*
X18408Y-255618D01*
X18457Y-255641D01*
X18516Y-255645D01*
X18573Y-255660D01*
X18627Y-255654D01*
X18681Y-255659D01*
X18750Y-255642D01*
X18796Y-255637D01*
X18823Y-255623D01*
X18862Y-255614D01*
X22808Y-253979D01*
X27192Y-253979D01*
X31243Y-255657D01*
X34343Y-258757D01*
X36021Y-262808D01*
X36021Y-267192D01*
X34343Y-271243D01*
X31243Y-274343D01*
X27192Y-276021D01*
X22808Y-276021D01*
G37*
%LPD*%
%LPC*%
G36*
X296033Y-163541D02*
X296033Y-163541D01*
X293959Y-161467D01*
X293959Y-159417D01*
X293952Y-159375D01*
X293954Y-159333D01*
X293932Y-159266D01*
X293920Y-159196D01*
X293898Y-159160D01*
X293885Y-159119D01*
X293831Y-159047D01*
X293805Y-159003D01*
X293789Y-158990D01*
X293773Y-158969D01*
X288094Y-153289D01*
X288094Y-151052D01*
X288087Y-151010D01*
X288089Y-150968D01*
X288067Y-150901D01*
X288055Y-150831D01*
X288033Y-150795D01*
X288020Y-150754D01*
X287966Y-150682D01*
X287940Y-150638D01*
X287924Y-150625D01*
X287908Y-150604D01*
X44396Y92908D01*
X44362Y92933D01*
X44333Y92964D01*
X44270Y92996D01*
X44212Y93037D01*
X44171Y93047D01*
X44133Y93067D01*
X44044Y93080D01*
X43995Y93093D01*
X43974Y93090D01*
X43948Y93094D01*
X31711Y93094D01*
X13094Y111711D01*
X13094Y150789D01*
X16711Y154406D01*
X23289Y154406D01*
X26469Y151227D01*
X26503Y151202D01*
X26532Y151171D01*
X26595Y151139D01*
X26653Y151098D01*
X26694Y151088D01*
X26732Y151068D01*
X26821Y151055D01*
X26870Y151042D01*
X26891Y151045D01*
X26917Y151041D01*
X28967Y151041D01*
X31041Y148967D01*
X31041Y146033D01*
X28967Y143959D01*
X26033Y143959D01*
X24198Y145794D01*
X24144Y145832D01*
X24097Y145877D01*
X24053Y145895D01*
X24014Y145922D01*
X23951Y145939D01*
X23890Y145964D01*
X23843Y145966D01*
X23797Y145978D01*
X23732Y145971D01*
X23666Y145974D01*
X23621Y145960D01*
X23574Y145955D01*
X23515Y145926D01*
X23452Y145906D01*
X23408Y145873D01*
X23373Y145856D01*
X23346Y145827D01*
X23301Y145794D01*
X22091Y144584D01*
X22067Y144549D01*
X22036Y144521D01*
X22004Y144458D01*
X21963Y144400D01*
X21953Y144359D01*
X21933Y144321D01*
X21920Y144231D01*
X21907Y144183D01*
X21910Y144162D01*
X21906Y144136D01*
X21906Y123552D01*
X21913Y123510D01*
X21911Y123468D01*
X21933Y123401D01*
X21945Y123331D01*
X21967Y123295D01*
X21980Y123254D01*
X22034Y123182D01*
X22060Y123138D01*
X22076Y123125D01*
X22092Y123104D01*
X35604Y109592D01*
X35638Y109567D01*
X35667Y109536D01*
X35730Y109504D01*
X35788Y109463D01*
X35829Y109453D01*
X35867Y109433D01*
X35956Y109420D01*
X36005Y109407D01*
X36026Y109410D01*
X36052Y109406D01*
X38289Y109406D01*
X39592Y108104D01*
X296469Y-148773D01*
X296503Y-148798D01*
X296532Y-148829D01*
X296595Y-148861D01*
X296653Y-148902D01*
X296694Y-148912D01*
X296732Y-148932D01*
X296821Y-148945D01*
X296870Y-148958D01*
X296891Y-148955D01*
X296917Y-148959D01*
X298967Y-148959D01*
X301041Y-151033D01*
X301041Y-153967D01*
X299206Y-155801D01*
X299168Y-155856D01*
X299123Y-155903D01*
X299105Y-155947D01*
X299078Y-155986D01*
X299061Y-156049D01*
X299036Y-156110D01*
X299034Y-156157D01*
X299022Y-156203D01*
X299029Y-156268D01*
X299026Y-156334D01*
X299040Y-156379D01*
X299045Y-156426D01*
X299074Y-156485D01*
X299094Y-156548D01*
X299127Y-156592D01*
X299144Y-156627D01*
X299173Y-156654D01*
X299206Y-156698D01*
X301041Y-158533D01*
X301041Y-161467D01*
X298967Y-163541D01*
X296033Y-163541D01*
G37*
%LPD*%
%LPC*%
G36*
X-59586Y-203001D02*
X-59586Y-203001D01*
X-64364Y-201021D01*
X-68021Y-197364D01*
X-70001Y-192586D01*
X-70001Y-187414D01*
X-68021Y-182636D01*
X-64364Y-178979D01*
X-59586Y-176999D01*
X-54414Y-176999D01*
X-49636Y-178979D01*
X-45979Y-182636D01*
X-43999Y-187414D01*
X-43999Y-192586D01*
X-45979Y-197364D01*
X-49636Y-201021D01*
X-54414Y-203001D01*
X-59586Y-203001D01*
G37*
%LPD*%
%LPC*%
G36*
X372414Y241999D02*
X372414Y241999D01*
X367636Y243979D01*
X363979Y247636D01*
X361999Y252414D01*
X361999Y257586D01*
X363979Y262364D01*
X367636Y266021D01*
X372414Y268001D01*
X377586Y268001D01*
X382364Y266021D01*
X386021Y262364D01*
X388001Y257586D01*
X388001Y252414D01*
X386021Y247636D01*
X382364Y243979D01*
X377586Y241999D01*
X372414Y241999D01*
G37*
%LPD*%
%LPC*%
G36*
X-377586Y-68001D02*
X-377586Y-68001D01*
X-382364Y-66021D01*
X-386021Y-62364D01*
X-388001Y-57586D01*
X-388001Y-52414D01*
X-386021Y-47636D01*
X-382364Y-43979D01*
X-377586Y-41999D01*
X-372414Y-41999D01*
X-367636Y-43979D01*
X-363979Y-47636D01*
X-361999Y-52414D01*
X-361999Y-57586D01*
X-363979Y-62364D01*
X-367636Y-66021D01*
X-372414Y-68001D01*
X-377586Y-68001D01*
G37*
%LPD*%
%LPC*%
G36*
X372414Y-68001D02*
X372414Y-68001D01*
X367636Y-66021D01*
X363979Y-62364D01*
X361999Y-57586D01*
X361999Y-52414D01*
X363979Y-47636D01*
X367636Y-43979D01*
X372414Y-41999D01*
X377586Y-41999D01*
X382364Y-43979D01*
X386021Y-47636D01*
X388001Y-52414D01*
X388001Y-57586D01*
X386021Y-62364D01*
X382364Y-66021D01*
X377586Y-68001D01*
X372414Y-68001D01*
G37*
%LPD*%
%LPC*%
G36*
X-377586Y241999D02*
X-377586Y241999D01*
X-382364Y243979D01*
X-386021Y247636D01*
X-388001Y252414D01*
X-388001Y257586D01*
X-386021Y262364D01*
X-382364Y266021D01*
X-377586Y268001D01*
X-372414Y268001D01*
X-367636Y266021D01*
X-363979Y262364D01*
X-361999Y257586D01*
X-361999Y252414D01*
X-363979Y247636D01*
X-367636Y243979D01*
X-372414Y241999D01*
X-377586Y241999D01*
G37*
%LPD*%
%LPC*%
G36*
X54414Y-203001D02*
X54414Y-203001D01*
X49636Y-201021D01*
X45979Y-197364D01*
X43999Y-192586D01*
X43999Y-187414D01*
X45979Y-182636D01*
X49636Y-178979D01*
X54414Y-176999D01*
X59586Y-176999D01*
X64364Y-178979D01*
X68021Y-182636D01*
X70001Y-187414D01*
X70001Y-192586D01*
X68021Y-197364D01*
X64364Y-201021D01*
X59586Y-203001D01*
X54414Y-203001D01*
G37*
%LPD*%
%LPC*%
G36*
X-27192Y-276021D02*
X-27192Y-276021D01*
X-31243Y-274343D01*
X-34343Y-271243D01*
X-36021Y-267192D01*
X-36021Y-262808D01*
X-34343Y-258757D01*
X-31243Y-255657D01*
X-27192Y-253979D01*
X-22808Y-253979D01*
X-18757Y-255657D01*
X-15657Y-258757D01*
X-13979Y-262808D01*
X-13979Y-267192D01*
X-15657Y-271243D01*
X-18757Y-274343D01*
X-22808Y-276021D01*
X-27192Y-276021D01*
G37*
%LPD*%
%LPC*%
G36*
X22808Y-131021D02*
X22808Y-131021D01*
X18757Y-129343D01*
X15657Y-126243D01*
X13979Y-122192D01*
X13979Y-117808D01*
X15657Y-113757D01*
X18757Y-110657D01*
X22808Y-108979D01*
X27192Y-108979D01*
X31243Y-110657D01*
X34343Y-113757D01*
X36021Y-117808D01*
X36021Y-122192D01*
X34343Y-126243D01*
X31243Y-129343D01*
X27192Y-131021D01*
X22808Y-131021D01*
G37*
%LPD*%
%LPC*%
G36*
X-2192Y-276021D02*
X-2192Y-276021D01*
X-6243Y-274343D01*
X-9343Y-271243D01*
X-11021Y-267192D01*
X-11021Y-262808D01*
X-9343Y-258757D01*
X-6243Y-255657D01*
X-2192Y-253979D01*
X2192Y-253979D01*
X6243Y-255657D01*
X9343Y-258757D01*
X11021Y-262808D01*
X11021Y-267192D01*
X9343Y-271243D01*
X6243Y-274343D01*
X2192Y-276021D01*
X-2192Y-276021D01*
G37*
%LPD*%
%LPC*%
G36*
X-246745Y-103771D02*
X-246745Y-103771D01*
X-249968Y-102435D01*
X-252435Y-99968D01*
X-253771Y-96745D01*
X-253771Y-93255D01*
X-252435Y-90032D01*
X-249968Y-87565D01*
X-246745Y-86229D01*
X-243255Y-86229D01*
X-240032Y-87565D01*
X-237565Y-90032D01*
X-237261Y-90765D01*
X-237207Y-90849D01*
X-237155Y-90936D01*
X-237146Y-90944D01*
X-237140Y-90954D01*
X-237059Y-91014D01*
X-236981Y-91077D01*
X-236970Y-91081D01*
X-236960Y-91088D01*
X-236864Y-91117D01*
X-236769Y-91149D01*
X-236757Y-91149D01*
X-236745Y-91152D01*
X-236645Y-91146D01*
X-236544Y-91143D01*
X-236533Y-91138D01*
X-236522Y-91137D01*
X-236430Y-91096D01*
X-236337Y-91058D01*
X-236328Y-91050D01*
X-236317Y-91045D01*
X-236245Y-90975D01*
X-236171Y-90907D01*
X-236165Y-90896D01*
X-236157Y-90888D01*
X-236115Y-90797D01*
X-236068Y-90707D01*
X-236066Y-90694D01*
X-236062Y-90685D01*
X-236058Y-90639D01*
X-236041Y-90522D01*
X-236041Y-88533D01*
X-233967Y-86459D01*
X-231033Y-86459D01*
X-228959Y-88533D01*
X-228959Y-91467D01*
X-231033Y-93541D01*
X-233967Y-93541D01*
X-235373Y-92135D01*
X-235455Y-92077D01*
X-235536Y-92017D01*
X-235547Y-92013D01*
X-235557Y-92007D01*
X-235654Y-91981D01*
X-235751Y-91953D01*
X-235763Y-91954D01*
X-235774Y-91951D01*
X-235874Y-91961D01*
X-235975Y-91968D01*
X-235986Y-91973D01*
X-235997Y-91974D01*
X-236088Y-92018D01*
X-236179Y-92060D01*
X-236188Y-92068D01*
X-236199Y-92073D01*
X-236268Y-92146D01*
X-236339Y-92217D01*
X-236344Y-92228D01*
X-236352Y-92237D01*
X-236392Y-92329D01*
X-236434Y-92420D01*
X-236435Y-92432D01*
X-236440Y-92443D01*
X-236444Y-92544D01*
X-236453Y-92644D01*
X-236449Y-92657D01*
X-236450Y-92667D01*
X-236436Y-92711D01*
X-236407Y-92826D01*
X-236229Y-93255D01*
X-236229Y-96745D01*
X-237565Y-99968D01*
X-240032Y-102435D01*
X-243255Y-103771D01*
X-246745Y-103771D01*
G37*
%LPD*%
%LPC*%
G36*
X-111745Y-103771D02*
X-111745Y-103771D01*
X-114968Y-102435D01*
X-117435Y-99968D01*
X-118771Y-96745D01*
X-118771Y-93255D01*
X-117435Y-90032D01*
X-114968Y-87565D01*
X-111745Y-86229D01*
X-108255Y-86229D01*
X-105032Y-87565D01*
X-102565Y-90032D01*
X-101229Y-93255D01*
X-101229Y-96745D01*
X-102565Y-99968D01*
X-105032Y-102435D01*
X-108255Y-103771D01*
X-111745Y-103771D01*
G37*
%LPD*%
%LPC*%
G36*
X-201745Y-103771D02*
X-201745Y-103771D01*
X-204968Y-102435D01*
X-207435Y-99968D01*
X-208771Y-96745D01*
X-208771Y-93255D01*
X-207435Y-90032D01*
X-204968Y-87565D01*
X-201745Y-86229D01*
X-198255Y-86229D01*
X-195032Y-87565D01*
X-192565Y-90032D01*
X-191229Y-93255D01*
X-191229Y-96745D01*
X-192565Y-99968D01*
X-195032Y-102435D01*
X-198255Y-103771D01*
X-201745Y-103771D01*
G37*
%LPD*%
%LPC*%
G36*
X368405Y161979D02*
X368405Y161979D01*
X365457Y163200D01*
X363200Y165457D01*
X361979Y168405D01*
X361979Y171595D01*
X363200Y174543D01*
X365457Y176800D01*
X368405Y178021D01*
X371595Y178021D01*
X374543Y176800D01*
X376800Y174543D01*
X378021Y171595D01*
X378021Y168405D01*
X376800Y165457D01*
X374543Y163200D01*
X371595Y161979D01*
X368405Y161979D01*
G37*
%LPD*%
%LPC*%
G36*
X-371595Y161479D02*
X-371595Y161479D01*
X-374543Y162700D01*
X-376800Y164957D01*
X-378021Y167905D01*
X-378021Y171095D01*
X-376800Y174043D01*
X-374543Y176300D01*
X-371595Y177521D01*
X-368405Y177521D01*
X-365457Y176300D01*
X-363200Y174043D01*
X-361979Y171095D01*
X-361979Y167905D01*
X-363200Y164957D01*
X-365457Y162700D01*
X-368405Y161479D01*
X-371595Y161479D01*
G37*
%LPD*%
%LPC*%
G36*
X-371595Y61479D02*
X-371595Y61479D01*
X-374543Y62700D01*
X-376800Y64957D01*
X-378021Y67905D01*
X-378021Y71095D01*
X-376800Y74043D01*
X-374543Y76300D01*
X-371595Y77521D01*
X-368405Y77521D01*
X-365457Y76300D01*
X-363200Y74043D01*
X-361979Y71095D01*
X-361979Y67905D01*
X-363200Y64957D01*
X-365457Y62700D01*
X-368405Y61479D01*
X-371595Y61479D01*
G37*
%LPD*%
%LPC*%
G36*
X-371595Y41479D02*
X-371595Y41479D01*
X-374543Y42700D01*
X-376800Y44957D01*
X-378021Y47905D01*
X-378021Y51095D01*
X-376800Y54043D01*
X-374543Y56300D01*
X-371595Y57521D01*
X-368405Y57521D01*
X-365457Y56300D01*
X-363200Y54043D01*
X-361979Y51095D01*
X-361979Y47905D01*
X-363200Y44957D01*
X-365457Y42700D01*
X-368405Y41479D01*
X-371595Y41479D01*
G37*
%LPD*%
%LPC*%
G36*
X-371595Y81479D02*
X-371595Y81479D01*
X-374543Y82700D01*
X-376800Y84957D01*
X-378021Y87905D01*
X-378021Y91095D01*
X-376800Y94043D01*
X-374543Y96300D01*
X-371595Y97521D01*
X-368405Y97521D01*
X-365457Y96300D01*
X-363200Y94043D01*
X-361979Y91095D01*
X-361979Y87905D01*
X-363200Y84957D01*
X-365457Y82700D01*
X-368405Y81479D01*
X-371595Y81479D01*
G37*
%LPD*%
%LPC*%
G36*
X368405Y141979D02*
X368405Y141979D01*
X365457Y143200D01*
X363200Y145457D01*
X361979Y148405D01*
X361979Y151595D01*
X363200Y154543D01*
X365457Y156800D01*
X368405Y158021D01*
X371595Y158021D01*
X374543Y156800D01*
X376800Y154543D01*
X378021Y151595D01*
X378021Y148405D01*
X376800Y145457D01*
X374543Y143200D01*
X371595Y141979D01*
X368405Y141979D01*
G37*
%LPD*%
%LPC*%
G36*
X-371595Y141479D02*
X-371595Y141479D01*
X-374543Y142700D01*
X-376800Y144957D01*
X-378021Y147905D01*
X-378021Y151095D01*
X-376800Y154043D01*
X-374543Y156300D01*
X-371595Y157521D01*
X-368405Y157521D01*
X-365457Y156300D01*
X-363200Y154043D01*
X-361979Y151095D01*
X-361979Y147905D01*
X-363200Y144957D01*
X-365457Y142700D01*
X-368405Y141479D01*
X-371595Y141479D01*
G37*
%LPD*%
%LPC*%
G36*
X368405Y81979D02*
X368405Y81979D01*
X365457Y83200D01*
X363200Y85457D01*
X361979Y88405D01*
X361979Y91595D01*
X363200Y94543D01*
X365457Y96800D01*
X368405Y98021D01*
X371595Y98021D01*
X374543Y96800D01*
X376800Y94543D01*
X378021Y91595D01*
X378021Y88405D01*
X376800Y85457D01*
X374543Y83200D01*
X371595Y81979D01*
X368405Y81979D01*
G37*
%LPD*%
%LPC*%
G36*
X-371595Y181479D02*
X-371595Y181479D01*
X-374543Y182700D01*
X-376800Y184957D01*
X-378021Y187905D01*
X-378021Y191095D01*
X-376800Y194043D01*
X-374543Y196300D01*
X-371595Y197521D01*
X-368405Y197521D01*
X-365457Y196300D01*
X-363200Y194043D01*
X-361979Y191095D01*
X-361979Y187905D01*
X-363200Y184957D01*
X-365457Y182700D01*
X-368405Y181479D01*
X-371595Y181479D01*
G37*
%LPD*%
%LPC*%
G36*
X368405Y121979D02*
X368405Y121979D01*
X365457Y123200D01*
X363200Y125457D01*
X361979Y128405D01*
X361979Y131595D01*
X363200Y134543D01*
X365457Y136800D01*
X368405Y138021D01*
X371595Y138021D01*
X374543Y136800D01*
X376800Y134543D01*
X378021Y131595D01*
X378021Y128405D01*
X376800Y125457D01*
X374543Y123200D01*
X371595Y121979D01*
X368405Y121979D01*
G37*
%LPD*%
%LPC*%
G36*
X-371595Y121479D02*
X-371595Y121479D01*
X-374543Y122700D01*
X-376800Y124957D01*
X-378021Y127905D01*
X-378021Y131095D01*
X-376800Y134043D01*
X-374543Y136300D01*
X-371595Y137521D01*
X-368405Y137521D01*
X-365457Y136300D01*
X-363200Y134043D01*
X-361979Y131095D01*
X-361979Y127905D01*
X-363200Y124957D01*
X-365457Y122700D01*
X-368405Y121479D01*
X-371595Y121479D01*
G37*
%LPD*%
%LPC*%
G36*
X368405Y181979D02*
X368405Y181979D01*
X365457Y183200D01*
X363200Y185457D01*
X361979Y188405D01*
X361979Y191595D01*
X363200Y194543D01*
X365457Y196800D01*
X368405Y198021D01*
X371595Y198021D01*
X374543Y196800D01*
X376800Y194543D01*
X378021Y191595D01*
X378021Y188405D01*
X376800Y185457D01*
X374543Y183200D01*
X371595Y181979D01*
X368405Y181979D01*
G37*
%LPD*%
%LPC*%
G36*
X368405Y21979D02*
X368405Y21979D01*
X365457Y23200D01*
X363200Y25457D01*
X361979Y28405D01*
X361979Y31595D01*
X363200Y34543D01*
X365457Y36800D01*
X368405Y38021D01*
X371595Y38021D01*
X374543Y36800D01*
X376800Y34543D01*
X378021Y31595D01*
X378021Y28405D01*
X376800Y25457D01*
X374543Y23200D01*
X371595Y21979D01*
X368405Y21979D01*
G37*
%LPD*%
%LPC*%
G36*
X368405Y101979D02*
X368405Y101979D01*
X365457Y103200D01*
X363200Y105457D01*
X361979Y108405D01*
X361979Y111595D01*
X363200Y114543D01*
X365457Y116800D01*
X368405Y118021D01*
X371595Y118021D01*
X374543Y116800D01*
X376800Y114543D01*
X378021Y111595D01*
X378021Y108405D01*
X376800Y105457D01*
X374543Y103200D01*
X371595Y101979D01*
X368405Y101979D01*
G37*
%LPD*%
%LPC*%
G36*
X-371595Y101479D02*
X-371595Y101479D01*
X-374543Y102700D01*
X-376800Y104957D01*
X-378021Y107905D01*
X-378021Y111095D01*
X-376800Y114043D01*
X-374543Y116300D01*
X-371595Y117521D01*
X-368405Y117521D01*
X-365457Y116300D01*
X-363200Y114043D01*
X-361979Y111095D01*
X-361979Y107905D01*
X-363200Y104957D01*
X-365457Y102700D01*
X-368405Y101479D01*
X-371595Y101479D01*
G37*
%LPD*%
%LPC*%
G36*
X368405Y41979D02*
X368405Y41979D01*
X365457Y43200D01*
X363200Y45457D01*
X361979Y48405D01*
X361979Y51595D01*
X363200Y54543D01*
X365457Y56800D01*
X368405Y58021D01*
X371595Y58021D01*
X374543Y56800D01*
X376800Y54543D01*
X378021Y51595D01*
X378021Y48405D01*
X376800Y45457D01*
X374543Y43200D01*
X371595Y41979D01*
X368405Y41979D01*
G37*
%LPD*%
%LPC*%
G36*
X-371595Y21479D02*
X-371595Y21479D01*
X-374543Y22700D01*
X-376800Y24957D01*
X-378021Y27905D01*
X-378021Y31095D01*
X-376800Y34043D01*
X-374543Y36300D01*
X-371595Y37521D01*
X-368405Y37521D01*
X-365457Y36300D01*
X-363200Y34043D01*
X-361979Y31095D01*
X-361979Y27905D01*
X-363200Y24957D01*
X-365457Y22700D01*
X-368405Y21479D01*
X-371595Y21479D01*
G37*
%LPD*%
%LPC*%
G36*
X368405Y61979D02*
X368405Y61979D01*
X365457Y63200D01*
X363200Y65457D01*
X361979Y68405D01*
X361979Y71595D01*
X363200Y74543D01*
X365457Y76800D01*
X368405Y78021D01*
X371595Y78021D01*
X374543Y76800D01*
X376800Y74543D01*
X378021Y71595D01*
X378021Y68405D01*
X376800Y65457D01*
X374543Y63200D01*
X371595Y61979D01*
X368405Y61979D01*
G37*
%LPD*%
%LPC*%
G36*
X368405Y201979D02*
X368405Y201979D01*
X365457Y203200D01*
X363200Y205457D01*
X361979Y208405D01*
X361979Y211595D01*
X363200Y214543D01*
X365457Y216800D01*
X368405Y218021D01*
X371595Y218021D01*
X374543Y216800D01*
X376800Y214543D01*
X378021Y211595D01*
X378021Y208405D01*
X376800Y205457D01*
X374543Y203200D01*
X371595Y201979D01*
X368405Y201979D01*
G37*
%LPD*%
%LPC*%
G36*
X-371595Y201479D02*
X-371595Y201479D01*
X-374543Y202700D01*
X-376800Y204957D01*
X-378021Y207905D01*
X-378021Y211095D01*
X-376800Y214043D01*
X-374543Y216300D01*
X-371595Y217521D01*
X-368405Y217521D01*
X-365457Y216300D01*
X-363200Y214043D01*
X-361979Y211095D01*
X-361979Y207905D01*
X-363200Y204957D01*
X-365457Y202700D01*
X-368405Y201479D01*
X-371595Y201479D01*
G37*
%LPD*%
%LPC*%
G36*
X368405Y1979D02*
X368405Y1979D01*
X365457Y3200D01*
X363200Y5457D01*
X361979Y8405D01*
X361979Y11595D01*
X363200Y14543D01*
X365457Y16800D01*
X368405Y18021D01*
X371595Y18021D01*
X374543Y16800D01*
X376800Y14543D01*
X378021Y11595D01*
X378021Y8405D01*
X376800Y5457D01*
X374543Y3200D01*
X371595Y1979D01*
X368405Y1979D01*
G37*
%LPD*%
%LPC*%
G36*
X-371595Y-18521D02*
X-371595Y-18521D01*
X-374543Y-17300D01*
X-376800Y-15043D01*
X-378021Y-12095D01*
X-378021Y-8905D01*
X-376800Y-5957D01*
X-374543Y-3700D01*
X-371595Y-2479D01*
X-368405Y-2479D01*
X-365457Y-3700D01*
X-363200Y-5957D01*
X-361979Y-8905D01*
X-361979Y-12095D01*
X-363200Y-15043D01*
X-365457Y-17300D01*
X-368405Y-18521D01*
X-371595Y-18521D01*
G37*
%LPD*%
%LPC*%
G36*
X368405Y-18021D02*
X368405Y-18021D01*
X365457Y-16800D01*
X363200Y-14543D01*
X361979Y-11595D01*
X361979Y-8405D01*
X363200Y-5457D01*
X365457Y-3200D01*
X368405Y-1979D01*
X371595Y-1979D01*
X374543Y-3200D01*
X376800Y-5457D01*
X378021Y-8405D01*
X378021Y-11595D01*
X376800Y-14543D01*
X374543Y-16800D01*
X371595Y-18021D01*
X368405Y-18021D01*
G37*
%LPD*%
%LPC*%
G36*
X-371595Y1479D02*
X-371595Y1479D01*
X-374543Y2700D01*
X-376800Y4957D01*
X-378021Y7905D01*
X-378021Y11095D01*
X-376800Y14043D01*
X-374543Y16300D01*
X-371595Y17521D01*
X-368405Y17521D01*
X-365457Y16300D01*
X-363200Y14043D01*
X-361979Y11095D01*
X-361979Y7905D01*
X-363200Y4957D01*
X-365457Y2700D01*
X-368405Y1479D01*
X-371595Y1479D01*
G37*
%LPD*%
%LPC*%
G36*
X-121467Y201459D02*
X-121467Y201459D01*
X-123541Y203533D01*
X-123541Y205825D01*
X-123552Y205890D01*
X-123554Y205956D01*
X-123572Y205999D01*
X-123580Y206046D01*
X-123614Y206103D01*
X-123639Y206163D01*
X-123670Y206198D01*
X-123695Y206239D01*
X-123746Y206280D01*
X-123790Y206329D01*
X-123832Y206351D01*
X-123869Y206380D01*
X-123931Y206401D01*
X-123990Y206432D01*
X-124044Y206440D01*
X-124081Y206452D01*
X-124121Y206451D01*
X-124175Y206459D01*
X-126467Y206459D01*
X-128541Y208533D01*
X-128541Y211467D01*
X-126467Y213541D01*
X-123533Y213541D01*
X-121459Y211467D01*
X-121459Y209175D01*
X-121448Y209110D01*
X-121446Y209044D01*
X-121428Y209001D01*
X-121420Y208954D01*
X-121386Y208897D01*
X-121361Y208837D01*
X-121330Y208802D01*
X-121305Y208761D01*
X-121254Y208719D01*
X-121210Y208671D01*
X-121168Y208649D01*
X-121131Y208620D01*
X-121069Y208599D01*
X-121010Y208568D01*
X-120956Y208560D01*
X-120919Y208548D01*
X-120879Y208549D01*
X-120825Y208541D01*
X-118533Y208541D01*
X-116459Y206467D01*
X-116459Y203533D01*
X-118533Y201459D01*
X-121467Y201459D01*
G37*
%LPD*%
%LPC*%
G36*
X-23967Y53959D02*
X-23967Y53959D01*
X-26041Y56033D01*
X-26041Y58325D01*
X-26052Y58390D01*
X-26054Y58456D01*
X-26072Y58499D01*
X-26080Y58546D01*
X-26114Y58603D01*
X-26139Y58663D01*
X-26170Y58698D01*
X-26195Y58739D01*
X-26246Y58780D01*
X-26290Y58829D01*
X-26332Y58851D01*
X-26369Y58880D01*
X-26431Y58901D01*
X-26490Y58932D01*
X-26544Y58940D01*
X-26581Y58952D01*
X-26621Y58951D01*
X-26675Y58959D01*
X-28967Y58959D01*
X-31041Y61033D01*
X-31041Y63967D01*
X-28967Y66041D01*
X-26033Y66041D01*
X-23959Y63967D01*
X-23959Y61675D01*
X-23948Y61610D01*
X-23946Y61544D01*
X-23928Y61501D01*
X-23920Y61454D01*
X-23886Y61397D01*
X-23861Y61337D01*
X-23830Y61302D01*
X-23805Y61261D01*
X-23754Y61219D01*
X-23710Y61171D01*
X-23668Y61149D01*
X-23631Y61120D01*
X-23569Y61099D01*
X-23510Y61068D01*
X-23456Y61060D01*
X-23419Y61048D01*
X-23379Y61049D01*
X-23325Y61041D01*
X-21033Y61041D01*
X-18959Y58967D01*
X-18959Y56033D01*
X-21033Y53959D01*
X-23967Y53959D01*
G37*
%LPD*%
%LPC*%
G36*
X26033Y-46041D02*
X26033Y-46041D01*
X23959Y-43967D01*
X23959Y-41675D01*
X23948Y-41610D01*
X23946Y-41544D01*
X23928Y-41501D01*
X23920Y-41454D01*
X23886Y-41397D01*
X23861Y-41337D01*
X23830Y-41302D01*
X23805Y-41261D01*
X23754Y-41219D01*
X23710Y-41171D01*
X23668Y-41149D01*
X23631Y-41120D01*
X23569Y-41099D01*
X23510Y-41068D01*
X23456Y-41060D01*
X23419Y-41048D01*
X23379Y-41049D01*
X23325Y-41041D01*
X21033Y-41041D01*
X18959Y-38967D01*
X18959Y-36033D01*
X21033Y-33959D01*
X23967Y-33959D01*
X26041Y-36033D01*
X26041Y-38325D01*
X26052Y-38390D01*
X26054Y-38456D01*
X26072Y-38499D01*
X26080Y-38546D01*
X26114Y-38603D01*
X26139Y-38663D01*
X26170Y-38698D01*
X26195Y-38739D01*
X26246Y-38781D01*
X26290Y-38829D01*
X26332Y-38851D01*
X26369Y-38880D01*
X26431Y-38901D01*
X26490Y-38932D01*
X26544Y-38940D01*
X26581Y-38952D01*
X26621Y-38951D01*
X26675Y-38959D01*
X28967Y-38959D01*
X31041Y-41033D01*
X31041Y-43967D01*
X28967Y-46041D01*
X26033Y-46041D01*
G37*
%LPD*%
%LPC*%
G36*
X-86467Y206459D02*
X-86467Y206459D01*
X-88541Y208533D01*
X-88541Y210825D01*
X-88552Y210890D01*
X-88554Y210956D01*
X-88572Y210999D01*
X-88580Y211046D01*
X-88614Y211103D01*
X-88639Y211163D01*
X-88670Y211198D01*
X-88695Y211239D01*
X-88746Y211281D01*
X-88790Y211329D01*
X-88832Y211351D01*
X-88869Y211380D01*
X-88931Y211401D01*
X-88990Y211432D01*
X-89044Y211440D01*
X-89081Y211452D01*
X-89121Y211451D01*
X-89175Y211459D01*
X-91467Y211459D01*
X-93541Y213533D01*
X-93541Y216467D01*
X-91467Y218541D01*
X-88533Y218541D01*
X-86459Y216467D01*
X-86459Y214175D01*
X-86448Y214110D01*
X-86446Y214044D01*
X-86428Y214001D01*
X-86420Y213954D01*
X-86386Y213897D01*
X-86361Y213837D01*
X-86330Y213802D01*
X-86305Y213761D01*
X-86254Y213719D01*
X-86210Y213671D01*
X-86168Y213649D01*
X-86131Y213620D01*
X-86069Y213599D01*
X-86010Y213568D01*
X-85956Y213560D01*
X-85919Y213548D01*
X-85879Y213549D01*
X-85825Y213541D01*
X-83533Y213541D01*
X-81459Y211467D01*
X-81459Y208533D01*
X-83533Y206459D01*
X-86467Y206459D01*
G37*
%LPD*%
%LPC*%
G36*
X-71467Y108959D02*
X-71467Y108959D01*
X-73541Y111033D01*
X-73541Y113967D01*
X-71467Y116041D01*
X-69175Y116041D01*
X-69110Y116052D01*
X-69044Y116054D01*
X-69001Y116072D01*
X-68954Y116080D01*
X-68897Y116114D01*
X-68837Y116139D01*
X-68802Y116170D01*
X-68761Y116195D01*
X-68719Y116246D01*
X-68671Y116290D01*
X-68649Y116332D01*
X-68620Y116369D01*
X-68599Y116431D01*
X-68568Y116490D01*
X-68560Y116544D01*
X-68548Y116581D01*
X-68549Y116621D01*
X-68541Y116675D01*
X-68541Y118967D01*
X-66467Y121041D01*
X-63533Y121041D01*
X-61459Y118967D01*
X-61459Y116033D01*
X-63533Y113959D01*
X-65825Y113959D01*
X-65890Y113948D01*
X-65956Y113946D01*
X-65999Y113928D01*
X-66046Y113920D01*
X-66103Y113886D01*
X-66163Y113861D01*
X-66198Y113830D01*
X-66239Y113805D01*
X-66281Y113754D01*
X-66329Y113710D01*
X-66351Y113668D01*
X-66380Y113631D01*
X-66401Y113569D01*
X-66432Y113510D01*
X-66440Y113456D01*
X-66452Y113419D01*
X-66451Y113379D01*
X-66459Y113325D01*
X-66459Y111033D01*
X-68533Y108959D01*
X-71467Y108959D01*
G37*
%LPD*%
%LPC*%
G36*
X-246256Y46967D02*
X-246256Y46967D01*
X-248033Y48744D01*
X-248033Y51256D01*
X-246256Y53033D01*
X-243744Y53033D01*
X-242948Y52237D01*
X-242894Y52200D01*
X-242847Y52155D01*
X-242803Y52136D01*
X-242764Y52109D01*
X-242701Y52093D01*
X-242640Y52067D01*
X-242593Y52065D01*
X-242547Y52053D01*
X-242482Y52060D01*
X-242416Y52057D01*
X-242371Y52072D01*
X-242324Y52077D01*
X-242265Y52106D01*
X-242202Y52126D01*
X-242158Y52159D01*
X-242123Y52176D01*
X-242096Y52205D01*
X-242051Y52237D01*
X-241256Y53033D01*
X-238744Y53033D01*
X-236967Y51256D01*
X-236967Y48744D01*
X-238744Y46967D01*
X-241256Y46967D01*
X-242051Y47763D01*
X-242106Y47800D01*
X-242153Y47845D01*
X-242197Y47864D01*
X-242236Y47891D01*
X-242299Y47907D01*
X-242360Y47933D01*
X-242407Y47935D01*
X-242453Y47947D01*
X-242518Y47940D01*
X-242584Y47943D01*
X-242629Y47928D01*
X-242676Y47923D01*
X-242735Y47894D01*
X-242798Y47874D01*
X-242842Y47841D01*
X-242877Y47824D01*
X-242904Y47795D01*
X-242948Y47763D01*
X-243744Y46967D01*
X-246256Y46967D01*
G37*
%LPD*%
%LPC*%
G36*
X-157351Y-104794D02*
X-157351Y-104794D01*
X-158854Y-104305D01*
X-160262Y-103588D01*
X-161541Y-102659D01*
X-162659Y-101541D01*
X-163588Y-100262D01*
X-164305Y-98854D01*
X-164794Y-97351D01*
X-164965Y-96269D01*
X-156269Y-96269D01*
X-156269Y-104965D01*
X-157351Y-104794D01*
G37*
%LPD*%
%LPC*%
G36*
X-153731Y-96269D02*
X-153731Y-96269D01*
X-145035Y-96269D01*
X-145206Y-97351D01*
X-145695Y-98854D01*
X-146412Y-100262D01*
X-147341Y-101541D01*
X-148459Y-102659D01*
X-149738Y-103588D01*
X-151146Y-104305D01*
X-152649Y-104794D01*
X-153731Y-104965D01*
X-153731Y-96269D01*
G37*
%LPD*%
%LPC*%
G36*
X-164965Y-93731D02*
X-164965Y-93731D01*
X-164794Y-92649D01*
X-164305Y-91146D01*
X-163588Y-89738D01*
X-162659Y-88459D01*
X-161541Y-87341D01*
X-160262Y-86412D01*
X-158854Y-85695D01*
X-157351Y-85206D01*
X-156269Y-85035D01*
X-156269Y-93731D01*
X-164965Y-93731D01*
G37*
%LPD*%
%LPC*%
G36*
X-153731Y-93731D02*
X-153731Y-93731D01*
X-153731Y-85035D01*
X-152649Y-85206D01*
X-151146Y-85695D01*
X-149738Y-86412D01*
X-148459Y-87341D01*
X-147341Y-88459D01*
X-146412Y-89738D01*
X-145695Y-91146D01*
X-145206Y-92649D01*
X-145035Y-93731D01*
X-153731Y-93731D01*
G37*
%LPD*%
%LPC*%
G36*
X-43967Y193959D02*
X-43967Y193959D01*
X-46041Y196033D01*
X-46041Y198967D01*
X-43967Y201041D01*
X-41033Y201041D01*
X-38959Y198967D01*
X-38959Y196033D01*
X-41033Y193959D01*
X-43967Y193959D01*
G37*
%LPD*%
%LPC*%
G36*
X126033Y-21041D02*
X126033Y-21041D01*
X123959Y-18967D01*
X123959Y-16033D01*
X126033Y-13959D01*
X128967Y-13959D01*
X131041Y-16033D01*
X131041Y-18967D01*
X128967Y-21041D01*
X126033Y-21041D01*
G37*
%LPD*%
%LPC*%
G36*
X-78967Y188959D02*
X-78967Y188959D01*
X-81041Y191033D01*
X-81041Y193967D01*
X-78967Y196041D01*
X-76033Y196041D01*
X-73959Y193967D01*
X-73959Y191033D01*
X-76033Y188959D01*
X-78967Y188959D01*
G37*
%LPD*%
%LPC*%
G36*
X318533Y-198541D02*
X318533Y-198541D01*
X316459Y-196467D01*
X316459Y-193533D01*
X318533Y-191459D01*
X321467Y-191459D01*
X323541Y-193533D01*
X323541Y-196467D01*
X321467Y-198541D01*
X318533Y-198541D01*
G37*
%LPD*%
%LPC*%
G36*
X328533Y-198541D02*
X328533Y-198541D01*
X326459Y-196467D01*
X326459Y-193533D01*
X328533Y-191459D01*
X331467Y-191459D01*
X333541Y-193533D01*
X333541Y-196467D01*
X331467Y-198541D01*
X328533Y-198541D01*
G37*
%LPD*%
%LPC*%
G36*
X328533Y-188541D02*
X328533Y-188541D01*
X326459Y-186467D01*
X326459Y-183533D01*
X328533Y-181459D01*
X331467Y-181459D01*
X333541Y-183533D01*
X333541Y-186467D01*
X331467Y-188541D01*
X328533Y-188541D01*
G37*
%LPD*%
%LPC*%
G36*
X-48967Y238959D02*
X-48967Y238959D01*
X-51041Y241033D01*
X-51041Y243967D01*
X-48967Y246041D01*
X-46033Y246041D01*
X-43959Y243967D01*
X-43959Y241033D01*
X-46033Y238959D01*
X-48967Y238959D01*
G37*
%LPD*%
%LPC*%
G36*
X-21467Y203959D02*
X-21467Y203959D01*
X-23541Y206033D01*
X-23541Y208967D01*
X-21467Y211041D01*
X-18533Y211041D01*
X-16459Y208967D01*
X-16459Y206033D01*
X-18533Y203959D01*
X-21467Y203959D01*
G37*
%LPD*%
%LPC*%
G36*
X278533Y-173541D02*
X278533Y-173541D01*
X276459Y-171467D01*
X276459Y-168533D01*
X278533Y-166459D01*
X281467Y-166459D01*
X283541Y-168533D01*
X283541Y-171467D01*
X281467Y-173541D01*
X278533Y-173541D01*
G37*
%LPD*%
%LPC*%
G36*
X51033Y56459D02*
X51033Y56459D01*
X48959Y58533D01*
X48959Y61467D01*
X51033Y63541D01*
X53967Y63541D01*
X56041Y61467D01*
X56041Y58533D01*
X53967Y56459D01*
X51033Y56459D01*
G37*
%LPD*%
%LPC*%
G36*
X71033Y53959D02*
X71033Y53959D01*
X68959Y56033D01*
X68959Y58967D01*
X71033Y61041D01*
X73967Y61041D01*
X76041Y58967D01*
X76041Y56033D01*
X73967Y53959D01*
X71033Y53959D01*
G37*
%LPD*%
%LPC*%
G36*
X-21467Y193959D02*
X-21467Y193959D01*
X-23541Y196033D01*
X-23541Y198967D01*
X-21467Y201041D01*
X-18533Y201041D01*
X-16459Y198967D01*
X-16459Y196033D01*
X-18533Y193959D01*
X-21467Y193959D01*
G37*
%LPD*%
%LPC*%
G36*
X318533Y-173541D02*
X318533Y-173541D01*
X316459Y-171467D01*
X316459Y-168533D01*
X318533Y-166459D01*
X321467Y-166459D01*
X323541Y-168533D01*
X323541Y-171467D01*
X321467Y-173541D01*
X318533Y-173541D01*
G37*
%LPD*%
%LPC*%
G36*
X311033Y46459D02*
X311033Y46459D01*
X308959Y48533D01*
X308959Y51467D01*
X311033Y53541D01*
X313967Y53541D01*
X316041Y51467D01*
X316041Y48533D01*
X313967Y46459D01*
X311033Y46459D01*
G37*
%LPD*%
%LPC*%
G36*
X226033Y86459D02*
X226033Y86459D01*
X223959Y88533D01*
X223959Y91467D01*
X226033Y93541D01*
X228967Y93541D01*
X231041Y91467D01*
X231041Y88533D01*
X228967Y86459D01*
X226033Y86459D01*
G37*
%LPD*%
%LPC*%
G36*
X-298967Y-151041D02*
X-298967Y-151041D01*
X-301041Y-148967D01*
X-301041Y-146033D01*
X-298967Y-143959D01*
X-296033Y-143959D01*
X-293959Y-146033D01*
X-293959Y-148967D01*
X-296033Y-151041D01*
X-298967Y-151041D01*
G37*
%LPD*%
%LPC*%
G36*
X-248967Y-138541D02*
X-248967Y-138541D01*
X-251041Y-136467D01*
X-251041Y-133533D01*
X-248967Y-131459D01*
X-246033Y-131459D01*
X-243959Y-133533D01*
X-243959Y-136467D01*
X-246033Y-138541D01*
X-248967Y-138541D01*
G37*
%LPD*%
%LPC*%
G36*
X-78967Y161459D02*
X-78967Y161459D01*
X-81041Y163533D01*
X-81041Y166467D01*
X-78967Y168541D01*
X-76033Y168541D01*
X-73959Y166467D01*
X-73959Y163533D01*
X-76033Y161459D01*
X-78967Y161459D01*
G37*
%LPD*%
%LPC*%
G36*
X-231467Y156459D02*
X-231467Y156459D01*
X-233541Y158533D01*
X-233541Y161467D01*
X-231467Y163541D01*
X-228533Y163541D01*
X-226459Y161467D01*
X-226459Y158533D01*
X-228533Y156459D01*
X-231467Y156459D01*
G37*
%LPD*%
%LPC*%
G36*
X-31467Y151459D02*
X-31467Y151459D01*
X-33541Y153533D01*
X-33541Y156467D01*
X-31467Y158541D01*
X-28533Y158541D01*
X-26459Y156467D01*
X-26459Y153533D01*
X-28533Y151459D01*
X-31467Y151459D01*
G37*
%LPD*%
%LPC*%
G36*
X-36467Y133959D02*
X-36467Y133959D01*
X-38541Y136033D01*
X-38541Y138967D01*
X-36467Y141041D01*
X-33533Y141041D01*
X-31459Y138967D01*
X-31459Y136033D01*
X-33533Y133959D01*
X-36467Y133959D01*
G37*
%LPD*%
%LPC*%
G36*
X276033Y33959D02*
X276033Y33959D01*
X273959Y36033D01*
X273959Y38967D01*
X276033Y41041D01*
X278967Y41041D01*
X281041Y38967D01*
X281041Y36033D01*
X278967Y33959D01*
X276033Y33959D01*
G37*
%LPD*%
%LPC*%
G36*
X-66467Y33959D02*
X-66467Y33959D01*
X-68541Y36033D01*
X-68541Y38967D01*
X-66467Y41041D01*
X-63533Y41041D01*
X-61459Y38967D01*
X-61459Y36033D01*
X-63533Y33959D01*
X-66467Y33959D01*
G37*
%LPD*%
%LPC*%
G36*
X-103967Y91459D02*
X-103967Y91459D01*
X-106041Y93533D01*
X-106041Y96467D01*
X-103967Y98541D01*
X-101033Y98541D01*
X-98959Y96467D01*
X-98959Y93533D01*
X-101033Y91459D01*
X-103967Y91459D01*
G37*
%LPD*%
%LPC*%
G36*
X-88967Y91459D02*
X-88967Y91459D01*
X-91041Y93533D01*
X-91041Y96467D01*
X-88967Y98541D01*
X-86033Y98541D01*
X-83959Y96467D01*
X-83959Y93533D01*
X-86033Y91459D01*
X-88967Y91459D01*
G37*
%LPD*%
%LPC*%
G36*
X263533Y16459D02*
X263533Y16459D01*
X261459Y18533D01*
X261459Y21467D01*
X263533Y23541D01*
X266467Y23541D01*
X268541Y21467D01*
X268541Y18533D01*
X266467Y16459D01*
X263533Y16459D01*
G37*
%LPD*%
%LPC*%
G36*
X-71467Y126459D02*
X-71467Y126459D01*
X-73541Y128533D01*
X-73541Y131467D01*
X-71467Y133541D01*
X-68533Y133541D01*
X-66459Y131467D01*
X-66459Y128533D01*
X-68533Y126459D01*
X-71467Y126459D01*
G37*
%LPD*%
%LPC*%
G36*
X276033Y108959D02*
X276033Y108959D01*
X273959Y111033D01*
X273959Y113967D01*
X276033Y116041D01*
X278967Y116041D01*
X281041Y113967D01*
X281041Y111033D01*
X278967Y108959D01*
X276033Y108959D01*
G37*
%LPD*%
%LPC*%
G36*
X276033Y6459D02*
X276033Y6459D01*
X273959Y8533D01*
X273959Y11467D01*
X276033Y13541D01*
X278967Y13541D01*
X281041Y11467D01*
X281041Y8533D01*
X278967Y6459D01*
X276033Y6459D01*
G37*
%LPD*%
%LPC*%
G36*
X171033Y3959D02*
X171033Y3959D01*
X168959Y6033D01*
X168959Y8967D01*
X171033Y11041D01*
X173967Y11041D01*
X176041Y8967D01*
X176041Y6033D01*
X173967Y3959D01*
X171033Y3959D01*
G37*
%LPD*%
%LPC*%
G36*
X226033Y1459D02*
X226033Y1459D01*
X223959Y3533D01*
X223959Y6467D01*
X226033Y8541D01*
X228967Y8541D01*
X231041Y6467D01*
X231041Y3533D01*
X228967Y1459D01*
X226033Y1459D01*
G37*
%LPD*%
%LPC*%
G36*
X31033Y1459D02*
X31033Y1459D01*
X28959Y3533D01*
X28959Y6467D01*
X31033Y8541D01*
X33967Y8541D01*
X36041Y6467D01*
X36041Y3533D01*
X33967Y1459D01*
X31033Y1459D01*
G37*
%LPD*%
%LPC*%
G36*
X271033Y-8541D02*
X271033Y-8541D01*
X268959Y-6467D01*
X268959Y-3533D01*
X271033Y-1459D01*
X273967Y-1459D01*
X276041Y-3533D01*
X276041Y-6467D01*
X273967Y-8541D01*
X271033Y-8541D01*
G37*
%LPD*%
%LPC*%
G36*
X-181467Y96459D02*
X-181467Y96459D01*
X-183541Y98533D01*
X-183541Y101467D01*
X-181467Y103541D01*
X-178533Y103541D01*
X-176459Y101467D01*
X-176459Y98533D01*
X-178533Y96459D01*
X-181467Y96459D01*
G37*
%LPD*%
%LPC*%
G36*
X266033Y98959D02*
X266033Y98959D01*
X263959Y101033D01*
X263959Y103967D01*
X266033Y106041D01*
X268967Y106041D01*
X271041Y103967D01*
X271041Y101033D01*
X268967Y98959D01*
X266033Y98959D01*
G37*
%LPD*%
%LPC*%
G36*
X226033Y-18541D02*
X226033Y-18541D01*
X223959Y-16467D01*
X223959Y-13533D01*
X226033Y-11459D01*
X228967Y-11459D01*
X231041Y-13533D01*
X231041Y-16467D01*
X228967Y-18541D01*
X226033Y-18541D01*
G37*
%LPD*%
%LPC*%
G36*
X-88967Y108959D02*
X-88967Y108959D01*
X-91041Y111033D01*
X-91041Y113967D01*
X-88967Y116041D01*
X-86033Y116041D01*
X-83959Y113967D01*
X-83959Y111033D01*
X-86033Y108959D01*
X-88967Y108959D01*
G37*
%LPD*%
%LPC*%
G36*
X283533Y-26041D02*
X283533Y-26041D01*
X281459Y-23967D01*
X281459Y-21033D01*
X283533Y-18959D01*
X286467Y-18959D01*
X288541Y-21033D01*
X288541Y-23967D01*
X286467Y-26041D01*
X283533Y-26041D01*
G37*
%LPD*%
%LPC*%
G36*
X291033Y103959D02*
X291033Y103959D01*
X288959Y106033D01*
X288959Y108967D01*
X291033Y111041D01*
X293967Y111041D01*
X296041Y108967D01*
X296041Y106033D01*
X293967Y103959D01*
X291033Y103959D01*
G37*
%LPD*%
%LPC*%
G36*
X3533Y-46041D02*
X3533Y-46041D01*
X1459Y-43967D01*
X1459Y-41033D01*
X3533Y-38959D01*
X6467Y-38959D01*
X8541Y-41033D01*
X8541Y-43967D01*
X6467Y-46041D01*
X3533Y-46041D01*
G37*
%LPD*%
%LPC*%
G36*
X63533Y-46041D02*
X63533Y-46041D01*
X61459Y-43967D01*
X61459Y-41033D01*
X63533Y-38959D01*
X66467Y-38959D01*
X68541Y-41033D01*
X68541Y-43967D01*
X66467Y-46041D01*
X63533Y-46041D01*
G37*
%LPD*%
%LPC*%
G36*
X253533Y106459D02*
X253533Y106459D01*
X251459Y108533D01*
X251459Y111467D01*
X253533Y113541D01*
X256467Y113541D01*
X258541Y111467D01*
X258541Y108533D01*
X256467Y106459D01*
X253533Y106459D01*
G37*
%LPD*%
%LPC*%
G36*
X-301467Y-86041D02*
X-301467Y-86041D01*
X-303541Y-83967D01*
X-303541Y-81033D01*
X-301467Y-78959D01*
X-298533Y-78959D01*
X-296459Y-81033D01*
X-296459Y-83967D01*
X-298533Y-86041D01*
X-301467Y-86041D01*
G37*
%LPD*%
%LPC*%
G36*
X321033Y-51041D02*
X321033Y-51041D01*
X318959Y-48967D01*
X318959Y-46033D01*
X321033Y-43959D01*
X323967Y-43959D01*
X326041Y-46033D01*
X326041Y-48967D01*
X323967Y-51041D01*
X321033Y-51041D01*
G37*
%LPD*%
%LPC*%
G36*
X-276467Y-53541D02*
X-276467Y-53541D01*
X-278541Y-51467D01*
X-278541Y-48533D01*
X-276467Y-46459D01*
X-273533Y-46459D01*
X-271459Y-48533D01*
X-271459Y-51467D01*
X-273533Y-53541D01*
X-276467Y-53541D01*
G37*
%LPD*%
%LPC*%
G36*
X-326467Y-66041D02*
X-326467Y-66041D01*
X-328541Y-63967D01*
X-328541Y-61033D01*
X-326467Y-58959D01*
X-323533Y-58959D01*
X-321459Y-61033D01*
X-321459Y-63967D01*
X-323533Y-66041D01*
X-326467Y-66041D01*
G37*
%LPD*%
%LPC*%
G36*
X-288967Y-66041D02*
X-288967Y-66041D01*
X-291041Y-63967D01*
X-291041Y-61033D01*
X-288967Y-58959D01*
X-286033Y-58959D01*
X-283959Y-61033D01*
X-283959Y-63967D01*
X-286033Y-66041D01*
X-288967Y-66041D01*
G37*
%LPD*%
%LPC*%
G36*
X-333967Y-73541D02*
X-333967Y-73541D01*
X-336041Y-71467D01*
X-336041Y-68533D01*
X-333967Y-66459D01*
X-331033Y-66459D01*
X-328959Y-68533D01*
X-328959Y-71467D01*
X-331033Y-73541D01*
X-333967Y-73541D01*
G37*
%LPD*%
%LPC*%
G36*
X-218967Y-78541D02*
X-218967Y-78541D01*
X-221041Y-76467D01*
X-221041Y-73533D01*
X-218967Y-71459D01*
X-216033Y-71459D01*
X-213959Y-73533D01*
X-213959Y-76467D01*
X-216033Y-78541D01*
X-218967Y-78541D01*
G37*
%LPD*%
%LPC*%
G36*
X306033Y-78541D02*
X306033Y-78541D01*
X303959Y-76467D01*
X303959Y-73533D01*
X306033Y-71459D01*
X308967Y-71459D01*
X311041Y-73533D01*
X311041Y-76467D01*
X308967Y-78541D01*
X306033Y-78541D01*
G37*
%LPD*%
%LPC*%
G36*
X-231256Y106967D02*
X-231256Y106967D01*
X-233033Y108744D01*
X-233033Y111256D01*
X-231256Y113033D01*
X-228744Y113033D01*
X-226967Y111256D01*
X-226967Y108744D01*
X-228744Y106967D01*
X-231256Y106967D01*
G37*
%LPD*%
%LPC*%
G36*
X-291256Y106967D02*
X-291256Y106967D01*
X-293033Y108744D01*
X-293033Y111256D01*
X-291256Y113033D01*
X-288744Y113033D01*
X-286967Y111256D01*
X-286967Y108744D01*
X-288744Y106967D01*
X-291256Y106967D01*
G37*
%LPD*%
%LPC*%
G36*
X-281256Y86967D02*
X-281256Y86967D01*
X-283033Y88744D01*
X-283033Y91256D01*
X-281256Y93033D01*
X-278744Y93033D01*
X-276967Y91256D01*
X-276967Y88744D01*
X-278744Y86967D01*
X-281256Y86967D01*
G37*
%LPD*%
%LPC*%
G36*
X-231256Y96967D02*
X-231256Y96967D01*
X-233033Y98744D01*
X-233033Y101256D01*
X-231256Y103033D01*
X-228744Y103033D01*
X-226967Y101256D01*
X-226967Y98744D01*
X-228744Y96967D01*
X-231256Y96967D01*
G37*
%LPD*%
%LPC*%
G36*
X-291256Y96967D02*
X-291256Y96967D01*
X-293033Y98744D01*
X-293033Y101256D01*
X-291256Y103033D01*
X-288744Y103033D01*
X-286967Y101256D01*
X-286967Y98744D01*
X-288744Y96967D01*
X-291256Y96967D01*
G37*
%LPD*%
%LPC*%
G36*
X-241256Y36967D02*
X-241256Y36967D01*
X-243033Y38744D01*
X-243033Y41256D01*
X-241256Y43033D01*
X-238744Y43033D01*
X-236967Y41256D01*
X-236967Y38744D01*
X-238744Y36967D01*
X-241256Y36967D01*
G37*
%LPD*%
%LPC*%
G36*
X-291256Y46967D02*
X-291256Y46967D01*
X-293033Y48744D01*
X-293033Y51256D01*
X-291256Y53033D01*
X-288744Y53033D01*
X-286967Y51256D01*
X-286967Y48744D01*
X-288744Y46967D01*
X-291256Y46967D01*
G37*
%LPD*%
%LPC*%
G36*
X-291256Y36967D02*
X-291256Y36967D01*
X-293033Y38744D01*
X-293033Y41256D01*
X-291256Y43033D01*
X-288744Y43033D01*
X-286967Y41256D01*
X-286967Y38744D01*
X-288744Y36967D01*
X-291256Y36967D01*
G37*
%LPD*%
%LPC*%
G36*
X-251256Y36967D02*
X-251256Y36967D01*
X-253033Y38744D01*
X-253033Y41256D01*
X-251256Y43033D01*
X-248744Y43033D01*
X-246967Y41256D01*
X-246967Y38744D01*
X-248744Y36967D01*
X-251256Y36967D01*
G37*
%LPD*%
%LPC*%
G36*
X-261256Y36967D02*
X-261256Y36967D01*
X-263033Y38744D01*
X-263033Y41256D01*
X-261256Y43033D01*
X-258744Y43033D01*
X-256967Y41256D01*
X-256967Y38744D01*
X-258744Y36967D01*
X-261256Y36967D01*
G37*
%LPD*%
%LPC*%
G36*
X-271256Y86967D02*
X-271256Y86967D01*
X-273033Y88744D01*
X-273033Y91256D01*
X-271256Y93033D01*
X-268744Y93033D01*
X-266967Y91256D01*
X-266967Y88744D01*
X-268744Y86967D01*
X-271256Y86967D01*
G37*
%LPD*%
%LPC*%
G36*
X-261256Y46967D02*
X-261256Y46967D01*
X-263033Y48744D01*
X-263033Y51256D01*
X-261256Y53033D01*
X-258744Y53033D01*
X-256967Y51256D01*
X-256967Y48744D01*
X-258744Y46967D01*
X-261256Y46967D01*
G37*
%LPD*%
%LPC*%
G36*
X-221256Y86967D02*
X-221256Y86967D01*
X-223033Y88744D01*
X-223033Y91256D01*
X-221256Y93033D01*
X-218744Y93033D01*
X-216967Y91256D01*
X-216967Y88744D01*
X-218744Y86967D01*
X-221256Y86967D01*
G37*
%LPD*%
%LPC*%
G36*
X-231256Y86967D02*
X-231256Y86967D01*
X-233033Y88744D01*
X-233033Y91256D01*
X-231256Y93033D01*
X-228744Y93033D01*
X-226967Y91256D01*
X-226967Y88744D01*
X-228744Y86967D01*
X-231256Y86967D01*
G37*
%LPD*%
%LPC*%
G36*
X-241256Y86967D02*
X-241256Y86967D01*
X-243033Y88744D01*
X-243033Y91256D01*
X-241256Y93033D01*
X-238744Y93033D01*
X-236967Y91256D01*
X-236967Y88744D01*
X-238744Y86967D01*
X-241256Y86967D01*
G37*
%LPD*%
%LPC*%
G36*
X-251256Y86967D02*
X-251256Y86967D01*
X-253033Y88744D01*
X-253033Y91256D01*
X-251256Y93033D01*
X-248744Y93033D01*
X-246967Y91256D01*
X-246967Y88744D01*
X-248744Y86967D01*
X-251256Y86967D01*
G37*
%LPD*%
%LPC*%
G36*
X-301256Y86967D02*
X-301256Y86967D01*
X-303033Y88744D01*
X-303033Y91256D01*
X-301256Y93033D01*
X-298744Y93033D01*
X-296967Y91256D01*
X-296967Y88744D01*
X-298744Y86967D01*
X-301256Y86967D01*
G37*
%LPD*%
%LPC*%
G36*
X-311256Y86967D02*
X-311256Y86967D01*
X-313033Y88744D01*
X-313033Y91256D01*
X-311256Y93033D01*
X-308744Y93033D01*
X-306967Y91256D01*
X-306967Y88744D01*
X-308744Y86967D01*
X-311256Y86967D01*
G37*
%LPD*%
%LPC*%
G36*
X-211256Y86967D02*
X-211256Y86967D01*
X-213033Y88744D01*
X-213033Y91256D01*
X-211256Y93033D01*
X-208744Y93033D01*
X-206967Y91256D01*
X-206967Y88744D01*
X-208744Y86967D01*
X-211256Y86967D01*
G37*
%LPD*%
%LPC*%
G36*
X-291256Y86967D02*
X-291256Y86967D01*
X-293033Y88744D01*
X-293033Y91256D01*
X-291256Y93033D01*
X-288744Y93033D01*
X-286967Y91256D01*
X-286967Y88744D01*
X-288744Y86967D01*
X-291256Y86967D01*
G37*
%LPD*%
%LPC*%
G36*
X-155001Y-95001D02*
X-155001Y-95001D01*
X-155001Y-94999D01*
X-154999Y-94999D01*
X-154999Y-95001D01*
X-155001Y-95001D01*
G37*
%LPD*%
D10*
X-290000Y90000D03*
X-290000Y100000D03*
X-230000Y90000D03*
X-240000Y50000D03*
X-250000Y40000D03*
X-260000Y50000D03*
X-270000Y90000D03*
X-310000Y90000D03*
X-280000Y90000D03*
X-290000Y110000D03*
X-300000Y90000D03*
X-230000Y100000D03*
X-220000Y90000D03*
X-210000Y90000D03*
X-250000Y90000D03*
X-230000Y110000D03*
X-240000Y90000D03*
X-290000Y50000D03*
X-245000Y50000D03*
X-290000Y40000D03*
X-260000Y40000D03*
X-240000Y40000D03*
D11*
X-370000Y209500D03*
X-370000Y29500D03*
X-370000Y9500D03*
X-370000Y-10500D03*
X-370000Y169500D03*
X-370000Y149500D03*
X-370000Y109500D03*
X-370000Y89500D03*
X-370000Y69500D03*
X-370000Y49500D03*
X-370000Y129500D03*
X-370000Y189500D03*
X370000Y-10000D03*
X370000Y170000D03*
X370000Y190000D03*
X370000Y210000D03*
X370000Y30000D03*
X370000Y50000D03*
X370000Y90000D03*
X370000Y110000D03*
X370000Y130000D03*
X370000Y150000D03*
X370000Y70000D03*
X370000Y10000D03*
D12*
X-155000Y-95000D03*
X-245000Y-95000D03*
X-110000Y-95000D03*
X-200000Y-95000D03*
D13*
X-25000Y-265000D03*
X25000Y-265000D03*
X-25000Y-120000D03*
X25000Y-120000D03*
X0Y-265000D03*
D10*
X120000Y190000D03*
X215000Y280000D03*
X205000Y280000D03*
D14*
X-110552Y-552682D02*
X-110552Y-568938D01*
X-103327Y-568938D01*
X-97695Y-565326D02*
X-97695Y-561713D01*
X-97694Y-561713D02*
X-97692Y-561594D01*
X-97686Y-561474D01*
X-97676Y-561355D01*
X-97662Y-561237D01*
X-97645Y-561118D01*
X-97623Y-561001D01*
X-97598Y-560884D01*
X-97568Y-560769D01*
X-97535Y-560654D01*
X-97498Y-560540D01*
X-97458Y-560428D01*
X-97413Y-560317D01*
X-97365Y-560208D01*
X-97314Y-560100D01*
X-97259Y-559994D01*
X-97200Y-559890D01*
X-97138Y-559788D01*
X-97073Y-559688D01*
X-97004Y-559590D01*
X-96932Y-559494D01*
X-96857Y-559401D01*
X-96780Y-559311D01*
X-96699Y-559223D01*
X-96615Y-559138D01*
X-96528Y-559056D01*
X-96439Y-558976D01*
X-96347Y-558900D01*
X-96253Y-558826D01*
X-96156Y-558756D01*
X-96058Y-558689D01*
X-95957Y-558625D01*
X-95853Y-558565D01*
X-95748Y-558508D01*
X-95641Y-558455D01*
X-95533Y-558405D01*
X-95423Y-558359D01*
X-95311Y-558317D01*
X-95198Y-558278D01*
X-95084Y-558243D01*
X-94969Y-558212D01*
X-94852Y-558184D01*
X-94735Y-558161D01*
X-94618Y-558141D01*
X-94499Y-558125D01*
X-94380Y-558113D01*
X-94261Y-558105D01*
X-94142Y-558101D01*
X-94022Y-558101D01*
X-93903Y-558105D01*
X-93784Y-558113D01*
X-93665Y-558125D01*
X-93546Y-558141D01*
X-93429Y-558161D01*
X-93312Y-558184D01*
X-93195Y-558212D01*
X-93080Y-558243D01*
X-92966Y-558278D01*
X-92853Y-558317D01*
X-92741Y-558359D01*
X-92631Y-558405D01*
X-92523Y-558455D01*
X-92416Y-558508D01*
X-92311Y-558565D01*
X-92207Y-558625D01*
X-92106Y-558689D01*
X-92008Y-558756D01*
X-91911Y-558826D01*
X-91817Y-558900D01*
X-91725Y-558976D01*
X-91636Y-559056D01*
X-91549Y-559138D01*
X-91465Y-559223D01*
X-91384Y-559311D01*
X-91307Y-559401D01*
X-91232Y-559494D01*
X-91160Y-559590D01*
X-91091Y-559688D01*
X-91026Y-559788D01*
X-90964Y-559890D01*
X-90905Y-559994D01*
X-90850Y-560100D01*
X-90799Y-560208D01*
X-90751Y-560317D01*
X-90706Y-560428D01*
X-90666Y-560540D01*
X-90629Y-560654D01*
X-90596Y-560769D01*
X-90566Y-560884D01*
X-90541Y-561001D01*
X-90519Y-561118D01*
X-90502Y-561237D01*
X-90488Y-561355D01*
X-90478Y-561474D01*
X-90472Y-561594D01*
X-90470Y-561713D01*
X-90470Y-565326D01*
X-90472Y-565445D01*
X-90478Y-565565D01*
X-90488Y-565684D01*
X-90502Y-565802D01*
X-90519Y-565921D01*
X-90541Y-566038D01*
X-90566Y-566155D01*
X-90596Y-566270D01*
X-90629Y-566385D01*
X-90666Y-566499D01*
X-90706Y-566611D01*
X-90751Y-566722D01*
X-90799Y-566831D01*
X-90850Y-566939D01*
X-90905Y-567045D01*
X-90964Y-567149D01*
X-91026Y-567251D01*
X-91091Y-567351D01*
X-91160Y-567449D01*
X-91232Y-567545D01*
X-91307Y-567638D01*
X-91384Y-567728D01*
X-91465Y-567816D01*
X-91549Y-567901D01*
X-91636Y-567983D01*
X-91725Y-568063D01*
X-91817Y-568139D01*
X-91911Y-568213D01*
X-92008Y-568283D01*
X-92106Y-568350D01*
X-92207Y-568414D01*
X-92311Y-568474D01*
X-92416Y-568531D01*
X-92523Y-568584D01*
X-92631Y-568634D01*
X-92741Y-568680D01*
X-92853Y-568722D01*
X-92966Y-568761D01*
X-93080Y-568796D01*
X-93195Y-568827D01*
X-93312Y-568855D01*
X-93429Y-568878D01*
X-93546Y-568898D01*
X-93665Y-568914D01*
X-93784Y-568926D01*
X-93903Y-568934D01*
X-94022Y-568938D01*
X-94142Y-568938D01*
X-94261Y-568934D01*
X-94380Y-568926D01*
X-94499Y-568914D01*
X-94618Y-568898D01*
X-94735Y-568878D01*
X-94852Y-568855D01*
X-94969Y-568827D01*
X-95084Y-568796D01*
X-95198Y-568761D01*
X-95311Y-568722D01*
X-95423Y-568680D01*
X-95533Y-568634D01*
X-95641Y-568584D01*
X-95748Y-568531D01*
X-95853Y-568474D01*
X-95957Y-568414D01*
X-96058Y-568350D01*
X-96156Y-568283D01*
X-96253Y-568213D01*
X-96347Y-568139D01*
X-96439Y-568063D01*
X-96528Y-567983D01*
X-96615Y-567901D01*
X-96699Y-567816D01*
X-96780Y-567728D01*
X-96857Y-567638D01*
X-96932Y-567545D01*
X-97004Y-567449D01*
X-97073Y-567351D01*
X-97138Y-567251D01*
X-97200Y-567149D01*
X-97259Y-567045D01*
X-97314Y-566939D01*
X-97365Y-566831D01*
X-97413Y-566722D01*
X-97458Y-566611D01*
X-97498Y-566499D01*
X-97535Y-566385D01*
X-97568Y-566270D01*
X-97598Y-566155D01*
X-97623Y-566038D01*
X-97645Y-565921D01*
X-97662Y-565802D01*
X-97676Y-565684D01*
X-97686Y-565565D01*
X-97692Y-565445D01*
X-97694Y-565326D01*
X-84391Y-558101D02*
X-81682Y-568938D01*
X-78972Y-561713D01*
X-76263Y-568938D01*
X-73554Y-558101D01*
X-64765Y-568938D02*
X-60250Y-568938D01*
X-64765Y-568938D02*
X-64866Y-568936D01*
X-64967Y-568930D01*
X-65068Y-568921D01*
X-65169Y-568908D01*
X-65269Y-568891D01*
X-65368Y-568870D01*
X-65466Y-568846D01*
X-65563Y-568818D01*
X-65660Y-568786D01*
X-65755Y-568751D01*
X-65848Y-568712D01*
X-65940Y-568670D01*
X-66031Y-568624D01*
X-66120Y-568575D01*
X-66206Y-568523D01*
X-66291Y-568467D01*
X-66374Y-568409D01*
X-66454Y-568347D01*
X-66532Y-568282D01*
X-66608Y-568215D01*
X-66681Y-568145D01*
X-66751Y-568072D01*
X-66818Y-567996D01*
X-66883Y-567918D01*
X-66945Y-567838D01*
X-67003Y-567755D01*
X-67059Y-567670D01*
X-67111Y-567584D01*
X-67160Y-567495D01*
X-67206Y-567404D01*
X-67248Y-567312D01*
X-67287Y-567219D01*
X-67322Y-567124D01*
X-67354Y-567027D01*
X-67382Y-566930D01*
X-67406Y-566832D01*
X-67427Y-566733D01*
X-67444Y-566633D01*
X-67457Y-566532D01*
X-67466Y-566431D01*
X-67472Y-566330D01*
X-67474Y-566229D01*
X-67475Y-566229D02*
X-67475Y-561713D01*
X-67474Y-561713D02*
X-67472Y-561594D01*
X-67466Y-561474D01*
X-67456Y-561355D01*
X-67442Y-561237D01*
X-67425Y-561118D01*
X-67403Y-561001D01*
X-67378Y-560884D01*
X-67348Y-560769D01*
X-67315Y-560654D01*
X-67278Y-560540D01*
X-67238Y-560428D01*
X-67193Y-560317D01*
X-67145Y-560208D01*
X-67094Y-560100D01*
X-67039Y-559994D01*
X-66980Y-559890D01*
X-66918Y-559788D01*
X-66853Y-559688D01*
X-66784Y-559590D01*
X-66712Y-559494D01*
X-66637Y-559401D01*
X-66560Y-559311D01*
X-66479Y-559223D01*
X-66395Y-559138D01*
X-66308Y-559056D01*
X-66219Y-558976D01*
X-66127Y-558900D01*
X-66033Y-558826D01*
X-65936Y-558756D01*
X-65838Y-558689D01*
X-65737Y-558625D01*
X-65633Y-558565D01*
X-65528Y-558508D01*
X-65421Y-558455D01*
X-65313Y-558405D01*
X-65203Y-558359D01*
X-65091Y-558317D01*
X-64978Y-558278D01*
X-64864Y-558243D01*
X-64749Y-558212D01*
X-64632Y-558184D01*
X-64515Y-558161D01*
X-64398Y-558141D01*
X-64279Y-558125D01*
X-64160Y-558113D01*
X-64041Y-558105D01*
X-63922Y-558101D01*
X-63802Y-558101D01*
X-63683Y-558105D01*
X-63564Y-558113D01*
X-63445Y-558125D01*
X-63326Y-558141D01*
X-63209Y-558161D01*
X-63092Y-558184D01*
X-62975Y-558212D01*
X-62860Y-558243D01*
X-62746Y-558278D01*
X-62633Y-558317D01*
X-62521Y-558359D01*
X-62411Y-558405D01*
X-62303Y-558455D01*
X-62196Y-558508D01*
X-62091Y-558565D01*
X-61987Y-558625D01*
X-61886Y-558689D01*
X-61788Y-558756D01*
X-61691Y-558826D01*
X-61597Y-558900D01*
X-61505Y-558976D01*
X-61416Y-559056D01*
X-61329Y-559138D01*
X-61245Y-559223D01*
X-61164Y-559311D01*
X-61087Y-559401D01*
X-61012Y-559494D01*
X-60940Y-559590D01*
X-60871Y-559688D01*
X-60806Y-559788D01*
X-60744Y-559890D01*
X-60685Y-559994D01*
X-60630Y-560100D01*
X-60579Y-560208D01*
X-60531Y-560317D01*
X-60486Y-560428D01*
X-60446Y-560540D01*
X-60409Y-560654D01*
X-60376Y-560769D01*
X-60346Y-560884D01*
X-60321Y-561001D01*
X-60299Y-561118D01*
X-60282Y-561237D01*
X-60268Y-561355D01*
X-60258Y-561474D01*
X-60252Y-561594D01*
X-60250Y-561713D01*
X-60250Y-563519D01*
X-67475Y-563519D01*
X-53322Y-568938D02*
X-53322Y-558101D01*
X-47903Y-558101D01*
X-47903Y-559907D01*
X-33121Y-552682D02*
X-33121Y-568938D01*
X-34927Y-568938D02*
X-31315Y-568938D01*
X-31315Y-552682D02*
X-34927Y-552682D01*
X-24749Y-558101D02*
X-24749Y-568938D01*
X-24749Y-558101D02*
X-20234Y-558101D01*
X-20130Y-558103D01*
X-20027Y-558109D01*
X-19923Y-558119D01*
X-19820Y-558133D01*
X-19718Y-558151D01*
X-19617Y-558172D01*
X-19516Y-558198D01*
X-19417Y-558227D01*
X-19318Y-558260D01*
X-19221Y-558297D01*
X-19126Y-558338D01*
X-19032Y-558382D01*
X-18940Y-558430D01*
X-18850Y-558481D01*
X-18761Y-558536D01*
X-18675Y-558594D01*
X-18592Y-558656D01*
X-18510Y-558720D01*
X-18432Y-558788D01*
X-18356Y-558858D01*
X-18282Y-558931D01*
X-18212Y-559008D01*
X-18144Y-559086D01*
X-18080Y-559168D01*
X-18018Y-559251D01*
X-17960Y-559337D01*
X-17905Y-559426D01*
X-17854Y-559516D01*
X-17806Y-559608D01*
X-17762Y-559702D01*
X-17721Y-559797D01*
X-17684Y-559894D01*
X-17651Y-559993D01*
X-17622Y-560092D01*
X-17596Y-560193D01*
X-17575Y-560294D01*
X-17557Y-560396D01*
X-17543Y-560499D01*
X-17533Y-560603D01*
X-17527Y-560706D01*
X-17525Y-560810D01*
X-17524Y-560810D02*
X-17524Y-568938D01*
X-10160Y-568938D02*
X-10160Y-558101D01*
X-5645Y-558101D01*
X-5541Y-558103D01*
X-5438Y-558109D01*
X-5334Y-558119D01*
X-5231Y-558133D01*
X-5129Y-558151D01*
X-5028Y-558172D01*
X-4927Y-558198D01*
X-4828Y-558227D01*
X-4729Y-558260D01*
X-4632Y-558297D01*
X-4537Y-558338D01*
X-4443Y-558382D01*
X-4351Y-558430D01*
X-4261Y-558481D01*
X-4172Y-558536D01*
X-4086Y-558594D01*
X-4003Y-558656D01*
X-3921Y-558720D01*
X-3843Y-558788D01*
X-3767Y-558858D01*
X-3693Y-558931D01*
X-3623Y-559008D01*
X-3555Y-559086D01*
X-3491Y-559168D01*
X-3429Y-559251D01*
X-3371Y-559337D01*
X-3316Y-559426D01*
X-3265Y-559516D01*
X-3217Y-559608D01*
X-3173Y-559702D01*
X-3132Y-559797D01*
X-3095Y-559894D01*
X-3062Y-559993D01*
X-3033Y-560092D01*
X-3007Y-560193D01*
X-2986Y-560294D01*
X-2968Y-560396D01*
X-2954Y-560499D01*
X-2944Y-560603D01*
X-2938Y-560706D01*
X-2936Y-560810D01*
X-2935Y-560810D02*
X-2935Y-568938D01*
X6617Y-568938D02*
X11133Y-568938D01*
X6617Y-568938D02*
X6516Y-568936D01*
X6415Y-568930D01*
X6314Y-568921D01*
X6213Y-568908D01*
X6113Y-568891D01*
X6014Y-568870D01*
X5916Y-568846D01*
X5819Y-568818D01*
X5722Y-568786D01*
X5627Y-568751D01*
X5534Y-568712D01*
X5442Y-568670D01*
X5351Y-568624D01*
X5263Y-568575D01*
X5176Y-568523D01*
X5091Y-568467D01*
X5008Y-568409D01*
X4928Y-568347D01*
X4850Y-568282D01*
X4774Y-568215D01*
X4701Y-568145D01*
X4631Y-568072D01*
X4564Y-567996D01*
X4499Y-567918D01*
X4437Y-567838D01*
X4379Y-567755D01*
X4323Y-567670D01*
X4271Y-567584D01*
X4222Y-567495D01*
X4176Y-567404D01*
X4134Y-567312D01*
X4095Y-567219D01*
X4060Y-567124D01*
X4028Y-567027D01*
X4000Y-566930D01*
X3976Y-566832D01*
X3955Y-566733D01*
X3938Y-566633D01*
X3925Y-566532D01*
X3916Y-566431D01*
X3910Y-566330D01*
X3908Y-566229D01*
X3908Y-561713D01*
X3910Y-561594D01*
X3916Y-561474D01*
X3926Y-561355D01*
X3940Y-561237D01*
X3957Y-561118D01*
X3979Y-561001D01*
X4004Y-560884D01*
X4034Y-560769D01*
X4067Y-560654D01*
X4104Y-560540D01*
X4144Y-560428D01*
X4189Y-560317D01*
X4237Y-560208D01*
X4288Y-560100D01*
X4343Y-559994D01*
X4402Y-559890D01*
X4464Y-559788D01*
X4529Y-559688D01*
X4598Y-559590D01*
X4670Y-559494D01*
X4745Y-559401D01*
X4822Y-559311D01*
X4903Y-559223D01*
X4987Y-559138D01*
X5074Y-559056D01*
X5163Y-558976D01*
X5255Y-558900D01*
X5349Y-558826D01*
X5446Y-558756D01*
X5544Y-558689D01*
X5645Y-558625D01*
X5749Y-558565D01*
X5854Y-558508D01*
X5961Y-558455D01*
X6069Y-558405D01*
X6179Y-558359D01*
X6291Y-558317D01*
X6404Y-558278D01*
X6518Y-558243D01*
X6633Y-558212D01*
X6750Y-558184D01*
X6867Y-558161D01*
X6984Y-558141D01*
X7103Y-558125D01*
X7222Y-558113D01*
X7341Y-558105D01*
X7460Y-558101D01*
X7580Y-558101D01*
X7699Y-558105D01*
X7818Y-558113D01*
X7937Y-558125D01*
X8056Y-558141D01*
X8173Y-558161D01*
X8290Y-558184D01*
X8407Y-558212D01*
X8522Y-558243D01*
X8636Y-558278D01*
X8749Y-558317D01*
X8861Y-558359D01*
X8971Y-558405D01*
X9079Y-558455D01*
X9186Y-558508D01*
X9291Y-558565D01*
X9395Y-558625D01*
X9496Y-558689D01*
X9594Y-558756D01*
X9691Y-558826D01*
X9785Y-558900D01*
X9877Y-558976D01*
X9966Y-559056D01*
X10053Y-559138D01*
X10137Y-559223D01*
X10218Y-559311D01*
X10295Y-559401D01*
X10370Y-559494D01*
X10442Y-559590D01*
X10511Y-559688D01*
X10576Y-559788D01*
X10638Y-559890D01*
X10697Y-559994D01*
X10752Y-560100D01*
X10803Y-560208D01*
X10851Y-560317D01*
X10896Y-560428D01*
X10936Y-560540D01*
X10973Y-560654D01*
X11006Y-560769D01*
X11036Y-560884D01*
X11061Y-561001D01*
X11083Y-561118D01*
X11100Y-561237D01*
X11114Y-561355D01*
X11124Y-561474D01*
X11130Y-561594D01*
X11132Y-561713D01*
X11133Y-561713D02*
X11133Y-563519D01*
X3908Y-563519D01*
X18061Y-568938D02*
X18061Y-558101D01*
X23480Y-558101D01*
X23480Y-559907D01*
X37533Y-552682D02*
X37533Y-568938D01*
X42951Y-561713D02*
X37533Y-552682D01*
X42951Y-561713D02*
X48370Y-552682D01*
X48370Y-568938D01*
X58200Y-568938D02*
X62716Y-568938D01*
X58200Y-568938D02*
X58099Y-568936D01*
X57998Y-568930D01*
X57897Y-568921D01*
X57796Y-568908D01*
X57696Y-568891D01*
X57597Y-568870D01*
X57499Y-568846D01*
X57402Y-568818D01*
X57305Y-568786D01*
X57210Y-568751D01*
X57117Y-568712D01*
X57025Y-568670D01*
X56934Y-568624D01*
X56846Y-568575D01*
X56759Y-568523D01*
X56674Y-568467D01*
X56591Y-568409D01*
X56511Y-568347D01*
X56433Y-568282D01*
X56357Y-568215D01*
X56284Y-568145D01*
X56214Y-568072D01*
X56147Y-567996D01*
X56082Y-567918D01*
X56020Y-567838D01*
X55962Y-567755D01*
X55906Y-567670D01*
X55854Y-567584D01*
X55805Y-567495D01*
X55759Y-567404D01*
X55717Y-567312D01*
X55678Y-567219D01*
X55643Y-567124D01*
X55611Y-567027D01*
X55583Y-566930D01*
X55559Y-566832D01*
X55538Y-566733D01*
X55521Y-566633D01*
X55508Y-566532D01*
X55499Y-566431D01*
X55493Y-566330D01*
X55491Y-566229D01*
X55491Y-561713D01*
X55493Y-561594D01*
X55499Y-561474D01*
X55509Y-561355D01*
X55523Y-561237D01*
X55540Y-561118D01*
X55562Y-561001D01*
X55587Y-560884D01*
X55617Y-560769D01*
X55650Y-560654D01*
X55687Y-560540D01*
X55727Y-560428D01*
X55772Y-560317D01*
X55820Y-560208D01*
X55871Y-560100D01*
X55926Y-559994D01*
X55985Y-559890D01*
X56047Y-559788D01*
X56112Y-559688D01*
X56181Y-559590D01*
X56253Y-559494D01*
X56328Y-559401D01*
X56405Y-559311D01*
X56486Y-559223D01*
X56570Y-559138D01*
X56657Y-559056D01*
X56746Y-558976D01*
X56838Y-558900D01*
X56932Y-558826D01*
X57029Y-558756D01*
X57127Y-558689D01*
X57228Y-558625D01*
X57332Y-558565D01*
X57437Y-558508D01*
X57544Y-558455D01*
X57652Y-558405D01*
X57762Y-558359D01*
X57874Y-558317D01*
X57987Y-558278D01*
X58101Y-558243D01*
X58216Y-558212D01*
X58333Y-558184D01*
X58450Y-558161D01*
X58567Y-558141D01*
X58686Y-558125D01*
X58805Y-558113D01*
X58924Y-558105D01*
X59043Y-558101D01*
X59163Y-558101D01*
X59282Y-558105D01*
X59401Y-558113D01*
X59520Y-558125D01*
X59639Y-558141D01*
X59756Y-558161D01*
X59873Y-558184D01*
X59990Y-558212D01*
X60105Y-558243D01*
X60219Y-558278D01*
X60332Y-558317D01*
X60444Y-558359D01*
X60554Y-558405D01*
X60662Y-558455D01*
X60769Y-558508D01*
X60874Y-558565D01*
X60978Y-558625D01*
X61079Y-558689D01*
X61177Y-558756D01*
X61274Y-558826D01*
X61368Y-558900D01*
X61460Y-558976D01*
X61549Y-559056D01*
X61636Y-559138D01*
X61720Y-559223D01*
X61801Y-559311D01*
X61878Y-559401D01*
X61953Y-559494D01*
X62025Y-559590D01*
X62094Y-559688D01*
X62159Y-559788D01*
X62221Y-559890D01*
X62280Y-559994D01*
X62335Y-560100D01*
X62386Y-560208D01*
X62434Y-560317D01*
X62479Y-560428D01*
X62519Y-560540D01*
X62556Y-560654D01*
X62589Y-560769D01*
X62619Y-560884D01*
X62644Y-561001D01*
X62666Y-561118D01*
X62683Y-561237D01*
X62697Y-561355D01*
X62707Y-561474D01*
X62713Y-561594D01*
X62715Y-561713D01*
X62716Y-561713D02*
X62716Y-563519D01*
X55491Y-563519D01*
X67741Y-558101D02*
X73159Y-558101D01*
X69547Y-552682D02*
X69547Y-566229D01*
X69549Y-566330D01*
X69555Y-566431D01*
X69564Y-566532D01*
X69577Y-566633D01*
X69594Y-566733D01*
X69615Y-566832D01*
X69639Y-566930D01*
X69667Y-567027D01*
X69699Y-567124D01*
X69734Y-567219D01*
X69773Y-567312D01*
X69815Y-567404D01*
X69861Y-567495D01*
X69910Y-567584D01*
X69962Y-567670D01*
X70018Y-567755D01*
X70076Y-567838D01*
X70138Y-567918D01*
X70203Y-567996D01*
X70270Y-568072D01*
X70340Y-568145D01*
X70413Y-568215D01*
X70489Y-568282D01*
X70567Y-568347D01*
X70647Y-568409D01*
X70730Y-568467D01*
X70815Y-568523D01*
X70902Y-568575D01*
X70990Y-568624D01*
X71081Y-568670D01*
X71173Y-568712D01*
X71266Y-568751D01*
X71361Y-568786D01*
X71458Y-568818D01*
X71555Y-568846D01*
X71653Y-568870D01*
X71752Y-568891D01*
X71852Y-568908D01*
X71953Y-568921D01*
X72054Y-568930D01*
X72155Y-568936D01*
X72256Y-568938D01*
X73159Y-568938D01*
X82025Y-562616D02*
X86089Y-562616D01*
X82025Y-562616D02*
X81913Y-562618D01*
X81802Y-562624D01*
X81691Y-562634D01*
X81580Y-562647D01*
X81470Y-562665D01*
X81361Y-562687D01*
X81252Y-562712D01*
X81144Y-562741D01*
X81038Y-562774D01*
X80932Y-562811D01*
X80828Y-562851D01*
X80726Y-562895D01*
X80625Y-562943D01*
X80526Y-562994D01*
X80428Y-563049D01*
X80333Y-563107D01*
X80240Y-563168D01*
X80149Y-563233D01*
X80060Y-563301D01*
X79974Y-563372D01*
X79891Y-563445D01*
X79810Y-563522D01*
X79731Y-563602D01*
X79656Y-563684D01*
X79584Y-563769D01*
X79514Y-563856D01*
X79448Y-563946D01*
X79385Y-564038D01*
X79325Y-564133D01*
X79269Y-564229D01*
X79216Y-564327D01*
X79167Y-564427D01*
X79121Y-564529D01*
X79079Y-564632D01*
X79040Y-564737D01*
X79005Y-564843D01*
X78974Y-564950D01*
X78947Y-565058D01*
X78923Y-565167D01*
X78904Y-565277D01*
X78888Y-565387D01*
X78876Y-565498D01*
X78868Y-565610D01*
X78864Y-565721D01*
X78864Y-565833D01*
X78868Y-565944D01*
X78876Y-566056D01*
X78888Y-566167D01*
X78904Y-566277D01*
X78923Y-566387D01*
X78947Y-566496D01*
X78974Y-566604D01*
X79005Y-566711D01*
X79040Y-566817D01*
X79079Y-566922D01*
X79121Y-567025D01*
X79167Y-567127D01*
X79216Y-567227D01*
X79269Y-567325D01*
X79325Y-567421D01*
X79385Y-567516D01*
X79448Y-567608D01*
X79514Y-567698D01*
X79584Y-567785D01*
X79656Y-567870D01*
X79731Y-567952D01*
X79810Y-568032D01*
X79891Y-568109D01*
X79974Y-568182D01*
X80060Y-568253D01*
X80149Y-568321D01*
X80240Y-568386D01*
X80333Y-568447D01*
X80428Y-568505D01*
X80526Y-568560D01*
X80625Y-568611D01*
X80726Y-568659D01*
X80828Y-568703D01*
X80932Y-568743D01*
X81038Y-568780D01*
X81144Y-568813D01*
X81252Y-568842D01*
X81361Y-568867D01*
X81470Y-568889D01*
X81580Y-568907D01*
X81691Y-568920D01*
X81802Y-568930D01*
X81913Y-568936D01*
X82025Y-568938D01*
X86089Y-568938D01*
X86089Y-560810D01*
X86087Y-560709D01*
X86081Y-560608D01*
X86072Y-560507D01*
X86059Y-560406D01*
X86042Y-560306D01*
X86021Y-560207D01*
X85997Y-560109D01*
X85969Y-560012D01*
X85937Y-559915D01*
X85902Y-559820D01*
X85863Y-559727D01*
X85821Y-559635D01*
X85775Y-559544D01*
X85726Y-559456D01*
X85674Y-559369D01*
X85618Y-559284D01*
X85560Y-559201D01*
X85498Y-559121D01*
X85433Y-559043D01*
X85366Y-558967D01*
X85296Y-558894D01*
X85223Y-558824D01*
X85147Y-558757D01*
X85069Y-558692D01*
X84989Y-558630D01*
X84906Y-558572D01*
X84821Y-558516D01*
X84735Y-558464D01*
X84646Y-558415D01*
X84555Y-558369D01*
X84463Y-558327D01*
X84370Y-558288D01*
X84275Y-558253D01*
X84178Y-558221D01*
X84081Y-558193D01*
X83983Y-558169D01*
X83884Y-558148D01*
X83784Y-558131D01*
X83683Y-558118D01*
X83582Y-558109D01*
X83481Y-558103D01*
X83380Y-558101D01*
X79768Y-558101D01*
X93243Y-552682D02*
X93243Y-566229D01*
X93245Y-566330D01*
X93251Y-566431D01*
X93260Y-566532D01*
X93273Y-566633D01*
X93290Y-566733D01*
X93311Y-566832D01*
X93335Y-566930D01*
X93363Y-567027D01*
X93395Y-567124D01*
X93430Y-567219D01*
X93469Y-567312D01*
X93511Y-567404D01*
X93557Y-567495D01*
X93606Y-567584D01*
X93658Y-567670D01*
X93714Y-567755D01*
X93772Y-567838D01*
X93834Y-567918D01*
X93899Y-567996D01*
X93966Y-568072D01*
X94036Y-568145D01*
X94109Y-568215D01*
X94185Y-568282D01*
X94263Y-568347D01*
X94343Y-568409D01*
X94426Y-568467D01*
X94511Y-568523D01*
X94598Y-568575D01*
X94686Y-568624D01*
X94777Y-568670D01*
X94869Y-568712D01*
X94962Y-568751D01*
X95057Y-568786D01*
X95154Y-568818D01*
X95251Y-568846D01*
X95349Y-568870D01*
X95448Y-568891D01*
X95548Y-568908D01*
X95649Y-568921D01*
X95750Y-568930D01*
X95851Y-568936D01*
X95952Y-568938D01*
D15*
X-10000Y40000D03*
X22500Y-37500D03*
X72500Y57500D03*
X52500Y60000D03*
D16*
X-17500Y112500D02*
X-17500Y117500D01*
X-17500Y112500D02*
X-105000Y25000D01*
D15*
X-17500Y117500D03*
X-105000Y25000D03*
X-180000Y100000D03*
X-65000Y37500D03*
X-302500Y-152500D03*
X232500Y185000D03*
X-135000Y-55000D03*
X-15000Y202500D03*
X-130000Y200000D03*
X290000Y52500D03*
X-30000Y155000D03*
X-85000Y210000D03*
X-77500Y192500D03*
X-232500Y-90000D03*
X-217500Y-75000D03*
X35000Y100000D03*
X172500Y7500D03*
D16*
X290000Y-152500D02*
X297500Y-160000D01*
X290000Y-152500D02*
X290000Y-150000D01*
X45000Y95000D01*
X32500Y95000D01*
X15000Y112500D01*
X15000Y150000D01*
X17500Y152500D01*
X22500Y152500D01*
X27500Y147500D01*
D15*
X297500Y-160000D03*
X27500Y147500D03*
X-70000Y112500D03*
X-87500Y95000D03*
X-35000Y137500D03*
X-77500Y165000D03*
X-70000Y130000D03*
X-87500Y112500D03*
X277500Y37500D03*
X277500Y10000D03*
X277500Y112500D03*
X267500Y102500D03*
X312500Y50000D03*
X255000Y110000D03*
X330000Y-185000D03*
X330000Y-195000D03*
X-287500Y-62500D03*
X-275000Y-50000D03*
X-32500Y90000D03*
X285000Y-22500D03*
X-125000Y210000D03*
X32500Y5000D03*
X227500Y90000D03*
X292500Y107500D03*
X265000Y20000D03*
X-230000Y160000D03*
X272500Y-5000D03*
X-120000Y205000D03*
X227500Y5000D03*
X-90000Y215000D03*
X-17500Y90000D03*
X227500Y-15000D03*
X-65000Y117500D03*
D16*
X0Y92500D02*
X0Y22500D01*
X-22500Y0D01*
X-22500Y-100000D01*
X15000Y-137500D01*
X15000Y-255000D01*
X25000Y-265000D01*
D15*
X0Y92500D03*
D16*
X-12500Y50000D02*
X-12500Y147500D01*
X-12500Y50000D02*
X-32500Y30000D01*
X-32500Y-107500D01*
X-25000Y-115000D01*
X-25000Y-120000D01*
D15*
X-12500Y147500D03*
X-2500Y147500D03*
X-37500Y-42500D03*
D16*
X-7500Y50000D02*
X-7500Y187500D01*
X-7500Y50000D02*
X-27500Y30000D01*
X-27500Y-42500D01*
D15*
X-7500Y187500D03*
X-27500Y-42500D03*
X-25000Y90000D03*
X27500Y-42500D03*
X-27500Y62500D03*
X65000Y-42500D03*
X-22500Y57500D03*
X5000Y-42500D03*
X-102500Y95000D03*
D16*
X37500Y107500D02*
X297500Y-152500D01*
X37500Y107500D02*
X35000Y107500D01*
X20000Y122500D01*
X20000Y147500D01*
D15*
X297500Y-152500D03*
X20000Y147500D03*
X-300000Y-82500D03*
X-247500Y-135000D03*
X-325000Y-62500D03*
X-332500Y-70000D03*
X280000Y-170000D03*
X127500Y-17500D03*
X-297500Y-147500D03*
X2500Y152500D03*
X-20000Y207500D03*
X-20000Y197500D03*
X-47500Y242500D03*
X-42500Y197500D03*
D14*
X95000Y135000D02*
X95000Y280000D01*
X95000Y135000D02*
X35000Y135000D01*
X35000Y115000D01*
X160000Y115000D01*
X205000Y160000D01*
X205000Y280000D01*
D15*
X322500Y-47500D03*
X307500Y-75000D03*
X320000Y-170000D03*
X320000Y-195000D03*
M02*
